<?xml version="1.0" encoding="utf-8" standalone="no"?>
<!DOCTYPE svg PUBLIC "-//W3C//DTD SVG 1.1//EN"
  "http://www.w3.org/Graphics/SVG/1.1/DTD/svg11.dtd">
<!-- Created with matplotlib (https://matplotlib.org/) -->
<svg height="388.844525pt" version="1.1" viewBox="0 0 1000.358125 388.844525" width="1000.358125pt" xmlns="http://www.w3.org/2000/svg" xmlns:xlink="http://www.w3.org/1999/xlink">
 <defs>
  <style type="text/css">
*{stroke-linecap:butt;stroke-linejoin:round;}
  </style>
 </defs>
 <g id="figure_1">
  <g id="axes_1">
   <g id="patch_1">
    <path d="M 32.968125 353.2239 
L 993.158125 353.2239 
L 993.158125 35.2559 
L 32.968125 35.2559 
z
" style="fill:#ffffff;"/>
   </g>
   <g id="matplotlib.axis_1">
    <g id="xtick_1">
     <g id="text_1">
      <!-- 0 -->
      <defs>
       <path d="M 31.78125 66.40625 
Q 24.171875 66.40625 20.328125 58.90625 
Q 16.5 51.421875 16.5 36.375 
Q 16.5 21.390625 20.328125 13.890625 
Q 24.171875 6.390625 31.78125 6.390625 
Q 39.453125 6.390625 43.28125 13.890625 
Q 47.125 21.390625 47.125 36.375 
Q 47.125 51.421875 43.28125 58.90625 
Q 39.453125 66.40625 31.78125 66.40625 
z
M 31.78125 74.21875 
Q 44.046875 74.21875 50.515625 64.515625 
Q 56.984375 54.828125 56.984375 36.375 
Q 56.984375 17.96875 50.515625 8.265625 
Q 44.046875 -1.421875 31.78125 -1.421875 
Q 19.53125 -1.421875 13.0625 8.265625 
Q 6.59375 17.96875 6.59375 36.375 
Q 6.59375 54.828125 13.0625 64.515625 
Q 19.53125 74.21875 31.78125 74.21875 
z
" id="DejaVuSans-48"/>
      </defs>
      <g transform="translate(68.209736 366.30265)scale(0.08 -0.08)">
       <use xlink:href="#DejaVuSans-48"/>
      </g>
     </g>
    </g>
    <g id="xtick_2">
     <g id="text_2">
      <!-- 20 -->
      <defs>
       <path d="M 19.1875 8.296875 
L 53.609375 8.296875 
L 53.609375 0 
L 7.328125 0 
L 7.328125 8.296875 
Q 12.9375 14.109375 22.625 23.890625 
Q 32.328125 33.6875 34.8125 36.53125 
Q 39.546875 41.84375 41.421875 45.53125 
Q 43.3125 49.21875 43.3125 52.78125 
Q 43.3125 58.59375 39.234375 62.25 
Q 35.15625 65.921875 28.609375 65.921875 
Q 23.96875 65.921875 18.8125 64.3125 
Q 13.671875 62.703125 7.8125 59.421875 
L 7.8125 69.390625 
Q 13.765625 71.78125 18.9375 73 
Q 24.125 74.21875 28.421875 74.21875 
Q 39.75 74.21875 46.484375 68.546875 
Q 53.21875 62.890625 53.21875 53.421875 
Q 53.21875 48.921875 51.53125 44.890625 
Q 49.859375 40.875 45.40625 35.40625 
Q 44.1875 33.984375 37.640625 27.21875 
Q 31.109375 20.453125 19.1875 8.296875 
z
" id="DejaVuSans-50"/>
      </defs>
      <g transform="translate(182.832521 366.30265)scale(0.08 -0.08)">
       <use xlink:href="#DejaVuSans-50"/>
       <use x="63.623047" xlink:href="#DejaVuSans-48"/>
      </g>
     </g>
    </g>
    <g id="xtick_3">
     <g id="text_3">
      <!-- 40 -->
      <defs>
       <path d="M 37.796875 64.3125 
L 12.890625 25.390625 
L 37.796875 25.390625 
z
M 35.203125 72.90625 
L 47.609375 72.90625 
L 47.609375 25.390625 
L 58.015625 25.390625 
L 58.015625 17.1875 
L 47.609375 17.1875 
L 47.609375 0 
L 37.796875 0 
L 37.796875 17.1875 
L 4.890625 17.1875 
L 4.890625 26.703125 
z
" id="DejaVuSans-52"/>
      </defs>
      <g transform="translate(300.000306 366.30265)scale(0.08 -0.08)">
       <use xlink:href="#DejaVuSans-52"/>
       <use x="63.623047" xlink:href="#DejaVuSans-48"/>
      </g>
     </g>
    </g>
    <g id="xtick_4">
     <g id="text_4">
      <!-- 60 -->
      <defs>
       <path d="M 33.015625 40.375 
Q 26.375 40.375 22.484375 35.828125 
Q 18.609375 31.296875 18.609375 23.390625 
Q 18.609375 15.53125 22.484375 10.953125 
Q 26.375 6.390625 33.015625 6.390625 
Q 39.65625 6.390625 43.53125 10.953125 
Q 47.40625 15.53125 47.40625 23.390625 
Q 47.40625 31.296875 43.53125 35.828125 
Q 39.65625 40.375 33.015625 40.375 
z
M 52.59375 71.296875 
L 52.59375 62.3125 
Q 48.875 64.0625 45.09375 64.984375 
Q 41.3125 65.921875 37.59375 65.921875 
Q 27.828125 65.921875 22.671875 59.328125 
Q 17.53125 52.734375 16.796875 39.40625 
Q 19.671875 43.65625 24.015625 45.921875 
Q 28.375 48.1875 33.59375 48.1875 
Q 44.578125 48.1875 50.953125 41.515625 
Q 57.328125 34.859375 57.328125 23.390625 
Q 57.328125 12.15625 50.6875 5.359375 
Q 44.046875 -1.421875 33.015625 -1.421875 
Q 20.359375 -1.421875 13.671875 8.265625 
Q 6.984375 17.96875 6.984375 36.375 
Q 6.984375 53.65625 15.1875 63.9375 
Q 23.390625 74.21875 37.203125 74.21875 
Q 40.921875 74.21875 44.703125 73.484375 
Q 48.484375 72.75 52.59375 71.296875 
z
" id="DejaVuSans-54"/>
      </defs>
      <g transform="translate(417.168091 366.30265)scale(0.08 -0.08)">
       <use xlink:href="#DejaVuSans-54"/>
       <use x="63.623047" xlink:href="#DejaVuSans-48"/>
      </g>
     </g>
    </g>
    <g id="xtick_5">
     <g id="text_5">
      <!-- 80 -->
      <defs>
       <path d="M 31.78125 34.625 
Q 24.75 34.625 20.71875 30.859375 
Q 16.703125 27.09375 16.703125 20.515625 
Q 16.703125 13.921875 20.71875 10.15625 
Q 24.75 6.390625 31.78125 6.390625 
Q 38.8125 6.390625 42.859375 10.171875 
Q 46.921875 13.96875 46.921875 20.515625 
Q 46.921875 27.09375 42.890625 30.859375 
Q 38.875 34.625 31.78125 34.625 
z
M 21.921875 38.8125 
Q 15.578125 40.375 12.03125 44.71875 
Q 8.5 49.078125 8.5 55.328125 
Q 8.5 64.0625 14.71875 69.140625 
Q 20.953125 74.21875 31.78125 74.21875 
Q 42.671875 74.21875 48.875 69.140625 
Q 55.078125 64.0625 55.078125 55.328125 
Q 55.078125 49.078125 51.53125 44.71875 
Q 48 40.375 41.703125 38.8125 
Q 48.828125 37.15625 52.796875 32.3125 
Q 56.78125 27.484375 56.78125 20.515625 
Q 56.78125 9.90625 50.3125 4.234375 
Q 43.84375 -1.421875 31.78125 -1.421875 
Q 19.734375 -1.421875 13.25 4.234375 
Q 6.78125 9.90625 6.78125 20.515625 
Q 6.78125 27.484375 10.78125 32.3125 
Q 14.796875 37.15625 21.921875 38.8125 
z
M 18.3125 54.390625 
Q 18.3125 48.734375 21.84375 45.5625 
Q 25.390625 42.390625 31.78125 42.390625 
Q 38.140625 42.390625 41.71875 45.5625 
Q 45.3125 48.734375 45.3125 54.390625 
Q 45.3125 60.0625 41.71875 63.234375 
Q 38.140625 66.40625 31.78125 66.40625 
Q 25.390625 66.40625 21.84375 63.234375 
Q 18.3125 60.0625 18.3125 54.390625 
z
" id="DejaVuSans-56"/>
      </defs>
      <g transform="translate(534.335877 366.30265)scale(0.08 -0.08)">
       <use xlink:href="#DejaVuSans-56"/>
       <use x="63.623047" xlink:href="#DejaVuSans-48"/>
      </g>
     </g>
    </g>
    <g id="xtick_6">
     <g id="text_6">
      <!-- 100 -->
      <defs>
       <path d="M 12.40625 8.296875 
L 28.515625 8.296875 
L 28.515625 63.921875 
L 10.984375 60.40625 
L 10.984375 69.390625 
L 28.421875 72.90625 
L 38.28125 72.90625 
L 38.28125 8.296875 
L 54.390625 8.296875 
L 54.390625 0 
L 12.40625 0 
z
" id="DejaVuSans-49"/>
      </defs>
      <g transform="translate(648.958662 366.30265)scale(0.08 -0.08)">
       <use xlink:href="#DejaVuSans-49"/>
       <use x="63.623047" xlink:href="#DejaVuSans-48"/>
       <use x="127.246094" xlink:href="#DejaVuSans-48"/>
      </g>
     </g>
    </g>
    <g id="xtick_7">
     <g id="text_7">
      <!-- 120 -->
      <g transform="translate(766.126447 366.30265)scale(0.08 -0.08)">
       <use xlink:href="#DejaVuSans-49"/>
       <use x="63.623047" xlink:href="#DejaVuSans-50"/>
       <use x="127.246094" xlink:href="#DejaVuSans-48"/>
      </g>
     </g>
    </g>
    <g id="xtick_8">
     <g id="text_8">
      <!-- 140 -->
      <g transform="translate(883.294232 366.30265)scale(0.08 -0.08)">
       <use xlink:href="#DejaVuSans-49"/>
       <use x="63.623047" xlink:href="#DejaVuSans-52"/>
       <use x="127.246094" xlink:href="#DejaVuSans-48"/>
      </g>
     </g>
    </g>
    <g id="text_9">
     <!-- Read Position -->
     <defs>
      <path d="M 44.390625 34.1875 
Q 47.5625 33.109375 50.5625 29.59375 
Q 53.5625 26.078125 56.59375 19.921875 
L 66.609375 0 
L 56 0 
L 46.6875 18.703125 
Q 43.0625 26.03125 39.671875 28.421875 
Q 36.28125 30.8125 30.421875 30.8125 
L 19.671875 30.8125 
L 19.671875 0 
L 9.8125 0 
L 9.8125 72.90625 
L 32.078125 72.90625 
Q 44.578125 72.90625 50.734375 67.671875 
Q 56.890625 62.453125 56.890625 51.90625 
Q 56.890625 45.015625 53.6875 40.46875 
Q 50.484375 35.9375 44.390625 34.1875 
z
M 19.671875 64.796875 
L 19.671875 38.921875 
L 32.078125 38.921875 
Q 39.203125 38.921875 42.84375 42.21875 
Q 46.484375 45.515625 46.484375 51.90625 
Q 46.484375 58.296875 42.84375 61.546875 
Q 39.203125 64.796875 32.078125 64.796875 
z
" id="DejaVuSans-82"/>
      <path d="M 56.203125 29.59375 
L 56.203125 25.203125 
L 14.890625 25.203125 
Q 15.484375 15.921875 20.484375 11.0625 
Q 25.484375 6.203125 34.421875 6.203125 
Q 39.59375 6.203125 44.453125 7.46875 
Q 49.3125 8.734375 54.109375 11.28125 
L 54.109375 2.78125 
Q 49.265625 0.734375 44.1875 -0.34375 
Q 39.109375 -1.421875 33.890625 -1.421875 
Q 20.796875 -1.421875 13.15625 6.1875 
Q 5.515625 13.8125 5.515625 26.8125 
Q 5.515625 40.234375 12.765625 48.109375 
Q 20.015625 56 32.328125 56 
Q 43.359375 56 49.78125 48.890625 
Q 56.203125 41.796875 56.203125 29.59375 
z
M 47.21875 32.234375 
Q 47.125 39.59375 43.09375 43.984375 
Q 39.0625 48.390625 32.421875 48.390625 
Q 24.90625 48.390625 20.390625 44.140625 
Q 15.875 39.890625 15.1875 32.171875 
z
" id="DejaVuSans-101"/>
      <path d="M 34.28125 27.484375 
Q 23.390625 27.484375 19.1875 25 
Q 14.984375 22.515625 14.984375 16.5 
Q 14.984375 11.71875 18.140625 8.90625 
Q 21.296875 6.109375 26.703125 6.109375 
Q 34.1875 6.109375 38.703125 11.40625 
Q 43.21875 16.703125 43.21875 25.484375 
L 43.21875 27.484375 
z
M 52.203125 31.203125 
L 52.203125 0 
L 43.21875 0 
L 43.21875 8.296875 
Q 40.140625 3.328125 35.546875 0.953125 
Q 30.953125 -1.421875 24.3125 -1.421875 
Q 15.921875 -1.421875 10.953125 3.296875 
Q 6 8.015625 6 15.921875 
Q 6 25.140625 12.171875 29.828125 
Q 18.359375 34.515625 30.609375 34.515625 
L 43.21875 34.515625 
L 43.21875 35.40625 
Q 43.21875 41.609375 39.140625 45 
Q 35.0625 48.390625 27.6875 48.390625 
Q 23 48.390625 18.546875 47.265625 
Q 14.109375 46.140625 10.015625 43.890625 
L 10.015625 52.203125 
Q 14.9375 54.109375 19.578125 55.046875 
Q 24.21875 56 28.609375 56 
Q 40.484375 56 46.34375 49.84375 
Q 52.203125 43.703125 52.203125 31.203125 
z
" id="DejaVuSans-97"/>
      <path d="M 45.40625 46.390625 
L 45.40625 75.984375 
L 54.390625 75.984375 
L 54.390625 0 
L 45.40625 0 
L 45.40625 8.203125 
Q 42.578125 3.328125 38.25 0.953125 
Q 33.9375 -1.421875 27.875 -1.421875 
Q 17.96875 -1.421875 11.734375 6.484375 
Q 5.515625 14.40625 5.515625 27.296875 
Q 5.515625 40.1875 11.734375 48.09375 
Q 17.96875 56 27.875 56 
Q 33.9375 56 38.25 53.625 
Q 42.578125 51.265625 45.40625 46.390625 
z
M 14.796875 27.296875 
Q 14.796875 17.390625 18.875 11.75 
Q 22.953125 6.109375 30.078125 6.109375 
Q 37.203125 6.109375 41.296875 11.75 
Q 45.40625 17.390625 45.40625 27.296875 
Q 45.40625 37.203125 41.296875 42.84375 
Q 37.203125 48.484375 30.078125 48.484375 
Q 22.953125 48.484375 18.875 42.84375 
Q 14.796875 37.203125 14.796875 27.296875 
z
" id="DejaVuSans-100"/>
      <path id="DejaVuSans-32"/>
      <path d="M 19.671875 64.796875 
L 19.671875 37.40625 
L 32.078125 37.40625 
Q 38.96875 37.40625 42.71875 40.96875 
Q 46.484375 44.53125 46.484375 51.125 
Q 46.484375 57.671875 42.71875 61.234375 
Q 38.96875 64.796875 32.078125 64.796875 
z
M 9.8125 72.90625 
L 32.078125 72.90625 
Q 44.34375 72.90625 50.609375 67.359375 
Q 56.890625 61.8125 56.890625 51.125 
Q 56.890625 40.328125 50.609375 34.8125 
Q 44.34375 29.296875 32.078125 29.296875 
L 19.671875 29.296875 
L 19.671875 0 
L 9.8125 0 
z
" id="DejaVuSans-80"/>
      <path d="M 30.609375 48.390625 
Q 23.390625 48.390625 19.1875 42.75 
Q 14.984375 37.109375 14.984375 27.296875 
Q 14.984375 17.484375 19.15625 11.84375 
Q 23.34375 6.203125 30.609375 6.203125 
Q 37.796875 6.203125 41.984375 11.859375 
Q 46.1875 17.53125 46.1875 27.296875 
Q 46.1875 37.015625 41.984375 42.703125 
Q 37.796875 48.390625 30.609375 48.390625 
z
M 30.609375 56 
Q 42.328125 56 49.015625 48.375 
Q 55.71875 40.765625 55.71875 27.296875 
Q 55.71875 13.875 49.015625 6.21875 
Q 42.328125 -1.421875 30.609375 -1.421875 
Q 18.84375 -1.421875 12.171875 6.21875 
Q 5.515625 13.875 5.515625 27.296875 
Q 5.515625 40.765625 12.171875 48.375 
Q 18.84375 56 30.609375 56 
z
" id="DejaVuSans-111"/>
      <path d="M 44.28125 53.078125 
L 44.28125 44.578125 
Q 40.484375 46.53125 36.375 47.5 
Q 32.28125 48.484375 27.875 48.484375 
Q 21.1875 48.484375 17.84375 46.4375 
Q 14.5 44.390625 14.5 40.28125 
Q 14.5 37.15625 16.890625 35.375 
Q 19.28125 33.59375 26.515625 31.984375 
L 29.59375 31.296875 
Q 39.15625 29.25 43.1875 25.515625 
Q 47.21875 21.78125 47.21875 15.09375 
Q 47.21875 7.46875 41.1875 3.015625 
Q 35.15625 -1.421875 24.609375 -1.421875 
Q 20.21875 -1.421875 15.453125 -0.5625 
Q 10.6875 0.296875 5.421875 2 
L 5.421875 11.28125 
Q 10.40625 8.6875 15.234375 7.390625 
Q 20.0625 6.109375 24.8125 6.109375 
Q 31.15625 6.109375 34.5625 8.28125 
Q 37.984375 10.453125 37.984375 14.40625 
Q 37.984375 18.0625 35.515625 20.015625 
Q 33.0625 21.96875 24.703125 23.78125 
L 21.578125 24.515625 
Q 13.234375 26.265625 9.515625 29.90625 
Q 5.8125 33.546875 5.8125 39.890625 
Q 5.8125 47.609375 11.28125 51.796875 
Q 16.75 56 26.8125 56 
Q 31.78125 56 36.171875 55.265625 
Q 40.578125 54.546875 44.28125 53.078125 
z
" id="DejaVuSans-115"/>
      <path d="M 9.421875 54.6875 
L 18.40625 54.6875 
L 18.40625 0 
L 9.421875 0 
z
M 9.421875 75.984375 
L 18.40625 75.984375 
L 18.40625 64.59375 
L 9.421875 64.59375 
z
" id="DejaVuSans-105"/>
      <path d="M 18.3125 70.21875 
L 18.3125 54.6875 
L 36.8125 54.6875 
L 36.8125 47.703125 
L 18.3125 47.703125 
L 18.3125 18.015625 
Q 18.3125 11.328125 20.140625 9.421875 
Q 21.96875 7.515625 27.59375 7.515625 
L 36.8125 7.515625 
L 36.8125 0 
L 27.59375 0 
Q 17.1875 0 13.234375 3.875 
Q 9.28125 7.765625 9.28125 18.015625 
L 9.28125 47.703125 
L 2.6875 47.703125 
L 2.6875 54.6875 
L 9.28125 54.6875 
L 9.28125 70.21875 
z
" id="DejaVuSans-116"/>
      <path d="M 54.890625 33.015625 
L 54.890625 0 
L 45.90625 0 
L 45.90625 32.71875 
Q 45.90625 40.484375 42.875 44.328125 
Q 39.84375 48.1875 33.796875 48.1875 
Q 26.515625 48.1875 22.3125 43.546875 
Q 18.109375 38.921875 18.109375 30.90625 
L 18.109375 0 
L 9.078125 0 
L 9.078125 54.6875 
L 18.109375 54.6875 
L 18.109375 46.1875 
Q 21.34375 51.125 25.703125 53.5625 
Q 30.078125 56 35.796875 56 
Q 45.21875 56 50.046875 50.171875 
Q 54.890625 44.34375 54.890625 33.015625 
z
" id="DejaVuSans-110"/>
     </defs>
     <g transform="translate(479.045156 379.564837)scale(0.1 -0.1)">
      <use xlink:href="#DejaVuSans-82"/>
      <use x="69.419922" xlink:href="#DejaVuSans-101"/>
      <use x="130.943359" xlink:href="#DejaVuSans-97"/>
      <use x="192.222656" xlink:href="#DejaVuSans-100"/>
      <use x="255.699219" xlink:href="#DejaVuSans-32"/>
      <use x="287.486328" xlink:href="#DejaVuSans-80"/>
      <use x="347.742188" xlink:href="#DejaVuSans-111"/>
      <use x="408.923828" xlink:href="#DejaVuSans-115"/>
      <use x="461.023438" xlink:href="#DejaVuSans-105"/>
      <use x="488.806641" xlink:href="#DejaVuSans-116"/>
      <use x="528.015625" xlink:href="#DejaVuSans-105"/>
      <use x="555.798828" xlink:href="#DejaVuSans-111"/>
      <use x="616.980469" xlink:href="#DejaVuSans-110"/>
     </g>
    </g>
   </g>
   <g id="matplotlib.axis_2">
    <g id="ytick_1">
     <g id="line2d_1">
      <path clip-path="url(#p215a1c668f)" d="M 32.968125 353.2239 
L 993.158125 353.2239 
" style="fill:none;stroke:#dedede;stroke-linecap:square;"/>
     </g>
     <g id="text_10">
      <!-- 0 -->
      <g transform="translate(20.878125 356.263275)scale(0.08 -0.08)">
       <use xlink:href="#DejaVuSans-48"/>
      </g>
     </g>
    </g>
    <g id="ytick_2">
     <g id="line2d_2">
      <path clip-path="url(#p215a1c668f)" d="M 32.968125 289.6303 
L 993.158125 289.6303 
" style="fill:none;stroke:#dedede;stroke-linecap:square;"/>
     </g>
     <g id="text_11">
      <!-- 1 -->
      <g transform="translate(20.878125 292.669675)scale(0.08 -0.08)">
       <use xlink:href="#DejaVuSans-49"/>
      </g>
     </g>
    </g>
    <g id="ytick_3">
     <g id="line2d_3">
      <path clip-path="url(#p215a1c668f)" d="M 32.968125 226.0367 
L 993.158125 226.0367 
" style="fill:none;stroke:#dedede;stroke-linecap:square;"/>
     </g>
     <g id="text_12">
      <!-- 2 -->
      <g transform="translate(20.878125 229.076075)scale(0.08 -0.08)">
       <use xlink:href="#DejaVuSans-50"/>
      </g>
     </g>
    </g>
    <g id="ytick_4">
     <g id="line2d_4">
      <path clip-path="url(#p215a1c668f)" d="M 32.968125 162.4431 
L 993.158125 162.4431 
" style="fill:none;stroke:#dedede;stroke-linecap:square;"/>
     </g>
     <g id="text_13">
      <!-- 3 -->
      <defs>
       <path d="M 40.578125 39.3125 
Q 47.65625 37.796875 51.625 33 
Q 55.609375 28.21875 55.609375 21.1875 
Q 55.609375 10.40625 48.1875 4.484375 
Q 40.765625 -1.421875 27.09375 -1.421875 
Q 22.515625 -1.421875 17.65625 -0.515625 
Q 12.796875 0.390625 7.625 2.203125 
L 7.625 11.71875 
Q 11.71875 9.328125 16.59375 8.109375 
Q 21.484375 6.890625 26.8125 6.890625 
Q 36.078125 6.890625 40.9375 10.546875 
Q 45.796875 14.203125 45.796875 21.1875 
Q 45.796875 27.640625 41.28125 31.265625 
Q 36.765625 34.90625 28.71875 34.90625 
L 20.21875 34.90625 
L 20.21875 43.015625 
L 29.109375 43.015625 
Q 36.375 43.015625 40.234375 45.921875 
Q 44.09375 48.828125 44.09375 54.296875 
Q 44.09375 59.90625 40.109375 62.90625 
Q 36.140625 65.921875 28.71875 65.921875 
Q 24.65625 65.921875 20.015625 65.03125 
Q 15.375 64.15625 9.8125 62.3125 
L 9.8125 71.09375 
Q 15.4375 72.65625 20.34375 73.4375 
Q 25.25 74.21875 29.59375 74.21875 
Q 40.828125 74.21875 47.359375 69.109375 
Q 53.90625 64.015625 53.90625 55.328125 
Q 53.90625 49.265625 50.4375 45.09375 
Q 46.96875 40.921875 40.578125 39.3125 
z
" id="DejaVuSans-51"/>
      </defs>
      <g transform="translate(20.878125 165.482475)scale(0.08 -0.08)">
       <use xlink:href="#DejaVuSans-51"/>
      </g>
     </g>
    </g>
    <g id="ytick_5">
     <g id="line2d_5">
      <path clip-path="url(#p215a1c668f)" d="M 32.968125 98.8495 
L 993.158125 98.8495 
" style="fill:none;stroke:#dedede;stroke-linecap:square;"/>
     </g>
     <g id="text_14">
      <!-- 4 -->
      <g transform="translate(20.878125 101.888875)scale(0.08 -0.08)">
       <use xlink:href="#DejaVuSans-52"/>
      </g>
     </g>
    </g>
    <g id="ytick_6">
     <g id="line2d_6">
      <path clip-path="url(#p215a1c668f)" d="M 32.968125 35.2559 
L 993.158125 35.2559 
" style="fill:none;stroke:#dedede;stroke-linecap:square;"/>
     </g>
     <g id="text_15">
      <!-- 5 -->
      <defs>
       <path d="M 10.796875 72.90625 
L 49.515625 72.90625 
L 49.515625 64.59375 
L 19.828125 64.59375 
L 19.828125 46.734375 
Q 21.96875 47.46875 24.109375 47.828125 
Q 26.265625 48.1875 28.421875 48.1875 
Q 40.625 48.1875 47.75 41.5 
Q 54.890625 34.8125 54.890625 23.390625 
Q 54.890625 11.625 47.5625 5.09375 
Q 40.234375 -1.421875 26.90625 -1.421875 
Q 22.3125 -1.421875 17.546875 -0.640625 
Q 12.796875 0.140625 7.71875 1.703125 
L 7.71875 11.625 
Q 12.109375 9.234375 16.796875 8.0625 
Q 21.484375 6.890625 26.703125 6.890625 
Q 35.15625 6.890625 40.078125 11.328125 
Q 45.015625 15.765625 45.015625 23.390625 
Q 45.015625 31 40.078125 35.4375 
Q 35.15625 39.890625 26.703125 39.890625 
Q 22.75 39.890625 18.8125 39.015625 
Q 14.890625 38.140625 10.796875 36.28125 
z
" id="DejaVuSans-53"/>
      </defs>
      <g transform="translate(20.878125 38.295275)scale(0.08 -0.08)">
       <use xlink:href="#DejaVuSans-53"/>
      </g>
     </g>
    </g>
    <g id="text_16">
     <!-- R1 After filtering: Base Content Percent -->
     <defs>
      <path d="M 34.1875 63.1875 
L 20.796875 26.90625 
L 47.609375 26.90625 
z
M 28.609375 72.90625 
L 39.796875 72.90625 
L 67.578125 0 
L 57.328125 0 
L 50.6875 18.703125 
L 17.828125 18.703125 
L 11.1875 0 
L 0.78125 0 
z
" id="DejaVuSans-65"/>
      <path d="M 37.109375 75.984375 
L 37.109375 68.5 
L 28.515625 68.5 
Q 23.6875 68.5 21.796875 66.546875 
Q 19.921875 64.59375 19.921875 59.515625 
L 19.921875 54.6875 
L 34.71875 54.6875 
L 34.71875 47.703125 
L 19.921875 47.703125 
L 19.921875 0 
L 10.890625 0 
L 10.890625 47.703125 
L 2.296875 47.703125 
L 2.296875 54.6875 
L 10.890625 54.6875 
L 10.890625 58.5 
Q 10.890625 67.625 15.140625 71.796875 
Q 19.390625 75.984375 28.609375 75.984375 
z
" id="DejaVuSans-102"/>
      <path d="M 41.109375 46.296875 
Q 39.59375 47.171875 37.8125 47.578125 
Q 36.03125 48 33.890625 48 
Q 26.265625 48 22.1875 43.046875 
Q 18.109375 38.09375 18.109375 28.8125 
L 18.109375 0 
L 9.078125 0 
L 9.078125 54.6875 
L 18.109375 54.6875 
L 18.109375 46.1875 
Q 20.953125 51.171875 25.484375 53.578125 
Q 30.03125 56 36.53125 56 
Q 37.453125 56 38.578125 55.875 
Q 39.703125 55.765625 41.0625 55.515625 
z
" id="DejaVuSans-114"/>
      <path d="M 9.421875 75.984375 
L 18.40625 75.984375 
L 18.40625 0 
L 9.421875 0 
z
" id="DejaVuSans-108"/>
      <path d="M 45.40625 27.984375 
Q 45.40625 37.75 41.375 43.109375 
Q 37.359375 48.484375 30.078125 48.484375 
Q 22.859375 48.484375 18.828125 43.109375 
Q 14.796875 37.75 14.796875 27.984375 
Q 14.796875 18.265625 18.828125 12.890625 
Q 22.859375 7.515625 30.078125 7.515625 
Q 37.359375 7.515625 41.375 12.890625 
Q 45.40625 18.265625 45.40625 27.984375 
z
M 54.390625 6.78125 
Q 54.390625 -7.171875 48.1875 -13.984375 
Q 42 -20.796875 29.203125 -20.796875 
Q 24.46875 -20.796875 20.265625 -20.09375 
Q 16.0625 -19.390625 12.109375 -17.921875 
L 12.109375 -9.1875 
Q 16.0625 -11.328125 19.921875 -12.34375 
Q 23.78125 -13.375 27.78125 -13.375 
Q 36.625 -13.375 41.015625 -8.765625 
Q 45.40625 -4.15625 45.40625 5.171875 
L 45.40625 9.625 
Q 42.625 4.78125 38.28125 2.390625 
Q 33.9375 0 27.875 0 
Q 17.828125 0 11.671875 7.65625 
Q 5.515625 15.328125 5.515625 27.984375 
Q 5.515625 40.671875 11.671875 48.328125 
Q 17.828125 56 27.875 56 
Q 33.9375 56 38.28125 53.609375 
Q 42.625 51.21875 45.40625 46.390625 
L 45.40625 54.6875 
L 54.390625 54.6875 
z
" id="DejaVuSans-103"/>
      <path d="M 11.71875 12.40625 
L 22.015625 12.40625 
L 22.015625 0 
L 11.71875 0 
z
M 11.71875 51.703125 
L 22.015625 51.703125 
L 22.015625 39.3125 
L 11.71875 39.3125 
z
" id="DejaVuSans-58"/>
      <path d="M 19.671875 34.8125 
L 19.671875 8.109375 
L 35.5 8.109375 
Q 43.453125 8.109375 47.28125 11.40625 
Q 51.125 14.703125 51.125 21.484375 
Q 51.125 28.328125 47.28125 31.5625 
Q 43.453125 34.8125 35.5 34.8125 
z
M 19.671875 64.796875 
L 19.671875 42.828125 
L 34.28125 42.828125 
Q 41.5 42.828125 45.03125 45.53125 
Q 48.578125 48.25 48.578125 53.8125 
Q 48.578125 59.328125 45.03125 62.0625 
Q 41.5 64.796875 34.28125 64.796875 
z
M 9.8125 72.90625 
L 35.015625 72.90625 
Q 46.296875 72.90625 52.390625 68.21875 
Q 58.5 63.53125 58.5 54.890625 
Q 58.5 48.1875 55.375 44.234375 
Q 52.25 40.28125 46.1875 39.3125 
Q 53.46875 37.75 57.5 32.78125 
Q 61.53125 27.828125 61.53125 20.40625 
Q 61.53125 10.640625 54.890625 5.3125 
Q 48.25 0 35.984375 0 
L 9.8125 0 
z
" id="DejaVuSans-66"/>
      <path d="M 64.40625 67.28125 
L 64.40625 56.890625 
Q 59.421875 61.53125 53.78125 63.8125 
Q 48.140625 66.109375 41.796875 66.109375 
Q 29.296875 66.109375 22.65625 58.46875 
Q 16.015625 50.828125 16.015625 36.375 
Q 16.015625 21.96875 22.65625 14.328125 
Q 29.296875 6.6875 41.796875 6.6875 
Q 48.140625 6.6875 53.78125 8.984375 
Q 59.421875 11.28125 64.40625 15.921875 
L 64.40625 5.609375 
Q 59.234375 2.09375 53.4375 0.328125 
Q 47.65625 -1.421875 41.21875 -1.421875 
Q 24.65625 -1.421875 15.125 8.703125 
Q 5.609375 18.84375 5.609375 36.375 
Q 5.609375 53.953125 15.125 64.078125 
Q 24.65625 74.21875 41.21875 74.21875 
Q 47.75 74.21875 53.53125 72.484375 
Q 59.328125 70.75 64.40625 67.28125 
z
" id="DejaVuSans-67"/>
      <path d="M 48.78125 52.59375 
L 48.78125 44.1875 
Q 44.96875 46.296875 41.140625 47.34375 
Q 37.3125 48.390625 33.40625 48.390625 
Q 24.65625 48.390625 19.8125 42.84375 
Q 14.984375 37.3125 14.984375 27.296875 
Q 14.984375 17.28125 19.8125 11.734375 
Q 24.65625 6.203125 33.40625 6.203125 
Q 37.3125 6.203125 41.140625 7.25 
Q 44.96875 8.296875 48.78125 10.40625 
L 48.78125 2.09375 
Q 45.015625 0.34375 40.984375 -0.53125 
Q 36.96875 -1.421875 32.421875 -1.421875 
Q 20.0625 -1.421875 12.78125 6.34375 
Q 5.515625 14.109375 5.515625 27.296875 
Q 5.515625 40.671875 12.859375 48.328125 
Q 20.21875 56 33.015625 56 
Q 37.15625 56 41.109375 55.140625 
Q 45.0625 54.296875 48.78125 52.59375 
z
" id="DejaVuSans-99"/>
     </defs>
     <g transform="translate(14.798438 293.315681)rotate(-90)scale(0.1 -0.1)">
      <use xlink:href="#DejaVuSans-82"/>
      <use x="69.482422" xlink:href="#DejaVuSans-49"/>
      <use x="133.105469" xlink:href="#DejaVuSans-32"/>
      <use x="164.892578" xlink:href="#DejaVuSans-65"/>
      <use x="233.253906" xlink:href="#DejaVuSans-102"/>
      <use x="268.443359" xlink:href="#DejaVuSans-116"/>
      <use x="307.652344" xlink:href="#DejaVuSans-101"/>
      <use x="369.175781" xlink:href="#DejaVuSans-114"/>
      <use x="410.289062" xlink:href="#DejaVuSans-32"/>
      <use x="442.076172" xlink:href="#DejaVuSans-102"/>
      <use x="477.28125" xlink:href="#DejaVuSans-105"/>
      <use x="505.064453" xlink:href="#DejaVuSans-108"/>
      <use x="532.847656" xlink:href="#DejaVuSans-116"/>
      <use x="572.056641" xlink:href="#DejaVuSans-101"/>
      <use x="633.580078" xlink:href="#DejaVuSans-114"/>
      <use x="674.693359" xlink:href="#DejaVuSans-105"/>
      <use x="702.476562" xlink:href="#DejaVuSans-110"/>
      <use x="765.855469" xlink:href="#DejaVuSans-103"/>
      <use x="829.332031" xlink:href="#DejaVuSans-58"/>
      <use x="863.023438" xlink:href="#DejaVuSans-32"/>
      <use x="894.810547" xlink:href="#DejaVuSans-66"/>
      <use x="963.414062" xlink:href="#DejaVuSans-97"/>
      <use x="1024.693359" xlink:href="#DejaVuSans-115"/>
      <use x="1076.792969" xlink:href="#DejaVuSans-101"/>
      <use x="1138.316406" xlink:href="#DejaVuSans-32"/>
      <use x="1170.103516" xlink:href="#DejaVuSans-67"/>
      <use x="1239.927734" xlink:href="#DejaVuSans-111"/>
      <use x="1301.109375" xlink:href="#DejaVuSans-110"/>
      <use x="1364.488281" xlink:href="#DejaVuSans-116"/>
      <use x="1403.697266" xlink:href="#DejaVuSans-101"/>
      <use x="1465.220703" xlink:href="#DejaVuSans-110"/>
      <use x="1528.599609" xlink:href="#DejaVuSans-116"/>
      <use x="1567.808594" xlink:href="#DejaVuSans-32"/>
      <use x="1599.595703" xlink:href="#DejaVuSans-80"/>
      <use x="1659.851562" xlink:href="#DejaVuSans-101"/>
      <use x="1721.375" xlink:href="#DejaVuSans-114"/>
      <use x="1762.457031" xlink:href="#DejaVuSans-99"/>
      <use x="1817.4375" xlink:href="#DejaVuSans-101"/>
      <use x="1878.960938" xlink:href="#DejaVuSans-110"/>
      <use x="1942.339844" xlink:href="#DejaVuSans-116"/>
     </g>
    </g>
   </g>
   <g id="line2d_7">
    <path clip-path="url(#p215a1c668f)" d="M 76.613125 323.59596 
L 82.471514 353.2239 
L 410.541313 353.2239 
L 416.399702 353.082055 
L 422.258091 353.2239 
L 457.408427 353.2239 
L 463.266816 353.042302 
L 469.125206 353.2239 
L 474.983595 353.166135 
L 486.700373 353.2239 
L 580.434602 353.196831 
L 609.726548 353.2239 
L 656.593662 353.067969 
L 662.452051 353.2239 
L 902.646011 353.2239 
L 908.5044 352.889412 
L 914.362789 353.2239 
L 937.796346 353.210777 
L 943.654736 352.943447 
L 949.513125 353.2239 
L 949.513125 353.2239 
" style="fill:none;stroke:#7cb5ec;stroke-linecap:square;"/>
   </g>
   <g id="line2d_8">
    <path clip-path="url(#p215a1c668f)" d="M 76.613125 319.344537 
L 82.471514 353.2239 
L 410.541313 353.2239 
L 416.399702 353.104436 
L 422.258091 353.2239 
L 433.97487 353.2239 
L 439.833259 353.104088 
L 445.691648 353.2239 
L 457.408427 353.2239 
L 463.266816 353.017901 
L 469.125206 353.2239 
L 474.983595 353.151551 
L 486.700373 353.2239 
L 545.284266 353.2239 
L 633.160105 353.2239 
L 639.018494 353.022418 
L 644.876883 353.2239 
L 656.593662 353.073809 
L 662.452051 353.2239 
L 902.646011 353.2239 
L 908.5044 352.842963 
L 914.362789 353.2239 
L 937.796346 353.205337 
L 943.654736 352.914562 
L 949.513125 353.2239 
L 949.513125 353.2239 
" style="fill:none;stroke:#434348;stroke-linecap:square;"/>
   </g>
   <g id="line2d_9">
    <path clip-path="url(#p215a1c668f)" d="M 76.613125 321.058003 
L 82.471514 353.2239 
L 410.541313 353.2239 
L 416.399702 353.072496 
L 422.258091 353.2239 
L 457.408427 353.2239 
L 463.266816 353.021711 
L 469.125206 353.2239 
L 474.983595 353.163743 
L 486.700373 353.2239 
L 633.160105 353.2239 
L 639.018494 353.006141 
L 644.876883 353.2239 
L 656.593662 353.080515 
L 662.452051 353.2239 
L 902.646011 353.2239 
L 908.5044 352.874943 
L 914.362789 353.2239 
L 937.796346 353.218677 
L 943.654736 352.886206 
L 949.513125 353.2239 
L 949.513125 353.2239 
" style="fill:none;stroke:#90ed7d;stroke-linecap:square;"/>
   </g>
   <g id="line2d_10">
    <path clip-path="url(#p215a1c668f)" d="M 76.613125 320.505184 
L 82.471514 353.2239 
L 410.541313 353.2239 
L 416.399702 353.100085 
L 422.258091 353.2239 
L 457.408427 353.2239 
L 463.266816 353.020279 
L 469.125206 353.2239 
L 480.841984 353.2239 
L 633.160105 353.2239 
L 639.018494 353.023146 
L 644.876883 353.2239 
L 656.593662 353.092402 
L 662.452051 353.2239 
L 902.646011 353.2239 
L 908.5044 352.88938 
L 914.362789 353.2239 
L 937.796346 353.204267 
L 943.654736 352.943771 
L 949.513125 353.2239 
L 949.513125 353.2239 
" style="fill:none;stroke:#f7a35c;stroke-linecap:square;"/>
   </g>
   <g id="line2d_11">
    <path clip-path="url(#p215a1c668f)" d="M 76.613125 319.507782 
L 82.471514 353.2239 
L 410.541313 353.2239 
L 416.399702 353.068994 
L 422.258091 353.2239 
L 457.408427 353.2239 
L 463.266816 353.008564 
L 469.125206 353.2239 
L 474.983595 353.157035 
L 486.700373 353.2239 
L 545.284266 353.2239 
L 633.160105 353.2239 
L 639.018494 353.008083 
L 644.876883 353.2239 
L 656.593662 353.078463 
L 662.452051 353.2239 
L 902.646011 353.2239 
L 908.5044 352.861171 
L 914.362789 353.2239 
L 937.796346 353.20896 
L 943.654736 352.900011 
L 949.513125 353.2239 
L 949.513125 353.2239 
" style="fill:none;stroke:#8085e9;stroke-linecap:square;"/>
   </g>
   <g id="line2d_12">
    <path clip-path="url(#p215a1c668f)" d="M 76.613125 321.405478 
L 82.471514 353.2239 
L 410.541313 353.2239 
L 416.399702 353.082092 
L 422.258091 353.2239 
L 433.97487 353.2239 
L 439.833259 353.099992 
L 445.691648 353.2239 
L 457.408427 353.2239 
L 463.266816 353.024139 
L 469.125206 353.2239 
L 480.841984 353.2239 
L 633.160105 353.2239 
L 639.018494 353.033975 
L 644.876883 353.2239 
L 656.593662 353.08213 
L 662.452051 353.2239 
L 902.646011 353.2239 
L 908.5044 352.918217 
L 914.362789 353.2239 
L 937.796346 353.205887 
L 943.654736 352.959342 
L 949.513125 353.2239 
L 949.513125 353.2239 
" style="fill:none;stroke:#f15c80;stroke-linecap:square;"/>
   </g>
   <g id="line2d_13">
    <path clip-path="url(#p215a1c668f)" d="M 76.613125 321.614256 
L 82.471514 353.2239 
L 410.541313 353.2239 
L 416.399702 353.072753 
L 422.258091 353.2239 
L 433.97487 353.2239 
L 439.833259 353.088286 
L 445.691648 353.2239 
L 457.408427 353.2239 
L 463.266816 353.034945 
L 469.125206 353.2239 
L 474.983595 353.134035 
L 486.700373 353.2239 
L 633.160105 353.2239 
L 639.018494 353.043224 
L 644.876883 353.222207 
L 656.593662 353.077528 
L 662.452051 353.2239 
L 902.646011 353.2239 
L 908.5044 352.898696 
L 914.362789 353.2239 
L 937.796346 353.200499 
L 943.654736 352.926997 
L 949.513125 353.2239 
L 949.513125 353.2239 
" style="fill:none;stroke:#e4d354;stroke-linecap:square;"/>
   </g>
   <g id="line2d_14">
    <path clip-path="url(#p215a1c668f)" d="M 76.613125 321.112757 
L 82.471514 353.2239 
L 410.541313 353.2239 
L 416.399702 353.067967 
L 422.258091 353.2239 
L 457.408427 353.2239 
L 463.266816 353.027648 
L 469.125206 353.2239 
L 474.983595 353.165175 
L 486.700373 353.2239 
L 656.593662 353.072668 
L 662.452051 353.2239 
L 902.646011 353.2239 
L 908.5044 352.896952 
L 914.362789 353.2239 
L 937.796346 353.212604 
L 943.654736 352.934769 
L 949.513125 353.2239 
L 949.513125 353.2239 
" style="fill:none;stroke:#2b908f;stroke-linecap:square;"/>
   </g>
   <g id="line2d_15">
    <path clip-path="url(#p215a1c668f)" d="M 76.613125 319.580215 
L 82.471514 353.2239 
L 258.223192 353.2239 
L 264.081581 353.107894 
L 269.939971 353.2239 
L 275.79836 353.119683 
L 287.515138 353.2239 
L 410.541313 353.2239 
L 416.399702 353.06549 
L 422.258091 353.2239 
L 433.97487 353.2239 
L 439.833259 353.088692 
L 445.691648 353.2239 
L 457.408427 353.2239 
L 463.266816 353.045868 
L 469.125206 353.2239 
L 474.983595 353.139583 
L 486.700373 353.2239 
L 633.160105 353.2239 
L 639.018494 353.031065 
L 644.876883 353.2239 
L 656.593662 353.055112 
L 662.452051 353.2239 
L 902.646011 353.2239 
L 908.5044 352.913269 
L 914.362789 353.2239 
L 937.796346 353.208105 
L 943.654736 352.972205 
L 949.513125 353.2239 
L 949.513125 353.2239 
" style="fill:none;stroke:#f45b5b;stroke-linecap:square;"/>
   </g>
   <g id="line2d_16">
    <path clip-path="url(#p215a1c668f)" d="M 76.613125 320.987859 
L 82.471514 353.2239 
L 410.541313 353.2239 
L 416.399702 353.083845 
L 422.258091 353.2239 
L 433.97487 353.2239 
L 439.833259 353.087402 
L 445.691648 353.2239 
L 457.408427 353.2239 
L 463.266816 353.012566 
L 469.125206 353.2239 
L 474.983595 353.137615 
L 486.700373 353.2239 
L 633.160105 353.2239 
L 639.018494 352.988092 
L 644.876883 353.2239 
L 656.593662 353.065341 
L 662.452051 353.2239 
L 902.646011 353.2239 
L 908.5044 352.841529 
L 914.362789 353.2239 
L 937.796346 353.218659 
L 943.654736 352.876928 
L 949.513125 353.2239 
L 949.513125 353.2239 
" style="fill:none;stroke:#91e8e1;stroke-linecap:square;"/>
   </g>
   <g id="line2d_17">
    <path clip-path="url(#p215a1c668f)" d="M 76.613125 320.804137 
L 82.471514 353.2239 
L 223.072857 353.2239 
L 228.931246 353.112083 
L 234.789635 353.2239 
L 269.939971 353.2239 
L 275.79836 353.109702 
L 281.656749 353.2239 
L 410.541313 353.2239 
L 416.399702 353.066386 
L 422.258091 353.2239 
L 433.97487 353.2239 
L 439.833259 353.078032 
L 445.691648 353.2239 
L 457.408427 353.2239 
L 463.266816 353.058422 
L 469.125206 353.2239 
L 474.983595 353.122994 
L 486.700373 353.2239 
L 580.434602 353.201711 
L 609.726548 353.2239 
L 639.018494 353.03469 
L 644.876883 353.2239 
L 656.593662 353.101784 
L 662.452051 353.2239 
L 902.646011 353.2239 
L 908.5044 352.908114 
L 914.362789 353.2239 
L 937.796346 353.210828 
L 943.654736 352.907468 
L 949.513125 353.2239 
L 949.513125 353.2239 
" style="fill:none;stroke:#7cb5ec;stroke-linecap:square;"/>
   </g>
   <g id="line2d_18">
    <path clip-path="url(#p215a1c668f)" d="M 76.613125 321.424747 
L 82.471514 353.2239 
L 410.541313 353.2239 
L 416.399702 353.058842 
L 422.258091 353.2239 
L 433.97487 353.2239 
L 439.833259 353.110349 
L 445.691648 353.2239 
L 457.408427 353.2239 
L 463.266816 353.031611 
L 469.125206 353.2239 
L 474.983595 353.138547 
L 486.700373 353.2239 
L 603.868159 353.2239 
L 633.160105 353.2239 
L 639.018494 353.038148 
L 644.876883 353.2239 
L 656.593662 353.079116 
L 662.452051 353.2239 
L 902.646011 353.2239 
L 908.5044 352.87695 
L 914.362789 353.2239 
L 937.796346 353.209392 
L 943.654736 352.920962 
L 949.513125 353.2239 
L 949.513125 353.2239 
" style="fill:none;stroke:#434348;stroke-linecap:square;"/>
   </g>
   <g id="line2d_19">
    <path clip-path="url(#p215a1c668f)" d="M 76.613125 320.094814 
L 82.471514 353.2239 
L 433.97487 353.2239 
L 439.833259 353.112345 
L 445.691648 353.2239 
L 457.408427 353.2239 
L 463.266816 353.044163 
L 469.125206 353.2239 
L 474.983595 353.138561 
L 486.700373 353.2239 
L 562.859434 353.2239 
L 633.160105 353.2239 
L 639.018494 353.051969 
L 644.876883 353.2239 
L 656.593662 353.068991 
L 662.452051 353.2239 
L 902.646011 353.2239 
L 908.5044 352.883107 
L 914.362789 353.2239 
L 937.796346 353.203238 
L 943.654736 352.944874 
L 949.513125 353.2239 
L 949.513125 353.2239 
" style="fill:none;stroke:#90ed7d;stroke-linecap:square;"/>
   </g>
   <g id="line2d_20">
    <path clip-path="url(#p215a1c668f)" d="M 76.613125 321.278291 
L 82.471514 353.2239 
L 211.356078 353.2239 
L 217.214467 353.11216 
L 223.072857 353.2239 
L 228.931246 353.109783 
L 234.789635 353.2239 
L 410.541313 353.2239 
L 416.399702 353.07582 
L 422.258091 353.2239 
L 433.97487 353.2239 
L 439.833259 353.09464 
L 445.691648 353.2239 
L 457.408427 353.2239 
L 463.266816 353.012613 
L 469.125206 353.2239 
L 474.983595 353.139715 
L 486.700373 353.2239 
L 551.142655 353.2239 
L 633.160105 353.2239 
L 639.018494 353.025186 
L 644.876883 353.2239 
L 656.593662 353.104806 
L 662.452051 353.2239 
L 902.646011 353.2239 
L 908.5044 352.832996 
L 914.362789 353.2239 
L 937.796346 353.20495 
L 943.654736 352.876075 
L 949.513125 353.2239 
L 949.513125 353.2239 
" style="fill:none;stroke:#f7a35c;stroke-linecap:square;"/>
   </g>
   <g id="line2d_21">
    <path clip-path="url(#p215a1c668f)" d="M 76.613125 321.027923 
L 82.471514 353.2239 
L 223.072857 353.2239 
L 228.931246 353.095473 
L 234.789635 353.2239 
L 410.541313 353.2239 
L 416.399702 353.053691 
L 422.258091 353.2239 
L 433.97487 353.2239 
L 439.833259 353.095899 
L 445.691648 353.2239 
L 457.408427 353.2239 
L 463.266816 353.01614 
L 469.125206 353.2239 
L 474.983595 353.141258 
L 486.700373 353.2239 
L 551.142655 353.2239 
L 633.160105 353.2239 
L 639.018494 353.006575 
L 644.876883 353.2239 
L 662.452051 353.2239 
L 902.646011 353.2239 
L 908.5044 352.854965 
L 914.362789 353.2239 
L 937.796346 353.211315 
L 943.654736 352.905479 
L 949.513125 353.2239 
L 949.513125 353.2239 
" style="fill:none;stroke:#8085e9;stroke-linecap:square;"/>
   </g>
   <g id="line2d_22">
    <path clip-path="url(#p215a1c668f)" d="M 76.613125 321.438229 
L 82.471514 353.2239 
L 410.541313 353.2239 
L 416.399702 353.067961 
L 422.258091 353.2239 
L 433.97487 353.2239 
L 439.833259 353.108422 
L 445.691648 353.2239 
L 457.408427 353.2239 
L 463.266816 353.040209 
L 469.125206 353.2239 
L 474.983595 353.148864 
L 486.700373 353.2239 
L 580.434602 353.207893 
L 621.443326 353.2239 
L 633.160105 353.2239 
L 639.018494 353.052642 
L 644.876883 353.2239 
L 656.593662 353.067753 
L 662.452051 353.2239 
L 902.646011 353.2239 
L 908.5044 352.893152 
L 914.362789 353.2239 
L 937.796346 353.216314 
L 943.654736 352.941558 
L 949.513125 353.2239 
L 949.513125 353.2239 
" style="fill:none;stroke:#f15c80;stroke-linecap:square;"/>
   </g>
   <g id="line2d_23">
    <path clip-path="url(#p215a1c668f)" d="M 76.613125 321.710155 
L 82.471514 353.2239 
L 223.072857 353.2239 
L 228.931246 353.100762 
L 234.789635 353.2239 
L 410.541313 353.2239 
L 416.399702 353.083983 
L 422.258091 353.2239 
L 457.408427 353.2239 
L 463.266816 353.024855 
L 469.125206 353.2239 
L 474.983595 353.157414 
L 486.700373 353.2239 
L 615.584937 353.208737 
L 633.160105 353.2239 
L 639.018494 353.018219 
L 644.876883 353.2239 
L 656.593662 353.086929 
L 662.452051 353.2239 
L 902.646011 353.2239 
L 908.5044 352.88631 
L 914.362789 353.2239 
L 937.796346 353.205003 
L 943.654736 352.933153 
L 949.513125 353.2239 
L 949.513125 353.2239 
" style="fill:none;stroke:#e4d354;stroke-linecap:square;"/>
   </g>
   <g id="line2d_24">
    <path clip-path="url(#p215a1c668f)" d="M 76.613125 321.34074 
L 82.471514 353.2239 
L 258.223192 353.2239 
L 264.081581 353.106788 
L 269.939971 353.2239 
L 275.79836 353.125898 
L 287.515138 353.2239 
L 410.541313 353.2239 
L 416.399702 353.06058 
L 422.258091 353.2239 
L 433.97487 353.2239 
L 439.833259 353.10597 
L 445.691648 353.2239 
L 457.408427 353.2239 
L 463.266816 353.016363 
L 469.125206 353.2239 
L 474.983595 353.151391 
L 486.700373 353.2239 
L 633.160105 353.2239 
L 639.018494 353.018236 
L 644.876883 353.2239 
L 656.593662 353.054866 
L 662.452051 353.2239 
L 902.646011 353.2239 
L 908.5044 352.876618 
L 914.362789 353.2239 
L 937.796346 353.199718 
L 943.654736 352.900644 
L 949.513125 353.2239 
L 949.513125 353.2239 
" style="fill:none;stroke:#2b908f;stroke-linecap:square;"/>
   </g>
   <g id="line2d_25">
    <path clip-path="url(#p215a1c668f)" d="M 76.613125 321.11759 
L 82.471514 353.2239 
L 410.541313 353.2239 
L 416.399702 353.103792 
L 422.258091 353.2239 
L 457.408427 353.2239 
L 463.266816 353.0532 
L 469.125206 353.2239 
L 474.983595 353.149727 
L 486.700373 353.2239 
L 592.15138 353.206753 
L 633.160105 353.2239 
L 639.018494 353.04006 
L 644.876883 353.2239 
L 674.16883 353.220683 
L 820.628561 353.2239 
L 844.062118 353.190043 
L 861.637286 353.2239 
L 902.646011 353.2239 
L 908.5044 352.894011 
L 914.362789 353.2239 
L 937.796346 353.204329 
L 943.654736 352.948813 
L 949.513125 353.2239 
L 949.513125 353.2239 
" style="fill:none;stroke:#f45b5b;stroke-linecap:square;"/>
   </g>
   <g id="line2d_26">
    <path clip-path="url(#p215a1c668f)" d="M 76.613125 319.466191 
L 82.471514 353.2239 
L 410.541313 353.2239 
L 416.399702 353.098638 
L 422.258091 353.2239 
L 457.408427 353.2239 
L 463.266816 353.052719 
L 469.125206 353.2239 
L 474.983595 353.158898 
L 486.700373 353.2239 
L 633.160105 353.2239 
L 639.018494 353.044085 
L 644.876883 353.2239 
L 662.452051 353.2239 
L 902.646011 353.2239 
L 908.5044 352.91746 
L 914.362789 353.2239 
L 937.796346 353.200714 
L 943.654736 352.966207 
L 949.513125 353.2239 
L 949.513125 353.2239 
" style="fill:none;stroke:#91e8e1;stroke-linecap:square;"/>
   </g>
   <g id="line2d_27">
    <path clip-path="url(#p215a1c668f)" d="M 76.613125 321.654384 
L 82.471514 353.2239 
L 258.223192 353.2239 
L 264.081581 353.109126 
L 269.939971 353.2239 
L 275.79836 353.136124 
L 287.515138 353.2239 
L 410.541313 353.2239 
L 416.399702 353.03718 
L 422.258091 353.2239 
L 457.408427 353.2239 
L 463.266816 353.032369 
L 469.125206 353.2239 
L 474.983595 353.155323 
L 486.700373 353.2239 
L 674.16883 353.212735 
L 703.460776 353.2239 
L 709.319165 353.15545 
L 721.035944 353.2239 
L 902.646011 353.2239 
L 908.5044 352.910797 
L 914.362789 353.2239 
L 937.796346 353.214423 
L 943.654736 352.929196 
L 949.513125 353.2239 
L 949.513125 353.2239 
" style="fill:none;stroke:#7cb5ec;stroke-linecap:square;"/>
   </g>
   <g id="line2d_28">
    <path clip-path="url(#p215a1c668f)" d="M 76.613125 320.205721 
L 82.471514 353.2239 
L 211.356078 353.2239 
L 217.214467 353.110565 
L 223.072857 353.2239 
L 269.939971 353.2239 
L 275.79836 353.110527 
L 281.656749 353.2239 
L 410.541313 353.2239 
L 416.399702 352.994571 
L 422.258091 353.2239 
L 433.97487 353.2239 
L 439.833259 353.10889 
L 445.691648 353.2239 
L 457.408427 353.2239 
L 463.266816 352.877622 
L 469.125206 353.2239 
L 474.983595 353.146809 
L 486.700373 353.2239 
L 633.160105 353.2239 
L 639.018494 353.024443 
L 644.876883 353.2239 
L 656.593662 353.143709 
L 668.31044 353.2239 
L 680.027219 353.2239 
L 703.460776 353.2239 
L 709.319165 353.101774 
L 715.177555 353.2239 
L 902.646011 353.2239 
L 908.5044 352.642859 
L 914.362789 353.2239 
L 937.796346 353.2239 
L 943.654736 352.800767 
L 949.513125 353.2239 
L 949.513125 353.2239 
" style="fill:none;stroke:#434348;stroke-linecap:square;"/>
   </g>
   <g id="line2d_29">
    <path clip-path="url(#p215a1c668f)" d="M 76.613125 323.745977 
L 82.471514 353.2239 
L 152.772185 353.2239 
L 158.630575 353.093754 
L 164.488964 353.2239 
L 258.223192 353.2239 
L 264.081581 352.898537 
L 269.939971 353.2239 
L 275.79836 353.093663 
L 281.656749 353.2239 
L 433.97487 353.2239 
L 439.833259 353.089627 
L 445.691648 353.2239 
L 457.408427 353.2239 
L 463.266816 352.953476 
L 469.125206 353.2239 
L 474.983595 353.088187 
L 480.841984 353.2239 
L 574.576212 353.2239 
L 580.434602 353.082528 
L 586.292991 353.2239 
L 592.15138 353.152816 
L 603.868159 353.2239 
L 633.160105 353.2239 
L 639.018494 353.005388 
L 644.876883 353.2239 
L 650.735273 353.150613 
L 656.593662 352.929771 
L 662.452051 353.2239 
L 703.460776 353.2239 
L 709.319165 353.072127 
L 715.177555 353.2239 
L 902.646011 353.2239 
L 908.5044 352.956332 
L 914.362789 353.2239 
L 937.796346 353.2239 
L 943.654736 352.936355 
L 949.513125 353.2239 
L 949.513125 353.2239 
" style="fill:none;stroke:#90ed7d;stroke-linecap:square;"/>
   </g>
   <g id="line2d_30">
    <path clip-path="url(#p215a1c668f)" d="M 76.613125 323.553734 
L 82.471514 353.2239 
L 410.541313 353.2239 
L 416.399702 353.076203 
L 422.258091 353.2239 
L 433.97487 353.2239 
L 439.833259 353.088119 
L 445.691648 353.2239 
L 457.408427 353.2239 
L 463.266816 353.001034 
L 469.125206 353.2239 
L 474.983595 353.137088 
L 486.700373 353.2239 
L 633.160105 353.2239 
L 639.018494 353.019811 
L 644.876883 353.2239 
L 650.735273 353.211113 
L 656.593662 353.083059 
L 662.452051 353.2239 
L 902.646011 353.2239 
L 908.5044 352.889212 
L 914.362789 353.2239 
L 937.796346 353.2239 
L 943.654736 353.03441 
L 949.513125 353.2239 
L 949.513125 353.2239 
" style="fill:none;stroke:#f7a35c;stroke-linecap:square;"/>
   </g>
   <g id="line2d_31">
    <path clip-path="url(#p215a1c668f)" d="M 76.613125 320.003621 
L 82.471514 353.2239 
L 410.541313 353.2239 
L 416.399702 353.08925 
L 422.258091 353.2239 
L 457.408427 353.2239 
L 463.266816 353.02448 
L 469.125206 353.2239 
L 474.983595 353.152975 
L 486.700373 353.2239 
L 615.584937 353.206502 
L 633.160105 353.2239 
L 639.018494 353.027664 
L 644.876883 353.222554 
L 656.593662 353.093068 
L 662.452051 353.2239 
L 902.646011 353.2239 
L 908.5044 352.894602 
L 914.362789 353.2239 
L 937.796346 353.207219 
L 943.654736 352.93981 
L 949.513125 353.2239 
L 949.513125 353.2239 
" style="fill:none;stroke:#8085e9;stroke-linecap:square;"/>
   </g>
   <g id="line2d_32">
    <path clip-path="url(#p215a1c668f)" d="M 76.613125 325.574484 
L 82.471514 353.2239 
L 223.072857 353.2239 
L 228.931246 352.685276 
L 234.789635 353.2239 
L 305.090306 353.2239 
L 310.948695 353.044145 
L 316.807085 353.2239 
L 392.966145 353.2239 
L 398.824534 352.862768 
L 404.682924 353.2239 
L 410.541313 353.2239 
L 416.399702 352.862337 
L 422.258091 353.2239 
L 457.408427 353.2239 
L 463.266816 352.860985 
L 469.125206 353.2239 
L 633.160105 353.2239 
L 639.018494 352.853631 
L 644.876883 353.2239 
L 902.646011 353.2239 
L 908.5044 352.621346 
L 914.362789 353.2239 
L 937.796346 353.2239 
L 943.654736 353.013492 
L 949.513125 353.2239 
L 949.513125 353.2239 
" style="fill:none;stroke:#f15c80;stroke-linecap:square;"/>
   </g>
   <g id="line2d_33">
    <path clip-path="url(#p215a1c668f)" d="M 76.613125 323.136051 
L 82.471514 353.2239 
L 211.356078 353.2239 
L 217.214467 353.06768 
L 223.072857 353.2239 
L 228.931246 353.114546 
L 240.648024 353.2239 
L 457.408427 353.2239 
L 463.266816 352.939653 
L 469.125206 353.2239 
L 480.841984 353.2239 
L 633.160105 353.2239 
L 639.018494 352.949345 
L 644.876883 353.2239 
L 680.027219 353.2239 
L 902.646011 353.2239 
L 908.5044 352.855267 
L 914.362789 353.2239 
L 937.796346 353.187846 
L 943.654736 353.02171 
L 949.513125 353.2239 
L 949.513125 353.2239 
" style="fill:none;stroke:#e4d354;stroke-linecap:square;"/>
   </g>
   <g id="line2d_34">
    <path clip-path="url(#p215a1c668f)" d="M 76.613125 321.831619 
L 82.471514 353.2239 
L 223.072857 353.2239 
L 228.931246 353.091043 
L 234.789635 353.2239 
L 258.223192 353.2239 
L 264.081581 353.091043 
L 269.939971 353.2239 
L 275.79836 353.147951 
L 287.515138 353.2239 
L 410.541313 353.2239 
L 416.399702 353.089443 
L 422.258091 353.2239 
L 457.408427 353.2239 
L 463.266816 353.088626 
L 469.125206 353.2239 
L 480.841984 353.2239 
L 633.160105 353.2239 
L 639.018494 353.064415 
L 644.876883 353.2239 
L 650.735273 353.2239 
L 656.593662 353.103797 
L 662.452051 353.2239 
L 902.646011 353.2239 
L 908.5044 352.961029 
L 914.362789 353.2239 
L 937.796346 353.2239 
L 943.654736 352.926417 
L 949.513125 353.2239 
L 949.513125 353.2239 
" style="fill:none;stroke:#2b908f;stroke-linecap:square;"/>
   </g>
   <g id="line2d_35">
    <path clip-path="url(#p215a1c668f)" d="M 76.613125 323.583241 
L 82.471514 353.2239 
L 223.072857 353.2239 
L 228.931246 353.048511 
L 234.789635 353.2239 
L 258.223192 353.2239 
L 264.081581 353.048511 
L 269.939971 353.2239 
L 410.541313 353.2239 
L 416.399702 353.046219 
L 422.258091 353.2239 
L 433.97487 353.2239 
L 439.833259 353.105038 
L 445.691648 353.2239 
L 457.408427 353.2239 
L 463.266816 353.104614 
L 469.125206 353.2239 
L 633.160105 353.2239 
L 639.018494 353.099547 
L 644.876883 353.2239 
L 650.735273 353.2239 
L 656.593662 352.973994 
L 662.452051 353.2239 
L 902.646011 353.2239 
L 908.5044 353.013965 
L 914.362789 353.2239 
L 937.796346 353.2239 
L 943.654736 352.93005 
L 949.513125 353.2239 
L 949.513125 353.2239 
" style="fill:none;stroke:#f45b5b;stroke-linecap:square;"/>
   </g>
   <g id="line2d_36">
    <path clip-path="url(#p215a1c668f)" d="M 76.613125 322.628256 
L 82.471514 353.2239 
L 410.541313 353.2239 
L 416.399702 353.07906 
L 422.258091 353.2239 
L 433.97487 353.2239 
L 439.833259 353.078585 
L 445.691648 353.2239 
L 650.735273 353.148102 
L 656.593662 353.034124 
L 662.452051 353.2239 
L 703.460776 353.2239 
L 709.319165 353.108385 
L 715.177555 353.2239 
L 773.761447 353.2239 
L 779.619836 353.066328 
L 785.478226 353.2239 
L 902.646011 353.2239 
L 908.5044 352.88904 
L 914.362789 353.2239 
L 937.796346 353.180846 
L 943.654736 352.872724 
L 949.513125 353.2239 
L 949.513125 353.2239 
" style="fill:none;stroke:#91e8e1;stroke-linecap:square;"/>
   </g>
   <g id="line2d_37">
    <path clip-path="url(#p215a1c668f)" d="M 76.613125 321.098448 
L 82.471514 353.2239 
L 410.541313 353.2239 
L 416.399702 353.058787 
L 422.258091 353.2239 
L 433.97487 353.2239 
L 439.833259 353.107206 
L 445.691648 353.2239 
L 457.408427 353.2239 
L 463.266816 352.9902 
L 469.125206 353.2239 
L 480.841984 353.2239 
L 633.160105 353.2239 
L 639.018494 353.006087 
L 644.876883 353.2239 
L 656.593662 353.065106 
L 662.452051 353.2239 
L 902.646011 353.2239 
L 908.5044 352.915351 
L 914.362789 353.2239 
L 937.796346 353.213007 
L 943.654736 352.980006 
L 949.513125 353.2239 
L 949.513125 353.2239 
" style="fill:none;stroke:#7cb5ec;stroke-linecap:square;"/>
   </g>
   <g id="line2d_38">
    <path clip-path="url(#p215a1c668f)" d="M 76.613125 324.785796 
L 82.471514 353.2239 
L 152.772185 353.2239 
L 158.630575 353.102887 
L 164.488964 353.2239 
L 223.072857 353.2239 
L 228.931246 353.102887 
L 234.789635 353.2239 
L 258.223192 353.2239 
L 264.081581 353.102887 
L 269.939971 353.2239 
L 275.79836 353.102822 
L 281.656749 353.2239 
L 433.97487 353.2239 
L 439.833259 353.101016 
L 445.691648 353.2239 
L 457.408427 353.2239 
L 463.266816 352.977236 
L 469.125206 353.2239 
L 474.983595 353.100369 
L 480.841984 353.2239 
L 586.292991 353.2239 
L 592.15138 353.097594 
L 598.009769 353.2239 
L 633.160105 353.2239 
L 639.018494 352.968463 
L 644.876883 353.2239 
L 656.593662 352.967278 
L 662.452051 353.2239 
L 703.460776 353.2239 
L 709.319165 353.093585 
L 715.177555 353.2239 
L 750.32789 353.2239 
L 756.186279 353.091637 
L 762.044669 353.2239 
L 838.203729 353.2239 
L 844.062118 352.950344 
L 849.920508 353.2239 
L 873.354065 353.2239 
L 879.212454 353.084645 
L 885.070843 353.2239 
L 902.646011 353.2239 
L 908.5044 352.939473 
L 914.362789 353.2239 
L 937.796346 353.2239 
L 943.654736 352.923214 
L 949.513125 353.2239 
L 949.513125 353.2239 
" style="fill:none;stroke:#434348;stroke-linecap:square;"/>
   </g>
   <g id="line2d_39">
    <path clip-path="url(#p215a1c668f)" d="M 76.613125 316.655799 
L 82.471514 353.2239 
L 211.356078 353.2239 
L 217.214467 353.110036 
L 223.072857 353.2239 
L 228.931246 353.137869 
L 240.648024 353.2239 
L 410.541313 353.2239 
L 416.399702 353.063104 
L 422.258091 353.2239 
L 457.408427 353.2239 
L 463.266816 352.991218 
L 469.125206 353.2239 
L 474.983595 353.156795 
L 486.700373 353.2239 
L 633.160105 353.2239 
L 639.018494 353.028666 
L 644.876883 353.220567 
L 662.452051 353.2239 
L 902.646011 353.2239 
L 908.5044 352.932264 
L 914.362789 353.2239 
L 937.796346 353.213394 
L 943.654736 352.965261 
L 949.513125 353.2239 
L 949.513125 353.2239 
" style="fill:none;stroke:#90ed7d;stroke-linecap:square;"/>
   </g>
   <g id="line2d_40">
    <path clip-path="url(#p215a1c668f)" d="M 76.613125 319.558656 
L 82.471514 353.2239 
L 410.541313 353.2239 
L 416.399702 353.063727 
L 422.258091 353.2239 
L 433.97487 353.2239 
L 439.833259 353.09536 
L 445.691648 353.2239 
L 457.408427 353.2239 
L 463.266816 353.030438 
L 469.125206 353.2239 
L 474.983595 353.137757 
L 486.700373 353.2239 
L 633.160105 353.2239 
L 639.018494 353.045601 
L 644.876883 353.2239 
L 656.593662 353.078312 
L 662.452051 353.2239 
L 703.460776 353.2239 
L 709.319165 353.087311 
L 715.177555 353.2239 
L 902.646011 353.2239 
L 908.5044 352.92142 
L 914.362789 353.2239 
L 937.796346 353.197891 
L 943.654736 352.938992 
L 949.513125 353.2239 
L 949.513125 353.2239 
" style="fill:none;stroke:#f7a35c;stroke-linecap:square;"/>
   </g>
   <g id="line2d_41">
    <path clip-path="url(#p215a1c668f)" d="M 76.613125 319.728769 
L 82.471514 353.2239 
L 258.223192 353.2239 
L 264.081581 353.08687 
L 269.939971 353.2239 
L 275.79836 353.112513 
L 281.656749 353.2239 
L 410.541313 353.2239 
L 416.399702 353.068023 
L 422.258091 353.2239 
L 433.97487 353.2239 
L 439.833259 353.093643 
L 445.691648 353.2239 
L 457.408427 353.2239 
L 463.266816 353.067113 
L 469.125206 353.2239 
L 474.983595 353.119206 
L 486.700373 353.2239 
L 633.160105 353.2239 
L 639.018494 353.089075 
L 644.876883 353.2239 
L 650.735273 353.196859 
L 656.593662 353.043351 
L 662.452051 353.2239 
L 902.646011 353.2239 
L 908.5044 352.943646 
L 914.362789 353.2239 
L 937.796346 353.203299 
L 943.654736 352.930021 
L 949.513125 353.2239 
L 949.513125 353.2239 
" style="fill:none;stroke:#8085e9;stroke-linecap:square;"/>
   </g>
   <g id="line2d_42">
    <path clip-path="url(#p215a1c668f)" d="M 76.613125 325.258678 
L 82.471514 353.2239 
L 410.541313 353.2239 
L 416.399702 353.00803 
L 422.258091 353.2239 
L 457.408427 353.2239 
L 463.266816 353.060178 
L 469.125206 353.2239 
L 480.841984 353.2239 
L 633.160105 353.2239 
L 639.018494 353.049243 
L 644.876883 353.2239 
L 773.761447 353.2239 
L 779.619836 353.097365 
L 785.478226 353.2239 
L 902.646011 353.2239 
L 908.5044 352.940976 
L 914.362789 353.2239 
L 937.796346 353.2239 
L 943.654736 352.920528 
L 949.513125 353.2239 
L 949.513125 353.2239 
" style="fill:none;stroke:#f15c80;stroke-linecap:square;"/>
   </g>
   <g id="line2d_43">
    <path clip-path="url(#p215a1c668f)" d="M 76.613125 319.254107 
L 82.471514 353.2239 
L 410.541313 353.2239 
L 416.399702 353.083711 
L 422.258091 353.2239 
L 433.97487 353.2239 
L 439.833259 353.111612 
L 445.691648 353.2239 
L 457.408427 353.2239 
L 463.266816 353.026914 
L 469.125206 353.2239 
L 474.983595 353.154203 
L 486.700373 353.2239 
L 639.018494 353.026955 
L 644.876883 353.2239 
L 656.593662 353.07459 
L 662.452051 353.2239 
L 902.646011 353.2239 
L 908.5044 352.8816 
L 914.362789 353.2239 
L 937.796346 353.208309 
L 943.654736 352.942512 
L 949.513125 353.2239 
L 949.513125 353.2239 
" style="fill:none;stroke:#e4d354;stroke-linecap:square;"/>
   </g>
   <g id="line2d_44">
    <path clip-path="url(#p215a1c668f)" d="M 76.613125 321.879886 
L 82.471514 353.2239 
L 211.356078 353.2239 
L 217.214467 353.082456 
L 223.072857 353.2239 
L 228.931246 353.110745 
L 234.789635 353.2239 
L 258.223192 353.2239 
L 264.081581 353.110745 
L 269.939971 353.2239 
L 287.515138 353.2239 
L 410.541313 353.2239 
L 416.399702 353.024148 
L 422.258091 353.2239 
L 457.408427 353.2239 
L 463.266816 352.994545 
L 469.125206 353.2239 
L 492.558763 353.195132 
L 515.99232 353.2239 
L 633.160105 353.2239 
L 639.018494 352.988035 
L 644.876883 353.2239 
L 650.735273 353.194341 
L 656.593662 352.987122 
L 662.452051 353.2239 
L 902.646011 353.2239 
L 908.5044 352.736993 
L 914.362789 353.2239 
L 937.796346 353.2239 
L 943.654736 352.849277 
L 949.513125 353.2239 
L 949.513125 353.2239 
" style="fill:none;stroke:#2b908f;stroke-linecap:square;"/>
   </g>
   <g id="line2d_45">
    <path clip-path="url(#p215a1c668f)" d="M 76.613125 321.875816 
L 82.471514 353.2239 
L 152.772185 353.2239 
L 158.630575 353.109658 
L 164.488964 353.2239 
L 223.072857 353.2239 
L 228.931246 353.086809 
L 234.789635 353.2239 
L 258.223192 353.2239 
L 264.081581 353.086809 
L 269.939971 353.2239 
L 275.79836 353.10961 
L 281.656749 353.2239 
L 410.541313 353.2239 
L 416.399702 353.108171 
L 422.258091 353.2239 
L 433.97487 353.2239 
L 439.833259 353.084571 
L 445.691648 353.2239 
L 457.408427 353.2239 
L 463.266816 353.084072 
L 469.125206 353.2239 
L 474.983595 353.107143 
L 480.841984 353.2239 
L 633.160105 353.2239 
L 639.018494 353.078699 
L 644.876883 353.2239 
L 674.16883 353.199444 
L 703.460776 353.2239 
L 726.894333 353.2239 
L 902.646011 353.2239 
L 908.5044 353.060089 
L 914.362789 353.2239 
L 937.796346 353.2239 
L 943.654736 353.080082 
L 949.513125 353.2239 
L 949.513125 353.2239 
" style="fill:none;stroke:#f45b5b;stroke-linecap:square;"/>
   </g>
   <g id="line2d_46">
    <path clip-path="url(#p215a1c668f)" d="M 76.613125 325.25518 
L 82.471514 353.2239 
L 199.639299 353.2239 
L 205.497689 353.101499 
L 211.356078 353.2239 
L 217.214467 353.101499 
L 223.072857 353.2239 
L 228.931246 353.162699 
L 240.648024 353.2239 
L 258.223192 353.2239 
L 264.081581 353.040298 
L 269.939971 353.2239 
L 275.79836 353.101437 
L 281.656749 353.2239 
L 410.541313 353.2239 
L 416.399702 353.037438 
L 422.258091 353.2239 
L 433.97487 353.2239 
L 439.833259 353.036645 
L 445.691648 353.2239 
L 457.408427 353.2239 
L 463.266816 353.098395 
L 469.125206 353.2239 
L 474.983595 353.160973 
L 486.700373 353.2239 
L 650.735273 353.157324 
L 656.593662 353.023677 
L 662.452051 353.2239 
L 902.646011 353.2239 
L 908.5044 353.066679 
L 914.362789 353.2239 
L 937.796346 353.2239 
L 943.654736 353.056188 
L 949.513125 353.2239 
L 949.513125 353.2239 
" style="fill:none;stroke:#91e8e1;stroke-linecap:square;"/>
   </g>
   <g id="line2d_47">
    <path clip-path="url(#p215a1c668f)" d="M 76.613125 326.71955 
L 82.471514 353.2239 
L 152.772185 353.2239 
L 158.630575 353.075831 
L 164.488964 353.2239 
L 211.356078 353.2239 
L 217.214467 353.075831 
L 223.072857 353.2239 
L 228.931246 353.125187 
L 240.648024 353.2239 
L 269.939971 353.2239 
L 275.79836 353.026325 
L 281.656749 353.2239 
L 433.97487 353.2239 
L 439.833259 353.020509 
L 445.691648 353.2239 
L 469.125206 353.2239 
L 474.983595 353.018413 
L 480.841984 353.2239 
L 633.160105 353.2239 
L 639.018494 353.05855 
L 644.876883 353.2239 
L 650.735273 353.2239 
L 656.593662 353.112553 
L 662.452051 353.2239 
L 750.32789 353.2239 
L 756.186279 353.104988 
L 762.044669 353.2239 
L 902.646011 353.2239 
L 908.5044 352.882842 
L 914.362789 353.2239 
L 937.796346 353.152461 
L 943.654736 352.857214 
L 949.513125 353.2239 
L 949.513125 353.2239 
" style="fill:none;stroke:#7cb5ec;stroke-linecap:square;"/>
   </g>
   <g id="line2d_48">
    <path clip-path="url(#p215a1c668f)" d="M 76.613125 322.485488 
L 82.471514 353.2239 
L 211.356078 353.2239 
L 217.214467 353.045189 
L 223.072857 353.2239 
L 457.408427 353.2239 
L 463.266816 352.95157 
L 469.125206 353.2239 
L 633.160105 353.2239 
L 639.018494 352.942853 
L 644.876883 353.2239 
L 650.735273 353.2239 
L 656.593662 353.035745 
L 662.452051 353.2239 
L 902.646011 353.2239 
L 908.5044 352.911876 
L 914.362789 353.2239 
L 937.796346 353.2239 
L 943.654736 353.005654 
L 949.513125 353.2239 
L 949.513125 353.2239 
" style="fill:none;stroke:#434348;stroke-linecap:square;"/>
   </g>
   <g id="line2d_49">
    <path clip-path="url(#p215a1c668f)" d="M 76.613125 325.881514 
L 82.471514 353.2239 
L 223.072857 353.2239 
L 228.931246 352.973053 
L 234.789635 353.2239 
L 258.223192 353.2239 
L 264.081581 353.098476 
L 269.939971 353.2239 
L 305.090306 353.2239 
L 310.948695 353.098112 
L 316.807085 353.2239 
L 486.700373 353.2239 
L 492.558763 353.094729 
L 498.417152 353.2239 
L 609.726548 353.2239 
L 615.584937 353.090784 
L 621.443326 353.2239 
L 633.160105 353.2239 
L 639.018494 353.089798 
L 644.876883 353.2239 
L 650.735273 353.08935 
L 656.593662 353.2239 
L 703.460776 353.2239 
L 709.319165 353.086477 
L 715.177555 353.2239 
L 902.646011 353.2239 
L 908.5044 352.769952 
L 914.362789 353.2239 
L 949.513125 353.2239 
L 949.513125 353.2239 
" style="fill:none;stroke:#90ed7d;stroke-linecap:square;"/>
   </g>
   <g id="line2d_50">
    <path clip-path="url(#p215a1c668f)" d="M 76.613125 319.685716 
L 82.471514 353.2239 
L 223.072857 353.2239 
L 228.931246 353.112275 
L 234.789635 353.2239 
L 410.541313 353.2239 
L 416.399702 353.063128 
L 422.258091 353.2239 
L 433.97487 353.2239 
L 439.833259 353.093535 
L 445.691648 353.2239 
L 457.408427 353.2239 
L 463.266816 353.077918 
L 469.125206 353.2239 
L 474.983595 353.139296 
L 486.700373 353.2239 
L 615.584937 353.205607 
L 633.160105 353.2239 
L 639.018494 353.069002 
L 644.876883 353.2239 
L 656.593662 353.105303 
L 662.452051 353.2239 
L 902.646011 353.2239 
L 908.5044 352.921911 
L 914.362789 353.2239 
L 937.796346 353.208787 
L 943.654736 352.965208 
L 949.513125 353.2239 
L 949.513125 353.2239 
" style="fill:none;stroke:#f7a35c;stroke-linecap:square;"/>
   </g>
   <g id="line2d_51">
    <path clip-path="url(#p215a1c668f)" d="M 76.613125 319.715033 
L 82.471514 353.2239 
L 410.541313 353.2239 
L 416.399702 353.094798 
L 422.258091 353.2239 
L 433.97487 353.2239 
L 439.833259 353.106614 
L 445.691648 353.2239 
L 457.408427 353.2239 
L 463.266816 353.037606 
L 469.125206 353.2239 
L 474.983595 353.151259 
L 486.700373 353.2239 
L 656.593662 353.090705 
L 662.452051 353.2239 
L 902.646011 353.2239 
L 908.5044 352.898777 
L 914.362789 353.2239 
L 937.796346 353.206879 
L 943.654736 352.961246 
L 949.513125 353.2239 
L 949.513125 353.2239 
" style="fill:none;stroke:#8085e9;stroke-linecap:square;"/>
   </g>
   <g id="line2d_52">
    <path clip-path="url(#p215a1c668f)" d="M 76.613125 318.962021 
L 82.471514 353.2239 
L 410.541313 353.2239 
L 416.399702 353.080681 
L 422.258091 353.2239 
L 433.97487 353.2239 
L 439.833259 353.108541 
L 445.691648 353.2239 
L 457.408427 353.2239 
L 463.266816 353.022648 
L 469.125206 353.2239 
L 474.983595 353.143727 
L 486.700373 353.2239 
L 545.284266 353.2239 
L 633.160105 353.2239 
L 639.018494 353.035234 
L 644.876883 353.2239 
L 656.593662 353.071691 
L 662.452051 353.2239 
L 902.646011 353.2239 
L 908.5044 352.898497 
L 914.362789 353.2239 
L 937.796346 353.212159 
L 943.654736 352.956737 
L 949.513125 353.2239 
L 949.513125 353.2239 
" style="fill:none;stroke:#f15c80;stroke-linecap:square;"/>
   </g>
   <g id="line2d_53">
    <path clip-path="url(#p215a1c668f)" d="M 76.613125 319.19719 
L 82.471514 353.2239 
L 410.541313 353.2239 
L 416.399702 353.098479 
L 422.258091 353.2239 
L 433.97487 353.2239 
L 439.833259 353.101199 
L 445.691648 353.2239 
L 457.408427 353.2239 
L 463.266816 353.007462 
L 469.125206 353.2239 
L 474.983595 353.148555 
L 486.700373 353.2239 
L 633.160105 353.2239 
L 639.018494 353.016328 
L 644.876883 353.2239 
L 656.593662 353.067255 
L 662.452051 353.2239 
L 902.646011 353.2239 
L 908.5044 352.871039 
L 914.362789 353.2239 
L 937.796346 353.205677 
L 943.654736 352.953885 
L 949.513125 353.2239 
L 949.513125 353.2239 
" style="fill:none;stroke:#e4d354;stroke-linecap:square;"/>
   </g>
   <g id="line2d_54">
    <path clip-path="url(#p215a1c668f)" d="M 76.613125 321.890507 
L 82.471514 353.2239 
L 410.541313 353.2239 
L 416.399702 353.053772 
L 422.258091 353.2239 
L 457.408427 353.2239 
L 463.266816 353.053086 
L 469.125206 353.2239 
L 474.983595 353.149085 
L 486.700373 353.2239 
L 633.160105 353.2239 
L 639.018494 353.049273 
L 644.876883 353.2239 
L 656.593662 353.092542 
L 662.452051 353.2239 
L 902.646011 353.2239 
L 908.5044 352.904921 
L 914.362789 353.2239 
L 937.796346 353.2239 
L 943.654736 352.940553 
L 949.513125 353.2239 
L 949.513125 353.2239 
" style="fill:none;stroke:#2b908f;stroke-linecap:square;"/>
   </g>
   <g id="line2d_55">
    <path clip-path="url(#p215a1c668f)" d="M 76.613125 321.118798 
L 82.471514 353.2239 
L 457.408427 353.2239 
L 463.266816 353.049149 
L 469.125206 353.2239 
L 486.700373 353.2239 
L 633.160105 353.2239 
L 639.018494 353.024704 
L 644.876883 353.2239 
L 656.593662 353.205713 
L 697.602387 353.2239 
L 902.646011 353.2239 
L 908.5044 352.943827 
L 914.362789 353.2239 
L 937.796346 353.2239 
L 943.654736 353.014847 
L 949.513125 353.2239 
L 949.513125 353.2239 
" style="fill:none;stroke:#f45b5b;stroke-linecap:square;"/>
   </g>
   <g id="line2d_56">
    <path clip-path="url(#p215a1c668f)" d="M 76.613125 323.553034 
L 82.471514 353.2239 
L 223.072857 353.2239 
L 228.931246 353.110212 
L 234.789635 353.2239 
L 410.541313 353.2239 
L 416.399702 353.088626 
L 422.258091 353.2239 
L 457.408427 353.2239 
L 463.266816 353.05344 
L 469.125206 353.2239 
L 474.983595 353.150786 
L 486.700373 353.2239 
L 674.16883 353.220354 
L 820.628561 353.2239 
L 844.062118 353.203825 
L 873.354065 353.2239 
L 885.070843 353.222052 
L 902.646011 353.2239 
L 908.5044 352.917146 
L 914.362789 353.2239 
L 937.796346 353.212434 
L 943.654736 352.994448 
L 949.513125 353.2239 
L 949.513125 353.2239 
" style="fill:none;stroke:#91e8e1;stroke-linecap:square;"/>
   </g>
   <g id="line2d_57">
    <path clip-path="url(#p215a1c668f)" d="M 76.613125 321.039942 
L 82.471514 353.2239 
L 410.541313 353.2239 
L 416.399702 353.076002 
L 422.258091 353.2239 
L 457.408427 353.2239 
L 463.266816 353.046758 
L 469.125206 353.2239 
L 474.983595 353.167068 
L 486.700373 353.2239 
L 639.018494 353.055058 
L 644.876883 353.2239 
L 656.593662 353.086624 
L 662.452051 353.2239 
L 902.646011 353.2239 
L 908.5044 352.913615 
L 914.362789 353.2239 
L 937.796346 353.209763 
L 943.654736 352.962136 
L 949.513125 353.2239 
L 949.513125 353.2239 
" style="fill:none;stroke:#7cb5ec;stroke-linecap:square;"/>
   </g>
   <g id="line2d_58">
    <path clip-path="url(#p215a1c668f)" d="M 76.613125 322.830102 
L 82.471514 353.2239 
L 211.356078 353.2239 
L 217.214467 353.081873 
L 223.072857 353.2239 
L 234.789635 353.2239 
L 392.966145 353.2239 
L 398.824534 353.08068 
L 404.682924 353.2239 
L 457.408427 353.2239 
L 463.266816 352.935431 
L 469.125206 353.2239 
L 609.726548 353.2239 
L 615.584937 353.075983 
L 621.443326 353.2239 
L 633.160105 353.2239 
L 639.018494 352.97606 
L 644.876883 353.2239 
L 902.646011 353.2239 
L 908.5044 352.838687 
L 914.362789 353.2239 
L 937.796346 353.2239 
L 943.654736 352.935247 
L 949.513125 353.2239 
L 949.513125 353.2239 
" style="fill:none;stroke:#434348;stroke-linecap:square;"/>
   </g>
   <g id="line2d_59">
    <path clip-path="url(#p215a1c668f)" d="M 76.613125 321.315112 
L 82.471514 353.2239 
L 223.072857 353.2239 
L 228.931246 353.02874 
L 234.789635 353.2239 
L 410.541313 353.2239 
L 416.399702 353.100889 
L 422.258091 353.2239 
L 457.408427 353.2239 
L 463.266816 353.026212 
L 469.125206 353.2239 
L 633.160105 353.2239 
L 639.018494 353.021456 
L 644.876883 353.2239 
L 656.593662 353.122359 
L 668.31044 353.2239 
L 691.743997 353.2239 
L 703.460776 353.2239 
L 709.319165 353.095655 
L 715.177555 353.2239 
L 902.646011 353.2239 
L 908.5044 352.839446 
L 914.362789 353.2239 
L 937.796346 353.195733 
L 943.654736 352.908368 
L 949.513125 353.2239 
L 949.513125 353.2239 
" style="fill:none;stroke:#90ed7d;stroke-linecap:square;"/>
   </g>
   <g id="line2d_60">
    <path clip-path="url(#p215a1c668f)" d="M 76.613125 320.369793 
L 82.471514 353.2239 
L 223.072857 353.2239 
L 228.931246 353.109922 
L 234.789635 353.2239 
L 410.541313 353.2239 
L 416.399702 353.079594 
L 422.258091 353.2239 
L 457.408427 353.2239 
L 463.266816 353.078662 
L 469.125206 353.2239 
L 474.983595 353.165698 
L 486.700373 353.2239 
L 504.275541 353.2239 
L 633.160105 353.2239 
L 639.018494 353.01331 
L 644.876883 353.2239 
L 685.885608 353.2239 
L 902.646011 353.2239 
L 908.5044 352.83521 
L 914.362789 353.2239 
L 937.796346 353.2239 
L 943.654736 352.956707 
L 949.513125 353.2239 
L 949.513125 353.2239 
" style="fill:none;stroke:#f7a35c;stroke-linecap:square;"/>
   </g>
   <g id="line2d_61">
    <path clip-path="url(#p215a1c668f)" d="M 76.613125 317.421848 
L 82.471514 353.2239 
L 223.072857 353.2239 
L 228.931246 353.111886 
L 234.789635 353.2239 
L 410.541313 353.2239 
L 416.399702 353.073663 
L 422.258091 353.2239 
L 433.97487 353.2239 
L 439.833259 353.102065 
L 445.691648 353.2239 
L 457.408427 353.2239 
L 463.266816 353.016672 
L 469.125206 353.2239 
L 474.983595 353.143913 
L 486.700373 353.2239 
L 627.301716 353.21594 
L 633.160105 353.2239 
L 639.018494 353.024035 
L 644.876883 353.2239 
L 662.452051 353.2239 
L 902.646011 353.2239 
L 908.5044 352.90718 
L 914.362789 353.2239 
L 937.796346 353.20672 
L 943.654736 352.955008 
L 949.513125 353.2239 
L 949.513125 353.2239 
" style="fill:none;stroke:#8085e9;stroke-linecap:square;"/>
   </g>
   <g id="line2d_62">
    <path clip-path="url(#p215a1c668f)" d="M 76.613125 320.225563 
L 82.471514 353.2239 
L 410.541313 353.2239 
L 416.399702 353.077707 
L 422.258091 353.2239 
L 457.408427 353.2239 
L 463.266816 353.045916 
L 469.125206 353.2239 
L 474.983595 353.15737 
L 486.700373 353.2239 
L 545.284266 353.2239 
L 633.160105 353.2239 
L 639.018494 353.040608 
L 644.876883 353.222801 
L 656.593662 353.072929 
L 662.452051 353.2239 
L 902.646011 353.2239 
L 908.5044 352.908979 
L 914.362789 353.2239 
L 937.796346 353.205912 
L 943.654736 352.973248 
L 949.513125 353.2239 
L 949.513125 353.2239 
" style="fill:none;stroke:#f15c80;stroke-linecap:square;"/>
   </g>
   <g id="line2d_63">
    <path clip-path="url(#p215a1c668f)" d="M 76.613125 323.015923 
L 82.471514 353.2239 
L 223.072857 353.2239 
L 228.931246 353.077827 
L 234.789635 353.2239 
L 258.223192 353.2239 
L 264.081581 353.077827 
L 269.939971 353.2239 
L 410.541313 353.2239 
L 416.399702 353.105474 
L 422.258091 353.2239 
L 457.408427 353.2239 
L 463.266816 353.045126 
L 469.125206 353.2239 
L 633.160105 353.2239 
L 639.018494 353.069666 
L 644.876883 353.2239 
L 650.735273 353.2239 
L 656.593662 353.068948 
L 662.452051 353.2239 
L 902.646011 353.2239 
L 908.5044 353.052877 
L 914.362789 353.2239 
L 937.796346 353.2239 
L 943.654736 353.00815 
L 949.513125 353.2239 
L 949.513125 353.2239 
" style="fill:none;stroke:#e4d354;stroke-linecap:square;"/>
   </g>
   <g id="line2d_64">
    <path clip-path="url(#p215a1c668f)" d="M 76.613125 320.146071 
L 82.471514 353.2239 
L 223.072857 353.2239 
L 228.931246 353.072321 
L 234.789635 353.2239 
L 258.223192 353.2239 
L 264.081581 353.089164 
L 269.939971 353.2239 
L 275.79836 353.105969 
L 281.656749 353.2239 
L 410.541313 353.2239 
L 416.399702 353.087825 
L 422.258091 353.2239 
L 433.97487 353.2239 
L 439.833259 353.070374 
L 445.691648 353.2239 
L 457.408427 353.2239 
L 463.266816 353.018514 
L 469.125206 353.2239 
L 474.983595 353.121025 
L 486.700373 353.2239 
L 633.160105 353.2239 
L 639.018494 353.081738 
L 644.876883 353.2239 
L 650.735273 353.188242 
L 656.593662 353.009587 
L 662.452051 353.2239 
L 902.646011 353.2239 
L 908.5044 352.980742 
L 914.362789 353.2239 
L 937.796346 353.161067 
L 943.654736 352.924787 
L 949.513125 353.2239 
L 949.513125 353.2239 
" style="fill:none;stroke:#2b908f;stroke-linecap:square;"/>
   </g>
   <g id="line2d_65">
    <path clip-path="url(#p215a1c668f)" d="M 76.613125 327.95829 
L 82.471514 353.2239 
L 433.97487 353.2239 
L 439.833259 352.990743 
L 445.691648 353.2239 
L 773.761447 353.2239 
L 779.619836 352.971894 
L 785.478226 353.2239 
L 949.513125 353.2239 
L 949.513125 353.2239 
" style="fill:none;stroke:#f45b5b;stroke-linecap:square;"/>
   </g>
   <g id="line2d_66">
    <path clip-path="url(#p215a1c668f)" d="M 76.613125 321.267734 
L 82.471514 353.2239 
L 258.223192 353.2239 
L 264.081581 353.102394 
L 269.939971 353.2239 
L 281.656749 353.2239 
L 410.541313 353.2239 
L 416.399702 353.05927 
L 422.258091 353.2239 
L 633.160105 353.2239 
L 639.018494 353.094123 
L 644.876883 353.2239 
L 656.593662 353.093428 
L 662.452051 353.2239 
L 902.646011 353.2239 
L 908.5044 352.931042 
L 914.362789 353.2239 
L 937.796346 353.2239 
L 943.654736 352.966965 
L 949.513125 353.2239 
L 949.513125 353.2239 
" style="fill:none;stroke:#91e8e1;stroke-linecap:square;"/>
   </g>
   <g id="line2d_67">
    <path clip-path="url(#p215a1c668f)" d="M 76.613125 321.308116 
L 82.471514 353.2239 
L 410.541313 353.2239 
L 416.399702 353.091685 
L 422.258091 353.2239 
L 433.97487 353.2239 
L 439.833259 353.09932 
L 445.691648 353.2239 
L 457.408427 353.2239 
L 463.266816 353.054119 
L 469.125206 353.2239 
L 474.983595 353.138332 
L 486.700373 353.2239 
L 580.434602 353.201013 
L 609.726548 353.2239 
L 656.593662 353.083958 
L 662.452051 353.2239 
L 902.646011 353.2239 
L 908.5044 352.917357 
L 914.362789 353.2239 
L 937.796346 353.209257 
L 943.654736 352.976396 
L 949.513125 353.2239 
L 949.513125 353.2239 
" style="fill:none;stroke:#7cb5ec;stroke-linecap:square;"/>
   </g>
   <g id="line2d_68">
    <path clip-path="url(#p215a1c668f)" d="M 76.613125 320.640956 
L 82.471514 353.2239 
L 410.541313 353.2239 
L 416.399702 353.102738 
L 422.258091 353.2239 
L 457.408427 353.2239 
L 463.266816 353.042619 
L 469.125206 353.2239 
L 474.983595 353.159459 
L 486.700373 353.2239 
L 580.434602 353.204295 
L 609.726548 353.2239 
L 656.593662 353.086191 
L 662.452051 353.2239 
L 902.646011 353.2239 
L 908.5044 352.877598 
L 914.362789 353.2239 
L 937.796346 353.199642 
L 943.654736 352.944346 
L 949.513125 353.2239 
L 949.513125 353.2239 
" style="fill:none;stroke:#434348;stroke-linecap:square;"/>
   </g>
   <g id="line2d_69">
    <path clip-path="url(#p215a1c668f)" d="M 76.613125 320.260285 
L 82.471514 353.2239 
L 223.072857 353.2239 
L 228.931246 353.104579 
L 234.789635 353.2239 
L 410.541313 353.2239 
L 416.399702 353.093193 
L 422.258091 353.2239 
L 433.97487 353.2239 
L 439.833259 353.103819 
L 445.691648 353.2239 
L 457.408427 353.2239 
L 463.266816 353.052239 
L 469.125206 353.2239 
L 474.983595 353.153896 
L 486.700373 353.2239 
L 568.717823 353.2239 
L 633.160105 353.2239 
L 639.018494 353.045999 
L 644.876883 353.2239 
L 656.593662 353.082912 
L 662.452051 353.2239 
L 902.646011 353.2239 
L 908.5044 352.919329 
L 914.362789 353.2239 
L 937.796346 353.206765 
L 943.654736 352.979075 
L 949.513125 353.2239 
L 949.513125 353.2239 
" style="fill:none;stroke:#90ed7d;stroke-linecap:square;"/>
   </g>
   <g id="line2d_70">
    <path clip-path="url(#p215a1c668f)" d="M 76.613125 321.976422 
L 82.471514 353.2239 
L 410.541313 353.2239 
L 416.399702 353.104046 
L 422.258091 353.2239 
L 457.408427 353.2239 
L 463.266816 353.085544 
L 469.125206 353.2239 
L 474.983595 353.145618 
L 486.700373 353.2239 
L 592.15138 353.15675 
L 603.868159 353.2239 
L 633.160105 353.2239 
L 639.018494 353.045541 
L 644.876883 353.2239 
L 656.593662 353.051135 
L 662.452051 353.2239 
L 902.646011 353.2239 
L 908.5044 352.90648 
L 914.362789 353.2239 
L 937.796346 353.210012 
L 943.654736 352.948121 
L 949.513125 353.2239 
L 949.513125 353.2239 
" style="fill:none;stroke:#f7a35c;stroke-linecap:square;"/>
   </g>
   <g id="line2d_71">
    <path clip-path="url(#p215a1c668f)" d="M 76.613125 320.606552 
L 82.471514 353.2239 
L 457.408427 353.2239 
L 463.266816 353.015723 
L 469.125206 353.2239 
L 474.983595 353.166525 
L 486.700373 353.2239 
L 551.142655 353.2239 
L 633.160105 353.2239 
L 639.018494 353.025718 
L 644.876883 353.2239 
L 662.452051 353.2239 
L 902.646011 353.2239 
L 908.5044 352.881953 
L 914.362789 353.2239 
L 937.796346 353.208322 
L 943.654736 352.949649 
L 949.513125 353.2239 
L 949.513125 353.2239 
" style="fill:none;stroke:#8085e9;stroke-linecap:square;"/>
   </g>
   <g id="line2d_72">
    <path clip-path="url(#p215a1c668f)" d="M 76.613125 321.000959 
L 82.471514 353.2239 
L 410.541313 353.2239 
L 416.399702 353.094844 
L 422.258091 353.2239 
L 457.408427 353.2239 
L 463.266816 353.058705 
L 469.125206 353.2239 
L 474.983595 353.165167 
L 486.700373 353.2239 
L 598.009769 353.2239 
L 633.160105 353.2239 
L 639.018494 353.064732 
L 644.876883 353.22325 
L 656.593662 353.074094 
L 662.452051 353.2239 
L 902.646011 353.2239 
L 908.5044 352.919642 
L 914.362789 353.2239 
L 937.796346 353.210924 
L 943.654736 352.956019 
L 949.513125 353.2239 
L 949.513125 353.2239 
" style="fill:none;stroke:#f15c80;stroke-linecap:square;"/>
   </g>
   <g id="line2d_73">
    <path clip-path="url(#p215a1c668f)" d="M 76.613125 320.880831 
L 82.471514 353.2239 
L 223.072857 353.2239 
L 228.931246 353.067199 
L 234.789635 353.2239 
L 269.939971 353.2239 
L 275.79836 353.082824 
L 281.656749 353.2239 
L 410.541313 353.2239 
L 416.399702 353.097498 
L 422.258091 353.2239 
L 433.97487 353.2239 
L 439.833259 353.065516 
L 445.691648 353.2239 
L 457.408427 353.2239 
L 463.266816 353.072995 
L 469.125206 353.2239 
L 474.983595 353.096623 
L 480.841984 353.2239 
L 633.160105 353.2239 
L 639.018494 353.092829 
L 644.876883 353.2239 
L 662.452051 353.2239 
L 902.646011 353.2239 
L 908.5044 352.951625 
L 914.362789 353.2239 
L 937.796346 353.214571 
L 943.654736 352.995909 
L 949.513125 353.2239 
L 949.513125 353.2239 
" style="fill:none;stroke:#e4d354;stroke-linecap:square;"/>
   </g>
   <g id="line2d_74">
    <path clip-path="url(#p215a1c668f)" d="M 76.613125 320.245086 
L 82.471514 353.2239 
L 410.541313 353.2239 
L 416.399702 353.088729 
L 422.258091 353.2239 
L 457.408427 353.2239 
L 463.266816 353.044165 
L 469.125206 353.2239 
L 474.983595 353.151398 
L 486.700373 353.2239 
L 615.584937 353.20501 
L 633.160105 353.2239 
L 639.018494 353.05141 
L 644.876883 353.22284 
L 656.593662 353.07691 
L 662.452051 353.2239 
L 902.646011 353.2239 
L 908.5044 352.911571 
L 914.362789 353.2239 
L 937.796346 353.20871 
L 943.654736 352.973549 
L 949.513125 353.2239 
L 949.513125 353.2239 
" style="fill:none;stroke:#2b908f;stroke-linecap:square;"/>
   </g>
   <g id="line2d_75">
    <path clip-path="url(#p215a1c668f)" d="M 76.613125 319.849406 
L 82.471514 353.2239 
L 211.356078 353.2239 
L 217.214467 353.055342 
L 223.072857 353.2239 
L 228.931246 353.139621 
L 240.648024 353.2239 
L 410.541313 353.2239 
L 416.399702 353.051966 
L 422.258091 353.2239 
L 457.408427 353.2239 
L 463.266816 352.876283 
L 469.125206 353.2239 
L 474.983595 353.165807 
L 486.700373 353.2239 
L 633.160105 353.2239 
L 639.018494 352.887573 
L 644.876883 353.2239 
L 656.593662 353.039261 
L 662.452051 353.2239 
L 703.460776 353.2239 
L 709.319165 353.098266 
L 715.177555 353.2239 
L 902.646011 353.2239 
L 908.5044 352.839311 
L 914.362789 353.2239 
L 937.796346 353.2239 
L 943.654736 352.782579 
L 949.513125 353.2239 
L 949.513125 353.2239 
" style="fill:none;stroke:#f45b5b;stroke-linecap:square;"/>
   </g>
   <g id="line2d_76">
    <path clip-path="url(#p215a1c668f)" d="M 76.613125 323.147116 
L 82.471514 353.2239 
L 152.772185 353.2239 
L 158.630575 353.075981 
L 164.488964 353.2239 
L 258.223192 353.2239 
L 264.081581 352.928063 
L 269.939971 353.2239 
L 275.79836 353.07589 
L 281.656749 353.2239 
L 457.408427 353.2239 
L 463.266816 353.022917 
L 469.125206 353.2239 
L 474.983595 353.12323 
L 486.700373 353.2239 
L 633.160105 353.2239 
L 639.018494 353.068074 
L 644.876883 353.2239 
L 650.735273 353.2239 
L 656.593662 352.858627 
L 662.452051 353.2239 
L 873.354065 353.2239 
L 879.212454 353.110787 
L 885.070843 353.2239 
L 902.646011 353.2239 
L 908.5044 353.050699 
L 914.362789 353.2239 
L 937.796346 353.164452 
L 943.654736 353.102528 
L 949.513125 353.2239 
L 949.513125 353.2239 
" style="fill:none;stroke:#91e8e1;stroke-linecap:square;"/>
   </g>
   <g id="line2d_77">
    <path clip-path="url(#p215a1c668f)" d="M 76.613125 319.807943 
L 82.471514 353.2239 
L 410.541313 353.2239 
L 416.399702 353.094974 
L 422.258091 353.2239 
L 433.97487 353.2239 
L 439.833259 353.083152 
L 445.691648 353.2239 
L 457.408427 353.2239 
L 463.266816 353.045591 
L 469.125206 353.2239 
L 474.983595 353.131706 
L 486.700373 353.2239 
L 557.001044 353.2239 
L 633.160105 353.2239 
L 639.018494 353.030736 
L 644.876883 353.2239 
L 662.452051 353.2239 
L 902.646011 353.2239 
L 908.5044 352.870946 
L 914.362789 353.2239 
L 937.796346 353.215953 
L 943.654736 352.947492 
L 949.513125 353.2239 
L 949.513125 353.2239 
" style="fill:none;stroke:#7cb5ec;stroke-linecap:square;"/>
   </g>
   <g id="line2d_78">
    <path clip-path="url(#p215a1c668f)" d="M 32.968125 353.2239 
L 993.158125 353.2239 
" style="fill:none;stroke:#dedede;stroke-linecap:square;stroke-width:2;"/>
   </g>
   <g id="text_17">
    <!-- Fastp: Read N Content -->
    <defs>
     <path d="M 9.8125 72.90625 
L 51.703125 72.90625 
L 51.703125 64.59375 
L 19.671875 64.59375 
L 19.671875 43.109375 
L 48.578125 43.109375 
L 48.578125 34.8125 
L 19.671875 34.8125 
L 19.671875 0 
L 9.8125 0 
z
" id="DejaVuSans-70"/>
     <path d="M 18.109375 8.203125 
L 18.109375 -20.796875 
L 9.078125 -20.796875 
L 9.078125 54.6875 
L 18.109375 54.6875 
L 18.109375 46.390625 
Q 20.953125 51.265625 25.265625 53.625 
Q 29.59375 56 35.59375 56 
Q 45.5625 56 51.78125 48.09375 
Q 58.015625 40.1875 58.015625 27.296875 
Q 58.015625 14.40625 51.78125 6.484375 
Q 45.5625 -1.421875 35.59375 -1.421875 
Q 29.59375 -1.421875 25.265625 0.953125 
Q 20.953125 3.328125 18.109375 8.203125 
z
M 48.6875 27.296875 
Q 48.6875 37.203125 44.609375 42.84375 
Q 40.53125 48.484375 33.40625 48.484375 
Q 26.265625 48.484375 22.1875 42.84375 
Q 18.109375 37.203125 18.109375 27.296875 
Q 18.109375 17.390625 22.1875 11.75 
Q 26.265625 6.109375 33.40625 6.109375 
Q 40.53125 6.109375 44.609375 11.75 
Q 48.6875 17.390625 48.6875 27.296875 
z
" id="DejaVuSans-112"/>
     <path d="M 9.8125 72.90625 
L 23.09375 72.90625 
L 55.421875 11.921875 
L 55.421875 72.90625 
L 64.984375 72.90625 
L 64.984375 0 
L 51.703125 0 
L 19.390625 60.984375 
L 19.390625 0 
L 9.8125 0 
z
" id="DejaVuSans-78"/>
    </defs>
    <g transform="translate(422.606875 19.3575)scale(0.16 -0.16)">
     <use xlink:href="#DejaVuSans-70"/>
     <use x="57.378906" xlink:href="#DejaVuSans-97"/>
     <use x="118.658203" xlink:href="#DejaVuSans-115"/>
     <use x="170.757812" xlink:href="#DejaVuSans-116"/>
     <use x="209.966797" xlink:href="#DejaVuSans-112"/>
     <use x="273.443359" xlink:href="#DejaVuSans-58"/>
     <use x="307.134766" xlink:href="#DejaVuSans-32"/>
     <use x="338.921875" xlink:href="#DejaVuSans-82"/>
     <use x="408.341797" xlink:href="#DejaVuSans-101"/>
     <use x="469.865234" xlink:href="#DejaVuSans-97"/>
     <use x="531.144531" xlink:href="#DejaVuSans-100"/>
     <use x="594.621094" xlink:href="#DejaVuSans-32"/>
     <use x="626.408203" xlink:href="#DejaVuSans-78"/>
     <use x="701.212891" xlink:href="#DejaVuSans-32"/>
     <use x="733" xlink:href="#DejaVuSans-67"/>
     <use x="802.824219" xlink:href="#DejaVuSans-111"/>
     <use x="864.005859" xlink:href="#DejaVuSans-110"/>
     <use x="927.384766" xlink:href="#DejaVuSans-116"/>
     <use x="966.59375" xlink:href="#DejaVuSans-101"/>
     <use x="1028.117188" xlink:href="#DejaVuSans-110"/>
     <use x="1091.496094" xlink:href="#DejaVuSans-116"/>
    </g>
   </g>
  </g>
 </g>
 <defs>
  <clipPath id="p215a1c668f">
   <rect height="317.968" width="960.19" x="32.968125" y="35.2559"/>
  </clipPath>
 </defs>
</svg>
