<?xml version="1.0" encoding="utf-8" standalone="no"?>
<!DOCTYPE svg PUBLIC "-//W3C//DTD SVG 1.1//EN"
  "http://www.w3.org/Graphics/SVG/1.1/DTD/svg11.dtd">
<!-- Created with matplotlib (https://matplotlib.org/) -->
<svg height="388.844525pt" version="1.1" viewBox="0 0 1000.358125 388.844525" width="1000.358125pt" xmlns="http://www.w3.org/2000/svg" xmlns:xlink="http://www.w3.org/1999/xlink">
 <defs>
  <style type="text/css">
*{stroke-linecap:butt;stroke-linejoin:round;}
  </style>
 </defs>
 <g id="figure_1">
  <g id="axes_1">
   <g id="patch_1">
    <path d="M 32.968125 353.2239 
L 993.158125 353.2239 
L 993.158125 35.2559 
L 32.968125 35.2559 
z
" style="fill:#ffffff;"/>
   </g>
   <g id="matplotlib.axis_1">
    <g id="xtick_1">
     <g id="text_1">
      <!-- 0 -->
      <defs>
       <path d="M 31.78125 66.40625 
Q 24.171875 66.40625 20.328125 58.90625 
Q 16.5 51.421875 16.5 36.375 
Q 16.5 21.390625 20.328125 13.890625 
Q 24.171875 6.390625 31.78125 6.390625 
Q 39.453125 6.390625 43.28125 13.890625 
Q 47.125 21.390625 47.125 36.375 
Q 47.125 51.421875 43.28125 58.90625 
Q 39.453125 66.40625 31.78125 66.40625 
z
M 31.78125 74.21875 
Q 44.046875 74.21875 50.515625 64.515625 
Q 56.984375 54.828125 56.984375 36.375 
Q 56.984375 17.96875 50.515625 8.265625 
Q 44.046875 -1.421875 31.78125 -1.421875 
Q 19.53125 -1.421875 13.0625 8.265625 
Q 6.59375 17.96875 6.59375 36.375 
Q 6.59375 54.828125 13.0625 64.515625 
Q 19.53125 74.21875 31.78125 74.21875 
z
" id="DejaVuSans-48"/>
      </defs>
      <g transform="translate(68.209736 366.30265)scale(0.08 -0.08)">
       <use xlink:href="#DejaVuSans-48"/>
      </g>
     </g>
    </g>
    <g id="xtick_2">
     <g id="text_2">
      <!-- 20 -->
      <defs>
       <path d="M 19.1875 8.296875 
L 53.609375 8.296875 
L 53.609375 0 
L 7.328125 0 
L 7.328125 8.296875 
Q 12.9375 14.109375 22.625 23.890625 
Q 32.328125 33.6875 34.8125 36.53125 
Q 39.546875 41.84375 41.421875 45.53125 
Q 43.3125 49.21875 43.3125 52.78125 
Q 43.3125 58.59375 39.234375 62.25 
Q 35.15625 65.921875 28.609375 65.921875 
Q 23.96875 65.921875 18.8125 64.3125 
Q 13.671875 62.703125 7.8125 59.421875 
L 7.8125 69.390625 
Q 13.765625 71.78125 18.9375 73 
Q 24.125 74.21875 28.421875 74.21875 
Q 39.75 74.21875 46.484375 68.546875 
Q 53.21875 62.890625 53.21875 53.421875 
Q 53.21875 48.921875 51.53125 44.890625 
Q 49.859375 40.875 45.40625 35.40625 
Q 44.1875 33.984375 37.640625 27.21875 
Q 31.109375 20.453125 19.1875 8.296875 
z
" id="DejaVuSans-50"/>
      </defs>
      <g transform="translate(182.832521 366.30265)scale(0.08 -0.08)">
       <use xlink:href="#DejaVuSans-50"/>
       <use x="63.623047" xlink:href="#DejaVuSans-48"/>
      </g>
     </g>
    </g>
    <g id="xtick_3">
     <g id="text_3">
      <!-- 40 -->
      <defs>
       <path d="M 37.796875 64.3125 
L 12.890625 25.390625 
L 37.796875 25.390625 
z
M 35.203125 72.90625 
L 47.609375 72.90625 
L 47.609375 25.390625 
L 58.015625 25.390625 
L 58.015625 17.1875 
L 47.609375 17.1875 
L 47.609375 0 
L 37.796875 0 
L 37.796875 17.1875 
L 4.890625 17.1875 
L 4.890625 26.703125 
z
" id="DejaVuSans-52"/>
      </defs>
      <g transform="translate(300.000306 366.30265)scale(0.08 -0.08)">
       <use xlink:href="#DejaVuSans-52"/>
       <use x="63.623047" xlink:href="#DejaVuSans-48"/>
      </g>
     </g>
    </g>
    <g id="xtick_4">
     <g id="text_4">
      <!-- 60 -->
      <defs>
       <path d="M 33.015625 40.375 
Q 26.375 40.375 22.484375 35.828125 
Q 18.609375 31.296875 18.609375 23.390625 
Q 18.609375 15.53125 22.484375 10.953125 
Q 26.375 6.390625 33.015625 6.390625 
Q 39.65625 6.390625 43.53125 10.953125 
Q 47.40625 15.53125 47.40625 23.390625 
Q 47.40625 31.296875 43.53125 35.828125 
Q 39.65625 40.375 33.015625 40.375 
z
M 52.59375 71.296875 
L 52.59375 62.3125 
Q 48.875 64.0625 45.09375 64.984375 
Q 41.3125 65.921875 37.59375 65.921875 
Q 27.828125 65.921875 22.671875 59.328125 
Q 17.53125 52.734375 16.796875 39.40625 
Q 19.671875 43.65625 24.015625 45.921875 
Q 28.375 48.1875 33.59375 48.1875 
Q 44.578125 48.1875 50.953125 41.515625 
Q 57.328125 34.859375 57.328125 23.390625 
Q 57.328125 12.15625 50.6875 5.359375 
Q 44.046875 -1.421875 33.015625 -1.421875 
Q 20.359375 -1.421875 13.671875 8.265625 
Q 6.984375 17.96875 6.984375 36.375 
Q 6.984375 53.65625 15.1875 63.9375 
Q 23.390625 74.21875 37.203125 74.21875 
Q 40.921875 74.21875 44.703125 73.484375 
Q 48.484375 72.75 52.59375 71.296875 
z
" id="DejaVuSans-54"/>
      </defs>
      <g transform="translate(417.168091 366.30265)scale(0.08 -0.08)">
       <use xlink:href="#DejaVuSans-54"/>
       <use x="63.623047" xlink:href="#DejaVuSans-48"/>
      </g>
     </g>
    </g>
    <g id="xtick_5">
     <g id="text_5">
      <!-- 80 -->
      <defs>
       <path d="M 31.78125 34.625 
Q 24.75 34.625 20.71875 30.859375 
Q 16.703125 27.09375 16.703125 20.515625 
Q 16.703125 13.921875 20.71875 10.15625 
Q 24.75 6.390625 31.78125 6.390625 
Q 38.8125 6.390625 42.859375 10.171875 
Q 46.921875 13.96875 46.921875 20.515625 
Q 46.921875 27.09375 42.890625 30.859375 
Q 38.875 34.625 31.78125 34.625 
z
M 21.921875 38.8125 
Q 15.578125 40.375 12.03125 44.71875 
Q 8.5 49.078125 8.5 55.328125 
Q 8.5 64.0625 14.71875 69.140625 
Q 20.953125 74.21875 31.78125 74.21875 
Q 42.671875 74.21875 48.875 69.140625 
Q 55.078125 64.0625 55.078125 55.328125 
Q 55.078125 49.078125 51.53125 44.71875 
Q 48 40.375 41.703125 38.8125 
Q 48.828125 37.15625 52.796875 32.3125 
Q 56.78125 27.484375 56.78125 20.515625 
Q 56.78125 9.90625 50.3125 4.234375 
Q 43.84375 -1.421875 31.78125 -1.421875 
Q 19.734375 -1.421875 13.25 4.234375 
Q 6.78125 9.90625 6.78125 20.515625 
Q 6.78125 27.484375 10.78125 32.3125 
Q 14.796875 37.15625 21.921875 38.8125 
z
M 18.3125 54.390625 
Q 18.3125 48.734375 21.84375 45.5625 
Q 25.390625 42.390625 31.78125 42.390625 
Q 38.140625 42.390625 41.71875 45.5625 
Q 45.3125 48.734375 45.3125 54.390625 
Q 45.3125 60.0625 41.71875 63.234375 
Q 38.140625 66.40625 31.78125 66.40625 
Q 25.390625 66.40625 21.84375 63.234375 
Q 18.3125 60.0625 18.3125 54.390625 
z
" id="DejaVuSans-56"/>
      </defs>
      <g transform="translate(534.335877 366.30265)scale(0.08 -0.08)">
       <use xlink:href="#DejaVuSans-56"/>
       <use x="63.623047" xlink:href="#DejaVuSans-48"/>
      </g>
     </g>
    </g>
    <g id="xtick_6">
     <g id="text_6">
      <!-- 100 -->
      <defs>
       <path d="M 12.40625 8.296875 
L 28.515625 8.296875 
L 28.515625 63.921875 
L 10.984375 60.40625 
L 10.984375 69.390625 
L 28.421875 72.90625 
L 38.28125 72.90625 
L 38.28125 8.296875 
L 54.390625 8.296875 
L 54.390625 0 
L 12.40625 0 
z
" id="DejaVuSans-49"/>
      </defs>
      <g transform="translate(648.958662 366.30265)scale(0.08 -0.08)">
       <use xlink:href="#DejaVuSans-49"/>
       <use x="63.623047" xlink:href="#DejaVuSans-48"/>
       <use x="127.246094" xlink:href="#DejaVuSans-48"/>
      </g>
     </g>
    </g>
    <g id="xtick_7">
     <g id="text_7">
      <!-- 120 -->
      <g transform="translate(766.126447 366.30265)scale(0.08 -0.08)">
       <use xlink:href="#DejaVuSans-49"/>
       <use x="63.623047" xlink:href="#DejaVuSans-50"/>
       <use x="127.246094" xlink:href="#DejaVuSans-48"/>
      </g>
     </g>
    </g>
    <g id="xtick_8">
     <g id="text_8">
      <!-- 140 -->
      <g transform="translate(883.294232 366.30265)scale(0.08 -0.08)">
       <use xlink:href="#DejaVuSans-49"/>
       <use x="63.623047" xlink:href="#DejaVuSans-52"/>
       <use x="127.246094" xlink:href="#DejaVuSans-48"/>
      </g>
     </g>
    </g>
    <g id="text_9">
     <!-- Read Position -->
     <defs>
      <path d="M 44.390625 34.1875 
Q 47.5625 33.109375 50.5625 29.59375 
Q 53.5625 26.078125 56.59375 19.921875 
L 66.609375 0 
L 56 0 
L 46.6875 18.703125 
Q 43.0625 26.03125 39.671875 28.421875 
Q 36.28125 30.8125 30.421875 30.8125 
L 19.671875 30.8125 
L 19.671875 0 
L 9.8125 0 
L 9.8125 72.90625 
L 32.078125 72.90625 
Q 44.578125 72.90625 50.734375 67.671875 
Q 56.890625 62.453125 56.890625 51.90625 
Q 56.890625 45.015625 53.6875 40.46875 
Q 50.484375 35.9375 44.390625 34.1875 
z
M 19.671875 64.796875 
L 19.671875 38.921875 
L 32.078125 38.921875 
Q 39.203125 38.921875 42.84375 42.21875 
Q 46.484375 45.515625 46.484375 51.90625 
Q 46.484375 58.296875 42.84375 61.546875 
Q 39.203125 64.796875 32.078125 64.796875 
z
" id="DejaVuSans-82"/>
      <path d="M 56.203125 29.59375 
L 56.203125 25.203125 
L 14.890625 25.203125 
Q 15.484375 15.921875 20.484375 11.0625 
Q 25.484375 6.203125 34.421875 6.203125 
Q 39.59375 6.203125 44.453125 7.46875 
Q 49.3125 8.734375 54.109375 11.28125 
L 54.109375 2.78125 
Q 49.265625 0.734375 44.1875 -0.34375 
Q 39.109375 -1.421875 33.890625 -1.421875 
Q 20.796875 -1.421875 13.15625 6.1875 
Q 5.515625 13.8125 5.515625 26.8125 
Q 5.515625 40.234375 12.765625 48.109375 
Q 20.015625 56 32.328125 56 
Q 43.359375 56 49.78125 48.890625 
Q 56.203125 41.796875 56.203125 29.59375 
z
M 47.21875 32.234375 
Q 47.125 39.59375 43.09375 43.984375 
Q 39.0625 48.390625 32.421875 48.390625 
Q 24.90625 48.390625 20.390625 44.140625 
Q 15.875 39.890625 15.1875 32.171875 
z
" id="DejaVuSans-101"/>
      <path d="M 34.28125 27.484375 
Q 23.390625 27.484375 19.1875 25 
Q 14.984375 22.515625 14.984375 16.5 
Q 14.984375 11.71875 18.140625 8.90625 
Q 21.296875 6.109375 26.703125 6.109375 
Q 34.1875 6.109375 38.703125 11.40625 
Q 43.21875 16.703125 43.21875 25.484375 
L 43.21875 27.484375 
z
M 52.203125 31.203125 
L 52.203125 0 
L 43.21875 0 
L 43.21875 8.296875 
Q 40.140625 3.328125 35.546875 0.953125 
Q 30.953125 -1.421875 24.3125 -1.421875 
Q 15.921875 -1.421875 10.953125 3.296875 
Q 6 8.015625 6 15.921875 
Q 6 25.140625 12.171875 29.828125 
Q 18.359375 34.515625 30.609375 34.515625 
L 43.21875 34.515625 
L 43.21875 35.40625 
Q 43.21875 41.609375 39.140625 45 
Q 35.0625 48.390625 27.6875 48.390625 
Q 23 48.390625 18.546875 47.265625 
Q 14.109375 46.140625 10.015625 43.890625 
L 10.015625 52.203125 
Q 14.9375 54.109375 19.578125 55.046875 
Q 24.21875 56 28.609375 56 
Q 40.484375 56 46.34375 49.84375 
Q 52.203125 43.703125 52.203125 31.203125 
z
" id="DejaVuSans-97"/>
      <path d="M 45.40625 46.390625 
L 45.40625 75.984375 
L 54.390625 75.984375 
L 54.390625 0 
L 45.40625 0 
L 45.40625 8.203125 
Q 42.578125 3.328125 38.25 0.953125 
Q 33.9375 -1.421875 27.875 -1.421875 
Q 17.96875 -1.421875 11.734375 6.484375 
Q 5.515625 14.40625 5.515625 27.296875 
Q 5.515625 40.1875 11.734375 48.09375 
Q 17.96875 56 27.875 56 
Q 33.9375 56 38.25 53.625 
Q 42.578125 51.265625 45.40625 46.390625 
z
M 14.796875 27.296875 
Q 14.796875 17.390625 18.875 11.75 
Q 22.953125 6.109375 30.078125 6.109375 
Q 37.203125 6.109375 41.296875 11.75 
Q 45.40625 17.390625 45.40625 27.296875 
Q 45.40625 37.203125 41.296875 42.84375 
Q 37.203125 48.484375 30.078125 48.484375 
Q 22.953125 48.484375 18.875 42.84375 
Q 14.796875 37.203125 14.796875 27.296875 
z
" id="DejaVuSans-100"/>
      <path id="DejaVuSans-32"/>
      <path d="M 19.671875 64.796875 
L 19.671875 37.40625 
L 32.078125 37.40625 
Q 38.96875 37.40625 42.71875 40.96875 
Q 46.484375 44.53125 46.484375 51.125 
Q 46.484375 57.671875 42.71875 61.234375 
Q 38.96875 64.796875 32.078125 64.796875 
z
M 9.8125 72.90625 
L 32.078125 72.90625 
Q 44.34375 72.90625 50.609375 67.359375 
Q 56.890625 61.8125 56.890625 51.125 
Q 56.890625 40.328125 50.609375 34.8125 
Q 44.34375 29.296875 32.078125 29.296875 
L 19.671875 29.296875 
L 19.671875 0 
L 9.8125 0 
z
" id="DejaVuSans-80"/>
      <path d="M 30.609375 48.390625 
Q 23.390625 48.390625 19.1875 42.75 
Q 14.984375 37.109375 14.984375 27.296875 
Q 14.984375 17.484375 19.15625 11.84375 
Q 23.34375 6.203125 30.609375 6.203125 
Q 37.796875 6.203125 41.984375 11.859375 
Q 46.1875 17.53125 46.1875 27.296875 
Q 46.1875 37.015625 41.984375 42.703125 
Q 37.796875 48.390625 30.609375 48.390625 
z
M 30.609375 56 
Q 42.328125 56 49.015625 48.375 
Q 55.71875 40.765625 55.71875 27.296875 
Q 55.71875 13.875 49.015625 6.21875 
Q 42.328125 -1.421875 30.609375 -1.421875 
Q 18.84375 -1.421875 12.171875 6.21875 
Q 5.515625 13.875 5.515625 27.296875 
Q 5.515625 40.765625 12.171875 48.375 
Q 18.84375 56 30.609375 56 
z
" id="DejaVuSans-111"/>
      <path d="M 44.28125 53.078125 
L 44.28125 44.578125 
Q 40.484375 46.53125 36.375 47.5 
Q 32.28125 48.484375 27.875 48.484375 
Q 21.1875 48.484375 17.84375 46.4375 
Q 14.5 44.390625 14.5 40.28125 
Q 14.5 37.15625 16.890625 35.375 
Q 19.28125 33.59375 26.515625 31.984375 
L 29.59375 31.296875 
Q 39.15625 29.25 43.1875 25.515625 
Q 47.21875 21.78125 47.21875 15.09375 
Q 47.21875 7.46875 41.1875 3.015625 
Q 35.15625 -1.421875 24.609375 -1.421875 
Q 20.21875 -1.421875 15.453125 -0.5625 
Q 10.6875 0.296875 5.421875 2 
L 5.421875 11.28125 
Q 10.40625 8.6875 15.234375 7.390625 
Q 20.0625 6.109375 24.8125 6.109375 
Q 31.15625 6.109375 34.5625 8.28125 
Q 37.984375 10.453125 37.984375 14.40625 
Q 37.984375 18.0625 35.515625 20.015625 
Q 33.0625 21.96875 24.703125 23.78125 
L 21.578125 24.515625 
Q 13.234375 26.265625 9.515625 29.90625 
Q 5.8125 33.546875 5.8125 39.890625 
Q 5.8125 47.609375 11.28125 51.796875 
Q 16.75 56 26.8125 56 
Q 31.78125 56 36.171875 55.265625 
Q 40.578125 54.546875 44.28125 53.078125 
z
" id="DejaVuSans-115"/>
      <path d="M 9.421875 54.6875 
L 18.40625 54.6875 
L 18.40625 0 
L 9.421875 0 
z
M 9.421875 75.984375 
L 18.40625 75.984375 
L 18.40625 64.59375 
L 9.421875 64.59375 
z
" id="DejaVuSans-105"/>
      <path d="M 18.3125 70.21875 
L 18.3125 54.6875 
L 36.8125 54.6875 
L 36.8125 47.703125 
L 18.3125 47.703125 
L 18.3125 18.015625 
Q 18.3125 11.328125 20.140625 9.421875 
Q 21.96875 7.515625 27.59375 7.515625 
L 36.8125 7.515625 
L 36.8125 0 
L 27.59375 0 
Q 17.1875 0 13.234375 3.875 
Q 9.28125 7.765625 9.28125 18.015625 
L 9.28125 47.703125 
L 2.6875 47.703125 
L 2.6875 54.6875 
L 9.28125 54.6875 
L 9.28125 70.21875 
z
" id="DejaVuSans-116"/>
      <path d="M 54.890625 33.015625 
L 54.890625 0 
L 45.90625 0 
L 45.90625 32.71875 
Q 45.90625 40.484375 42.875 44.328125 
Q 39.84375 48.1875 33.796875 48.1875 
Q 26.515625 48.1875 22.3125 43.546875 
Q 18.109375 38.921875 18.109375 30.90625 
L 18.109375 0 
L 9.078125 0 
L 9.078125 54.6875 
L 18.109375 54.6875 
L 18.109375 46.1875 
Q 21.34375 51.125 25.703125 53.5625 
Q 30.078125 56 35.796875 56 
Q 45.21875 56 50.046875 50.171875 
Q 54.890625 44.34375 54.890625 33.015625 
z
" id="DejaVuSans-110"/>
     </defs>
     <g transform="translate(479.045156 379.564837)scale(0.1 -0.1)">
      <use xlink:href="#DejaVuSans-82"/>
      <use x="69.419922" xlink:href="#DejaVuSans-101"/>
      <use x="130.943359" xlink:href="#DejaVuSans-97"/>
      <use x="192.222656" xlink:href="#DejaVuSans-100"/>
      <use x="255.699219" xlink:href="#DejaVuSans-32"/>
      <use x="287.486328" xlink:href="#DejaVuSans-80"/>
      <use x="347.742188" xlink:href="#DejaVuSans-111"/>
      <use x="408.923828" xlink:href="#DejaVuSans-115"/>
      <use x="461.023438" xlink:href="#DejaVuSans-105"/>
      <use x="488.806641" xlink:href="#DejaVuSans-116"/>
      <use x="528.015625" xlink:href="#DejaVuSans-105"/>
      <use x="555.798828" xlink:href="#DejaVuSans-111"/>
      <use x="616.980469" xlink:href="#DejaVuSans-110"/>
     </g>
    </g>
   </g>
   <g id="matplotlib.axis_2">
    <g id="ytick_1">
     <g id="line2d_1">
      <path clip-path="url(#p107aa7f1e4)" d="M 32.968125 353.2239 
L 993.158125 353.2239 
" style="fill:none;stroke:#dedede;stroke-linecap:square;"/>
     </g>
     <g id="text_10">
      <!-- 0 -->
      <g transform="translate(20.878125 356.263275)scale(0.08 -0.08)">
       <use xlink:href="#DejaVuSans-48"/>
      </g>
     </g>
    </g>
    <g id="ytick_2">
     <g id="line2d_2">
      <path clip-path="url(#p107aa7f1e4)" d="M 32.968125 289.6303 
L 993.158125 289.6303 
" style="fill:none;stroke:#dedede;stroke-linecap:square;"/>
     </g>
     <g id="text_11">
      <!-- 1 -->
      <g transform="translate(20.878125 292.669675)scale(0.08 -0.08)">
       <use xlink:href="#DejaVuSans-49"/>
      </g>
     </g>
    </g>
    <g id="ytick_3">
     <g id="line2d_3">
      <path clip-path="url(#p107aa7f1e4)" d="M 32.968125 226.0367 
L 993.158125 226.0367 
" style="fill:none;stroke:#dedede;stroke-linecap:square;"/>
     </g>
     <g id="text_12">
      <!-- 2 -->
      <g transform="translate(20.878125 229.076075)scale(0.08 -0.08)">
       <use xlink:href="#DejaVuSans-50"/>
      </g>
     </g>
    </g>
    <g id="ytick_4">
     <g id="line2d_4">
      <path clip-path="url(#p107aa7f1e4)" d="M 32.968125 162.4431 
L 993.158125 162.4431 
" style="fill:none;stroke:#dedede;stroke-linecap:square;"/>
     </g>
     <g id="text_13">
      <!-- 3 -->
      <defs>
       <path d="M 40.578125 39.3125 
Q 47.65625 37.796875 51.625 33 
Q 55.609375 28.21875 55.609375 21.1875 
Q 55.609375 10.40625 48.1875 4.484375 
Q 40.765625 -1.421875 27.09375 -1.421875 
Q 22.515625 -1.421875 17.65625 -0.515625 
Q 12.796875 0.390625 7.625 2.203125 
L 7.625 11.71875 
Q 11.71875 9.328125 16.59375 8.109375 
Q 21.484375 6.890625 26.8125 6.890625 
Q 36.078125 6.890625 40.9375 10.546875 
Q 45.796875 14.203125 45.796875 21.1875 
Q 45.796875 27.640625 41.28125 31.265625 
Q 36.765625 34.90625 28.71875 34.90625 
L 20.21875 34.90625 
L 20.21875 43.015625 
L 29.109375 43.015625 
Q 36.375 43.015625 40.234375 45.921875 
Q 44.09375 48.828125 44.09375 54.296875 
Q 44.09375 59.90625 40.109375 62.90625 
Q 36.140625 65.921875 28.71875 65.921875 
Q 24.65625 65.921875 20.015625 65.03125 
Q 15.375 64.15625 9.8125 62.3125 
L 9.8125 71.09375 
Q 15.4375 72.65625 20.34375 73.4375 
Q 25.25 74.21875 29.59375 74.21875 
Q 40.828125 74.21875 47.359375 69.109375 
Q 53.90625 64.015625 53.90625 55.328125 
Q 53.90625 49.265625 50.4375 45.09375 
Q 46.96875 40.921875 40.578125 39.3125 
z
" id="DejaVuSans-51"/>
      </defs>
      <g transform="translate(20.878125 165.482475)scale(0.08 -0.08)">
       <use xlink:href="#DejaVuSans-51"/>
      </g>
     </g>
    </g>
    <g id="ytick_5">
     <g id="line2d_5">
      <path clip-path="url(#p107aa7f1e4)" d="M 32.968125 98.8495 
L 993.158125 98.8495 
" style="fill:none;stroke:#dedede;stroke-linecap:square;"/>
     </g>
     <g id="text_14">
      <!-- 4 -->
      <g transform="translate(20.878125 101.888875)scale(0.08 -0.08)">
       <use xlink:href="#DejaVuSans-52"/>
      </g>
     </g>
    </g>
    <g id="ytick_6">
     <g id="line2d_6">
      <path clip-path="url(#p107aa7f1e4)" d="M 32.968125 35.2559 
L 993.158125 35.2559 
" style="fill:none;stroke:#dedede;stroke-linecap:square;"/>
     </g>
     <g id="text_15">
      <!-- 5 -->
      <defs>
       <path d="M 10.796875 72.90625 
L 49.515625 72.90625 
L 49.515625 64.59375 
L 19.828125 64.59375 
L 19.828125 46.734375 
Q 21.96875 47.46875 24.109375 47.828125 
Q 26.265625 48.1875 28.421875 48.1875 
Q 40.625 48.1875 47.75 41.5 
Q 54.890625 34.8125 54.890625 23.390625 
Q 54.890625 11.625 47.5625 5.09375 
Q 40.234375 -1.421875 26.90625 -1.421875 
Q 22.3125 -1.421875 17.546875 -0.640625 
Q 12.796875 0.140625 7.71875 1.703125 
L 7.71875 11.625 
Q 12.109375 9.234375 16.796875 8.0625 
Q 21.484375 6.890625 26.703125 6.890625 
Q 35.15625 6.890625 40.078125 11.328125 
Q 45.015625 15.765625 45.015625 23.390625 
Q 45.015625 31 40.078125 35.4375 
Q 35.15625 39.890625 26.703125 39.890625 
Q 22.75 39.890625 18.8125 39.015625 
Q 14.890625 38.140625 10.796875 36.28125 
z
" id="DejaVuSans-53"/>
      </defs>
      <g transform="translate(20.878125 38.295275)scale(0.08 -0.08)">
       <use xlink:href="#DejaVuSans-53"/>
      </g>
     </g>
    </g>
    <g id="text_16">
     <!-- R1 After filtering: Base Content Percent -->
     <defs>
      <path d="M 34.1875 63.1875 
L 20.796875 26.90625 
L 47.609375 26.90625 
z
M 28.609375 72.90625 
L 39.796875 72.90625 
L 67.578125 0 
L 57.328125 0 
L 50.6875 18.703125 
L 17.828125 18.703125 
L 11.1875 0 
L 0.78125 0 
z
" id="DejaVuSans-65"/>
      <path d="M 37.109375 75.984375 
L 37.109375 68.5 
L 28.515625 68.5 
Q 23.6875 68.5 21.796875 66.546875 
Q 19.921875 64.59375 19.921875 59.515625 
L 19.921875 54.6875 
L 34.71875 54.6875 
L 34.71875 47.703125 
L 19.921875 47.703125 
L 19.921875 0 
L 10.890625 0 
L 10.890625 47.703125 
L 2.296875 47.703125 
L 2.296875 54.6875 
L 10.890625 54.6875 
L 10.890625 58.5 
Q 10.890625 67.625 15.140625 71.796875 
Q 19.390625 75.984375 28.609375 75.984375 
z
" id="DejaVuSans-102"/>
      <path d="M 41.109375 46.296875 
Q 39.59375 47.171875 37.8125 47.578125 
Q 36.03125 48 33.890625 48 
Q 26.265625 48 22.1875 43.046875 
Q 18.109375 38.09375 18.109375 28.8125 
L 18.109375 0 
L 9.078125 0 
L 9.078125 54.6875 
L 18.109375 54.6875 
L 18.109375 46.1875 
Q 20.953125 51.171875 25.484375 53.578125 
Q 30.03125 56 36.53125 56 
Q 37.453125 56 38.578125 55.875 
Q 39.703125 55.765625 41.0625 55.515625 
z
" id="DejaVuSans-114"/>
      <path d="M 9.421875 75.984375 
L 18.40625 75.984375 
L 18.40625 0 
L 9.421875 0 
z
" id="DejaVuSans-108"/>
      <path d="M 45.40625 27.984375 
Q 45.40625 37.75 41.375 43.109375 
Q 37.359375 48.484375 30.078125 48.484375 
Q 22.859375 48.484375 18.828125 43.109375 
Q 14.796875 37.75 14.796875 27.984375 
Q 14.796875 18.265625 18.828125 12.890625 
Q 22.859375 7.515625 30.078125 7.515625 
Q 37.359375 7.515625 41.375 12.890625 
Q 45.40625 18.265625 45.40625 27.984375 
z
M 54.390625 6.78125 
Q 54.390625 -7.171875 48.1875 -13.984375 
Q 42 -20.796875 29.203125 -20.796875 
Q 24.46875 -20.796875 20.265625 -20.09375 
Q 16.0625 -19.390625 12.109375 -17.921875 
L 12.109375 -9.1875 
Q 16.0625 -11.328125 19.921875 -12.34375 
Q 23.78125 -13.375 27.78125 -13.375 
Q 36.625 -13.375 41.015625 -8.765625 
Q 45.40625 -4.15625 45.40625 5.171875 
L 45.40625 9.625 
Q 42.625 4.78125 38.28125 2.390625 
Q 33.9375 0 27.875 0 
Q 17.828125 0 11.671875 7.65625 
Q 5.515625 15.328125 5.515625 27.984375 
Q 5.515625 40.671875 11.671875 48.328125 
Q 17.828125 56 27.875 56 
Q 33.9375 56 38.28125 53.609375 
Q 42.625 51.21875 45.40625 46.390625 
L 45.40625 54.6875 
L 54.390625 54.6875 
z
" id="DejaVuSans-103"/>
      <path d="M 11.71875 12.40625 
L 22.015625 12.40625 
L 22.015625 0 
L 11.71875 0 
z
M 11.71875 51.703125 
L 22.015625 51.703125 
L 22.015625 39.3125 
L 11.71875 39.3125 
z
" id="DejaVuSans-58"/>
      <path d="M 19.671875 34.8125 
L 19.671875 8.109375 
L 35.5 8.109375 
Q 43.453125 8.109375 47.28125 11.40625 
Q 51.125 14.703125 51.125 21.484375 
Q 51.125 28.328125 47.28125 31.5625 
Q 43.453125 34.8125 35.5 34.8125 
z
M 19.671875 64.796875 
L 19.671875 42.828125 
L 34.28125 42.828125 
Q 41.5 42.828125 45.03125 45.53125 
Q 48.578125 48.25 48.578125 53.8125 
Q 48.578125 59.328125 45.03125 62.0625 
Q 41.5 64.796875 34.28125 64.796875 
z
M 9.8125 72.90625 
L 35.015625 72.90625 
Q 46.296875 72.90625 52.390625 68.21875 
Q 58.5 63.53125 58.5 54.890625 
Q 58.5 48.1875 55.375 44.234375 
Q 52.25 40.28125 46.1875 39.3125 
Q 53.46875 37.75 57.5 32.78125 
Q 61.53125 27.828125 61.53125 20.40625 
Q 61.53125 10.640625 54.890625 5.3125 
Q 48.25 0 35.984375 0 
L 9.8125 0 
z
" id="DejaVuSans-66"/>
      <path d="M 64.40625 67.28125 
L 64.40625 56.890625 
Q 59.421875 61.53125 53.78125 63.8125 
Q 48.140625 66.109375 41.796875 66.109375 
Q 29.296875 66.109375 22.65625 58.46875 
Q 16.015625 50.828125 16.015625 36.375 
Q 16.015625 21.96875 22.65625 14.328125 
Q 29.296875 6.6875 41.796875 6.6875 
Q 48.140625 6.6875 53.78125 8.984375 
Q 59.421875 11.28125 64.40625 15.921875 
L 64.40625 5.609375 
Q 59.234375 2.09375 53.4375 0.328125 
Q 47.65625 -1.421875 41.21875 -1.421875 
Q 24.65625 -1.421875 15.125 8.703125 
Q 5.609375 18.84375 5.609375 36.375 
Q 5.609375 53.953125 15.125 64.078125 
Q 24.65625 74.21875 41.21875 74.21875 
Q 47.75 74.21875 53.53125 72.484375 
Q 59.328125 70.75 64.40625 67.28125 
z
" id="DejaVuSans-67"/>
      <path d="M 48.78125 52.59375 
L 48.78125 44.1875 
Q 44.96875 46.296875 41.140625 47.34375 
Q 37.3125 48.390625 33.40625 48.390625 
Q 24.65625 48.390625 19.8125 42.84375 
Q 14.984375 37.3125 14.984375 27.296875 
Q 14.984375 17.28125 19.8125 11.734375 
Q 24.65625 6.203125 33.40625 6.203125 
Q 37.3125 6.203125 41.140625 7.25 
Q 44.96875 8.296875 48.78125 10.40625 
L 48.78125 2.09375 
Q 45.015625 0.34375 40.984375 -0.53125 
Q 36.96875 -1.421875 32.421875 -1.421875 
Q 20.0625 -1.421875 12.78125 6.34375 
Q 5.515625 14.109375 5.515625 27.296875 
Q 5.515625 40.671875 12.859375 48.328125 
Q 20.21875 56 33.015625 56 
Q 37.15625 56 41.109375 55.140625 
Q 45.0625 54.296875 48.78125 52.59375 
z
" id="DejaVuSans-99"/>
     </defs>
     <g transform="translate(14.798438 293.315681)rotate(-90)scale(0.1 -0.1)">
      <use xlink:href="#DejaVuSans-82"/>
      <use x="69.482422" xlink:href="#DejaVuSans-49"/>
      <use x="133.105469" xlink:href="#DejaVuSans-32"/>
      <use x="164.892578" xlink:href="#DejaVuSans-65"/>
      <use x="233.253906" xlink:href="#DejaVuSans-102"/>
      <use x="268.443359" xlink:href="#DejaVuSans-116"/>
      <use x="307.652344" xlink:href="#DejaVuSans-101"/>
      <use x="369.175781" xlink:href="#DejaVuSans-114"/>
      <use x="410.289062" xlink:href="#DejaVuSans-32"/>
      <use x="442.076172" xlink:href="#DejaVuSans-102"/>
      <use x="477.28125" xlink:href="#DejaVuSans-105"/>
      <use x="505.064453" xlink:href="#DejaVuSans-108"/>
      <use x="532.847656" xlink:href="#DejaVuSans-116"/>
      <use x="572.056641" xlink:href="#DejaVuSans-101"/>
      <use x="633.580078" xlink:href="#DejaVuSans-114"/>
      <use x="674.693359" xlink:href="#DejaVuSans-105"/>
      <use x="702.476562" xlink:href="#DejaVuSans-110"/>
      <use x="765.855469" xlink:href="#DejaVuSans-103"/>
      <use x="829.332031" xlink:href="#DejaVuSans-58"/>
      <use x="863.023438" xlink:href="#DejaVuSans-32"/>
      <use x="894.810547" xlink:href="#DejaVuSans-66"/>
      <use x="963.414062" xlink:href="#DejaVuSans-97"/>
      <use x="1024.693359" xlink:href="#DejaVuSans-115"/>
      <use x="1076.792969" xlink:href="#DejaVuSans-101"/>
      <use x="1138.316406" xlink:href="#DejaVuSans-32"/>
      <use x="1170.103516" xlink:href="#DejaVuSans-67"/>
      <use x="1239.927734" xlink:href="#DejaVuSans-111"/>
      <use x="1301.109375" xlink:href="#DejaVuSans-110"/>
      <use x="1364.488281" xlink:href="#DejaVuSans-116"/>
      <use x="1403.697266" xlink:href="#DejaVuSans-101"/>
      <use x="1465.220703" xlink:href="#DejaVuSans-110"/>
      <use x="1528.599609" xlink:href="#DejaVuSans-116"/>
      <use x="1567.808594" xlink:href="#DejaVuSans-32"/>
      <use x="1599.595703" xlink:href="#DejaVuSans-80"/>
      <use x="1659.851562" xlink:href="#DejaVuSans-101"/>
      <use x="1721.375" xlink:href="#DejaVuSans-114"/>
      <use x="1762.457031" xlink:href="#DejaVuSans-99"/>
      <use x="1817.4375" xlink:href="#DejaVuSans-101"/>
      <use x="1878.960938" xlink:href="#DejaVuSans-110"/>
      <use x="1942.339844" xlink:href="#DejaVuSans-116"/>
     </g>
    </g>
   </g>
   <g id="line2d_7">
    <path clip-path="url(#p107aa7f1e4)" d="M 76.613125 279.75167 
L 82.471514 352.208018 
L 88.329904 353.2239 
L 486.700373 353.217663 
L 492.558763 353.089365 
L 504.275541 353.2239 
L 633.160105 353.2239 
L 639.018494 353.101116 
L 644.876883 353.2239 
L 949.513125 353.2239 
L 949.513125 353.2239 
" style="fill:none;stroke:#7cb5ec;stroke-linecap:square;"/>
   </g>
   <g id="line2d_8">
    <path clip-path="url(#p107aa7f1e4)" d="M 76.613125 283.125311 
L 82.471514 352.72557 
L 88.329904 353.2239 
L 299.231917 353.2239 
L 305.090306 353.05732 
L 310.948695 353.2239 
L 457.408427 353.2239 
L 463.266816 353.047192 
L 469.125206 353.2239 
L 486.700373 353.2239 
L 492.558763 353.042011 
L 498.417152 353.2239 
L 562.859434 353.2239 
L 568.717823 353.019063 
L 574.576212 353.2239 
L 633.160105 353.2239 
L 639.018494 352.982887 
L 644.876883 353.2239 
L 949.513125 353.2239 
L 949.513125 353.2239 
" style="fill:none;stroke:#434348;stroke-linecap:square;"/>
   </g>
   <g id="line2d_9">
    <path clip-path="url(#p107aa7f1e4)" d="M 76.613125 280.535143 
L 82.471514 352.187452 
L 88.329904 353.2239 
L 486.700373 353.2239 
L 492.558763 353.064955 
L 504.275541 353.2239 
L 633.160105 353.2239 
L 639.018494 353.088814 
L 644.876883 353.2239 
L 949.513125 353.2239 
L 949.513125 353.2239 
" style="fill:none;stroke:#90ed7d;stroke-linecap:square;"/>
   </g>
   <g id="line2d_10">
    <path clip-path="url(#p107aa7f1e4)" d="M 76.613125 283.838831 
L 82.471514 352.304699 
L 88.329904 353.2239 
L 457.408427 353.2239 
L 463.266816 353.103663 
L 474.983595 353.2239 
L 498.417152 353.102906 
L 504.275541 353.2239 
L 574.576212 353.2239 
L 580.434602 353.069567 
L 586.292991 353.2239 
L 691.743997 353.2239 
L 697.602387 353.094724 
L 703.460776 353.2239 
L 949.513125 353.2239 
L 949.513125 353.2239 
" style="fill:none;stroke:#f7a35c;stroke-linecap:square;"/>
   </g>
   <g id="line2d_11">
    <path clip-path="url(#p107aa7f1e4)" d="M 76.613125 279.92846 
L 82.471514 351.960187 
L 88.329904 353.2239 
L 633.160105 353.2239 
L 639.018494 353.016254 
L 644.876883 353.2239 
L 721.035944 353.2239 
L 726.894333 353.109234 
L 732.752722 353.2239 
L 738.611112 353.107413 
L 744.469501 353.2239 
L 949.513125 353.2239 
L 949.513125 353.2239 
" style="fill:none;stroke:#8085e9;stroke-linecap:square;"/>
   </g>
   <g id="line2d_12">
    <path clip-path="url(#p107aa7f1e4)" d="M 76.613125 289.368294 
L 82.471514 352.106433 
L 88.329904 353.2239 
L 217.214467 353.2239 
L 223.072857 353.064262 
L 228.931246 353.2239 
L 486.700373 353.2239 
L 492.558763 352.900918 
L 498.417152 353.2239 
L 592.15138 353.2239 
L 598.009769 353.059196 
L 603.868159 353.2239 
L 685.885608 353.2239 
L 691.743997 353.055105 
L 697.602387 353.2239 
L 721.035944 353.2239 
L 726.894333 353.053298 
L 732.752722 353.2239 
L 949.513125 353.2239 
L 949.513125 353.2239 
" style="fill:none;stroke:#f15c80;stroke-linecap:square;"/>
   </g>
   <g id="line2d_13">
    <path clip-path="url(#p107aa7f1e4)" d="M 76.613125 282.73421 
L 82.471514 352.380929 
L 88.329904 353.2239 
L 439.833259 353.194593 
L 445.691648 353.106564 
L 451.550038 353.2239 
L 457.408427 353.2239 
L 463.266816 353.106226 
L 474.983595 353.2239 
L 480.841984 353.164844 
L 486.700373 353.2239 
L 492.558763 353.046188 
L 498.417152 353.194236 
L 510.13393 353.2239 
L 515.99232 353.134433 
L 521.850709 353.2239 
L 539.425877 353.2239 
L 633.160105 353.2239 
L 639.018494 353.002459 
L 644.876883 353.2239 
L 949.513125 353.2239 
L 949.513125 353.2239 
" style="fill:none;stroke:#e4d354;stroke-linecap:square;"/>
   </g>
   <g id="line2d_14">
    <path clip-path="url(#p107aa7f1e4)" d="M 76.613125 280.860743 
L 82.471514 352.316241 
L 88.329904 353.2239 
L 182.064132 353.2239 
L 187.922521 353.110443 
L 193.78091 353.2239 
L 486.700373 353.2239 
L 492.558763 352.967113 
L 498.417152 353.2239 
L 633.160105 353.2239 
L 639.018494 353.099765 
L 644.876883 353.2239 
L 949.513125 353.2239 
L 949.513125 353.2239 
" style="fill:none;stroke:#2b908f;stroke-linecap:square;"/>
   </g>
   <g id="line2d_15">
    <path clip-path="url(#p107aa7f1e4)" d="M 76.613125 283.031192 
L 82.471514 352.30938 
L 88.329904 353.2239 
L 633.160105 353.2239 
L 639.018494 353.017069 
L 644.876883 353.2239 
L 949.513125 353.2239 
L 949.513125 353.2239 
" style="fill:none;stroke:#f45b5b;stroke-linecap:square;"/>
   </g>
   <g id="line2d_16">
    <path clip-path="url(#p107aa7f1e4)" d="M 76.613125 282.304317 
L 82.471514 352.448243 
L 88.329904 353.2239 
L 633.160105 353.2239 
L 639.018494 353.014054 
L 644.876883 353.2239 
L 949.513125 353.2239 
L 949.513125 353.2239 
" style="fill:none;stroke:#91e8e1;stroke-linecap:square;"/>
   </g>
   <g id="line2d_17">
    <path clip-path="url(#p107aa7f1e4)" d="M 76.613125 280.191102 
L 82.471514 352.109257 
L 88.329904 353.22046 
L 182.064132 353.2239 
L 193.78091 353.196378 
L 217.214467 353.2239 
L 223.072857 353.124132 
L 234.789635 353.213579 
L 299.231917 353.2239 
L 310.948695 353.203038 
L 346.099031 353.220359 
L 445.691648 353.133506 
L 457.408427 353.2239 
L 463.266816 353.078546 
L 474.983595 353.2239 
L 498.417152 353.137872 
L 510.13393 353.2239 
L 521.850709 353.2239 
L 662.452051 353.2239 
L 949.513125 353.2239 
L 949.513125 353.2239 
" style="fill:none;stroke:#7cb5ec;stroke-linecap:square;"/>
   </g>
   <g id="line2d_18">
    <path clip-path="url(#p107aa7f1e4)" d="M 76.613125 298.449588 
L 82.471514 353.205284 
L 117.62185 353.2239 
L 217.214467 353.2239 
L 223.072857 353.087383 
L 228.931246 353.2239 
L 439.833259 353.153709 
L 445.691648 353.011718 
L 451.550038 353.2239 
L 457.408427 353.2239 
L 463.266816 352.955759 
L 469.125206 353.2239 
L 492.558763 353.2239 
L 498.417152 353.032254 
L 504.275541 353.2239 
L 562.859434 353.2239 
L 568.717823 352.986124 
L 574.576212 353.2239 
L 580.434602 353.052058 
L 586.292991 353.2239 
L 592.15138 353.2239 
L 598.009769 353.044813 
L 603.868159 353.2239 
L 949.513125 353.2239 
L 949.513125 353.2239 
" style="fill:none;stroke:#434348;stroke-linecap:square;"/>
   </g>
   <g id="line2d_19">
    <path clip-path="url(#p107aa7f1e4)" d="M 76.613125 299.785944 
L 82.471514 353.197872 
L 111.763461 353.2239 
L 439.833259 353.194691 
L 445.691648 353.079977 
L 451.550038 353.2239 
L 457.408427 353.2239 
L 463.266816 352.972158 
L 469.125206 353.2239 
L 492.558763 353.21331 
L 498.417152 353.073955 
L 504.275541 353.2239 
L 562.859434 353.2239 
L 568.717823 352.985584 
L 574.576212 353.2239 
L 580.434602 353.098915 
L 586.292991 353.2239 
L 949.513125 353.2239 
L 949.513125 353.2239 
" style="fill:none;stroke:#90ed7d;stroke-linecap:square;"/>
   </g>
   <g id="line2d_20">
    <path clip-path="url(#p107aa7f1e4)" d="M 76.613125 278.353883 
L 82.471514 352.116214 
L 88.329904 353.2239 
L 217.214467 353.2239 
L 223.072857 353.110803 
L 228.931246 353.2239 
L 264.081581 353.2239 
L 469.125206 353.15312 
L 480.841984 353.186092 
L 486.700373 353.20866 
L 492.558763 353.062536 
L 504.275541 353.2239 
L 562.859434 353.215246 
L 568.717823 353.101341 
L 574.576212 353.210614 
L 598.009769 353.177383 
L 615.584937 353.2239 
L 633.160105 353.2239 
L 639.018494 353.10124 
L 644.876883 353.2239 
L 949.513125 353.2239 
L 949.513125 353.2239 
" style="fill:none;stroke:#f7a35c;stroke-linecap:square;"/>
   </g>
   <g id="line2d_21">
    <path clip-path="url(#p107aa7f1e4)" d="M 76.613125 277.824784 
L 82.471514 352.085689 
L 88.329904 353.221664 
L 182.064132 353.2239 
L 187.922521 353.13669 
L 205.497689 353.2239 
L 217.214467 353.2239 
L 223.072857 353.087494 
L 228.931246 353.2239 
L 275.79836 353.194779 
L 299.231917 353.2239 
L 310.948695 353.205793 
L 346.099031 353.205434 
L 439.833259 353.16795 
L 445.691648 353.12132 
L 457.408427 353.2239 
L 463.266816 353.068448 
L 474.983595 353.2239 
L 498.417152 353.159375 
L 510.13393 353.2239 
L 521.850709 353.2239 
L 738.611112 353.2239 
L 949.513125 353.2239 
L 949.513125 353.2239 
" style="fill:none;stroke:#8085e9;stroke-linecap:square;"/>
   </g>
   <g id="line2d_22">
    <path clip-path="url(#p107aa7f1e4)" d="M 76.613125 289.089754 
L 82.471514 351.645335 
L 88.329904 353.220743 
L 217.214467 353.2239 
L 223.072857 353.116558 
L 228.931246 353.2239 
L 275.79836 353.195465 
L 299.231917 353.2239 
L 305.090306 353.13196 
L 322.665474 353.2239 
L 439.833259 353.166615 
L 445.691648 353.081692 
L 457.408427 353.2239 
L 463.266816 353.013917 
L 474.983595 353.2239 
L 498.417152 353.116352 
L 510.13393 353.2239 
L 562.859434 353.212013 
L 568.717823 353.027656 
L 574.576212 353.195549 
L 580.434602 353.125603 
L 592.15138 353.2239 
L 598.009769 353.126333 
L 609.726548 353.2239 
L 721.035944 353.2239 
L 726.894333 353.09538 
L 732.752722 353.2239 
L 738.611112 353.084875 
L 744.469501 353.2239 
L 949.513125 353.2239 
L 949.513125 353.2239 
" style="fill:none;stroke:#f15c80;stroke-linecap:square;"/>
   </g>
   <g id="line2d_23">
    <path clip-path="url(#p107aa7f1e4)" d="M 76.613125 278.61716 
L 82.471514 352.130179 
L 88.329904 353.2239 
L 217.214467 353.2239 
L 223.072857 353.088557 
L 228.931246 353.2239 
L 252.364803 353.180005 
L 269.939971 353.2239 
L 287.515138 353.2239 
L 457.408427 353.2239 
L 463.266816 353.110691 
L 474.983595 353.2239 
L 498.417152 353.177348 
L 510.13393 353.2239 
L 515.99232 353.158682 
L 527.709098 353.215035 
L 562.859434 353.214427 
L 568.717823 353.142404 
L 580.434602 353.184588 
L 592.15138 353.2239 
L 598.009769 353.152385 
L 609.726548 353.2239 
L 633.160105 353.2239 
L 639.018494 353.088453 
L 644.876883 353.2239 
L 949.513125 353.2239 
L 949.513125 353.2239 
" style="fill:none;stroke:#e4d354;stroke-linecap:square;"/>
   </g>
   <g id="line2d_24">
    <path clip-path="url(#p107aa7f1e4)" d="M 76.613125 277.658805 
L 82.471514 352.099832 
L 88.329904 353.2239 
L 217.214467 353.2239 
L 223.072857 353.084142 
L 228.931246 353.2239 
L 287.515138 353.2239 
L 457.408427 353.2239 
L 463.266816 353.098671 
L 480.841984 353.200691 
L 486.700373 353.210544 
L 492.558763 353.084309 
L 504.275541 353.2239 
L 562.859434 353.220129 
L 568.717823 353.086611 
L 574.576212 353.204609 
L 603.868159 353.2239 
L 633.160105 353.2239 
L 639.018494 353.08322 
L 644.876883 353.2239 
L 949.513125 353.2239 
L 949.513125 353.2239 
" style="fill:none;stroke:#2b908f;stroke-linecap:square;"/>
   </g>
   <g id="line2d_25">
    <path clip-path="url(#p107aa7f1e4)" d="M 76.613125 278.02574 
L 82.471514 352.053174 
L 88.329904 353.2239 
L 217.214467 353.2239 
L 223.072857 353.101127 
L 228.931246 353.2239 
L 264.081581 353.2239 
L 457.408427 353.2239 
L 463.266816 353.077998 
L 474.983595 353.2239 
L 498.417152 353.175971 
L 510.13393 353.2239 
L 521.850709 353.2239 
L 639.018494 353.116448 
L 650.735273 353.2239 
L 949.513125 353.2239 
L 949.513125 353.2239 
" style="fill:none;stroke:#f45b5b;stroke-linecap:square;"/>
   </g>
   <g id="line2d_26">
    <path clip-path="url(#p107aa7f1e4)" d="M 76.613125 278.610801 
L 82.471514 351.903589 
L 88.329904 353.2239 
L 217.214467 353.2239 
L 223.072857 353.066868 
L 228.931246 353.2239 
L 275.79836 353.186621 
L 293.373528 353.2239 
L 457.408427 353.2239 
L 463.266816 353.038975 
L 474.983595 353.2239 
L 492.558763 353.066919 
L 504.275541 353.2239 
L 562.859434 353.21931 
L 568.717823 353.039667 
L 574.576212 353.209306 
L 580.434602 353.148746 
L 592.15138 353.2239 
L 598.009769 353.119811 
L 609.726548 353.2239 
L 949.513125 353.2239 
L 949.513125 353.2239 
" style="fill:none;stroke:#91e8e1;stroke-linecap:square;"/>
   </g>
   <g id="line2d_27">
    <path clip-path="url(#p107aa7f1e4)" d="M 76.613125 279.03497 
L 82.471514 352.033854 
L 88.329904 353.22162 
L 182.064132 353.2239 
L 187.922521 353.139548 
L 199.639299 353.2239 
L 217.214467 353.2239 
L 223.072857 353.084833 
L 228.931246 353.2239 
L 310.948695 353.203249 
L 340.240642 353.2239 
L 381.249367 353.216787 
L 445.691648 353.130554 
L 457.408427 353.2239 
L 463.266816 353.076656 
L 474.983595 353.2239 
L 498.417152 353.155561 
L 510.13393 353.2239 
L 515.99232 353.167404 
L 527.709098 353.212332 
L 562.859434 353.211404 
L 568.717823 353.106677 
L 574.576212 353.204623 
L 586.292991 353.2239 
L 633.160105 353.2239 
L 639.018494 353.059919 
L 644.876883 353.2239 
L 949.513125 353.2239 
L 949.513125 353.2239 
" style="fill:none;stroke:#7cb5ec;stroke-linecap:square;"/>
   </g>
   <g id="line2d_28">
    <path clip-path="url(#p107aa7f1e4)" d="M 76.613125 278.223516 
L 82.471514 352.042795 
L 88.329904 353.2239 
L 217.214467 353.2239 
L 223.072857 353.10579 
L 228.931246 353.2239 
L 498.417152 353.175245 
L 510.13393 353.2239 
L 527.709098 353.220908 
L 562.859434 353.214331 
L 568.717823 353.072217 
L 574.576212 353.204302 
L 598.009769 353.165495 
L 609.726548 353.2239 
L 633.160105 353.2239 
L 639.018494 353.064737 
L 644.876883 353.2239 
L 949.513125 353.2239 
L 949.513125 353.2239 
" style="fill:none;stroke:#434348;stroke-linecap:square;"/>
   </g>
   <g id="line2d_29">
    <path clip-path="url(#p107aa7f1e4)" d="M 76.613125 276.906493 
L 82.471514 352.009052 
L 88.329904 353.2239 
L 217.214467 353.2239 
L 223.072857 353.103534 
L 228.931246 353.2239 
L 258.223192 353.2239 
L 457.408427 353.2239 
L 463.266816 353.09519 
L 474.983595 353.2239 
L 498.417152 353.169548 
L 510.13393 353.2239 
L 521.850709 353.2239 
L 615.584937 353.2239 
L 949.513125 353.2239 
L 949.513125 353.2239 
" style="fill:none;stroke:#90ed7d;stroke-linecap:square;"/>
   </g>
   <g id="line2d_30">
    <path clip-path="url(#p107aa7f1e4)" d="M 76.613125 278.227332 
L 82.471514 351.997364 
L 88.329904 353.22093 
L 182.064132 353.2239 
L 187.922521 353.152624 
L 211.356078 353.2239 
L 457.408427 353.2239 
L 463.266816 353.098926 
L 474.983595 353.2239 
L 498.417152 353.15642 
L 510.13393 353.2239 
L 521.850709 353.2239 
L 562.859434 353.207937 
L 568.717823 353.110796 
L 574.576212 353.20345 
L 598.009769 353.155017 
L 609.726548 353.2239 
L 633.160105 353.2239 
L 639.018494 353.043485 
L 644.876883 353.2239 
L 949.513125 353.2239 
L 949.513125 353.2239 
" style="fill:none;stroke:#f7a35c;stroke-linecap:square;"/>
   </g>
   <g id="line2d_31">
    <path clip-path="url(#p107aa7f1e4)" d="M 76.613125 277.983132 
L 82.471514 352.009905 
L 88.329904 353.222232 
L 182.064132 353.2239 
L 187.922521 353.135519 
L 199.639299 353.2239 
L 217.214467 353.2239 
L 223.072857 353.097164 
L 228.931246 353.2239 
L 264.081581 353.2239 
L 469.125206 353.181199 
L 486.700373 353.21791 
L 492.558763 353.096837 
L 510.13393 353.2239 
L 515.99232 353.160705 
L 527.709098 353.219587 
L 562.859434 353.216907 
L 568.717823 353.053714 
L 574.576212 353.202322 
L 586.292991 353.2239 
L 633.160105 353.2239 
L 639.018494 353.090212 
L 644.876883 353.2239 
L 949.513125 353.2239 
L 949.513125 353.2239 
" style="fill:none;stroke:#8085e9;stroke-linecap:square;"/>
   </g>
   <g id="line2d_32">
    <path clip-path="url(#p107aa7f1e4)" d="M 76.613125 276.85371 
L 82.471514 352.025924 
L 88.329904 353.2239 
L 217.214467 353.2239 
L 223.072857 353.095065 
L 228.931246 353.2239 
L 293.373528 353.2239 
L 439.833259 353.183364 
L 445.691648 353.103558 
L 457.408427 353.2239 
L 463.266816 353.058827 
L 474.983595 353.2239 
L 498.417152 353.149321 
L 510.13393 353.2239 
L 515.99232 353.161248 
L 527.709098 353.218965 
L 562.859434 353.21589 
L 568.717823 353.06412 
L 574.576212 353.196418 
L 598.009769 353.147948 
L 609.726548 353.2239 
L 633.160105 353.2239 
L 639.018494 353.066471 
L 644.876883 353.2239 
L 949.513125 353.2239 
L 949.513125 353.2239 
" style="fill:none;stroke:#f15c80;stroke-linecap:square;"/>
   </g>
   <g id="line2d_33">
    <path clip-path="url(#p107aa7f1e4)" d="M 76.613125 277.586308 
L 82.471514 352.001383 
L 88.329904 353.2239 
L 486.700373 353.2239 
L 492.558763 353.092838 
L 504.275541 353.2239 
L 633.160105 353.2239 
L 639.018494 353.101571 
L 644.876883 353.2239 
L 949.513125 353.2239 
L 949.513125 353.2239 
" style="fill:none;stroke:#e4d354;stroke-linecap:square;"/>
   </g>
   <g id="line2d_34">
    <path clip-path="url(#p107aa7f1e4)" d="M 76.613125 279.363749 
L 82.471514 352.264851 
L 88.329904 353.2239 
L 486.700373 353.216717 
L 492.558763 353.101342 
L 504.275541 353.2239 
L 633.160105 353.2239 
L 639.018494 353.10566 
L 644.876883 353.2239 
L 949.513125 353.2239 
L 949.513125 353.2239 
" style="fill:none;stroke:#2b908f;stroke-linecap:square;"/>
   </g>
   <g id="line2d_35">
    <path clip-path="url(#p107aa7f1e4)" d="M 76.613125 279.082666 
L 82.471514 352.145683 
L 88.329904 353.2239 
L 486.700373 353.2239 
L 492.558763 353.086017 
L 504.275541 353.2239 
L 633.160105 353.2239 
L 639.018494 353.066564 
L 644.876883 353.2239 
L 949.513125 353.2239 
L 949.513125 353.2239 
" style="fill:none;stroke:#f45b5b;stroke-linecap:square;"/>
   </g>
   <g id="line2d_36">
    <path clip-path="url(#p107aa7f1e4)" d="M 76.613125 278.414297 
L 82.471514 352.348986 
L 88.329904 353.2239 
L 486.700373 353.2239 
L 492.558763 353.035663 
L 498.417152 353.205035 
L 533.567487 353.2239 
L 633.160105 353.2239 
L 639.018494 353.048844 
L 644.876883 353.2239 
L 949.513125 353.2239 
L 949.513125 353.2239 
" style="fill:none;stroke:#91e8e1;stroke-linecap:square;"/>
   </g>
   <g id="line2d_37">
    <path clip-path="url(#p107aa7f1e4)" d="M 76.613125 281.476965 
L 82.471514 352.246918 
L 88.329904 353.2239 
L 457.408427 353.2239 
L 463.266816 353.102228 
L 474.983595 353.2239 
L 504.275541 353.2239 
L 562.859434 353.219496 
L 568.717823 353.104616 
L 574.576212 353.219468 
L 586.292991 353.2239 
L 633.160105 353.2239 
L 639.018494 353.053938 
L 644.876883 353.2239 
L 949.513125 353.2239 
L 949.513125 353.2239 
" style="fill:none;stroke:#7cb5ec;stroke-linecap:square;"/>
   </g>
   <g id="line2d_38">
    <path clip-path="url(#p107aa7f1e4)" d="M 76.613125 280.465826 
L 82.471514 352.315351 
L 88.329904 353.221424 
L 217.214467 353.2239 
L 223.072857 353.16201 
L 234.789635 353.216473 
L 322.665474 353.2239 
L 633.160105 353.2239 
L 639.018494 353.100782 
L 644.876883 353.2239 
L 949.513125 353.2239 
L 949.513125 353.2239 
" style="fill:none;stroke:#434348;stroke-linecap:square;"/>
   </g>
   <g id="line2d_39">
    <path clip-path="url(#p107aa7f1e4)" d="M 76.613125 280.673141 
L 82.471514 352.2419 
L 88.329904 353.2239 
L 457.408427 353.2239 
L 463.266816 353.109763 
L 474.983595 353.2239 
L 498.417152 353.191484 
L 521.850709 353.2239 
L 738.611112 353.2239 
L 949.513125 353.2239 
L 949.513125 353.2239 
" style="fill:none;stroke:#90ed7d;stroke-linecap:square;"/>
   </g>
   <g id="line2d_40">
    <path clip-path="url(#p107aa7f1e4)" d="M 76.613125 280.899535 
L 82.471514 352.271758 
L 88.329904 353.2239 
L 486.700373 353.221956 
L 492.558763 353.078047 
L 504.275541 353.2239 
L 633.160105 353.2239 
L 639.018494 353.070795 
L 644.876883 353.2239 
L 949.513125 353.2239 
L 949.513125 353.2239 
" style="fill:none;stroke:#f7a35c;stroke-linecap:square;"/>
   </g>
   <g id="line2d_41">
    <path clip-path="url(#p107aa7f1e4)" d="M 76.613125 280.208272 
L 82.471514 352.330079 
L 88.329904 353.2239 
L 486.700373 353.2239 
L 492.558763 353.075542 
L 504.275541 353.2239 
L 633.160105 353.2239 
L 639.018494 353.110719 
L 644.876883 353.2239 
L 949.513125 353.2239 
L 949.513125 353.2239 
" style="fill:none;stroke:#8085e9;stroke-linecap:square;"/>
   </g>
   <g id="line2d_42">
    <path clip-path="url(#p107aa7f1e4)" d="M 76.613125 280.088716 
L 82.471514 352.274829 
L 88.329904 353.2239 
L 486.700373 353.221395 
L 492.558763 353.101031 
L 504.275541 353.2239 
L 633.160105 353.2239 
L 639.018494 353.063395 
L 644.876883 353.2239 
L 949.513125 353.2239 
L 949.513125 353.2239 
" style="fill:none;stroke:#f15c80;stroke-linecap:square;"/>
   </g>
   <g id="line2d_43">
    <path clip-path="url(#p107aa7f1e4)" d="M 76.613125 279.16025 
L 82.471514 352.187235 
L 88.329904 353.2239 
L 217.214467 353.2239 
L 223.072857 353.105571 
L 228.931246 353.2239 
L 486.700373 353.2239 
L 492.558763 353.098589 
L 504.275541 353.2239 
L 633.160105 353.2239 
L 639.018494 353.057008 
L 644.876883 353.2239 
L 949.513125 353.2239 
L 949.513125 353.2239 
" style="fill:none;stroke:#e4d354;stroke-linecap:square;"/>
   </g>
   <g id="line2d_44">
    <path clip-path="url(#p107aa7f1e4)" d="M 76.613125 279.49666 
L 82.471514 352.208749 
L 88.329904 353.2239 
L 486.700373 353.217932 
L 492.558763 353.068512 
L 504.275541 353.2239 
L 633.160105 353.2239 
L 639.018494 353.067438 
L 644.876883 353.2239 
L 949.513125 353.2239 
L 949.513125 353.2239 
" style="fill:none;stroke:#2b908f;stroke-linecap:square;"/>
   </g>
   <g id="line2d_45">
    <path clip-path="url(#p107aa7f1e4)" d="M 76.613125 281.108758 
L 82.471514 352.299395 
L 88.329904 353.2239 
L 486.700373 353.2239 
L 492.558763 353.087897 
L 504.275541 353.2239 
L 633.160105 353.2239 
L 639.018494 353.095239 
L 644.876883 353.2239 
L 949.513125 353.2239 
L 949.513125 353.2239 
" style="fill:none;stroke:#f45b5b;stroke-linecap:square;"/>
   </g>
   <g id="line2d_46">
    <path clip-path="url(#p107aa7f1e4)" d="M 76.613125 280.336731 
L 82.471514 352.328356 
L 88.329904 353.2239 
L 633.160105 353.2239 
L 639.018494 353.052979 
L 644.876883 353.2239 
L 949.513125 353.2239 
L 949.513125 353.2239 
" style="fill:none;stroke:#91e8e1;stroke-linecap:square;"/>
   </g>
   <g id="line2d_47">
    <path clip-path="url(#p107aa7f1e4)" d="M 76.613125 279.994598 
L 82.471514 352.316801 
L 88.329904 353.2239 
L 486.700373 353.2239 
L 492.558763 353.069994 
L 504.275541 353.2239 
L 633.160105 353.2239 
L 639.018494 353.103159 
L 644.876883 353.2239 
L 949.513125 353.2239 
L 949.513125 353.2239 
" style="fill:none;stroke:#7cb5ec;stroke-linecap:square;"/>
   </g>
   <g id="line2d_48">
    <path clip-path="url(#p107aa7f1e4)" d="M 76.613125 280.803508 
L 82.471514 352.232578 
L 88.329904 353.2239 
L 486.700373 353.2239 
L 492.558763 353.089914 
L 504.275541 353.2239 
L 633.160105 353.2239 
L 639.018494 353.101538 
L 644.876883 353.2239 
L 949.513125 353.2239 
L 949.513125 353.2239 
" style="fill:none;stroke:#434348;stroke-linecap:square;"/>
   </g>
   <g id="line2d_49">
    <path clip-path="url(#p107aa7f1e4)" d="M 76.613125 279.427979 
L 82.471514 352.347542 
L 88.329904 353.2239 
L 486.700373 353.2239 
L 492.558763 353.088627 
L 504.275541 353.2239 
L 633.160105 353.2239 
L 639.018494 353.048247 
L 644.876883 353.2239 
L 949.513125 353.2239 
L 949.513125 353.2239 
" style="fill:none;stroke:#90ed7d;stroke-linecap:square;"/>
   </g>
   <g id="line2d_50">
    <path clip-path="url(#p107aa7f1e4)" d="M 76.613125 279.851512 
L 82.471514 352.112933 
L 88.329904 353.2239 
L 486.700373 353.2239 
L 492.558763 353.055629 
L 504.275541 353.2239 
L 633.160105 353.2239 
L 639.018494 353.077839 
L 644.876883 353.2239 
L 949.513125 353.2239 
L 949.513125 353.2239 
" style="fill:none;stroke:#f7a35c;stroke-linecap:square;"/>
   </g>
   <g id="line2d_51">
    <path clip-path="url(#p107aa7f1e4)" d="M 76.613125 279.450237 
L 82.471514 352.247668 
L 88.329904 353.2239 
L 486.700373 353.218969 
L 492.558763 353.078235 
L 504.275541 353.2239 
L 633.160105 353.2239 
L 639.018494 353.079319 
L 644.876883 353.2239 
L 949.513125 353.2239 
L 949.513125 353.2239 
" style="fill:none;stroke:#8085e9;stroke-linecap:square;"/>
   </g>
   <g id="line2d_52">
    <path clip-path="url(#p107aa7f1e4)" d="M 76.613125 279.050233 
L 82.471514 352.194625 
L 88.329904 353.2239 
L 486.700373 353.218246 
L 492.558763 353.088013 
L 504.275541 353.2239 
L 633.160105 353.2239 
L 639.018494 353.049365 
L 644.876883 353.2239 
L 949.513125 353.2239 
L 949.513125 353.2239 
" style="fill:none;stroke:#f15c80;stroke-linecap:square;"/>
   </g>
   <g id="line2d_53">
    <path clip-path="url(#p107aa7f1e4)" d="M 76.613125 279.648649 
L 82.471514 352.209003 
L 88.329904 353.2239 
L 486.700373 353.220948 
L 492.558763 353.096871 
L 504.275541 353.2239 
L 633.160105 353.2239 
L 639.018494 353.062122 
L 644.876883 353.2239 
L 949.513125 353.2239 
L 949.513125 353.2239 
" style="fill:none;stroke:#e4d354;stroke-linecap:square;"/>
   </g>
   <g id="line2d_54">
    <path clip-path="url(#p107aa7f1e4)" d="M 76.613125 280.963128 
L 82.471514 352.306391 
L 88.329904 353.2239 
L 486.700373 353.2239 
L 492.558763 353.100186 
L 504.275541 353.2239 
L 633.160105 353.2239 
L 639.018494 353.089485 
L 644.876883 353.2239 
L 949.513125 353.2239 
L 949.513125 353.2239 
" style="fill:none;stroke:#2b908f;stroke-linecap:square;"/>
   </g>
   <g id="line2d_55">
    <path clip-path="url(#p107aa7f1e4)" d="M 76.613125 280.343727 
L 82.471514 352.293634 
L 88.329904 353.2239 
L 486.700373 353.221406 
L 492.558763 353.086619 
L 504.275541 353.2239 
L 633.160105 353.2239 
L 639.018494 353.06571 
L 644.876883 353.2239 
L 949.513125 353.2239 
L 949.513125 353.2239 
" style="fill:none;stroke:#f45b5b;stroke-linecap:square;"/>
   </g>
   <g id="line2d_56">
    <path clip-path="url(#p107aa7f1e4)" d="M 76.613125 279.697616 
L 82.471514 352.248978 
L 88.329904 353.2239 
L 457.408427 353.2239 
L 463.266816 353.112398 
L 474.983595 353.2239 
L 492.558763 353.084199 
L 504.275541 353.2239 
L 633.160105 353.2239 
L 639.018494 353.106434 
L 644.876883 353.2239 
L 949.513125 353.2239 
L 949.513125 353.2239 
" style="fill:none;stroke:#91e8e1;stroke-linecap:square;"/>
   </g>
   <g id="line2d_57">
    <path clip-path="url(#p107aa7f1e4)" d="M 76.613125 280.540867 
L 82.471514 352.300604 
L 88.329904 353.2239 
L 486.700373 353.221845 
L 492.558763 353.077898 
L 504.275541 353.2239 
L 633.160105 353.2239 
L 639.018494 353.068269 
L 644.876883 353.2239 
L 949.513125 353.2239 
L 949.513125 353.2239 
" style="fill:none;stroke:#7cb5ec;stroke-linecap:square;"/>
   </g>
   <g id="line2d_58">
    <path clip-path="url(#p107aa7f1e4)" d="M 76.613125 280.832125 
L 82.471514 352.227624 
L 88.329904 353.2239 
L 486.700373 353.2239 
L 492.558763 353.08974 
L 504.275541 353.2239 
L 633.160105 353.2239 
L 639.018494 353.075691 
L 644.876883 353.2239 
L 949.513125 353.2239 
L 949.513125 353.2239 
" style="fill:none;stroke:#434348;stroke-linecap:square;"/>
   </g>
   <g id="line2d_59">
    <path clip-path="url(#p107aa7f1e4)" d="M 76.613125 279.248645 
L 82.471514 352.235993 
L 88.329904 353.2239 
L 486.700373 353.215962 
L 492.558763 353.080737 
L 504.275541 353.2239 
L 633.160105 353.2239 
L 639.018494 353.082889 
L 644.876883 353.2239 
L 949.513125 353.2239 
L 949.513125 353.2239 
" style="fill:none;stroke:#90ed7d;stroke-linecap:square;"/>
   </g>
   <g id="line2d_60">
    <path clip-path="url(#p107aa7f1e4)" d="M 76.613125 279.175512 
L 82.471514 352.246638 
L 88.329904 353.2239 
L 486.700373 353.2239 
L 492.558763 353.072887 
L 504.275541 353.2239 
L 633.160105 353.2239 
L 639.018494 353.060401 
L 644.876883 353.2239 
L 949.513125 353.2239 
L 949.513125 353.2239 
" style="fill:none;stroke:#f7a35c;stroke-linecap:square;"/>
   </g>
   <g id="line2d_61">
    <path clip-path="url(#p107aa7f1e4)" d="M 76.613125 280.362805 
L 82.471514 352.290244 
L 88.329904 353.2239 
L 486.700373 353.2239 
L 492.558763 353.093874 
L 504.275541 353.2239 
L 633.160105 353.2239 
L 639.018494 353.098488 
L 644.876883 353.2239 
L 949.513125 353.2239 
L 949.513125 353.2239 
" style="fill:none;stroke:#8085e9;stroke-linecap:square;"/>
   </g>
   <g id="line2d_62">
    <path clip-path="url(#p107aa7f1e4)" d="M 76.613125 281.995252 
L 82.471514 352.217239 
L 88.329904 353.2239 
L 633.160105 353.2239 
L 639.018494 353.11245 
L 644.876883 353.2239 
L 949.513125 353.2239 
L 949.513125 353.2239 
" style="fill:none;stroke:#f15c80;stroke-linecap:square;"/>
   </g>
   <g id="line2d_63">
    <path clip-path="url(#p107aa7f1e4)" d="M 76.613125 279.478854 
L 82.471514 352.335167 
L 88.329904 353.2239 
L 486.700373 353.2239 
L 492.558763 353.112082 
L 510.13393 353.2239 
L 551.142655 353.2239 
L 633.160105 353.2239 
L 639.018494 353.095662 
L 644.876883 353.2239 
L 949.513125 353.2239 
L 949.513125 353.2239 
" style="fill:none;stroke:#e4d354;stroke-linecap:square;"/>
   </g>
   <g id="line2d_64">
    <path clip-path="url(#p107aa7f1e4)" d="M 76.613125 280.138319 
L 82.471514 352.142663 
L 88.329904 353.2239 
L 486.700373 353.2239 
L 492.558763 353.097828 
L 504.275541 353.2239 
L 633.160105 353.2239 
L 639.018494 353.048441 
L 644.876883 353.2239 
L 949.513125 353.2239 
L 949.513125 353.2239 
" style="fill:none;stroke:#2b908f;stroke-linecap:square;"/>
   </g>
   <g id="line2d_65">
    <path clip-path="url(#p107aa7f1e4)" d="M 76.613125 280.067094 
L 82.471514 352.126586 
L 88.329904 353.2239 
L 486.700373 353.2239 
L 492.558763 353.100396 
L 510.13393 353.2239 
L 533.567487 353.2239 
L 633.160105 353.2239 
L 639.018494 353.067231 
L 644.876883 353.2239 
L 949.513125 353.2239 
L 949.513125 353.2239 
" style="fill:none;stroke:#f45b5b;stroke-linecap:square;"/>
   </g>
   <g id="line2d_66">
    <path clip-path="url(#p107aa7f1e4)" d="M 76.613125 279.826711 
L 82.471514 352.252209 
L 88.329904 353.2239 
L 633.160105 353.2239 
L 639.018494 353.079167 
L 644.876883 353.2239 
L 949.513125 353.2239 
L 949.513125 353.2239 
" style="fill:none;stroke:#91e8e1;stroke-linecap:square;"/>
   </g>
   <g id="line2d_67">
    <path clip-path="url(#p107aa7f1e4)" d="M 76.613125 280.076633 
L 82.471514 352.171935 
L 88.329904 353.221383 
L 217.214467 353.2239 
L 223.072857 353.145883 
L 234.789635 353.21635 
L 299.231917 353.2239 
L 316.807085 353.2239 
L 486.700373 353.2239 
L 492.558763 353.080009 
L 504.275541 353.2239 
L 633.160105 353.2239 
L 639.018494 353.046964 
L 644.876883 353.2239 
L 949.513125 353.2239 
L 949.513125 353.2239 
" style="fill:none;stroke:#7cb5ec;stroke-linecap:square;"/>
   </g>
   <g id="line2d_68">
    <path clip-path="url(#p107aa7f1e4)" d="M 76.613125 279.769476 
L 82.471514 352.166148 
L 88.329904 353.2239 
L 457.408427 353.2239 
L 463.266816 353.106583 
L 474.983595 353.2239 
L 504.275541 353.2239 
L 633.160105 353.2239 
L 639.018494 353.09121 
L 644.876883 353.2239 
L 949.513125 353.2239 
L 949.513125 353.2239 
" style="fill:none;stroke:#434348;stroke-linecap:square;"/>
   </g>
   <g id="line2d_69">
    <path clip-path="url(#p107aa7f1e4)" d="M 76.613125 280.458195 
L 82.471514 352.15175 
L 88.329904 353.2239 
L 457.408427 353.2239 
L 463.266816 353.101623 
L 474.983595 353.2239 
L 498.417152 353.201046 
L 527.709098 353.218161 
L 562.859434 353.221012 
L 568.717823 353.102484 
L 574.576212 353.215217 
L 621.443326 353.2239 
L 633.160105 353.2239 
L 639.018494 353.109423 
L 644.876883 353.2239 
L 949.513125 353.2239 
L 949.513125 353.2239 
" style="fill:none;stroke:#90ed7d;stroke-linecap:square;"/>
   </g>
   <g id="line2d_70">
    <path clip-path="url(#p107aa7f1e4)" d="M 76.613125 279.913834 
L 82.471514 352.332292 
L 88.329904 353.2239 
L 486.700373 353.2239 
L 492.558763 353.091728 
L 510.13393 353.2239 
L 545.284266 353.2239 
L 949.513125 353.2239 
L 949.513125 353.2239 
" style="fill:none;stroke:#f7a35c;stroke-linecap:square;"/>
   </g>
   <g id="line2d_71">
    <path clip-path="url(#p107aa7f1e4)" d="M 76.613125 280.924972 
L 82.471514 352.308915 
L 88.329904 353.2239 
L 486.700373 353.2239 
L 492.558763 353.070128 
L 504.275541 353.2239 
L 633.160105 353.2239 
L 639.018494 353.063702 
L 644.876883 353.2239 
L 949.513125 353.2239 
L 949.513125 353.2239 
" style="fill:none;stroke:#8085e9;stroke-linecap:square;"/>
   </g>
   <g id="line2d_72">
    <path clip-path="url(#p107aa7f1e4)" d="M 76.613125 279.404449 
L 82.471514 352.161531 
L 88.329904 353.2239 
L 486.700373 353.218776 
L 492.558763 353.085288 
L 504.275541 353.2239 
L 949.513125 353.2239 
L 949.513125 353.2239 
" style="fill:none;stroke:#f15c80;stroke-linecap:square;"/>
   </g>
   <g id="line2d_73">
    <path clip-path="url(#p107aa7f1e4)" d="M 76.613125 281.404468 
L 82.471514 352.16464 
L 88.329904 353.2239 
L 486.700373 353.2239 
L 492.558763 353.08448 
L 510.13393 353.2239 
L 533.567487 353.2239 
L 633.160105 353.2239 
L 639.018494 353.045287 
L 644.876883 353.2239 
L 949.513125 353.2239 
L 949.513125 353.2239 
" style="fill:none;stroke:#e4d354;stroke-linecap:square;"/>
   </g>
   <g id="line2d_74">
    <path clip-path="url(#p107aa7f1e4)" d="M 76.613125 281.080776 
L 82.471514 352.190281 
L 88.329904 353.2239 
L 439.833259 353.183412 
L 445.691648 353.110279 
L 457.408427 353.2239 
L 463.266816 353.060445 
L 474.983595 353.2239 
L 492.558763 353.083188 
L 504.275541 353.2239 
L 562.859434 353.2239 
L 568.717823 353.069375 
L 574.576212 353.206679 
L 633.160105 353.2239 
L 639.018494 353.108009 
L 644.876883 353.2239 
L 949.513125 353.2239 
L 949.513125 353.2239 
" style="fill:none;stroke:#2b908f;stroke-linecap:square;"/>
   </g>
   <g id="line2d_75">
    <path clip-path="url(#p107aa7f1e4)" d="M 76.613125 279.618124 
L 82.471514 352.275891 
L 88.329904 353.2239 
L 486.700373 353.220894 
L 492.558763 353.094375 
L 504.275541 353.2239 
L 633.160105 353.2239 
L 639.018494 353.101958 
L 644.876883 353.2239 
L 949.513125 353.2239 
L 949.513125 353.2239 
" style="fill:none;stroke:#f45b5b;stroke-linecap:square;"/>
   </g>
   <g id="line2d_76">
    <path clip-path="url(#p107aa7f1e4)" d="M 76.613125 279.990782 
L 82.471514 352.253595 
L 88.329904 353.2239 
L 486.700373 353.2239 
L 492.558763 353.064538 
L 504.275541 353.2239 
L 633.160105 353.2239 
L 639.018494 353.074692 
L 644.876883 353.2239 
L 949.513125 353.2239 
L 949.513125 353.2239 
" style="fill:none;stroke:#91e8e1;stroke-linecap:square;"/>
   </g>
   <g id="line2d_77">
    <path clip-path="url(#p107aa7f1e4)" d="M 76.613125 280.612092 
L 82.471514 352.244794 
L 88.329904 353.2239 
L 457.408427 353.2239 
L 463.266816 353.109586 
L 474.983595 353.2239 
L 515.99232 353.202884 
L 551.142655 353.2239 
L 562.859434 353.215925 
L 568.717823 353.101421 
L 574.576212 353.2239 
L 586.292991 353.2239 
L 633.160105 353.2239 
L 639.018494 353.093424 
L 644.876883 353.2239 
L 949.513125 353.2239 
L 949.513125 353.2239 
" style="fill:none;stroke:#7cb5ec;stroke-linecap:square;"/>
   </g>
   <g id="line2d_78">
    <path clip-path="url(#p107aa7f1e4)" d="M 76.613125 280.816227 
L 82.471514 352.294607 
L 88.329904 353.2239 
L 633.160105 353.2239 
L 639.018494 353.098237 
L 644.876883 353.2239 
L 949.513125 353.2239 
L 949.513125 353.2239 
" style="fill:none;stroke:#434348;stroke-linecap:square;"/>
   </g>
   <g id="line2d_79">
    <path clip-path="url(#p107aa7f1e4)" d="M 76.613125 281.0865 
L 82.471514 352.253455 
L 88.329904 353.2239 
L 486.700373 353.2239 
L 492.558763 353.072236 
L 498.417152 353.205319 
L 533.567487 353.2239 
L 949.513125 353.2239 
L 949.513125 353.2239 
" style="fill:none;stroke:#90ed7d;stroke-linecap:square;"/>
   </g>
   <g id="line2d_80">
    <path clip-path="url(#p107aa7f1e4)" d="M 76.613125 279.162158 
L 82.471514 352.131413 
L 88.329904 353.2239 
L 486.700373 353.2239 
L 492.558763 353.081893 
L 504.275541 353.2239 
L 633.160105 353.2239 
L 639.018494 353.059783 
L 644.876883 353.2239 
L 949.513125 353.2239 
L 949.513125 353.2239 
" style="fill:none;stroke:#f7a35c;stroke-linecap:square;"/>
   </g>
   <g id="line2d_81">
    <path clip-path="url(#p107aa7f1e4)" d="M 76.613125 280.276953 
L 82.471514 352.147572 
L 88.329904 353.2239 
L 486.700373 353.2239 
L 492.558763 353.0666 
L 504.275541 353.2239 
L 633.160105 353.2239 
L 639.018494 353.065032 
L 644.876883 353.2239 
L 949.513125 353.2239 
L 949.513125 353.2239 
" style="fill:none;stroke:#8085e9;stroke-linecap:square;"/>
   </g>
   <g id="line2d_82">
    <path clip-path="url(#p107aa7f1e4)" d="M 76.613125 279.248645 
L 82.471514 352.138383 
L 88.329904 353.2239 
L 457.408427 353.2239 
L 463.266816 353.09962 
L 474.983595 353.2239 
L 498.417152 353.195958 
L 521.850709 353.2239 
L 656.593662 353.2239 
L 949.513125 353.2239 
L 949.513125 353.2239 
" style="fill:none;stroke:#f15c80;stroke-linecap:square;"/>
   </g>
   <g id="line2d_83">
    <path clip-path="url(#p107aa7f1e4)" d="M 76.613125 279.633386 
L 82.471514 352.277863 
L 88.329904 353.2239 
L 486.700373 353.221407 
L 492.558763 353.079096 
L 504.275541 353.2239 
L 633.160105 353.2239 
L 639.018494 353.103178 
L 644.876883 353.2239 
L 949.513125 353.2239 
L 949.513125 353.2239 
" style="fill:none;stroke:#e4d354;stroke-linecap:square;"/>
   </g>
   <g id="line2d_84">
    <path clip-path="url(#p107aa7f1e4)" d="M 76.613125 280.004773 
L 82.471514 352.124265 
L 88.329904 353.2239 
L 633.160105 353.2239 
L 639.018494 353.103159 
L 644.876883 353.2239 
L 949.513125 353.2239 
L 949.513125 353.2239 
" style="fill:none;stroke:#2b908f;stroke-linecap:square;"/>
   </g>
   <g id="line2d_85">
    <path clip-path="url(#p107aa7f1e4)" d="M 76.613125 280.165665 
L 82.471514 352.254377 
L 88.329904 353.2239 
L 486.700373 353.2239 
L 492.558763 353.0789 
L 504.275541 353.2239 
L 633.160105 353.2239 
L 639.018494 353.096713 
L 644.876883 353.2239 
L 949.513125 353.2239 
L 949.513125 353.2239 
" style="fill:none;stroke:#f45b5b;stroke-linecap:square;"/>
   </g>
   <g id="line2d_86">
    <path clip-path="url(#p107aa7f1e4)" d="M 76.613125 279.536088 
L 82.471514 352.224666 
L 88.329904 353.2239 
L 486.700373 353.2239 
L 492.558763 353.075501 
L 504.275541 353.2239 
L 633.160105 353.2239 
L 639.018494 353.079617 
L 644.876883 353.2239 
L 949.513125 353.2239 
L 949.513125 353.2239 
" style="fill:none;stroke:#91e8e1;stroke-linecap:square;"/>
   </g>
   <g id="line2d_87">
    <path clip-path="url(#p107aa7f1e4)" d="M 76.613125 280.407956 
L 82.471514 352.291853 
L 88.329904 353.2239 
L 633.160105 353.2239 
L 639.018494 353.079406 
L 644.876883 353.2239 
L 949.513125 353.2239 
L 949.513125 353.2239 
" style="fill:none;stroke:#7cb5ec;stroke-linecap:square;"/>
   </g>
   <g id="line2d_88">
    <path clip-path="url(#p107aa7f1e4)" d="M 76.613125 279.973612 
L 82.471514 352.287853 
L 88.329904 353.2239 
L 486.700373 353.2239 
L 492.558763 353.0671 
L 504.275541 353.2239 
L 633.160105 353.2239 
L 639.018494 353.100197 
L 644.876883 353.2239 
L 949.513125 353.2239 
L 949.513125 353.2239 
" style="fill:none;stroke:#434348;stroke-linecap:square;"/>
   </g>
   <g id="line2d_89">
    <path clip-path="url(#p107aa7f1e4)" d="M 76.613125 279.186959 
L 82.471514 352.275643 
L 88.329904 353.2239 
L 486.700373 353.220182 
L 492.558763 353.078779 
L 504.275541 353.2239 
L 633.160105 353.2239 
L 639.018494 353.078763 
L 644.876883 353.2239 
L 949.513125 353.2239 
L 949.513125 353.2239 
" style="fill:none;stroke:#90ed7d;stroke-linecap:square;"/>
   </g>
   <g id="line2d_90">
    <path clip-path="url(#p107aa7f1e4)" d="M 76.613125 279.613036 
L 82.471514 352.17252 
L 88.329904 353.2239 
L 486.700373 353.216446 
L 492.558763 353.08196 
L 504.275541 353.2239 
L 633.160105 353.2239 
L 639.018494 353.095322 
L 644.876883 353.2239 
L 949.513125 353.2239 
L 949.513125 353.2239 
" style="fill:none;stroke:#f7a35c;stroke-linecap:square;"/>
   </g>
   <g id="line2d_91">
    <path clip-path="url(#p107aa7f1e4)" d="M 76.613125 279.524641 
L 82.471514 352.28012 
L 88.329904 353.2239 
L 633.160105 353.2239 
L 639.018494 353.105189 
L 644.876883 353.2239 
L 949.513125 353.2239 
L 949.513125 353.2239 
" style="fill:none;stroke:#8085e9;stroke-linecap:square;"/>
   </g>
   <g id="line2d_92">
    <path clip-path="url(#p107aa7f1e4)" d="M 76.613125 278.958658 
L 82.471514 352.065822 
L 88.329904 353.2239 
L 457.408427 353.2239 
L 463.266816 353.081096 
L 474.983595 353.2239 
L 557.001044 353.2239 
L 562.859434 353.2239 
L 568.717823 353.103998 
L 574.576212 353.215876 
L 598.009769 353.174995 
L 615.584937 353.2239 
L 633.160105 353.2239 
L 639.018494 353.106482 
L 644.876883 353.2239 
L 949.513125 353.2239 
L 949.513125 353.2239 
" style="fill:none;stroke:#f15c80;stroke-linecap:square;"/>
   </g>
   <g id="line2d_93">
    <path clip-path="url(#p107aa7f1e4)" d="M 76.613125 280.05056 
L 82.471514 352.745645 
L 88.329904 353.2239 
L 182.064132 353.2239 
L 187.922521 352.745645 
L 193.78091 353.2239 
L 439.833259 353.2239 
L 445.691648 352.73283 
L 451.550038 353.2239 
L 457.408427 353.2239 
L 463.266816 352.730199 
L 469.125206 353.2239 
L 474.983595 353.2239 
L 480.841984 352.727618 
L 486.700373 353.2239 
L 562.859434 353.2239 
L 568.717823 352.712862 
L 574.576212 353.2239 
L 949.513125 353.2239 
L 949.513125 353.2239 
" style="fill:none;stroke:#e4d354;stroke-linecap:square;"/>
   </g>
   <g id="line2d_94">
    <path clip-path="url(#p107aa7f1e4)" d="M 76.613125 280.442297 
L 82.471514 352.172145 
L 88.329904 353.2239 
L 486.700373 353.2239 
L 492.558763 353.097807 
L 510.13393 353.2239 
L 521.850709 353.2239 
L 633.160105 353.2239 
L 639.018494 353.10732 
L 644.876883 353.2239 
L 949.513125 353.2239 
L 949.513125 353.2239 
" style="fill:none;stroke:#2b908f;stroke-linecap:square;"/>
   </g>
   <g id="line2d_95">
    <path clip-path="url(#p107aa7f1e4)" d="M 76.613125 280.838485 
L 82.471514 352.345049 
L 88.329904 353.2239 
L 486.700373 353.2239 
L 492.558763 353.065348 
L 498.417152 353.200271 
L 527.709098 353.220513 
L 633.160105 353.2239 
L 639.018494 353.058468 
L 644.876883 353.2239 
L 949.513125 353.2239 
L 949.513125 353.2239 
" style="fill:none;stroke:#f45b5b;stroke-linecap:square;"/>
   </g>
   <g id="line2d_96">
    <path clip-path="url(#p107aa7f1e4)" d="M 76.613125 281.214959 
L 82.471514 352.186307 
L 88.329904 353.2239 
L 486.700373 353.2239 
L 492.558763 353.09272 
L 504.275541 353.2239 
L 633.160105 353.2239 
L 639.018494 353.049348 
L 644.876883 353.2239 
L 949.513125 353.2239 
L 949.513125 353.2239 
" style="fill:none;stroke:#91e8e1;stroke-linecap:square;"/>
   </g>
   <g id="line2d_97">
    <path clip-path="url(#p107aa7f1e4)" d="M 76.613125 280.240069 
L 82.471514 352.363631 
L 88.329904 353.2239 
L 486.700373 353.220677 
L 492.558763 353.101326 
L 504.275541 353.2239 
L 633.160105 353.2239 
L 639.018494 353.074987 
L 644.876883 353.2239 
L 949.513125 353.2239 
L 949.513125 353.2239 
" style="fill:none;stroke:#7cb5ec;stroke-linecap:square;"/>
   </g>
   <g id="line2d_98">
    <path clip-path="url(#p107aa7f1e4)" d="M 76.613125 279.988874 
L 82.471514 352.094567 
L 88.329904 353.2239 
L 486.700373 353.219793 
L 492.558763 353.088226 
L 504.275541 353.2239 
L 949.513125 353.2239 
L 949.513125 353.2239 
" style="fill:none;stroke:#434348;stroke-linecap:square;"/>
   </g>
   <g id="line2d_99">
    <path clip-path="url(#p107aa7f1e4)" d="M 32.968125 353.2239 
L 993.158125 353.2239 
" style="fill:none;stroke:#dedede;stroke-linecap:square;stroke-width:2;"/>
   </g>
   <g id="text_17">
    <!-- Fastp: Read N Content -->
    <defs>
     <path d="M 9.8125 72.90625 
L 51.703125 72.90625 
L 51.703125 64.59375 
L 19.671875 64.59375 
L 19.671875 43.109375 
L 48.578125 43.109375 
L 48.578125 34.8125 
L 19.671875 34.8125 
L 19.671875 0 
L 9.8125 0 
z
" id="DejaVuSans-70"/>
     <path d="M 18.109375 8.203125 
L 18.109375 -20.796875 
L 9.078125 -20.796875 
L 9.078125 54.6875 
L 18.109375 54.6875 
L 18.109375 46.390625 
Q 20.953125 51.265625 25.265625 53.625 
Q 29.59375 56 35.59375 56 
Q 45.5625 56 51.78125 48.09375 
Q 58.015625 40.1875 58.015625 27.296875 
Q 58.015625 14.40625 51.78125 6.484375 
Q 45.5625 -1.421875 35.59375 -1.421875 
Q 29.59375 -1.421875 25.265625 0.953125 
Q 20.953125 3.328125 18.109375 8.203125 
z
M 48.6875 27.296875 
Q 48.6875 37.203125 44.609375 42.84375 
Q 40.53125 48.484375 33.40625 48.484375 
Q 26.265625 48.484375 22.1875 42.84375 
Q 18.109375 37.203125 18.109375 27.296875 
Q 18.109375 17.390625 22.1875 11.75 
Q 26.265625 6.109375 33.40625 6.109375 
Q 40.53125 6.109375 44.609375 11.75 
Q 48.6875 17.390625 48.6875 27.296875 
z
" id="DejaVuSans-112"/>
     <path d="M 9.8125 72.90625 
L 23.09375 72.90625 
L 55.421875 11.921875 
L 55.421875 72.90625 
L 64.984375 72.90625 
L 64.984375 0 
L 51.703125 0 
L 19.390625 60.984375 
L 19.390625 0 
L 9.8125 0 
z
" id="DejaVuSans-78"/>
    </defs>
    <g transform="translate(422.606875 19.3575)scale(0.16 -0.16)">
     <use xlink:href="#DejaVuSans-70"/>
     <use x="57.378906" xlink:href="#DejaVuSans-97"/>
     <use x="118.658203" xlink:href="#DejaVuSans-115"/>
     <use x="170.757812" xlink:href="#DejaVuSans-116"/>
     <use x="209.966797" xlink:href="#DejaVuSans-112"/>
     <use x="273.443359" xlink:href="#DejaVuSans-58"/>
     <use x="307.134766" xlink:href="#DejaVuSans-32"/>
     <use x="338.921875" xlink:href="#DejaVuSans-82"/>
     <use x="408.341797" xlink:href="#DejaVuSans-101"/>
     <use x="469.865234" xlink:href="#DejaVuSans-97"/>
     <use x="531.144531" xlink:href="#DejaVuSans-100"/>
     <use x="594.621094" xlink:href="#DejaVuSans-32"/>
     <use x="626.408203" xlink:href="#DejaVuSans-78"/>
     <use x="701.212891" xlink:href="#DejaVuSans-32"/>
     <use x="733" xlink:href="#DejaVuSans-67"/>
     <use x="802.824219" xlink:href="#DejaVuSans-111"/>
     <use x="864.005859" xlink:href="#DejaVuSans-110"/>
     <use x="927.384766" xlink:href="#DejaVuSans-116"/>
     <use x="966.59375" xlink:href="#DejaVuSans-101"/>
     <use x="1028.117188" xlink:href="#DejaVuSans-110"/>
     <use x="1091.496094" xlink:href="#DejaVuSans-116"/>
    </g>
   </g>
  </g>
 </g>
 <defs>
  <clipPath id="p107aa7f1e4">
   <rect height="317.968" width="960.19" x="32.968125" y="35.2559"/>
  </clipPath>
 </defs>
</svg>
