<?xml version="1.0" encoding="utf-8" standalone="no"?>
<!DOCTYPE svg PUBLIC "-//W3C//DTD SVG 1.1//EN"
  "http://www.w3.org/Graphics/SVG/1.1/DTD/svg11.dtd">
<!-- Created with matplotlib (https://matplotlib.org/) -->
<svg height="388.844525pt" version="1.1" viewBox="0 0 1000.358125 388.844525" width="1000.358125pt" xmlns="http://www.w3.org/2000/svg" xmlns:xlink="http://www.w3.org/1999/xlink">
 <defs>
  <style type="text/css">
*{stroke-linecap:butt;stroke-linejoin:round;}
  </style>
 </defs>
 <g id="figure_1">
  <g id="axes_1">
   <g id="patch_1">
    <path d="M 32.968125 353.2239 
L 993.158125 353.2239 
L 993.158125 35.2559 
L 32.968125 35.2559 
z
" style="fill:#ffffff;"/>
   </g>
   <g id="matplotlib.axis_1">
    <g id="xtick_1">
     <g id="text_1">
      <!-- 0 -->
      <defs>
       <path d="M 31.78125 66.40625 
Q 24.171875 66.40625 20.328125 58.90625 
Q 16.5 51.421875 16.5 36.375 
Q 16.5 21.390625 20.328125 13.890625 
Q 24.171875 6.390625 31.78125 6.390625 
Q 39.453125 6.390625 43.28125 13.890625 
Q 47.125 21.390625 47.125 36.375 
Q 47.125 51.421875 43.28125 58.90625 
Q 39.453125 66.40625 31.78125 66.40625 
z
M 31.78125 74.21875 
Q 44.046875 74.21875 50.515625 64.515625 
Q 56.984375 54.828125 56.984375 36.375 
Q 56.984375 17.96875 50.515625 8.265625 
Q 44.046875 -1.421875 31.78125 -1.421875 
Q 19.53125 -1.421875 13.0625 8.265625 
Q 6.59375 17.96875 6.59375 36.375 
Q 6.59375 54.828125 13.0625 64.515625 
Q 19.53125 74.21875 31.78125 74.21875 
z
" id="DejaVuSans-48"/>
      </defs>
      <g transform="translate(68.209736 366.30265)scale(0.08 -0.08)">
       <use xlink:href="#DejaVuSans-48"/>
      </g>
     </g>
    </g>
    <g id="xtick_2">
     <g id="text_2">
      <!-- 20 -->
      <defs>
       <path d="M 19.1875 8.296875 
L 53.609375 8.296875 
L 53.609375 0 
L 7.328125 0 
L 7.328125 8.296875 
Q 12.9375 14.109375 22.625 23.890625 
Q 32.328125 33.6875 34.8125 36.53125 
Q 39.546875 41.84375 41.421875 45.53125 
Q 43.3125 49.21875 43.3125 52.78125 
Q 43.3125 58.59375 39.234375 62.25 
Q 35.15625 65.921875 28.609375 65.921875 
Q 23.96875 65.921875 18.8125 64.3125 
Q 13.671875 62.703125 7.8125 59.421875 
L 7.8125 69.390625 
Q 13.765625 71.78125 18.9375 73 
Q 24.125 74.21875 28.421875 74.21875 
Q 39.75 74.21875 46.484375 68.546875 
Q 53.21875 62.890625 53.21875 53.421875 
Q 53.21875 48.921875 51.53125 44.890625 
Q 49.859375 40.875 45.40625 35.40625 
Q 44.1875 33.984375 37.640625 27.21875 
Q 31.109375 20.453125 19.1875 8.296875 
z
" id="DejaVuSans-50"/>
      </defs>
      <g transform="translate(182.832521 366.30265)scale(0.08 -0.08)">
       <use xlink:href="#DejaVuSans-50"/>
       <use x="63.623047" xlink:href="#DejaVuSans-48"/>
      </g>
     </g>
    </g>
    <g id="xtick_3">
     <g id="text_3">
      <!-- 40 -->
      <defs>
       <path d="M 37.796875 64.3125 
L 12.890625 25.390625 
L 37.796875 25.390625 
z
M 35.203125 72.90625 
L 47.609375 72.90625 
L 47.609375 25.390625 
L 58.015625 25.390625 
L 58.015625 17.1875 
L 47.609375 17.1875 
L 47.609375 0 
L 37.796875 0 
L 37.796875 17.1875 
L 4.890625 17.1875 
L 4.890625 26.703125 
z
" id="DejaVuSans-52"/>
      </defs>
      <g transform="translate(300.000306 366.30265)scale(0.08 -0.08)">
       <use xlink:href="#DejaVuSans-52"/>
       <use x="63.623047" xlink:href="#DejaVuSans-48"/>
      </g>
     </g>
    </g>
    <g id="xtick_4">
     <g id="text_4">
      <!-- 60 -->
      <defs>
       <path d="M 33.015625 40.375 
Q 26.375 40.375 22.484375 35.828125 
Q 18.609375 31.296875 18.609375 23.390625 
Q 18.609375 15.53125 22.484375 10.953125 
Q 26.375 6.390625 33.015625 6.390625 
Q 39.65625 6.390625 43.53125 10.953125 
Q 47.40625 15.53125 47.40625 23.390625 
Q 47.40625 31.296875 43.53125 35.828125 
Q 39.65625 40.375 33.015625 40.375 
z
M 52.59375 71.296875 
L 52.59375 62.3125 
Q 48.875 64.0625 45.09375 64.984375 
Q 41.3125 65.921875 37.59375 65.921875 
Q 27.828125 65.921875 22.671875 59.328125 
Q 17.53125 52.734375 16.796875 39.40625 
Q 19.671875 43.65625 24.015625 45.921875 
Q 28.375 48.1875 33.59375 48.1875 
Q 44.578125 48.1875 50.953125 41.515625 
Q 57.328125 34.859375 57.328125 23.390625 
Q 57.328125 12.15625 50.6875 5.359375 
Q 44.046875 -1.421875 33.015625 -1.421875 
Q 20.359375 -1.421875 13.671875 8.265625 
Q 6.984375 17.96875 6.984375 36.375 
Q 6.984375 53.65625 15.1875 63.9375 
Q 23.390625 74.21875 37.203125 74.21875 
Q 40.921875 74.21875 44.703125 73.484375 
Q 48.484375 72.75 52.59375 71.296875 
z
" id="DejaVuSans-54"/>
      </defs>
      <g transform="translate(417.168091 366.30265)scale(0.08 -0.08)">
       <use xlink:href="#DejaVuSans-54"/>
       <use x="63.623047" xlink:href="#DejaVuSans-48"/>
      </g>
     </g>
    </g>
    <g id="xtick_5">
     <g id="text_5">
      <!-- 80 -->
      <defs>
       <path d="M 31.78125 34.625 
Q 24.75 34.625 20.71875 30.859375 
Q 16.703125 27.09375 16.703125 20.515625 
Q 16.703125 13.921875 20.71875 10.15625 
Q 24.75 6.390625 31.78125 6.390625 
Q 38.8125 6.390625 42.859375 10.171875 
Q 46.921875 13.96875 46.921875 20.515625 
Q 46.921875 27.09375 42.890625 30.859375 
Q 38.875 34.625 31.78125 34.625 
z
M 21.921875 38.8125 
Q 15.578125 40.375 12.03125 44.71875 
Q 8.5 49.078125 8.5 55.328125 
Q 8.5 64.0625 14.71875 69.140625 
Q 20.953125 74.21875 31.78125 74.21875 
Q 42.671875 74.21875 48.875 69.140625 
Q 55.078125 64.0625 55.078125 55.328125 
Q 55.078125 49.078125 51.53125 44.71875 
Q 48 40.375 41.703125 38.8125 
Q 48.828125 37.15625 52.796875 32.3125 
Q 56.78125 27.484375 56.78125 20.515625 
Q 56.78125 9.90625 50.3125 4.234375 
Q 43.84375 -1.421875 31.78125 -1.421875 
Q 19.734375 -1.421875 13.25 4.234375 
Q 6.78125 9.90625 6.78125 20.515625 
Q 6.78125 27.484375 10.78125 32.3125 
Q 14.796875 37.15625 21.921875 38.8125 
z
M 18.3125 54.390625 
Q 18.3125 48.734375 21.84375 45.5625 
Q 25.390625 42.390625 31.78125 42.390625 
Q 38.140625 42.390625 41.71875 45.5625 
Q 45.3125 48.734375 45.3125 54.390625 
Q 45.3125 60.0625 41.71875 63.234375 
Q 38.140625 66.40625 31.78125 66.40625 
Q 25.390625 66.40625 21.84375 63.234375 
Q 18.3125 60.0625 18.3125 54.390625 
z
" id="DejaVuSans-56"/>
      </defs>
      <g transform="translate(534.335877 366.30265)scale(0.08 -0.08)">
       <use xlink:href="#DejaVuSans-56"/>
       <use x="63.623047" xlink:href="#DejaVuSans-48"/>
      </g>
     </g>
    </g>
    <g id="xtick_6">
     <g id="text_6">
      <!-- 100 -->
      <defs>
       <path d="M 12.40625 8.296875 
L 28.515625 8.296875 
L 28.515625 63.921875 
L 10.984375 60.40625 
L 10.984375 69.390625 
L 28.421875 72.90625 
L 38.28125 72.90625 
L 38.28125 8.296875 
L 54.390625 8.296875 
L 54.390625 0 
L 12.40625 0 
z
" id="DejaVuSans-49"/>
      </defs>
      <g transform="translate(648.958662 366.30265)scale(0.08 -0.08)">
       <use xlink:href="#DejaVuSans-49"/>
       <use x="63.623047" xlink:href="#DejaVuSans-48"/>
       <use x="127.246094" xlink:href="#DejaVuSans-48"/>
      </g>
     </g>
    </g>
    <g id="xtick_7">
     <g id="text_7">
      <!-- 120 -->
      <g transform="translate(766.126447 366.30265)scale(0.08 -0.08)">
       <use xlink:href="#DejaVuSans-49"/>
       <use x="63.623047" xlink:href="#DejaVuSans-50"/>
       <use x="127.246094" xlink:href="#DejaVuSans-48"/>
      </g>
     </g>
    </g>
    <g id="xtick_8">
     <g id="text_8">
      <!-- 140 -->
      <g transform="translate(883.294232 366.30265)scale(0.08 -0.08)">
       <use xlink:href="#DejaVuSans-49"/>
       <use x="63.623047" xlink:href="#DejaVuSans-52"/>
       <use x="127.246094" xlink:href="#DejaVuSans-48"/>
      </g>
     </g>
    </g>
    <g id="text_9">
     <!-- Read Position -->
     <defs>
      <path d="M 44.390625 34.1875 
Q 47.5625 33.109375 50.5625 29.59375 
Q 53.5625 26.078125 56.59375 19.921875 
L 66.609375 0 
L 56 0 
L 46.6875 18.703125 
Q 43.0625 26.03125 39.671875 28.421875 
Q 36.28125 30.8125 30.421875 30.8125 
L 19.671875 30.8125 
L 19.671875 0 
L 9.8125 0 
L 9.8125 72.90625 
L 32.078125 72.90625 
Q 44.578125 72.90625 50.734375 67.671875 
Q 56.890625 62.453125 56.890625 51.90625 
Q 56.890625 45.015625 53.6875 40.46875 
Q 50.484375 35.9375 44.390625 34.1875 
z
M 19.671875 64.796875 
L 19.671875 38.921875 
L 32.078125 38.921875 
Q 39.203125 38.921875 42.84375 42.21875 
Q 46.484375 45.515625 46.484375 51.90625 
Q 46.484375 58.296875 42.84375 61.546875 
Q 39.203125 64.796875 32.078125 64.796875 
z
" id="DejaVuSans-82"/>
      <path d="M 56.203125 29.59375 
L 56.203125 25.203125 
L 14.890625 25.203125 
Q 15.484375 15.921875 20.484375 11.0625 
Q 25.484375 6.203125 34.421875 6.203125 
Q 39.59375 6.203125 44.453125 7.46875 
Q 49.3125 8.734375 54.109375 11.28125 
L 54.109375 2.78125 
Q 49.265625 0.734375 44.1875 -0.34375 
Q 39.109375 -1.421875 33.890625 -1.421875 
Q 20.796875 -1.421875 13.15625 6.1875 
Q 5.515625 13.8125 5.515625 26.8125 
Q 5.515625 40.234375 12.765625 48.109375 
Q 20.015625 56 32.328125 56 
Q 43.359375 56 49.78125 48.890625 
Q 56.203125 41.796875 56.203125 29.59375 
z
M 47.21875 32.234375 
Q 47.125 39.59375 43.09375 43.984375 
Q 39.0625 48.390625 32.421875 48.390625 
Q 24.90625 48.390625 20.390625 44.140625 
Q 15.875 39.890625 15.1875 32.171875 
z
" id="DejaVuSans-101"/>
      <path d="M 34.28125 27.484375 
Q 23.390625 27.484375 19.1875 25 
Q 14.984375 22.515625 14.984375 16.5 
Q 14.984375 11.71875 18.140625 8.90625 
Q 21.296875 6.109375 26.703125 6.109375 
Q 34.1875 6.109375 38.703125 11.40625 
Q 43.21875 16.703125 43.21875 25.484375 
L 43.21875 27.484375 
z
M 52.203125 31.203125 
L 52.203125 0 
L 43.21875 0 
L 43.21875 8.296875 
Q 40.140625 3.328125 35.546875 0.953125 
Q 30.953125 -1.421875 24.3125 -1.421875 
Q 15.921875 -1.421875 10.953125 3.296875 
Q 6 8.015625 6 15.921875 
Q 6 25.140625 12.171875 29.828125 
Q 18.359375 34.515625 30.609375 34.515625 
L 43.21875 34.515625 
L 43.21875 35.40625 
Q 43.21875 41.609375 39.140625 45 
Q 35.0625 48.390625 27.6875 48.390625 
Q 23 48.390625 18.546875 47.265625 
Q 14.109375 46.140625 10.015625 43.890625 
L 10.015625 52.203125 
Q 14.9375 54.109375 19.578125 55.046875 
Q 24.21875 56 28.609375 56 
Q 40.484375 56 46.34375 49.84375 
Q 52.203125 43.703125 52.203125 31.203125 
z
" id="DejaVuSans-97"/>
      <path d="M 45.40625 46.390625 
L 45.40625 75.984375 
L 54.390625 75.984375 
L 54.390625 0 
L 45.40625 0 
L 45.40625 8.203125 
Q 42.578125 3.328125 38.25 0.953125 
Q 33.9375 -1.421875 27.875 -1.421875 
Q 17.96875 -1.421875 11.734375 6.484375 
Q 5.515625 14.40625 5.515625 27.296875 
Q 5.515625 40.1875 11.734375 48.09375 
Q 17.96875 56 27.875 56 
Q 33.9375 56 38.25 53.625 
Q 42.578125 51.265625 45.40625 46.390625 
z
M 14.796875 27.296875 
Q 14.796875 17.390625 18.875 11.75 
Q 22.953125 6.109375 30.078125 6.109375 
Q 37.203125 6.109375 41.296875 11.75 
Q 45.40625 17.390625 45.40625 27.296875 
Q 45.40625 37.203125 41.296875 42.84375 
Q 37.203125 48.484375 30.078125 48.484375 
Q 22.953125 48.484375 18.875 42.84375 
Q 14.796875 37.203125 14.796875 27.296875 
z
" id="DejaVuSans-100"/>
      <path id="DejaVuSans-32"/>
      <path d="M 19.671875 64.796875 
L 19.671875 37.40625 
L 32.078125 37.40625 
Q 38.96875 37.40625 42.71875 40.96875 
Q 46.484375 44.53125 46.484375 51.125 
Q 46.484375 57.671875 42.71875 61.234375 
Q 38.96875 64.796875 32.078125 64.796875 
z
M 9.8125 72.90625 
L 32.078125 72.90625 
Q 44.34375 72.90625 50.609375 67.359375 
Q 56.890625 61.8125 56.890625 51.125 
Q 56.890625 40.328125 50.609375 34.8125 
Q 44.34375 29.296875 32.078125 29.296875 
L 19.671875 29.296875 
L 19.671875 0 
L 9.8125 0 
z
" id="DejaVuSans-80"/>
      <path d="M 30.609375 48.390625 
Q 23.390625 48.390625 19.1875 42.75 
Q 14.984375 37.109375 14.984375 27.296875 
Q 14.984375 17.484375 19.15625 11.84375 
Q 23.34375 6.203125 30.609375 6.203125 
Q 37.796875 6.203125 41.984375 11.859375 
Q 46.1875 17.53125 46.1875 27.296875 
Q 46.1875 37.015625 41.984375 42.703125 
Q 37.796875 48.390625 30.609375 48.390625 
z
M 30.609375 56 
Q 42.328125 56 49.015625 48.375 
Q 55.71875 40.765625 55.71875 27.296875 
Q 55.71875 13.875 49.015625 6.21875 
Q 42.328125 -1.421875 30.609375 -1.421875 
Q 18.84375 -1.421875 12.171875 6.21875 
Q 5.515625 13.875 5.515625 27.296875 
Q 5.515625 40.765625 12.171875 48.375 
Q 18.84375 56 30.609375 56 
z
" id="DejaVuSans-111"/>
      <path d="M 44.28125 53.078125 
L 44.28125 44.578125 
Q 40.484375 46.53125 36.375 47.5 
Q 32.28125 48.484375 27.875 48.484375 
Q 21.1875 48.484375 17.84375 46.4375 
Q 14.5 44.390625 14.5 40.28125 
Q 14.5 37.15625 16.890625 35.375 
Q 19.28125 33.59375 26.515625 31.984375 
L 29.59375 31.296875 
Q 39.15625 29.25 43.1875 25.515625 
Q 47.21875 21.78125 47.21875 15.09375 
Q 47.21875 7.46875 41.1875 3.015625 
Q 35.15625 -1.421875 24.609375 -1.421875 
Q 20.21875 -1.421875 15.453125 -0.5625 
Q 10.6875 0.296875 5.421875 2 
L 5.421875 11.28125 
Q 10.40625 8.6875 15.234375 7.390625 
Q 20.0625 6.109375 24.8125 6.109375 
Q 31.15625 6.109375 34.5625 8.28125 
Q 37.984375 10.453125 37.984375 14.40625 
Q 37.984375 18.0625 35.515625 20.015625 
Q 33.0625 21.96875 24.703125 23.78125 
L 21.578125 24.515625 
Q 13.234375 26.265625 9.515625 29.90625 
Q 5.8125 33.546875 5.8125 39.890625 
Q 5.8125 47.609375 11.28125 51.796875 
Q 16.75 56 26.8125 56 
Q 31.78125 56 36.171875 55.265625 
Q 40.578125 54.546875 44.28125 53.078125 
z
" id="DejaVuSans-115"/>
      <path d="M 9.421875 54.6875 
L 18.40625 54.6875 
L 18.40625 0 
L 9.421875 0 
z
M 9.421875 75.984375 
L 18.40625 75.984375 
L 18.40625 64.59375 
L 9.421875 64.59375 
z
" id="DejaVuSans-105"/>
      <path d="M 18.3125 70.21875 
L 18.3125 54.6875 
L 36.8125 54.6875 
L 36.8125 47.703125 
L 18.3125 47.703125 
L 18.3125 18.015625 
Q 18.3125 11.328125 20.140625 9.421875 
Q 21.96875 7.515625 27.59375 7.515625 
L 36.8125 7.515625 
L 36.8125 0 
L 27.59375 0 
Q 17.1875 0 13.234375 3.875 
Q 9.28125 7.765625 9.28125 18.015625 
L 9.28125 47.703125 
L 2.6875 47.703125 
L 2.6875 54.6875 
L 9.28125 54.6875 
L 9.28125 70.21875 
z
" id="DejaVuSans-116"/>
      <path d="M 54.890625 33.015625 
L 54.890625 0 
L 45.90625 0 
L 45.90625 32.71875 
Q 45.90625 40.484375 42.875 44.328125 
Q 39.84375 48.1875 33.796875 48.1875 
Q 26.515625 48.1875 22.3125 43.546875 
Q 18.109375 38.921875 18.109375 30.90625 
L 18.109375 0 
L 9.078125 0 
L 9.078125 54.6875 
L 18.109375 54.6875 
L 18.109375 46.1875 
Q 21.34375 51.125 25.703125 53.5625 
Q 30.078125 56 35.796875 56 
Q 45.21875 56 50.046875 50.171875 
Q 54.890625 44.34375 54.890625 33.015625 
z
" id="DejaVuSans-110"/>
     </defs>
     <g transform="translate(479.045156 379.564837)scale(0.1 -0.1)">
      <use xlink:href="#DejaVuSans-82"/>
      <use x="69.419922" xlink:href="#DejaVuSans-101"/>
      <use x="130.943359" xlink:href="#DejaVuSans-97"/>
      <use x="192.222656" xlink:href="#DejaVuSans-100"/>
      <use x="255.699219" xlink:href="#DejaVuSans-32"/>
      <use x="287.486328" xlink:href="#DejaVuSans-80"/>
      <use x="347.742188" xlink:href="#DejaVuSans-111"/>
      <use x="408.923828" xlink:href="#DejaVuSans-115"/>
      <use x="461.023438" xlink:href="#DejaVuSans-105"/>
      <use x="488.806641" xlink:href="#DejaVuSans-116"/>
      <use x="528.015625" xlink:href="#DejaVuSans-105"/>
      <use x="555.798828" xlink:href="#DejaVuSans-111"/>
      <use x="616.980469" xlink:href="#DejaVuSans-110"/>
     </g>
    </g>
   </g>
   <g id="matplotlib.axis_2">
    <g id="ytick_1">
     <g id="line2d_1">
      <path clip-path="url(#p047c6b5b20)" d="M 32.968125 353.2239 
L 993.158125 353.2239 
" style="fill:none;stroke:#dedede;stroke-linecap:square;"/>
     </g>
     <g id="text_10">
      <!-- 0 -->
      <g transform="translate(20.878125 356.263275)scale(0.08 -0.08)">
       <use xlink:href="#DejaVuSans-48"/>
      </g>
     </g>
    </g>
    <g id="ytick_2">
     <g id="line2d_2">
      <path clip-path="url(#p047c6b5b20)" d="M 32.968125 289.6303 
L 993.158125 289.6303 
" style="fill:none;stroke:#dedede;stroke-linecap:square;"/>
     </g>
     <g id="text_11">
      <!-- 1 -->
      <g transform="translate(20.878125 292.669675)scale(0.08 -0.08)">
       <use xlink:href="#DejaVuSans-49"/>
      </g>
     </g>
    </g>
    <g id="ytick_3">
     <g id="line2d_3">
      <path clip-path="url(#p047c6b5b20)" d="M 32.968125 226.0367 
L 993.158125 226.0367 
" style="fill:none;stroke:#dedede;stroke-linecap:square;"/>
     </g>
     <g id="text_12">
      <!-- 2 -->
      <g transform="translate(20.878125 229.076075)scale(0.08 -0.08)">
       <use xlink:href="#DejaVuSans-50"/>
      </g>
     </g>
    </g>
    <g id="ytick_4">
     <g id="line2d_4">
      <path clip-path="url(#p047c6b5b20)" d="M 32.968125 162.4431 
L 993.158125 162.4431 
" style="fill:none;stroke:#dedede;stroke-linecap:square;"/>
     </g>
     <g id="text_13">
      <!-- 3 -->
      <defs>
       <path d="M 40.578125 39.3125 
Q 47.65625 37.796875 51.625 33 
Q 55.609375 28.21875 55.609375 21.1875 
Q 55.609375 10.40625 48.1875 4.484375 
Q 40.765625 -1.421875 27.09375 -1.421875 
Q 22.515625 -1.421875 17.65625 -0.515625 
Q 12.796875 0.390625 7.625 2.203125 
L 7.625 11.71875 
Q 11.71875 9.328125 16.59375 8.109375 
Q 21.484375 6.890625 26.8125 6.890625 
Q 36.078125 6.890625 40.9375 10.546875 
Q 45.796875 14.203125 45.796875 21.1875 
Q 45.796875 27.640625 41.28125 31.265625 
Q 36.765625 34.90625 28.71875 34.90625 
L 20.21875 34.90625 
L 20.21875 43.015625 
L 29.109375 43.015625 
Q 36.375 43.015625 40.234375 45.921875 
Q 44.09375 48.828125 44.09375 54.296875 
Q 44.09375 59.90625 40.109375 62.90625 
Q 36.140625 65.921875 28.71875 65.921875 
Q 24.65625 65.921875 20.015625 65.03125 
Q 15.375 64.15625 9.8125 62.3125 
L 9.8125 71.09375 
Q 15.4375 72.65625 20.34375 73.4375 
Q 25.25 74.21875 29.59375 74.21875 
Q 40.828125 74.21875 47.359375 69.109375 
Q 53.90625 64.015625 53.90625 55.328125 
Q 53.90625 49.265625 50.4375 45.09375 
Q 46.96875 40.921875 40.578125 39.3125 
z
" id="DejaVuSans-51"/>
      </defs>
      <g transform="translate(20.878125 165.482475)scale(0.08 -0.08)">
       <use xlink:href="#DejaVuSans-51"/>
      </g>
     </g>
    </g>
    <g id="ytick_5">
     <g id="line2d_5">
      <path clip-path="url(#p047c6b5b20)" d="M 32.968125 98.8495 
L 993.158125 98.8495 
" style="fill:none;stroke:#dedede;stroke-linecap:square;"/>
     </g>
     <g id="text_14">
      <!-- 4 -->
      <g transform="translate(20.878125 101.888875)scale(0.08 -0.08)">
       <use xlink:href="#DejaVuSans-52"/>
      </g>
     </g>
    </g>
    <g id="ytick_6">
     <g id="line2d_6">
      <path clip-path="url(#p047c6b5b20)" d="M 32.968125 35.2559 
L 993.158125 35.2559 
" style="fill:none;stroke:#dedede;stroke-linecap:square;"/>
     </g>
     <g id="text_15">
      <!-- 5 -->
      <defs>
       <path d="M 10.796875 72.90625 
L 49.515625 72.90625 
L 49.515625 64.59375 
L 19.828125 64.59375 
L 19.828125 46.734375 
Q 21.96875 47.46875 24.109375 47.828125 
Q 26.265625 48.1875 28.421875 48.1875 
Q 40.625 48.1875 47.75 41.5 
Q 54.890625 34.8125 54.890625 23.390625 
Q 54.890625 11.625 47.5625 5.09375 
Q 40.234375 -1.421875 26.90625 -1.421875 
Q 22.3125 -1.421875 17.546875 -0.640625 
Q 12.796875 0.140625 7.71875 1.703125 
L 7.71875 11.625 
Q 12.109375 9.234375 16.796875 8.0625 
Q 21.484375 6.890625 26.703125 6.890625 
Q 35.15625 6.890625 40.078125 11.328125 
Q 45.015625 15.765625 45.015625 23.390625 
Q 45.015625 31 40.078125 35.4375 
Q 35.15625 39.890625 26.703125 39.890625 
Q 22.75 39.890625 18.8125 39.015625 
Q 14.890625 38.140625 10.796875 36.28125 
z
" id="DejaVuSans-53"/>
      </defs>
      <g transform="translate(20.878125 38.295275)scale(0.08 -0.08)">
       <use xlink:href="#DejaVuSans-53"/>
      </g>
     </g>
    </g>
    <g id="text_16">
     <!-- R1 After filtering: Base Content Percent -->
     <defs>
      <path d="M 34.1875 63.1875 
L 20.796875 26.90625 
L 47.609375 26.90625 
z
M 28.609375 72.90625 
L 39.796875 72.90625 
L 67.578125 0 
L 57.328125 0 
L 50.6875 18.703125 
L 17.828125 18.703125 
L 11.1875 0 
L 0.78125 0 
z
" id="DejaVuSans-65"/>
      <path d="M 37.109375 75.984375 
L 37.109375 68.5 
L 28.515625 68.5 
Q 23.6875 68.5 21.796875 66.546875 
Q 19.921875 64.59375 19.921875 59.515625 
L 19.921875 54.6875 
L 34.71875 54.6875 
L 34.71875 47.703125 
L 19.921875 47.703125 
L 19.921875 0 
L 10.890625 0 
L 10.890625 47.703125 
L 2.296875 47.703125 
L 2.296875 54.6875 
L 10.890625 54.6875 
L 10.890625 58.5 
Q 10.890625 67.625 15.140625 71.796875 
Q 19.390625 75.984375 28.609375 75.984375 
z
" id="DejaVuSans-102"/>
      <path d="M 41.109375 46.296875 
Q 39.59375 47.171875 37.8125 47.578125 
Q 36.03125 48 33.890625 48 
Q 26.265625 48 22.1875 43.046875 
Q 18.109375 38.09375 18.109375 28.8125 
L 18.109375 0 
L 9.078125 0 
L 9.078125 54.6875 
L 18.109375 54.6875 
L 18.109375 46.1875 
Q 20.953125 51.171875 25.484375 53.578125 
Q 30.03125 56 36.53125 56 
Q 37.453125 56 38.578125 55.875 
Q 39.703125 55.765625 41.0625 55.515625 
z
" id="DejaVuSans-114"/>
      <path d="M 9.421875 75.984375 
L 18.40625 75.984375 
L 18.40625 0 
L 9.421875 0 
z
" id="DejaVuSans-108"/>
      <path d="M 45.40625 27.984375 
Q 45.40625 37.75 41.375 43.109375 
Q 37.359375 48.484375 30.078125 48.484375 
Q 22.859375 48.484375 18.828125 43.109375 
Q 14.796875 37.75 14.796875 27.984375 
Q 14.796875 18.265625 18.828125 12.890625 
Q 22.859375 7.515625 30.078125 7.515625 
Q 37.359375 7.515625 41.375 12.890625 
Q 45.40625 18.265625 45.40625 27.984375 
z
M 54.390625 6.78125 
Q 54.390625 -7.171875 48.1875 -13.984375 
Q 42 -20.796875 29.203125 -20.796875 
Q 24.46875 -20.796875 20.265625 -20.09375 
Q 16.0625 -19.390625 12.109375 -17.921875 
L 12.109375 -9.1875 
Q 16.0625 -11.328125 19.921875 -12.34375 
Q 23.78125 -13.375 27.78125 -13.375 
Q 36.625 -13.375 41.015625 -8.765625 
Q 45.40625 -4.15625 45.40625 5.171875 
L 45.40625 9.625 
Q 42.625 4.78125 38.28125 2.390625 
Q 33.9375 0 27.875 0 
Q 17.828125 0 11.671875 7.65625 
Q 5.515625 15.328125 5.515625 27.984375 
Q 5.515625 40.671875 11.671875 48.328125 
Q 17.828125 56 27.875 56 
Q 33.9375 56 38.28125 53.609375 
Q 42.625 51.21875 45.40625 46.390625 
L 45.40625 54.6875 
L 54.390625 54.6875 
z
" id="DejaVuSans-103"/>
      <path d="M 11.71875 12.40625 
L 22.015625 12.40625 
L 22.015625 0 
L 11.71875 0 
z
M 11.71875 51.703125 
L 22.015625 51.703125 
L 22.015625 39.3125 
L 11.71875 39.3125 
z
" id="DejaVuSans-58"/>
      <path d="M 19.671875 34.8125 
L 19.671875 8.109375 
L 35.5 8.109375 
Q 43.453125 8.109375 47.28125 11.40625 
Q 51.125 14.703125 51.125 21.484375 
Q 51.125 28.328125 47.28125 31.5625 
Q 43.453125 34.8125 35.5 34.8125 
z
M 19.671875 64.796875 
L 19.671875 42.828125 
L 34.28125 42.828125 
Q 41.5 42.828125 45.03125 45.53125 
Q 48.578125 48.25 48.578125 53.8125 
Q 48.578125 59.328125 45.03125 62.0625 
Q 41.5 64.796875 34.28125 64.796875 
z
M 9.8125 72.90625 
L 35.015625 72.90625 
Q 46.296875 72.90625 52.390625 68.21875 
Q 58.5 63.53125 58.5 54.890625 
Q 58.5 48.1875 55.375 44.234375 
Q 52.25 40.28125 46.1875 39.3125 
Q 53.46875 37.75 57.5 32.78125 
Q 61.53125 27.828125 61.53125 20.40625 
Q 61.53125 10.640625 54.890625 5.3125 
Q 48.25 0 35.984375 0 
L 9.8125 0 
z
" id="DejaVuSans-66"/>
      <path d="M 64.40625 67.28125 
L 64.40625 56.890625 
Q 59.421875 61.53125 53.78125 63.8125 
Q 48.140625 66.109375 41.796875 66.109375 
Q 29.296875 66.109375 22.65625 58.46875 
Q 16.015625 50.828125 16.015625 36.375 
Q 16.015625 21.96875 22.65625 14.328125 
Q 29.296875 6.6875 41.796875 6.6875 
Q 48.140625 6.6875 53.78125 8.984375 
Q 59.421875 11.28125 64.40625 15.921875 
L 64.40625 5.609375 
Q 59.234375 2.09375 53.4375 0.328125 
Q 47.65625 -1.421875 41.21875 -1.421875 
Q 24.65625 -1.421875 15.125 8.703125 
Q 5.609375 18.84375 5.609375 36.375 
Q 5.609375 53.953125 15.125 64.078125 
Q 24.65625 74.21875 41.21875 74.21875 
Q 47.75 74.21875 53.53125 72.484375 
Q 59.328125 70.75 64.40625 67.28125 
z
" id="DejaVuSans-67"/>
      <path d="M 48.78125 52.59375 
L 48.78125 44.1875 
Q 44.96875 46.296875 41.140625 47.34375 
Q 37.3125 48.390625 33.40625 48.390625 
Q 24.65625 48.390625 19.8125 42.84375 
Q 14.984375 37.3125 14.984375 27.296875 
Q 14.984375 17.28125 19.8125 11.734375 
Q 24.65625 6.203125 33.40625 6.203125 
Q 37.3125 6.203125 41.140625 7.25 
Q 44.96875 8.296875 48.78125 10.40625 
L 48.78125 2.09375 
Q 45.015625 0.34375 40.984375 -0.53125 
Q 36.96875 -1.421875 32.421875 -1.421875 
Q 20.0625 -1.421875 12.78125 6.34375 
Q 5.515625 14.109375 5.515625 27.296875 
Q 5.515625 40.671875 12.859375 48.328125 
Q 20.21875 56 33.015625 56 
Q 37.15625 56 41.109375 55.140625 
Q 45.0625 54.296875 48.78125 52.59375 
z
" id="DejaVuSans-99"/>
     </defs>
     <g transform="translate(14.798438 293.315681)rotate(-90)scale(0.1 -0.1)">
      <use xlink:href="#DejaVuSans-82"/>
      <use x="69.482422" xlink:href="#DejaVuSans-49"/>
      <use x="133.105469" xlink:href="#DejaVuSans-32"/>
      <use x="164.892578" xlink:href="#DejaVuSans-65"/>
      <use x="233.253906" xlink:href="#DejaVuSans-102"/>
      <use x="268.443359" xlink:href="#DejaVuSans-116"/>
      <use x="307.652344" xlink:href="#DejaVuSans-101"/>
      <use x="369.175781" xlink:href="#DejaVuSans-114"/>
      <use x="410.289062" xlink:href="#DejaVuSans-32"/>
      <use x="442.076172" xlink:href="#DejaVuSans-102"/>
      <use x="477.28125" xlink:href="#DejaVuSans-105"/>
      <use x="505.064453" xlink:href="#DejaVuSans-108"/>
      <use x="532.847656" xlink:href="#DejaVuSans-116"/>
      <use x="572.056641" xlink:href="#DejaVuSans-101"/>
      <use x="633.580078" xlink:href="#DejaVuSans-114"/>
      <use x="674.693359" xlink:href="#DejaVuSans-105"/>
      <use x="702.476562" xlink:href="#DejaVuSans-110"/>
      <use x="765.855469" xlink:href="#DejaVuSans-103"/>
      <use x="829.332031" xlink:href="#DejaVuSans-58"/>
      <use x="863.023438" xlink:href="#DejaVuSans-32"/>
      <use x="894.810547" xlink:href="#DejaVuSans-66"/>
      <use x="963.414062" xlink:href="#DejaVuSans-97"/>
      <use x="1024.693359" xlink:href="#DejaVuSans-115"/>
      <use x="1076.792969" xlink:href="#DejaVuSans-101"/>
      <use x="1138.316406" xlink:href="#DejaVuSans-32"/>
      <use x="1170.103516" xlink:href="#DejaVuSans-67"/>
      <use x="1239.927734" xlink:href="#DejaVuSans-111"/>
      <use x="1301.109375" xlink:href="#DejaVuSans-110"/>
      <use x="1364.488281" xlink:href="#DejaVuSans-116"/>
      <use x="1403.697266" xlink:href="#DejaVuSans-101"/>
      <use x="1465.220703" xlink:href="#DejaVuSans-110"/>
      <use x="1528.599609" xlink:href="#DejaVuSans-116"/>
      <use x="1567.808594" xlink:href="#DejaVuSans-32"/>
      <use x="1599.595703" xlink:href="#DejaVuSans-80"/>
      <use x="1659.851562" xlink:href="#DejaVuSans-101"/>
      <use x="1721.375" xlink:href="#DejaVuSans-114"/>
      <use x="1762.457031" xlink:href="#DejaVuSans-99"/>
      <use x="1817.4375" xlink:href="#DejaVuSans-101"/>
      <use x="1878.960938" xlink:href="#DejaVuSans-110"/>
      <use x="1942.339844" xlink:href="#DejaVuSans-116"/>
     </g>
    </g>
   </g>
   <g id="line2d_7">
    <path clip-path="url(#p047c6b5b20)" d="M 76.613125 314.945322 
L 82.471514 353.2239 
L 211.356078 353.2239 
L 217.214467 353.091136 
L 223.072857 353.2239 
L 228.931246 353.133811 
L 240.648024 353.2239 
L 410.541313 353.2239 
L 416.399702 353.07589 
L 422.258091 353.2239 
L 457.408427 353.2239 
L 463.266816 353.004248 
L 469.125206 353.2239 
L 474.983595 353.146409 
L 486.700373 353.2239 
L 615.584937 353.211089 
L 633.160105 353.2239 
L 639.018494 353.022328 
L 644.876883 353.2239 
L 656.593662 353.105286 
L 662.452051 353.2239 
L 902.646011 353.2239 
L 908.5044 352.894956 
L 914.362789 353.2239 
L 937.796346 353.210242 
L 943.654736 352.929216 
L 949.513125 353.2239 
L 949.513125 353.2239 
" style="fill:none;stroke:#7cb5ec;stroke-linecap:square;"/>
   </g>
   <g id="line2d_8">
    <path clip-path="url(#p047c6b5b20)" d="M 76.613125 316.604289 
L 82.471514 353.2239 
L 211.356078 353.2239 
L 217.214467 353.108428 
L 223.072857 353.2239 
L 228.931246 353.103408 
L 234.789635 353.2239 
L 410.541313 353.2239 
L 416.399702 353.068442 
L 422.258091 353.2239 
L 433.97487 353.2239 
L 439.833259 353.082314 
L 445.691648 353.2239 
L 457.408427 353.2239 
L 463.266816 352.963302 
L 469.125206 353.2239 
L 474.983595 353.138111 
L 486.700373 353.2239 
L 633.160105 353.2239 
L 639.018494 353.016842 
L 644.876883 353.2239 
L 656.593662 353.15083 
L 668.31044 353.2239 
L 691.743997 353.2239 
L 902.646011 353.2239 
L 908.5044 352.831604 
L 914.362789 353.2239 
L 937.796346 353.212901 
L 943.654736 352.896954 
L 949.513125 353.2239 
L 949.513125 353.2239 
" style="fill:none;stroke:#434348;stroke-linecap:square;"/>
   </g>
   <g id="line2d_9">
    <path clip-path="url(#p047c6b5b20)" d="M 76.613125 314.130879 
L 82.471514 353.2239 
L 211.356078 353.2239 
L 217.214467 353.088724 
L 223.072857 353.2239 
L 228.931246 353.115759 
L 240.648024 353.2239 
L 258.223192 353.2239 
L 264.081581 353.088724 
L 269.939971 353.2239 
L 275.79836 353.110307 
L 281.656749 353.2239 
L 410.541313 353.2239 
L 416.399702 353.022172 
L 422.258091 353.2239 
L 433.97487 353.2239 
L 439.833259 353.093224 
L 445.691648 353.2239 
L 457.408427 353.2239 
L 463.266816 353.004241 
L 469.125206 353.2239 
L 474.983595 353.136305 
L 486.700373 353.2239 
L 539.425877 353.2239 
L 633.160105 353.2239 
L 639.018494 353.059471 
L 644.876883 353.2239 
L 656.593662 353.053376 
L 662.452051 353.2239 
L 902.646011 353.2239 
L 908.5044 352.884504 
L 914.362789 353.2239 
L 937.796346 353.2239 
L 943.654736 352.939882 
L 949.513125 353.2239 
L 949.513125 353.2239 
" style="fill:none;stroke:#90ed7d;stroke-linecap:square;"/>
   </g>
   <g id="line2d_10">
    <path clip-path="url(#p047c6b5b20)" d="M 76.613125 313.189185 
L 82.471514 353.2239 
L 949.513125 353.2239 
L 949.513125 353.2239 
" style="fill:none;stroke:#f7a35c;stroke-linecap:square;"/>
   </g>
   <g id="line2d_11">
    <path clip-path="url(#p047c6b5b20)" d="M 76.613125 328.670411 
L 82.471514 353.2239 
L 410.541313 353.2239 
L 416.399702 351.272575 
L 422.258091 353.2239 
L 949.513125 353.2239 
L 949.513125 353.2239 
" style="fill:none;stroke:#8085e9;stroke-linecap:square;"/>
   </g>
   <g id="line2d_12">
    <path clip-path="url(#p047c6b5b20)" d="M 76.613125 313.657234 
L 82.471514 353.2239 
L 211.356078 353.2239 
L 217.214467 353.076169 
L 223.072857 353.2239 
L 228.931246 353.152145 
L 240.648024 353.2239 
L 410.541313 353.2239 
L 416.399702 353.083577 
L 422.258091 353.2239 
L 433.97487 353.2239 
L 439.833259 353.099371 
L 445.691648 353.2239 
L 457.408427 353.2239 
L 463.266816 352.965922 
L 469.125206 353.2239 
L 474.983595 353.146168 
L 486.700373 353.2239 
L 551.142655 353.2239 
L 633.160105 353.2239 
L 639.018494 352.988842 
L 644.876883 353.2239 
L 656.593662 353.083584 
L 662.452051 353.2239 
L 902.646011 353.2239 
L 908.5044 352.844261 
L 914.362789 353.2239 
L 937.796346 353.2239 
L 943.654736 352.872629 
L 949.513125 353.2239 
L 949.513125 353.2239 
" style="fill:none;stroke:#f15c80;stroke-linecap:square;"/>
   </g>
   <g id="line2d_13">
    <path clip-path="url(#p047c6b5b20)" d="M 76.613125 330.426421 
L 82.471514 353.2239 
L 949.513125 353.2239 
L 949.513125 353.2239 
" style="fill:none;stroke:#e4d354;stroke-linecap:square;"/>
   </g>
   <g id="line2d_14">
    <path clip-path="url(#p047c6b5b20)" d="M 76.613125 330.783181 
L 82.471514 353.2239 
L 949.513125 353.2239 
L 949.513125 353.2239 
" style="fill:none;stroke:#2b908f;stroke-linecap:square;"/>
   </g>
   <g id="line2d_15">
    <path clip-path="url(#p047c6b5b20)" d="M 76.613125 327.98837 
L 82.471514 353.2239 
L 949.513125 353.2239 
L 949.513125 353.2239 
" style="fill:none;stroke:#f45b5b;stroke-linecap:square;"/>
   </g>
   <g id="line2d_16">
    <path clip-path="url(#p047c6b5b20)" d="M 76.613125 323.87946 
L 82.471514 353.2239 
L 949.513125 353.2239 
L 949.513125 353.2239 
" style="fill:none;stroke:#91e8e1;stroke-linecap:square;"/>
   </g>
   <g id="line2d_17">
    <path clip-path="url(#p047c6b5b20)" d="M 76.613125 324.052498 
L 82.471514 353.2239 
L 949.513125 353.2239 
L 949.513125 353.2239 
" style="fill:none;stroke:#7cb5ec;stroke-linecap:square;"/>
   </g>
   <g id="line2d_18">
    <path clip-path="url(#p047c6b5b20)" d="M 76.613125 346.304026 
L 82.471514 353.2239 
L 269.939971 353.2239 
L 275.79836 346.273755 
L 281.656749 353.2239 
L 433.97487 353.2239 
L 439.833259 345.580458 
L 445.691648 353.2239 
L 949.513125 353.2239 
L 949.513125 353.2239 
" style="fill:none;stroke:#434348;stroke-linecap:square;"/>
   </g>
   <g id="line2d_19">
    <path clip-path="url(#p047c6b5b20)" d="M 76.613125 312.674458 
L 82.471514 353.2239 
L 644.876883 353.2239 
L 650.735273 352.081365 
L 656.593662 353.2239 
L 703.460776 353.2239 
L 709.319165 351.962623 
L 715.177555 353.2239 
L 773.761447 353.2239 
L 779.619836 351.789674 
L 785.478226 353.2239 
L 949.513125 353.2239 
L 949.513125 353.2239 
" style="fill:none;stroke:#90ed7d;stroke-linecap:square;"/>
   </g>
   <g id="line2d_20">
    <path clip-path="url(#p047c6b5b20)" d="M 76.613125 315.06119 
L 82.471514 353.2239 
L 211.356078 353.2239 
L 217.214467 353.069853 
L 223.072857 353.2239 
L 228.931246 353.131472 
L 240.648024 353.2239 
L 269.939971 353.2239 
L 275.79836 353.110887 
L 281.656749 353.2239 
L 410.541313 353.2239 
L 416.399702 353.065256 
L 422.258091 353.2239 
L 433.97487 353.2239 
L 439.833259 353.10619 
L 445.691648 353.2239 
L 457.408427 353.2239 
L 463.266816 353.039221 
L 469.125206 353.2239 
L 474.983595 353.136213 
L 486.700373 353.2239 
L 633.160105 353.2239 
L 639.018494 353.072591 
L 644.876883 353.2239 
L 650.735273 353.195773 
L 656.593662 353.010603 
L 662.452051 353.2239 
L 902.646011 353.2239 
L 908.5044 353.023707 
L 914.362789 353.2239 
L 937.796346 353.2239 
L 943.654736 353.00127 
L 949.513125 353.2239 
L 949.513125 353.2239 
" style="fill:none;stroke:#f7a35c;stroke-linecap:square;"/>
   </g>
   <g id="line2d_21">
    <path clip-path="url(#p047c6b5b20)" d="M 76.613125 314.980553 
L 82.471514 353.2239 
L 223.072857 353.2239 
L 228.931246 352.968944 
L 234.789635 353.2239 
L 410.541313 353.2239 
L 416.399702 352.938471 
L 422.258091 353.2239 
L 949.513125 353.2239 
L 949.513125 353.2239 
" style="fill:none;stroke:#8085e9;stroke-linecap:square;"/>
   </g>
   <g id="line2d_22">
    <path clip-path="url(#p047c6b5b20)" d="M 76.613125 316.784958 
L 82.471514 353.2239 
L 269.939971 353.2239 
L 275.79836 353.066451 
L 281.656749 353.2239 
L 410.541313 353.2239 
L 416.399702 353.097085 
L 422.258091 353.2239 
L 433.97487 353.2239 
L 439.833259 353.040331 
L 445.691648 353.2239 
L 457.408427 353.2239 
L 463.266816 353.018754 
L 469.125206 353.2239 
L 474.983595 353.110985 
L 480.841984 353.2239 
L 633.160105 353.2239 
L 639.018494 353.050086 
L 644.876883 353.2239 
L 656.593662 353.080758 
L 662.452051 353.2239 
L 750.32789 353.2239 
L 756.186279 353.081367 
L 762.044669 353.2239 
L 902.646011 353.2239 
L 908.5044 352.855844 
L 914.362789 353.2239 
L 937.796346 353.203124 
L 943.654736 352.882728 
L 949.513125 353.2239 
L 949.513125 353.2239 
" style="fill:none;stroke:#f15c80;stroke-linecap:square;"/>
   </g>
   <g id="line2d_23">
    <path clip-path="url(#p047c6b5b20)" d="M 76.613125 308.880528 
L 82.471514 353.2239 
L 258.223192 353.2239 
L 264.081581 351.919684 
L 269.939971 353.2239 
L 650.735273 353.2239 
L 656.593662 351.641577 
L 662.452051 353.2239 
L 949.513125 353.2239 
L 949.513125 353.2239 
" style="fill:none;stroke:#e4d354;stroke-linecap:square;"/>
   </g>
   <g id="line2d_24">
    <path clip-path="url(#p047c6b5b20)" d="M 76.613125 328.068943 
L 82.471514 353.2239 
L 949.513125 353.2239 
L 949.513125 353.2239 
" style="fill:none;stroke:#2b908f;stroke-linecap:square;"/>
   </g>
   <g id="line2d_25">
    <path clip-path="url(#p047c6b5b20)" d="M 76.613125 327.287695 
L 82.471514 353.2239 
L 949.513125 353.2239 
L 949.513125 353.2239 
" style="fill:none;stroke:#f45b5b;stroke-linecap:square;"/>
   </g>
   <g id="line2d_26">
    <path clip-path="url(#p047c6b5b20)" d="M 76.613125 317.937719 
L 82.471514 353.2239 
L 410.541313 353.2239 
L 416.399702 353.08064 
L 422.258091 353.2239 
L 433.97487 353.2239 
L 439.833259 353.083599 
L 445.691648 353.2239 
L 457.408427 353.2239 
L 463.266816 353.022333 
L 469.125206 353.2239 
L 474.983595 353.136265 
L 486.700373 353.2239 
L 633.160105 353.2239 
L 639.018494 353.039635 
L 644.876883 353.2239 
L 656.593662 353.089936 
L 662.452051 353.2239 
L 902.646011 353.2239 
L 908.5044 352.810016 
L 914.362789 353.2239 
L 937.796346 353.21627 
L 943.654736 352.873379 
L 949.513125 353.2239 
L 949.513125 353.2239 
" style="fill:none;stroke:#91e8e1;stroke-linecap:square;"/>
   </g>
   <g id="line2d_27">
    <path clip-path="url(#p047c6b5b20)" d="M 76.613125 315.527903 
L 82.471514 353.2239 
L 211.356078 353.2239 
L 217.214467 353.102513 
L 223.072857 353.2239 
L 228.931246 353.133505 
L 240.648024 353.2239 
L 410.541313 353.2239 
L 416.399702 353.034705 
L 422.258091 353.2239 
L 433.97487 353.2239 
L 439.833259 353.107187 
L 445.691648 353.2239 
L 457.408427 353.2239 
L 463.266816 352.98045 
L 469.125206 353.2239 
L 474.983595 353.140756 
L 486.700373 353.2239 
L 551.142655 353.2239 
L 633.160105 353.2239 
L 639.018494 353.004054 
L 644.876883 353.2239 
L 656.593662 353.089736 
L 662.452051 353.2239 
L 902.646011 353.2239 
L 908.5044 352.860662 
L 914.362789 353.2239 
L 937.796346 353.217575 
L 943.654736 352.882117 
L 949.513125 353.2239 
L 949.513125 353.2239 
" style="fill:none;stroke:#7cb5ec;stroke-linecap:square;"/>
   </g>
   <g id="line2d_28">
    <path clip-path="url(#p047c6b5b20)" d="M 76.613125 344.500512 
L 82.471514 353.2239 
L 949.513125 353.2239 
L 949.513125 353.2239 
" style="fill:none;stroke:#434348;stroke-linecap:square;"/>
   </g>
   <g id="line2d_29">
    <path clip-path="url(#p047c6b5b20)" d="M 76.613125 326.345811 
L 82.471514 353.2239 
L 949.513125 353.2239 
L 949.513125 353.2239 
" style="fill:none;stroke:#90ed7d;stroke-linecap:square;"/>
   </g>
   <g id="line2d_30">
    <path clip-path="url(#p047c6b5b20)" d="M 76.613125 316.086001 
L 82.471514 353.2239 
L 211.356078 353.2239 
L 217.214467 353.108282 
L 223.072857 353.2239 
L 228.931246 353.108282 
L 234.789635 353.2239 
L 258.223192 353.2239 
L 264.081581 353.090026 
L 269.939971 353.2239 
L 275.79836 353.156865 
L 287.515138 353.2239 
L 410.541313 353.2239 
L 416.399702 353.068442 
L 422.258091 353.2239 
L 457.408427 353.2239 
L 463.266816 352.981828 
L 469.125206 353.2239 
L 480.841984 353.2239 
L 633.160105 353.2239 
L 639.018494 352.986474 
L 644.876883 353.2239 
L 656.593662 353.031463 
L 662.452051 353.2239 
L 902.646011 353.2239 
L 908.5044 352.603462 
L 914.362789 353.2239 
L 937.796346 353.18895 
L 943.654736 352.683767 
L 949.513125 353.2239 
L 949.513125 353.2239 
" style="fill:none;stroke:#f7a35c;stroke-linecap:square;"/>
   </g>
   <g id="line2d_31">
    <path clip-path="url(#p047c6b5b20)" d="M 76.613125 313.400125 
L 82.471514 353.2239 
L 457.408427 353.2239 
L 463.266816 353.09969 
L 469.125206 353.2239 
L 474.983595 353.160831 
L 486.700373 353.2239 
L 703.460776 353.2239 
L 709.319165 353.088919 
L 715.177555 353.2239 
L 902.646011 353.2239 
L 908.5044 352.96214 
L 914.362789 353.2239 
L 937.796346 353.2239 
L 943.654736 353.042387 
L 949.513125 353.2239 
L 949.513125 353.2239 
" style="fill:none;stroke:#8085e9;stroke-linecap:square;"/>
   </g>
   <g id="line2d_32">
    <path clip-path="url(#p047c6b5b20)" d="M 76.613125 315.101826 
L 82.471514 353.2239 
L 633.160105 353.2239 
L 639.018494 351.992181 
L 644.876883 353.2239 
L 773.761447 353.2239 
L 779.619836 351.716585 
L 785.478226 353.2239 
L 949.513125 353.2239 
L 949.513125 353.2239 
" style="fill:none;stroke:#f15c80;stroke-linecap:square;"/>
   </g>
   <g id="line2d_33">
    <path clip-path="url(#p047c6b5b20)" d="M 76.613125 322.705967 
L 82.471514 353.2239 
L 223.072857 353.2239 
L 228.931246 352.49728 
L 234.789635 353.2239 
L 410.541313 353.2239 
L 416.399702 352.472472 
L 422.258091 353.2239 
L 586.292991 353.2239 
L 592.15138 352.338442 
L 598.009769 353.2239 
L 644.876883 353.2239 
L 650.735273 352.263414 
L 656.593662 353.2239 
L 703.460776 353.2239 
L 709.319165 352.166828 
L 715.177555 353.2239 
L 949.513125 353.2239 
L 949.513125 353.2239 
" style="fill:none;stroke:#e4d354;stroke-linecap:square;"/>
   </g>
   <g id="line2d_34">
    <path clip-path="url(#p047c6b5b20)" d="M 76.613125 317.167028 
L 82.471514 353.2239 
L 410.541313 353.2239 
L 416.399702 353.068751 
L 422.258091 353.2239 
L 433.97487 353.2239 
L 439.833259 353.089042 
L 445.691648 353.2239 
L 457.408427 353.2239 
L 463.266816 353.016765 
L 469.125206 353.2239 
L 474.983595 353.141637 
L 486.700373 353.2239 
L 545.284266 353.2239 
L 633.160105 353.2239 
L 639.018494 353.037575 
L 644.876883 353.2239 
L 656.593662 353.072626 
L 662.452051 353.2239 
L 902.646011 353.2239 
L 908.5044 352.865738 
L 914.362789 353.2239 
L 937.796346 353.192105 
L 943.654736 352.96296 
L 949.513125 353.2239 
L 949.513125 353.2239 
" style="fill:none;stroke:#2b908f;stroke-linecap:square;"/>
   </g>
   <g id="line2d_35">
    <path clip-path="url(#p047c6b5b20)" d="M 76.613125 326.766228 
L 82.471514 353.2239 
L 949.513125 353.2239 
L 949.513125 353.2239 
" style="fill:none;stroke:#f45b5b;stroke-linecap:square;"/>
   </g>
   <g id="line2d_36">
    <path clip-path="url(#p047c6b5b20)" d="M 76.613125 323.836852 
L 82.471514 353.2239 
L 949.513125 353.2239 
L 949.513125 353.2239 
" style="fill:none;stroke:#91e8e1;stroke-linecap:square;"/>
   </g>
   <g id="line2d_37">
    <path clip-path="url(#p047c6b5b20)" d="M 76.613125 328.546531 
L 82.471514 353.2239 
L 949.513125 353.2239 
L 949.513125 353.2239 
" style="fill:none;stroke:#7cb5ec;stroke-linecap:square;"/>
   </g>
   <g id="line2d_38">
    <path clip-path="url(#p047c6b5b20)" d="M 76.613125 314.793715 
L 82.471514 353.2239 
L 223.072857 353.2239 
L 228.931246 351.553023 
L 234.789635 353.2239 
L 410.541313 353.2239 
L 416.399702 351.496284 
L 422.258091 353.2239 
L 650.735273 353.2239 
L 656.593662 351.05347 
L 662.452051 353.2239 
L 773.761447 353.2239 
L 779.619836 350.614394 
L 785.478226 353.2239 
L 949.513125 353.2239 
L 949.513125 353.2239 
" style="fill:none;stroke:#434348;stroke-linecap:square;"/>
   </g>
   <g id="line2d_39">
    <path clip-path="url(#p047c6b5b20)" d="M 76.613125 312.607558 
L 82.471514 353.2239 
L 334.382253 353.2239 
L 340.240642 350.287904 
L 346.099031 353.2239 
L 392.966145 353.2239 
L 398.824534 350.217112 
L 404.682924 353.2239 
L 457.408427 353.2239 
L 463.266816 350.081925 
L 469.125206 353.2239 
L 633.160105 353.2239 
L 639.018494 349.219265 
L 644.876883 353.2239 
L 709.319165 353.2239 
L 715.177555 348.608982 
L 721.035944 353.2239 
L 949.513125 353.2239 
L 949.513125 353.2239 
" style="fill:none;stroke:#90ed7d;stroke-linecap:square;"/>
   </g>
   <g id="line2d_40">
    <path clip-path="url(#p047c6b5b20)" d="M 76.613125 336.77726 
L 82.471514 353.2239 
L 902.646011 353.2239 
L 908.5044 341.661439 
L 914.362789 353.2239 
L 937.796346 353.2239 
L 943.654736 340.324574 
L 949.513125 353.2239 
L 949.513125 353.2239 
" style="fill:none;stroke:#f7a35c;stroke-linecap:square;"/>
   </g>
   <g id="line2d_41">
    <path clip-path="url(#p047c6b5b20)" d="M 76.613125 313.915615 
L 82.471514 353.2239 
L 211.356078 353.2239 
L 217.214467 353.065558 
L 223.072857 353.2239 
L 228.931246 353.123137 
L 240.648024 353.2239 
L 410.541313 353.2239 
L 416.399702 353.07682 
L 422.258091 353.2239 
L 433.97487 353.2239 
L 439.833259 353.069558 
L 445.691648 353.2239 
L 457.408427 353.2239 
L 463.266816 352.960165 
L 469.125206 353.2239 
L 474.983595 353.137533 
L 486.700373 353.2239 
L 633.160105 353.2239 
L 639.018494 352.962415 
L 644.876883 353.2239 
L 662.452051 353.2239 
L 902.646011 353.2239 
L 908.5044 352.868246 
L 914.362789 353.2239 
L 937.796346 353.18656 
L 943.654736 352.940306 
L 949.513125 353.2239 
L 949.513125 353.2239 
" style="fill:none;stroke:#8085e9;stroke-linecap:square;"/>
   </g>
   <g id="line2d_42">
    <path clip-path="url(#p047c6b5b20)" d="M 76.613125 326.660217 
L 82.471514 353.2239 
L 410.541313 353.2239 
L 416.399702 353.08983 
L 422.258091 353.2239 
L 457.408427 353.2239 
L 463.266816 353.064731 
L 469.125206 353.2239 
L 474.983595 353.166672 
L 486.700373 353.2239 
L 615.584937 353.213874 
L 633.160105 353.2239 
L 639.018494 353.073259 
L 644.876883 353.2239 
L 668.31044 353.2239 
L 709.319165 353.17341 
L 726.894333 353.2239 
L 902.646011 353.2239 
L 908.5044 352.913669 
L 914.362789 353.2239 
L 937.796346 353.215925 
L 943.654736 352.955613 
L 949.513125 353.2239 
L 949.513125 353.2239 
" style="fill:none;stroke:#f15c80;stroke-linecap:square;"/>
   </g>
   <g id="line2d_43">
    <path clip-path="url(#p047c6b5b20)" d="M 76.613125 335.859985 
L 82.471514 353.2239 
L 949.513125 353.2239 
L 949.513125 353.2239 
" style="fill:none;stroke:#e4d354;stroke-linecap:square;"/>
   </g>
   <g id="line2d_44">
    <path clip-path="url(#p047c6b5b20)" d="M 76.613125 326.60877 
L 82.471514 353.2239 
L 650.735273 353.2239 
L 656.593662 351.490631 
L 662.452051 353.2239 
L 949.513125 353.2239 
L 949.513125 353.2239 
" style="fill:none;stroke:#2b908f;stroke-linecap:square;"/>
   </g>
   <g id="line2d_45">
    <path clip-path="url(#p047c6b5b20)" d="M 76.613125 327.116692 
L 82.471514 353.2239 
L 152.772185 353.2239 
L 158.630575 352.32365 
L 164.488964 353.2239 
L 269.939971 353.2239 
L 275.79836 352.323396 
L 281.656749 353.2239 
L 410.541313 353.2239 
L 416.399702 352.318009 
L 422.258091 353.2239 
L 433.97487 353.2239 
L 439.833259 352.316457 
L 445.691648 353.2239 
L 469.125206 353.2239 
L 474.983595 352.31516 
L 480.841984 353.2239 
L 750.32789 353.2239 
L 756.186279 352.278409 
L 762.044669 353.2239 
L 949.513125 353.2239 
L 949.513125 353.2239 
" style="fill:none;stroke:#f45b5b;stroke-linecap:square;"/>
   </g>
   <g id="line2d_46">
    <path clip-path="url(#p047c6b5b20)" d="M 76.613125 319.926227 
L 82.471514 353.2239 
L 410.541313 353.2239 
L 416.399702 353.083319 
L 422.258091 353.2239 
L 433.97487 353.2239 
L 439.833259 353.101368 
L 445.691648 353.2239 
L 457.408427 353.2239 
L 463.266816 353.029958 
L 469.125206 353.2239 
L 474.983595 353.148064 
L 486.700373 353.2239 
L 580.434602 353.205887 
L 621.443326 353.223223 
L 633.160105 353.2239 
L 639.018494 353.02562 
L 644.876883 353.223217 
L 656.593662 353.082433 
L 662.452051 353.2239 
L 902.646011 353.2239 
L 908.5044 352.905458 
L 914.362789 353.2239 
L 937.796346 353.205437 
L 943.654736 352.951427 
L 949.513125 353.2239 
L 949.513125 353.2239 
" style="fill:none;stroke:#91e8e1;stroke-linecap:square;"/>
   </g>
   <g id="line2d_47">
    <path clip-path="url(#p047c6b5b20)" d="M 76.613125 328.111105 
L 82.471514 353.2239 
L 211.356078 353.2239 
L 217.214467 352.859946 
L 223.072857 353.2239 
L 457.408427 353.2239 
L 463.266816 352.85142 
L 469.125206 353.2239 
L 586.292991 353.2239 
L 592.15138 352.838251 
L 598.009769 353.2239 
L 633.160105 353.2239 
L 639.018494 352.832121 
L 644.876883 353.2239 
L 650.735273 352.830083 
L 656.593662 353.2239 
L 668.31044 353.2239 
L 674.16883 352.82649 
L 680.027219 353.2239 
L 703.460776 353.2239 
L 709.319165 352.820694 
L 715.177555 353.2239 
L 902.646011 353.2239 
L 908.5044 352.768652 
L 914.362789 353.2239 
L 949.513125 353.2239 
L 949.513125 353.2239 
" style="fill:none;stroke:#7cb5ec;stroke-linecap:square;"/>
   </g>
   <g id="line2d_48">
    <path clip-path="url(#p047c6b5b20)" d="M 76.613125 327.524264 
L 82.471514 353.2239 
L 258.223192 353.2239 
L 264.081581 353.024678 
L 269.939971 353.2239 
L 410.541313 353.2239 
L 416.399702 353.022342 
L 422.258091 353.2239 
L 650.735273 353.2239 
L 656.593662 352.799462 
L 662.452051 353.2239 
L 873.354065 353.2239 
L 879.212454 352.990083 
L 885.070843 353.2239 
L 949.513125 353.2239 
L 949.513125 353.2239 
" style="fill:none;stroke:#434348;stroke-linecap:square;"/>
   </g>
   <g id="line2d_49">
    <path clip-path="url(#p047c6b5b20)" d="M 76.613125 324.273868 
L 82.471514 353.2239 
L 258.223192 353.2239 
L 264.081581 352.902233 
L 269.939971 353.2239 
L 275.79836 352.902168 
L 281.656749 353.2239 
L 433.97487 353.2239 
L 439.833259 352.571627 
L 445.691648 353.2239 
L 650.735273 353.2239 
L 656.593662 352.882182 
L 662.452051 353.2239 
L 949.513125 353.2239 
L 949.513125 353.2239 
" style="fill:none;stroke:#90ed7d;stroke-linecap:square;"/>
   </g>
   <g id="line2d_50">
    <path clip-path="url(#p047c6b5b20)" d="M 76.613125 327.758924 
L 82.471514 353.2239 
L 152.772185 353.2239 
L 158.630575 353.009006 
L 164.488964 353.2239 
L 223.072857 353.2239 
L 228.931246 352.901559 
L 234.789635 353.2239 
L 269.939971 353.2239 
L 275.79836 353.008897 
L 281.656749 353.2239 
L 433.97487 353.2239 
L 439.833259 353.00505 
L 445.691648 353.2239 
L 469.125206 353.2239 
L 474.983595 353.003822 
L 480.841984 353.2239 
L 650.735273 353.2239 
L 656.593662 353.108927 
L 662.452051 353.2239 
L 750.32789 353.2239 
L 756.186279 352.985628 
L 762.044669 353.2239 
L 773.761447 353.2239 
L 779.619836 353.103608 
L 785.478226 353.2239 
L 949.513125 353.2239 
L 949.513125 353.2239 
" style="fill:none;stroke:#f7a35c;stroke-linecap:square;"/>
   </g>
   <g id="line2d_51">
    <path clip-path="url(#p047c6b5b20)" d="M 76.613125 322.025134 
L 82.471514 353.2239 
L 410.541313 353.2239 
L 416.399702 353.088488 
L 422.258091 353.2239 
L 433.97487 353.2239 
L 439.833259 353.11111 
L 445.691648 353.2239 
L 457.408427 353.2239 
L 463.266816 353.048845 
L 469.125206 353.2239 
L 474.983595 353.15033 
L 486.700373 353.2239 
L 557.001044 353.2239 
L 633.160105 353.2239 
L 639.018494 353.029328 
L 644.876883 353.2239 
L 662.452051 353.2239 
L 902.646011 353.2239 
L 908.5044 352.88842 
L 914.362789 353.2239 
L 937.796346 353.21116 
L 943.654736 352.973526 
L 949.513125 353.2239 
L 949.513125 353.2239 
" style="fill:none;stroke:#8085e9;stroke-linecap:square;"/>
   </g>
   <g id="line2d_52">
    <path clip-path="url(#p047c6b5b20)" d="M 76.613125 320.046801 
L 82.471514 353.2239 
L 410.541313 353.2239 
L 416.399702 353.078783 
L 422.258091 353.2239 
L 433.97487 353.2239 
L 439.833259 353.106291 
L 445.691648 353.2239 
L 457.408427 353.2239 
L 463.266816 353.007901 
L 469.125206 353.2239 
L 474.983595 353.1481 
L 486.700373 353.2239 
L 545.284266 353.2239 
L 633.160105 353.2239 
L 639.018494 353.017433 
L 644.876883 353.2239 
L 656.593662 353.061673 
L 662.452051 353.2239 
L 902.646011 353.2239 
L 908.5044 352.85323 
L 914.362789 353.2239 
L 937.796346 353.207086 
L 943.654736 352.931209 
L 949.513125 353.2239 
L 949.513125 353.2239 
" style="fill:none;stroke:#f15c80;stroke-linecap:square;"/>
   </g>
   <g id="line2d_53">
    <path clip-path="url(#p047c6b5b20)" d="M 76.613125 322.7115 
L 82.471514 353.2239 
L 223.072857 353.2239 
L 228.931246 353.110976 
L 234.789635 353.2239 
L 410.541313 353.2239 
L 416.399702 353.092037 
L 422.258091 353.2239 
L 457.408427 353.2239 
L 463.266816 353.022532 
L 469.125206 353.2239 
L 474.983595 353.15203 
L 486.700373 353.2239 
L 598.009769 353.2239 
L 633.160105 353.2239 
L 639.018494 353.036112 
L 644.876883 353.2239 
L 656.593662 353.060383 
L 662.452051 353.2239 
L 902.646011 353.2239 
L 908.5044 352.878994 
L 914.362789 353.2239 
L 937.796346 353.203482 
L 943.654736 352.949911 
L 949.513125 353.2239 
L 949.513125 353.2239 
" style="fill:none;stroke:#e4d354;stroke-linecap:square;"/>
   </g>
   <g id="line2d_54">
    <path clip-path="url(#p047c6b5b20)" d="M 76.613125 326.165205 
L 82.471514 353.2239 
L 410.541313 353.2239 
L 416.399702 353.10194 
L 422.258091 353.2239 
L 433.97487 353.2239 
L 439.833259 353.106041 
L 445.691648 353.2239 
L 457.408427 353.2239 
L 463.266816 353.05565 
L 469.125206 353.2239 
L 474.983595 353.146626 
L 486.700373 353.2239 
L 639.018494 353.053362 
L 644.876883 353.2239 
L 656.593662 353.091878 
L 662.452051 353.2239 
L 902.646011 353.2239 
L 908.5044 352.918811 
L 914.362789 353.2239 
L 937.796346 353.209122 
L 943.654736 352.971877 
L 949.513125 353.2239 
L 949.513125 353.2239 
" style="fill:none;stroke:#2b908f;stroke-linecap:square;"/>
   </g>
   <g id="line2d_55">
    <path clip-path="url(#p047c6b5b20)" d="M 76.613125 327.775649 
L 82.471514 353.2239 
L 223.072857 353.2239 
L 228.931246 352.998694 
L 234.789635 353.2239 
L 410.541313 353.2239 
L 416.399702 352.995655 
L 422.258091 353.2239 
L 586.292991 353.2239 
L 592.15138 352.514571 
L 598.009769 353.2239 
L 644.876883 353.2239 
L 650.735273 352.500752 
L 656.593662 352.982412 
L 662.452051 353.2239 
L 668.31044 353.2239 
L 674.16883 352.981102 
L 680.027219 353.2239 
L 703.460776 353.2239 
L 709.319165 352.485038 
L 715.177555 353.2239 
L 902.646011 353.2239 
L 908.5044 352.946671 
L 914.362789 353.2239 
L 937.796346 353.2239 
L 943.654736 352.928487 
L 949.513125 353.2239 
L 949.513125 353.2239 
" style="fill:none;stroke:#f45b5b;stroke-linecap:square;"/>
   </g>
   <g id="line2d_56">
    <path clip-path="url(#p047c6b5b20)" d="M 76.613125 320.249092 
L 82.471514 353.2239 
L 410.541313 353.2239 
L 416.399702 353.10155 
L 422.258091 353.2239 
L 457.408427 353.2239 
L 463.266816 353.018069 
L 469.125206 353.2239 
L 474.983595 353.161804 
L 486.700373 353.2239 
L 633.160105 353.2239 
L 639.018494 353.026935 
L 644.876883 353.2239 
L 662.452051 353.2239 
L 902.646011 353.2239 
L 908.5044 352.897477 
L 914.362789 353.2239 
L 937.796346 353.215851 
L 943.654736 352.970726 
L 949.513125 353.2239 
L 949.513125 353.2239 
" style="fill:none;stroke:#91e8e1;stroke-linecap:square;"/>
   </g>
   <g id="line2d_57">
    <path clip-path="url(#p047c6b5b20)" d="M 76.613125 321.282043 
L 82.471514 353.2239 
L 410.541313 353.2239 
L 416.399702 353.051222 
L 422.258091 353.2239 
L 433.97487 353.2239 
L 439.833259 353.093464 
L 445.691648 353.2239 
L 457.408427 353.2239 
L 463.266816 353.073726 
L 469.125206 353.2239 
L 474.983595 353.143859 
L 486.700373 353.2239 
L 580.434602 353.207352 
L 621.443326 353.2239 
L 633.160105 353.2239 
L 639.018494 353.066175 
L 644.876883 353.2239 
L 656.593662 353.083915 
L 662.452051 353.2239 
L 902.646011 353.2239 
L 908.5044 352.945714 
L 914.362789 353.2239 
L 937.796346 353.205744 
L 943.654736 352.935438 
L 949.513125 353.2239 
L 949.513125 353.2239 
" style="fill:none;stroke:#7cb5ec;stroke-linecap:square;"/>
   </g>
   <g id="line2d_58">
    <path clip-path="url(#p047c6b5b20)" d="M 76.613125 324.881059 
L 82.471514 353.2239 
L 609.726548 353.2239 
L 615.584937 352.711296 
L 621.443326 353.2239 
L 633.160105 353.2239 
L 639.018494 352.706416 
L 644.876883 353.2239 
L 937.796346 353.2239 
L 943.654736 352.590056 
L 949.513125 353.2239 
L 949.513125 353.2239 
" style="fill:none;stroke:#434348;stroke-linecap:square;"/>
   </g>
   <g id="line2d_59">
    <path clip-path="url(#p047c6b5b20)" d="M 76.613125 327.206296 
L 82.471514 353.2239 
L 457.408427 353.2239 
L 463.266816 352.567143 
L 469.125206 353.2239 
L 633.160105 353.2239 
L 639.018494 352.548809 
L 644.876883 353.2239 
L 902.646011 353.2239 
L 908.5044 351.738761 
L 914.362789 353.2239 
L 937.796346 353.2239 
L 943.654736 351.647071 
L 949.513125 353.2239 
L 949.513125 353.2239 
" style="fill:none;stroke:#90ed7d;stroke-linecap:square;"/>
   </g>
   <g id="line2d_60">
    <path clip-path="url(#p047c6b5b20)" d="M 76.613125 320.548554 
L 82.471514 353.2239 
L 410.541313 353.2239 
L 416.399702 353.091903 
L 422.258091 353.2239 
L 433.97487 353.2239 
L 439.833259 353.1087 
L 445.691648 353.2239 
L 457.408427 353.2239 
L 463.266816 353.012241 
L 469.125206 353.2239 
L 474.983595 353.146664 
L 486.700373 353.2239 
L 557.001044 353.2239 
L 633.160105 353.2239 
L 639.018494 353.006824 
L 644.876883 353.2239 
L 662.452051 353.2239 
L 902.646011 353.2239 
L 908.5044 352.870282 
L 914.362789 353.2239 
L 937.796346 353.209745 
L 943.654736 352.924828 
L 949.513125 353.2239 
L 949.513125 353.2239 
" style="fill:none;stroke:#f7a35c;stroke-linecap:square;"/>
   </g>
   <g id="line2d_61">
    <path clip-path="url(#p047c6b5b20)" d="M 76.613125 331.232724 
L 82.471514 353.2239 
L 949.513125 353.2239 
L 949.513125 353.2239 
" style="fill:none;stroke:#8085e9;stroke-linecap:square;"/>
   </g>
   <g id="line2d_62">
    <path clip-path="url(#p047c6b5b20)" d="M 76.613125 325.428091 
L 82.471514 353.2239 
L 410.541313 353.2239 
L 416.399702 353.105745 
L 422.258091 353.2239 
L 457.408427 353.2239 
L 463.266816 353.082046 
L 469.125206 353.2239 
L 480.841984 353.2239 
L 633.160105 353.2239 
L 639.018494 353.085525 
L 644.876883 353.221736 
L 662.452051 353.2239 
L 902.646011 353.2239 
L 908.5044 352.924681 
L 914.362789 353.2239 
L 937.796346 353.20254 
L 943.654736 352.974715 
L 949.513125 353.2239 
L 949.513125 353.2239 
" style="fill:none;stroke:#f15c80;stroke-linecap:square;"/>
   </g>
   <g id="line2d_63">
    <path clip-path="url(#p047c6b5b20)" d="M 76.613125 322.346918 
L 82.471514 353.2239 
L 410.541313 353.2239 
L 416.399702 353.092155 
L 422.258091 353.2239 
L 457.408427 353.2239 
L 463.266816 353.030244 
L 469.125206 353.2239 
L 474.983595 353.147251 
L 486.700373 353.2239 
L 592.15138 353.199175 
L 621.443326 353.22336 
L 633.160105 353.2239 
L 639.018494 353.032224 
L 644.876883 353.223358 
L 662.452051 353.2239 
L 902.646011 353.2239 
L 908.5044 352.899545 
L 914.362789 353.2239 
L 937.796346 353.206491 
L 943.654736 352.959398 
L 949.513125 353.2239 
L 949.513125 353.2239 
" style="fill:none;stroke:#e4d354;stroke-linecap:square;"/>
   </g>
   <g id="line2d_64">
    <path clip-path="url(#p047c6b5b20)" d="M 76.613125 326.533984 
L 82.471514 353.2239 
L 410.541313 353.2239 
L 416.399702 353.084605 
L 422.258091 353.2239 
L 433.97487 353.2239 
L 439.833259 353.104509 
L 445.691648 353.2239 
L 457.408427 353.2239 
L 463.266816 353.045841 
L 469.125206 353.2239 
L 474.983595 353.142849 
L 486.700373 353.2239 
L 685.885608 353.2239 
L 902.646011 353.2239 
L 908.5044 352.910207 
L 914.362789 353.2239 
L 937.796346 353.21011 
L 943.654736 352.944673 
L 949.513125 353.2239 
L 949.513125 353.2239 
" style="fill:none;stroke:#2b908f;stroke-linecap:square;"/>
   </g>
   <g id="line2d_65">
    <path clip-path="url(#p047c6b5b20)" d="M 76.613125 325.722212 
L 82.471514 353.2239 
L 410.541313 353.2239 
L 416.399702 353.078249 
L 422.258091 353.2239 
L 457.408427 353.2239 
L 463.266816 353.054555 
L 469.125206 353.2239 
L 474.983595 353.160964 
L 486.700373 353.2239 
L 592.15138 353.19137 
L 609.726548 353.2239 
L 656.593662 353.085636 
L 662.452051 353.2239 
L 902.646011 353.2239 
L 908.5044 352.926179 
L 914.362789 353.2239 
L 937.796346 353.211683 
L 943.654736 352.971384 
L 949.513125 353.2239 
L 949.513125 353.2239 
" style="fill:none;stroke:#f45b5b;stroke-linecap:square;"/>
   </g>
   <g id="line2d_66">
    <path clip-path="url(#p047c6b5b20)" d="M 76.613125 319.842856 
L 82.471514 353.2239 
L 410.541313 353.2239 
L 416.399702 353.083255 
L 422.258091 353.2239 
L 457.408427 353.2239 
L 463.266816 353.019884 
L 469.125206 353.2239 
L 474.983595 353.160472 
L 486.700373 353.2239 
L 633.160105 353.2239 
L 639.018494 353.0186 
L 644.876883 353.223308 
L 662.452051 353.2239 
L 902.646011 353.2239 
L 908.5044 352.899872 
L 914.362789 353.2239 
L 937.796346 353.207345 
L 943.654736 352.966511 
L 949.513125 353.2239 
L 949.513125 353.2239 
" style="fill:none;stroke:#91e8e1;stroke-linecap:square;"/>
   </g>
   <g id="line2d_67">
    <path clip-path="url(#p047c6b5b20)" d="M 76.613125 326.819837 
L 82.471514 353.2239 
L 410.541313 353.2239 
L 416.399702 353.098149 
L 422.258091 353.2239 
L 433.97487 353.2239 
L 439.833259 353.105615 
L 445.691648 353.2239 
L 457.408427 353.2239 
L 463.266816 353.058934 
L 469.125206 353.2239 
L 474.983595 353.157132 
L 486.700373 353.2239 
L 744.469501 353.211117 
L 773.761447 353.2239 
L 785.478226 353.2239 
L 902.646011 353.2239 
L 908.5044 352.927675 
L 914.362789 353.2239 
L 937.796346 353.207882 
L 943.654736 352.998073 
L 949.513125 353.2239 
L 949.513125 353.2239 
" style="fill:none;stroke:#7cb5ec;stroke-linecap:square;"/>
   </g>
   <g id="line2d_68">
    <path clip-path="url(#p047c6b5b20)" d="M 76.613125 327.071986 
L 82.471514 353.2239 
L 410.541313 353.2239 
L 416.399702 353.087567 
L 422.258091 353.2239 
L 457.408427 353.2239 
L 463.266816 353.045901 
L 469.125206 353.2239 
L 474.983595 353.166804 
L 486.700373 353.2239 
L 592.15138 353.19928 
L 621.443326 353.222529 
L 633.160105 353.2239 
L 639.018494 353.051672 
L 644.876883 353.222527 
L 668.31044 353.2239 
L 744.469501 353.203816 
L 773.761447 353.2239 
L 779.619836 353.167595 
L 791.336615 353.2239 
L 902.646011 353.2239 
L 908.5044 352.901475 
L 914.362789 353.2239 
L 937.796346 353.207179 
L 943.654736 352.960149 
L 949.513125 353.2239 
L 949.513125 353.2239 
" style="fill:none;stroke:#434348;stroke-linecap:square;"/>
   </g>
   <g id="line2d_69">
    <path clip-path="url(#p047c6b5b20)" d="M 76.613125 328.821827 
L 82.471514 353.2239 
L 949.513125 353.2239 
L 949.513125 353.2239 
" style="fill:none;stroke:#90ed7d;stroke-linecap:square;"/>
   </g>
   <g id="line2d_70">
    <path clip-path="url(#p047c6b5b20)" d="M 76.613125 329.388764 
L 82.471514 353.2239 
L 949.513125 353.2239 
L 949.513125 353.2239 
" style="fill:none;stroke:#f7a35c;stroke-linecap:square;"/>
   </g>
   <g id="line2d_71">
    <path clip-path="url(#p047c6b5b20)" d="M 76.613125 320.599874 
L 82.471514 353.2239 
L 223.072857 353.2239 
L 228.931246 352.447136 
L 234.789635 353.2239 
L 305.090306 353.2239 
L 310.948695 352.445902 
L 316.807085 353.2239 
L 410.541313 353.2239 
L 416.399702 352.442366 
L 422.258091 353.2239 
L 931.937957 353.2239 
L 937.796346 352.304655 
L 943.654736 353.2239 
L 949.513125 353.2239 
L 949.513125 353.2239 
" style="fill:none;stroke:#8085e9;stroke-linecap:square;"/>
   </g>
   <g id="line2d_72">
    <path clip-path="url(#p047c6b5b20)" d="M 76.613125 326.92464 
L 82.471514 353.2239 
L 410.541313 353.2239 
L 416.399702 352.709763 
L 422.258091 353.2239 
L 433.97487 353.2239 
L 439.833259 352.707509 
L 445.691648 353.2239 
L 902.646011 353.2239 
L 908.5044 352.571659 
L 914.362789 353.2239 
L 937.796346 353.2239 
L 943.654736 352.524224 
L 949.513125 353.2239 
L 949.513125 353.2239 
" style="fill:none;stroke:#f15c80;stroke-linecap:square;"/>
   </g>
   <g id="line2d_73">
    <path clip-path="url(#p047c6b5b20)" d="M 76.613125 323.646771 
L 82.471514 353.2239 
L 410.541313 353.2239 
L 416.399702 353.089559 
L 422.258091 353.2239 
L 457.408427 353.2239 
L 463.266816 353.037574 
L 469.125206 353.2239 
L 474.983595 353.160463 
L 486.700373 353.2239 
L 568.717823 353.2239 
L 633.160105 353.2239 
L 639.018494 353.051477 
L 644.876883 353.2239 
L 656.593662 353.070086 
L 662.452051 353.2239 
L 902.646011 353.2239 
L 908.5044 352.889202 
L 914.362789 353.2239 
L 937.796346 353.209025 
L 943.654736 352.953834 
L 949.513125 353.2239 
L 949.513125 353.2239 
" style="fill:none;stroke:#e4d354;stroke-linecap:square;"/>
   </g>
   <g id="line2d_74">
    <path clip-path="url(#p047c6b5b20)" d="M 76.613125 322.163005 
L 82.471514 353.2239 
L 410.541313 353.2239 
L 416.399702 353.069946 
L 422.258091 353.2239 
L 433.97487 353.2239 
L 439.833259 353.112064 
L 445.691648 353.2239 
L 457.408427 353.2239 
L 463.266816 353.048891 
L 469.125206 353.2239 
L 474.983595 353.147609 
L 486.700373 353.2239 
L 633.160105 353.2239 
L 639.018494 353.051212 
L 644.876883 353.2239 
L 656.593662 353.097618 
L 662.452051 353.2239 
L 902.646011 353.2239 
L 908.5044 352.913991 
L 914.362789 353.2239 
L 937.796346 353.211068 
L 943.654736 352.957339 
L 949.513125 353.2239 
L 949.513125 353.2239 
" style="fill:none;stroke:#2b908f;stroke-linecap:square;"/>
   </g>
   <g id="line2d_75">
    <path clip-path="url(#p047c6b5b20)" d="M 76.613125 328.379407 
L 82.471514 353.2239 
L 258.223192 353.2239 
L 264.081581 352.809826 
L 269.939971 353.2239 
L 410.541313 353.2239 
L 416.399702 352.807029 
L 422.258091 353.2239 
L 457.408427 353.2239 
L 463.266816 352.386207 
L 469.125206 353.2239 
L 633.160105 353.2239 
L 639.018494 352.355078 
L 644.876883 353.2239 
L 650.735273 353.2239 
L 656.593662 352.787161 
L 662.452051 353.2239 
L 902.646011 353.2239 
L 908.5044 352.729316 
L 914.362789 353.2239 
L 937.796346 353.2239 
L 943.654736 352.696065 
L 949.513125 353.2239 
L 949.513125 353.2239 
" style="fill:none;stroke:#f45b5b;stroke-linecap:square;"/>
   </g>
   <g id="line2d_76">
    <path clip-path="url(#p047c6b5b20)" d="M 76.613125 326.186381 
L 82.471514 353.2239 
L 410.541313 353.2239 
L 416.399702 353.096836 
L 422.258091 353.2239 
L 457.408427 353.2239 
L 463.266816 353.076187 
L 469.125206 353.2239 
L 474.983595 353.156622 
L 486.700373 353.2239 
L 580.434602 353.208494 
L 627.301716 353.222868 
L 633.160105 353.2239 
L 639.018494 353.066895 
L 644.876883 353.2239 
L 656.593662 353.090396 
L 662.452051 353.2239 
L 902.646011 353.2239 
L 908.5044 352.943662 
L 914.362789 353.2239 
L 937.796346 353.202834 
L 943.654736 353.003581 
L 949.513125 353.2239 
L 949.513125 353.2239 
" style="fill:none;stroke:#91e8e1;stroke-linecap:square;"/>
   </g>
   <g id="line2d_77">
    <path clip-path="url(#p047c6b5b20)" d="M 76.613125 324.602201 
L 82.471514 353.2239 
L 211.356078 353.2239 
L 217.214467 352.842277 
L 223.072857 353.2239 
L 410.541313 353.2239 
L 416.399702 352.839973 
L 422.258091 353.2239 
L 457.408427 353.2239 
L 463.266816 352.838625 
L 469.125206 353.2239 
L 633.160105 353.2239 
L 639.018494 352.827456 
L 644.876883 353.2239 
L 937.796346 353.2239 
L 943.654736 352.750134 
L 949.513125 353.2239 
L 949.513125 353.2239 
" style="fill:none;stroke:#7cb5ec;stroke-linecap:square;"/>
   </g>
   <g id="line2d_78">
    <path clip-path="url(#p047c6b5b20)" d="M 76.613125 324.289512 
L 82.471514 353.2239 
L 949.513125 353.2239 
L 949.513125 353.2239 
" style="fill:none;stroke:#434348;stroke-linecap:square;"/>
   </g>
   <g id="line2d_79">
    <path clip-path="url(#p047c6b5b20)" d="M 76.613125 329.792202 
L 82.471514 353.2239 
L 410.541313 353.2239 
L 416.399702 350.868584 
L 422.258091 353.2239 
L 949.513125 353.2239 
L 949.513125 353.2239 
" style="fill:none;stroke:#90ed7d;stroke-linecap:square;"/>
   </g>
   <g id="line2d_80">
    <path clip-path="url(#p047c6b5b20)" d="M 76.613125 328.398167 
L 82.471514 353.2239 
L 949.513125 353.2239 
L 949.513125 353.2239 
" style="fill:none;stroke:#f7a35c;stroke-linecap:square;"/>
   </g>
   <g id="line2d_81">
    <path clip-path="url(#p047c6b5b20)" d="M 76.613125 326.43109 
L 82.471514 353.2239 
L 410.541313 353.2239 
L 416.399702 353.081156 
L 422.258091 353.2239 
L 433.97487 353.2239 
L 439.833259 353.104004 
L 445.691648 353.2239 
L 457.408427 353.2239 
L 463.266816 353.055876 
L 469.125206 353.2239 
L 474.983595 353.149848 
L 486.700373 353.2239 
L 656.593662 353.091096 
L 662.452051 353.2239 
L 902.646011 353.2239 
L 908.5044 352.895289 
L 914.362789 353.2239 
L 937.796346 353.214201 
L 943.654736 352.96358 
L 949.513125 353.2239 
L 949.513125 353.2239 
" style="fill:none;stroke:#8085e9;stroke-linecap:square;"/>
   </g>
   <g id="line2d_82">
    <path clip-path="url(#p047c6b5b20)" d="M 76.613125 325.521192 
L 82.471514 353.2239 
L 457.408427 353.2239 
L 463.266816 353.048882 
L 469.125206 353.2239 
L 474.983595 353.160028 
L 486.700373 353.2239 
L 639.018494 353.054968 
L 644.876883 353.2239 
L 656.593662 353.088848 
L 662.452051 353.2239 
L 902.646011 353.223146 
L 908.5044 352.904555 
L 914.362789 353.2239 
L 937.796346 353.209282 
L 943.654736 352.962109 
L 949.513125 353.2239 
L 949.513125 353.2239 
" style="fill:none;stroke:#f15c80;stroke-linecap:square;"/>
   </g>
   <g id="line2d_83">
    <path clip-path="url(#p047c6b5b20)" d="M 76.613125 327.057741 
L 82.471514 353.2239 
L 410.541313 353.2239 
L 416.399702 353.087295 
L 422.258091 353.2239 
L 433.97487 353.2239 
L 439.833259 353.11036 
L 445.691648 353.2239 
L 457.408427 353.2239 
L 463.266816 353.044172 
L 469.125206 353.2239 
L 474.983595 353.145015 
L 486.700373 353.2239 
L 627.301716 353.216886 
L 633.160105 353.2239 
L 639.018494 353.053091 
L 644.876883 353.22273 
L 656.593662 353.091544 
L 662.452051 353.2239 
L 902.646011 353.2239 
L 908.5044 352.913283 
L 914.362789 353.2239 
L 937.796346 353.212823 
L 943.654736 352.966804 
L 949.513125 353.2239 
L 949.513125 353.2239 
" style="fill:none;stroke:#e4d354;stroke-linecap:square;"/>
   </g>
   <g id="line2d_84">
    <path clip-path="url(#p047c6b5b20)" d="M 76.613125 320.684136 
L 82.471514 353.2239 
L 152.772185 353.2239 
L 158.630575 352.68157 
L 164.488964 353.2239 
L 269.939971 353.2239 
L 275.79836 352.681338 
L 281.656749 353.2239 
L 433.97487 353.2239 
L 439.833259 352.670093 
L 445.691648 353.2239 
L 469.125206 353.2239 
L 474.983595 352.665572 
L 480.841984 353.2239 
L 750.32789 353.2239 
L 756.186279 352.595815 
L 762.044669 353.2239 
L 902.646011 353.2239 
L 908.5044 352.522526 
L 914.362789 353.2239 
L 937.796346 353.2239 
L 943.654736 352.472027 
L 949.513125 353.2239 
L 949.513125 353.2239 
" style="fill:none;stroke:#2b908f;stroke-linecap:square;"/>
   </g>
   <g id="line2d_85">
    <path clip-path="url(#p047c6b5b20)" d="M 76.613125 322.650069 
L 82.471514 353.2239 
L 949.513125 353.2239 
L 949.513125 353.2239 
" style="fill:none;stroke:#f45b5b;stroke-linecap:square;"/>
   </g>
   <g id="line2d_86">
    <path clip-path="url(#p047c6b5b20)" d="M 76.613125 327.090873 
L 82.471514 353.2239 
L 410.541313 353.2239 
L 416.399702 353.107065 
L 422.258091 353.2239 
L 433.97487 353.2239 
L 439.833259 353.105248 
L 445.691648 353.2239 
L 457.408427 353.2239 
L 463.266816 353.065277 
L 469.125206 353.2239 
L 474.983595 353.149321 
L 486.700373 353.2239 
L 592.15138 353.186379 
L 609.726548 353.2239 
L 662.452051 353.2239 
L 902.646011 353.2239 
L 908.5044 352.9076 
L 914.362789 353.2239 
L 937.796346 353.209966 
L 943.654736 352.9618 
L 949.513125 353.2239 
L 949.513125 353.2239 
" style="fill:none;stroke:#91e8e1;stroke-linecap:square;"/>
   </g>
   <g id="line2d_87">
    <path clip-path="url(#p047c6b5b20)" d="M 76.613125 324.769198 
L 82.471514 353.2239 
L 258.223192 353.2239 
L 264.081581 352.955459 
L 269.939971 353.2239 
L 574.576212 353.2239 
L 580.434602 352.942463 
L 586.292991 353.2239 
L 592.15138 352.941099 
L 598.009769 353.2239 
L 644.876883 353.2239 
L 650.735273 352.9351 
L 656.593662 352.934377 
L 662.452051 353.2239 
L 703.460776 353.2239 
L 709.319165 352.628984 
L 715.177555 353.2239 
L 773.761447 353.2239 
L 779.619836 352.913309 
L 785.478226 353.2239 
L 820.628561 353.2239 
L 826.486951 352.902411 
L 832.34534 353.2239 
L 873.354065 353.2239 
L 879.212454 352.887621 
L 885.070843 353.2239 
L 949.513125 353.2239 
L 949.513125 353.2239 
" style="fill:none;stroke:#7cb5ec;stroke-linecap:square;"/>
   </g>
   <g id="line2d_88">
    <path clip-path="url(#p047c6b5b20)" d="M 76.613125 333.982257 
L 82.471514 353.2239 
L 269.939971 353.2239 
L 275.79836 352.822932 
L 281.656749 353.2239 
L 433.97487 353.2239 
L 439.833259 352.819952 
L 445.691648 353.2239 
L 457.408427 353.2239 
L 463.266816 352.819515 
L 469.125206 353.2239 
L 474.983595 352.819026 
L 480.841984 353.2239 
L 633.160105 353.2239 
L 639.018494 352.809393 
L 644.876883 353.2239 
L 750.32789 353.2239 
L 756.186279 352.79898 
L 762.044669 353.2239 
L 902.646011 353.2239 
L 908.5044 352.772946 
L 914.362789 353.2239 
L 937.796346 353.2239 
L 943.654736 352.746757 
L 949.513125 353.2239 
L 949.513125 353.2239 
" style="fill:none;stroke:#434348;stroke-linecap:square;"/>
   </g>
   <g id="line2d_89">
    <path clip-path="url(#p047c6b5b20)" d="M 76.613125 327.028997 
L 82.471514 353.2239 
L 633.160105 353.2239 
L 639.018494 352.660127 
L 644.876883 353.2239 
L 902.646011 353.2239 
L 908.5044 352.608696 
L 914.362789 353.2239 
L 949.513125 353.2239 
L 949.513125 353.2239 
" style="fill:none;stroke:#90ed7d;stroke-linecap:square;"/>
   </g>
   <g id="line2d_90">
    <path clip-path="url(#p047c6b5b20)" d="M 32.968125 353.2239 
L 993.158125 353.2239 
" style="fill:none;stroke:#dedede;stroke-linecap:square;stroke-width:2;"/>
   </g>
   <g id="text_17">
    <!-- Fastp: Read N Content -->
    <defs>
     <path d="M 9.8125 72.90625 
L 51.703125 72.90625 
L 51.703125 64.59375 
L 19.671875 64.59375 
L 19.671875 43.109375 
L 48.578125 43.109375 
L 48.578125 34.8125 
L 19.671875 34.8125 
L 19.671875 0 
L 9.8125 0 
z
" id="DejaVuSans-70"/>
     <path d="M 18.109375 8.203125 
L 18.109375 -20.796875 
L 9.078125 -20.796875 
L 9.078125 54.6875 
L 18.109375 54.6875 
L 18.109375 46.390625 
Q 20.953125 51.265625 25.265625 53.625 
Q 29.59375 56 35.59375 56 
Q 45.5625 56 51.78125 48.09375 
Q 58.015625 40.1875 58.015625 27.296875 
Q 58.015625 14.40625 51.78125 6.484375 
Q 45.5625 -1.421875 35.59375 -1.421875 
Q 29.59375 -1.421875 25.265625 0.953125 
Q 20.953125 3.328125 18.109375 8.203125 
z
M 48.6875 27.296875 
Q 48.6875 37.203125 44.609375 42.84375 
Q 40.53125 48.484375 33.40625 48.484375 
Q 26.265625 48.484375 22.1875 42.84375 
Q 18.109375 37.203125 18.109375 27.296875 
Q 18.109375 17.390625 22.1875 11.75 
Q 26.265625 6.109375 33.40625 6.109375 
Q 40.53125 6.109375 44.609375 11.75 
Q 48.6875 17.390625 48.6875 27.296875 
z
" id="DejaVuSans-112"/>
     <path d="M 9.8125 72.90625 
L 23.09375 72.90625 
L 55.421875 11.921875 
L 55.421875 72.90625 
L 64.984375 72.90625 
L 64.984375 0 
L 51.703125 0 
L 19.390625 60.984375 
L 19.390625 0 
L 9.8125 0 
z
" id="DejaVuSans-78"/>
    </defs>
    <g transform="translate(422.606875 19.3575)scale(0.16 -0.16)">
     <use xlink:href="#DejaVuSans-70"/>
     <use x="57.378906" xlink:href="#DejaVuSans-97"/>
     <use x="118.658203" xlink:href="#DejaVuSans-115"/>
     <use x="170.757812" xlink:href="#DejaVuSans-116"/>
     <use x="209.966797" xlink:href="#DejaVuSans-112"/>
     <use x="273.443359" xlink:href="#DejaVuSans-58"/>
     <use x="307.134766" xlink:href="#DejaVuSans-32"/>
     <use x="338.921875" xlink:href="#DejaVuSans-82"/>
     <use x="408.341797" xlink:href="#DejaVuSans-101"/>
     <use x="469.865234" xlink:href="#DejaVuSans-97"/>
     <use x="531.144531" xlink:href="#DejaVuSans-100"/>
     <use x="594.621094" xlink:href="#DejaVuSans-32"/>
     <use x="626.408203" xlink:href="#DejaVuSans-78"/>
     <use x="701.212891" xlink:href="#DejaVuSans-32"/>
     <use x="733" xlink:href="#DejaVuSans-67"/>
     <use x="802.824219" xlink:href="#DejaVuSans-111"/>
     <use x="864.005859" xlink:href="#DejaVuSans-110"/>
     <use x="927.384766" xlink:href="#DejaVuSans-116"/>
     <use x="966.59375" xlink:href="#DejaVuSans-101"/>
     <use x="1028.117188" xlink:href="#DejaVuSans-110"/>
     <use x="1091.496094" xlink:href="#DejaVuSans-116"/>
    </g>
   </g>
  </g>
 </g>
 <defs>
  <clipPath id="p047c6b5b20">
   <rect height="317.968" width="960.19" x="32.968125" y="35.2559"/>
  </clipPath>
 </defs>
</svg>
