<?xml version="1.0" encoding="utf-8" standalone="no"?>
<!DOCTYPE svg PUBLIC "-//W3C//DTD SVG 1.1//EN"
  "http://www.w3.org/Graphics/SVG/1.1/DTD/svg11.dtd">
<!-- Created with matplotlib (https://matplotlib.org/) -->
<svg height="388.844525pt" version="1.1" viewBox="0 0 1000.358125 388.844525" width="1000.358125pt" xmlns="http://www.w3.org/2000/svg" xmlns:xlink="http://www.w3.org/1999/xlink">
 <defs>
  <style type="text/css">
*{stroke-linecap:butt;stroke-linejoin:round;}
  </style>
 </defs>
 <g id="figure_1">
  <g id="axes_1">
   <g id="patch_1">
    <path d="M 32.968125 353.2239 
L 993.158125 353.2239 
L 993.158125 35.2559 
L 32.968125 35.2559 
z
" style="fill:#ffffff;"/>
   </g>
   <g id="matplotlib.axis_1">
    <g id="xtick_1">
     <g id="text_1">
      <!-- 0 -->
      <defs>
       <path d="M 31.78125 66.40625 
Q 24.171875 66.40625 20.328125 58.90625 
Q 16.5 51.421875 16.5 36.375 
Q 16.5 21.390625 20.328125 13.890625 
Q 24.171875 6.390625 31.78125 6.390625 
Q 39.453125 6.390625 43.28125 13.890625 
Q 47.125 21.390625 47.125 36.375 
Q 47.125 51.421875 43.28125 58.90625 
Q 39.453125 66.40625 31.78125 66.40625 
z
M 31.78125 74.21875 
Q 44.046875 74.21875 50.515625 64.515625 
Q 56.984375 54.828125 56.984375 36.375 
Q 56.984375 17.96875 50.515625 8.265625 
Q 44.046875 -1.421875 31.78125 -1.421875 
Q 19.53125 -1.421875 13.0625 8.265625 
Q 6.59375 17.96875 6.59375 36.375 
Q 6.59375 54.828125 13.0625 64.515625 
Q 19.53125 74.21875 31.78125 74.21875 
z
" id="DejaVuSans-48"/>
      </defs>
      <g transform="translate(68.209736 366.30265)scale(0.08 -0.08)">
       <use xlink:href="#DejaVuSans-48"/>
      </g>
     </g>
    </g>
    <g id="xtick_2">
     <g id="text_2">
      <!-- 20 -->
      <defs>
       <path d="M 19.1875 8.296875 
L 53.609375 8.296875 
L 53.609375 0 
L 7.328125 0 
L 7.328125 8.296875 
Q 12.9375 14.109375 22.625 23.890625 
Q 32.328125 33.6875 34.8125 36.53125 
Q 39.546875 41.84375 41.421875 45.53125 
Q 43.3125 49.21875 43.3125 52.78125 
Q 43.3125 58.59375 39.234375 62.25 
Q 35.15625 65.921875 28.609375 65.921875 
Q 23.96875 65.921875 18.8125 64.3125 
Q 13.671875 62.703125 7.8125 59.421875 
L 7.8125 69.390625 
Q 13.765625 71.78125 18.9375 73 
Q 24.125 74.21875 28.421875 74.21875 
Q 39.75 74.21875 46.484375 68.546875 
Q 53.21875 62.890625 53.21875 53.421875 
Q 53.21875 48.921875 51.53125 44.890625 
Q 49.859375 40.875 45.40625 35.40625 
Q 44.1875 33.984375 37.640625 27.21875 
Q 31.109375 20.453125 19.1875 8.296875 
z
" id="DejaVuSans-50"/>
      </defs>
      <g transform="translate(182.832521 366.30265)scale(0.08 -0.08)">
       <use xlink:href="#DejaVuSans-50"/>
       <use x="63.623047" xlink:href="#DejaVuSans-48"/>
      </g>
     </g>
    </g>
    <g id="xtick_3">
     <g id="text_3">
      <!-- 40 -->
      <defs>
       <path d="M 37.796875 64.3125 
L 12.890625 25.390625 
L 37.796875 25.390625 
z
M 35.203125 72.90625 
L 47.609375 72.90625 
L 47.609375 25.390625 
L 58.015625 25.390625 
L 58.015625 17.1875 
L 47.609375 17.1875 
L 47.609375 0 
L 37.796875 0 
L 37.796875 17.1875 
L 4.890625 17.1875 
L 4.890625 26.703125 
z
" id="DejaVuSans-52"/>
      </defs>
      <g transform="translate(300.000306 366.30265)scale(0.08 -0.08)">
       <use xlink:href="#DejaVuSans-52"/>
       <use x="63.623047" xlink:href="#DejaVuSans-48"/>
      </g>
     </g>
    </g>
    <g id="xtick_4">
     <g id="text_4">
      <!-- 60 -->
      <defs>
       <path d="M 33.015625 40.375 
Q 26.375 40.375 22.484375 35.828125 
Q 18.609375 31.296875 18.609375 23.390625 
Q 18.609375 15.53125 22.484375 10.953125 
Q 26.375 6.390625 33.015625 6.390625 
Q 39.65625 6.390625 43.53125 10.953125 
Q 47.40625 15.53125 47.40625 23.390625 
Q 47.40625 31.296875 43.53125 35.828125 
Q 39.65625 40.375 33.015625 40.375 
z
M 52.59375 71.296875 
L 52.59375 62.3125 
Q 48.875 64.0625 45.09375 64.984375 
Q 41.3125 65.921875 37.59375 65.921875 
Q 27.828125 65.921875 22.671875 59.328125 
Q 17.53125 52.734375 16.796875 39.40625 
Q 19.671875 43.65625 24.015625 45.921875 
Q 28.375 48.1875 33.59375 48.1875 
Q 44.578125 48.1875 50.953125 41.515625 
Q 57.328125 34.859375 57.328125 23.390625 
Q 57.328125 12.15625 50.6875 5.359375 
Q 44.046875 -1.421875 33.015625 -1.421875 
Q 20.359375 -1.421875 13.671875 8.265625 
Q 6.984375 17.96875 6.984375 36.375 
Q 6.984375 53.65625 15.1875 63.9375 
Q 23.390625 74.21875 37.203125 74.21875 
Q 40.921875 74.21875 44.703125 73.484375 
Q 48.484375 72.75 52.59375 71.296875 
z
" id="DejaVuSans-54"/>
      </defs>
      <g transform="translate(417.168091 366.30265)scale(0.08 -0.08)">
       <use xlink:href="#DejaVuSans-54"/>
       <use x="63.623047" xlink:href="#DejaVuSans-48"/>
      </g>
     </g>
    </g>
    <g id="xtick_5">
     <g id="text_5">
      <!-- 80 -->
      <defs>
       <path d="M 31.78125 34.625 
Q 24.75 34.625 20.71875 30.859375 
Q 16.703125 27.09375 16.703125 20.515625 
Q 16.703125 13.921875 20.71875 10.15625 
Q 24.75 6.390625 31.78125 6.390625 
Q 38.8125 6.390625 42.859375 10.171875 
Q 46.921875 13.96875 46.921875 20.515625 
Q 46.921875 27.09375 42.890625 30.859375 
Q 38.875 34.625 31.78125 34.625 
z
M 21.921875 38.8125 
Q 15.578125 40.375 12.03125 44.71875 
Q 8.5 49.078125 8.5 55.328125 
Q 8.5 64.0625 14.71875 69.140625 
Q 20.953125 74.21875 31.78125 74.21875 
Q 42.671875 74.21875 48.875 69.140625 
Q 55.078125 64.0625 55.078125 55.328125 
Q 55.078125 49.078125 51.53125 44.71875 
Q 48 40.375 41.703125 38.8125 
Q 48.828125 37.15625 52.796875 32.3125 
Q 56.78125 27.484375 56.78125 20.515625 
Q 56.78125 9.90625 50.3125 4.234375 
Q 43.84375 -1.421875 31.78125 -1.421875 
Q 19.734375 -1.421875 13.25 4.234375 
Q 6.78125 9.90625 6.78125 20.515625 
Q 6.78125 27.484375 10.78125 32.3125 
Q 14.796875 37.15625 21.921875 38.8125 
z
M 18.3125 54.390625 
Q 18.3125 48.734375 21.84375 45.5625 
Q 25.390625 42.390625 31.78125 42.390625 
Q 38.140625 42.390625 41.71875 45.5625 
Q 45.3125 48.734375 45.3125 54.390625 
Q 45.3125 60.0625 41.71875 63.234375 
Q 38.140625 66.40625 31.78125 66.40625 
Q 25.390625 66.40625 21.84375 63.234375 
Q 18.3125 60.0625 18.3125 54.390625 
z
" id="DejaVuSans-56"/>
      </defs>
      <g transform="translate(534.335877 366.30265)scale(0.08 -0.08)">
       <use xlink:href="#DejaVuSans-56"/>
       <use x="63.623047" xlink:href="#DejaVuSans-48"/>
      </g>
     </g>
    </g>
    <g id="xtick_6">
     <g id="text_6">
      <!-- 100 -->
      <defs>
       <path d="M 12.40625 8.296875 
L 28.515625 8.296875 
L 28.515625 63.921875 
L 10.984375 60.40625 
L 10.984375 69.390625 
L 28.421875 72.90625 
L 38.28125 72.90625 
L 38.28125 8.296875 
L 54.390625 8.296875 
L 54.390625 0 
L 12.40625 0 
z
" id="DejaVuSans-49"/>
      </defs>
      <g transform="translate(648.958662 366.30265)scale(0.08 -0.08)">
       <use xlink:href="#DejaVuSans-49"/>
       <use x="63.623047" xlink:href="#DejaVuSans-48"/>
       <use x="127.246094" xlink:href="#DejaVuSans-48"/>
      </g>
     </g>
    </g>
    <g id="xtick_7">
     <g id="text_7">
      <!-- 120 -->
      <g transform="translate(766.126447 366.30265)scale(0.08 -0.08)">
       <use xlink:href="#DejaVuSans-49"/>
       <use x="63.623047" xlink:href="#DejaVuSans-50"/>
       <use x="127.246094" xlink:href="#DejaVuSans-48"/>
      </g>
     </g>
    </g>
    <g id="xtick_8">
     <g id="text_8">
      <!-- 140 -->
      <g transform="translate(883.294232 366.30265)scale(0.08 -0.08)">
       <use xlink:href="#DejaVuSans-49"/>
       <use x="63.623047" xlink:href="#DejaVuSans-52"/>
       <use x="127.246094" xlink:href="#DejaVuSans-48"/>
      </g>
     </g>
    </g>
    <g id="text_9">
     <!-- Read Position -->
     <defs>
      <path d="M 44.390625 34.1875 
Q 47.5625 33.109375 50.5625 29.59375 
Q 53.5625 26.078125 56.59375 19.921875 
L 66.609375 0 
L 56 0 
L 46.6875 18.703125 
Q 43.0625 26.03125 39.671875 28.421875 
Q 36.28125 30.8125 30.421875 30.8125 
L 19.671875 30.8125 
L 19.671875 0 
L 9.8125 0 
L 9.8125 72.90625 
L 32.078125 72.90625 
Q 44.578125 72.90625 50.734375 67.671875 
Q 56.890625 62.453125 56.890625 51.90625 
Q 56.890625 45.015625 53.6875 40.46875 
Q 50.484375 35.9375 44.390625 34.1875 
z
M 19.671875 64.796875 
L 19.671875 38.921875 
L 32.078125 38.921875 
Q 39.203125 38.921875 42.84375 42.21875 
Q 46.484375 45.515625 46.484375 51.90625 
Q 46.484375 58.296875 42.84375 61.546875 
Q 39.203125 64.796875 32.078125 64.796875 
z
" id="DejaVuSans-82"/>
      <path d="M 56.203125 29.59375 
L 56.203125 25.203125 
L 14.890625 25.203125 
Q 15.484375 15.921875 20.484375 11.0625 
Q 25.484375 6.203125 34.421875 6.203125 
Q 39.59375 6.203125 44.453125 7.46875 
Q 49.3125 8.734375 54.109375 11.28125 
L 54.109375 2.78125 
Q 49.265625 0.734375 44.1875 -0.34375 
Q 39.109375 -1.421875 33.890625 -1.421875 
Q 20.796875 -1.421875 13.15625 6.1875 
Q 5.515625 13.8125 5.515625 26.8125 
Q 5.515625 40.234375 12.765625 48.109375 
Q 20.015625 56 32.328125 56 
Q 43.359375 56 49.78125 48.890625 
Q 56.203125 41.796875 56.203125 29.59375 
z
M 47.21875 32.234375 
Q 47.125 39.59375 43.09375 43.984375 
Q 39.0625 48.390625 32.421875 48.390625 
Q 24.90625 48.390625 20.390625 44.140625 
Q 15.875 39.890625 15.1875 32.171875 
z
" id="DejaVuSans-101"/>
      <path d="M 34.28125 27.484375 
Q 23.390625 27.484375 19.1875 25 
Q 14.984375 22.515625 14.984375 16.5 
Q 14.984375 11.71875 18.140625 8.90625 
Q 21.296875 6.109375 26.703125 6.109375 
Q 34.1875 6.109375 38.703125 11.40625 
Q 43.21875 16.703125 43.21875 25.484375 
L 43.21875 27.484375 
z
M 52.203125 31.203125 
L 52.203125 0 
L 43.21875 0 
L 43.21875 8.296875 
Q 40.140625 3.328125 35.546875 0.953125 
Q 30.953125 -1.421875 24.3125 -1.421875 
Q 15.921875 -1.421875 10.953125 3.296875 
Q 6 8.015625 6 15.921875 
Q 6 25.140625 12.171875 29.828125 
Q 18.359375 34.515625 30.609375 34.515625 
L 43.21875 34.515625 
L 43.21875 35.40625 
Q 43.21875 41.609375 39.140625 45 
Q 35.0625 48.390625 27.6875 48.390625 
Q 23 48.390625 18.546875 47.265625 
Q 14.109375 46.140625 10.015625 43.890625 
L 10.015625 52.203125 
Q 14.9375 54.109375 19.578125 55.046875 
Q 24.21875 56 28.609375 56 
Q 40.484375 56 46.34375 49.84375 
Q 52.203125 43.703125 52.203125 31.203125 
z
" id="DejaVuSans-97"/>
      <path d="M 45.40625 46.390625 
L 45.40625 75.984375 
L 54.390625 75.984375 
L 54.390625 0 
L 45.40625 0 
L 45.40625 8.203125 
Q 42.578125 3.328125 38.25 0.953125 
Q 33.9375 -1.421875 27.875 -1.421875 
Q 17.96875 -1.421875 11.734375 6.484375 
Q 5.515625 14.40625 5.515625 27.296875 
Q 5.515625 40.1875 11.734375 48.09375 
Q 17.96875 56 27.875 56 
Q 33.9375 56 38.25 53.625 
Q 42.578125 51.265625 45.40625 46.390625 
z
M 14.796875 27.296875 
Q 14.796875 17.390625 18.875 11.75 
Q 22.953125 6.109375 30.078125 6.109375 
Q 37.203125 6.109375 41.296875 11.75 
Q 45.40625 17.390625 45.40625 27.296875 
Q 45.40625 37.203125 41.296875 42.84375 
Q 37.203125 48.484375 30.078125 48.484375 
Q 22.953125 48.484375 18.875 42.84375 
Q 14.796875 37.203125 14.796875 27.296875 
z
" id="DejaVuSans-100"/>
      <path id="DejaVuSans-32"/>
      <path d="M 19.671875 64.796875 
L 19.671875 37.40625 
L 32.078125 37.40625 
Q 38.96875 37.40625 42.71875 40.96875 
Q 46.484375 44.53125 46.484375 51.125 
Q 46.484375 57.671875 42.71875 61.234375 
Q 38.96875 64.796875 32.078125 64.796875 
z
M 9.8125 72.90625 
L 32.078125 72.90625 
Q 44.34375 72.90625 50.609375 67.359375 
Q 56.890625 61.8125 56.890625 51.125 
Q 56.890625 40.328125 50.609375 34.8125 
Q 44.34375 29.296875 32.078125 29.296875 
L 19.671875 29.296875 
L 19.671875 0 
L 9.8125 0 
z
" id="DejaVuSans-80"/>
      <path d="M 30.609375 48.390625 
Q 23.390625 48.390625 19.1875 42.75 
Q 14.984375 37.109375 14.984375 27.296875 
Q 14.984375 17.484375 19.15625 11.84375 
Q 23.34375 6.203125 30.609375 6.203125 
Q 37.796875 6.203125 41.984375 11.859375 
Q 46.1875 17.53125 46.1875 27.296875 
Q 46.1875 37.015625 41.984375 42.703125 
Q 37.796875 48.390625 30.609375 48.390625 
z
M 30.609375 56 
Q 42.328125 56 49.015625 48.375 
Q 55.71875 40.765625 55.71875 27.296875 
Q 55.71875 13.875 49.015625 6.21875 
Q 42.328125 -1.421875 30.609375 -1.421875 
Q 18.84375 -1.421875 12.171875 6.21875 
Q 5.515625 13.875 5.515625 27.296875 
Q 5.515625 40.765625 12.171875 48.375 
Q 18.84375 56 30.609375 56 
z
" id="DejaVuSans-111"/>
      <path d="M 44.28125 53.078125 
L 44.28125 44.578125 
Q 40.484375 46.53125 36.375 47.5 
Q 32.28125 48.484375 27.875 48.484375 
Q 21.1875 48.484375 17.84375 46.4375 
Q 14.5 44.390625 14.5 40.28125 
Q 14.5 37.15625 16.890625 35.375 
Q 19.28125 33.59375 26.515625 31.984375 
L 29.59375 31.296875 
Q 39.15625 29.25 43.1875 25.515625 
Q 47.21875 21.78125 47.21875 15.09375 
Q 47.21875 7.46875 41.1875 3.015625 
Q 35.15625 -1.421875 24.609375 -1.421875 
Q 20.21875 -1.421875 15.453125 -0.5625 
Q 10.6875 0.296875 5.421875 2 
L 5.421875 11.28125 
Q 10.40625 8.6875 15.234375 7.390625 
Q 20.0625 6.109375 24.8125 6.109375 
Q 31.15625 6.109375 34.5625 8.28125 
Q 37.984375 10.453125 37.984375 14.40625 
Q 37.984375 18.0625 35.515625 20.015625 
Q 33.0625 21.96875 24.703125 23.78125 
L 21.578125 24.515625 
Q 13.234375 26.265625 9.515625 29.90625 
Q 5.8125 33.546875 5.8125 39.890625 
Q 5.8125 47.609375 11.28125 51.796875 
Q 16.75 56 26.8125 56 
Q 31.78125 56 36.171875 55.265625 
Q 40.578125 54.546875 44.28125 53.078125 
z
" id="DejaVuSans-115"/>
      <path d="M 9.421875 54.6875 
L 18.40625 54.6875 
L 18.40625 0 
L 9.421875 0 
z
M 9.421875 75.984375 
L 18.40625 75.984375 
L 18.40625 64.59375 
L 9.421875 64.59375 
z
" id="DejaVuSans-105"/>
      <path d="M 18.3125 70.21875 
L 18.3125 54.6875 
L 36.8125 54.6875 
L 36.8125 47.703125 
L 18.3125 47.703125 
L 18.3125 18.015625 
Q 18.3125 11.328125 20.140625 9.421875 
Q 21.96875 7.515625 27.59375 7.515625 
L 36.8125 7.515625 
L 36.8125 0 
L 27.59375 0 
Q 17.1875 0 13.234375 3.875 
Q 9.28125 7.765625 9.28125 18.015625 
L 9.28125 47.703125 
L 2.6875 47.703125 
L 2.6875 54.6875 
L 9.28125 54.6875 
L 9.28125 70.21875 
z
" id="DejaVuSans-116"/>
      <path d="M 54.890625 33.015625 
L 54.890625 0 
L 45.90625 0 
L 45.90625 32.71875 
Q 45.90625 40.484375 42.875 44.328125 
Q 39.84375 48.1875 33.796875 48.1875 
Q 26.515625 48.1875 22.3125 43.546875 
Q 18.109375 38.921875 18.109375 30.90625 
L 18.109375 0 
L 9.078125 0 
L 9.078125 54.6875 
L 18.109375 54.6875 
L 18.109375 46.1875 
Q 21.34375 51.125 25.703125 53.5625 
Q 30.078125 56 35.796875 56 
Q 45.21875 56 50.046875 50.171875 
Q 54.890625 44.34375 54.890625 33.015625 
z
" id="DejaVuSans-110"/>
     </defs>
     <g transform="translate(479.045156 379.564837)scale(0.1 -0.1)">
      <use xlink:href="#DejaVuSans-82"/>
      <use x="69.419922" xlink:href="#DejaVuSans-101"/>
      <use x="130.943359" xlink:href="#DejaVuSans-97"/>
      <use x="192.222656" xlink:href="#DejaVuSans-100"/>
      <use x="255.699219" xlink:href="#DejaVuSans-32"/>
      <use x="287.486328" xlink:href="#DejaVuSans-80"/>
      <use x="347.742188" xlink:href="#DejaVuSans-111"/>
      <use x="408.923828" xlink:href="#DejaVuSans-115"/>
      <use x="461.023438" xlink:href="#DejaVuSans-105"/>
      <use x="488.806641" xlink:href="#DejaVuSans-116"/>
      <use x="528.015625" xlink:href="#DejaVuSans-105"/>
      <use x="555.798828" xlink:href="#DejaVuSans-111"/>
      <use x="616.980469" xlink:href="#DejaVuSans-110"/>
     </g>
    </g>
   </g>
   <g id="matplotlib.axis_2">
    <g id="ytick_1">
     <g id="line2d_1">
      <path clip-path="url(#p5e3802ca55)" d="M 32.968125 353.2239 
L 993.158125 353.2239 
" style="fill:none;stroke:#dedede;stroke-linecap:square;"/>
     </g>
     <g id="text_10">
      <!-- 0 -->
      <g transform="translate(20.878125 356.263275)scale(0.08 -0.08)">
       <use xlink:href="#DejaVuSans-48"/>
      </g>
     </g>
    </g>
    <g id="ytick_2">
     <g id="line2d_2">
      <path clip-path="url(#p5e3802ca55)" d="M 32.968125 289.6303 
L 993.158125 289.6303 
" style="fill:none;stroke:#dedede;stroke-linecap:square;"/>
     </g>
     <g id="text_11">
      <!-- 1 -->
      <g transform="translate(20.878125 292.669675)scale(0.08 -0.08)">
       <use xlink:href="#DejaVuSans-49"/>
      </g>
     </g>
    </g>
    <g id="ytick_3">
     <g id="line2d_3">
      <path clip-path="url(#p5e3802ca55)" d="M 32.968125 226.0367 
L 993.158125 226.0367 
" style="fill:none;stroke:#dedede;stroke-linecap:square;"/>
     </g>
     <g id="text_12">
      <!-- 2 -->
      <g transform="translate(20.878125 229.076075)scale(0.08 -0.08)">
       <use xlink:href="#DejaVuSans-50"/>
      </g>
     </g>
    </g>
    <g id="ytick_4">
     <g id="line2d_4">
      <path clip-path="url(#p5e3802ca55)" d="M 32.968125 162.4431 
L 993.158125 162.4431 
" style="fill:none;stroke:#dedede;stroke-linecap:square;"/>
     </g>
     <g id="text_13">
      <!-- 3 -->
      <defs>
       <path d="M 40.578125 39.3125 
Q 47.65625 37.796875 51.625 33 
Q 55.609375 28.21875 55.609375 21.1875 
Q 55.609375 10.40625 48.1875 4.484375 
Q 40.765625 -1.421875 27.09375 -1.421875 
Q 22.515625 -1.421875 17.65625 -0.515625 
Q 12.796875 0.390625 7.625 2.203125 
L 7.625 11.71875 
Q 11.71875 9.328125 16.59375 8.109375 
Q 21.484375 6.890625 26.8125 6.890625 
Q 36.078125 6.890625 40.9375 10.546875 
Q 45.796875 14.203125 45.796875 21.1875 
Q 45.796875 27.640625 41.28125 31.265625 
Q 36.765625 34.90625 28.71875 34.90625 
L 20.21875 34.90625 
L 20.21875 43.015625 
L 29.109375 43.015625 
Q 36.375 43.015625 40.234375 45.921875 
Q 44.09375 48.828125 44.09375 54.296875 
Q 44.09375 59.90625 40.109375 62.90625 
Q 36.140625 65.921875 28.71875 65.921875 
Q 24.65625 65.921875 20.015625 65.03125 
Q 15.375 64.15625 9.8125 62.3125 
L 9.8125 71.09375 
Q 15.4375 72.65625 20.34375 73.4375 
Q 25.25 74.21875 29.59375 74.21875 
Q 40.828125 74.21875 47.359375 69.109375 
Q 53.90625 64.015625 53.90625 55.328125 
Q 53.90625 49.265625 50.4375 45.09375 
Q 46.96875 40.921875 40.578125 39.3125 
z
" id="DejaVuSans-51"/>
      </defs>
      <g transform="translate(20.878125 165.482475)scale(0.08 -0.08)">
       <use xlink:href="#DejaVuSans-51"/>
      </g>
     </g>
    </g>
    <g id="ytick_5">
     <g id="line2d_5">
      <path clip-path="url(#p5e3802ca55)" d="M 32.968125 98.8495 
L 993.158125 98.8495 
" style="fill:none;stroke:#dedede;stroke-linecap:square;"/>
     </g>
     <g id="text_14">
      <!-- 4 -->
      <g transform="translate(20.878125 101.888875)scale(0.08 -0.08)">
       <use xlink:href="#DejaVuSans-52"/>
      </g>
     </g>
    </g>
    <g id="ytick_6">
     <g id="line2d_6">
      <path clip-path="url(#p5e3802ca55)" d="M 32.968125 35.2559 
L 993.158125 35.2559 
" style="fill:none;stroke:#dedede;stroke-linecap:square;"/>
     </g>
     <g id="text_15">
      <!-- 5 -->
      <defs>
       <path d="M 10.796875 72.90625 
L 49.515625 72.90625 
L 49.515625 64.59375 
L 19.828125 64.59375 
L 19.828125 46.734375 
Q 21.96875 47.46875 24.109375 47.828125 
Q 26.265625 48.1875 28.421875 48.1875 
Q 40.625 48.1875 47.75 41.5 
Q 54.890625 34.8125 54.890625 23.390625 
Q 54.890625 11.625 47.5625 5.09375 
Q 40.234375 -1.421875 26.90625 -1.421875 
Q 22.3125 -1.421875 17.546875 -0.640625 
Q 12.796875 0.140625 7.71875 1.703125 
L 7.71875 11.625 
Q 12.109375 9.234375 16.796875 8.0625 
Q 21.484375 6.890625 26.703125 6.890625 
Q 35.15625 6.890625 40.078125 11.328125 
Q 45.015625 15.765625 45.015625 23.390625 
Q 45.015625 31 40.078125 35.4375 
Q 35.15625 39.890625 26.703125 39.890625 
Q 22.75 39.890625 18.8125 39.015625 
Q 14.890625 38.140625 10.796875 36.28125 
z
" id="DejaVuSans-53"/>
      </defs>
      <g transform="translate(20.878125 38.295275)scale(0.08 -0.08)">
       <use xlink:href="#DejaVuSans-53"/>
      </g>
     </g>
    </g>
    <g id="text_16">
     <!-- R2 After filtering: Base Content Percent -->
     <defs>
      <path d="M 34.1875 63.1875 
L 20.796875 26.90625 
L 47.609375 26.90625 
z
M 28.609375 72.90625 
L 39.796875 72.90625 
L 67.578125 0 
L 57.328125 0 
L 50.6875 18.703125 
L 17.828125 18.703125 
L 11.1875 0 
L 0.78125 0 
z
" id="DejaVuSans-65"/>
      <path d="M 37.109375 75.984375 
L 37.109375 68.5 
L 28.515625 68.5 
Q 23.6875 68.5 21.796875 66.546875 
Q 19.921875 64.59375 19.921875 59.515625 
L 19.921875 54.6875 
L 34.71875 54.6875 
L 34.71875 47.703125 
L 19.921875 47.703125 
L 19.921875 0 
L 10.890625 0 
L 10.890625 47.703125 
L 2.296875 47.703125 
L 2.296875 54.6875 
L 10.890625 54.6875 
L 10.890625 58.5 
Q 10.890625 67.625 15.140625 71.796875 
Q 19.390625 75.984375 28.609375 75.984375 
z
" id="DejaVuSans-102"/>
      <path d="M 41.109375 46.296875 
Q 39.59375 47.171875 37.8125 47.578125 
Q 36.03125 48 33.890625 48 
Q 26.265625 48 22.1875 43.046875 
Q 18.109375 38.09375 18.109375 28.8125 
L 18.109375 0 
L 9.078125 0 
L 9.078125 54.6875 
L 18.109375 54.6875 
L 18.109375 46.1875 
Q 20.953125 51.171875 25.484375 53.578125 
Q 30.03125 56 36.53125 56 
Q 37.453125 56 38.578125 55.875 
Q 39.703125 55.765625 41.0625 55.515625 
z
" id="DejaVuSans-114"/>
      <path d="M 9.421875 75.984375 
L 18.40625 75.984375 
L 18.40625 0 
L 9.421875 0 
z
" id="DejaVuSans-108"/>
      <path d="M 45.40625 27.984375 
Q 45.40625 37.75 41.375 43.109375 
Q 37.359375 48.484375 30.078125 48.484375 
Q 22.859375 48.484375 18.828125 43.109375 
Q 14.796875 37.75 14.796875 27.984375 
Q 14.796875 18.265625 18.828125 12.890625 
Q 22.859375 7.515625 30.078125 7.515625 
Q 37.359375 7.515625 41.375 12.890625 
Q 45.40625 18.265625 45.40625 27.984375 
z
M 54.390625 6.78125 
Q 54.390625 -7.171875 48.1875 -13.984375 
Q 42 -20.796875 29.203125 -20.796875 
Q 24.46875 -20.796875 20.265625 -20.09375 
Q 16.0625 -19.390625 12.109375 -17.921875 
L 12.109375 -9.1875 
Q 16.0625 -11.328125 19.921875 -12.34375 
Q 23.78125 -13.375 27.78125 -13.375 
Q 36.625 -13.375 41.015625 -8.765625 
Q 45.40625 -4.15625 45.40625 5.171875 
L 45.40625 9.625 
Q 42.625 4.78125 38.28125 2.390625 
Q 33.9375 0 27.875 0 
Q 17.828125 0 11.671875 7.65625 
Q 5.515625 15.328125 5.515625 27.984375 
Q 5.515625 40.671875 11.671875 48.328125 
Q 17.828125 56 27.875 56 
Q 33.9375 56 38.28125 53.609375 
Q 42.625 51.21875 45.40625 46.390625 
L 45.40625 54.6875 
L 54.390625 54.6875 
z
" id="DejaVuSans-103"/>
      <path d="M 11.71875 12.40625 
L 22.015625 12.40625 
L 22.015625 0 
L 11.71875 0 
z
M 11.71875 51.703125 
L 22.015625 51.703125 
L 22.015625 39.3125 
L 11.71875 39.3125 
z
" id="DejaVuSans-58"/>
      <path d="M 19.671875 34.8125 
L 19.671875 8.109375 
L 35.5 8.109375 
Q 43.453125 8.109375 47.28125 11.40625 
Q 51.125 14.703125 51.125 21.484375 
Q 51.125 28.328125 47.28125 31.5625 
Q 43.453125 34.8125 35.5 34.8125 
z
M 19.671875 64.796875 
L 19.671875 42.828125 
L 34.28125 42.828125 
Q 41.5 42.828125 45.03125 45.53125 
Q 48.578125 48.25 48.578125 53.8125 
Q 48.578125 59.328125 45.03125 62.0625 
Q 41.5 64.796875 34.28125 64.796875 
z
M 9.8125 72.90625 
L 35.015625 72.90625 
Q 46.296875 72.90625 52.390625 68.21875 
Q 58.5 63.53125 58.5 54.890625 
Q 58.5 48.1875 55.375 44.234375 
Q 52.25 40.28125 46.1875 39.3125 
Q 53.46875 37.75 57.5 32.78125 
Q 61.53125 27.828125 61.53125 20.40625 
Q 61.53125 10.640625 54.890625 5.3125 
Q 48.25 0 35.984375 0 
L 9.8125 0 
z
" id="DejaVuSans-66"/>
      <path d="M 64.40625 67.28125 
L 64.40625 56.890625 
Q 59.421875 61.53125 53.78125 63.8125 
Q 48.140625 66.109375 41.796875 66.109375 
Q 29.296875 66.109375 22.65625 58.46875 
Q 16.015625 50.828125 16.015625 36.375 
Q 16.015625 21.96875 22.65625 14.328125 
Q 29.296875 6.6875 41.796875 6.6875 
Q 48.140625 6.6875 53.78125 8.984375 
Q 59.421875 11.28125 64.40625 15.921875 
L 64.40625 5.609375 
Q 59.234375 2.09375 53.4375 0.328125 
Q 47.65625 -1.421875 41.21875 -1.421875 
Q 24.65625 -1.421875 15.125 8.703125 
Q 5.609375 18.84375 5.609375 36.375 
Q 5.609375 53.953125 15.125 64.078125 
Q 24.65625 74.21875 41.21875 74.21875 
Q 47.75 74.21875 53.53125 72.484375 
Q 59.328125 70.75 64.40625 67.28125 
z
" id="DejaVuSans-67"/>
      <path d="M 48.78125 52.59375 
L 48.78125 44.1875 
Q 44.96875 46.296875 41.140625 47.34375 
Q 37.3125 48.390625 33.40625 48.390625 
Q 24.65625 48.390625 19.8125 42.84375 
Q 14.984375 37.3125 14.984375 27.296875 
Q 14.984375 17.28125 19.8125 11.734375 
Q 24.65625 6.203125 33.40625 6.203125 
Q 37.3125 6.203125 41.140625 7.25 
Q 44.96875 8.296875 48.78125 10.40625 
L 48.78125 2.09375 
Q 45.015625 0.34375 40.984375 -0.53125 
Q 36.96875 -1.421875 32.421875 -1.421875 
Q 20.0625 -1.421875 12.78125 6.34375 
Q 5.515625 14.109375 5.515625 27.296875 
Q 5.515625 40.671875 12.859375 48.328125 
Q 20.21875 56 33.015625 56 
Q 37.15625 56 41.109375 55.140625 
Q 45.0625 54.296875 48.78125 52.59375 
z
" id="DejaVuSans-99"/>
     </defs>
     <g transform="translate(14.798438 293.315681)rotate(-90)scale(0.1 -0.1)">
      <use xlink:href="#DejaVuSans-82"/>
      <use x="69.482422" xlink:href="#DejaVuSans-50"/>
      <use x="133.105469" xlink:href="#DejaVuSans-32"/>
      <use x="164.892578" xlink:href="#DejaVuSans-65"/>
      <use x="233.253906" xlink:href="#DejaVuSans-102"/>
      <use x="268.443359" xlink:href="#DejaVuSans-116"/>
      <use x="307.652344" xlink:href="#DejaVuSans-101"/>
      <use x="369.175781" xlink:href="#DejaVuSans-114"/>
      <use x="410.289062" xlink:href="#DejaVuSans-32"/>
      <use x="442.076172" xlink:href="#DejaVuSans-102"/>
      <use x="477.28125" xlink:href="#DejaVuSans-105"/>
      <use x="505.064453" xlink:href="#DejaVuSans-108"/>
      <use x="532.847656" xlink:href="#DejaVuSans-116"/>
      <use x="572.056641" xlink:href="#DejaVuSans-101"/>
      <use x="633.580078" xlink:href="#DejaVuSans-114"/>
      <use x="674.693359" xlink:href="#DejaVuSans-105"/>
      <use x="702.476562" xlink:href="#DejaVuSans-110"/>
      <use x="765.855469" xlink:href="#DejaVuSans-103"/>
      <use x="829.332031" xlink:href="#DejaVuSans-58"/>
      <use x="863.023438" xlink:href="#DejaVuSans-32"/>
      <use x="894.810547" xlink:href="#DejaVuSans-66"/>
      <use x="963.414062" xlink:href="#DejaVuSans-97"/>
      <use x="1024.693359" xlink:href="#DejaVuSans-115"/>
      <use x="1076.792969" xlink:href="#DejaVuSans-101"/>
      <use x="1138.316406" xlink:href="#DejaVuSans-32"/>
      <use x="1170.103516" xlink:href="#DejaVuSans-67"/>
      <use x="1239.927734" xlink:href="#DejaVuSans-111"/>
      <use x="1301.109375" xlink:href="#DejaVuSans-110"/>
      <use x="1364.488281" xlink:href="#DejaVuSans-116"/>
      <use x="1403.697266" xlink:href="#DejaVuSans-101"/>
      <use x="1465.220703" xlink:href="#DejaVuSans-110"/>
      <use x="1528.599609" xlink:href="#DejaVuSans-116"/>
      <use x="1567.808594" xlink:href="#DejaVuSans-32"/>
      <use x="1599.595703" xlink:href="#DejaVuSans-80"/>
      <use x="1659.851562" xlink:href="#DejaVuSans-101"/>
      <use x="1721.375" xlink:href="#DejaVuSans-114"/>
      <use x="1762.457031" xlink:href="#DejaVuSans-99"/>
      <use x="1817.4375" xlink:href="#DejaVuSans-101"/>
      <use x="1878.960938" xlink:href="#DejaVuSans-110"/>
      <use x="1942.339844" xlink:href="#DejaVuSans-116"/>
     </g>
    </g>
   </g>
   <g id="line2d_7">
    <path clip-path="url(#p5e3802ca55)" d="M 76.613125 301.602558 
L 82.471514 352.721295 
L 88.329904 353.2239 
L 117.62185 353.2239 
L 123.480239 352.379905 
L 129.338628 353.2239 
L 310.948695 353.2239 
L 316.807085 353.109622 
L 322.665474 352.818802 
L 328.523863 352.775446 
L 334.382253 353.219123 
L 369.532588 353.2239 
L 375.390977 353.04983 
L 381.249367 353.219053 
L 416.399702 353.159765 
L 422.258091 352.466411 
L 428.116481 353.2239 
L 439.833259 353.168776 
L 445.691648 352.695345 
L 451.550038 353.2239 
L 533.567487 353.2239 
L 539.425877 352.282683 
L 545.284266 353.2239 
L 592.15138 353.2239 
L 598.009769 352.808967 
L 603.868159 353.198854 
L 662.452051 353.216836 
L 703.460776 353.216154 
L 779.619836 353.2239 
L 814.770172 353.213816 
L 826.486951 353.2239 
L 832.34534 352.697969 
L 838.203729 353.2239 
L 949.513125 353.2239 
L 949.513125 353.2239 
" style="fill:none;stroke:#7cb5ec;stroke-linecap:square;"/>
   </g>
   <g id="line2d_8">
    <path clip-path="url(#p5e3802ca55)" d="M 76.613125 304.203664 
L 82.471514 352.741931 
L 88.329904 353.2239 
L 117.62185 353.2239 
L 123.480239 352.340292 
L 129.338628 353.2239 
L 264.081581 353.2239 
L 269.939971 353.09836 
L 281.656749 353.2239 
L 299.231917 353.2239 
L 310.948695 353.2239 
L 316.807085 353.107976 
L 322.665474 352.865752 
L 328.523863 352.814943 
L 334.382253 353.218846 
L 369.532588 353.2239 
L 375.390977 353.045259 
L 381.249367 353.203447 
L 410.541313 353.213561 
L 416.399702 353.156537 
L 422.258091 352.439282 
L 428.116481 353.2239 
L 439.833259 353.166216 
L 445.691648 352.718903 
L 451.550038 353.2239 
L 533.567487 353.218252 
L 539.425877 352.365628 
L 545.284266 353.2239 
L 592.15138 353.2239 
L 598.009769 352.790407 
L 603.868159 353.205437 
L 644.876883 353.2239 
L 826.486951 353.197386 
L 832.34534 352.527188 
L 838.203729 353.2239 
L 949.513125 353.2239 
L 949.513125 353.2239 
" style="fill:none;stroke:#434348;stroke-linecap:square;"/>
   </g>
   <g id="line2d_9">
    <path clip-path="url(#p5e3802ca55)" d="M 76.613125 299.688645 
L 82.471514 352.796743 
L 88.329904 353.2239 
L 117.62185 353.218493 
L 123.480239 352.347955 
L 129.338628 353.2239 
L 264.081581 353.2239 
L 269.939971 353.094105 
L 281.656749 353.2239 
L 305.090306 353.2239 
L 316.807085 353.120758 
L 322.665474 352.903356 
L 328.523863 352.805165 
L 334.382253 353.213012 
L 351.95742 353.174716 
L 357.81581 353.119905 
L 369.532588 353.2239 
L 375.390977 353.080793 
L 387.107756 353.2239 
L 416.399702 353.151057 
L 422.258091 352.453718 
L 428.116481 353.2239 
L 439.833259 353.201175 
L 445.691648 352.721961 
L 451.550038 353.2239 
L 533.567487 353.2239 
L 539.425877 352.393177 
L 545.284266 353.2239 
L 592.15138 353.2239 
L 598.009769 352.843697 
L 603.868159 353.202938 
L 656.593662 353.2239 
L 826.486951 353.200501 
L 832.34534 352.677245 
L 838.203729 353.2239 
L 949.513125 353.2239 
L 949.513125 353.2239 
" style="fill:none;stroke:#90ed7d;stroke-linecap:square;"/>
   </g>
   <g id="line2d_10">
    <path clip-path="url(#p5e3802ca55)" d="M 76.613125 304.976962 
L 82.471514 352.197366 
L 88.329904 353.2239 
L 316.807085 353.2239 
L 322.665474 352.192208 
L 328.523863 353.2239 
L 949.513125 353.2239 
L 949.513125 353.2239 
" style="fill:none;stroke:#f7a35c;stroke-linecap:square;"/>
   </g>
   <g id="line2d_11">
    <path clip-path="url(#p5e3802ca55)" d="M 76.613125 315.449238 
L 82.471514 353.2239 
L 322.665474 353.2239 
L 328.523863 351.326153 
L 334.382253 353.2239 
L 439.833259 353.2239 
L 445.691648 351.238463 
L 451.550038 353.2239 
L 533.567487 353.2239 
L 539.425877 348.872641 
L 545.284266 353.2239 
L 592.15138 353.2239 
L 598.009769 350.873805 
L 603.868159 353.2239 
L 949.513125 353.2239 
L 949.513125 353.2239 
" style="fill:none;stroke:#8085e9;stroke-linecap:square;"/>
   </g>
   <g id="line2d_12">
    <path clip-path="url(#p5e3802ca55)" d="M 76.613125 299.491887 
L 82.471514 352.755381 
L 88.329904 353.2239 
L 117.62185 353.2239 
L 123.480239 352.358614 
L 129.338628 353.2239 
L 310.948695 353.2239 
L 316.807085 353.100913 
L 322.665474 352.863063 
L 328.523863 352.922152 
L 334.382253 353.21539 
L 369.532588 353.2239 
L 375.390977 353.120558 
L 387.107756 353.2239 
L 416.399702 353.197589 
L 422.258091 352.458411 
L 428.116481 353.2239 
L 439.833259 353.179426 
L 445.691648 352.813059 
L 451.550038 353.2239 
L 533.567487 353.2239 
L 539.425877 352.440274 
L 545.284266 353.2239 
L 592.15138 353.2239 
L 598.009769 352.833491 
L 603.868159 353.218419 
L 674.16883 353.204867 
L 691.743997 353.171045 
L 709.319165 353.2239 
L 826.486951 353.2239 
L 832.34534 352.732956 
L 838.203729 353.2239 
L 949.513125 353.2239 
L 949.513125 353.2239 
" style="fill:none;stroke:#f15c80;stroke-linecap:square;"/>
   </g>
   <g id="line2d_13">
    <path clip-path="url(#p5e3802ca55)" d="M 76.613125 322.447269 
L 82.471514 352.084023 
L 88.329904 353.2239 
L 316.807085 353.2239 
L 322.665474 352.078071 
L 328.523863 353.2239 
L 533.567487 353.2239 
L 539.425877 350.62771 
L 545.284266 353.2239 
L 592.15138 353.2239 
L 598.009769 350.440809 
L 603.868159 353.2239 
L 949.513125 353.2239 
L 949.513125 353.2239 
" style="fill:none;stroke:#e4d354;stroke-linecap:square;"/>
   </g>
   <g id="line2d_14">
    <path clip-path="url(#p5e3802ca55)" d="M 76.613125 311.794832 
L 82.471514 353.2239 
L 949.513125 353.2239 
L 949.513125 353.2239 
" style="fill:none;stroke:#2b908f;stroke-linecap:square;"/>
   </g>
   <g id="line2d_15">
    <path clip-path="url(#p5e3802ca55)" d="M 76.613125 322.380432 
L 82.471514 353.2239 
L 433.97487 353.2239 
L 439.833259 350.21853 
L 445.691648 353.2239 
L 533.567487 353.2239 
L 539.425877 349.932308 
L 545.284266 353.2239 
L 592.15138 353.2239 
L 598.009769 349.633068 
L 603.868159 353.2239 
L 668.31044 353.2239 
L 674.16883 349.113133 
L 680.027219 353.2239 
L 738.611112 353.2239 
L 744.469501 348.547901 
L 750.32789 353.2239 
L 949.513125 353.2239 
L 949.513125 353.2239 
" style="fill:none;stroke:#f45b5b;stroke-linecap:square;"/>
   </g>
   <g id="line2d_16">
    <path clip-path="url(#p5e3802ca55)" d="M 76.613125 294.53502 
L 82.471514 353.2239 
L 949.513125 353.2239 
L 949.513125 353.2239 
" style="fill:none;stroke:#91e8e1;stroke-linecap:square;"/>
   </g>
   <g id="line2d_17">
    <path clip-path="url(#p5e3802ca55)" d="M 76.613125 299.743018 
L 82.471514 353.2239 
L 949.513125 353.2239 
L 949.513125 353.2239 
" style="fill:none;stroke:#7cb5ec;stroke-linecap:square;"/>
   </g>
   <g id="line2d_18">
    <path clip-path="url(#p5e3802ca55)" d="M 76.613125 318.62453 
L 82.471514 353.2239 
L 949.513125 353.2239 
L 949.513125 353.2239 
" style="fill:none;stroke:#434348;stroke-linecap:square;"/>
   </g>
   <g id="line2d_19">
    <path clip-path="url(#p5e3802ca55)" d="M 76.613125 308.360714 
L 82.471514 353.2239 
L 117.62185 353.2239 
L 123.480239 352.361145 
L 129.338628 353.2239 
L 346.099031 353.2239 
L 351.95742 352.351682 
L 357.81581 353.2239 
L 369.532588 353.2239 
L 375.390977 352.343103 
L 381.249367 353.2239 
L 416.399702 353.2239 
L 422.258091 352.325176 
L 428.116481 353.2239 
L 433.97487 353.2239 
L 439.833259 352.313469 
L 445.691648 353.2239 
L 533.567487 353.2239 
L 539.425877 351.246489 
L 545.284266 353.2239 
L 592.15138 353.2239 
L 598.009769 352.163299 
L 603.868159 353.2239 
L 668.31044 353.2239 
L 674.16883 352.039883 
L 680.027219 353.2239 
L 738.611112 353.2239 
L 744.469501 351.883391 
L 750.32789 353.2239 
L 949.513125 353.2239 
L 949.513125 353.2239 
" style="fill:none;stroke:#90ed7d;stroke-linecap:square;"/>
   </g>
   <g id="line2d_20">
    <path clip-path="url(#p5e3802ca55)" d="M 76.613125 301.792576 
L 82.471514 352.730948 
L 88.329904 353.2239 
L 117.62185 353.2239 
L 123.480239 352.44339 
L 129.338628 353.2239 
L 310.948695 353.2239 
L 322.665474 352.811452 
L 328.523863 352.955611 
L 334.382253 353.2239 
L 369.532588 353.2239 
L 375.390977 353.098871 
L 387.107756 353.2239 
L 416.399702 353.192171 
L 422.258091 352.555792 
L 428.116481 353.2239 
L 439.833259 353.213199 
L 445.691648 352.826611 
L 451.550038 353.2239 
L 533.567487 353.2239 
L 539.425877 352.509025 
L 545.284266 353.2239 
L 592.15138 353.2239 
L 598.009769 352.904142 
L 603.868159 353.210981 
L 656.593662 353.2239 
L 732.752722 353.2239 
L 738.611112 353.071949 
L 744.469501 353.2239 
L 826.486951 353.203299 
L 832.34534 352.827142 
L 838.203729 353.2239 
L 949.513125 353.2239 
L 949.513125 353.2239 
" style="fill:none;stroke:#f7a35c;stroke-linecap:square;"/>
   </g>
   <g id="line2d_21">
    <path clip-path="url(#p5e3802ca55)" d="M 76.613125 299.938187 
L 82.471514 352.968944 
L 88.329904 353.2239 
L 117.62185 353.2239 
L 123.480239 352.968944 
L 129.338628 353.2239 
L 264.081581 353.2239 
L 269.939971 352.968842 
L 275.79836 353.2239 
L 316.807085 353.2239 
L 328.523863 352.705383 
L 334.382253 353.2239 
L 416.399702 353.2239 
L 422.258091 352.935663 
L 428.116481 353.2239 
L 439.833259 353.2239 
L 445.691648 352.315287 
L 451.550038 353.2239 
L 533.567487 353.2239 
L 539.425877 352.002668 
L 545.284266 353.2239 
L 826.486951 353.2239 
L 832.34534 350.504479 
L 838.203729 353.2239 
L 949.513125 353.2239 
L 949.513125 353.2239 
" style="fill:none;stroke:#8085e9;stroke-linecap:square;"/>
   </g>
   <g id="line2d_22">
    <path clip-path="url(#p5e3802ca55)" d="M 76.613125 303.391383 
L 82.471514 352.734318 
L 88.329904 353.2239 
L 117.62185 353.2239 
L 123.480239 352.472039 
L 129.338628 353.2239 
L 310.948695 353.2239 
L 322.665474 352.828387 
L 328.523863 352.951156 
L 334.382253 353.215092 
L 369.532588 353.2239 
L 375.390977 353.081404 
L 381.249367 353.214975 
L 416.399702 353.187666 
L 422.258091 352.5061 
L 428.116481 353.2239 
L 439.833259 353.205543 
L 445.691648 352.855388 
L 451.550038 353.2239 
L 533.567487 353.2239 
L 539.425877 352.460357 
L 545.284266 353.2239 
L 592.15138 353.2239 
L 598.009769 352.876035 
L 603.868159 353.2239 
L 674.16883 353.211608 
L 680.027219 353.099704 
L 685.885608 353.2239 
L 691.743997 353.09712 
L 697.602387 353.2239 
L 826.486951 353.207592 
L 832.34534 352.778264 
L 838.203729 353.2239 
L 949.513125 353.2239 
L 949.513125 353.2239 
" style="fill:none;stroke:#f15c80;stroke-linecap:square;"/>
   </g>
   <g id="line2d_23">
    <path clip-path="url(#p5e3802ca55)" d="M 76.613125 290.621533 
L 82.471514 351.919684 
L 88.329904 353.2239 
L 316.807085 353.2239 
L 322.665474 351.915659 
L 328.523863 353.2239 
L 351.95742 353.2239 
L 357.81581 351.907805 
L 363.674199 353.2239 
L 949.513125 353.2239 
L 949.513125 353.2239 
" style="fill:none;stroke:#e4d354;stroke-linecap:square;"/>
   </g>
   <g id="line2d_24">
    <path clip-path="url(#p5e3802ca55)" d="M 76.613125 321.296479 
L 82.471514 351.288906 
L 88.329904 353.2239 
L 117.62185 353.2239 
L 123.480239 352.2564 
L 129.338628 353.2239 
L 316.807085 353.2239 
L 322.665474 352.251369 
L 328.523863 353.2239 
L 416.399702 353.2239 
L 422.258091 352.218307 
L 428.116481 353.2239 
L 439.833259 353.2239 
L 445.691648 352.203954 
L 451.550038 353.2239 
L 533.567487 353.2239 
L 539.425877 352.116386 
L 545.284266 353.2239 
L 826.486951 353.2239 
L 832.34534 351.556088 
L 838.203729 353.2239 
L 949.513125 353.2239 
L 949.513125 353.2239 
" style="fill:none;stroke:#2b908f;stroke-linecap:square;"/>
   </g>
   <g id="line2d_25">
    <path clip-path="url(#p5e3802ca55)" d="M 76.613125 316.314683 
L 82.471514 353.2239 
L 117.62185 353.2239 
L 123.480239 352.226352 
L 129.338628 353.2239 
L 322.665474 353.2239 
L 328.523863 351.215894 
L 334.382253 353.2239 
L 416.399702 353.2239 
L 422.258091 352.193378 
L 428.116481 353.2239 
L 439.833259 353.2239 
L 445.691648 351.137152 
L 451.550038 353.2239 
L 533.567487 353.2239 
L 539.425877 350.984687 
L 545.284266 353.2239 
L 826.486951 353.2239 
L 832.34534 349.906553 
L 838.203729 353.2239 
L 949.513125 353.2239 
L 949.513125 353.2239 
" style="fill:none;stroke:#f45b5b;stroke-linecap:square;"/>
   </g>
   <g id="line2d_26">
    <path clip-path="url(#p5e3802ca55)" d="M 76.613125 305.511085 
L 82.471514 352.764131 
L 88.329904 353.2239 
L 117.62185 353.219603 
L 123.480239 352.325844 
L 129.338628 353.2239 
L 310.948695 353.2239 
L 328.523863 352.767942 
L 334.382253 353.219551 
L 369.532588 353.2239 
L 375.390977 353.109397 
L 387.107756 353.2239 
L 416.399702 353.138836 
L 422.258091 352.42491 
L 428.116481 353.2239 
L 439.833259 353.17864 
L 445.691648 352.701901 
L 451.550038 353.2239 
L 533.567487 353.2239 
L 539.425877 352.385469 
L 545.284266 353.2239 
L 592.15138 353.2239 
L 598.009769 352.859352 
L 603.868159 353.213719 
L 668.31044 353.218474 
L 791.336615 353.211431 
L 826.486951 353.191343 
L 832.34534 352.627046 
L 838.203729 353.2239 
L 949.513125 353.2239 
L 949.513125 353.2239 
" style="fill:none;stroke:#91e8e1;stroke-linecap:square;"/>
   </g>
   <g id="line2d_27">
    <path clip-path="url(#p5e3802ca55)" d="M 76.613125 301.827934 
L 82.471514 352.721563 
L 88.329904 353.2239 
L 117.62185 353.218735 
L 123.480239 352.361272 
L 129.338628 353.2239 
L 316.807085 353.088738 
L 322.665474 352.829641 
L 328.523863 352.830449 
L 334.382253 353.222595 
L 369.532588 353.2239 
L 375.390977 353.103765 
L 387.107756 353.2239 
L 416.399702 353.168885 
L 422.258091 352.42332 
L 428.116481 353.2239 
L 439.833259 353.176399 
L 445.691648 352.713358 
L 451.550038 353.2239 
L 533.567487 353.21809 
L 539.425877 352.265614 
L 545.284266 353.2239 
L 592.15138 353.2239 
L 598.009769 352.863202 
L 603.868159 353.21446 
L 674.16883 353.218659 
L 680.027219 353.151562 
L 685.885608 353.2239 
L 697.602387 353.218443 
L 826.486951 353.193075 
L 832.34534 352.622965 
L 838.203729 353.2239 
L 949.513125 353.2239 
L 949.513125 353.2239 
" style="fill:none;stroke:#7cb5ec;stroke-linecap:square;"/>
   </g>
   <g id="line2d_28">
    <path clip-path="url(#p5e3802ca55)" d="M 76.613125 327.053671 
L 82.471514 353.2239 
L 949.513125 353.2239 
L 949.513125 353.2239 
" style="fill:none;stroke:#434348;stroke-linecap:square;"/>
   </g>
   <g id="line2d_29">
    <path clip-path="url(#p5e3802ca55)" d="M 76.613125 315.594549 
L 82.471514 347.848276 
L 88.329904 353.2239 
L 316.807085 353.2239 
L 322.665474 347.811678 
L 328.523863 353.2239 
L 949.513125 353.2239 
L 949.513125 353.2239 
" style="fill:none;stroke:#90ed7d;stroke-linecap:square;"/>
   </g>
   <g id="line2d_30">
    <path clip-path="url(#p5e3802ca55)" d="M 76.613125 302.771599 
L 82.471514 352.706659 
L 88.329904 353.2239 
L 117.62185 353.2239 
L 123.480239 352.378061 
L 129.338628 353.2239 
L 264.081581 353.2239 
L 269.939971 353.077761 
L 281.656749 353.2239 
L 299.231917 353.2239 
L 310.948695 353.2239 
L 322.665474 352.85413 
L 328.523863 352.915127 
L 334.382253 353.2239 
L 351.95742 353.142839 
L 357.81581 353.1051 
L 363.674199 353.2239 
L 369.532588 353.2239 
L 375.390977 353.110309 
L 387.107756 353.2239 
L 410.541313 353.210998 
L 416.399702 353.068449 
L 422.258091 352.417323 
L 428.116481 353.2239 
L 439.833259 353.151392 
L 445.691648 352.786819 
L 451.550038 353.2239 
L 533.567487 353.2239 
L 539.425877 352.420179 
L 545.284266 353.2239 
L 592.15138 353.2239 
L 598.009769 352.843205 
L 603.868159 353.191887 
L 627.301716 353.2239 
L 826.486951 353.185882 
L 832.34534 352.670832 
L 838.203729 353.2239 
L 949.513125 353.2239 
L 949.513125 353.2239 
" style="fill:none;stroke:#f7a35c;stroke-linecap:square;"/>
   </g>
   <g id="line2d_31">
    <path clip-path="url(#p5e3802ca55)" d="M 76.613125 299.580027 
L 82.471514 352.687599 
L 88.329904 353.2239 
L 117.62185 353.2239 
L 123.480239 352.508834 
L 129.338628 353.2239 
L 264.081581 353.2239 
L 269.939971 353.0863 
L 281.656749 353.2239 
L 316.807085 353.126573 
L 322.665474 352.805957 
L 328.523863 352.902749 
L 334.382253 353.2239 
L 369.532588 353.2239 
L 375.390977 353.109425 
L 381.249367 353.2239 
L 416.399702 353.150054 
L 422.258091 352.629866 
L 428.116481 353.2239 
L 439.833259 353.193679 
L 445.691648 352.767565 
L 451.550038 353.2239 
L 492.558763 353.207732 
L 527.709098 353.2239 
L 533.567487 353.206556 
L 539.425877 352.417209 
L 545.284266 353.2239 
L 592.15138 353.2239 
L 598.009769 352.944968 
L 603.868159 353.2037 
L 639.018494 353.2239 
L 826.486951 353.184654 
L 832.34534 352.783551 
L 838.203729 353.2239 
L 949.513125 353.2239 
L 949.513125 353.2239 
" style="fill:none;stroke:#8085e9;stroke-linecap:square;"/>
   </g>
   <g id="line2d_32">
    <path clip-path="url(#p5e3802ca55)" d="M 76.613125 297.044042 
L 82.471514 352.220686 
L 88.329904 353.2239 
L 117.62185 353.2239 
L 123.480239 351.217477 
L 129.338628 353.2239 
L 269.939971 353.2239 
L 275.79836 352.220686 
L 281.656749 353.2239 
L 416.399702 353.2239 
L 422.258091 351.166189 
L 428.116481 353.2239 
L 533.567487 353.2239 
L 539.425877 351.017704 
L 545.284266 353.2239 
L 592.15138 353.2239 
L 598.009769 350.88073 
L 603.868159 353.2239 
L 949.513125 353.2239 
L 949.513125 353.2239 
" style="fill:none;stroke:#f15c80;stroke-linecap:square;"/>
   </g>
   <g id="line2d_33">
    <path clip-path="url(#p5e3802ca55)" d="M 76.613125 314.713142 
L 82.471514 351.770665 
L 88.329904 353.2239 
L 117.62185 353.2239 
L 123.480239 352.49728 
L 129.338628 353.2239 
L 264.081581 353.2239 
L 269.939971 352.497114 
L 275.79836 353.2239 
L 316.807085 353.2239 
L 322.665474 351.765832 
L 334.382253 353.2239 
L 346.099031 353.2239 
L 351.95742 352.490577 
L 357.81581 353.2239 
L 416.399702 353.2239 
L 422.258091 352.471047 
L 428.116481 353.2239 
L 433.97487 353.2239 
L 439.833259 352.464026 
L 445.691648 352.460745 
L 451.550038 353.2239 
L 469.125206 353.2239 
L 474.983595 352.444471 
L 480.841984 353.2239 
L 533.567487 353.2239 
L 539.425877 350.732964 
L 545.284266 353.2239 
L 568.717823 353.2239 
L 574.576212 352.35656 
L 580.434602 353.2239 
L 592.15138 353.2239 
L 598.009769 352.331612 
L 603.868159 353.2239 
L 662.452051 353.2239 
L 668.31044 352.237646 
L 674.16883 353.2239 
L 826.486951 353.2239 
L 832.34534 350.563633 
L 838.203729 353.2239 
L 949.513125 353.2239 
L 949.513125 353.2239 
" style="fill:none;stroke:#e4d354;stroke-linecap:square;"/>
   </g>
   <g id="line2d_34">
    <path clip-path="url(#p5e3802ca55)" d="M 76.613125 304.962717 
L 82.471514 352.657479 
L 88.329904 353.2239 
L 117.62185 353.2239 
L 123.480239 352.316578 
L 129.338628 353.2239 
L 316.807085 353.129285 
L 322.665474 352.792681 
L 328.523863 352.776663 
L 334.382253 353.2239 
L 416.399702 353.170401 
L 422.258091 352.425292 
L 428.116481 353.2239 
L 439.833259 353.175353 
L 445.691648 352.710232 
L 451.550038 353.2239 
L 533.567487 353.2239 
L 539.425877 352.384286 
L 545.284266 353.2239 
L 592.15138 353.2239 
L 598.009769 352.887956 
L 603.868159 353.205451 
L 644.876883 353.2239 
L 826.486951 353.206776 
L 832.34534 352.627241 
L 838.203729 353.2239 
L 949.513125 353.2239 
L 949.513125 353.2239 
" style="fill:none;stroke:#2b908f;stroke-linecap:square;"/>
   </g>
   <g id="line2d_35">
    <path clip-path="url(#p5e3802ca55)" d="M 76.613125 316.183172 
L 82.471514 353.2239 
L 949.513125 353.2239 
L 949.513125 353.2239 
" style="fill:none;stroke:#f45b5b;stroke-linecap:square;"/>
   </g>
   <g id="line2d_36">
    <path clip-path="url(#p5e3802ca55)" d="M 76.613125 306.204573 
L 82.471514 351.754544 
L 88.329904 353.2239 
L 369.532588 353.2239 
L 375.390977 351.727931 
L 381.249367 353.2239 
L 949.513125 353.2239 
L 949.513125 353.2239 
" style="fill:none;stroke:#91e8e1;stroke-linecap:square;"/>
   </g>
   <g id="line2d_37">
    <path clip-path="url(#p5e3802ca55)" d="M 76.613125 311.272347 
L 82.471514 353.2239 
L 949.513125 353.2239 
L 949.513125 353.2239 
" style="fill:none;stroke:#7cb5ec;stroke-linecap:square;"/>
   </g>
   <g id="line2d_38">
    <path clip-path="url(#p5e3802ca55)" d="M 76.613125 303.09758 
L 82.471514 353.2239 
L 117.62185 353.2239 
L 123.480239 351.553023 
L 129.338628 353.2239 
L 264.081581 353.2239 
L 269.939971 351.553023 
L 275.79836 353.2239 
L 322.665474 353.2239 
L 328.523863 348.182123 
L 334.382253 353.2239 
L 416.399702 353.2239 
L 422.258091 351.493461 
L 428.116481 353.2239 
L 439.833259 353.2239 
L 445.691648 347.9769 
L 451.550038 353.2239 
L 533.567487 353.2239 
L 539.425877 347.606092 
L 545.284266 353.2239 
L 592.15138 353.2239 
L 598.009769 351.212078 
L 603.868159 353.2239 
L 826.486951 353.2239 
L 832.34534 347.556019 
L 838.203729 353.2239 
L 949.513125 353.2239 
L 949.513125 353.2239 
" style="fill:none;stroke:#434348;stroke-linecap:square;"/>
   </g>
   <g id="line2d_39">
    <path clip-path="url(#p5e3802ca55)" d="M 76.613125 312.607558 
L 82.471514 353.2239 
L 117.62185 353.2239 
L 123.480239 344.520416 
L 129.338628 353.2239 
L 416.399702 353.2239 
L 422.258091 344.069347 
L 428.116481 353.2239 
L 557.001044 353.2239 
L 562.859434 349.671186 
L 568.717823 353.2239 
L 592.15138 353.2239 
L 598.009769 349.440818 
L 603.868159 353.2239 
L 615.584937 353.2239 
L 621.443326 349.324843 
L 627.301716 353.2239 
L 949.513125 353.2239 
L 949.513125 353.2239 
" style="fill:none;stroke:#90ed7d;stroke-linecap:square;"/>
   </g>
   <g id="line2d_40">
    <path clip-path="url(#p5e3802ca55)" d="M 76.613125 347.741693 
L 82.471514 353.2239 
L 117.62185 353.2239 
L 123.480239 347.741693 
L 129.338628 353.2239 
L 416.399702 353.2239 
L 422.258091 347.474027 
L 428.116481 353.2239 
L 949.513125 353.2239 
L 949.513125 353.2239 
" style="fill:none;stroke:#f7a35c;stroke-linecap:square;"/>
   </g>
   <g id="line2d_41">
    <path clip-path="url(#p5e3802ca55)" d="M 76.613125 300.467349 
L 82.471514 352.766869 
L 88.329904 353.2239 
L 117.62185 353.2239 
L 123.480239 352.313437 
L 129.338628 353.2239 
L 264.081581 353.2239 
L 269.939971 353.101477 
L 281.656749 353.2239 
L 293.373528 353.2239 
L 316.807085 353.114797 
L 322.665474 352.903186 
L 328.523863 352.847635 
L 334.382253 353.220238 
L 369.532588 353.2239 
L 375.390977 353.055264 
L 381.249367 353.205086 
L 410.541313 353.212349 
L 416.399702 353.181325 
L 422.258091 352.402913 
L 428.116481 353.2239 
L 439.833259 353.180367 
L 445.691648 352.722297 
L 451.550038 353.2239 
L 533.567487 353.2239 
L 539.425877 352.385387 
L 545.284266 353.2239 
L 592.15138 353.2239 
L 598.009769 352.888111 
L 603.868159 353.213918 
L 674.16883 353.212415 
L 680.027219 353.148304 
L 685.885608 353.2239 
L 691.743997 353.158237 
L 703.460776 353.2239 
L 826.486951 353.206924 
L 832.34534 352.593334 
L 838.203729 353.2239 
L 949.513125 353.2239 
L 949.513125 353.2239 
" style="fill:none;stroke:#8085e9;stroke-linecap:square;"/>
   </g>
   <g id="line2d_42">
    <path clip-path="url(#p5e3802ca55)" d="M 76.613125 317.182036 
L 82.471514 352.840818 
L 88.329904 353.2239 
L 117.62185 353.2239 
L 123.480239 352.475034 
L 129.338628 353.2239 
L 316.807085 353.157062 
L 322.665474 352.926789 
L 328.523863 352.864826 
L 334.382253 353.2239 
L 416.399702 353.176727 
L 422.258091 352.563347 
L 428.116481 353.2239 
L 439.833259 353.194082 
L 445.691648 352.779011 
L 451.550038 353.2239 
L 533.567487 353.2239 
L 539.425877 352.440274 
L 545.284266 353.2239 
L 592.15138 353.2239 
L 598.009769 352.925963 
L 603.868159 353.208872 
L 662.452051 353.2239 
L 791.336615 353.2239 
L 826.486951 353.206008 
L 832.34534 352.681586 
L 838.203729 353.2239 
L 949.513125 353.2239 
L 949.513125 353.2239 
" style="fill:none;stroke:#f15c80;stroke-linecap:square;"/>
   </g>
   <g id="line2d_43">
    <path clip-path="url(#p5e3802ca55)" d="M 76.613125 321.968854 
L 82.471514 351.834787 
L 88.329904 353.2239 
L 117.62185 353.2239 
L 123.480239 352.529343 
L 129.338628 353.2239 
L 316.807085 353.2239 
L 322.665474 352.528281 
L 328.523863 353.2239 
L 949.513125 353.2239 
L 949.513125 353.2239 
" style="fill:none;stroke:#e4d354;stroke-linecap:square;"/>
   </g>
   <g id="line2d_44">
    <path clip-path="url(#p5e3802ca55)" d="M 76.613125 309.974274 
L 82.471514 353.2239 
L 310.948695 353.2239 
L 316.807085 351.559147 
L 322.665474 353.2239 
L 533.567487 353.2239 
L 539.425877 351.533029 
L 545.284266 353.2239 
L 592.15138 353.2239 
L 598.009769 351.513474 
L 603.868159 353.2239 
L 732.752722 353.2239 
L 738.611112 351.45002 
L 744.469501 353.2239 
L 949.513125 353.2239 
L 949.513125 353.2239 
" style="fill:none;stroke:#2b908f;stroke-linecap:square;"/>
   </g>
   <g id="line2d_45">
    <path clip-path="url(#p5e3802ca55)" d="M 76.613125 319.914653 
L 82.471514 353.2239 
L 164.488964 353.2239 
L 170.347353 352.32365 
L 176.205742 353.2239 
L 439.833259 353.2239 
L 445.691648 352.31633 
L 451.550038 353.2239 
L 533.567487 353.2239 
L 539.425877 352.310721 
L 545.284266 353.2239 
L 574.576212 353.2239 
L 580.434602 352.306111 
L 586.292991 353.2239 
L 674.16883 353.2239 
L 680.027219 352.291306 
L 685.885608 353.2239 
L 691.743997 352.289526 
L 697.602387 353.2239 
L 808.911783 353.2239 
L 814.770172 352.261233 
L 820.628561 353.2239 
L 826.486951 353.2239 
L 832.34534 352.257137 
L 838.203729 353.2239 
L 949.513125 353.2239 
L 949.513125 353.2239 
" style="fill:none;stroke:#f45b5b;stroke-linecap:square;"/>
   </g>
   <g id="line2d_46">
    <path clip-path="url(#p5e3802ca55)" d="M 76.613125 308.132413 
L 82.471514 352.741513 
L 88.329904 353.2239 
L 117.62185 353.221307 
L 123.480239 352.424458 
L 129.338628 353.2239 
L 264.081581 353.2239 
L 269.939971 353.107186 
L 281.656749 353.2239 
L 316.807085 353.123986 
L 322.665474 352.835238 
L 328.523863 352.863102 
L 334.382253 353.223251 
L 369.532588 353.2239 
L 375.390977 353.110206 
L 387.107756 353.2239 
L 416.399702 353.173786 
L 422.258091 352.511003 
L 428.116481 353.2239 
L 439.833259 353.183491 
L 445.691648 352.781164 
L 451.550038 353.2239 
L 533.567487 353.22324 
L 539.425877 352.4269 
L 545.284266 353.2239 
L 592.15138 353.2239 
L 598.009769 352.887145 
L 603.868159 353.209785 
L 656.593662 353.2239 
L 826.486951 353.200816 
L 832.34534 352.69559 
L 838.203729 353.2239 
L 949.513125 353.2239 
L 949.513125 353.2239 
" style="fill:none;stroke:#91e8e1;stroke-linecap:square;"/>
   </g>
   <g id="line2d_47">
    <path clip-path="url(#p5e3802ca55)" d="M 76.613125 314.644843 
L 82.471514 352.859946 
L 88.329904 353.2239 
L 117.62185 353.2239 
L 123.480239 352.132042 
L 129.338628 353.2239 
L 310.948695 353.2239 
L 316.807085 352.858923 
L 322.665474 352.858629 
L 328.523863 353.2239 
L 346.099031 353.2239 
L 351.95742 352.857598 
L 357.81581 353.2239 
L 416.399702 353.2239 
L 422.258091 352.114452 
L 428.116481 353.2239 
L 568.717823 353.2239 
L 574.576212 352.840621 
L 580.434602 353.2239 
L 662.452051 353.2239 
L 668.31044 352.82701 
L 674.16883 353.2239 
L 691.743997 353.2239 
L 697.602387 352.822425 
L 703.460776 353.2239 
L 732.752722 353.2239 
L 738.611112 352.814517 
L 744.469501 353.2239 
L 949.513125 353.2239 
L 949.513125 353.2239 
" style="fill:none;stroke:#7cb5ec;stroke-linecap:square;"/>
   </g>
   <g id="line2d_48">
    <path clip-path="url(#p5e3802ca55)" d="M 76.613125 317.762392 
L 82.471514 352.825456 
L 88.329904 353.2239 
L 117.62185 353.2239 
L 123.480239 352.825456 
L 129.338628 353.2239 
L 158.630575 353.2239 
L 164.488964 353.024678 
L 170.347353 353.2239 
L 205.497689 353.2239 
L 211.356078 353.024678 
L 217.214467 353.2239 
L 269.939971 353.2239 
L 275.79836 353.024535 
L 281.656749 353.2239 
L 287.515138 353.024428 
L 293.373528 353.2239 
L 310.948695 353.2239 
L 316.807085 353.024146 
L 322.665474 353.024071 
L 328.523863 352.224469 
L 334.382253 353.2239 
L 351.95742 353.2239 
L 357.81581 353.023611 
L 363.674199 353.2239 
L 369.532588 353.2239 
L 375.390977 352.622238 
L 381.249367 353.2239 
L 416.399702 353.2239 
L 422.258091 353.022169 
L 428.116481 353.2239 
L 439.833259 353.2239 
L 445.691648 351.605125 
L 451.550038 353.2239 
L 533.567487 353.2239 
L 539.425877 351.578689 
L 545.284266 353.2239 
L 779.619836 353.2239 
L 785.478226 353.001078 
L 791.336615 353.2239 
L 826.486951 353.2239 
L 832.34534 351.856784 
L 838.203729 353.2239 
L 890.929232 353.2239 
L 896.787622 352.986566 
L 902.646011 353.2239 
L 949.513125 353.2239 
L 949.513125 353.2239 
" style="fill:none;stroke:#434348;stroke-linecap:square;"/>
   </g>
   <g id="line2d_49">
    <path clip-path="url(#p5e3802ca55)" d="M 76.613125 313.98048 
L 82.471514 352.580568 
L 88.329904 353.2239 
L 117.62185 353.2239 
L 123.480239 352.580568 
L 129.338628 353.2239 
L 164.488964 353.2239 
L 170.347353 352.902233 
L 176.205742 353.2239 
L 316.807085 353.2239 
L 322.665474 352.578902 
L 328.523863 353.2239 
L 416.399702 353.2239 
L 422.258091 352.572861 
L 428.116481 353.2239 
L 674.16883 353.2239 
L 680.027219 352.879742 
L 685.885608 353.2239 
L 949.513125 353.2239 
L 949.513125 353.2239 
" style="fill:none;stroke:#90ed7d;stroke-linecap:square;"/>
   </g>
   <g id="line2d_50">
    <path clip-path="url(#p5e3802ca55)" d="M 76.613125 313.575961 
L 82.471514 352.794112 
L 88.329904 353.2239 
L 164.488964 353.2239 
L 170.347353 353.009006 
L 176.205742 353.2239 
L 264.081581 353.2239 
L 269.939971 352.901482 
L 281.656749 353.2239 
L 316.807085 353.2239 
L 322.665474 352.792442 
L 328.523863 352.90006 
L 334.382253 353.2239 
L 439.833259 353.2239 
L 445.691648 352.89533 
L 451.550038 353.2239 
L 533.567487 353.2239 
L 539.425877 352.554927 
L 545.284266 353.2239 
L 592.15138 353.2239 
L 598.009769 352.77151 
L 603.868159 353.2239 
L 668.31044 353.2239 
L 680.027219 352.992187 
L 685.885608 353.2239 
L 691.743997 352.991276 
L 697.602387 353.2239 
L 808.911783 353.2239 
L 814.770172 352.979479 
L 820.628561 353.2239 
L 826.486951 353.2239 
L 832.34534 352.854148 
L 838.203729 353.2239 
L 890.929232 353.2239 
L 896.787622 353.095826 
L 902.646011 353.2239 
L 949.513125 353.2239 
L 949.513125 353.2239 
" style="fill:none;stroke:#f7a35c;stroke-linecap:square;"/>
   </g>
   <g id="line2d_51">
    <path clip-path="url(#p5e3802ca55)" d="M 76.613125 311.171742 
L 82.471514 352.790112 
L 88.329904 353.2239 
L 117.62185 353.222158 
L 123.480239 352.400751 
L 129.338628 353.2239 
L 316.807085 353.134112 
L 322.665474 352.871689 
L 328.523863 352.834162 
L 334.382253 353.223028 
L 369.532588 353.2239 
L 375.390977 353.117434 
L 387.107756 353.2239 
L 416.399702 353.18284 
L 422.258091 352.468065 
L 428.116481 353.2239 
L 439.833259 353.173188 
L 445.691648 352.750765 
L 451.550038 353.2239 
L 533.567487 353.2239 
L 539.425877 352.357329 
L 545.284266 353.2239 
L 592.15138 353.2239 
L 598.009769 352.890704 
L 603.868159 353.213225 
L 662.452051 353.2239 
L 709.319165 353.2239 
L 826.486951 353.202632 
L 832.34534 352.648708 
L 838.203729 353.2239 
L 949.513125 353.2239 
L 949.513125 353.2239 
" style="fill:none;stroke:#8085e9;stroke-linecap:square;"/>
   </g>
   <g id="line2d_52">
    <path clip-path="url(#p5e3802ca55)" d="M 76.613125 308.254449 
L 82.471514 352.746619 
L 88.329904 353.2239 
L 117.62185 353.2239 
L 123.480239 352.410074 
L 129.338628 353.2239 
L 316.807085 353.13105 
L 322.665474 352.847377 
L 328.523863 352.835106 
L 334.382253 353.2239 
L 369.532588 353.2239 
L 375.390977 353.098308 
L 381.249367 353.216752 
L 416.399702 353.169737 
L 422.258091 352.486958 
L 428.116481 353.2239 
L 439.833259 353.191174 
L 445.691648 352.751314 
L 451.550038 353.2239 
L 533.567487 353.2239 
L 539.425877 352.410131 
L 545.284266 353.2239 
L 592.15138 353.2239 
L 598.009769 352.882456 
L 603.868159 353.213475 
L 668.31044 353.205788 
L 732.752722 353.2239 
L 744.469501 353.220563 
L 826.486951 353.20359 
L 832.34534 352.681688 
L 838.203729 353.2239 
L 949.513125 353.2239 
L 949.513125 353.2239 
" style="fill:none;stroke:#f15c80;stroke-linecap:square;"/>
   </g>
   <g id="line2d_53">
    <path clip-path="url(#p5e3802ca55)" d="M 76.613125 312.000939 
L 82.471514 352.728821 
L 88.329904 353.2239 
L 117.62185 353.222624 
L 123.480239 352.416846 
L 129.338628 353.2239 
L 316.807085 353.148542 
L 322.665474 352.826629 
L 328.523863 352.843832 
L 334.382253 353.223261 
L 416.399702 353.179732 
L 422.258091 352.50811 
L 428.116481 353.2239 
L 439.833259 353.183539 
L 445.691648 352.758037 
L 451.550038 353.2239 
L 533.567487 353.222611 
L 539.425877 352.364967 
L 545.284266 353.2239 
L 592.15138 353.2239 
L 598.009769 352.868566 
L 603.868159 353.207645 
L 656.593662 353.2239 
L 826.486951 353.204436 
L 832.34534 352.671773 
L 838.203729 353.2239 
L 949.513125 353.2239 
L 949.513125 353.2239 
" style="fill:none;stroke:#e4d354;stroke-linecap:square;"/>
   </g>
   <g id="line2d_54">
    <path clip-path="url(#p5e3802ca55)" d="M 76.613125 316.806071 
L 82.471514 352.777121 
L 88.329904 353.2239 
L 117.62185 353.223304 
L 123.480239 352.451867 
L 129.338628 353.2239 
L 316.807085 353.156507 
L 322.665474 352.873768 
L 328.523863 352.88327 
L 334.382253 353.2239 
L 369.532588 353.2239 
L 375.390977 353.111629 
L 387.107756 353.2239 
L 416.399702 353.192812 
L 422.258091 352.533865 
L 428.116481 353.2239 
L 439.833259 353.1892 
L 445.691648 352.784085 
L 451.550038 353.2239 
L 533.567487 353.2239 
L 539.425877 352.446996 
L 545.284266 353.2239 
L 592.15138 353.2239 
L 598.009769 352.892872 
L 603.868159 353.215455 
L 674.16883 353.214195 
L 680.027219 353.153503 
L 685.885608 353.2239 
L 697.602387 353.221469 
L 826.486951 353.20909 
L 832.34534 352.70817 
L 838.203729 353.2239 
L 949.513125 353.2239 
L 949.513125 353.2239 
" style="fill:none;stroke:#2b908f;stroke-linecap:square;"/>
   </g>
   <g id="line2d_55">
    <path clip-path="url(#p5e3802ca55)" d="M 76.613125 314.263281 
L 82.471514 352.548282 
L 88.329904 353.2239 
L 117.62185 353.2239 
L 123.480239 351.872663 
L 129.338628 353.2239 
L 264.081581 353.2239 
L 269.939971 352.998662 
L 275.79836 353.2239 
L 316.807085 353.2239 
L 322.665474 352.546221 
L 328.523863 352.771904 
L 334.382253 353.2239 
L 346.099031 353.2239 
L 351.95742 352.544555 
L 357.81581 353.2239 
L 369.532588 353.2239 
L 375.390977 352.996812 
L 381.249367 353.2239 
L 416.399702 353.2239 
L 422.258091 352.08202 
L 428.116481 353.2239 
L 439.833259 353.2239 
L 445.691648 352.765551 
L 451.550038 353.2239 
L 533.567487 353.2239 
L 539.425877 352.7575 
L 545.284266 353.2239 
L 568.717823 353.2239 
L 574.576212 352.988725 
L 580.434602 353.2239 
L 826.486951 353.2239 
L 832.34534 352.700496 
L 838.203729 353.2239 
L 949.513125 353.2239 
L 949.513125 353.2239 
" style="fill:none;stroke:#f45b5b;stroke-linecap:square;"/>
   </g>
   <g id="line2d_56">
    <path clip-path="url(#p5e3802ca55)" d="M 76.613125 308.449172 
L 82.471514 352.712955 
L 88.329904 353.2239 
L 117.62185 353.219378 
L 123.480239 352.397946 
L 129.338628 353.2239 
L 316.807085 353.122867 
L 322.665474 352.80014 
L 328.523863 352.872502 
L 334.382253 353.2239 
L 416.399702 353.16348 
L 422.258091 352.488154 
L 428.116481 353.2239 
L 439.833259 353.192153 
L 445.691648 352.782358 
L 451.550038 353.2239 
L 533.567487 353.2239 
L 539.425877 352.449317 
L 545.284266 353.2239 
L 592.15138 353.2239 
L 598.009769 352.882853 
L 603.868159 353.217717 
L 674.16883 353.211217 
L 691.743997 353.179137 
L 709.319165 353.2239 
L 826.486951 353.201095 
L 832.34534 352.710748 
L 838.203729 353.2239 
L 949.513125 353.2239 
L 949.513125 353.2239 
" style="fill:none;stroke:#91e8e1;stroke-linecap:square;"/>
   </g>
   <g id="line2d_57">
    <path clip-path="url(#p5e3802ca55)" d="M 76.613125 309.968678 
L 82.471514 352.728413 
L 88.329904 353.2239 
L 117.62185 353.220651 
L 123.480239 352.442494 
L 129.338628 353.2239 
L 264.081581 353.2239 
L 269.939971 353.097176 
L 281.656749 353.2239 
L 316.807085 353.140992 
L 322.665474 352.832085 
L 328.523863 352.854814 
L 334.382253 353.222274 
L 369.532588 353.2239 
L 375.390977 353.119753 
L 387.107756 353.2239 
L 416.399702 353.183173 
L 422.258091 352.539563 
L 428.116481 353.2239 
L 439.833259 353.202704 
L 445.691648 352.736267 
L 451.550038 353.2239 
L 533.567487 353.2239 
L 539.425877 352.392096 
L 545.284266 353.2239 
L 592.15138 353.2239 
L 598.009769 352.918302 
L 603.868159 353.212259 
L 662.452051 353.2239 
L 691.743997 353.159036 
L 703.460776 353.2239 
L 826.486951 353.211135 
L 832.34534 352.665679 
L 838.203729 353.2239 
L 949.513125 353.2239 
L 949.513125 353.2239 
" style="fill:none;stroke:#7cb5ec;stroke-linecap:square;"/>
   </g>
   <g id="line2d_58">
    <path clip-path="url(#p5e3802ca55)" d="M 76.613125 316.23411 
L 82.471514 352.743513 
L 88.329904 353.2239 
L 117.62185 353.2239 
L 123.480239 351.782742 
L 129.338628 353.2239 
L 310.948695 353.2239 
L 316.807085 352.742313 
L 322.665474 353.2239 
L 416.399702 353.2239 
L 422.258091 351.761196 
L 428.116481 353.2239 
L 949.513125 353.2239 
L 949.513125 353.2239 
" style="fill:none;stroke:#434348;stroke-linecap:square;"/>
   </g>
   <g id="line2d_59">
    <path clip-path="url(#p5e3802ca55)" d="M 76.613125 316.148768 
L 82.471514 352.573458 
L 88.329904 353.2239 
L 117.62185 353.2239 
L 123.480239 351.923017 
L 129.338628 353.2239 
L 310.948695 353.2239 
L 316.807085 352.572593 
L 322.665474 352.572523 
L 328.523863 353.2239 
L 416.399702 353.2239 
L 422.258091 351.914044 
L 428.116481 353.2239 
L 592.15138 353.2239 
L 598.009769 352.554425 
L 603.868159 353.2239 
L 732.752722 353.2239 
L 738.611112 352.533038 
L 744.469501 353.2239 
L 949.513125 353.2239 
L 949.513125 353.2239 
" style="fill:none;stroke:#90ed7d;stroke-linecap:square;"/>
   </g>
   <g id="line2d_60">
    <path clip-path="url(#p5e3802ca55)" d="M 76.613125 309.433729 
L 82.471514 352.753635 
L 88.329904 353.2239 
L 117.62185 353.2239 
L 123.480239 352.400058 
L 129.338628 353.2239 
L 316.807085 353.120469 
L 322.665474 352.853753 
L 328.523863 352.883264 
L 334.382253 353.221788 
L 369.532588 353.2239 
L 375.390977 353.118193 
L 387.107756 353.2239 
L 416.399702 353.168843 
L 422.258091 352.476879 
L 428.116481 353.2239 
L 439.833259 353.181495 
L 445.691648 352.791209 
L 451.550038 353.2239 
L 533.567487 353.2239 
L 539.425877 352.454754 
L 545.284266 353.2239 
L 592.15138 353.2239 
L 598.009769 352.877771 
L 603.868159 353.216663 
L 674.16883 353.215766 
L 680.027219 353.152016 
L 685.885608 353.2239 
L 691.743997 353.166585 
L 709.319165 353.2239 
L 826.486951 353.200789 
L 832.34534 352.726325 
L 838.203729 353.2239 
L 949.513125 353.2239 
L 949.513125 353.2239 
" style="fill:none;stroke:#f7a35c;stroke-linecap:square;"/>
   </g>
   <g id="line2d_61">
    <path clip-path="url(#p5e3802ca55)" d="M 76.613125 320.591798 
L 82.471514 353.2239 
L 322.665474 353.2239 
L 328.523863 352.512281 
L 334.382253 353.2239 
L 439.833259 353.2239 
L 445.691648 352.503861 
L 451.550038 353.2239 
L 533.567487 353.2239 
L 539.425877 352.49045 
L 545.284266 353.2239 
L 592.15138 353.2239 
L 598.009769 352.851659 
L 603.868159 353.2239 
L 826.486951 353.2239 
L 832.34534 352.396986 
L 838.203729 353.2239 
L 949.513125 353.2239 
L 949.513125 353.2239 
" style="fill:none;stroke:#8085e9;stroke-linecap:square;"/>
   </g>
   <g id="line2d_62">
    <path clip-path="url(#p5e3802ca55)" d="M 76.613125 314.945259 
L 82.471514 352.792438 
L 88.329904 353.2239 
L 117.62185 353.2239 
L 123.480239 352.49293 
L 129.338628 353.2239 
L 264.081581 353.2239 
L 269.939971 353.110778 
L 281.656749 353.2239 
L 316.807085 353.152547 
L 322.665474 352.86075 
L 328.523863 352.894249 
L 334.382253 353.2218 
L 416.399702 353.183812 
L 422.258091 352.56114 
L 428.116481 353.2239 
L 439.833259 353.1922 
L 445.691648 352.811626 
L 451.550038 353.2239 
L 533.567487 353.2239 
L 539.425877 352.453871 
L 545.284266 353.2239 
L 592.15138 353.2239 
L 598.009769 352.920916 
L 603.868159 353.215298 
L 732.752722 353.2217 
L 744.469501 353.221695 
L 826.486951 353.203676 
L 832.34534 352.739979 
L 838.203729 353.2239 
L 949.513125 353.2239 
L 949.513125 353.2239 
" style="fill:none;stroke:#f15c80;stroke-linecap:square;"/>
   </g>
   <g id="line2d_63">
    <path clip-path="url(#p5e3802ca55)" d="M 76.613125 311.421983 
L 82.471514 352.78364 
L 88.329904 353.2239 
L 117.62185 353.221781 
L 123.480239 352.411727 
L 129.338628 353.2239 
L 316.807085 353.13694 
L 322.665474 352.872315 
L 328.523863 352.852129 
L 334.382253 353.22337 
L 416.399702 353.173964 
L 422.258091 352.497063 
L 428.116481 353.2239 
L 439.833259 353.196789 
L 445.691648 352.758676 
L 451.550038 353.2239 
L 533.567487 353.2239 
L 539.425877 352.389037 
L 545.284266 353.2239 
L 592.15138 353.2239 
L 598.009769 352.881229 
L 603.868159 353.210979 
L 674.16883 353.214084 
L 680.027219 353.145269 
L 685.885608 353.2239 
L 691.743997 353.157647 
L 703.460776 353.221703 
L 826.486951 353.200393 
L 832.34534 352.676584 
L 838.203729 353.2239 
L 949.513125 353.2239 
L 949.513125 353.2239 
" style="fill:none;stroke:#e4d354;stroke-linecap:square;"/>
   </g>
   <g id="line2d_64">
    <path clip-path="url(#p5e3802ca55)" d="M 76.613125 317.262355 
L 82.471514 352.785695 
L 88.329904 353.2239 
L 117.62185 353.22151 
L 123.480239 352.466201 
L 129.338628 353.2239 
L 316.807085 353.140908 
L 322.665474 352.871922 
L 328.523863 352.887028 
L 334.382253 353.223102 
L 416.399702 353.183072 
L 422.258091 352.546488 
L 428.116481 353.2239 
L 439.833259 353.189445 
L 445.691648 352.802324 
L 451.550038 353.2239 
L 533.567487 353.2239 
L 539.425877 352.438767 
L 545.284266 353.2239 
L 592.15138 353.2239 
L 598.009769 352.903764 
L 603.868159 353.210151 
L 662.452051 353.2239 
L 721.035944 353.2239 
L 826.486951 353.206511 
L 832.34534 352.71004 
L 838.203729 353.2239 
L 949.513125 353.2239 
L 949.513125 353.2239 
" style="fill:none;stroke:#2b908f;stroke-linecap:square;"/>
   </g>
   <g id="line2d_65">
    <path clip-path="url(#p5e3802ca55)" d="M 76.613125 316.119451 
L 82.471514 352.768341 
L 88.329904 353.2239 
L 117.62185 353.220697 
L 123.480239 352.450487 
L 129.338628 353.2239 
L 316.807085 353.142903 
L 322.665474 352.870976 
L 328.523863 352.867698 
L 334.382253 353.223098 
L 369.532588 353.2239 
L 375.390977 353.114626 
L 387.107756 353.2239 
L 416.399702 353.191711 
L 422.258091 352.548568 
L 428.116481 353.2239 
L 439.833259 353.186845 
L 445.691648 352.778316 
L 451.550038 353.2239 
L 533.567487 353.2239 
L 539.425877 352.434061 
L 545.284266 353.2239 
L 592.15138 353.2239 
L 598.009769 352.91549 
L 603.868159 353.214944 
L 674.16883 353.209964 
L 691.743997 353.177087 
L 709.319165 353.2239 
L 826.486951 353.211354 
L 832.34534 352.696417 
L 838.203729 353.2239 
L 949.513125 353.2239 
L 949.513125 353.2239 
" style="fill:none;stroke:#f45b5b;stroke-linecap:square;"/>
   </g>
   <g id="line2d_66">
    <path clip-path="url(#p5e3802ca55)" d="M 76.613125 307.970821 
L 82.471514 352.786707 
L 88.329904 353.2239 
L 117.62185 353.222789 
L 123.480239 352.396732 
L 129.338628 353.2239 
L 316.807085 353.116054 
L 322.665474 352.880311 
L 328.523863 352.855803 
L 334.382253 353.222788 
L 369.532588 353.2239 
L 375.390977 353.107518 
L 387.107756 353.2239 
L 416.399702 353.17367 
L 422.258091 352.485775 
L 428.116481 353.2239 
L 439.833259 353.186438 
L 445.691648 352.765732 
L 451.550038 353.2239 
L 533.567487 353.222765 
L 539.425877 352.39593 
L 545.284266 353.2239 
L 592.15138 353.2239 
L 598.009769 352.897231 
L 603.868159 353.211708 
L 674.16883 353.217286 
L 691.743997 353.172847 
L 709.319165 353.2239 
L 826.486951 353.208293 
L 832.34534 352.67164 
L 838.203729 353.2239 
L 949.513125 353.2239 
L 949.513125 353.2239 
" style="fill:none;stroke:#91e8e1;stroke-linecap:square;"/>
   </g>
   <g id="line2d_67">
    <path clip-path="url(#p5e3802ca55)" d="M 76.613125 317.592088 
L 82.471514 352.776607 
L 88.329904 353.2239 
L 117.62185 353.2239 
L 123.480239 352.452103 
L 129.338628 353.2239 
L 316.807085 353.158663 
L 322.665474 352.853761 
L 328.523863 352.854964 
L 334.382253 353.2239 
L 416.399702 353.182402 
L 422.258091 352.551016 
L 428.116481 353.2239 
L 439.833259 353.189924 
L 445.691648 352.784654 
L 451.550038 353.2239 
L 533.567487 353.222637 
L 539.425877 352.4345 
L 545.284266 353.2239 
L 592.15138 353.2239 
L 598.009769 352.885724 
L 603.868159 353.21123 
L 662.452051 353.2239 
L 703.460776 353.220076 
L 826.486951 353.205868 
L 832.34534 352.717388 
L 838.203729 353.2239 
L 949.513125 353.2239 
L 949.513125 353.2239 
" style="fill:none;stroke:#7cb5ec;stroke-linecap:square;"/>
   </g>
   <g id="line2d_68">
    <path clip-path="url(#p5e3802ca55)" d="M 76.613125 317.811613 
L 82.471514 352.777464 
L 88.329904 353.2239 
L 117.62185 353.223225 
L 123.480239 352.470157 
L 129.338628 353.2239 
L 316.807085 353.153556 
L 322.665474 352.844389 
L 328.523863 352.882219 
L 334.382253 353.2239 
L 416.399702 353.187273 
L 422.258091 352.554991 
L 428.116481 353.2239 
L 439.833259 353.189959 
L 445.691648 352.770353 
L 451.550038 353.2239 
L 533.567487 353.2239 
L 539.425877 352.414589 
L 545.284266 353.2239 
L 592.15138 353.2239 
L 598.009769 352.894123 
L 603.868159 353.209526 
L 662.452051 353.2239 
L 762.044669 353.2239 
L 826.486951 353.204321 
L 832.34534 352.687112 
L 838.203729 353.2239 
L 949.513125 353.2239 
L 949.513125 353.2239 
" style="fill:none;stroke:#434348;stroke-linecap:square;"/>
   </g>
   <g id="line2d_69">
    <path clip-path="url(#p5e3802ca55)" d="M 76.613125 316.620759 
L 82.471514 352.352394 
L 88.329904 353.2239 
L 316.807085 353.2239 
L 322.665474 352.349761 
L 328.523863 353.2239 
L 533.567487 353.2239 
L 539.425877 352.327459 
L 545.284266 353.2239 
L 592.15138 353.2239 
L 598.009769 351.407978 
L 603.868159 353.2239 
L 949.513125 353.2239 
L 949.513125 353.2239 
" style="fill:none;stroke:#90ed7d;stroke-linecap:square;"/>
   </g>
   <g id="line2d_70">
    <path clip-path="url(#p5e3802ca55)" d="M 76.613125 316.317927 
L 82.471514 352.839463 
L 88.329904 353.2239 
L 117.62185 353.2239 
L 123.480239 352.839463 
L 129.338628 353.2239 
L 322.665474 353.2239 
L 328.523863 352.838251 
L 334.382253 353.2239 
L 439.833259 353.2239 
L 445.691648 352.833947 
L 451.550038 353.2239 
L 533.567487 353.2239 
L 539.425877 352.433476 
L 545.284266 353.2239 
L 826.486951 353.2239 
L 832.34534 352.792845 
L 838.203729 353.2239 
L 949.513125 353.2239 
L 949.513125 353.2239 
" style="fill:none;stroke:#f7a35c;stroke-linecap:square;"/>
   </g>
   <g id="line2d_71">
    <path clip-path="url(#p5e3802ca55)" d="M 76.613125 314.385762 
L 82.471514 351.670372 
L 88.329904 353.2239 
L 264.081581 353.2239 
L 269.939971 352.447136 
L 275.79836 353.2239 
L 316.807085 353.2239 
L 322.665474 351.667141 
L 328.523863 353.2239 
L 439.833259 353.2239 
L 445.691648 351.656203 
L 451.550038 353.2239 
L 486.700373 353.2239 
L 492.558763 352.436166 
L 498.417152 353.2239 
L 533.567487 353.2239 
L 539.425877 351.640591 
L 545.284266 353.2239 
L 826.486951 353.2239 
L 832.34534 352.370754 
L 838.203729 353.2239 
L 949.513125 353.2239 
L 949.513125 353.2239 
" style="fill:none;stroke:#8085e9;stroke-linecap:square;"/>
   </g>
   <g id="line2d_72">
    <path clip-path="url(#p5e3802ca55)" d="M 76.613125 317.315329 
L 82.471514 352.718145 
L 88.329904 353.2239 
L 117.62185 353.2239 
L 123.480239 352.718145 
L 129.338628 353.2239 
L 416.399702 353.2239 
L 422.258091 352.70943 
L 428.116481 353.2239 
L 533.567487 353.2239 
L 539.425877 352.695011 
L 545.284266 353.2239 
L 949.513125 353.2239 
L 949.513125 353.2239 
" style="fill:none;stroke:#f15c80;stroke-linecap:square;"/>
   </g>
   <g id="line2d_73">
    <path clip-path="url(#p5e3802ca55)" d="M 76.613125 313.386071 
L 82.471514 352.746943 
L 88.329904 353.2239 
L 117.62185 353.223256 
L 123.480239 352.401291 
L 129.338628 353.2239 
L 316.807085 353.142709 
L 322.665474 352.839811 
L 328.523863 352.844921 
L 334.382253 353.223255 
L 369.532588 353.2239 
L 375.390977 353.10519 
L 387.107756 353.2239 
L 416.399702 353.181919 
L 422.258091 352.492008 
L 428.116481 353.2239 
L 439.833259 353.194168 
L 445.691648 352.742262 
L 451.550038 353.2239 
L 533.567487 353.2239 
L 539.425877 352.398341 
L 545.284266 353.2239 
L 592.15138 353.2239 
L 598.009769 352.899455 
L 603.868159 353.208844 
L 662.452051 353.223239 
L 726.894333 353.2239 
L 826.486951 353.205217 
L 832.34534 352.662121 
L 838.203729 353.2239 
L 949.513125 353.2239 
L 949.513125 353.2239 
" style="fill:none;stroke:#e4d354;stroke-linecap:square;"/>
   </g>
   <g id="line2d_74">
    <path clip-path="url(#p5e3802ca55)" d="M 76.613125 311.118895 
L 82.471514 352.731555 
L 88.329904 353.2239 
L 117.62185 353.222261 
L 123.480239 352.440847 
L 129.338628 353.2239 
L 316.807085 353.133663 
L 322.665474 352.825726 
L 328.523863 352.866167 
L 334.382253 353.2239 
L 416.399702 353.185548 
L 422.258091 352.530176 
L 428.116481 353.2239 
L 439.833259 353.189911 
L 445.691648 352.784706 
L 451.550038 353.2239 
L 533.567487 353.2239 
L 539.425877 352.44016 
L 545.284266 353.2239 
L 592.15138 353.2239 
L 598.009769 352.881634 
L 603.868159 353.217249 
L 826.486951 353.20858 
L 832.34534 352.706885 
L 838.203729 353.2239 
L 949.513125 353.2239 
L 949.513125 353.2239 
" style="fill:none;stroke:#2b908f;stroke-linecap:square;"/>
   </g>
   <g id="line2d_75">
    <path clip-path="url(#p5e3802ca55)" d="M 76.613125 315.95716 
L 82.471514 352.809826 
L 88.329904 353.2239 
L 117.62185 353.2239 
L 123.480239 352.395752 
L 129.338628 353.2239 
L 316.807085 353.2239 
L 328.523863 352.394455 
L 334.382253 353.2239 
L 351.95742 353.2239 
L 357.81581 352.808798 
L 363.674199 353.2239 
L 416.399702 353.2239 
L 422.258091 352.38945 
L 428.116481 353.2239 
L 439.833259 353.2239 
L 445.691648 352.387746 
L 451.550038 353.2239 
L 533.567487 353.2239 
L 539.425877 352.375816 
L 545.284266 353.2239 
L 574.576212 353.2239 
L 580.434602 352.795862 
L 586.292991 353.2239 
L 592.15138 353.2239 
L 598.009769 352.36435 
L 603.868159 353.2239 
L 826.486951 353.2239 
L 832.34534 352.753777 
L 838.203729 353.2239 
L 949.513125 353.2239 
L 949.513125 353.2239 
" style="fill:none;stroke:#f45b5b;stroke-linecap:square;"/>
   </g>
   <g id="line2d_76">
    <path clip-path="url(#p5e3802ca55)" d="M 76.613125 316.845817 
L 82.471514 352.761625 
L 88.329904 353.2239 
L 117.62185 353.222888 
L 123.480239 352.462208 
L 129.338628 353.2239 
L 316.807085 353.160069 
L 322.665474 352.849972 
L 328.523863 352.891463 
L 334.382253 353.2239 
L 416.399702 353.191371 
L 422.258091 352.5508 
L 428.116481 353.2239 
L 439.833259 353.189304 
L 445.691648 352.800489 
L 451.550038 353.2239 
L 533.567487 353.2239 
L 539.425877 352.428503 
L 545.284266 353.2239 
L 592.15138 353.2239 
L 598.009769 352.894693 
L 603.868159 353.218753 
L 779.619836 353.2239 
L 797.195004 353.2239 
L 826.486951 353.211173 
L 832.34534 352.717426 
L 838.203729 353.2239 
L 949.513125 353.2239 
L 949.513125 353.2239 
" style="fill:none;stroke:#91e8e1;stroke-linecap:square;"/>
   </g>
   <g id="line2d_77">
    <path clip-path="url(#p5e3802ca55)" d="M 76.613125 310.482133 
L 82.471514 352.079031 
L 88.329904 353.2239 
L 117.62185 353.2239 
L 123.480239 352.460656 
L 129.338628 353.2239 
L 316.807085 353.2239 
L 322.665474 352.45946 
L 328.523863 353.2239 
L 416.399702 353.2239 
L 422.258091 352.839788 
L 428.116481 353.2239 
L 533.567487 353.2239 
L 539.425877 352.445851 
L 545.284266 353.2239 
L 592.15138 353.2239 
L 598.009769 352.830983 
L 603.868159 353.2239 
L 732.752722 353.2239 
L 738.611112 352.816092 
L 744.469501 353.2239 
L 949.513125 353.2239 
L 949.513125 353.2239 
" style="fill:none;stroke:#7cb5ec;stroke-linecap:square;"/>
   </g>
   <g id="line2d_78">
    <path clip-path="url(#p5e3802ca55)" d="M 76.613125 316.022598 
L 82.471514 353.2239 
L 533.567487 353.2239 
L 539.425877 351.120936 
L 545.284266 353.2239 
L 949.513125 353.2239 
L 949.513125 353.2239 
" style="fill:none;stroke:#434348;stroke-linecap:square;"/>
   </g>
   <g id="line2d_79">
    <path clip-path="url(#p5e3802ca55)" d="M 76.613125 320.419523 
L 82.471514 353.2239 
L 322.665474 353.2239 
L 328.523863 350.872934 
L 334.382253 353.2239 
L 439.833259 353.2239 
L 445.691648 350.865964 
L 451.550038 353.2239 
L 533.567487 353.2239 
L 539.425877 350.834962 
L 545.284266 353.2239 
L 826.486951 353.2239 
L 832.34534 350.580772 
L 838.203729 353.2239 
L 949.513125 353.2239 
L 949.513125 353.2239 
" style="fill:none;stroke:#90ed7d;stroke-linecap:square;"/>
   </g>
   <g id="line2d_80">
    <path clip-path="url(#p5e3802ca55)" d="M 76.613125 322.440019 
L 82.471514 353.2239 
L 949.513125 353.2239 
L 949.513125 353.2239 
" style="fill:none;stroke:#f7a35c;stroke-linecap:square;"/>
   </g>
   <g id="line2d_81">
    <path clip-path="url(#p5e3802ca55)" d="M 76.613125 316.807915 
L 82.471514 352.797639 
L 88.329904 353.2239 
L 117.62185 353.222906 
L 123.480239 352.431988 
L 129.338628 353.2239 
L 316.807085 353.1413 
L 322.665474 352.898421 
L 328.523863 352.876467 
L 334.382253 353.2239 
L 416.399702 353.181975 
L 422.258091 352.523989 
L 428.116481 353.2239 
L 439.833259 353.189929 
L 445.691648 352.778175 
L 451.550038 353.2239 
L 533.567487 353.222896 
L 539.425877 352.393221 
L 545.284266 353.2239 
L 592.15138 353.2239 
L 598.009769 352.885998 
L 603.868159 353.214818 
L 674.16883 353.217806 
L 680.027219 353.151751 
L 685.885608 353.2239 
L 691.743997 353.165908 
L 709.319165 353.2239 
L 826.486951 353.210448 
L 832.34534 352.684256 
L 838.203729 353.2239 
L 949.513125 353.2239 
L 949.513125 353.2239 
" style="fill:none;stroke:#8085e9;stroke-linecap:square;"/>
   </g>
   <g id="line2d_82">
    <path clip-path="url(#p5e3802ca55)" d="M 76.613125 315.940562 
L 82.471514 352.786665 
L 88.329904 353.2239 
L 117.62185 353.223187 
L 123.480239 352.456421 
L 129.338628 353.2239 
L 316.807085 353.145341 
L 322.665474 352.866762 
L 328.523863 352.910282 
L 334.382253 353.223186 
L 416.399702 353.187379 
L 422.258091 352.518412 
L 428.116481 353.2239 
L 439.833259 353.194516 
L 445.691648 352.807423 
L 451.550038 353.2239 
L 533.567487 353.2239 
L 539.425877 352.464294 
L 545.284266 353.2239 
L 592.15138 353.2239 
L 598.009769 352.902991 
L 603.868159 353.211608 
L 662.452051 353.2239 
L 744.469501 353.220239 
L 826.486951 353.208365 
L 832.34534 352.727088 
L 838.203729 353.2239 
L 949.513125 353.2239 
L 949.513125 353.2239 
" style="fill:none;stroke:#f15c80;stroke-linecap:square;"/>
   </g>
   <g id="line2d_83">
    <path clip-path="url(#p5e3802ca55)" d="M 76.613125 317.991456 
L 82.471514 352.751275 
L 88.329904 353.2239 
L 117.62185 353.2239 
L 123.480239 352.471155 
L 129.338628 353.2239 
L 316.807085 353.139626 
L 322.665474 352.838254 
L 328.523863 352.840502 
L 334.382253 353.2239 
L 369.532588 353.2239 
L 375.390977 353.110586 
L 387.107756 353.2239 
L 416.399702 353.1938 
L 422.258091 352.554635 
L 428.116481 353.2239 
L 439.833259 353.19146 
L 445.691648 352.734873 
L 451.550038 353.2239 
L 533.567487 353.2239 
L 539.425877 352.382767 
L 545.284266 353.2239 
L 592.15138 353.2239 
L 598.009769 352.887796 
L 603.868159 353.21923 
L 674.16883 353.21569 
L 680.027219 353.151157 
L 685.885608 353.2239 
L 691.743997 353.162838 
L 703.460776 353.2239 
L 826.486951 353.210828 
L 832.34534 352.661415 
L 838.203729 353.2239 
L 949.513125 353.2239 
L 949.513125 353.2239 
" style="fill:none;stroke:#e4d354;stroke-linecap:square;"/>
   </g>
   <g id="line2d_84">
    <path clip-path="url(#p5e3802ca55)" d="M 76.613125 313.091505 
L 82.471514 353.2239 
L 117.62185 353.2239 
L 123.480239 352.68157 
L 129.338628 353.2239 
L 164.488964 353.2239 
L 170.347353 352.68157 
L 176.205742 353.2239 
L 310.948695 353.2239 
L 316.807085 352.679667 
L 322.665474 353.2239 
L 416.399702 353.2239 
L 422.258091 352.671681 
L 428.116481 353.2239 
L 492.558763 353.2239 
L 498.417152 352.662566 
L 504.275541 353.2239 
L 674.16883 353.2239 
L 680.027219 352.620488 
L 685.885608 353.2239 
L 691.743997 352.617149 
L 697.602387 353.2239 
L 808.911783 353.2239 
L 814.770172 352.573992 
L 820.628561 353.2239 
L 949.513125 353.2239 
L 949.513125 353.2239 
" style="fill:none;stroke:#2b908f;stroke-linecap:square;"/>
   </g>
   <g id="line2d_85">
    <path clip-path="url(#p5e3802ca55)" d="M 76.613125 305.6646 
L 82.471514 353.2239 
L 949.513125 353.2239 
L 949.513125 353.2239 
" style="fill:none;stroke:#f45b5b;stroke-linecap:square;"/>
   </g>
   <g id="line2d_86">
    <path clip-path="url(#p5e3802ca55)" d="M 76.613125 318.229232 
L 82.471514 352.787588 
L 88.329904 353.2239 
L 117.62185 353.2239 
L 123.480239 352.443537 
L 129.338628 353.2239 
L 264.081581 353.2239 
L 269.939971 353.111789 
L 281.656749 353.2239 
L 316.807085 353.135844 
L 322.665474 352.870766 
L 328.523863 352.880218 
L 334.382253 353.2239 
L 416.399702 353.182358 
L 422.258091 352.517566 
L 428.116481 353.2239 
L 439.833259 353.187524 
L 445.691648 352.776038 
L 451.550038 353.2239 
L 533.567487 353.2239 
L 539.425877 352.425368 
L 545.284266 353.2239 
L 592.15138 353.2239 
L 598.009769 352.877332 
L 603.868159 353.209927 
L 662.452051 353.2239 
L 738.611112 353.170879 
L 756.186279 353.2239 
L 826.486951 353.204252 
L 832.34534 352.690232 
L 838.203729 353.2239 
L 949.513125 353.2239 
L 949.513125 353.2239 
" style="fill:none;stroke:#91e8e1;stroke-linecap:square;"/>
   </g>
   <g id="line2d_87">
    <path clip-path="url(#p5e3802ca55)" d="M 76.613125 315.105324 
L 82.471514 352.418576 
L 88.329904 353.2239 
L 117.62185 353.2239 
L 123.480239 352.687019 
L 129.338628 353.2239 
L 316.807085 353.2239 
L 322.665474 352.685473 
L 328.523863 353.2239 
L 346.099031 353.2239 
L 351.95742 352.684125 
L 363.674199 353.2239 
L 416.399702 353.2239 
L 422.258091 352.951842 
L 428.116481 353.2239 
L 439.833259 353.2239 
L 445.691648 352.950849 
L 451.550038 353.2239 
L 533.567487 353.2239 
L 539.425877 352.110955 
L 545.284266 353.2239 
L 574.576212 353.2239 
L 580.434602 352.942463 
L 586.292991 353.2239 
L 592.15138 353.2239 
L 598.009769 352.657188 
L 603.868159 353.2239 
L 826.486951 353.2239 
L 832.34534 352.901057 
L 838.203729 353.2239 
L 949.513125 353.2239 
L 949.513125 353.2239 
" style="fill:none;stroke:#7cb5ec;stroke-linecap:square;"/>
   </g>
   <g id="line2d_88">
    <path clip-path="url(#p5e3802ca55)" d="M 76.613125 324.361436 
L 82.471514 353.2239 
L 117.62185 353.2239 
L 123.480239 352.021301 
L 129.338628 353.2239 
L 164.488964 353.2239 
L 170.347353 352.823033 
L 176.205742 353.2239 
L 310.948695 353.2239 
L 316.807085 352.822299 
L 322.665474 353.2239 
L 328.523863 352.822222 
L 334.382253 353.2239 
L 416.399702 353.2239 
L 422.258091 352.417133 
L 428.116481 353.2239 
L 439.833259 353.2239 
L 445.691648 352.819849 
L 451.550038 353.2239 
L 533.567487 353.2239 
L 539.425877 352.815856 
L 545.284266 353.2239 
L 557.001044 353.2239 
L 562.859434 352.814648 
L 568.717823 353.2239 
L 592.15138 353.2239 
L 598.009769 352.812238 
L 603.868159 353.2239 
L 826.486951 353.2239 
L 832.34534 352.788417 
L 838.203729 353.2239 
L 949.513125 353.2239 
L 949.513125 353.2239 
" style="fill:none;stroke:#434348;stroke-linecap:square;"/>
   </g>
   <g id="line2d_89">
    <path clip-path="url(#p5e3802ca55)" d="M 76.613125 319.388798 
L 82.471514 353.2239 
L 117.62185 353.2239 
L 123.480239 351.586721 
L 129.338628 353.2239 
L 322.665474 353.2239 
L 328.523863 352.677281 
L 334.382253 353.2239 
L 416.399702 353.2239 
L 422.258091 351.577106 
L 428.116481 353.2239 
L 439.833259 353.2239 
L 445.691648 352.674068 
L 451.550038 353.2239 
L 533.567487 353.2239 
L 539.425877 352.668885 
L 545.284266 353.2239 
L 826.486951 353.2239 
L 832.34534 352.63156 
L 838.203729 353.2239 
L 949.513125 353.2239 
L 949.513125 353.2239 
" style="fill:none;stroke:#90ed7d;stroke-linecap:square;"/>
   </g>
   <g id="line2d_90">
    <path clip-path="url(#p5e3802ca55)" d="M 32.968125 353.2239 
L 993.158125 353.2239 
" style="fill:none;stroke:#dedede;stroke-linecap:square;stroke-width:2;"/>
   </g>
   <g id="text_17">
    <!-- Fastp: Read N Content -->
    <defs>
     <path d="M 9.8125 72.90625 
L 51.703125 72.90625 
L 51.703125 64.59375 
L 19.671875 64.59375 
L 19.671875 43.109375 
L 48.578125 43.109375 
L 48.578125 34.8125 
L 19.671875 34.8125 
L 19.671875 0 
L 9.8125 0 
z
" id="DejaVuSans-70"/>
     <path d="M 18.109375 8.203125 
L 18.109375 -20.796875 
L 9.078125 -20.796875 
L 9.078125 54.6875 
L 18.109375 54.6875 
L 18.109375 46.390625 
Q 20.953125 51.265625 25.265625 53.625 
Q 29.59375 56 35.59375 56 
Q 45.5625 56 51.78125 48.09375 
Q 58.015625 40.1875 58.015625 27.296875 
Q 58.015625 14.40625 51.78125 6.484375 
Q 45.5625 -1.421875 35.59375 -1.421875 
Q 29.59375 -1.421875 25.265625 0.953125 
Q 20.953125 3.328125 18.109375 8.203125 
z
M 48.6875 27.296875 
Q 48.6875 37.203125 44.609375 42.84375 
Q 40.53125 48.484375 33.40625 48.484375 
Q 26.265625 48.484375 22.1875 42.84375 
Q 18.109375 37.203125 18.109375 27.296875 
Q 18.109375 17.390625 22.1875 11.75 
Q 26.265625 6.109375 33.40625 6.109375 
Q 40.53125 6.109375 44.609375 11.75 
Q 48.6875 17.390625 48.6875 27.296875 
z
" id="DejaVuSans-112"/>
     <path d="M 9.8125 72.90625 
L 23.09375 72.90625 
L 55.421875 11.921875 
L 55.421875 72.90625 
L 64.984375 72.90625 
L 64.984375 0 
L 51.703125 0 
L 19.390625 60.984375 
L 19.390625 0 
L 9.8125 0 
z
" id="DejaVuSans-78"/>
    </defs>
    <g transform="translate(422.606875 19.3575)scale(0.16 -0.16)">
     <use xlink:href="#DejaVuSans-70"/>
     <use x="57.378906" xlink:href="#DejaVuSans-97"/>
     <use x="118.658203" xlink:href="#DejaVuSans-115"/>
     <use x="170.757812" xlink:href="#DejaVuSans-116"/>
     <use x="209.966797" xlink:href="#DejaVuSans-112"/>
     <use x="273.443359" xlink:href="#DejaVuSans-58"/>
     <use x="307.134766" xlink:href="#DejaVuSans-32"/>
     <use x="338.921875" xlink:href="#DejaVuSans-82"/>
     <use x="408.341797" xlink:href="#DejaVuSans-101"/>
     <use x="469.865234" xlink:href="#DejaVuSans-97"/>
     <use x="531.144531" xlink:href="#DejaVuSans-100"/>
     <use x="594.621094" xlink:href="#DejaVuSans-32"/>
     <use x="626.408203" xlink:href="#DejaVuSans-78"/>
     <use x="701.212891" xlink:href="#DejaVuSans-32"/>
     <use x="733" xlink:href="#DejaVuSans-67"/>
     <use x="802.824219" xlink:href="#DejaVuSans-111"/>
     <use x="864.005859" xlink:href="#DejaVuSans-110"/>
     <use x="927.384766" xlink:href="#DejaVuSans-116"/>
     <use x="966.59375" xlink:href="#DejaVuSans-101"/>
     <use x="1028.117188" xlink:href="#DejaVuSans-110"/>
     <use x="1091.496094" xlink:href="#DejaVuSans-116"/>
    </g>
   </g>
  </g>
 </g>
 <defs>
  <clipPath id="p5e3802ca55">
   <rect height="317.968" width="960.19" x="32.968125" y="35.2559"/>
  </clipPath>
 </defs>
</svg>
