<?xml version="1.0" encoding="utf-8" standalone="no"?>
<!DOCTYPE svg PUBLIC "-//W3C//DTD SVG 1.1//EN"
  "http://www.w3.org/Graphics/SVG/1.1/DTD/svg11.dtd">
<!-- Created with matplotlib (https://matplotlib.org/) -->
<svg height="388.844525pt" version="1.1" viewBox="0 0 1000.358125 388.844525" width="1000.358125pt" xmlns="http://www.w3.org/2000/svg" xmlns:xlink="http://www.w3.org/1999/xlink">
 <defs>
  <style type="text/css">
*{stroke-linecap:butt;stroke-linejoin:round;}
  </style>
 </defs>
 <g id="figure_1">
  <g id="axes_1">
   <g id="patch_1">
    <path d="M 32.968125 353.2239 
L 993.158125 353.2239 
L 993.158125 35.2559 
L 32.968125 35.2559 
z
" style="fill:#ffffff;"/>
   </g>
   <g id="matplotlib.axis_1">
    <g id="xtick_1">
     <g id="text_1">
      <!-- 0 -->
      <defs>
       <path d="M 31.78125 66.40625 
Q 24.171875 66.40625 20.328125 58.90625 
Q 16.5 51.421875 16.5 36.375 
Q 16.5 21.390625 20.328125 13.890625 
Q 24.171875 6.390625 31.78125 6.390625 
Q 39.453125 6.390625 43.28125 13.890625 
Q 47.125 21.390625 47.125 36.375 
Q 47.125 51.421875 43.28125 58.90625 
Q 39.453125 66.40625 31.78125 66.40625 
z
M 31.78125 74.21875 
Q 44.046875 74.21875 50.515625 64.515625 
Q 56.984375 54.828125 56.984375 36.375 
Q 56.984375 17.96875 50.515625 8.265625 
Q 44.046875 -1.421875 31.78125 -1.421875 
Q 19.53125 -1.421875 13.0625 8.265625 
Q 6.59375 17.96875 6.59375 36.375 
Q 6.59375 54.828125 13.0625 64.515625 
Q 19.53125 74.21875 31.78125 74.21875 
z
" id="DejaVuSans-48"/>
      </defs>
      <g transform="translate(68.209736 366.30265)scale(0.08 -0.08)">
       <use xlink:href="#DejaVuSans-48"/>
      </g>
     </g>
    </g>
    <g id="xtick_2">
     <g id="text_2">
      <!-- 20 -->
      <defs>
       <path d="M 19.1875 8.296875 
L 53.609375 8.296875 
L 53.609375 0 
L 7.328125 0 
L 7.328125 8.296875 
Q 12.9375 14.109375 22.625 23.890625 
Q 32.328125 33.6875 34.8125 36.53125 
Q 39.546875 41.84375 41.421875 45.53125 
Q 43.3125 49.21875 43.3125 52.78125 
Q 43.3125 58.59375 39.234375 62.25 
Q 35.15625 65.921875 28.609375 65.921875 
Q 23.96875 65.921875 18.8125 64.3125 
Q 13.671875 62.703125 7.8125 59.421875 
L 7.8125 69.390625 
Q 13.765625 71.78125 18.9375 73 
Q 24.125 74.21875 28.421875 74.21875 
Q 39.75 74.21875 46.484375 68.546875 
Q 53.21875 62.890625 53.21875 53.421875 
Q 53.21875 48.921875 51.53125 44.890625 
Q 49.859375 40.875 45.40625 35.40625 
Q 44.1875 33.984375 37.640625 27.21875 
Q 31.109375 20.453125 19.1875 8.296875 
z
" id="DejaVuSans-50"/>
      </defs>
      <g transform="translate(182.832521 366.30265)scale(0.08 -0.08)">
       <use xlink:href="#DejaVuSans-50"/>
       <use x="63.623047" xlink:href="#DejaVuSans-48"/>
      </g>
     </g>
    </g>
    <g id="xtick_3">
     <g id="text_3">
      <!-- 40 -->
      <defs>
       <path d="M 37.796875 64.3125 
L 12.890625 25.390625 
L 37.796875 25.390625 
z
M 35.203125 72.90625 
L 47.609375 72.90625 
L 47.609375 25.390625 
L 58.015625 25.390625 
L 58.015625 17.1875 
L 47.609375 17.1875 
L 47.609375 0 
L 37.796875 0 
L 37.796875 17.1875 
L 4.890625 17.1875 
L 4.890625 26.703125 
z
" id="DejaVuSans-52"/>
      </defs>
      <g transform="translate(300.000306 366.30265)scale(0.08 -0.08)">
       <use xlink:href="#DejaVuSans-52"/>
       <use x="63.623047" xlink:href="#DejaVuSans-48"/>
      </g>
     </g>
    </g>
    <g id="xtick_4">
     <g id="text_4">
      <!-- 60 -->
      <defs>
       <path d="M 33.015625 40.375 
Q 26.375 40.375 22.484375 35.828125 
Q 18.609375 31.296875 18.609375 23.390625 
Q 18.609375 15.53125 22.484375 10.953125 
Q 26.375 6.390625 33.015625 6.390625 
Q 39.65625 6.390625 43.53125 10.953125 
Q 47.40625 15.53125 47.40625 23.390625 
Q 47.40625 31.296875 43.53125 35.828125 
Q 39.65625 40.375 33.015625 40.375 
z
M 52.59375 71.296875 
L 52.59375 62.3125 
Q 48.875 64.0625 45.09375 64.984375 
Q 41.3125 65.921875 37.59375 65.921875 
Q 27.828125 65.921875 22.671875 59.328125 
Q 17.53125 52.734375 16.796875 39.40625 
Q 19.671875 43.65625 24.015625 45.921875 
Q 28.375 48.1875 33.59375 48.1875 
Q 44.578125 48.1875 50.953125 41.515625 
Q 57.328125 34.859375 57.328125 23.390625 
Q 57.328125 12.15625 50.6875 5.359375 
Q 44.046875 -1.421875 33.015625 -1.421875 
Q 20.359375 -1.421875 13.671875 8.265625 
Q 6.984375 17.96875 6.984375 36.375 
Q 6.984375 53.65625 15.1875 63.9375 
Q 23.390625 74.21875 37.203125 74.21875 
Q 40.921875 74.21875 44.703125 73.484375 
Q 48.484375 72.75 52.59375 71.296875 
z
" id="DejaVuSans-54"/>
      </defs>
      <g transform="translate(417.168091 366.30265)scale(0.08 -0.08)">
       <use xlink:href="#DejaVuSans-54"/>
       <use x="63.623047" xlink:href="#DejaVuSans-48"/>
      </g>
     </g>
    </g>
    <g id="xtick_5">
     <g id="text_5">
      <!-- 80 -->
      <defs>
       <path d="M 31.78125 34.625 
Q 24.75 34.625 20.71875 30.859375 
Q 16.703125 27.09375 16.703125 20.515625 
Q 16.703125 13.921875 20.71875 10.15625 
Q 24.75 6.390625 31.78125 6.390625 
Q 38.8125 6.390625 42.859375 10.171875 
Q 46.921875 13.96875 46.921875 20.515625 
Q 46.921875 27.09375 42.890625 30.859375 
Q 38.875 34.625 31.78125 34.625 
z
M 21.921875 38.8125 
Q 15.578125 40.375 12.03125 44.71875 
Q 8.5 49.078125 8.5 55.328125 
Q 8.5 64.0625 14.71875 69.140625 
Q 20.953125 74.21875 31.78125 74.21875 
Q 42.671875 74.21875 48.875 69.140625 
Q 55.078125 64.0625 55.078125 55.328125 
Q 55.078125 49.078125 51.53125 44.71875 
Q 48 40.375 41.703125 38.8125 
Q 48.828125 37.15625 52.796875 32.3125 
Q 56.78125 27.484375 56.78125 20.515625 
Q 56.78125 9.90625 50.3125 4.234375 
Q 43.84375 -1.421875 31.78125 -1.421875 
Q 19.734375 -1.421875 13.25 4.234375 
Q 6.78125 9.90625 6.78125 20.515625 
Q 6.78125 27.484375 10.78125 32.3125 
Q 14.796875 37.15625 21.921875 38.8125 
z
M 18.3125 54.390625 
Q 18.3125 48.734375 21.84375 45.5625 
Q 25.390625 42.390625 31.78125 42.390625 
Q 38.140625 42.390625 41.71875 45.5625 
Q 45.3125 48.734375 45.3125 54.390625 
Q 45.3125 60.0625 41.71875 63.234375 
Q 38.140625 66.40625 31.78125 66.40625 
Q 25.390625 66.40625 21.84375 63.234375 
Q 18.3125 60.0625 18.3125 54.390625 
z
" id="DejaVuSans-56"/>
      </defs>
      <g transform="translate(534.335877 366.30265)scale(0.08 -0.08)">
       <use xlink:href="#DejaVuSans-56"/>
       <use x="63.623047" xlink:href="#DejaVuSans-48"/>
      </g>
     </g>
    </g>
    <g id="xtick_6">
     <g id="text_6">
      <!-- 100 -->
      <defs>
       <path d="M 12.40625 8.296875 
L 28.515625 8.296875 
L 28.515625 63.921875 
L 10.984375 60.40625 
L 10.984375 69.390625 
L 28.421875 72.90625 
L 38.28125 72.90625 
L 38.28125 8.296875 
L 54.390625 8.296875 
L 54.390625 0 
L 12.40625 0 
z
" id="DejaVuSans-49"/>
      </defs>
      <g transform="translate(648.958662 366.30265)scale(0.08 -0.08)">
       <use xlink:href="#DejaVuSans-49"/>
       <use x="63.623047" xlink:href="#DejaVuSans-48"/>
       <use x="127.246094" xlink:href="#DejaVuSans-48"/>
      </g>
     </g>
    </g>
    <g id="xtick_7">
     <g id="text_7">
      <!-- 120 -->
      <g transform="translate(766.126447 366.30265)scale(0.08 -0.08)">
       <use xlink:href="#DejaVuSans-49"/>
       <use x="63.623047" xlink:href="#DejaVuSans-50"/>
       <use x="127.246094" xlink:href="#DejaVuSans-48"/>
      </g>
     </g>
    </g>
    <g id="xtick_8">
     <g id="text_8">
      <!-- 140 -->
      <g transform="translate(883.294232 366.30265)scale(0.08 -0.08)">
       <use xlink:href="#DejaVuSans-49"/>
       <use x="63.623047" xlink:href="#DejaVuSans-52"/>
       <use x="127.246094" xlink:href="#DejaVuSans-48"/>
      </g>
     </g>
    </g>
    <g id="text_9">
     <!-- Read Position -->
     <defs>
      <path d="M 44.390625 34.1875 
Q 47.5625 33.109375 50.5625 29.59375 
Q 53.5625 26.078125 56.59375 19.921875 
L 66.609375 0 
L 56 0 
L 46.6875 18.703125 
Q 43.0625 26.03125 39.671875 28.421875 
Q 36.28125 30.8125 30.421875 30.8125 
L 19.671875 30.8125 
L 19.671875 0 
L 9.8125 0 
L 9.8125 72.90625 
L 32.078125 72.90625 
Q 44.578125 72.90625 50.734375 67.671875 
Q 56.890625 62.453125 56.890625 51.90625 
Q 56.890625 45.015625 53.6875 40.46875 
Q 50.484375 35.9375 44.390625 34.1875 
z
M 19.671875 64.796875 
L 19.671875 38.921875 
L 32.078125 38.921875 
Q 39.203125 38.921875 42.84375 42.21875 
Q 46.484375 45.515625 46.484375 51.90625 
Q 46.484375 58.296875 42.84375 61.546875 
Q 39.203125 64.796875 32.078125 64.796875 
z
" id="DejaVuSans-82"/>
      <path d="M 56.203125 29.59375 
L 56.203125 25.203125 
L 14.890625 25.203125 
Q 15.484375 15.921875 20.484375 11.0625 
Q 25.484375 6.203125 34.421875 6.203125 
Q 39.59375 6.203125 44.453125 7.46875 
Q 49.3125 8.734375 54.109375 11.28125 
L 54.109375 2.78125 
Q 49.265625 0.734375 44.1875 -0.34375 
Q 39.109375 -1.421875 33.890625 -1.421875 
Q 20.796875 -1.421875 13.15625 6.1875 
Q 5.515625 13.8125 5.515625 26.8125 
Q 5.515625 40.234375 12.765625 48.109375 
Q 20.015625 56 32.328125 56 
Q 43.359375 56 49.78125 48.890625 
Q 56.203125 41.796875 56.203125 29.59375 
z
M 47.21875 32.234375 
Q 47.125 39.59375 43.09375 43.984375 
Q 39.0625 48.390625 32.421875 48.390625 
Q 24.90625 48.390625 20.390625 44.140625 
Q 15.875 39.890625 15.1875 32.171875 
z
" id="DejaVuSans-101"/>
      <path d="M 34.28125 27.484375 
Q 23.390625 27.484375 19.1875 25 
Q 14.984375 22.515625 14.984375 16.5 
Q 14.984375 11.71875 18.140625 8.90625 
Q 21.296875 6.109375 26.703125 6.109375 
Q 34.1875 6.109375 38.703125 11.40625 
Q 43.21875 16.703125 43.21875 25.484375 
L 43.21875 27.484375 
z
M 52.203125 31.203125 
L 52.203125 0 
L 43.21875 0 
L 43.21875 8.296875 
Q 40.140625 3.328125 35.546875 0.953125 
Q 30.953125 -1.421875 24.3125 -1.421875 
Q 15.921875 -1.421875 10.953125 3.296875 
Q 6 8.015625 6 15.921875 
Q 6 25.140625 12.171875 29.828125 
Q 18.359375 34.515625 30.609375 34.515625 
L 43.21875 34.515625 
L 43.21875 35.40625 
Q 43.21875 41.609375 39.140625 45 
Q 35.0625 48.390625 27.6875 48.390625 
Q 23 48.390625 18.546875 47.265625 
Q 14.109375 46.140625 10.015625 43.890625 
L 10.015625 52.203125 
Q 14.9375 54.109375 19.578125 55.046875 
Q 24.21875 56 28.609375 56 
Q 40.484375 56 46.34375 49.84375 
Q 52.203125 43.703125 52.203125 31.203125 
z
" id="DejaVuSans-97"/>
      <path d="M 45.40625 46.390625 
L 45.40625 75.984375 
L 54.390625 75.984375 
L 54.390625 0 
L 45.40625 0 
L 45.40625 8.203125 
Q 42.578125 3.328125 38.25 0.953125 
Q 33.9375 -1.421875 27.875 -1.421875 
Q 17.96875 -1.421875 11.734375 6.484375 
Q 5.515625 14.40625 5.515625 27.296875 
Q 5.515625 40.1875 11.734375 48.09375 
Q 17.96875 56 27.875 56 
Q 33.9375 56 38.25 53.625 
Q 42.578125 51.265625 45.40625 46.390625 
z
M 14.796875 27.296875 
Q 14.796875 17.390625 18.875 11.75 
Q 22.953125 6.109375 30.078125 6.109375 
Q 37.203125 6.109375 41.296875 11.75 
Q 45.40625 17.390625 45.40625 27.296875 
Q 45.40625 37.203125 41.296875 42.84375 
Q 37.203125 48.484375 30.078125 48.484375 
Q 22.953125 48.484375 18.875 42.84375 
Q 14.796875 37.203125 14.796875 27.296875 
z
" id="DejaVuSans-100"/>
      <path id="DejaVuSans-32"/>
      <path d="M 19.671875 64.796875 
L 19.671875 37.40625 
L 32.078125 37.40625 
Q 38.96875 37.40625 42.71875 40.96875 
Q 46.484375 44.53125 46.484375 51.125 
Q 46.484375 57.671875 42.71875 61.234375 
Q 38.96875 64.796875 32.078125 64.796875 
z
M 9.8125 72.90625 
L 32.078125 72.90625 
Q 44.34375 72.90625 50.609375 67.359375 
Q 56.890625 61.8125 56.890625 51.125 
Q 56.890625 40.328125 50.609375 34.8125 
Q 44.34375 29.296875 32.078125 29.296875 
L 19.671875 29.296875 
L 19.671875 0 
L 9.8125 0 
z
" id="DejaVuSans-80"/>
      <path d="M 30.609375 48.390625 
Q 23.390625 48.390625 19.1875 42.75 
Q 14.984375 37.109375 14.984375 27.296875 
Q 14.984375 17.484375 19.15625 11.84375 
Q 23.34375 6.203125 30.609375 6.203125 
Q 37.796875 6.203125 41.984375 11.859375 
Q 46.1875 17.53125 46.1875 27.296875 
Q 46.1875 37.015625 41.984375 42.703125 
Q 37.796875 48.390625 30.609375 48.390625 
z
M 30.609375 56 
Q 42.328125 56 49.015625 48.375 
Q 55.71875 40.765625 55.71875 27.296875 
Q 55.71875 13.875 49.015625 6.21875 
Q 42.328125 -1.421875 30.609375 -1.421875 
Q 18.84375 -1.421875 12.171875 6.21875 
Q 5.515625 13.875 5.515625 27.296875 
Q 5.515625 40.765625 12.171875 48.375 
Q 18.84375 56 30.609375 56 
z
" id="DejaVuSans-111"/>
      <path d="M 44.28125 53.078125 
L 44.28125 44.578125 
Q 40.484375 46.53125 36.375 47.5 
Q 32.28125 48.484375 27.875 48.484375 
Q 21.1875 48.484375 17.84375 46.4375 
Q 14.5 44.390625 14.5 40.28125 
Q 14.5 37.15625 16.890625 35.375 
Q 19.28125 33.59375 26.515625 31.984375 
L 29.59375 31.296875 
Q 39.15625 29.25 43.1875 25.515625 
Q 47.21875 21.78125 47.21875 15.09375 
Q 47.21875 7.46875 41.1875 3.015625 
Q 35.15625 -1.421875 24.609375 -1.421875 
Q 20.21875 -1.421875 15.453125 -0.5625 
Q 10.6875 0.296875 5.421875 2 
L 5.421875 11.28125 
Q 10.40625 8.6875 15.234375 7.390625 
Q 20.0625 6.109375 24.8125 6.109375 
Q 31.15625 6.109375 34.5625 8.28125 
Q 37.984375 10.453125 37.984375 14.40625 
Q 37.984375 18.0625 35.515625 20.015625 
Q 33.0625 21.96875 24.703125 23.78125 
L 21.578125 24.515625 
Q 13.234375 26.265625 9.515625 29.90625 
Q 5.8125 33.546875 5.8125 39.890625 
Q 5.8125 47.609375 11.28125 51.796875 
Q 16.75 56 26.8125 56 
Q 31.78125 56 36.171875 55.265625 
Q 40.578125 54.546875 44.28125 53.078125 
z
" id="DejaVuSans-115"/>
      <path d="M 9.421875 54.6875 
L 18.40625 54.6875 
L 18.40625 0 
L 9.421875 0 
z
M 9.421875 75.984375 
L 18.40625 75.984375 
L 18.40625 64.59375 
L 9.421875 64.59375 
z
" id="DejaVuSans-105"/>
      <path d="M 18.3125 70.21875 
L 18.3125 54.6875 
L 36.8125 54.6875 
L 36.8125 47.703125 
L 18.3125 47.703125 
L 18.3125 18.015625 
Q 18.3125 11.328125 20.140625 9.421875 
Q 21.96875 7.515625 27.59375 7.515625 
L 36.8125 7.515625 
L 36.8125 0 
L 27.59375 0 
Q 17.1875 0 13.234375 3.875 
Q 9.28125 7.765625 9.28125 18.015625 
L 9.28125 47.703125 
L 2.6875 47.703125 
L 2.6875 54.6875 
L 9.28125 54.6875 
L 9.28125 70.21875 
z
" id="DejaVuSans-116"/>
      <path d="M 54.890625 33.015625 
L 54.890625 0 
L 45.90625 0 
L 45.90625 32.71875 
Q 45.90625 40.484375 42.875 44.328125 
Q 39.84375 48.1875 33.796875 48.1875 
Q 26.515625 48.1875 22.3125 43.546875 
Q 18.109375 38.921875 18.109375 30.90625 
L 18.109375 0 
L 9.078125 0 
L 9.078125 54.6875 
L 18.109375 54.6875 
L 18.109375 46.1875 
Q 21.34375 51.125 25.703125 53.5625 
Q 30.078125 56 35.796875 56 
Q 45.21875 56 50.046875 50.171875 
Q 54.890625 44.34375 54.890625 33.015625 
z
" id="DejaVuSans-110"/>
     </defs>
     <g transform="translate(479.045156 379.564837)scale(0.1 -0.1)">
      <use xlink:href="#DejaVuSans-82"/>
      <use x="69.419922" xlink:href="#DejaVuSans-101"/>
      <use x="130.943359" xlink:href="#DejaVuSans-97"/>
      <use x="192.222656" xlink:href="#DejaVuSans-100"/>
      <use x="255.699219" xlink:href="#DejaVuSans-32"/>
      <use x="287.486328" xlink:href="#DejaVuSans-80"/>
      <use x="347.742188" xlink:href="#DejaVuSans-111"/>
      <use x="408.923828" xlink:href="#DejaVuSans-115"/>
      <use x="461.023438" xlink:href="#DejaVuSans-105"/>
      <use x="488.806641" xlink:href="#DejaVuSans-116"/>
      <use x="528.015625" xlink:href="#DejaVuSans-105"/>
      <use x="555.798828" xlink:href="#DejaVuSans-111"/>
      <use x="616.980469" xlink:href="#DejaVuSans-110"/>
     </g>
    </g>
   </g>
   <g id="matplotlib.axis_2">
    <g id="ytick_1">
     <g id="line2d_1">
      <path clip-path="url(#p5e1a7af429)" d="M 32.968125 353.2239 
L 993.158125 353.2239 
" style="fill:none;stroke:#dedede;stroke-linecap:square;"/>
     </g>
     <g id="text_10">
      <!-- 0 -->
      <g transform="translate(20.878125 356.263275)scale(0.08 -0.08)">
       <use xlink:href="#DejaVuSans-48"/>
      </g>
     </g>
    </g>
    <g id="ytick_2">
     <g id="line2d_2">
      <path clip-path="url(#p5e1a7af429)" d="M 32.968125 289.6303 
L 993.158125 289.6303 
" style="fill:none;stroke:#dedede;stroke-linecap:square;"/>
     </g>
     <g id="text_11">
      <!-- 1 -->
      <g transform="translate(20.878125 292.669675)scale(0.08 -0.08)">
       <use xlink:href="#DejaVuSans-49"/>
      </g>
     </g>
    </g>
    <g id="ytick_3">
     <g id="line2d_3">
      <path clip-path="url(#p5e1a7af429)" d="M 32.968125 226.0367 
L 993.158125 226.0367 
" style="fill:none;stroke:#dedede;stroke-linecap:square;"/>
     </g>
     <g id="text_12">
      <!-- 2 -->
      <g transform="translate(20.878125 229.076075)scale(0.08 -0.08)">
       <use xlink:href="#DejaVuSans-50"/>
      </g>
     </g>
    </g>
    <g id="ytick_4">
     <g id="line2d_4">
      <path clip-path="url(#p5e1a7af429)" d="M 32.968125 162.4431 
L 993.158125 162.4431 
" style="fill:none;stroke:#dedede;stroke-linecap:square;"/>
     </g>
     <g id="text_13">
      <!-- 3 -->
      <defs>
       <path d="M 40.578125 39.3125 
Q 47.65625 37.796875 51.625 33 
Q 55.609375 28.21875 55.609375 21.1875 
Q 55.609375 10.40625 48.1875 4.484375 
Q 40.765625 -1.421875 27.09375 -1.421875 
Q 22.515625 -1.421875 17.65625 -0.515625 
Q 12.796875 0.390625 7.625 2.203125 
L 7.625 11.71875 
Q 11.71875 9.328125 16.59375 8.109375 
Q 21.484375 6.890625 26.8125 6.890625 
Q 36.078125 6.890625 40.9375 10.546875 
Q 45.796875 14.203125 45.796875 21.1875 
Q 45.796875 27.640625 41.28125 31.265625 
Q 36.765625 34.90625 28.71875 34.90625 
L 20.21875 34.90625 
L 20.21875 43.015625 
L 29.109375 43.015625 
Q 36.375 43.015625 40.234375 45.921875 
Q 44.09375 48.828125 44.09375 54.296875 
Q 44.09375 59.90625 40.109375 62.90625 
Q 36.140625 65.921875 28.71875 65.921875 
Q 24.65625 65.921875 20.015625 65.03125 
Q 15.375 64.15625 9.8125 62.3125 
L 9.8125 71.09375 
Q 15.4375 72.65625 20.34375 73.4375 
Q 25.25 74.21875 29.59375 74.21875 
Q 40.828125 74.21875 47.359375 69.109375 
Q 53.90625 64.015625 53.90625 55.328125 
Q 53.90625 49.265625 50.4375 45.09375 
Q 46.96875 40.921875 40.578125 39.3125 
z
" id="DejaVuSans-51"/>
      </defs>
      <g transform="translate(20.878125 165.482475)scale(0.08 -0.08)">
       <use xlink:href="#DejaVuSans-51"/>
      </g>
     </g>
    </g>
    <g id="ytick_5">
     <g id="line2d_5">
      <path clip-path="url(#p5e1a7af429)" d="M 32.968125 98.8495 
L 993.158125 98.8495 
" style="fill:none;stroke:#dedede;stroke-linecap:square;"/>
     </g>
     <g id="text_14">
      <!-- 4 -->
      <g transform="translate(20.878125 101.888875)scale(0.08 -0.08)">
       <use xlink:href="#DejaVuSans-52"/>
      </g>
     </g>
    </g>
    <g id="ytick_6">
     <g id="line2d_6">
      <path clip-path="url(#p5e1a7af429)" d="M 32.968125 35.2559 
L 993.158125 35.2559 
" style="fill:none;stroke:#dedede;stroke-linecap:square;"/>
     </g>
     <g id="text_15">
      <!-- 5 -->
      <defs>
       <path d="M 10.796875 72.90625 
L 49.515625 72.90625 
L 49.515625 64.59375 
L 19.828125 64.59375 
L 19.828125 46.734375 
Q 21.96875 47.46875 24.109375 47.828125 
Q 26.265625 48.1875 28.421875 48.1875 
Q 40.625 48.1875 47.75 41.5 
Q 54.890625 34.8125 54.890625 23.390625 
Q 54.890625 11.625 47.5625 5.09375 
Q 40.234375 -1.421875 26.90625 -1.421875 
Q 22.3125 -1.421875 17.546875 -0.640625 
Q 12.796875 0.140625 7.71875 1.703125 
L 7.71875 11.625 
Q 12.109375 9.234375 16.796875 8.0625 
Q 21.484375 6.890625 26.703125 6.890625 
Q 35.15625 6.890625 40.078125 11.328125 
Q 45.015625 15.765625 45.015625 23.390625 
Q 45.015625 31 40.078125 35.4375 
Q 35.15625 39.890625 26.703125 39.890625 
Q 22.75 39.890625 18.8125 39.015625 
Q 14.890625 38.140625 10.796875 36.28125 
z
" id="DejaVuSans-53"/>
      </defs>
      <g transform="translate(20.878125 38.295275)scale(0.08 -0.08)">
       <use xlink:href="#DejaVuSans-53"/>
      </g>
     </g>
    </g>
    <g id="text_16">
     <!-- R1 Before filtering: Base Content Percent -->
     <defs>
      <path d="M 19.671875 34.8125 
L 19.671875 8.109375 
L 35.5 8.109375 
Q 43.453125 8.109375 47.28125 11.40625 
Q 51.125 14.703125 51.125 21.484375 
Q 51.125 28.328125 47.28125 31.5625 
Q 43.453125 34.8125 35.5 34.8125 
z
M 19.671875 64.796875 
L 19.671875 42.828125 
L 34.28125 42.828125 
Q 41.5 42.828125 45.03125 45.53125 
Q 48.578125 48.25 48.578125 53.8125 
Q 48.578125 59.328125 45.03125 62.0625 
Q 41.5 64.796875 34.28125 64.796875 
z
M 9.8125 72.90625 
L 35.015625 72.90625 
Q 46.296875 72.90625 52.390625 68.21875 
Q 58.5 63.53125 58.5 54.890625 
Q 58.5 48.1875 55.375 44.234375 
Q 52.25 40.28125 46.1875 39.3125 
Q 53.46875 37.75 57.5 32.78125 
Q 61.53125 27.828125 61.53125 20.40625 
Q 61.53125 10.640625 54.890625 5.3125 
Q 48.25 0 35.984375 0 
L 9.8125 0 
z
" id="DejaVuSans-66"/>
      <path d="M 37.109375 75.984375 
L 37.109375 68.5 
L 28.515625 68.5 
Q 23.6875 68.5 21.796875 66.546875 
Q 19.921875 64.59375 19.921875 59.515625 
L 19.921875 54.6875 
L 34.71875 54.6875 
L 34.71875 47.703125 
L 19.921875 47.703125 
L 19.921875 0 
L 10.890625 0 
L 10.890625 47.703125 
L 2.296875 47.703125 
L 2.296875 54.6875 
L 10.890625 54.6875 
L 10.890625 58.5 
Q 10.890625 67.625 15.140625 71.796875 
Q 19.390625 75.984375 28.609375 75.984375 
z
" id="DejaVuSans-102"/>
      <path d="M 41.109375 46.296875 
Q 39.59375 47.171875 37.8125 47.578125 
Q 36.03125 48 33.890625 48 
Q 26.265625 48 22.1875 43.046875 
Q 18.109375 38.09375 18.109375 28.8125 
L 18.109375 0 
L 9.078125 0 
L 9.078125 54.6875 
L 18.109375 54.6875 
L 18.109375 46.1875 
Q 20.953125 51.171875 25.484375 53.578125 
Q 30.03125 56 36.53125 56 
Q 37.453125 56 38.578125 55.875 
Q 39.703125 55.765625 41.0625 55.515625 
z
" id="DejaVuSans-114"/>
      <path d="M 9.421875 75.984375 
L 18.40625 75.984375 
L 18.40625 0 
L 9.421875 0 
z
" id="DejaVuSans-108"/>
      <path d="M 45.40625 27.984375 
Q 45.40625 37.75 41.375 43.109375 
Q 37.359375 48.484375 30.078125 48.484375 
Q 22.859375 48.484375 18.828125 43.109375 
Q 14.796875 37.75 14.796875 27.984375 
Q 14.796875 18.265625 18.828125 12.890625 
Q 22.859375 7.515625 30.078125 7.515625 
Q 37.359375 7.515625 41.375 12.890625 
Q 45.40625 18.265625 45.40625 27.984375 
z
M 54.390625 6.78125 
Q 54.390625 -7.171875 48.1875 -13.984375 
Q 42 -20.796875 29.203125 -20.796875 
Q 24.46875 -20.796875 20.265625 -20.09375 
Q 16.0625 -19.390625 12.109375 -17.921875 
L 12.109375 -9.1875 
Q 16.0625 -11.328125 19.921875 -12.34375 
Q 23.78125 -13.375 27.78125 -13.375 
Q 36.625 -13.375 41.015625 -8.765625 
Q 45.40625 -4.15625 45.40625 5.171875 
L 45.40625 9.625 
Q 42.625 4.78125 38.28125 2.390625 
Q 33.9375 0 27.875 0 
Q 17.828125 0 11.671875 7.65625 
Q 5.515625 15.328125 5.515625 27.984375 
Q 5.515625 40.671875 11.671875 48.328125 
Q 17.828125 56 27.875 56 
Q 33.9375 56 38.28125 53.609375 
Q 42.625 51.21875 45.40625 46.390625 
L 45.40625 54.6875 
L 54.390625 54.6875 
z
" id="DejaVuSans-103"/>
      <path d="M 11.71875 12.40625 
L 22.015625 12.40625 
L 22.015625 0 
L 11.71875 0 
z
M 11.71875 51.703125 
L 22.015625 51.703125 
L 22.015625 39.3125 
L 11.71875 39.3125 
z
" id="DejaVuSans-58"/>
      <path d="M 64.40625 67.28125 
L 64.40625 56.890625 
Q 59.421875 61.53125 53.78125 63.8125 
Q 48.140625 66.109375 41.796875 66.109375 
Q 29.296875 66.109375 22.65625 58.46875 
Q 16.015625 50.828125 16.015625 36.375 
Q 16.015625 21.96875 22.65625 14.328125 
Q 29.296875 6.6875 41.796875 6.6875 
Q 48.140625 6.6875 53.78125 8.984375 
Q 59.421875 11.28125 64.40625 15.921875 
L 64.40625 5.609375 
Q 59.234375 2.09375 53.4375 0.328125 
Q 47.65625 -1.421875 41.21875 -1.421875 
Q 24.65625 -1.421875 15.125 8.703125 
Q 5.609375 18.84375 5.609375 36.375 
Q 5.609375 53.953125 15.125 64.078125 
Q 24.65625 74.21875 41.21875 74.21875 
Q 47.75 74.21875 53.53125 72.484375 
Q 59.328125 70.75 64.40625 67.28125 
z
" id="DejaVuSans-67"/>
      <path d="M 48.78125 52.59375 
L 48.78125 44.1875 
Q 44.96875 46.296875 41.140625 47.34375 
Q 37.3125 48.390625 33.40625 48.390625 
Q 24.65625 48.390625 19.8125 42.84375 
Q 14.984375 37.3125 14.984375 27.296875 
Q 14.984375 17.28125 19.8125 11.734375 
Q 24.65625 6.203125 33.40625 6.203125 
Q 37.3125 6.203125 41.140625 7.25 
Q 44.96875 8.296875 48.78125 10.40625 
L 48.78125 2.09375 
Q 45.015625 0.34375 40.984375 -0.53125 
Q 36.96875 -1.421875 32.421875 -1.421875 
Q 20.0625 -1.421875 12.78125 6.34375 
Q 5.515625 14.109375 5.515625 27.296875 
Q 5.515625 40.671875 12.859375 48.328125 
Q 20.21875 56 33.015625 56 
Q 37.15625 56 41.109375 55.140625 
Q 45.0625 54.296875 48.78125 52.59375 
z
" id="DejaVuSans-99"/>
     </defs>
     <g transform="translate(14.798438 297.503181)rotate(-90)scale(0.1 -0.1)">
      <use xlink:href="#DejaVuSans-82"/>
      <use x="69.482422" xlink:href="#DejaVuSans-49"/>
      <use x="133.105469" xlink:href="#DejaVuSans-32"/>
      <use x="164.892578" xlink:href="#DejaVuSans-66"/>
      <use x="233.496094" xlink:href="#DejaVuSans-101"/>
      <use x="295.019531" xlink:href="#DejaVuSans-102"/>
      <use x="330.224609" xlink:href="#DejaVuSans-111"/>
      <use x="391.40625" xlink:href="#DejaVuSans-114"/>
      <use x="432.488281" xlink:href="#DejaVuSans-101"/>
      <use x="494.011719" xlink:href="#DejaVuSans-32"/>
      <use x="525.798828" xlink:href="#DejaVuSans-102"/>
      <use x="561.003906" xlink:href="#DejaVuSans-105"/>
      <use x="588.787109" xlink:href="#DejaVuSans-108"/>
      <use x="616.570312" xlink:href="#DejaVuSans-116"/>
      <use x="655.779297" xlink:href="#DejaVuSans-101"/>
      <use x="717.302734" xlink:href="#DejaVuSans-114"/>
      <use x="758.416016" xlink:href="#DejaVuSans-105"/>
      <use x="786.199219" xlink:href="#DejaVuSans-110"/>
      <use x="849.578125" xlink:href="#DejaVuSans-103"/>
      <use x="913.054688" xlink:href="#DejaVuSans-58"/>
      <use x="946.746094" xlink:href="#DejaVuSans-32"/>
      <use x="978.533203" xlink:href="#DejaVuSans-66"/>
      <use x="1047.136719" xlink:href="#DejaVuSans-97"/>
      <use x="1108.416016" xlink:href="#DejaVuSans-115"/>
      <use x="1160.515625" xlink:href="#DejaVuSans-101"/>
      <use x="1222.039062" xlink:href="#DejaVuSans-32"/>
      <use x="1253.826172" xlink:href="#DejaVuSans-67"/>
      <use x="1323.650391" xlink:href="#DejaVuSans-111"/>
      <use x="1384.832031" xlink:href="#DejaVuSans-110"/>
      <use x="1448.210938" xlink:href="#DejaVuSans-116"/>
      <use x="1487.419922" xlink:href="#DejaVuSans-101"/>
      <use x="1548.943359" xlink:href="#DejaVuSans-110"/>
      <use x="1612.322266" xlink:href="#DejaVuSans-116"/>
      <use x="1651.53125" xlink:href="#DejaVuSans-32"/>
      <use x="1683.318359" xlink:href="#DejaVuSans-80"/>
      <use x="1743.574219" xlink:href="#DejaVuSans-101"/>
      <use x="1805.097656" xlink:href="#DejaVuSans-114"/>
      <use x="1846.179688" xlink:href="#DejaVuSans-99"/>
      <use x="1901.160156" xlink:href="#DejaVuSans-101"/>
      <use x="1962.683594" xlink:href="#DejaVuSans-110"/>
      <use x="2026.0625" xlink:href="#DejaVuSans-116"/>
     </g>
    </g>
   </g>
   <g id="line2d_7">
    <path clip-path="url(#p5e1a7af429)" d="M 76.613125 353.2239 
L 82.471514 342.819478 
L 88.329904 353.11195 
L 100.046682 353.223271 
L 105.905071 353.136479 
L 117.62185 353.223271 
L 252.364803 353.222013 
L 258.223192 352.98302 
L 264.081581 353.2239 
L 392.966145 353.2239 
L 398.824534 353.062919 
L 404.682924 353.2239 
L 498.417152 353.2239 
L 504.275541 353.083202 
L 510.13393 353.223043 
L 949.513125 353.2239 
L 949.513125 353.2239 
" style="fill:none;stroke:#7cb5ec;stroke-linecap:square;"/>
   </g>
   <g id="line2d_8">
    <path clip-path="url(#p5e1a7af429)" d="M 76.613125 353.2239 
L 82.471514 342.89064 
L 88.329904 353.094535 
L 100.046682 353.223609 
L 105.905071 353.105291 
L 111.763461 353.223609 
L 252.364803 353.221865 
L 258.223192 352.942203 
L 264.081581 353.2239 
L 392.966145 353.2239 
L 398.824534 353.043839 
L 404.682924 353.222013 
L 498.417152 353.2239 
L 504.275541 353.087181 
L 510.13393 353.223147 
L 844.062118 353.2239 
L 908.5044 353.2239 
L 914.362789 353.094705 
L 920.221179 353.221746 
L 937.796346 353.183288 
L 949.513125 353.2239 
L 949.513125 353.2239 
" style="fill:none;stroke:#434348;stroke-linecap:square;"/>
   </g>
   <g id="line2d_9">
    <path clip-path="url(#p5e1a7af429)" d="M 76.613125 353.2239 
L 82.471514 342.710479 
L 88.329904 353.089064 
L 100.046682 353.223088 
L 105.905071 353.109683 
L 111.763461 353.223819 
L 252.364803 353.221221 
L 258.223192 352.89854 
L 264.081581 353.2239 
L 392.966145 353.2239 
L 398.824534 353.008605 
L 404.682924 353.222813 
L 498.417152 353.223243 
L 504.275541 353.065022 
L 510.13393 353.223334 
L 680.027219 353.183829 
L 697.602387 353.222939 
L 908.5044 353.2239 
L 914.362789 353.121237 
L 920.221179 353.220183 
L 943.654736 353.221689 
L 949.513125 353.2239 
L 949.513125 353.2239 
" style="fill:none;stroke:#90ed7d;stroke-linecap:square;"/>
   </g>
   <g id="line2d_10">
    <path clip-path="url(#p5e1a7af429)" d="M 76.613125 353.2239 
L 82.471514 343.022533 
L 88.329904 353.079903 
L 100.046682 353.2239 
L 105.905071 353.100474 
L 111.763461 353.2239 
L 252.364803 353.22203 
L 258.223192 352.995749 
L 264.081581 353.2239 
L 392.966145 353.2239 
L 398.824534 353.089801 
L 404.682924 353.2239 
L 498.417152 353.222676 
L 504.275541 353.086974 
L 510.13393 353.2239 
L 762.044669 353.2239 
L 949.513125 353.2239 
L 949.513125 353.2239 
" style="fill:none;stroke:#f7a35c;stroke-linecap:square;"/>
   </g>
   <g id="line2d_11">
    <path clip-path="url(#p5e1a7af429)" d="M 76.613125 353.2239 
L 82.471514 342.742212 
L 88.329904 353.088805 
L 100.046682 353.222972 
L 105.905071 353.11016 
L 111.763461 353.2239 
L 252.364803 353.222507 
L 258.223192 352.954639 
L 264.081581 353.223668 
L 392.966145 353.2239 
L 398.824534 353.048382 
L 404.682924 353.223077 
L 498.417152 353.222455 
L 504.275541 353.073535 
L 510.13393 353.223144 
L 644.876883 353.221704 
L 908.5044 353.2239 
L 914.362789 353.123222 
L 920.221179 353.2239 
L 943.654736 353.2239 
L 949.513125 353.2239 
L 949.513125 353.2239 
" style="fill:none;stroke:#8085e9;stroke-linecap:square;"/>
   </g>
   <g id="line2d_12">
    <path clip-path="url(#p5e1a7af429)" d="M 76.613125 353.2239 
L 82.471514 342.796585 
L 88.329904 353.085455 
L 100.046682 353.223452 
L 105.905071 353.108753 
L 111.763461 353.2239 
L 252.364803 353.221884 
L 258.223192 352.962467 
L 264.081581 353.2239 
L 392.966145 353.2239 
L 398.824534 353.057903 
L 404.682924 353.221969 
L 498.417152 353.222779 
L 504.275541 353.074624 
L 510.13393 353.222723 
L 656.593662 353.185888 
L 674.16883 353.205095 
L 691.743997 353.222851 
L 908.5044 353.21918 
L 914.362789 353.130289 
L 926.079568 353.196974 
L 949.513125 353.2239 
L 949.513125 353.2239 
" style="fill:none;stroke:#f15c80;stroke-linecap:square;"/>
   </g>
   <g id="line2d_13">
    <path clip-path="url(#p5e1a7af429)" d="M 76.613125 353.2239 
L 82.471514 342.768095 
L 88.329904 353.094185 
L 100.046682 353.2239 
L 105.905071 353.102046 
L 111.763461 353.2239 
L 252.364803 353.218004 
L 258.223192 352.997882 
L 264.081581 353.2239 
L 392.966145 353.2239 
L 398.824534 353.071422 
L 404.682924 353.2239 
L 498.417152 353.2239 
L 504.275541 353.069916 
L 510.13393 353.220115 
L 949.513125 353.2239 
L 949.513125 353.2239 
" style="fill:none;stroke:#e4d354;stroke-linecap:square;"/>
   </g>
   <g id="line2d_14">
    <path clip-path="url(#p5e1a7af429)" d="M 76.613125 353.2239 
L 82.471514 342.769621 
L 88.329904 353.108514 
L 100.046682 353.222372 
L 105.905071 353.109278 
L 111.763461 353.2239 
L 252.364803 353.223136 
L 258.223192 352.967147 
L 264.081581 353.2239 
L 392.966145 353.2239 
L 398.824534 353.069816 
L 404.682924 353.222945 
L 498.417152 353.2239 
L 504.275541 353.087316 
L 510.13393 353.2239 
L 615.584937 353.153871 
L 627.301716 353.2239 
L 949.513125 353.2239 
L 949.513125 353.2239 
" style="fill:none;stroke:#2b908f;stroke-linecap:square;"/>
   </g>
   <g id="line2d_15">
    <path clip-path="url(#p5e1a7af429)" d="M 76.613125 353.2239 
L 82.471514 342.868318 
L 88.329904 353.074678 
L 100.046682 353.2239 
L 105.905071 353.122224 
L 117.62185 353.220974 
L 252.364803 353.220974 
L 258.223192 352.963492 
L 264.081581 353.2239 
L 392.966145 353.2239 
L 398.824534 353.065111 
L 404.682924 353.222011 
L 498.417152 353.2239 
L 504.275541 353.08959 
L 510.13393 353.2239 
L 656.593662 353.170591 
L 668.31044 353.220306 
L 697.602387 353.2239 
L 908.5044 353.2239 
L 914.362789 353.057926 
L 920.221179 353.2239 
L 949.513125 353.2239 
L 949.513125 353.2239 
" style="fill:none;stroke:#f45b5b;stroke-linecap:square;"/>
   </g>
   <g id="line2d_16">
    <path clip-path="url(#p5e1a7af429)" d="M 76.613125 353.2239 
L 82.471514 342.782976 
L 88.329904 353.123252 
L 100.046682 353.22225 
L 105.905071 353.118303 
L 117.62185 353.22225 
L 252.364803 353.22225 
L 258.223192 352.958256 
L 264.081581 353.2239 
L 392.966145 353.2239 
L 398.824534 353.05752 
L 404.682924 353.2239 
L 498.417152 353.2239 
L 504.275541 353.051497 
L 510.13393 353.2239 
L 709.319165 353.2239 
L 908.5044 353.2239 
L 914.362789 353.018085 
L 920.221179 353.2239 
L 949.513125 353.2239 
L 949.513125 353.2239 
" style="fill:none;stroke:#91e8e1;stroke-linecap:square;"/>
   </g>
   <g id="line2d_17">
    <path clip-path="url(#p5e1a7af429)" d="M 76.613125 353.2239 
L 82.471514 342.580366 
L 88.329904 353.097857 
L 100.046682 353.222884 
L 105.905071 353.127335 
L 117.62185 353.220851 
L 252.364803 353.222884 
L 258.223192 352.987062 
L 264.081581 353.2239 
L 392.966145 353.2239 
L 398.824534 353.084297 
L 404.682924 353.2239 
L 498.417152 353.2239 
L 504.275541 353.103689 
L 510.13393 353.221842 
L 949.513125 353.2239 
L 949.513125 353.2239 
" style="fill:none;stroke:#7cb5ec;stroke-linecap:square;"/>
   </g>
   <g id="line2d_18">
    <path clip-path="url(#p5e1a7af429)" d="M 76.613125 353.2239 
L 82.471514 342.510795 
L 88.329904 353.096329 
L 100.046682 353.223684 
L 105.905071 353.113814 
L 117.62185 353.222821 
L 252.364803 353.220878 
L 258.223192 352.941562 
L 264.081581 353.2239 
L 392.966145 353.2239 
L 398.824534 353.058741 
L 404.682924 353.2239 
L 498.417152 353.222941 
L 504.275541 353.077224 
L 510.13393 353.221865 
L 703.460776 353.2239 
L 908.5044 353.2239 
L 914.362789 353.109163 
L 920.221179 353.2239 
L 937.796346 353.198215 
L 949.513125 353.2239 
L 949.513125 353.2239 
" style="fill:none;stroke:#434348;stroke-linecap:square;"/>
   </g>
   <g id="line2d_19">
    <path clip-path="url(#p5e1a7af429)" d="M 76.613125 353.2239 
L 82.471514 342.816171 
L 88.329904 353.088086 
L 100.046682 353.223001 
L 105.905071 353.108773 
L 111.763461 353.2239 
L 252.364803 353.221831 
L 258.223192 352.873302 
L 264.081581 353.22381 
L 392.966145 353.2239 
L 398.824534 352.994328 
L 404.682924 353.223003 
L 498.417152 353.223024 
L 504.275541 353.052493 
L 510.13393 353.223378 
L 685.885608 353.2239 
L 908.5044 353.222376 
L 914.362789 353.094734 
L 920.221179 353.218889 
L 943.654736 353.2239 
L 949.513125 353.2239 
L 949.513125 353.2239 
" style="fill:none;stroke:#90ed7d;stroke-linecap:square;"/>
   </g>
   <g id="line2d_20">
    <path clip-path="url(#p5e1a7af429)" d="M 76.613125 353.2239 
L 82.471514 342.594611 
L 88.329904 353.095751 
L 100.046682 353.223445 
L 105.905071 353.119424 
L 117.62185 353.222762 
L 252.364803 353.222762 
L 258.223192 352.943476 
L 264.081581 353.2239 
L 392.966145 353.2239 
L 398.824534 353.046263 
L 404.682924 353.222653 
L 498.417152 353.223604 
L 504.275541 353.085359 
L 510.13393 353.22329 
L 767.903058 353.2239 
L 949.513125 353.2239 
L 949.513125 353.2239 
" style="fill:none;stroke:#f7a35c;stroke-linecap:square;"/>
   </g>
   <g id="line2d_21">
    <path clip-path="url(#p5e1a7af429)" d="M 76.613125 353.2239 
L 82.471514 342.827682 
L 88.329904 353.087024 
L 100.046682 353.223545 
L 105.905071 353.117165 
L 117.62185 353.222836 
L 252.364803 353.221418 
L 258.223192 352.98419 
L 264.081581 353.2239 
L 392.966145 353.2239 
L 398.824534 353.074372 
L 404.682924 353.2239 
L 498.417152 353.2239 
L 504.275541 353.09112 
L 510.13393 353.2239 
L 855.778897 353.2239 
L 908.5044 353.220928 
L 914.362789 353.100488 
L 920.221179 353.220697 
L 949.513125 353.2239 
L 949.513125 353.2239 
" style="fill:none;stroke:#8085e9;stroke-linecap:square;"/>
   </g>
   <g id="line2d_22">
    <path clip-path="url(#p5e1a7af429)" d="M 76.613125 353.2239 
L 82.471514 342.989655 
L 88.329904 353.128483 
L 100.046682 353.222916 
L 105.905071 353.10881 
L 111.763461 353.2239 
L 252.364803 353.222916 
L 258.223192 353.006507 
L 264.081581 353.2239 
L 392.966145 353.2239 
L 398.824534 353.087197 
L 404.682924 353.222738 
L 498.417152 353.2239 
L 504.275541 353.092519 
L 510.13393 353.22232 
L 896.787622 353.2239 
L 908.5044 353.2239 
L 914.362789 353.081912 
L 920.221179 353.2239 
L 926.079568 353.165743 
L 937.796346 353.202669 
L 949.513125 353.2239 
L 949.513125 353.2239 
" style="fill:none;stroke:#f15c80;stroke-linecap:square;"/>
   </g>
   <g id="line2d_23">
    <path clip-path="url(#p5e1a7af429)" d="M 76.613125 353.2239 
L 82.471514 343.119767 
L 88.329904 353.105285 
L 100.046682 353.2239 
L 105.905071 353.110759 
L 111.763461 353.2239 
L 287.515138 353.2239 
L 392.966145 353.2239 
L 398.824534 353.106635 
L 404.682924 353.2239 
L 498.417152 353.2239 
L 504.275541 353.110169 
L 510.13393 353.2239 
L 598.009769 353.2239 
L 949.513125 353.2239 
L 949.513125 353.2239 
" style="fill:none;stroke:#e4d354;stroke-linecap:square;"/>
   </g>
   <g id="line2d_24">
    <path clip-path="url(#p5e1a7af429)" d="M 76.613125 353.2239 
L 82.471514 342.721799 
L 88.329904 353.098095 
L 100.046682 353.223618 
L 105.905071 353.107131 
L 111.763461 353.223759 
L 252.364803 353.221641 
L 258.223192 352.938403 
L 264.081581 353.2239 
L 392.966145 353.2239 
L 398.824534 353.046927 
L 404.682924 353.223558 
L 498.417152 353.223265 
L 504.275541 353.095795 
L 510.13393 353.222808 
L 732.752722 353.213941 
L 803.053393 353.223203 
L 820.628561 353.2239 
L 867.495675 353.2239 
L 908.5044 353.2239 
L 914.362789 353.111188 
L 920.221179 353.222591 
L 949.513125 353.2239 
L 949.513125 353.2239 
" style="fill:none;stroke:#2b908f;stroke-linecap:square;"/>
   </g>
   <g id="line2d_25">
    <path clip-path="url(#p5e1a7af429)" d="M 76.613125 353.2239 
L 82.471514 343.051849 
L 88.329904 353.084811 
L 100.046682 353.2239 
L 105.905071 353.11881 
L 117.62185 353.22287 
L 252.364803 353.2239 
L 258.223192 352.987963 
L 264.081581 353.2239 
L 392.966145 353.2239 
L 398.824534 353.07471 
L 404.682924 353.222571 
L 498.417152 353.2239 
L 504.275541 353.093556 
L 510.13393 353.221993 
L 680.027219 353.17568 
L 697.602387 353.2239 
L 949.513125 353.2239 
L 949.513125 353.2239 
" style="fill:none;stroke:#f45b5b;stroke-linecap:square;"/>
   </g>
   <g id="line2d_26">
    <path clip-path="url(#p5e1a7af429)" d="M 76.613125 353.2239 
L 82.471514 342.753341 
L 88.329904 353.103169 
L 100.046682 353.223334 
L 105.905071 353.106565 
L 111.763461 353.223711 
L 252.364803 353.221448 
L 258.223192 352.899813 
L 264.081581 353.2239 
L 392.966145 353.2239 
L 398.824534 353.013469 
L 404.682924 353.223096 
L 498.417152 353.2239 
L 504.275541 353.069547 
L 510.13393 353.222649 
L 662.452051 353.218962 
L 908.5044 353.2239 
L 914.362789 353.05851 
L 920.221179 353.2239 
L 937.796346 353.210093 
L 949.513125 353.2239 
L 949.513125 353.2239 
" style="fill:none;stroke:#91e8e1;stroke-linecap:square;"/>
   </g>
   <g id="line2d_27">
    <path clip-path="url(#p5e1a7af429)" d="M 76.613125 353.2239 
L 82.471514 342.834995 
L 88.329904 353.084252 
L 100.046682 353.2239 
L 105.905071 353.117987 
L 117.62185 353.223115 
L 252.364803 353.222331 
L 258.223192 353.013642 
L 264.081581 353.2239 
L 392.966145 353.2239 
L 398.824534 353.095239 
L 404.682924 353.223053 
L 498.417152 353.2239 
L 504.275541 353.11154 
L 510.13393 353.2239 
L 808.911783 353.19495 
L 832.34534 353.2239 
L 855.778897 353.2239 
L 949.513125 353.2239 
L 949.513125 353.2239 
" style="fill:none;stroke:#7cb5ec;stroke-linecap:square;"/>
   </g>
   <g id="line2d_28">
    <path clip-path="url(#p5e1a7af429)" d="M 76.613125 353.2239 
L 82.471514 342.618968 
L 88.329904 353.083378 
L 100.046682 353.2239 
L 105.905071 353.086367 
L 111.763461 353.2239 
L 328.523863 353.2239 
L 392.966145 353.2239 
L 398.824534 353.099884 
L 404.682924 353.2239 
L 498.417152 353.2239 
L 504.275541 353.083105 
L 510.13393 353.220148 
L 949.513125 353.2239 
L 949.513125 353.2239 
" style="fill:none;stroke:#434348;stroke-linecap:square;"/>
   </g>
   <g id="line2d_29">
    <path clip-path="url(#p5e1a7af429)" d="M 76.613125 353.2239 
L 82.471514 342.806251 
L 88.329904 353.082948 
L 100.046682 353.217493 
L 111.763461 353.2239 
L 252.364803 353.2239 
L 258.223192 353.012472 
L 264.081581 353.2239 
L 498.417152 353.2239 
L 504.275541 353.065789 
L 510.13393 353.2239 
L 949.513125 353.2239 
L 949.513125 353.2239 
" style="fill:none;stroke:#90ed7d;stroke-linecap:square;"/>
   </g>
   <g id="line2d_30">
    <path clip-path="url(#p5e1a7af429)" d="M 76.613125 353.2239 
L 82.471514 342.855281 
L 88.329904 353.115234 
L 100.046682 353.2239 
L 105.905071 353.117559 
L 117.62185 353.221576 
L 252.364803 353.223319 
L 258.223192 352.954269 
L 264.081581 353.2239 
L 392.966145 353.2239 
L 398.824534 353.045842 
L 404.682924 353.2239 
L 498.417152 353.222647 
L 504.275541 353.09333 
L 510.13393 353.2239 
L 709.319165 353.2239 
L 949.513125 353.2239 
L 949.513125 353.2239 
" style="fill:none;stroke:#f7a35c;stroke-linecap:square;"/>
   </g>
   <g id="line2d_31">
    <path clip-path="url(#p5e1a7af429)" d="M 76.613125 353.2239 
L 82.471514 342.780686 
L 88.329904 353.100878 
L 100.046682 353.223324 
L 105.905071 353.111576 
L 111.763461 353.2239 
L 252.364803 353.220938 
L 258.223192 352.875901 
L 264.081581 353.2239 
L 392.966145 353.2239 
L 398.824534 352.994562 
L 404.682924 353.222933 
L 498.417152 353.223386 
L 504.275541 353.04709 
L 510.13393 353.223264 
L 732.752722 353.210622 
L 791.336615 353.222458 
L 908.5044 353.223156 
L 914.362789 353.111849 
L 920.221179 353.219082 
L 937.796346 353.187649 
L 949.513125 353.2239 
L 949.513125 353.2239 
" style="fill:none;stroke:#8085e9;stroke-linecap:square;"/>
   </g>
   <g id="line2d_32">
    <path clip-path="url(#p5e1a7af429)" d="M 76.613125 353.2239 
L 82.471514 342.625136 
L 88.329904 353.094928 
L 100.046682 353.223365 
L 105.905071 353.110983 
L 111.763461 353.2239 
L 252.364803 353.221224 
L 258.223192 352.949901 
L 264.081581 353.2239 
L 392.966145 353.2239 
L 398.824534 353.046216 
L 404.682924 353.223276 
L 498.417152 353.2239 
L 504.275541 353.067848 
L 510.13393 353.223036 
L 949.513125 353.2239 
L 949.513125 353.2239 
" style="fill:none;stroke:#f15c80;stroke-linecap:square;"/>
   </g>
   <g id="line2d_33">
    <path clip-path="url(#p5e1a7af429)" d="M 76.613125 353.2239 
L 82.471514 342.791116 
L 88.329904 353.096549 
L 100.046682 353.223545 
L 105.905071 353.110647 
L 111.763461 353.223663 
L 252.364803 353.222005 
L 258.223192 352.893025 
L 264.081581 353.2239 
L 392.966145 353.2239 
L 398.824534 353.001427 
L 404.682924 353.222509 
L 498.417152 353.22303 
L 504.275541 353.063609 
L 510.13393 353.223007 
L 703.460776 353.2239 
L 949.513125 353.2239 
L 949.513125 353.2239 
" style="fill:none;stroke:#e4d354;stroke-linecap:square;"/>
   </g>
   <g id="line2d_34">
    <path clip-path="url(#p5e1a7af429)" d="M 76.613125 353.2239 
L 82.471514 342.792387 
L 88.329904 353.100376 
L 100.046682 353.2239 
L 105.905071 353.112867 
L 111.763461 353.2239 
L 252.364803 353.2239 
L 258.223192 352.963667 
L 264.081581 353.2239 
L 392.966145 353.2239 
L 398.824534 353.047301 
L 404.682924 353.2239 
L 498.417152 353.222869 
L 504.275541 353.093408 
L 510.13393 353.220677 
L 949.513125 353.2239 
L 949.513125 353.2239 
" style="fill:none;stroke:#2b908f;stroke-linecap:square;"/>
   </g>
   <g id="line2d_35">
    <path clip-path="url(#p5e1a7af429)" d="M 76.613125 353.2239 
L 82.471514 342.715439 
L 88.329904 353.091591 
L 100.046682 353.222663 
L 105.905071 353.120443 
L 117.62185 353.223076 
L 252.364803 353.222663 
L 258.223192 352.953511 
L 264.081581 353.2239 
L 392.966145 353.2239 
L 398.824534 353.052336 
L 404.682924 353.222423 
L 498.417152 353.2239 
L 504.275541 353.087041 
L 510.13393 353.223186 
L 797.195004 353.218684 
L 908.5044 353.2239 
L 914.362789 353.167548 
L 926.079568 353.208295 
L 949.513125 353.2239 
L 949.513125 353.2239 
" style="fill:none;stroke:#f45b5b;stroke-linecap:square;"/>
   </g>
   <g id="line2d_36">
    <path clip-path="url(#p5e1a7af429)" d="M 76.613125 353.2239 
L 82.471514 342.793596 
L 88.329904 353.088416 
L 100.046682 353.223239 
L 105.905071 353.114852 
L 117.62185 353.222799 
L 252.364803 353.221477 
L 258.223192 352.943679 
L 264.081581 353.2239 
L 392.966145 353.2239 
L 398.824534 353.044921 
L 404.682924 353.223646 
L 498.417152 353.223238 
L 504.275541 353.080468 
L 510.13393 353.223554 
L 709.319165 353.222949 
L 908.5044 353.2239 
L 914.362789 353.085476 
L 920.221179 353.2239 
L 937.796346 353.197182 
L 949.513125 353.2239 
L 949.513125 353.2239 
" style="fill:none;stroke:#91e8e1;stroke-linecap:square;"/>
   </g>
   <g id="line2d_37">
    <path clip-path="url(#p5e1a7af429)" d="M 76.613125 353.2239 
L 82.471514 342.801418 
L 88.329904 353.100085 
L 100.046682 353.222477 
L 105.905071 353.106845 
L 111.763461 353.2239 
L 252.364803 353.221409 
L 258.223192 352.952077 
L 264.081581 353.2239 
L 392.966145 353.2239 
L 398.824534 353.054126 
L 404.682924 353.223087 
L 498.417152 353.223411 
L 504.275541 353.068942 
L 510.13393 353.223396 
L 826.486951 353.214891 
L 908.5044 353.22107 
L 914.362789 353.12442 
L 920.221179 353.217846 
L 943.654736 353.2239 
L 949.513125 353.2239 
L 949.513125 353.2239 
" style="fill:none;stroke:#7cb5ec;stroke-linecap:square;"/>
   </g>
   <g id="line2d_38">
    <path clip-path="url(#p5e1a7af429)" d="M 76.613125 353.2239 
L 82.471514 342.726759 
L 88.329904 353.08998 
L 100.046682 353.223495 
L 105.905071 353.115065 
L 117.62185 353.223091 
L 252.364803 353.220663 
L 258.223192 352.978313 
L 264.081581 353.2239 
L 392.966145 353.2239 
L 398.824534 353.065673 
L 404.682924 353.222983 
L 498.417152 353.222775 
L 504.275541 353.08376 
L 510.13393 353.2239 
L 615.584937 353.164671 
L 627.301716 353.2239 
L 949.513125 353.2239 
L 949.513125 353.2239 
" style="fill:none;stroke:#434348;stroke-linecap:square;"/>
   </g>
   <g id="line2d_39">
    <path clip-path="url(#p5e1a7af429)" d="M 76.613125 353.2239 
L 82.471514 342.75563 
L 88.329904 353.099321 
L 100.046682 353.222695 
L 105.905071 353.112092 
L 111.763461 353.2239 
L 252.364803 353.220767 
L 258.223192 352.957391 
L 264.081581 353.2239 
L 392.966145 353.2239 
L 398.824534 353.056216 
L 404.682924 353.223322 
L 498.417152 353.223536 
L 504.275541 353.086232 
L 510.13393 353.223523 
L 949.513125 353.2239 
L 949.513125 353.2239 
" style="fill:none;stroke:#90ed7d;stroke-linecap:square;"/>
   </g>
   <g id="line2d_40">
    <path clip-path="url(#p5e1a7af429)" d="M 76.613125 353.2239 
L 82.471514 342.81013 
L 88.329904 353.10062 
L 100.046682 353.223329 
L 105.905071 353.122308 
L 117.62185 353.223329 
L 252.364803 353.221046 
L 258.223192 352.976198 
L 264.081581 353.223329 
L 392.966145 353.2239 
L 398.824534 353.07277 
L 404.682924 353.223239 
L 498.417152 353.2239 
L 504.275541 353.073937 
L 510.13393 353.2239 
L 633.160105 353.2239 
L 949.513125 353.2239 
L 949.513125 353.2239 
" style="fill:none;stroke:#f7a35c;stroke-linecap:square;"/>
   </g>
   <g id="line2d_41">
    <path clip-path="url(#p5e1a7af429)" d="M 76.613125 353.2239 
L 82.471514 342.784756 
L 88.329904 353.098014 
L 100.046682 353.222889 
L 105.905071 353.104799 
L 111.763461 353.2239 
L 252.364803 353.222889 
L 258.223192 352.949896 
L 264.081581 353.2239 
L 392.966145 353.2239 
L 398.824534 353.050055 
L 404.682924 353.222377 
L 498.417152 353.223689 
L 504.275541 353.084856 
L 510.13393 353.222589 
L 732.752722 353.215675 
L 832.34534 353.220128 
L 849.920508 353.2239 
L 949.513125 353.2239 
L 949.513125 353.2239 
" style="fill:none;stroke:#8085e9;stroke-linecap:square;"/>
   </g>
   <g id="line2d_42">
    <path clip-path="url(#p5e1a7af429)" d="M 76.613125 353.2239 
L 82.471514 342.457122 
L 88.329904 353.088189 
L 100.046682 353.223611 
L 105.905071 353.10176 
L 111.763461 353.223756 
L 252.364803 353.22159 
L 258.223192 352.797711 
L 264.081581 353.223756 
L 392.966145 353.2239 
L 398.824534 352.939266 
L 404.682924 353.221546 
L 498.417152 353.223717 
L 504.275541 353.019029 
L 510.13393 353.222392 
L 539.425877 353.2239 
L 545.284266 353.083404 
L 551.142655 353.2239 
L 949.513125 353.2239 
L 949.513125 353.2239 
" style="fill:none;stroke:#f15c80;stroke-linecap:square;"/>
   </g>
   <g id="line2d_43">
    <path clip-path="url(#p5e1a7af429)" d="M 76.613125 353.2239 
L 82.471514 342.999703 
L 88.329904 353.082591 
L 100.046682 353.2239 
L 105.905071 353.113027 
L 117.62185 353.2239 
L 252.364803 353.221726 
L 258.223192 353.02172 
L 264.081581 353.2239 
L 392.966145 353.2239 
L 398.824534 353.101119 
L 404.682924 353.2239 
L 498.417152 353.2239 
L 504.275541 353.067691 
L 510.13393 353.2239 
L 949.513125 353.2239 
L 949.513125 353.2239 
" style="fill:none;stroke:#e4d354;stroke-linecap:square;"/>
   </g>
   <g id="line2d_44">
    <path clip-path="url(#p5e1a7af429)" d="M 76.613125 353.2239 
L 82.471514 342.819478 
L 88.329904 353.097503 
L 100.046682 353.2239 
L 105.905071 353.111022 
L 111.763461 353.2239 
L 252.364803 353.221872 
L 258.223192 352.960968 
L 264.081581 353.223224 
L 392.966145 353.2239 
L 398.824534 353.07497 
L 404.682924 353.2239 
L 498.417152 353.2239 
L 504.275541 353.08299 
L 510.13393 353.2239 
L 603.868159 353.2239 
L 949.513125 353.2239 
L 949.513125 353.2239 
" style="fill:none;stroke:#2b908f;stroke-linecap:square;"/>
   </g>
   <g id="line2d_45">
    <path clip-path="url(#p5e1a7af429)" d="M 76.613125 353.2239 
L 82.471514 342.633849 
L 88.329904 353.10679 
L 100.046682 353.222996 
L 105.905071 353.105434 
L 111.763461 353.2239 
L 252.364803 353.222544 
L 258.223192 352.960743 
L 264.081581 353.2239 
L 392.966145 353.2239 
L 398.824534 353.068662 
L 404.682924 353.223338 
L 498.417152 353.222401 
L 504.275541 353.089861 
L 510.13393 353.223117 
L 773.761447 353.2239 
L 949.513125 353.2239 
L 949.513125 353.2239 
" style="fill:none;stroke:#f45b5b;stroke-linecap:square;"/>
   </g>
   <g id="line2d_46">
    <path clip-path="url(#p5e1a7af429)" d="M 76.613125 353.2239 
L 82.471514 343.067875 
L 88.329904 353.086656 
L 100.046682 353.2239 
L 105.905071 353.104558 
L 111.763461 353.2239 
L 217.214467 353.2239 
L 252.364803 353.2239 
L 258.223192 353.012067 
L 264.081581 353.2239 
L 392.966145 353.2239 
L 398.824534 353.107604 
L 404.682924 353.2239 
L 949.513125 353.2239 
L 949.513125 353.2239 
" style="fill:none;stroke:#91e8e1;stroke-linecap:square;"/>
   </g>
   <g id="line2d_47">
    <path clip-path="url(#p5e1a7af429)" d="M 76.613125 353.2239 
L 82.471514 342.994488 
L 88.329904 353.083883 
L 100.046682 353.2239 
L 105.905071 353.120947 
L 117.62185 353.2239 
L 252.364803 353.2239 
L 258.223192 352.997403 
L 264.081581 353.2239 
L 392.966145 353.2239 
L 398.824534 353.072668 
L 404.682924 353.2239 
L 949.513125 353.2239 
L 949.513125 353.2239 
" style="fill:none;stroke:#7cb5ec;stroke-linecap:square;"/>
   </g>
   <g id="line2d_48">
    <path clip-path="url(#p5e1a7af429)" d="M 76.613125 353.2239 
L 82.471514 342.778524 
L 88.329904 353.084102 
L 100.046682 353.222559 
L 105.905071 353.108574 
L 111.763461 353.2239 
L 252.364803 353.222559 
L 258.223192 352.973134 
L 264.081581 353.223565 
L 392.966145 353.2239 
L 398.824534 353.072568 
L 404.682924 353.223505 
L 498.417152 353.2239 
L 504.275541 353.096404 
L 510.13393 353.223395 
L 756.186279 353.2239 
L 949.513125 353.2239 
L 949.513125 353.2239 
" style="fill:none;stroke:#434348;stroke-linecap:square;"/>
   </g>
   <g id="line2d_49">
    <path clip-path="url(#p5e1a7af429)" d="M 76.613125 353.2239 
L 82.471514 342.914296 
L 88.329904 353.090921 
L 100.046682 353.2239 
L 105.905071 353.117351 
L 117.62185 353.223487 
L 252.364803 353.220596 
L 258.223192 352.961658 
L 264.081581 353.2239 
L 392.966145 353.2239 
L 398.824534 353.055329 
L 404.682924 353.222415 
L 498.417152 353.2239 
L 504.275541 353.097101 
L 510.13393 353.223268 
L 709.319165 353.2239 
L 949.513125 353.2239 
L 949.513125 353.2239 
" style="fill:none;stroke:#90ed7d;stroke-linecap:square;"/>
   </g>
   <g id="line2d_50">
    <path clip-path="url(#p5e1a7af429)" d="M 76.613125 353.2239 
L 82.471514 342.76854 
L 88.329904 353.091614 
L 100.046682 353.222306 
L 105.905071 353.113927 
L 117.62185 353.2239 
L 252.364803 353.220712 
L 258.223192 352.994391 
L 264.081581 353.2239 
L 680.027219 353.195417 
L 703.460776 353.2239 
L 949.513125 353.2239 
L 949.513125 353.2239 
" style="fill:none;stroke:#f7a35c;stroke-linecap:square;"/>
   </g>
   <g id="line2d_51">
    <path clip-path="url(#p5e1a7af429)" d="M 76.613125 353.2239 
L 82.471514 342.756966 
L 88.329904 353.090607 
L 100.046682 353.2239 
L 105.905071 353.114531 
L 117.62185 353.222191 
L 252.364803 353.222191 
L 258.223192 352.988073 
L 264.081581 353.2239 
L 392.966145 353.2239 
L 398.824534 353.085207 
L 404.682924 353.2239 
L 498.417152 353.2239 
L 504.275541 353.085995 
L 510.13393 353.2239 
L 562.859434 353.2239 
L 949.513125 353.2239 
L 949.513125 353.2239 
" style="fill:none;stroke:#8085e9;stroke-linecap:square;"/>
   </g>
   <g id="line2d_52">
    <path clip-path="url(#p5e1a7af429)" d="M 76.613125 353.2239 
L 82.471514 342.965235 
L 88.329904 353.069996 
L 100.046682 353.2239 
L 105.905071 353.132519 
L 117.62185 353.2239 
L 252.364803 353.2239 
L 258.223192 352.990639 
L 264.081581 353.2239 
L 392.966145 353.2239 
L 398.824534 353.097732 
L 404.682924 353.2239 
L 498.417152 353.2239 
L 504.275541 353.068594 
L 510.13393 353.22022 
L 949.513125 353.2239 
L 949.513125 353.2239 
" style="fill:none;stroke:#f15c80;stroke-linecap:square;"/>
   </g>
   <g id="line2d_53">
    <path clip-path="url(#p5e1a7af429)" d="M 76.613125 353.2239 
L 82.471514 343.017191 
L 88.329904 353.129634 
L 100.046682 353.2239 
L 105.905071 353.108424 
L 111.763461 353.2239 
L 252.364803 353.2239 
L 258.223192 353.018871 
L 264.081581 353.2239 
L 392.966145 353.2239 
L 398.824534 353.092694 
L 404.682924 353.2239 
L 498.417152 353.2239 
L 504.275541 353.104829 
L 510.13393 353.2239 
L 680.027219 353.202859 
L 715.177555 353.2239 
L 949.513125 353.2239 
L 949.513125 353.2239 
" style="fill:none;stroke:#e4d354;stroke-linecap:square;"/>
   </g>
   <g id="line2d_54">
    <path clip-path="url(#p5e1a7af429)" d="M 76.613125 353.2239 
L 82.471514 342.88835 
L 88.329904 353.097365 
L 100.046682 353.2239 
L 105.905071 353.143132 
L 117.62185 353.218516 
L 240.648024 353.2239 
L 252.364803 353.2239 
L 258.223192 352.995059 
L 264.081581 353.2239 
L 392.966145 353.2239 
L 398.824534 353.086178 
L 404.682924 353.2239 
L 949.513125 353.2239 
L 949.513125 353.2239 
" style="fill:none;stroke:#2b908f;stroke-linecap:square;"/>
   </g>
   <g id="line2d_55">
    <path clip-path="url(#p5e1a7af429)" d="M 76.613125 353.2239 
L 82.471514 342.936363 
L 88.329904 353.055442 
L 94.188293 353.206473 
L 135.197018 353.2239 
L 252.364803 353.2239 
L 258.223192 353.01478 
L 264.081581 353.2239 
L 908.5044 353.211694 
L 914.362789 353.100528 
L 920.221179 353.2239 
L 949.513125 353.2239 
L 949.513125 353.2239 
" style="fill:none;stroke:#f45b5b;stroke-linecap:square;"/>
   </g>
   <g id="line2d_56">
    <path clip-path="url(#p5e1a7af429)" d="M 76.613125 353.2239 
L 82.471514 342.719891 
L 88.329904 353.035487 
L 94.188293 353.198207 
L 100.046682 353.219618 
L 105.905071 353.129694 
L 117.62185 353.2239 
L 252.364803 353.2239 
L 258.223192 353.074026 
L 264.081581 353.2239 
L 949.513125 353.2239 
L 949.513125 353.2239 
" style="fill:none;stroke:#91e8e1;stroke-linecap:square;"/>
   </g>
   <g id="line2d_57">
    <path clip-path="url(#p5e1a7af429)" d="M 76.613125 353.2239 
L 82.471514 342.848286 
L 88.329904 353.089147 
L 100.046682 353.223586 
L 105.905071 353.117983 
L 117.62185 353.222957 
L 252.364803 353.222643 
L 258.223192 353.020317 
L 264.081581 353.2239 
L 392.966145 353.2239 
L 398.824534 353.099513 
L 404.682924 353.223497 
L 498.417152 353.223733 
L 504.275541 353.115575 
L 515.99232 353.222474 
L 908.5044 353.2225 
L 914.362789 353.116988 
L 920.221179 353.220936 
L 943.654736 353.221685 
L 949.513125 353.2239 
L 949.513125 353.2239 
" style="fill:none;stroke:#7cb5ec;stroke-linecap:square;"/>
   </g>
   <g id="line2d_58">
    <path clip-path="url(#p5e1a7af429)" d="M 76.613125 353.2239 
L 82.471514 342.955441 
L 88.329904 353.088319 
L 100.046682 353.223342 
L 105.905071 353.122354 
L 117.62185 353.223342 
L 252.364803 353.223342 
L 258.223192 353.017459 
L 264.081581 353.2239 
L 392.966145 353.2239 
L 398.824534 353.101246 
L 404.682924 353.2239 
L 949.513125 353.2239 
L 949.513125 353.2239 
" style="fill:none;stroke:#434348;stroke-linecap:square;"/>
   </g>
   <g id="line2d_59">
    <path clip-path="url(#p5e1a7af429)" d="M 76.613125 353.2239 
L 82.471514 342.857952 
L 88.329904 353.1046 
L 100.046682 353.223168 
L 105.905071 353.117042 
L 117.62185 353.223168 
L 252.364803 353.2239 
L 258.223192 353.005793 
L 264.081581 353.2239 
L 392.966145 353.2239 
L 398.824534 353.101062 
L 404.682924 353.2239 
L 498.417152 353.2239 
L 504.275541 353.102381 
L 510.13393 353.2239 
L 627.301716 353.2239 
L 949.513125 353.2239 
L 949.513125 353.2239 
" style="fill:none;stroke:#90ed7d;stroke-linecap:square;"/>
   </g>
   <g id="line2d_60">
    <path clip-path="url(#p5e1a7af429)" d="M 76.613125 353.2239 
L 82.471514 342.819097 
L 88.329904 353.086566 
L 100.046682 353.220286 
L 105.905071 353.082952 
L 111.763461 353.2239 
L 287.515138 353.2239 
L 498.417152 353.2239 
L 504.275541 353.102092 
L 510.13393 353.2239 
L 908.5044 353.2239 
L 914.362789 353.110975 
L 920.221179 353.216292 
L 937.796346 353.184543 
L 949.513125 353.2239 
L 949.513125 353.2239 
" style="fill:none;stroke:#f7a35c;stroke-linecap:square;"/>
   </g>
   <g id="line2d_61">
    <path clip-path="url(#p5e1a7af429)" d="M 76.613125 353.2239 
L 82.471514 343.030418 
L 88.329904 353.099372 
L 100.046682 353.223287 
L 105.905071 353.116899 
L 117.62185 353.222797 
L 252.364803 353.222429 
L 258.223192 353.004749 
L 264.081581 353.2239 
L 392.966145 353.2239 
L 398.824534 353.08483 
L 404.682924 353.223407 
L 498.417152 353.223527 
L 504.275541 353.112113 
L 510.13393 353.22365 
L 949.513125 353.2239 
L 949.513125 353.2239 
" style="fill:none;stroke:#8085e9;stroke-linecap:square;"/>
   </g>
   <g id="line2d_62">
    <path clip-path="url(#p5e1a7af429)" d="M 76.613125 353.2239 
L 82.471514 342.898271 
L 88.329904 353.087716 
L 100.046682 353.221686 
L 105.905071 353.133111 
L 117.62185 353.222793 
L 252.364803 353.220578 
L 258.223192 353.032357 
L 264.081581 353.2239 
L 908.5044 353.2239 
L 914.362789 353.111666 
L 920.221179 353.2239 
L 943.654736 353.21717 
L 949.513125 353.2239 
L 949.513125 353.2239 
" style="fill:none;stroke:#f15c80;stroke-linecap:square;"/>
   </g>
   <g id="line2d_63">
    <path clip-path="url(#p5e1a7af429)" d="M 76.613125 353.2239 
L 82.471514 343.044091 
L 88.329904 353.115117 
L 100.046682 353.2239 
L 105.905071 353.108811 
L 111.763461 353.2239 
L 252.364803 353.222323 
L 258.223192 353.03629 
L 264.081581 353.2239 
L 392.966145 353.2239 
L 398.824534 353.103382 
L 404.682924 353.2239 
L 498.417152 353.2239 
L 504.275541 353.103068 
L 510.13393 353.2239 
L 908.5044 353.2239 
L 914.362789 353.089221 
L 920.221179 353.2239 
L 949.513125 353.2239 
L 949.513125 353.2239 
" style="fill:none;stroke:#e4d354;stroke-linecap:square;"/>
   </g>
   <g id="line2d_64">
    <path clip-path="url(#p5e1a7af429)" d="M 76.613125 353.2239 
L 82.471514 342.255149 
L 88.329904 353.088854 
L 100.046682 353.2239 
L 105.905071 353.148874 
L 117.62185 353.2239 
L 252.364803 353.2239 
L 258.223192 353.028834 
L 264.081581 353.2239 
L 392.966145 353.2239 
L 398.824534 353.055281 
L 404.682924 353.2239 
L 949.513125 353.2239 
L 949.513125 353.2239 
" style="fill:none;stroke:#2b908f;stroke-linecap:square;"/>
   </g>
   <g id="line2d_65">
    <path clip-path="url(#p5e1a7af429)" d="M 76.613125 353.2239 
L 82.471514 342.970386 
L 88.329904 353.073915 
L 100.046682 353.2239 
L 105.905071 353.101185 
L 111.763461 353.2239 
L 252.364803 353.221173 
L 258.223192 353.063008 
L 264.081581 353.2239 
L 949.513125 353.2239 
L 949.513125 353.2239 
" style="fill:none;stroke:#f45b5b;stroke-linecap:square;"/>
   </g>
   <g id="line2d_66">
    <path clip-path="url(#p5e1a7af429)" d="M 76.613125 353.2239 
L 82.471514 342.759764 
L 88.329904 353.086798 
L 100.046682 353.223489 
L 105.905071 353.105297 
L 111.763461 353.2239 
L 252.364803 353.222667 
L 258.223192 352.989573 
L 264.081581 353.223694 
L 392.966145 353.2239 
L 398.824534 353.076402 
L 404.682924 353.222986 
L 498.417152 353.223648 
L 504.275541 353.118144 
L 515.99232 353.2221 
L 803.053393 353.2239 
L 820.628561 353.2239 
L 873.354065 353.2239 
L 949.513125 353.2239 
L 949.513125 353.2239 
" style="fill:none;stroke:#91e8e1;stroke-linecap:square;"/>
   </g>
   <g id="line2d_67">
    <path clip-path="url(#p5e1a7af429)" d="M 76.613125 353.2239 
L 82.471514 343.074234 
L 88.329904 353.095335 
L 100.046682 353.2239 
L 105.905071 353.109234 
L 111.763461 353.2239 
L 252.364803 353.220425 
L 258.223192 353.03974 
L 264.081581 353.2239 
L 908.5044 353.2239 
L 914.362789 353.095838 
L 920.221179 353.201032 
L 949.513125 353.2239 
L 949.513125 353.2239 
" style="fill:none;stroke:#7cb5ec;stroke-linecap:square;"/>
   </g>
   <g id="line2d_68">
    <path clip-path="url(#p5e1a7af429)" d="M 76.613125 353.2239 
L 82.471514 342.952707 
L 88.329904 353.064215 
L 100.046682 353.222511 
L 105.905071 353.108649 
L 111.763461 353.2239 
L 252.364803 353.221123 
L 258.223192 353.00173 
L 264.081581 353.2239 
L 392.966145 353.2239 
L 398.824534 353.098869 
L 404.682924 353.2239 
L 498.417152 353.2239 
L 504.275541 353.094979 
L 510.13393 353.2239 
L 615.584937 353.16896 
L 633.160105 353.2239 
L 949.513125 353.2239 
L 949.513125 353.2239 
" style="fill:none;stroke:#434348;stroke-linecap:square;"/>
   </g>
   <g id="line2d_69">
    <path clip-path="url(#p5e1a7af429)" d="M 76.613125 353.2239 
L 82.471514 342.806187 
L 88.329904 353.098511 
L 100.046682 353.222871 
L 105.905071 353.110301 
L 111.763461 353.2239 
L 252.364803 353.222496 
L 258.223192 353.013079 
L 264.081581 353.2239 
L 392.966145 353.2239 
L 398.824534 353.09536 
L 404.682924 353.223509 
L 498.417152 353.223797 
L 504.275541 353.116497 
L 515.99232 353.222864 
L 908.5044 353.222819 
L 914.362789 353.122914 
L 920.221179 353.219969 
L 943.654736 353.222753 
L 949.513125 353.2239 
L 949.513125 353.2239 
" style="fill:none;stroke:#90ed7d;stroke-linecap:square;"/>
   </g>
   <g id="line2d_70">
    <path clip-path="url(#p5e1a7af429)" d="M 76.613125 353.2239 
L 82.471514 343.204538 
L 88.329904 353.094895 
L 100.046682 353.2239 
L 105.905071 353.159398 
L 117.62185 353.2239 
L 252.364803 353.2239 
L 258.223192 353.051894 
L 264.081581 353.2239 
L 498.417152 353.2239 
L 504.275541 353.104915 
L 510.13393 353.2239 
L 949.513125 353.2239 
L 949.513125 353.2239 
" style="fill:none;stroke:#f7a35c;stroke-linecap:square;"/>
   </g>
   <g id="line2d_71">
    <path clip-path="url(#p5e1a7af429)" d="M 76.613125 353.2239 
L 82.471514 342.797538 
L 88.329904 353.100061 
L 100.046682 353.223056 
L 105.905071 353.113985 
L 117.62185 353.223267 
L 252.364803 353.222001 
L 258.223192 353.013774 
L 264.081581 353.2239 
L 392.966145 353.2239 
L 398.824534 353.096238 
L 404.682924 353.223665 
L 908.5044 353.222614 
L 914.362789 353.111561 
L 920.221179 353.222573 
L 943.654736 353.221063 
L 949.513125 353.2239 
L 949.513125 353.2239 
" style="fill:none;stroke:#8085e9;stroke-linecap:square;"/>
   </g>
   <g id="line2d_72">
    <path clip-path="url(#p5e1a7af429)" d="M 76.613125 353.2239 
L 82.471514 343.044472 
L 88.329904 353.109283 
L 100.046682 353.2239 
L 105.905071 353.10212 
L 111.763461 353.2239 
L 252.364803 353.2239 
L 258.223192 353.032872 
L 264.081581 353.2239 
L 533.567487 353.2239 
L 949.513125 353.2239 
L 949.513125 353.2239 
" style="fill:none;stroke:#f15c80;stroke-linecap:square;"/>
   </g>
   <g id="line2d_73">
    <path clip-path="url(#p5e1a7af429)" d="M 76.613125 353.2239 
L 82.471514 342.949527 
L 88.329904 352.992365 
L 100.046682 353.2239 
L 117.62185 353.2239 
L 252.364803 353.2239 
L 258.223192 353.006836 
L 264.081581 353.2239 
L 392.966145 353.2239 
L 398.824534 353.104615 
L 404.682924 353.2239 
L 498.417152 353.2239 
L 504.275541 353.099843 
L 510.13393 353.2239 
L 908.5044 353.2239 
L 914.362789 353.09413 
L 920.221179 353.2239 
L 949.513125 353.2239 
L 949.513125 353.2239 
" style="fill:none;stroke:#e4d354;stroke-linecap:square;"/>
   </g>
   <g id="line2d_74">
    <path clip-path="url(#p5e1a7af429)" d="M 76.613125 353.2239 
L 82.471514 342.500238 
L 88.329904 353.138566 
L 100.046682 353.2239 
L 105.905071 353.057295 
L 111.763461 353.2239 
L 252.364803 353.2239 
L 258.223192 353.00447 
L 264.081581 353.2239 
L 422.258091 353.2239 
L 908.5044 353.2239 
L 914.362789 353.088954 
L 920.221179 353.218473 
L 949.513125 353.2239 
L 949.513125 353.2239 
" style="fill:none;stroke:#2b908f;stroke-linecap:square;"/>
   </g>
   <g id="line2d_75">
    <path clip-path="url(#p5e1a7af429)" d="M 76.613125 353.2239 
L 82.471514 342.758365 
L 88.329904 353.09811 
L 100.046682 353.2239 
L 105.905071 353.119941 
L 117.62185 353.222341 
L 252.364803 353.2239 
L 258.223192 353.026898 
L 264.081581 353.2239 
L 392.966145 353.2239 
L 398.824534 353.09995 
L 404.682924 353.223362 
L 908.5044 353.22148 
L 914.362789 353.1394 
L 926.079568 353.195 
L 949.513125 353.2239 
L 949.513125 353.2239 
" style="fill:none;stroke:#f45b5b;stroke-linecap:square;"/>
   </g>
   <g id="line2d_76">
    <path clip-path="url(#p5e1a7af429)" d="M 76.613125 353.2239 
L 82.471514 342.821259 
L 88.329904 353.089448 
L 100.046682 353.22141 
L 105.905071 353.159164 
L 117.62185 353.2239 
L 252.364803 353.2239 
L 258.223192 353.024711 
L 264.081581 353.2239 
L 392.966145 353.2239 
L 398.824534 353.080038 
L 404.682924 353.2239 
L 949.513125 353.2239 
L 949.513125 353.2239 
" style="fill:none;stroke:#91e8e1;stroke-linecap:square;"/>
   </g>
   <g id="line2d_77">
    <path clip-path="url(#p5e1a7af429)" d="M 76.613125 353.2239 
L 82.471514 342.940243 
L 88.329904 353.088919 
L 100.046682 353.2239 
L 105.905071 353.14484 
L 117.62185 353.2239 
L 252.364803 353.2239 
L 258.223192 353.058066 
L 264.081581 353.2239 
L 908.5044 353.220195 
L 914.362789 353.111667 
L 920.221179 353.220122 
L 949.513125 353.2239 
L 949.513125 353.2239 
" style="fill:none;stroke:#7cb5ec;stroke-linecap:square;"/>
   </g>
   <g id="line2d_78">
    <path clip-path="url(#p5e1a7af429)" d="M 76.613125 353.2239 
L 82.471514 343.030863 
L 88.329904 353.095833 
L 100.046682 353.222523 
L 105.905071 353.110981 
L 111.763461 353.2239 
L 264.081581 353.2239 
L 392.966145 353.2239 
L 398.824534 353.110139 
L 410.541313 353.2239 
L 498.417152 353.2239 
L 504.275541 353.100133 
L 510.13393 353.2239 
L 949.513125 353.2239 
L 949.513125 353.2239 
" style="fill:none;stroke:#434348;stroke-linecap:square;"/>
   </g>
   <g id="line2d_79">
    <path clip-path="url(#p5e1a7af429)" d="M 76.613125 353.2239 
L 82.471514 342.878239 
L 88.329904 353.109785 
L 100.046682 353.2239 
L 105.905071 353.12351 
L 117.62185 353.223508 
L 252.364803 353.222331 
L 258.223192 353.018414 
L 264.081581 353.2239 
L 392.966145 353.2239 
L 398.824534 353.095118 
L 404.682924 353.223486 
L 498.417152 353.223457 
L 504.275541 353.10235 
L 510.13393 353.2239 
L 949.513125 353.2239 
L 949.513125 353.2239 
" style="fill:none;stroke:#90ed7d;stroke-linecap:square;"/>
   </g>
   <g id="line2d_80">
    <path clip-path="url(#p5e1a7af429)" d="M 76.613125 353.2239 
L 82.471514 342.819033 
L 88.329904 353.09172 
L 100.046682 353.223548 
L 105.905071 353.116889 
L 117.62185 353.223548 
L 252.364803 353.222844 
L 258.223192 353.01287 
L 264.081581 353.2239 
L 392.966145 353.2239 
L 398.824534 353.102259 
L 404.682924 353.22297 
L 498.417152 353.223701 
L 504.275541 353.120132 
L 515.99232 353.222691 
L 908.5044 353.222547 
L 914.362789 353.122672 
L 920.221179 353.221826 
L 937.796346 353.200278 
L 949.513125 353.2239 
L 949.513125 353.2239 
" style="fill:none;stroke:#f7a35c;stroke-linecap:square;"/>
   </g>
   <g id="line2d_81">
    <path clip-path="url(#p5e1a7af429)" d="M 76.613125 353.2239 
L 82.471514 342.692037 
L 88.329904 353.078219 
L 100.046682 353.2239 
L 105.905071 353.121067 
L 117.62185 353.2239 
L 252.364803 353.2239 
L 258.223192 353.009663 
L 264.081581 353.2239 
L 949.513125 353.2239 
L 949.513125 353.2239 
" style="fill:none;stroke:#8085e9;stroke-linecap:square;"/>
   </g>
   <g id="line2d_82">
    <path clip-path="url(#p5e1a7af429)" d="M 76.613125 353.2239 
L 82.471514 342.577377 
L 88.329904 353.041483 
L 100.046682 353.2239 
L 105.905071 353.146511 
L 117.62185 353.2239 
L 252.364803 353.218372 
L 258.223192 353.008316 
L 264.081581 353.2239 
L 949.513125 353.2239 
L 949.513125 353.2239 
" style="fill:none;stroke:#f15c80;stroke-linecap:square;"/>
   </g>
   <g id="line2d_83">
    <path clip-path="url(#p5e1a7af429)" d="M 76.613125 353.2239 
L 82.471514 343.04708 
L 88.329904 353.070746 
L 100.046682 353.2239 
L 105.905071 353.097152 
L 111.763461 353.2239 
L 252.364803 353.2239 
L 258.223192 352.980966 
L 264.081581 353.2239 
L 392.966145 353.2239 
L 398.824534 353.045903 
L 404.682924 353.2239 
L 949.513125 353.2239 
L 949.513125 353.2239 
" style="fill:none;stroke:#e4d354;stroke-linecap:square;"/>
   </g>
   <g id="line2d_84">
    <path clip-path="url(#p5e1a7af429)" d="M 76.613125 353.2239 
L 82.471514 342.744883 
L 88.329904 353.093438 
L 100.046682 353.223565 
L 105.905071 353.108176 
L 111.763461 353.2239 
L 252.364803 353.222058 
L 258.223192 353.004007 
L 264.081581 353.223733 
L 392.966145 353.2239 
L 398.824534 353.087529 
L 404.682924 353.223361 
L 498.417152 353.223315 
L 504.275541 353.11915 
L 515.99232 353.222311 
L 908.5044 353.222781 
L 914.362789 353.130276 
L 920.221179 353.22046 
L 943.654736 353.2239 
L 949.513125 353.2239 
L 949.513125 353.2239 
" style="fill:none;stroke:#2b908f;stroke-linecap:square;"/>
   </g>
   <g id="line2d_85">
    <path clip-path="url(#p5e1a7af429)" d="M 76.613125 353.2239 
L 82.471514 342.774136 
L 88.329904 353.094436 
L 100.046682 353.22337 
L 105.905071 353.110963 
L 111.763461 353.223794 
L 252.364803 353.222311 
L 258.223192 352.989604 
L 264.081581 353.2239 
L 392.966145 353.2239 
L 398.824534 353.078914 
L 404.682924 353.223398 
L 498.417152 353.223666 
L 504.275541 353.112744 
L 515.99232 353.223191 
L 908.5044 353.222339 
L 914.362789 353.122763 
L 920.221179 353.22028 
L 943.654736 353.221965 
L 949.513125 353.2239 
L 949.513125 353.2239 
" style="fill:none;stroke:#f45b5b;stroke-linecap:square;"/>
   </g>
   <g id="line2d_86">
    <path clip-path="url(#p5e1a7af429)" d="M 76.613125 353.2239 
L 82.471514 343.374905 
L 88.329904 353.092229 
L 94.188293 353.2239 
L 252.364803 353.2239 
L 258.223192 353.092229 
L 264.081581 353.2239 
L 392.966145 353.2239 
L 398.824534 353.111615 
L 404.682924 353.2239 
L 498.417152 353.2239 
L 504.275541 353.070439 
L 510.13393 353.2239 
L 931.937957 353.2239 
L 937.796346 353.111322 
L 943.654736 353.2239 
L 949.513125 353.2239 
L 949.513125 353.2239 
" style="fill:none;stroke:#91e8e1;stroke-linecap:square;"/>
   </g>
   <g id="line2d_87">
    <path clip-path="url(#p5e1a7af429)" d="M 76.613125 353.2239 
L 82.471514 343.110801 
L 88.329904 353.139272 
L 100.046682 353.2239 
L 105.905071 353.118114 
L 117.62185 353.2239 
L 252.364803 353.2239 
L 258.223192 353.033485 
L 264.081581 353.2239 
L 949.513125 353.2239 
L 949.513125 353.2239 
" style="fill:none;stroke:#7cb5ec;stroke-linecap:square;"/>
   </g>
   <g id="line2d_88">
    <path clip-path="url(#p5e1a7af429)" d="M 76.613125 353.2239 
L 82.471514 342.89401 
L 88.329904 353.101402 
L 100.046682 353.2239 
L 105.905071 353.114608 
L 117.62185 353.222989 
L 252.364803 353.2239 
L 258.223192 353.014879 
L 264.081581 353.2239 
L 392.966145 353.2239 
L 398.824534 353.098476 
L 404.682924 353.223424 
L 498.417152 353.2239 
L 504.275541 353.110065 
L 510.13393 353.2239 
L 685.885608 353.2239 
L 908.5044 353.219145 
L 914.362789 353.094806 
L 920.221179 353.219019 
L 943.654736 353.221831 
L 949.513125 353.2239 
L 949.513125 353.2239 
" style="fill:none;stroke:#434348;stroke-linecap:square;"/>
   </g>
   <g id="line2d_89">
    <path clip-path="url(#p5e1a7af429)" d="M 76.613125 353.2239 
L 82.471514 342.742657 
L 88.329904 353.092025 
L 100.046682 353.223426 
L 105.905071 353.117166 
L 117.62185 353.222477 
L 252.364803 353.222951 
L 258.223192 353.02419 
L 264.081581 353.2239 
L 392.966145 353.2239 
L 398.824534 353.103608 
L 404.682924 353.22341 
L 908.5044 353.223049 
L 914.362789 353.12506 
L 920.221179 353.223031 
L 943.654736 353.220259 
L 949.513125 353.2239 
L 949.513125 353.2239 
" style="fill:none;stroke:#90ed7d;stroke-linecap:square;"/>
   </g>
   <g id="line2d_90">
    <path clip-path="url(#p5e1a7af429)" d="M 76.613125 353.2239 
L 82.471514 342.892992 
L 88.329904 353.079344 
L 100.046682 353.2239 
L 105.905071 353.117893 
L 117.62185 353.220688 
L 252.364803 353.2239 
L 258.223192 353.031159 
L 264.081581 353.2239 
L 908.5044 353.2239 
L 914.362789 353.047667 
L 920.221179 353.2239 
L 943.654736 353.2239 
L 949.513125 353.2239 
L 949.513125 353.2239 
" style="fill:none;stroke:#f7a35c;stroke-linecap:square;"/>
   </g>
   <g id="line2d_91">
    <path clip-path="url(#p5e1a7af429)" d="M 76.613125 353.2239 
L 82.471514 342.821323 
L 88.329904 353.097106 
L 100.046682 353.223387 
L 105.905071 353.114329 
L 117.62185 353.223088 
L 252.364803 353.222575 
L 258.223192 352.997621 
L 264.081581 353.2239 
L 392.966145 353.2239 
L 398.824534 353.085214 
L 404.682924 353.2231 
L 498.417152 353.2239 
L 504.275541 353.118334 
L 515.99232 353.222781 
L 908.5044 353.222221 
L 914.362789 353.115651 
L 920.221179 353.221209 
L 937.796346 353.197546 
L 949.513125 353.2239 
L 949.513125 353.2239 
" style="fill:none;stroke:#8085e9;stroke-linecap:square;"/>
   </g>
   <g id="line2d_92">
    <path clip-path="url(#p5e1a7af429)" d="M 76.613125 353.2239 
L 82.471514 342.75792 
L 88.329904 353.09134 
L 100.046682 353.223804 
L 105.905071 353.11488 
L 117.62185 353.222646 
L 252.364803 353.222646 
L 258.223192 353.004703 
L 264.081581 353.2239 
L 392.966145 353.2239 
L 398.824534 353.085494 
L 404.682924 353.223188 
L 498.417152 353.2239 
L 504.275541 353.120697 
L 515.99232 353.222279 
L 803.053393 353.22348 
L 820.628561 353.223041 
L 896.787622 353.22374 
L 949.513125 353.2239 
L 949.513125 353.2239 
" style="fill:none;stroke:#f15c80;stroke-linecap:square;"/>
   </g>
   <g id="line2d_93">
    <path clip-path="url(#p5e1a7af429)" d="M 76.613125 353.2239 
L 82.471514 342.853628 
L 88.329904 353.119846 
L 100.046682 353.2239 
L 105.905071 353.131051 
L 117.62185 353.2239 
L 252.364803 353.222299 
L 258.223192 353.023795 
L 264.081581 353.2239 
L 392.966145 353.2239 
L 398.824534 353.096182 
L 404.682924 353.2239 
L 949.513125 353.2239 
L 949.513125 353.2239 
" style="fill:none;stroke:#e4d354;stroke-linecap:square;"/>
   </g>
   <g id="line2d_94">
    <path clip-path="url(#p5e1a7af429)" d="M 76.613125 353.2239 
L 82.471514 343.05859 
L 88.329904 353.101313 
L 100.046682 353.2239 
L 105.905071 353.106028 
L 111.763461 353.2239 
L 258.223192 353.044735 
L 264.081581 353.2239 
L 392.966145 353.2239 
L 398.824534 353.105243 
L 404.682924 353.2239 
L 949.513125 353.2239 
L 949.513125 353.2239 
" style="fill:none;stroke:#2b908f;stroke-linecap:square;"/>
   </g>
   <g id="line2d_95">
    <path clip-path="url(#p5e1a7af429)" d="M 76.613125 353.2239 
L 82.471514 343.138527 
L 88.329904 353.101335 
L 100.046682 353.2239 
L 105.905071 353.11009 
L 111.763461 353.2239 
L 258.223192 353.026921 
L 264.081581 353.2239 
L 908.5044 353.219567 
L 914.362789 353.083714 
L 920.221179 353.21947 
L 949.513125 353.2239 
L 949.513125 353.2239 
" style="fill:none;stroke:#f45b5b;stroke-linecap:square;"/>
   </g>
   <g id="line2d_96">
    <path clip-path="url(#p5e1a7af429)" d="M 76.613125 353.2239 
L 82.471514 342.993025 
L 88.329904 353.085384 
L 100.046682 353.222147 
L 105.905071 353.111685 
L 111.763461 353.2239 
L 252.364803 353.2239 
L 258.223192 352.994209 
L 264.081581 353.2239 
L 392.966145 353.2239 
L 398.824534 353.092418 
L 404.682924 353.2239 
L 949.513125 353.2239 
L 949.513125 353.2239 
" style="fill:none;stroke:#91e8e1;stroke-linecap:square;"/>
   </g>
   <g id="line2d_97">
    <path clip-path="url(#p5e1a7af429)" d="M 76.613125 353.2239 
L 82.471514 342.711178 
L 88.329904 353.092726 
L 100.046682 353.223507 
L 105.905071 353.11197 
L 111.763461 353.223769 
L 252.364803 353.222329 
L 258.223192 352.962207 
L 264.081581 353.2239 
L 392.966145 353.2239 
L 398.824534 353.060022 
L 404.682924 353.222991 
L 498.417152 353.22373 
L 504.275541 353.09576 
L 510.13393 353.223381 
L 949.513125 353.2239 
L 949.513125 353.2239 
" style="fill:none;stroke:#7cb5ec;stroke-linecap:square;"/>
   </g>
   <g id="line2d_98">
    <path clip-path="url(#p5e1a7af429)" d="M 76.613125 353.2239 
L 82.471514 342.878557 
L 88.329904 353.09403 
L 100.046682 353.22348 
L 105.905071 353.118787 
L 117.62185 353.223271 
L 252.364803 353.222222 
L 258.223192 353.024374 
L 264.081581 353.2239 
L 392.966145 353.2239 
L 398.824534 353.094443 
L 404.682924 353.223682 
L 498.417152 353.223443 
L 504.275541 353.106752 
L 510.13393 353.22367 
L 949.513125 353.2239 
L 949.513125 353.2239 
" style="fill:none;stroke:#434348;stroke-linecap:square;"/>
   </g>
   <g id="line2d_99">
    <path clip-path="url(#p5e1a7af429)" d="M 76.613125 353.2239 
L 82.471514 342.715248 
L 88.329904 353.088273 
L 100.046682 353.2239 
L 105.905071 353.090695 
L 111.763461 353.2239 
L 252.364803 353.2239 
L 258.223192 353.003506 
L 264.081581 353.2239 
L 392.966145 353.2239 
L 398.824534 353.086641 
L 404.682924 353.221399 
L 498.417152 353.2239 
L 504.275541 353.143383 
L 515.99232 353.2239 
L 949.513125 353.2239 
L 949.513125 353.2239 
" style="fill:none;stroke:#90ed7d;stroke-linecap:square;"/>
   </g>
   <g id="line2d_100">
    <path clip-path="url(#p5e1a7af429)" d="M 76.613125 353.2239 
L 82.471514 342.746664 
L 88.329904 353.111688 
L 100.046682 353.2239 
L 105.905071 353.16156 
L 117.62185 353.219744 
L 252.364803 353.2239 
L 258.223192 352.991165 
L 264.081581 353.2239 
L 392.966145 353.2239 
L 398.824534 353.093044 
L 404.682924 353.2239 
L 908.5044 353.2239 
L 914.362789 353.102616 
L 920.221179 353.212275 
L 949.513125 353.2239 
L 949.513125 353.2239 
" style="fill:none;stroke:#f7a35c;stroke-linecap:square;"/>
   </g>
   <g id="line2d_101">
    <path clip-path="url(#p5e1a7af429)" d="M 76.613125 353.2239 
L 82.471514 342.641289 
L 88.329904 353.098414 
L 100.046682 353.2239 
L 105.905071 353.127694 
L 117.62185 353.2239 
L 252.364803 353.2239 
L 258.223192 353.027305 
L 264.081581 353.2239 
L 392.966145 353.2239 
L 398.824534 353.09967 
L 404.682924 353.2239 
L 908.5044 353.2239 
L 914.362789 353.107694 
L 920.221179 353.2239 
L 937.796346 353.189179 
L 949.513125 353.2239 
L 949.513125 353.2239 
" style="fill:none;stroke:#8085e9;stroke-linecap:square;"/>
   </g>
   <g id="line2d_102">
    <path clip-path="url(#p5e1a7af429)" d="M 76.613125 353.2239 
L 82.471514 342.948573 
L 88.329904 353.103671 
L 100.046682 353.2239 
L 105.905071 353.103671 
L 111.763461 353.2239 
L 252.364803 353.2239 
L 258.223192 353.009205 
L 264.081581 353.2239 
L 392.966145 353.2239 
L 398.824534 353.066019 
L 404.682924 353.2239 
L 498.417152 353.2239 
L 504.275541 353.054035 
L 510.13393 353.2239 
L 639.018494 353.2239 
L 908.5044 353.2239 
L 914.362789 353.063853 
L 920.221179 353.2239 
L 937.796346 353.186534 
L 949.513125 353.2239 
L 949.513125 353.2239 
" style="fill:none;stroke:#f15c80;stroke-linecap:square;"/>
   </g>
   <g id="line2d_103">
    <path clip-path="url(#p5e1a7af429)" d="M 32.968125 353.2239 
L 993.158125 353.2239 
" style="fill:none;stroke:#dedede;stroke-linecap:square;stroke-width:2;"/>
   </g>
   <g id="text_17">
    <!-- Fastp: Read N Content -->
    <defs>
     <path d="M 9.8125 72.90625 
L 51.703125 72.90625 
L 51.703125 64.59375 
L 19.671875 64.59375 
L 19.671875 43.109375 
L 48.578125 43.109375 
L 48.578125 34.8125 
L 19.671875 34.8125 
L 19.671875 0 
L 9.8125 0 
z
" id="DejaVuSans-70"/>
     <path d="M 18.109375 8.203125 
L 18.109375 -20.796875 
L 9.078125 -20.796875 
L 9.078125 54.6875 
L 18.109375 54.6875 
L 18.109375 46.390625 
Q 20.953125 51.265625 25.265625 53.625 
Q 29.59375 56 35.59375 56 
Q 45.5625 56 51.78125 48.09375 
Q 58.015625 40.1875 58.015625 27.296875 
Q 58.015625 14.40625 51.78125 6.484375 
Q 45.5625 -1.421875 35.59375 -1.421875 
Q 29.59375 -1.421875 25.265625 0.953125 
Q 20.953125 3.328125 18.109375 8.203125 
z
M 48.6875 27.296875 
Q 48.6875 37.203125 44.609375 42.84375 
Q 40.53125 48.484375 33.40625 48.484375 
Q 26.265625 48.484375 22.1875 42.84375 
Q 18.109375 37.203125 18.109375 27.296875 
Q 18.109375 17.390625 22.1875 11.75 
Q 26.265625 6.109375 33.40625 6.109375 
Q 40.53125 6.109375 44.609375 11.75 
Q 48.6875 17.390625 48.6875 27.296875 
z
" id="DejaVuSans-112"/>
     <path d="M 9.8125 72.90625 
L 23.09375 72.90625 
L 55.421875 11.921875 
L 55.421875 72.90625 
L 64.984375 72.90625 
L 64.984375 0 
L 51.703125 0 
L 19.390625 60.984375 
L 19.390625 0 
L 9.8125 0 
z
" id="DejaVuSans-78"/>
    </defs>
    <g transform="translate(422.606875 19.3575)scale(0.16 -0.16)">
     <use xlink:href="#DejaVuSans-70"/>
     <use x="57.378906" xlink:href="#DejaVuSans-97"/>
     <use x="118.658203" xlink:href="#DejaVuSans-115"/>
     <use x="170.757812" xlink:href="#DejaVuSans-116"/>
     <use x="209.966797" xlink:href="#DejaVuSans-112"/>
     <use x="273.443359" xlink:href="#DejaVuSans-58"/>
     <use x="307.134766" xlink:href="#DejaVuSans-32"/>
     <use x="338.921875" xlink:href="#DejaVuSans-82"/>
     <use x="408.341797" xlink:href="#DejaVuSans-101"/>
     <use x="469.865234" xlink:href="#DejaVuSans-97"/>
     <use x="531.144531" xlink:href="#DejaVuSans-100"/>
     <use x="594.621094" xlink:href="#DejaVuSans-32"/>
     <use x="626.408203" xlink:href="#DejaVuSans-78"/>
     <use x="701.212891" xlink:href="#DejaVuSans-32"/>
     <use x="733" xlink:href="#DejaVuSans-67"/>
     <use x="802.824219" xlink:href="#DejaVuSans-111"/>
     <use x="864.005859" xlink:href="#DejaVuSans-110"/>
     <use x="927.384766" xlink:href="#DejaVuSans-116"/>
     <use x="966.59375" xlink:href="#DejaVuSans-101"/>
     <use x="1028.117188" xlink:href="#DejaVuSans-110"/>
     <use x="1091.496094" xlink:href="#DejaVuSans-116"/>
    </g>
   </g>
  </g>
 </g>
 <defs>
  <clipPath id="p5e1a7af429">
   <rect height="317.968" width="960.19" x="32.968125" y="35.2559"/>
  </clipPath>
 </defs>
</svg>
