<?xml version="1.0" encoding="utf-8" standalone="no"?>
<!DOCTYPE svg PUBLIC "-//W3C//DTD SVG 1.1//EN"
  "http://www.w3.org/Graphics/SVG/1.1/DTD/svg11.dtd">
<!-- Created with matplotlib (https://matplotlib.org/) -->
<svg height="330.541644pt" version="1.1" viewBox="0 0 1000.318125 330.541644" width="1000.318125pt" xmlns="http://www.w3.org/2000/svg" xmlns:xlink="http://www.w3.org/1999/xlink">
 <defs>
  <style type="text/css">
*{stroke-linecap:butt;stroke-linejoin:round;}
  </style>
 </defs>
 <g id="figure_1">
  <g id="axes_1">
   <g id="patch_1">
    <path d="M 38.058125 273.99006 
L 993.118125 273.99006 
L 993.118125 31.48286 
L 38.058125 31.48286 
z
" style="fill:#ffffff;"/>
   </g>
   <g id="matplotlib.axis_1">
    <g id="xtick_1">
     <g id="text_1">
      <!-- 0 -->
      <defs>
       <path d="M 31.78125 66.40625 
Q 24.171875 66.40625 20.328125 58.90625 
Q 16.5 51.421875 16.5 36.375 
Q 16.5 21.390625 20.328125 13.890625 
Q 24.171875 6.390625 31.78125 6.390625 
Q 39.453125 6.390625 43.28125 13.890625 
Q 47.125 21.390625 47.125 36.375 
Q 47.125 51.421875 43.28125 58.90625 
Q 39.453125 66.40625 31.78125 66.40625 
z
M 31.78125 74.21875 
Q 44.046875 74.21875 50.515625 64.515625 
Q 56.984375 54.828125 56.984375 36.375 
Q 56.984375 17.96875 50.515625 8.265625 
Q 44.046875 -1.421875 31.78125 -1.421875 
Q 19.53125 -1.421875 13.0625 8.265625 
Q 6.59375 17.96875 6.59375 36.375 
Q 6.59375 54.828125 13.0625 64.515625 
Q 19.53125 74.21875 31.78125 74.21875 
z
" id="DejaVuSans-48"/>
      </defs>
      <g transform="translate(73.097853 287.06881)scale(0.08 -0.08)">
       <use xlink:href="#DejaVuSans-48"/>
      </g>
     </g>
    </g>
    <g id="xtick_2">
     <g id="text_2">
      <!-- 20 -->
      <defs>
       <path d="M 19.1875 8.296875 
L 53.609375 8.296875 
L 53.609375 0 
L 7.328125 0 
L 7.328125 8.296875 
Q 12.9375 14.109375 22.625 23.890625 
Q 32.328125 33.6875 34.8125 36.53125 
Q 39.546875 41.84375 41.421875 45.53125 
Q 43.3125 49.21875 43.3125 52.78125 
Q 43.3125 58.59375 39.234375 62.25 
Q 35.15625 65.921875 28.609375 65.921875 
Q 23.96875 65.921875 18.8125 64.3125 
Q 13.671875 62.703125 7.8125 59.421875 
L 7.8125 69.390625 
Q 13.765625 71.78125 18.9375 73 
Q 24.125 74.21875 28.421875 74.21875 
Q 39.75 74.21875 46.484375 68.546875 
Q 53.21875 62.890625 53.21875 53.421875 
Q 53.21875 48.921875 51.53125 44.890625 
Q 49.859375 40.875 45.40625 35.40625 
Q 44.1875 33.984375 37.640625 27.21875 
Q 31.109375 20.453125 19.1875 8.296875 
z
" id="DejaVuSans-50"/>
      </defs>
      <g transform="translate(187.094647 287.06881)scale(0.08 -0.08)">
       <use xlink:href="#DejaVuSans-50"/>
       <use x="63.623047" xlink:href="#DejaVuSans-48"/>
      </g>
     </g>
    </g>
    <g id="xtick_3">
     <g id="text_3">
      <!-- 40 -->
      <defs>
       <path d="M 37.796875 64.3125 
L 12.890625 25.390625 
L 37.796875 25.390625 
z
M 35.203125 72.90625 
L 47.609375 72.90625 
L 47.609375 25.390625 
L 58.015625 25.390625 
L 58.015625 17.1875 
L 47.609375 17.1875 
L 47.609375 0 
L 37.796875 0 
L 37.796875 17.1875 
L 4.890625 17.1875 
L 4.890625 26.703125 
z
" id="DejaVuSans-52"/>
      </defs>
      <g transform="translate(303.636441 287.06881)scale(0.08 -0.08)">
       <use xlink:href="#DejaVuSans-52"/>
       <use x="63.623047" xlink:href="#DejaVuSans-48"/>
      </g>
     </g>
    </g>
    <g id="xtick_4">
     <g id="text_4">
      <!-- 60 -->
      <defs>
       <path d="M 33.015625 40.375 
Q 26.375 40.375 22.484375 35.828125 
Q 18.609375 31.296875 18.609375 23.390625 
Q 18.609375 15.53125 22.484375 10.953125 
Q 26.375 6.390625 33.015625 6.390625 
Q 39.65625 6.390625 43.53125 10.953125 
Q 47.40625 15.53125 47.40625 23.390625 
Q 47.40625 31.296875 43.53125 35.828125 
Q 39.65625 40.375 33.015625 40.375 
z
M 52.59375 71.296875 
L 52.59375 62.3125 
Q 48.875 64.0625 45.09375 64.984375 
Q 41.3125 65.921875 37.59375 65.921875 
Q 27.828125 65.921875 22.671875 59.328125 
Q 17.53125 52.734375 16.796875 39.40625 
Q 19.671875 43.65625 24.015625 45.921875 
Q 28.375 48.1875 33.59375 48.1875 
Q 44.578125 48.1875 50.953125 41.515625 
Q 57.328125 34.859375 57.328125 23.390625 
Q 57.328125 12.15625 50.6875 5.359375 
Q 44.046875 -1.421875 33.015625 -1.421875 
Q 20.359375 -1.421875 13.671875 8.265625 
Q 6.984375 17.96875 6.984375 36.375 
Q 6.984375 53.65625 15.1875 63.9375 
Q 23.390625 74.21875 37.203125 74.21875 
Q 40.921875 74.21875 44.703125 73.484375 
Q 48.484375 72.75 52.59375 71.296875 
z
" id="DejaVuSans-54"/>
      </defs>
      <g transform="translate(420.178235 287.06881)scale(0.08 -0.08)">
       <use xlink:href="#DejaVuSans-54"/>
       <use x="63.623047" xlink:href="#DejaVuSans-48"/>
      </g>
     </g>
    </g>
    <g id="xtick_5">
     <g id="text_5">
      <!-- 80 -->
      <defs>
       <path d="M 31.78125 34.625 
Q 24.75 34.625 20.71875 30.859375 
Q 16.703125 27.09375 16.703125 20.515625 
Q 16.703125 13.921875 20.71875 10.15625 
Q 24.75 6.390625 31.78125 6.390625 
Q 38.8125 6.390625 42.859375 10.171875 
Q 46.921875 13.96875 46.921875 20.515625 
Q 46.921875 27.09375 42.890625 30.859375 
Q 38.875 34.625 31.78125 34.625 
z
M 21.921875 38.8125 
Q 15.578125 40.375 12.03125 44.71875 
Q 8.5 49.078125 8.5 55.328125 
Q 8.5 64.0625 14.71875 69.140625 
Q 20.953125 74.21875 31.78125 74.21875 
Q 42.671875 74.21875 48.875 69.140625 
Q 55.078125 64.0625 55.078125 55.328125 
Q 55.078125 49.078125 51.53125 44.71875 
Q 48 40.375 41.703125 38.8125 
Q 48.828125 37.15625 52.796875 32.3125 
Q 56.78125 27.484375 56.78125 20.515625 
Q 56.78125 9.90625 50.3125 4.234375 
Q 43.84375 -1.421875 31.78125 -1.421875 
Q 19.734375 -1.421875 13.25 4.234375 
Q 6.78125 9.90625 6.78125 20.515625 
Q 6.78125 27.484375 10.78125 32.3125 
Q 14.796875 37.15625 21.921875 38.8125 
z
M 18.3125 54.390625 
Q 18.3125 48.734375 21.84375 45.5625 
Q 25.390625 42.390625 31.78125 42.390625 
Q 38.140625 42.390625 41.71875 45.5625 
Q 45.3125 48.734375 45.3125 54.390625 
Q 45.3125 60.0625 41.71875 63.234375 
Q 38.140625 66.40625 31.78125 66.40625 
Q 25.390625 66.40625 21.84375 63.234375 
Q 18.3125 60.0625 18.3125 54.390625 
z
" id="DejaVuSans-56"/>
      </defs>
      <g transform="translate(536.720029 287.06881)scale(0.08 -0.08)">
       <use xlink:href="#DejaVuSans-56"/>
       <use x="63.623047" xlink:href="#DejaVuSans-48"/>
      </g>
     </g>
    </g>
    <g id="xtick_6">
     <g id="text_6">
      <!-- 100 -->
      <defs>
       <path d="M 12.40625 8.296875 
L 28.515625 8.296875 
L 28.515625 63.921875 
L 10.984375 60.40625 
L 10.984375 69.390625 
L 28.421875 72.90625 
L 38.28125 72.90625 
L 38.28125 8.296875 
L 54.390625 8.296875 
L 54.390625 0 
L 12.40625 0 
z
" id="DejaVuSans-49"/>
      </defs>
      <g transform="translate(650.716822 287.06881)scale(0.08 -0.08)">
       <use xlink:href="#DejaVuSans-49"/>
       <use x="63.623047" xlink:href="#DejaVuSans-48"/>
       <use x="127.246094" xlink:href="#DejaVuSans-48"/>
      </g>
     </g>
    </g>
    <g id="xtick_7">
     <g id="text_7">
      <!-- 120 -->
      <g transform="translate(767.258616 287.06881)scale(0.08 -0.08)">
       <use xlink:href="#DejaVuSans-49"/>
       <use x="63.623047" xlink:href="#DejaVuSans-50"/>
       <use x="127.246094" xlink:href="#DejaVuSans-48"/>
      </g>
     </g>
    </g>
    <g id="xtick_8">
     <g id="text_8">
      <!-- 140 -->
      <g transform="translate(883.80041 287.06881)scale(0.08 -0.08)">
       <use xlink:href="#DejaVuSans-49"/>
       <use x="63.623047" xlink:href="#DejaVuSans-52"/>
       <use x="127.246094" xlink:href="#DejaVuSans-48"/>
      </g>
     </g>
    </g>
    <g id="text_9">
     <!-- Read Position -->
     <defs>
      <path d="M 44.390625 34.1875 
Q 47.5625 33.109375 50.5625 29.59375 
Q 53.5625 26.078125 56.59375 19.921875 
L 66.609375 0 
L 56 0 
L 46.6875 18.703125 
Q 43.0625 26.03125 39.671875 28.421875 
Q 36.28125 30.8125 30.421875 30.8125 
L 19.671875 30.8125 
L 19.671875 0 
L 9.8125 0 
L 9.8125 72.90625 
L 32.078125 72.90625 
Q 44.578125 72.90625 50.734375 67.671875 
Q 56.890625 62.453125 56.890625 51.90625 
Q 56.890625 45.015625 53.6875 40.46875 
Q 50.484375 35.9375 44.390625 34.1875 
z
M 19.671875 64.796875 
L 19.671875 38.921875 
L 32.078125 38.921875 
Q 39.203125 38.921875 42.84375 42.21875 
Q 46.484375 45.515625 46.484375 51.90625 
Q 46.484375 58.296875 42.84375 61.546875 
Q 39.203125 64.796875 32.078125 64.796875 
z
" id="DejaVuSans-82"/>
      <path d="M 56.203125 29.59375 
L 56.203125 25.203125 
L 14.890625 25.203125 
Q 15.484375 15.921875 20.484375 11.0625 
Q 25.484375 6.203125 34.421875 6.203125 
Q 39.59375 6.203125 44.453125 7.46875 
Q 49.3125 8.734375 54.109375 11.28125 
L 54.109375 2.78125 
Q 49.265625 0.734375 44.1875 -0.34375 
Q 39.109375 -1.421875 33.890625 -1.421875 
Q 20.796875 -1.421875 13.15625 6.1875 
Q 5.515625 13.8125 5.515625 26.8125 
Q 5.515625 40.234375 12.765625 48.109375 
Q 20.015625 56 32.328125 56 
Q 43.359375 56 49.78125 48.890625 
Q 56.203125 41.796875 56.203125 29.59375 
z
M 47.21875 32.234375 
Q 47.125 39.59375 43.09375 43.984375 
Q 39.0625 48.390625 32.421875 48.390625 
Q 24.90625 48.390625 20.390625 44.140625 
Q 15.875 39.890625 15.1875 32.171875 
z
" id="DejaVuSans-101"/>
      <path d="M 34.28125 27.484375 
Q 23.390625 27.484375 19.1875 25 
Q 14.984375 22.515625 14.984375 16.5 
Q 14.984375 11.71875 18.140625 8.90625 
Q 21.296875 6.109375 26.703125 6.109375 
Q 34.1875 6.109375 38.703125 11.40625 
Q 43.21875 16.703125 43.21875 25.484375 
L 43.21875 27.484375 
z
M 52.203125 31.203125 
L 52.203125 0 
L 43.21875 0 
L 43.21875 8.296875 
Q 40.140625 3.328125 35.546875 0.953125 
Q 30.953125 -1.421875 24.3125 -1.421875 
Q 15.921875 -1.421875 10.953125 3.296875 
Q 6 8.015625 6 15.921875 
Q 6 25.140625 12.171875 29.828125 
Q 18.359375 34.515625 30.609375 34.515625 
L 43.21875 34.515625 
L 43.21875 35.40625 
Q 43.21875 41.609375 39.140625 45 
Q 35.0625 48.390625 27.6875 48.390625 
Q 23 48.390625 18.546875 47.265625 
Q 14.109375 46.140625 10.015625 43.890625 
L 10.015625 52.203125 
Q 14.9375 54.109375 19.578125 55.046875 
Q 24.21875 56 28.609375 56 
Q 40.484375 56 46.34375 49.84375 
Q 52.203125 43.703125 52.203125 31.203125 
z
" id="DejaVuSans-97"/>
      <path d="M 45.40625 46.390625 
L 45.40625 75.984375 
L 54.390625 75.984375 
L 54.390625 0 
L 45.40625 0 
L 45.40625 8.203125 
Q 42.578125 3.328125 38.25 0.953125 
Q 33.9375 -1.421875 27.875 -1.421875 
Q 17.96875 -1.421875 11.734375 6.484375 
Q 5.515625 14.40625 5.515625 27.296875 
Q 5.515625 40.1875 11.734375 48.09375 
Q 17.96875 56 27.875 56 
Q 33.9375 56 38.25 53.625 
Q 42.578125 51.265625 45.40625 46.390625 
z
M 14.796875 27.296875 
Q 14.796875 17.390625 18.875 11.75 
Q 22.953125 6.109375 30.078125 6.109375 
Q 37.203125 6.109375 41.296875 11.75 
Q 45.40625 17.390625 45.40625 27.296875 
Q 45.40625 37.203125 41.296875 42.84375 
Q 37.203125 48.484375 30.078125 48.484375 
Q 22.953125 48.484375 18.875 42.84375 
Q 14.796875 37.203125 14.796875 27.296875 
z
" id="DejaVuSans-100"/>
      <path id="DejaVuSans-32"/>
      <path d="M 19.671875 64.796875 
L 19.671875 37.40625 
L 32.078125 37.40625 
Q 38.96875 37.40625 42.71875 40.96875 
Q 46.484375 44.53125 46.484375 51.125 
Q 46.484375 57.671875 42.71875 61.234375 
Q 38.96875 64.796875 32.078125 64.796875 
z
M 9.8125 72.90625 
L 32.078125 72.90625 
Q 44.34375 72.90625 50.609375 67.359375 
Q 56.890625 61.8125 56.890625 51.125 
Q 56.890625 40.328125 50.609375 34.8125 
Q 44.34375 29.296875 32.078125 29.296875 
L 19.671875 29.296875 
L 19.671875 0 
L 9.8125 0 
z
" id="DejaVuSans-80"/>
      <path d="M 30.609375 48.390625 
Q 23.390625 48.390625 19.1875 42.75 
Q 14.984375 37.109375 14.984375 27.296875 
Q 14.984375 17.484375 19.15625 11.84375 
Q 23.34375 6.203125 30.609375 6.203125 
Q 37.796875 6.203125 41.984375 11.859375 
Q 46.1875 17.53125 46.1875 27.296875 
Q 46.1875 37.015625 41.984375 42.703125 
Q 37.796875 48.390625 30.609375 48.390625 
z
M 30.609375 56 
Q 42.328125 56 49.015625 48.375 
Q 55.71875 40.765625 55.71875 27.296875 
Q 55.71875 13.875 49.015625 6.21875 
Q 42.328125 -1.421875 30.609375 -1.421875 
Q 18.84375 -1.421875 12.171875 6.21875 
Q 5.515625 13.875 5.515625 27.296875 
Q 5.515625 40.765625 12.171875 48.375 
Q 18.84375 56 30.609375 56 
z
" id="DejaVuSans-111"/>
      <path d="M 44.28125 53.078125 
L 44.28125 44.578125 
Q 40.484375 46.53125 36.375 47.5 
Q 32.28125 48.484375 27.875 48.484375 
Q 21.1875 48.484375 17.84375 46.4375 
Q 14.5 44.390625 14.5 40.28125 
Q 14.5 37.15625 16.890625 35.375 
Q 19.28125 33.59375 26.515625 31.984375 
L 29.59375 31.296875 
Q 39.15625 29.25 43.1875 25.515625 
Q 47.21875 21.78125 47.21875 15.09375 
Q 47.21875 7.46875 41.1875 3.015625 
Q 35.15625 -1.421875 24.609375 -1.421875 
Q 20.21875 -1.421875 15.453125 -0.5625 
Q 10.6875 0.296875 5.421875 2 
L 5.421875 11.28125 
Q 10.40625 8.6875 15.234375 7.390625 
Q 20.0625 6.109375 24.8125 6.109375 
Q 31.15625 6.109375 34.5625 8.28125 
Q 37.984375 10.453125 37.984375 14.40625 
Q 37.984375 18.0625 35.515625 20.015625 
Q 33.0625 21.96875 24.703125 23.78125 
L 21.578125 24.515625 
Q 13.234375 26.265625 9.515625 29.90625 
Q 5.8125 33.546875 5.8125 39.890625 
Q 5.8125 47.609375 11.28125 51.796875 
Q 16.75 56 26.8125 56 
Q 31.78125 56 36.171875 55.265625 
Q 40.578125 54.546875 44.28125 53.078125 
z
" id="DejaVuSans-115"/>
      <path d="M 9.421875 54.6875 
L 18.40625 54.6875 
L 18.40625 0 
L 9.421875 0 
z
M 9.421875 75.984375 
L 18.40625 75.984375 
L 18.40625 64.59375 
L 9.421875 64.59375 
z
" id="DejaVuSans-105"/>
      <path d="M 18.3125 70.21875 
L 18.3125 54.6875 
L 36.8125 54.6875 
L 36.8125 47.703125 
L 18.3125 47.703125 
L 18.3125 18.015625 
Q 18.3125 11.328125 20.140625 9.421875 
Q 21.96875 7.515625 27.59375 7.515625 
L 36.8125 7.515625 
L 36.8125 0 
L 27.59375 0 
Q 17.1875 0 13.234375 3.875 
Q 9.28125 7.765625 9.28125 18.015625 
L 9.28125 47.703125 
L 2.6875 47.703125 
L 2.6875 54.6875 
L 9.28125 54.6875 
L 9.28125 70.21875 
z
" id="DejaVuSans-116"/>
      <path d="M 54.890625 33.015625 
L 54.890625 0 
L 45.90625 0 
L 45.90625 32.71875 
Q 45.90625 40.484375 42.875 44.328125 
Q 39.84375 48.1875 33.796875 48.1875 
Q 26.515625 48.1875 22.3125 43.546875 
Q 18.109375 38.921875 18.109375 30.90625 
L 18.109375 0 
L 9.078125 0 
L 9.078125 54.6875 
L 18.109375 54.6875 
L 18.109375 46.1875 
Q 21.34375 51.125 25.703125 53.5625 
Q 30.078125 56 35.796875 56 
Q 45.21875 56 50.046875 50.171875 
Q 54.890625 44.34375 54.890625 33.015625 
z
" id="DejaVuSans-110"/>
     </defs>
     <g transform="translate(481.570156 300.330997)scale(0.1 -0.1)">
      <use xlink:href="#DejaVuSans-82"/>
      <use x="69.419922" xlink:href="#DejaVuSans-101"/>
      <use x="130.943359" xlink:href="#DejaVuSans-97"/>
      <use x="192.222656" xlink:href="#DejaVuSans-100"/>
      <use x="255.699219" xlink:href="#DejaVuSans-32"/>
      <use x="287.486328" xlink:href="#DejaVuSans-80"/>
      <use x="347.742188" xlink:href="#DejaVuSans-111"/>
      <use x="408.923828" xlink:href="#DejaVuSans-115"/>
      <use x="461.023438" xlink:href="#DejaVuSans-105"/>
      <use x="488.806641" xlink:href="#DejaVuSans-116"/>
      <use x="528.015625" xlink:href="#DejaVuSans-105"/>
      <use x="555.798828" xlink:href="#DejaVuSans-111"/>
      <use x="616.980469" xlink:href="#DejaVuSans-110"/>
     </g>
    </g>
   </g>
   <g id="matplotlib.axis_2">
    <g id="ytick_1">
     <g id="line2d_1">
      <path clip-path="url(#p18e81d33b3)" d="M 38.058125 273.99006 
L 993.118125 273.99006 
" style="fill:none;stroke:#dedede;stroke-linecap:square;"/>
     </g>
     <g id="text_10">
      <!-- 0 -->
      <g transform="translate(25.968125 277.029435)scale(0.08 -0.08)">
       <use xlink:href="#DejaVuSans-48"/>
      </g>
     </g>
    </g>
    <g id="ytick_2">
     <g id="line2d_2">
      <path clip-path="url(#p18e81d33b3)" d="M 38.058125 241.106011 
L 993.118125 241.106011 
" style="fill:none;stroke:#dedede;stroke-linecap:square;"/>
     </g>
     <g id="text_11">
      <!-- 5 -->
      <defs>
       <path d="M 10.796875 72.90625 
L 49.515625 72.90625 
L 49.515625 64.59375 
L 19.828125 64.59375 
L 19.828125 46.734375 
Q 21.96875 47.46875 24.109375 47.828125 
Q 26.265625 48.1875 28.421875 48.1875 
Q 40.625 48.1875 47.75 41.5 
Q 54.890625 34.8125 54.890625 23.390625 
Q 54.890625 11.625 47.5625 5.09375 
Q 40.234375 -1.421875 26.90625 -1.421875 
Q 22.3125 -1.421875 17.546875 -0.640625 
Q 12.796875 0.140625 7.71875 1.703125 
L 7.71875 11.625 
Q 12.109375 9.234375 16.796875 8.0625 
Q 21.484375 6.890625 26.703125 6.890625 
Q 35.15625 6.890625 40.078125 11.328125 
Q 45.015625 15.765625 45.015625 23.390625 
Q 45.015625 31 40.078125 35.4375 
Q 35.15625 39.890625 26.703125 39.890625 
Q 22.75 39.890625 18.8125 39.015625 
Q 14.890625 38.140625 10.796875 36.28125 
z
" id="DejaVuSans-53"/>
      </defs>
      <g transform="translate(25.968125 244.145386)scale(0.08 -0.08)">
       <use xlink:href="#DejaVuSans-53"/>
      </g>
     </g>
    </g>
    <g id="ytick_3">
     <g id="line2d_3">
      <path clip-path="url(#p18e81d33b3)" d="M 38.058125 208.221962 
L 993.118125 208.221962 
" style="fill:none;stroke:#dedede;stroke-linecap:square;"/>
     </g>
     <g id="text_12">
      <!-- 10 -->
      <g transform="translate(20.878125 211.261337)scale(0.08 -0.08)">
       <use xlink:href="#DejaVuSans-49"/>
       <use x="63.623047" xlink:href="#DejaVuSans-48"/>
      </g>
     </g>
    </g>
    <g id="ytick_4">
     <g id="line2d_4">
      <path clip-path="url(#p18e81d33b3)" d="M 38.058125 175.337913 
L 993.118125 175.337913 
" style="fill:none;stroke:#dedede;stroke-linecap:square;"/>
     </g>
     <g id="text_13">
      <!-- 15 -->
      <g transform="translate(20.878125 178.377288)scale(0.08 -0.08)">
       <use xlink:href="#DejaVuSans-49"/>
       <use x="63.623047" xlink:href="#DejaVuSans-53"/>
      </g>
     </g>
    </g>
    <g id="ytick_5">
     <g id="line2d_5">
      <path clip-path="url(#p18e81d33b3)" d="M 38.058125 142.453865 
L 993.118125 142.453865 
" style="fill:none;stroke:#dedede;stroke-linecap:square;"/>
     </g>
     <g id="text_14">
      <!-- 20 -->
      <g transform="translate(20.878125 145.49324)scale(0.08 -0.08)">
       <use xlink:href="#DejaVuSans-50"/>
       <use x="63.623047" xlink:href="#DejaVuSans-48"/>
      </g>
     </g>
    </g>
    <g id="ytick_6">
     <g id="line2d_6">
      <path clip-path="url(#p18e81d33b3)" d="M 38.058125 109.569816 
L 993.118125 109.569816 
" style="fill:none;stroke:#dedede;stroke-linecap:square;"/>
     </g>
     <g id="text_15">
      <!-- 25 -->
      <g transform="translate(20.878125 112.609191)scale(0.08 -0.08)">
       <use xlink:href="#DejaVuSans-50"/>
       <use x="63.623047" xlink:href="#DejaVuSans-53"/>
      </g>
     </g>
    </g>
    <g id="ytick_7">
     <g id="line2d_7">
      <path clip-path="url(#p18e81d33b3)" d="M 38.058125 76.685767 
L 993.118125 76.685767 
" style="fill:none;stroke:#dedede;stroke-linecap:square;"/>
     </g>
     <g id="text_16">
      <!-- 30 -->
      <defs>
       <path d="M 40.578125 39.3125 
Q 47.65625 37.796875 51.625 33 
Q 55.609375 28.21875 55.609375 21.1875 
Q 55.609375 10.40625 48.1875 4.484375 
Q 40.765625 -1.421875 27.09375 -1.421875 
Q 22.515625 -1.421875 17.65625 -0.515625 
Q 12.796875 0.390625 7.625 2.203125 
L 7.625 11.71875 
Q 11.71875 9.328125 16.59375 8.109375 
Q 21.484375 6.890625 26.8125 6.890625 
Q 36.078125 6.890625 40.9375 10.546875 
Q 45.796875 14.203125 45.796875 21.1875 
Q 45.796875 27.640625 41.28125 31.265625 
Q 36.765625 34.90625 28.71875 34.90625 
L 20.21875 34.90625 
L 20.21875 43.015625 
L 29.109375 43.015625 
Q 36.375 43.015625 40.234375 45.921875 
Q 44.09375 48.828125 44.09375 54.296875 
Q 44.09375 59.90625 40.109375 62.90625 
Q 36.140625 65.921875 28.71875 65.921875 
Q 24.65625 65.921875 20.015625 65.03125 
Q 15.375 64.15625 9.8125 62.3125 
L 9.8125 71.09375 
Q 15.4375 72.65625 20.34375 73.4375 
Q 25.25 74.21875 29.59375 74.21875 
Q 40.828125 74.21875 47.359375 69.109375 
Q 53.90625 64.015625 53.90625 55.328125 
Q 53.90625 49.265625 50.4375 45.09375 
Q 46.96875 40.921875 40.578125 39.3125 
z
" id="DejaVuSans-51"/>
      </defs>
      <g transform="translate(20.878125 79.725142)scale(0.08 -0.08)">
       <use xlink:href="#DejaVuSans-51"/>
       <use x="63.623047" xlink:href="#DejaVuSans-48"/>
      </g>
     </g>
    </g>
    <g id="ytick_8">
     <g id="line2d_8">
      <path clip-path="url(#p18e81d33b3)" d="M 38.058125 43.801718 
L 993.118125 43.801718 
" style="fill:none;stroke:#dedede;stroke-linecap:square;"/>
     </g>
     <g id="text_17">
      <!-- 35 -->
      <g transform="translate(20.878125 46.841093)scale(0.08 -0.08)">
       <use xlink:href="#DejaVuSans-51"/>
       <use x="63.623047" xlink:href="#DejaVuSans-53"/>
      </g>
     </g>
    </g>
    <g id="text_18">
     <!-- R2 After filtering: Sequence Quality -->
     <defs>
      <path d="M 34.1875 63.1875 
L 20.796875 26.90625 
L 47.609375 26.90625 
z
M 28.609375 72.90625 
L 39.796875 72.90625 
L 67.578125 0 
L 57.328125 0 
L 50.6875 18.703125 
L 17.828125 18.703125 
L 11.1875 0 
L 0.78125 0 
z
" id="DejaVuSans-65"/>
      <path d="M 37.109375 75.984375 
L 37.109375 68.5 
L 28.515625 68.5 
Q 23.6875 68.5 21.796875 66.546875 
Q 19.921875 64.59375 19.921875 59.515625 
L 19.921875 54.6875 
L 34.71875 54.6875 
L 34.71875 47.703125 
L 19.921875 47.703125 
L 19.921875 0 
L 10.890625 0 
L 10.890625 47.703125 
L 2.296875 47.703125 
L 2.296875 54.6875 
L 10.890625 54.6875 
L 10.890625 58.5 
Q 10.890625 67.625 15.140625 71.796875 
Q 19.390625 75.984375 28.609375 75.984375 
z
" id="DejaVuSans-102"/>
      <path d="M 41.109375 46.296875 
Q 39.59375 47.171875 37.8125 47.578125 
Q 36.03125 48 33.890625 48 
Q 26.265625 48 22.1875 43.046875 
Q 18.109375 38.09375 18.109375 28.8125 
L 18.109375 0 
L 9.078125 0 
L 9.078125 54.6875 
L 18.109375 54.6875 
L 18.109375 46.1875 
Q 20.953125 51.171875 25.484375 53.578125 
Q 30.03125 56 36.53125 56 
Q 37.453125 56 38.578125 55.875 
Q 39.703125 55.765625 41.0625 55.515625 
z
" id="DejaVuSans-114"/>
      <path d="M 9.421875 75.984375 
L 18.40625 75.984375 
L 18.40625 0 
L 9.421875 0 
z
" id="DejaVuSans-108"/>
      <path d="M 45.40625 27.984375 
Q 45.40625 37.75 41.375 43.109375 
Q 37.359375 48.484375 30.078125 48.484375 
Q 22.859375 48.484375 18.828125 43.109375 
Q 14.796875 37.75 14.796875 27.984375 
Q 14.796875 18.265625 18.828125 12.890625 
Q 22.859375 7.515625 30.078125 7.515625 
Q 37.359375 7.515625 41.375 12.890625 
Q 45.40625 18.265625 45.40625 27.984375 
z
M 54.390625 6.78125 
Q 54.390625 -7.171875 48.1875 -13.984375 
Q 42 -20.796875 29.203125 -20.796875 
Q 24.46875 -20.796875 20.265625 -20.09375 
Q 16.0625 -19.390625 12.109375 -17.921875 
L 12.109375 -9.1875 
Q 16.0625 -11.328125 19.921875 -12.34375 
Q 23.78125 -13.375 27.78125 -13.375 
Q 36.625 -13.375 41.015625 -8.765625 
Q 45.40625 -4.15625 45.40625 5.171875 
L 45.40625 9.625 
Q 42.625 4.78125 38.28125 2.390625 
Q 33.9375 0 27.875 0 
Q 17.828125 0 11.671875 7.65625 
Q 5.515625 15.328125 5.515625 27.984375 
Q 5.515625 40.671875 11.671875 48.328125 
Q 17.828125 56 27.875 56 
Q 33.9375 56 38.28125 53.609375 
Q 42.625 51.21875 45.40625 46.390625 
L 45.40625 54.6875 
L 54.390625 54.6875 
z
" id="DejaVuSans-103"/>
      <path d="M 11.71875 12.40625 
L 22.015625 12.40625 
L 22.015625 0 
L 11.71875 0 
z
M 11.71875 51.703125 
L 22.015625 51.703125 
L 22.015625 39.3125 
L 11.71875 39.3125 
z
" id="DejaVuSans-58"/>
      <path d="M 53.515625 70.515625 
L 53.515625 60.890625 
Q 47.90625 63.578125 42.921875 64.890625 
Q 37.9375 66.21875 33.296875 66.21875 
Q 25.25 66.21875 20.875 63.09375 
Q 16.5 59.96875 16.5 54.203125 
Q 16.5 49.359375 19.40625 46.890625 
Q 22.3125 44.4375 30.421875 42.921875 
L 36.375 41.703125 
Q 47.40625 39.59375 52.65625 34.296875 
Q 57.90625 29 57.90625 20.125 
Q 57.90625 9.515625 50.796875 4.046875 
Q 43.703125 -1.421875 29.984375 -1.421875 
Q 24.8125 -1.421875 18.96875 -0.25 
Q 13.140625 0.921875 6.890625 3.21875 
L 6.890625 13.375 
Q 12.890625 10.015625 18.65625 8.296875 
Q 24.421875 6.59375 29.984375 6.59375 
Q 38.421875 6.59375 43.015625 9.90625 
Q 47.609375 13.234375 47.609375 19.390625 
Q 47.609375 24.75 44.3125 27.78125 
Q 41.015625 30.8125 33.5 32.328125 
L 27.484375 33.5 
Q 16.453125 35.6875 11.515625 40.375 
Q 6.59375 45.0625 6.59375 53.421875 
Q 6.59375 63.09375 13.40625 68.65625 
Q 20.21875 74.21875 32.171875 74.21875 
Q 37.3125 74.21875 42.625 73.28125 
Q 47.953125 72.359375 53.515625 70.515625 
z
" id="DejaVuSans-83"/>
      <path d="M 14.796875 27.296875 
Q 14.796875 17.390625 18.875 11.75 
Q 22.953125 6.109375 30.078125 6.109375 
Q 37.203125 6.109375 41.296875 11.75 
Q 45.40625 17.390625 45.40625 27.296875 
Q 45.40625 37.203125 41.296875 42.84375 
Q 37.203125 48.484375 30.078125 48.484375 
Q 22.953125 48.484375 18.875 42.84375 
Q 14.796875 37.203125 14.796875 27.296875 
z
M 45.40625 8.203125 
Q 42.578125 3.328125 38.25 0.953125 
Q 33.9375 -1.421875 27.875 -1.421875 
Q 17.96875 -1.421875 11.734375 6.484375 
Q 5.515625 14.40625 5.515625 27.296875 
Q 5.515625 40.1875 11.734375 48.09375 
Q 17.96875 56 27.875 56 
Q 33.9375 56 38.25 53.625 
Q 42.578125 51.265625 45.40625 46.390625 
L 45.40625 54.6875 
L 54.390625 54.6875 
L 54.390625 -20.796875 
L 45.40625 -20.796875 
z
" id="DejaVuSans-113"/>
      <path d="M 8.5 21.578125 
L 8.5 54.6875 
L 17.484375 54.6875 
L 17.484375 21.921875 
Q 17.484375 14.15625 20.5 10.265625 
Q 23.53125 6.390625 29.59375 6.390625 
Q 36.859375 6.390625 41.078125 11.03125 
Q 45.3125 15.671875 45.3125 23.6875 
L 45.3125 54.6875 
L 54.296875 54.6875 
L 54.296875 0 
L 45.3125 0 
L 45.3125 8.40625 
Q 42.046875 3.421875 37.71875 1 
Q 33.40625 -1.421875 27.6875 -1.421875 
Q 18.265625 -1.421875 13.375 4.4375 
Q 8.5 10.296875 8.5 21.578125 
z
M 31.109375 56 
z
" id="DejaVuSans-117"/>
      <path d="M 48.78125 52.59375 
L 48.78125 44.1875 
Q 44.96875 46.296875 41.140625 47.34375 
Q 37.3125 48.390625 33.40625 48.390625 
Q 24.65625 48.390625 19.8125 42.84375 
Q 14.984375 37.3125 14.984375 27.296875 
Q 14.984375 17.28125 19.8125 11.734375 
Q 24.65625 6.203125 33.40625 6.203125 
Q 37.3125 6.203125 41.140625 7.25 
Q 44.96875 8.296875 48.78125 10.40625 
L 48.78125 2.09375 
Q 45.015625 0.34375 40.984375 -0.53125 
Q 36.96875 -1.421875 32.421875 -1.421875 
Q 20.0625 -1.421875 12.78125 6.34375 
Q 5.515625 14.109375 5.515625 27.296875 
Q 5.515625 40.671875 12.859375 48.328125 
Q 20.21875 56 33.015625 56 
Q 37.15625 56 41.109375 55.140625 
Q 45.0625 54.296875 48.78125 52.59375 
z
" id="DejaVuSans-99"/>
      <path d="M 39.40625 66.21875 
Q 28.65625 66.21875 22.328125 58.203125 
Q 16.015625 50.203125 16.015625 36.375 
Q 16.015625 22.609375 22.328125 14.59375 
Q 28.65625 6.59375 39.40625 6.59375 
Q 50.140625 6.59375 56.421875 14.59375 
Q 62.703125 22.609375 62.703125 36.375 
Q 62.703125 50.203125 56.421875 58.203125 
Q 50.140625 66.21875 39.40625 66.21875 
z
M 53.21875 1.3125 
L 66.21875 -12.890625 
L 54.296875 -12.890625 
L 43.5 -1.21875 
Q 41.890625 -1.3125 41.03125 -1.359375 
Q 40.1875 -1.421875 39.40625 -1.421875 
Q 24.03125 -1.421875 14.8125 8.859375 
Q 5.609375 19.140625 5.609375 36.375 
Q 5.609375 53.65625 14.8125 63.9375 
Q 24.03125 74.21875 39.40625 74.21875 
Q 54.734375 74.21875 63.90625 63.9375 
Q 73.09375 53.65625 73.09375 36.375 
Q 73.09375 23.6875 67.984375 14.640625 
Q 62.890625 5.609375 53.21875 1.3125 
z
" id="DejaVuSans-81"/>
      <path d="M 32.171875 -5.078125 
Q 28.375 -14.84375 24.75 -17.8125 
Q 21.140625 -20.796875 15.09375 -20.796875 
L 7.90625 -20.796875 
L 7.90625 -13.28125 
L 13.1875 -13.28125 
Q 16.890625 -13.28125 18.9375 -11.515625 
Q 21 -9.765625 23.484375 -3.21875 
L 25.09375 0.875 
L 2.984375 54.6875 
L 12.5 54.6875 
L 29.59375 11.921875 
L 46.6875 54.6875 
L 56.203125 54.6875 
z
" id="DejaVuSans-121"/>
     </defs>
     <g transform="translate(14.798437 241.595835)rotate(-90)scale(0.1 -0.1)">
      <use xlink:href="#DejaVuSans-82"/>
      <use x="69.482422" xlink:href="#DejaVuSans-50"/>
      <use x="133.105469" xlink:href="#DejaVuSans-32"/>
      <use x="164.892578" xlink:href="#DejaVuSans-65"/>
      <use x="233.253906" xlink:href="#DejaVuSans-102"/>
      <use x="268.443359" xlink:href="#DejaVuSans-116"/>
      <use x="307.652344" xlink:href="#DejaVuSans-101"/>
      <use x="369.175781" xlink:href="#DejaVuSans-114"/>
      <use x="410.289062" xlink:href="#DejaVuSans-32"/>
      <use x="442.076172" xlink:href="#DejaVuSans-102"/>
      <use x="477.28125" xlink:href="#DejaVuSans-105"/>
      <use x="505.064453" xlink:href="#DejaVuSans-108"/>
      <use x="532.847656" xlink:href="#DejaVuSans-116"/>
      <use x="572.056641" xlink:href="#DejaVuSans-101"/>
      <use x="633.580078" xlink:href="#DejaVuSans-114"/>
      <use x="674.693359" xlink:href="#DejaVuSans-105"/>
      <use x="702.476562" xlink:href="#DejaVuSans-110"/>
      <use x="765.855469" xlink:href="#DejaVuSans-103"/>
      <use x="829.332031" xlink:href="#DejaVuSans-58"/>
      <use x="863.023438" xlink:href="#DejaVuSans-32"/>
      <use x="894.810547" xlink:href="#DejaVuSans-83"/>
      <use x="958.287109" xlink:href="#DejaVuSans-101"/>
      <use x="1019.810547" xlink:href="#DejaVuSans-113"/>
      <use x="1083.287109" xlink:href="#DejaVuSans-117"/>
      <use x="1146.666016" xlink:href="#DejaVuSans-101"/>
      <use x="1208.189453" xlink:href="#DejaVuSans-110"/>
      <use x="1271.568359" xlink:href="#DejaVuSans-99"/>
      <use x="1326.548828" xlink:href="#DejaVuSans-101"/>
      <use x="1388.072266" xlink:href="#DejaVuSans-32"/>
      <use x="1419.859375" xlink:href="#DejaVuSans-81"/>
      <use x="1498.570312" xlink:href="#DejaVuSans-117"/>
      <use x="1561.949219" xlink:href="#DejaVuSans-97"/>
      <use x="1623.228516" xlink:href="#DejaVuSans-108"/>
      <use x="1651.011719" xlink:href="#DejaVuSans-105"/>
      <use x="1678.794922" xlink:href="#DejaVuSans-116"/>
      <use x="1718.003906" xlink:href="#DejaVuSans-121"/>
     </g>
    </g>
   </g>
   <g id="line2d_9">
    <path clip-path="url(#p18e81d33b3)" d="M 81.469943 32.586284 
L 87.297033 33.932557 
L 98.951212 34.019371 
L 104.778302 33.870078 
L 116.432481 34.05094 
L 133.91375 34.00556 
L 139.74084 34.219306 
L 145.56793 34.054886 
L 168.876289 34.258109 
L 192.184647 34.415295 
L 198.011737 34.438314 
L 209.665916 34.692179 
L 221.320096 34.836211 
L 227.147185 35.038777 
L 232.974275 34.973009 
L 279.590993 35.530722 
L 285.418082 35.635951 
L 297.072262 35.662258 
L 302.899351 35.74973 
L 314.553531 35.766172 
L 326.20771 35.937169 
L 337.861889 35.980576 
L 355.343159 36.334408 
L 361.170248 36.227864 
L 366.997338 36.405438 
L 372.824428 36.371896 
L 378.651517 36.488963 
L 384.478607 36.452791 
L 401.959876 36.64878 
L 419.441145 36.672456 
L 425.268235 36.815831 
L 431.095325 36.762558 
L 442.749504 37.009847 
L 448.576594 36.920402 
L 454.403683 37.029577 
L 460.230773 37.253846 
L 471.884952 37.012477 
L 489.366221 37.451808 
L 495.193311 37.411032 
L 506.84749 37.693835 
L 518.50167 37.602417 
L 524.32876 37.553091 
L 535.982939 37.925996 
L 576.772567 38.867138 
L 582.599656 38.649445 
L 594.253836 38.621823 
L 600.080925 38.846749 
L 617.562195 38.917779 
L 623.389284 39.207816 
L 635.043464 39.148625 
L 640.870553 39.318964 
L 646.697643 39.662274 
L 658.351822 39.951654 
L 664.178912 39.964807 
L 670.006002 40.152246 
L 681.660181 39.835902 
L 687.487271 40.342316 
L 710.79563 40.922391 
L 716.622719 41.169679 
L 722.449809 40.876353 
L 734.103988 40.667868 
L 739.931078 40.744817 
L 745.758168 41.10983 
L 757.412347 41.184805 
L 774.893616 41.573495 
L 780.720706 41.326864 
L 786.547796 41.541268 
L 798.201975 41.560999 
L 804.029065 41.641894 
L 809.856154 42.019403 
L 815.683244 41.926669 
L 821.510334 42.389677 
L 827.337423 42.135154 
L 833.164513 42.11937 
L 838.991603 42.414011 
L 850.645782 43.635325 
L 862.299961 44.248941 
L 868.127051 43.379487 
L 873.954141 42.80862 
L 885.60832 44.375216 
L 891.43541 44.054925 
L 897.2625 44.625792 
L 903.089589 44.456768 
L 908.916679 44.166073 
L 914.743769 44.636315 
L 926.397948 45.292681 
L 932.225038 45.426848 
L 938.052127 45.144045 
L 943.879217 44.634342 
L 949.706307 37.842471 
L 949.706307 37.842471 
" style="fill:none;stroke:#7cb5ec;stroke-linecap:square;"/>
   </g>
   <g id="line2d_10">
    <path clip-path="url(#p18e81d33b3)" d="M 81.469943 32.454748 
L 87.297033 33.818778 
L 98.951212 33.916115 
L 104.778302 33.770768 
L 116.432481 33.949657 
L 133.91375 33.922692 
L 139.74084 34.153538 
L 145.56793 33.977937 
L 151.395019 34.001614 
L 157.222109 34.145646 
L 168.876289 34.191026 
L 186.357558 34.499478 
L 192.184647 34.373203 
L 198.011737 34.397538 
L 215.493006 34.743478 
L 221.320096 34.835553 
L 227.147185 35.055219 
L 232.974275 34.982216 
L 279.590993 35.646474 
L 285.418082 35.755649 
L 297.072262 35.787218 
L 308.726441 35.835886 
L 343.688979 36.254829 
L 349.516069 36.471863 
L 355.343159 36.536316 
L 361.170248 36.437664 
L 366.997338 36.617869 
L 372.824428 36.583669 
L 378.651517 36.692844 
L 390.305697 36.775712 
L 407.786966 36.904618 
L 413.614055 36.834246 
L 425.268235 37.099949 
L 431.095325 37.047334 
L 442.749504 37.317641 
L 448.576594 37.229512 
L 460.230773 37.563614 
L 471.884952 37.342633 
L 489.366221 37.806956 
L 495.193311 37.752368 
L 501.020401 37.97598 
L 506.84749 38.069371 
L 518.50167 37.993737 
L 524.32876 37.948357 
L 535.982939 38.33047 
L 576.772567 39.34001 
L 582.599656 39.124949 
L 588.426746 39.055234 
L 594.253836 39.120345 
L 600.080925 39.335406 
L 617.562195 39.42222 
L 623.389284 39.718177 
L 635.043464 39.698446 
L 640.870553 39.877336 
L 646.697643 40.243006 
L 658.351822 40.527782 
L 664.178912 40.550143 
L 670.006002 40.754024 
L 681.660181 40.429788 
L 687.487271 40.976978 
L 699.14145 41.142714 
L 704.96854 41.459716 
L 710.79563 41.587964 
L 716.622719 41.862217 
L 722.449809 41.530746 
L 734.103988 41.340018 
L 739.931078 41.40184 
L 745.758168 41.803025 
L 751.585257 41.80171 
L 774.893616 42.300232 
L 780.720706 42.067413 
L 786.547796 42.243672 
L 798.201975 42.289052 
L 804.029065 42.379812 
L 809.856154 42.805989 
L 815.683244 42.682345 
L 821.510334 43.184156 
L 827.337423 42.906614 
L 833.164513 42.905956 
L 838.991603 43.268996 
L 850.645782 44.510698 
L 862.299961 45.140099 
L 868.127051 44.251572 
L 873.954141 43.672812 
L 879.781231 44.37982 
L 885.60832 45.213759 
L 891.43541 45.005274 
L 897.2625 45.562988 
L 903.089589 45.430794 
L 908.916679 45.085511 
L 914.743769 45.63599 
L 920.570858 45.889197 
L 926.397948 46.339051 
L 932.225038 46.450857 
L 938.052127 46.104917 
L 943.879217 45.587322 
L 949.706307 38.173942 
L 949.706307 38.173942 
" style="fill:none;stroke:#434348;stroke-linecap:square;"/>
   </g>
   <g id="line2d_11">
    <path clip-path="url(#p18e81d33b3)" d="M 81.469943 32.358069 
L 87.297033 33.638574 
L 98.951212 33.754326 
L 104.778302 33.613582 
L 116.432481 33.796417 
L 133.91375 33.758272 
L 139.74084 33.990433 
L 145.56793 33.826671 
L 151.395019 33.860212 
L 157.222109 34.007533 
L 168.876289 34.052913 
L 186.357558 34.347554 
L 192.184647 34.229171 
L 203.838827 34.398853 
L 215.493006 34.5955 
L 238.801365 34.906583 
L 256.282634 35.059165 
L 291.245172 35.591886 
L 314.553531 35.705665 
L 326.20771 35.889816 
L 337.861889 35.96808 
L 343.688979 36.05884 
L 349.516069 36.274559 
L 355.343159 36.329804 
L 361.170248 36.23181 
L 366.997338 36.407411 
L 372.824428 36.3594 
L 378.651517 36.480413 
L 390.305697 36.544866 
L 407.786966 36.661276 
L 413.614055 36.596165 
L 425.268235 36.848057 
L 431.095325 36.780316 
L 442.749504 37.042731 
L 448.576594 36.950655 
L 460.230773 37.289361 
L 471.884952 37.084164 
L 489.366221 37.510999 
L 495.193311 37.453123 
L 506.84749 37.771441 
L 518.50167 37.676735 
L 524.32876 37.661608 
L 535.982939 38.043063 
L 576.772567 38.973682 
L 582.599656 38.775062 
L 588.426746 38.724421 
L 629.216374 39.326199 
L 635.043464 39.341326 
L 640.870553 39.526792 
L 646.697643 39.920085 
L 658.351822 40.154877 
L 664.178912 40.228537 
L 670.006002 40.419265 
L 681.660181 40.084505 
L 687.487271 40.571189 
L 710.79563 41.201247 
L 716.622719 41.50115 
L 722.449809 41.162444 
L 734.103988 40.997366 
L 739.931078 41.04735 
L 745.758168 41.420913 
L 757.412347 41.549161 
L 774.893616 41.941138 
L 780.720706 41.708319 
L 786.547796 41.921408 
L 798.201975 41.922066 
L 804.029065 42.021376 
L 809.856154 42.444264 
L 815.683244 42.339693 
L 821.510334 42.792835 
L 827.337423 42.540286 
L 833.164513 42.563305 
L 838.991603 42.873072 
L 850.645782 44.120036 
L 862.299961 44.822439 
L 868.127051 43.856305 
L 873.954141 43.280835 
L 885.60832 44.821123 
L 891.43541 44.56397 
L 897.2625 45.197975 
L 903.089589 45.062492 
L 908.916679 44.732337 
L 914.743769 45.219678 
L 926.397948 45.912216 
L 932.225038 46.049672 
L 938.052127 45.694524 
L 943.879217 45.138783 
L 949.706307 38.077263 
L 949.706307 38.077263 
" style="fill:none;stroke:#90ed7d;stroke-linecap:square;"/>
   </g>
   <g id="line2d_12">
    <path clip-path="url(#p18e81d33b3)" d="M 81.469943 32.419891 
L 87.297033 33.785894 
L 98.951212 33.878627 
L 104.778302 33.73328 
L 116.432481 33.915458 
L 133.91375 33.871393 
L 139.74084 34.096977 
L 145.56793 33.929926 
L 151.395019 33.965441 
L 157.222109 34.11605 
L 168.876289 34.156826 
L 192.184647 34.358077 
L 198.011737 34.369257 
L 209.665916 34.659952 
L 221.320096 34.809904 
L 227.147185 35.025623 
L 232.974275 34.959197 
L 302.899351 35.837859 
L 314.553531 35.887185 
L 326.20771 36.076597 
L 337.861889 36.161438 
L 343.688979 36.248252 
L 349.516069 36.45871 
L 355.343159 36.525136 
L 361.170248 36.414645 
L 366.997338 36.604057 
L 372.824428 36.572489 
L 378.651517 36.693502 
L 384.478607 36.672456 
L 401.959876 36.896725 
L 419.441145 36.936844 
L 425.268235 37.082849 
L 431.095325 37.028919 
L 442.749504 37.306461 
L 448.576594 37.200574 
L 460.230773 37.559668 
L 471.884952 37.326849 
L 489.366221 37.781964 
L 495.193311 37.714881 
L 501.020401 37.95033 
L 506.84749 38.064767 
L 518.50167 37.958222 
L 524.32876 37.927969 
L 535.982939 38.314028 
L 576.772567 39.267008 
L 582.599656 39.055892 
L 594.253836 39.051946 
L 600.080925 39.263062 
L 617.562195 39.341326 
L 623.389284 39.650436 
L 635.043464 39.611632 
L 640.870553 39.784603 
L 646.697643 40.136462 
L 658.351822 40.42913 
L 664.178912 40.468591 
L 670.006002 40.634984 
L 681.660181 40.272602 
L 687.487271 40.838865 
L 699.14145 41.042089 
L 716.622719 41.7366 
L 722.449809 41.391975 
L 734.103988 41.184805 
L 739.931078 41.209797 
L 745.758168 41.633344 
L 757.412347 41.745807 
L 774.893616 42.114109 
L 780.720706 41.870109 
L 786.547796 42.104243 
L 792.374885 42.003618 
L 804.029065 42.196976 
L 809.856154 42.582377 
L 815.683244 42.450841 
L 821.510334 42.923056 
L 827.337423 42.681687 
L 833.164513 42.70931 
L 838.991603 42.980274 
L 850.645782 44.268671 
L 862.299961 44.925695 
L 868.127051 43.997707 
L 873.954141 43.401848 
L 879.781231 44.121351 
L 885.60832 44.976336 
L 891.43541 44.669199 
L 897.2625 45.301231 
L 908.916679 44.824412 
L 914.743769 45.279527 
L 932.225038 46.166739 
L 938.052127 45.791203 
L 943.879217 45.302546 
L 949.706307 38.075947 
L 949.706307 38.075947 
" style="fill:none;stroke:#f7a35c;stroke-linecap:square;"/>
   </g>
   <g id="line2d_13">
    <path clip-path="url(#p18e81d33b3)" d="M 81.469943 32.195622 
L 87.297033 33.42417 
L 98.951212 33.534003 
L 104.778302 33.409043 
L 116.432481 33.565571 
L 133.91375 33.541237 
L 139.74084 33.793787 
L 145.56793 33.61687 
L 168.876289 33.821409 
L 186.357558 34.123285 
L 192.184647 34.003587 
L 203.838827 34.160773 
L 215.493006 34.337031 
L 238.801365 34.636276 
L 250.455544 34.744793 
L 262.109724 34.894744 
L 285.418082 35.279488 
L 314.553531 35.389978 
L 326.20771 35.553083 
L 337.861889 35.631347 
L 343.688979 35.7129 
L 349.516069 35.910204 
L 355.343159 35.953611 
L 361.170248 35.847067 
L 366.997338 36.044371 
L 372.824428 35.98518 
L 378.651517 36.088435 
L 390.305697 36.147627 
L 407.786966 36.244306 
L 413.614055 36.162096 
L 425.268235 36.404122 
L 431.095325 36.340327 
L 442.749504 36.561308 
L 448.576594 36.473179 
L 460.230773 36.76782 
L 471.884952 36.569858 
L 489.366221 36.988801 
L 495.193311 36.91514 
L 501.020401 37.117049 
L 506.84749 37.205835 
L 518.50167 37.08548 
L 524.32876 37.065092 
L 535.982939 37.40577 
L 553.464208 37.713565 
L 559.291298 37.962169 
L 565.118387 37.970718 
L 576.772567 38.257467 
L 582.599656 38.020702 
L 594.253836 38.047667 
L 600.080925 38.21998 
L 617.562195 38.292324 
L 623.389284 38.546189 
L 635.043464 38.50344 
L 640.870553 38.653391 
L 646.697643 38.992097 
L 658.351822 39.231493 
L 664.178912 39.264377 
L 670.006002 39.441951 
L 681.660181 39.108507 
L 687.487271 39.589271 
L 710.79563 40.159481 
L 716.622719 40.426499 
L 728.276899 39.967438 
L 739.931078 39.918769 
L 745.758168 40.329162 
L 757.412347 40.417949 
L 769.066526 40.694175 
L 774.893616 40.745474 
L 780.720706 40.526467 
L 786.547796 40.752051 
L 798.201975 40.717194 
L 804.029065 40.818477 
L 809.856154 41.204536 
L 815.683244 41.072342 
L 821.510334 41.584018 
L 827.337423 41.297926 
L 833.164513 41.27425 
L 838.991603 41.582045 
L 850.645782 42.771132 
L 862.299961 43.45512 
L 868.127051 42.559359 
L 873.954141 41.943112 
L 885.60832 43.527465 
L 891.43541 43.215724 
L 897.2625 43.804349 
L 903.089589 43.632036 
L 908.916679 43.309773 
L 914.743769 43.743184 
L 932.225038 44.546213 
L 943.879217 43.89182 
L 949.706307 37.561641 
L 949.706307 37.561641 
" style="fill:none;stroke:#8085e9;stroke-linecap:square;"/>
   </g>
   <g id="line2d_14">
    <path clip-path="url(#p18e81d33b3)" d="M 81.469943 32.406737 
L 87.297033 33.80694 
L 98.951212 33.902304 
L 104.778302 33.762218 
L 116.432481 33.96018 
L 133.91375 33.902962 
L 139.74084 34.174584 
L 145.56793 33.987145 
L 168.876289 34.237064 
L 186.357558 34.538939 
L 192.184647 34.417268 
L 203.838827 34.599446 
L 215.493006 34.785569 
L 238.801365 35.106518 
L 256.282634 35.280146 
L 297.072262 35.838517 
L 401.959876 36.880941 
L 419.441145 36.92369 
L 425.268235 37.060488 
L 431.095325 36.99472 
L 442.749504 37.255819 
L 448.576594 37.141383 
L 460.230773 37.487323 
L 471.884952 37.252531 
L 489.366221 37.703042 
L 495.193311 37.624778 
L 501.020401 37.83984 
L 506.84749 37.931915 
L 518.50167 37.827344 
L 524.32876 37.802352 
L 535.982939 38.175257 
L 553.464208 38.537639 
L 559.291298 38.768485 
L 570.945477 38.947375 
L 576.772567 39.105218 
L 582.599656 38.873714 
L 594.253836 38.88358 
L 600.080925 39.106533 
L 617.562195 39.126922 
L 623.389284 39.418932 
L 635.043464 39.389336 
L 640.870553 39.541261 
L 646.697643 39.941131 
L 658.351822 40.19368 
L 664.178912 40.200257 
L 670.006002 40.419922 
L 681.660181 40.068063 
L 687.487271 40.580397 
L 710.79563 41.184148 
L 716.622719 41.485366 
L 722.449809 41.149948 
L 734.103988 40.940806 
L 739.931078 40.960536 
L 745.758168 41.380794 
L 757.412347 41.447878 
L 763.239437 41.657678 
L 774.893616 41.912858 
L 780.720706 41.603748 
L 786.547796 41.82736 
L 792.374885 41.768826 
L 804.029065 41.944427 
L 809.856154 42.348901 
L 815.683244 42.239726 
L 821.510334 42.730356 
L 827.337423 42.433084 
L 833.164513 42.396254 
L 838.991603 42.756005 
L 850.645782 44.034537 
L 862.299961 44.679722 
L 868.127051 43.806979 
L 873.954141 43.172317 
L 879.781231 43.909578 
L 885.60832 44.783636 
L 891.43541 44.482418 
L 897.2625 45.093403 
L 903.089589 44.946083 
L 908.916679 44.611981 
L 914.743769 45.107215 
L 920.570858 45.30715 
L 926.397948 45.749769 
L 932.225038 45.890513 
L 938.052127 45.544573 
L 943.879217 45.055258 
L 949.706307 38.084497 
L 949.706307 38.084497 
" style="fill:none;stroke:#f15c80;stroke-linecap:square;"/>
   </g>
   <g id="line2d_15">
    <path clip-path="url(#p18e81d33b3)" d="M 81.469943 32.308743 
L 87.297033 33.632655 
L 98.951212 33.695134 
L 104.778302 33.593194 
L 116.432481 33.77011 
L 133.91375 33.72473 
L 139.74084 33.970045 
L 145.56793 33.786552 
L 174.703378 34.100266 
L 186.357558 34.329139 
L 192.184647 34.206153 
L 203.838827 34.362023 
L 209.665916 34.500794 
L 221.320096 34.636276 
L 227.147185 34.831607 
L 232.974275 34.755316 
L 302.899351 35.537956 
L 314.553531 35.55111 
L 326.20771 35.726053 
L 343.688979 35.883897 
L 349.516069 36.102904 
L 355.343159 36.150915 
L 361.170248 36.034506 
L 366.997338 36.213395 
L 372.824428 36.150915 
L 378.651517 36.257459 
L 390.305697 36.317308 
L 407.786966 36.417934 
L 413.614055 36.317308 
L 425.268235 36.557362 
L 431.095325 36.498171 
L 442.749504 36.732963 
L 448.576594 36.657987 
L 460.230773 36.96907 
L 471.884952 36.753351 
L 489.366221 37.169663 
L 495.193311 37.106526 
L 501.020401 37.31238 
L 506.84749 37.391301 
L 518.50167 37.263054 
L 524.32876 37.242666 
L 535.982939 37.626094 
L 553.464208 37.934546 
L 559.291298 38.195645 
L 565.118387 38.183149 
L 576.772567 38.506728 
L 582.599656 38.274567 
L 588.426746 38.212087 
L 594.253836 38.274567 
L 600.080925 38.495548 
L 617.562195 38.532378 
L 623.389284 38.805973 
L 635.043464 38.765197 
L 640.870553 38.92304 
L 646.697643 39.264377 
L 658.351822 39.518899 
L 664.178912 39.562964 
L 670.006002 39.746457 
L 681.660181 39.420905 
L 687.487271 39.909562 
L 710.79563 40.52844 
L 716.622719 40.818477 
L 722.449809 40.467275 
L 734.103988 40.31864 
L 739.931078 40.32982 
L 745.758168 40.702725 
L 757.412347 40.773755 
L 769.066526 41.134822 
L 774.893616 41.17494 
L 780.720706 40.967113 
L 786.547796 41.192698 
L 792.374885 41.119037 
L 804.029065 41.295953 
L 809.856154 41.652417 
L 815.683244 41.553764 
L 821.510334 42.068071 
L 827.337423 41.738573 
L 833.164513 41.77343 
L 838.991603 42.097009 
L 844.818692 42.664588 
L 850.645782 43.365018 
L 862.299961 44.031249 
L 868.127051 43.181525 
L 873.954141 42.521213 
L 885.60832 44.106882 
L 891.43541 43.921416 
L 897.2625 44.556736 
L 908.916679 44.049006 
L 914.743769 44.506752 
L 920.570858 44.766536 
L 926.397948 45.239409 
L 932.225038 45.263743 
L 938.052127 44.975679 
L 943.879217 44.495571 
L 949.706307 37.874697 
L 949.706307 37.874697 
" style="fill:none;stroke:#e4d354;stroke-linecap:square;"/>
   </g>
   <g id="line2d_16">
    <path clip-path="url(#p18e81d33b3)" d="M 81.469943 32.220614 
L 87.297033 33.566229 
L 98.951212 33.545183 
L 104.778302 33.447189 
L 116.432481 33.678692 
L 133.91375 33.599771 
L 139.74084 33.849689 
L 145.56793 33.678692 
L 168.876289 33.911511 
L 186.357558 34.240352 
L 192.184647 34.125915 
L 198.011737 34.148934 
L 227.147185 34.805958 
L 232.974275 34.746109 
L 262.109724 35.088103 
L 279.590993 35.411682 
L 291.245172 35.541245 
L 314.553531 35.652393 
L 326.20771 35.858905 
L 337.861889 35.952296 
L 343.688979 36.044371 
L 349.516069 36.279163 
L 355.343159 36.321255 
L 361.170248 36.233125 
L 366.997338 36.406753 
L 372.824428 36.369265 
L 390.305697 36.56657 
L 407.786966 36.68561 
L 413.614055 36.623788 
L 425.268235 36.859238 
L 431.095325 36.813858 
L 442.749504 37.057857 
L 448.576594 36.973674 
L 460.230773 37.317641 
L 471.884952 37.107183 
L 489.366221 37.535991 
L 495.193311 37.480088 
L 506.84749 37.776045 
L 518.50167 37.681339 
L 524.32876 37.645824 
L 535.982939 38.037144 
L 553.464208 38.377165 
L 559.291298 38.645499 
L 565.118387 38.650761 
L 576.772567 38.96579 
L 582.599656 38.744151 
L 588.426746 38.681014 
L 594.253836 38.760593 
L 600.080925 38.971051 
L 617.562195 39.031558 
L 623.389284 39.284107 
L 635.043464 39.255169 
L 640.870553 39.442608 
L 646.697643 39.799729 
L 670.006002 40.279836 
L 681.660181 39.960861 
L 687.487271 40.433076 
L 716.622719 41.379479 
L 722.449809 41.016439 
L 734.103988 40.855307 
L 739.931078 40.83755 
L 745.758168 41.268331 
L 751.585257 41.243339 
L 757.412347 41.33673 
L 769.066526 41.704373 
L 774.893616 41.770799 
L 780.720706 41.531403 
L 786.547796 41.804999 
L 792.374885 41.643209 
L 804.029065 41.860901 
L 809.856154 42.269979 
L 815.683244 42.116082 
L 821.510334 42.647488 
L 827.337423 42.368631 
L 833.164513 42.31799 
L 838.991603 42.711941 
L 844.818692 43.291358 
L 850.645782 43.99968 
L 862.299961 44.665253 
L 868.127051 43.746473 
L 873.954141 43.105891 
L 879.781231 43.885901 
L 885.60832 44.813889 
L 891.43541 44.510698 
L 897.2625 45.129576 
L 908.916679 44.657361 
L 914.743769 45.117738 
L 926.397948 45.830664 
L 932.225038 46.017445 
L 943.879217 45.17364 
L 949.706307 38.019387 
L 949.706307 38.019387 
" style="fill:none;stroke:#2b908f;stroke-linecap:square;"/>
   </g>
   <g id="line2d_17">
    <path clip-path="url(#p18e81d33b3)" d="M 38.058125 273.99006 
L 993.118125 273.99006 
" style="fill:none;stroke:#dedede;stroke-linecap:square;stroke-width:2;"/>
   </g>
   <g id="text_19">
    <!-- Fastp: Sequence Quality -->
    <defs>
     <path d="M 9.8125 72.90625 
L 51.703125 72.90625 
L 51.703125 64.59375 
L 19.671875 64.59375 
L 19.671875 43.109375 
L 48.578125 43.109375 
L 48.578125 34.8125 
L 19.671875 34.8125 
L 19.671875 0 
L 9.8125 0 
z
" id="DejaVuSans-70"/>
     <path d="M 18.109375 8.203125 
L 18.109375 -20.796875 
L 9.078125 -20.796875 
L 9.078125 54.6875 
L 18.109375 54.6875 
L 18.109375 46.390625 
Q 20.953125 51.265625 25.265625 53.625 
Q 29.59375 56 35.59375 56 
Q 45.5625 56 51.78125 48.09375 
Q 58.015625 40.1875 58.015625 27.296875 
Q 58.015625 14.40625 51.78125 6.484375 
Q 45.5625 -1.421875 35.59375 -1.421875 
Q 29.59375 -1.421875 25.265625 0.953125 
Q 20.953125 3.328125 18.109375 8.203125 
z
M 48.6875 27.296875 
Q 48.6875 37.203125 44.609375 42.84375 
Q 40.53125 48.484375 33.40625 48.484375 
Q 26.265625 48.484375 22.1875 42.84375 
Q 18.109375 37.203125 18.109375 27.296875 
Q 18.109375 17.390625 22.1875 11.75 
Q 26.265625 6.109375 33.40625 6.109375 
Q 40.53125 6.109375 44.609375 11.75 
Q 48.6875 17.390625 48.6875 27.296875 
z
" id="DejaVuSans-112"/>
    </defs>
    <g transform="translate(417.883125 19.3575)scale(0.16 -0.16)">
     <use xlink:href="#DejaVuSans-70"/>
     <use x="57.378906" xlink:href="#DejaVuSans-97"/>
     <use x="118.658203" xlink:href="#DejaVuSans-115"/>
     <use x="170.757812" xlink:href="#DejaVuSans-116"/>
     <use x="209.966797" xlink:href="#DejaVuSans-112"/>
     <use x="273.443359" xlink:href="#DejaVuSans-58"/>
     <use x="307.134766" xlink:href="#DejaVuSans-32"/>
     <use x="338.921875" xlink:href="#DejaVuSans-83"/>
     <use x="402.398438" xlink:href="#DejaVuSans-101"/>
     <use x="463.921875" xlink:href="#DejaVuSans-113"/>
     <use x="527.398438" xlink:href="#DejaVuSans-117"/>
     <use x="590.777344" xlink:href="#DejaVuSans-101"/>
     <use x="652.300781" xlink:href="#DejaVuSans-110"/>
     <use x="715.679688" xlink:href="#DejaVuSans-99"/>
     <use x="770.660156" xlink:href="#DejaVuSans-101"/>
     <use x="832.183594" xlink:href="#DejaVuSans-32"/>
     <use x="863.970703" xlink:href="#DejaVuSans-81"/>
     <use x="942.681641" xlink:href="#DejaVuSans-117"/>
     <use x="1006.060547" xlink:href="#DejaVuSans-97"/>
     <use x="1067.339844" xlink:href="#DejaVuSans-108"/>
     <use x="1095.123047" xlink:href="#DejaVuSans-105"/>
     <use x="1122.90625" xlink:href="#DejaVuSans-116"/>
     <use x="1162.115234" xlink:href="#DejaVuSans-121"/>
    </g>
   </g>
   <g id="legend_1">
    <g id="line2d_18">
     <path d="M 45.258125 303.490394 
L 61.258125 303.490394 
" style="fill:none;stroke:#7cb5ec;stroke-linecap:square;"/>
    </g>
    <g id="line2d_19"/>
    <g id="text_20">
     <!-- Sfu-ABai_005-Ex1-1A-lcwgs-1-1.clmp.r1r2_fastp -->
     <defs>
      <path d="M 4.890625 31.390625 
L 31.203125 31.390625 
L 31.203125 23.390625 
L 4.890625 23.390625 
z
" id="DejaVuSans-45"/>
      <path d="M 19.671875 34.8125 
L 19.671875 8.109375 
L 35.5 8.109375 
Q 43.453125 8.109375 47.28125 11.40625 
Q 51.125 14.703125 51.125 21.484375 
Q 51.125 28.328125 47.28125 31.5625 
Q 43.453125 34.8125 35.5 34.8125 
z
M 19.671875 64.796875 
L 19.671875 42.828125 
L 34.28125 42.828125 
Q 41.5 42.828125 45.03125 45.53125 
Q 48.578125 48.25 48.578125 53.8125 
Q 48.578125 59.328125 45.03125 62.0625 
Q 41.5 64.796875 34.28125 64.796875 
z
M 9.8125 72.90625 
L 35.015625 72.90625 
Q 46.296875 72.90625 52.390625 68.21875 
Q 58.5 63.53125 58.5 54.890625 
Q 58.5 48.1875 55.375 44.234375 
Q 52.25 40.28125 46.1875 39.3125 
Q 53.46875 37.75 57.5 32.78125 
Q 61.53125 27.828125 61.53125 20.40625 
Q 61.53125 10.640625 54.890625 5.3125 
Q 48.25 0 35.984375 0 
L 9.8125 0 
z
" id="DejaVuSans-66"/>
      <path d="M 50.984375 -16.609375 
L 50.984375 -23.578125 
L -0.984375 -23.578125 
L -0.984375 -16.609375 
z
" id="DejaVuSans-95"/>
      <path d="M 9.8125 72.90625 
L 55.90625 72.90625 
L 55.90625 64.59375 
L 19.671875 64.59375 
L 19.671875 43.015625 
L 54.390625 43.015625 
L 54.390625 34.71875 
L 19.671875 34.71875 
L 19.671875 8.296875 
L 56.78125 8.296875 
L 56.78125 0 
L 9.8125 0 
z
" id="DejaVuSans-69"/>
      <path d="M 54.890625 54.6875 
L 35.109375 28.078125 
L 55.90625 0 
L 45.3125 0 
L 29.390625 21.484375 
L 13.484375 0 
L 2.875 0 
L 24.125 28.609375 
L 4.6875 54.6875 
L 15.28125 54.6875 
L 29.78125 35.203125 
L 44.28125 54.6875 
z
" id="DejaVuSans-120"/>
      <path d="M 4.203125 54.6875 
L 13.1875 54.6875 
L 24.421875 12.015625 
L 35.59375 54.6875 
L 46.1875 54.6875 
L 57.421875 12.015625 
L 68.609375 54.6875 
L 77.59375 54.6875 
L 63.28125 0 
L 52.6875 0 
L 40.921875 44.828125 
L 29.109375 0 
L 18.5 0 
z
" id="DejaVuSans-119"/>
      <path d="M 10.6875 12.40625 
L 21 12.40625 
L 21 0 
L 10.6875 0 
z
" id="DejaVuSans-46"/>
      <path d="M 52 44.1875 
Q 55.375 50.25 60.0625 53.125 
Q 64.75 56 71.09375 56 
Q 79.640625 56 84.28125 50.015625 
Q 88.921875 44.046875 88.921875 33.015625 
L 88.921875 0 
L 79.890625 0 
L 79.890625 32.71875 
Q 79.890625 40.578125 77.09375 44.375 
Q 74.3125 48.1875 68.609375 48.1875 
Q 61.625 48.1875 57.5625 43.546875 
Q 53.515625 38.921875 53.515625 30.90625 
L 53.515625 0 
L 44.484375 0 
L 44.484375 32.71875 
Q 44.484375 40.625 41.703125 44.40625 
Q 38.921875 48.1875 33.109375 48.1875 
Q 26.21875 48.1875 22.15625 43.53125 
Q 18.109375 38.875 18.109375 30.90625 
L 18.109375 0 
L 9.078125 0 
L 9.078125 54.6875 
L 18.109375 54.6875 
L 18.109375 46.1875 
Q 21.1875 51.21875 25.484375 53.609375 
Q 29.78125 56 35.6875 56 
Q 41.65625 56 45.828125 52.96875 
Q 50 49.953125 52 44.1875 
z
" id="DejaVuSans-109"/>
     </defs>
     <g transform="translate(67.658125 306.290394)scale(0.08 -0.08)">
      <use xlink:href="#DejaVuSans-83"/>
      <use x="63.476562" xlink:href="#DejaVuSans-102"/>
      <use x="98.681641" xlink:href="#DejaVuSans-117"/>
      <use x="162.060547" xlink:href="#DejaVuSans-45"/>
      <use x="198.113281" xlink:href="#DejaVuSans-65"/>
      <use x="266.521484" xlink:href="#DejaVuSans-66"/>
      <use x="335.125" xlink:href="#DejaVuSans-97"/>
      <use x="396.404297" xlink:href="#DejaVuSans-105"/>
      <use x="424.1875" xlink:href="#DejaVuSans-95"/>
      <use x="474.1875" xlink:href="#DejaVuSans-48"/>
      <use x="537.810547" xlink:href="#DejaVuSans-48"/>
      <use x="601.433594" xlink:href="#DejaVuSans-53"/>
      <use x="665.056641" xlink:href="#DejaVuSans-45"/>
      <use x="701.140625" xlink:href="#DejaVuSans-69"/>
      <use x="764.324219" xlink:href="#DejaVuSans-120"/>
      <use x="823.503906" xlink:href="#DejaVuSans-49"/>
      <use x="887.126953" xlink:href="#DejaVuSans-45"/>
      <use x="923.210938" xlink:href="#DejaVuSans-49"/>
      <use x="986.833984" xlink:href="#DejaVuSans-65"/>
      <use x="1055.210938" xlink:href="#DejaVuSans-45"/>
      <use x="1091.294922" xlink:href="#DejaVuSans-108"/>
      <use x="1119.078125" xlink:href="#DejaVuSans-99"/>
      <use x="1174.058594" xlink:href="#DejaVuSans-119"/>
      <use x="1255.845703" xlink:href="#DejaVuSans-103"/>
      <use x="1319.322266" xlink:href="#DejaVuSans-115"/>
      <use x="1371.421875" xlink:href="#DejaVuSans-45"/>
      <use x="1407.505859" xlink:href="#DejaVuSans-49"/>
      <use x="1471.128906" xlink:href="#DejaVuSans-45"/>
      <use x="1507.212891" xlink:href="#DejaVuSans-49"/>
      <use x="1570.835938" xlink:href="#DejaVuSans-46"/>
      <use x="1602.623047" xlink:href="#DejaVuSans-99"/>
      <use x="1657.603516" xlink:href="#DejaVuSans-108"/>
      <use x="1685.386719" xlink:href="#DejaVuSans-109"/>
      <use x="1782.798828" xlink:href="#DejaVuSans-112"/>
      <use x="1846.275391" xlink:href="#DejaVuSans-46"/>
      <use x="1878.0625" xlink:href="#DejaVuSans-114"/>
      <use x="1919.175781" xlink:href="#DejaVuSans-49"/>
      <use x="1982.798828" xlink:href="#DejaVuSans-114"/>
      <use x="2023.912109" xlink:href="#DejaVuSans-50"/>
      <use x="2087.535156" xlink:href="#DejaVuSans-95"/>
      <use x="2137.535156" xlink:href="#DejaVuSans-102"/>
      <use x="2172.740234" xlink:href="#DejaVuSans-97"/>
      <use x="2234.019531" xlink:href="#DejaVuSans-115"/>
      <use x="2286.119141" xlink:href="#DejaVuSans-116"/>
      <use x="2325.328125" xlink:href="#DejaVuSans-112"/>
     </g>
    </g>
    <g id="line2d_20">
     <path d="M 45.258125 315.455394 
L 61.258125 315.455394 
" style="fill:none;stroke:#434348;stroke-linecap:square;"/>
    </g>
    <g id="line2d_21"/>
    <g id="text_21">
     <!-- Sfu-ABai_006-Ex1-1B-lcwgs-1-1.clmp.r1r2_fastp -->
     <g transform="translate(67.658125 318.255394)scale(0.08 -0.08)">
      <use xlink:href="#DejaVuSans-83"/>
      <use x="63.476562" xlink:href="#DejaVuSans-102"/>
      <use x="98.681641" xlink:href="#DejaVuSans-117"/>
      <use x="162.060547" xlink:href="#DejaVuSans-45"/>
      <use x="198.113281" xlink:href="#DejaVuSans-65"/>
      <use x="266.521484" xlink:href="#DejaVuSans-66"/>
      <use x="335.125" xlink:href="#DejaVuSans-97"/>
      <use x="396.404297" xlink:href="#DejaVuSans-105"/>
      <use x="424.1875" xlink:href="#DejaVuSans-95"/>
      <use x="474.1875" xlink:href="#DejaVuSans-48"/>
      <use x="537.810547" xlink:href="#DejaVuSans-48"/>
      <use x="601.433594" xlink:href="#DejaVuSans-54"/>
      <use x="665.056641" xlink:href="#DejaVuSans-45"/>
      <use x="701.140625" xlink:href="#DejaVuSans-69"/>
      <use x="764.324219" xlink:href="#DejaVuSans-120"/>
      <use x="823.503906" xlink:href="#DejaVuSans-49"/>
      <use x="887.126953" xlink:href="#DejaVuSans-45"/>
      <use x="923.210938" xlink:href="#DejaVuSans-49"/>
      <use x="986.833984" xlink:href="#DejaVuSans-66"/>
      <use x="1055.4375" xlink:href="#DejaVuSans-45"/>
      <use x="1091.521484" xlink:href="#DejaVuSans-108"/>
      <use x="1119.304688" xlink:href="#DejaVuSans-99"/>
      <use x="1174.285156" xlink:href="#DejaVuSans-119"/>
      <use x="1256.072266" xlink:href="#DejaVuSans-103"/>
      <use x="1319.548828" xlink:href="#DejaVuSans-115"/>
      <use x="1371.648438" xlink:href="#DejaVuSans-45"/>
      <use x="1407.732422" xlink:href="#DejaVuSans-49"/>
      <use x="1471.355469" xlink:href="#DejaVuSans-45"/>
      <use x="1507.439453" xlink:href="#DejaVuSans-49"/>
      <use x="1571.0625" xlink:href="#DejaVuSans-46"/>
      <use x="1602.849609" xlink:href="#DejaVuSans-99"/>
      <use x="1657.830078" xlink:href="#DejaVuSans-108"/>
      <use x="1685.613281" xlink:href="#DejaVuSans-109"/>
      <use x="1783.025391" xlink:href="#DejaVuSans-112"/>
      <use x="1846.501953" xlink:href="#DejaVuSans-46"/>
      <use x="1878.289062" xlink:href="#DejaVuSans-114"/>
      <use x="1919.402344" xlink:href="#DejaVuSans-49"/>
      <use x="1983.025391" xlink:href="#DejaVuSans-114"/>
      <use x="2024.138672" xlink:href="#DejaVuSans-50"/>
      <use x="2087.761719" xlink:href="#DejaVuSans-95"/>
      <use x="2137.761719" xlink:href="#DejaVuSans-102"/>
      <use x="2172.966797" xlink:href="#DejaVuSans-97"/>
      <use x="2234.246094" xlink:href="#DejaVuSans-115"/>
      <use x="2286.345703" xlink:href="#DejaVuSans-116"/>
      <use x="2325.554688" xlink:href="#DejaVuSans-112"/>
     </g>
    </g>
    <g id="line2d_22">
     <path d="M 226.674063 303.490394 
L 242.674063 303.490394 
" style="fill:none;stroke:#90ed7d;stroke-linecap:square;"/>
    </g>
    <g id="line2d_23"/>
    <g id="text_22">
     <!-- Sfu-ABai_007-Ex1-1C-lcwgs-1-1.clmp.r1r2_fastp -->
     <defs>
      <path d="M 8.203125 72.90625 
L 55.078125 72.90625 
L 55.078125 68.703125 
L 28.609375 0 
L 18.3125 0 
L 43.21875 64.59375 
L 8.203125 64.59375 
z
" id="DejaVuSans-55"/>
      <path d="M 64.40625 67.28125 
L 64.40625 56.890625 
Q 59.421875 61.53125 53.78125 63.8125 
Q 48.140625 66.109375 41.796875 66.109375 
Q 29.296875 66.109375 22.65625 58.46875 
Q 16.015625 50.828125 16.015625 36.375 
Q 16.015625 21.96875 22.65625 14.328125 
Q 29.296875 6.6875 41.796875 6.6875 
Q 48.140625 6.6875 53.78125 8.984375 
Q 59.421875 11.28125 64.40625 15.921875 
L 64.40625 5.609375 
Q 59.234375 2.09375 53.4375 0.328125 
Q 47.65625 -1.421875 41.21875 -1.421875 
Q 24.65625 -1.421875 15.125 8.703125 
Q 5.609375 18.84375 5.609375 36.375 
Q 5.609375 53.953125 15.125 64.078125 
Q 24.65625 74.21875 41.21875 74.21875 
Q 47.75 74.21875 53.53125 72.484375 
Q 59.328125 70.75 64.40625 67.28125 
z
" id="DejaVuSans-67"/>
     </defs>
     <g transform="translate(249.074063 306.290394)scale(0.08 -0.08)">
      <use xlink:href="#DejaVuSans-83"/>
      <use x="63.476562" xlink:href="#DejaVuSans-102"/>
      <use x="98.681641" xlink:href="#DejaVuSans-117"/>
      <use x="162.060547" xlink:href="#DejaVuSans-45"/>
      <use x="198.113281" xlink:href="#DejaVuSans-65"/>
      <use x="266.521484" xlink:href="#DejaVuSans-66"/>
      <use x="335.125" xlink:href="#DejaVuSans-97"/>
      <use x="396.404297" xlink:href="#DejaVuSans-105"/>
      <use x="424.1875" xlink:href="#DejaVuSans-95"/>
      <use x="474.1875" xlink:href="#DejaVuSans-48"/>
      <use x="537.810547" xlink:href="#DejaVuSans-48"/>
      <use x="601.433594" xlink:href="#DejaVuSans-55"/>
      <use x="665.056641" xlink:href="#DejaVuSans-45"/>
      <use x="701.140625" xlink:href="#DejaVuSans-69"/>
      <use x="764.324219" xlink:href="#DejaVuSans-120"/>
      <use x="823.503906" xlink:href="#DejaVuSans-49"/>
      <use x="887.126953" xlink:href="#DejaVuSans-45"/>
      <use x="923.210938" xlink:href="#DejaVuSans-49"/>
      <use x="986.833984" xlink:href="#DejaVuSans-67"/>
      <use x="1056.658203" xlink:href="#DejaVuSans-45"/>
      <use x="1092.742188" xlink:href="#DejaVuSans-108"/>
      <use x="1120.525391" xlink:href="#DejaVuSans-99"/>
      <use x="1175.505859" xlink:href="#DejaVuSans-119"/>
      <use x="1257.292969" xlink:href="#DejaVuSans-103"/>
      <use x="1320.769531" xlink:href="#DejaVuSans-115"/>
      <use x="1372.869141" xlink:href="#DejaVuSans-45"/>
      <use x="1408.953125" xlink:href="#DejaVuSans-49"/>
      <use x="1472.576172" xlink:href="#DejaVuSans-45"/>
      <use x="1508.660156" xlink:href="#DejaVuSans-49"/>
      <use x="1572.283203" xlink:href="#DejaVuSans-46"/>
      <use x="1604.070312" xlink:href="#DejaVuSans-99"/>
      <use x="1659.050781" xlink:href="#DejaVuSans-108"/>
      <use x="1686.833984" xlink:href="#DejaVuSans-109"/>
      <use x="1784.246094" xlink:href="#DejaVuSans-112"/>
      <use x="1847.722656" xlink:href="#DejaVuSans-46"/>
      <use x="1879.509766" xlink:href="#DejaVuSans-114"/>
      <use x="1920.623047" xlink:href="#DejaVuSans-49"/>
      <use x="1984.246094" xlink:href="#DejaVuSans-114"/>
      <use x="2025.359375" xlink:href="#DejaVuSans-50"/>
      <use x="2088.982422" xlink:href="#DejaVuSans-95"/>
      <use x="2138.982422" xlink:href="#DejaVuSans-102"/>
      <use x="2174.1875" xlink:href="#DejaVuSans-97"/>
      <use x="2235.466797" xlink:href="#DejaVuSans-115"/>
      <use x="2287.566406" xlink:href="#DejaVuSans-116"/>
      <use x="2326.775391" xlink:href="#DejaVuSans-112"/>
     </g>
    </g>
    <g id="line2d_24">
     <path d="M 226.674063 315.455394 
L 242.674063 315.455394 
" style="fill:none;stroke:#f7a35c;stroke-linecap:square;"/>
    </g>
    <g id="line2d_25"/>
    <g id="text_23">
     <!-- Sfu-ABai_008-Ex1-1D-lcwgs-1-1.clmp.r1r2_fastp -->
     <defs>
      <path d="M 19.671875 64.796875 
L 19.671875 8.109375 
L 31.59375 8.109375 
Q 46.6875 8.109375 53.6875 14.9375 
Q 60.6875 21.78125 60.6875 36.53125 
Q 60.6875 51.171875 53.6875 57.984375 
Q 46.6875 64.796875 31.59375 64.796875 
z
M 9.8125 72.90625 
L 30.078125 72.90625 
Q 51.265625 72.90625 61.171875 64.09375 
Q 71.09375 55.28125 71.09375 36.53125 
Q 71.09375 17.671875 61.125 8.828125 
Q 51.171875 0 30.078125 0 
L 9.8125 0 
z
" id="DejaVuSans-68"/>
     </defs>
     <g transform="translate(249.074063 318.255394)scale(0.08 -0.08)">
      <use xlink:href="#DejaVuSans-83"/>
      <use x="63.476562" xlink:href="#DejaVuSans-102"/>
      <use x="98.681641" xlink:href="#DejaVuSans-117"/>
      <use x="162.060547" xlink:href="#DejaVuSans-45"/>
      <use x="198.113281" xlink:href="#DejaVuSans-65"/>
      <use x="266.521484" xlink:href="#DejaVuSans-66"/>
      <use x="335.125" xlink:href="#DejaVuSans-97"/>
      <use x="396.404297" xlink:href="#DejaVuSans-105"/>
      <use x="424.1875" xlink:href="#DejaVuSans-95"/>
      <use x="474.1875" xlink:href="#DejaVuSans-48"/>
      <use x="537.810547" xlink:href="#DejaVuSans-48"/>
      <use x="601.433594" xlink:href="#DejaVuSans-56"/>
      <use x="665.056641" xlink:href="#DejaVuSans-45"/>
      <use x="701.140625" xlink:href="#DejaVuSans-69"/>
      <use x="764.324219" xlink:href="#DejaVuSans-120"/>
      <use x="823.503906" xlink:href="#DejaVuSans-49"/>
      <use x="887.126953" xlink:href="#DejaVuSans-45"/>
      <use x="923.210938" xlink:href="#DejaVuSans-49"/>
      <use x="986.833984" xlink:href="#DejaVuSans-68"/>
      <use x="1063.835938" xlink:href="#DejaVuSans-45"/>
      <use x="1099.919922" xlink:href="#DejaVuSans-108"/>
      <use x="1127.703125" xlink:href="#DejaVuSans-99"/>
      <use x="1182.683594" xlink:href="#DejaVuSans-119"/>
      <use x="1264.470703" xlink:href="#DejaVuSans-103"/>
      <use x="1327.947266" xlink:href="#DejaVuSans-115"/>
      <use x="1380.046875" xlink:href="#DejaVuSans-45"/>
      <use x="1416.130859" xlink:href="#DejaVuSans-49"/>
      <use x="1479.753906" xlink:href="#DejaVuSans-45"/>
      <use x="1515.837891" xlink:href="#DejaVuSans-49"/>
      <use x="1579.460938" xlink:href="#DejaVuSans-46"/>
      <use x="1611.248047" xlink:href="#DejaVuSans-99"/>
      <use x="1666.228516" xlink:href="#DejaVuSans-108"/>
      <use x="1694.011719" xlink:href="#DejaVuSans-109"/>
      <use x="1791.423828" xlink:href="#DejaVuSans-112"/>
      <use x="1854.900391" xlink:href="#DejaVuSans-46"/>
      <use x="1886.6875" xlink:href="#DejaVuSans-114"/>
      <use x="1927.800781" xlink:href="#DejaVuSans-49"/>
      <use x="1991.423828" xlink:href="#DejaVuSans-114"/>
      <use x="2032.537109" xlink:href="#DejaVuSans-50"/>
      <use x="2096.160156" xlink:href="#DejaVuSans-95"/>
      <use x="2146.160156" xlink:href="#DejaVuSans-102"/>
      <use x="2181.365234" xlink:href="#DejaVuSans-97"/>
      <use x="2242.644531" xlink:href="#DejaVuSans-115"/>
      <use x="2294.744141" xlink:href="#DejaVuSans-116"/>
      <use x="2333.953125" xlink:href="#DejaVuSans-112"/>
     </g>
    </g>
    <g id="line2d_26">
     <path d="M 408.76125 303.490394 
L 424.76125 303.490394 
" style="fill:none;stroke:#8085e9;stroke-linecap:square;"/>
    </g>
    <g id="line2d_27"/>
    <g id="text_24">
     <!-- Sfu-ABai_009-Ex1-1E-lcwgs-1-1.clmp.r1r2_fastp -->
     <defs>
      <path d="M 10.984375 1.515625 
L 10.984375 10.5 
Q 14.703125 8.734375 18.5 7.8125 
Q 22.3125 6.890625 25.984375 6.890625 
Q 35.75 6.890625 40.890625 13.453125 
Q 46.046875 20.015625 46.78125 33.40625 
Q 43.953125 29.203125 39.59375 26.953125 
Q 35.25 24.703125 29.984375 24.703125 
Q 19.046875 24.703125 12.671875 31.3125 
Q 6.296875 37.9375 6.296875 49.421875 
Q 6.296875 60.640625 12.9375 67.421875 
Q 19.578125 74.21875 30.609375 74.21875 
Q 43.265625 74.21875 49.921875 64.515625 
Q 56.59375 54.828125 56.59375 36.375 
Q 56.59375 19.140625 48.40625 8.859375 
Q 40.234375 -1.421875 26.421875 -1.421875 
Q 22.703125 -1.421875 18.890625 -0.6875 
Q 15.09375 0.046875 10.984375 1.515625 
z
M 30.609375 32.421875 
Q 37.25 32.421875 41.125 36.953125 
Q 45.015625 41.5 45.015625 49.421875 
Q 45.015625 57.28125 41.125 61.84375 
Q 37.25 66.40625 30.609375 66.40625 
Q 23.96875 66.40625 20.09375 61.84375 
Q 16.21875 57.28125 16.21875 49.421875 
Q 16.21875 41.5 20.09375 36.953125 
Q 23.96875 32.421875 30.609375 32.421875 
z
" id="DejaVuSans-57"/>
     </defs>
     <g transform="translate(431.16125 306.290394)scale(0.08 -0.08)">
      <use xlink:href="#DejaVuSans-83"/>
      <use x="63.476562" xlink:href="#DejaVuSans-102"/>
      <use x="98.681641" xlink:href="#DejaVuSans-117"/>
      <use x="162.060547" xlink:href="#DejaVuSans-45"/>
      <use x="198.113281" xlink:href="#DejaVuSans-65"/>
      <use x="266.521484" xlink:href="#DejaVuSans-66"/>
      <use x="335.125" xlink:href="#DejaVuSans-97"/>
      <use x="396.404297" xlink:href="#DejaVuSans-105"/>
      <use x="424.1875" xlink:href="#DejaVuSans-95"/>
      <use x="474.1875" xlink:href="#DejaVuSans-48"/>
      <use x="537.810547" xlink:href="#DejaVuSans-48"/>
      <use x="601.433594" xlink:href="#DejaVuSans-57"/>
      <use x="665.056641" xlink:href="#DejaVuSans-45"/>
      <use x="701.140625" xlink:href="#DejaVuSans-69"/>
      <use x="764.324219" xlink:href="#DejaVuSans-120"/>
      <use x="823.503906" xlink:href="#DejaVuSans-49"/>
      <use x="887.126953" xlink:href="#DejaVuSans-45"/>
      <use x="923.210938" xlink:href="#DejaVuSans-49"/>
      <use x="986.833984" xlink:href="#DejaVuSans-69"/>
      <use x="1050.017578" xlink:href="#DejaVuSans-45"/>
      <use x="1086.101562" xlink:href="#DejaVuSans-108"/>
      <use x="1113.884766" xlink:href="#DejaVuSans-99"/>
      <use x="1168.865234" xlink:href="#DejaVuSans-119"/>
      <use x="1250.652344" xlink:href="#DejaVuSans-103"/>
      <use x="1314.128906" xlink:href="#DejaVuSans-115"/>
      <use x="1366.228516" xlink:href="#DejaVuSans-45"/>
      <use x="1402.3125" xlink:href="#DejaVuSans-49"/>
      <use x="1465.935547" xlink:href="#DejaVuSans-45"/>
      <use x="1502.019531" xlink:href="#DejaVuSans-49"/>
      <use x="1565.642578" xlink:href="#DejaVuSans-46"/>
      <use x="1597.429688" xlink:href="#DejaVuSans-99"/>
      <use x="1652.410156" xlink:href="#DejaVuSans-108"/>
      <use x="1680.193359" xlink:href="#DejaVuSans-109"/>
      <use x="1777.605469" xlink:href="#DejaVuSans-112"/>
      <use x="1841.082031" xlink:href="#DejaVuSans-46"/>
      <use x="1872.869141" xlink:href="#DejaVuSans-114"/>
      <use x="1913.982422" xlink:href="#DejaVuSans-49"/>
      <use x="1977.605469" xlink:href="#DejaVuSans-114"/>
      <use x="2018.71875" xlink:href="#DejaVuSans-50"/>
      <use x="2082.341797" xlink:href="#DejaVuSans-95"/>
      <use x="2132.341797" xlink:href="#DejaVuSans-102"/>
      <use x="2167.546875" xlink:href="#DejaVuSans-97"/>
      <use x="2228.826172" xlink:href="#DejaVuSans-115"/>
      <use x="2280.925781" xlink:href="#DejaVuSans-116"/>
      <use x="2320.134766" xlink:href="#DejaVuSans-112"/>
     </g>
    </g>
    <g id="line2d_28">
     <path d="M 408.76125 315.455394 
L 424.76125 315.455394 
" style="fill:none;stroke:#f15c80;stroke-linecap:square;"/>
    </g>
    <g id="line2d_29"/>
    <g id="text_25">
     <!-- Sfu-ABai_010-Ex1-1F-lcwgs-1-1.clmp.r1r2_fastp -->
     <g transform="translate(431.16125 318.255394)scale(0.08 -0.08)">
      <use xlink:href="#DejaVuSans-83"/>
      <use x="63.476562" xlink:href="#DejaVuSans-102"/>
      <use x="98.681641" xlink:href="#DejaVuSans-117"/>
      <use x="162.060547" xlink:href="#DejaVuSans-45"/>
      <use x="198.113281" xlink:href="#DejaVuSans-65"/>
      <use x="266.521484" xlink:href="#DejaVuSans-66"/>
      <use x="335.125" xlink:href="#DejaVuSans-97"/>
      <use x="396.404297" xlink:href="#DejaVuSans-105"/>
      <use x="424.1875" xlink:href="#DejaVuSans-95"/>
      <use x="474.1875" xlink:href="#DejaVuSans-48"/>
      <use x="537.810547" xlink:href="#DejaVuSans-49"/>
      <use x="601.433594" xlink:href="#DejaVuSans-48"/>
      <use x="665.056641" xlink:href="#DejaVuSans-45"/>
      <use x="701.140625" xlink:href="#DejaVuSans-69"/>
      <use x="764.324219" xlink:href="#DejaVuSans-120"/>
      <use x="823.503906" xlink:href="#DejaVuSans-49"/>
      <use x="887.126953" xlink:href="#DejaVuSans-45"/>
      <use x="923.210938" xlink:href="#DejaVuSans-49"/>
      <use x="986.833984" xlink:href="#DejaVuSans-70"/>
      <use x="1044.353516" xlink:href="#DejaVuSans-45"/>
      <use x="1080.4375" xlink:href="#DejaVuSans-108"/>
      <use x="1108.220703" xlink:href="#DejaVuSans-99"/>
      <use x="1163.201172" xlink:href="#DejaVuSans-119"/>
      <use x="1244.988281" xlink:href="#DejaVuSans-103"/>
      <use x="1308.464844" xlink:href="#DejaVuSans-115"/>
      <use x="1360.564453" xlink:href="#DejaVuSans-45"/>
      <use x="1396.648438" xlink:href="#DejaVuSans-49"/>
      <use x="1460.271484" xlink:href="#DejaVuSans-45"/>
      <use x="1496.355469" xlink:href="#DejaVuSans-49"/>
      <use x="1559.978516" xlink:href="#DejaVuSans-46"/>
      <use x="1591.765625" xlink:href="#DejaVuSans-99"/>
      <use x="1646.746094" xlink:href="#DejaVuSans-108"/>
      <use x="1674.529297" xlink:href="#DejaVuSans-109"/>
      <use x="1771.941406" xlink:href="#DejaVuSans-112"/>
      <use x="1835.417969" xlink:href="#DejaVuSans-46"/>
      <use x="1867.205078" xlink:href="#DejaVuSans-114"/>
      <use x="1908.318359" xlink:href="#DejaVuSans-49"/>
      <use x="1971.941406" xlink:href="#DejaVuSans-114"/>
      <use x="2013.054688" xlink:href="#DejaVuSans-50"/>
      <use x="2076.677734" xlink:href="#DejaVuSans-95"/>
      <use x="2126.677734" xlink:href="#DejaVuSans-102"/>
      <use x="2161.882812" xlink:href="#DejaVuSans-97"/>
      <use x="2223.162109" xlink:href="#DejaVuSans-115"/>
      <use x="2275.261719" xlink:href="#DejaVuSans-116"/>
      <use x="2314.470703" xlink:href="#DejaVuSans-112"/>
     </g>
    </g>
    <g id="line2d_30">
     <path d="M 589.743438 303.490394 
L 605.743438 303.490394 
" style="fill:none;stroke:#e4d354;stroke-linecap:square;"/>
    </g>
    <g id="line2d_31"/>
    <g id="text_26">
     <!-- Sfu-ABai_011-Ex1-1G-lcwgs-1-1.clmp.r1r2_fastp -->
     <defs>
      <path d="M 59.515625 10.40625 
L 59.515625 29.984375 
L 43.40625 29.984375 
L 43.40625 38.09375 
L 69.28125 38.09375 
L 69.28125 6.78125 
Q 63.578125 2.734375 56.6875 0.65625 
Q 49.8125 -1.421875 42 -1.421875 
Q 24.90625 -1.421875 15.25 8.5625 
Q 5.609375 18.5625 5.609375 36.375 
Q 5.609375 54.25 15.25 64.234375 
Q 24.90625 74.21875 42 74.21875 
Q 49.125 74.21875 55.546875 72.453125 
Q 61.96875 70.703125 67.390625 67.28125 
L 67.390625 56.78125 
Q 61.921875 61.421875 55.765625 63.765625 
Q 49.609375 66.109375 42.828125 66.109375 
Q 29.4375 66.109375 22.71875 58.640625 
Q 16.015625 51.171875 16.015625 36.375 
Q 16.015625 21.625 22.71875 14.15625 
Q 29.4375 6.6875 42.828125 6.6875 
Q 48.046875 6.6875 52.140625 7.59375 
Q 56.25 8.5 59.515625 10.40625 
z
" id="DejaVuSans-71"/>
     </defs>
     <g transform="translate(612.143438 306.290394)scale(0.08 -0.08)">
      <use xlink:href="#DejaVuSans-83"/>
      <use x="63.476562" xlink:href="#DejaVuSans-102"/>
      <use x="98.681641" xlink:href="#DejaVuSans-117"/>
      <use x="162.060547" xlink:href="#DejaVuSans-45"/>
      <use x="198.113281" xlink:href="#DejaVuSans-65"/>
      <use x="266.521484" xlink:href="#DejaVuSans-66"/>
      <use x="335.125" xlink:href="#DejaVuSans-97"/>
      <use x="396.404297" xlink:href="#DejaVuSans-105"/>
      <use x="424.1875" xlink:href="#DejaVuSans-95"/>
      <use x="474.1875" xlink:href="#DejaVuSans-48"/>
      <use x="537.810547" xlink:href="#DejaVuSans-49"/>
      <use x="601.433594" xlink:href="#DejaVuSans-49"/>
      <use x="665.056641" xlink:href="#DejaVuSans-45"/>
      <use x="701.140625" xlink:href="#DejaVuSans-69"/>
      <use x="764.324219" xlink:href="#DejaVuSans-120"/>
      <use x="823.503906" xlink:href="#DejaVuSans-49"/>
      <use x="887.126953" xlink:href="#DejaVuSans-45"/>
      <use x="923.210938" xlink:href="#DejaVuSans-49"/>
      <use x="986.833984" xlink:href="#DejaVuSans-71"/>
      <use x="1064.324219" xlink:href="#DejaVuSans-45"/>
      <use x="1100.408203" xlink:href="#DejaVuSans-108"/>
      <use x="1128.191406" xlink:href="#DejaVuSans-99"/>
      <use x="1183.171875" xlink:href="#DejaVuSans-119"/>
      <use x="1264.958984" xlink:href="#DejaVuSans-103"/>
      <use x="1328.435547" xlink:href="#DejaVuSans-115"/>
      <use x="1380.535156" xlink:href="#DejaVuSans-45"/>
      <use x="1416.619141" xlink:href="#DejaVuSans-49"/>
      <use x="1480.242188" xlink:href="#DejaVuSans-45"/>
      <use x="1516.326172" xlink:href="#DejaVuSans-49"/>
      <use x="1579.949219" xlink:href="#DejaVuSans-46"/>
      <use x="1611.736328" xlink:href="#DejaVuSans-99"/>
      <use x="1666.716797" xlink:href="#DejaVuSans-108"/>
      <use x="1694.5" xlink:href="#DejaVuSans-109"/>
      <use x="1791.912109" xlink:href="#DejaVuSans-112"/>
      <use x="1855.388672" xlink:href="#DejaVuSans-46"/>
      <use x="1887.175781" xlink:href="#DejaVuSans-114"/>
      <use x="1928.289062" xlink:href="#DejaVuSans-49"/>
      <use x="1991.912109" xlink:href="#DejaVuSans-114"/>
      <use x="2033.025391" xlink:href="#DejaVuSans-50"/>
      <use x="2096.648438" xlink:href="#DejaVuSans-95"/>
      <use x="2146.648438" xlink:href="#DejaVuSans-102"/>
      <use x="2181.853516" xlink:href="#DejaVuSans-97"/>
      <use x="2243.132812" xlink:href="#DejaVuSans-115"/>
      <use x="2295.232422" xlink:href="#DejaVuSans-116"/>
      <use x="2334.441406" xlink:href="#DejaVuSans-112"/>
     </g>
    </g>
    <g id="line2d_32">
     <path d="M 771.869375 303.490394 
L 787.869375 303.490394 
" style="fill:none;stroke:#2b908f;stroke-linecap:square;"/>
    </g>
    <g id="line2d_33"/>
    <g id="text_27">
     <!-- Sfu-ABai_012-Ex1-1H-lcwgs-1-1.clmp.r1r2_fastp -->
     <defs>
      <path d="M 9.8125 72.90625 
L 19.671875 72.90625 
L 19.671875 43.015625 
L 55.515625 43.015625 
L 55.515625 72.90625 
L 65.375 72.90625 
L 65.375 0 
L 55.515625 0 
L 55.515625 34.71875 
L 19.671875 34.71875 
L 19.671875 0 
L 9.8125 0 
z
" id="DejaVuSans-72"/>
     </defs>
     <g transform="translate(794.269375 306.290394)scale(0.08 -0.08)">
      <use xlink:href="#DejaVuSans-83"/>
      <use x="63.476562" xlink:href="#DejaVuSans-102"/>
      <use x="98.681641" xlink:href="#DejaVuSans-117"/>
      <use x="162.060547" xlink:href="#DejaVuSans-45"/>
      <use x="198.113281" xlink:href="#DejaVuSans-65"/>
      <use x="266.521484" xlink:href="#DejaVuSans-66"/>
      <use x="335.125" xlink:href="#DejaVuSans-97"/>
      <use x="396.404297" xlink:href="#DejaVuSans-105"/>
      <use x="424.1875" xlink:href="#DejaVuSans-95"/>
      <use x="474.1875" xlink:href="#DejaVuSans-48"/>
      <use x="537.810547" xlink:href="#DejaVuSans-49"/>
      <use x="601.433594" xlink:href="#DejaVuSans-50"/>
      <use x="665.056641" xlink:href="#DejaVuSans-45"/>
      <use x="701.140625" xlink:href="#DejaVuSans-69"/>
      <use x="764.324219" xlink:href="#DejaVuSans-120"/>
      <use x="823.503906" xlink:href="#DejaVuSans-49"/>
      <use x="887.126953" xlink:href="#DejaVuSans-45"/>
      <use x="923.210938" xlink:href="#DejaVuSans-49"/>
      <use x="986.833984" xlink:href="#DejaVuSans-72"/>
      <use x="1062.029297" xlink:href="#DejaVuSans-45"/>
      <use x="1098.113281" xlink:href="#DejaVuSans-108"/>
      <use x="1125.896484" xlink:href="#DejaVuSans-99"/>
      <use x="1180.876953" xlink:href="#DejaVuSans-119"/>
      <use x="1262.664062" xlink:href="#DejaVuSans-103"/>
      <use x="1326.140625" xlink:href="#DejaVuSans-115"/>
      <use x="1378.240234" xlink:href="#DejaVuSans-45"/>
      <use x="1414.324219" xlink:href="#DejaVuSans-49"/>
      <use x="1477.947266" xlink:href="#DejaVuSans-45"/>
      <use x="1514.03125" xlink:href="#DejaVuSans-49"/>
      <use x="1577.654297" xlink:href="#DejaVuSans-46"/>
      <use x="1609.441406" xlink:href="#DejaVuSans-99"/>
      <use x="1664.421875" xlink:href="#DejaVuSans-108"/>
      <use x="1692.205078" xlink:href="#DejaVuSans-109"/>
      <use x="1789.617188" xlink:href="#DejaVuSans-112"/>
      <use x="1853.09375" xlink:href="#DejaVuSans-46"/>
      <use x="1884.880859" xlink:href="#DejaVuSans-114"/>
      <use x="1925.994141" xlink:href="#DejaVuSans-49"/>
      <use x="1989.617188" xlink:href="#DejaVuSans-114"/>
      <use x="2030.730469" xlink:href="#DejaVuSans-50"/>
      <use x="2094.353516" xlink:href="#DejaVuSans-95"/>
      <use x="2144.353516" xlink:href="#DejaVuSans-102"/>
      <use x="2179.558594" xlink:href="#DejaVuSans-97"/>
      <use x="2240.837891" xlink:href="#DejaVuSans-115"/>
      <use x="2292.9375" xlink:href="#DejaVuSans-116"/>
      <use x="2332.146484" xlink:href="#DejaVuSans-112"/>
     </g>
    </g>
   </g>
  </g>
 </g>
 <defs>
  <clipPath id="p18e81d33b3">
   <rect height="242.5072" width="955.06" x="38.058125" y="31.48286"/>
  </clipPath>
 </defs>
</svg>
