<?xml version="1.0" encoding="utf-8" standalone="no"?>
<!DOCTYPE svg PUBLIC "-//W3C//DTD SVG 1.1//EN"
  "http://www.w3.org/Graphics/SVG/1.1/DTD/svg11.dtd">
<!-- Created with matplotlib (https://matplotlib.org/) -->
<svg height="388.844525pt" version="1.1" viewBox="0 0 1000.358125 388.844525" width="1000.358125pt" xmlns="http://www.w3.org/2000/svg" xmlns:xlink="http://www.w3.org/1999/xlink">
 <defs>
  <style type="text/css">
*{stroke-linecap:butt;stroke-linejoin:round;}
  </style>
 </defs>
 <g id="figure_1">
  <g id="axes_1">
   <g id="patch_1">
    <path d="M 32.968125 353.2239 
L 993.158125 353.2239 
L 993.158125 35.2559 
L 32.968125 35.2559 
z
" style="fill:#ffffff;"/>
   </g>
   <g id="matplotlib.axis_1">
    <g id="xtick_1">
     <g id="text_1">
      <!-- 0 -->
      <defs>
       <path d="M 31.78125 66.40625 
Q 24.171875 66.40625 20.328125 58.90625 
Q 16.5 51.421875 16.5 36.375 
Q 16.5 21.390625 20.328125 13.890625 
Q 24.171875 6.390625 31.78125 6.390625 
Q 39.453125 6.390625 43.28125 13.890625 
Q 47.125 21.390625 47.125 36.375 
Q 47.125 51.421875 43.28125 58.90625 
Q 39.453125 66.40625 31.78125 66.40625 
z
M 31.78125 74.21875 
Q 44.046875 74.21875 50.515625 64.515625 
Q 56.984375 54.828125 56.984375 36.375 
Q 56.984375 17.96875 50.515625 8.265625 
Q 44.046875 -1.421875 31.78125 -1.421875 
Q 19.53125 -1.421875 13.0625 8.265625 
Q 6.59375 17.96875 6.59375 36.375 
Q 6.59375 54.828125 13.0625 64.515625 
Q 19.53125 74.21875 31.78125 74.21875 
z
" id="DejaVuSans-48"/>
      </defs>
      <g transform="translate(68.209736 366.30265)scale(0.08 -0.08)">
       <use xlink:href="#DejaVuSans-48"/>
      </g>
     </g>
    </g>
    <g id="xtick_2">
     <g id="text_2">
      <!-- 20 -->
      <defs>
       <path d="M 19.1875 8.296875 
L 53.609375 8.296875 
L 53.609375 0 
L 7.328125 0 
L 7.328125 8.296875 
Q 12.9375 14.109375 22.625 23.890625 
Q 32.328125 33.6875 34.8125 36.53125 
Q 39.546875 41.84375 41.421875 45.53125 
Q 43.3125 49.21875 43.3125 52.78125 
Q 43.3125 58.59375 39.234375 62.25 
Q 35.15625 65.921875 28.609375 65.921875 
Q 23.96875 65.921875 18.8125 64.3125 
Q 13.671875 62.703125 7.8125 59.421875 
L 7.8125 69.390625 
Q 13.765625 71.78125 18.9375 73 
Q 24.125 74.21875 28.421875 74.21875 
Q 39.75 74.21875 46.484375 68.546875 
Q 53.21875 62.890625 53.21875 53.421875 
Q 53.21875 48.921875 51.53125 44.890625 
Q 49.859375 40.875 45.40625 35.40625 
Q 44.1875 33.984375 37.640625 27.21875 
Q 31.109375 20.453125 19.1875 8.296875 
z
" id="DejaVuSans-50"/>
      </defs>
      <g transform="translate(182.832521 366.30265)scale(0.08 -0.08)">
       <use xlink:href="#DejaVuSans-50"/>
       <use x="63.623047" xlink:href="#DejaVuSans-48"/>
      </g>
     </g>
    </g>
    <g id="xtick_3">
     <g id="text_3">
      <!-- 40 -->
      <defs>
       <path d="M 37.796875 64.3125 
L 12.890625 25.390625 
L 37.796875 25.390625 
z
M 35.203125 72.90625 
L 47.609375 72.90625 
L 47.609375 25.390625 
L 58.015625 25.390625 
L 58.015625 17.1875 
L 47.609375 17.1875 
L 47.609375 0 
L 37.796875 0 
L 37.796875 17.1875 
L 4.890625 17.1875 
L 4.890625 26.703125 
z
" id="DejaVuSans-52"/>
      </defs>
      <g transform="translate(300.000306 366.30265)scale(0.08 -0.08)">
       <use xlink:href="#DejaVuSans-52"/>
       <use x="63.623047" xlink:href="#DejaVuSans-48"/>
      </g>
     </g>
    </g>
    <g id="xtick_4">
     <g id="text_4">
      <!-- 60 -->
      <defs>
       <path d="M 33.015625 40.375 
Q 26.375 40.375 22.484375 35.828125 
Q 18.609375 31.296875 18.609375 23.390625 
Q 18.609375 15.53125 22.484375 10.953125 
Q 26.375 6.390625 33.015625 6.390625 
Q 39.65625 6.390625 43.53125 10.953125 
Q 47.40625 15.53125 47.40625 23.390625 
Q 47.40625 31.296875 43.53125 35.828125 
Q 39.65625 40.375 33.015625 40.375 
z
M 52.59375 71.296875 
L 52.59375 62.3125 
Q 48.875 64.0625 45.09375 64.984375 
Q 41.3125 65.921875 37.59375 65.921875 
Q 27.828125 65.921875 22.671875 59.328125 
Q 17.53125 52.734375 16.796875 39.40625 
Q 19.671875 43.65625 24.015625 45.921875 
Q 28.375 48.1875 33.59375 48.1875 
Q 44.578125 48.1875 50.953125 41.515625 
Q 57.328125 34.859375 57.328125 23.390625 
Q 57.328125 12.15625 50.6875 5.359375 
Q 44.046875 -1.421875 33.015625 -1.421875 
Q 20.359375 -1.421875 13.671875 8.265625 
Q 6.984375 17.96875 6.984375 36.375 
Q 6.984375 53.65625 15.1875 63.9375 
Q 23.390625 74.21875 37.203125 74.21875 
Q 40.921875 74.21875 44.703125 73.484375 
Q 48.484375 72.75 52.59375 71.296875 
z
" id="DejaVuSans-54"/>
      </defs>
      <g transform="translate(417.168091 366.30265)scale(0.08 -0.08)">
       <use xlink:href="#DejaVuSans-54"/>
       <use x="63.623047" xlink:href="#DejaVuSans-48"/>
      </g>
     </g>
    </g>
    <g id="xtick_5">
     <g id="text_5">
      <!-- 80 -->
      <defs>
       <path d="M 31.78125 34.625 
Q 24.75 34.625 20.71875 30.859375 
Q 16.703125 27.09375 16.703125 20.515625 
Q 16.703125 13.921875 20.71875 10.15625 
Q 24.75 6.390625 31.78125 6.390625 
Q 38.8125 6.390625 42.859375 10.171875 
Q 46.921875 13.96875 46.921875 20.515625 
Q 46.921875 27.09375 42.890625 30.859375 
Q 38.875 34.625 31.78125 34.625 
z
M 21.921875 38.8125 
Q 15.578125 40.375 12.03125 44.71875 
Q 8.5 49.078125 8.5 55.328125 
Q 8.5 64.0625 14.71875 69.140625 
Q 20.953125 74.21875 31.78125 74.21875 
Q 42.671875 74.21875 48.875 69.140625 
Q 55.078125 64.0625 55.078125 55.328125 
Q 55.078125 49.078125 51.53125 44.71875 
Q 48 40.375 41.703125 38.8125 
Q 48.828125 37.15625 52.796875 32.3125 
Q 56.78125 27.484375 56.78125 20.515625 
Q 56.78125 9.90625 50.3125 4.234375 
Q 43.84375 -1.421875 31.78125 -1.421875 
Q 19.734375 -1.421875 13.25 4.234375 
Q 6.78125 9.90625 6.78125 20.515625 
Q 6.78125 27.484375 10.78125 32.3125 
Q 14.796875 37.15625 21.921875 38.8125 
z
M 18.3125 54.390625 
Q 18.3125 48.734375 21.84375 45.5625 
Q 25.390625 42.390625 31.78125 42.390625 
Q 38.140625 42.390625 41.71875 45.5625 
Q 45.3125 48.734375 45.3125 54.390625 
Q 45.3125 60.0625 41.71875 63.234375 
Q 38.140625 66.40625 31.78125 66.40625 
Q 25.390625 66.40625 21.84375 63.234375 
Q 18.3125 60.0625 18.3125 54.390625 
z
" id="DejaVuSans-56"/>
      </defs>
      <g transform="translate(534.335877 366.30265)scale(0.08 -0.08)">
       <use xlink:href="#DejaVuSans-56"/>
       <use x="63.623047" xlink:href="#DejaVuSans-48"/>
      </g>
     </g>
    </g>
    <g id="xtick_6">
     <g id="text_6">
      <!-- 100 -->
      <defs>
       <path d="M 12.40625 8.296875 
L 28.515625 8.296875 
L 28.515625 63.921875 
L 10.984375 60.40625 
L 10.984375 69.390625 
L 28.421875 72.90625 
L 38.28125 72.90625 
L 38.28125 8.296875 
L 54.390625 8.296875 
L 54.390625 0 
L 12.40625 0 
z
" id="DejaVuSans-49"/>
      </defs>
      <g transform="translate(648.958662 366.30265)scale(0.08 -0.08)">
       <use xlink:href="#DejaVuSans-49"/>
       <use x="63.623047" xlink:href="#DejaVuSans-48"/>
       <use x="127.246094" xlink:href="#DejaVuSans-48"/>
      </g>
     </g>
    </g>
    <g id="xtick_7">
     <g id="text_7">
      <!-- 120 -->
      <g transform="translate(766.126447 366.30265)scale(0.08 -0.08)">
       <use xlink:href="#DejaVuSans-49"/>
       <use x="63.623047" xlink:href="#DejaVuSans-50"/>
       <use x="127.246094" xlink:href="#DejaVuSans-48"/>
      </g>
     </g>
    </g>
    <g id="xtick_8">
     <g id="text_8">
      <!-- 140 -->
      <g transform="translate(883.294232 366.30265)scale(0.08 -0.08)">
       <use xlink:href="#DejaVuSans-49"/>
       <use x="63.623047" xlink:href="#DejaVuSans-52"/>
       <use x="127.246094" xlink:href="#DejaVuSans-48"/>
      </g>
     </g>
    </g>
    <g id="text_9">
     <!-- Read Position -->
     <defs>
      <path d="M 44.390625 34.1875 
Q 47.5625 33.109375 50.5625 29.59375 
Q 53.5625 26.078125 56.59375 19.921875 
L 66.609375 0 
L 56 0 
L 46.6875 18.703125 
Q 43.0625 26.03125 39.671875 28.421875 
Q 36.28125 30.8125 30.421875 30.8125 
L 19.671875 30.8125 
L 19.671875 0 
L 9.8125 0 
L 9.8125 72.90625 
L 32.078125 72.90625 
Q 44.578125 72.90625 50.734375 67.671875 
Q 56.890625 62.453125 56.890625 51.90625 
Q 56.890625 45.015625 53.6875 40.46875 
Q 50.484375 35.9375 44.390625 34.1875 
z
M 19.671875 64.796875 
L 19.671875 38.921875 
L 32.078125 38.921875 
Q 39.203125 38.921875 42.84375 42.21875 
Q 46.484375 45.515625 46.484375 51.90625 
Q 46.484375 58.296875 42.84375 61.546875 
Q 39.203125 64.796875 32.078125 64.796875 
z
" id="DejaVuSans-82"/>
      <path d="M 56.203125 29.59375 
L 56.203125 25.203125 
L 14.890625 25.203125 
Q 15.484375 15.921875 20.484375 11.0625 
Q 25.484375 6.203125 34.421875 6.203125 
Q 39.59375 6.203125 44.453125 7.46875 
Q 49.3125 8.734375 54.109375 11.28125 
L 54.109375 2.78125 
Q 49.265625 0.734375 44.1875 -0.34375 
Q 39.109375 -1.421875 33.890625 -1.421875 
Q 20.796875 -1.421875 13.15625 6.1875 
Q 5.515625 13.8125 5.515625 26.8125 
Q 5.515625 40.234375 12.765625 48.109375 
Q 20.015625 56 32.328125 56 
Q 43.359375 56 49.78125 48.890625 
Q 56.203125 41.796875 56.203125 29.59375 
z
M 47.21875 32.234375 
Q 47.125 39.59375 43.09375 43.984375 
Q 39.0625 48.390625 32.421875 48.390625 
Q 24.90625 48.390625 20.390625 44.140625 
Q 15.875 39.890625 15.1875 32.171875 
z
" id="DejaVuSans-101"/>
      <path d="M 34.28125 27.484375 
Q 23.390625 27.484375 19.1875 25 
Q 14.984375 22.515625 14.984375 16.5 
Q 14.984375 11.71875 18.140625 8.90625 
Q 21.296875 6.109375 26.703125 6.109375 
Q 34.1875 6.109375 38.703125 11.40625 
Q 43.21875 16.703125 43.21875 25.484375 
L 43.21875 27.484375 
z
M 52.203125 31.203125 
L 52.203125 0 
L 43.21875 0 
L 43.21875 8.296875 
Q 40.140625 3.328125 35.546875 0.953125 
Q 30.953125 -1.421875 24.3125 -1.421875 
Q 15.921875 -1.421875 10.953125 3.296875 
Q 6 8.015625 6 15.921875 
Q 6 25.140625 12.171875 29.828125 
Q 18.359375 34.515625 30.609375 34.515625 
L 43.21875 34.515625 
L 43.21875 35.40625 
Q 43.21875 41.609375 39.140625 45 
Q 35.0625 48.390625 27.6875 48.390625 
Q 23 48.390625 18.546875 47.265625 
Q 14.109375 46.140625 10.015625 43.890625 
L 10.015625 52.203125 
Q 14.9375 54.109375 19.578125 55.046875 
Q 24.21875 56 28.609375 56 
Q 40.484375 56 46.34375 49.84375 
Q 52.203125 43.703125 52.203125 31.203125 
z
" id="DejaVuSans-97"/>
      <path d="M 45.40625 46.390625 
L 45.40625 75.984375 
L 54.390625 75.984375 
L 54.390625 0 
L 45.40625 0 
L 45.40625 8.203125 
Q 42.578125 3.328125 38.25 0.953125 
Q 33.9375 -1.421875 27.875 -1.421875 
Q 17.96875 -1.421875 11.734375 6.484375 
Q 5.515625 14.40625 5.515625 27.296875 
Q 5.515625 40.1875 11.734375 48.09375 
Q 17.96875 56 27.875 56 
Q 33.9375 56 38.25 53.625 
Q 42.578125 51.265625 45.40625 46.390625 
z
M 14.796875 27.296875 
Q 14.796875 17.390625 18.875 11.75 
Q 22.953125 6.109375 30.078125 6.109375 
Q 37.203125 6.109375 41.296875 11.75 
Q 45.40625 17.390625 45.40625 27.296875 
Q 45.40625 37.203125 41.296875 42.84375 
Q 37.203125 48.484375 30.078125 48.484375 
Q 22.953125 48.484375 18.875 42.84375 
Q 14.796875 37.203125 14.796875 27.296875 
z
" id="DejaVuSans-100"/>
      <path id="DejaVuSans-32"/>
      <path d="M 19.671875 64.796875 
L 19.671875 37.40625 
L 32.078125 37.40625 
Q 38.96875 37.40625 42.71875 40.96875 
Q 46.484375 44.53125 46.484375 51.125 
Q 46.484375 57.671875 42.71875 61.234375 
Q 38.96875 64.796875 32.078125 64.796875 
z
M 9.8125 72.90625 
L 32.078125 72.90625 
Q 44.34375 72.90625 50.609375 67.359375 
Q 56.890625 61.8125 56.890625 51.125 
Q 56.890625 40.328125 50.609375 34.8125 
Q 44.34375 29.296875 32.078125 29.296875 
L 19.671875 29.296875 
L 19.671875 0 
L 9.8125 0 
z
" id="DejaVuSans-80"/>
      <path d="M 30.609375 48.390625 
Q 23.390625 48.390625 19.1875 42.75 
Q 14.984375 37.109375 14.984375 27.296875 
Q 14.984375 17.484375 19.15625 11.84375 
Q 23.34375 6.203125 30.609375 6.203125 
Q 37.796875 6.203125 41.984375 11.859375 
Q 46.1875 17.53125 46.1875 27.296875 
Q 46.1875 37.015625 41.984375 42.703125 
Q 37.796875 48.390625 30.609375 48.390625 
z
M 30.609375 56 
Q 42.328125 56 49.015625 48.375 
Q 55.71875 40.765625 55.71875 27.296875 
Q 55.71875 13.875 49.015625 6.21875 
Q 42.328125 -1.421875 30.609375 -1.421875 
Q 18.84375 -1.421875 12.171875 6.21875 
Q 5.515625 13.875 5.515625 27.296875 
Q 5.515625 40.765625 12.171875 48.375 
Q 18.84375 56 30.609375 56 
z
" id="DejaVuSans-111"/>
      <path d="M 44.28125 53.078125 
L 44.28125 44.578125 
Q 40.484375 46.53125 36.375 47.5 
Q 32.28125 48.484375 27.875 48.484375 
Q 21.1875 48.484375 17.84375 46.4375 
Q 14.5 44.390625 14.5 40.28125 
Q 14.5 37.15625 16.890625 35.375 
Q 19.28125 33.59375 26.515625 31.984375 
L 29.59375 31.296875 
Q 39.15625 29.25 43.1875 25.515625 
Q 47.21875 21.78125 47.21875 15.09375 
Q 47.21875 7.46875 41.1875 3.015625 
Q 35.15625 -1.421875 24.609375 -1.421875 
Q 20.21875 -1.421875 15.453125 -0.5625 
Q 10.6875 0.296875 5.421875 2 
L 5.421875 11.28125 
Q 10.40625 8.6875 15.234375 7.390625 
Q 20.0625 6.109375 24.8125 6.109375 
Q 31.15625 6.109375 34.5625 8.28125 
Q 37.984375 10.453125 37.984375 14.40625 
Q 37.984375 18.0625 35.515625 20.015625 
Q 33.0625 21.96875 24.703125 23.78125 
L 21.578125 24.515625 
Q 13.234375 26.265625 9.515625 29.90625 
Q 5.8125 33.546875 5.8125 39.890625 
Q 5.8125 47.609375 11.28125 51.796875 
Q 16.75 56 26.8125 56 
Q 31.78125 56 36.171875 55.265625 
Q 40.578125 54.546875 44.28125 53.078125 
z
" id="DejaVuSans-115"/>
      <path d="M 9.421875 54.6875 
L 18.40625 54.6875 
L 18.40625 0 
L 9.421875 0 
z
M 9.421875 75.984375 
L 18.40625 75.984375 
L 18.40625 64.59375 
L 9.421875 64.59375 
z
" id="DejaVuSans-105"/>
      <path d="M 18.3125 70.21875 
L 18.3125 54.6875 
L 36.8125 54.6875 
L 36.8125 47.703125 
L 18.3125 47.703125 
L 18.3125 18.015625 
Q 18.3125 11.328125 20.140625 9.421875 
Q 21.96875 7.515625 27.59375 7.515625 
L 36.8125 7.515625 
L 36.8125 0 
L 27.59375 0 
Q 17.1875 0 13.234375 3.875 
Q 9.28125 7.765625 9.28125 18.015625 
L 9.28125 47.703125 
L 2.6875 47.703125 
L 2.6875 54.6875 
L 9.28125 54.6875 
L 9.28125 70.21875 
z
" id="DejaVuSans-116"/>
      <path d="M 54.890625 33.015625 
L 54.890625 0 
L 45.90625 0 
L 45.90625 32.71875 
Q 45.90625 40.484375 42.875 44.328125 
Q 39.84375 48.1875 33.796875 48.1875 
Q 26.515625 48.1875 22.3125 43.546875 
Q 18.109375 38.921875 18.109375 30.90625 
L 18.109375 0 
L 9.078125 0 
L 9.078125 54.6875 
L 18.109375 54.6875 
L 18.109375 46.1875 
Q 21.34375 51.125 25.703125 53.5625 
Q 30.078125 56 35.796875 56 
Q 45.21875 56 50.046875 50.171875 
Q 54.890625 44.34375 54.890625 33.015625 
z
" id="DejaVuSans-110"/>
     </defs>
     <g transform="translate(479.045156 379.564837)scale(0.1 -0.1)">
      <use xlink:href="#DejaVuSans-82"/>
      <use x="69.419922" xlink:href="#DejaVuSans-101"/>
      <use x="130.943359" xlink:href="#DejaVuSans-97"/>
      <use x="192.222656" xlink:href="#DejaVuSans-100"/>
      <use x="255.699219" xlink:href="#DejaVuSans-32"/>
      <use x="287.486328" xlink:href="#DejaVuSans-80"/>
      <use x="347.742188" xlink:href="#DejaVuSans-111"/>
      <use x="408.923828" xlink:href="#DejaVuSans-115"/>
      <use x="461.023438" xlink:href="#DejaVuSans-105"/>
      <use x="488.806641" xlink:href="#DejaVuSans-116"/>
      <use x="528.015625" xlink:href="#DejaVuSans-105"/>
      <use x="555.798828" xlink:href="#DejaVuSans-111"/>
      <use x="616.980469" xlink:href="#DejaVuSans-110"/>
     </g>
    </g>
   </g>
   <g id="matplotlib.axis_2">
    <g id="ytick_1">
     <g id="line2d_1">
      <path clip-path="url(#p290f8dd1d7)" d="M 32.968125 353.2239 
L 993.158125 353.2239 
" style="fill:none;stroke:#dedede;stroke-linecap:square;"/>
     </g>
     <g id="text_10">
      <!-- 0 -->
      <g transform="translate(20.878125 356.263275)scale(0.08 -0.08)">
       <use xlink:href="#DejaVuSans-48"/>
      </g>
     </g>
    </g>
    <g id="ytick_2">
     <g id="line2d_2">
      <path clip-path="url(#p290f8dd1d7)" d="M 32.968125 289.6303 
L 993.158125 289.6303 
" style="fill:none;stroke:#dedede;stroke-linecap:square;"/>
     </g>
     <g id="text_11">
      <!-- 1 -->
      <g transform="translate(20.878125 292.669675)scale(0.08 -0.08)">
       <use xlink:href="#DejaVuSans-49"/>
      </g>
     </g>
    </g>
    <g id="ytick_3">
     <g id="line2d_3">
      <path clip-path="url(#p290f8dd1d7)" d="M 32.968125 226.0367 
L 993.158125 226.0367 
" style="fill:none;stroke:#dedede;stroke-linecap:square;"/>
     </g>
     <g id="text_12">
      <!-- 2 -->
      <g transform="translate(20.878125 229.076075)scale(0.08 -0.08)">
       <use xlink:href="#DejaVuSans-50"/>
      </g>
     </g>
    </g>
    <g id="ytick_4">
     <g id="line2d_4">
      <path clip-path="url(#p290f8dd1d7)" d="M 32.968125 162.4431 
L 993.158125 162.4431 
" style="fill:none;stroke:#dedede;stroke-linecap:square;"/>
     </g>
     <g id="text_13">
      <!-- 3 -->
      <defs>
       <path d="M 40.578125 39.3125 
Q 47.65625 37.796875 51.625 33 
Q 55.609375 28.21875 55.609375 21.1875 
Q 55.609375 10.40625 48.1875 4.484375 
Q 40.765625 -1.421875 27.09375 -1.421875 
Q 22.515625 -1.421875 17.65625 -0.515625 
Q 12.796875 0.390625 7.625 2.203125 
L 7.625 11.71875 
Q 11.71875 9.328125 16.59375 8.109375 
Q 21.484375 6.890625 26.8125 6.890625 
Q 36.078125 6.890625 40.9375 10.546875 
Q 45.796875 14.203125 45.796875 21.1875 
Q 45.796875 27.640625 41.28125 31.265625 
Q 36.765625 34.90625 28.71875 34.90625 
L 20.21875 34.90625 
L 20.21875 43.015625 
L 29.109375 43.015625 
Q 36.375 43.015625 40.234375 45.921875 
Q 44.09375 48.828125 44.09375 54.296875 
Q 44.09375 59.90625 40.109375 62.90625 
Q 36.140625 65.921875 28.71875 65.921875 
Q 24.65625 65.921875 20.015625 65.03125 
Q 15.375 64.15625 9.8125 62.3125 
L 9.8125 71.09375 
Q 15.4375 72.65625 20.34375 73.4375 
Q 25.25 74.21875 29.59375 74.21875 
Q 40.828125 74.21875 47.359375 69.109375 
Q 53.90625 64.015625 53.90625 55.328125 
Q 53.90625 49.265625 50.4375 45.09375 
Q 46.96875 40.921875 40.578125 39.3125 
z
" id="DejaVuSans-51"/>
      </defs>
      <g transform="translate(20.878125 165.482475)scale(0.08 -0.08)">
       <use xlink:href="#DejaVuSans-51"/>
      </g>
     </g>
    </g>
    <g id="ytick_5">
     <g id="line2d_5">
      <path clip-path="url(#p290f8dd1d7)" d="M 32.968125 98.8495 
L 993.158125 98.8495 
" style="fill:none;stroke:#dedede;stroke-linecap:square;"/>
     </g>
     <g id="text_14">
      <!-- 4 -->
      <g transform="translate(20.878125 101.888875)scale(0.08 -0.08)">
       <use xlink:href="#DejaVuSans-52"/>
      </g>
     </g>
    </g>
    <g id="ytick_6">
     <g id="line2d_6">
      <path clip-path="url(#p290f8dd1d7)" d="M 32.968125 35.2559 
L 993.158125 35.2559 
" style="fill:none;stroke:#dedede;stroke-linecap:square;"/>
     </g>
     <g id="text_15">
      <!-- 5 -->
      <defs>
       <path d="M 10.796875 72.90625 
L 49.515625 72.90625 
L 49.515625 64.59375 
L 19.828125 64.59375 
L 19.828125 46.734375 
Q 21.96875 47.46875 24.109375 47.828125 
Q 26.265625 48.1875 28.421875 48.1875 
Q 40.625 48.1875 47.75 41.5 
Q 54.890625 34.8125 54.890625 23.390625 
Q 54.890625 11.625 47.5625 5.09375 
Q 40.234375 -1.421875 26.90625 -1.421875 
Q 22.3125 -1.421875 17.546875 -0.640625 
Q 12.796875 0.140625 7.71875 1.703125 
L 7.71875 11.625 
Q 12.109375 9.234375 16.796875 8.0625 
Q 21.484375 6.890625 26.703125 6.890625 
Q 35.15625 6.890625 40.078125 11.328125 
Q 45.015625 15.765625 45.015625 23.390625 
Q 45.015625 31 40.078125 35.4375 
Q 35.15625 39.890625 26.703125 39.890625 
Q 22.75 39.890625 18.8125 39.015625 
Q 14.890625 38.140625 10.796875 36.28125 
z
" id="DejaVuSans-53"/>
      </defs>
      <g transform="translate(20.878125 38.295275)scale(0.08 -0.08)">
       <use xlink:href="#DejaVuSans-53"/>
      </g>
     </g>
    </g>
    <g id="text_16">
     <!-- R2 After filtering: Base Content Percent -->
     <defs>
      <path d="M 34.1875 63.1875 
L 20.796875 26.90625 
L 47.609375 26.90625 
z
M 28.609375 72.90625 
L 39.796875 72.90625 
L 67.578125 0 
L 57.328125 0 
L 50.6875 18.703125 
L 17.828125 18.703125 
L 11.1875 0 
L 0.78125 0 
z
" id="DejaVuSans-65"/>
      <path d="M 37.109375 75.984375 
L 37.109375 68.5 
L 28.515625 68.5 
Q 23.6875 68.5 21.796875 66.546875 
Q 19.921875 64.59375 19.921875 59.515625 
L 19.921875 54.6875 
L 34.71875 54.6875 
L 34.71875 47.703125 
L 19.921875 47.703125 
L 19.921875 0 
L 10.890625 0 
L 10.890625 47.703125 
L 2.296875 47.703125 
L 2.296875 54.6875 
L 10.890625 54.6875 
L 10.890625 58.5 
Q 10.890625 67.625 15.140625 71.796875 
Q 19.390625 75.984375 28.609375 75.984375 
z
" id="DejaVuSans-102"/>
      <path d="M 41.109375 46.296875 
Q 39.59375 47.171875 37.8125 47.578125 
Q 36.03125 48 33.890625 48 
Q 26.265625 48 22.1875 43.046875 
Q 18.109375 38.09375 18.109375 28.8125 
L 18.109375 0 
L 9.078125 0 
L 9.078125 54.6875 
L 18.109375 54.6875 
L 18.109375 46.1875 
Q 20.953125 51.171875 25.484375 53.578125 
Q 30.03125 56 36.53125 56 
Q 37.453125 56 38.578125 55.875 
Q 39.703125 55.765625 41.0625 55.515625 
z
" id="DejaVuSans-114"/>
      <path d="M 9.421875 75.984375 
L 18.40625 75.984375 
L 18.40625 0 
L 9.421875 0 
z
" id="DejaVuSans-108"/>
      <path d="M 45.40625 27.984375 
Q 45.40625 37.75 41.375 43.109375 
Q 37.359375 48.484375 30.078125 48.484375 
Q 22.859375 48.484375 18.828125 43.109375 
Q 14.796875 37.75 14.796875 27.984375 
Q 14.796875 18.265625 18.828125 12.890625 
Q 22.859375 7.515625 30.078125 7.515625 
Q 37.359375 7.515625 41.375 12.890625 
Q 45.40625 18.265625 45.40625 27.984375 
z
M 54.390625 6.78125 
Q 54.390625 -7.171875 48.1875 -13.984375 
Q 42 -20.796875 29.203125 -20.796875 
Q 24.46875 -20.796875 20.265625 -20.09375 
Q 16.0625 -19.390625 12.109375 -17.921875 
L 12.109375 -9.1875 
Q 16.0625 -11.328125 19.921875 -12.34375 
Q 23.78125 -13.375 27.78125 -13.375 
Q 36.625 -13.375 41.015625 -8.765625 
Q 45.40625 -4.15625 45.40625 5.171875 
L 45.40625 9.625 
Q 42.625 4.78125 38.28125 2.390625 
Q 33.9375 0 27.875 0 
Q 17.828125 0 11.671875 7.65625 
Q 5.515625 15.328125 5.515625 27.984375 
Q 5.515625 40.671875 11.671875 48.328125 
Q 17.828125 56 27.875 56 
Q 33.9375 56 38.28125 53.609375 
Q 42.625 51.21875 45.40625 46.390625 
L 45.40625 54.6875 
L 54.390625 54.6875 
z
" id="DejaVuSans-103"/>
      <path d="M 11.71875 12.40625 
L 22.015625 12.40625 
L 22.015625 0 
L 11.71875 0 
z
M 11.71875 51.703125 
L 22.015625 51.703125 
L 22.015625 39.3125 
L 11.71875 39.3125 
z
" id="DejaVuSans-58"/>
      <path d="M 19.671875 34.8125 
L 19.671875 8.109375 
L 35.5 8.109375 
Q 43.453125 8.109375 47.28125 11.40625 
Q 51.125 14.703125 51.125 21.484375 
Q 51.125 28.328125 47.28125 31.5625 
Q 43.453125 34.8125 35.5 34.8125 
z
M 19.671875 64.796875 
L 19.671875 42.828125 
L 34.28125 42.828125 
Q 41.5 42.828125 45.03125 45.53125 
Q 48.578125 48.25 48.578125 53.8125 
Q 48.578125 59.328125 45.03125 62.0625 
Q 41.5 64.796875 34.28125 64.796875 
z
M 9.8125 72.90625 
L 35.015625 72.90625 
Q 46.296875 72.90625 52.390625 68.21875 
Q 58.5 63.53125 58.5 54.890625 
Q 58.5 48.1875 55.375 44.234375 
Q 52.25 40.28125 46.1875 39.3125 
Q 53.46875 37.75 57.5 32.78125 
Q 61.53125 27.828125 61.53125 20.40625 
Q 61.53125 10.640625 54.890625 5.3125 
Q 48.25 0 35.984375 0 
L 9.8125 0 
z
" id="DejaVuSans-66"/>
      <path d="M 64.40625 67.28125 
L 64.40625 56.890625 
Q 59.421875 61.53125 53.78125 63.8125 
Q 48.140625 66.109375 41.796875 66.109375 
Q 29.296875 66.109375 22.65625 58.46875 
Q 16.015625 50.828125 16.015625 36.375 
Q 16.015625 21.96875 22.65625 14.328125 
Q 29.296875 6.6875 41.796875 6.6875 
Q 48.140625 6.6875 53.78125 8.984375 
Q 59.421875 11.28125 64.40625 15.921875 
L 64.40625 5.609375 
Q 59.234375 2.09375 53.4375 0.328125 
Q 47.65625 -1.421875 41.21875 -1.421875 
Q 24.65625 -1.421875 15.125 8.703125 
Q 5.609375 18.84375 5.609375 36.375 
Q 5.609375 53.953125 15.125 64.078125 
Q 24.65625 74.21875 41.21875 74.21875 
Q 47.75 74.21875 53.53125 72.484375 
Q 59.328125 70.75 64.40625 67.28125 
z
" id="DejaVuSans-67"/>
      <path d="M 48.78125 52.59375 
L 48.78125 44.1875 
Q 44.96875 46.296875 41.140625 47.34375 
Q 37.3125 48.390625 33.40625 48.390625 
Q 24.65625 48.390625 19.8125 42.84375 
Q 14.984375 37.3125 14.984375 27.296875 
Q 14.984375 17.28125 19.8125 11.734375 
Q 24.65625 6.203125 33.40625 6.203125 
Q 37.3125 6.203125 41.140625 7.25 
Q 44.96875 8.296875 48.78125 10.40625 
L 48.78125 2.09375 
Q 45.015625 0.34375 40.984375 -0.53125 
Q 36.96875 -1.421875 32.421875 -1.421875 
Q 20.0625 -1.421875 12.78125 6.34375 
Q 5.515625 14.109375 5.515625 27.296875 
Q 5.515625 40.671875 12.859375 48.328125 
Q 20.21875 56 33.015625 56 
Q 37.15625 56 41.109375 55.140625 
Q 45.0625 54.296875 48.78125 52.59375 
z
" id="DejaVuSans-99"/>
     </defs>
     <g transform="translate(14.798438 293.315681)rotate(-90)scale(0.1 -0.1)">
      <use xlink:href="#DejaVuSans-82"/>
      <use x="69.482422" xlink:href="#DejaVuSans-50"/>
      <use x="133.105469" xlink:href="#DejaVuSans-32"/>
      <use x="164.892578" xlink:href="#DejaVuSans-65"/>
      <use x="233.253906" xlink:href="#DejaVuSans-102"/>
      <use x="268.443359" xlink:href="#DejaVuSans-116"/>
      <use x="307.652344" xlink:href="#DejaVuSans-101"/>
      <use x="369.175781" xlink:href="#DejaVuSans-114"/>
      <use x="410.289062" xlink:href="#DejaVuSans-32"/>
      <use x="442.076172" xlink:href="#DejaVuSans-102"/>
      <use x="477.28125" xlink:href="#DejaVuSans-105"/>
      <use x="505.064453" xlink:href="#DejaVuSans-108"/>
      <use x="532.847656" xlink:href="#DejaVuSans-116"/>
      <use x="572.056641" xlink:href="#DejaVuSans-101"/>
      <use x="633.580078" xlink:href="#DejaVuSans-114"/>
      <use x="674.693359" xlink:href="#DejaVuSans-105"/>
      <use x="702.476562" xlink:href="#DejaVuSans-110"/>
      <use x="765.855469" xlink:href="#DejaVuSans-103"/>
      <use x="829.332031" xlink:href="#DejaVuSans-58"/>
      <use x="863.023438" xlink:href="#DejaVuSans-32"/>
      <use x="894.810547" xlink:href="#DejaVuSans-66"/>
      <use x="963.414062" xlink:href="#DejaVuSans-97"/>
      <use x="1024.693359" xlink:href="#DejaVuSans-115"/>
      <use x="1076.792969" xlink:href="#DejaVuSans-101"/>
      <use x="1138.316406" xlink:href="#DejaVuSans-32"/>
      <use x="1170.103516" xlink:href="#DejaVuSans-67"/>
      <use x="1239.927734" xlink:href="#DejaVuSans-111"/>
      <use x="1301.109375" xlink:href="#DejaVuSans-110"/>
      <use x="1364.488281" xlink:href="#DejaVuSans-116"/>
      <use x="1403.697266" xlink:href="#DejaVuSans-101"/>
      <use x="1465.220703" xlink:href="#DejaVuSans-110"/>
      <use x="1528.599609" xlink:href="#DejaVuSans-116"/>
      <use x="1567.808594" xlink:href="#DejaVuSans-32"/>
      <use x="1599.595703" xlink:href="#DejaVuSans-80"/>
      <use x="1659.851562" xlink:href="#DejaVuSans-101"/>
      <use x="1721.375" xlink:href="#DejaVuSans-114"/>
      <use x="1762.457031" xlink:href="#DejaVuSans-99"/>
      <use x="1817.4375" xlink:href="#DejaVuSans-101"/>
      <use x="1878.960938" xlink:href="#DejaVuSans-110"/>
      <use x="1942.339844" xlink:href="#DejaVuSans-116"/>
     </g>
    </g>
   </g>
   <g id="line2d_7">
    <path clip-path="url(#p290f8dd1d7)" d="M 76.613125 353.2239 
L 158.630575 353.211232 
L 164.488964 351.66992 
L 170.347353 353.2239 
L 199.639299 353.219677 
L 205.497689 352.664383 
L 211.356078 353.215454 
L 246.506414 353.192229 
L 252.364803 353.156336 
L 258.223192 353.008538 
L 275.79836 353.185868 
L 293.373528 353.171003 
L 322.665474 353.209037 
L 557.001044 353.221633 
L 562.859434 353.1444 
L 574.576212 353.2239 
L 709.319165 353.22152 
L 715.177555 353.045114 
L 721.035944 353.2239 
L 949.513125 353.2239 
L 949.513125 353.2239 
" style="fill:none;stroke:#7cb5ec;stroke-linecap:square;"/>
   </g>
   <g id="line2d_8">
    <path clip-path="url(#p290f8dd1d7)" d="M 76.613125 353.2239 
L 158.630575 353.204958 
L 164.488964 352.035704 
L 170.347353 353.2239 
L 199.639299 353.217873 
L 205.497689 352.76326 
L 211.356078 353.201514 
L 240.648024 353.21529 
L 252.364803 353.193765 
L 258.223192 353.089583 
L 275.79836 353.198038 
L 305.090306 353.202239 
L 896.787622 353.218532 
L 949.513125 353.2239 
L 949.513125 353.2239 
" style="fill:none;stroke:#434348;stroke-linecap:square;"/>
   </g>
   <g id="line2d_9">
    <path clip-path="url(#p290f8dd1d7)" d="M 76.613125 353.2239 
L 158.630575 353.193616 
L 164.488964 352.154205 
L 170.347353 353.2239 
L 199.639299 353.212065 
L 205.497689 352.7947 
L 211.356078 353.179692 
L 223.072857 353.223204 
L 264.081581 353.146275 
L 363.674199 353.218731 
L 369.532588 353.139189 
L 381.249367 353.221264 
L 709.319165 353.218469 
L 715.177555 353.048414 
L 721.035944 353.2239 
L 949.513125 353.2239 
L 949.513125 353.2239 
" style="fill:none;stroke:#90ed7d;stroke-linecap:square;"/>
   </g>
   <g id="line2d_10">
    <path clip-path="url(#p290f8dd1d7)" d="M 76.613125 353.2239 
L 158.630575 353.208456 
L 164.488964 352.397247 
L 170.347353 353.2239 
L 199.639299 353.217647 
L 205.497689 352.869647 
L 211.356078 353.167621 
L 223.072857 353.223426 
L 275.79836 353.20271 
L 328.523863 353.220767 
L 709.319165 353.219493 
L 715.177555 353.116564 
L 726.894333 353.22344 
L 949.513125 353.2239 
L 949.513125 353.2239 
" style="fill:none;stroke:#f7a35c;stroke-linecap:square;"/>
   </g>
   <g id="line2d_11">
    <path clip-path="url(#p290f8dd1d7)" d="M 76.613125 353.2239 
L 158.630575 353.218608 
L 164.488964 352.795107 
L 170.347353 353.2239 
L 199.639299 353.220271 
L 205.497689 353.016308 
L 217.214467 353.2239 
L 949.513125 353.2239 
L 949.513125 353.2239 
" style="fill:none;stroke:#8085e9;stroke-linecap:square;"/>
   </g>
   <g id="line2d_12">
    <path clip-path="url(#p290f8dd1d7)" d="M 76.613125 353.2239 
L 158.630575 353.210616 
L 164.488964 352.066147 
L 170.347353 353.2239 
L 199.639299 353.217769 
L 205.497689 352.818227 
L 211.356078 353.19631 
L 234.789635 353.220834 
L 392.966145 353.218526 
L 539.425877 353.2239 
L 668.31044 353.2239 
L 709.319165 353.220992 
L 715.177555 353.083668 
L 721.035944 353.2239 
L 949.513125 353.2239 
L 949.513125 353.2239 
" style="fill:none;stroke:#f15c80;stroke-linecap:square;"/>
   </g>
   <g id="line2d_13">
    <path clip-path="url(#p290f8dd1d7)" d="M 76.613125 353.2239 
L 158.630575 353.19666 
L 164.488964 352.046865 
L 170.347353 353.2239 
L 199.639299 353.20813 
L 205.497689 352.766563 
L 211.356078 353.218165 
L 252.364803 353.175156 
L 258.223192 353.09487 
L 293.373528 353.193698 
L 357.81581 353.212222 
L 363.674199 353.218049 
L 369.532588 353.106652 
L 375.390977 353.220963 
L 814.770172 353.200098 
L 844.062118 353.222045 
L 896.787622 353.221997 
L 949.513125 353.2239 
L 949.513125 353.2239 
" style="fill:none;stroke:#e4d354;stroke-linecap:square;"/>
   </g>
   <g id="line2d_14">
    <path clip-path="url(#p290f8dd1d7)" d="M 76.613125 353.2239 
L 158.630575 353.189647 
L 164.488964 351.321319 
L 170.347353 353.2239 
L 199.639299 353.208953 
L 205.497689 352.484039 
L 211.356078 353.196498 
L 234.789635 353.221409 
L 252.364803 353.157263 
L 258.223192 353.002192 
L 275.79836 353.169027 
L 299.231917 353.191985 
L 369.532588 353.078264 
L 375.390977 353.22326 
L 709.319165 353.217563 
L 715.177555 352.999736 
L 721.035944 353.2239 
L 949.513125 353.2239 
L 949.513125 353.2239 
" style="fill:none;stroke:#2b908f;stroke-linecap:square;"/>
   </g>
   <g id="line2d_15">
    <path clip-path="url(#p290f8dd1d7)" d="M 76.613125 353.2239 
L 158.630575 353.184808 
L 164.488964 350.835604 
L 170.347353 353.2239 
L 199.639299 353.210165 
L 205.497689 352.351733 
L 211.356078 353.210693 
L 246.506414 353.18428 
L 252.364803 353.147829 
L 258.223192 352.933881 
L 275.79836 353.151997 
L 293.373528 353.133361 
L 310.948695 353.175104 
L 363.674199 353.214278 
L 369.532588 353.009829 
L 375.390977 353.2239 
L 674.16883 353.2239 
L 709.319165 353.21545 
L 715.177555 352.935339 
L 721.035944 353.2239 
L 949.513125 353.2239 
L 949.513125 353.2239 
" style="fill:none;stroke:#f45b5b;stroke-linecap:square;"/>
   </g>
   <g id="line2d_16">
    <path clip-path="url(#p290f8dd1d7)" d="M 76.613125 353.2239 
L 158.630575 353.186445 
L 164.488964 351.033476 
L 170.347353 353.2239 
L 199.639299 353.212417 
L 205.497689 352.411104 
L 211.356078 353.206129 
L 240.648024 353.203122 
L 252.364803 353.150904 
L 258.223192 352.972652 
L 275.79836 353.167248 
L 293.373528 353.142998 
L 310.948695 353.178257 
L 363.674199 353.217774 
L 369.532588 353.036999 
L 375.390977 353.223621 
L 709.319165 353.215217 
L 715.177555 352.925426 
L 721.035944 353.2239 
L 949.513125 353.2239 
L 949.513125 353.2239 
" style="fill:none;stroke:#91e8e1;stroke-linecap:square;"/>
   </g>
   <g id="line2d_17">
    <path clip-path="url(#p290f8dd1d7)" d="M 76.613125 353.2239 
L 158.630575 353.161776 
L 164.488964 350.257354 
L 170.347353 353.2239 
L 199.639299 353.20445 
L 205.497689 352.106255 
L 211.356078 353.212578 
L 246.506414 353.176582 
L 252.364803 353.124909 
L 258.223192 352.868576 
L 269.939971 353.026407 
L 275.79836 353.140503 
L 281.656749 353.086671 
L 293.373528 353.112123 
L 310.948695 353.165275 
L 351.95742 353.214218 
L 363.674199 353.215963 
L 369.532588 352.979083 
L 375.390977 353.223605 
L 557.001044 353.219297 
L 562.859434 353.026912 
L 568.717823 353.222977 
L 709.319165 353.211456 
L 715.177555 352.860869 
L 721.035944 353.2239 
L 855.778897 353.216925 
L 861.637286 353.091468 
L 867.495675 353.2189 
L 949.513125 353.2239 
L 949.513125 353.2239 
" style="fill:none;stroke:#7cb5ec;stroke-linecap:square;"/>
   </g>
   <g id="line2d_18">
    <path clip-path="url(#p290f8dd1d7)" d="M 76.613125 353.2239 
L 158.630575 353.182563 
L 164.488964 350.787966 
L 170.347353 353.2239 
L 199.639299 353.208826 
L 205.497689 352.295993 
L 211.356078 353.201988 
L 240.648024 353.2009 
L 252.364803 353.137962 
L 258.223192 352.927547 
L 275.79836 353.15295 
L 293.373528 353.133913 
L 310.948695 353.175412 
L 363.674199 353.213911 
L 369.532588 353.028649 
L 375.390977 353.222786 
L 709.319165 353.210897 
L 715.177555 352.923519 
L 721.035944 353.2239 
L 949.513125 353.2239 
L 949.513125 353.2239 
" style="fill:none;stroke:#434348;stroke-linecap:square;"/>
   </g>
   <g id="line2d_19">
    <path clip-path="url(#p290f8dd1d7)" d="M 76.613125 353.2239 
L 158.630575 353.192867 
L 164.488964 351.430446 
L 170.347353 353.2239 
L 199.639299 353.21232 
L 205.497689 352.518933 
L 211.356078 353.189007 
L 223.072857 353.22251 
L 234.789635 353.222047 
L 252.364803 353.157664 
L 258.223192 353.011915 
L 275.79836 353.170672 
L 293.373528 353.161551 
L 322.665474 353.213355 
L 363.674199 353.216782 
L 369.532588 353.069948 
L 375.390977 353.223246 
L 709.319165 353.211838 
L 715.177555 352.921144 
L 721.035944 353.2239 
L 949.513125 353.2239 
L 949.513125 353.2239 
" style="fill:none;stroke:#90ed7d;stroke-linecap:square;"/>
   </g>
   <g id="line2d_20">
    <path clip-path="url(#p290f8dd1d7)" d="M 76.613125 353.2239 
L 158.630575 353.212697 
L 164.488964 352.610065 
L 170.347353 353.2239 
L 199.639299 353.219739 
L 205.497689 352.956313 
L 211.356078 353.165965 
L 223.072857 353.22358 
L 293.373528 353.204646 
L 363.674199 353.219669 
L 375.390977 353.22363 
L 773.761447 353.221077 
L 949.513125 353.2239 
L 949.513125 353.2239 
" style="fill:none;stroke:#f7a35c;stroke-linecap:square;"/>
   </g>
   <g id="line2d_21">
    <path clip-path="url(#p290f8dd1d7)" d="M 76.613125 353.2239 
L 158.630575 353.199045 
L 164.488964 351.849413 
L 170.347353 353.2239 
L 199.639299 353.211472 
L 205.497689 352.694486 
L 211.356078 353.190346 
L 234.789635 353.2239 
L 252.364803 353.18786 
L 258.223192 353.072284 
L 275.79836 353.195285 
L 293.373528 353.182745 
L 316.807085 353.20135 
L 351.95742 353.221369 
L 422.258091 353.2239 
L 709.319165 353.210192 
L 715.177555 353.034534 
L 721.035944 353.2239 
L 949.513125 353.2239 
L 949.513125 353.2239 
" style="fill:none;stroke:#8085e9;stroke-linecap:square;"/>
   </g>
   <g id="line2d_22">
    <path clip-path="url(#p290f8dd1d7)" d="M 76.613125 353.2239 
L 158.630575 353.211356 
L 164.488964 352.241627 
L 170.347353 353.2239 
L 199.639299 353.217279 
L 205.497689 352.850364 
L 211.356078 353.194979 
L 234.789635 353.223203 
L 310.948695 353.209804 
L 510.13393 353.222672 
L 580.434602 353.222567 
L 709.319165 353.218138 
L 715.177555 353.110418 
L 721.035944 353.2239 
L 949.513125 353.2239 
L 949.513125 353.2239 
" style="fill:none;stroke:#f15c80;stroke-linecap:square;"/>
   </g>
   <g id="line2d_23">
    <path clip-path="url(#p290f8dd1d7)" d="M 76.613125 353.2239 
L 158.630575 353.185031 
L 164.488964 351.044236 
L 170.347353 353.2239 
L 199.639299 353.209766 
L 205.497689 352.390341 
L 211.356078 353.195455 
L 234.789635 353.22072 
L 252.364803 353.143512 
L 258.223192 352.964715 
L 275.79836 353.161451 
L 293.373528 353.136088 
L 310.948695 353.178495 
L 363.674199 353.217546 
L 369.532588 353.033629 
L 375.390977 353.223352 
L 557.001044 353.21808 
L 562.859434 353.064898 
L 568.717823 353.223463 
L 709.319165 353.212169 
L 715.177555 352.895881 
L 721.035944 353.2239 
L 949.513125 353.2239 
L 949.513125 353.2239 
" style="fill:none;stroke:#e4d354;stroke-linecap:square;"/>
   </g>
   <g id="line2d_24">
    <path clip-path="url(#p290f8dd1d7)" d="M 76.613125 353.2239 
L 158.630575 353.207278 
L 164.488964 352.025294 
L 170.347353 353.2239 
L 199.639299 353.216513 
L 205.497689 352.766804 
L 211.356078 353.193427 
L 234.789635 353.222977 
L 293.373528 353.181207 
L 346.099031 353.214434 
L 363.674199 353.221032 
L 369.532588 353.086697 
L 375.390977 353.222937 
L 709.319165 353.216017 
L 715.177555 353.008773 
L 721.035944 353.2239 
L 949.513125 353.2239 
L 949.513125 353.2239 
" style="fill:none;stroke:#2b908f;stroke-linecap:square;"/>
   </g>
   <g id="line2d_25">
    <path clip-path="url(#p290f8dd1d7)" d="M 76.613125 353.2239 
L 158.630575 353.202098 
L 164.488964 352.006636 
L 170.347353 353.223671 
L 199.639299 353.216327 
L 205.497689 352.749985 
L 211.356078 353.183508 
L 228.931246 353.198885 
L 246.506414 353.212884 
L 269.939971 353.146926 
L 287.515138 353.188561 
L 328.523863 353.218711 
L 557.001044 353.221255 
L 562.859434 353.130346 
L 574.576212 353.223559 
L 715.177555 353.022306 
L 721.035944 353.2239 
L 949.513125 353.2239 
L 949.513125 353.2239 
" style="fill:none;stroke:#f45b5b;stroke-linecap:square;"/>
   </g>
   <g id="line2d_26">
    <path clip-path="url(#p290f8dd1d7)" d="M 76.613125 353.2239 
L 158.630575 353.19515 
L 164.488964 351.620082 
L 170.347353 353.2239 
L 199.639299 353.213986 
L 205.497689 352.60453 
L 211.356078 353.190441 
L 234.789635 353.222661 
L 252.364803 353.167143 
L 258.223192 353.034545 
L 275.79836 353.174975 
L 305.090306 353.186596 
L 363.674199 353.217444 
L 369.532588 353.082815 
L 375.390977 353.223379 
L 709.319165 353.213891 
L 715.177555 352.955976 
L 721.035944 353.2239 
L 855.778897 353.222157 
L 861.637286 353.10309 
L 867.495675 353.222142 
L 949.513125 353.2239 
L 949.513125 353.2239 
" style="fill:none;stroke:#91e8e1;stroke-linecap:square;"/>
   </g>
   <g id="line2d_27">
    <path clip-path="url(#p290f8dd1d7)" d="M 76.613125 353.2239 
L 158.630575 353.185503 
L 164.488964 351.179111 
L 170.347353 353.2239 
L 199.639299 353.212721 
L 205.497689 352.448173 
L 211.356078 353.206645 
L 240.648024 353.205916 
L 252.364803 353.152451 
L 258.223192 352.985252 
L 275.79836 353.169164 
L 293.373528 353.146863 
L 316.807085 353.197222 
L 363.674199 353.217699 
L 369.532588 353.053103 
L 375.390977 353.223651 
L 709.319165 353.212977 
L 715.177555 352.943923 
L 721.035944 353.2239 
L 949.513125 353.2239 
L 949.513125 353.2239 
" style="fill:none;stroke:#7cb5ec;stroke-linecap:square;"/>
   </g>
   <g id="line2d_28">
    <path clip-path="url(#p290f8dd1d7)" d="M 76.613125 353.2239 
L 158.630575 353.192306 
L 164.488964 351.500882 
L 170.347353 353.2239 
L 199.639299 353.211559 
L 205.497689 352.551379 
L 211.356078 353.188357 
L 223.072857 353.223735 
L 234.789635 353.222254 
L 252.364803 353.16532 
L 258.223192 353.02035 
L 275.79836 353.177881 
L 293.373528 353.158741 
L 316.807085 353.199963 
L 363.674199 353.219586 
L 369.532588 353.076013 
L 375.390977 353.223377 
L 709.319165 353.21733 
L 715.177555 352.968855 
L 721.035944 353.2239 
L 949.513125 353.2239 
L 949.513125 353.2239 
" style="fill:none;stroke:#434348;stroke-linecap:square;"/>
   </g>
   <g id="line2d_29">
    <path clip-path="url(#p290f8dd1d7)" d="M 76.613125 353.2239 
L 158.630575 353.198837 
L 164.488964 351.856835 
L 170.347353 353.223794 
L 199.639299 353.214065 
L 205.497689 352.675043 
L 211.356078 353.18107 
L 223.072857 353.223794 
L 264.081581 353.123963 
L 322.665474 353.215503 
L 363.674199 353.217469 
L 369.532588 353.113516 
L 375.390977 353.223451 
L 709.319165 353.214874 
L 715.177555 353.003818 
L 721.035944 353.2239 
L 949.513125 353.2239 
L 949.513125 353.2239 
" style="fill:none;stroke:#90ed7d;stroke-linecap:square;"/>
   </g>
   <g id="line2d_30">
    <path clip-path="url(#p290f8dd1d7)" d="M 76.613125 353.2239 
L 158.630575 353.207757 
L 164.488964 352.212724 
L 170.347353 353.2239 
L 199.639299 353.217253 
L 205.497689 352.809769 
L 211.356078 353.180457 
L 228.931246 353.202535 
L 252.364803 353.190902 
L 264.081581 353.150545 
L 340.240642 353.218703 
L 615.584937 353.192003 
L 639.018494 353.223691 
L 709.319165 353.217452 
L 715.177555 353.07039 
L 721.035944 353.2239 
L 949.513125 353.2239 
L 949.513125 353.2239 
" style="fill:none;stroke:#f7a35c;stroke-linecap:square;"/>
   </g>
   <g id="line2d_31">
    <path clip-path="url(#p290f8dd1d7)" d="M 76.613125 353.2239 
L 158.630575 353.185541 
L 164.488964 352.064099 
L 170.347353 353.2239 
L 199.639299 353.214874 
L 205.497689 352.820001 
L 211.356078 353.212618 
L 246.506414 353.201336 
L 269.939971 353.126842 
L 281.656749 353.153868 
L 310.948695 353.20804 
L 428.116481 353.2239 
L 709.319165 353.218815 
L 715.177555 353.038013 
L 721.035944 353.2239 
L 949.513125 353.2239 
L 949.513125 353.2239 
" style="fill:none;stroke:#8085e9;stroke-linecap:square;"/>
   </g>
   <g id="line2d_32">
    <path clip-path="url(#p290f8dd1d7)" d="M 76.613125 353.2239 
L 158.630575 353.211213 
L 164.488964 352.22756 
L 170.347353 353.223504 
L 199.639299 353.220332 
L 205.497689 352.802449 
L 211.356078 353.190993 
L 234.789635 353.223504 
L 416.399702 353.212986 
L 486.700373 353.2239 
L 709.319165 353.216181 
L 715.177555 353.052534 
L 721.035944 353.2239 
L 949.513125 353.2239 
L 949.513125 353.2239 
" style="fill:none;stroke:#f15c80;stroke-linecap:square;"/>
   </g>
   <g id="line2d_33">
    <path clip-path="url(#p290f8dd1d7)" d="M 76.613125 353.2239 
L 158.630575 353.20411 
L 164.488964 352.072818 
L 170.347353 353.223708 
L 199.639299 353.215254 
L 205.497689 352.751246 
L 211.356078 353.17625 
L 223.072857 353.222171 
L 269.939971 353.15025 
L 287.515138 353.196101 
L 322.665474 353.21763 
L 363.674199 353.219843 
L 369.532588 353.124883 
L 381.249367 353.221829 
L 709.319165 353.218839 
L 715.177555 353.023181 
L 721.035944 353.2239 
L 949.513125 353.2239 
L 949.513125 353.2239 
" style="fill:none;stroke:#e4d354;stroke-linecap:square;"/>
   </g>
   <g id="line2d_34">
    <path clip-path="url(#p290f8dd1d7)" d="M 76.613125 353.2239 
L 158.630575 353.210484 
L 164.488964 352.347873 
L 170.347353 353.2239 
L 199.639299 353.219031 
L 205.497689 352.86968 
L 211.356078 353.188629 
L 234.789635 353.223034 
L 328.523863 353.221137 
L 949.513125 353.2239 
L 949.513125 353.2239 
" style="fill:none;stroke:#2b908f;stroke-linecap:square;"/>
   </g>
   <g id="line2d_35">
    <path clip-path="url(#p290f8dd1d7)" d="M 76.613125 353.2239 
L 158.630575 353.18953 
L 164.488964 350.916769 
L 170.347353 353.2239 
L 199.639299 353.209978 
L 205.497689 352.330283 
L 211.356078 353.204322 
L 240.648024 353.201712 
L 252.364803 353.142108 
L 258.223192 352.962428 
L 275.79836 353.163366 
L 287.515138 353.174192 
L 299.231917 353.186347 
L 322.665474 353.214698 
L 363.674199 353.215942 
L 369.532588 353.035702 
L 375.390977 353.223456 
L 557.001044 353.218139 
L 562.859434 353.057806 
L 568.717823 353.223417 
L 709.319165 353.211565 
L 715.177555 352.903486 
L 721.035944 353.2239 
L 855.778897 353.218464 
L 861.637286 353.112755 
L 873.354065 353.220616 
L 949.513125 353.2239 
L 949.513125 353.2239 
" style="fill:none;stroke:#f45b5b;stroke-linecap:square;"/>
   </g>
   <g id="line2d_36">
    <path clip-path="url(#p290f8dd1d7)" d="M 76.613125 353.2239 
L 158.630575 353.177368 
L 164.488964 350.48348 
L 170.347353 353.22364 
L 199.639299 353.204664 
L 205.497689 352.180189 
L 211.356078 353.205183 
L 240.648024 353.199984 
L 252.364803 353.129277 
L 258.223192 352.871404 
L 275.79836 353.144272 
L 281.656749 353.08798 
L 299.231917 353.171978 
L 322.665474 353.207144 
L 363.674199 353.216771 
L 369.532588 352.995706 
L 375.390977 353.222046 
L 639.018494 353.2239 
L 709.319165 353.213097 
L 715.177555 352.890394 
L 721.035944 353.2239 
L 855.778897 353.220106 
L 861.637286 353.105072 
L 873.354065 353.221353 
L 949.513125 353.2239 
L 949.513125 353.2239 
" style="fill:none;stroke:#91e8e1;stroke-linecap:square;"/>
   </g>
   <g id="line2d_37">
    <path clip-path="url(#p290f8dd1d7)" d="M 76.613125 353.2239 
L 158.630575 353.187761 
L 164.488964 351.083174 
L 170.347353 353.2239 
L 199.639299 353.211051 
L 205.497689 352.405387 
L 211.356078 353.198683 
L 234.789635 353.220688 
L 252.364803 353.149534 
L 258.223192 352.965465 
L 275.79836 353.171782 
L 293.373528 353.139198 
L 310.948695 353.178875 
L 363.674199 353.216806 
L 369.532588 353.034659 
L 375.390977 353.222573 
L 691.743997 353.223067 
L 709.319165 353.212114 
L 715.177555 352.904632 
L 721.035944 353.2239 
L 949.513125 353.2239 
L 949.513125 353.2239 
" style="fill:none;stroke:#7cb5ec;stroke-linecap:square;"/>
   </g>
   <g id="line2d_38">
    <path clip-path="url(#p290f8dd1d7)" d="M 76.613125 353.2239 
L 158.630575 353.195237 
L 164.488964 351.553773 
L 170.347353 353.2239 
L 199.639299 353.214175 
L 205.497689 352.612765 
L 211.356078 353.207521 
L 246.506414 353.200867 
L 252.364803 353.167086 
L 258.223192 353.0207 
L 275.79836 353.172167 
L 293.373528 353.161833 
L 316.807085 353.19767 
L 363.674199 353.21923 
L 369.532588 353.086693 
L 375.390977 353.2239 
L 709.319165 353.212057 
L 715.177555 352.996113 
L 721.035944 353.2239 
L 949.513125 353.2239 
L 949.513125 353.2239 
" style="fill:none;stroke:#434348;stroke-linecap:square;"/>
   </g>
   <g id="line2d_39">
    <path clip-path="url(#p290f8dd1d7)" d="M 76.613125 353.2239 
L 158.630575 353.189059 
L 164.488964 351.827372 
L 170.347353 353.2239 
L 199.639299 353.210835 
L 205.497689 352.712905 
L 211.356078 353.209383 
L 246.506414 353.213738 
L 269.939971 353.146926 
L 287.515138 353.186069 
L 392.966145 353.214858 
L 469.125206 353.2239 
L 890.929232 353.217655 
L 949.513125 353.2239 
L 949.513125 353.2239 
" style="fill:none;stroke:#90ed7d;stroke-linecap:square;"/>
   </g>
   <g id="line2d_40">
    <path clip-path="url(#p290f8dd1d7)" d="M 76.613125 353.2239 
L 158.630575 353.213021 
L 164.488964 352.443479 
L 170.347353 353.22379 
L 199.639299 353.219395 
L 205.497689 352.896874 
L 211.356078 353.170604 
L 223.072857 353.223131 
L 269.939971 353.179676 
L 299.231917 353.210786 
L 392.966145 353.219617 
L 557.001044 353.222094 
L 568.717823 353.223526 
L 709.319165 353.220277 
L 715.177555 353.084638 
L 721.035944 353.2239 
L 949.513125 353.2239 
L 949.513125 353.2239 
" style="fill:none;stroke:#f7a35c;stroke-linecap:square;"/>
   </g>
   <g id="line2d_41">
    <path clip-path="url(#p290f8dd1d7)" d="M 76.613125 353.2239 
L 158.630575 353.194608 
L 164.488964 351.814558 
L 170.347353 353.2239 
L 199.639299 353.21302 
L 205.497689 352.690793 
L 211.356078 353.203814 
L 240.648024 353.218879 
L 252.364803 353.177033 
L 258.223192 353.050661 
L 281.656749 353.162707 
L 310.948695 353.196961 
L 363.674199 353.218776 
L 369.532588 353.092953 
L 375.390977 353.2239 
L 709.319165 353.214065 
L 715.177555 352.991278 
L 721.035944 353.2239 
L 949.513125 353.2239 
L 949.513125 353.2239 
" style="fill:none;stroke:#8085e9;stroke-linecap:square;"/>
   </g>
   <g id="line2d_42">
    <path clip-path="url(#p290f8dd1d7)" d="M 76.613125 353.2239 
L 158.630575 353.192206 
L 164.488964 350.96468 
L 170.347353 353.2239 
L 199.639299 353.211631 
L 205.497689 352.391167 
L 211.356078 353.206008 
L 240.648024 353.206519 
L 252.364803 353.147476 
L 258.223192 352.950156 
L 275.79836 353.150209 
L 293.373528 353.143905 
L 310.948695 353.179945 
L 363.674199 353.21948 
L 369.532588 353.03196 
L 375.390977 353.223117 
L 557.001044 353.218534 
L 562.859434 353.076346 
L 568.717823 353.223616 
L 709.319165 353.213922 
L 715.177555 352.930821 
L 721.035944 353.2239 
L 949.513125 353.2239 
L 949.513125 353.2239 
" style="fill:none;stroke:#f15c80;stroke-linecap:square;"/>
   </g>
   <g id="line2d_43">
    <path clip-path="url(#p290f8dd1d7)" d="M 76.613125 353.2239 
L 158.630575 353.189836 
L 164.488964 351.030703 
L 170.347353 353.223704 
L 199.639299 353.213524 
L 205.497689 352.394818 
L 211.356078 353.200995 
L 240.648024 353.204519 
L 252.364803 353.143635 
L 258.223192 352.956871 
L 275.79836 353.159999 
L 287.515138 353.167359 
L 305.090306 353.169169 
L 363.674199 353.216708 
L 369.532588 353.028952 
L 375.390977 353.222296 
L 557.001044 353.220375 
L 562.859434 353.066953 
L 568.717823 353.223456 
L 709.319165 353.214349 
L 715.177555 352.918169 
L 721.035944 353.2239 
L 949.513125 353.2239 
L 949.513125 353.2239 
" style="fill:none;stroke:#e4d354;stroke-linecap:square;"/>
   </g>
   <g id="line2d_44">
    <path clip-path="url(#p290f8dd1d7)" d="M 76.613125 353.2239 
L 158.630575 353.196836 
L 164.488964 351.358051 
L 170.347353 353.2239 
L 199.639299 353.210368 
L 205.497689 352.518157 
L 211.356078 353.211929 
L 246.506414 353.192672 
L 252.364803 353.154679 
L 258.223192 352.995418 
L 275.79836 353.170774 
L 293.373528 353.157659 
L 310.948695 353.191505 
L 363.674199 353.218108 
L 369.532588 353.048391 
L 375.390977 353.223372 
L 709.319165 353.215881 
L 715.177555 352.962387 
L 721.035944 353.2239 
L 949.513125 353.2239 
L 949.513125 353.2239 
" style="fill:none;stroke:#2b908f;stroke-linecap:square;"/>
   </g>
   <g id="line2d_45">
    <path clip-path="url(#p290f8dd1d7)" d="M 76.613125 353.2239 
L 158.630575 353.201561 
L 164.488964 351.487108 
L 170.347353 353.2239 
L 199.639299 353.215113 
L 205.497689 352.559684 
L 211.356078 353.195604 
L 234.789635 353.221815 
L 252.364803 353.166116 
L 258.223192 353.009296 
L 275.79836 353.176327 
L 293.373528 353.159595 
L 316.807085 353.202413 
L 363.674199 353.219177 
L 369.532588 353.08585 
L 375.390977 353.222982 
L 633.160105 353.2239 
L 709.319165 353.219516 
L 715.177555 353.007461 
L 721.035944 353.2239 
L 949.513125 353.2239 
L 949.513125 353.2239 
" style="fill:none;stroke:#f45b5b;stroke-linecap:square;"/>
   </g>
   <g id="line2d_46">
    <path clip-path="url(#p290f8dd1d7)" d="M 76.613125 353.2239 
L 158.630575 353.204241 
L 164.488964 351.984963 
L 170.347353 353.2239 
L 199.639299 353.216629 
L 205.497689 352.777663 
L 211.356078 353.215282 
L 252.364803 353.185255 
L 258.223192 353.094769 
L 281.656749 353.171478 
L 322.665474 353.218497 
L 363.674199 353.220513 
L 369.532588 353.109229 
L 375.390977 353.223764 
L 709.319165 353.217544 
L 715.177555 353.017548 
L 721.035944 353.2239 
L 949.513125 353.2239 
L 949.513125 353.2239 
" style="fill:none;stroke:#91e8e1;stroke-linecap:square;"/>
   </g>
   <g id="line2d_47">
    <path clip-path="url(#p290f8dd1d7)" d="M 76.613125 353.2239 
L 158.630575 353.207867 
L 164.488964 352.148278 
L 170.347353 353.2239 
L 199.639299 353.217566 
L 205.497689 352.828013 
L 211.356078 353.213805 
L 252.364803 353.192625 
L 264.081581 353.1566 
L 334.382253 353.219909 
L 615.584937 353.192201 
L 639.018494 353.2239 
L 709.319165 353.22 
L 715.177555 353.073585 
L 721.035944 353.2239 
L 949.513125 353.2239 
L 949.513125 353.2239 
" style="fill:none;stroke:#7cb5ec;stroke-linecap:square;"/>
   </g>
   <g id="line2d_48">
    <path clip-path="url(#p290f8dd1d7)" d="M 76.613125 353.2239 
L 158.630575 353.209218 
L 164.488964 352.194879 
L 170.347353 353.2239 
L 199.639299 353.217516 
L 205.497689 352.847911 
L 211.356078 353.209218 
L 246.506414 353.20858 
L 287.515138 353.207257 
L 322.665474 353.218101 
L 949.513125 353.2239 
L 949.513125 353.2239 
" style="fill:none;stroke:#434348;stroke-linecap:square;"/>
   </g>
   <g id="line2d_49">
    <path clip-path="url(#p290f8dd1d7)" d="M 76.613125 353.2239 
L 158.630575 353.210732 
L 164.488964 352.222282 
L 170.347353 353.2239 
L 199.639299 353.219511 
L 205.497689 352.85162 
L 211.356078 353.209634 
L 246.506414 353.207714 
L 293.373528 353.194954 
L 346.099031 353.218026 
L 709.319165 353.218256 
L 715.177555 353.069639 
L 721.035944 353.2239 
L 949.513125 353.2239 
L 949.513125 353.2239 
" style="fill:none;stroke:#90ed7d;stroke-linecap:square;"/>
   </g>
   <g id="line2d_50">
    <path clip-path="url(#p290f8dd1d7)" d="M 76.613125 353.2239 
L 158.630575 353.209216 
L 164.488964 352.156144 
L 170.347353 353.2239 
L 199.639299 353.216239 
L 205.497689 352.846915 
L 211.356078 353.210174 
L 252.364803 353.196448 
L 258.223192 353.108666 
L 281.656749 353.179436 
L 310.948695 353.203324 
L 363.674199 353.220971 
L 369.532588 353.135554 
L 381.249367 353.221611 
L 715.177555 353.073974 
L 721.035944 353.2239 
L 949.513125 353.2239 
L 949.513125 353.2239 
" style="fill:none;stroke:#f7a35c;stroke-linecap:square;"/>
   </g>
   <g id="line2d_51">
    <path clip-path="url(#p290f8dd1d7)" d="M 76.613125 353.2239 
L 158.630575 353.216674 
L 164.488964 352.584981 
L 170.347353 353.2239 
L 199.639299 353.220889 
L 205.497689 352.981219 
L 211.356078 353.186565 
L 228.931246 353.213663 
L 287.515138 353.204491 
L 949.513125 353.2239 
L 949.513125 353.2239 
" style="fill:none;stroke:#8085e9;stroke-linecap:square;"/>
   </g>
   <g id="line2d_52">
    <path clip-path="url(#p290f8dd1d7)" d="M 76.613125 353.2239 
L 158.630575 353.216399 
L 164.488964 352.516281 
L 170.347353 353.2239 
L 199.639299 353.2214 
L 205.497689 352.951355 
L 211.356078 353.196395 
L 240.648024 353.2239 
L 369.532588 353.191718 
L 392.966145 353.2239 
L 627.301716 353.2239 
L 949.513125 353.2239 
L 949.513125 353.2239 
" style="fill:none;stroke:#f15c80;stroke-linecap:square;"/>
   </g>
   <g id="line2d_53">
    <path clip-path="url(#p290f8dd1d7)" d="M 76.613125 353.2239 
L 158.630575 353.219835 
L 164.488964 352.366162 
L 170.347353 353.2239 
L 199.639299 353.21577 
L 205.497689 352.890561 
L 211.356078 353.199509 
L 240.648024 353.21577 
L 949.513125 353.2239 
L 949.513125 353.2239 
" style="fill:none;stroke:#e4d354;stroke-linecap:square;"/>
   </g>
   <g id="line2d_54">
    <path clip-path="url(#p290f8dd1d7)" d="M 76.613125 353.2239 
L 158.630575 353.212337 
L 164.488964 352.584078 
L 170.347353 353.2239 
L 199.639299 353.212337 
L 205.497689 352.950241 
L 211.356078 353.189211 
L 234.789635 353.2239 
L 293.373528 353.180899 
L 322.665474 353.219902 
L 486.700373 353.2239 
L 949.513125 353.2239 
L 949.513125 353.2239 
" style="fill:none;stroke:#2b908f;stroke-linecap:square;"/>
   </g>
   <g id="line2d_55">
    <path clip-path="url(#p290f8dd1d7)" d="M 76.613125 353.2239 
L 158.630575 353.209424 
L 164.488964 352.318143 
L 170.347353 353.2239 
L 199.639299 353.219205 
L 205.497689 352.882334 
L 211.356078 353.197686 
L 234.789635 353.2239 
L 340.240642 353.219896 
L 726.894333 353.2239 
L 949.513125 353.2239 
L 949.513125 353.2239 
" style="fill:none;stroke:#f45b5b;stroke-linecap:square;"/>
   </g>
   <g id="line2d_56">
    <path clip-path="url(#p290f8dd1d7)" d="M 76.613125 353.2239 
L 158.630575 353.207816 
L 164.488964 352.283204 
L 170.347353 353.2239 
L 199.639299 353.217926 
L 205.497689 352.864534 
L 211.356078 353.208735 
L 246.506414 353.212871 
L 293.373528 353.198295 
L 363.674199 353.220607 
L 369.532588 353.152952 
L 381.249367 353.222479 
L 586.292991 353.223375 
L 709.319165 353.217342 
L 715.177555 353.097615 
L 721.035944 353.2239 
L 949.513125 353.2239 
L 949.513125 353.2239 
" style="fill:none;stroke:#91e8e1;stroke-linecap:square;"/>
   </g>
   <g id="line2d_57">
    <path clip-path="url(#p290f8dd1d7)" d="M 76.613125 353.2239 
L 158.630575 353.210633 
L 164.488964 352.481718 
L 170.347353 353.2239 
L 199.639299 353.217657 
L 205.497689 352.94763 
L 211.356078 353.195805 
L 234.789635 353.22312 
L 515.99232 353.219988 
L 685.885608 353.222685 
L 949.513125 353.2239 
L 949.513125 353.2239 
" style="fill:none;stroke:#7cb5ec;stroke-linecap:square;"/>
   </g>
   <g id="line2d_58">
    <path clip-path="url(#p290f8dd1d7)" d="M 76.613125 353.2239 
L 158.630575 353.20149 
L 164.488964 352.502564 
L 170.347353 353.2239 
L 199.639299 353.216897 
L 205.497689 352.935365 
L 211.356078 353.190284 
L 234.789635 353.2239 
L 392.966145 353.220862 
L 603.868159 353.2239 
L 773.761447 353.216903 
L 855.778897 353.2239 
L 873.354065 353.2239 
L 949.513125 353.2239 
L 949.513125 353.2239 
" style="fill:none;stroke:#434348;stroke-linecap:square;"/>
   </g>
   <g id="line2d_59">
    <path clip-path="url(#p290f8dd1d7)" d="M 76.613125 353.2239 
L 158.630575 353.209867 
L 164.488964 352.248622 
L 170.347353 353.2239 
L 199.639299 353.217963 
L 205.497689 352.868762 
L 211.356078 353.209867 
L 246.506414 353.209327 
L 281.656749 353.190938 
L 363.674199 353.221708 
L 369.532588 353.148703 
L 381.249367 353.222248 
L 949.513125 353.2239 
L 949.513125 353.2239 
" style="fill:none;stroke:#90ed7d;stroke-linecap:square;"/>
   </g>
   <g id="line2d_60">
    <path clip-path="url(#p290f8dd1d7)" d="M 76.613125 353.2239 
L 158.630575 353.203634 
L 164.488964 352.122656 
L 170.347353 353.2239 
L 199.639299 353.217352 
L 205.497689 352.816703 
L 211.356078 353.214235 
L 252.364803 353.188044 
L 258.223192 353.107291 
L 281.656749 353.175506 
L 310.948695 353.205729 
L 363.674199 353.221053 
L 369.532588 353.125077 
L 381.249367 353.222312 
L 562.859434 353.145751 
L 574.576212 353.223226 
L 709.319165 353.220704 
L 715.177555 353.030568 
L 721.035944 353.2239 
L 949.513125 353.2239 
L 949.513125 353.2239 
" style="fill:none;stroke:#f7a35c;stroke-linecap:square;"/>
   </g>
   <g id="line2d_61">
    <path clip-path="url(#p290f8dd1d7)" d="M 76.613125 353.2239 
L 158.630575 353.209553 
L 164.488964 352.112188 
L 170.347353 353.2239 
L 199.639299 353.218366 
L 205.497689 352.836523 
L 211.356078 353.215292 
L 252.364803 353.190696 
L 258.223192 353.109327 
L 281.656749 353.176908 
L 322.665474 353.218542 
L 363.674199 353.220789 
L 369.532588 353.126521 
L 381.249367 353.222235 
L 709.319165 353.218392 
L 715.177555 353.037785 
L 721.035944 353.2239 
L 949.513125 353.2239 
L 949.513125 353.2239 
" style="fill:none;stroke:#8085e9;stroke-linecap:square;"/>
   </g>
   <g id="line2d_62">
    <path clip-path="url(#p290f8dd1d7)" d="M 76.613125 353.2239 
L 158.630575 353.21215 
L 164.488964 352.219077 
L 170.347353 353.2239 
L 199.639299 353.220207 
L 205.497689 352.866019 
L 211.356078 353.208792 
L 246.506414 353.211142 
L 281.656749 353.183848 
L 328.523863 353.220497 
L 709.319165 353.217448 
L 715.177555 353.071768 
L 721.035944 353.2239 
L 949.513125 353.2239 
L 949.513125 353.2239 
" style="fill:none;stroke:#f15c80;stroke-linecap:square;"/>
   </g>
   <g id="line2d_63">
    <path clip-path="url(#p290f8dd1d7)" d="M 76.613125 353.2239 
L 158.630575 353.200986 
L 164.488964 352.075024 
L 170.347353 353.2239 
L 199.639299 353.216789 
L 205.497689 352.799591 
L 211.356078 353.208887 
L 246.506414 353.215208 
L 269.939971 353.172517 
L 299.231917 353.209623 
L 340.240642 353.221504 
L 469.125206 353.223074 
L 709.319165 353.218491 
L 715.177555 353.044057 
L 721.035944 353.2239 
L 949.513125 353.2239 
L 949.513125 353.2239 
" style="fill:none;stroke:#e4d354;stroke-linecap:square;"/>
   </g>
   <g id="line2d_64">
    <path clip-path="url(#p290f8dd1d7)" d="M 76.613125 353.2239 
L 158.630575 353.209683 
L 164.488964 352.326632 
L 170.347353 353.2239 
L 199.639299 353.219161 
L 205.497689 352.870047 
L 211.356078 353.212842 
L 252.364803 353.195992 
L 264.081581 353.162292 
L 363.674199 353.222304 
L 369.532588 353.147728 
L 381.249367 353.222832 
L 580.434602 353.22275 
L 709.319165 353.221406 
L 715.177555 353.09493 
L 721.035944 353.2239 
L 949.513125 353.2239 
L 949.513125 353.2239 
" style="fill:none;stroke:#2b908f;stroke-linecap:square;"/>
   </g>
   <g id="line2d_65">
    <path clip-path="url(#p290f8dd1d7)" d="M 76.613125 353.2239 
L 158.630575 353.206783 
L 164.488964 352.338823 
L 170.347353 353.2239 
L 199.639299 353.220334 
L 205.497689 352.897257 
L 211.356078 353.209636 
L 252.364803 353.199651 
L 264.081581 353.163278 
L 463.266816 353.222389 
L 709.319165 353.221226 
L 715.177555 353.113714 
L 726.894333 353.2239 
L 949.513125 353.2239 
L 949.513125 353.2239 
" style="fill:none;stroke:#f45b5b;stroke-linecap:square;"/>
   </g>
   <g id="line2d_66">
    <path clip-path="url(#p290f8dd1d7)" d="M 76.613125 353.2239 
L 158.630575 353.215385 
L 164.488964 352.246784 
L 170.347353 353.2239 
L 199.639299 353.220707 
L 205.497689 352.844975 
L 211.356078 353.208998 
L 252.364803 353.204741 
L 258.223192 353.125975 
L 275.79836 353.206849 
L 310.948695 353.212105 
L 574.576212 353.2239 
L 709.319165 353.218639 
L 715.177555 353.097138 
L 721.035944 353.2239 
L 949.513125 353.2239 
L 949.513125 353.2239 
" style="fill:none;stroke:#91e8e1;stroke-linecap:square;"/>
   </g>
   <g id="line2d_67">
    <path clip-path="url(#p290f8dd1d7)" d="M 76.613125 353.2239 
L 158.630575 353.206955 
L 164.488964 352.236062 
L 170.347353 353.2239 
L 199.639299 353.21705 
L 205.497689 352.865538 
L 211.356078 353.20984 
L 246.506414 353.208037 
L 281.656749 353.185989 
L 328.523863 353.219172 
L 557.001044 353.222306 
L 562.859434 353.158319 
L 574.576212 353.223095 
L 849.920508 353.201876 
L 885.070843 353.211778 
L 949.513125 353.2239 
L 949.513125 353.2239 
" style="fill:none;stroke:#7cb5ec;stroke-linecap:square;"/>
   </g>
   <g id="line2d_68">
    <path clip-path="url(#p290f8dd1d7)" d="M 76.613125 353.2239 
L 158.630575 353.208357 
L 164.488964 352.150217 
L 170.347353 353.2239 
L 199.639299 353.219117 
L 205.497689 352.81021 
L 211.356078 353.210748 
L 252.364803 353.207161 
L 264.081581 353.123467 
L 275.79836 353.197584 
L 369.532588 353.101188 
L 375.390977 353.2239 
L 709.319165 353.220043 
L 715.177555 353.075724 
L 721.035944 353.2239 
L 855.778897 353.22115 
L 861.637286 353.112173 
L 873.354065 353.221122 
L 949.513125 353.2239 
L 949.513125 353.2239 
" style="fill:none;stroke:#434348;stroke-linecap:square;"/>
   </g>
   <g id="line2d_69">
    <path clip-path="url(#p290f8dd1d7)" d="M 76.613125 353.2239 
L 158.630575 353.210367 
L 164.488964 352.200781 
L 170.347353 353.2239 
L 199.639299 353.2239 
L 205.497689 352.847673 
L 211.356078 353.210367 
L 252.364803 353.196833 
L 264.081581 353.15082 
L 328.523863 353.2239 
L 709.319165 353.2239 
L 715.177555 353.033358 
L 721.035944 353.2239 
L 949.513125 353.2239 
L 949.513125 353.2239 
" style="fill:none;stroke:#90ed7d;stroke-linecap:square;"/>
   </g>
   <g id="line2d_70">
    <path clip-path="url(#p290f8dd1d7)" d="M 76.613125 353.2239 
L 158.630575 353.211569 
L 164.488964 352.206962 
L 170.347353 353.2239 
L 199.639299 353.220273 
L 205.497689 352.864128 
L 211.356078 353.211569 
L 252.364803 353.199238 
L 264.081581 353.153541 
L 305.090306 353.20498 
L 709.319165 353.22222 
L 715.177555 353.09328 
L 721.035944 353.2239 
L 949.513125 353.2239 
L 949.513125 353.2239 
" style="fill:none;stroke:#f7a35c;stroke-linecap:square;"/>
   </g>
   <g id="line2d_71">
    <path clip-path="url(#p290f8dd1d7)" d="M 76.613125 353.2239 
L 158.630575 353.209395 
L 164.488964 352.22391 
L 170.347353 353.2239 
L 199.639299 353.218974 
L 205.497689 352.876065 
L 211.356078 353.21569 
L 252.364803 353.192702 
L 258.223192 353.113884 
L 287.515138 353.202792 
L 328.523863 353.220318 
L 715.177555 353.06805 
L 721.035944 353.2239 
L 949.513125 353.2239 
L 949.513125 353.2239 
" style="fill:none;stroke:#8085e9;stroke-linecap:square;"/>
   </g>
   <g id="line2d_72">
    <path clip-path="url(#p290f8dd1d7)" d="M 76.613125 353.2239 
L 158.630575 353.211124 
L 164.488964 352.169893 
L 170.347353 353.2239 
L 199.639299 353.219641 
L 205.497689 352.867595 
L 211.356078 353.211834 
L 252.364803 353.190541 
L 264.081581 353.150084 
L 328.523863 353.21891 
L 557.001044 353.220153 
L 562.859434 353.159321 
L 574.576212 353.2239 
L 949.513125 353.2239 
L 949.513125 353.2239 
" style="fill:none;stroke:#f15c80;stroke-linecap:square;"/>
   </g>
   <g id="line2d_73">
    <path clip-path="url(#p290f8dd1d7)" d="M 76.613125 353.2239 
L 158.630575 353.209753 
L 164.488964 352.234422 
L 170.347353 353.2239 
L 199.639299 353.22182 
L 205.497689 352.864393 
L 211.356078 353.211001 
L 252.364803 353.192277 
L 264.081581 353.15774 
L 363.674199 353.221793 
L 369.532588 353.129832 
L 381.249367 353.221786 
L 756.186279 353.219891 
L 855.778897 353.223364 
L 867.495675 353.219037 
L 949.513125 353.2239 
L 949.513125 353.2239 
" style="fill:none;stroke:#e4d354;stroke-linecap:square;"/>
   </g>
   <g id="line2d_74">
    <path clip-path="url(#p290f8dd1d7)" d="M 76.613125 353.2239 
L 158.630575 353.208733 
L 164.488964 352.262288 
L 170.347353 353.2239 
L 199.639299 353.219046 
L 205.497689 352.847749 
L 211.356078 353.206306 
L 246.506414 353.211766 
L 293.373528 353.183039 
L 322.665474 353.219594 
L 557.001044 353.222505 
L 568.717823 353.2239 
L 709.319165 353.220048 
L 715.177555 353.087757 
L 721.035944 353.2239 
L 949.513125 353.2239 
L 949.513125 353.2239 
" style="fill:none;stroke:#2b908f;stroke-linecap:square;"/>
   </g>
   <g id="line2d_75">
    <path clip-path="url(#p290f8dd1d7)" d="M 76.613125 353.2239 
L 158.630575 353.216393 
L 164.488964 352.37862 
L 170.347353 353.2239 
L 199.639299 353.217894 
L 205.497689 352.896597 
L 211.356078 353.196875 
L 234.789635 353.222399 
L 445.691648 353.2239 
L 709.319165 353.215536 
L 715.177555 353.097775 
L 721.035944 353.2239 
L 949.513125 353.2239 
L 949.513125 353.2239 
" style="fill:none;stroke:#f45b5b;stroke-linecap:square;"/>
   </g>
   <g id="line2d_76">
    <path clip-path="url(#p290f8dd1d7)" d="M 76.613125 353.2239 
L 158.630575 353.209442 
L 164.488964 352.165156 
L 170.347353 353.2239 
L 199.639299 353.222788 
L 205.497689 352.862458 
L 211.356078 353.203882 
L 240.648024 353.216115 
L 310.948695 353.20706 
L 363.674199 353.218197 
L 369.532588 353.153047 
L 381.249367 353.219311 
L 709.319165 353.215994 
L 715.177555 353.090411 
L 721.035944 353.2239 
L 949.513125 353.2239 
L 949.513125 353.2239 
" style="fill:none;stroke:#91e8e1;stroke-linecap:square;"/>
   </g>
   <g id="line2d_77">
    <path clip-path="url(#p290f8dd1d7)" d="M 76.613125 353.2239 
L 158.630575 353.208 
L 164.488964 352.144996 
L 170.347353 353.2239 
L 199.639299 353.218903 
L 205.497689 352.812327 
L 211.356078 353.216177 
L 252.364803 353.192101 
L 258.223192 353.110331 
L 287.515138 353.200713 
L 322.665474 353.220712 
L 668.31044 353.2239 
L 709.319165 353.218933 
L 715.177555 353.055566 
L 721.035944 353.2239 
L 949.513125 353.2239 
L 949.513125 353.2239 
" style="fill:none;stroke:#7cb5ec;stroke-linecap:square;"/>
   </g>
   <g id="line2d_78">
    <path clip-path="url(#p290f8dd1d7)" d="M 76.613125 353.2239 
L 158.630575 353.208638 
L 164.488964 351.948429 
L 170.347353 353.2239 
L 199.639299 353.218248 
L 205.497689 352.765204 
L 211.356078 353.217117 
L 252.364803 353.183768 
L 258.223192 353.098133 
L 287.515138 353.191932 
L 316.807085 353.211151 
L 363.674199 353.219639 
L 369.532588 353.114196 
L 381.249367 353.223331 
L 715.177555 353.021661 
L 721.035944 353.2239 
L 949.513125 353.2239 
L 949.513125 353.2239 
" style="fill:none;stroke:#434348;stroke-linecap:square;"/>
   </g>
   <g id="line2d_79">
    <path clip-path="url(#p290f8dd1d7)" d="M 76.613125 353.2239 
L 158.630575 353.201402 
L 164.488964 351.983208 
L 170.347353 353.2239 
L 199.639299 353.216569 
L 205.497689 352.773175 
L 211.356078 353.217327 
L 252.364803 353.193818 
L 258.223192 353.105089 
L 287.515138 353.197839 
L 322.665474 353.217565 
L 363.674199 353.219074 
L 369.532588 353.116174 
L 381.249367 353.223391 
L 551.142655 353.223383 
L 709.319165 353.218591 
L 715.177555 353.023776 
L 721.035944 353.2239 
L 949.513125 353.2239 
L 949.513125 353.2239 
" style="fill:none;stroke:#90ed7d;stroke-linecap:square;"/>
   </g>
   <g id="line2d_80">
    <path clip-path="url(#p290f8dd1d7)" d="M 76.613125 353.2239 
L 158.630575 353.204832 
L 164.488964 352.318155 
L 170.347353 353.2239 
L 199.639299 353.214366 
L 205.497689 352.918808 
L 211.356078 353.2239 
L 252.364803 353.166695 
L 258.223192 353.071354 
L 275.79836 353.195276 
L 293.373528 353.195235 
L 363.674199 353.2239 
L 369.532588 353.146699 
L 381.249367 353.2239 
L 949.513125 353.2239 
L 949.513125 353.2239 
" style="fill:none;stroke:#f7a35c;stroke-linecap:square;"/>
   </g>
   <g id="line2d_81">
    <path clip-path="url(#p290f8dd1d7)" d="M 76.613125 353.2239 
L 158.630575 353.208278 
L 164.488964 352.097301 
L 170.347353 353.2239 
L 199.639299 353.218288 
L 205.497689 352.815456 
L 211.356078 353.214193 
L 252.364803 353.191746 
L 258.223192 353.11485 
L 281.656749 353.176069 
L 316.807085 353.21095 
L 363.674199 353.220066 
L 369.532588 353.124283 
L 381.249367 353.222977 
L 680.027219 353.2239 
L 709.319165 353.217919 
L 715.177555 353.04588 
L 721.035944 353.2239 
L 949.513125 353.2239 
L 949.513125 353.2239 
" style="fill:none;stroke:#8085e9;stroke-linecap:square;"/>
   </g>
   <g id="line2d_82">
    <path clip-path="url(#p290f8dd1d7)" d="M 76.613125 353.2239 
L 158.630575 353.210105 
L 164.488964 352.119063 
L 170.347353 353.2239 
L 199.639299 353.220556 
L 205.497689 352.827615 
L 211.356078 353.21554 
L 252.364803 353.192548 
L 258.223192 353.11187 
L 287.515138 353.19753 
L 328.523863 353.21928 
L 709.319165 353.219252 
L 715.177555 353.06217 
L 721.035944 353.2239 
L 949.513125 353.2239 
L 949.513125 353.2239 
" style="fill:none;stroke:#f15c80;stroke-linecap:square;"/>
   </g>
   <g id="line2d_83">
    <path clip-path="url(#p290f8dd1d7)" d="M 76.613125 353.2239 
L 158.630575 353.204319 
L 164.488964 352.027202 
L 170.347353 353.2239 
L 199.639299 353.218577 
L 205.497689 352.788565 
L 211.356078 353.217627 
L 252.364803 353.192723 
L 258.223192 353.103755 
L 281.656749 353.174421 
L 310.948695 353.204824 
L 363.674199 353.219103 
L 369.532588 353.122118 
L 381.249367 353.222169 
L 709.319165 353.218754 
L 715.177555 353.035651 
L 721.035944 353.2239 
L 949.513125 353.2239 
L 949.513125 353.2239 
" style="fill:none;stroke:#e4d354;stroke-linecap:square;"/>
   </g>
   <g id="line2d_84">
    <path clip-path="url(#p290f8dd1d7)" d="M 76.613125 353.2239 
L 158.630575 353.207731 
L 164.488964 352.082331 
L 170.347353 353.2239 
L 199.639299 353.219049 
L 205.497689 352.797672 
L 211.356078 353.215815 
L 252.364803 353.190914 
L 258.223192 353.11136 
L 281.656749 353.184411 
L 340.240642 353.217719 
L 709.319165 353.217826 
L 715.177555 353.039079 
L 721.035944 353.2239 
L 949.513125 353.2239 
L 949.513125 353.2239 
" style="fill:none;stroke:#2b908f;stroke-linecap:square;"/>
   </g>
   <g id="line2d_85">
    <path clip-path="url(#p290f8dd1d7)" d="M 76.613125 353.2239 
L 158.630575 353.199961 
L 164.488964 352.156151 
L 170.347353 353.2239 
L 199.639299 353.215803 
L 205.497689 352.838411 
L 211.356078 353.213339 
L 252.364803 353.189048 
L 264.081581 353.151731 
L 363.674199 353.217821 
L 369.532588 353.126491 
L 381.249367 353.223541 
L 680.027219 353.2239 
L 709.319165 353.216119 
L 715.177555 353.063716 
L 721.035944 353.2239 
L 949.513125 353.2239 
L 949.513125 353.2239 
" style="fill:none;stroke:#f45b5b;stroke-linecap:square;"/>
   </g>
   <g id="line2d_86">
    <path clip-path="url(#p290f8dd1d7)" d="M 76.613125 353.2239 
L 158.630575 353.206263 
L 164.488964 352.159782 
L 170.347353 353.2239 
L 199.639299 353.220373 
L 205.497689 352.83 
L 211.356078 353.212142 
L 252.364803 353.18745 
L 264.081581 353.148647 
L 293.373528 353.193242 
L 340.240642 353.220333 
L 615.584937 353.186104 
L 633.160105 353.2239 
L 709.319165 353.222541 
L 715.177555 353.067234 
L 721.035944 353.2239 
L 949.513125 353.2239 
L 949.513125 353.2239 
" style="fill:none;stroke:#91e8e1;stroke-linecap:square;"/>
   </g>
   <g id="line2d_87">
    <path clip-path="url(#p290f8dd1d7)" d="M 76.613125 353.2239 
L 158.630575 353.214352 
L 164.488964 352.435263 
L 170.347353 353.2239 
L 199.639299 353.22199 
L 205.497689 352.93174 
L 211.356078 353.208624 
L 246.506414 353.208624 
L 305.090306 353.204636 
L 557.001044 353.2239 
L 568.717823 353.2239 
L 709.319165 353.2239 
L 715.177555 353.094502 
L 721.035944 353.2239 
L 949.513125 353.2239 
L 949.513125 353.2239 
" style="fill:none;stroke:#7cb5ec;stroke-linecap:square;"/>
   </g>
   <g id="line2d_88">
    <path clip-path="url(#p290f8dd1d7)" d="M 76.613125 353.2239 
L 158.630575 353.203807 
L 164.488964 352.007806 
L 170.347353 353.2239 
L 199.639299 353.216309 
L 205.497689 352.796804 
L 211.356078 353.215639 
L 252.364803 353.195769 
L 258.223192 353.105796 
L 281.656749 353.179634 
L 322.665474 353.217162 
L 363.674199 353.2178 
L 369.532588 353.110604 
L 375.390977 353.222995 
L 709.319165 353.217304 
L 715.177555 353.021258 
L 721.035944 353.2239 
L 949.513125 353.2239 
L 949.513125 353.2239 
" style="fill:none;stroke:#434348;stroke-linecap:square;"/>
   </g>
   <g id="line2d_89">
    <path clip-path="url(#p290f8dd1d7)" d="M 76.613125 353.2239 
L 158.630575 353.20926 
L 164.488964 352.286969 
L 170.347353 353.2239 
L 199.639299 353.220647 
L 205.497689 352.843271 
L 211.356078 353.199501 
L 240.648024 353.21902 
L 433.97487 353.222153 
L 803.053393 353.219493 
L 949.513125 353.2239 
L 949.513125 353.2239 
" style="fill:none;stroke:#90ed7d;stroke-linecap:square;"/>
   </g>
   <g id="line2d_90">
    <path clip-path="url(#p290f8dd1d7)" d="M 76.613125 353.2239 
L 158.630575 353.210003 
L 164.488964 352.29247 
L 170.347353 353.2239 
L 199.639299 353.218555 
L 205.497689 352.867933 
L 211.356078 353.210003 
L 252.364803 353.197532 
L 264.081581 353.162612 
L 363.674199 353.22138 
L 369.532588 353.142471 
L 381.249367 353.223539 
L 615.584937 353.196331 
L 644.876883 353.2239 
L 709.319165 353.219717 
L 715.177555 353.109622 
L 721.035944 353.2239 
L 949.513125 353.2239 
L 949.513125 353.2239 
" style="fill:none;stroke:#f7a35c;stroke-linecap:square;"/>
   </g>
   <g id="line2d_91">
    <path clip-path="url(#p290f8dd1d7)" d="M 76.613125 353.2239 
L 158.630575 353.212569 
L 164.488964 352.213595 
L 170.347353 353.2239 
L 199.639299 353.219179 
L 205.497689 352.845744 
L 211.356078 353.211625 
L 252.364803 353.190853 
L 258.223192 353.115788 
L 281.656749 353.184626 
L 322.665474 353.22008 
L 557.001044 353.222845 
L 562.859434 353.159868 
L 574.576212 353.2239 
L 949.513125 353.2239 
L 949.513125 353.2239 
" style="fill:none;stroke:#8085e9;stroke-linecap:square;"/>
   </g>
   <g id="line2d_92">
    <path clip-path="url(#p290f8dd1d7)" d="M 76.613125 353.2239 
L 158.630575 353.20834 
L 164.488964 352.209315 
L 170.347353 353.2239 
L 199.639299 353.219781 
L 205.497689 352.862823 
L 211.356078 353.213374 
L 252.364803 353.19095 
L 264.081581 353.155254 
L 363.674199 353.220202 
L 369.532588 353.155886 
L 381.249367 353.2239 
L 732.752722 353.223362 
L 949.513125 353.2239 
L 949.513125 353.2239 
" style="fill:none;stroke:#f15c80;stroke-linecap:square;"/>
   </g>
   <g id="line2d_93">
    <path clip-path="url(#p290f8dd1d7)" d="M 76.613125 353.2239 
L 158.630575 353.204153 
L 164.488964 352.035654 
L 170.347353 353.2239 
L 199.639299 353.217375 
L 205.497689 352.782085 
L 211.356078 353.215486 
L 252.364803 353.190416 
L 258.223192 353.101297 
L 275.79836 353.197957 
L 299.231917 353.204803 
L 369.532588 353.116723 
L 381.249367 353.22286 
L 545.284266 353.223366 
L 709.319165 353.216302 
L 715.177555 353.014687 
L 721.035944 353.2239 
L 949.513125 353.2239 
L 949.513125 353.2239 
" style="fill:none;stroke:#e4d354;stroke-linecap:square;"/>
   </g>
   <g id="line2d_94">
    <path clip-path="url(#p290f8dd1d7)" d="M 32.968125 353.2239 
L 993.158125 353.2239 
" style="fill:none;stroke:#dedede;stroke-linecap:square;stroke-width:2;"/>
   </g>
   <g id="text_17">
    <!-- Fastp: Read N Content -->
    <defs>
     <path d="M 9.8125 72.90625 
L 51.703125 72.90625 
L 51.703125 64.59375 
L 19.671875 64.59375 
L 19.671875 43.109375 
L 48.578125 43.109375 
L 48.578125 34.8125 
L 19.671875 34.8125 
L 19.671875 0 
L 9.8125 0 
z
" id="DejaVuSans-70"/>
     <path d="M 18.109375 8.203125 
L 18.109375 -20.796875 
L 9.078125 -20.796875 
L 9.078125 54.6875 
L 18.109375 54.6875 
L 18.109375 46.390625 
Q 20.953125 51.265625 25.265625 53.625 
Q 29.59375 56 35.59375 56 
Q 45.5625 56 51.78125 48.09375 
Q 58.015625 40.1875 58.015625 27.296875 
Q 58.015625 14.40625 51.78125 6.484375 
Q 45.5625 -1.421875 35.59375 -1.421875 
Q 29.59375 -1.421875 25.265625 0.953125 
Q 20.953125 3.328125 18.109375 8.203125 
z
M 48.6875 27.296875 
Q 48.6875 37.203125 44.609375 42.84375 
Q 40.53125 48.484375 33.40625 48.484375 
Q 26.265625 48.484375 22.1875 42.84375 
Q 18.109375 37.203125 18.109375 27.296875 
Q 18.109375 17.390625 22.1875 11.75 
Q 26.265625 6.109375 33.40625 6.109375 
Q 40.53125 6.109375 44.609375 11.75 
Q 48.6875 17.390625 48.6875 27.296875 
z
" id="DejaVuSans-112"/>
     <path d="M 9.8125 72.90625 
L 23.09375 72.90625 
L 55.421875 11.921875 
L 55.421875 72.90625 
L 64.984375 72.90625 
L 64.984375 0 
L 51.703125 0 
L 19.390625 60.984375 
L 19.390625 0 
L 9.8125 0 
z
" id="DejaVuSans-78"/>
    </defs>
    <g transform="translate(422.606875 19.3575)scale(0.16 -0.16)">
     <use xlink:href="#DejaVuSans-70"/>
     <use x="57.378906" xlink:href="#DejaVuSans-97"/>
     <use x="118.658203" xlink:href="#DejaVuSans-115"/>
     <use x="170.757812" xlink:href="#DejaVuSans-116"/>
     <use x="209.966797" xlink:href="#DejaVuSans-112"/>
     <use x="273.443359" xlink:href="#DejaVuSans-58"/>
     <use x="307.134766" xlink:href="#DejaVuSans-32"/>
     <use x="338.921875" xlink:href="#DejaVuSans-82"/>
     <use x="408.341797" xlink:href="#DejaVuSans-101"/>
     <use x="469.865234" xlink:href="#DejaVuSans-97"/>
     <use x="531.144531" xlink:href="#DejaVuSans-100"/>
     <use x="594.621094" xlink:href="#DejaVuSans-32"/>
     <use x="626.408203" xlink:href="#DejaVuSans-78"/>
     <use x="701.212891" xlink:href="#DejaVuSans-32"/>
     <use x="733" xlink:href="#DejaVuSans-67"/>
     <use x="802.824219" xlink:href="#DejaVuSans-111"/>
     <use x="864.005859" xlink:href="#DejaVuSans-110"/>
     <use x="927.384766" xlink:href="#DejaVuSans-116"/>
     <use x="966.59375" xlink:href="#DejaVuSans-101"/>
     <use x="1028.117188" xlink:href="#DejaVuSans-110"/>
     <use x="1091.496094" xlink:href="#DejaVuSans-116"/>
    </g>
   </g>
  </g>
 </g>
 <defs>
  <clipPath id="p290f8dd1d7">
   <rect height="317.968" width="960.19" x="32.968125" y="35.2559"/>
  </clipPath>
 </defs>
</svg>
