<?xml version="1.0" encoding="utf-8" standalone="no"?>
<!DOCTYPE svg PUBLIC "-//W3C//DTD SVG 1.1//EN"
  "http://www.w3.org/Graphics/SVG/1.1/DTD/svg11.dtd">
<!-- Created with matplotlib (https://matplotlib.org/) -->
<svg height="388.844525pt" version="1.1" viewBox="0 0 1000.358125 388.844525" width="1000.358125pt" xmlns="http://www.w3.org/2000/svg" xmlns:xlink="http://www.w3.org/1999/xlink">
 <defs>
  <style type="text/css">
*{stroke-linecap:butt;stroke-linejoin:round;}
  </style>
 </defs>
 <g id="figure_1">
  <g id="axes_1">
   <g id="patch_1">
    <path d="M 32.968125 353.2239 
L 993.158125 353.2239 
L 993.158125 35.2559 
L 32.968125 35.2559 
z
" style="fill:#ffffff;"/>
   </g>
   <g id="matplotlib.axis_1">
    <g id="xtick_1">
     <g id="text_1">
      <!-- 0 -->
      <defs>
       <path d="M 31.78125 66.40625 
Q 24.171875 66.40625 20.328125 58.90625 
Q 16.5 51.421875 16.5 36.375 
Q 16.5 21.390625 20.328125 13.890625 
Q 24.171875 6.390625 31.78125 6.390625 
Q 39.453125 6.390625 43.28125 13.890625 
Q 47.125 21.390625 47.125 36.375 
Q 47.125 51.421875 43.28125 58.90625 
Q 39.453125 66.40625 31.78125 66.40625 
z
M 31.78125 74.21875 
Q 44.046875 74.21875 50.515625 64.515625 
Q 56.984375 54.828125 56.984375 36.375 
Q 56.984375 17.96875 50.515625 8.265625 
Q 44.046875 -1.421875 31.78125 -1.421875 
Q 19.53125 -1.421875 13.0625 8.265625 
Q 6.59375 17.96875 6.59375 36.375 
Q 6.59375 54.828125 13.0625 64.515625 
Q 19.53125 74.21875 31.78125 74.21875 
z
" id="DejaVuSans-48"/>
      </defs>
      <g transform="translate(68.209736 366.30265)scale(0.08 -0.08)">
       <use xlink:href="#DejaVuSans-48"/>
      </g>
     </g>
    </g>
    <g id="xtick_2">
     <g id="text_2">
      <!-- 20 -->
      <defs>
       <path d="M 19.1875 8.296875 
L 53.609375 8.296875 
L 53.609375 0 
L 7.328125 0 
L 7.328125 8.296875 
Q 12.9375 14.109375 22.625 23.890625 
Q 32.328125 33.6875 34.8125 36.53125 
Q 39.546875 41.84375 41.421875 45.53125 
Q 43.3125 49.21875 43.3125 52.78125 
Q 43.3125 58.59375 39.234375 62.25 
Q 35.15625 65.921875 28.609375 65.921875 
Q 23.96875 65.921875 18.8125 64.3125 
Q 13.671875 62.703125 7.8125 59.421875 
L 7.8125 69.390625 
Q 13.765625 71.78125 18.9375 73 
Q 24.125 74.21875 28.421875 74.21875 
Q 39.75 74.21875 46.484375 68.546875 
Q 53.21875 62.890625 53.21875 53.421875 
Q 53.21875 48.921875 51.53125 44.890625 
Q 49.859375 40.875 45.40625 35.40625 
Q 44.1875 33.984375 37.640625 27.21875 
Q 31.109375 20.453125 19.1875 8.296875 
z
" id="DejaVuSans-50"/>
      </defs>
      <g transform="translate(182.832521 366.30265)scale(0.08 -0.08)">
       <use xlink:href="#DejaVuSans-50"/>
       <use x="63.623047" xlink:href="#DejaVuSans-48"/>
      </g>
     </g>
    </g>
    <g id="xtick_3">
     <g id="text_3">
      <!-- 40 -->
      <defs>
       <path d="M 37.796875 64.3125 
L 12.890625 25.390625 
L 37.796875 25.390625 
z
M 35.203125 72.90625 
L 47.609375 72.90625 
L 47.609375 25.390625 
L 58.015625 25.390625 
L 58.015625 17.1875 
L 47.609375 17.1875 
L 47.609375 0 
L 37.796875 0 
L 37.796875 17.1875 
L 4.890625 17.1875 
L 4.890625 26.703125 
z
" id="DejaVuSans-52"/>
      </defs>
      <g transform="translate(300.000306 366.30265)scale(0.08 -0.08)">
       <use xlink:href="#DejaVuSans-52"/>
       <use x="63.623047" xlink:href="#DejaVuSans-48"/>
      </g>
     </g>
    </g>
    <g id="xtick_4">
     <g id="text_4">
      <!-- 60 -->
      <defs>
       <path d="M 33.015625 40.375 
Q 26.375 40.375 22.484375 35.828125 
Q 18.609375 31.296875 18.609375 23.390625 
Q 18.609375 15.53125 22.484375 10.953125 
Q 26.375 6.390625 33.015625 6.390625 
Q 39.65625 6.390625 43.53125 10.953125 
Q 47.40625 15.53125 47.40625 23.390625 
Q 47.40625 31.296875 43.53125 35.828125 
Q 39.65625 40.375 33.015625 40.375 
z
M 52.59375 71.296875 
L 52.59375 62.3125 
Q 48.875 64.0625 45.09375 64.984375 
Q 41.3125 65.921875 37.59375 65.921875 
Q 27.828125 65.921875 22.671875 59.328125 
Q 17.53125 52.734375 16.796875 39.40625 
Q 19.671875 43.65625 24.015625 45.921875 
Q 28.375 48.1875 33.59375 48.1875 
Q 44.578125 48.1875 50.953125 41.515625 
Q 57.328125 34.859375 57.328125 23.390625 
Q 57.328125 12.15625 50.6875 5.359375 
Q 44.046875 -1.421875 33.015625 -1.421875 
Q 20.359375 -1.421875 13.671875 8.265625 
Q 6.984375 17.96875 6.984375 36.375 
Q 6.984375 53.65625 15.1875 63.9375 
Q 23.390625 74.21875 37.203125 74.21875 
Q 40.921875 74.21875 44.703125 73.484375 
Q 48.484375 72.75 52.59375 71.296875 
z
" id="DejaVuSans-54"/>
      </defs>
      <g transform="translate(417.168091 366.30265)scale(0.08 -0.08)">
       <use xlink:href="#DejaVuSans-54"/>
       <use x="63.623047" xlink:href="#DejaVuSans-48"/>
      </g>
     </g>
    </g>
    <g id="xtick_5">
     <g id="text_5">
      <!-- 80 -->
      <defs>
       <path d="M 31.78125 34.625 
Q 24.75 34.625 20.71875 30.859375 
Q 16.703125 27.09375 16.703125 20.515625 
Q 16.703125 13.921875 20.71875 10.15625 
Q 24.75 6.390625 31.78125 6.390625 
Q 38.8125 6.390625 42.859375 10.171875 
Q 46.921875 13.96875 46.921875 20.515625 
Q 46.921875 27.09375 42.890625 30.859375 
Q 38.875 34.625 31.78125 34.625 
z
M 21.921875 38.8125 
Q 15.578125 40.375 12.03125 44.71875 
Q 8.5 49.078125 8.5 55.328125 
Q 8.5 64.0625 14.71875 69.140625 
Q 20.953125 74.21875 31.78125 74.21875 
Q 42.671875 74.21875 48.875 69.140625 
Q 55.078125 64.0625 55.078125 55.328125 
Q 55.078125 49.078125 51.53125 44.71875 
Q 48 40.375 41.703125 38.8125 
Q 48.828125 37.15625 52.796875 32.3125 
Q 56.78125 27.484375 56.78125 20.515625 
Q 56.78125 9.90625 50.3125 4.234375 
Q 43.84375 -1.421875 31.78125 -1.421875 
Q 19.734375 -1.421875 13.25 4.234375 
Q 6.78125 9.90625 6.78125 20.515625 
Q 6.78125 27.484375 10.78125 32.3125 
Q 14.796875 37.15625 21.921875 38.8125 
z
M 18.3125 54.390625 
Q 18.3125 48.734375 21.84375 45.5625 
Q 25.390625 42.390625 31.78125 42.390625 
Q 38.140625 42.390625 41.71875 45.5625 
Q 45.3125 48.734375 45.3125 54.390625 
Q 45.3125 60.0625 41.71875 63.234375 
Q 38.140625 66.40625 31.78125 66.40625 
Q 25.390625 66.40625 21.84375 63.234375 
Q 18.3125 60.0625 18.3125 54.390625 
z
" id="DejaVuSans-56"/>
      </defs>
      <g transform="translate(534.335877 366.30265)scale(0.08 -0.08)">
       <use xlink:href="#DejaVuSans-56"/>
       <use x="63.623047" xlink:href="#DejaVuSans-48"/>
      </g>
     </g>
    </g>
    <g id="xtick_6">
     <g id="text_6">
      <!-- 100 -->
      <defs>
       <path d="M 12.40625 8.296875 
L 28.515625 8.296875 
L 28.515625 63.921875 
L 10.984375 60.40625 
L 10.984375 69.390625 
L 28.421875 72.90625 
L 38.28125 72.90625 
L 38.28125 8.296875 
L 54.390625 8.296875 
L 54.390625 0 
L 12.40625 0 
z
" id="DejaVuSans-49"/>
      </defs>
      <g transform="translate(648.958662 366.30265)scale(0.08 -0.08)">
       <use xlink:href="#DejaVuSans-49"/>
       <use x="63.623047" xlink:href="#DejaVuSans-48"/>
       <use x="127.246094" xlink:href="#DejaVuSans-48"/>
      </g>
     </g>
    </g>
    <g id="xtick_7">
     <g id="text_7">
      <!-- 120 -->
      <g transform="translate(766.126447 366.30265)scale(0.08 -0.08)">
       <use xlink:href="#DejaVuSans-49"/>
       <use x="63.623047" xlink:href="#DejaVuSans-50"/>
       <use x="127.246094" xlink:href="#DejaVuSans-48"/>
      </g>
     </g>
    </g>
    <g id="xtick_8">
     <g id="text_8">
      <!-- 140 -->
      <g transform="translate(883.294232 366.30265)scale(0.08 -0.08)">
       <use xlink:href="#DejaVuSans-49"/>
       <use x="63.623047" xlink:href="#DejaVuSans-52"/>
       <use x="127.246094" xlink:href="#DejaVuSans-48"/>
      </g>
     </g>
    </g>
    <g id="text_9">
     <!-- Read Position -->
     <defs>
      <path d="M 44.390625 34.1875 
Q 47.5625 33.109375 50.5625 29.59375 
Q 53.5625 26.078125 56.59375 19.921875 
L 66.609375 0 
L 56 0 
L 46.6875 18.703125 
Q 43.0625 26.03125 39.671875 28.421875 
Q 36.28125 30.8125 30.421875 30.8125 
L 19.671875 30.8125 
L 19.671875 0 
L 9.8125 0 
L 9.8125 72.90625 
L 32.078125 72.90625 
Q 44.578125 72.90625 50.734375 67.671875 
Q 56.890625 62.453125 56.890625 51.90625 
Q 56.890625 45.015625 53.6875 40.46875 
Q 50.484375 35.9375 44.390625 34.1875 
z
M 19.671875 64.796875 
L 19.671875 38.921875 
L 32.078125 38.921875 
Q 39.203125 38.921875 42.84375 42.21875 
Q 46.484375 45.515625 46.484375 51.90625 
Q 46.484375 58.296875 42.84375 61.546875 
Q 39.203125 64.796875 32.078125 64.796875 
z
" id="DejaVuSans-82"/>
      <path d="M 56.203125 29.59375 
L 56.203125 25.203125 
L 14.890625 25.203125 
Q 15.484375 15.921875 20.484375 11.0625 
Q 25.484375 6.203125 34.421875 6.203125 
Q 39.59375 6.203125 44.453125 7.46875 
Q 49.3125 8.734375 54.109375 11.28125 
L 54.109375 2.78125 
Q 49.265625 0.734375 44.1875 -0.34375 
Q 39.109375 -1.421875 33.890625 -1.421875 
Q 20.796875 -1.421875 13.15625 6.1875 
Q 5.515625 13.8125 5.515625 26.8125 
Q 5.515625 40.234375 12.765625 48.109375 
Q 20.015625 56 32.328125 56 
Q 43.359375 56 49.78125 48.890625 
Q 56.203125 41.796875 56.203125 29.59375 
z
M 47.21875 32.234375 
Q 47.125 39.59375 43.09375 43.984375 
Q 39.0625 48.390625 32.421875 48.390625 
Q 24.90625 48.390625 20.390625 44.140625 
Q 15.875 39.890625 15.1875 32.171875 
z
" id="DejaVuSans-101"/>
      <path d="M 34.28125 27.484375 
Q 23.390625 27.484375 19.1875 25 
Q 14.984375 22.515625 14.984375 16.5 
Q 14.984375 11.71875 18.140625 8.90625 
Q 21.296875 6.109375 26.703125 6.109375 
Q 34.1875 6.109375 38.703125 11.40625 
Q 43.21875 16.703125 43.21875 25.484375 
L 43.21875 27.484375 
z
M 52.203125 31.203125 
L 52.203125 0 
L 43.21875 0 
L 43.21875 8.296875 
Q 40.140625 3.328125 35.546875 0.953125 
Q 30.953125 -1.421875 24.3125 -1.421875 
Q 15.921875 -1.421875 10.953125 3.296875 
Q 6 8.015625 6 15.921875 
Q 6 25.140625 12.171875 29.828125 
Q 18.359375 34.515625 30.609375 34.515625 
L 43.21875 34.515625 
L 43.21875 35.40625 
Q 43.21875 41.609375 39.140625 45 
Q 35.0625 48.390625 27.6875 48.390625 
Q 23 48.390625 18.546875 47.265625 
Q 14.109375 46.140625 10.015625 43.890625 
L 10.015625 52.203125 
Q 14.9375 54.109375 19.578125 55.046875 
Q 24.21875 56 28.609375 56 
Q 40.484375 56 46.34375 49.84375 
Q 52.203125 43.703125 52.203125 31.203125 
z
" id="DejaVuSans-97"/>
      <path d="M 45.40625 46.390625 
L 45.40625 75.984375 
L 54.390625 75.984375 
L 54.390625 0 
L 45.40625 0 
L 45.40625 8.203125 
Q 42.578125 3.328125 38.25 0.953125 
Q 33.9375 -1.421875 27.875 -1.421875 
Q 17.96875 -1.421875 11.734375 6.484375 
Q 5.515625 14.40625 5.515625 27.296875 
Q 5.515625 40.1875 11.734375 48.09375 
Q 17.96875 56 27.875 56 
Q 33.9375 56 38.25 53.625 
Q 42.578125 51.265625 45.40625 46.390625 
z
M 14.796875 27.296875 
Q 14.796875 17.390625 18.875 11.75 
Q 22.953125 6.109375 30.078125 6.109375 
Q 37.203125 6.109375 41.296875 11.75 
Q 45.40625 17.390625 45.40625 27.296875 
Q 45.40625 37.203125 41.296875 42.84375 
Q 37.203125 48.484375 30.078125 48.484375 
Q 22.953125 48.484375 18.875 42.84375 
Q 14.796875 37.203125 14.796875 27.296875 
z
" id="DejaVuSans-100"/>
      <path id="DejaVuSans-32"/>
      <path d="M 19.671875 64.796875 
L 19.671875 37.40625 
L 32.078125 37.40625 
Q 38.96875 37.40625 42.71875 40.96875 
Q 46.484375 44.53125 46.484375 51.125 
Q 46.484375 57.671875 42.71875 61.234375 
Q 38.96875 64.796875 32.078125 64.796875 
z
M 9.8125 72.90625 
L 32.078125 72.90625 
Q 44.34375 72.90625 50.609375 67.359375 
Q 56.890625 61.8125 56.890625 51.125 
Q 56.890625 40.328125 50.609375 34.8125 
Q 44.34375 29.296875 32.078125 29.296875 
L 19.671875 29.296875 
L 19.671875 0 
L 9.8125 0 
z
" id="DejaVuSans-80"/>
      <path d="M 30.609375 48.390625 
Q 23.390625 48.390625 19.1875 42.75 
Q 14.984375 37.109375 14.984375 27.296875 
Q 14.984375 17.484375 19.15625 11.84375 
Q 23.34375 6.203125 30.609375 6.203125 
Q 37.796875 6.203125 41.984375 11.859375 
Q 46.1875 17.53125 46.1875 27.296875 
Q 46.1875 37.015625 41.984375 42.703125 
Q 37.796875 48.390625 30.609375 48.390625 
z
M 30.609375 56 
Q 42.328125 56 49.015625 48.375 
Q 55.71875 40.765625 55.71875 27.296875 
Q 55.71875 13.875 49.015625 6.21875 
Q 42.328125 -1.421875 30.609375 -1.421875 
Q 18.84375 -1.421875 12.171875 6.21875 
Q 5.515625 13.875 5.515625 27.296875 
Q 5.515625 40.765625 12.171875 48.375 
Q 18.84375 56 30.609375 56 
z
" id="DejaVuSans-111"/>
      <path d="M 44.28125 53.078125 
L 44.28125 44.578125 
Q 40.484375 46.53125 36.375 47.5 
Q 32.28125 48.484375 27.875 48.484375 
Q 21.1875 48.484375 17.84375 46.4375 
Q 14.5 44.390625 14.5 40.28125 
Q 14.5 37.15625 16.890625 35.375 
Q 19.28125 33.59375 26.515625 31.984375 
L 29.59375 31.296875 
Q 39.15625 29.25 43.1875 25.515625 
Q 47.21875 21.78125 47.21875 15.09375 
Q 47.21875 7.46875 41.1875 3.015625 
Q 35.15625 -1.421875 24.609375 -1.421875 
Q 20.21875 -1.421875 15.453125 -0.5625 
Q 10.6875 0.296875 5.421875 2 
L 5.421875 11.28125 
Q 10.40625 8.6875 15.234375 7.390625 
Q 20.0625 6.109375 24.8125 6.109375 
Q 31.15625 6.109375 34.5625 8.28125 
Q 37.984375 10.453125 37.984375 14.40625 
Q 37.984375 18.0625 35.515625 20.015625 
Q 33.0625 21.96875 24.703125 23.78125 
L 21.578125 24.515625 
Q 13.234375 26.265625 9.515625 29.90625 
Q 5.8125 33.546875 5.8125 39.890625 
Q 5.8125 47.609375 11.28125 51.796875 
Q 16.75 56 26.8125 56 
Q 31.78125 56 36.171875 55.265625 
Q 40.578125 54.546875 44.28125 53.078125 
z
" id="DejaVuSans-115"/>
      <path d="M 9.421875 54.6875 
L 18.40625 54.6875 
L 18.40625 0 
L 9.421875 0 
z
M 9.421875 75.984375 
L 18.40625 75.984375 
L 18.40625 64.59375 
L 9.421875 64.59375 
z
" id="DejaVuSans-105"/>
      <path d="M 18.3125 70.21875 
L 18.3125 54.6875 
L 36.8125 54.6875 
L 36.8125 47.703125 
L 18.3125 47.703125 
L 18.3125 18.015625 
Q 18.3125 11.328125 20.140625 9.421875 
Q 21.96875 7.515625 27.59375 7.515625 
L 36.8125 7.515625 
L 36.8125 0 
L 27.59375 0 
Q 17.1875 0 13.234375 3.875 
Q 9.28125 7.765625 9.28125 18.015625 
L 9.28125 47.703125 
L 2.6875 47.703125 
L 2.6875 54.6875 
L 9.28125 54.6875 
L 9.28125 70.21875 
z
" id="DejaVuSans-116"/>
      <path d="M 54.890625 33.015625 
L 54.890625 0 
L 45.90625 0 
L 45.90625 32.71875 
Q 45.90625 40.484375 42.875 44.328125 
Q 39.84375 48.1875 33.796875 48.1875 
Q 26.515625 48.1875 22.3125 43.546875 
Q 18.109375 38.921875 18.109375 30.90625 
L 18.109375 0 
L 9.078125 0 
L 9.078125 54.6875 
L 18.109375 54.6875 
L 18.109375 46.1875 
Q 21.34375 51.125 25.703125 53.5625 
Q 30.078125 56 35.796875 56 
Q 45.21875 56 50.046875 50.171875 
Q 54.890625 44.34375 54.890625 33.015625 
z
" id="DejaVuSans-110"/>
     </defs>
     <g transform="translate(479.045156 379.564837)scale(0.1 -0.1)">
      <use xlink:href="#DejaVuSans-82"/>
      <use x="69.419922" xlink:href="#DejaVuSans-101"/>
      <use x="130.943359" xlink:href="#DejaVuSans-97"/>
      <use x="192.222656" xlink:href="#DejaVuSans-100"/>
      <use x="255.699219" xlink:href="#DejaVuSans-32"/>
      <use x="287.486328" xlink:href="#DejaVuSans-80"/>
      <use x="347.742188" xlink:href="#DejaVuSans-111"/>
      <use x="408.923828" xlink:href="#DejaVuSans-115"/>
      <use x="461.023438" xlink:href="#DejaVuSans-105"/>
      <use x="488.806641" xlink:href="#DejaVuSans-116"/>
      <use x="528.015625" xlink:href="#DejaVuSans-105"/>
      <use x="555.798828" xlink:href="#DejaVuSans-111"/>
      <use x="616.980469" xlink:href="#DejaVuSans-110"/>
     </g>
    </g>
   </g>
   <g id="matplotlib.axis_2">
    <g id="ytick_1">
     <g id="line2d_1">
      <path clip-path="url(#pe1428c3d6b)" d="M 32.968125 353.2239 
L 993.158125 353.2239 
" style="fill:none;stroke:#dedede;stroke-linecap:square;"/>
     </g>
     <g id="text_10">
      <!-- 0 -->
      <g transform="translate(20.878125 356.263275)scale(0.08 -0.08)">
       <use xlink:href="#DejaVuSans-48"/>
      </g>
     </g>
    </g>
    <g id="ytick_2">
     <g id="line2d_2">
      <path clip-path="url(#pe1428c3d6b)" d="M 32.968125 289.6303 
L 993.158125 289.6303 
" style="fill:none;stroke:#dedede;stroke-linecap:square;"/>
     </g>
     <g id="text_11">
      <!-- 1 -->
      <g transform="translate(20.878125 292.669675)scale(0.08 -0.08)">
       <use xlink:href="#DejaVuSans-49"/>
      </g>
     </g>
    </g>
    <g id="ytick_3">
     <g id="line2d_3">
      <path clip-path="url(#pe1428c3d6b)" d="M 32.968125 226.0367 
L 993.158125 226.0367 
" style="fill:none;stroke:#dedede;stroke-linecap:square;"/>
     </g>
     <g id="text_12">
      <!-- 2 -->
      <g transform="translate(20.878125 229.076075)scale(0.08 -0.08)">
       <use xlink:href="#DejaVuSans-50"/>
      </g>
     </g>
    </g>
    <g id="ytick_4">
     <g id="line2d_4">
      <path clip-path="url(#pe1428c3d6b)" d="M 32.968125 162.4431 
L 993.158125 162.4431 
" style="fill:none;stroke:#dedede;stroke-linecap:square;"/>
     </g>
     <g id="text_13">
      <!-- 3 -->
      <defs>
       <path d="M 40.578125 39.3125 
Q 47.65625 37.796875 51.625 33 
Q 55.609375 28.21875 55.609375 21.1875 
Q 55.609375 10.40625 48.1875 4.484375 
Q 40.765625 -1.421875 27.09375 -1.421875 
Q 22.515625 -1.421875 17.65625 -0.515625 
Q 12.796875 0.390625 7.625 2.203125 
L 7.625 11.71875 
Q 11.71875 9.328125 16.59375 8.109375 
Q 21.484375 6.890625 26.8125 6.890625 
Q 36.078125 6.890625 40.9375 10.546875 
Q 45.796875 14.203125 45.796875 21.1875 
Q 45.796875 27.640625 41.28125 31.265625 
Q 36.765625 34.90625 28.71875 34.90625 
L 20.21875 34.90625 
L 20.21875 43.015625 
L 29.109375 43.015625 
Q 36.375 43.015625 40.234375 45.921875 
Q 44.09375 48.828125 44.09375 54.296875 
Q 44.09375 59.90625 40.109375 62.90625 
Q 36.140625 65.921875 28.71875 65.921875 
Q 24.65625 65.921875 20.015625 65.03125 
Q 15.375 64.15625 9.8125 62.3125 
L 9.8125 71.09375 
Q 15.4375 72.65625 20.34375 73.4375 
Q 25.25 74.21875 29.59375 74.21875 
Q 40.828125 74.21875 47.359375 69.109375 
Q 53.90625 64.015625 53.90625 55.328125 
Q 53.90625 49.265625 50.4375 45.09375 
Q 46.96875 40.921875 40.578125 39.3125 
z
" id="DejaVuSans-51"/>
      </defs>
      <g transform="translate(20.878125 165.482475)scale(0.08 -0.08)">
       <use xlink:href="#DejaVuSans-51"/>
      </g>
     </g>
    </g>
    <g id="ytick_5">
     <g id="line2d_5">
      <path clip-path="url(#pe1428c3d6b)" d="M 32.968125 98.8495 
L 993.158125 98.8495 
" style="fill:none;stroke:#dedede;stroke-linecap:square;"/>
     </g>
     <g id="text_14">
      <!-- 4 -->
      <g transform="translate(20.878125 101.888875)scale(0.08 -0.08)">
       <use xlink:href="#DejaVuSans-52"/>
      </g>
     </g>
    </g>
    <g id="ytick_6">
     <g id="line2d_6">
      <path clip-path="url(#pe1428c3d6b)" d="M 32.968125 35.2559 
L 993.158125 35.2559 
" style="fill:none;stroke:#dedede;stroke-linecap:square;"/>
     </g>
     <g id="text_15">
      <!-- 5 -->
      <defs>
       <path d="M 10.796875 72.90625 
L 49.515625 72.90625 
L 49.515625 64.59375 
L 19.828125 64.59375 
L 19.828125 46.734375 
Q 21.96875 47.46875 24.109375 47.828125 
Q 26.265625 48.1875 28.421875 48.1875 
Q 40.625 48.1875 47.75 41.5 
Q 54.890625 34.8125 54.890625 23.390625 
Q 54.890625 11.625 47.5625 5.09375 
Q 40.234375 -1.421875 26.90625 -1.421875 
Q 22.3125 -1.421875 17.546875 -0.640625 
Q 12.796875 0.140625 7.71875 1.703125 
L 7.71875 11.625 
Q 12.109375 9.234375 16.796875 8.0625 
Q 21.484375 6.890625 26.703125 6.890625 
Q 35.15625 6.890625 40.078125 11.328125 
Q 45.015625 15.765625 45.015625 23.390625 
Q 45.015625 31 40.078125 35.4375 
Q 35.15625 39.890625 26.703125 39.890625 
Q 22.75 39.890625 18.8125 39.015625 
Q 14.890625 38.140625 10.796875 36.28125 
z
" id="DejaVuSans-53"/>
      </defs>
      <g transform="translate(20.878125 38.295275)scale(0.08 -0.08)">
       <use xlink:href="#DejaVuSans-53"/>
      </g>
     </g>
    </g>
    <g id="text_16">
     <!-- R2 Before filtering: Base Content Percent -->
     <defs>
      <path d="M 19.671875 34.8125 
L 19.671875 8.109375 
L 35.5 8.109375 
Q 43.453125 8.109375 47.28125 11.40625 
Q 51.125 14.703125 51.125 21.484375 
Q 51.125 28.328125 47.28125 31.5625 
Q 43.453125 34.8125 35.5 34.8125 
z
M 19.671875 64.796875 
L 19.671875 42.828125 
L 34.28125 42.828125 
Q 41.5 42.828125 45.03125 45.53125 
Q 48.578125 48.25 48.578125 53.8125 
Q 48.578125 59.328125 45.03125 62.0625 
Q 41.5 64.796875 34.28125 64.796875 
z
M 9.8125 72.90625 
L 35.015625 72.90625 
Q 46.296875 72.90625 52.390625 68.21875 
Q 58.5 63.53125 58.5 54.890625 
Q 58.5 48.1875 55.375 44.234375 
Q 52.25 40.28125 46.1875 39.3125 
Q 53.46875 37.75 57.5 32.78125 
Q 61.53125 27.828125 61.53125 20.40625 
Q 61.53125 10.640625 54.890625 5.3125 
Q 48.25 0 35.984375 0 
L 9.8125 0 
z
" id="DejaVuSans-66"/>
      <path d="M 37.109375 75.984375 
L 37.109375 68.5 
L 28.515625 68.5 
Q 23.6875 68.5 21.796875 66.546875 
Q 19.921875 64.59375 19.921875 59.515625 
L 19.921875 54.6875 
L 34.71875 54.6875 
L 34.71875 47.703125 
L 19.921875 47.703125 
L 19.921875 0 
L 10.890625 0 
L 10.890625 47.703125 
L 2.296875 47.703125 
L 2.296875 54.6875 
L 10.890625 54.6875 
L 10.890625 58.5 
Q 10.890625 67.625 15.140625 71.796875 
Q 19.390625 75.984375 28.609375 75.984375 
z
" id="DejaVuSans-102"/>
      <path d="M 41.109375 46.296875 
Q 39.59375 47.171875 37.8125 47.578125 
Q 36.03125 48 33.890625 48 
Q 26.265625 48 22.1875 43.046875 
Q 18.109375 38.09375 18.109375 28.8125 
L 18.109375 0 
L 9.078125 0 
L 9.078125 54.6875 
L 18.109375 54.6875 
L 18.109375 46.1875 
Q 20.953125 51.171875 25.484375 53.578125 
Q 30.03125 56 36.53125 56 
Q 37.453125 56 38.578125 55.875 
Q 39.703125 55.765625 41.0625 55.515625 
z
" id="DejaVuSans-114"/>
      <path d="M 9.421875 75.984375 
L 18.40625 75.984375 
L 18.40625 0 
L 9.421875 0 
z
" id="DejaVuSans-108"/>
      <path d="M 45.40625 27.984375 
Q 45.40625 37.75 41.375 43.109375 
Q 37.359375 48.484375 30.078125 48.484375 
Q 22.859375 48.484375 18.828125 43.109375 
Q 14.796875 37.75 14.796875 27.984375 
Q 14.796875 18.265625 18.828125 12.890625 
Q 22.859375 7.515625 30.078125 7.515625 
Q 37.359375 7.515625 41.375 12.890625 
Q 45.40625 18.265625 45.40625 27.984375 
z
M 54.390625 6.78125 
Q 54.390625 -7.171875 48.1875 -13.984375 
Q 42 -20.796875 29.203125 -20.796875 
Q 24.46875 -20.796875 20.265625 -20.09375 
Q 16.0625 -19.390625 12.109375 -17.921875 
L 12.109375 -9.1875 
Q 16.0625 -11.328125 19.921875 -12.34375 
Q 23.78125 -13.375 27.78125 -13.375 
Q 36.625 -13.375 41.015625 -8.765625 
Q 45.40625 -4.15625 45.40625 5.171875 
L 45.40625 9.625 
Q 42.625 4.78125 38.28125 2.390625 
Q 33.9375 0 27.875 0 
Q 17.828125 0 11.671875 7.65625 
Q 5.515625 15.328125 5.515625 27.984375 
Q 5.515625 40.671875 11.671875 48.328125 
Q 17.828125 56 27.875 56 
Q 33.9375 56 38.28125 53.609375 
Q 42.625 51.21875 45.40625 46.390625 
L 45.40625 54.6875 
L 54.390625 54.6875 
z
" id="DejaVuSans-103"/>
      <path d="M 11.71875 12.40625 
L 22.015625 12.40625 
L 22.015625 0 
L 11.71875 0 
z
M 11.71875 51.703125 
L 22.015625 51.703125 
L 22.015625 39.3125 
L 11.71875 39.3125 
z
" id="DejaVuSans-58"/>
      <path d="M 64.40625 67.28125 
L 64.40625 56.890625 
Q 59.421875 61.53125 53.78125 63.8125 
Q 48.140625 66.109375 41.796875 66.109375 
Q 29.296875 66.109375 22.65625 58.46875 
Q 16.015625 50.828125 16.015625 36.375 
Q 16.015625 21.96875 22.65625 14.328125 
Q 29.296875 6.6875 41.796875 6.6875 
Q 48.140625 6.6875 53.78125 8.984375 
Q 59.421875 11.28125 64.40625 15.921875 
L 64.40625 5.609375 
Q 59.234375 2.09375 53.4375 0.328125 
Q 47.65625 -1.421875 41.21875 -1.421875 
Q 24.65625 -1.421875 15.125 8.703125 
Q 5.609375 18.84375 5.609375 36.375 
Q 5.609375 53.953125 15.125 64.078125 
Q 24.65625 74.21875 41.21875 74.21875 
Q 47.75 74.21875 53.53125 72.484375 
Q 59.328125 70.75 64.40625 67.28125 
z
" id="DejaVuSans-67"/>
      <path d="M 48.78125 52.59375 
L 48.78125 44.1875 
Q 44.96875 46.296875 41.140625 47.34375 
Q 37.3125 48.390625 33.40625 48.390625 
Q 24.65625 48.390625 19.8125 42.84375 
Q 14.984375 37.3125 14.984375 27.296875 
Q 14.984375 17.28125 19.8125 11.734375 
Q 24.65625 6.203125 33.40625 6.203125 
Q 37.3125 6.203125 41.140625 7.25 
Q 44.96875 8.296875 48.78125 10.40625 
L 48.78125 2.09375 
Q 45.015625 0.34375 40.984375 -0.53125 
Q 36.96875 -1.421875 32.421875 -1.421875 
Q 20.0625 -1.421875 12.78125 6.34375 
Q 5.515625 14.109375 5.515625 27.296875 
Q 5.515625 40.671875 12.859375 48.328125 
Q 20.21875 56 33.015625 56 
Q 37.15625 56 41.109375 55.140625 
Q 45.0625 54.296875 48.78125 52.59375 
z
" id="DejaVuSans-99"/>
     </defs>
     <g transform="translate(14.798438 297.503181)rotate(-90)scale(0.1 -0.1)">
      <use xlink:href="#DejaVuSans-82"/>
      <use x="69.482422" xlink:href="#DejaVuSans-50"/>
      <use x="133.105469" xlink:href="#DejaVuSans-32"/>
      <use x="164.892578" xlink:href="#DejaVuSans-66"/>
      <use x="233.496094" xlink:href="#DejaVuSans-101"/>
      <use x="295.019531" xlink:href="#DejaVuSans-102"/>
      <use x="330.224609" xlink:href="#DejaVuSans-111"/>
      <use x="391.40625" xlink:href="#DejaVuSans-114"/>
      <use x="432.488281" xlink:href="#DejaVuSans-101"/>
      <use x="494.011719" xlink:href="#DejaVuSans-32"/>
      <use x="525.798828" xlink:href="#DejaVuSans-102"/>
      <use x="561.003906" xlink:href="#DejaVuSans-105"/>
      <use x="588.787109" xlink:href="#DejaVuSans-108"/>
      <use x="616.570312" xlink:href="#DejaVuSans-116"/>
      <use x="655.779297" xlink:href="#DejaVuSans-101"/>
      <use x="717.302734" xlink:href="#DejaVuSans-114"/>
      <use x="758.416016" xlink:href="#DejaVuSans-105"/>
      <use x="786.199219" xlink:href="#DejaVuSans-110"/>
      <use x="849.578125" xlink:href="#DejaVuSans-103"/>
      <use x="913.054688" xlink:href="#DejaVuSans-58"/>
      <use x="946.746094" xlink:href="#DejaVuSans-32"/>
      <use x="978.533203" xlink:href="#DejaVuSans-66"/>
      <use x="1047.136719" xlink:href="#DejaVuSans-97"/>
      <use x="1108.416016" xlink:href="#DejaVuSans-115"/>
      <use x="1160.515625" xlink:href="#DejaVuSans-101"/>
      <use x="1222.039062" xlink:href="#DejaVuSans-32"/>
      <use x="1253.826172" xlink:href="#DejaVuSans-67"/>
      <use x="1323.650391" xlink:href="#DejaVuSans-111"/>
      <use x="1384.832031" xlink:href="#DejaVuSans-110"/>
      <use x="1448.210938" xlink:href="#DejaVuSans-116"/>
      <use x="1487.419922" xlink:href="#DejaVuSans-101"/>
      <use x="1548.943359" xlink:href="#DejaVuSans-110"/>
      <use x="1612.322266" xlink:href="#DejaVuSans-116"/>
      <use x="1651.53125" xlink:href="#DejaVuSans-32"/>
      <use x="1683.318359" xlink:href="#DejaVuSans-80"/>
      <use x="1743.574219" xlink:href="#DejaVuSans-101"/>
      <use x="1805.097656" xlink:href="#DejaVuSans-114"/>
      <use x="1846.179688" xlink:href="#DejaVuSans-99"/>
      <use x="1901.160156" xlink:href="#DejaVuSans-101"/>
      <use x="1962.683594" xlink:href="#DejaVuSans-110"/>
      <use x="2026.0625" xlink:href="#DejaVuSans-116"/>
     </g>
    </g>
   </g>
   <g id="line2d_7">
    <path clip-path="url(#pe1428c3d6b)" d="M 76.613125 352.905662 
L 88.329904 353.127112 
L 94.188293 353.016387 
L 100.046682 353.177442 
L 105.905071 352.907211 
L 111.763461 353.220028 
L 141.055407 353.2239 
L 146.913796 352.862301 
L 152.772185 353.16273 
L 158.630575 352.775579 
L 170.347353 353.183636 
L 182.064132 353.220803 
L 187.922521 353.101561 
L 199.639299 353.2239 
L 228.931246 353.2239 
L 949.513125 353.2239 
L 949.513125 353.2239 
" style="fill:none;stroke:#7cb5ec;stroke-linecap:square;"/>
   </g>
   <g id="line2d_8">
    <path clip-path="url(#pe1428c3d6b)" d="M 76.613125 352.903319 
L 82.471514 352.959973 
L 88.329904 353.136845 
L 94.188293 353.019391 
L 100.046682 353.181064 
L 105.905071 352.901937 
L 111.763461 353.218373 
L 141.055407 353.2239 
L 146.913796 352.867392 
L 152.772185 353.158955 
L 158.630575 352.772046 
L 164.488964 353.04841 
L 176.205742 353.221136 
L 182.064132 353.222518 
L 187.922521 353.107828 
L 199.639299 353.221136 
L 351.95742 353.2239 
L 949.513125 353.2239 
L 949.513125 353.2239 
" style="fill:none;stroke:#434348;stroke-linecap:square;"/>
   </g>
   <g id="line2d_9">
    <path clip-path="url(#pe1428c3d6b)" d="M 76.613125 352.965472 
L 88.329904 353.172535 
L 94.188293 353.103514 
L 100.046682 353.188587 
L 105.905071 352.968682 
L 111.763461 353.214269 
L 141.055407 353.2239 
L 146.913796 352.952631 
L 152.772185 353.186982 
L 158.630575 352.907687 
L 170.347353 353.196613 
L 182.064132 353.222295 
L 187.922521 353.117961 
L 199.639299 353.2239 
L 398.824534 353.2239 
L 949.513125 353.2239 
L 949.513125 353.2239 
" style="fill:none;stroke:#90ed7d;stroke-linecap:square;"/>
   </g>
   <g id="line2d_10">
    <path clip-path="url(#pe1428c3d6b)" d="M 76.613125 352.930718 
L 88.329904 353.132281 
L 94.188293 353.086471 
L 100.046682 353.2239 
L 105.905071 352.930718 
L 111.763461 353.2239 
L 141.055407 353.2239 
L 146.913796 352.912394 
L 152.772185 353.205576 
L 158.630575 352.866585 
L 164.488964 353.113957 
L 182.064132 353.2239 
L 187.922521 353.150605 
L 199.639299 353.2239 
L 269.939971 353.19639 
L 299.231917 353.2239 
L 949.513125 353.2239 
L 949.513125 353.2239 
" style="fill:none;stroke:#f7a35c;stroke-linecap:square;"/>
   </g>
   <g id="line2d_11">
    <path clip-path="url(#pe1428c3d6b)" d="M 76.613125 352.920531 
L 82.471514 352.961959 
L 88.329904 353.137162 
L 94.188293 353.014606 
L 100.046682 353.180747 
L 105.905071 352.902838 
L 111.763461 353.220879 
L 141.055407 353.2239 
L 146.913796 352.876946 
L 152.772185 353.162622 
L 158.630575 352.787187 
L 170.347353 353.193261 
L 182.064132 353.222174 
L 187.922521 353.094439 
L 193.78091 353.216995 
L 281.656749 353.223468 
L 351.95742 353.219908 
L 433.97487 353.207823 
L 445.691648 353.127828 
L 457.408427 353.212685 
L 533.567487 353.2239 
L 791.336615 353.219726 
L 949.513125 353.2239 
L 949.513125 353.2239 
" style="fill:none;stroke:#8085e9;stroke-linecap:square;"/>
   </g>
   <g id="line2d_12">
    <path clip-path="url(#pe1428c3d6b)" d="M 76.613125 352.922261 
L 82.471514 352.955385 
L 88.329904 353.126642 
L 94.188293 353.017404 
L 100.046682 353.177386 
L 105.905071 352.904642 
L 111.763461 353.219671 
L 141.055407 353.2239 
L 146.913796 352.860242 
L 152.772185 353.158357 
L 158.630575 352.77708 
L 170.347353 353.190776 
L 182.064132 353.219671 
L 187.922521 353.084357 
L 193.78091 353.218967 
L 322.665474 353.206018 
L 375.390977 353.218694 
L 433.97487 353.21153 
L 445.691648 353.148292 
L 457.408427 353.215999 
L 574.576212 353.222474 
L 598.009769 353.178745 
L 615.584937 353.215022 
L 949.513125 353.2239 
L 949.513125 353.2239 
" style="fill:none;stroke:#f15c80;stroke-linecap:square;"/>
   </g>
   <g id="line2d_13">
    <path clip-path="url(#pe1428c3d6b)" d="M 76.613125 352.908943 
L 88.329904 353.147997 
L 94.188293 353.057261 
L 100.046682 353.176787 
L 105.905071 352.990082 
L 111.763461 353.217793 
L 141.055407 353.2239 
L 146.913796 352.91854 
L 152.772185 353.176787 
L 158.630575 352.885387 
L 170.347353 353.191619 
L 182.064132 353.223028 
L 187.922521 353.13142 
L 199.639299 353.223028 
L 281.656749 353.222152 
L 404.682924 353.222989 
L 580.434602 353.204525 
L 615.584937 353.215934 
L 750.32789 353.205575 
L 762.044669 353.221777 
L 949.513125 353.2239 
L 949.513125 353.2239 
" style="fill:none;stroke:#e4d354;stroke-linecap:square;"/>
   </g>
   <g id="line2d_14">
    <path clip-path="url(#pe1428c3d6b)" d="M 76.613125 352.869923 
L 82.471514 352.916132 
L 88.329904 353.121456 
L 94.188293 352.954494 
L 100.046682 353.178127 
L 105.905071 352.81674 
L 111.763461 353.221284 
L 141.055407 353.2239 
L 146.913796 352.794943 
L 152.772185 353.139765 
L 158.630575 352.635828 
L 170.347353 353.178563 
L 182.064132 353.223464 
L 187.922521 353.049528 
L 193.78091 353.211694 
L 252.364803 353.2239 
L 410.541313 353.21628 
L 433.97487 353.202959 
L 445.691648 353.088813 
L 451.550038 353.214201 
L 621.443326 353.21559 
L 691.743997 353.2239 
L 697.602387 353.166678 
L 709.319165 353.206957 
L 744.469501 353.215557 
L 779.619836 353.114609 
L 785.478226 353.2239 
L 838.203729 353.218379 
L 949.513125 353.2239 
L 949.513125 353.2239 
" style="fill:none;stroke:#2b908f;stroke-linecap:square;"/>
   </g>
   <g id="line2d_15">
    <path clip-path="url(#pe1428c3d6b)" d="M 76.613125 352.896117 
L 88.329904 353.171121 
L 94.188293 353.062786 
L 100.046682 353.173899 
L 105.905071 352.960007 
L 111.763461 353.221122 
L 141.055407 353.2239 
L 146.913796 352.890561 
L 152.772185 353.18501 
L 158.630575 352.890561 
L 176.205742 353.221122 
L 182.064132 353.2239 
L 187.922521 353.115565 
L 199.639299 353.2239 
L 328.523863 353.206691 
L 410.541313 353.21753 
L 949.513125 353.2239 
L 949.513125 353.2239 
" style="fill:none;stroke:#f45b5b;stroke-linecap:square;"/>
   </g>
   <g id="line2d_16">
    <path clip-path="url(#pe1428c3d6b)" d="M 76.613125 352.884715 
L 88.329904 353.135335 
L 94.188293 353.010025 
L 100.046682 353.181502 
L 105.905071 352.8866 
L 111.763461 353.219189 
L 141.055407 353.2239 
L 146.913796 352.861161 
L 152.772185 353.139104 
L 158.630575 352.77448 
L 170.347353 353.188097 
L 182.064132 353.2239 
L 187.922521 353.100474 
L 199.639299 353.2239 
L 240.648024 353.2239 
L 949.513125 353.2239 
L 949.513125 353.2239 
" style="fill:none;stroke:#91e8e1;stroke-linecap:square;"/>
   </g>
   <g id="line2d_17">
    <path clip-path="url(#pe1428c3d6b)" d="M 76.613125 352.91749 
L 88.329904 353.166536 
L 94.188293 353.057403 
L 100.046682 353.177729 
L 105.905071 352.973455 
L 111.763461 353.222501 
L 141.055407 353.2239 
L 146.913796 352.918889 
L 152.772185 353.186123 
L 158.630575 352.910494 
L 170.347353 353.188922 
L 182.064132 353.2239 
L 187.922521 353.138553 
L 199.639299 353.2239 
L 351.95742 353.222472 
L 662.452051 353.2239 
L 674.16883 353.2239 
L 949.513125 353.2239 
L 949.513125 353.2239 
" style="fill:none;stroke:#7cb5ec;stroke-linecap:square;"/>
   </g>
   <g id="line2d_18">
    <path clip-path="url(#pe1428c3d6b)" d="M 76.613125 352.931978 
L 100.046682 353.178634 
L 105.905071 352.990178 
L 111.763461 353.220205 
L 141.055407 353.2239 
L 146.913796 352.944911 
L 152.772185 353.164777 
L 158.630575 352.886711 
L 170.347353 353.188795 
L 182.064132 353.2239 
L 187.922521 353.125053 
L 199.639299 353.222052 
L 287.515138 353.218329 
L 404.682924 353.2239 
L 527.709098 353.2239 
L 949.513125 353.2239 
L 949.513125 353.2239 
" style="fill:none;stroke:#434348;stroke-linecap:square;"/>
   </g>
   <g id="line2d_19">
    <path clip-path="url(#pe1428c3d6b)" d="M 76.613125 352.936612 
L 100.046682 353.194181 
L 105.905071 352.979287 
L 111.763461 353.222376 
L 141.055407 353.2239 
L 146.913796 352.93204 
L 152.772185 353.164461 
L 158.630575 352.88708 
L 170.347353 353.18656 
L 182.064132 353.2239 
L 187.922521 353.123311 
L 199.639299 353.223138 
L 328.523863 353.211568 
L 416.399702 353.221429 
L 791.336615 353.2239 
L 949.513125 353.2239 
L 949.513125 353.2239 
" style="fill:none;stroke:#90ed7d;stroke-linecap:square;"/>
   </g>
   <g id="line2d_20">
    <path clip-path="url(#pe1428c3d6b)" d="M 76.613125 352.91244 
L 88.329904 353.147138 
L 94.188293 353.02273 
L 100.046682 353.185078 
L 105.905071 352.94685 
L 111.763461 353.220371 
L 141.055407 353.2239 
L 146.913796 352.900969 
L 152.772185 353.163902 
L 158.630575 352.856853 
L 170.347353 353.193019 
L 182.064132 353.221253 
L 187.922521 353.091552 
L 193.78091 353.218606 
L 363.674199 353.2239 
L 381.249367 353.2239 
L 949.513125 353.2239 
L 949.513125 353.2239 
" style="fill:none;stroke:#f7a35c;stroke-linecap:square;"/>
   </g>
   <g id="line2d_21">
    <path clip-path="url(#pe1428c3d6b)" d="M 76.613125 352.911372 
L 88.329904 353.137299 
L 94.188293 353.018439 
L 100.046682 353.18112 
L 105.905071 352.923397 
L 111.763461 353.221009 
L 141.055407 353.2239 
L 146.913796 352.880616 
L 152.772185 353.159036 
L 158.630575 352.79494 
L 170.347353 353.187132 
L 182.064132 353.222628 
L 187.922521 353.105387 
L 199.639299 353.222859 
L 240.648024 353.2239 
L 949.513125 353.2239 
L 949.513125 353.2239 
" style="fill:none;stroke:#8085e9;stroke-linecap:square;"/>
   </g>
   <g id="line2d_22">
    <path clip-path="url(#pe1428c3d6b)" d="M 76.613125 352.917988 
L 88.329904 353.152928 
L 94.188293 353.057484 
L 100.046682 353.177401 
L 105.905071 352.985289 
L 111.763461 353.221453 
L 141.055407 353.2239 
L 146.913796 352.930225 
L 152.772185 353.167612 
L 158.630575 352.869043 
L 164.488964 353.084404 
L 176.205742 353.220229 
L 949.513125 353.2239 
L 949.513125 353.2239 
" style="fill:none;stroke:#f15c80;stroke-linecap:square;"/>
   </g>
   <g id="line2d_23">
    <path clip-path="url(#pe1428c3d6b)" d="M 76.613125 352.914478 
L 88.329904 353.142662 
L 94.188293 353.021999 
L 100.046682 353.16775 
L 105.905071 352.910894 
L 111.763461 353.2239 
L 141.055407 353.2239 
L 146.913796 352.854744 
L 152.772185 353.160582 
L 158.630575 352.792622 
L 170.347353 353.18806 
L 182.064132 353.222705 
L 187.922521 353.096069 
L 199.639299 353.222705 
L 252.364803 353.2239 
L 445.691648 353.133624 
L 457.408427 353.20794 
L 515.99232 353.2239 
L 539.425877 353.2239 
L 621.443326 353.209877 
L 662.452051 353.2239 
L 674.16883 353.2239 
L 949.513125 353.2239 
L 949.513125 353.2239 
" style="fill:none;stroke:#e4d354;stroke-linecap:square;"/>
   </g>
   <g id="line2d_24">
    <path clip-path="url(#pe1428c3d6b)" d="M 76.613125 352.907685 
L 88.329904 353.136063 
L 94.188293 353.02363 
L 100.046682 353.192278 
L 105.905071 352.949847 
L 111.763461 353.2239 
L 141.055407 353.2239 
L 146.913796 352.932279 
L 152.772185 353.15363 
L 158.630575 352.833901 
L 164.488964 353.08336 
L 176.205742 353.2239 
L 949.513125 353.2239 
L 949.513125 353.2239 
" style="fill:none;stroke:#2b908f;stroke-linecap:square;"/>
   </g>
   <g id="line2d_25">
    <path clip-path="url(#pe1428c3d6b)" d="M 76.613125 352.917696 
L 88.329904 353.182521 
L 94.188293 353.095625 
L 100.046682 353.180452 
L 105.905071 352.992178 
L 111.763461 353.221831 
L 141.055407 353.2239 
L 146.913796 352.944592 
L 152.772185 353.178383 
L 158.630575 352.915627 
L 170.347353 353.194935 
L 182.064132 353.221831 
L 187.922521 353.151487 
L 199.639299 353.2239 
L 305.090306 353.221813 
L 949.513125 353.2239 
L 949.513125 353.2239 
" style="fill:none;stroke:#f45b5b;stroke-linecap:square;"/>
   </g>
   <g id="line2d_26">
    <path clip-path="url(#pe1428c3d6b)" d="M 76.613125 352.915806 
L 88.329904 353.144129 
L 94.188293 353.030171 
L 100.046682 353.189712 
L 105.905071 352.936155 
L 111.763461 353.220644 
L 141.055407 353.2239 
L 146.913796 352.907259 
L 152.772185 353.166107 
L 158.630575 352.820162 
L 170.347353 353.193375 
L 182.064132 353.222679 
L 187.922521 353.119303 
L 199.639299 353.223086 
L 275.79836 353.223085 
L 949.513125 353.2239 
L 949.513125 353.2239 
" style="fill:none;stroke:#91e8e1;stroke-linecap:square;"/>
   </g>
   <g id="line2d_27">
    <path clip-path="url(#pe1428c3d6b)" d="M 76.613125 352.911939 
L 88.329904 353.161747 
L 94.188293 353.066126 
L 100.046682 353.183261 
L 105.905071 352.992021 
L 111.763461 353.222705 
L 141.055407 353.2239 
L 146.913796 352.932258 
L 152.772185 353.177285 
L 158.630575 352.899986 
L 170.347353 353.1988 
L 182.064132 353.2239 
L 187.922521 353.133061 
L 199.639299 353.2239 
L 252.364803 353.2239 
L 949.513125 353.2239 
L 949.513125 353.2239 
" style="fill:none;stroke:#7cb5ec;stroke-linecap:square;"/>
   </g>
   <g id="line2d_28">
    <path clip-path="url(#pe1428c3d6b)" d="M 76.613125 352.955253 
L 88.329904 353.149679 
L 94.188293 353.041575 
L 100.046682 353.185983 
L 105.905071 352.956463 
L 111.763461 353.221883 
L 141.055407 353.2239 
L 146.913796 352.914512 
L 152.772185 353.16057 
L 158.630575 352.858443 
L 170.347353 353.193647 
L 182.064132 353.222287 
L 187.922521 353.106921 
L 199.639299 353.223093 
L 269.939971 353.215425 
L 351.95742 353.221841 
L 633.160105 353.2239 
L 668.31044 353.176445 
L 685.885608 353.2239 
L 949.513125 353.2239 
L 949.513125 353.2239 
" style="fill:none;stroke:#434348;stroke-linecap:square;"/>
   </g>
   <g id="line2d_29">
    <path clip-path="url(#pe1428c3d6b)" d="M 76.613125 352.920631 
L 88.329904 353.12968 
L 94.188293 353.008962 
L 100.046682 353.178262 
L 105.905071 352.922103 
L 111.763461 353.219483 
L 141.055407 353.2239 
L 146.913796 352.882355 
L 152.772185 353.148819 
L 158.630575 352.808746 
L 164.488964 353.067849 
L 176.205742 353.222428 
L 621.443326 353.203676 
L 656.593662 353.2239 
L 949.513125 353.2239 
L 949.513125 353.2239 
" style="fill:none;stroke:#90ed7d;stroke-linecap:square;"/>
   </g>
   <g id="line2d_30">
    <path clip-path="url(#pe1428c3d6b)" d="M 76.613125 352.94592 
L 88.329904 353.148486 
L 94.188293 353.041503 
L 100.046682 353.194085 
L 105.905071 352.927504 
L 111.763461 353.219515 
L 141.055407 353.2239 
L 146.913796 352.917858 
L 152.772185 353.16427 
L 158.630575 352.824905 
L 164.488964 353.065179 
L 176.205742 353.219515 
L 363.674199 353.2239 
L 381.249367 353.2239 
L 521.850709 353.204792 
L 557.001044 353.2239 
L 949.513125 353.2239 
L 949.513125 353.2239 
" style="fill:none;stroke:#f7a35c;stroke-linecap:square;"/>
   </g>
   <g id="line2d_31">
    <path clip-path="url(#pe1428c3d6b)" d="M 76.613125 352.891213 
L 88.329904 353.118162 
L 94.188293 352.989214 
L 100.046682 353.180058 
L 105.905071 352.92216 
L 111.763461 353.221321 
L 141.055407 353.2239 
L 146.913796 352.870582 
L 152.772185 353.177479 
L 158.630575 352.795791 
L 164.488964 353.069162 
L 176.205742 353.2239 
L 182.064132 353.2239 
L 187.922521 353.100109 
L 193.78091 353.2239 
L 445.691648 353.145027 
L 457.408427 353.208358 
L 515.99232 353.2239 
L 539.425877 353.2239 
L 697.602387 353.184809 
L 715.177555 353.2239 
L 732.752722 353.2239 
L 949.513125 353.2239 
L 949.513125 353.2239 
" style="fill:none;stroke:#8085e9;stroke-linecap:square;"/>
   </g>
   <g id="line2d_32">
    <path clip-path="url(#pe1428c3d6b)" d="M 76.613125 352.899918 
L 82.471514 352.941969 
L 88.329904 353.113994 
L 94.188293 352.972551 
L 100.046682 353.168469 
L 105.905071 352.850221 
L 111.763461 353.21721 
L 141.055407 353.2239 
L 146.913796 352.831108 
L 152.772185 353.154134 
L 158.630575 352.708778 
L 164.488964 353.003134 
L 170.347353 353.178026 
L 182.064132 353.221033 
L 187.922521 353.067165 
L 193.78091 353.215299 
L 264.081581 353.212432 
L 445.691648 353.120922 
L 451.550038 353.216937 
L 486.700373 353.2239 
L 615.584937 353.210648 
L 691.743997 353.2239 
L 703.460776 353.2239 
L 791.336615 353.217661 
L 873.354065 353.2239 
L 890.929232 353.211753 
L 949.513125 353.2239 
L 949.513125 353.2239 
" style="fill:none;stroke:#f15c80;stroke-linecap:square;"/>
   </g>
   <g id="line2d_33">
    <path clip-path="url(#pe1428c3d6b)" d="M 76.613125 352.899045 
L 82.471514 352.954891 
L 88.329904 353.131156 
L 94.188293 352.991041 
L 100.046682 353.182514 
L 105.905071 352.891067 
L 111.763461 353.219745 
L 141.055407 353.2239 
L 146.913796 352.852174 
L 152.772185 353.153095 
L 158.630575 352.737739 
L 170.347353 353.183013 
L 182.064132 353.221241 
L 187.922521 353.073315 
L 193.78091 353.215008 
L 264.081581 353.215839 
L 328.523863 353.195492 
L 363.674199 353.223645 
L 375.390977 353.218238 
L 433.97487 353.208671 
L 445.691648 353.10934 
L 451.550038 353.2158 
L 551.142655 353.206661 
L 592.15138 353.223059 
L 609.726548 353.204811 
L 691.743997 353.2239 
L 703.460776 353.222553 
L 785.478226 353.2239 
L 949.513125 353.2239 
L 949.513125 353.2239 
" style="fill:none;stroke:#e4d354;stroke-linecap:square;"/>
   </g>
   <g id="line2d_34">
    <path clip-path="url(#pe1428c3d6b)" d="M 76.613125 352.912666 
L 88.329904 353.140141 
L 94.188293 353.010767 
L 100.046682 353.183863 
L 105.905071 352.91157 
L 111.763461 353.220414 
L 141.055407 353.2239 
L 146.913796 352.876413 
L 152.772185 353.155478 
L 158.630575 352.782396 
L 170.347353 353.186851 
L 182.064132 353.222506 
L 187.922521 353.097414 
L 193.78091 353.216928 
L 293.373528 353.222403 
L 433.97487 353.210173 
L 445.691648 353.126529 
L 457.408427 353.212339 
L 562.859434 353.223601 
L 943.654736 353.221624 
L 949.513125 353.2239 
L 949.513125 353.2239 
" style="fill:none;stroke:#2b908f;stroke-linecap:square;"/>
   </g>
   <g id="line2d_35">
    <path clip-path="url(#pe1428c3d6b)" d="M 76.613125 352.920778 
L 88.329904 353.166297 
L 94.188293 353.083199 
L 100.046682 353.183295 
L 105.905071 352.979325 
L 111.763461 353.220123 
L 141.055407 353.2239 
L 146.913796 352.950051 
L 152.772185 353.166297 
L 158.630575 352.902836 
L 170.347353 353.200292 
L 182.064132 353.2239 
L 187.922521 353.126637 
L 199.639299 353.2239 
L 269.939971 353.215396 
L 357.81581 353.2239 
L 949.513125 353.2239 
L 949.513125 353.2239 
" style="fill:none;stroke:#f45b5b;stroke-linecap:square;"/>
   </g>
   <g id="line2d_36">
    <path clip-path="url(#pe1428c3d6b)" d="M 76.613125 352.917696 
L 100.046682 353.176973 
L 105.905071 352.945553 
L 111.763461 353.220472 
L 141.055407 353.2239 
L 146.913796 352.881483 
L 152.772185 353.148474 
L 158.630575 352.815915 
L 170.347353 353.187473 
L 182.064132 353.221971 
L 187.922521 353.099833 
L 199.639299 353.222829 
L 246.506414 353.2239 
L 949.513125 353.2239 
L 949.513125 353.2239 
" style="fill:none;stroke:#91e8e1;stroke-linecap:square;"/>
   </g>
   <g id="line2d_37">
    <path clip-path="url(#pe1428c3d6b)" d="M 76.613125 352.896344 
L 88.329904 353.118721 
L 94.188293 353.007533 
L 100.046682 353.181829 
L 105.905071 352.938416 
L 111.763461 353.220895 
L 141.055407 353.2239 
L 146.913796 352.896344 
L 152.772185 353.124732 
L 158.630575 352.785156 
L 164.488964 353.05862 
L 176.205742 353.21789 
L 182.064132 353.220895 
L 187.922521 353.109706 
L 199.639299 353.2239 
L 240.648024 353.2239 
L 949.513125 353.2239 
L 949.513125 353.2239 
" style="fill:none;stroke:#7cb5ec;stroke-linecap:square;"/>
   </g>
   <g id="line2d_38">
    <path clip-path="url(#pe1428c3d6b)" d="M 76.613125 352.921313 
L 88.329904 353.139554 
L 94.188293 353.034783 
L 100.046682 353.186833 
L 105.905071 352.944386 
L 111.763461 353.219361 
L 141.055407 353.2239 
L 146.913796 352.926609 
L 152.772185 353.162626 
L 158.630575 352.844532 
L 170.347353 353.190994 
L 182.064132 353.222387 
L 187.922521 353.110052 
L 199.639299 353.222765 
L 246.506414 353.2239 
L 949.513125 353.2239 
L 949.513125 353.2239 
" style="fill:none;stroke:#434348;stroke-linecap:square;"/>
   </g>
   <g id="line2d_39">
    <path clip-path="url(#pe1428c3d6b)" d="M 76.613125 352.925198 
L 88.329904 353.152781 
L 94.188293 353.074549 
L 100.046682 353.189526 
L 105.905071 352.988021 
L 111.763461 353.2239 
L 141.055407 353.2239 
L 146.913796 352.942978 
L 152.772185 353.181228 
L 158.630575 352.922828 
L 170.347353 353.193082 
L 182.064132 353.221529 
L 187.922521 353.124333 
L 199.639299 353.2239 
L 240.648024 353.2239 
L 949.513125 353.2239 
L 949.513125 353.2239 
" style="fill:none;stroke:#90ed7d;stroke-linecap:square;"/>
   </g>
   <g id="line2d_40">
    <path clip-path="url(#pe1428c3d6b)" d="M 76.613125 352.881489 
L 88.329904 353.117561 
L 94.188293 352.976668 
L 100.046682 353.179905 
L 105.905071 352.863676 
L 111.763461 353.220681 
L 141.055407 353.2239 
L 146.913796 352.842108 
L 152.772185 353.144065 
L 158.630575 352.704972 
L 164.488964 352.998237 
L 170.347353 353.179476 
L 182.064132 353.221325 
L 187.922521 353.078823 
L 193.78091 353.213813 
L 264.081581 353.215101 
L 328.523863 353.197869 
L 363.674199 353.2239 
L 375.390977 353.219224 
L 433.97487 353.209719 
L 445.691648 353.117797 
L 457.408427 353.207559 
L 515.99232 353.2239 
L 551.142655 353.208834 
L 592.15138 353.2239 
L 609.726548 353.210192 
L 873.354065 353.215286 
L 885.070843 353.211562 
L 949.513125 353.2239 
L 949.513125 353.2239 
" style="fill:none;stroke:#f7a35c;stroke-linecap:square;"/>
   </g>
   <g id="line2d_41">
    <path clip-path="url(#pe1428c3d6b)" d="M 76.613125 352.909154 
L 82.471514 352.948902 
L 88.329904 353.120834 
L 94.188293 352.97802 
L 100.046682 353.180917 
L 105.905071 352.879575 
L 111.763461 353.218816 
L 141.055407 353.2239 
L 146.913796 352.862012 
L 152.772185 353.15827 
L 158.630575 352.691467 
L 164.488964 352.993734 
L 170.347353 353.181379 
L 182.064132 353.220203 
L 187.922521 353.076002 
L 193.78091 353.216043 
L 281.656749 353.222973 
L 328.523863 353.191395 
L 357.81581 353.2239 
L 433.97487 353.208012 
L 445.691648 353.101875 
L 451.550038 353.218731 
L 598.009769 353.182327 
L 615.584937 353.2028 
L 662.452051 353.2239 
L 680.027219 353.2239 
L 949.513125 353.2239 
L 949.513125 353.2239 
" style="fill:none;stroke:#8085e9;stroke-linecap:square;"/>
   </g>
   <g id="line2d_42">
    <path clip-path="url(#pe1428c3d6b)" d="M 76.613125 352.875937 
L 88.329904 353.13343 
L 94.188293 352.986898 
L 100.046682 353.172479 
L 105.905071 352.889469 
L 111.763461 353.220034 
L 141.055407 353.2239 
L 146.913796 352.834955 
L 152.772185 353.153921 
L 158.630575 352.725153 
L 170.347353 353.19297 
L 182.064132 353.223513 
L 187.922521 353.073889 
L 193.78091 353.212688 
L 258.223192 353.22042 
L 334.382253 353.219919 
L 433.97487 353.208081 
L 445.691648 353.120616 
L 457.408427 353.210581 
L 568.717823 353.2239 
L 726.894333 353.206137 
L 750.32789 353.208746 
L 762.044669 353.216709 
L 879.212454 353.20621 
L 949.513125 353.2239 
L 949.513125 353.2239 
" style="fill:none;stroke:#f15c80;stroke-linecap:square;"/>
   </g>
   <g id="line2d_43">
    <path clip-path="url(#pe1428c3d6b)" d="M 76.613125 352.877056 
L 88.329904 353.127043 
L 94.188293 353.014495 
L 100.046682 353.173578 
L 105.905071 352.912768 
L 111.763461 353.221195 
L 141.055407 353.2239 
L 146.913796 352.881385 
L 152.772185 353.154098 
L 158.630575 352.776953 
L 164.488964 353.053995 
L 176.205742 353.220112 
L 182.064132 353.222818 
L 187.922521 353.102153 
L 199.639299 353.222818 
L 246.506414 353.2239 
L 949.513125 353.2239 
L 949.513125 353.2239 
" style="fill:none;stroke:#e4d354;stroke-linecap:square;"/>
   </g>
   <g id="line2d_44">
    <path clip-path="url(#pe1428c3d6b)" d="M 76.613125 352.910717 
L 88.329904 353.145203 
L 94.188293 353.058475 
L 100.046682 353.186425 
L 105.905071 352.949262 
L 111.763461 353.220153 
L 141.055407 353.2239 
L 146.913796 352.896797 
L 152.772185 353.160193 
L 158.630575 352.835232 
L 170.347353 353.196061 
L 182.064132 353.221223 
L 187.922521 353.108263 
L 199.639299 353.223365 
L 264.081581 353.21587 
L 463.266816 353.215375 
L 592.15138 353.2239 
L 609.726548 353.205146 
L 662.452051 353.2239 
L 674.16883 353.2239 
L 949.513125 353.2239 
L 949.513125 353.2239 
" style="fill:none;stroke:#2b908f;stroke-linecap:square;"/>
   </g>
   <g id="line2d_45">
    <path clip-path="url(#pe1428c3d6b)" d="M 76.613125 352.892748 
L 88.329904 353.129956 
L 94.188293 353.036012 
L 100.046682 353.181625 
L 105.905071 352.92328 
L 111.763461 353.221551 
L 141.055407 353.2239 
L 146.913796 352.937371 
L 152.772185 353.160488 
L 158.630575 352.826988 
L 170.347353 353.198065 
L 182.064132 353.221551 
L 187.922521 353.087681 
L 193.78091 353.216854 
L 287.515138 353.219163 
L 439.833259 353.169495 
L 445.691648 353.134658 
L 457.408427 353.2239 
L 521.850709 353.207248 
L 562.859434 353.2239 
L 949.513125 353.2239 
L 949.513125 353.2239 
" style="fill:none;stroke:#f45b5b;stroke-linecap:square;"/>
   </g>
   <g id="line2d_46">
    <path clip-path="url(#pe1428c3d6b)" d="M 76.613125 352.936603 
L 100.046682 353.177093 
L 105.905071 352.967269 
L 111.763461 353.220672 
L 141.055407 353.2239 
L 146.913796 352.931761 
L 152.772185 353.178707 
L 158.630575 352.884954 
L 170.347353 353.180321 
L 182.064132 353.2239 
L 187.922521 353.125444 
L 199.639299 353.220672 
L 328.523863 353.208735 
L 387.107756 353.222022 
L 691.743997 353.2239 
L 703.460776 353.209272 
L 738.611112 353.2239 
L 949.513125 353.2239 
L 949.513125 353.2239 
" style="fill:none;stroke:#91e8e1;stroke-linecap:square;"/>
   </g>
   <g id="line2d_47">
    <path clip-path="url(#pe1428c3d6b)" d="M 76.613125 352.958964 
L 88.329904 353.156367 
L 94.188293 353.049874 
L 100.046682 353.197926 
L 105.905071 352.944678 
L 111.763461 353.216108 
L 141.055407 353.2239 
L 146.913796 352.949873 
L 152.772185 353.156367 
L 158.630575 352.894029 
L 170.347353 353.201822 
L 182.064132 353.222601 
L 187.922521 353.131692 
L 199.639299 353.2239 
L 269.939971 353.216099 
L 357.81581 353.2239 
L 949.513125 353.2239 
L 949.513125 353.2239 
" style="fill:none;stroke:#7cb5ec;stroke-linecap:square;"/>
   </g>
   <g id="line2d_48">
    <path clip-path="url(#pe1428c3d6b)" d="M 76.613125 352.956746 
L 88.329904 353.20335 
L 94.188293 353.131423 
L 100.046682 353.172524 
L 105.905071 353.069773 
L 111.763461 353.2239 
L 141.055407 353.2239 
L 146.913796 352.88482 
L 152.772185 353.151974 
L 158.630575 353.028672 
L 182.064132 353.2239 
L 187.922521 353.162249 
L 199.639299 353.2239 
L 949.513125 353.2239 
L 949.513125 353.2239 
" style="fill:none;stroke:#434348;stroke-linecap:square;"/>
   </g>
   <g id="line2d_49">
    <path clip-path="url(#pe1428c3d6b)" d="M 76.613125 352.915448 
L 88.329904 353.147582 
L 94.188293 353.068084 
L 100.046682 353.188921 
L 105.905071 352.953606 
L 111.763461 353.22072 
L 141.055407 353.2239 
L 146.913796 352.896368 
L 152.772185 353.179381 
L 158.630575 352.877288 
L 170.347353 353.208 
L 182.064132 353.2239 
L 187.922521 353.122143 
L 199.639299 353.2239 
L 223.072857 353.192101 
L 246.506414 353.2239 
L 949.513125 353.2239 
L 949.513125 353.2239 
" style="fill:none;stroke:#90ed7d;stroke-linecap:square;"/>
   </g>
   <g id="line2d_50">
    <path clip-path="url(#pe1428c3d6b)" d="M 76.613125 352.881723 
L 88.329904 353.122206 
L 94.188293 352.980729 
L 100.046682 353.172811 
L 105.905071 352.872967 
L 111.763461 353.219281 
L 141.055407 353.2239 
L 146.913796 352.823533 
L 152.772185 353.142337 
L 158.630575 352.715289 
L 170.347353 353.17943 
L 182.064132 353.222176 
L 187.922521 353.075805 
L 193.78091 353.21411 
L 264.081581 353.213213 
L 334.382253 353.217513 
L 428.116481 353.219415 
L 492.558763 353.214516 
L 562.859434 353.223186 
L 949.513125 353.2239 
L 949.513125 353.2239 
" style="fill:none;stroke:#f7a35c;stroke-linecap:square;"/>
   </g>
   <g id="line2d_51">
    <path clip-path="url(#pe1428c3d6b)" d="M 76.613125 352.903681 
L 88.329904 353.134148 
L 94.188293 353.008646 
L 100.046682 353.163812 
L 105.905071 352.936388 
L 111.763461 353.221618 
L 141.055407 353.2239 
L 146.913796 352.891512 
L 152.772185 353.154684 
L 158.630575 352.80328 
L 170.347353 353.197279 
L 182.064132 353.220858 
L 187.922521 353.105245 
L 199.639299 353.223139 
L 252.364803 353.2239 
L 680.027219 353.2239 
L 949.513125 353.2239 
L 949.513125 353.2239 
" style="fill:none;stroke:#8085e9;stroke-linecap:square;"/>
   </g>
   <g id="line2d_52">
    <path clip-path="url(#pe1428c3d6b)" d="M 76.613125 352.905098 
L 88.329904 353.161278 
L 94.188293 353.036034 
L 100.046682 353.178357 
L 105.905071 352.984798 
L 111.763461 353.2239 
L 141.055407 353.2239 
L 146.913796 352.956334 
L 152.772185 353.201128 
L 158.630575 352.899405 
L 170.347353 353.212514 
L 182.064132 353.2239 
L 187.922521 353.127121 
L 199.639299 353.218207 
L 305.090306 353.2239 
L 773.761447 353.201646 
L 779.619836 353.040666 
L 785.478226 353.2239 
L 949.513125 353.2239 
L 949.513125 353.2239 
" style="fill:none;stroke:#f15c80;stroke-linecap:square;"/>
   </g>
   <g id="line2d_53">
    <path clip-path="url(#pe1428c3d6b)" d="M 76.613125 352.915061 
L 88.329904 353.142627 
L 94.188293 353.018684 
L 100.046682 353.181231 
L 105.905071 352.934363 
L 111.763461 353.222884 
L 141.055407 353.2239 
L 146.913796 352.907949 
L 152.772185 353.157865 
L 158.630575 352.794166 
L 170.347353 353.178184 
L 182.064132 353.221868 
L 187.922521 353.113165 
L 199.639299 353.2239 
L 246.506414 353.2239 
L 949.513125 353.2239 
L 949.513125 353.2239 
" style="fill:none;stroke:#e4d354;stroke-linecap:square;"/>
   </g>
   <g id="line2d_54">
    <path clip-path="url(#pe1428c3d6b)" d="M 76.613125 352.910821 
L 88.329904 353.127889 
L 94.188293 352.998483 
L 100.046682 353.175895 
L 105.905071 352.8816 
L 111.763461 353.221813 
L 141.055407 353.2239 
L 146.913796 352.864903 
L 152.772185 353.15711 
L 158.630575 352.791851 
L 164.488964 353.05275 
L 176.205742 353.221813 
L 433.97487 353.210633 
L 445.691648 353.130215 
L 457.408427 353.221029 
L 562.859434 353.2239 
L 879.212454 353.2239 
L 885.070843 353.109139 
L 890.929232 353.2239 
L 949.513125 353.2239 
L 949.513125 353.2239 
" style="fill:none;stroke:#2b908f;stroke-linecap:square;"/>
   </g>
   <g id="line2d_55">
    <path clip-path="url(#pe1428c3d6b)" d="M 76.613125 352.946524 
L 88.329904 353.177253 
L 94.188293 353.094491 
L 100.046682 353.190796 
L 105.905071 353.007717 
L 111.763461 353.222395 
L 141.055407 353.2239 
L 146.913796 352.976619 
L 152.772185 353.181767 
L 158.630575 352.9706 
L 170.347353 353.203837 
L 205.497689 353.220389 
L 363.674199 353.2239 
L 381.249367 353.2239 
L 949.513125 353.2239 
L 949.513125 353.2239 
" style="fill:none;stroke:#f45b5b;stroke-linecap:square;"/>
   </g>
   <g id="line2d_56">
    <path clip-path="url(#pe1428c3d6b)" d="M 76.613125 352.949026 
L 88.329904 353.175582 
L 94.188293 353.077873 
L 100.046682 353.209942 
L 105.905071 352.98768 
L 111.763461 353.220679 
L 141.055407 353.2239 
L 146.913796 352.968354 
L 152.772185 353.185246 
L 158.630575 352.944732 
L 170.347353 353.204573 
L 211.356078 353.222826 
L 715.177555 353.2239 
L 732.752722 353.2239 
L 949.513125 353.2239 
L 949.513125 353.2239 
" style="fill:none;stroke:#91e8e1;stroke-linecap:square;"/>
   </g>
   <g id="line2d_57">
    <path clip-path="url(#pe1428c3d6b)" d="M 76.613125 352.951795 
L 88.329904 353.176308 
L 94.188293 353.076842 
L 100.046682 353.194631 
L 105.905071 352.980588 
L 111.763461 353.221996 
L 141.055407 353.2239 
L 146.913796 352.953104 
L 152.772185 353.177141 
L 158.630575 352.910509 
L 170.347353 353.203198 
L 182.064132 353.222948 
L 187.922521 353.135974 
L 199.639299 353.223781 
L 316.807085 353.219242 
L 949.513125 353.2239 
L 949.513125 353.2239 
" style="fill:none;stroke:#7cb5ec;stroke-linecap:square;"/>
   </g>
   <g id="line2d_58">
    <path clip-path="url(#pe1428c3d6b)" d="M 76.613125 352.969227 
L 82.471514 353.135318 
L 100.046682 353.168536 
L 105.905071 352.936009 
L 111.763461 353.2239 
L 141.055407 353.2239 
L 146.913796 353.002445 
L 152.772185 353.179609 
L 158.630575 352.958154 
L 170.347353 353.212827 
L 234.789635 353.2239 
L 949.513125 353.2239 
L 949.513125 353.2239 
" style="fill:none;stroke:#434348;stroke-linecap:square;"/>
   </g>
   <g id="line2d_59">
    <path clip-path="url(#pe1428c3d6b)" d="M 76.613125 352.944599 
L 88.329904 353.176149 
L 94.188293 353.082447 
L 100.046682 353.188762 
L 105.905071 353.033795 
L 111.763461 353.222999 
L 141.055407 353.2239 
L 146.913796 352.960816 
L 152.772185 353.175248 
L 158.630575 352.967124 
L 170.347353 353.204079 
L 211.356078 353.2239 
L 949.513125 353.2239 
L 949.513125 353.2239 
" style="fill:none;stroke:#90ed7d;stroke-linecap:square;"/>
   </g>
   <g id="line2d_60">
    <path clip-path="url(#pe1428c3d6b)" d="M 76.613125 352.985524 
L 88.329904 353.185245 
L 94.188293 353.101491 
L 100.046682 353.202425 
L 105.905071 353.019885 
L 111.763461 353.219605 
L 141.055407 353.2239 
L 146.913796 352.974787 
L 152.772185 353.174507 
L 158.630575 352.987672 
L 170.347353 353.211015 
L 217.214467 353.2239 
L 264.081581 353.219605 
L 574.576212 353.2239 
L 621.443326 353.218357 
L 949.513125 353.2239 
L 949.513125 353.2239 
" style="fill:none;stroke:#f7a35c;stroke-linecap:square;"/>
   </g>
   <g id="line2d_61">
    <path clip-path="url(#pe1428c3d6b)" d="M 76.613125 352.954083 
L 88.329904 353.180381 
L 94.188293 353.101256 
L 100.046682 353.18592 
L 105.905071 353.024505 
L 111.763461 353.220735 
L 141.055407 353.2239 
L 146.913796 352.943797 
L 152.772185 353.178007 
L 158.630575 352.967534 
L 170.347353 353.204119 
L 211.356078 353.223109 
L 750.32789 353.212022 
L 762.044669 353.219325 
L 949.513125 353.2239 
L 949.513125 353.2239 
" style="fill:none;stroke:#8085e9;stroke-linecap:square;"/>
   </g>
   <g id="line2d_62">
    <path clip-path="url(#pe1428c3d6b)" d="M 76.613125 352.94694 
L 88.329904 353.179261 
L 94.188293 353.094218 
L 100.046682 353.19262 
L 105.905071 352.995164 
L 111.763461 353.221945 
L 141.055407 353.2239 
L 146.913796 352.964862 
L 152.772185 353.178935 
L 158.630575 352.948895 
L 170.347353 353.200766 
L 182.064132 353.223248 
L 187.922521 353.146677 
L 199.639299 353.223574 
L 328.523863 353.219309 
L 439.833259 353.186017 
L 486.700373 353.2239 
L 656.593662 353.2239 
L 949.513125 353.2239 
L 949.513125 353.2239 
" style="fill:none;stroke:#f15c80;stroke-linecap:square;"/>
   </g>
   <g id="line2d_63">
    <path clip-path="url(#pe1428c3d6b)" d="M 76.613125 352.946549 
L 88.329904 353.176179 
L 94.188293 353.093021 
L 100.046682 353.195078 
L 105.905071 353.00372 
L 111.763461 353.221065 
L 141.055407 353.2239 
L 146.913796 352.990018 
L 152.772185 353.188463 
L 158.630575 352.959779 
L 170.347353 353.205945 
L 217.214467 353.2239 
L 252.364803 353.2239 
L 943.654736 353.220568 
L 949.513125 353.2239 
L 949.513125 353.2239 
" style="fill:none;stroke:#e4d354;stroke-linecap:square;"/>
   </g>
   <g id="line2d_64">
    <path clip-path="url(#pe1428c3d6b)" d="M 76.613125 352.916377 
L 88.329904 353.156718 
L 94.188293 353.02918 
L 100.046682 353.185522 
L 105.905071 352.928864 
L 111.763461 353.220404 
L 141.055407 353.2239 
L 146.913796 352.892068 
L 152.772185 353.166708 
L 158.630575 352.81398 
L 170.347353 353.191849 
L 182.064132 353.222984 
L 187.922521 353.10169 
L 199.639299 353.22365 
L 293.373528 353.22248 
L 433.97487 353.212227 
L 445.691648 353.135189 
L 457.408427 353.215497 
L 574.576212 353.220888 
L 598.009769 353.193643 
L 621.443326 353.216984 
L 715.177555 353.222194 
L 726.894333 353.200118 
L 750.32789 353.206057 
L 756.186279 353.154846 
L 767.903058 353.215269 
L 873.354065 353.216717 
L 890.929232 353.215349 
L 949.513125 353.2239 
L 949.513125 353.2239 
" style="fill:none;stroke:#2b908f;stroke-linecap:square;"/>
   </g>
   <g id="line2d_65">
    <path clip-path="url(#pe1428c3d6b)" d="M 76.613125 352.910198 
L 88.329904 353.16996 
L 94.188293 353.081953 
L 100.046682 353.186994 
L 105.905071 352.998205 
L 111.763461 353.219642 
L 141.055407 353.2239 
L 146.913796 352.93149 
L 152.772185 353.175638 
L 158.630575 352.938588 
L 170.347353 353.185574 
L 182.064132 353.221061 
L 187.922521 353.148668 
L 199.639299 353.2239 
L 275.79836 353.2239 
L 726.894333 353.212596 
L 773.761447 353.214272 
L 779.619836 353.161907 
L 791.336615 353.21378 
L 855.778897 353.2239 
L 949.513125 353.2239 
L 949.513125 353.2239 
" style="fill:none;stroke:#f45b5b;stroke-linecap:square;"/>
   </g>
   <g id="line2d_66">
    <path clip-path="url(#pe1428c3d6b)" d="M 76.613125 352.926396 
L 88.329904 353.173168 
L 94.188293 353.078821 
L 100.046682 353.193599 
L 105.905071 352.999395 
L 111.763461 353.220686 
L 141.055407 353.2239 
L 146.913796 352.948663 
L 152.772185 353.176612 
L 158.630575 352.931217 
L 170.347353 353.199797 
L 182.064132 353.22367 
L 187.922521 353.146769 
L 199.639299 353.2239 
L 293.373528 353.22344 
L 949.513125 353.2239 
L 949.513125 353.2239 
" style="fill:none;stroke:#91e8e1;stroke-linecap:square;"/>
   </g>
   <g id="line2d_67">
    <path clip-path="url(#pe1428c3d6b)" d="M 76.613125 352.928585 
L 88.329904 353.163017 
L 94.188293 353.060942 
L 100.046682 353.190989 
L 105.905071 352.968569 
L 111.763461 353.221305 
L 141.055407 353.2239 
L 146.913796 352.92336 
L 152.772185 353.173289 
L 158.630575 352.893008 
L 170.347353 353.200087 
L 182.064132 353.22326 
L 187.922521 353.127227 
L 199.639299 353.223438 
L 287.515138 353.21752 
L 404.682924 353.222654 
L 656.593662 353.2239 
L 949.513125 353.2239 
L 949.513125 353.2239 
" style="fill:none;stroke:#7cb5ec;stroke-linecap:square;"/>
   </g>
   <g id="line2d_68">
    <path clip-path="url(#pe1428c3d6b)" d="M 76.613125 352.957939 
L 88.329904 353.15802 
L 94.188293 353.074572 
L 100.046682 353.19218 
L 105.905071 352.992099 
L 111.763461 353.221948 
L 141.055407 353.2239 
L 146.913796 352.962331 
L 152.772185 353.17998 
L 158.630575 352.908651 
L 170.347353 353.200476 
L 182.064132 353.223412 
L 187.922521 353.139476 
L 199.639299 353.222924 
L 269.939971 353.216577 
L 363.674199 353.2239 
L 381.249367 353.2239 
L 808.911783 353.213644 
L 873.354065 353.219182 
L 914.362789 353.209153 
L 949.513125 353.2239 
L 949.513125 353.2239 
" style="fill:none;stroke:#434348;stroke-linecap:square;"/>
   </g>
   <g id="line2d_69">
    <path clip-path="url(#pe1428c3d6b)" d="M 76.613125 352.963214 
L 88.329904 353.170162 
L 94.188293 353.10842 
L 100.046682 353.194173 
L 105.905071 353.016952 
L 111.763461 353.2239 
L 141.055407 353.2239 
L 146.913796 352.982651 
L 152.772185 353.193029 
L 158.630575 352.974647 
L 170.347353 353.20675 
L 217.214467 353.2239 
L 264.081581 353.214753 
L 340.240642 353.2239 
L 949.513125 353.2239 
L 949.513125 353.2239 
" style="fill:none;stroke:#90ed7d;stroke-linecap:square;"/>
   </g>
   <g id="line2d_70">
    <path clip-path="url(#pe1428c3d6b)" d="M 76.613125 352.908506 
L 88.329904 353.195228 
L 105.905071 353.090097 
L 111.763461 353.2239 
L 141.055407 353.2239 
L 146.913796 352.898948 
L 152.772185 353.18567 
L 158.630575 352.994522 
L 176.205742 353.2239 
L 949.513125 353.2239 
L 949.513125 353.2239 
" style="fill:none;stroke:#f7a35c;stroke-linecap:square;"/>
   </g>
   <g id="line2d_71">
    <path clip-path="url(#pe1428c3d6b)" d="M 76.613125 352.937563 
L 88.329904 353.164096 
L 94.188293 353.066234 
L 100.046682 353.184634 
L 105.905071 352.987703 
L 111.763461 353.222692 
L 141.055407 353.2239 
L 146.913796 352.952062 
L 152.772185 353.175573 
L 158.630575 352.919441 
L 170.347353 353.190675 
L 182.064132 353.2239 
L 187.922521 353.144161 
L 199.639299 353.2239 
L 293.373528 353.22207 
L 574.576212 353.2222 
L 598.009769 353.197027 
L 627.301716 353.222939 
L 949.513125 353.2239 
L 949.513125 353.2239 
" style="fill:none;stroke:#8085e9;stroke-linecap:square;"/>
   </g>
   <g id="line2d_72">
    <path clip-path="url(#pe1428c3d6b)" d="M 76.613125 352.959842 
L 88.329904 353.17906 
L 94.188293 353.109309 
L 100.046682 353.208953 
L 105.905071 353.049522 
L 111.763461 353.218918 
L 141.055407 353.2239 
L 146.913796 352.954859 
L 152.772185 353.184042 
L 158.630575 352.954859 
L 170.347353 353.203971 
L 182.064132 353.2239 
L 187.922521 353.149167 
L 199.639299 353.218918 
L 949.513125 353.2239 
L 949.513125 353.2239 
" style="fill:none;stroke:#f15c80;stroke-linecap:square;"/>
   </g>
   <g id="line2d_73">
    <path clip-path="url(#pe1428c3d6b)" d="M 76.613125 352.93203 
L 88.329904 353.160702 
L 94.188293 353.08496 
L 100.046682 353.189165 
L 105.905071 352.986062 
L 111.763461 353.222211 
L 141.055407 353.2239 
L 146.913796 352.946021 
L 152.772185 353.171798 
L 158.630575 352.917558 
L 170.347353 353.200502 
L 182.064132 353.223418 
L 187.922521 353.140199 
L 199.639299 353.223176 
L 305.090306 353.223654 
L 949.513125 353.2239 
L 949.513125 353.2239 
" style="fill:none;stroke:#e4d354;stroke-linecap:square;"/>
   </g>
   <g id="line2d_74">
    <path clip-path="url(#pe1428c3d6b)" d="M 76.613125 352.95929 
L 88.329904 353.183191 
L 94.188293 353.115342 
L 100.046682 353.203545 
L 105.905071 353.040708 
L 111.763461 353.2239 
L 141.055407 353.2239 
L 146.913796 352.999999 
L 152.772185 353.21033 
L 158.630575 353.013569 
L 182.064132 353.2239 
L 193.78091 353.21033 
L 246.506414 353.2239 
L 949.513125 353.2239 
L 949.513125 353.2239 
" style="fill:none;stroke:#2b908f;stroke-linecap:square;"/>
   </g>
   <g id="line2d_75">
    <path clip-path="url(#pe1428c3d6b)" d="M 76.613125 352.961601 
L 88.329904 353.166484 
L 94.188293 353.080663 
L 100.046682 353.196703 
L 105.905071 353.025665 
L 111.763461 353.222691 
L 141.055407 353.2239 
L 146.913796 352.981545 
L 152.772185 353.184011 
L 158.630575 352.961601 
L 170.347353 353.199725 
L 199.639299 353.2239 
L 281.656749 353.223293 
L 639.018494 353.210964 
L 691.743997 353.2239 
L 709.319165 353.21938 
L 873.354065 353.216393 
L 890.929232 353.214765 
L 949.513125 353.2239 
L 949.513125 353.2239 
" style="fill:none;stroke:#f45b5b;stroke-linecap:square;"/>
   </g>
   <g id="line2d_76">
    <path clip-path="url(#pe1428c3d6b)" d="M 76.613125 352.966718 
L 88.329904 353.17333 
L 94.188293 353.102533 
L 100.046682 353.200783 
L 105.905071 353.031736 
L 111.763461 353.2239 
L 141.055407 353.2239 
L 146.913796 352.965273 
L 152.772185 353.17911 
L 158.630575 352.971052 
L 170.347353 353.199338 
L 182.064132 353.219565 
L 187.922521 353.145878 
L 199.639299 353.2239 
L 346.099031 353.2239 
L 949.513125 353.2239 
L 949.513125 353.2239 
" style="fill:none;stroke:#91e8e1;stroke-linecap:square;"/>
   </g>
   <g id="line2d_77">
    <path clip-path="url(#pe1428c3d6b)" d="M 76.613125 352.964549 
L 88.329904 353.16923 
L 94.188293 353.100558 
L 100.046682 353.202565 
L 105.905071 353.03122 
L 111.763461 353.223233 
L 141.055407 353.2239 
L 146.913796 352.967882 
L 152.772185 353.181897 
L 158.630575 352.969216 
L 170.347353 353.201899 
L 205.497689 353.217233 
L 305.090306 353.223225 
L 949.513125 353.2239 
L 949.513125 353.2239 
" style="fill:none;stroke:#7cb5ec;stroke-linecap:square;"/>
   </g>
   <g id="line2d_78">
    <path clip-path="url(#pe1428c3d6b)" d="M 76.613125 352.895101 
L 88.329904 353.170096 
L 94.188293 353.116293 
L 100.046682 353.211944 
L 105.905071 353.062489 
L 111.763461 353.2239 
L 141.055407 353.2239 
L 146.913796 352.972817 
L 152.772185 353.170096 
L 158.630575 353.008686 
L 182.064132 353.211944 
L 187.922521 353.134227 
L 199.639299 353.2239 
L 305.090306 353.2239 
L 949.513125 353.2239 
L 949.513125 353.2239 
" style="fill:none;stroke:#434348;stroke-linecap:square;"/>
   </g>
   <g id="line2d_79">
    <path clip-path="url(#pe1428c3d6b)" d="M 76.613125 352.948099 
L 88.329904 353.151871 
L 94.188293 353.055218 
L 100.046682 353.185731 
L 105.905071 352.977033 
L 111.763461 353.222053 
L 141.055407 353.2239 
L 146.913796 352.93948 
L 152.772185 353.179575 
L 158.630575 352.903774 
L 170.347353 353.201737 
L 182.064132 353.2239 
L 187.922521 353.130325 
L 199.639299 353.2239 
L 252.364803 353.2239 
L 949.513125 353.2239 
L 949.513125 353.2239 
" style="fill:none;stroke:#90ed7d;stroke-linecap:square;"/>
   </g>
   <g id="line2d_80">
    <path clip-path="url(#pe1428c3d6b)" d="M 76.613125 352.92546 
L 82.471514 353.092175 
L 88.329904 353.14363 
L 94.188293 353.081883 
L 100.046682 353.205376 
L 105.905071 352.983089 
L 111.763461 353.219784 
L 141.055407 353.2239 
L 146.913796 352.997497 
L 152.772185 353.176561 
L 158.630575 352.943984 
L 164.488964 353.145688 
L 176.205742 353.221842 
L 949.513125 353.2239 
L 949.513125 353.2239 
" style="fill:none;stroke:#f7a35c;stroke-linecap:square;"/>
   </g>
   <g id="line2d_81">
    <path clip-path="url(#pe1428c3d6b)" d="M 76.613125 352.981009 
L 88.329904 353.160125 
L 94.188293 353.08685 
L 100.046682 353.199475 
L 105.905071 352.987794 
L 111.763461 353.2239 
L 141.055407 353.2239 
L 146.913796 352.968797 
L 152.772185 353.191334 
L 158.630575 352.915877 
L 164.488964 353.116702 
L 182.064132 353.2239 
L 187.922521 353.149268 
L 199.639299 353.2239 
L 322.665474 353.217056 
L 779.619836 353.188342 
L 803.053393 353.2239 
L 867.495675 353.210536 
L 949.513125 353.2239 
L 949.513125 353.2239 
" style="fill:none;stroke:#8085e9;stroke-linecap:square;"/>
   </g>
   <g id="line2d_82">
    <path clip-path="url(#pe1428c3d6b)" d="M 76.613125 352.951236 
L 88.329904 353.17901 
L 94.188293 353.12082 
L 100.046682 353.195636 
L 105.905071 353.022727 
L 111.763461 353.2239 
L 141.055407 353.2239 
L 146.913796 352.971187 
L 152.772185 353.187323 
L 158.630575 352.9795 
L 170.347353 353.207274 
L 182.064132 353.2239 
L 187.922521 353.132457 
L 199.639299 353.2239 
L 586.292991 353.219897 
L 715.177555 353.2239 
L 732.752722 353.2239 
L 949.513125 353.2239 
L 949.513125 353.2239 
" style="fill:none;stroke:#f15c80;stroke-linecap:square;"/>
   </g>
   <g id="line2d_83">
    <path clip-path="url(#pe1428c3d6b)" d="M 76.613125 352.962991 
L 88.329904 353.173358 
L 94.188293 353.080468 
L 100.046682 353.195897 
L 105.905071 352.992361 
L 111.763461 353.222534 
L 141.055407 353.2239 
L 146.913796 352.986214 
L 152.772185 353.174041 
L 158.630575 352.943867 
L 170.347353 353.202727 
L 182.064132 353.223217 
L 187.922521 353.150135 
L 199.639299 353.223217 
L 334.382253 353.223208 
L 949.513125 353.2239 
L 949.513125 353.2239 
" style="fill:none;stroke:#e4d354;stroke-linecap:square;"/>
   </g>
   <g id="line2d_84">
    <path clip-path="url(#pe1428c3d6b)" d="M 76.613125 352.958726 
L 88.329904 353.191207 
L 94.188293 353.109476 
L 100.046682 353.186364 
L 105.905071 353.047117 
L 111.763461 353.222386 
L 141.055407 353.2239 
L 146.913796 352.959634 
L 152.772185 353.182126 
L 158.630575 353.006554 
L 170.347353 353.20604 
L 211.356078 353.223597 
L 949.513125 353.2239 
L 949.513125 353.2239 
" style="fill:none;stroke:#2b908f;stroke-linecap:square;"/>
   </g>
   <g id="line2d_85">
    <path clip-path="url(#pe1428c3d6b)" d="M 76.613125 352.940044 
L 88.329904 353.172523 
L 94.188293 353.088897 
L 100.046682 353.190618 
L 105.905071 352.998423 
L 111.763461 353.222064 
L 141.055407 353.2239 
L 146.913796 352.947389 
L 152.772185 353.17983 
L 158.630575 352.943296 
L 170.347353 353.203433 
L 182.064132 353.223211 
L 187.922521 353.135453 
L 199.639299 353.223556 
L 328.523863 353.217421 
L 433.97487 353.219377 
L 445.691648 353.178604 
L 463.266816 353.222234 
L 949.513125 353.2239 
L 949.513125 353.2239 
" style="fill:none;stroke:#f45b5b;stroke-linecap:square;"/>
   </g>
   <g id="line2d_86">
    <path clip-path="url(#pe1428c3d6b)" d="M 76.613125 352.944195 
L 88.329904 353.180154 
L 94.188293 353.103541 
L 100.046682 353.195114 
L 105.905071 353.018088 
L 111.763461 353.222993 
L 141.055407 353.2239 
L 146.913796 352.960741 
L 152.772185 353.187634 
L 158.630575 352.974568 
L 170.347353 353.204633 
L 182.064132 353.223673 
L 187.922521 353.1457 
L 199.639299 353.223673 
L 387.107756 353.223669 
L 949.513125 353.2239 
L 949.513125 353.2239 
" style="fill:none;stroke:#91e8e1;stroke-linecap:square;"/>
   </g>
   <g id="line2d_87">
    <path clip-path="url(#pe1428c3d6b)" d="M 76.613125 352.935128 
L 88.329904 353.17355 
L 94.188293 353.088399 
L 100.046682 353.201687 
L 105.905071 353.017317 
L 111.763461 353.222419 
L 141.055407 353.2239 
L 146.913796 352.958082 
L 152.772185 353.176512 
L 158.630575 352.950678 
L 170.347353 353.206129 
L 182.064132 353.2239 
L 187.922521 353.140971 
L 199.639299 353.22316 
L 375.390977 353.222358 
L 691.743997 353.2239 
L 709.319165 353.220231 
L 873.354065 353.2239 
L 890.929232 353.212411 
L 949.513125 353.2239 
L 949.513125 353.2239 
" style="fill:none;stroke:#7cb5ec;stroke-linecap:square;"/>
   </g>
   <g id="line2d_88">
    <path clip-path="url(#pe1428c3d6b)" d="M 76.613125 352.960722 
L 88.329904 353.18398 
L 94.188293 353.101182 
L 100.046682 353.200244 
L 105.905071 353.027256 
L 111.763461 353.221682 
L 141.055407 353.2239 
L 146.913796 352.948894 
L 152.772185 353.172891 
L 158.630575 352.9622 
L 170.347353 353.200983 
L 182.064132 353.2239 
L 187.922521 353.149974 
L 199.639299 353.2239 
L 293.373528 353.2239 
L 949.513125 353.2239 
L 949.513125 353.2239 
" style="fill:none;stroke:#434348;stroke-linecap:square;"/>
   </g>
   <g id="line2d_89">
    <path clip-path="url(#pe1428c3d6b)" d="M 76.613125 352.939651 
L 88.329904 353.174032 
L 94.188293 353.076788 
L 100.046682 353.188992 
L 105.905071 352.978298 
L 111.763461 353.222653 
L 141.055407 353.2239 
L 146.913796 352.968325 
L 152.772185 353.182759 
L 158.630575 352.939651 
L 170.347353 353.203953 
L 205.497689 353.21268 
L 264.081581 353.213926 
L 439.833259 353.178893 
L 463.266816 353.2239 
L 949.513125 353.2239 
L 949.513125 353.2239 
" style="fill:none;stroke:#90ed7d;stroke-linecap:square;"/>
   </g>
   <g id="line2d_90">
    <path clip-path="url(#pe1428c3d6b)" d="M 76.613125 352.93499 
L 88.329904 353.163077 
L 94.188293 353.092415 
L 100.046682 353.189016 
L 105.905071 352.98329 
L 111.763461 353.221217 
L 141.055407 353.2239 
L 146.913796 352.938568 
L 152.772185 353.168444 
L 158.630575 352.923362 
L 164.488964 353.116565 
L 176.205742 353.223006 
L 949.513125 353.2239 
L 949.513125 353.2239 
" style="fill:none;stroke:#f7a35c;stroke-linecap:square;"/>
   </g>
   <g id="line2d_91">
    <path clip-path="url(#pe1428c3d6b)" d="M 76.613125 352.992737 
L 82.471514 353.021997 
L 88.329904 353.194639 
L 94.188293 353.062963 
L 100.046682 353.191713 
L 105.905071 352.981032 
L 111.763461 353.215122 
L 141.055407 353.2239 
L 146.913796 352.960549 
L 152.772185 353.182934 
L 158.630575 352.93714 
L 170.347353 353.194639 
L 182.064132 353.2239 
L 187.922521 353.144894 
L 199.639299 353.2239 
L 416.399702 353.2239 
L 949.513125 353.2239 
L 949.513125 353.2239 
" style="fill:none;stroke:#8085e9;stroke-linecap:square;"/>
   </g>
   <g id="line2d_92">
    <path clip-path="url(#pe1428c3d6b)" d="M 76.613125 352.964056 
L 88.329904 353.182017 
L 94.188293 353.087995 
L 100.046682 353.190565 
L 105.905071 352.990553 
L 111.763461 353.222618 
L 141.055407 353.2239 
L 146.913796 352.968329 
L 152.772185 353.180308 
L 158.630575 352.938841 
L 170.347353 353.210224 
L 217.214467 353.2239 
L 275.79836 353.223472 
L 949.513125 353.2239 
L 949.513125 353.2239 
" style="fill:none;stroke:#f15c80;stroke-linecap:square;"/>
   </g>
   <g id="line2d_93">
    <path clip-path="url(#pe1428c3d6b)" d="M 76.613125 352.931102 
L 88.329904 353.15901 
L 94.188293 353.087789 
L 100.046682 353.179585 
L 105.905071 353.002323 
L 111.763461 353.2239 
L 141.055407 353.2239 
L 146.913796 352.973835 
L 152.772185 353.163758 
L 158.630575 352.927937 
L 170.347353 353.190664 
L 182.064132 353.2239 
L 187.922521 353.155845 
L 199.639299 353.2239 
L 269.939971 353.209644 
L 310.948695 353.2239 
L 346.099031 353.2239 
L 949.513125 353.2239 
L 949.513125 353.2239 
" style="fill:none;stroke:#e4d354;stroke-linecap:square;"/>
   </g>
   <g id="line2d_94">
    <path clip-path="url(#pe1428c3d6b)" d="M 76.613125 352.930079 
L 88.329904 353.157274 
L 94.188293 353.054104 
L 100.046682 353.188649 
L 105.905071 352.966622 
L 111.763461 353.220947 
L 141.055407 353.2239 
L 146.913796 352.935985 
L 152.772185 353.168347 
L 158.630575 352.876556 
L 170.347353 353.194001 
L 182.064132 353.223346 
L 187.922521 353.132727 
L 199.639299 353.223346 
L 269.939971 353.213744 
L 340.240642 353.2239 
L 949.513125 353.2239 
L 949.513125 353.2239 
" style="fill:none;stroke:#2b908f;stroke-linecap:square;"/>
   </g>
   <g id="line2d_95">
    <path clip-path="url(#pe1428c3d6b)" d="M 76.613125 352.950563 
L 88.329904 353.167205 
L 94.188293 353.089607 
L 100.046682 353.190327 
L 105.905071 353.005673 
L 111.763461 353.219783 
L 141.055407 353.2239 
L 146.913796 352.950879 
L 152.772185 353.168156 
L 158.630575 352.937259 
L 170.347353 353.197295 
L 182.064132 353.22295 
L 187.922521 353.139333 
L 199.639299 353.223583 
L 305.090306 353.2239 
L 949.513125 353.2239 
L 949.513125 353.2239 
" style="fill:none;stroke:#f45b5b;stroke-linecap:square;"/>
   </g>
   <g id="line2d_96">
    <path clip-path="url(#pe1428c3d6b)" d="M 76.613125 352.921056 
L 88.329904 353.165969 
L 94.188293 353.082605 
L 100.046682 353.187163 
L 105.905071 352.990291 
L 111.763461 353.219661 
L 141.055407 353.2239 
L 146.913796 352.957793 
L 152.772185 353.170208 
L 158.630575 352.928592 
L 170.347353 353.19988 
L 182.064132 353.223429 
L 187.922521 353.1476 
L 199.639299 353.2239 
L 328.523863 353.216675 
L 433.97487 353.213389 
L 445.691648 353.175949 
L 463.266816 353.222266 
L 949.513125 353.2239 
L 949.513125 353.2239 
" style="fill:none;stroke:#91e8e1;stroke-linecap:square;"/>
   </g>
   <g id="line2d_97">
    <path clip-path="url(#pe1428c3d6b)" d="M 76.613125 352.937208 
L 88.329904 353.174263 
L 94.188293 353.087623 
L 100.046682 353.193817 
L 105.905071 353.006098 
L 111.763461 353.222697 
L 141.055407 353.2239 
L 146.913796 352.969999 
L 152.772185 353.175165 
L 158.630575 352.947136 
L 170.347353 353.199533 
L 182.064132 353.223298 
L 187.922521 353.145383 
L 199.639299 353.2239 
L 293.373528 353.222391 
L 662.452051 353.2239 
L 680.027219 353.2239 
L 949.513125 353.2239 
L 949.513125 353.2239 
" style="fill:none;stroke:#7cb5ec;stroke-linecap:square;"/>
   </g>
   <g id="line2d_98">
    <path clip-path="url(#pe1428c3d6b)" d="M 76.613125 352.933831 
L 88.329904 353.16997 
L 94.188293 353.075026 
L 100.046682 353.189779 
L 105.905071 352.984707 
L 111.763461 353.22198 
L 141.055407 353.2239 
L 146.913796 352.931998 
L 152.772185 353.174333 
L 158.630575 352.912626 
L 170.347353 353.200688 
L 182.064132 353.223202 
L 187.922521 353.132534 
L 199.639299 353.223638 
L 305.090306 353.2239 
L 949.513125 353.2239 
L 949.513125 353.2239 
" style="fill:none;stroke:#434348;stroke-linecap:square;"/>
   </g>
   <g id="line2d_99">
    <path clip-path="url(#pe1428c3d6b)" d="M 76.613125 352.9266 
L 88.329904 353.161359 
L 94.188293 353.052903 
L 100.046682 353.190036 
L 105.905071 352.960006 
L 111.763461 353.221459 
L 141.055407 353.2239 
L 146.913796 352.907685 
L 152.772185 353.175087 
L 158.630575 352.87977 
L 170.347353 353.201172 
L 182.064132 353.222985 
L 187.922521 353.118648 
L 199.639299 353.223747 
L 316.807085 353.218395 
L 949.513125 353.2239 
L 949.513125 353.2239 
" style="fill:none;stroke:#90ed7d;stroke-linecap:square;"/>
   </g>
   <g id="line2d_100">
    <path clip-path="url(#pe1428c3d6b)" d="M 76.613125 352.962332 
L 88.329904 353.167037 
L 94.188293 353.078332 
L 100.046682 353.187508 
L 105.905071 353.007822 
L 111.763461 353.221625 
L 141.055407 353.2239 
L 146.913796 352.928215 
L 152.772185 353.189782 
L 158.630575 352.944136 
L 170.347353 353.185233 
L 182.064132 353.2239 
L 187.922521 353.148841 
L 199.639299 353.2239 
L 480.841984 353.216592 
L 574.576212 353.2239 
L 609.726548 353.218225 
L 750.32789 353.216448 
L 762.044669 353.220071 
L 926.079568 353.20601 
L 949.513125 353.2239 
L 949.513125 353.2239 
" style="fill:none;stroke:#f7a35c;stroke-linecap:square;"/>
   </g>
   <g id="line2d_101">
    <path clip-path="url(#pe1428c3d6b)" d="M 76.613125 352.917823 
L 88.329904 353.161115 
L 94.188293 353.082634 
L 100.046682 353.176811 
L 105.905071 353.09833 
L 111.763461 353.2239 
L 141.055407 353.2239 
L 146.913796 353.019848 
L 152.772185 353.192507 
L 158.630575 353.035545 
L 170.347353 353.216052 
L 258.223192 353.2239 
L 949.513125 353.2239 
L 949.513125 353.2239 
" style="fill:none;stroke:#8085e9;stroke-linecap:square;"/>
   </g>
   <g id="line2d_102">
    <path clip-path="url(#pe1428c3d6b)" d="M 76.613125 352.949192 
L 88.329904 353.174886 
L 94.188293 353.108394 
L 100.046682 353.191224 
L 105.905071 353.041142 
L 111.763461 353.22314 
L 141.055407 353.2239 
L 146.913796 352.940833 
L 152.772185 353.183245 
L 158.630575 352.985668 
L 170.347353 353.202622 
L 182.064132 353.22314 
L 187.922521 353.131951 
L 199.639299 353.2239 
L 351.95742 353.223516 
L 949.513125 353.2239 
L 949.513125 353.2239 
" style="fill:none;stroke:#f15c80;stroke-linecap:square;"/>
   </g>
   <g id="line2d_103">
    <path clip-path="url(#pe1428c3d6b)" d="M 32.968125 353.2239 
L 993.158125 353.2239 
" style="fill:none;stroke:#dedede;stroke-linecap:square;stroke-width:2;"/>
   </g>
   <g id="text_17">
    <!-- Fastp: Read N Content -->
    <defs>
     <path d="M 9.8125 72.90625 
L 51.703125 72.90625 
L 51.703125 64.59375 
L 19.671875 64.59375 
L 19.671875 43.109375 
L 48.578125 43.109375 
L 48.578125 34.8125 
L 19.671875 34.8125 
L 19.671875 0 
L 9.8125 0 
z
" id="DejaVuSans-70"/>
     <path d="M 18.109375 8.203125 
L 18.109375 -20.796875 
L 9.078125 -20.796875 
L 9.078125 54.6875 
L 18.109375 54.6875 
L 18.109375 46.390625 
Q 20.953125 51.265625 25.265625 53.625 
Q 29.59375 56 35.59375 56 
Q 45.5625 56 51.78125 48.09375 
Q 58.015625 40.1875 58.015625 27.296875 
Q 58.015625 14.40625 51.78125 6.484375 
Q 45.5625 -1.421875 35.59375 -1.421875 
Q 29.59375 -1.421875 25.265625 0.953125 
Q 20.953125 3.328125 18.109375 8.203125 
z
M 48.6875 27.296875 
Q 48.6875 37.203125 44.609375 42.84375 
Q 40.53125 48.484375 33.40625 48.484375 
Q 26.265625 48.484375 22.1875 42.84375 
Q 18.109375 37.203125 18.109375 27.296875 
Q 18.109375 17.390625 22.1875 11.75 
Q 26.265625 6.109375 33.40625 6.109375 
Q 40.53125 6.109375 44.609375 11.75 
Q 48.6875 17.390625 48.6875 27.296875 
z
" id="DejaVuSans-112"/>
     <path d="M 9.8125 72.90625 
L 23.09375 72.90625 
L 55.421875 11.921875 
L 55.421875 72.90625 
L 64.984375 72.90625 
L 64.984375 0 
L 51.703125 0 
L 19.390625 60.984375 
L 19.390625 0 
L 9.8125 0 
z
" id="DejaVuSans-78"/>
    </defs>
    <g transform="translate(422.606875 19.3575)scale(0.16 -0.16)">
     <use xlink:href="#DejaVuSans-70"/>
     <use x="57.378906" xlink:href="#DejaVuSans-97"/>
     <use x="118.658203" xlink:href="#DejaVuSans-115"/>
     <use x="170.757812" xlink:href="#DejaVuSans-116"/>
     <use x="209.966797" xlink:href="#DejaVuSans-112"/>
     <use x="273.443359" xlink:href="#DejaVuSans-58"/>
     <use x="307.134766" xlink:href="#DejaVuSans-32"/>
     <use x="338.921875" xlink:href="#DejaVuSans-82"/>
     <use x="408.341797" xlink:href="#DejaVuSans-101"/>
     <use x="469.865234" xlink:href="#DejaVuSans-97"/>
     <use x="531.144531" xlink:href="#DejaVuSans-100"/>
     <use x="594.621094" xlink:href="#DejaVuSans-32"/>
     <use x="626.408203" xlink:href="#DejaVuSans-78"/>
     <use x="701.212891" xlink:href="#DejaVuSans-32"/>
     <use x="733" xlink:href="#DejaVuSans-67"/>
     <use x="802.824219" xlink:href="#DejaVuSans-111"/>
     <use x="864.005859" xlink:href="#DejaVuSans-110"/>
     <use x="927.384766" xlink:href="#DejaVuSans-116"/>
     <use x="966.59375" xlink:href="#DejaVuSans-101"/>
     <use x="1028.117188" xlink:href="#DejaVuSans-110"/>
     <use x="1091.496094" xlink:href="#DejaVuSans-116"/>
    </g>
   </g>
  </g>
 </g>
 <defs>
  <clipPath id="pe1428c3d6b">
   <rect height="317.968" width="960.19" x="32.968125" y="35.2559"/>
  </clipPath>
 </defs>
</svg>
