<?xml version="1.0" encoding="utf-8" standalone="no"?>
<!DOCTYPE svg PUBLIC "-//W3C//DTD SVG 1.1//EN"
  "http://www.w3.org/Graphics/SVG/1.1/DTD/svg11.dtd">
<!-- Created with matplotlib (https://matplotlib.org/) -->
<svg height="388.844525pt" version="1.1" viewBox="0 0 1000.278125 388.844525" width="1000.278125pt" xmlns="http://www.w3.org/2000/svg" xmlns:xlink="http://www.w3.org/1999/xlink">
 <defs>
  <style type="text/css">
*{stroke-linecap:butt;stroke-linejoin:round;}
  </style>
 </defs>
 <g id="figure_1">
  <g id="axes_1">
   <g id="patch_1">
    <path d="M 43.148125 353.2239 
L 993.078125 353.2239 
L 993.078125 35.2559 
L 43.148125 35.2559 
z
" style="fill:#ffffff;"/>
   </g>
   <g id="matplotlib.axis_1">
    <g id="xtick_1">
     <g id="text_1">
      <!-- 0 -->
      <defs>
       <path d="M 31.78125 66.40625 
Q 24.171875 66.40625 20.328125 58.90625 
Q 16.5 51.421875 16.5 36.375 
Q 16.5 21.390625 20.328125 13.890625 
Q 24.171875 6.390625 31.78125 6.390625 
Q 39.453125 6.390625 43.28125 13.890625 
Q 47.125 21.390625 47.125 36.375 
Q 47.125 51.421875 43.28125 58.90625 
Q 39.453125 66.40625 31.78125 66.40625 
z
M 31.78125 74.21875 
Q 44.046875 74.21875 50.515625 64.515625 
Q 56.984375 54.828125 56.984375 36.375 
Q 56.984375 17.96875 50.515625 8.265625 
Q 44.046875 -1.421875 31.78125 -1.421875 
Q 19.53125 -1.421875 13.0625 8.265625 
Q 6.59375 17.96875 6.59375 36.375 
Q 6.59375 54.828125 13.0625 64.515625 
Q 19.53125 74.21875 31.78125 74.21875 
z
" id="DejaVuSans-48"/>
      </defs>
      <g transform="translate(54.996004 366.30265)scale(0.08 -0.08)">
       <use xlink:href="#DejaVuSans-48"/>
      </g>
     </g>
    </g>
    <g id="xtick_2">
     <g id="text_2">
      <!-- 5 -->
      <defs>
       <path d="M 10.796875 72.90625 
L 49.515625 72.90625 
L 49.515625 64.59375 
L 19.828125 64.59375 
L 19.828125 46.734375 
Q 21.96875 47.46875 24.109375 47.828125 
Q 26.265625 48.1875 28.421875 48.1875 
Q 40.625 48.1875 47.75 41.5 
Q 54.890625 34.8125 54.890625 23.390625 
Q 54.890625 11.625 47.5625 5.09375 
Q 40.234375 -1.421875 26.90625 -1.421875 
Q 22.3125 -1.421875 17.546875 -0.640625 
Q 12.796875 0.140625 7.71875 1.703125 
L 7.71875 11.625 
Q 12.109375 9.234375 16.796875 8.0625 
Q 21.484375 6.890625 26.703125 6.890625 
Q 35.15625 6.890625 40.078125 11.328125 
Q 45.015625 15.765625 45.015625 23.390625 
Q 45.015625 31 40.078125 35.4375 
Q 35.15625 39.890625 26.703125 39.890625 
Q 22.75 39.890625 18.8125 39.015625 
Q 14.890625 38.140625 10.796875 36.28125 
z
" id="DejaVuSans-53"/>
      </defs>
      <g transform="translate(198.924792 366.30265)scale(0.08 -0.08)">
       <use xlink:href="#DejaVuSans-53"/>
      </g>
     </g>
    </g>
    <g id="xtick_3">
     <g id="text_3">
      <!-- 10 -->
      <defs>
       <path d="M 12.40625 8.296875 
L 28.515625 8.296875 
L 28.515625 63.921875 
L 10.984375 60.40625 
L 10.984375 69.390625 
L 28.421875 72.90625 
L 38.28125 72.90625 
L 38.28125 8.296875 
L 54.390625 8.296875 
L 54.390625 0 
L 12.40625 0 
z
" id="DejaVuSans-49"/>
      </defs>
      <g transform="translate(340.30858 366.30265)scale(0.08 -0.08)">
       <use xlink:href="#DejaVuSans-49"/>
       <use x="63.623047" xlink:href="#DejaVuSans-48"/>
      </g>
     </g>
    </g>
    <g id="xtick_4">
     <g id="text_4">
      <!-- 15 -->
      <g transform="translate(484.237367 366.30265)scale(0.08 -0.08)">
       <use xlink:href="#DejaVuSans-49"/>
       <use x="63.623047" xlink:href="#DejaVuSans-53"/>
      </g>
     </g>
    </g>
    <g id="xtick_5">
     <g id="text_5">
      <!-- 20 -->
      <defs>
       <path d="M 19.1875 8.296875 
L 53.609375 8.296875 
L 53.609375 0 
L 7.328125 0 
L 7.328125 8.296875 
Q 12.9375 14.109375 22.625 23.890625 
Q 32.328125 33.6875 34.8125 36.53125 
Q 39.546875 41.84375 41.421875 45.53125 
Q 43.3125 49.21875 43.3125 52.78125 
Q 43.3125 58.59375 39.234375 62.25 
Q 35.15625 65.921875 28.609375 65.921875 
Q 23.96875 65.921875 18.8125 64.3125 
Q 13.671875 62.703125 7.8125 59.421875 
L 7.8125 69.390625 
Q 13.765625 71.78125 18.9375 73 
Q 24.125 74.21875 28.421875 74.21875 
Q 39.75 74.21875 46.484375 68.546875 
Q 53.21875 62.890625 53.21875 53.421875 
Q 53.21875 48.921875 51.53125 44.890625 
Q 49.859375 40.875 45.40625 35.40625 
Q 44.1875 33.984375 37.640625 27.21875 
Q 31.109375 20.453125 19.1875 8.296875 
z
" id="DejaVuSans-50"/>
      </defs>
      <g transform="translate(628.166155 366.30265)scale(0.08 -0.08)">
       <use xlink:href="#DejaVuSans-50"/>
       <use x="63.623047" xlink:href="#DejaVuSans-48"/>
      </g>
     </g>
    </g>
    <g id="xtick_6">
     <g id="text_6">
      <!-- 25 -->
      <g transform="translate(772.094943 366.30265)scale(0.08 -0.08)">
       <use xlink:href="#DejaVuSans-50"/>
       <use x="63.623047" xlink:href="#DejaVuSans-53"/>
      </g>
     </g>
    </g>
    <g id="xtick_7">
     <g id="text_7">
      <!-- 30 -->
      <defs>
       <path d="M 40.578125 39.3125 
Q 47.65625 37.796875 51.625 33 
Q 55.609375 28.21875 55.609375 21.1875 
Q 55.609375 10.40625 48.1875 4.484375 
Q 40.765625 -1.421875 27.09375 -1.421875 
Q 22.515625 -1.421875 17.65625 -0.515625 
Q 12.796875 0.390625 7.625 2.203125 
L 7.625 11.71875 
Q 11.71875 9.328125 16.59375 8.109375 
Q 21.484375 6.890625 26.8125 6.890625 
Q 36.078125 6.890625 40.9375 10.546875 
Q 45.796875 14.203125 45.796875 21.1875 
Q 45.796875 27.640625 41.28125 31.265625 
Q 36.765625 34.90625 28.71875 34.90625 
L 20.21875 34.90625 
L 20.21875 43.015625 
L 29.109375 43.015625 
Q 36.375 43.015625 40.234375 45.921875 
Q 44.09375 48.828125 44.09375 54.296875 
Q 44.09375 59.90625 40.109375 62.90625 
Q 36.140625 65.921875 28.71875 65.921875 
Q 24.65625 65.921875 20.015625 65.03125 
Q 15.375 64.15625 9.8125 62.3125 
L 9.8125 71.09375 
Q 15.4375 72.65625 20.34375 73.4375 
Q 25.25 74.21875 29.59375 74.21875 
Q 40.828125 74.21875 47.359375 69.109375 
Q 53.90625 64.015625 53.90625 55.328125 
Q 53.90625 49.265625 50.4375 45.09375 
Q 46.96875 40.921875 40.578125 39.3125 
z
" id="DejaVuSans-51"/>
      </defs>
      <g transform="translate(916.023731 366.30265)scale(0.08 -0.08)">
       <use xlink:href="#DejaVuSans-51"/>
       <use x="63.623047" xlink:href="#DejaVuSans-48"/>
      </g>
     </g>
    </g>
    <g id="text_8">
     <!-- Duplication level -->
     <defs>
      <path d="M 19.671875 64.796875 
L 19.671875 8.109375 
L 31.59375 8.109375 
Q 46.6875 8.109375 53.6875 14.9375 
Q 60.6875 21.78125 60.6875 36.53125 
Q 60.6875 51.171875 53.6875 57.984375 
Q 46.6875 64.796875 31.59375 64.796875 
z
M 9.8125 72.90625 
L 30.078125 72.90625 
Q 51.265625 72.90625 61.171875 64.09375 
Q 71.09375 55.28125 71.09375 36.53125 
Q 71.09375 17.671875 61.125 8.828125 
Q 51.171875 0 30.078125 0 
L 9.8125 0 
z
" id="DejaVuSans-68"/>
      <path d="M 8.5 21.578125 
L 8.5 54.6875 
L 17.484375 54.6875 
L 17.484375 21.921875 
Q 17.484375 14.15625 20.5 10.265625 
Q 23.53125 6.390625 29.59375 6.390625 
Q 36.859375 6.390625 41.078125 11.03125 
Q 45.3125 15.671875 45.3125 23.6875 
L 45.3125 54.6875 
L 54.296875 54.6875 
L 54.296875 0 
L 45.3125 0 
L 45.3125 8.40625 
Q 42.046875 3.421875 37.71875 1 
Q 33.40625 -1.421875 27.6875 -1.421875 
Q 18.265625 -1.421875 13.375 4.4375 
Q 8.5 10.296875 8.5 21.578125 
z
M 31.109375 56 
z
" id="DejaVuSans-117"/>
      <path d="M 18.109375 8.203125 
L 18.109375 -20.796875 
L 9.078125 -20.796875 
L 9.078125 54.6875 
L 18.109375 54.6875 
L 18.109375 46.390625 
Q 20.953125 51.265625 25.265625 53.625 
Q 29.59375 56 35.59375 56 
Q 45.5625 56 51.78125 48.09375 
Q 58.015625 40.1875 58.015625 27.296875 
Q 58.015625 14.40625 51.78125 6.484375 
Q 45.5625 -1.421875 35.59375 -1.421875 
Q 29.59375 -1.421875 25.265625 0.953125 
Q 20.953125 3.328125 18.109375 8.203125 
z
M 48.6875 27.296875 
Q 48.6875 37.203125 44.609375 42.84375 
Q 40.53125 48.484375 33.40625 48.484375 
Q 26.265625 48.484375 22.1875 42.84375 
Q 18.109375 37.203125 18.109375 27.296875 
Q 18.109375 17.390625 22.1875 11.75 
Q 26.265625 6.109375 33.40625 6.109375 
Q 40.53125 6.109375 44.609375 11.75 
Q 48.6875 17.390625 48.6875 27.296875 
z
" id="DejaVuSans-112"/>
      <path d="M 9.421875 75.984375 
L 18.40625 75.984375 
L 18.40625 0 
L 9.421875 0 
z
" id="DejaVuSans-108"/>
      <path d="M 9.421875 54.6875 
L 18.40625 54.6875 
L 18.40625 0 
L 9.421875 0 
z
M 9.421875 75.984375 
L 18.40625 75.984375 
L 18.40625 64.59375 
L 9.421875 64.59375 
z
" id="DejaVuSans-105"/>
      <path d="M 48.78125 52.59375 
L 48.78125 44.1875 
Q 44.96875 46.296875 41.140625 47.34375 
Q 37.3125 48.390625 33.40625 48.390625 
Q 24.65625 48.390625 19.8125 42.84375 
Q 14.984375 37.3125 14.984375 27.296875 
Q 14.984375 17.28125 19.8125 11.734375 
Q 24.65625 6.203125 33.40625 6.203125 
Q 37.3125 6.203125 41.140625 7.25 
Q 44.96875 8.296875 48.78125 10.40625 
L 48.78125 2.09375 
Q 45.015625 0.34375 40.984375 -0.53125 
Q 36.96875 -1.421875 32.421875 -1.421875 
Q 20.0625 -1.421875 12.78125 6.34375 
Q 5.515625 14.109375 5.515625 27.296875 
Q 5.515625 40.671875 12.859375 48.328125 
Q 20.21875 56 33.015625 56 
Q 37.15625 56 41.109375 55.140625 
Q 45.0625 54.296875 48.78125 52.59375 
z
" id="DejaVuSans-99"/>
      <path d="M 34.28125 27.484375 
Q 23.390625 27.484375 19.1875 25 
Q 14.984375 22.515625 14.984375 16.5 
Q 14.984375 11.71875 18.140625 8.90625 
Q 21.296875 6.109375 26.703125 6.109375 
Q 34.1875 6.109375 38.703125 11.40625 
Q 43.21875 16.703125 43.21875 25.484375 
L 43.21875 27.484375 
z
M 52.203125 31.203125 
L 52.203125 0 
L 43.21875 0 
L 43.21875 8.296875 
Q 40.140625 3.328125 35.546875 0.953125 
Q 30.953125 -1.421875 24.3125 -1.421875 
Q 15.921875 -1.421875 10.953125 3.296875 
Q 6 8.015625 6 15.921875 
Q 6 25.140625 12.171875 29.828125 
Q 18.359375 34.515625 30.609375 34.515625 
L 43.21875 34.515625 
L 43.21875 35.40625 
Q 43.21875 41.609375 39.140625 45 
Q 35.0625 48.390625 27.6875 48.390625 
Q 23 48.390625 18.546875 47.265625 
Q 14.109375 46.140625 10.015625 43.890625 
L 10.015625 52.203125 
Q 14.9375 54.109375 19.578125 55.046875 
Q 24.21875 56 28.609375 56 
Q 40.484375 56 46.34375 49.84375 
Q 52.203125 43.703125 52.203125 31.203125 
z
" id="DejaVuSans-97"/>
      <path d="M 18.3125 70.21875 
L 18.3125 54.6875 
L 36.8125 54.6875 
L 36.8125 47.703125 
L 18.3125 47.703125 
L 18.3125 18.015625 
Q 18.3125 11.328125 20.140625 9.421875 
Q 21.96875 7.515625 27.59375 7.515625 
L 36.8125 7.515625 
L 36.8125 0 
L 27.59375 0 
Q 17.1875 0 13.234375 3.875 
Q 9.28125 7.765625 9.28125 18.015625 
L 9.28125 47.703125 
L 2.6875 47.703125 
L 2.6875 54.6875 
L 9.28125 54.6875 
L 9.28125 70.21875 
z
" id="DejaVuSans-116"/>
      <path d="M 30.609375 48.390625 
Q 23.390625 48.390625 19.1875 42.75 
Q 14.984375 37.109375 14.984375 27.296875 
Q 14.984375 17.484375 19.15625 11.84375 
Q 23.34375 6.203125 30.609375 6.203125 
Q 37.796875 6.203125 41.984375 11.859375 
Q 46.1875 17.53125 46.1875 27.296875 
Q 46.1875 37.015625 41.984375 42.703125 
Q 37.796875 48.390625 30.609375 48.390625 
z
M 30.609375 56 
Q 42.328125 56 49.015625 48.375 
Q 55.71875 40.765625 55.71875 27.296875 
Q 55.71875 13.875 49.015625 6.21875 
Q 42.328125 -1.421875 30.609375 -1.421875 
Q 18.84375 -1.421875 12.171875 6.21875 
Q 5.515625 13.875 5.515625 27.296875 
Q 5.515625 40.765625 12.171875 48.375 
Q 18.84375 56 30.609375 56 
z
" id="DejaVuSans-111"/>
      <path d="M 54.890625 33.015625 
L 54.890625 0 
L 45.90625 0 
L 45.90625 32.71875 
Q 45.90625 40.484375 42.875 44.328125 
Q 39.84375 48.1875 33.796875 48.1875 
Q 26.515625 48.1875 22.3125 43.546875 
Q 18.109375 38.921875 18.109375 30.90625 
L 18.109375 0 
L 9.078125 0 
L 9.078125 54.6875 
L 18.109375 54.6875 
L 18.109375 46.1875 
Q 21.34375 51.125 25.703125 53.5625 
Q 30.078125 56 35.796875 56 
Q 45.21875 56 50.046875 50.171875 
Q 54.890625 44.34375 54.890625 33.015625 
z
" id="DejaVuSans-110"/>
      <path id="DejaVuSans-32"/>
      <path d="M 56.203125 29.59375 
L 56.203125 25.203125 
L 14.890625 25.203125 
Q 15.484375 15.921875 20.484375 11.0625 
Q 25.484375 6.203125 34.421875 6.203125 
Q 39.59375 6.203125 44.453125 7.46875 
Q 49.3125 8.734375 54.109375 11.28125 
L 54.109375 2.78125 
Q 49.265625 0.734375 44.1875 -0.34375 
Q 39.109375 -1.421875 33.890625 -1.421875 
Q 20.796875 -1.421875 13.15625 6.1875 
Q 5.515625 13.8125 5.515625 26.8125 
Q 5.515625 40.234375 12.765625 48.109375 
Q 20.015625 56 32.328125 56 
Q 43.359375 56 49.78125 48.890625 
Q 56.203125 41.796875 56.203125 29.59375 
z
M 47.21875 32.234375 
Q 47.125 39.59375 43.09375 43.984375 
Q 39.0625 48.390625 32.421875 48.390625 
Q 24.90625 48.390625 20.390625 44.140625 
Q 15.875 39.890625 15.1875 32.171875 
z
" id="DejaVuSans-101"/>
      <path d="M 2.984375 54.6875 
L 12.5 54.6875 
L 29.59375 8.796875 
L 46.6875 54.6875 
L 56.203125 54.6875 
L 35.6875 0 
L 23.484375 0 
z
" id="DejaVuSans-118"/>
     </defs>
     <g transform="translate(476.271719 379.564837)scale(0.1 -0.1)">
      <use xlink:href="#DejaVuSans-68"/>
      <use x="77.001953" xlink:href="#DejaVuSans-117"/>
      <use x="140.380859" xlink:href="#DejaVuSans-112"/>
      <use x="203.857422" xlink:href="#DejaVuSans-108"/>
      <use x="231.640625" xlink:href="#DejaVuSans-105"/>
      <use x="259.423828" xlink:href="#DejaVuSans-99"/>
      <use x="314.404297" xlink:href="#DejaVuSans-97"/>
      <use x="375.683594" xlink:href="#DejaVuSans-116"/>
      <use x="414.892578" xlink:href="#DejaVuSans-105"/>
      <use x="442.675781" xlink:href="#DejaVuSans-111"/>
      <use x="503.857422" xlink:href="#DejaVuSans-110"/>
      <use x="567.236328" xlink:href="#DejaVuSans-32"/>
      <use x="599.023438" xlink:href="#DejaVuSans-108"/>
      <use x="626.806641" xlink:href="#DejaVuSans-101"/>
      <use x="688.330078" xlink:href="#DejaVuSans-118"/>
      <use x="747.509766" xlink:href="#DejaVuSans-101"/>
      <use x="809.033203" xlink:href="#DejaVuSans-108"/>
     </g>
    </g>
   </g>
   <g id="matplotlib.axis_2">
    <g id="ytick_1">
     <g id="line2d_1">
      <path clip-path="url(#p8aae0482cf)" d="M 43.148125 353.2239 
L 993.078125 353.2239 
" style="fill:none;stroke:#dedede;stroke-linecap:square;"/>
     </g>
     <g id="text_9">
      <!-- 0 -->
      <g transform="translate(31.058125 356.263275)scale(0.08 -0.08)">
       <use xlink:href="#DejaVuSans-48"/>
      </g>
     </g>
    </g>
    <g id="ytick_2">
     <g id="line2d_2">
      <path clip-path="url(#p8aae0482cf)" d="M 43.148125 289.6303 
L 993.078125 289.6303 
" style="fill:none;stroke:#dedede;stroke-linecap:square;"/>
     </g>
     <g id="text_10">
      <!-- 20 -->
      <g transform="translate(25.968125 292.669675)scale(0.08 -0.08)">
       <use xlink:href="#DejaVuSans-50"/>
       <use x="63.623047" xlink:href="#DejaVuSans-48"/>
      </g>
     </g>
    </g>
    <g id="ytick_3">
     <g id="line2d_3">
      <path clip-path="url(#p8aae0482cf)" d="M 43.148125 226.0367 
L 993.078125 226.0367 
" style="fill:none;stroke:#dedede;stroke-linecap:square;"/>
     </g>
     <g id="text_11">
      <!-- 40 -->
      <defs>
       <path d="M 37.796875 64.3125 
L 12.890625 25.390625 
L 37.796875 25.390625 
z
M 35.203125 72.90625 
L 47.609375 72.90625 
L 47.609375 25.390625 
L 58.015625 25.390625 
L 58.015625 17.1875 
L 47.609375 17.1875 
L 47.609375 0 
L 37.796875 0 
L 37.796875 17.1875 
L 4.890625 17.1875 
L 4.890625 26.703125 
z
" id="DejaVuSans-52"/>
      </defs>
      <g transform="translate(25.968125 229.076075)scale(0.08 -0.08)">
       <use xlink:href="#DejaVuSans-52"/>
       <use x="63.623047" xlink:href="#DejaVuSans-48"/>
      </g>
     </g>
    </g>
    <g id="ytick_4">
     <g id="line2d_4">
      <path clip-path="url(#p8aae0482cf)" d="M 43.148125 162.4431 
L 993.078125 162.4431 
" style="fill:none;stroke:#dedede;stroke-linecap:square;"/>
     </g>
     <g id="text_12">
      <!-- 60 -->
      <defs>
       <path d="M 33.015625 40.375 
Q 26.375 40.375 22.484375 35.828125 
Q 18.609375 31.296875 18.609375 23.390625 
Q 18.609375 15.53125 22.484375 10.953125 
Q 26.375 6.390625 33.015625 6.390625 
Q 39.65625 6.390625 43.53125 10.953125 
Q 47.40625 15.53125 47.40625 23.390625 
Q 47.40625 31.296875 43.53125 35.828125 
Q 39.65625 40.375 33.015625 40.375 
z
M 52.59375 71.296875 
L 52.59375 62.3125 
Q 48.875 64.0625 45.09375 64.984375 
Q 41.3125 65.921875 37.59375 65.921875 
Q 27.828125 65.921875 22.671875 59.328125 
Q 17.53125 52.734375 16.796875 39.40625 
Q 19.671875 43.65625 24.015625 45.921875 
Q 28.375 48.1875 33.59375 48.1875 
Q 44.578125 48.1875 50.953125 41.515625 
Q 57.328125 34.859375 57.328125 23.390625 
Q 57.328125 12.15625 50.6875 5.359375 
Q 44.046875 -1.421875 33.015625 -1.421875 
Q 20.359375 -1.421875 13.671875 8.265625 
Q 6.984375 17.96875 6.984375 36.375 
Q 6.984375 53.65625 15.1875 63.9375 
Q 23.390625 74.21875 37.203125 74.21875 
Q 40.921875 74.21875 44.703125 73.484375 
Q 48.484375 72.75 52.59375 71.296875 
z
" id="DejaVuSans-54"/>
      </defs>
      <g transform="translate(25.968125 165.482475)scale(0.08 -0.08)">
       <use xlink:href="#DejaVuSans-54"/>
       <use x="63.623047" xlink:href="#DejaVuSans-48"/>
      </g>
     </g>
    </g>
    <g id="ytick_5">
     <g id="line2d_5">
      <path clip-path="url(#p8aae0482cf)" d="M 43.148125 98.8495 
L 993.078125 98.8495 
" style="fill:none;stroke:#dedede;stroke-linecap:square;"/>
     </g>
     <g id="text_13">
      <!-- 80 -->
      <defs>
       <path d="M 31.78125 34.625 
Q 24.75 34.625 20.71875 30.859375 
Q 16.703125 27.09375 16.703125 20.515625 
Q 16.703125 13.921875 20.71875 10.15625 
Q 24.75 6.390625 31.78125 6.390625 
Q 38.8125 6.390625 42.859375 10.171875 
Q 46.921875 13.96875 46.921875 20.515625 
Q 46.921875 27.09375 42.890625 30.859375 
Q 38.875 34.625 31.78125 34.625 
z
M 21.921875 38.8125 
Q 15.578125 40.375 12.03125 44.71875 
Q 8.5 49.078125 8.5 55.328125 
Q 8.5 64.0625 14.71875 69.140625 
Q 20.953125 74.21875 31.78125 74.21875 
Q 42.671875 74.21875 48.875 69.140625 
Q 55.078125 64.0625 55.078125 55.328125 
Q 55.078125 49.078125 51.53125 44.71875 
Q 48 40.375 41.703125 38.8125 
Q 48.828125 37.15625 52.796875 32.3125 
Q 56.78125 27.484375 56.78125 20.515625 
Q 56.78125 9.90625 50.3125 4.234375 
Q 43.84375 -1.421875 31.78125 -1.421875 
Q 19.734375 -1.421875 13.25 4.234375 
Q 6.78125 9.90625 6.78125 20.515625 
Q 6.78125 27.484375 10.78125 32.3125 
Q 14.796875 37.15625 21.921875 38.8125 
z
M 18.3125 54.390625 
Q 18.3125 48.734375 21.84375 45.5625 
Q 25.390625 42.390625 31.78125 42.390625 
Q 38.140625 42.390625 41.71875 45.5625 
Q 45.3125 48.734375 45.3125 54.390625 
Q 45.3125 60.0625 41.71875 63.234375 
Q 38.140625 66.40625 31.78125 66.40625 
Q 25.390625 66.40625 21.84375 63.234375 
Q 18.3125 60.0625 18.3125 54.390625 
z
" id="DejaVuSans-56"/>
      </defs>
      <g transform="translate(25.968125 101.888875)scale(0.08 -0.08)">
       <use xlink:href="#DejaVuSans-56"/>
       <use x="63.623047" xlink:href="#DejaVuSans-48"/>
      </g>
     </g>
    </g>
    <g id="ytick_6">
     <g id="line2d_6">
      <path clip-path="url(#p8aae0482cf)" d="M 43.148125 35.2559 
L 993.078125 35.2559 
" style="fill:none;stroke:#dedede;stroke-linecap:square;"/>
     </g>
     <g id="text_14">
      <!-- 100 -->
      <g transform="translate(20.878125 38.295275)scale(0.08 -0.08)">
       <use xlink:href="#DejaVuSans-49"/>
       <use x="63.623047" xlink:href="#DejaVuSans-48"/>
       <use x="127.246094" xlink:href="#DejaVuSans-48"/>
      </g>
     </g>
    </g>
    <g id="text_15">
     <!-- Read percent -->
     <defs>
      <path d="M 44.390625 34.1875 
Q 47.5625 33.109375 50.5625 29.59375 
Q 53.5625 26.078125 56.59375 19.921875 
L 66.609375 0 
L 56 0 
L 46.6875 18.703125 
Q 43.0625 26.03125 39.671875 28.421875 
Q 36.28125 30.8125 30.421875 30.8125 
L 19.671875 30.8125 
L 19.671875 0 
L 9.8125 0 
L 9.8125 72.90625 
L 32.078125 72.90625 
Q 44.578125 72.90625 50.734375 67.671875 
Q 56.890625 62.453125 56.890625 51.90625 
Q 56.890625 45.015625 53.6875 40.46875 
Q 50.484375 35.9375 44.390625 34.1875 
z
M 19.671875 64.796875 
L 19.671875 38.921875 
L 32.078125 38.921875 
Q 39.203125 38.921875 42.84375 42.21875 
Q 46.484375 45.515625 46.484375 51.90625 
Q 46.484375 58.296875 42.84375 61.546875 
Q 39.203125 64.796875 32.078125 64.796875 
z
" id="DejaVuSans-82"/>
      <path d="M 45.40625 46.390625 
L 45.40625 75.984375 
L 54.390625 75.984375 
L 54.390625 0 
L 45.40625 0 
L 45.40625 8.203125 
Q 42.578125 3.328125 38.25 0.953125 
Q 33.9375 -1.421875 27.875 -1.421875 
Q 17.96875 -1.421875 11.734375 6.484375 
Q 5.515625 14.40625 5.515625 27.296875 
Q 5.515625 40.1875 11.734375 48.09375 
Q 17.96875 56 27.875 56 
Q 33.9375 56 38.25 53.625 
Q 42.578125 51.265625 45.40625 46.390625 
z
M 14.796875 27.296875 
Q 14.796875 17.390625 18.875 11.75 
Q 22.953125 6.109375 30.078125 6.109375 
Q 37.203125 6.109375 41.296875 11.75 
Q 45.40625 17.390625 45.40625 27.296875 
Q 45.40625 37.203125 41.296875 42.84375 
Q 37.203125 48.484375 30.078125 48.484375 
Q 22.953125 48.484375 18.875 42.84375 
Q 14.796875 37.203125 14.796875 27.296875 
z
" id="DejaVuSans-100"/>
      <path d="M 41.109375 46.296875 
Q 39.59375 47.171875 37.8125 47.578125 
Q 36.03125 48 33.890625 48 
Q 26.265625 48 22.1875 43.046875 
Q 18.109375 38.09375 18.109375 28.8125 
L 18.109375 0 
L 9.078125 0 
L 9.078125 54.6875 
L 18.109375 54.6875 
L 18.109375 46.1875 
Q 20.953125 51.171875 25.484375 53.578125 
Q 30.03125 56 36.53125 56 
Q 37.453125 56 38.578125 55.875 
Q 39.703125 55.765625 41.0625 55.515625 
z
" id="DejaVuSans-114"/>
     </defs>
     <g transform="translate(14.798437 227.874275)rotate(-90)scale(0.1 -0.1)">
      <use xlink:href="#DejaVuSans-82"/>
      <use x="69.419922" xlink:href="#DejaVuSans-101"/>
      <use x="130.943359" xlink:href="#DejaVuSans-97"/>
      <use x="192.222656" xlink:href="#DejaVuSans-100"/>
      <use x="255.699219" xlink:href="#DejaVuSans-32"/>
      <use x="287.486328" xlink:href="#DejaVuSans-112"/>
      <use x="350.962891" xlink:href="#DejaVuSans-101"/>
      <use x="412.486328" xlink:href="#DejaVuSans-114"/>
      <use x="453.568359" xlink:href="#DejaVuSans-99"/>
      <use x="508.548828" xlink:href="#DejaVuSans-101"/>
      <use x="570.072266" xlink:href="#DejaVuSans-110"/>
      <use x="633.451172" xlink:href="#DejaVuSans-116"/>
     </g>
    </g>
   </g>
   <g id="line2d_7">
    <path clip-path="url(#p8aae0482cf)" d="M 86.326761 35.95964 
L 115.112519 352.527293 
L 143.898277 353.216768 
L 172.684034 353.2239 
L 201.469792 353.2239 
L 230.255549 353.2239 
L 259.041307 353.2239 
L 287.827064 353.2239 
L 316.612822 353.2239 
L 345.39858 353.2239 
L 374.184337 353.2239 
L 402.970095 353.2239 
L 431.755852 353.2239 
L 460.54161 353.2239 
L 489.327367 353.2239 
L 518.113125 353.2239 
L 546.898883 353.2239 
L 575.68464 353.2239 
L 604.470398 353.2239 
L 633.256155 353.2239 
L 662.041913 353.2239 
L 690.82767 353.2239 
L 719.613428 353.2239 
L 748.399186 353.2239 
L 777.184943 353.2239 
L 805.970701 353.2239 
L 834.756458 353.2239 
L 863.542216 353.2239 
L 892.327973 353.2239 
L 921.113731 353.2239 
L 949.899489 353.2239 
" style="fill:none;stroke:#7cb5ec;stroke-linecap:square;"/>
   </g>
   <g id="line2d_8">
    <path clip-path="url(#p8aae0482cf)" d="M 86.326761 43.133719 
L 115.112519 345.889569 
L 143.898277 352.730572 
L 172.684034 353.178701 
L 201.469792 353.219858 
L 230.255549 353.223165 
L 259.041307 353.223716 
L 287.827064 353.2239 
L 316.612822 353.2239 
L 345.39858 353.2239 
L 374.184337 353.2239 
L 402.970095 353.2239 
L 431.755852 353.2239 
L 460.54161 353.2239 
L 489.327367 353.2239 
L 518.113125 353.2239 
L 546.898883 353.2239 
L 575.68464 353.2239 
L 604.470398 353.2239 
L 633.256155 353.2239 
L 662.041913 353.2239 
L 690.82767 353.2239 
L 719.613428 353.2239 
L 748.399186 353.2239 
L 777.184943 353.2239 
L 805.970701 353.2239 
L 834.756458 353.2239 
L 863.542216 353.2239 
L 892.327973 353.2239 
L 921.113731 353.2239 
L 949.899489 353.2239 
" style="fill:none;stroke:#434348;stroke-linecap:square;"/>
   </g>
   <g id="line2d_9">
    <path clip-path="url(#p8aae0482cf)" d="M 86.326761 35.74855 
L 115.112519 352.733921 
L 143.898277 353.22134 
L 172.684034 353.223789 
L 201.469792 353.2239 
L 230.255549 353.2239 
L 259.041307 353.2239 
L 287.827064 353.2239 
L 316.612822 353.2239 
L 345.39858 353.2239 
L 374.184337 353.2239 
L 402.970095 353.2239 
L 431.755852 353.2239 
L 460.54161 353.2239 
L 489.327367 353.2239 
L 518.113125 353.2239 
L 546.898883 353.2239 
L 575.68464 353.2239 
L 604.470398 353.2239 
L 633.256155 353.2239 
L 662.041913 353.2239 
L 690.82767 353.2239 
L 719.613428 353.2239 
L 748.399186 353.2239 
L 777.184943 353.2239 
L 805.970701 353.2239 
L 834.756458 353.2239 
L 863.542216 353.2239 
L 892.327973 353.2239 
L 921.113731 353.2239 
L 949.899489 353.2239 
" style="fill:none;stroke:#90ed7d;stroke-linecap:square;"/>
   </g>
   <g id="line2d_10">
    <path clip-path="url(#p8aae0482cf)" d="M 86.326761 36.343013 
L 115.112519 352.150832 
L 143.898277 353.210171 
L 172.684034 353.223584 
L 201.469792 353.2239 
L 230.255549 353.2239 
L 259.041307 353.2239 
L 287.827064 353.2239 
L 316.612822 353.2239 
L 345.39858 353.2239 
L 374.184337 353.2239 
L 402.970095 353.2239 
L 431.755852 353.2239 
L 460.54161 353.2239 
L 489.327367 353.2239 
L 518.113125 353.2239 
L 546.898883 353.2239 
L 575.68464 353.2239 
L 604.470398 353.2239 
L 633.256155 353.2239 
L 662.041913 353.2239 
L 690.82767 353.2239 
L 719.613428 353.2239 
L 748.399186 353.2239 
L 777.184943 353.2239 
L 805.970701 353.2239 
L 834.756458 353.2239 
L 863.542216 353.2239 
L 892.327973 353.2239 
L 921.113731 353.2239 
L 949.899489 353.2239 
" style="fill:none;stroke:#f7a35c;stroke-linecap:square;"/>
   </g>
   <g id="line2d_11">
    <path clip-path="url(#p8aae0482cf)" d="M 86.326761 40.829102 
L 115.112519 347.919685 
L 143.898277 352.978322 
L 172.684034 353.203141 
L 201.469792 353.221692 
L 230.255549 353.223679 
L 259.041307 353.2239 
L 287.827064 353.2239 
L 316.612822 353.2239 
L 345.39858 353.223679 
L 374.184337 353.2239 
L 402.970095 353.2239 
L 431.755852 353.2239 
L 460.54161 353.2239 
L 489.327367 353.2239 
L 518.113125 353.2239 
L 546.898883 353.2239 
L 575.68464 353.2239 
L 604.470398 353.2239 
L 633.256155 353.2239 
L 662.041913 353.2239 
L 690.82767 353.2239 
L 719.613428 353.2239 
L 748.399186 353.2239 
L 777.184943 353.2239 
L 805.970701 353.2239 
L 834.756458 353.2239 
L 863.542216 353.2239 
L 892.327973 353.2239 
L 921.113731 353.2239 
L 949.899489 353.2239 
" style="fill:none;stroke:#8085e9;stroke-linecap:square;"/>
   </g>
   <g id="line2d_12">
    <path clip-path="url(#p8aae0482cf)" d="M 86.326761 37.037248 
L 115.112519 351.475282 
L 143.898277 353.192659 
L 172.684034 353.222538 
L 201.469792 353.223772 
L 230.255549 353.2239 
L 259.041307 353.2239 
L 287.827064 353.2239 
L 316.612822 353.2239 
L 345.39858 353.2239 
L 374.184337 353.2239 
L 402.970095 353.2239 
L 431.755852 353.2239 
L 460.54161 353.2239 
L 489.327367 353.2239 
L 518.113125 353.2239 
L 546.898883 353.2239 
L 575.68464 353.2239 
L 604.470398 353.2239 
L 633.256155 353.2239 
L 662.041913 353.2239 
L 690.82767 353.2239 
L 719.613428 353.2239 
L 748.399186 353.2239 
L 777.184943 353.2239 
L 805.970701 353.2239 
L 834.756458 353.2239 
L 863.542216 353.2239 
L 892.327973 353.2239 
L 921.113731 353.2239 
L 949.899489 353.2239 
" style="fill:none;stroke:#f15c80;stroke-linecap:square;"/>
   </g>
   <g id="line2d_13">
    <path clip-path="url(#p8aae0482cf)" d="M 86.326761 35.797148 
L 115.112519 352.685626 
L 143.898277 353.221101 
L 172.684034 353.223769 
L 201.469792 353.223856 
L 230.255549 353.2239 
L 259.041307 353.2239 
L 287.827064 353.2239 
L 316.612822 353.2239 
L 345.39858 353.2239 
L 374.184337 353.2239 
L 402.970095 353.2239 
L 431.755852 353.2239 
L 460.54161 353.2239 
L 489.327367 353.2239 
L 518.113125 353.2239 
L 546.898883 353.2239 
L 575.68464 353.2239 
L 604.470398 353.2239 
L 633.256155 353.2239 
L 662.041913 353.2239 
L 690.82767 353.2239 
L 719.613428 353.2239 
L 748.399186 353.2239 
L 777.184943 353.2239 
L 805.970701 353.2239 
L 834.756458 353.2239 
L 863.542216 353.2239 
L 892.327973 353.2239 
L 921.113731 353.2239 
L 949.899489 353.2239 
" style="fill:none;stroke:#e4d354;stroke-linecap:square;"/>
   </g>
   <g id="line2d_14">
    <path clip-path="url(#p8aae0482cf)" d="M 86.326761 36.913376 
L 115.112519 351.59749 
L 143.898277 353.194712 
L 172.684034 353.222022 
L 201.469792 353.2239 
L 230.255549 353.2239 
L 259.041307 353.2239 
L 287.827064 353.2239 
L 316.612822 353.2239 
L 345.39858 353.2239 
L 374.184337 353.2239 
L 402.970095 353.2239 
L 431.755852 353.2239 
L 460.54161 353.2239 
L 489.327367 353.2239 
L 518.113125 353.2239 
L 546.898883 353.2239 
L 575.68464 353.2239 
L 604.470398 353.2239 
L 633.256155 353.2239 
L 662.041913 353.2239 
L 690.82767 353.2239 
L 719.613428 353.2239 
L 748.399186 353.2239 
L 777.184943 353.2239 
L 805.970701 353.2239 
L 834.756458 353.2239 
L 863.542216 353.2239 
L 892.327973 353.2239 
L 921.113731 353.2239 
L 949.899489 353.2239 
" style="fill:none;stroke:#2b908f;stroke-linecap:square;"/>
   </g>
   <g id="line2d_15">
    <path clip-path="url(#p8aae0482cf)" d="M 86.326761 37.425519 
L 115.112519 351.09877 
L 143.898277 353.181167 
L 172.684034 353.222339 
L 201.469792 353.223705 
L 230.255549 353.2239 
L 259.041307 353.2239 
L 287.827064 353.2239 
L 316.612822 353.2239 
L 345.39858 353.2239 
L 374.184337 353.2239 
L 402.970095 353.2239 
L 431.755852 353.2239 
L 460.54161 353.2239 
L 489.327367 353.2239 
L 518.113125 353.2239 
L 546.898883 353.2239 
L 575.68464 353.2239 
L 604.470398 353.2239 
L 633.256155 353.2239 
L 662.041913 353.2239 
L 690.82767 353.2239 
L 719.613428 353.2239 
L 748.399186 353.2239 
L 777.184943 353.2239 
L 805.970701 353.2239 
L 834.756458 353.2239 
L 863.542216 353.2239 
L 892.327973 353.2239 
L 921.113731 353.2239 
L 949.899489 353.2239 
" style="fill:none;stroke:#f45b5b;stroke-linecap:square;"/>
   </g>
   <g id="line2d_16">
    <path clip-path="url(#p8aae0482cf)" d="M 86.326761 41.629665 
L 115.112519 347.160573 
L 143.898277 352.943777 
L 172.684034 353.198911 
L 201.469792 353.219312 
L 230.255549 353.223163 
L 259.041307 353.2239 
L 287.827064 353.2239 
L 316.612822 353.2239 
L 345.39858 353.2239 
L 374.184337 353.2239 
L 402.970095 353.2239 
L 431.755852 353.2239 
L 460.54161 353.2239 
L 489.327367 353.2239 
L 518.113125 353.2239 
L 546.898883 353.2239 
L 575.68464 353.2239 
L 604.470398 353.2239 
L 633.256155 353.2239 
L 662.041913 353.2239 
L 690.82767 353.2239 
L 719.613428 353.2239 
L 748.399186 353.2239 
L 777.184943 353.2239 
L 805.970701 353.2239 
L 834.756458 353.2239 
L 863.542216 353.2239 
L 892.327973 353.2239 
L 921.113731 353.2239 
L 949.899489 353.2239 
" style="fill:none;stroke:#91e8e1;stroke-linecap:square;"/>
   </g>
   <g id="line2d_17">
    <path clip-path="url(#p8aae0482cf)" d="M 86.326761 36.828175 
L 115.112519 351.677191 
L 143.898277 353.199406 
L 172.684034 353.222879 
L 201.469792 353.223849 
L 230.255549 353.2239 
L 259.041307 353.2239 
L 287.827064 353.2239 
L 316.612822 353.2239 
L 345.39858 353.2239 
L 374.184337 353.2239 
L 402.970095 353.2239 
L 431.755852 353.2239 
L 460.54161 353.2239 
L 489.327367 353.2239 
L 518.113125 353.2239 
L 546.898883 353.2239 
L 575.68464 353.2239 
L 604.470398 353.2239 
L 633.256155 353.2239 
L 662.041913 353.2239 
L 690.82767 353.2239 
L 719.613428 353.2239 
L 748.399186 353.2239 
L 777.184943 353.2239 
L 805.970701 353.2239 
L 834.756458 353.2239 
L 863.542216 353.2239 
L 892.327973 353.2239 
L 921.113731 353.2239 
L 949.899489 353.2239 
" style="fill:none;stroke:#7cb5ec;stroke-linecap:square;"/>
   </g>
   <g id="line2d_18">
    <path clip-path="url(#p8aae0482cf)" d="M 86.326761 35.336054 
L 115.112519 353.143746 
L 143.898277 353.2239 
L 172.684034 353.2239 
L 201.469792 353.2239 
L 230.255549 353.2239 
L 259.041307 353.2239 
L 287.827064 353.2239 
L 316.612822 353.2239 
L 345.39858 353.2239 
L 374.184337 353.2239 
L 402.970095 353.2239 
L 431.755852 353.2239 
L 460.54161 353.2239 
L 489.327367 353.2239 
L 518.113125 353.2239 
L 546.898883 353.2239 
L 575.68464 353.2239 
L 604.470398 353.2239 
L 633.256155 353.2239 
L 662.041913 353.2239 
L 690.82767 353.2239 
L 719.613428 353.2239 
L 748.399186 353.2239 
L 777.184943 353.2239 
L 805.970701 353.2239 
L 834.756458 353.2239 
L 863.542216 353.2239 
L 892.327973 353.2239 
L 921.113731 353.2239 
L 949.899489 353.2239 
" style="fill:none;stroke:#434348;stroke-linecap:square;"/>
   </g>
   <g id="line2d_19">
    <path clip-path="url(#p8aae0482cf)" d="M 86.326761 35.347081 
L 115.112519 353.132719 
L 143.898277 353.2239 
L 172.684034 353.2239 
L 201.469792 353.2239 
L 230.255549 353.2239 
L 259.041307 353.2239 
L 287.827064 353.2239 
L 316.612822 353.2239 
L 345.39858 353.2239 
L 374.184337 353.2239 
L 402.970095 353.2239 
L 431.755852 353.2239 
L 460.54161 353.2239 
L 489.327367 353.2239 
L 518.113125 353.2239 
L 546.898883 353.2239 
L 575.68464 353.2239 
L 604.470398 353.2239 
L 633.256155 353.2239 
L 662.041913 353.2239 
L 690.82767 353.2239 
L 719.613428 353.2239 
L 748.399186 353.2239 
L 777.184943 353.2239 
L 805.970701 353.2239 
L 834.756458 353.2239 
L 863.542216 353.2239 
L 892.327973 353.2239 
L 921.113731 353.2239 
L 949.899489 353.2239 
" style="fill:none;stroke:#90ed7d;stroke-linecap:square;"/>
   </g>
   <g id="line2d_20">
    <path clip-path="url(#p8aae0482cf)" d="M 86.326761 35.368214 
L 115.112519 353.111586 
L 143.898277 353.2239 
L 172.684034 353.2239 
L 201.469792 353.2239 
L 230.255549 353.2239 
L 259.041307 353.2239 
L 287.827064 353.2239 
L 316.612822 353.2239 
L 345.39858 353.2239 
L 374.184337 353.2239 
L 402.970095 353.2239 
L 431.755852 353.2239 
L 460.54161 353.2239 
L 489.327367 353.2239 
L 518.113125 353.2239 
L 546.898883 353.2239 
L 575.68464 353.2239 
L 604.470398 353.2239 
L 633.256155 353.2239 
L 662.041913 353.2239 
L 690.82767 353.2239 
L 719.613428 353.2239 
L 748.399186 353.2239 
L 777.184943 353.2239 
L 805.970701 353.2239 
L 834.756458 353.2239 
L 863.542216 353.2239 
L 892.327973 353.2239 
L 921.113731 353.2239 
L 949.899489 353.2239 
" style="fill:none;stroke:#f7a35c;stroke-linecap:square;"/>
   </g>
   <g id="line2d_21">
    <path clip-path="url(#p8aae0482cf)" d="M 86.326761 35.351724 
L 115.112519 353.128076 
L 143.898277 353.2239 
L 172.684034 353.2239 
L 201.469792 353.2239 
L 230.255549 353.2239 
L 259.041307 353.2239 
L 287.827064 353.2239 
L 316.612822 353.2239 
L 345.39858 353.2239 
L 374.184337 353.2239 
L 402.970095 353.2239 
L 431.755852 353.2239 
L 460.54161 353.2239 
L 489.327367 353.2239 
L 518.113125 353.2239 
L 546.898883 353.2239 
L 575.68464 353.2239 
L 604.470398 353.2239 
L 633.256155 353.2239 
L 662.041913 353.2239 
L 690.82767 353.2239 
L 719.613428 353.2239 
L 748.399186 353.2239 
L 777.184943 353.2239 
L 805.970701 353.2239 
L 834.756458 353.2239 
L 863.542216 353.2239 
L 892.327973 353.2239 
L 921.113731 353.2239 
L 949.899489 353.2239 
" style="fill:none;stroke:#8085e9;stroke-linecap:square;"/>
   </g>
   <g id="line2d_22">
    <path clip-path="url(#p8aae0482cf)" d="M 86.326761 35.382491 
L 115.112519 353.097309 
L 143.898277 353.2239 
L 172.684034 353.2239 
L 201.469792 353.2239 
L 230.255549 353.2239 
L 259.041307 353.2239 
L 287.827064 353.2239 
L 316.612822 353.2239 
L 345.39858 353.2239 
L 374.184337 353.2239 
L 402.970095 353.2239 
L 431.755852 353.2239 
L 460.54161 353.2239 
L 489.327367 353.2239 
L 518.113125 353.2239 
L 546.898883 353.2239 
L 575.68464 353.2239 
L 604.470398 353.2239 
L 633.256155 353.2239 
L 662.041913 353.2239 
L 690.82767 353.2239 
L 719.613428 353.2239 
L 748.399186 353.2239 
L 777.184943 353.2239 
L 805.970701 353.2239 
L 834.756458 353.2239 
L 863.542216 353.2239 
L 892.327973 353.2239 
L 921.113731 353.2239 
L 949.899489 353.2239 
" style="fill:none;stroke:#f15c80;stroke-linecap:square;"/>
   </g>
   <g id="line2d_23">
    <path clip-path="url(#p8aae0482cf)" d="M 86.326761 35.368825 
L 115.112519 353.110975 
L 143.898277 353.2239 
L 172.684034 353.2239 
L 201.469792 353.2239 
L 230.255549 353.2239 
L 259.041307 353.2239 
L 287.827064 353.2239 
L 316.612822 353.2239 
L 345.39858 353.2239 
L 374.184337 353.2239 
L 402.970095 353.2239 
L 431.755852 353.2239 
L 460.54161 353.2239 
L 489.327367 353.2239 
L 518.113125 353.2239 
L 546.898883 353.2239 
L 575.68464 353.2239 
L 604.470398 353.2239 
L 633.256155 353.2239 
L 662.041913 353.2239 
L 690.82767 353.2239 
L 719.613428 353.2239 
L 748.399186 353.2239 
L 777.184943 353.2239 
L 805.970701 353.2239 
L 834.756458 353.2239 
L 863.542216 353.2239 
L 892.327973 353.2239 
L 921.113731 353.2239 
L 949.899489 353.2239 
" style="fill:none;stroke:#e4d354;stroke-linecap:square;"/>
   </g>
   <g id="line2d_24">
    <path clip-path="url(#p8aae0482cf)" d="M 86.326761 35.412818 
L 115.112519 353.066982 
L 143.898277 353.2239 
L 172.684034 353.2239 
L 201.469792 353.2239 
L 230.255549 353.2239 
L 259.041307 353.2239 
L 287.827064 353.2239 
L 316.612822 353.2239 
L 345.39858 353.2239 
L 374.184337 353.2239 
L 402.970095 353.2239 
L 431.755852 353.2239 
L 460.54161 353.2239 
L 489.327367 353.2239 
L 518.113125 353.2239 
L 546.898883 353.2239 
L 575.68464 353.2239 
L 604.470398 353.2239 
L 633.256155 353.2239 
L 662.041913 353.2239 
L 690.82767 353.2239 
L 719.613428 353.2239 
L 748.399186 353.2239 
L 777.184943 353.2239 
L 805.970701 353.2239 
L 834.756458 353.2239 
L 863.542216 353.2239 
L 892.327973 353.2239 
L 921.113731 353.2239 
L 949.899489 353.2239 
" style="fill:none;stroke:#2b908f;stroke-linecap:square;"/>
   </g>
   <g id="line2d_25">
    <path clip-path="url(#p8aae0482cf)" d="M 86.326761 35.38573 
L 115.112519 353.09407 
L 143.898277 353.2239 
L 172.684034 353.2239 
L 201.469792 353.2239 
L 230.255549 353.2239 
L 259.041307 353.2239 
L 287.827064 353.2239 
L 316.612822 353.2239 
L 345.39858 353.2239 
L 374.184337 353.2239 
L 402.970095 353.2239 
L 431.755852 353.2239 
L 460.54161 353.2239 
L 489.327367 353.2239 
L 518.113125 353.2239 
L 546.898883 353.2239 
L 575.68464 353.2239 
L 604.470398 353.2239 
L 633.256155 353.2239 
L 662.041913 353.2239 
L 690.82767 353.2239 
L 719.613428 353.2239 
L 748.399186 353.2239 
L 777.184943 353.2239 
L 805.970701 353.2239 
L 834.756458 353.2239 
L 863.542216 353.2239 
L 892.327973 353.2239 
L 921.113731 353.2239 
L 949.899489 353.2239 
" style="fill:none;stroke:#f45b5b;stroke-linecap:square;"/>
   </g>
   <g id="line2d_26">
    <path clip-path="url(#p8aae0482cf)" d="M 86.326761 38.051523 
L 115.112519 350.502924 
L 143.898277 353.153688 
L 172.684034 353.219726 
L 201.469792 353.223672 
L 230.255549 353.223867 
L 259.041307 353.2239 
L 287.827064 353.2239 
L 316.612822 353.2239 
L 345.39858 353.2239 
L 374.184337 353.2239 
L 402.970095 353.2239 
L 431.755852 353.2239 
L 460.54161 353.2239 
L 489.327367 353.2239 
L 518.113125 353.2239 
L 546.898883 353.2239 
L 575.68464 353.2239 
L 604.470398 353.2239 
L 633.256155 353.2239 
L 662.041913 353.2239 
L 690.82767 353.2239 
L 719.613428 353.2239 
L 748.399186 353.2239 
L 777.184943 353.2239 
L 805.970701 353.2239 
L 834.756458 353.2239 
L 863.542216 353.2239 
L 892.327973 353.2239 
L 921.113731 353.2239 
L 949.899489 353.2239 
" style="fill:none;stroke:#91e8e1;stroke-linecap:square;"/>
   </g>
   <g id="line2d_27">
    <path clip-path="url(#p8aae0482cf)" d="M 86.326761 42.000409 
L 115.112519 346.906701 
L 143.898277 352.846928 
L 172.684034 353.180701 
L 201.469792 353.21784 
L 230.255549 353.22306 
L 259.041307 353.22366 
L 287.827064 353.2239 
L 316.612822 353.2239 
L 345.39858 353.2239 
L 374.184337 353.2239 
L 402.970095 353.2239 
L 431.755852 353.2239 
L 460.54161 353.2239 
L 489.327367 353.2239 
L 518.113125 353.2239 
L 546.898883 353.2239 
L 575.68464 353.2239 
L 604.470398 353.2239 
L 633.256155 353.2239 
L 662.041913 353.2239 
L 690.82767 353.2239 
L 719.613428 353.2239 
L 748.399186 353.2239 
L 777.184943 353.2239 
L 805.970701 353.2239 
L 834.756458 353.2239 
L 863.542216 353.2239 
L 892.327973 353.2239 
L 921.113731 353.2239 
L 949.899489 353.2239 
" style="fill:none;stroke:#7cb5ec;stroke-linecap:square;"/>
   </g>
   <g id="line2d_28">
    <path clip-path="url(#p8aae0482cf)" d="M 86.326761 38.013289 
L 115.112519 350.541545 
L 143.898277 353.15358 
L 172.684034 353.21952 
L 201.469792 353.223614 
L 230.255549 353.223852 
L 259.041307 353.2239 
L 287.827064 353.2239 
L 316.612822 353.2239 
L 345.39858 353.2239 
L 374.184337 353.2239 
L 402.970095 353.2239 
L 431.755852 353.2239 
L 460.54161 353.2239 
L 489.327367 353.2239 
L 518.113125 353.2239 
L 546.898883 353.2239 
L 575.68464 353.2239 
L 604.470398 353.2239 
L 633.256155 353.2239 
L 662.041913 353.2239 
L 690.82767 353.2239 
L 719.613428 353.2239 
L 748.399186 353.2239 
L 777.184943 353.2239 
L 805.970701 353.2239 
L 834.756458 353.2239 
L 863.542216 353.2239 
L 892.327973 353.2239 
L 921.113731 353.2239 
L 949.899489 353.2239 
" style="fill:none;stroke:#434348;stroke-linecap:square;"/>
   </g>
   <g id="line2d_29">
    <path clip-path="url(#p8aae0482cf)" d="M 86.326761 36.18472 
L 115.112519 352.306873 
L 143.898277 353.212527 
L 172.684034 353.223529 
L 201.469792 353.223851 
L 230.255549 353.2239 
L 259.041307 353.2239 
L 287.827064 353.2239 
L 316.612822 353.2239 
L 345.39858 353.2239 
L 374.184337 353.2239 
L 402.970095 353.2239 
L 431.755852 353.2239 
L 460.54161 353.2239 
L 489.327367 353.2239 
L 518.113125 353.2239 
L 546.898883 353.2239 
L 575.68464 353.2239 
L 604.470398 353.2239 
L 633.256155 353.2239 
L 662.041913 353.2239 
L 690.82767 353.2239 
L 719.613428 353.2239 
L 748.399186 353.2239 
L 777.184943 353.2239 
L 805.970701 353.2239 
L 834.756458 353.2239 
L 863.542216 353.2239 
L 892.327973 353.2239 
L 921.113731 353.2239 
L 949.899489 353.2239 
" style="fill:none;stroke:#90ed7d;stroke-linecap:square;"/>
   </g>
   <g id="line2d_30">
    <path clip-path="url(#p8aae0482cf)" d="M 86.326761 36.578726 
L 115.112519 351.919 
L 143.898277 353.206459 
L 172.684034 353.223416 
L 201.469792 353.2239 
L 230.255549 353.2239 
L 259.041307 353.2239 
L 287.827064 353.2239 
L 316.612822 353.2239 
L 345.39858 353.2239 
L 374.184337 353.2239 
L 402.970095 353.2239 
L 431.755852 353.2239 
L 460.54161 353.2239 
L 489.327367 353.2239 
L 518.113125 353.2239 
L 546.898883 353.2239 
L 575.68464 353.2239 
L 604.470398 353.2239 
L 633.256155 353.2239 
L 662.041913 353.2239 
L 690.82767 353.2239 
L 719.613428 353.2239 
L 748.399186 353.2239 
L 777.184943 353.2239 
L 805.970701 353.2239 
L 834.756458 353.2239 
L 863.542216 353.2239 
L 892.327973 353.2239 
L 921.113731 353.2239 
L 949.899489 353.2239 
" style="fill:none;stroke:#f7a35c;stroke-linecap:square;"/>
   </g>
   <g id="line2d_31">
    <path clip-path="url(#p8aae0482cf)" d="M 86.326761 36.635207 
L 115.112519 351.865127 
L 143.898277 353.204185 
L 172.684034 353.223131 
L 201.469792 353.22385 
L 230.255549 353.2239 
L 259.041307 353.2239 
L 287.827064 353.2239 
L 316.612822 353.2239 
L 345.39858 353.2239 
L 374.184337 353.2239 
L 402.970095 353.2239 
L 431.755852 353.2239 
L 460.54161 353.2239 
L 489.327367 353.2239 
L 518.113125 353.2239 
L 546.898883 353.2239 
L 575.68464 353.2239 
L 604.470398 353.2239 
L 633.256155 353.2239 
L 662.041913 353.2239 
L 690.82767 353.2239 
L 719.613428 353.2239 
L 748.399186 353.2239 
L 777.184943 353.2239 
L 805.970701 353.2239 
L 834.756458 353.2239 
L 863.542216 353.2239 
L 892.327973 353.2239 
L 921.113731 353.2239 
L 949.899489 353.2239 
" style="fill:none;stroke:#8085e9;stroke-linecap:square;"/>
   </g>
   <g id="line2d_32">
    <path clip-path="url(#p8aae0482cf)" d="M 86.326761 36.175402 
L 115.112519 352.315018 
L 143.898277 353.213637 
L 172.684034 353.223575 
L 201.469792 353.223868 
L 230.255549 353.2239 
L 259.041307 353.2239 
L 287.827064 353.2239 
L 316.612822 353.2239 
L 345.39858 353.2239 
L 374.184337 353.2239 
L 402.970095 353.2239 
L 431.755852 353.2239 
L 460.54161 353.2239 
L 489.327367 353.2239 
L 518.113125 353.2239 
L 546.898883 353.2239 
L 575.68464 353.2239 
L 604.470398 353.2239 
L 633.256155 353.2239 
L 662.041913 353.2239 
L 690.82767 353.2239 
L 719.613428 353.2239 
L 748.399186 353.2239 
L 777.184943 353.2239 
L 805.970701 353.2239 
L 834.756458 353.2239 
L 863.542216 353.2239 
L 892.327973 353.2239 
L 921.113731 353.2239 
L 949.899489 353.2239 
" style="fill:none;stroke:#f15c80;stroke-linecap:square;"/>
   </g>
   <g id="line2d_33">
    <path clip-path="url(#p8aae0482cf)" d="M 86.326761 35.733689 
L 115.112519 352.749414 
L 143.898277 353.220633 
L 172.684034 353.223864 
L 201.469792 353.2239 
L 230.255549 353.2239 
L 259.041307 353.2239 
L 287.827064 353.2239 
L 316.612822 353.2239 
L 345.39858 353.2239 
L 374.184337 353.2239 
L 402.970095 353.2239 
L 431.755852 353.2239 
L 460.54161 353.2239 
L 489.327367 353.2239 
L 518.113125 353.2239 
L 546.898883 353.2239 
L 575.68464 353.2239 
L 604.470398 353.2239 
L 633.256155 353.2239 
L 662.041913 353.2239 
L 690.82767 353.2239 
L 719.613428 353.2239 
L 748.399186 353.2239 
L 777.184943 353.2239 
L 805.970701 353.2239 
L 834.756458 353.2239 
L 863.542216 353.2239 
L 892.327973 353.2239 
L 921.113731 353.2239 
L 949.899489 353.2239 
" style="fill:none;stroke:#e4d354;stroke-linecap:square;"/>
   </g>
   <g id="line2d_34">
    <path clip-path="url(#p8aae0482cf)" d="M 86.326761 36.112293 
L 115.112519 352.375841 
L 143.898277 353.215787 
L 172.684034 353.22368 
L 201.469792 353.2239 
L 230.255549 353.2239 
L 259.041307 353.2239 
L 287.827064 353.2239 
L 316.612822 353.2239 
L 345.39858 353.2239 
L 374.184337 353.2239 
L 402.970095 353.2239 
L 431.755852 353.2239 
L 460.54161 353.2239 
L 489.327367 353.2239 
L 518.113125 353.2239 
L 546.898883 353.2239 
L 575.68464 353.2239 
L 604.470398 353.2239 
L 633.256155 353.2239 
L 662.041913 353.2239 
L 690.82767 353.2239 
L 719.613428 353.2239 
L 748.399186 353.2239 
L 777.184943 353.2239 
L 805.970701 353.2239 
L 834.756458 353.2239 
L 863.542216 353.2239 
L 892.327973 353.2239 
L 921.113731 353.2239 
L 949.899489 353.2239 
" style="fill:none;stroke:#2b908f;stroke-linecap:square;"/>
   </g>
   <g id="line2d_35">
    <path clip-path="url(#p8aae0482cf)" d="M 86.326761 36.297 
L 115.112519 352.194686 
L 143.898277 353.21238 
L 172.684034 353.223533 
L 201.469792 353.2239 
L 230.255549 353.2239 
L 259.041307 353.2239 
L 287.827064 353.2239 
L 316.612822 353.2239 
L 345.39858 353.2239 
L 374.184337 353.2239 
L 402.970095 353.2239 
L 431.755852 353.2239 
L 460.54161 353.2239 
L 489.327367 353.2239 
L 518.113125 353.2239 
L 546.898883 353.2239 
L 575.68464 353.2239 
L 604.470398 353.2239 
L 633.256155 353.2239 
L 662.041913 353.2239 
L 690.82767 353.2239 
L 719.613428 353.2239 
L 748.399186 353.2239 
L 777.184943 353.2239 
L 805.970701 353.2239 
L 834.756458 353.2239 
L 863.542216 353.2239 
L 892.327973 353.2239 
L 921.113731 353.2239 
L 949.899489 353.2239 
" style="fill:none;stroke:#f45b5b;stroke-linecap:square;"/>
   </g>
   <g id="line2d_36">
    <path clip-path="url(#p8aae0482cf)" d="M 86.326761 36.770333 
L 115.112519 351.736932 
L 143.898277 353.197717 
L 172.684034 353.222751 
L 201.469792 353.22382 
L 230.255549 353.2239 
L 259.041307 353.223873 
L 287.827064 353.223873 
L 316.612822 353.2239 
L 345.39858 353.2239 
L 374.184337 353.2239 
L 402.970095 353.2239 
L 431.755852 353.2239 
L 460.54161 353.2239 
L 489.327367 353.2239 
L 518.113125 353.2239 
L 546.898883 353.2239 
L 575.68464 353.2239 
L 604.470398 353.2239 
L 633.256155 353.2239 
L 662.041913 353.2239 
L 690.82767 353.2239 
L 719.613428 353.2239 
L 748.399186 353.2239 
L 777.184943 353.2239 
L 805.970701 353.2239 
L 834.756458 353.2239 
L 863.542216 353.2239 
L 892.327973 353.2239 
L 921.113731 353.2239 
L 949.899489 353.2239 
" style="fill:none;stroke:#91e8e1;stroke-linecap:square;"/>
   </g>
   <g id="line2d_37">
    <path clip-path="url(#p8aae0482cf)" d="M 86.326761 35.746672 
L 115.112519 352.735801 
L 143.898277 353.221227 
L 172.684034 353.2239 
L 201.469792 353.2239 
L 230.255549 353.2239 
L 259.041307 353.2239 
L 287.827064 353.2239 
L 316.612822 353.2239 
L 345.39858 353.2239 
L 374.184337 353.2239 
L 402.970095 353.2239 
L 431.755852 353.2239 
L 460.54161 353.2239 
L 489.327367 353.2239 
L 518.113125 353.2239 
L 546.898883 353.2239 
L 575.68464 353.2239 
L 604.470398 353.2239 
L 633.256155 353.2239 
L 662.041913 353.2239 
L 690.82767 353.2239 
L 719.613428 353.2239 
L 748.399186 353.2239 
L 777.184943 353.2239 
L 805.970701 353.2239 
L 834.756458 353.2239 
L 863.542216 353.2239 
L 892.327973 353.2239 
L 921.113731 353.2239 
L 949.899489 353.2239 
" style="fill:none;stroke:#7cb5ec;stroke-linecap:square;"/>
   </g>
   <g id="line2d_38">
    <path clip-path="url(#p8aae0482cf)" d="M 86.326761 35.78774 
L 115.112519 352.694757 
L 143.898277 353.22133 
L 172.684034 353.223773 
L 201.469792 353.2239 
L 230.255549 353.2239 
L 259.041307 353.2239 
L 287.827064 353.2239 
L 316.612822 353.2239 
L 345.39858 353.2239 
L 374.184337 353.2239 
L 402.970095 353.2239 
L 431.755852 353.2239 
L 460.54161 353.2239 
L 489.327367 353.2239 
L 518.113125 353.2239 
L 546.898883 353.2239 
L 575.68464 353.2239 
L 604.470398 353.2239 
L 633.256155 353.2239 
L 662.041913 353.2239 
L 690.82767 353.2239 
L 719.613428 353.2239 
L 748.399186 353.2239 
L 777.184943 353.2239 
L 805.970701 353.2239 
L 834.756458 353.2239 
L 863.542216 353.2239 
L 892.327973 353.2239 
L 921.113731 353.2239 
L 949.899489 353.2239 
" style="fill:none;stroke:#434348;stroke-linecap:square;"/>
   </g>
   <g id="line2d_39">
    <path clip-path="url(#p8aae0482cf)" d="M 86.326761 35.919483 
L 115.112519 352.567065 
L 143.898277 353.217381 
L 172.684034 353.223695 
L 201.469792 353.2239 
L 230.255549 353.223874 
L 259.041307 353.2239 
L 287.827064 353.2239 
L 316.612822 353.2239 
L 345.39858 353.2239 
L 374.184337 353.2239 
L 402.970095 353.2239 
L 431.755852 353.2239 
L 460.54161 353.2239 
L 489.327367 353.2239 
L 518.113125 353.2239 
L 546.898883 353.2239 
L 575.68464 353.2239 
L 604.470398 353.2239 
L 633.256155 353.2239 
L 662.041913 353.2239 
L 690.82767 353.2239 
L 719.613428 353.2239 
L 748.399186 353.2239 
L 777.184943 353.2239 
L 805.970701 353.2239 
L 834.756458 353.2239 
L 863.542216 353.2239 
L 892.327973 353.2239 
L 921.113731 353.2239 
L 949.899489 353.2239 
" style="fill:none;stroke:#90ed7d;stroke-linecap:square;"/>
   </g>
   <g id="line2d_40">
    <path clip-path="url(#p8aae0482cf)" d="M 86.326761 41.006923 
L 115.112519 347.730326 
L 143.898277 352.995137 
L 172.684034 353.199425 
L 201.469792 353.220306 
L 230.255549 353.223284 
L 259.041307 353.2239 
L 287.827064 353.2239 
L 316.612822 353.2239 
L 345.39858 353.2239 
L 374.184337 353.2239 
L 402.970095 353.2239 
L 431.755852 353.2239 
L 460.54161 353.2239 
L 489.327367 353.2239 
L 518.113125 353.2239 
L 546.898883 353.2239 
L 575.68464 353.2239 
L 604.470398 353.2239 
L 633.256155 353.2239 
L 662.041913 353.2239 
L 690.82767 353.2239 
L 719.613428 353.2239 
L 748.399186 353.2239 
L 777.184943 353.2239 
L 805.970701 353.2239 
L 834.756458 353.2239 
L 863.542216 353.2239 
L 892.327973 353.2239 
L 921.113731 353.2239 
L 949.899489 353.2239 
" style="fill:none;stroke:#f7a35c;stroke-linecap:square;"/>
   </g>
   <g id="line2d_41">
    <path clip-path="url(#p8aae0482cf)" d="M 86.326761 40.58981 
L 115.112519 348.128739 
L 143.898277 353.00983 
L 172.684034 353.202718 
L 201.469792 353.220946 
L 230.255549 353.22355 
L 259.041307 353.223706 
L 287.827064 353.2239 
L 316.612822 353.2239 
L 345.39858 353.2239 
L 374.184337 353.2239 
L 402.970095 353.2239 
L 431.755852 353.2239 
L 460.54161 353.2239 
L 489.327367 353.2239 
L 518.113125 353.2239 
L 546.898883 353.2239 
L 575.68464 353.2239 
L 604.470398 353.2239 
L 633.256155 353.2239 
L 662.041913 353.2239 
L 690.82767 353.2239 
L 719.613428 353.2239 
L 748.399186 353.2239 
L 777.184943 353.2239 
L 805.970701 353.2239 
L 834.756458 353.2239 
L 863.542216 353.2239 
L 892.327973 353.2239 
L 921.113731 353.2239 
L 949.899489 353.2239 
" style="fill:none;stroke:#8085e9;stroke-linecap:square;"/>
   </g>
   <g id="line2d_42">
    <path clip-path="url(#p8aae0482cf)" d="M 86.326761 40.566974 
L 115.112519 348.136955 
L 143.898277 353.020729 
L 172.684034 353.205194 
L 201.469792 353.222038 
L 230.255549 353.223554 
L 259.041307 353.2239 
L 287.827064 353.223857 
L 316.612822 353.2239 
L 345.39858 353.2239 
L 374.184337 353.2239 
L 402.970095 353.2239 
L 431.755852 353.2239 
L 460.54161 353.2239 
L 489.327367 353.2239 
L 518.113125 353.2239 
L 546.898883 353.2239 
L 575.68464 353.2239 
L 604.470398 353.2239 
L 633.256155 353.2239 
L 662.041913 353.2239 
L 690.82767 353.2239 
L 719.613428 353.2239 
L 748.399186 353.2239 
L 777.184943 353.2239 
L 805.970701 353.2239 
L 834.756458 353.2239 
L 863.542216 353.2239 
L 892.327973 353.2239 
L 921.113731 353.2239 
L 949.899489 353.2239 
" style="fill:none;stroke:#f15c80;stroke-linecap:square;"/>
   </g>
   <g id="line2d_43">
    <path clip-path="url(#p8aae0482cf)" d="M 86.326761 36.078106 
L 115.112519 352.407813 
L 143.898277 353.217953 
L 172.684034 353.223814 
L 201.469792 353.2239 
L 230.255549 353.2239 
L 259.041307 353.2239 
L 287.827064 353.2239 
L 316.612822 353.2239 
L 345.39858 353.2239 
L 374.184337 353.2239 
L 402.970095 353.2239 
L 431.755852 353.2239 
L 460.54161 353.2239 
L 489.327367 353.2239 
L 518.113125 353.2239 
L 546.898883 353.223814 
L 575.68464 353.2239 
L 604.470398 353.2239 
L 633.256155 353.2239 
L 662.041913 353.2239 
L 690.82767 353.2239 
L 719.613428 353.2239 
L 748.399186 353.2239 
L 777.184943 353.2239 
L 805.970701 353.2239 
L 834.756458 353.2239 
L 863.542216 353.2239 
L 892.327973 353.2239 
L 921.113731 353.2239 
L 949.899489 353.2239 
" style="fill:none;stroke:#e4d354;stroke-linecap:square;"/>
   </g>
   <g id="line2d_44">
    <path clip-path="url(#p8aae0482cf)" d="M 86.326761 36.516327 
L 115.112519 351.978105 
L 143.898277 353.210017 
L 172.684034 353.223351 
L 201.469792 353.2238 
L 230.255549 353.2239 
L 259.041307 353.2239 
L 287.827064 353.22385 
L 316.612822 353.2239 
L 345.39858 353.2239 
L 374.184337 353.2239 
L 402.970095 353.2239 
L 431.755852 353.2239 
L 460.54161 353.22385 
L 489.327367 353.2239 
L 518.113125 353.2239 
L 546.898883 353.2239 
L 575.68464 353.2239 
L 604.470398 353.2239 
L 633.256155 353.2239 
L 662.041913 353.2239 
L 690.82767 353.2239 
L 719.613428 353.2239 
L 748.399186 353.2239 
L 777.184943 353.2239 
L 805.970701 353.2239 
L 834.756458 353.2239 
L 863.542216 353.2239 
L 892.327973 353.2239 
L 921.113731 353.2239 
L 949.899489 353.2239 
" style="fill:none;stroke:#2b908f;stroke-linecap:square;"/>
   </g>
   <g id="line2d_45">
    <path clip-path="url(#p8aae0482cf)" d="M 86.326761 35.702592 
L 115.112519 352.779272 
L 143.898277 353.221836 
L 172.684034 353.2239 
L 201.469792 353.2239 
L 230.255549 353.2239 
L 259.041307 353.2239 
L 287.827064 353.2239 
L 316.612822 353.2239 
L 345.39858 353.2239 
L 374.184337 353.2239 
L 402.970095 353.2239 
L 431.755852 353.2239 
L 460.54161 353.2239 
L 489.327367 353.2239 
L 518.113125 353.2239 
L 546.898883 353.2239 
L 575.68464 353.2239 
L 604.470398 353.2239 
L 633.256155 353.2239 
L 662.041913 353.2239 
L 690.82767 353.2239 
L 719.613428 353.2239 
L 748.399186 353.2239 
L 777.184943 353.2239 
L 805.970701 353.2239 
L 834.756458 353.2239 
L 863.542216 353.2239 
L 892.327973 353.2239 
L 921.113731 353.2239 
L 949.899489 353.2239 
" style="fill:none;stroke:#f45b5b;stroke-linecap:square;"/>
   </g>
   <g id="line2d_46">
    <path clip-path="url(#p8aae0482cf)" d="M 86.326761 35.814352 
L 115.112519 352.668807 
L 143.898277 353.221057 
L 172.684034 353.223383 
L 201.469792 353.2239 
L 230.255549 353.2239 
L 259.041307 353.2239 
L 287.827064 353.2239 
L 316.612822 353.2239 
L 345.39858 353.2239 
L 374.184337 353.2239 
L 402.970095 353.2239 
L 431.755852 353.2239 
L 460.54161 353.2239 
L 489.327367 353.2239 
L 518.113125 353.2239 
L 546.898883 353.2239 
L 575.68464 353.2239 
L 604.470398 353.2239 
L 633.256155 353.2239 
L 662.041913 353.2239 
L 690.82767 353.2239 
L 719.613428 353.2239 
L 748.399186 353.2239 
L 777.184943 353.2239 
L 805.970701 353.2239 
L 834.756458 353.2239 
L 863.542216 353.2239 
L 892.327973 353.2239 
L 921.113731 353.2239 
L 949.899489 353.2239 
" style="fill:none;stroke:#91e8e1;stroke-linecap:square;"/>
   </g>
   <g id="line2d_47">
    <path clip-path="url(#p8aae0482cf)" d="M 86.326761 35.933431 
L 115.112519 352.551708 
L 143.898277 353.21885 
L 172.684034 353.223611 
L 201.469792 353.2239 
L 230.255549 353.2239 
L 259.041307 353.2239 
L 287.827064 353.2239 
L 316.612822 353.2239 
L 345.39858 353.2239 
L 374.184337 353.2239 
L 402.970095 353.2239 
L 431.755852 353.2239 
L 460.54161 353.2239 
L 489.327367 353.2239 
L 518.113125 353.2239 
L 546.898883 353.2239 
L 575.68464 353.2239 
L 604.470398 353.2239 
L 633.256155 353.2239 
L 662.041913 353.2239 
L 690.82767 353.2239 
L 719.613428 353.2239 
L 748.399186 353.2239 
L 777.184943 353.2239 
L 805.970701 353.2239 
L 834.756458 353.2239 
L 863.542216 353.2239 
L 892.327973 353.2239 
L 921.113731 353.2239 
L 949.899489 353.2239 
" style="fill:none;stroke:#7cb5ec;stroke-linecap:square;"/>
   </g>
   <g id="line2d_48">
    <path clip-path="url(#p8aae0482cf)" d="M 86.326761 35.887984 
L 115.112519 352.596433 
L 143.898277 353.219626 
L 172.684034 353.223729 
L 201.469792 353.2239 
L 230.255549 353.2239 
L 259.041307 353.2239 
L 287.827064 353.2239 
L 316.612822 353.2239 
L 345.39858 353.2239 
L 374.184337 353.2239 
L 402.970095 353.2239 
L 431.755852 353.2239 
L 460.54161 353.2239 
L 489.327367 353.223729 
L 518.113125 353.2239 
L 546.898883 353.2239 
L 575.68464 353.2239 
L 604.470398 353.2239 
L 633.256155 353.2239 
L 662.041913 353.2239 
L 690.82767 353.2239 
L 719.613428 353.2239 
L 748.399186 353.2239 
L 777.184943 353.2239 
L 805.970701 353.2239 
L 834.756458 353.2239 
L 863.542216 353.2239 
L 892.327973 353.2239 
L 921.113731 353.2239 
L 949.899489 353.2239 
" style="fill:none;stroke:#434348;stroke-linecap:square;"/>
   </g>
   <g id="line2d_49">
    <path clip-path="url(#p8aae0482cf)" d="M 86.326761 36.176761 
L 115.112519 352.312779 
L 143.898277 353.214474 
L 172.684034 353.223586 
L 201.469792 353.2239 
L 230.255549 353.2239 
L 259.041307 353.2239 
L 287.827064 353.2239 
L 316.612822 353.2239 
L 345.39858 353.2239 
L 374.184337 353.2239 
L 402.970095 353.2239 
L 431.755852 353.2239 
L 460.54161 353.2239 
L 489.327367 353.2239 
L 518.113125 353.2239 
L 546.898883 353.2239 
L 575.68464 353.2239 
L 604.470398 353.2239 
L 633.256155 353.2239 
L 662.041913 353.2239 
L 690.82767 353.2239 
L 719.613428 353.2239 
L 748.399186 353.2239 
L 777.184943 353.2239 
L 805.970701 353.2239 
L 834.756458 353.2239 
L 863.542216 353.2239 
L 892.327973 353.2239 
L 921.113731 353.2239 
L 949.899489 353.2239 
" style="fill:none;stroke:#90ed7d;stroke-linecap:square;"/>
   </g>
   <g id="line2d_50">
    <path clip-path="url(#p8aae0482cf)" d="M 86.326761 35.82826 
L 115.112519 352.656627 
L 143.898277 353.219006 
L 172.684034 353.2239 
L 201.469792 353.2239 
L 230.255549 353.223708 
L 259.041307 353.2239 
L 287.827064 353.2239 
L 316.612822 353.2239 
L 345.39858 353.2239 
L 374.184337 353.2239 
L 402.970095 353.2239 
L 431.755852 353.2239 
L 460.54161 353.2239 
L 489.327367 353.2239 
L 518.113125 353.2239 
L 546.898883 353.2239 
L 575.68464 353.2239 
L 604.470398 353.2239 
L 633.256155 353.2239 
L 662.041913 353.2239 
L 690.82767 353.2239 
L 719.613428 353.2239 
L 748.399186 353.2239 
L 777.184943 353.2239 
L 805.970701 353.2239 
L 834.756458 353.2239 
L 863.542216 353.2239 
L 892.327973 353.2239 
L 921.113731 353.2239 
L 949.899489 353.2239 
" style="fill:none;stroke:#f7a35c;stroke-linecap:square;"/>
   </g>
   <g id="line2d_51">
    <path clip-path="url(#p8aae0482cf)" d="M 86.326761 36.063104 
L 115.112519 352.423477 
L 143.898277 353.217536 
L 172.684034 353.223483 
L 201.469792 353.2239 
L 230.255549 353.2239 
L 259.041307 353.2239 
L 287.827064 353.2239 
L 316.612822 353.2239 
L 345.39858 353.2239 
L 374.184337 353.2239 
L 402.970095 353.2239 
L 431.755852 353.2239 
L 460.54161 353.2239 
L 489.327367 353.2239 
L 518.113125 353.2239 
L 546.898883 353.2239 
L 575.68464 353.2239 
L 604.470398 353.2239 
L 633.256155 353.2239 
L 662.041913 353.2239 
L 690.82767 353.2239 
L 719.613428 353.2239 
L 748.399186 353.2239 
L 777.184943 353.2239 
L 805.970701 353.2239 
L 834.756458 353.2239 
L 863.542216 353.2239 
L 892.327973 353.2239 
L 921.113731 353.2239 
L 949.899489 353.2239 
" style="fill:none;stroke:#8085e9;stroke-linecap:square;"/>
   </g>
   <g id="line2d_52">
    <path clip-path="url(#p8aae0482cf)" d="M 86.326761 36.491881 
L 115.112519 352.003256 
L 143.898277 353.208947 
L 172.684034 353.223517 
L 201.469792 353.2239 
L 230.255549 353.2239 
L 259.041307 353.2239 
L 287.827064 353.2239 
L 316.612822 353.2239 
L 345.39858 353.2239 
L 374.184337 353.2239 
L 402.970095 353.2239 
L 431.755852 353.2239 
L 460.54161 353.2239 
L 489.327367 353.2239 
L 518.113125 353.2239 
L 546.898883 353.2239 
L 575.68464 353.2239 
L 604.470398 353.2239 
L 633.256155 353.2239 
L 662.041913 353.2239 
L 690.82767 353.2239 
L 719.613428 353.2239 
L 748.399186 353.2239 
L 777.184943 353.2239 
L 805.970701 353.2239 
L 834.756458 353.2239 
L 863.542216 353.2239 
L 892.327973 353.2239 
L 921.113731 353.2239 
L 949.899489 353.2239 
" style="fill:none;stroke:#f15c80;stroke-linecap:square;"/>
   </g>
   <g id="line2d_53">
    <path clip-path="url(#p8aae0482cf)" d="M 86.326761 36.828694 
L 115.112519 351.675024 
L 143.898277 353.20106 
L 172.684034 353.222966 
L 201.469792 353.223756 
L 230.255549 353.2239 
L 259.041307 353.2239 
L 287.827064 353.2239 
L 316.612822 353.2239 
L 345.39858 353.2239 
L 374.184337 353.2239 
L 402.970095 353.2239 
L 431.755852 353.2239 
L 460.54161 353.2239 
L 489.327367 353.2239 
L 518.113125 353.2239 
L 546.898883 353.2239 
L 575.68464 353.2239 
L 604.470398 353.2239 
L 633.256155 353.2239 
L 662.041913 353.2239 
L 690.82767 353.2239 
L 719.613428 353.2239 
L 748.399186 353.2239 
L 777.184943 353.2239 
L 805.970701 353.2239 
L 834.756458 353.2239 
L 863.542216 353.2239 
L 892.327973 353.2239 
L 921.113731 353.2239 
L 949.899489 353.2239 
" style="fill:none;stroke:#e4d354;stroke-linecap:square;"/>
   </g>
   <g id="line2d_54">
    <path clip-path="url(#p8aae0482cf)" d="M 86.326761 36.307109 
L 115.112519 352.18341 
L 143.898277 353.213387 
L 172.684034 353.223763 
L 201.469792 353.223831 
L 230.255549 353.2239 
L 259.041307 353.2239 
L 287.827064 353.2239 
L 316.612822 353.2239 
L 345.39858 353.2239 
L 374.184337 353.2239 
L 402.970095 353.2239 
L 431.755852 353.2239 
L 460.54161 353.2239 
L 489.327367 353.2239 
L 518.113125 353.2239 
L 546.898883 353.2239 
L 575.68464 353.2239 
L 604.470398 353.2239 
L 633.256155 353.2239 
L 662.041913 353.2239 
L 690.82767 353.2239 
L 719.613428 353.2239 
L 748.399186 353.2239 
L 777.184943 353.2239 
L 805.970701 353.2239 
L 834.756458 353.2239 
L 863.542216 353.2239 
L 892.327973 353.2239 
L 921.113731 353.2239 
L 949.899489 353.2239 
" style="fill:none;stroke:#2b908f;stroke-linecap:square;"/>
   </g>
   <g id="line2d_55">
    <path clip-path="url(#p8aae0482cf)" d="M 86.326761 36.326139 
L 115.112519 352.164223 
L 143.898277 353.213745 
L 172.684034 353.223494 
L 201.469792 353.2239 
L 230.255549 353.2239 
L 259.041307 353.2239 
L 287.827064 353.2239 
L 316.612822 353.2239 
L 345.39858 353.2239 
L 374.184337 353.2239 
L 402.970095 353.2239 
L 431.755852 353.2239 
L 460.54161 353.2239 
L 489.327367 353.2239 
L 518.113125 353.2239 
L 546.898883 353.2239 
L 575.68464 353.2239 
L 604.470398 353.2239 
L 633.256155 353.2239 
L 662.041913 353.2239 
L 690.82767 353.2239 
L 719.613428 353.2239 
L 748.399186 353.2239 
L 777.184943 353.2239 
L 805.970701 353.2239 
L 834.756458 353.2239 
L 863.542216 353.2239 
L 892.327973 353.2239 
L 921.113731 353.2239 
L 949.899489 353.2239 
" style="fill:none;stroke:#f45b5b;stroke-linecap:square;"/>
   </g>
   <g id="line2d_56">
    <path clip-path="url(#p8aae0482cf)" d="M 86.326761 36.630441 
L 115.112519 351.863859 
L 143.898277 353.209826 
L 172.684034 353.22358 
L 201.469792 353.223793 
L 230.255549 353.2239 
L 259.041307 353.2239 
L 287.827064 353.2239 
L 316.612822 353.2239 
L 345.39858 353.2239 
L 374.184337 353.2239 
L 402.970095 353.2239 
L 431.755852 353.2239 
L 460.54161 353.2239 
L 489.327367 353.2239 
L 518.113125 353.2239 
L 546.898883 353.2239 
L 575.68464 353.2239 
L 604.470398 353.2239 
L 633.256155 353.2239 
L 662.041913 353.2239 
L 690.82767 353.2239 
L 719.613428 353.2239 
L 748.399186 353.2239 
L 777.184943 353.2239 
L 805.970701 353.2239 
L 834.756458 353.2239 
L 863.542216 353.2239 
L 892.327973 353.2239 
L 921.113731 353.2239 
L 949.899489 353.2239 
" style="fill:none;stroke:#91e8e1;stroke-linecap:square;"/>
   </g>
   <g id="line2d_57">
    <path clip-path="url(#p8aae0482cf)" d="M 86.326761 36.07479 
L 115.112519 352.411475 
L 143.898277 353.217769 
L 172.684034 353.223566 
L 201.469792 353.2239 
L 230.255549 353.2239 
L 259.041307 353.2239 
L 287.827064 353.2239 
L 316.612822 353.2239 
L 345.39858 353.2239 
L 374.184337 353.2239 
L 402.970095 353.2239 
L 431.755852 353.2239 
L 460.54161 353.2239 
L 489.327367 353.2239 
L 518.113125 353.2239 
L 546.898883 353.2239 
L 575.68464 353.2239 
L 604.470398 353.2239 
L 633.256155 353.2239 
L 662.041913 353.2239 
L 690.82767 353.2239 
L 719.613428 353.2239 
L 748.399186 353.2239 
L 777.184943 353.2239 
L 805.970701 353.2239 
L 834.756458 353.2239 
L 863.542216 353.2239 
L 892.327973 353.2239 
L 921.113731 353.2239 
L 949.899489 353.2239 
" style="fill:none;stroke:#7cb5ec;stroke-linecap:square;"/>
   </g>
   <g id="line2d_58">
    <path clip-path="url(#p8aae0482cf)" d="M 86.326761 36.399264 
L 115.112519 352.090674 
L 143.898277 353.214462 
L 172.684034 353.223201 
L 201.469792 353.2239 
L 230.255549 353.2239 
L 259.041307 353.2239 
L 287.827064 353.2239 
L 316.612822 353.2239 
L 345.39858 353.2239 
L 374.184337 353.2239 
L 402.970095 353.2239 
L 431.755852 353.2239 
L 460.54161 353.2239 
L 489.327367 353.2239 
L 518.113125 353.2239 
L 546.898883 353.2239 
L 575.68464 353.2239 
L 604.470398 353.2239 
L 633.256155 353.2239 
L 662.041913 353.2239 
L 690.82767 353.2239 
L 719.613428 353.2239 
L 748.399186 353.2239 
L 777.184943 353.2239 
L 805.970701 353.2239 
L 834.756458 353.2239 
L 863.542216 353.2239 
L 892.327973 353.2239 
L 921.113731 353.2239 
L 949.899489 353.2239 
" style="fill:none;stroke:#434348;stroke-linecap:square;"/>
   </g>
   <g id="line2d_59">
    <path clip-path="url(#p8aae0482cf)" d="M 86.326761 35.968266 
L 115.112519 352.517495 
L 143.898277 353.21794 
L 172.684034 353.2239 
L 201.469792 353.2239 
L 230.255549 353.2239 
L 259.041307 353.2239 
L 287.827064 353.2239 
L 316.612822 353.2239 
L 345.39858 353.2239 
L 374.184337 353.2239 
L 402.970095 353.2239 
L 431.755852 353.2239 
L 460.54161 353.2239 
L 489.327367 353.2239 
L 518.113125 353.2239 
L 546.898883 353.2239 
L 575.68464 353.2239 
L 604.470398 353.2239 
L 633.256155 353.2239 
L 662.041913 353.2239 
L 690.82767 353.2239 
L 719.613428 353.2239 
L 748.399186 353.2239 
L 777.184943 353.2239 
L 805.970701 353.2239 
L 834.756458 353.2239 
L 863.542216 353.2239 
L 892.327973 353.2239 
L 921.113731 353.2239 
L 949.899489 353.2239 
" style="fill:none;stroke:#90ed7d;stroke-linecap:square;"/>
   </g>
   <g id="line2d_60">
    <path clip-path="url(#p8aae0482cf)" d="M 86.326761 36.563833 
L 115.112519 351.933838 
L 143.898277 353.206767 
L 172.684034 353.223244 
L 201.469792 353.2239 
L 230.255549 353.2239 
L 259.041307 353.223818 
L 287.827064 353.2239 
L 316.612822 353.2239 
L 345.39858 353.2239 
L 374.184337 353.2239 
L 402.970095 353.2239 
L 431.755852 353.2239 
L 460.54161 353.2239 
L 489.327367 353.2239 
L 518.113125 353.2239 
L 546.898883 353.2239 
L 575.68464 353.2239 
L 604.470398 353.2239 
L 633.256155 353.2239 
L 662.041913 353.2239 
L 690.82767 353.2239 
L 719.613428 353.2239 
L 748.399186 353.2239 
L 777.184943 353.2239 
L 805.970701 353.2239 
L 834.756458 353.2239 
L 863.542216 353.2239 
L 892.327973 353.2239 
L 921.113731 353.2239 
L 949.899489 353.2239 
" style="fill:none;stroke:#f7a35c;stroke-linecap:square;"/>
   </g>
   <g id="line2d_61">
    <path clip-path="url(#p8aae0482cf)" d="M 86.326761 36.091952 
L 115.112519 352.395398 
L 143.898277 353.216349 
L 172.684034 353.2239 
L 201.469792 353.2239 
L 230.255549 353.2239 
L 259.041307 353.2239 
L 287.827064 353.2239 
L 316.612822 353.2239 
L 345.39858 353.2239 
L 374.184337 353.2239 
L 402.970095 353.2239 
L 431.755852 353.2239 
L 460.54161 353.2239 
L 489.327367 353.2239 
L 518.113125 353.2239 
L 546.898883 353.2239 
L 575.68464 353.2239 
L 604.470398 353.2239 
L 633.256155 353.2239 
L 662.041913 353.2239 
L 690.82767 353.2239 
L 719.613428 353.2239 
L 748.399186 353.2239 
L 777.184943 353.2239 
L 805.970701 353.2239 
L 834.756458 353.2239 
L 863.542216 353.2239 
L 892.327973 353.2239 
L 921.113731 353.2239 
L 949.899489 353.2239 
" style="fill:none;stroke:#8085e9;stroke-linecap:square;"/>
   </g>
   <g id="line2d_62">
    <path clip-path="url(#p8aae0482cf)" d="M 86.326761 36.340239 
L 115.112519 352.151441 
L 143.898277 353.212444 
L 172.684034 353.223476 
L 201.469792 353.2239 
L 230.255549 353.2239 
L 259.041307 353.2239 
L 287.827064 353.2239 
L 316.612822 353.2239 
L 345.39858 353.2239 
L 374.184337 353.2239 
L 402.970095 353.2239 
L 431.755852 353.2239 
L 460.54161 353.2239 
L 489.327367 353.2239 
L 518.113125 353.2239 
L 546.898883 353.2239 
L 575.68464 353.2239 
L 604.470398 353.2239 
L 633.256155 353.2239 
L 662.041913 353.2239 
L 690.82767 353.2239 
L 719.613428 353.2239 
L 748.399186 353.2239 
L 777.184943 353.2239 
L 805.970701 353.2239 
L 834.756458 353.2239 
L 863.542216 353.2239 
L 892.327973 353.2239 
L 921.113731 353.2239 
L 949.899489 353.2239 
" style="fill:none;stroke:#f15c80;stroke-linecap:square;"/>
   </g>
   <g id="line2d_63">
    <path clip-path="url(#p8aae0482cf)" d="M 86.326761 36.396497 
L 115.112519 352.095164 
L 143.898277 353.212133 
L 172.684034 353.2239 
L 201.469792 353.223806 
L 230.255549 353.2239 
L 259.041307 353.2239 
L 287.827064 353.2239 
L 316.612822 353.2239 
L 345.39858 353.2239 
L 374.184337 353.2239 
L 402.970095 353.2239 
L 431.755852 353.2239 
L 460.54161 353.2239 
L 489.327367 353.2239 
L 518.113125 353.2239 
L 546.898883 353.2239 
L 575.68464 353.2239 
L 604.470398 353.2239 
L 633.256155 353.2239 
L 662.041913 353.2239 
L 690.82767 353.2239 
L 719.613428 353.2239 
L 748.399186 353.2239 
L 777.184943 353.2239 
L 805.970701 353.2239 
L 834.756458 353.2239 
L 863.542216 353.2239 
L 892.327973 353.2239 
L 921.113731 353.2239 
L 949.899489 353.2239 
" style="fill:none;stroke:#e4d354;stroke-linecap:square;"/>
   </g>
   <g id="line2d_64">
    <path clip-path="url(#p8aae0482cf)" d="M 86.326761 35.909728 
L 115.112519 352.575588 
L 143.898277 353.218501 
L 172.684034 353.2239 
L 201.469792 353.223783 
L 230.255549 353.2239 
L 259.041307 353.2239 
L 287.827064 353.2239 
L 316.612822 353.2239 
L 345.39858 353.2239 
L 374.184337 353.2239 
L 402.970095 353.2239 
L 431.755852 353.2239 
L 460.54161 353.2239 
L 489.327367 353.2239 
L 518.113125 353.2239 
L 546.898883 353.2239 
L 575.68464 353.2239 
L 604.470398 353.2239 
L 633.256155 353.2239 
L 662.041913 353.2239 
L 690.82767 353.2239 
L 719.613428 353.2239 
L 748.399186 353.2239 
L 777.184943 353.2239 
L 805.970701 353.2239 
L 834.756458 353.2239 
L 863.542216 353.2239 
L 892.327973 353.2239 
L 921.113731 353.2239 
L 949.899489 353.2239 
" style="fill:none;stroke:#2b908f;stroke-linecap:square;"/>
   </g>
   <g id="line2d_65">
    <path clip-path="url(#p8aae0482cf)" d="M 86.326761 36.278229 
L 115.112519 352.210817 
L 143.898277 353.214824 
L 172.684034 353.22373 
L 201.469792 353.2239 
L 230.255549 353.2239 
L 259.041307 353.2239 
L 287.827064 353.2239 
L 316.612822 353.2239 
L 345.39858 353.2239 
L 374.184337 353.2239 
L 402.970095 353.2239 
L 431.755852 353.2239 
L 460.54161 353.2239 
L 489.327367 353.2239 
L 518.113125 353.2239 
L 546.898883 353.2239 
L 575.68464 353.2239 
L 604.470398 353.2239 
L 633.256155 353.2239 
L 662.041913 353.2239 
L 690.82767 353.2239 
L 719.613428 353.2239 
L 748.399186 353.2239 
L 777.184943 353.2239 
L 805.970701 353.2239 
L 834.756458 353.2239 
L 863.542216 353.2239 
L 892.327973 353.2239 
L 921.113731 353.2239 
L 949.899489 353.2239 
" style="fill:none;stroke:#f45b5b;stroke-linecap:square;"/>
   </g>
   <g id="line2d_66">
    <path clip-path="url(#p8aae0482cf)" d="M 86.326761 36.532299 
L 115.112519 351.964377 
L 143.898277 353.207831 
L 172.684034 353.223362 
L 201.469792 353.223833 
L 230.255549 353.223833 
L 259.041307 353.223833 
L 287.827064 353.2239 
L 316.612822 353.2239 
L 345.39858 353.2239 
L 374.184337 353.2239 
L 402.970095 353.2239 
L 431.755852 353.2239 
L 460.54161 353.2239 
L 489.327367 353.223833 
L 518.113125 353.2239 
L 546.898883 353.2239 
L 575.68464 353.2239 
L 604.470398 353.2239 
L 633.256155 353.2239 
L 662.041913 353.2239 
L 690.82767 353.2239 
L 719.613428 353.2239 
L 748.399186 353.2239 
L 777.184943 353.2239 
L 805.970701 353.2239 
L 834.756458 353.2239 
L 863.542216 353.2239 
L 892.327973 353.2239 
L 921.113731 353.2239 
L 949.899489 353.2239 
" style="fill:none;stroke:#91e8e1;stroke-linecap:square;"/>
   </g>
   <g id="line2d_67">
    <path clip-path="url(#p8aae0482cf)" d="M 86.326761 36.277136 
L 115.112519 352.214002 
L 143.898277 353.212721 
L 172.684034 353.22374 
L 201.469792 353.2239 
L 230.255549 353.2239 
L 259.041307 353.2239 
L 287.827064 353.2239 
L 316.612822 353.2239 
L 345.39858 353.2239 
L 374.184337 353.2239 
L 402.970095 353.2239 
L 431.755852 353.2239 
L 460.54161 353.2239 
L 489.327367 353.2239 
L 518.113125 353.2239 
L 546.898883 353.2239 
L 575.68464 353.2239 
L 604.470398 353.2239 
L 633.256155 353.2239 
L 662.041913 353.2239 
L 690.82767 353.2239 
L 719.613428 353.2239 
L 748.399186 353.2239 
L 777.184943 353.2239 
L 805.970701 353.2239 
L 834.756458 353.2239 
L 863.542216 353.2239 
L 892.327973 353.2239 
L 921.113731 353.2239 
L 949.899489 353.2239 
" style="fill:none;stroke:#7cb5ec;stroke-linecap:square;"/>
   </g>
   <g id="line2d_68">
    <path clip-path="url(#p8aae0482cf)" d="M 86.326761 36.580673 
L 115.112519 351.914997 
L 143.898277 353.208509 
L 172.684034 353.223501 
L 201.469792 353.22382 
L 230.255549 353.2239 
L 259.041307 353.2239 
L 287.827064 353.2239 
L 316.612822 353.2239 
L 345.39858 353.2239 
L 374.184337 353.2239 
L 402.970095 353.2239 
L 431.755852 353.2239 
L 460.54161 353.2239 
L 489.327367 353.2239 
L 518.113125 353.2239 
L 546.898883 353.2239 
L 575.68464 353.2239 
L 604.470398 353.2239 
L 633.256155 353.2239 
L 662.041913 353.2239 
L 690.82767 353.2239 
L 719.613428 353.2239 
L 748.399186 353.2239 
L 777.184943 353.2239 
L 805.970701 353.2239 
L 834.756458 353.2239 
L 863.542216 353.2239 
L 892.327973 353.2239 
L 921.113731 353.2239 
L 949.899489 353.2239 
" style="fill:none;stroke:#434348;stroke-linecap:square;"/>
   </g>
   <g id="line2d_69">
    <path clip-path="url(#p8aae0482cf)" d="M 86.326761 36.748327 
L 115.112519 351.754862 
L 143.898277 353.201225 
L 172.684034 353.22333 
L 201.469792 353.2239 
L 230.255549 353.223757 
L 259.041307 353.2239 
L 287.827064 353.2239 
L 316.612822 353.2239 
L 345.39858 353.2239 
L 374.184337 353.2239 
L 402.970095 353.2239 
L 431.755852 353.2239 
L 460.54161 353.2239 
L 489.327367 353.2239 
L 518.113125 353.2239 
L 546.898883 353.2239 
L 575.68464 353.2239 
L 604.470398 353.2239 
L 633.256155 353.2239 
L 662.041913 353.2239 
L 690.82767 353.2239 
L 719.613428 353.2239 
L 748.399186 353.2239 
L 777.184943 353.2239 
L 805.970701 353.2239 
L 834.756458 353.2239 
L 863.542216 353.2239 
L 892.327973 353.2239 
L 921.113731 353.2239 
L 949.899489 353.2239 
" style="fill:none;stroke:#90ed7d;stroke-linecap:square;"/>
   </g>
   <g id="line2d_70">
    <path clip-path="url(#p8aae0482cf)" d="M 86.326761 36.790583 
L 115.112519 351.70856 
L 143.898277 353.204841 
L 172.684034 353.223616 
L 201.469792 353.2239 
L 230.255549 353.2239 
L 259.041307 353.2239 
L 287.827064 353.2239 
L 316.612822 353.2239 
L 345.39858 353.2239 
L 374.184337 353.2239 
L 402.970095 353.2239 
L 431.755852 353.2239 
L 460.54161 353.2239 
L 489.327367 353.2239 
L 518.113125 353.2239 
L 546.898883 353.2239 
L 575.68464 353.2239 
L 604.470398 353.2239 
L 633.256155 353.2239 
L 662.041913 353.2239 
L 690.82767 353.2239 
L 719.613428 353.2239 
L 748.399186 353.2239 
L 777.184943 353.2239 
L 805.970701 353.2239 
L 834.756458 353.2239 
L 863.542216 353.2239 
L 892.327973 353.2239 
L 921.113731 353.2239 
L 949.899489 353.2239 
" style="fill:none;stroke:#f7a35c;stroke-linecap:square;"/>
   </g>
   <g id="line2d_71">
    <path clip-path="url(#p8aae0482cf)" d="M 86.326761 37.240641 
L 115.112519 351.275005 
L 143.898277 353.189861 
L 172.684034 353.222093 
L 201.469792 353.2239 
L 230.255549 353.2239 
L 259.041307 353.2239 
L 287.827064 353.2239 
L 316.612822 353.2239 
L 345.39858 353.2239 
L 374.184337 353.2239 
L 402.970095 353.2239 
L 431.755852 353.2239 
L 460.54161 353.2239 
L 489.327367 353.2239 
L 518.113125 353.2239 
L 546.898883 353.2239 
L 575.68464 353.2239 
L 604.470398 353.2239 
L 633.256155 353.2239 
L 662.041913 353.2239 
L 690.82767 353.2239 
L 719.613428 353.2239 
L 748.399186 353.2239 
L 777.184943 353.2239 
L 805.970701 353.2239 
L 834.756458 353.2239 
L 863.542216 353.2239 
L 892.327973 353.2239 
L 921.113731 353.2239 
L 949.899489 353.2239 
" style="fill:none;stroke:#8085e9;stroke-linecap:square;"/>
   </g>
   <g id="line2d_72">
    <path clip-path="url(#p8aae0482cf)" d="M 86.326761 36.585861 
L 115.112519 351.910591 
L 143.898277 353.207583 
L 172.684034 353.223565 
L 201.469792 353.2239 
L 230.255549 353.2239 
L 259.041307 353.2239 
L 287.827064 353.2239 
L 316.612822 353.2239 
L 345.39858 353.2239 
L 374.184337 353.2239 
L 402.970095 353.2239 
L 431.755852 353.2239 
L 460.54161 353.2239 
L 489.327367 353.2239 
L 518.113125 353.2239 
L 546.898883 353.2239 
L 575.68464 353.2239 
L 604.470398 353.2239 
L 633.256155 353.2239 
L 662.041913 353.2239 
L 690.82767 353.2239 
L 719.613428 353.2239 
L 748.399186 353.2239 
L 777.184943 353.2239 
L 805.970701 353.2239 
L 834.756458 353.2239 
L 863.542216 353.2239 
L 892.327973 353.2239 
L 921.113731 353.2239 
L 949.899489 353.2239 
" style="fill:none;stroke:#f15c80;stroke-linecap:square;"/>
   </g>
   <g id="line2d_73">
    <path clip-path="url(#p8aae0482cf)" d="M 86.326761 37.218489 
L 115.112519 351.292394 
L 143.898277 353.194165 
L 172.684034 353.222642 
L 201.469792 353.2239 
L 230.255549 353.2239 
L 259.041307 353.2239 
L 287.827064 353.2239 
L 316.612822 353.2239 
L 345.39858 353.2239 
L 374.184337 353.2239 
L 402.970095 353.2239 
L 431.755852 353.22381 
L 460.54161 353.2239 
L 489.327367 353.2239 
L 518.113125 353.2239 
L 546.898883 353.2239 
L 575.68464 353.2239 
L 604.470398 353.2239 
L 633.256155 353.2239 
L 662.041913 353.2239 
L 690.82767 353.2239 
L 719.613428 353.2239 
L 748.399186 353.2239 
L 777.184943 353.2239 
L 805.970701 353.2239 
L 834.756458 353.2239 
L 863.542216 353.2239 
L 892.327973 353.2239 
L 921.113731 353.2239 
L 949.899489 353.2239 
" style="fill:none;stroke:#e4d354;stroke-linecap:square;"/>
   </g>
   <g id="line2d_74">
    <path clip-path="url(#p8aae0482cf)" d="M 86.326761 36.897389 
L 115.112519 351.606531 
L 143.898277 353.200688 
L 172.684034 353.223144 
L 201.469792 353.223824 
L 230.255549 353.2239 
L 259.041307 353.223824 
L 287.827064 353.2239 
L 316.612822 353.2239 
L 345.39858 353.2239 
L 374.184337 353.2239 
L 402.970095 353.2239 
L 431.755852 353.2239 
L 460.54161 353.2239 
L 489.327367 353.2239 
L 518.113125 353.2239 
L 546.898883 353.2239 
L 575.68464 353.2239 
L 604.470398 353.2239 
L 633.256155 353.2239 
L 662.041913 353.2239 
L 690.82767 353.2239 
L 719.613428 353.2239 
L 748.399186 353.2239 
L 777.184943 353.2239 
L 805.970701 353.2239 
L 834.756458 353.2239 
L 863.542216 353.2239 
L 892.327973 353.2239 
L 921.113731 353.2239 
L 949.899489 353.2239 
" style="fill:none;stroke:#2b908f;stroke-linecap:square;"/>
   </g>
   <g id="line2d_75">
    <path clip-path="url(#p8aae0482cf)" d="M 86.326761 37.205673 
L 115.112519 351.302411 
L 143.898277 353.196504 
L 172.684034 353.223124 
L 201.469792 353.2239 
L 230.255549 353.2239 
L 259.041307 353.2239 
L 287.827064 353.2239 
L 316.612822 353.223789 
L 345.39858 353.2239 
L 374.184337 353.2239 
L 402.970095 353.2239 
L 431.755852 353.2239 
L 460.54161 353.2239 
L 489.327367 353.2239 
L 518.113125 353.2239 
L 546.898883 353.2239 
L 575.68464 353.2239 
L 604.470398 353.2239 
L 633.256155 353.2239 
L 662.041913 353.2239 
L 690.82767 353.2239 
L 719.613428 353.2239 
L 748.399186 353.2239 
L 777.184943 353.2239 
L 805.970701 353.2239 
L 834.756458 353.2239 
L 863.542216 353.2239 
L 892.327973 353.2239 
L 921.113731 353.2239 
L 949.899489 353.2239 
" style="fill:none;stroke:#f45b5b;stroke-linecap:square;"/>
   </g>
   <g id="line2d_76">
    <path clip-path="url(#p8aae0482cf)" d="M 86.326761 36.827961 
L 115.112519 351.672996 
L 143.898277 353.203919 
L 172.684034 353.222921 
L 201.469792 353.2239 
L 230.255549 353.2239 
L 259.041307 353.2239 
L 287.827064 353.2239 
L 316.612822 353.223704 
L 345.39858 353.2239 
L 374.184337 353.2239 
L 402.970095 353.2239 
L 431.755852 353.2239 
L 460.54161 353.2239 
L 489.327367 353.2239 
L 518.113125 353.2239 
L 546.898883 353.2239 
L 575.68464 353.2239 
L 604.470398 353.2239 
L 633.256155 353.2239 
L 662.041913 353.2239 
L 690.82767 353.2239 
L 719.613428 353.2239 
L 748.399186 353.2239 
L 777.184943 353.2239 
L 805.970701 353.2239 
L 834.756458 353.2239 
L 863.542216 353.2239 
L 892.327973 353.2239 
L 921.113731 353.2239 
L 949.899489 353.2239 
" style="fill:none;stroke:#91e8e1;stroke-linecap:square;"/>
   </g>
   <g id="line2d_77">
    <path clip-path="url(#p8aae0482cf)" d="M 86.326761 37.004219 
L 115.112519 351.502262 
L 143.898277 353.197986 
L 172.684034 353.223132 
L 201.469792 353.2239 
L 230.255549 353.2239 
L 259.041307 353.2239 
L 287.827064 353.2239 
L 316.612822 353.2239 
L 345.39858 353.2239 
L 374.184337 353.2239 
L 402.970095 353.2239 
L 431.755852 353.2239 
L 460.54161 353.2239 
L 489.327367 353.2239 
L 518.113125 353.2239 
L 546.898883 353.2239 
L 575.68464 353.2239 
L 604.470398 353.2239 
L 633.256155 353.2239 
L 662.041913 353.2239 
L 690.82767 353.2239 
L 719.613428 353.2239 
L 748.399186 353.2239 
L 777.184943 353.2239 
L 805.970701 353.2239 
L 834.756458 353.2239 
L 863.542216 353.2239 
L 892.327973 353.2239 
L 921.113731 353.2239 
L 949.899489 353.2239 
" style="fill:none;stroke:#7cb5ec;stroke-linecap:square;"/>
   </g>
   <g id="line2d_78">
    <path clip-path="url(#p8aae0482cf)" d="M 86.326761 37.673001 
L 115.112519 350.855872 
L 143.898277 353.176678 
L 172.684034 353.22228 
L 201.469792 353.2239 
L 230.255549 353.2239 
L 259.041307 353.2239 
L 287.827064 353.223669 
L 316.612822 353.2239 
L 345.39858 353.2239 
L 374.184337 353.2239 
L 402.970095 353.2239 
L 431.755852 353.2239 
L 460.54161 353.2239 
L 489.327367 353.2239 
L 518.113125 353.2239 
L 546.898883 353.2239 
L 575.68464 353.2239 
L 604.470398 353.2239 
L 633.256155 353.2239 
L 662.041913 353.2239 
L 690.82767 353.2239 
L 719.613428 353.2239 
L 748.399186 353.2239 
L 777.184943 353.2239 
L 805.970701 353.2239 
L 834.756458 353.2239 
L 863.542216 353.2239 
L 892.327973 353.2239 
L 921.113731 353.2239 
L 949.899489 353.2239 
" style="fill:none;stroke:#434348;stroke-linecap:square;"/>
   </g>
   <g id="line2d_79">
    <path clip-path="url(#p8aae0482cf)" d="M 86.326761 36.957897 
L 115.112519 351.544562 
L 143.898277 353.20156 
L 172.684034 353.223581 
L 201.469792 353.2239 
L 230.255549 353.2239 
L 259.041307 353.2239 
L 287.827064 353.2239 
L 316.612822 353.2239 
L 345.39858 353.2239 
L 374.184337 353.2239 
L 402.970095 353.2239 
L 431.755852 353.2239 
L 460.54161 353.2239 
L 489.327367 353.2239 
L 518.113125 353.2239 
L 546.898883 353.2239 
L 575.68464 353.2239 
L 604.470398 353.2239 
L 633.256155 353.2239 
L 662.041913 353.2239 
L 690.82767 353.2239 
L 719.613428 353.2239 
L 748.399186 353.2239 
L 777.184943 353.2239 
L 805.970701 353.2239 
L 834.756458 353.2239 
L 863.542216 353.2239 
L 892.327973 353.2239 
L 921.113731 353.2239 
L 949.899489 353.2239 
" style="fill:none;stroke:#90ed7d;stroke-linecap:square;"/>
   </g>
   <g id="line2d_80">
    <path clip-path="url(#p8aae0482cf)" d="M 86.326761 37.375325 
L 115.112519 351.14174 
L 143.898277 353.187467 
L 172.684034 353.223235 
L 201.469792 353.223734 
L 230.255549 353.2239 
L 259.041307 353.2239 
L 287.827064 353.2239 
L 316.612822 353.2239 
L 345.39858 353.2239 
L 374.184337 353.2239 
L 402.970095 353.2239 
L 431.755852 353.2239 
L 460.54161 353.2239 
L 489.327367 353.2239 
L 518.113125 353.2239 
L 546.898883 353.2239 
L 575.68464 353.2239 
L 604.470398 353.2239 
L 633.256155 353.2239 
L 662.041913 353.2239 
L 690.82767 353.2239 
L 719.613428 353.2239 
L 748.399186 353.2239 
L 777.184943 353.2239 
L 805.970701 353.2239 
L 834.756458 353.2239 
L 863.542216 353.2239 
L 892.327973 353.2239 
L 921.113731 353.2239 
L 949.899489 353.2239 
" style="fill:none;stroke:#f7a35c;stroke-linecap:square;"/>
   </g>
   <g id="line2d_81">
    <path clip-path="url(#p8aae0482cf)" d="M 86.326761 37.124775 
L 115.112519 351.380916 
L 143.898277 353.19886 
L 172.684034 353.223171 
L 201.469792 353.2239 
L 230.255549 353.2239 
L 259.041307 353.2239 
L 287.827064 353.223778 
L 316.612822 353.2239 
L 345.39858 353.2239 
L 374.184337 353.2239 
L 402.970095 353.2239 
L 431.755852 353.2239 
L 460.54161 353.2239 
L 489.327367 353.2239 
L 518.113125 353.2239 
L 546.898883 353.2239 
L 575.68464 353.2239 
L 604.470398 353.2239 
L 633.256155 353.2239 
L 662.041913 353.2239 
L 690.82767 353.2239 
L 719.613428 353.2239 
L 748.399186 353.2239 
L 777.184943 353.2239 
L 805.970701 353.2239 
L 834.756458 353.2239 
L 863.542216 353.2239 
L 892.327973 353.2239 
L 921.113731 353.2239 
L 949.899489 353.2239 
" style="fill:none;stroke:#8085e9;stroke-linecap:square;"/>
   </g>
   <g id="line2d_82">
    <path clip-path="url(#p8aae0482cf)" d="M 86.326761 36.604568 
L 115.112519 351.892983 
L 143.898277 353.207118 
L 172.684034 353.223154 
L 201.469792 353.223676 
L 230.255549 353.2239 
L 259.041307 353.2239 
L 287.827064 353.2239 
L 316.612822 353.2239 
L 345.39858 353.2239 
L 374.184337 353.2239 
L 402.970095 353.2239 
L 431.755852 353.2239 
L 460.54161 353.2239 
L 489.327367 353.2239 
L 518.113125 353.2239 
L 546.898883 353.2239 
L 575.68464 353.2239 
L 604.470398 353.2239 
L 633.256155 353.2239 
L 662.041913 353.2239 
L 690.82767 353.2239 
L 719.613428 353.2239 
L 748.399186 353.2239 
L 777.184943 353.2239 
L 805.970701 353.2239 
L 834.756458 353.2239 
L 863.542216 353.2239 
L 892.327973 353.2239 
L 921.113731 353.2239 
L 949.899489 353.2239 
" style="fill:none;stroke:#f15c80;stroke-linecap:square;"/>
   </g>
   <g id="line2d_83">
    <path clip-path="url(#p8aae0482cf)" d="M 86.326761 36.646915 
L 115.112519 351.845547 
L 143.898277 353.211239 
L 172.684034 353.2239 
L 201.469792 353.2239 
L 230.255549 353.2239 
L 259.041307 353.2239 
L 287.827064 353.2239 
L 316.612822 353.2239 
L 345.39858 353.2239 
L 374.184337 353.2239 
L 402.970095 353.2239 
L 431.755852 353.2239 
L 460.54161 353.2239 
L 489.327367 353.2239 
L 518.113125 353.2239 
L 546.898883 353.2239 
L 575.68464 353.2239 
L 604.470398 353.2239 
L 633.256155 353.2239 
L 662.041913 353.2239 
L 690.82767 353.2239 
L 719.613428 353.2239 
L 748.399186 353.2239 
L 777.184943 353.2239 
L 805.970701 353.2239 
L 834.756458 353.2239 
L 863.542216 353.2239 
L 892.327973 353.2239 
L 921.113731 353.2239 
L 949.899489 353.2239 
" style="fill:none;stroke:#e4d354;stroke-linecap:square;"/>
   </g>
   <g id="line2d_84">
    <path clip-path="url(#p8aae0482cf)" d="M 86.326761 36.213673 
L 115.112519 352.275102 
L 143.898277 353.215206 
L 172.684034 353.2239 
L 201.469792 353.2239 
L 230.255549 353.2239 
L 259.041307 353.2239 
L 287.827064 353.22362 
L 316.612822 353.2239 
L 345.39858 353.2239 
L 374.184337 353.2239 
L 402.970095 353.2239 
L 431.755852 353.2239 
L 460.54161 353.2239 
L 489.327367 353.2239 
L 518.113125 353.2239 
L 546.898883 353.2239 
L 575.68464 353.2239 
L 604.470398 353.2239 
L 633.256155 353.2239 
L 662.041913 353.2239 
L 690.82767 353.2239 
L 719.613428 353.2239 
L 748.399186 353.2239 
L 777.184943 353.2239 
L 805.970701 353.2239 
L 834.756458 353.2239 
L 863.542216 353.2239 
L 892.327973 353.2239 
L 921.113731 353.2239 
L 949.899489 353.2239 
" style="fill:none;stroke:#2b908f;stroke-linecap:square;"/>
   </g>
   <g id="line2d_85">
    <path clip-path="url(#p8aae0482cf)" d="M 86.326761 36.512602 
L 115.112519 351.979147 
L 143.898277 353.21195 
L 172.684034 353.2239 
L 201.469792 353.2239 
L 230.255549 353.2239 
L 259.041307 353.2239 
L 287.827064 353.2239 
L 316.612822 353.2239 
L 345.39858 353.2239 
L 374.184337 353.2239 
L 402.970095 353.2239 
L 431.755852 353.2239 
L 460.54161 353.2239 
L 489.327367 353.2239 
L 518.113125 353.2239 
L 546.898883 353.2239 
L 575.68464 353.2239 
L 604.470398 353.2239 
L 633.256155 353.2239 
L 662.041913 353.2239 
L 690.82767 353.2239 
L 719.613428 353.2239 
L 748.399186 353.2239 
L 777.184943 353.2239 
L 805.970701 353.2239 
L 834.756458 353.2239 
L 863.542216 353.2239 
L 892.327973 353.2239 
L 921.113731 353.2239 
L 949.899489 353.2239 
" style="fill:none;stroke:#f45b5b;stroke-linecap:square;"/>
   </g>
   <g id="line2d_86">
    <path clip-path="url(#p8aae0482cf)" d="M 86.326761 36.955155 
L 115.112519 351.546613 
L 143.898277 353.202531 
L 172.684034 353.223401 
L 201.469792 353.2238 
L 230.255549 353.2239 
L 259.041307 353.2239 
L 287.827064 353.2239 
L 316.612822 353.2239 
L 345.39858 353.2239 
L 374.184337 353.2239 
L 402.970095 353.2239 
L 431.755852 353.2239 
L 460.54161 353.2239 
L 489.327367 353.2239 
L 518.113125 353.2239 
L 546.898883 353.2239 
L 575.68464 353.2239 
L 604.470398 353.2239 
L 633.256155 353.2239 
L 662.041913 353.2239 
L 690.82767 353.2239 
L 719.613428 353.2239 
L 748.399186 353.2239 
L 777.184943 353.2239 
L 805.970701 353.2239 
L 834.756458 353.2239 
L 863.542216 353.2239 
L 892.327973 353.2239 
L 921.113731 353.2239 
L 949.899489 353.2239 
" style="fill:none;stroke:#91e8e1;stroke-linecap:square;"/>
   </g>
   <g id="line2d_87">
    <path clip-path="url(#p8aae0482cf)" d="M 43.148125 353.2239 
L 993.078125 353.2239 
" style="fill:none;stroke:#dedede;stroke-linecap:square;stroke-width:2;"/>
   </g>
   <g id="text_16">
    <!-- Fastp: Duplication Rate -->
    <defs>
     <path d="M 9.8125 72.90625 
L 51.703125 72.90625 
L 51.703125 64.59375 
L 19.671875 64.59375 
L 19.671875 43.109375 
L 48.578125 43.109375 
L 48.578125 34.8125 
L 19.671875 34.8125 
L 19.671875 0 
L 9.8125 0 
z
" id="DejaVuSans-70"/>
     <path d="M 44.28125 53.078125 
L 44.28125 44.578125 
Q 40.484375 46.53125 36.375 47.5 
Q 32.28125 48.484375 27.875 48.484375 
Q 21.1875 48.484375 17.84375 46.4375 
Q 14.5 44.390625 14.5 40.28125 
Q 14.5 37.15625 16.890625 35.375 
Q 19.28125 33.59375 26.515625 31.984375 
L 29.59375 31.296875 
Q 39.15625 29.25 43.1875 25.515625 
Q 47.21875 21.78125 47.21875 15.09375 
Q 47.21875 7.46875 41.1875 3.015625 
Q 35.15625 -1.421875 24.609375 -1.421875 
Q 20.21875 -1.421875 15.453125 -0.5625 
Q 10.6875 0.296875 5.421875 2 
L 5.421875 11.28125 
Q 10.40625 8.6875 15.234375 7.390625 
Q 20.0625 6.109375 24.8125 6.109375 
Q 31.15625 6.109375 34.5625 8.28125 
Q 37.984375 10.453125 37.984375 14.40625 
Q 37.984375 18.0625 35.515625 20.015625 
Q 33.0625 21.96875 24.703125 23.78125 
L 21.578125 24.515625 
Q 13.234375 26.265625 9.515625 29.90625 
Q 5.8125 33.546875 5.8125 39.890625 
Q 5.8125 47.609375 11.28125 51.796875 
Q 16.75 56 26.8125 56 
Q 31.78125 56 36.171875 55.265625 
Q 40.578125 54.546875 44.28125 53.078125 
z
" id="DejaVuSans-115"/>
     <path d="M 11.71875 12.40625 
L 22.015625 12.40625 
L 22.015625 0 
L 11.71875 0 
z
M 11.71875 51.703125 
L 22.015625 51.703125 
L 22.015625 39.3125 
L 11.71875 39.3125 
z
" id="DejaVuSans-58"/>
    </defs>
    <g transform="translate(424.561875 19.3575)scale(0.16 -0.16)">
     <use xlink:href="#DejaVuSans-70"/>
     <use x="57.378906" xlink:href="#DejaVuSans-97"/>
     <use x="118.658203" xlink:href="#DejaVuSans-115"/>
     <use x="170.757812" xlink:href="#DejaVuSans-116"/>
     <use x="209.966797" xlink:href="#DejaVuSans-112"/>
     <use x="273.443359" xlink:href="#DejaVuSans-58"/>
     <use x="307.134766" xlink:href="#DejaVuSans-32"/>
     <use x="338.921875" xlink:href="#DejaVuSans-68"/>
     <use x="415.923828" xlink:href="#DejaVuSans-117"/>
     <use x="479.302734" xlink:href="#DejaVuSans-112"/>
     <use x="542.779297" xlink:href="#DejaVuSans-108"/>
     <use x="570.5625" xlink:href="#DejaVuSans-105"/>
     <use x="598.345703" xlink:href="#DejaVuSans-99"/>
     <use x="653.326172" xlink:href="#DejaVuSans-97"/>
     <use x="714.605469" xlink:href="#DejaVuSans-116"/>
     <use x="753.814453" xlink:href="#DejaVuSans-105"/>
     <use x="781.597656" xlink:href="#DejaVuSans-111"/>
     <use x="842.779297" xlink:href="#DejaVuSans-110"/>
     <use x="906.158203" xlink:href="#DejaVuSans-32"/>
     <use x="937.945312" xlink:href="#DejaVuSans-82"/>
     <use x="1007.396484" xlink:href="#DejaVuSans-97"/>
     <use x="1068.675781" xlink:href="#DejaVuSans-116"/>
     <use x="1107.884766" xlink:href="#DejaVuSans-101"/>
    </g>
   </g>
  </g>
 </g>
 <defs>
  <clipPath id="p8aae0482cf">
   <rect height="317.968" width="949.93" x="43.148125" y="35.2559"/>
  </clipPath>
 </defs>
</svg>
