<?xml version="1.0" encoding="utf-8" standalone="no"?>
<!DOCTYPE svg PUBLIC "-//W3C//DTD SVG 1.1//EN"
  "http://www.w3.org/Graphics/SVG/1.1/DTD/svg11.dtd">
<!-- Created with matplotlib (https://matplotlib.org/) -->
<svg height="388.844525pt" version="1.1" viewBox="0 0 1000.358125 388.844525" width="1000.358125pt" xmlns="http://www.w3.org/2000/svg" xmlns:xlink="http://www.w3.org/1999/xlink">
 <defs>
  <style type="text/css">
*{stroke-linecap:butt;stroke-linejoin:round;}
  </style>
 </defs>
 <g id="figure_1">
  <g id="axes_1">
   <g id="patch_1">
    <path d="M 32.968125 353.2239 
L 993.158125 353.2239 
L 993.158125 35.2559 
L 32.968125 35.2559 
z
" style="fill:#ffffff;"/>
   </g>
   <g id="matplotlib.axis_1">
    <g id="xtick_1">
     <g id="text_1">
      <!-- 0 -->
      <defs>
       <path d="M 31.78125 66.40625 
Q 24.171875 66.40625 20.328125 58.90625 
Q 16.5 51.421875 16.5 36.375 
Q 16.5 21.390625 20.328125 13.890625 
Q 24.171875 6.390625 31.78125 6.390625 
Q 39.453125 6.390625 43.28125 13.890625 
Q 47.125 21.390625 47.125 36.375 
Q 47.125 51.421875 43.28125 58.90625 
Q 39.453125 66.40625 31.78125 66.40625 
z
M 31.78125 74.21875 
Q 44.046875 74.21875 50.515625 64.515625 
Q 56.984375 54.828125 56.984375 36.375 
Q 56.984375 17.96875 50.515625 8.265625 
Q 44.046875 -1.421875 31.78125 -1.421875 
Q 19.53125 -1.421875 13.0625 8.265625 
Q 6.59375 17.96875 6.59375 36.375 
Q 6.59375 54.828125 13.0625 64.515625 
Q 19.53125 74.21875 31.78125 74.21875 
z
" id="DejaVuSans-48"/>
      </defs>
      <g transform="translate(68.209736 366.30265)scale(0.08 -0.08)">
       <use xlink:href="#DejaVuSans-48"/>
      </g>
     </g>
    </g>
    <g id="xtick_2">
     <g id="text_2">
      <!-- 20 -->
      <defs>
       <path d="M 19.1875 8.296875 
L 53.609375 8.296875 
L 53.609375 0 
L 7.328125 0 
L 7.328125 8.296875 
Q 12.9375 14.109375 22.625 23.890625 
Q 32.328125 33.6875 34.8125 36.53125 
Q 39.546875 41.84375 41.421875 45.53125 
Q 43.3125 49.21875 43.3125 52.78125 
Q 43.3125 58.59375 39.234375 62.25 
Q 35.15625 65.921875 28.609375 65.921875 
Q 23.96875 65.921875 18.8125 64.3125 
Q 13.671875 62.703125 7.8125 59.421875 
L 7.8125 69.390625 
Q 13.765625 71.78125 18.9375 73 
Q 24.125 74.21875 28.421875 74.21875 
Q 39.75 74.21875 46.484375 68.546875 
Q 53.21875 62.890625 53.21875 53.421875 
Q 53.21875 48.921875 51.53125 44.890625 
Q 49.859375 40.875 45.40625 35.40625 
Q 44.1875 33.984375 37.640625 27.21875 
Q 31.109375 20.453125 19.1875 8.296875 
z
" id="DejaVuSans-50"/>
      </defs>
      <g transform="translate(182.832521 366.30265)scale(0.08 -0.08)">
       <use xlink:href="#DejaVuSans-50"/>
       <use x="63.623047" xlink:href="#DejaVuSans-48"/>
      </g>
     </g>
    </g>
    <g id="xtick_3">
     <g id="text_3">
      <!-- 40 -->
      <defs>
       <path d="M 37.796875 64.3125 
L 12.890625 25.390625 
L 37.796875 25.390625 
z
M 35.203125 72.90625 
L 47.609375 72.90625 
L 47.609375 25.390625 
L 58.015625 25.390625 
L 58.015625 17.1875 
L 47.609375 17.1875 
L 47.609375 0 
L 37.796875 0 
L 37.796875 17.1875 
L 4.890625 17.1875 
L 4.890625 26.703125 
z
" id="DejaVuSans-52"/>
      </defs>
      <g transform="translate(300.000306 366.30265)scale(0.08 -0.08)">
       <use xlink:href="#DejaVuSans-52"/>
       <use x="63.623047" xlink:href="#DejaVuSans-48"/>
      </g>
     </g>
    </g>
    <g id="xtick_4">
     <g id="text_4">
      <!-- 60 -->
      <defs>
       <path d="M 33.015625 40.375 
Q 26.375 40.375 22.484375 35.828125 
Q 18.609375 31.296875 18.609375 23.390625 
Q 18.609375 15.53125 22.484375 10.953125 
Q 26.375 6.390625 33.015625 6.390625 
Q 39.65625 6.390625 43.53125 10.953125 
Q 47.40625 15.53125 47.40625 23.390625 
Q 47.40625 31.296875 43.53125 35.828125 
Q 39.65625 40.375 33.015625 40.375 
z
M 52.59375 71.296875 
L 52.59375 62.3125 
Q 48.875 64.0625 45.09375 64.984375 
Q 41.3125 65.921875 37.59375 65.921875 
Q 27.828125 65.921875 22.671875 59.328125 
Q 17.53125 52.734375 16.796875 39.40625 
Q 19.671875 43.65625 24.015625 45.921875 
Q 28.375 48.1875 33.59375 48.1875 
Q 44.578125 48.1875 50.953125 41.515625 
Q 57.328125 34.859375 57.328125 23.390625 
Q 57.328125 12.15625 50.6875 5.359375 
Q 44.046875 -1.421875 33.015625 -1.421875 
Q 20.359375 -1.421875 13.671875 8.265625 
Q 6.984375 17.96875 6.984375 36.375 
Q 6.984375 53.65625 15.1875 63.9375 
Q 23.390625 74.21875 37.203125 74.21875 
Q 40.921875 74.21875 44.703125 73.484375 
Q 48.484375 72.75 52.59375 71.296875 
z
" id="DejaVuSans-54"/>
      </defs>
      <g transform="translate(417.168091 366.30265)scale(0.08 -0.08)">
       <use xlink:href="#DejaVuSans-54"/>
       <use x="63.623047" xlink:href="#DejaVuSans-48"/>
      </g>
     </g>
    </g>
    <g id="xtick_5">
     <g id="text_5">
      <!-- 80 -->
      <defs>
       <path d="M 31.78125 34.625 
Q 24.75 34.625 20.71875 30.859375 
Q 16.703125 27.09375 16.703125 20.515625 
Q 16.703125 13.921875 20.71875 10.15625 
Q 24.75 6.390625 31.78125 6.390625 
Q 38.8125 6.390625 42.859375 10.171875 
Q 46.921875 13.96875 46.921875 20.515625 
Q 46.921875 27.09375 42.890625 30.859375 
Q 38.875 34.625 31.78125 34.625 
z
M 21.921875 38.8125 
Q 15.578125 40.375 12.03125 44.71875 
Q 8.5 49.078125 8.5 55.328125 
Q 8.5 64.0625 14.71875 69.140625 
Q 20.953125 74.21875 31.78125 74.21875 
Q 42.671875 74.21875 48.875 69.140625 
Q 55.078125 64.0625 55.078125 55.328125 
Q 55.078125 49.078125 51.53125 44.71875 
Q 48 40.375 41.703125 38.8125 
Q 48.828125 37.15625 52.796875 32.3125 
Q 56.78125 27.484375 56.78125 20.515625 
Q 56.78125 9.90625 50.3125 4.234375 
Q 43.84375 -1.421875 31.78125 -1.421875 
Q 19.734375 -1.421875 13.25 4.234375 
Q 6.78125 9.90625 6.78125 20.515625 
Q 6.78125 27.484375 10.78125 32.3125 
Q 14.796875 37.15625 21.921875 38.8125 
z
M 18.3125 54.390625 
Q 18.3125 48.734375 21.84375 45.5625 
Q 25.390625 42.390625 31.78125 42.390625 
Q 38.140625 42.390625 41.71875 45.5625 
Q 45.3125 48.734375 45.3125 54.390625 
Q 45.3125 60.0625 41.71875 63.234375 
Q 38.140625 66.40625 31.78125 66.40625 
Q 25.390625 66.40625 21.84375 63.234375 
Q 18.3125 60.0625 18.3125 54.390625 
z
" id="DejaVuSans-56"/>
      </defs>
      <g transform="translate(534.335877 366.30265)scale(0.08 -0.08)">
       <use xlink:href="#DejaVuSans-56"/>
       <use x="63.623047" xlink:href="#DejaVuSans-48"/>
      </g>
     </g>
    </g>
    <g id="xtick_6">
     <g id="text_6">
      <!-- 100 -->
      <defs>
       <path d="M 12.40625 8.296875 
L 28.515625 8.296875 
L 28.515625 63.921875 
L 10.984375 60.40625 
L 10.984375 69.390625 
L 28.421875 72.90625 
L 38.28125 72.90625 
L 38.28125 8.296875 
L 54.390625 8.296875 
L 54.390625 0 
L 12.40625 0 
z
" id="DejaVuSans-49"/>
      </defs>
      <g transform="translate(648.958662 366.30265)scale(0.08 -0.08)">
       <use xlink:href="#DejaVuSans-49"/>
       <use x="63.623047" xlink:href="#DejaVuSans-48"/>
       <use x="127.246094" xlink:href="#DejaVuSans-48"/>
      </g>
     </g>
    </g>
    <g id="xtick_7">
     <g id="text_7">
      <!-- 120 -->
      <g transform="translate(766.126447 366.30265)scale(0.08 -0.08)">
       <use xlink:href="#DejaVuSans-49"/>
       <use x="63.623047" xlink:href="#DejaVuSans-50"/>
       <use x="127.246094" xlink:href="#DejaVuSans-48"/>
      </g>
     </g>
    </g>
    <g id="xtick_8">
     <g id="text_8">
      <!-- 140 -->
      <g transform="translate(883.294232 366.30265)scale(0.08 -0.08)">
       <use xlink:href="#DejaVuSans-49"/>
       <use x="63.623047" xlink:href="#DejaVuSans-52"/>
       <use x="127.246094" xlink:href="#DejaVuSans-48"/>
      </g>
     </g>
    </g>
    <g id="text_9">
     <!-- Read Position -->
     <defs>
      <path d="M 44.390625 34.1875 
Q 47.5625 33.109375 50.5625 29.59375 
Q 53.5625 26.078125 56.59375 19.921875 
L 66.609375 0 
L 56 0 
L 46.6875 18.703125 
Q 43.0625 26.03125 39.671875 28.421875 
Q 36.28125 30.8125 30.421875 30.8125 
L 19.671875 30.8125 
L 19.671875 0 
L 9.8125 0 
L 9.8125 72.90625 
L 32.078125 72.90625 
Q 44.578125 72.90625 50.734375 67.671875 
Q 56.890625 62.453125 56.890625 51.90625 
Q 56.890625 45.015625 53.6875 40.46875 
Q 50.484375 35.9375 44.390625 34.1875 
z
M 19.671875 64.796875 
L 19.671875 38.921875 
L 32.078125 38.921875 
Q 39.203125 38.921875 42.84375 42.21875 
Q 46.484375 45.515625 46.484375 51.90625 
Q 46.484375 58.296875 42.84375 61.546875 
Q 39.203125 64.796875 32.078125 64.796875 
z
" id="DejaVuSans-82"/>
      <path d="M 56.203125 29.59375 
L 56.203125 25.203125 
L 14.890625 25.203125 
Q 15.484375 15.921875 20.484375 11.0625 
Q 25.484375 6.203125 34.421875 6.203125 
Q 39.59375 6.203125 44.453125 7.46875 
Q 49.3125 8.734375 54.109375 11.28125 
L 54.109375 2.78125 
Q 49.265625 0.734375 44.1875 -0.34375 
Q 39.109375 -1.421875 33.890625 -1.421875 
Q 20.796875 -1.421875 13.15625 6.1875 
Q 5.515625 13.8125 5.515625 26.8125 
Q 5.515625 40.234375 12.765625 48.109375 
Q 20.015625 56 32.328125 56 
Q 43.359375 56 49.78125 48.890625 
Q 56.203125 41.796875 56.203125 29.59375 
z
M 47.21875 32.234375 
Q 47.125 39.59375 43.09375 43.984375 
Q 39.0625 48.390625 32.421875 48.390625 
Q 24.90625 48.390625 20.390625 44.140625 
Q 15.875 39.890625 15.1875 32.171875 
z
" id="DejaVuSans-101"/>
      <path d="M 34.28125 27.484375 
Q 23.390625 27.484375 19.1875 25 
Q 14.984375 22.515625 14.984375 16.5 
Q 14.984375 11.71875 18.140625 8.90625 
Q 21.296875 6.109375 26.703125 6.109375 
Q 34.1875 6.109375 38.703125 11.40625 
Q 43.21875 16.703125 43.21875 25.484375 
L 43.21875 27.484375 
z
M 52.203125 31.203125 
L 52.203125 0 
L 43.21875 0 
L 43.21875 8.296875 
Q 40.140625 3.328125 35.546875 0.953125 
Q 30.953125 -1.421875 24.3125 -1.421875 
Q 15.921875 -1.421875 10.953125 3.296875 
Q 6 8.015625 6 15.921875 
Q 6 25.140625 12.171875 29.828125 
Q 18.359375 34.515625 30.609375 34.515625 
L 43.21875 34.515625 
L 43.21875 35.40625 
Q 43.21875 41.609375 39.140625 45 
Q 35.0625 48.390625 27.6875 48.390625 
Q 23 48.390625 18.546875 47.265625 
Q 14.109375 46.140625 10.015625 43.890625 
L 10.015625 52.203125 
Q 14.9375 54.109375 19.578125 55.046875 
Q 24.21875 56 28.609375 56 
Q 40.484375 56 46.34375 49.84375 
Q 52.203125 43.703125 52.203125 31.203125 
z
" id="DejaVuSans-97"/>
      <path d="M 45.40625 46.390625 
L 45.40625 75.984375 
L 54.390625 75.984375 
L 54.390625 0 
L 45.40625 0 
L 45.40625 8.203125 
Q 42.578125 3.328125 38.25 0.953125 
Q 33.9375 -1.421875 27.875 -1.421875 
Q 17.96875 -1.421875 11.734375 6.484375 
Q 5.515625 14.40625 5.515625 27.296875 
Q 5.515625 40.1875 11.734375 48.09375 
Q 17.96875 56 27.875 56 
Q 33.9375 56 38.25 53.625 
Q 42.578125 51.265625 45.40625 46.390625 
z
M 14.796875 27.296875 
Q 14.796875 17.390625 18.875 11.75 
Q 22.953125 6.109375 30.078125 6.109375 
Q 37.203125 6.109375 41.296875 11.75 
Q 45.40625 17.390625 45.40625 27.296875 
Q 45.40625 37.203125 41.296875 42.84375 
Q 37.203125 48.484375 30.078125 48.484375 
Q 22.953125 48.484375 18.875 42.84375 
Q 14.796875 37.203125 14.796875 27.296875 
z
" id="DejaVuSans-100"/>
      <path id="DejaVuSans-32"/>
      <path d="M 19.671875 64.796875 
L 19.671875 37.40625 
L 32.078125 37.40625 
Q 38.96875 37.40625 42.71875 40.96875 
Q 46.484375 44.53125 46.484375 51.125 
Q 46.484375 57.671875 42.71875 61.234375 
Q 38.96875 64.796875 32.078125 64.796875 
z
M 9.8125 72.90625 
L 32.078125 72.90625 
Q 44.34375 72.90625 50.609375 67.359375 
Q 56.890625 61.8125 56.890625 51.125 
Q 56.890625 40.328125 50.609375 34.8125 
Q 44.34375 29.296875 32.078125 29.296875 
L 19.671875 29.296875 
L 19.671875 0 
L 9.8125 0 
z
" id="DejaVuSans-80"/>
      <path d="M 30.609375 48.390625 
Q 23.390625 48.390625 19.1875 42.75 
Q 14.984375 37.109375 14.984375 27.296875 
Q 14.984375 17.484375 19.15625 11.84375 
Q 23.34375 6.203125 30.609375 6.203125 
Q 37.796875 6.203125 41.984375 11.859375 
Q 46.1875 17.53125 46.1875 27.296875 
Q 46.1875 37.015625 41.984375 42.703125 
Q 37.796875 48.390625 30.609375 48.390625 
z
M 30.609375 56 
Q 42.328125 56 49.015625 48.375 
Q 55.71875 40.765625 55.71875 27.296875 
Q 55.71875 13.875 49.015625 6.21875 
Q 42.328125 -1.421875 30.609375 -1.421875 
Q 18.84375 -1.421875 12.171875 6.21875 
Q 5.515625 13.875 5.515625 27.296875 
Q 5.515625 40.765625 12.171875 48.375 
Q 18.84375 56 30.609375 56 
z
" id="DejaVuSans-111"/>
      <path d="M 44.28125 53.078125 
L 44.28125 44.578125 
Q 40.484375 46.53125 36.375 47.5 
Q 32.28125 48.484375 27.875 48.484375 
Q 21.1875 48.484375 17.84375 46.4375 
Q 14.5 44.390625 14.5 40.28125 
Q 14.5 37.15625 16.890625 35.375 
Q 19.28125 33.59375 26.515625 31.984375 
L 29.59375 31.296875 
Q 39.15625 29.25 43.1875 25.515625 
Q 47.21875 21.78125 47.21875 15.09375 
Q 47.21875 7.46875 41.1875 3.015625 
Q 35.15625 -1.421875 24.609375 -1.421875 
Q 20.21875 -1.421875 15.453125 -0.5625 
Q 10.6875 0.296875 5.421875 2 
L 5.421875 11.28125 
Q 10.40625 8.6875 15.234375 7.390625 
Q 20.0625 6.109375 24.8125 6.109375 
Q 31.15625 6.109375 34.5625 8.28125 
Q 37.984375 10.453125 37.984375 14.40625 
Q 37.984375 18.0625 35.515625 20.015625 
Q 33.0625 21.96875 24.703125 23.78125 
L 21.578125 24.515625 
Q 13.234375 26.265625 9.515625 29.90625 
Q 5.8125 33.546875 5.8125 39.890625 
Q 5.8125 47.609375 11.28125 51.796875 
Q 16.75 56 26.8125 56 
Q 31.78125 56 36.171875 55.265625 
Q 40.578125 54.546875 44.28125 53.078125 
z
" id="DejaVuSans-115"/>
      <path d="M 9.421875 54.6875 
L 18.40625 54.6875 
L 18.40625 0 
L 9.421875 0 
z
M 9.421875 75.984375 
L 18.40625 75.984375 
L 18.40625 64.59375 
L 9.421875 64.59375 
z
" id="DejaVuSans-105"/>
      <path d="M 18.3125 70.21875 
L 18.3125 54.6875 
L 36.8125 54.6875 
L 36.8125 47.703125 
L 18.3125 47.703125 
L 18.3125 18.015625 
Q 18.3125 11.328125 20.140625 9.421875 
Q 21.96875 7.515625 27.59375 7.515625 
L 36.8125 7.515625 
L 36.8125 0 
L 27.59375 0 
Q 17.1875 0 13.234375 3.875 
Q 9.28125 7.765625 9.28125 18.015625 
L 9.28125 47.703125 
L 2.6875 47.703125 
L 2.6875 54.6875 
L 9.28125 54.6875 
L 9.28125 70.21875 
z
" id="DejaVuSans-116"/>
      <path d="M 54.890625 33.015625 
L 54.890625 0 
L 45.90625 0 
L 45.90625 32.71875 
Q 45.90625 40.484375 42.875 44.328125 
Q 39.84375 48.1875 33.796875 48.1875 
Q 26.515625 48.1875 22.3125 43.546875 
Q 18.109375 38.921875 18.109375 30.90625 
L 18.109375 0 
L 9.078125 0 
L 9.078125 54.6875 
L 18.109375 54.6875 
L 18.109375 46.1875 
Q 21.34375 51.125 25.703125 53.5625 
Q 30.078125 56 35.796875 56 
Q 45.21875 56 50.046875 50.171875 
Q 54.890625 44.34375 54.890625 33.015625 
z
" id="DejaVuSans-110"/>
     </defs>
     <g transform="translate(479.045156 379.564837)scale(0.1 -0.1)">
      <use xlink:href="#DejaVuSans-82"/>
      <use x="69.419922" xlink:href="#DejaVuSans-101"/>
      <use x="130.943359" xlink:href="#DejaVuSans-97"/>
      <use x="192.222656" xlink:href="#DejaVuSans-100"/>
      <use x="255.699219" xlink:href="#DejaVuSans-32"/>
      <use x="287.486328" xlink:href="#DejaVuSans-80"/>
      <use x="347.742188" xlink:href="#DejaVuSans-111"/>
      <use x="408.923828" xlink:href="#DejaVuSans-115"/>
      <use x="461.023438" xlink:href="#DejaVuSans-105"/>
      <use x="488.806641" xlink:href="#DejaVuSans-116"/>
      <use x="528.015625" xlink:href="#DejaVuSans-105"/>
      <use x="555.798828" xlink:href="#DejaVuSans-111"/>
      <use x="616.980469" xlink:href="#DejaVuSans-110"/>
     </g>
    </g>
   </g>
   <g id="matplotlib.axis_2">
    <g id="ytick_1">
     <g id="line2d_1">
      <path clip-path="url(#p3bb4f84126)" d="M 32.968125 353.2239 
L 993.158125 353.2239 
" style="fill:none;stroke:#dedede;stroke-linecap:square;"/>
     </g>
     <g id="text_10">
      <!-- 0 -->
      <g transform="translate(20.878125 356.263275)scale(0.08 -0.08)">
       <use xlink:href="#DejaVuSans-48"/>
      </g>
     </g>
    </g>
    <g id="ytick_2">
     <g id="line2d_2">
      <path clip-path="url(#p3bb4f84126)" d="M 32.968125 289.6303 
L 993.158125 289.6303 
" style="fill:none;stroke:#dedede;stroke-linecap:square;"/>
     </g>
     <g id="text_11">
      <!-- 1 -->
      <g transform="translate(20.878125 292.669675)scale(0.08 -0.08)">
       <use xlink:href="#DejaVuSans-49"/>
      </g>
     </g>
    </g>
    <g id="ytick_3">
     <g id="line2d_3">
      <path clip-path="url(#p3bb4f84126)" d="M 32.968125 226.0367 
L 993.158125 226.0367 
" style="fill:none;stroke:#dedede;stroke-linecap:square;"/>
     </g>
     <g id="text_12">
      <!-- 2 -->
      <g transform="translate(20.878125 229.076075)scale(0.08 -0.08)">
       <use xlink:href="#DejaVuSans-50"/>
      </g>
     </g>
    </g>
    <g id="ytick_4">
     <g id="line2d_4">
      <path clip-path="url(#p3bb4f84126)" d="M 32.968125 162.4431 
L 993.158125 162.4431 
" style="fill:none;stroke:#dedede;stroke-linecap:square;"/>
     </g>
     <g id="text_13">
      <!-- 3 -->
      <defs>
       <path d="M 40.578125 39.3125 
Q 47.65625 37.796875 51.625 33 
Q 55.609375 28.21875 55.609375 21.1875 
Q 55.609375 10.40625 48.1875 4.484375 
Q 40.765625 -1.421875 27.09375 -1.421875 
Q 22.515625 -1.421875 17.65625 -0.515625 
Q 12.796875 0.390625 7.625 2.203125 
L 7.625 11.71875 
Q 11.71875 9.328125 16.59375 8.109375 
Q 21.484375 6.890625 26.8125 6.890625 
Q 36.078125 6.890625 40.9375 10.546875 
Q 45.796875 14.203125 45.796875 21.1875 
Q 45.796875 27.640625 41.28125 31.265625 
Q 36.765625 34.90625 28.71875 34.90625 
L 20.21875 34.90625 
L 20.21875 43.015625 
L 29.109375 43.015625 
Q 36.375 43.015625 40.234375 45.921875 
Q 44.09375 48.828125 44.09375 54.296875 
Q 44.09375 59.90625 40.109375 62.90625 
Q 36.140625 65.921875 28.71875 65.921875 
Q 24.65625 65.921875 20.015625 65.03125 
Q 15.375 64.15625 9.8125 62.3125 
L 9.8125 71.09375 
Q 15.4375 72.65625 20.34375 73.4375 
Q 25.25 74.21875 29.59375 74.21875 
Q 40.828125 74.21875 47.359375 69.109375 
Q 53.90625 64.015625 53.90625 55.328125 
Q 53.90625 49.265625 50.4375 45.09375 
Q 46.96875 40.921875 40.578125 39.3125 
z
" id="DejaVuSans-51"/>
      </defs>
      <g transform="translate(20.878125 165.482475)scale(0.08 -0.08)">
       <use xlink:href="#DejaVuSans-51"/>
      </g>
     </g>
    </g>
    <g id="ytick_5">
     <g id="line2d_5">
      <path clip-path="url(#p3bb4f84126)" d="M 32.968125 98.8495 
L 993.158125 98.8495 
" style="fill:none;stroke:#dedede;stroke-linecap:square;"/>
     </g>
     <g id="text_14">
      <!-- 4 -->
      <g transform="translate(20.878125 101.888875)scale(0.08 -0.08)">
       <use xlink:href="#DejaVuSans-52"/>
      </g>
     </g>
    </g>
    <g id="ytick_6">
     <g id="line2d_6">
      <path clip-path="url(#p3bb4f84126)" d="M 32.968125 35.2559 
L 993.158125 35.2559 
" style="fill:none;stroke:#dedede;stroke-linecap:square;"/>
     </g>
     <g id="text_15">
      <!-- 5 -->
      <defs>
       <path d="M 10.796875 72.90625 
L 49.515625 72.90625 
L 49.515625 64.59375 
L 19.828125 64.59375 
L 19.828125 46.734375 
Q 21.96875 47.46875 24.109375 47.828125 
Q 26.265625 48.1875 28.421875 48.1875 
Q 40.625 48.1875 47.75 41.5 
Q 54.890625 34.8125 54.890625 23.390625 
Q 54.890625 11.625 47.5625 5.09375 
Q 40.234375 -1.421875 26.90625 -1.421875 
Q 22.3125 -1.421875 17.546875 -0.640625 
Q 12.796875 0.140625 7.71875 1.703125 
L 7.71875 11.625 
Q 12.109375 9.234375 16.796875 8.0625 
Q 21.484375 6.890625 26.703125 6.890625 
Q 35.15625 6.890625 40.078125 11.328125 
Q 45.015625 15.765625 45.015625 23.390625 
Q 45.015625 31 40.078125 35.4375 
Q 35.15625 39.890625 26.703125 39.890625 
Q 22.75 39.890625 18.8125 39.015625 
Q 14.890625 38.140625 10.796875 36.28125 
z
" id="DejaVuSans-53"/>
      </defs>
      <g transform="translate(20.878125 38.295275)scale(0.08 -0.08)">
       <use xlink:href="#DejaVuSans-53"/>
      </g>
     </g>
    </g>
    <g id="text_16">
     <!-- R2 After filtering: Base Content Percent -->
     <defs>
      <path d="M 34.1875 63.1875 
L 20.796875 26.90625 
L 47.609375 26.90625 
z
M 28.609375 72.90625 
L 39.796875 72.90625 
L 67.578125 0 
L 57.328125 0 
L 50.6875 18.703125 
L 17.828125 18.703125 
L 11.1875 0 
L 0.78125 0 
z
" id="DejaVuSans-65"/>
      <path d="M 37.109375 75.984375 
L 37.109375 68.5 
L 28.515625 68.5 
Q 23.6875 68.5 21.796875 66.546875 
Q 19.921875 64.59375 19.921875 59.515625 
L 19.921875 54.6875 
L 34.71875 54.6875 
L 34.71875 47.703125 
L 19.921875 47.703125 
L 19.921875 0 
L 10.890625 0 
L 10.890625 47.703125 
L 2.296875 47.703125 
L 2.296875 54.6875 
L 10.890625 54.6875 
L 10.890625 58.5 
Q 10.890625 67.625 15.140625 71.796875 
Q 19.390625 75.984375 28.609375 75.984375 
z
" id="DejaVuSans-102"/>
      <path d="M 41.109375 46.296875 
Q 39.59375 47.171875 37.8125 47.578125 
Q 36.03125 48 33.890625 48 
Q 26.265625 48 22.1875 43.046875 
Q 18.109375 38.09375 18.109375 28.8125 
L 18.109375 0 
L 9.078125 0 
L 9.078125 54.6875 
L 18.109375 54.6875 
L 18.109375 46.1875 
Q 20.953125 51.171875 25.484375 53.578125 
Q 30.03125 56 36.53125 56 
Q 37.453125 56 38.578125 55.875 
Q 39.703125 55.765625 41.0625 55.515625 
z
" id="DejaVuSans-114"/>
      <path d="M 9.421875 75.984375 
L 18.40625 75.984375 
L 18.40625 0 
L 9.421875 0 
z
" id="DejaVuSans-108"/>
      <path d="M 45.40625 27.984375 
Q 45.40625 37.75 41.375 43.109375 
Q 37.359375 48.484375 30.078125 48.484375 
Q 22.859375 48.484375 18.828125 43.109375 
Q 14.796875 37.75 14.796875 27.984375 
Q 14.796875 18.265625 18.828125 12.890625 
Q 22.859375 7.515625 30.078125 7.515625 
Q 37.359375 7.515625 41.375 12.890625 
Q 45.40625 18.265625 45.40625 27.984375 
z
M 54.390625 6.78125 
Q 54.390625 -7.171875 48.1875 -13.984375 
Q 42 -20.796875 29.203125 -20.796875 
Q 24.46875 -20.796875 20.265625 -20.09375 
Q 16.0625 -19.390625 12.109375 -17.921875 
L 12.109375 -9.1875 
Q 16.0625 -11.328125 19.921875 -12.34375 
Q 23.78125 -13.375 27.78125 -13.375 
Q 36.625 -13.375 41.015625 -8.765625 
Q 45.40625 -4.15625 45.40625 5.171875 
L 45.40625 9.625 
Q 42.625 4.78125 38.28125 2.390625 
Q 33.9375 0 27.875 0 
Q 17.828125 0 11.671875 7.65625 
Q 5.515625 15.328125 5.515625 27.984375 
Q 5.515625 40.671875 11.671875 48.328125 
Q 17.828125 56 27.875 56 
Q 33.9375 56 38.28125 53.609375 
Q 42.625 51.21875 45.40625 46.390625 
L 45.40625 54.6875 
L 54.390625 54.6875 
z
" id="DejaVuSans-103"/>
      <path d="M 11.71875 12.40625 
L 22.015625 12.40625 
L 22.015625 0 
L 11.71875 0 
z
M 11.71875 51.703125 
L 22.015625 51.703125 
L 22.015625 39.3125 
L 11.71875 39.3125 
z
" id="DejaVuSans-58"/>
      <path d="M 19.671875 34.8125 
L 19.671875 8.109375 
L 35.5 8.109375 
Q 43.453125 8.109375 47.28125 11.40625 
Q 51.125 14.703125 51.125 21.484375 
Q 51.125 28.328125 47.28125 31.5625 
Q 43.453125 34.8125 35.5 34.8125 
z
M 19.671875 64.796875 
L 19.671875 42.828125 
L 34.28125 42.828125 
Q 41.5 42.828125 45.03125 45.53125 
Q 48.578125 48.25 48.578125 53.8125 
Q 48.578125 59.328125 45.03125 62.0625 
Q 41.5 64.796875 34.28125 64.796875 
z
M 9.8125 72.90625 
L 35.015625 72.90625 
Q 46.296875 72.90625 52.390625 68.21875 
Q 58.5 63.53125 58.5 54.890625 
Q 58.5 48.1875 55.375 44.234375 
Q 52.25 40.28125 46.1875 39.3125 
Q 53.46875 37.75 57.5 32.78125 
Q 61.53125 27.828125 61.53125 20.40625 
Q 61.53125 10.640625 54.890625 5.3125 
Q 48.25 0 35.984375 0 
L 9.8125 0 
z
" id="DejaVuSans-66"/>
      <path d="M 64.40625 67.28125 
L 64.40625 56.890625 
Q 59.421875 61.53125 53.78125 63.8125 
Q 48.140625 66.109375 41.796875 66.109375 
Q 29.296875 66.109375 22.65625 58.46875 
Q 16.015625 50.828125 16.015625 36.375 
Q 16.015625 21.96875 22.65625 14.328125 
Q 29.296875 6.6875 41.796875 6.6875 
Q 48.140625 6.6875 53.78125 8.984375 
Q 59.421875 11.28125 64.40625 15.921875 
L 64.40625 5.609375 
Q 59.234375 2.09375 53.4375 0.328125 
Q 47.65625 -1.421875 41.21875 -1.421875 
Q 24.65625 -1.421875 15.125 8.703125 
Q 5.609375 18.84375 5.609375 36.375 
Q 5.609375 53.953125 15.125 64.078125 
Q 24.65625 74.21875 41.21875 74.21875 
Q 47.75 74.21875 53.53125 72.484375 
Q 59.328125 70.75 64.40625 67.28125 
z
" id="DejaVuSans-67"/>
      <path d="M 48.78125 52.59375 
L 48.78125 44.1875 
Q 44.96875 46.296875 41.140625 47.34375 
Q 37.3125 48.390625 33.40625 48.390625 
Q 24.65625 48.390625 19.8125 42.84375 
Q 14.984375 37.3125 14.984375 27.296875 
Q 14.984375 17.28125 19.8125 11.734375 
Q 24.65625 6.203125 33.40625 6.203125 
Q 37.3125 6.203125 41.140625 7.25 
Q 44.96875 8.296875 48.78125 10.40625 
L 48.78125 2.09375 
Q 45.015625 0.34375 40.984375 -0.53125 
Q 36.96875 -1.421875 32.421875 -1.421875 
Q 20.0625 -1.421875 12.78125 6.34375 
Q 5.515625 14.109375 5.515625 27.296875 
Q 5.515625 40.671875 12.859375 48.328125 
Q 20.21875 56 33.015625 56 
Q 37.15625 56 41.109375 55.140625 
Q 45.0625 54.296875 48.78125 52.59375 
z
" id="DejaVuSans-99"/>
     </defs>
     <g transform="translate(14.798438 293.315681)rotate(-90)scale(0.1 -0.1)">
      <use xlink:href="#DejaVuSans-82"/>
      <use x="69.482422" xlink:href="#DejaVuSans-50"/>
      <use x="133.105469" xlink:href="#DejaVuSans-32"/>
      <use x="164.892578" xlink:href="#DejaVuSans-65"/>
      <use x="233.253906" xlink:href="#DejaVuSans-102"/>
      <use x="268.443359" xlink:href="#DejaVuSans-116"/>
      <use x="307.652344" xlink:href="#DejaVuSans-101"/>
      <use x="369.175781" xlink:href="#DejaVuSans-114"/>
      <use x="410.289062" xlink:href="#DejaVuSans-32"/>
      <use x="442.076172" xlink:href="#DejaVuSans-102"/>
      <use x="477.28125" xlink:href="#DejaVuSans-105"/>
      <use x="505.064453" xlink:href="#DejaVuSans-108"/>
      <use x="532.847656" xlink:href="#DejaVuSans-116"/>
      <use x="572.056641" xlink:href="#DejaVuSans-101"/>
      <use x="633.580078" xlink:href="#DejaVuSans-114"/>
      <use x="674.693359" xlink:href="#DejaVuSans-105"/>
      <use x="702.476562" xlink:href="#DejaVuSans-110"/>
      <use x="765.855469" xlink:href="#DejaVuSans-103"/>
      <use x="829.332031" xlink:href="#DejaVuSans-58"/>
      <use x="863.023438" xlink:href="#DejaVuSans-32"/>
      <use x="894.810547" xlink:href="#DejaVuSans-66"/>
      <use x="963.414062" xlink:href="#DejaVuSans-97"/>
      <use x="1024.693359" xlink:href="#DejaVuSans-115"/>
      <use x="1076.792969" xlink:href="#DejaVuSans-101"/>
      <use x="1138.316406" xlink:href="#DejaVuSans-32"/>
      <use x="1170.103516" xlink:href="#DejaVuSans-67"/>
      <use x="1239.927734" xlink:href="#DejaVuSans-111"/>
      <use x="1301.109375" xlink:href="#DejaVuSans-110"/>
      <use x="1364.488281" xlink:href="#DejaVuSans-116"/>
      <use x="1403.697266" xlink:href="#DejaVuSans-101"/>
      <use x="1465.220703" xlink:href="#DejaVuSans-110"/>
      <use x="1528.599609" xlink:href="#DejaVuSans-116"/>
      <use x="1567.808594" xlink:href="#DejaVuSans-32"/>
      <use x="1599.595703" xlink:href="#DejaVuSans-80"/>
      <use x="1659.851562" xlink:href="#DejaVuSans-101"/>
      <use x="1721.375" xlink:href="#DejaVuSans-114"/>
      <use x="1762.457031" xlink:href="#DejaVuSans-99"/>
      <use x="1817.4375" xlink:href="#DejaVuSans-101"/>
      <use x="1878.960938" xlink:href="#DejaVuSans-110"/>
      <use x="1942.339844" xlink:href="#DejaVuSans-116"/>
     </g>
    </g>
   </g>
   <g id="line2d_7">
    <path clip-path="url(#p3bb4f84126)" d="M 76.613125 353.2239 
L 82.471514 353.15736 
L 94.188293 353.2239 
L 164.488964 353.20172 
L 170.347353 352.8912 
L 176.205742 352.91338 
L 182.064132 353.2239 
L 193.78091 353.17954 
L 199.639299 353.02428 
L 205.497689 353.2239 
L 211.356078 353.09082 
L 217.214467 353.2239 
L 246.506414 353.2239 
L 357.81581 353.200466 
L 363.674199 352.96462 
L 369.532588 353.2239 
L 492.558763 353.2239 
L 498.417152 353.104382 
L 504.275541 353.2239 
L 515.99232 353.2239 
L 521.850709 353.0646 
L 527.709098 353.2239 
L 650.735273 353.2239 
L 656.593662 352.874432 
L 662.452051 353.2239 
L 756.186279 353.2239 
L 762.044669 353.07439 
L 767.903058 353.2239 
L 949.513125 353.2239 
L 949.513125 353.2239 
" style="fill:none;stroke:#7cb5ec;stroke-linecap:square;"/>
   </g>
   <g id="line2d_8">
    <path clip-path="url(#p3bb4f84126)" d="M 76.613125 353.2239 
L 88.329904 353.2239 
L 164.488964 353.147523 
L 170.347353 352.577427 
L 176.205742 352.57197 
L 182.064132 353.215717 
L 193.78091 353.202078 
L 199.639299 352.760185 
L 205.497689 353.207534 
L 211.356078 353.10388 
L 217.214467 353.221172 
L 258.223192 353.202078 
L 293.373528 353.2239 
L 351.95742 353.19615 
L 357.81581 353.095986 
L 363.674199 352.766863 
L 369.532588 353.2239 
L 515.99232 353.198056 
L 521.850709 353.093496 
L 527.709098 353.220609 
L 650.735273 353.203296 
L 656.593662 353.07796 
L 662.452051 353.2239 
L 756.186279 353.131465 
L 762.044669 352.989827 
L 767.903058 353.2239 
L 949.513125 353.2239 
L 949.513125 353.2239 
" style="fill:none;stroke:#434348;stroke-linecap:square;"/>
   </g>
   <g id="line2d_9">
    <path clip-path="url(#p3bb4f84126)" d="M 76.613125 353.2239 
L 146.913796 353.216073 
L 164.488964 353.209811 
L 176.205742 353.018829 
L 182.064132 353.219204 
L 258.223192 353.181634 
L 275.79836 353.2239 
L 357.81581 353.197281 
L 363.674199 353.068196 
L 369.532588 353.2239 
L 949.513125 353.2239 
L 949.513125 353.2239 
" style="fill:none;stroke:#90ed7d;stroke-linecap:square;"/>
   </g>
   <g id="line2d_10">
    <path clip-path="url(#p3bb4f84126)" d="M 76.613125 353.2239 
L 117.62185 353.2239 
L 170.347353 353.107385 
L 176.205742 353.005435 
L 182.064132 353.219045 
L 264.081581 353.2239 
L 357.81581 353.183683 
L 363.674199 353.0042 
L 369.532588 353.2239 
L 515.99232 353.213627 
L 521.850709 353.105266 
L 527.709098 353.2239 
L 949.513125 353.2239 
L 949.513125 353.2239 
" style="fill:none;stroke:#f7a35c;stroke-linecap:square;"/>
   </g>
   <g id="line2d_11">
    <path clip-path="url(#p3bb4f84126)" d="M 76.613125 353.2239 
L 82.471514 353.166887 
L 94.188293 353.2239 
L 164.488964 353.14907 
L 170.347353 352.782048 
L 176.205742 352.586069 
L 182.064132 353.21321 
L 193.78091 353.184704 
L 199.639299 352.938835 
L 205.497689 353.198957 
L 211.356078 353.102747 
L 217.214467 353.220337 
L 357.81581 353.070942 
L 363.674199 352.687137 
L 369.532588 353.2239 
L 515.99232 353.187822 
L 521.850709 353.050175 
L 527.709098 353.2239 
L 662.452051 353.2239 
L 750.32789 353.19024 
L 756.186279 353.001541 
L 762.044669 352.980618 
L 767.903058 353.2239 
L 949.513125 353.2239 
L 949.513125 353.2239 
" style="fill:none;stroke:#8085e9;stroke-linecap:square;"/>
   </g>
   <g id="line2d_12">
    <path clip-path="url(#p3bb4f84126)" d="M 76.613125 353.2239 
L 105.905071 353.199687 
L 129.338628 353.220441 
L 141.055407 353.209295 
L 164.488964 353.208911 
L 176.205742 352.932191 
L 182.064132 353.22121 
L 305.090306 353.2239 
L 357.81581 353.172073 
L 363.674199 352.951478 
L 369.532588 353.22349 
L 515.99232 353.212473 
L 521.850709 353.089693 
L 527.709098 353.2239 
L 791.336615 353.2239 
L 949.513125 353.2239 
L 949.513125 353.2239 
" style="fill:none;stroke:#f15c80;stroke-linecap:square;"/>
   </g>
   <g id="line2d_13">
    <path clip-path="url(#p3bb4f84126)" d="M 76.613125 353.2239 
L 158.630575 353.206308 
L 170.347353 353.162747 
L 176.205742 353.02201 
L 182.064132 353.22013 
L 228.931246 353.208821 
L 252.364803 353.214266 
L 258.223192 353.149762 
L 269.939971 353.2239 
L 357.81581 353.192123 
L 363.674199 352.968646 
L 369.532588 353.222961 
L 949.513125 353.2239 
L 949.513125 353.2239 
" style="fill:none;stroke:#e4d354;stroke-linecap:square;"/>
   </g>
   <g id="line2d_14">
    <path clip-path="url(#p3bb4f84126)" d="M 76.613125 353.2239 
L 105.905071 353.192777 
L 129.338628 353.221677 
L 141.055407 353.212785 
L 164.488964 353.183885 
L 176.205742 352.848203 
L 182.064132 353.217231 
L 193.78091 353.212785 
L 199.639299 353.052724 
L 205.497689 353.219454 
L 211.356078 353.148316 
L 223.072857 353.212785 
L 357.81581 353.167279 
L 363.674199 352.915234 
L 369.532588 353.2239 
L 515.99232 353.210056 
L 521.850709 353.050464 
L 527.709098 353.220279 
L 756.186279 353.145715 
L 762.044669 353.033536 
L 767.903058 353.2239 
L 949.513125 353.2239 
L 949.513125 353.2239 
" style="fill:none;stroke:#2b908f;stroke-linecap:square;"/>
   </g>
   <g id="line2d_15">
    <path clip-path="url(#p3bb4f84126)" d="M 76.613125 353.2239 
L 105.905071 353.196179 
L 129.338628 353.221032 
L 141.055407 353.210278 
L 164.488964 353.20526 
L 176.205742 352.907496 
L 182.064132 353.217926 
L 234.789635 353.223661 
L 357.81581 353.175683 
L 363.674199 352.938135 
L 369.532588 353.2239 
L 592.15138 353.223418 
L 949.513125 353.2239 
L 949.513125 353.2239 
" style="fill:none;stroke:#f45b5b;stroke-linecap:square;"/>
   </g>
   <g id="line2d_16">
    <path clip-path="url(#p3bb4f84126)" d="M 76.613125 353.2239 
L 88.329904 353.2239 
L 164.488964 353.175544 
L 170.347353 352.824685 
L 176.205742 352.626765 
L 182.064132 353.220526 
L 193.78091 353.204783 
L 199.639299 352.972001 
L 205.497689 353.210405 
L 211.356078 353.130562 
L 223.072857 353.213779 
L 269.939971 353.2239 
L 351.95742 353.193993 
L 357.81581 353.095842 
L 363.674199 352.74004 
L 369.532588 353.222738 
L 656.593662 353.090467 
L 662.452051 353.2239 
L 750.32789 353.201667 
L 762.044669 352.917358 
L 767.903058 353.2239 
L 949.513125 353.2239 
L 949.513125 353.2239 
" style="fill:none;stroke:#91e8e1;stroke-linecap:square;"/>
   </g>
   <g id="line2d_17">
    <path clip-path="url(#p3bb4f84126)" d="M 76.613125 353.2239 
L 105.905071 353.197069 
L 129.338628 353.221255 
L 141.055407 353.209918 
L 164.488964 353.207021 
L 176.205742 352.881024 
L 182.064132 353.219239 
L 234.789635 353.223522 
L 357.81581 353.177078 
L 363.674199 352.92243 
L 369.532588 353.222796 
L 515.99232 353.216832 
L 521.850709 353.077588 
L 527.709098 353.2239 
L 949.513125 353.2239 
L 949.513125 353.2239 
" style="fill:none;stroke:#7cb5ec;stroke-linecap:square;"/>
   </g>
   <g id="line2d_18">
    <path clip-path="url(#p3bb4f84126)" d="M 76.613125 353.2239 
L 170.347353 353.137244 
L 176.205742 353.021701 
L 182.064132 353.2239 
L 252.364803 353.2239 
L 258.223192 353.079472 
L 264.081581 353.2239 
L 357.81581 353.192151 
L 363.674199 353.095762 
L 369.532588 353.2239 
L 726.894333 353.2239 
L 732.752722 353.077708 
L 738.611112 353.2239 
L 949.513125 353.2239 
L 949.513125 353.2239 
" style="fill:none;stroke:#434348;stroke-linecap:square;"/>
   </g>
   <g id="line2d_19">
    <path clip-path="url(#p3bb4f84126)" d="M 76.613125 353.2239 
L 100.046682 353.2239 
L 105.905071 352.86057 
L 111.763461 353.2239 
L 135.197018 353.2239 
L 141.055407 352.86057 
L 146.913796 353.2239 
L 170.347353 353.2239 
L 176.205742 352.86057 
L 182.064132 353.2239 
L 252.364803 353.2239 
L 258.223192 352.86057 
L 264.081581 353.2239 
L 949.513125 353.2239 
L 949.513125 353.2239 
" style="fill:none;stroke:#90ed7d;stroke-linecap:square;"/>
   </g>
   <g id="line2d_20">
    <path clip-path="url(#p3bb4f84126)" d="M 76.613125 353.2239 
L 100.046682 353.2239 
L 105.905071 353.064681 
L 111.763461 353.2239 
L 135.197018 353.2239 
L 141.055407 353.064681 
L 146.913796 353.2239 
L 170.347353 353.2239 
L 176.205742 352.746243 
L 182.064132 353.2239 
L 193.78091 353.2239 
L 199.639299 353.064681 
L 205.497689 353.2239 
L 211.356078 353.064681 
L 217.214467 353.2239 
L 252.364803 353.2239 
L 258.223192 353.064681 
L 264.081581 353.2239 
L 357.81581 353.2239 
L 363.674199 353.051537 
L 369.532588 353.2239 
L 515.99232 353.2239 
L 521.850709 352.967454 
L 527.709098 353.2239 
L 949.513125 353.2239 
L 949.513125 353.2239 
" style="fill:none;stroke:#f7a35c;stroke-linecap:square;"/>
   </g>
   <g id="line2d_21">
    <path clip-path="url(#p3bb4f84126)" d="M 76.613125 353.2239 
L 100.046682 353.2239 
L 105.905071 353.06519 
L 111.763461 353.2239 
L 129.338628 353.2239 
L 135.197018 353.06519 
L 141.055407 353.2239 
L 164.488964 353.2239 
L 176.205742 352.90648 
L 182.064132 353.2239 
L 187.922521 353.2239 
L 193.78091 353.06519 
L 199.639299 353.2239 
L 223.072857 353.2239 
L 228.931246 353.06519 
L 234.789635 353.2239 
L 252.364803 353.2239 
L 258.223192 353.06519 
L 264.081581 353.2239 
L 351.95742 353.2239 
L 357.81581 353.049747 
L 363.674199 353.048251 
L 369.532588 353.2239 
L 515.99232 353.2239 
L 521.850709 352.946247 
L 527.709098 353.2239 
L 949.513125 353.2239 
L 949.513125 353.2239 
" style="fill:none;stroke:#8085e9;stroke-linecap:square;"/>
   </g>
   <g id="line2d_22">
    <path clip-path="url(#p3bb4f84126)" d="M 76.613125 353.2239 
L 158.630575 353.2239 
L 170.347353 352.927764 
L 176.205742 352.927764 
L 182.064132 353.2239 
L 193.78091 353.2239 
L 199.639299 353.075832 
L 205.497689 353.2239 
L 252.364803 353.2239 
L 258.223192 353.075832 
L 264.081581 353.2239 
L 357.81581 353.2239 
L 363.674199 353.060117 
L 369.532588 353.2239 
L 486.700373 353.2239 
L 492.558763 352.997652 
L 498.417152 352.992869 
L 504.275541 353.2239 
L 515.99232 353.2239 
L 521.850709 352.715172 
L 527.709098 353.2239 
L 949.513125 353.2239 
L 949.513125 353.2239 
" style="fill:none;stroke:#f15c80;stroke-linecap:square;"/>
   </g>
   <g id="line2d_23">
    <path clip-path="url(#p3bb4f84126)" d="M 76.613125 353.2239 
L 82.471514 353.144539 
L 94.188293 353.2239 
L 164.488964 353.2239 
L 170.347353 352.985817 
L 176.205742 352.906456 
L 182.064132 353.2239 
L 357.81581 353.2239 
L 363.674199 352.870784 
L 369.532588 353.2239 
L 756.186279 353.2239 
L 762.044669 352.734643 
L 767.903058 353.2239 
L 949.513125 353.2239 
L 949.513125 353.2239 
" style="fill:none;stroke:#e4d354;stroke-linecap:square;"/>
   </g>
   <g id="line2d_24">
    <path clip-path="url(#p3bb4f84126)" d="M 76.613125 353.2239 
L 182.064132 353.2239 
L 187.922521 352.873869 
L 193.78091 353.2239 
L 223.072857 353.2239 
L 228.931246 352.873869 
L 234.789635 353.2239 
L 404.682924 353.2239 
L 410.541313 352.82123 
L 416.399702 353.2239 
L 949.513125 353.2239 
L 949.513125 353.2239 
" style="fill:none;stroke:#2b908f;stroke-linecap:square;"/>
   </g>
   <g id="line2d_25">
    <path clip-path="url(#p3bb4f84126)" d="M 76.613125 353.2239 
L 170.347353 353.132312 
L 176.205742 352.765964 
L 182.064132 353.2239 
L 205.497689 353.2239 
L 211.356078 353.040726 
L 217.214467 353.2239 
L 252.364803 353.2239 
L 258.223192 352.857551 
L 264.081581 353.2239 
L 357.81581 353.124973 
L 363.674199 352.924885 
L 369.532588 353.2239 
L 492.558763 353.2239 
L 498.417152 353.084468 
L 504.275541 353.2239 
L 650.735273 353.2239 
L 656.593662 352.931206 
L 662.452051 353.2239 
L 949.513125 353.2239 
L 949.513125 353.2239 
" style="fill:none;stroke:#f45b5b;stroke-linecap:square;"/>
   </g>
   <g id="line2d_26">
    <path clip-path="url(#p3bb4f84126)" d="M 76.613125 353.2239 
L 94.188293 353.22366 
L 164.488964 353.208269 
L 176.205742 352.893485 
L 182.064132 353.21885 
L 193.78091 353.215483 
L 199.639299 353.082259 
L 205.497689 353.215483 
L 211.356078 353.155845 
L 223.072857 353.211395 
L 357.81581 353.177752 
L 363.674199 352.947686 
L 369.532588 353.222894 
L 515.99232 353.216077 
L 521.850709 353.084889 
L 527.709098 353.2239 
L 949.513125 353.2239 
L 949.513125 353.2239 
" style="fill:none;stroke:#91e8e1;stroke-linecap:square;"/>
   </g>
   <g id="line2d_27">
    <path clip-path="url(#p3bb4f84126)" d="M 76.613125 353.2239 
L 100.046682 353.221296 
L 135.197018 353.163349 
L 152.772185 353.218691 
L 170.347353 353.009043 
L 176.205742 352.826739 
L 182.064132 353.219994 
L 193.78091 353.209576 
L 199.639299 353.048108 
L 205.497689 353.213483 
L 211.356078 353.150978 
L 223.072857 353.215436 
L 357.81581 353.144344 
L 363.674199 352.879152 
L 369.532588 353.221881 
L 492.558763 353.217307 
L 498.417152 353.090584 
L 504.275541 353.223046 
L 515.99232 353.208827 
L 521.850709 353.048416 
L 527.709098 353.222976 
L 756.186279 353.125864 
L 762.044669 353.067659 
L 767.903058 353.2239 
L 949.513125 353.2239 
L 949.513125 353.2239 
" style="fill:none;stroke:#7cb5ec;stroke-linecap:square;"/>
   </g>
   <g id="line2d_28">
    <path clip-path="url(#p3bb4f84126)" d="M 76.613125 353.2239 
L 105.905071 353.198744 
L 129.338628 353.218776 
L 141.055407 353.207595 
L 164.488964 353.205266 
L 176.205742 352.881039 
L 182.064132 353.219707 
L 193.78091 353.213651 
L 199.639299 353.064115 
L 205.497689 353.213651 
L 211.356078 353.148433 
L 223.072857 353.217378 
L 287.515138 353.218268 
L 351.95742 353.207375 
L 357.81581 353.166278 
L 363.674199 352.94119 
L 369.532588 353.223406 
L 949.513125 353.2239 
L 949.513125 353.2239 
" style="fill:none;stroke:#434348;stroke-linecap:square;"/>
   </g>
   <g id="line2d_29">
    <path clip-path="url(#p3bb4f84126)" d="M 76.613125 353.2239 
L 111.763461 353.223667 
L 164.488964 353.2106 
L 176.205742 352.919626 
L 182.064132 353.218767 
L 240.648024 353.2239 
L 357.81581 353.177739 
L 363.674199 352.92928 
L 369.532588 353.22323 
L 515.99232 353.212487 
L 521.850709 353.076492 
L 527.709098 353.2239 
L 949.513125 353.2239 
L 949.513125 353.2239 
" style="fill:none;stroke:#90ed7d;stroke-linecap:square;"/>
   </g>
   <g id="line2d_30">
    <path clip-path="url(#p3bb4f84126)" d="M 76.613125 353.2239 
L 123.480239 353.221637 
L 164.488964 353.208059 
L 176.205742 352.911149 
L 182.064132 353.219223 
L 228.931246 353.206097 
L 252.364803 353.206399 
L 258.223192 353.146052 
L 269.939971 353.2239 
L 357.81581 353.180714 
L 363.674199 352.939579 
L 369.532588 353.222523 
L 492.558763 353.211222 
L 498.417152 353.104319 
L 504.275541 353.22315 
L 515.99232 353.2142 
L 521.850709 353.072655 
L 527.709098 353.2239 
L 949.513125 353.2239 
L 949.513125 353.2239 
" style="fill:none;stroke:#f7a35c;stroke-linecap:square;"/>
   </g>
   <g id="line2d_31">
    <path clip-path="url(#p3bb4f84126)" d="M 76.613125 353.2239 
L 105.905071 353.188445 
L 129.338628 353.220491 
L 141.055407 353.205377 
L 164.488964 353.207195 
L 176.205742 352.866171 
L 182.064132 353.219468 
L 234.789635 353.223559 
L 357.81581 353.175288 
L 363.674199 352.905519 
L 369.532588 353.222856 
L 515.99232 353.216513 
L 521.850709 353.078874 
L 527.709098 353.2239 
L 949.513125 353.2239 
L 949.513125 353.2239 
" style="fill:none;stroke:#8085e9;stroke-linecap:square;"/>
   </g>
   <g id="line2d_32">
    <path clip-path="url(#p3bb4f84126)" d="M 76.613125 353.2239 
L 111.763461 353.223659 
L 164.488964 353.211388 
L 176.205742 352.968611 
L 182.064132 353.21981 
L 240.648024 353.2239 
L 357.81581 353.18835 
L 363.674199 352.990257 
L 369.532588 353.223634 
L 949.513125 353.2239 
L 949.513125 353.2239 
" style="fill:none;stroke:#f15c80;stroke-linecap:square;"/>
   </g>
   <g id="line2d_33">
    <path clip-path="url(#p3bb4f84126)" d="M 76.613125 353.2239 
L 111.763461 353.2239 
L 164.488964 353.209964 
L 176.205742 352.931853 
L 182.064132 353.219356 
L 228.931246 353.208146 
L 252.364803 353.214205 
L 258.223192 353.153918 
L 269.939971 353.2239 
L 357.81581 353.182533 
L 363.674199 352.982597 
L 369.532588 353.2239 
L 949.513125 353.2239 
L 949.513125 353.2239 
" style="fill:none;stroke:#e4d354;stroke-linecap:square;"/>
   </g>
   <g id="line2d_34">
    <path clip-path="url(#p3bb4f84126)" d="M 76.613125 353.2239 
L 111.763461 353.223675 
L 164.488964 353.210389 
L 176.205742 352.917656 
L 182.064132 353.219171 
L 240.648024 353.223675 
L 357.81581 353.179308 
L 363.674199 352.958701 
L 369.532588 353.223134 
L 949.513125 353.2239 
L 949.513125 353.2239 
" style="fill:none;stroke:#2b908f;stroke-linecap:square;"/>
   </g>
   <g id="line2d_35">
    <path clip-path="url(#p3bb4f84126)" d="M 76.613125 353.2239 
L 123.480239 353.221804 
L 164.488964 353.211621 
L 176.205742 352.94898 
L 182.064132 353.219408 
L 258.223192 353.150528 
L 269.939971 353.2239 
L 357.81581 353.185252 
L 363.674199 352.959245 
L 369.532588 353.223239 
L 492.558763 353.21562 
L 498.417152 353.109587 
L 504.275541 353.223419 
L 603.868159 353.222379 
L 949.513125 353.2239 
L 949.513125 353.2239 
" style="fill:none;stroke:#f45b5b;stroke-linecap:square;"/>
   </g>
   <g id="line2d_36">
    <path clip-path="url(#p3bb4f84126)" d="M 76.613125 353.2239 
L 111.763461 353.2239 
L 164.488964 353.209044 
L 176.205742 352.922363 
L 182.064132 353.218752 
L 228.931246 353.20669 
L 252.364803 353.20772 
L 258.223192 353.150943 
L 269.939971 353.2239 
L 357.81581 353.182084 
L 363.674199 352.932966 
L 369.532588 353.223082 
L 515.99232 353.216151 
L 521.850709 353.068184 
L 527.709098 353.2239 
L 949.513125 353.2239 
L 949.513125 353.2239 
" style="fill:none;stroke:#91e8e1;stroke-linecap:square;"/>
   </g>
   <g id="line2d_37">
    <path clip-path="url(#p3bb4f84126)" d="M 76.613125 353.2239 
L 111.763461 353.2239 
L 170.347353 353.128963 
L 176.205742 352.991269 
L 182.064132 353.221726 
L 228.931246 353.205058 
L 252.364803 353.207956 
L 264.081581 353.223175 
L 357.81581 353.186713 
L 363.674199 353.006079 
L 369.532588 353.22229 
L 949.513125 353.2239 
L 949.513125 353.2239 
" style="fill:none;stroke:#7cb5ec;stroke-linecap:square;"/>
   </g>
   <g id="line2d_38">
    <path clip-path="url(#p3bb4f84126)" d="M 76.613125 353.2239 
L 117.62185 353.223428 
L 170.347353 353.114085 
L 176.205742 352.953023 
L 182.064132 353.219885 
L 228.931246 353.207841 
L 252.364803 353.213037 
L 258.223192 353.154233 
L 269.939971 353.2239 
L 357.81581 353.187599 
L 363.674199 352.980106 
L 369.532588 353.223095 
L 949.513125 353.2239 
L 949.513125 353.2239 
" style="fill:none;stroke:#434348;stroke-linecap:square;"/>
   </g>
   <g id="line2d_39">
    <path clip-path="url(#p3bb4f84126)" d="M 76.613125 353.2239 
L 123.480239 353.221347 
L 170.347353 353.117332 
L 176.205742 352.946661 
L 182.064132 353.217987 
L 240.648024 353.223766 
L 357.81581 353.180674 
L 363.674199 352.93886 
L 369.532588 353.222915 
L 515.99232 353.21181 
L 521.850709 353.076145 
L 527.709098 353.223609 
L 949.513125 353.2239 
L 949.513125 353.2239 
" style="fill:none;stroke:#90ed7d;stroke-linecap:square;"/>
   </g>
   <g id="line2d_40">
    <path clip-path="url(#p3bb4f84126)" d="M 76.613125 353.2239 
L 105.905071 353.186546 
L 123.480239 353.222556 
L 164.488964 353.195414 
L 176.205742 352.872931 
L 182.064132 353.218257 
L 228.931246 353.205088 
L 252.364803 353.207238 
L 258.223192 353.146773 
L 269.939971 353.223631 
L 357.81581 353.156581 
L 363.674199 352.865413 
L 369.532588 353.223608 
L 515.99232 353.209578 
L 521.850709 353.067259 
L 527.709098 353.2239 
L 650.735273 353.194 
L 656.593662 353.055976 
L 662.452051 353.2239 
L 750.32789 353.178353 
L 762.044669 353.002145 
L 767.903058 353.2239 
L 949.513125 353.2239 
L 949.513125 353.2239 
" style="fill:none;stroke:#f7a35c;stroke-linecap:square;"/>
   </g>
   <g id="line2d_41">
    <path clip-path="url(#p3bb4f84126)" d="M 76.613125 353.2239 
L 105.905071 353.185752 
L 123.480239 353.219522 
L 164.488964 353.198572 
L 176.205742 352.835226 
L 182.064132 353.22046 
L 228.931246 353.206077 
L 252.364803 353.203575 
L 258.223192 353.130406 
L 269.939971 353.2239 
L 357.81581 353.150231 
L 363.674199 352.823653 
L 369.532588 353.222526 
L 492.558763 353.213737 
L 498.417152 353.085958 
L 504.275541 353.223294 
L 515.99232 353.212175 
L 521.850709 353.018402 
L 527.709098 353.2239 
L 750.32789 353.200631 
L 762.044669 352.921427 
L 767.903058 353.218309 
L 885.070843 353.2239 
L 949.513125 353.2239 
L 949.513125 353.2239 
" style="fill:none;stroke:#8085e9;stroke-linecap:square;"/>
   </g>
   <g id="line2d_42">
    <path clip-path="url(#p3bb4f84126)" d="M 76.613125 353.2239 
L 105.905071 353.195315 
L 129.338628 353.215563 
L 146.913796 353.208416 
L 164.488964 353.194124 
L 176.205742 352.832041 
L 182.064132 353.215166 
L 234.789635 353.223106 
L 357.81581 353.152742 
L 363.674199 352.846641 
L 369.532588 353.223469 
L 515.99232 353.208934 
L 521.850709 353.033773 
L 527.709098 353.2239 
L 756.186279 353.067896 
L 762.044669 352.933528 
L 767.903058 353.2239 
L 949.513125 353.2239 
L 949.513125 353.2239 
" style="fill:none;stroke:#f15c80;stroke-linecap:square;"/>
   </g>
   <g id="line2d_43">
    <path clip-path="url(#p3bb4f84126)" d="M 76.613125 353.2239 
L 82.471514 353.160426 
L 94.188293 353.2239 
L 129.338628 353.20437 
L 135.197018 353.07254 
L 141.055407 353.212914 
L 164.488964 353.18606 
L 170.347353 352.749068 
L 176.205742 352.589163 
L 182.064132 353.220238 
L 193.78091 353.198266 
L 199.639299 352.896767 
L 205.497689 353.212914 
L 211.356078 353.111601 
L 223.072857 353.212914 
L 258.223192 353.190943 
L 281.656749 353.222677 
L 357.81581 353.129322 
L 363.674199 352.811123 
L 369.532588 353.2239 
L 515.99232 353.209752 
L 521.850709 353.081228 
L 527.709098 353.222461 
L 756.186279 353.14814 
L 762.044669 353.060835 
L 767.903058 353.2239 
L 949.513125 353.2239 
L 949.513125 353.2239 
" style="fill:none;stroke:#e4d354;stroke-linecap:square;"/>
   </g>
   <g id="line2d_44">
    <path clip-path="url(#p3bb4f84126)" d="M 76.613125 353.2239 
L 82.471514 353.152776 
L 94.188293 353.2239 
L 129.338628 353.213041 
L 135.197018 353.063734 
L 141.055407 353.214127 
L 164.488964 353.17015 
L 170.347353 352.60767 
L 176.205742 352.504516 
L 182.064132 353.216842 
L 193.78091 353.202183 
L 199.639299 352.818329 
L 205.497689 353.204897 
L 211.356078 353.087624 
L 217.214467 353.216842 
L 258.223192 353.206526 
L 299.231917 353.2239 
L 351.95742 353.196342 
L 357.81581 353.09638 
L 363.674199 352.755007 
L 369.532588 353.222792 
L 515.99232 353.203706 
L 521.850709 353.070464 
L 527.709098 353.222659 
L 656.593662 353.1012 
L 662.452051 353.223134 
L 756.186279 353.136802 
L 762.044669 353.016435 
L 767.903058 353.222949 
L 949.513125 353.2239 
L 949.513125 353.2239 
" style="fill:none;stroke:#2b908f;stroke-linecap:square;"/>
   </g>
   <g id="line2d_45">
    <path clip-path="url(#p3bb4f84126)" d="M 76.613125 353.2239 
L 88.329904 353.2239 
L 129.338628 353.208522 
L 135.197018 353.112412 
L 146.913796 353.198911 
L 164.488964 353.181611 
L 170.347353 352.849069 
L 176.205742 352.67607 
L 182.064132 353.220056 
L 193.78091 353.2066 
L 199.639299 352.97209 
L 205.497689 353.216211 
L 211.356078 353.141245 
L 223.072857 353.200833 
L 287.515138 353.221966 
L 357.81581 353.145364 
L 363.674199 352.914273 
L 369.532588 353.2239 
L 685.885608 353.2239 
L 756.186279 353.150917 
L 762.044669 353.053675 
L 767.903058 353.2239 
L 949.513125 353.2239 
L 949.513125 353.2239 
" style="fill:none;stroke:#f45b5b;stroke-linecap:square;"/>
   </g>
   <g id="line2d_46">
    <path clip-path="url(#p3bb4f84126)" d="M 76.613125 353.2239 
L 88.329904 353.2239 
L 164.488964 353.175285 
L 170.347353 352.774693 
L 176.205742 352.624958 
L 182.064132 353.218066 
L 193.78091 353.206398 
L 199.639299 352.939986 
L 205.497689 353.210288 
L 211.356078 353.132503 
L 223.072857 353.210288 
L 258.223192 353.185008 
L 275.79836 353.2239 
L 357.81581 353.136437 
L 363.674199 352.867589 
L 369.532588 353.2239 
L 650.735273 353.216891 
L 656.593662 353.106673 
L 662.452051 353.2239 
L 756.186279 353.132905 
L 762.044669 353.085281 
L 767.903058 353.2239 
L 949.513125 353.2239 
L 949.513125 353.2239 
" style="fill:none;stroke:#91e8e1;stroke-linecap:square;"/>
   </g>
   <g id="line2d_47">
    <path clip-path="url(#p3bb4f84126)" d="M 76.613125 353.2239 
L 82.471514 353.166304 
L 94.188293 353.2239 
L 129.338628 353.212824 
L 135.197018 353.086557 
L 141.055407 353.208394 
L 164.488964 353.177381 
L 170.347353 352.776427 
L 176.205742 352.634653 
L 182.064132 353.221685 
L 193.78091 353.184026 
L 199.639299 352.931492 
L 205.497689 353.210609 
L 211.356078 353.099848 
L 217.214467 353.21947 
L 258.223192 353.197317 
L 281.656749 353.2239 
L 357.81581 353.119413 
L 363.674199 352.78914 
L 369.532588 353.2239 
L 515.99232 353.200415 
L 521.850709 353.078566 
L 527.709098 353.2239 
L 650.735273 353.212383 
L 656.593662 353.095548 
L 662.452051 353.2239 
L 756.186279 353.130512 
L 762.044669 352.994432 
L 767.903058 353.2239 
L 949.513125 353.2239 
L 949.513125 353.2239 
" style="fill:none;stroke:#7cb5ec;stroke-linecap:square;"/>
   </g>
   <g id="line2d_48">
    <path clip-path="url(#p3bb4f84126)" d="M 76.613125 353.2239 
L 82.471514 353.155053 
L 94.188293 353.2239 
L 129.338628 353.207377 
L 135.197018 353.077944 
L 141.055407 353.218392 
L 164.488964 353.204623 
L 170.347353 352.816325 
L 176.205742 352.728201 
L 182.064132 353.218392 
L 193.78091 353.212884 
L 199.639299 352.97605 
L 205.497689 353.212884 
L 211.356078 353.099975 
L 217.214467 353.221146 
L 334.382253 353.221053 
L 357.81581 353.151429 
L 363.674199 352.883021 
L 369.532588 353.2239 
L 586.292991 353.2239 
L 650.735273 353.214501 
L 656.593662 353.100045 
L 662.452051 353.2239 
L 756.186279 353.162912 
L 762.044669 353.112448 
L 767.903058 353.2239 
L 867.495675 353.2239 
L 949.513125 353.2239 
L 949.513125 353.2239 
" style="fill:none;stroke:#434348;stroke-linecap:square;"/>
   </g>
   <g id="line2d_49">
    <path clip-path="url(#p3bb4f84126)" d="M 76.613125 353.2239 
L 82.471514 353.149973 
L 94.188293 353.2239 
L 129.338628 353.201269 
L 135.197018 353.068503 
L 141.055407 353.21183 
L 164.488964 353.152991 
L 170.347353 352.665676 
L 176.205742 352.498208 
L 182.064132 353.217865 
L 193.78091 353.195234 
L 199.639299 352.851248 
L 205.497689 353.21183 
L 211.356078 353.092642 
L 217.214467 353.219374 
L 258.223192 353.193726 
L 281.656749 353.2239 
L 351.95742 353.19462 
L 357.81581 353.081796 
L 363.674199 352.742373 
L 369.532588 353.2239 
L 515.99232 353.204591 
L 521.850709 353.096534 
L 527.709098 353.2239 
L 703.460776 353.2239 
L 750.32789 353.189373 
L 762.044669 353.014191 
L 767.903058 353.2239 
L 949.513125 353.2239 
L 949.513125 353.2239 
" style="fill:none;stroke:#90ed7d;stroke-linecap:square;"/>
   </g>
   <g id="line2d_50">
    <path clip-path="url(#p3bb4f84126)" d="M 76.613125 353.2239 
L 88.329904 353.2239 
L 164.488964 353.189817 
L 170.347353 352.821725 
L 176.205742 352.678579 
L 182.064132 353.214357 
L 193.78091 353.208904 
L 199.639299 352.958056 
L 205.497689 353.210267 
L 211.356078 353.125742 
L 223.072857 353.217083 
L 264.081581 353.222537 
L 357.81581 353.141521 
L 363.674199 352.877233 
L 369.532588 353.2239 
L 515.99232 353.209988 
L 521.850709 353.102638 
L 527.709098 353.2239 
L 656.593662 353.144346 
L 668.31044 353.2239 
L 756.186279 353.172494 
L 762.044669 353.039497 
L 767.903058 353.2239 
L 949.513125 353.2239 
L 949.513125 353.2239 
" style="fill:none;stroke:#f7a35c;stroke-linecap:square;"/>
   </g>
   <g id="line2d_51">
    <path clip-path="url(#p3bb4f84126)" d="M 76.613125 353.2239 
L 82.471514 353.155977 
L 94.188293 353.2239 
L 129.338628 353.213334 
L 135.197018 353.068432 
L 141.055407 353.219372 
L 164.488964 353.162015 
L 170.347353 352.654857 
L 176.205742 352.588444 
L 182.064132 353.219372 
L 193.78091 353.180128 
L 199.639299 352.863154 
L 205.497689 353.207297 
L 211.356078 353.130318 
L 223.072857 353.210315 
L 275.79836 353.222388 
L 351.95742 353.196026 
L 357.81581 353.090322 
L 363.674199 352.800063 
L 369.532588 353.2239 
L 515.99232 353.205717 
L 521.850709 353.102808 
L 527.709098 353.2239 
L 756.186279 353.114278 
L 762.044669 353.022568 
L 767.903058 353.2239 
L 949.513125 353.2239 
L 949.513125 353.2239 
" style="fill:none;stroke:#8085e9;stroke-linecap:square;"/>
   </g>
   <g id="line2d_52">
    <path clip-path="url(#p3bb4f84126)" d="M 76.613125 353.2239 
L 82.471514 353.112286 
L 88.329904 353.2239 
L 129.338628 353.213934 
L 135.197018 353.030568 
L 141.055407 353.215928 
L 164.488964 353.144176 
L 170.347353 352.377825 
L 176.205742 352.303084 
L 182.064132 353.213934 
L 193.78091 353.175069 
L 199.639299 352.725623 
L 205.497689 353.202972 
L 211.356078 353.064451 
L 217.214467 353.217921 
L 252.364803 353.159124 
L 269.939971 353.2239 
L 351.95742 353.193585 
L 357.81581 353.004302 
L 363.674199 352.605671 
L 369.532588 353.2239 
L 515.99232 353.199718 
L 521.850709 353.070316 
L 527.709098 353.222789 
L 650.735273 353.206079 
L 656.593662 353.050753 
L 662.452051 353.2239 
L 750.32789 353.210719 
L 762.044669 352.922649 
L 767.903058 353.2239 
L 949.513125 353.2239 
L 949.513125 353.2239 
" style="fill:none;stroke:#f15c80;stroke-linecap:square;"/>
   </g>
   <g id="line2d_53">
    <path clip-path="url(#p3bb4f84126)" d="M 76.613125 353.2239 
L 82.471514 353.113777 
L 94.188293 353.2239 
L 129.338628 353.207784 
L 135.197018 352.989328 
L 141.055407 353.213156 
L 164.488964 353.10751 
L 170.347353 352.300833 
L 176.205742 352.203242 
L 182.064132 353.214052 
L 193.78091 353.171077 
L 199.639299 352.627622 
L 205.497689 353.205994 
L 211.356078 353.02335 
L 217.214467 353.217633 
L 252.364803 353.138845 
L 264.081581 353.2239 
L 351.95742 353.176774 
L 357.81581 352.995273 
L 363.674199 352.477279 
L 369.532588 353.2239 
L 515.99232 353.192851 
L 521.850709 353.037766 
L 527.709098 353.2239 
L 697.602387 353.212299 
L 738.611112 353.212906 
L 756.186279 353.042577 
L 762.044669 352.844502 
L 767.903058 353.2239 
L 949.513125 353.2239 
L 949.513125 353.2239 
" style="fill:none;stroke:#e4d354;stroke-linecap:square;"/>
   </g>
   <g id="line2d_54">
    <path clip-path="url(#p3bb4f84126)" d="M 76.613125 353.2239 
L 82.471514 353.138403 
L 94.188293 353.2239 
L 129.338628 353.201446 
L 135.197018 353.025272 
L 141.055407 353.2144 
L 164.488964 353.139267 
L 170.347353 352.548561 
L 176.205742 352.381024 
L 182.064132 353.217855 
L 193.78091 353.191083 
L 199.639299 352.764464 
L 205.497689 353.198856 
L 211.356078 353.050316 
L 217.214467 353.21181 
L 351.95742 353.190218 
L 357.81581 353.044398 
L 363.674199 352.617122 
L 369.532588 353.223006 
L 515.99232 353.203898 
L 521.850709 353.071901 
L 527.709098 353.222887 
L 650.735273 353.20003 
L 656.593662 353.058937 
L 662.452051 353.2239 
L 750.32789 353.20284 
L 762.044669 352.927163 
L 767.903058 353.2239 
L 949.513125 353.2239 
L 949.513125 353.2239 
" style="fill:none;stroke:#2b908f;stroke-linecap:square;"/>
   </g>
   <g id="line2d_55">
    <path clip-path="url(#p3bb4f84126)" d="M 76.613125 353.2239 
L 82.471514 353.138849 
L 94.188293 353.2239 
L 129.338628 353.207305 
L 135.197018 353.053798 
L 141.055407 353.20523 
L 164.488964 353.1347 
L 170.347353 352.493706 
L 176.205742 352.404503 
L 182.064132 353.219751 
L 193.78091 353.188635 
L 199.639299 352.767528 
L 205.497689 353.203156 
L 211.356078 353.084914 
L 217.214467 353.219751 
L 258.223192 353.188635 
L 281.656749 353.221819 
L 351.95742 353.183457 
L 357.81581 353.012641 
L 363.674199 352.674063 
L 369.532588 353.2239 
L 515.99232 353.188066 
L 521.850709 353.050821 
L 527.709098 353.2239 
L 592.15138 353.2239 
L 650.735273 353.189763 
L 656.593662 353.023007 
L 662.452051 353.2239 
L 750.32789 353.200464 
L 762.044669 352.926547 
L 767.903058 353.220446 
L 949.513125 353.2239 
L 949.513125 353.2239 
" style="fill:none;stroke:#f45b5b;stroke-linecap:square;"/>
   </g>
   <g id="line2d_56">
    <path clip-path="url(#p3bb4f84126)" d="M 76.613125 353.2239 
L 82.471514 353.128429 
L 94.188293 353.22236 
L 129.338628 353.210041 
L 135.197018 353.028338 
L 141.055407 353.208501 
L 164.488964 353.108411 
L 170.347353 352.417018 
L 176.205742 352.236851 
L 182.064132 353.21928 
L 193.78091 353.165385 
L 199.639299 352.708048 
L 205.497689 353.203882 
L 211.356078 353.071454 
L 217.214467 353.217741 
L 281.656749 353.2239 
L 351.95742 353.181637 
L 357.81581 353.015373 
L 363.674199 352.57059 
L 369.532588 353.2239 
L 515.99232 353.194748 
L 521.850709 353.068682 
L 527.709098 353.2239 
L 650.735273 353.207842 
L 656.593662 353.035738 
L 662.452051 353.22186 
L 750.32789 353.182006 
L 762.044669 352.894176 
L 767.903058 353.2239 
L 855.778897 353.2239 
L 949.513125 353.2239 
L 949.513125 353.2239 
" style="fill:none;stroke:#91e8e1;stroke-linecap:square;"/>
   </g>
   <g id="line2d_57">
    <path clip-path="url(#p3bb4f84126)" d="M 76.613125 353.2239 
L 82.471514 353.134951 
L 94.188293 353.2239 
L 129.338628 353.214017 
L 135.197018 353.083888 
L 141.055407 353.214017 
L 164.488964 353.146482 
L 170.347353 352.660558 
L 176.205742 352.4283 
L 182.064132 353.209075 
L 193.78091 353.181073 
L 199.639299 352.876341 
L 205.497689 353.209075 
L 211.356078 353.095419 
L 217.214467 353.218958 
L 357.81581 353.091865 
L 363.674199 352.722973 
L 369.532588 353.222172 
L 515.99232 353.205905 
L 521.850709 353.094961 
L 527.709098 353.2239 
L 650.735273 353.201811 
L 656.593662 353.065206 
L 662.452051 353.2239 
L 756.186279 353.128229 
L 762.044669 352.993953 
L 767.903058 353.2239 
L 949.513125 353.2239 
L 949.513125 353.2239 
" style="fill:none;stroke:#7cb5ec;stroke-linecap:square;"/>
   </g>
   <g id="line2d_58">
    <path clip-path="url(#p3bb4f84126)" d="M 76.613125 353.2239 
L 82.471514 353.120473 
L 94.188293 353.2239 
L 129.338628 353.209634 
L 135.197018 353.049144 
L 141.055407 353.204879 
L 164.488964 353.133549 
L 170.347353 352.585503 
L 176.205742 352.397667 
L 182.064132 353.215578 
L 193.78091 353.185858 
L 199.639299 352.742428 
L 205.497689 353.212012 
L 211.356078 353.077675 
L 217.214467 353.215578 
L 264.081581 353.2239 
L 351.95742 353.200707 
L 357.81581 353.059912 
L 363.674199 352.681527 
L 369.532588 353.221439 
L 515.99232 353.19477 
L 521.850709 353.093977 
L 527.709098 353.2239 
L 756.186279 353.084034 
L 762.044669 352.924653 
L 767.903058 353.221827 
L 949.513125 353.2239 
L 949.513125 353.2239 
" style="fill:none;stroke:#434348;stroke-linecap:square;"/>
   </g>
   <g id="line2d_59">
    <path clip-path="url(#p3bb4f84126)" d="M 76.613125 353.2239 
L 82.471514 353.164389 
L 94.188293 353.2239 
L 129.338628 353.211276 
L 135.197018 353.097664 
L 146.913796 353.196849 
L 164.488964 353.166192 
L 170.347353 352.774861 
L 176.205742 352.659446 
L 182.064132 353.216687 
L 193.78091 353.189636 
L 199.639299 352.929951 
L 205.497689 353.21308 
L 211.356078 353.112091 
L 217.214467 353.2239 
L 258.223192 353.189636 
L 281.656749 353.2239 
L 357.81581 353.11056 
L 363.674199 352.827164 
L 369.532588 353.2239 
L 515.99232 353.209981 
L 521.850709 353.085623 
L 527.709098 353.2239 
L 797.195004 353.2239 
L 949.513125 353.2239 
L 949.513125 353.2239 
" style="fill:none;stroke:#90ed7d;stroke-linecap:square;"/>
   </g>
   <g id="line2d_60">
    <path clip-path="url(#p3bb4f84126)" d="M 76.613125 353.2239 
L 82.471514 353.130967 
L 94.188293 353.2239 
L 129.338628 353.208593 
L 135.197018 353.039127 
L 141.055407 353.209687 
L 164.488964 353.14846 
L 170.347353 352.493553 
L 176.205742 352.359072 
L 182.064132 353.219527 
L 193.78091 353.17798 
L 199.639299 352.75158 
L 205.497689 353.20422 
L 211.356078 353.051153 
L 217.214467 353.218433 
L 258.223192 353.203127 
L 293.373528 353.2239 
L 351.95742 353.189321 
L 357.81581 353.040591 
L 363.674199 352.621292 
L 369.532588 353.2239 
L 515.99232 353.200329 
L 521.850709 353.086589 
L 527.709098 353.222644 
L 650.735273 353.203381 
L 656.593662 353.025854 
L 662.452051 353.2239 
L 750.32789 353.194911 
L 762.044669 352.923134 
L 767.903058 353.2239 
L 949.513125 353.2239 
L 949.513125 353.2239 
" style="fill:none;stroke:#f7a35c;stroke-linecap:square;"/>
   </g>
   <g id="line2d_61">
    <path clip-path="url(#p3bb4f84126)" d="M 76.613125 353.2239 
L 82.471514 353.157349 
L 94.188293 353.2239 
L 129.338628 353.221127 
L 135.197018 353.090799 
L 141.055407 353.215581 
L 164.488964 353.149031 
L 170.347353 352.713679 
L 176.205742 352.605534 
L 182.064132 353.207262 
L 193.78091 353.196171 
L 199.639299 352.91333 
L 205.497689 353.204489 
L 211.356078 353.110209 
L 217.214467 353.2239 
L 258.223192 353.198944 
L 287.515138 353.221113 
L 351.95742 353.19524 
L 357.81581 353.134728 
L 363.674199 352.793693 
L 369.532588 353.2239 
L 650.735273 353.206745 
L 656.593662 353.093769 
L 662.452051 353.2239 
L 756.186279 353.165208 
L 762.044669 353.034698 
L 767.903058 353.2239 
L 949.513125 353.2239 
L 949.513125 353.2239 
" style="fill:none;stroke:#8085e9;stroke-linecap:square;"/>
   </g>
   <g id="line2d_62">
    <path clip-path="url(#p3bb4f84126)" d="M 76.613125 353.2239 
L 82.471514 353.14257 
L 94.188293 353.2239 
L 129.338628 353.212909 
L 135.197018 353.059041 
L 141.055407 353.212909 
L 158.630575 353.103003 
L 164.488964 353.177739 
L 170.347353 352.58205 
L 176.205742 352.469941 
L 182.064132 353.221702 
L 193.78091 353.201919 
L 199.639299 352.795266 
L 205.497689 353.215107 
L 211.356078 353.074428 
L 217.214467 353.215107 
L 305.090306 353.2239 
L 351.95742 353.197121 
L 357.81581 353.069684 
L 363.674199 352.731382 
L 369.532588 353.2239 
L 515.99232 353.206548 
L 521.850709 353.096575 
L 527.709098 353.2239 
L 650.735273 353.2239 
L 656.593662 353.052354 
L 662.452051 353.2239 
L 750.32789 353.198286 
L 762.044669 352.957871 
L 767.903058 353.2239 
L 949.513125 353.2239 
L 949.513125 353.2239 
" style="fill:none;stroke:#f15c80;stroke-linecap:square;"/>
   </g>
   <g id="line2d_63">
    <path clip-path="url(#p3bb4f84126)" d="M 76.613125 353.2239 
L 82.471514 353.144718 
L 94.188293 353.2239 
L 129.338628 353.217302 
L 135.197018 353.072136 
L 141.055407 353.209383 
L 164.488964 353.163194 
L 170.347353 352.549541 
L 176.205742 352.430767 
L 182.064132 353.217302 
L 193.78091 353.190908 
L 199.639299 352.75541 
L 205.497689 353.210703 
L 211.356078 353.077414 
L 217.214467 353.221261 
L 258.223192 353.193547 
L 281.656749 353.2239 
L 351.95742 353.192836 
L 357.81581 353.079049 
L 363.674199 352.662082 
L 369.532588 353.2239 
L 756.186279 353.099271 
L 762.044669 352.915621 
L 767.903058 353.2239 
L 949.513125 353.2239 
L 949.513125 353.2239 
" style="fill:none;stroke:#e4d354;stroke-linecap:square;"/>
   </g>
   <g id="line2d_64">
    <path clip-path="url(#p3bb4f84126)" d="M 76.613125 353.2239 
L 88.329904 353.2239 
L 129.338628 353.211636 
L 135.197018 353.092501 
L 141.055407 353.204628 
L 164.488964 353.19762 
L 170.347353 352.763128 
L 176.205742 352.628226 
L 182.064132 353.220396 
L 193.78091 353.195868 
L 199.639299 352.922559 
L 205.497689 353.216892 
L 211.356078 353.127541 
L 223.072857 353.211636 
L 357.81581 353.132209 
L 363.674199 352.838803 
L 369.532588 353.2239 
L 721.035944 353.220428 
L 750.32789 353.208944 
L 762.044669 353.065872 
L 767.903058 353.2239 
L 949.513125 353.2239 
L 949.513125 353.2239 
" style="fill:none;stroke:#2b908f;stroke-linecap:square;"/>
   </g>
   <g id="line2d_65">
    <path clip-path="url(#p3bb4f84126)" d="M 76.613125 353.2239 
L 88.329904 353.2239 
L 129.338628 353.206613 
L 135.197018 353.046424 
L 141.055407 353.211223 
L 164.488964 353.152449 
L 170.347353 352.647678 
L 176.205742 352.5163 
L 182.064132 353.216985 
L 193.78091 353.189327 
L 199.639299 352.836679 
L 205.497689 353.210071 
L 211.356078 353.080997 
L 217.214467 353.221595 
L 234.789635 353.2239 
L 351.95742 353.197864 
L 357.81581 353.10167 
L 363.674199 352.749061 
L 369.532588 353.222706 
L 515.99232 353.215782 
L 521.850709 353.090325 
L 527.709098 353.222527 
L 656.593662 353.085295 
L 662.452051 353.2239 
L 756.186279 353.09952 
L 762.044669 353.008804 
L 767.903058 353.2239 
L 949.513125 353.2239 
L 949.513125 353.2239 
" style="fill:none;stroke:#f45b5b;stroke-linecap:square;"/>
   </g>
   <g id="line2d_66">
    <path clip-path="url(#p3bb4f84126)" d="M 76.613125 353.2239 
L 82.471514 353.146495 
L 94.188293 353.2239 
L 129.338628 353.204757 
L 135.197018 353.041622 
L 141.055407 353.204757 
L 164.488964 353.172296 
L 170.347353 352.63212 
L 176.205742 352.438188 
L 182.064132 353.218906 
L 193.78091 353.203092 
L 199.639299 352.786932 
L 205.497689 353.209751 
L 211.356078 353.08407 
L 217.214467 353.218074 
L 258.223192 353.205589 
L 299.231917 353.2239 
L 351.95742 353.199278 
L 357.81581 353.09544 
L 363.674199 352.671479 
L 369.532588 353.2239 
L 515.99232 353.20487 
L 521.850709 353.091679 
L 527.709098 353.222935 
L 650.735273 353.210037 
L 656.593662 353.085076 
L 662.452051 353.2239 
L 756.186279 353.134341 
L 762.044669 352.947851 
L 767.903058 353.2239 
L 949.513125 353.2239 
L 949.513125 353.2239 
" style="fill:none;stroke:#91e8e1;stroke-linecap:square;"/>
   </g>
   <g id="line2d_67">
    <path clip-path="url(#p3bb4f84126)" d="M 76.613125 353.2239 
L 82.471514 353.137475 
L 94.188293 353.2239 
L 129.338628 353.214414 
L 135.197018 353.052104 
L 141.055407 353.21336 
L 164.488964 353.16277 
L 170.347353 352.636842 
L 176.205742 352.511423 
L 182.064132 353.216522 
L 193.78091 353.201767 
L 199.639299 352.840257 
L 205.497689 353.209145 
L 211.356078 353.096371 
L 217.214467 353.217576 
L 281.656749 353.2239 
L 351.95742 353.191426 
L 357.81581 353.081687 
L 363.674199 352.751342 
L 369.532588 353.222808 
L 515.99232 353.198696 
L 521.850709 353.067552 
L 527.709098 353.221335 
L 650.735273 353.204834 
L 656.593662 353.056777 
L 662.452051 353.2239 
L 750.32789 353.206308 
L 762.044669 352.973128 
L 767.903058 353.2239 
L 949.513125 353.2239 
L 949.513125 353.2239 
" style="fill:none;stroke:#7cb5ec;stroke-linecap:square;"/>
   </g>
   <g id="line2d_68">
    <path clip-path="url(#p3bb4f84126)" d="M 76.613125 353.2239 
L 82.471514 353.129105 
L 94.188293 353.222835 
L 129.338628 353.207923 
L 135.197018 353.053482 
L 141.055407 353.216444 
L 164.488964 353.140821 
L 170.347353 352.586966 
L 176.205742 352.406958 
L 182.064132 353.218574 
L 193.78091 353.18023 
L 199.639299 352.761641 
L 205.497689 353.204728 
L 211.356078 353.064133 
L 217.214467 353.218574 
L 264.081581 353.2239 
L 351.95742 353.193537 
L 357.81581 353.075056 
L 363.674199 352.650204 
L 369.532588 353.2239 
L 515.99232 353.212993 
L 521.850709 353.061642 
L 527.709098 353.2239 
L 656.593662 353.057773 
L 662.452051 353.2239 
L 756.186279 353.117485 
L 762.044669 352.9135 
L 767.903058 353.2239 
L 949.513125 353.2239 
L 949.513125 353.2239 
" style="fill:none;stroke:#434348;stroke-linecap:square;"/>
   </g>
   <g id="line2d_69">
    <path clip-path="url(#p3bb4f84126)" d="M 76.613125 353.2239 
L 82.471514 353.117626 
L 94.188293 353.2239 
L 129.338628 353.206188 
L 135.197018 353.026849 
L 141.055407 353.217258 
L 164.488964 353.14198 
L 170.347353 352.371491 
L 176.205742 352.267427 
L 182.064132 353.217258 
L 193.78091 353.181833 
L 199.639299 352.694741 
L 205.497689 353.199545 
L 211.356078 353.091057 
L 217.214467 353.21283 
L 252.364803 353.15305 
L 269.939971 353.2239 
L 351.95742 353.190412 
L 357.81581 353.036233 
L 363.674199 352.546431 
L 369.532588 353.2239 
L 515.99232 353.20004 
L 521.850709 353.034467 
L 527.709098 353.2239 
L 615.584937 353.2239 
L 650.735273 353.212857 
L 656.593662 353.045833 
L 662.452051 353.2239 
L 750.32789 353.204772 
L 762.044669 352.899094 
L 767.903058 353.2239 
L 949.513125 353.2239 
L 949.513125 353.2239 
" style="fill:none;stroke:#90ed7d;stroke-linecap:square;"/>
   </g>
   <g id="line2d_70">
    <path clip-path="url(#p3bb4f84126)" d="M 76.613125 353.2239 
L 82.471514 353.099889 
L 88.329904 353.2239 
L 129.338628 353.212828 
L 135.197018 352.980307 
L 141.055407 353.210613 
L 164.488964 353.124248 
L 170.347353 352.355822 
L 176.205742 352.160946 
L 182.064132 353.212828 
L 193.78091 353.166323 
L 199.639299 352.690209 
L 205.497689 353.208399 
L 211.356078 353.015738 
L 217.214467 353.219471 
L 240.648024 353.221686 
L 351.95742 353.194803 
L 357.81581 353.01777 
L 363.674199 352.463556 
L 369.532588 353.2239 
L 515.99232 353.209528 
L 521.850709 353.009763 
L 527.709098 353.2239 
L 656.593662 353.036883 
L 662.452051 353.2239 
L 750.32789 353.211492 
L 762.044669 352.854849 
L 767.903058 353.2239 
L 949.513125 353.2239 
L 949.513125 353.2239 
" style="fill:none;stroke:#f7a35c;stroke-linecap:square;"/>
   </g>
   <g id="line2d_71">
    <path clip-path="url(#p3bb4f84126)" d="M 76.613125 353.2239 
L 82.471514 353.117776 
L 94.188293 353.2239 
L 129.338628 353.204114 
L 135.197018 353.000859 
L 141.055407 353.211309 
L 164.488964 353.138461 
L 170.347353 352.369507 
L 176.205742 352.274174 
L 182.064132 353.215806 
L 193.78091 353.184328 
L 199.639299 352.692378 
L 205.497689 353.198718 
L 211.356078 353.044028 
L 217.214467 353.219403 
L 258.223192 353.208611 
L 305.090306 353.2239 
L 351.95742 353.192989 
L 357.81581 353.038246 
L 363.674199 352.54156 
L 369.532588 353.2239 
L 515.99232 353.193588 
L 521.850709 353.038181 
L 527.709098 353.2239 
L 650.735273 353.188904 
L 656.593662 353.027131 
L 662.452051 353.2239 
L 750.32789 353.201849 
L 762.044669 352.89634 
L 767.903058 353.2239 
L 949.513125 353.2239 
L 949.513125 353.2239 
" style="fill:none;stroke:#8085e9;stroke-linecap:square;"/>
   </g>
   <g id="line2d_72">
    <path clip-path="url(#p3bb4f84126)" d="M 76.613125 353.2239 
L 82.471514 353.141234 
L 94.188293 353.2239 
L 129.338628 353.212576 
L 135.197018 353.038184 
L 141.055407 353.209179 
L 164.488964 353.145763 
L 170.347353 352.47651 
L 176.205742 352.346277 
L 182.064132 353.217106 
L 193.78091 353.185398 
L 199.639299 352.782258 
L 205.497689 353.204649 
L 211.356078 353.095937 
L 217.214467 353.2239 
L 258.223192 353.203517 
L 299.231917 353.2239 
L 351.95742 353.175274 
L 357.81581 353.062621 
L 363.674199 352.622689 
L 369.532588 353.2239 
L 515.99232 353.208381 
L 521.850709 353.085939 
L 527.709098 353.2239 
L 650.735273 353.200801 
L 656.593662 353.040593 
L 662.452051 353.2239 
L 756.186279 353.088781 
L 762.044669 352.930606 
L 767.903058 353.2239 
L 949.513125 353.2239 
L 949.513125 353.2239 
" style="fill:none;stroke:#f15c80;stroke-linecap:square;"/>
   </g>
   <g id="line2d_73">
    <path clip-path="url(#p3bb4f84126)" d="M 76.613125 353.2239 
L 82.471514 353.102974 
L 88.329904 353.2239 
L 129.338628 353.207693 
L 135.197018 353.013214 
L 141.055407 353.20894 
L 164.488964 353.142867 
L 170.347353 352.371186 
L 176.205742 352.241532 
L 182.064132 353.210187 
L 193.78091 353.177774 
L 199.639299 352.695316 
L 205.497689 353.207693 
L 211.356078 353.021941 
L 217.214467 353.221407 
L 234.789635 353.2239 
L 351.95742 353.188717 
L 357.81581 353.032783 
L 363.674199 352.573414 
L 369.532588 353.2239 
L 515.99232 353.20244 
L 521.850709 353.04596 
L 527.709098 353.222545 
L 650.735273 353.208336 
L 656.593662 353.013752 
L 662.452051 353.2239 
L 750.32789 353.200567 
L 762.044669 352.894841 
L 767.903058 353.2239 
L 937.796346 353.2239 
L 949.513125 353.2239 
L 949.513125 353.2239 
" style="fill:none;stroke:#e4d354;stroke-linecap:square;"/>
   </g>
   <g id="line2d_74">
    <path clip-path="url(#p3bb4f84126)" d="M 76.613125 353.2239 
L 82.471514 353.126009 
L 94.188293 353.2239 
L 129.338628 353.208237 
L 135.197018 353.028118 
L 141.055407 353.208237 
L 164.488964 353.140693 
L 170.347353 352.351695 
L 176.205742 352.362461 
L 182.064132 353.219984 
L 193.78091 353.188659 
L 199.639299 352.706057 
L 205.497689 353.211174 
L 211.356078 353.055528 
L 217.214467 353.221942 
L 258.223192 353.201385 
L 287.515138 353.222918 
L 351.95742 353.18324 
L 357.81581 353.034256 
L 363.674199 352.618456 
L 369.532588 353.2239 
L 515.99232 353.19476 
L 521.850709 353.066483 
L 527.709098 353.2239 
L 674.16883 353.22258 
L 750.32789 353.198619 
L 762.044669 352.931254 
L 767.903058 353.2239 
L 949.513125 353.2239 
L 949.513125 353.2239 
" style="fill:none;stroke:#2b908f;stroke-linecap:square;"/>
   </g>
   <g id="line2d_75">
    <path clip-path="url(#p3bb4f84126)" d="M 76.613125 353.2239 
L 82.471514 353.122689 
L 94.188293 353.2239 
L 129.338628 353.207308 
L 135.197018 352.989953 
L 141.055407 353.207308 
L 164.488964 353.127666 
L 170.347353 352.405915 
L 176.205742 352.263223 
L 182.064132 353.215604 
L 193.78091 353.170806 
L 199.639299 352.706229 
L 205.497689 353.199012 
L 211.356078 353.051343 
L 217.214467 353.217263 
L 287.515138 353.2239 
L 351.95742 353.183722 
L 357.81581 353.046295 
L 363.674199 352.537986 
L 369.532588 353.2239 
L 515.99232 353.200436 
L 521.850709 353.06965 
L 527.709098 353.222075 
L 697.602387 353.212694 
L 738.611112 353.204843 
L 756.186279 353.079465 
L 762.044669 352.905167 
L 767.903058 353.2239 
L 949.513125 353.2239 
L 949.513125 353.2239 
" style="fill:none;stroke:#f45b5b;stroke-linecap:square;"/>
   </g>
   <g id="line2d_76">
    <path clip-path="url(#p3bb4f84126)" d="M 76.613125 353.2239 
L 82.471514 353.127556 
L 94.188293 353.2239 
L 129.338628 353.191785 
L 135.197018 352.957349 
L 141.055407 353.20142 
L 164.488964 353.162882 
L 170.347353 352.437095 
L 176.205742 352.186599 
L 182.064132 353.217477 
L 193.78091 353.191785 
L 199.639299 352.610511 
L 205.497689 353.204631 
L 211.356078 353.044058 
L 217.214467 353.220689 
L 252.364803 353.130768 
L 264.081581 353.2239 
L 351.95742 353.191468 
L 357.81581 353.03562 
L 363.674199 352.473311 
L 369.532588 353.2239 
L 515.99232 353.210031 
L 521.850709 353.046246 
L 527.709098 353.2239 
L 650.735273 353.211962 
L 656.593662 353.015457 
L 662.452051 353.2239 
L 750.32789 353.210236 
L 762.044669 352.825265 
L 767.903058 353.2239 
L 949.513125 353.2239 
L 949.513125 353.2239 
" style="fill:none;stroke:#91e8e1;stroke-linecap:square;"/>
   </g>
   <g id="line2d_77">
    <path clip-path="url(#p3bb4f84126)" d="M 76.613125 353.2239 
L 82.471514 353.120645 
L 94.188293 353.2239 
L 129.338628 353.205126 
L 135.197018 353.042422 
L 141.055407 353.205126 
L 164.488964 353.105 
L 170.347353 352.275834 
L 176.205742 352.166319 
L 182.064132 353.217642 
L 193.78091 353.173837 
L 199.639299 352.748303 
L 205.497689 353.192611 
L 211.356078 353.036164 
L 217.214467 353.220771 
L 252.364803 353.167579 
L 269.939971 353.2239 
L 351.95742 353.173385 
L 357.81581 353.009046 
L 363.674199 352.537681 
L 369.532588 353.2239 
L 515.99232 353.196985 
L 521.850709 353.010938 
L 527.709098 353.220503 
L 615.584937 353.2239 
L 650.735273 353.177455 
L 656.593662 353.036758 
L 662.452051 353.2239 
L 750.32789 353.183959 
L 762.044669 352.92578 
L 767.903058 353.2239 
L 949.513125 353.2239 
L 949.513125 353.2239 
" style="fill:none;stroke:#7cb5ec;stroke-linecap:square;"/>
   </g>
   <g id="line2d_78">
    <path clip-path="url(#p3bb4f84126)" d="M 76.613125 353.2239 
L 82.471514 353.124318 
L 94.188293 353.2239 
L 129.338628 353.207967 
L 135.197018 352.980919 
L 141.055407 353.215933 
L 164.488964 353.156184 
L 170.347353 352.463092 
L 176.205742 352.307745 
L 182.064132 353.215933 
L 193.78091 353.18805 
L 199.639299 352.706072 
L 205.497689 353.21195 
L 211.356078 353.024736 
L 217.214467 353.219917 
L 258.223192 353.215933 
L 340.240642 353.219888 
L 351.95742 353.191762 
L 357.81581 353.051027 
L 363.674199 352.568046 
L 369.532588 353.2239 
L 515.99232 353.206553 
L 521.850709 353.031936 
L 527.709098 353.2239 
L 598.009769 353.2239 
L 650.735273 353.203296 
L 656.593662 353.052435 
L 662.452051 353.2239 
L 750.32789 353.20584 
L 762.044669 352.898497 
L 767.903058 353.2239 
L 949.513125 353.2239 
L 949.513125 353.2239 
" style="fill:none;stroke:#434348;stroke-linecap:square;"/>
   </g>
   <g id="line2d_79">
    <path clip-path="url(#p3bb4f84126)" d="M 76.613125 353.2239 
L 82.471514 353.106927 
L 88.329904 353.2239 
L 129.338628 353.179339 
L 135.197018 352.995525 
L 141.055407 353.21833 
L 158.630575 353.073507 
L 164.488964 353.129208 
L 170.347353 352.265837 
L 176.205742 351.981764 
L 182.064132 353.21276 
L 193.78091 353.157059 
L 199.639299 352.611186 
L 205.497689 353.20719 
L 211.356078 353.095787 
L 217.214467 353.21833 
L 252.364803 353.134778 
L 264.081581 353.21833 
L 346.099031 353.218289 
L 351.95742 353.162135 
L 357.81581 352.987919 
L 363.674199 352.335555 
L 369.532588 353.2239 
L 515.99232 353.200368 
L 521.850709 353.040876 
L 527.709098 353.217975 
L 633.160105 353.217464 
L 650.735273 353.178075 
L 656.593662 352.986868 
L 662.452051 353.2239 
L 750.32789 353.187278 
L 756.186279 353.068927 
L 762.044669 352.777755 
L 767.903058 353.2239 
L 949.513125 353.2239 
L 949.513125 353.2239 
" style="fill:none;stroke:#90ed7d;stroke-linecap:square;"/>
   </g>
   <g id="line2d_80">
    <path clip-path="url(#p3bb4f84126)" d="M 76.613125 353.2239 
L 82.471514 353.098018 
L 88.329904 353.2239 
L 129.338628 353.206386 
L 135.197018 353.008259 
L 141.055407 353.215143 
L 164.488964 353.15056 
L 170.347353 352.342728 
L 176.205742 352.131464 
L 182.064132 353.212954 
L 193.78091 353.17902 
L 199.639299 352.664548 
L 205.497689 353.207481 
L 211.356078 353.023584 
L 217.214467 353.2239 
L 252.364803 353.173547 
L 275.79836 353.222804 
L 351.95742 353.171933 
L 357.81581 353.02581 
L 363.674199 352.452993 
L 369.532588 353.222791 
L 515.99232 353.203886 
L 521.850709 353.029969 
L 527.709098 353.2239 
L 650.735273 353.206439 
L 656.593662 353.031846 
L 662.452051 353.2239 
L 750.32789 353.190227 
L 756.186279 353.075716 
L 762.044669 352.840941 
L 767.903058 353.2239 
L 949.513125 353.2239 
L 949.513125 353.2239 
" style="fill:none;stroke:#f7a35c;stroke-linecap:square;"/>
   </g>
   <g id="line2d_81">
    <path clip-path="url(#p3bb4f84126)" d="M 76.613125 353.2239 
L 82.471514 353.118806 
L 94.188293 353.2239 
L 129.338628 353.203968 
L 135.197018 352.995592 
L 141.055407 353.203968 
L 164.488964 353.158669 
L 170.347353 352.480993 
L 176.205742 352.194701 
L 182.064132 353.216652 
L 193.78091 353.187661 
L 199.639299 352.760036 
L 205.497689 353.207592 
L 211.356078 353.073507 
L 217.214467 353.21484 
L 281.656749 353.222085 
L 351.95742 353.192782 
L 357.81581 353.024186 
L 363.674199 352.517808 
L 369.532588 353.2239 
L 515.99232 353.208087 
L 521.850709 353.037044 
L 527.709098 353.2239 
L 644.876883 353.187043 
L 650.735273 353.209965 
L 656.593662 353.031875 
L 662.452051 353.2239 
L 750.32789 353.210375 
L 762.044669 352.89842 
L 767.903058 353.2239 
L 949.513125 353.2239 
L 949.513125 353.2239 
" style="fill:none;stroke:#8085e9;stroke-linecap:square;"/>
   </g>
   <g id="line2d_82">
    <path clip-path="url(#p3bb4f84126)" d="M 76.613125 353.2239 
L 82.471514 353.137204 
L 94.188293 353.2239 
L 129.338628 353.210562 
L 135.197018 353.025738 
L 141.055407 353.212468 
L 164.488964 353.148636 
L 170.347353 352.507467 
L 176.205742 352.310257 
L 182.064132 353.214373 
L 193.78091 353.184839 
L 199.639299 352.724684 
L 205.497689 353.203893 
L 211.356078 353.07242 
L 217.214467 353.219136 
L 258.223192 353.203893 
L 293.373528 353.2239 
L 351.95742 353.194663 
L 357.81581 353.057863 
L 363.674199 352.538711 
L 369.532588 353.2239 
L 515.99232 353.202195 
L 521.850709 353.05902 
L 527.709098 353.222801 
L 650.735273 353.205935 
L 656.593662 353.047902 
L 662.452051 353.2239 
L 750.32789 353.207432 
L 756.186279 353.096904 
L 762.044669 352.845198 
L 767.903058 353.2239 
L 949.513125 353.2239 
L 949.513125 353.2239 
" style="fill:none;stroke:#f15c80;stroke-linecap:square;"/>
   </g>
   <g id="line2d_83">
    <path clip-path="url(#p3bb4f84126)" d="M 76.613125 353.2239 
L 82.471514 353.160246 
L 94.188293 353.2239 
L 129.338628 353.160246 
L 135.197018 352.990501 
L 141.055407 353.202682 
L 164.488964 353.085983 
L 170.347353 352.58736 
L 176.205742 352.481267 
L 182.064132 353.2239 
L 193.78091 353.202682 
L 199.639299 352.714666 
L 205.497689 353.2239 
L 211.356078 353.022328 
L 217.214467 353.2239 
L 275.79836 353.2239 
L 357.81581 353.127432 
L 363.674199 352.623061 
L 369.532588 353.2239 
L 515.99232 353.2239 
L 521.850709 353.022388 
L 527.709098 353.2239 
L 650.735273 353.195315 
L 656.593662 352.992995 
L 662.452051 353.2239 
L 756.186279 353.137806 
L 762.044669 352.980158 
L 767.903058 353.2239 
L 949.513125 353.2239 
L 949.513125 353.2239 
" style="fill:none;stroke:#e4d354;stroke-linecap:square;"/>
   </g>
   <g id="line2d_84">
    <path clip-path="url(#p3bb4f84126)" d="M 76.613125 353.2239 
L 82.471514 353.136881 
L 94.188293 353.2239 
L 129.338628 353.209397 
L 135.197018 353.001518 
L 141.055407 353.219066 
L 158.630575 353.122378 
L 164.488964 353.14655 
L 170.347353 352.667946 
L 176.205742 352.513248 
L 182.064132 353.219066 
L 193.78091 353.199728 
L 199.639299 352.803308 
L 205.497689 353.209397 
L 211.356078 353.10304 
L 217.214467 353.2239 
L 281.656749 353.214202 
L 346.099031 353.2239 
L 357.81581 353.079033 
L 363.674199 352.722613 
L 369.532588 353.2239 
L 515.99232 353.218031 
L 521.850709 353.105491 
L 527.709098 353.2239 
L 650.735273 353.194341 
L 656.593662 353.059476 
L 662.452051 353.2239 
L 756.186279 353.113854 
L 762.044669 353.0474 
L 767.903058 353.2239 
L 949.513125 353.2239 
L 949.513125 353.2239 
" style="fill:none;stroke:#2b908f;stroke-linecap:square;"/>
   </g>
   <g id="line2d_85">
    <path clip-path="url(#p3bb4f84126)" d="M 76.613125 353.2239 
L 82.471514 353.10597 
L 88.329904 353.2239 
L 129.338628 353.200969 
L 135.197018 353.024074 
L 141.055407 353.214072 
L 164.488964 353.135453 
L 170.347353 352.493388 
L 176.205742 352.303389 
L 182.064132 353.2239 
L 193.78091 353.181314 
L 199.639299 352.722698 
L 205.497689 353.214072 
L 211.356078 353.073212 
L 217.214467 353.217348 
L 305.090306 353.2239 
L 351.95742 353.190596 
L 357.81581 353.037075 
L 363.674199 352.622273 
L 369.532588 353.2239 
L 515.99232 353.205488 
L 521.850709 353.075707 
L 527.709098 353.220172 
L 639.018494 353.21534 
L 644.876883 353.159168 
L 650.735273 353.2239 
L 656.593662 353.013314 
L 662.452051 353.2239 
L 750.32789 353.188395 
L 756.186279 353.106106 
L 762.044669 352.903199 
L 767.903058 353.2239 
L 890.929232 353.2239 
L 949.513125 353.2239 
L 949.513125 353.2239 
" style="fill:none;stroke:#f45b5b;stroke-linecap:square;"/>
   </g>
   <g id="line2d_86">
    <path clip-path="url(#p3bb4f84126)" d="M 76.613125 353.2239 
L 82.471514 353.121545 
L 94.188293 353.2239 
L 129.338628 353.205159 
L 135.197018 353.022073 
L 141.055407 353.208042 
L 164.488964 353.130195 
L 170.347353 352.393527 
L 176.205742 352.220533 
L 182.064132 353.210925 
L 193.78091 353.183535 
L 199.639299 352.684734 
L 205.497689 353.202276 
L 211.356078 353.06388 
L 217.214467 353.218134 
L 240.648024 353.2239 
L 328.523863 353.2239 
L 351.95742 353.178767 
L 357.81581 353.015525 
L 363.674199 352.519423 
L 369.532588 353.2239 
L 515.99232 353.197342 
L 521.850709 353.02916 
L 527.709098 353.2239 
L 650.735273 353.20022 
L 656.593662 353.032969 
L 662.452051 353.2239 
L 750.32789 353.194408 
L 762.044669 352.863427 
L 767.903058 353.2239 
L 949.513125 353.2239 
L 949.513125 353.2239 
" style="fill:none;stroke:#91e8e1;stroke-linecap:square;"/>
   </g>
   <g id="line2d_87">
    <path clip-path="url(#p3bb4f84126)" d="M 32.968125 353.2239 
L 993.158125 353.2239 
" style="fill:none;stroke:#dedede;stroke-linecap:square;stroke-width:2;"/>
   </g>
   <g id="text_17">
    <!-- Fastp: Read N Content -->
    <defs>
     <path d="M 9.8125 72.90625 
L 51.703125 72.90625 
L 51.703125 64.59375 
L 19.671875 64.59375 
L 19.671875 43.109375 
L 48.578125 43.109375 
L 48.578125 34.8125 
L 19.671875 34.8125 
L 19.671875 0 
L 9.8125 0 
z
" id="DejaVuSans-70"/>
     <path d="M 18.109375 8.203125 
L 18.109375 -20.796875 
L 9.078125 -20.796875 
L 9.078125 54.6875 
L 18.109375 54.6875 
L 18.109375 46.390625 
Q 20.953125 51.265625 25.265625 53.625 
Q 29.59375 56 35.59375 56 
Q 45.5625 56 51.78125 48.09375 
Q 58.015625 40.1875 58.015625 27.296875 
Q 58.015625 14.40625 51.78125 6.484375 
Q 45.5625 -1.421875 35.59375 -1.421875 
Q 29.59375 -1.421875 25.265625 0.953125 
Q 20.953125 3.328125 18.109375 8.203125 
z
M 48.6875 27.296875 
Q 48.6875 37.203125 44.609375 42.84375 
Q 40.53125 48.484375 33.40625 48.484375 
Q 26.265625 48.484375 22.1875 42.84375 
Q 18.109375 37.203125 18.109375 27.296875 
Q 18.109375 17.390625 22.1875 11.75 
Q 26.265625 6.109375 33.40625 6.109375 
Q 40.53125 6.109375 44.609375 11.75 
Q 48.6875 17.390625 48.6875 27.296875 
z
" id="DejaVuSans-112"/>
     <path d="M 9.8125 72.90625 
L 23.09375 72.90625 
L 55.421875 11.921875 
L 55.421875 72.90625 
L 64.984375 72.90625 
L 64.984375 0 
L 51.703125 0 
L 19.390625 60.984375 
L 19.390625 0 
L 9.8125 0 
z
" id="DejaVuSans-78"/>
    </defs>
    <g transform="translate(422.606875 19.3575)scale(0.16 -0.16)">
     <use xlink:href="#DejaVuSans-70"/>
     <use x="57.378906" xlink:href="#DejaVuSans-97"/>
     <use x="118.658203" xlink:href="#DejaVuSans-115"/>
     <use x="170.757812" xlink:href="#DejaVuSans-116"/>
     <use x="209.966797" xlink:href="#DejaVuSans-112"/>
     <use x="273.443359" xlink:href="#DejaVuSans-58"/>
     <use x="307.134766" xlink:href="#DejaVuSans-32"/>
     <use x="338.921875" xlink:href="#DejaVuSans-82"/>
     <use x="408.341797" xlink:href="#DejaVuSans-101"/>
     <use x="469.865234" xlink:href="#DejaVuSans-97"/>
     <use x="531.144531" xlink:href="#DejaVuSans-100"/>
     <use x="594.621094" xlink:href="#DejaVuSans-32"/>
     <use x="626.408203" xlink:href="#DejaVuSans-78"/>
     <use x="701.212891" xlink:href="#DejaVuSans-32"/>
     <use x="733" xlink:href="#DejaVuSans-67"/>
     <use x="802.824219" xlink:href="#DejaVuSans-111"/>
     <use x="864.005859" xlink:href="#DejaVuSans-110"/>
     <use x="927.384766" xlink:href="#DejaVuSans-116"/>
     <use x="966.59375" xlink:href="#DejaVuSans-101"/>
     <use x="1028.117188" xlink:href="#DejaVuSans-110"/>
     <use x="1091.496094" xlink:href="#DejaVuSans-116"/>
    </g>
   </g>
  </g>
 </g>
 <defs>
  <clipPath id="p3bb4f84126">
   <rect height="317.968" width="960.19" x="32.968125" y="35.2559"/>
  </clipPath>
 </defs>
</svg>
