<?xml version="1.0" encoding="utf-8" standalone="no"?>
<!DOCTYPE svg PUBLIC "-//W3C//DTD SVG 1.1//EN"
  "http://www.w3.org/Graphics/SVG/1.1/DTD/svg11.dtd">
<!-- Created with matplotlib (https://matplotlib.org/) -->
<svg height="388.844525pt" version="1.1" viewBox="0 0 1000.358125 388.844525" width="1000.358125pt" xmlns="http://www.w3.org/2000/svg" xmlns:xlink="http://www.w3.org/1999/xlink">
 <defs>
  <style type="text/css">
*{stroke-linecap:butt;stroke-linejoin:round;}
  </style>
 </defs>
 <g id="figure_1">
  <g id="axes_1">
   <g id="patch_1">
    <path d="M 32.968125 353.2239 
L 993.158125 353.2239 
L 993.158125 35.2559 
L 32.968125 35.2559 
z
" style="fill:#ffffff;"/>
   </g>
   <g id="matplotlib.axis_1">
    <g id="xtick_1">
     <g id="text_1">
      <!-- 0 -->
      <defs>
       <path d="M 31.78125 66.40625 
Q 24.171875 66.40625 20.328125 58.90625 
Q 16.5 51.421875 16.5 36.375 
Q 16.5 21.390625 20.328125 13.890625 
Q 24.171875 6.390625 31.78125 6.390625 
Q 39.453125 6.390625 43.28125 13.890625 
Q 47.125 21.390625 47.125 36.375 
Q 47.125 51.421875 43.28125 58.90625 
Q 39.453125 66.40625 31.78125 66.40625 
z
M 31.78125 74.21875 
Q 44.046875 74.21875 50.515625 64.515625 
Q 56.984375 54.828125 56.984375 36.375 
Q 56.984375 17.96875 50.515625 8.265625 
Q 44.046875 -1.421875 31.78125 -1.421875 
Q 19.53125 -1.421875 13.0625 8.265625 
Q 6.59375 17.96875 6.59375 36.375 
Q 6.59375 54.828125 13.0625 64.515625 
Q 19.53125 74.21875 31.78125 74.21875 
z
" id="DejaVuSans-48"/>
      </defs>
      <g transform="translate(68.209736 366.30265)scale(0.08 -0.08)">
       <use xlink:href="#DejaVuSans-48"/>
      </g>
     </g>
    </g>
    <g id="xtick_2">
     <g id="text_2">
      <!-- 20 -->
      <defs>
       <path d="M 19.1875 8.296875 
L 53.609375 8.296875 
L 53.609375 0 
L 7.328125 0 
L 7.328125 8.296875 
Q 12.9375 14.109375 22.625 23.890625 
Q 32.328125 33.6875 34.8125 36.53125 
Q 39.546875 41.84375 41.421875 45.53125 
Q 43.3125 49.21875 43.3125 52.78125 
Q 43.3125 58.59375 39.234375 62.25 
Q 35.15625 65.921875 28.609375 65.921875 
Q 23.96875 65.921875 18.8125 64.3125 
Q 13.671875 62.703125 7.8125 59.421875 
L 7.8125 69.390625 
Q 13.765625 71.78125 18.9375 73 
Q 24.125 74.21875 28.421875 74.21875 
Q 39.75 74.21875 46.484375 68.546875 
Q 53.21875 62.890625 53.21875 53.421875 
Q 53.21875 48.921875 51.53125 44.890625 
Q 49.859375 40.875 45.40625 35.40625 
Q 44.1875 33.984375 37.640625 27.21875 
Q 31.109375 20.453125 19.1875 8.296875 
z
" id="DejaVuSans-50"/>
      </defs>
      <g transform="translate(182.832521 366.30265)scale(0.08 -0.08)">
       <use xlink:href="#DejaVuSans-50"/>
       <use x="63.623047" xlink:href="#DejaVuSans-48"/>
      </g>
     </g>
    </g>
    <g id="xtick_3">
     <g id="text_3">
      <!-- 40 -->
      <defs>
       <path d="M 37.796875 64.3125 
L 12.890625 25.390625 
L 37.796875 25.390625 
z
M 35.203125 72.90625 
L 47.609375 72.90625 
L 47.609375 25.390625 
L 58.015625 25.390625 
L 58.015625 17.1875 
L 47.609375 17.1875 
L 47.609375 0 
L 37.796875 0 
L 37.796875 17.1875 
L 4.890625 17.1875 
L 4.890625 26.703125 
z
" id="DejaVuSans-52"/>
      </defs>
      <g transform="translate(300.000306 366.30265)scale(0.08 -0.08)">
       <use xlink:href="#DejaVuSans-52"/>
       <use x="63.623047" xlink:href="#DejaVuSans-48"/>
      </g>
     </g>
    </g>
    <g id="xtick_4">
     <g id="text_4">
      <!-- 60 -->
      <defs>
       <path d="M 33.015625 40.375 
Q 26.375 40.375 22.484375 35.828125 
Q 18.609375 31.296875 18.609375 23.390625 
Q 18.609375 15.53125 22.484375 10.953125 
Q 26.375 6.390625 33.015625 6.390625 
Q 39.65625 6.390625 43.53125 10.953125 
Q 47.40625 15.53125 47.40625 23.390625 
Q 47.40625 31.296875 43.53125 35.828125 
Q 39.65625 40.375 33.015625 40.375 
z
M 52.59375 71.296875 
L 52.59375 62.3125 
Q 48.875 64.0625 45.09375 64.984375 
Q 41.3125 65.921875 37.59375 65.921875 
Q 27.828125 65.921875 22.671875 59.328125 
Q 17.53125 52.734375 16.796875 39.40625 
Q 19.671875 43.65625 24.015625 45.921875 
Q 28.375 48.1875 33.59375 48.1875 
Q 44.578125 48.1875 50.953125 41.515625 
Q 57.328125 34.859375 57.328125 23.390625 
Q 57.328125 12.15625 50.6875 5.359375 
Q 44.046875 -1.421875 33.015625 -1.421875 
Q 20.359375 -1.421875 13.671875 8.265625 
Q 6.984375 17.96875 6.984375 36.375 
Q 6.984375 53.65625 15.1875 63.9375 
Q 23.390625 74.21875 37.203125 74.21875 
Q 40.921875 74.21875 44.703125 73.484375 
Q 48.484375 72.75 52.59375 71.296875 
z
" id="DejaVuSans-54"/>
      </defs>
      <g transform="translate(417.168091 366.30265)scale(0.08 -0.08)">
       <use xlink:href="#DejaVuSans-54"/>
       <use x="63.623047" xlink:href="#DejaVuSans-48"/>
      </g>
     </g>
    </g>
    <g id="xtick_5">
     <g id="text_5">
      <!-- 80 -->
      <defs>
       <path d="M 31.78125 34.625 
Q 24.75 34.625 20.71875 30.859375 
Q 16.703125 27.09375 16.703125 20.515625 
Q 16.703125 13.921875 20.71875 10.15625 
Q 24.75 6.390625 31.78125 6.390625 
Q 38.8125 6.390625 42.859375 10.171875 
Q 46.921875 13.96875 46.921875 20.515625 
Q 46.921875 27.09375 42.890625 30.859375 
Q 38.875 34.625 31.78125 34.625 
z
M 21.921875 38.8125 
Q 15.578125 40.375 12.03125 44.71875 
Q 8.5 49.078125 8.5 55.328125 
Q 8.5 64.0625 14.71875 69.140625 
Q 20.953125 74.21875 31.78125 74.21875 
Q 42.671875 74.21875 48.875 69.140625 
Q 55.078125 64.0625 55.078125 55.328125 
Q 55.078125 49.078125 51.53125 44.71875 
Q 48 40.375 41.703125 38.8125 
Q 48.828125 37.15625 52.796875 32.3125 
Q 56.78125 27.484375 56.78125 20.515625 
Q 56.78125 9.90625 50.3125 4.234375 
Q 43.84375 -1.421875 31.78125 -1.421875 
Q 19.734375 -1.421875 13.25 4.234375 
Q 6.78125 9.90625 6.78125 20.515625 
Q 6.78125 27.484375 10.78125 32.3125 
Q 14.796875 37.15625 21.921875 38.8125 
z
M 18.3125 54.390625 
Q 18.3125 48.734375 21.84375 45.5625 
Q 25.390625 42.390625 31.78125 42.390625 
Q 38.140625 42.390625 41.71875 45.5625 
Q 45.3125 48.734375 45.3125 54.390625 
Q 45.3125 60.0625 41.71875 63.234375 
Q 38.140625 66.40625 31.78125 66.40625 
Q 25.390625 66.40625 21.84375 63.234375 
Q 18.3125 60.0625 18.3125 54.390625 
z
" id="DejaVuSans-56"/>
      </defs>
      <g transform="translate(534.335877 366.30265)scale(0.08 -0.08)">
       <use xlink:href="#DejaVuSans-56"/>
       <use x="63.623047" xlink:href="#DejaVuSans-48"/>
      </g>
     </g>
    </g>
    <g id="xtick_6">
     <g id="text_6">
      <!-- 100 -->
      <defs>
       <path d="M 12.40625 8.296875 
L 28.515625 8.296875 
L 28.515625 63.921875 
L 10.984375 60.40625 
L 10.984375 69.390625 
L 28.421875 72.90625 
L 38.28125 72.90625 
L 38.28125 8.296875 
L 54.390625 8.296875 
L 54.390625 0 
L 12.40625 0 
z
" id="DejaVuSans-49"/>
      </defs>
      <g transform="translate(648.958662 366.30265)scale(0.08 -0.08)">
       <use xlink:href="#DejaVuSans-49"/>
       <use x="63.623047" xlink:href="#DejaVuSans-48"/>
       <use x="127.246094" xlink:href="#DejaVuSans-48"/>
      </g>
     </g>
    </g>
    <g id="xtick_7">
     <g id="text_7">
      <!-- 120 -->
      <g transform="translate(766.126447 366.30265)scale(0.08 -0.08)">
       <use xlink:href="#DejaVuSans-49"/>
       <use x="63.623047" xlink:href="#DejaVuSans-50"/>
       <use x="127.246094" xlink:href="#DejaVuSans-48"/>
      </g>
     </g>
    </g>
    <g id="xtick_8">
     <g id="text_8">
      <!-- 140 -->
      <g transform="translate(883.294232 366.30265)scale(0.08 -0.08)">
       <use xlink:href="#DejaVuSans-49"/>
       <use x="63.623047" xlink:href="#DejaVuSans-52"/>
       <use x="127.246094" xlink:href="#DejaVuSans-48"/>
      </g>
     </g>
    </g>
    <g id="text_9">
     <!-- Read Position -->
     <defs>
      <path d="M 44.390625 34.1875 
Q 47.5625 33.109375 50.5625 29.59375 
Q 53.5625 26.078125 56.59375 19.921875 
L 66.609375 0 
L 56 0 
L 46.6875 18.703125 
Q 43.0625 26.03125 39.671875 28.421875 
Q 36.28125 30.8125 30.421875 30.8125 
L 19.671875 30.8125 
L 19.671875 0 
L 9.8125 0 
L 9.8125 72.90625 
L 32.078125 72.90625 
Q 44.578125 72.90625 50.734375 67.671875 
Q 56.890625 62.453125 56.890625 51.90625 
Q 56.890625 45.015625 53.6875 40.46875 
Q 50.484375 35.9375 44.390625 34.1875 
z
M 19.671875 64.796875 
L 19.671875 38.921875 
L 32.078125 38.921875 
Q 39.203125 38.921875 42.84375 42.21875 
Q 46.484375 45.515625 46.484375 51.90625 
Q 46.484375 58.296875 42.84375 61.546875 
Q 39.203125 64.796875 32.078125 64.796875 
z
" id="DejaVuSans-82"/>
      <path d="M 56.203125 29.59375 
L 56.203125 25.203125 
L 14.890625 25.203125 
Q 15.484375 15.921875 20.484375 11.0625 
Q 25.484375 6.203125 34.421875 6.203125 
Q 39.59375 6.203125 44.453125 7.46875 
Q 49.3125 8.734375 54.109375 11.28125 
L 54.109375 2.78125 
Q 49.265625 0.734375 44.1875 -0.34375 
Q 39.109375 -1.421875 33.890625 -1.421875 
Q 20.796875 -1.421875 13.15625 6.1875 
Q 5.515625 13.8125 5.515625 26.8125 
Q 5.515625 40.234375 12.765625 48.109375 
Q 20.015625 56 32.328125 56 
Q 43.359375 56 49.78125 48.890625 
Q 56.203125 41.796875 56.203125 29.59375 
z
M 47.21875 32.234375 
Q 47.125 39.59375 43.09375 43.984375 
Q 39.0625 48.390625 32.421875 48.390625 
Q 24.90625 48.390625 20.390625 44.140625 
Q 15.875 39.890625 15.1875 32.171875 
z
" id="DejaVuSans-101"/>
      <path d="M 34.28125 27.484375 
Q 23.390625 27.484375 19.1875 25 
Q 14.984375 22.515625 14.984375 16.5 
Q 14.984375 11.71875 18.140625 8.90625 
Q 21.296875 6.109375 26.703125 6.109375 
Q 34.1875 6.109375 38.703125 11.40625 
Q 43.21875 16.703125 43.21875 25.484375 
L 43.21875 27.484375 
z
M 52.203125 31.203125 
L 52.203125 0 
L 43.21875 0 
L 43.21875 8.296875 
Q 40.140625 3.328125 35.546875 0.953125 
Q 30.953125 -1.421875 24.3125 -1.421875 
Q 15.921875 -1.421875 10.953125 3.296875 
Q 6 8.015625 6 15.921875 
Q 6 25.140625 12.171875 29.828125 
Q 18.359375 34.515625 30.609375 34.515625 
L 43.21875 34.515625 
L 43.21875 35.40625 
Q 43.21875 41.609375 39.140625 45 
Q 35.0625 48.390625 27.6875 48.390625 
Q 23 48.390625 18.546875 47.265625 
Q 14.109375 46.140625 10.015625 43.890625 
L 10.015625 52.203125 
Q 14.9375 54.109375 19.578125 55.046875 
Q 24.21875 56 28.609375 56 
Q 40.484375 56 46.34375 49.84375 
Q 52.203125 43.703125 52.203125 31.203125 
z
" id="DejaVuSans-97"/>
      <path d="M 45.40625 46.390625 
L 45.40625 75.984375 
L 54.390625 75.984375 
L 54.390625 0 
L 45.40625 0 
L 45.40625 8.203125 
Q 42.578125 3.328125 38.25 0.953125 
Q 33.9375 -1.421875 27.875 -1.421875 
Q 17.96875 -1.421875 11.734375 6.484375 
Q 5.515625 14.40625 5.515625 27.296875 
Q 5.515625 40.1875 11.734375 48.09375 
Q 17.96875 56 27.875 56 
Q 33.9375 56 38.25 53.625 
Q 42.578125 51.265625 45.40625 46.390625 
z
M 14.796875 27.296875 
Q 14.796875 17.390625 18.875 11.75 
Q 22.953125 6.109375 30.078125 6.109375 
Q 37.203125 6.109375 41.296875 11.75 
Q 45.40625 17.390625 45.40625 27.296875 
Q 45.40625 37.203125 41.296875 42.84375 
Q 37.203125 48.484375 30.078125 48.484375 
Q 22.953125 48.484375 18.875 42.84375 
Q 14.796875 37.203125 14.796875 27.296875 
z
" id="DejaVuSans-100"/>
      <path id="DejaVuSans-32"/>
      <path d="M 19.671875 64.796875 
L 19.671875 37.40625 
L 32.078125 37.40625 
Q 38.96875 37.40625 42.71875 40.96875 
Q 46.484375 44.53125 46.484375 51.125 
Q 46.484375 57.671875 42.71875 61.234375 
Q 38.96875 64.796875 32.078125 64.796875 
z
M 9.8125 72.90625 
L 32.078125 72.90625 
Q 44.34375 72.90625 50.609375 67.359375 
Q 56.890625 61.8125 56.890625 51.125 
Q 56.890625 40.328125 50.609375 34.8125 
Q 44.34375 29.296875 32.078125 29.296875 
L 19.671875 29.296875 
L 19.671875 0 
L 9.8125 0 
z
" id="DejaVuSans-80"/>
      <path d="M 30.609375 48.390625 
Q 23.390625 48.390625 19.1875 42.75 
Q 14.984375 37.109375 14.984375 27.296875 
Q 14.984375 17.484375 19.15625 11.84375 
Q 23.34375 6.203125 30.609375 6.203125 
Q 37.796875 6.203125 41.984375 11.859375 
Q 46.1875 17.53125 46.1875 27.296875 
Q 46.1875 37.015625 41.984375 42.703125 
Q 37.796875 48.390625 30.609375 48.390625 
z
M 30.609375 56 
Q 42.328125 56 49.015625 48.375 
Q 55.71875 40.765625 55.71875 27.296875 
Q 55.71875 13.875 49.015625 6.21875 
Q 42.328125 -1.421875 30.609375 -1.421875 
Q 18.84375 -1.421875 12.171875 6.21875 
Q 5.515625 13.875 5.515625 27.296875 
Q 5.515625 40.765625 12.171875 48.375 
Q 18.84375 56 30.609375 56 
z
" id="DejaVuSans-111"/>
      <path d="M 44.28125 53.078125 
L 44.28125 44.578125 
Q 40.484375 46.53125 36.375 47.5 
Q 32.28125 48.484375 27.875 48.484375 
Q 21.1875 48.484375 17.84375 46.4375 
Q 14.5 44.390625 14.5 40.28125 
Q 14.5 37.15625 16.890625 35.375 
Q 19.28125 33.59375 26.515625 31.984375 
L 29.59375 31.296875 
Q 39.15625 29.25 43.1875 25.515625 
Q 47.21875 21.78125 47.21875 15.09375 
Q 47.21875 7.46875 41.1875 3.015625 
Q 35.15625 -1.421875 24.609375 -1.421875 
Q 20.21875 -1.421875 15.453125 -0.5625 
Q 10.6875 0.296875 5.421875 2 
L 5.421875 11.28125 
Q 10.40625 8.6875 15.234375 7.390625 
Q 20.0625 6.109375 24.8125 6.109375 
Q 31.15625 6.109375 34.5625 8.28125 
Q 37.984375 10.453125 37.984375 14.40625 
Q 37.984375 18.0625 35.515625 20.015625 
Q 33.0625 21.96875 24.703125 23.78125 
L 21.578125 24.515625 
Q 13.234375 26.265625 9.515625 29.90625 
Q 5.8125 33.546875 5.8125 39.890625 
Q 5.8125 47.609375 11.28125 51.796875 
Q 16.75 56 26.8125 56 
Q 31.78125 56 36.171875 55.265625 
Q 40.578125 54.546875 44.28125 53.078125 
z
" id="DejaVuSans-115"/>
      <path d="M 9.421875 54.6875 
L 18.40625 54.6875 
L 18.40625 0 
L 9.421875 0 
z
M 9.421875 75.984375 
L 18.40625 75.984375 
L 18.40625 64.59375 
L 9.421875 64.59375 
z
" id="DejaVuSans-105"/>
      <path d="M 18.3125 70.21875 
L 18.3125 54.6875 
L 36.8125 54.6875 
L 36.8125 47.703125 
L 18.3125 47.703125 
L 18.3125 18.015625 
Q 18.3125 11.328125 20.140625 9.421875 
Q 21.96875 7.515625 27.59375 7.515625 
L 36.8125 7.515625 
L 36.8125 0 
L 27.59375 0 
Q 17.1875 0 13.234375 3.875 
Q 9.28125 7.765625 9.28125 18.015625 
L 9.28125 47.703125 
L 2.6875 47.703125 
L 2.6875 54.6875 
L 9.28125 54.6875 
L 9.28125 70.21875 
z
" id="DejaVuSans-116"/>
      <path d="M 54.890625 33.015625 
L 54.890625 0 
L 45.90625 0 
L 45.90625 32.71875 
Q 45.90625 40.484375 42.875 44.328125 
Q 39.84375 48.1875 33.796875 48.1875 
Q 26.515625 48.1875 22.3125 43.546875 
Q 18.109375 38.921875 18.109375 30.90625 
L 18.109375 0 
L 9.078125 0 
L 9.078125 54.6875 
L 18.109375 54.6875 
L 18.109375 46.1875 
Q 21.34375 51.125 25.703125 53.5625 
Q 30.078125 56 35.796875 56 
Q 45.21875 56 50.046875 50.171875 
Q 54.890625 44.34375 54.890625 33.015625 
z
" id="DejaVuSans-110"/>
     </defs>
     <g transform="translate(479.045156 379.564837)scale(0.1 -0.1)">
      <use xlink:href="#DejaVuSans-82"/>
      <use x="69.419922" xlink:href="#DejaVuSans-101"/>
      <use x="130.943359" xlink:href="#DejaVuSans-97"/>
      <use x="192.222656" xlink:href="#DejaVuSans-100"/>
      <use x="255.699219" xlink:href="#DejaVuSans-32"/>
      <use x="287.486328" xlink:href="#DejaVuSans-80"/>
      <use x="347.742188" xlink:href="#DejaVuSans-111"/>
      <use x="408.923828" xlink:href="#DejaVuSans-115"/>
      <use x="461.023438" xlink:href="#DejaVuSans-105"/>
      <use x="488.806641" xlink:href="#DejaVuSans-116"/>
      <use x="528.015625" xlink:href="#DejaVuSans-105"/>
      <use x="555.798828" xlink:href="#DejaVuSans-111"/>
      <use x="616.980469" xlink:href="#DejaVuSans-110"/>
     </g>
    </g>
   </g>
   <g id="matplotlib.axis_2">
    <g id="ytick_1">
     <g id="line2d_1">
      <path clip-path="url(#p81e6983166)" d="M 32.968125 353.2239 
L 993.158125 353.2239 
" style="fill:none;stroke:#dedede;stroke-linecap:square;"/>
     </g>
     <g id="text_10">
      <!-- 0 -->
      <g transform="translate(20.878125 356.263275)scale(0.08 -0.08)">
       <use xlink:href="#DejaVuSans-48"/>
      </g>
     </g>
    </g>
    <g id="ytick_2">
     <g id="line2d_2">
      <path clip-path="url(#p81e6983166)" d="M 32.968125 289.6303 
L 993.158125 289.6303 
" style="fill:none;stroke:#dedede;stroke-linecap:square;"/>
     </g>
     <g id="text_11">
      <!-- 1 -->
      <g transform="translate(20.878125 292.669675)scale(0.08 -0.08)">
       <use xlink:href="#DejaVuSans-49"/>
      </g>
     </g>
    </g>
    <g id="ytick_3">
     <g id="line2d_3">
      <path clip-path="url(#p81e6983166)" d="M 32.968125 226.0367 
L 993.158125 226.0367 
" style="fill:none;stroke:#dedede;stroke-linecap:square;"/>
     </g>
     <g id="text_12">
      <!-- 2 -->
      <g transform="translate(20.878125 229.076075)scale(0.08 -0.08)">
       <use xlink:href="#DejaVuSans-50"/>
      </g>
     </g>
    </g>
    <g id="ytick_4">
     <g id="line2d_4">
      <path clip-path="url(#p81e6983166)" d="M 32.968125 162.4431 
L 993.158125 162.4431 
" style="fill:none;stroke:#dedede;stroke-linecap:square;"/>
     </g>
     <g id="text_13">
      <!-- 3 -->
      <defs>
       <path d="M 40.578125 39.3125 
Q 47.65625 37.796875 51.625 33 
Q 55.609375 28.21875 55.609375 21.1875 
Q 55.609375 10.40625 48.1875 4.484375 
Q 40.765625 -1.421875 27.09375 -1.421875 
Q 22.515625 -1.421875 17.65625 -0.515625 
Q 12.796875 0.390625 7.625 2.203125 
L 7.625 11.71875 
Q 11.71875 9.328125 16.59375 8.109375 
Q 21.484375 6.890625 26.8125 6.890625 
Q 36.078125 6.890625 40.9375 10.546875 
Q 45.796875 14.203125 45.796875 21.1875 
Q 45.796875 27.640625 41.28125 31.265625 
Q 36.765625 34.90625 28.71875 34.90625 
L 20.21875 34.90625 
L 20.21875 43.015625 
L 29.109375 43.015625 
Q 36.375 43.015625 40.234375 45.921875 
Q 44.09375 48.828125 44.09375 54.296875 
Q 44.09375 59.90625 40.109375 62.90625 
Q 36.140625 65.921875 28.71875 65.921875 
Q 24.65625 65.921875 20.015625 65.03125 
Q 15.375 64.15625 9.8125 62.3125 
L 9.8125 71.09375 
Q 15.4375 72.65625 20.34375 73.4375 
Q 25.25 74.21875 29.59375 74.21875 
Q 40.828125 74.21875 47.359375 69.109375 
Q 53.90625 64.015625 53.90625 55.328125 
Q 53.90625 49.265625 50.4375 45.09375 
Q 46.96875 40.921875 40.578125 39.3125 
z
" id="DejaVuSans-51"/>
      </defs>
      <g transform="translate(20.878125 165.482475)scale(0.08 -0.08)">
       <use xlink:href="#DejaVuSans-51"/>
      </g>
     </g>
    </g>
    <g id="ytick_5">
     <g id="line2d_5">
      <path clip-path="url(#p81e6983166)" d="M 32.968125 98.8495 
L 993.158125 98.8495 
" style="fill:none;stroke:#dedede;stroke-linecap:square;"/>
     </g>
     <g id="text_14">
      <!-- 4 -->
      <g transform="translate(20.878125 101.888875)scale(0.08 -0.08)">
       <use xlink:href="#DejaVuSans-52"/>
      </g>
     </g>
    </g>
    <g id="ytick_6">
     <g id="line2d_6">
      <path clip-path="url(#p81e6983166)" d="M 32.968125 35.2559 
L 993.158125 35.2559 
" style="fill:none;stroke:#dedede;stroke-linecap:square;"/>
     </g>
     <g id="text_15">
      <!-- 5 -->
      <defs>
       <path d="M 10.796875 72.90625 
L 49.515625 72.90625 
L 49.515625 64.59375 
L 19.828125 64.59375 
L 19.828125 46.734375 
Q 21.96875 47.46875 24.109375 47.828125 
Q 26.265625 48.1875 28.421875 48.1875 
Q 40.625 48.1875 47.75 41.5 
Q 54.890625 34.8125 54.890625 23.390625 
Q 54.890625 11.625 47.5625 5.09375 
Q 40.234375 -1.421875 26.90625 -1.421875 
Q 22.3125 -1.421875 17.546875 -0.640625 
Q 12.796875 0.140625 7.71875 1.703125 
L 7.71875 11.625 
Q 12.109375 9.234375 16.796875 8.0625 
Q 21.484375 6.890625 26.703125 6.890625 
Q 35.15625 6.890625 40.078125 11.328125 
Q 45.015625 15.765625 45.015625 23.390625 
Q 45.015625 31 40.078125 35.4375 
Q 35.15625 39.890625 26.703125 39.890625 
Q 22.75 39.890625 18.8125 39.015625 
Q 14.890625 38.140625 10.796875 36.28125 
z
" id="DejaVuSans-53"/>
      </defs>
      <g transform="translate(20.878125 38.295275)scale(0.08 -0.08)">
       <use xlink:href="#DejaVuSans-53"/>
      </g>
     </g>
    </g>
    <g id="text_16">
     <!-- R2 After filtering: Base Content Percent -->
     <defs>
      <path d="M 34.1875 63.1875 
L 20.796875 26.90625 
L 47.609375 26.90625 
z
M 28.609375 72.90625 
L 39.796875 72.90625 
L 67.578125 0 
L 57.328125 0 
L 50.6875 18.703125 
L 17.828125 18.703125 
L 11.1875 0 
L 0.78125 0 
z
" id="DejaVuSans-65"/>
      <path d="M 37.109375 75.984375 
L 37.109375 68.5 
L 28.515625 68.5 
Q 23.6875 68.5 21.796875 66.546875 
Q 19.921875 64.59375 19.921875 59.515625 
L 19.921875 54.6875 
L 34.71875 54.6875 
L 34.71875 47.703125 
L 19.921875 47.703125 
L 19.921875 0 
L 10.890625 0 
L 10.890625 47.703125 
L 2.296875 47.703125 
L 2.296875 54.6875 
L 10.890625 54.6875 
L 10.890625 58.5 
Q 10.890625 67.625 15.140625 71.796875 
Q 19.390625 75.984375 28.609375 75.984375 
z
" id="DejaVuSans-102"/>
      <path d="M 41.109375 46.296875 
Q 39.59375 47.171875 37.8125 47.578125 
Q 36.03125 48 33.890625 48 
Q 26.265625 48 22.1875 43.046875 
Q 18.109375 38.09375 18.109375 28.8125 
L 18.109375 0 
L 9.078125 0 
L 9.078125 54.6875 
L 18.109375 54.6875 
L 18.109375 46.1875 
Q 20.953125 51.171875 25.484375 53.578125 
Q 30.03125 56 36.53125 56 
Q 37.453125 56 38.578125 55.875 
Q 39.703125 55.765625 41.0625 55.515625 
z
" id="DejaVuSans-114"/>
      <path d="M 9.421875 75.984375 
L 18.40625 75.984375 
L 18.40625 0 
L 9.421875 0 
z
" id="DejaVuSans-108"/>
      <path d="M 45.40625 27.984375 
Q 45.40625 37.75 41.375 43.109375 
Q 37.359375 48.484375 30.078125 48.484375 
Q 22.859375 48.484375 18.828125 43.109375 
Q 14.796875 37.75 14.796875 27.984375 
Q 14.796875 18.265625 18.828125 12.890625 
Q 22.859375 7.515625 30.078125 7.515625 
Q 37.359375 7.515625 41.375 12.890625 
Q 45.40625 18.265625 45.40625 27.984375 
z
M 54.390625 6.78125 
Q 54.390625 -7.171875 48.1875 -13.984375 
Q 42 -20.796875 29.203125 -20.796875 
Q 24.46875 -20.796875 20.265625 -20.09375 
Q 16.0625 -19.390625 12.109375 -17.921875 
L 12.109375 -9.1875 
Q 16.0625 -11.328125 19.921875 -12.34375 
Q 23.78125 -13.375 27.78125 -13.375 
Q 36.625 -13.375 41.015625 -8.765625 
Q 45.40625 -4.15625 45.40625 5.171875 
L 45.40625 9.625 
Q 42.625 4.78125 38.28125 2.390625 
Q 33.9375 0 27.875 0 
Q 17.828125 0 11.671875 7.65625 
Q 5.515625 15.328125 5.515625 27.984375 
Q 5.515625 40.671875 11.671875 48.328125 
Q 17.828125 56 27.875 56 
Q 33.9375 56 38.28125 53.609375 
Q 42.625 51.21875 45.40625 46.390625 
L 45.40625 54.6875 
L 54.390625 54.6875 
z
" id="DejaVuSans-103"/>
      <path d="M 11.71875 12.40625 
L 22.015625 12.40625 
L 22.015625 0 
L 11.71875 0 
z
M 11.71875 51.703125 
L 22.015625 51.703125 
L 22.015625 39.3125 
L 11.71875 39.3125 
z
" id="DejaVuSans-58"/>
      <path d="M 19.671875 34.8125 
L 19.671875 8.109375 
L 35.5 8.109375 
Q 43.453125 8.109375 47.28125 11.40625 
Q 51.125 14.703125 51.125 21.484375 
Q 51.125 28.328125 47.28125 31.5625 
Q 43.453125 34.8125 35.5 34.8125 
z
M 19.671875 64.796875 
L 19.671875 42.828125 
L 34.28125 42.828125 
Q 41.5 42.828125 45.03125 45.53125 
Q 48.578125 48.25 48.578125 53.8125 
Q 48.578125 59.328125 45.03125 62.0625 
Q 41.5 64.796875 34.28125 64.796875 
z
M 9.8125 72.90625 
L 35.015625 72.90625 
Q 46.296875 72.90625 52.390625 68.21875 
Q 58.5 63.53125 58.5 54.890625 
Q 58.5 48.1875 55.375 44.234375 
Q 52.25 40.28125 46.1875 39.3125 
Q 53.46875 37.75 57.5 32.78125 
Q 61.53125 27.828125 61.53125 20.40625 
Q 61.53125 10.640625 54.890625 5.3125 
Q 48.25 0 35.984375 0 
L 9.8125 0 
z
" id="DejaVuSans-66"/>
      <path d="M 64.40625 67.28125 
L 64.40625 56.890625 
Q 59.421875 61.53125 53.78125 63.8125 
Q 48.140625 66.109375 41.796875 66.109375 
Q 29.296875 66.109375 22.65625 58.46875 
Q 16.015625 50.828125 16.015625 36.375 
Q 16.015625 21.96875 22.65625 14.328125 
Q 29.296875 6.6875 41.796875 6.6875 
Q 48.140625 6.6875 53.78125 8.984375 
Q 59.421875 11.28125 64.40625 15.921875 
L 64.40625 5.609375 
Q 59.234375 2.09375 53.4375 0.328125 
Q 47.65625 -1.421875 41.21875 -1.421875 
Q 24.65625 -1.421875 15.125 8.703125 
Q 5.609375 18.84375 5.609375 36.375 
Q 5.609375 53.953125 15.125 64.078125 
Q 24.65625 74.21875 41.21875 74.21875 
Q 47.75 74.21875 53.53125 72.484375 
Q 59.328125 70.75 64.40625 67.28125 
z
" id="DejaVuSans-67"/>
      <path d="M 48.78125 52.59375 
L 48.78125 44.1875 
Q 44.96875 46.296875 41.140625 47.34375 
Q 37.3125 48.390625 33.40625 48.390625 
Q 24.65625 48.390625 19.8125 42.84375 
Q 14.984375 37.3125 14.984375 27.296875 
Q 14.984375 17.28125 19.8125 11.734375 
Q 24.65625 6.203125 33.40625 6.203125 
Q 37.3125 6.203125 41.140625 7.25 
Q 44.96875 8.296875 48.78125 10.40625 
L 48.78125 2.09375 
Q 45.015625 0.34375 40.984375 -0.53125 
Q 36.96875 -1.421875 32.421875 -1.421875 
Q 20.0625 -1.421875 12.78125 6.34375 
Q 5.515625 14.109375 5.515625 27.296875 
Q 5.515625 40.671875 12.859375 48.328125 
Q 20.21875 56 33.015625 56 
Q 37.15625 56 41.109375 55.140625 
Q 45.0625 54.296875 48.78125 52.59375 
z
" id="DejaVuSans-99"/>
     </defs>
     <g transform="translate(14.798438 293.315681)rotate(-90)scale(0.1 -0.1)">
      <use xlink:href="#DejaVuSans-82"/>
      <use x="69.482422" xlink:href="#DejaVuSans-50"/>
      <use x="133.105469" xlink:href="#DejaVuSans-32"/>
      <use x="164.892578" xlink:href="#DejaVuSans-65"/>
      <use x="233.253906" xlink:href="#DejaVuSans-102"/>
      <use x="268.443359" xlink:href="#DejaVuSans-116"/>
      <use x="307.652344" xlink:href="#DejaVuSans-101"/>
      <use x="369.175781" xlink:href="#DejaVuSans-114"/>
      <use x="410.289062" xlink:href="#DejaVuSans-32"/>
      <use x="442.076172" xlink:href="#DejaVuSans-102"/>
      <use x="477.28125" xlink:href="#DejaVuSans-105"/>
      <use x="505.064453" xlink:href="#DejaVuSans-108"/>
      <use x="532.847656" xlink:href="#DejaVuSans-116"/>
      <use x="572.056641" xlink:href="#DejaVuSans-101"/>
      <use x="633.580078" xlink:href="#DejaVuSans-114"/>
      <use x="674.693359" xlink:href="#DejaVuSans-105"/>
      <use x="702.476562" xlink:href="#DejaVuSans-110"/>
      <use x="765.855469" xlink:href="#DejaVuSans-103"/>
      <use x="829.332031" xlink:href="#DejaVuSans-58"/>
      <use x="863.023438" xlink:href="#DejaVuSans-32"/>
      <use x="894.810547" xlink:href="#DejaVuSans-66"/>
      <use x="963.414062" xlink:href="#DejaVuSans-97"/>
      <use x="1024.693359" xlink:href="#DejaVuSans-115"/>
      <use x="1076.792969" xlink:href="#DejaVuSans-101"/>
      <use x="1138.316406" xlink:href="#DejaVuSans-32"/>
      <use x="1170.103516" xlink:href="#DejaVuSans-67"/>
      <use x="1239.927734" xlink:href="#DejaVuSans-111"/>
      <use x="1301.109375" xlink:href="#DejaVuSans-110"/>
      <use x="1364.488281" xlink:href="#DejaVuSans-116"/>
      <use x="1403.697266" xlink:href="#DejaVuSans-101"/>
      <use x="1465.220703" xlink:href="#DejaVuSans-110"/>
      <use x="1528.599609" xlink:href="#DejaVuSans-116"/>
      <use x="1567.808594" xlink:href="#DejaVuSans-32"/>
      <use x="1599.595703" xlink:href="#DejaVuSans-80"/>
      <use x="1659.851562" xlink:href="#DejaVuSans-101"/>
      <use x="1721.375" xlink:href="#DejaVuSans-114"/>
      <use x="1762.457031" xlink:href="#DejaVuSans-99"/>
      <use x="1817.4375" xlink:href="#DejaVuSans-101"/>
      <use x="1878.960938" xlink:href="#DejaVuSans-110"/>
      <use x="1942.339844" xlink:href="#DejaVuSans-116"/>
     </g>
    </g>
   </g>
   <g id="line2d_7">
    <path clip-path="url(#p81e6983166)" d="M 76.613125 353.2239 
L 158.630575 353.2239 
L 164.488964 351.808624 
L 170.347353 353.2239 
L 199.639299 353.2239 
L 205.497689 352.658069 
L 211.356078 353.176398 
L 223.072857 353.2239 
L 269.939971 353.130279 
L 287.515138 353.190343 
L 322.665474 353.208486 
L 363.674199 353.215455 
L 369.532588 353.08586 
L 375.390977 353.2239 
L 527.709098 353.2239 
L 709.319165 353.220879 
L 715.177555 352.936556 
L 721.035944 353.2239 
L 855.778897 353.2239 
L 861.637286 353.10707 
L 867.495675 353.22078 
L 949.513125 353.2239 
L 949.513125 353.2239 
" style="fill:none;stroke:#7cb5ec;stroke-linecap:square;"/>
   </g>
   <g id="line2d_8">
    <path clip-path="url(#p81e6983166)" d="M 76.613125 353.223297 
L 158.630575 353.2239 
L 164.488964 351.646715 
L 170.347353 353.2239 
L 199.639299 353.2239 
L 205.497689 352.482367 
L 211.356078 353.102021 
L 217.214467 353.2239 
L 252.364803 353.184682 
L 258.223192 353.070646 
L 275.79836 353.188275 
L 305.090306 353.196637 
L 363.674199 353.207896 
L 369.532588 353.040657 
L 375.390977 353.223282 
L 469.125206 353.223246 
L 557.001044 353.222505 
L 562.859434 353.097098 
L 568.717823 353.2239 
L 709.319165 353.218531 
L 715.177555 352.925432 
L 721.035944 353.2239 
L 949.513125 353.2239 
L 949.513125 353.2239 
" style="fill:none;stroke:#434348;stroke-linecap:square;"/>
   </g>
   <g id="line2d_9">
    <path clip-path="url(#p81e6983166)" d="M 76.613125 353.2239 
L 158.630575 353.2239 
L 164.488964 351.396939 
L 170.347353 353.2239 
L 193.78091 353.2239 
L 199.639299 353.2239 
L 205.497689 352.258765 
L 211.356078 352.97784 
L 217.214467 353.2239 
L 252.364803 353.183849 
L 258.223192 353.077866 
L 275.79836 353.189336 
L 305.090306 353.189472 
L 363.674199 353.202384 
L 369.532588 353.000049 
L 375.390977 353.222595 
L 451.550038 353.222948 
L 557.001044 353.220268 
L 562.859434 353.070292 
L 568.717823 353.223047 
L 709.319165 353.21809 
L 715.177555 352.914995 
L 721.035944 353.2239 
L 949.513125 353.2239 
L 949.513125 353.2239 
" style="fill:none;stroke:#90ed7d;stroke-linecap:square;"/>
   </g>
   <g id="line2d_10">
    <path clip-path="url(#p81e6983166)" d="M 76.613125 353.223846 
L 158.630575 353.2239 
L 164.488964 351.242393 
L 170.347353 353.2239 
L 187.922521 353.221313 
L 199.639299 353.2239 
L 205.497689 352.103031 
L 211.356078 352.907556 
L 217.214467 353.2239 
L 252.364803 353.182666 
L 258.223192 353.084135 
L 281.656749 353.165711 
L 322.665474 353.213499 
L 363.674199 353.195497 
L 369.532588 352.955718 
L 375.390977 353.222108 
L 439.833259 353.220775 
L 557.001044 353.220559 
L 562.859434 353.047335 
L 568.717823 353.221977 
L 709.319165 353.217726 
L 715.177555 352.910449 
L 721.035944 353.2239 
L 949.513125 353.2239 
L 949.513125 353.2239 
" style="fill:none;stroke:#f7a35c;stroke-linecap:square;"/>
   </g>
   <g id="line2d_11">
    <path clip-path="url(#p81e6983166)" d="M 76.613125 353.223792 
L 158.630575 353.2239 
L 164.488964 351.009558 
L 170.347353 353.2239 
L 182.064132 353.221087 
L 199.639299 353.2239 
L 205.497689 351.861426 
L 211.356078 352.75831 
L 217.214467 353.2239 
L 252.364803 353.177698 
L 258.223192 353.071985 
L 275.79836 353.185102 
L 293.373528 353.162395 
L 322.665474 353.212586 
L 363.674199 353.17007 
L 369.532588 352.888838 
L 375.390977 353.220295 
L 422.258091 353.190086 
L 451.550038 353.222208 
L 557.001044 353.219102 
L 562.859434 353.016448 
L 568.717823 353.221266 
L 691.743997 353.219978 
L 709.319165 353.215923 
L 715.177555 352.90358 
L 721.035944 353.2239 
L 949.513125 353.2239 
L 949.513125 353.2239 
" style="fill:none;stroke:#8085e9;stroke-linecap:square;"/>
   </g>
   <g id="line2d_12">
    <path clip-path="url(#p81e6983166)" d="M 76.613125 353.2239 
L 158.630575 353.2239 
L 164.488964 351.577894 
L 170.347353 353.2239 
L 199.639299 353.2239 
L 205.497689 352.474526 
L 211.356078 353.07973 
L 217.214467 353.2239 
L 252.364803 353.189207 
L 258.223192 353.088982 
L 293.373528 353.18059 
L 334.382253 353.219995 
L 363.674199 353.203351 
L 369.532588 353.03922 
L 375.390977 353.2239 
L 439.833259 353.221413 
L 557.001044 353.219328 
L 562.859434 353.099861 
L 568.717823 353.2239 
L 709.319165 353.216737 
L 715.177555 352.954842 
L 721.035944 353.2239 
L 949.513125 353.2239 
L 949.513125 353.2239 
" style="fill:none;stroke:#f15c80;stroke-linecap:square;"/>
   </g>
   <g id="line2d_13">
    <path clip-path="url(#p81e6983166)" d="M 76.613125 353.2239 
L 158.630575 353.2239 
L 164.488964 351.743638 
L 170.347353 353.2239 
L 199.639299 353.2239 
L 205.497689 352.560256 
L 211.356078 353.138788 
L 223.072857 353.2239 
L 246.506414 353.199747 
L 275.79836 353.176712 
L 316.807085 353.204245 
L 363.674199 353.219227 
L 369.532588 353.0402 
L 375.390977 353.221556 
L 644.876883 353.2239 
L 709.319165 353.2239 
L 715.177555 352.930526 
L 721.035944 353.2239 
L 949.513125 353.2239 
L 949.513125 353.2239 
" style="fill:none;stroke:#e4d354;stroke-linecap:square;"/>
   </g>
   <g id="line2d_14">
    <path clip-path="url(#p81e6983166)" d="M 76.613125 353.2239 
L 158.630575 353.2239 
L 164.488964 351.71642 
L 170.347353 353.2239 
L 199.639299 353.2239 
L 205.497689 352.578724 
L 211.356078 353.145993 
L 223.072857 353.223604 
L 246.506414 353.19724 
L 293.373528 353.175831 
L 328.523863 353.217944 
L 363.674199 353.21551 
L 369.532588 353.062787 
L 375.390977 353.222698 
L 680.027219 353.2239 
L 709.319165 353.219836 
L 715.177555 352.935782 
L 721.035944 353.2239 
L 949.513125 353.2239 
L 949.513125 353.2239 
" style="fill:none;stroke:#2b908f;stroke-linecap:square;"/>
   </g>
   <g id="line2d_15">
    <path clip-path="url(#p81e6983166)" d="M 76.613125 353.2239 
L 158.630575 353.2239 
L 164.488964 351.818074 
L 170.347353 353.2239 
L 199.639299 353.2239 
L 205.497689 352.677261 
L 211.356078 353.189591 
L 234.789635 353.222226 
L 316.807085 353.203583 
L 363.674199 353.218441 
L 369.532588 353.067415 
L 375.390977 353.2239 
L 709.319165 353.220126 
L 715.177555 352.928111 
L 721.035944 353.2239 
L 949.513125 353.2239 
L 949.513125 353.2239 
" style="fill:none;stroke:#f45b5b;stroke-linecap:square;"/>
   </g>
   <g id="line2d_16">
    <path clip-path="url(#p81e6983166)" d="M 76.613125 353.223783 
L 158.630575 353.2239 
L 164.488964 351.752153 
L 170.347353 353.2239 
L 199.639299 353.2239 
L 205.497689 352.625292 
L 211.356078 353.16733 
L 223.072857 353.223666 
L 240.648024 353.211602 
L 310.948695 353.196673 
L 363.674199 353.21741 
L 369.532588 353.065638 
L 375.390977 353.223309 
L 562.859434 353.095655 
L 568.717823 353.223652 
L 709.319165 353.219762 
L 715.177555 352.918993 
L 721.035944 353.2239 
L 949.513125 353.2239 
L 949.513125 353.2239 
" style="fill:none;stroke:#91e8e1;stroke-linecap:square;"/>
   </g>
   <g id="line2d_17">
    <path clip-path="url(#p81e6983166)" d="M 76.613125 353.2239 
L 158.630575 353.2239 
L 164.488964 351.844173 
L 170.347353 353.2239 
L 199.639299 353.2239 
L 205.497689 352.702756 
L 211.356078 353.202205 
L 240.648024 353.214496 
L 293.373528 353.179184 
L 334.382253 353.21961 
L 363.674199 353.220819 
L 369.532588 353.087255 
L 375.390977 353.223713 
L 709.319165 353.221592 
L 715.177555 352.932671 
L 721.035944 353.2239 
L 949.513125 353.2239 
L 949.513125 353.2239 
" style="fill:none;stroke:#7cb5ec;stroke-linecap:square;"/>
   </g>
   <g id="line2d_18">
    <path clip-path="url(#p81e6983166)" d="M 76.613125 353.2239 
L 158.630575 353.2239 
L 164.488964 351.766424 
L 170.347353 353.2239 
L 199.639299 353.2239 
L 205.497689 352.617518 
L 211.356078 353.164386 
L 223.072857 353.223556 
L 246.506414 353.20131 
L 281.656749 353.169228 
L 322.665474 353.215849 
L 363.674199 353.21766 
L 369.532588 353.072278 
L 375.390977 353.223263 
L 568.717823 353.223352 
L 709.319165 353.220287 
L 715.177555 352.931422 
L 721.035944 353.2239 
L 949.513125 353.2239 
L 949.513125 353.2239 
" style="fill:none;stroke:#434348;stroke-linecap:square;"/>
   </g>
   <g id="line2d_19">
    <path clip-path="url(#p81e6983166)" d="M 76.613125 353.2239 
L 158.630575 353.2239 
L 164.488964 351.631268 
L 170.347353 353.2239 
L 199.639299 353.2239 
L 205.497689 352.466297 
L 211.356078 353.081468 
L 217.214467 353.2239 
L 252.364803 353.183075 
L 258.223192 353.082638 
L 281.656749 353.168225 
L 322.665474 353.215826 
L 363.674199 353.209031 
L 369.532588 353.03441 
L 375.390977 353.222894 
L 480.841984 353.222095 
L 557.001044 353.221365 
L 562.859434 353.091015 
L 568.717823 353.223435 
L 709.319165 353.219833 
L 715.177555 352.921385 
L 721.035944 353.2239 
L 949.513125 353.2239 
L 949.513125 353.2239 
" style="fill:none;stroke:#90ed7d;stroke-linecap:square;"/>
   </g>
   <g id="line2d_20">
    <path clip-path="url(#p81e6983166)" d="M 76.613125 353.223799 
L 158.630575 353.2239 
L 164.488964 351.085457 
L 170.347353 353.2239 
L 182.064132 353.220129 
L 199.639299 353.2239 
L 205.497689 351.943557 
L 211.356078 352.80503 
L 217.214467 353.223699 
L 252.364803 353.179906 
L 258.223192 353.0885 
L 281.656749 353.165851 
L 322.665474 353.212203 
L 363.674199 353.183853 
L 369.532588 352.915062 
L 375.390977 353.221589 
L 422.258091 353.196935 
L 457.408427 353.220707 
L 557.001044 353.219415 
L 562.859434 353.02723 
L 568.717823 353.221242 
L 709.319165 353.218477 
L 715.177555 352.904132 
L 721.035944 353.2239 
L 949.513125 353.2239 
L 949.513125 353.2239 
" style="fill:none;stroke:#f7a35c;stroke-linecap:square;"/>
   </g>
   <g id="line2d_21">
    <path clip-path="url(#p81e6983166)" d="M 76.613125 353.2239 
L 158.630575 353.2239 
L 164.488964 351.713495 
L 170.347353 353.2239 
L 199.639299 353.2239 
L 205.497689 352.554247 
L 211.356078 353.141388 
L 223.072857 353.223031 
L 264.081581 353.137914 
L 363.674199 353.215077 
L 369.532588 353.040966 
L 375.390977 353.223015 
L 492.558763 353.220193 
L 557.001044 353.221039 
L 562.859434 353.083374 
L 568.717823 353.222942 
L 709.319165 353.217843 
L 715.177555 352.921487 
L 721.035944 353.2239 
L 949.513125 353.2239 
L 949.513125 353.2239 
" style="fill:none;stroke:#8085e9;stroke-linecap:square;"/>
   </g>
   <g id="line2d_22">
    <path clip-path="url(#p81e6983166)" d="M 76.613125 353.2239 
L 158.630575 353.2239 
L 164.488964 351.533767 
L 170.347353 353.2239 
L 199.639299 353.2239 
L 205.497689 352.39726 
L 211.356078 353.059856 
L 217.214467 353.2239 
L 252.364803 353.186099 
L 258.223192 353.080302 
L 281.656749 353.16861 
L 310.948695 353.199914 
L 363.674199 353.205531 
L 369.532588 353.014822 
L 375.390977 353.223407 
L 521.850709 353.223067 
L 557.001044 353.221307 
L 562.859434 353.073736 
L 568.717823 353.223317 
L 709.319165 353.216771 
L 715.177555 352.916417 
L 721.035944 353.2239 
L 949.513125 353.2239 
L 949.513125 353.2239 
" style="fill:none;stroke:#f15c80;stroke-linecap:square;"/>
   </g>
   <g id="line2d_23">
    <path clip-path="url(#p81e6983166)" d="M 76.613125 353.2239 
L 158.630575 353.2239 
L 164.488964 351.684566 
L 170.347353 353.2239 
L 199.639299 353.2239 
L 205.497689 352.544886 
L 211.356078 353.130149 
L 223.072857 353.223301 
L 246.506414 353.20314 
L 281.656749 353.167836 
L 316.807085 353.203735 
L 363.674199 353.213868 
L 369.532588 353.047116 
L 375.390977 353.22282 
L 580.434602 353.216147 
L 656.593662 353.223125 
L 680.027219 353.223665 
L 709.319165 353.219618 
L 715.177555 352.916522 
L 721.035944 353.223741 
L 949.513125 353.2239 
L 949.513125 353.2239 
" style="fill:none;stroke:#e4d354;stroke-linecap:square;"/>
   </g>
   <g id="line2d_24">
    <path clip-path="url(#p81e6983166)" d="M 76.613125 353.2239 
L 158.630575 353.2239 
L 164.488964 351.609169 
L 170.347353 353.2239 
L 199.639299 353.2239 
L 205.497689 352.43822 
L 211.356078 353.06032 
L 217.214467 353.22328 
L 252.364803 353.184864 
L 258.223192 353.086964 
L 287.515138 353.189111 
L 316.807085 353.202019 
L 363.674199 353.211163 
L 369.532588 353.015666 
L 375.390977 353.223259 
L 463.266816 353.218448 
L 557.001044 353.220951 
L 562.859434 353.08541 
L 568.717823 353.223156 
L 709.319165 353.220625 
L 715.177555 352.90109 
L 721.035944 353.2239 
L 949.513125 353.2239 
L 949.513125 353.2239 
" style="fill:none;stroke:#2b908f;stroke-linecap:square;"/>
   </g>
   <g id="line2d_25">
    <path clip-path="url(#p81e6983166)" d="M 76.613125 353.2239 
L 158.630575 353.2239 
L 164.488964 351.458097 
L 170.347353 353.2239 
L 199.639299 353.2239 
L 205.497689 352.336985 
L 211.356078 353.009935 
L 217.214467 353.223768 
L 252.364803 353.182318 
L 258.223192 353.075598 
L 281.656749 353.165175 
L 322.665474 353.213201 
L 363.674199 353.198814 
L 369.532588 352.999875 
L 375.390977 353.222793 
L 445.691648 353.222415 
L 557.001044 353.220993 
L 562.859434 353.070237 
L 568.717823 353.223033 
L 709.319165 353.220901 
L 715.177555 352.920227 
L 721.035944 353.2239 
L 949.513125 353.2239 
L 949.513125 353.2239 
" style="fill:none;stroke:#f45b5b;stroke-linecap:square;"/>
   </g>
   <g id="line2d_26">
    <path clip-path="url(#p81e6983166)" d="M 76.613125 353.2239 
L 158.630575 353.2239 
L 164.488964 351.572864 
L 170.347353 353.2239 
L 199.639299 353.2239 
L 205.497689 352.433114 
L 211.356078 353.075013 
L 217.214467 353.2239 
L 252.364803 353.181937 
L 258.223192 353.080466 
L 281.656749 353.167971 
L 322.665474 353.213365 
L 363.674199 353.207611 
L 369.532588 353.024602 
L 375.390977 353.223289 
L 480.841984 353.221661 
L 557.001044 353.22165 
L 562.859434 353.084708 
L 568.717823 353.222906 
L 709.319165 353.221082 
L 715.177555 352.926712 
L 721.035944 353.2239 
L 949.513125 353.2239 
L 949.513125 353.2239 
" style="fill:none;stroke:#91e8e1;stroke-linecap:square;"/>
   </g>
   <g id="line2d_27">
    <path clip-path="url(#p81e6983166)" d="M 76.613125 353.2239 
L 158.630575 353.2239 
L 164.488964 351.739428 
L 170.347353 353.2239 
L 199.639299 353.2239 
L 205.497689 352.599218 
L 211.356078 353.153136 
L 223.072857 353.223479 
L 264.081581 353.126954 
L 316.807085 353.203446 
L 363.674199 353.21658 
L 369.532588 353.06554 
L 375.390977 353.223156 
L 598.009769 353.218948 
L 709.319165 353.221748 
L 715.177555 352.932838 
L 721.035944 353.2239 
L 949.513125 353.2239 
L 949.513125 353.2239 
" style="fill:none;stroke:#7cb5ec;stroke-linecap:square;"/>
   </g>
   <g id="line2d_28">
    <path clip-path="url(#p81e6983166)" d="M 76.613125 353.223828 
L 158.630575 353.2239 
L 164.488964 351.600953 
L 170.347353 353.2239 
L 199.639299 353.2239 
L 205.497689 352.446392 
L 211.356078 353.071611 
L 217.214467 353.223828 
L 252.364803 353.183748 
L 258.223192 353.079207 
L 275.79836 353.190219 
L 299.231917 353.197867 
L 357.81581 353.203861 
L 363.674199 353.208567 
L 369.532588 353.03217 
L 375.390977 353.223076 
L 515.99232 353.205209 
L 557.001044 353.221669 
L 562.859434 353.094164 
L 568.717823 353.223207 
L 709.319165 353.220201 
L 715.177555 352.92455 
L 721.035944 353.2239 
L 949.513125 353.2239 
L 949.513125 353.2239 
" style="fill:none;stroke:#434348;stroke-linecap:square;"/>
   </g>
   <g id="line2d_29">
    <path clip-path="url(#p81e6983166)" d="M 76.613125 353.2239 
L 158.630575 353.2239 
L 164.488964 351.489079 
L 170.347353 353.2239 
L 199.639299 353.2239 
L 205.497689 352.334766 
L 211.356078 353.023511 
L 217.214467 353.223847 
L 252.364803 353.182453 
L 258.223192 353.089869 
L 287.515138 353.1908 
L 316.807085 353.201743 
L 363.674199 353.204998 
L 369.532588 353.013595 
L 375.390977 353.222969 
L 469.125206 353.223419 
L 557.001044 353.220812 
L 562.859434 353.078835 
L 568.717823 353.222879 
L 709.319165 353.219812 
L 715.177555 352.930035 
L 721.035944 353.2239 
L 949.513125 353.2239 
L 949.513125 353.2239 
" style="fill:none;stroke:#90ed7d;stroke-linecap:square;"/>
   </g>
   <g id="line2d_30">
    <path clip-path="url(#p81e6983166)" d="M 76.613125 353.223695 
L 158.630575 353.2239 
L 164.488964 351.372417 
L 170.347353 353.2239 
L 187.922521 353.221984 
L 199.639299 353.2239 
L 205.497689 352.219713 
L 211.356078 352.958415 
L 217.214467 353.223832 
L 252.364803 353.184351 
L 258.223192 353.083357 
L 281.656749 353.165467 
L 316.807085 353.196545 
L 357.81581 353.199969 
L 363.674199 353.199699 
L 369.532588 352.982511 
L 375.390977 353.222006 
L 445.691648 353.222471 
L 557.001044 353.220871 
L 562.859434 353.064939 
L 568.717823 353.222839 
L 709.319165 353.219897 
L 715.177555 352.91497 
L 721.035944 353.223781 
L 949.513125 353.2239 
L 949.513125 353.2239 
" style="fill:none;stroke:#f7a35c;stroke-linecap:square;"/>
   </g>
   <g id="line2d_31">
    <path clip-path="url(#p81e6983166)" d="M 76.613125 353.2239 
L 158.630575 353.2239 
L 164.488964 351.92881 
L 170.347353 353.2239 
L 199.639299 353.2239 
L 205.497689 352.719273 
L 211.356078 353.160381 
L 223.072857 353.2239 
L 240.648024 353.209785 
L 252.364803 353.163909 
L 258.223192 353.066866 
L 287.515138 353.183278 
L 515.99232 353.216519 
L 557.001044 353.2239 
L 562.859434 353.102449 
L 568.717823 353.2239 
L 709.319165 353.221967 
L 715.177555 352.951092 
L 721.035944 353.2239 
L 855.778897 353.221911 
L 861.637286 353.112392 
L 867.495675 353.2239 
L 949.513125 353.2239 
L 949.513125 353.2239 
" style="fill:none;stroke:#8085e9;stroke-linecap:square;"/>
   </g>
   <g id="line2d_32">
    <path clip-path="url(#p81e6983166)" d="M 76.613125 353.2239 
L 158.630575 353.2239 
L 164.488964 351.433327 
L 170.347353 353.2239 
L 187.922521 353.219218 
L 199.639299 353.2239 
L 205.497689 352.274282 
L 211.356078 352.981691 
L 217.214467 353.2239 
L 252.364803 353.18768 
L 258.223192 353.08912 
L 281.656749 353.170973 
L 328.523863 353.21101 
L 363.674199 353.198413 
L 369.532588 352.988266 
L 375.390977 353.221533 
L 439.833259 353.219354 
L 557.001044 353.220521 
L 562.859434 353.074326 
L 568.717823 353.221151 
L 709.319165 353.219404 
L 715.177555 352.934447 
L 721.035944 353.2239 
L 949.513125 353.2239 
L 949.513125 353.2239 
" style="fill:none;stroke:#f15c80;stroke-linecap:square;"/>
   </g>
   <g id="line2d_33">
    <path clip-path="url(#p81e6983166)" d="M 76.613125 353.2239 
L 158.630575 353.2239 
L 164.488964 351.399209 
L 170.347353 353.2239 
L 193.78091 353.2239 
L 199.639299 353.2239 
L 205.497689 352.26218 
L 211.356078 352.983762 
L 217.214467 353.2239 
L 252.364803 353.181884 
L 258.223192 353.075838 
L 275.79836 353.187136 
L 305.090306 353.187465 
L 363.674199 353.202383 
L 369.532588 352.986209 
L 375.390977 353.222459 
L 433.97487 353.221648 
L 557.001044 353.221147 
L 562.859434 353.076592 
L 568.717823 353.222571 
L 709.319165 353.21857 
L 715.177555 352.925988 
L 721.035944 353.22372 
L 949.513125 353.2239 
L 949.513125 353.2239 
" style="fill:none;stroke:#e4d354;stroke-linecap:square;"/>
   </g>
   <g id="line2d_34">
    <path clip-path="url(#p81e6983166)" d="M 76.613125 353.223693 
L 158.630575 353.2239 
L 164.488964 351.442522 
L 170.347353 353.2239 
L 193.78091 353.2239 
L 199.639299 353.2239 
L 205.497689 352.281634 
L 211.356078 353.005186 
L 217.214467 353.2239 
L 252.364803 353.182434 
L 258.223192 353.084737 
L 281.656749 353.16543 
L 322.665474 353.214024 
L 363.674199 353.205089 
L 369.532588 352.992091 
L 375.390977 353.22181 
L 469.125206 353.223272 
L 557.001044 353.220299 
L 562.859434 353.058247 
L 568.717823 353.222829 
L 709.319165 353.217756 
L 715.177555 352.91379 
L 721.035944 353.223677 
L 949.513125 353.2239 
L 949.513125 353.2239 
" style="fill:none;stroke:#2b908f;stroke-linecap:square;"/>
   </g>
   <g id="line2d_35">
    <path clip-path="url(#p81e6983166)" d="M 76.613125 353.2239 
L 158.630575 353.2239 
L 164.488964 351.796294 
L 170.347353 353.2239 
L 199.639299 353.2239 
L 205.497689 352.646771 
L 211.356078 353.179338 
L 223.072857 353.223357 
L 240.648024 353.211763 
L 310.948695 353.199583 
L 363.674199 353.219526 
L 369.532588 353.084563 
L 375.390977 353.223535 
L 709.319165 353.221362 
L 715.177555 352.933149 
L 721.035944 353.2239 
L 949.513125 353.2239 
L 949.513125 353.2239 
" style="fill:none;stroke:#f45b5b;stroke-linecap:square;"/>
   </g>
   <g id="line2d_36">
    <path clip-path="url(#p81e6983166)" d="M 76.613125 353.2239 
L 158.630575 353.2239 
L 164.488964 351.832478 
L 170.347353 353.2239 
L 199.639299 353.2239 
L 205.497689 352.666335 
L 211.356078 353.188458 
L 234.789635 353.222503 
L 310.948695 353.196804 
L 363.674199 353.219604 
L 369.532588 353.08187 
L 375.390977 353.22311 
L 709.319165 353.219925 
L 715.177555 352.937617 
L 721.035944 353.2239 
L 949.513125 353.2239 
L 949.513125 353.2239 
" style="fill:none;stroke:#91e8e1;stroke-linecap:square;"/>
   </g>
   <g id="line2d_37">
    <path clip-path="url(#p81e6983166)" d="M 76.613125 353.2239 
L 158.630575 353.2239 
L 164.488964 351.747657 
L 170.347353 353.2239 
L 199.639299 353.2239 
L 205.497689 352.59497 
L 211.356078 353.145792 
L 223.072857 353.2235 
L 246.506414 353.202956 
L 281.656749 353.169154 
L 322.665474 353.215454 
L 363.674199 353.216674 
L 369.532588 353.066265 
L 375.390977 353.222952 
L 580.434602 353.217975 
L 709.319165 353.220397 
L 715.177555 352.926187 
L 721.035944 353.2239 
L 949.513125 353.2239 
L 949.513125 353.2239 
" style="fill:none;stroke:#7cb5ec;stroke-linecap:square;"/>
   </g>
   <g id="line2d_38">
    <path clip-path="url(#p81e6983166)" d="M 76.613125 353.2239 
L 158.630575 353.2239 
L 164.488964 351.846717 
L 170.347353 353.2239 
L 199.639299 353.2239 
L 205.497689 352.570151 
L 211.356078 353.124345 
L 223.072857 353.2239 
L 240.648024 353.2239 
L 258.223192 353.121026 
L 264.081581 353.097796 
L 275.79836 353.21394 
L 310.948695 353.167342 
L 334.382253 353.200556 
L 363.674199 353.213854 
L 369.532588 353.019426 
L 375.390977 353.217189 
L 557.001044 353.213344 
L 562.859434 353.082931 
L 568.717823 353.2239 
L 709.319165 353.2239 
L 715.177555 352.923519 
L 721.035944 353.2239 
L 855.778897 353.216363 
L 861.637286 353.012601 
L 867.495675 353.212567 
L 926.079568 353.2239 
L 949.513125 353.2239 
L 949.513125 353.2239 
" style="fill:none;stroke:#434348;stroke-linecap:square;"/>
   </g>
   <g id="line2d_39">
    <path clip-path="url(#p81e6983166)" d="M 76.613125 353.2239 
L 158.630575 353.2239 
L 164.488964 351.81265 
L 170.347353 353.2239 
L 199.639299 353.2239 
L 205.497689 352.653988 
L 211.356078 353.173955 
L 223.072857 353.223008 
L 246.506414 353.201306 
L 281.656749 353.166197 
L 322.665474 353.213764 
L 363.674199 353.217311 
L 369.532588 353.079708 
L 375.390977 353.2236 
L 709.319165 353.220329 
L 715.177555 352.933027 
L 721.035944 353.2239 
L 949.513125 353.2239 
L 949.513125 353.2239 
" style="fill:none;stroke:#90ed7d;stroke-linecap:square;"/>
   </g>
   <g id="line2d_40">
    <path clip-path="url(#p81e6983166)" d="M 76.613125 353.2239 
L 158.630575 353.2239 
L 164.488964 351.64414 
L 170.347353 353.2239 
L 199.639299 353.2239 
L 205.497689 352.527003 
L 211.356078 353.113662 
L 223.072857 353.2239 
L 240.648024 353.209521 
L 363.674199 353.21514 
L 369.532588 353.057154 
L 375.390977 353.2239 
L 598.009769 353.216188 
L 697.602387 353.2239 
L 709.319165 353.218111 
L 715.177555 352.959354 
L 721.035944 353.2239 
L 949.513125 353.2239 
L 949.513125 353.2239 
" style="fill:none;stroke:#f7a35c;stroke-linecap:square;"/>
   </g>
   <g id="line2d_41">
    <path clip-path="url(#p81e6983166)" d="M 76.613125 353.223831 
L 158.630575 353.2239 
L 164.488964 351.234985 
L 170.347353 353.2239 
L 187.922521 353.220599 
L 199.639299 353.2239 
L 205.497689 352.097619 
L 211.356078 352.897136 
L 217.214467 353.223831 
L 252.364803 353.184567 
L 258.223192 353.080734 
L 275.79836 353.189318 
L 299.231917 353.196229 
L 363.674199 353.19176 
L 369.532588 352.95517 
L 375.390977 353.222057 
L 428.116481 353.216866 
L 557.001044 353.219518 
L 562.859434 353.047862 
L 568.717823 353.221921 
L 709.319165 353.219239 
L 715.177555 352.908092 
L 721.035944 353.2239 
L 949.513125 353.2239 
L 949.513125 353.2239 
" style="fill:none;stroke:#8085e9;stroke-linecap:square;"/>
   </g>
   <g id="line2d_42">
    <path clip-path="url(#p81e6983166)" d="M 76.613125 353.2239 
L 158.630575 353.2239 
L 164.488964 351.726334 
L 170.347353 353.2239 
L 199.639299 353.2239 
L 205.497689 352.555016 
L 211.356078 353.131385 
L 223.072857 353.223405 
L 246.506414 353.201637 
L 281.656749 353.169932 
L 322.665474 353.215452 
L 363.674199 353.213388 
L 369.532588 353.05296 
L 375.390977 353.2239 
L 598.009769 353.213889 
L 703.460776 353.223315 
L 709.319165 353.220968 
L 715.177555 352.932902 
L 721.035944 353.223311 
L 949.513125 353.2239 
L 949.513125 353.2239 
" style="fill:none;stroke:#f15c80;stroke-linecap:square;"/>
   </g>
   <g id="line2d_43">
    <path clip-path="url(#p81e6983166)" d="M 76.613125 353.2239 
L 158.630575 353.2239 
L 164.488964 351.799931 
L 170.347353 353.2239 
L 199.639299 353.2239 
L 205.497689 352.651965 
L 211.356078 353.176309 
L 223.072857 353.223586 
L 246.506414 353.203354 
L 281.656749 353.170831 
L 328.523863 353.217697 
L 363.674199 353.219258 
L 369.532588 353.073128 
L 375.390977 353.223372 
L 662.452051 353.195319 
L 685.885608 353.222769 
L 709.319165 353.220036 
L 715.177555 352.932309 
L 721.035944 353.2239 
L 949.513125 353.2239 
L 949.513125 353.2239 
" style="fill:none;stroke:#e4d354;stroke-linecap:square;"/>
   </g>
   <g id="line2d_44">
    <path clip-path="url(#p81e6983166)" d="M 76.613125 353.2239 
L 158.630575 353.2239 
L 164.488964 351.812847 
L 170.347353 353.2239 
L 199.639299 353.2239 
L 205.497689 352.645905 
L 211.356078 353.164317 
L 223.072857 353.223742 
L 246.506414 353.205433 
L 281.656749 353.165146 
L 310.948695 353.19629 
L 363.674199 353.217852 
L 369.532588 353.069934 
L 375.390977 353.222704 
L 685.885608 353.222078 
L 709.319165 353.221107 
L 715.177555 352.926398 
L 721.035944 353.2239 
L 949.513125 353.2239 
L 949.513125 353.2239 
" style="fill:none;stroke:#2b908f;stroke-linecap:square;"/>
   </g>
   <g id="line2d_45">
    <path clip-path="url(#p81e6983166)" d="M 76.613125 353.2239 
L 158.630575 353.2239 
L 164.488964 351.894819 
L 170.347353 353.2239 
L 199.639299 353.2239 
L 205.497689 352.707372 
L 211.356078 353.19644 
L 234.789635 353.223351 
L 293.373528 353.179933 
L 322.665474 353.217022 
L 363.674199 353.220314 
L 369.532588 353.08259 
L 375.390977 353.223624 
L 709.319165 353.221023 
L 715.177555 352.945782 
L 721.035944 353.2239 
L 949.513125 353.2239 
L 949.513125 353.2239 
" style="fill:none;stroke:#f45b5b;stroke-linecap:square;"/>
   </g>
   <g id="line2d_46">
    <path clip-path="url(#p81e6983166)" d="M 76.613125 353.223697 
L 158.630575 353.2239 
L 164.488964 351.693088 
L 170.347353 353.2239 
L 199.639299 353.2239 
L 205.497689 352.533172 
L 211.356078 353.126132 
L 223.072857 353.223494 
L 240.648024 353.211392 
L 310.948695 353.199131 
L 363.674199 353.213013 
L 369.532588 353.047343 
L 375.390977 353.22287 
L 545.284266 353.221008 
L 557.001044 353.222481 
L 562.859434 353.09179 
L 568.717823 353.223148 
L 709.319165 353.219153 
L 715.177555 352.922921 
L 721.035944 353.2239 
L 949.513125 353.2239 
L 949.513125 353.2239 
" style="fill:none;stroke:#91e8e1;stroke-linecap:square;"/>
   </g>
   <g id="line2d_47">
    <path clip-path="url(#p81e6983166)" d="M 76.613125 353.2239 
L 158.630575 353.2239 
L 164.488964 351.827874 
L 170.347353 353.2239 
L 199.639299 353.2239 
L 205.497689 352.67194 
L 211.356078 353.189345 
L 234.789635 353.222287 
L 305.090306 353.192304 
L 363.674199 353.219507 
L 369.532588 353.06915 
L 375.390977 353.223437 
L 615.584937 353.165572 
L 627.301716 353.223181 
L 709.319165 353.219009 
L 715.177555 352.915142 
L 721.035944 353.2239 
L 949.513125 353.2239 
L 949.513125 353.2239 
" style="fill:none;stroke:#7cb5ec;stroke-linecap:square;"/>
   </g>
   <g id="line2d_48">
    <path clip-path="url(#p81e6983166)" d="M 76.613125 353.2239 
L 158.630575 353.2239 
L 164.488964 351.680013 
L 170.347353 353.2239 
L 199.639299 353.2239 
L 205.497689 352.546724 
L 211.356078 353.140485 
L 223.072857 353.223196 
L 246.506414 353.201374 
L 281.656749 353.175105 
L 328.523863 353.216463 
L 363.674199 353.216594 
L 369.532588 353.060473 
L 375.390977 353.223543 
L 615.584937 353.153823 
L 627.301716 353.2239 
L 709.319165 353.219402 
L 715.177555 352.932395 
L 721.035944 353.223694 
L 949.513125 353.2239 
L 949.513125 353.2239 
" style="fill:none;stroke:#434348;stroke-linecap:square;"/>
   </g>
   <g id="line2d_49">
    <path clip-path="url(#p81e6983166)" d="M 76.613125 353.2239 
L 158.630575 353.2239 
L 164.488964 351.641602 
L 170.347353 353.2239 
L 199.639299 353.2239 
L 205.497689 352.492014 
L 211.356078 353.11055 
L 217.214467 353.2239 
L 252.364803 353.179596 
L 258.223192 353.082357 
L 281.656749 353.167996 
L 316.807085 353.203613 
L 363.674199 353.216273 
L 369.532588 353.069916 
L 375.390977 353.222133 
L 644.876883 353.2239 
L 709.319165 353.216978 
L 715.177555 352.940498 
L 721.035944 353.2239 
L 949.513125 353.2239 
L 949.513125 353.2239 
" style="fill:none;stroke:#90ed7d;stroke-linecap:square;"/>
   </g>
   <g id="line2d_50">
    <path clip-path="url(#p81e6983166)" d="M 76.613125 353.223657 
L 158.630575 353.2239 
L 164.488964 351.67876 
L 170.347353 353.2239 
L 199.639299 353.2239 
L 205.497689 352.510723 
L 211.356078 353.121393 
L 223.072857 353.223657 
L 240.648024 353.212726 
L 299.231917 353.196538 
L 357.81581 353.207493 
L 363.674199 353.20995 
L 369.532588 353.040908 
L 375.390977 353.222649 
L 492.558763 353.222584 
L 557.001044 353.222541 
L 562.859434 353.07755 
L 568.717823 353.22308 
L 709.319165 353.220056 
L 715.177555 352.912038 
L 721.035944 353.2239 
L 949.513125 353.2239 
L 949.513125 353.2239 
" style="fill:none;stroke:#f7a35c;stroke-linecap:square;"/>
   </g>
   <g id="line2d_51">
    <path clip-path="url(#p81e6983166)" d="M 76.613125 353.2239 
L 158.630575 353.2239 
L 164.488964 351.729838 
L 170.347353 353.2239 
L 199.639299 353.2239 
L 205.497689 352.579468 
L 211.356078 353.133593 
L 223.072857 353.222185 
L 246.506414 353.203324 
L 299.231917 353.196915 
L 375.390977 353.222147 
L 598.009769 353.217591 
L 709.319165 353.220921 
L 715.177555 352.938458 
L 721.035944 353.2239 
L 949.513125 353.2239 
L 949.513125 353.2239 
" style="fill:none;stroke:#8085e9;stroke-linecap:square;"/>
   </g>
   <g id="line2d_52">
    <path clip-path="url(#p81e6983166)" d="M 76.613125 353.2239 
L 158.630575 353.2239 
L 164.488964 351.347208 
L 170.347353 353.2239 
L 187.922521 353.219737 
L 199.639299 353.2239 
L 205.497689 352.230911 
L 211.356078 352.947028 
L 217.214467 353.2239 
L 252.364803 353.179663 
L 258.223192 353.084944 
L 275.79836 353.186324 
L 299.231917 353.199127 
L 363.674199 353.189874 
L 369.532588 352.95882 
L 375.390977 353.223334 
L 422.258091 353.210673 
L 492.558763 353.222569 
L 557.001044 353.222433 
L 562.859434 353.04705 
L 568.717823 353.222407 
L 709.319165 353.217413 
L 715.177555 352.907807 
L 721.035944 353.2239 
L 949.513125 353.2239 
L 949.513125 353.2239 
" style="fill:none;stroke:#f15c80;stroke-linecap:square;"/>
   </g>
   <g id="line2d_53">
    <path clip-path="url(#p81e6983166)" d="M 76.613125 353.2239 
L 158.630575 353.2239 
L 164.488964 351.473206 
L 170.347353 353.2239 
L 187.922521 353.217044 
L 199.639299 353.2239 
L 205.497689 352.302842 
L 211.356078 352.979351 
L 217.214467 353.2239 
L 252.364803 353.175905 
L 258.223192 353.08677 
L 299.231917 353.193788 
L 363.674199 353.192155 
L 369.532588 353.012617 
L 375.390977 353.2239 
L 463.266816 353.218407 
L 557.001044 353.220794 
L 562.859434 353.083047 
L 568.717823 353.220746 
L 709.319165 353.220123 
L 715.177555 352.923368 
L 721.035944 353.2239 
L 949.513125 353.2239 
L 949.513125 353.2239 
" style="fill:none;stroke:#e4d354;stroke-linecap:square;"/>
   </g>
   <g id="line2d_54">
    <path clip-path="url(#p81e6983166)" d="M 76.613125 353.2239 
L 158.630575 353.2239 
L 164.488964 351.531751 
L 170.347353 353.2239 
L 199.639299 353.2239 
L 205.497689 352.416636 
L 211.356078 353.0803 
L 217.214467 353.2239 
L 252.364803 353.177327 
L 264.081581 353.122992 
L 363.674199 353.215834 
L 369.532588 353.08219 
L 375.390977 353.219835 
L 557.001044 353.2239 
L 562.859434 353.088422 
L 568.717823 353.2239 
L 697.602387 353.2239 
L 709.319165 353.2239 
L 715.177555 352.910679 
L 721.035944 353.2239 
L 949.513125 353.2239 
L 949.513125 353.2239 
" style="fill:none;stroke:#2b908f;stroke-linecap:square;"/>
   </g>
   <g id="line2d_55">
    <path clip-path="url(#p81e6983166)" d="M 76.613125 353.2239 
L 158.630575 353.2239 
L 164.488964 351.336506 
L 170.347353 353.2239 
L 187.922521 353.2239 
L 199.639299 353.2239 
L 205.497689 352.177703 
L 211.356078 352.919938 
L 217.214467 353.2239 
L 252.364803 353.170883 
L 258.223192 353.068384 
L 275.79836 353.184854 
L 293.373528 353.116366 
L 299.231917 353.198708 
L 316.807085 353.191063 
L 346.099031 353.208875 
L 363.674199 353.197074 
L 369.532588 353.038647 
L 375.390977 353.2239 
L 545.284266 353.214053 
L 557.001044 353.2239 
L 562.859434 353.082532 
L 568.717823 353.2239 
L 691.743997 353.2239 
L 709.319165 353.217725 
L 715.177555 352.981189 
L 721.035944 353.2239 
L 949.513125 353.2239 
L 949.513125 353.2239 
" style="fill:none;stroke:#f45b5b;stroke-linecap:square;"/>
   </g>
   <g id="line2d_56">
    <path clip-path="url(#p81e6983166)" d="M 76.613125 353.2239 
L 158.630575 353.2239 
L 164.488964 351.627821 
L 170.347353 353.2239 
L 199.639299 353.2239 
L 205.497689 352.453871 
L 211.356078 353.074527 
L 217.214467 353.223554 
L 252.364803 353.182062 
L 258.223192 353.086629 
L 287.515138 353.187073 
L 316.807085 353.197953 
L 363.674199 353.211735 
L 369.532588 353.04126 
L 375.390977 353.22282 
L 486.700373 353.2239 
L 557.001044 353.223099 
L 562.859434 353.076816 
L 568.717823 353.2239 
L 709.319165 353.220778 
L 715.177555 352.916117 
L 721.035944 353.2239 
L 855.778897 353.221384 
L 861.637286 353.112098 
L 873.354065 353.220832 
L 949.513125 353.2239 
L 949.513125 353.2239 
" style="fill:none;stroke:#91e8e1;stroke-linecap:square;"/>
   </g>
   <g id="line2d_57">
    <path clip-path="url(#p81e6983166)" d="M 76.613125 353.2239 
L 158.630575 353.2239 
L 164.488964 351.677851 
L 170.347353 353.2239 
L 199.639299 353.2239 
L 205.497689 352.483651 
L 211.356078 353.101912 
L 217.214467 353.2239 
L 252.364803 353.180927 
L 258.223192 353.082702 
L 287.515138 353.186374 
L 357.81581 353.205279 
L 363.674199 353.211119 
L 369.532588 353.038853 
L 375.390977 353.222881 
L 463.266816 353.220708 
L 557.001044 353.221426 
L 562.859434 353.090497 
L 568.717823 353.223447 
L 709.319165 353.219645 
L 715.177555 352.916189 
L 721.035944 353.223647 
L 949.513125 353.2239 
L 949.513125 353.2239 
" style="fill:none;stroke:#7cb5ec;stroke-linecap:square;"/>
   </g>
   <g id="line2d_58">
    <path clip-path="url(#p81e6983166)" d="M 76.613125 353.2239 
L 158.630575 353.2239 
L 164.488964 351.337949 
L 170.347353 353.2239 
L 187.922521 353.219873 
L 199.639299 353.2239 
L 205.497689 352.246695 
L 211.356078 352.964163 
L 217.214467 353.2239 
L 252.364803 353.17759 
L 258.223192 353.071548 
L 275.79836 353.192271 
L 293.373528 353.177842 
L 328.523863 353.212832 
L 363.674199 353.195362 
L 369.532588 352.994978 
L 375.390977 353.221012 
L 433.97487 353.220814 
L 557.001044 353.221186 
L 562.859434 353.067957 
L 568.717823 353.222981 
L 709.319165 353.222783 
L 715.177555 352.920921 
L 721.035944 353.2239 
L 949.513125 353.2239 
L 949.513125 353.2239 
" style="fill:none;stroke:#434348;stroke-linecap:square;"/>
   </g>
   <g id="line2d_59">
    <path clip-path="url(#p81e6983166)" d="M 76.613125 353.2239 
L 158.630575 353.2239 
L 164.488964 351.451699 
L 170.347353 353.2239 
L 199.639299 353.2239 
L 205.497689 352.304839 
L 211.356078 353.012479 
L 217.214467 353.2239 
L 252.364803 353.194052 
L 258.223192 353.090829 
L 287.515138 353.188845 
L 322.665474 353.212427 
L 363.674199 353.198902 
L 369.532588 353.005698 
L 375.390977 353.2239 
L 422.258091 353.207199 
L 469.125206 353.2239 
L 557.001044 353.222282 
L 562.859434 353.088647 
L 568.717823 353.222259 
L 709.319165 353.218075 
L 715.177555 352.932512 
L 721.035944 353.2239 
L 949.513125 353.2239 
L 949.513125 353.2239 
" style="fill:none;stroke:#90ed7d;stroke-linecap:square;"/>
   </g>
   <g id="line2d_60">
    <path clip-path="url(#p81e6983166)" d="M 76.613125 353.2239 
L 158.630575 353.2239 
L 164.488964 351.700681 
L 170.347353 353.2239 
L 199.639299 353.2239 
L 205.497689 352.529 
L 211.356078 353.115307 
L 223.072857 353.223413 
L 246.506414 353.201013 
L 281.656749 353.174673 
L 328.523863 353.217529 
L 363.674199 353.214517 
L 369.532588 353.054743 
L 375.390977 353.222909 
L 562.859434 353.097713 
L 568.717823 353.223361 
L 709.319165 353.22039 
L 715.177555 352.942065 
L 721.035944 353.2239 
L 949.513125 353.2239 
L 949.513125 353.2239 
" style="fill:none;stroke:#f7a35c;stroke-linecap:square;"/>
   </g>
   <g id="line2d_61">
    <path clip-path="url(#p81e6983166)" d="M 76.613125 353.2239 
L 158.630575 353.2239 
L 164.488964 351.744967 
L 170.347353 353.2239 
L 199.639299 353.2239 
L 205.497689 352.592327 
L 211.356078 353.155756 
L 223.072857 353.2239 
L 246.506414 353.201186 
L 281.656749 353.166499 
L 310.948695 353.195253 
L 363.674199 353.21688 
L 369.532588 353.061946 
L 375.390977 353.223337 
L 492.558763 353.222444 
L 557.001044 353.221222 
L 562.859434 353.096855 
L 568.717823 353.222406 
L 709.319165 353.219795 
L 715.177555 352.932705 
L 721.035944 353.2239 
L 949.513125 353.2239 
L 949.513125 353.2239 
" style="fill:none;stroke:#8085e9;stroke-linecap:square;"/>
   </g>
   <g id="line2d_62">
    <path clip-path="url(#p81e6983166)" d="M 76.613125 353.2239 
L 158.630575 353.2239 
L 164.488964 351.787906 
L 170.347353 353.2239 
L 199.639299 353.2239 
L 205.497689 352.633586 
L 211.356078 353.159831 
L 223.072857 353.223535 
L 240.648024 353.213861 
L 299.231917 353.197193 
L 392.966145 353.213145 
L 480.841984 353.222954 
L 557.001044 353.222741 
L 562.859434 353.103115 
L 568.717823 353.2239 
L 709.319165 353.219424 
L 715.177555 352.928412 
L 721.035944 353.2239 
L 949.513125 353.2239 
L 949.513125 353.2239 
" style="fill:none;stroke:#f15c80;stroke-linecap:square;"/>
   </g>
   <g id="line2d_63">
    <path clip-path="url(#p81e6983166)" d="M 76.613125 353.2239 
L 158.630575 353.2239 
L 164.488964 351.661456 
L 170.347353 353.2239 
L 199.639299 353.2239 
L 205.497689 352.504485 
L 211.356078 353.11009 
L 217.214467 353.223603 
L 252.364803 353.182595 
L 258.223192 353.088991 
L 287.515138 353.189611 
L 357.81581 353.206262 
L 363.674199 353.214453 
L 369.532588 353.051662 
L 375.390977 353.222064 
L 580.434602 353.213494 
L 650.735273 353.223203 
L 709.319165 353.220659 
L 715.177555 352.930458 
L 721.035944 353.223537 
L 949.513125 353.2239 
L 949.513125 353.2239 
" style="fill:none;stroke:#e4d354;stroke-linecap:square;"/>
   </g>
   <g id="line2d_64">
    <path clip-path="url(#p81e6983166)" d="M 76.613125 353.2239 
L 158.630575 353.2239 
L 164.488964 351.680324 
L 170.347353 353.2239 
L 199.639299 353.2239 
L 205.497689 352.564733 
L 211.356078 353.144023 
L 223.072857 353.2239 
L 240.648024 353.213825 
L 305.090306 353.189226 
L 363.674199 353.216601 
L 369.532588 353.060929 
L 375.390977 353.2239 
L 521.850709 353.221612 
L 557.001044 353.221585 
L 562.859434 353.093229 
L 568.717823 353.2239 
L 709.319165 353.218192 
L 715.177555 352.930527 
L 721.035944 353.2239 
L 949.513125 353.2239 
L 949.513125 353.2239 
" style="fill:none;stroke:#2b908f;stroke-linecap:square;"/>
   </g>
   <g id="line2d_65">
    <path clip-path="url(#p81e6983166)" d="M 76.613125 353.2239 
L 158.630575 353.2239 
L 164.488964 351.758977 
L 170.347353 353.2239 
L 199.639299 353.2239 
L 205.497689 352.541744 
L 211.356078 353.142568 
L 223.072857 353.22343 
L 264.081581 353.135046 
L 357.81581 353.212525 
L 363.674199 353.212514 
L 369.532588 353.043907 
L 375.390977 353.222474 
L 644.876883 353.2239 
L 709.319165 353.221106 
L 715.177555 352.921966 
L 721.035944 353.223336 
L 949.513125 353.2239 
L 949.513125 353.2239 
" style="fill:none;stroke:#f45b5b;stroke-linecap:square;"/>
   </g>
   <g id="line2d_66">
    <path clip-path="url(#p81e6983166)" d="M 76.613125 353.2239 
L 158.630575 353.2239 
L 164.488964 351.654982 
L 170.347353 353.2239 
L 199.639299 353.2239 
L 205.497689 352.513426 
L 211.356078 353.108464 
L 217.214467 353.2239 
L 252.364803 353.18372 
L 258.223192 353.086142 
L 275.79836 353.18561 
L 299.231917 353.198318 
L 369.532588 353.036823 
L 375.390977 353.221948 
L 709.319165 353.219894 
L 715.177555 352.91872 
L 721.035944 353.2239 
L 949.513125 353.2239 
L 949.513125 353.2239 
" style="fill:none;stroke:#91e8e1;stroke-linecap:square;"/>
   </g>
   <g id="line2d_67">
    <path clip-path="url(#p81e6983166)" d="M 76.613125 353.2239 
L 158.630575 353.2239 
L 164.488964 351.657965 
L 170.347353 353.2239 
L 199.639299 353.2239 
L 205.497689 352.504936 
L 211.356078 353.122841 
L 223.072857 353.2239 
L 246.506414 353.202726 
L 316.807085 353.203524 
L 363.674199 353.215042 
L 369.532588 353.071022 
L 375.390977 353.220934 
L 557.001044 353.221733 
L 562.859434 353.098841 
L 568.717823 353.2239 
L 709.319165 353.217939 
L 715.177555 352.949812 
L 721.035944 353.2239 
L 949.513125 353.2239 
L 949.513125 353.2239 
" style="fill:none;stroke:#7cb5ec;stroke-linecap:square;"/>
   </g>
   <g id="line2d_68">
    <path clip-path="url(#p81e6983166)" d="M 76.613125 353.2239 
L 158.630575 353.2239 
L 164.488964 351.650149 
L 170.347353 353.2239 
L 199.639299 353.2239 
L 205.497689 352.502227 
L 211.356078 353.11417 
L 223.072857 353.223264 
L 258.223192 353.078548 
L 287.515138 353.194268 
L 316.807085 353.203424 
L 363.674199 353.21484 
L 369.532588 353.041068 
L 375.390977 353.222601 
L 515.99232 353.206276 
L 557.001044 353.222486 
L 562.859434 353.0809 
L 568.717823 353.22212 
L 709.319165 353.21999 
L 715.177555 352.906242 
L 721.035944 353.2239 
L 949.513125 353.2239 
L 949.513125 353.2239 
" style="fill:none;stroke:#434348;stroke-linecap:square;"/>
   </g>
   <g id="line2d_69">
    <path clip-path="url(#p81e6983166)" d="M 76.613125 353.2239 
L 158.630575 353.2239 
L 164.488964 351.896199 
L 170.347353 353.2239 
L 199.639299 353.2239 
L 205.497689 352.637858 
L 211.356078 353.179754 
L 223.072857 353.2239 
L 234.789635 353.218382 
L 252.364803 353.205138 
L 264.081581 353.112431 
L 275.79836 353.19299 
L 346.099031 353.205087 
L 363.674199 353.211715 
L 369.532588 353.028873 
L 375.390977 353.2239 
L 709.319165 353.2239 
L 715.177555 352.942192 
L 721.035944 353.2239 
L 855.778897 353.218884 
L 861.637286 353.017599 
L 867.495675 353.208755 
L 949.513125 353.2239 
L 949.513125 353.2239 
" style="fill:none;stroke:#90ed7d;stroke-linecap:square;"/>
   </g>
   <g id="line2d_70">
    <path clip-path="url(#p81e6983166)" d="M 76.613125 353.2239 
L 158.630575 353.2239 
L 164.488964 351.861337 
L 170.347353 353.2239 
L 199.639299 353.2239 
L 205.497689 352.691374 
L 211.356078 353.178898 
L 228.931246 353.206399 
L 252.364803 353.193899 
L 258.223192 353.078893 
L 275.79836 353.19389 
L 346.099031 353.213859 
L 363.674199 353.213842 
L 369.532588 353.070426 
L 375.390977 353.2239 
L 457.408427 353.2239 
L 557.001044 353.2239 
L 562.859434 353.103596 
L 568.717823 353.2239 
L 709.319165 353.2239 
L 715.177555 352.955936 
L 721.035944 353.2239 
L 949.513125 353.2239 
L 949.513125 353.2239 
" style="fill:none;stroke:#f7a35c;stroke-linecap:square;"/>
   </g>
   <g id="line2d_71">
    <path clip-path="url(#p81e6983166)" d="M 76.613125 353.2239 
L 158.630575 353.2239 
L 164.488964 351.711899 
L 170.347353 353.2239 
L 199.639299 353.2239 
L 205.497689 352.562279 
L 211.356078 353.144321 
L 223.072857 353.2239 
L 240.648024 353.21535 
L 281.656749 353.160055 
L 305.090306 353.198184 
L 363.674199 353.216585 
L 369.532588 353.059462 
L 375.390977 353.223233 
L 492.558763 353.221834 
L 557.001044 353.221078 
L 562.859434 353.094463 
L 568.717823 353.223191 
L 709.319165 353.220095 
L 715.177555 352.922311 
L 721.035944 353.2239 
L 949.513125 353.2239 
L 949.513125 353.2239 
" style="fill:none;stroke:#8085e9;stroke-linecap:square;"/>
   </g>
   <g id="line2d_72">
    <path clip-path="url(#p81e6983166)" d="M 76.613125 353.223655 
L 158.630575 353.2239 
L 164.488964 351.731409 
L 170.347353 353.2239 
L 199.639299 353.2239 
L 205.497689 352.57438 
L 211.356078 353.142005 
L 223.072857 353.2239 
L 240.648024 353.212131 
L 316.807085 353.201494 
L 363.674199 353.2172 
L 369.532588 353.047983 
L 375.390977 353.223651 
L 562.859434 353.082555 
L 568.717823 353.223367 
L 709.319165 353.219593 
L 715.177555 352.908433 
L 721.035944 353.2239 
L 949.513125 353.2239 
L 949.513125 353.2239 
" style="fill:none;stroke:#f15c80;stroke-linecap:square;"/>
   </g>
   <g id="line2d_73">
    <path clip-path="url(#p81e6983166)" d="M 76.613125 353.2239 
L 158.630575 353.2239 
L 164.488964 351.74442 
L 170.347353 353.2239 
L 199.639299 353.2239 
L 205.497689 352.618129 
L 211.356078 353.163064 
L 223.072857 353.223253 
L 240.648024 353.213545 
L 287.515138 353.188924 
L 322.665474 353.214813 
L 363.674199 353.21608 
L 369.532588 353.058914 
L 375.390977 353.223247 
L 498.417152 353.222562 
L 557.001044 353.221177 
L 562.859434 353.089531 
L 568.717823 353.221166 
L 709.319165 353.219543 
L 715.177555 352.922387 
L 721.035944 353.2239 
L 949.513125 353.2239 
L 949.513125 353.2239 
" style="fill:none;stroke:#e4d354;stroke-linecap:square;"/>
   </g>
   <g id="line2d_74">
    <path clip-path="url(#p81e6983166)" d="M 76.613125 353.2239 
L 158.630575 353.2239 
L 164.488964 351.725476 
L 170.347353 353.2239 
L 199.639299 353.2239 
L 205.497689 352.559646 
L 211.356078 353.136883 
L 223.072857 353.2239 
L 234.789635 353.222775 
L 328.523863 353.217112 
L 363.674199 353.213281 
L 369.532588 353.04659 
L 375.390977 353.22314 
L 545.284266 353.221889 
L 557.001044 353.222282 
L 562.859434 353.081548 
L 568.717823 353.223087 
L 709.319165 353.221268 
L 715.177555 352.908738 
L 721.035944 353.2239 
L 949.513125 353.2239 
L 949.513125 353.2239 
" style="fill:none;stroke:#2b908f;stroke-linecap:square;"/>
   </g>
   <g id="line2d_75">
    <path clip-path="url(#p81e6983166)" d="M 76.613125 353.2239 
L 158.630575 353.2239 
L 164.488964 351.579802 
L 170.347353 353.2239 
L 199.639299 353.2239 
L 205.497689 352.447963 
L 211.356078 353.084755 
L 217.214467 353.2239 
L 252.364803 353.193343 
L 258.223192 353.074933 
L 275.79836 353.197123 
L 293.373528 353.159747 
L 316.807085 353.206792 
L 363.674199 353.205901 
L 369.532588 353.026491 
L 375.390977 353.221637 
L 533.567487 353.220181 
L 557.001044 353.220755 
L 562.859434 353.088785 
L 568.717823 353.223266 
L 709.319165 353.220423 
L 715.177555 352.934832 
L 721.035944 353.2239 
L 949.513125 353.2239 
L 949.513125 353.2239 
" style="fill:none;stroke:#f45b5b;stroke-linecap:square;"/>
   </g>
   <g id="line2d_76">
    <path clip-path="url(#p81e6983166)" d="M 76.613125 353.2239 
L 158.630575 353.2239 
L 164.488964 351.592349 
L 170.347353 353.2239 
L 193.78091 353.2239 
L 199.639299 353.2239 
L 205.497689 352.382379 
L 211.356078 353.04367 
L 217.214467 353.2239 
L 252.364803 353.180536 
L 258.223192 353.097875 
L 287.515138 353.200715 
L 310.948695 353.194968 
L 363.674199 353.209668 
L 369.532588 353.028119 
L 375.390977 353.2239 
L 527.709098 353.220658 
L 557.001044 353.220577 
L 562.859434 353.096985 
L 568.717823 353.220544 
L 709.319165 353.220109 
L 715.177555 352.93049 
L 721.035944 353.2239 
L 949.513125 353.2239 
L 949.513125 353.2239 
" style="fill:none;stroke:#91e8e1;stroke-linecap:square;"/>
   </g>
   <g id="line2d_77">
    <path clip-path="url(#p81e6983166)" d="M 76.613125 353.2239 
L 158.630575 353.2239 
L 164.488964 351.66309 
L 170.347353 353.2239 
L 199.639299 353.2239 
L 205.497689 352.544981 
L 211.356078 353.113283 
L 223.072857 353.2239 
L 246.506414 353.191425 
L 369.532588 353.059283 
L 375.390977 353.2239 
L 463.266816 353.222823 
L 557.001044 353.222782 
L 562.859434 353.112933 
L 574.576212 353.222774 
L 685.885608 353.221531 
L 709.319165 353.220305 
L 715.177555 352.943885 
L 721.035944 353.2239 
L 914.362789 353.211685 
L 949.513125 353.2239 
L 949.513125 353.2239 
" style="fill:none;stroke:#7cb5ec;stroke-linecap:square;"/>
   </g>
   <g id="line2d_78">
    <path clip-path="url(#p81e6983166)" d="M 76.613125 353.2239 
L 158.630575 353.2239 
L 164.488964 351.817477 
L 170.347353 353.2239 
L 199.639299 353.2239 
L 205.497689 352.630277 
L 211.356078 353.177606 
L 223.072857 353.223081 
L 246.506414 353.203826 
L 281.656749 353.164479 
L 305.090306 353.186177 
L 363.674199 353.217322 
L 369.532588 353.053628 
L 375.390977 353.2239 
L 480.841984 353.223067 
L 557.001044 353.222207 
L 562.859434 353.095477 
L 568.717823 353.2239 
L 709.319165 353.220339 
L 715.177555 352.909708 
L 721.035944 353.2239 
L 949.513125 353.2239 
L 949.513125 353.2239 
" style="fill:none;stroke:#434348;stroke-linecap:square;"/>
   </g>
   <g id="line2d_79">
    <path clip-path="url(#p81e6983166)" d="M 76.613125 353.2239 
L 158.630575 353.2239 
L 164.488964 351.811066 
L 170.347353 353.2239 
L 199.639299 353.2239 
L 205.497689 352.680698 
L 211.356078 353.196676 
L 234.789635 353.221356 
L 305.090306 353.188502 
L 363.674199 353.218797 
L 369.532588 353.081487 
L 375.390977 353.222368 
L 557.001044 353.22183 
L 562.859434 353.106614 
L 568.717823 353.223382 
L 709.319165 353.221253 
L 715.177555 352.928414 
L 721.035944 353.2239 
L 949.513125 353.2239 
L 949.513125 353.2239 
" style="fill:none;stroke:#90ed7d;stroke-linecap:square;"/>
   </g>
   <g id="line2d_80">
    <path clip-path="url(#p81e6983166)" d="M 76.613125 353.2239 
L 158.630575 353.2239 
L 164.488964 351.846424 
L 170.347353 353.2239 
L 199.639299 353.2239 
L 205.497689 352.691249 
L 211.356078 353.202057 
L 240.648024 353.215936 
L 293.373528 353.178369 
L 334.382253 353.217292 
L 545.284266 353.22113 
L 557.001044 353.221358 
L 562.859434 353.105038 
L 568.717823 353.223437 
L 709.319165 353.220828 
L 715.177555 352.936509 
L 721.035944 353.2239 
L 949.513125 353.2239 
L 949.513125 353.2239 
" style="fill:none;stroke:#f7a35c;stroke-linecap:square;"/>
   </g>
   <g id="line2d_81">
    <path clip-path="url(#p81e6983166)" d="M 76.613125 353.2239 
L 158.630575 353.2239 
L 164.488964 351.939805 
L 170.347353 353.2239 
L 199.639299 353.2239 
L 205.497689 352.715805 
L 211.356078 353.205424 
L 246.506414 353.205424 
L 264.081581 353.103805 
L 299.231917 353.186874 
L 357.81581 353.177339 
L 363.674199 353.214581 
L 369.532588 353.056009 
L 375.390977 353.2239 
L 439.833259 353.2239 
L 557.001044 353.2239 
L 562.859434 353.107075 
L 568.717823 353.2239 
L 709.319165 353.213629 
L 715.177555 352.997354 
L 721.035944 353.2239 
L 949.513125 353.2239 
L 949.513125 353.2239 
" style="fill:none;stroke:#8085e9;stroke-linecap:square;"/>
   </g>
   <g id="line2d_82">
    <path clip-path="url(#p81e6983166)" d="M 76.613125 353.223766 
L 158.630575 353.2239 
L 164.488964 351.705215 
L 170.347353 353.2239 
L 199.639299 353.2239 
L 205.497689 352.574832 
L 211.356078 353.153195 
L 223.072857 353.22323 
L 246.506414 353.205019 
L 281.656749 353.163858 
L 316.807085 353.202262 
L 363.674199 353.215247 
L 369.532588 353.0573 
L 375.390977 353.223765 
L 580.434602 353.216591 
L 685.885608 353.222704 
L 709.319165 353.21982 
L 715.177555 352.919504 
L 721.035944 353.2239 
L 949.513125 353.2239 
L 949.513125 353.2239 
" style="fill:none;stroke:#f15c80;stroke-linecap:square;"/>
   </g>
   <g id="line2d_83">
    <path clip-path="url(#p81e6983166)" d="M 76.613125 353.2239 
L 158.630575 353.2239 
L 164.488964 351.795174 
L 170.347353 353.2239 
L 199.639299 353.2239 
L 205.497689 352.649173 
L 211.356078 353.173466 
L 223.072857 353.2239 
L 240.648024 353.21035 
L 316.807085 353.205032 
L 363.674199 353.215943 
L 369.532588 353.072998 
L 375.390977 353.2239 
L 562.859434 353.103302 
L 568.717823 353.2239 
L 709.319165 353.220154 
L 715.177555 352.91888 
L 721.035944 353.2239 
L 949.513125 353.2239 
L 949.513125 353.2239 
" style="fill:none;stroke:#e4d354;stroke-linecap:square;"/>
   </g>
   <g id="line2d_84">
    <path clip-path="url(#p81e6983166)" d="M 76.613125 353.2239 
L 158.630575 353.2239 
L 164.488964 351.804612 
L 170.347353 353.2239 
L 199.639299 353.2239 
L 205.497689 352.646459 
L 211.356078 353.185812 
L 228.931246 353.193634 
L 246.506414 353.205536 
L 293.373528 353.175714 
L 328.523863 353.217925 
L 363.674199 353.215335 
L 369.532588 353.079394 
L 375.390977 353.223557 
L 580.434602 353.216986 
L 691.743997 353.222809 
L 709.319165 353.220613 
L 715.177555 352.932597 
L 721.035944 353.2239 
L 949.513125 353.2239 
L 949.513125 353.2239 
" style="fill:none;stroke:#2b908f;stroke-linecap:square;"/>
   </g>
   <g id="line2d_85">
    <path clip-path="url(#p81e6983166)" d="M 76.613125 353.2239 
L 158.630575 353.2239 
L 164.488964 351.748859 
L 170.347353 353.2239 
L 199.639299 353.2239 
L 205.497689 352.601286 
L 211.356078 353.167827 
L 223.072857 353.2239 
L 234.789635 353.223609 
L 310.948695 353.194492 
L 363.674199 353.217756 
L 369.532588 353.076337 
L 375.390977 353.223021 
L 685.885608 353.221685 
L 709.319165 353.218473 
L 715.177555 352.918611 
L 721.035944 353.2239 
L 949.513125 353.2239 
L 949.513125 353.2239 
" style="fill:none;stroke:#f45b5b;stroke-linecap:square;"/>
   </g>
   <g id="line2d_86">
    <path clip-path="url(#p81e6983166)" d="M 76.613125 353.2239 
L 158.630575 353.2239 
L 164.488964 351.702519 
L 170.347353 353.2239 
L 199.639299 353.2239 
L 205.497689 352.566686 
L 211.356078 353.143315 
L 223.072857 353.222959 
L 246.506414 353.199129 
L 275.79836 353.177466 
L 316.807085 353.204364 
L 363.674199 353.215948 
L 369.532588 353.046466 
L 375.390977 353.223262 
L 515.99232 353.202824 
L 551.142655 353.222882 
L 557.001044 353.2222 
L 562.859434 353.086532 
L 568.717823 353.223217 
L 709.319165 353.218435 
L 715.177555 352.926852 
L 721.035944 353.2239 
L 949.513125 353.2239 
L 949.513125 353.2239 
" style="fill:none;stroke:#91e8e1;stroke-linecap:square;"/>
   </g>
   <g id="line2d_87">
    <path clip-path="url(#p81e6983166)" d="M 76.613125 353.2239 
L 158.630575 353.2239 
L 164.488964 351.737686 
L 170.347353 353.2239 
L 199.639299 353.2239 
L 205.497689 352.584975 
L 211.356078 353.139915 
L 223.072857 353.221774 
L 264.081581 353.123968 
L 299.231917 353.199377 
L 363.674199 353.213109 
L 369.532588 353.066127 
L 375.390977 353.222818 
L 709.319165 353.2239 
L 715.177555 352.946262 
L 721.035944 353.2239 
L 949.513125 353.2239 
L 949.513125 353.2239 
" style="fill:none;stroke:#7cb5ec;stroke-linecap:square;"/>
   </g>
   <g id="line2d_88">
    <path clip-path="url(#p81e6983166)" d="M 76.613125 353.2239 
L 158.630575 353.2239 
L 164.488964 351.600877 
L 170.347353 353.2239 
L 193.78091 353.2239 
L 199.639299 353.2239 
L 205.497689 352.426169 
L 211.356078 353.051605 
L 217.214467 353.2239 
L 363.674199 353.213193 
L 369.532588 353.035882 
L 375.390977 353.222103 
L 709.319165 353.221567 
L 715.177555 352.909708 
L 721.035944 353.2239 
L 855.778897 353.218555 
L 861.637286 353.094867 
L 867.495675 353.218492 
L 949.513125 353.2239 
L 949.513125 353.2239 
" style="fill:none;stroke:#434348;stroke-linecap:square;"/>
   </g>
   <g id="line2d_89">
    <path clip-path="url(#p81e6983166)" d="M 76.613125 353.2239 
L 158.630575 353.2239 
L 164.488964 351.754831 
L 170.347353 353.2239 
L 199.639299 353.2239 
L 205.497689 352.640551 
L 211.356078 353.172305 
L 223.072857 353.2233 
L 240.648024 353.215301 
L 293.373528 353.177018 
L 334.382253 353.216054 
L 363.674199 353.21663 
L 369.532588 353.062824 
L 375.390977 353.222686 
L 709.319165 353.219566 
L 715.177555 352.91376 
L 721.035944 353.2239 
L 949.513125 353.2239 
L 949.513125 353.2239 
" style="fill:none;stroke:#90ed7d;stroke-linecap:square;"/>
   </g>
   <g id="line2d_90">
    <path clip-path="url(#p81e6983166)" d="M 76.613125 353.2239 
L 158.630575 353.2239 
L 164.488964 351.648979 
L 170.347353 353.2239 
L 193.78091 353.2239 
L 199.639299 353.2239 
L 205.497689 352.467174 
L 211.356078 353.084851 
L 217.214467 353.222436 
L 252.364803 353.190235 
L 258.223192 353.077532 
L 275.79836 353.181376 
L 305.090306 353.184007 
L 363.674199 353.208753 
L 369.532588 353.03705 
L 375.390977 353.222376 
L 515.99232 353.200847 
L 545.284266 353.222225 
L 557.001044 353.222213 
L 562.859434 353.071571 
L 568.717823 353.222201 
L 709.319165 353.214628 
L 715.177555 352.883234 
L 721.035944 353.2239 
L 949.513125 353.2239 
L 949.513125 353.2239 
" style="fill:none;stroke:#f7a35c;stroke-linecap:square;"/>
   </g>
   <g id="line2d_91">
    <path clip-path="url(#p81e6983166)" d="M 76.613125 353.2239 
L 158.630575 353.2239 
L 164.488964 351.755021 
L 170.347353 353.2239 
L 199.639299 353.2239 
L 205.497689 352.554832 
L 211.356078 353.145581 
L 223.072857 353.22358 
L 264.081581 353.135352 
L 363.674199 353.216162 
L 369.532588 353.034797 
L 375.390977 353.2239 
L 562.859434 353.071483 
L 568.717823 353.2239 
L 709.319165 353.220898 
L 715.177555 352.900566 
L 721.035944 353.223522 
L 855.778897 353.22178 
L 861.637286 353.113056 
L 873.354065 353.220882 
L 949.513125 353.2239 
L 949.513125 353.2239 
" style="fill:none;stroke:#8085e9;stroke-linecap:square;"/>
   </g>
   <g id="line2d_92">
    <path clip-path="url(#p81e6983166)" d="M 76.613125 353.2239 
L 158.630575 353.2239 
L 164.488964 351.63827 
L 170.347353 353.2239 
L 199.639299 353.2239 
L 205.497689 352.497839 
L 211.356078 353.11019 
L 217.214467 353.2239 
L 252.364803 353.177152 
L 258.223192 353.080288 
L 275.79836 353.186794 
L 299.231917 353.197231 
L 363.674199 353.211387 
L 369.532588 353.037521 
L 375.390977 353.223033 
L 521.850709 353.222512 
L 557.001044 353.221545 
L 562.859434 353.088785 
L 568.717823 353.222478 
L 709.319165 353.218255 
L 715.177555 352.927264 
L 721.035944 353.2239 
L 949.513125 353.2239 
L 949.513125 353.2239 
" style="fill:none;stroke:#f15c80;stroke-linecap:square;"/>
   </g>
   <g id="line2d_93">
    <path clip-path="url(#p81e6983166)" d="M 76.613125 353.2239 
L 158.630575 353.2239 
L 164.488964 351.700852 
L 170.347353 353.2239 
L 199.639299 353.2239 
L 205.497689 352.578692 
L 211.356078 353.145529 
L 223.072857 353.222656 
L 240.648024 353.210631 
L 357.81581 353.204684 
L 363.674199 353.214284 
L 369.532588 353.061118 
L 375.390977 353.223062 
L 557.001044 353.220811 
L 562.859434 353.095173 
L 568.717823 353.223457 
L 709.319165 353.216731 
L 715.177555 352.917353 
L 721.035944 353.2239 
L 949.513125 353.2239 
L 949.513125 353.2239 
" style="fill:none;stroke:#e4d354;stroke-linecap:square;"/>
   </g>
   <g id="line2d_94">
    <path clip-path="url(#p81e6983166)" d="M 76.613125 353.2239 
L 158.630575 353.2239 
L 164.488964 351.835353 
L 170.347353 353.2239 
L 199.639299 353.2239 
L 205.497689 352.664072 
L 211.356078 353.185355 
L 228.931246 353.19106 
L 246.506414 353.204011 
L 281.656749 353.164201 
L 310.948695 353.19826 
L 363.674199 353.219094 
L 369.532588 353.070016 
L 375.390977 353.223124 
L 709.319165 353.220769 
L 715.177555 352.914942 
L 721.035944 353.2239 
L 949.513125 353.2239 
L 949.513125 353.2239 
" style="fill:none;stroke:#2b908f;stroke-linecap:square;"/>
   </g>
   <g id="line2d_95">
    <path clip-path="url(#p81e6983166)" d="M 32.968125 353.2239 
L 993.158125 353.2239 
" style="fill:none;stroke:#dedede;stroke-linecap:square;stroke-width:2;"/>
   </g>
   <g id="text_17">
    <!-- Fastp: Read N Content -->
    <defs>
     <path d="M 9.8125 72.90625 
L 51.703125 72.90625 
L 51.703125 64.59375 
L 19.671875 64.59375 
L 19.671875 43.109375 
L 48.578125 43.109375 
L 48.578125 34.8125 
L 19.671875 34.8125 
L 19.671875 0 
L 9.8125 0 
z
" id="DejaVuSans-70"/>
     <path d="M 18.109375 8.203125 
L 18.109375 -20.796875 
L 9.078125 -20.796875 
L 9.078125 54.6875 
L 18.109375 54.6875 
L 18.109375 46.390625 
Q 20.953125 51.265625 25.265625 53.625 
Q 29.59375 56 35.59375 56 
Q 45.5625 56 51.78125 48.09375 
Q 58.015625 40.1875 58.015625 27.296875 
Q 58.015625 14.40625 51.78125 6.484375 
Q 45.5625 -1.421875 35.59375 -1.421875 
Q 29.59375 -1.421875 25.265625 0.953125 
Q 20.953125 3.328125 18.109375 8.203125 
z
M 48.6875 27.296875 
Q 48.6875 37.203125 44.609375 42.84375 
Q 40.53125 48.484375 33.40625 48.484375 
Q 26.265625 48.484375 22.1875 42.84375 
Q 18.109375 37.203125 18.109375 27.296875 
Q 18.109375 17.390625 22.1875 11.75 
Q 26.265625 6.109375 33.40625 6.109375 
Q 40.53125 6.109375 44.609375 11.75 
Q 48.6875 17.390625 48.6875 27.296875 
z
" id="DejaVuSans-112"/>
     <path d="M 9.8125 72.90625 
L 23.09375 72.90625 
L 55.421875 11.921875 
L 55.421875 72.90625 
L 64.984375 72.90625 
L 64.984375 0 
L 51.703125 0 
L 19.390625 60.984375 
L 19.390625 0 
L 9.8125 0 
z
" id="DejaVuSans-78"/>
    </defs>
    <g transform="translate(422.606875 19.3575)scale(0.16 -0.16)">
     <use xlink:href="#DejaVuSans-70"/>
     <use x="57.378906" xlink:href="#DejaVuSans-97"/>
     <use x="118.658203" xlink:href="#DejaVuSans-115"/>
     <use x="170.757812" xlink:href="#DejaVuSans-116"/>
     <use x="209.966797" xlink:href="#DejaVuSans-112"/>
     <use x="273.443359" xlink:href="#DejaVuSans-58"/>
     <use x="307.134766" xlink:href="#DejaVuSans-32"/>
     <use x="338.921875" xlink:href="#DejaVuSans-82"/>
     <use x="408.341797" xlink:href="#DejaVuSans-101"/>
     <use x="469.865234" xlink:href="#DejaVuSans-97"/>
     <use x="531.144531" xlink:href="#DejaVuSans-100"/>
     <use x="594.621094" xlink:href="#DejaVuSans-32"/>
     <use x="626.408203" xlink:href="#DejaVuSans-78"/>
     <use x="701.212891" xlink:href="#DejaVuSans-32"/>
     <use x="733" xlink:href="#DejaVuSans-67"/>
     <use x="802.824219" xlink:href="#DejaVuSans-111"/>
     <use x="864.005859" xlink:href="#DejaVuSans-110"/>
     <use x="927.384766" xlink:href="#DejaVuSans-116"/>
     <use x="966.59375" xlink:href="#DejaVuSans-101"/>
     <use x="1028.117188" xlink:href="#DejaVuSans-110"/>
     <use x="1091.496094" xlink:href="#DejaVuSans-116"/>
    </g>
   </g>
  </g>
 </g>
 <defs>
  <clipPath id="p81e6983166">
   <rect height="317.968" width="960.19" x="32.968125" y="35.2559"/>
  </clipPath>
 </defs>
</svg>
