<?xml version="1.0" encoding="utf-8" standalone="no"?>
<!DOCTYPE svg PUBLIC "-//W3C//DTD SVG 1.1//EN"
  "http://www.w3.org/Graphics/SVG/1.1/DTD/svg11.dtd">
<!-- Created with matplotlib (https://matplotlib.org/) -->
<svg height="388.844525pt" version="1.1" viewBox="0 0 1000.298125 388.844525" width="1000.298125pt" xmlns="http://www.w3.org/2000/svg" xmlns:xlink="http://www.w3.org/1999/xlink">
 <defs>
  <style type="text/css">
*{stroke-linecap:butt;stroke-linejoin:round;}
  </style>
 </defs>
 <g id="figure_1">
  <g id="axes_1">
   <g id="patch_1">
    <path d="M 32.968125 353.2239 
L 985.463125 353.2239 
L 985.463125 35.2559 
L 32.968125 35.2559 
z
" style="fill:#ffffff;"/>
   </g>
   <g id="matplotlib.axis_1">
    <g id="xtick_1">
     <g id="text_1">
      <!-- 0 -->
      <defs>
       <path d="M 31.78125 66.40625 
Q 24.171875 66.40625 20.328125 58.90625 
Q 16.5 51.421875 16.5 36.375 
Q 16.5 21.390625 20.328125 13.890625 
Q 24.171875 6.390625 31.78125 6.390625 
Q 39.453125 6.390625 43.28125 13.890625 
Q 47.125 21.390625 47.125 36.375 
Q 47.125 51.421875 43.28125 58.90625 
Q 39.453125 66.40625 31.78125 66.40625 
z
M 31.78125 74.21875 
Q 44.046875 74.21875 50.515625 64.515625 
Q 56.984375 54.828125 56.984375 36.375 
Q 56.984375 17.96875 50.515625 8.265625 
Q 44.046875 -1.421875 31.78125 -1.421875 
Q 19.53125 -1.421875 13.0625 8.265625 
Q 6.59375 17.96875 6.59375 36.375 
Q 6.59375 54.828125 13.0625 64.515625 
Q 19.53125 74.21875 31.78125 74.21875 
z
" id="DejaVuSans-48"/>
      </defs>
      <g transform="translate(30.423125 366.30265)scale(0.08 -0.08)">
       <use xlink:href="#DejaVuSans-48"/>
      </g>
     </g>
    </g>
    <g id="xtick_2">
     <g id="text_2">
      <!-- 20 -->
      <defs>
       <path d="M 19.1875 8.296875 
L 53.609375 8.296875 
L 53.609375 0 
L 7.328125 0 
L 7.328125 8.296875 
Q 12.9375 14.109375 22.625 23.890625 
Q 32.328125 33.6875 34.8125 36.53125 
Q 39.546875 41.84375 41.421875 45.53125 
Q 43.3125 49.21875 43.3125 52.78125 
Q 43.3125 58.59375 39.234375 62.25 
Q 35.15625 65.921875 28.609375 65.921875 
Q 23.96875 65.921875 18.8125 64.3125 
Q 13.671875 62.703125 7.8125 59.421875 
L 7.8125 69.390625 
Q 13.765625 71.78125 18.9375 73 
Q 24.125 74.21875 28.421875 74.21875 
Q 39.75 74.21875 46.484375 68.546875 
Q 53.21875 62.890625 53.21875 53.421875 
Q 53.21875 48.921875 51.53125 44.890625 
Q 49.859375 40.875 45.40625 35.40625 
Q 44.1875 33.984375 37.640625 27.21875 
Q 31.109375 20.453125 19.1875 8.296875 
z
" id="DejaVuSans-50"/>
      </defs>
      <g transform="translate(218.377125 366.30265)scale(0.08 -0.08)">
       <use xlink:href="#DejaVuSans-50"/>
       <use x="63.623047" xlink:href="#DejaVuSans-48"/>
      </g>
     </g>
    </g>
    <g id="xtick_3">
     <g id="text_3">
      <!-- 40 -->
      <defs>
       <path d="M 37.796875 64.3125 
L 12.890625 25.390625 
L 37.796875 25.390625 
z
M 35.203125 72.90625 
L 47.609375 72.90625 
L 47.609375 25.390625 
L 58.015625 25.390625 
L 58.015625 17.1875 
L 47.609375 17.1875 
L 47.609375 0 
L 37.796875 0 
L 37.796875 17.1875 
L 4.890625 17.1875 
L 4.890625 26.703125 
z
" id="DejaVuSans-52"/>
      </defs>
      <g transform="translate(408.876125 366.30265)scale(0.08 -0.08)">
       <use xlink:href="#DejaVuSans-52"/>
       <use x="63.623047" xlink:href="#DejaVuSans-48"/>
      </g>
     </g>
    </g>
    <g id="xtick_4">
     <g id="text_4">
      <!-- 60 -->
      <defs>
       <path d="M 33.015625 40.375 
Q 26.375 40.375 22.484375 35.828125 
Q 18.609375 31.296875 18.609375 23.390625 
Q 18.609375 15.53125 22.484375 10.953125 
Q 26.375 6.390625 33.015625 6.390625 
Q 39.65625 6.390625 43.53125 10.953125 
Q 47.40625 15.53125 47.40625 23.390625 
Q 47.40625 31.296875 43.53125 35.828125 
Q 39.65625 40.375 33.015625 40.375 
z
M 52.59375 71.296875 
L 52.59375 62.3125 
Q 48.875 64.0625 45.09375 64.984375 
Q 41.3125 65.921875 37.59375 65.921875 
Q 27.828125 65.921875 22.671875 59.328125 
Q 17.53125 52.734375 16.796875 39.40625 
Q 19.671875 43.65625 24.015625 45.921875 
Q 28.375 48.1875 33.59375 48.1875 
Q 44.578125 48.1875 50.953125 41.515625 
Q 57.328125 34.859375 57.328125 23.390625 
Q 57.328125 12.15625 50.6875 5.359375 
Q 44.046875 -1.421875 33.015625 -1.421875 
Q 20.359375 -1.421875 13.671875 8.265625 
Q 6.984375 17.96875 6.984375 36.375 
Q 6.984375 53.65625 15.1875 63.9375 
Q 23.390625 74.21875 37.203125 74.21875 
Q 40.921875 74.21875 44.703125 73.484375 
Q 48.484375 72.75 52.59375 71.296875 
z
" id="DejaVuSans-54"/>
      </defs>
      <g transform="translate(599.375125 366.30265)scale(0.08 -0.08)">
       <use xlink:href="#DejaVuSans-54"/>
       <use x="63.623047" xlink:href="#DejaVuSans-48"/>
      </g>
     </g>
    </g>
    <g id="xtick_5">
     <g id="text_5">
      <!-- 80 -->
      <defs>
       <path d="M 31.78125 34.625 
Q 24.75 34.625 20.71875 30.859375 
Q 16.703125 27.09375 16.703125 20.515625 
Q 16.703125 13.921875 20.71875 10.15625 
Q 24.75 6.390625 31.78125 6.390625 
Q 38.8125 6.390625 42.859375 10.171875 
Q 46.921875 13.96875 46.921875 20.515625 
Q 46.921875 27.09375 42.890625 30.859375 
Q 38.875 34.625 31.78125 34.625 
z
M 21.921875 38.8125 
Q 15.578125 40.375 12.03125 44.71875 
Q 8.5 49.078125 8.5 55.328125 
Q 8.5 64.0625 14.71875 69.140625 
Q 20.953125 74.21875 31.78125 74.21875 
Q 42.671875 74.21875 48.875 69.140625 
Q 55.078125 64.0625 55.078125 55.328125 
Q 55.078125 49.078125 51.53125 44.71875 
Q 48 40.375 41.703125 38.8125 
Q 48.828125 37.15625 52.796875 32.3125 
Q 56.78125 27.484375 56.78125 20.515625 
Q 56.78125 9.90625 50.3125 4.234375 
Q 43.84375 -1.421875 31.78125 -1.421875 
Q 19.734375 -1.421875 13.25 4.234375 
Q 6.78125 9.90625 6.78125 20.515625 
Q 6.78125 27.484375 10.78125 32.3125 
Q 14.796875 37.15625 21.921875 38.8125 
z
M 18.3125 54.390625 
Q 18.3125 48.734375 21.84375 45.5625 
Q 25.390625 42.390625 31.78125 42.390625 
Q 38.140625 42.390625 41.71875 45.5625 
Q 45.3125 48.734375 45.3125 54.390625 
Q 45.3125 60.0625 41.71875 63.234375 
Q 38.140625 66.40625 31.78125 66.40625 
Q 25.390625 66.40625 21.84375 63.234375 
Q 18.3125 60.0625 18.3125 54.390625 
z
" id="DejaVuSans-56"/>
      </defs>
      <g transform="translate(789.874125 366.30265)scale(0.08 -0.08)">
       <use xlink:href="#DejaVuSans-56"/>
       <use x="63.623047" xlink:href="#DejaVuSans-48"/>
      </g>
     </g>
    </g>
    <g id="xtick_6">
     <g id="text_6">
      <!-- 100 -->
      <defs>
       <path d="M 12.40625 8.296875 
L 28.515625 8.296875 
L 28.515625 63.921875 
L 10.984375 60.40625 
L 10.984375 69.390625 
L 28.421875 72.90625 
L 38.28125 72.90625 
L 38.28125 8.296875 
L 54.390625 8.296875 
L 54.390625 0 
L 12.40625 0 
z
" id="DejaVuSans-49"/>
      </defs>
      <g transform="translate(977.828125 366.30265)scale(0.08 -0.08)">
       <use xlink:href="#DejaVuSans-49"/>
       <use x="63.623047" xlink:href="#DejaVuSans-48"/>
       <use x="127.246094" xlink:href="#DejaVuSans-48"/>
      </g>
     </g>
    </g>
    <g id="text_7">
     <!-- % GC -->
     <defs>
      <path d="M 72.703125 32.078125 
Q 68.453125 32.078125 66.03125 28.46875 
Q 63.625 24.859375 63.625 18.40625 
Q 63.625 12.0625 66.03125 8.421875 
Q 68.453125 4.78125 72.703125 4.78125 
Q 76.859375 4.78125 79.265625 8.421875 
Q 81.6875 12.0625 81.6875 18.40625 
Q 81.6875 24.8125 79.265625 28.4375 
Q 76.859375 32.078125 72.703125 32.078125 
z
M 72.703125 38.28125 
Q 80.421875 38.28125 84.953125 32.90625 
Q 89.5 27.546875 89.5 18.40625 
Q 89.5 9.28125 84.9375 3.921875 
Q 80.375 -1.421875 72.703125 -1.421875 
Q 64.890625 -1.421875 60.34375 3.921875 
Q 55.8125 9.28125 55.8125 18.40625 
Q 55.8125 27.59375 60.375 32.9375 
Q 64.9375 38.28125 72.703125 38.28125 
z
M 22.3125 68.015625 
Q 18.109375 68.015625 15.6875 64.375 
Q 13.28125 60.75 13.28125 54.390625 
Q 13.28125 47.953125 15.671875 44.328125 
Q 18.0625 40.71875 22.3125 40.71875 
Q 26.5625 40.71875 28.96875 44.328125 
Q 31.390625 47.953125 31.390625 54.390625 
Q 31.390625 60.6875 28.953125 64.34375 
Q 26.515625 68.015625 22.3125 68.015625 
z
M 66.40625 74.21875 
L 74.21875 74.21875 
L 28.609375 -1.421875 
L 20.796875 -1.421875 
z
M 22.3125 74.21875 
Q 30.03125 74.21875 34.609375 68.875 
Q 39.203125 63.53125 39.203125 54.390625 
Q 39.203125 45.171875 34.640625 39.84375 
Q 30.078125 34.515625 22.3125 34.515625 
Q 14.546875 34.515625 10.03125 39.859375 
Q 5.515625 45.21875 5.515625 54.390625 
Q 5.515625 63.484375 10.046875 68.84375 
Q 14.59375 74.21875 22.3125 74.21875 
z
" id="DejaVuSans-37"/>
      <path id="DejaVuSans-32"/>
      <path d="M 59.515625 10.40625 
L 59.515625 29.984375 
L 43.40625 29.984375 
L 43.40625 38.09375 
L 69.28125 38.09375 
L 69.28125 6.78125 
Q 63.578125 2.734375 56.6875 0.65625 
Q 49.8125 -1.421875 42 -1.421875 
Q 24.90625 -1.421875 15.25 8.5625 
Q 5.609375 18.5625 5.609375 36.375 
Q 5.609375 54.25 15.25 64.234375 
Q 24.90625 74.21875 42 74.21875 
Q 49.125 74.21875 55.546875 72.453125 
Q 61.96875 70.703125 67.390625 67.28125 
L 67.390625 56.78125 
Q 61.921875 61.421875 55.765625 63.765625 
Q 49.609375 66.109375 42.828125 66.109375 
Q 29.4375 66.109375 22.71875 58.640625 
Q 16.015625 51.171875 16.015625 36.375 
Q 16.015625 21.625 22.71875 14.15625 
Q 29.4375 6.6875 42.828125 6.6875 
Q 48.046875 6.6875 52.140625 7.59375 
Q 56.25 8.5 59.515625 10.40625 
z
" id="DejaVuSans-71"/>
      <path d="M 64.40625 67.28125 
L 64.40625 56.890625 
Q 59.421875 61.53125 53.78125 63.8125 
Q 48.140625 66.109375 41.796875 66.109375 
Q 29.296875 66.109375 22.65625 58.46875 
Q 16.015625 50.828125 16.015625 36.375 
Q 16.015625 21.96875 22.65625 14.328125 
Q 29.296875 6.6875 41.796875 6.6875 
Q 48.140625 6.6875 53.78125 8.984375 
Q 59.421875 11.28125 64.40625 15.921875 
L 64.40625 5.609375 
Q 59.234375 2.09375 53.4375 0.328125 
Q 47.65625 -1.421875 41.21875 -1.421875 
Q 24.65625 -1.421875 15.125 8.703125 
Q 5.609375 18.84375 5.609375 36.375 
Q 5.609375 53.953125 15.125 64.078125 
Q 24.65625 74.21875 41.21875 74.21875 
Q 47.75 74.21875 53.53125 72.484375 
Q 59.328125 70.75 64.40625 67.28125 
z
" id="DejaVuSans-67"/>
     </defs>
     <g transform="translate(495.510156 379.564837)scale(0.1 -0.1)">
      <use xlink:href="#DejaVuSans-37"/>
      <use x="95.019531" xlink:href="#DejaVuSans-32"/>
      <use x="126.806641" xlink:href="#DejaVuSans-71"/>
      <use x="204.296875" xlink:href="#DejaVuSans-67"/>
     </g>
    </g>
   </g>
   <g id="matplotlib.axis_2">
    <g id="ytick_1">
     <g id="line2d_1">
      <path clip-path="url(#p06232076ed)" d="M 32.968125 353.2239 
L 985.463125 353.2239 
" style="fill:none;stroke:#dedede;stroke-linecap:square;"/>
     </g>
     <g id="text_8">
      <!-- 0 -->
      <g transform="translate(20.878125 356.263275)scale(0.08 -0.08)">
       <use xlink:href="#DejaVuSans-48"/>
      </g>
     </g>
    </g>
    <g id="ytick_2">
     <g id="line2d_2">
      <path clip-path="url(#p06232076ed)" d="M 32.968125 291.913162 
L 985.463125 291.913162 
" style="fill:none;stroke:#dedede;stroke-linecap:square;"/>
     </g>
     <g id="text_9">
      <!-- 1 -->
      <g transform="translate(20.878125 294.952537)scale(0.08 -0.08)">
       <use xlink:href="#DejaVuSans-49"/>
      </g>
     </g>
    </g>
    <g id="ytick_3">
     <g id="line2d_3">
      <path clip-path="url(#p06232076ed)" d="M 32.968125 230.602424 
L 985.463125 230.602424 
" style="fill:none;stroke:#dedede;stroke-linecap:square;"/>
     </g>
     <g id="text_10">
      <!-- 2 -->
      <g transform="translate(20.878125 233.641799)scale(0.08 -0.08)">
       <use xlink:href="#DejaVuSans-50"/>
      </g>
     </g>
    </g>
    <g id="ytick_4">
     <g id="line2d_4">
      <path clip-path="url(#p06232076ed)" d="M 32.968125 169.291686 
L 985.463125 169.291686 
" style="fill:none;stroke:#dedede;stroke-linecap:square;"/>
     </g>
     <g id="text_11">
      <!-- 3 -->
      <defs>
       <path d="M 40.578125 39.3125 
Q 47.65625 37.796875 51.625 33 
Q 55.609375 28.21875 55.609375 21.1875 
Q 55.609375 10.40625 48.1875 4.484375 
Q 40.765625 -1.421875 27.09375 -1.421875 
Q 22.515625 -1.421875 17.65625 -0.515625 
Q 12.796875 0.390625 7.625 2.203125 
L 7.625 11.71875 
Q 11.71875 9.328125 16.59375 8.109375 
Q 21.484375 6.890625 26.8125 6.890625 
Q 36.078125 6.890625 40.9375 10.546875 
Q 45.796875 14.203125 45.796875 21.1875 
Q 45.796875 27.640625 41.28125 31.265625 
Q 36.765625 34.90625 28.71875 34.90625 
L 20.21875 34.90625 
L 20.21875 43.015625 
L 29.109375 43.015625 
Q 36.375 43.015625 40.234375 45.921875 
Q 44.09375 48.828125 44.09375 54.296875 
Q 44.09375 59.90625 40.109375 62.90625 
Q 36.140625 65.921875 28.71875 65.921875 
Q 24.65625 65.921875 20.015625 65.03125 
Q 15.375 64.15625 9.8125 62.3125 
L 9.8125 71.09375 
Q 15.4375 72.65625 20.34375 73.4375 
Q 25.25 74.21875 29.59375 74.21875 
Q 40.828125 74.21875 47.359375 69.109375 
Q 53.90625 64.015625 53.90625 55.328125 
Q 53.90625 49.265625 50.4375 45.09375 
Q 46.96875 40.921875 40.578125 39.3125 
z
" id="DejaVuSans-51"/>
      </defs>
      <g transform="translate(20.878125 172.331061)scale(0.08 -0.08)">
       <use xlink:href="#DejaVuSans-51"/>
      </g>
     </g>
    </g>
    <g id="ytick_5">
     <g id="line2d_5">
      <path clip-path="url(#p06232076ed)" d="M 32.968125 107.980947 
L 985.463125 107.980947 
" style="fill:none;stroke:#dedede;stroke-linecap:square;"/>
     </g>
     <g id="text_12">
      <!-- 4 -->
      <g transform="translate(20.878125 111.020322)scale(0.08 -0.08)">
       <use xlink:href="#DejaVuSans-52"/>
      </g>
     </g>
    </g>
    <g id="ytick_6">
     <g id="line2d_6">
      <path clip-path="url(#p06232076ed)" d="M 32.968125 46.670209 
L 985.463125 46.670209 
" style="fill:none;stroke:#dedede;stroke-linecap:square;"/>
     </g>
     <g id="text_13">
      <!-- 5 -->
      <defs>
       <path d="M 10.796875 72.90625 
L 49.515625 72.90625 
L 49.515625 64.59375 
L 19.828125 64.59375 
L 19.828125 46.734375 
Q 21.96875 47.46875 24.109375 47.828125 
Q 26.265625 48.1875 28.421875 48.1875 
Q 40.625 48.1875 47.75 41.5 
Q 54.890625 34.8125 54.890625 23.390625 
Q 54.890625 11.625 47.5625 5.09375 
Q 40.234375 -1.421875 26.90625 -1.421875 
Q 22.3125 -1.421875 17.546875 -0.640625 
Q 12.796875 0.140625 7.71875 1.703125 
L 7.71875 11.625 
Q 12.109375 9.234375 16.796875 8.0625 
Q 21.484375 6.890625 26.703125 6.890625 
Q 35.15625 6.890625 40.078125 11.328125 
Q 45.015625 15.765625 45.015625 23.390625 
Q 45.015625 31 40.078125 35.4375 
Q 35.15625 39.890625 26.703125 39.890625 
Q 22.75 39.890625 18.8125 39.015625 
Q 14.890625 38.140625 10.796875 36.28125 
z
" id="DejaVuSans-53"/>
      </defs>
      <g transform="translate(20.878125 49.709584)scale(0.08 -0.08)">
       <use xlink:href="#DejaVuSans-53"/>
      </g>
     </g>
    </g>
    <g id="text_14">
     <!-- Percentage -->
     <defs>
      <path d="M 19.671875 64.796875 
L 19.671875 37.40625 
L 32.078125 37.40625 
Q 38.96875 37.40625 42.71875 40.96875 
Q 46.484375 44.53125 46.484375 51.125 
Q 46.484375 57.671875 42.71875 61.234375 
Q 38.96875 64.796875 32.078125 64.796875 
z
M 9.8125 72.90625 
L 32.078125 72.90625 
Q 44.34375 72.90625 50.609375 67.359375 
Q 56.890625 61.8125 56.890625 51.125 
Q 56.890625 40.328125 50.609375 34.8125 
Q 44.34375 29.296875 32.078125 29.296875 
L 19.671875 29.296875 
L 19.671875 0 
L 9.8125 0 
z
" id="DejaVuSans-80"/>
      <path d="M 56.203125 29.59375 
L 56.203125 25.203125 
L 14.890625 25.203125 
Q 15.484375 15.921875 20.484375 11.0625 
Q 25.484375 6.203125 34.421875 6.203125 
Q 39.59375 6.203125 44.453125 7.46875 
Q 49.3125 8.734375 54.109375 11.28125 
L 54.109375 2.78125 
Q 49.265625 0.734375 44.1875 -0.34375 
Q 39.109375 -1.421875 33.890625 -1.421875 
Q 20.796875 -1.421875 13.15625 6.1875 
Q 5.515625 13.8125 5.515625 26.8125 
Q 5.515625 40.234375 12.765625 48.109375 
Q 20.015625 56 32.328125 56 
Q 43.359375 56 49.78125 48.890625 
Q 56.203125 41.796875 56.203125 29.59375 
z
M 47.21875 32.234375 
Q 47.125 39.59375 43.09375 43.984375 
Q 39.0625 48.390625 32.421875 48.390625 
Q 24.90625 48.390625 20.390625 44.140625 
Q 15.875 39.890625 15.1875 32.171875 
z
" id="DejaVuSans-101"/>
      <path d="M 41.109375 46.296875 
Q 39.59375 47.171875 37.8125 47.578125 
Q 36.03125 48 33.890625 48 
Q 26.265625 48 22.1875 43.046875 
Q 18.109375 38.09375 18.109375 28.8125 
L 18.109375 0 
L 9.078125 0 
L 9.078125 54.6875 
L 18.109375 54.6875 
L 18.109375 46.1875 
Q 20.953125 51.171875 25.484375 53.578125 
Q 30.03125 56 36.53125 56 
Q 37.453125 56 38.578125 55.875 
Q 39.703125 55.765625 41.0625 55.515625 
z
" id="DejaVuSans-114"/>
      <path d="M 48.78125 52.59375 
L 48.78125 44.1875 
Q 44.96875 46.296875 41.140625 47.34375 
Q 37.3125 48.390625 33.40625 48.390625 
Q 24.65625 48.390625 19.8125 42.84375 
Q 14.984375 37.3125 14.984375 27.296875 
Q 14.984375 17.28125 19.8125 11.734375 
Q 24.65625 6.203125 33.40625 6.203125 
Q 37.3125 6.203125 41.140625 7.25 
Q 44.96875 8.296875 48.78125 10.40625 
L 48.78125 2.09375 
Q 45.015625 0.34375 40.984375 -0.53125 
Q 36.96875 -1.421875 32.421875 -1.421875 
Q 20.0625 -1.421875 12.78125 6.34375 
Q 5.515625 14.109375 5.515625 27.296875 
Q 5.515625 40.671875 12.859375 48.328125 
Q 20.21875 56 33.015625 56 
Q 37.15625 56 41.109375 55.140625 
Q 45.0625 54.296875 48.78125 52.59375 
z
" id="DejaVuSans-99"/>
      <path d="M 54.890625 33.015625 
L 54.890625 0 
L 45.90625 0 
L 45.90625 32.71875 
Q 45.90625 40.484375 42.875 44.328125 
Q 39.84375 48.1875 33.796875 48.1875 
Q 26.515625 48.1875 22.3125 43.546875 
Q 18.109375 38.921875 18.109375 30.90625 
L 18.109375 0 
L 9.078125 0 
L 9.078125 54.6875 
L 18.109375 54.6875 
L 18.109375 46.1875 
Q 21.34375 51.125 25.703125 53.5625 
Q 30.078125 56 35.796875 56 
Q 45.21875 56 50.046875 50.171875 
Q 54.890625 44.34375 54.890625 33.015625 
z
" id="DejaVuSans-110"/>
      <path d="M 18.3125 70.21875 
L 18.3125 54.6875 
L 36.8125 54.6875 
L 36.8125 47.703125 
L 18.3125 47.703125 
L 18.3125 18.015625 
Q 18.3125 11.328125 20.140625 9.421875 
Q 21.96875 7.515625 27.59375 7.515625 
L 36.8125 7.515625 
L 36.8125 0 
L 27.59375 0 
Q 17.1875 0 13.234375 3.875 
Q 9.28125 7.765625 9.28125 18.015625 
L 9.28125 47.703125 
L 2.6875 47.703125 
L 2.6875 54.6875 
L 9.28125 54.6875 
L 9.28125 70.21875 
z
" id="DejaVuSans-116"/>
      <path d="M 34.28125 27.484375 
Q 23.390625 27.484375 19.1875 25 
Q 14.984375 22.515625 14.984375 16.5 
Q 14.984375 11.71875 18.140625 8.90625 
Q 21.296875 6.109375 26.703125 6.109375 
Q 34.1875 6.109375 38.703125 11.40625 
Q 43.21875 16.703125 43.21875 25.484375 
L 43.21875 27.484375 
z
M 52.203125 31.203125 
L 52.203125 0 
L 43.21875 0 
L 43.21875 8.296875 
Q 40.140625 3.328125 35.546875 0.953125 
Q 30.953125 -1.421875 24.3125 -1.421875 
Q 15.921875 -1.421875 10.953125 3.296875 
Q 6 8.015625 6 15.921875 
Q 6 25.140625 12.171875 29.828125 
Q 18.359375 34.515625 30.609375 34.515625 
L 43.21875 34.515625 
L 43.21875 35.40625 
Q 43.21875 41.609375 39.140625 45 
Q 35.0625 48.390625 27.6875 48.390625 
Q 23 48.390625 18.546875 47.265625 
Q 14.109375 46.140625 10.015625 43.890625 
L 10.015625 52.203125 
Q 14.9375 54.109375 19.578125 55.046875 
Q 24.21875 56 28.609375 56 
Q 40.484375 56 46.34375 49.84375 
Q 52.203125 43.703125 52.203125 31.203125 
z
" id="DejaVuSans-97"/>
      <path d="M 45.40625 27.984375 
Q 45.40625 37.75 41.375 43.109375 
Q 37.359375 48.484375 30.078125 48.484375 
Q 22.859375 48.484375 18.828125 43.109375 
Q 14.796875 37.75 14.796875 27.984375 
Q 14.796875 18.265625 18.828125 12.890625 
Q 22.859375 7.515625 30.078125 7.515625 
Q 37.359375 7.515625 41.375 12.890625 
Q 45.40625 18.265625 45.40625 27.984375 
z
M 54.390625 6.78125 
Q 54.390625 -7.171875 48.1875 -13.984375 
Q 42 -20.796875 29.203125 -20.796875 
Q 24.46875 -20.796875 20.265625 -20.09375 
Q 16.0625 -19.390625 12.109375 -17.921875 
L 12.109375 -9.1875 
Q 16.0625 -11.328125 19.921875 -12.34375 
Q 23.78125 -13.375 27.78125 -13.375 
Q 36.625 -13.375 41.015625 -8.765625 
Q 45.40625 -4.15625 45.40625 5.171875 
L 45.40625 9.625 
Q 42.625 4.78125 38.28125 2.390625 
Q 33.9375 0 27.875 0 
Q 17.828125 0 11.671875 7.65625 
Q 5.515625 15.328125 5.515625 27.984375 
Q 5.515625 40.671875 11.671875 48.328125 
Q 17.828125 56 27.875 56 
Q 33.9375 56 38.28125 53.609375 
Q 42.625 51.21875 45.40625 46.390625 
L 45.40625 54.6875 
L 54.390625 54.6875 
z
" id="DejaVuSans-103"/>
     </defs>
     <g transform="translate(14.798437 222.6524)rotate(-90)scale(0.1 -0.1)">
      <use xlink:href="#DejaVuSans-80"/>
      <use x="60.255859" xlink:href="#DejaVuSans-101"/>
      <use x="121.779297" xlink:href="#DejaVuSans-114"/>
      <use x="162.861328" xlink:href="#DejaVuSans-99"/>
      <use x="217.841797" xlink:href="#DejaVuSans-101"/>
      <use x="279.365234" xlink:href="#DejaVuSans-110"/>
      <use x="342.744141" xlink:href="#DejaVuSans-116"/>
      <use x="381.953125" xlink:href="#DejaVuSans-97"/>
      <use x="443.232422" xlink:href="#DejaVuSans-103"/>
      <use x="506.708984" xlink:href="#DejaVuSans-101"/>
     </g>
    </g>
   </g>
   <g id="line2d_7">
    <path clip-path="url(#p06232076ed)" d="M 32.968125 353.2239 
L 42.493075 353.2239 
L 52.018025 353.2239 
L 61.542975 353.2239 
L 71.067925 353.223119 
L 80.592875 353.222339 
L 90.117825 353.221363 
L 99.642775 353.219607 
L 109.167725 353.216095 
L 118.692675 353.209851 
L 128.217625 353.199314 
L 137.742575 353.188972 
L 147.267525 353.175313 
L 156.792475 353.136287 
L 166.317425 353.072285 
L 175.842375 352.991306 
L 185.367325 352.844178 
L 194.892275 352.54563 
L 204.417225 351.994 
L 213.942175 350.932106 
L 223.467125 349.117598 
L 232.992075 346.700532 
L 242.517025 343.803446 
L 252.041975 339.990424 
L 261.566925 334.879012 
L 271.091875 328.235639 
L 280.616825 320.453101 
L 290.141775 312.041856 
L 299.666725 302.214753 
L 309.191675 291.348782 
L 318.716625 279.472821 
L 328.241575 265.804402 
L 337.766525 250.444602 
L 347.291475 234.163401 
L 356.816425 215.159756 
L 366.341375 193.059214 
L 375.866325 169.676086 
L 385.391275 146.571604 
L 394.916225 127.182578 
L 404.441175 113.404887 
L 413.966125 103.837891 
L 423.491075 93.997129 
L 433.016025 82.491719 
L 442.540975 72.305968 
L 452.065925 68.156348 
L 461.590875 71.654041 
L 471.115825 81.918429 
L 480.640775 97.165249 
L 490.165725 113.455035 
L 499.690675 130.343088 
L 509.215625 146.839516 
L 518.740575 163.717813 
L 528.265525 181.67732 
L 537.790475 198.995048 
L 547.315425 216.415804 
L 556.840375 233.275173 
L 566.365325 248.69878 
L 575.890275 262.807996 
L 585.415225 275.537647 
L 594.940175 286.904321 
L 604.465125 296.565369 
L 613.990075 304.854658 
L 623.515025 312.142933 
L 633.039975 318.370681 
L 642.564925 323.798398 
L 652.089875 328.180807 
L 661.614825 331.778407 
L 671.139775 334.483485 
L 680.664725 336.572149 
L 690.189675 338.427829 
L 699.714625 339.936764 
L 709.239575 341.248423 
L 718.764525 342.546619 
L 728.289475 343.830569 
L 737.814425 345.059494 
L 747.339375 346.322956 
L 756.864325 347.55032 
L 766.389275 348.592701 
L 775.914225 349.476246 
L 785.439175 350.186127 
L 794.964125 350.887617 
L 804.489075 351.6695 
L 814.014025 352.263864 
L 823.538975 352.624853 
L 833.063925 352.850227 
L 842.588875 353.001062 
L 852.113825 353.104286 
L 861.638775 353.163605 
L 871.163725 353.191118 
L 880.688675 353.206143 
L 890.213625 353.216485 
L 899.738575 353.220583 
L 909.263525 353.221558 
L 918.788475 353.222339 
L 928.313425 353.222924 
L 937.838375 353.22351 
L 947.363325 353.223705 
L 956.888275 353.2239 
L 966.413225 353.2239 
L 975.938175 353.2239 
L 985.463125 353.2239 
" style="fill:none;stroke:#5cb85c;stroke-linecap:square;"/>
   </g>
   <g id="line2d_8">
    <path clip-path="url(#p06232076ed)" d="M 32.968125 353.2239 
L 42.493075 353.2239 
L 52.018025 353.2239 
L 61.542975 353.22351 
L 71.067925 353.222338 
L 80.592875 353.220776 
L 90.117825 353.219995 
L 99.642775 353.219995 
L 109.167725 353.217848 
L 118.692675 353.209844 
L 128.217625 353.198716 
L 137.742575 353.185831 
L 147.267525 353.165332 
L 156.792475 353.136048 
L 166.317425 353.093293 
L 175.842375 353.022621 
L 185.367325 352.87952 
L 194.892275 352.592928 
L 204.417225 352.019938 
L 213.942175 350.922375 
L 223.467125 349.122387 
L 232.992075 346.712316 
L 242.517025 343.767129 
L 252.041975 339.862599 
L 261.566925 334.750984 
L 271.091875 328.314562 
L 280.616825 320.652898 
L 290.141775 312.17265 
L 299.666725 302.583515 
L 309.191675 291.829464 
L 318.716625 279.678763 
L 328.241575 265.78547 
L 337.766525 250.185507 
L 347.291475 233.601993 
L 356.816425 214.492834 
L 366.341375 192.335799 
L 375.866325 168.744435 
L 385.391275 145.689162 
L 394.916225 126.724276 
L 404.441175 113.313778 
L 413.966125 103.568267 
L 423.491075 93.335275 
L 433.016025 81.486589 
L 442.540975 72.159643 
L 452.065925 69.053395 
L 461.590875 73.021959 
L 471.115825 83.735208 
L 480.640775 98.26162 
L 490.165725 113.877982 
L 499.690675 130.46872 
L 509.215625 146.653972 
L 518.740575 163.646485 
L 528.265525 181.593656 
L 537.790475 198.968619 
L 547.315425 216.594447 
L 556.840375 233.355031 
L 566.365325 248.715061 
L 575.890275 262.953514 
L 585.415225 275.802931 
L 594.940175 286.989604 
L 604.465125 296.495377 
L 613.990075 304.788794 
L 623.515025 312.010807 
L 633.039975 318.347859 
L 642.564925 323.875502 
L 652.089875 328.232957 
L 661.614825 331.809702 
L 671.139775 334.452287 
L 680.664725 336.493771 
L 690.189675 338.311329 
L 699.714625 339.863966 
L 709.239575 341.249293 
L 718.764525 342.473168 
L 728.289475 343.751706 
L 737.814425 345.054843 
L 747.339375 346.308002 
L 756.864325 347.545152 
L 766.389275 348.615774 
L 775.914225 349.468328 
L 785.439175 350.183833 
L 794.964125 350.905781 
L 804.489075 351.632804 
L 814.014025 352.194666 
L 823.538975 352.586486 
L 833.063925 352.839499 
L 842.588875 353.000366 
L 852.113825 353.096027 
L 861.638775 353.150104 
L 871.163725 353.182122 
L 880.688675 353.201254 
L 890.213625 353.211406 
L 899.738575 353.216872 
L 909.263525 353.219215 
L 918.788475 353.221557 
L 928.313425 353.222533 
L 937.838375 353.223119 
L 947.363325 353.223314 
L 956.888275 353.223705 
L 966.413225 353.2239 
L 975.938175 353.2239 
L 985.463125 353.2239 
" style="fill:none;stroke:#5cb85c;stroke-linecap:square;"/>
   </g>
   <g id="line2d_9">
    <path clip-path="url(#p06232076ed)" d="M 32.968125 353.2239 
L 42.493075 353.2239 
L 52.018025 353.2239 
L 61.542975 353.2239 
L 71.067925 353.223308 
L 80.592875 353.22236 
L 90.117825 353.221413 
L 99.642775 353.219163 
L 109.167725 353.213833 
L 118.692675 353.206135 
L 128.217625 353.192515 
L 137.742575 353.1725 
L 147.267525 353.140996 
L 156.792475 353.086753 
L 166.317425 353.009061 
L 175.842375 352.887902 
L 185.367325 352.667023 
L 194.892275 352.274414 
L 204.417225 351.529226 
L 213.942175 350.272996 
L 223.467125 348.417726 
L 232.992075 345.917463 
L 242.517025 342.728388 
L 252.041975 338.400924 
L 261.566925 332.585691 
L 271.091875 325.095208 
L 280.616825 315.963938 
L 290.141775 305.15801 
L 299.666725 291.670734 
L 309.191675 276.196726 
L 318.716625 258.833102 
L 328.241575 238.926934 
L 337.766525 216.956105 
L 347.291475 194.805256 
L 356.816425 170.226034 
L 366.341375 144.059676 
L 375.866325 119.954546 
L 385.391275 98.489904 
L 394.916225 81.36066 
L 404.441175 69.117298 
L 413.966125 62.102446 
L 423.491075 58.464742 
L 433.016025 57.797958 
L 442.540975 61.0395 
L 452.065925 69.044342 
L 461.590875 82.183067 
L 471.115825 99.476933 
L 480.640775 118.867202 
L 490.165725 139.238105 
L 499.690675 160.280885 
L 509.215625 178.91886 
L 518.740575 197.400976 
L 528.265525 216.306612 
L 537.790475 232.873057 
L 547.315425 248.773427 
L 556.840375 263.554359 
L 566.365325 276.681714 
L 575.890275 288.317628 
L 585.415225 298.528661 
L 594.940175 307.452908 
L 604.465125 314.88145 
L 613.990075 321.166393 
L 623.515025 326.489414 
L 633.039975 331.250702 
L 642.564925 335.537069 
L 652.089875 338.742251 
L 661.614825 341.222854 
L 671.139775 343.166476 
L 680.664725 344.705172 
L 690.189675 345.982839 
L 699.714625 346.931851 
L 709.239575 347.731045 
L 718.764525 348.464744 
L 728.289475 349.122408 
L 737.814425 349.716948 
L 747.339375 350.288392 
L 756.864325 350.799199 
L 766.389275 351.199861 
L 775.914225 351.514067 
L 785.439175 351.769174 
L 794.964125 352.056495 
L 804.489075 352.381241 
L 814.014025 352.668799 
L 823.538975 352.879138 
L 833.063925 353.013206 
L 842.588875 353.088056 
L 852.113825 353.13993 
L 861.638775 353.172855 
L 871.163725 353.194291 
L 880.688675 353.210635 
L 890.213625 353.219281 
L 899.738575 353.221531 
L 909.263525 353.221531 
L 918.788475 353.22236 
L 928.313425 353.223308 
L 937.838375 353.223426 
L 947.363325 353.223545 
L 956.888275 353.223663 
L 966.413225 353.223782 
L 975.938175 353.2239 
L 985.463125 353.2239 
" style="fill:none;stroke:#5cb85c;stroke-linecap:square;"/>
   </g>
   <g id="line2d_10">
    <path clip-path="url(#p06232076ed)" d="M 32.968125 353.2239 
L 42.493075 353.2239 
L 52.018025 353.2239 
L 61.542975 353.223663 
L 71.067925 353.222123 
L 80.592875 353.220346 
L 90.117825 353.219753 
L 99.642775 353.21691 
L 109.167725 353.211223 
L 118.692675 353.203522 
L 128.217625 353.18966 
L 137.742575 353.168689 
L 147.267525 353.136701 
L 156.792475 353.083623 
L 166.317425 352.999859 
L 175.842375 352.872022 
L 185.367325 352.649047 
L 194.892275 352.24338 
L 204.417225 351.47221 
L 213.942175 350.227722 
L 223.467125 348.37651 
L 232.992075 345.863127 
L 242.517025 342.646462 
L 252.041975 338.259831 
L 261.566925 332.436068 
L 271.091875 324.986319 
L 280.616825 315.906082 
L 290.141775 305.155904 
L 299.666725 291.767468 
L 309.191675 276.429484 
L 318.716625 259.256638 
L 328.241575 239.368406 
L 337.766525 217.248768 
L 347.291475 194.99762 
L 356.816425 170.594209 
L 366.341375 144.471215 
L 375.866325 120.416246 
L 385.391275 99.068844 
L 394.916225 81.659518 
L 404.441175 69.175065 
L 413.966125 61.982175 
L 423.491075 58.479505 
L 433.016025 57.798023 
L 442.540975 60.888035 
L 452.065925 69.131229 
L 461.590875 82.548455 
L 471.115825 99.874018 
L 480.640775 118.881843 
L 490.165725 139.011651 
L 499.690675 160.14295 
L 509.215625 178.742146 
L 518.740575 197.058537 
L 528.265525 216.001792 
L 537.790475 232.68651 
L 547.315425 248.660955 
L 556.840375 263.403708 
L 566.365325 276.50057 
L 575.890275 288.205914 
L 585.415225 298.337047 
L 594.940175 307.247151 
L 604.465125 314.731495 
L 613.990075 321.050732 
L 623.515025 326.375231 
L 633.039975 331.123929 
L 642.564925 335.381064 
L 652.089875 338.655428 
L 661.614825 341.260157 
L 671.139775 343.147622 
L 680.664725 344.623852 
L 690.189675 345.910163 
L 699.714625 346.898147 
L 709.239575 347.678914 
L 718.764525 348.383974 
L 728.289475 349.076594 
L 737.814425 349.712107 
L 747.339375 350.264213 
L 756.864325 350.730659 
L 766.389275 351.165945 
L 775.914225 351.530619 
L 785.439175 351.791507 
L 794.964125 352.058792 
L 804.489075 352.363398 
L 814.014025 352.648336 
L 823.538975 352.861122 
L 833.063925 352.999148 
L 842.588875 353.080779 
L 852.113825 353.131369 
L 861.638775 353.165964 
L 871.163725 353.189897 
L 880.688675 353.206484 
L 890.213625 353.215607 
L 899.738575 353.21999 
L 909.263525 353.221175 
L 918.788475 353.222241 
L 928.313425 353.223071 
L 937.838375 353.223071 
L 947.363325 353.223545 
L 956.888275 353.2239 
L 966.413225 353.2239 
L 975.938175 353.2239 
L 985.463125 353.2239 
" style="fill:none;stroke:#5cb85c;stroke-linecap:square;"/>
   </g>
   <g id="line2d_11">
    <path clip-path="url(#p06232076ed)" d="M 32.968125 353.2239 
L 42.493075 353.2239 
L 52.018025 353.2239 
L 61.542975 353.2239 
L 71.067925 353.22304 
L 80.592875 353.221894 
L 90.117825 353.221608 
L 99.642775 353.219745 
L 109.167725 353.215161 
L 118.692675 353.208571 
L 128.217625 353.19625 
L 137.742575 353.180635 
L 147.267525 353.158859 
L 156.792475 353.113588 
L 166.317425 353.041384 
L 175.842375 352.913165 
L 185.367325 352.658015 
L 194.892275 352.200007 
L 204.417225 351.328545 
L 213.942175 349.876585 
L 223.467125 347.713044 
L 232.992075 344.728755 
L 242.517025 340.916985 
L 252.041975 335.814855 
L 261.566925 329.149737 
L 271.091875 320.518923 
L 280.616825 309.915535 
L 290.141775 297.775377 
L 299.666725 282.911523 
L 309.191675 266.15217 
L 318.716625 248.059479 
L 328.241575 228.024872 
L 337.766525 206.445902 
L 347.291475 185.077098 
L 356.816425 161.564092 
L 366.341375 136.571047 
L 375.866325 113.573068 
L 385.391275 94.090306 
L 394.916225 79.27072 
L 404.441175 69.023195 
L 413.966125 64.607289 
L 423.491075 63.365782 
L 433.016025 64.065616 
L 442.540975 68.392269 
L 452.065925 77.190557 
L 461.590875 90.915335 
L 471.115825 108.568212 
L 480.640775 127.563167 
L 490.165725 147.323141 
L 499.690675 167.834093 
L 509.215625 185.713181 
L 518.740575 203.321646 
L 528.265525 221.49084 
L 537.790475 237.212832 
L 547.315425 252.525669 
L 556.840375 266.961457 
L 566.365325 279.602602 
L 575.890275 290.596808 
L 585.415225 300.180744 
L 594.940175 308.856973 
L 604.465125 316.280376 
L 613.990075 322.378749 
L 623.515025 327.416125 
L 633.039975 331.86627 
L 642.564925 335.824597 
L 652.089875 338.946131 
L 661.614825 341.478858 
L 671.139775 343.284388 
L 680.664725 344.756261 
L 690.189675 346.078712 
L 699.714625 347.075958 
L 709.239575 347.985241 
L 718.764525 348.781921 
L 728.289475 349.4521 
L 737.814425 350.069559 
L 747.339375 350.59576 
L 756.864325 351.029987 
L 766.389275 351.455332 
L 775.914225 351.834403 
L 785.439175 352.123648 
L 794.964125 352.406877 
L 804.489075 352.669333 
L 814.014025 352.859442 
L 823.538975 352.981931 
L 833.063925 353.071326 
L 842.588875 353.138086 
L 852.113825 353.172755 
L 861.638775 353.193385 
L 871.163725 353.209431 
L 880.688675 353.214301 
L 890.213625 353.217596 
L 899.738575 353.220748 
L 909.263525 353.222467 
L 918.788475 353.223327 
L 928.313425 353.223757 
L 937.838375 353.2239 
L 947.363325 353.2239 
L 956.888275 353.2239 
L 966.413225 353.2239 
L 975.938175 353.2239 
L 985.463125 353.2239 
" style="fill:none;stroke:#5cb85c;stroke-linecap:square;"/>
   </g>
   <g id="line2d_12">
    <path clip-path="url(#p06232076ed)" d="M 32.968125 353.2239 
L 42.493075 353.223757 
L 52.018025 353.223327 
L 61.542975 353.222897 
L 71.067925 353.22261 
L 80.592875 353.222037 
L 90.117825 353.220317 
L 99.642775 353.216161 
L 109.167725 353.211719 
L 118.692675 353.20613 
L 128.217625 353.192802 
L 137.742575 353.175604 
L 147.267525 353.157547 
L 156.792475 353.115701 
L 166.317425 353.034587 
L 175.842375 352.904175 
L 185.367325 352.654385 
L 194.892275 352.18705 
L 204.417225 351.305405 
L 213.942175 349.843067 
L 223.467125 347.631932 
L 232.992075 344.670855 
L 242.517025 340.88818 
L 252.041975 335.732162 
L 261.566925 329.092596 
L 271.091875 320.528373 
L 280.616825 309.946054 
L 290.141775 297.924183 
L 299.666725 283.155914 
L 309.191675 266.439915 
L 318.716625 248.417069 
L 328.241575 228.175206 
L 337.766525 206.465703 
L 347.291475 185.039667 
L 356.816425 161.481747 
L 366.341375 136.616838 
L 375.866325 113.893271 
L 385.391275 94.504535 
L 394.916225 79.526746 
L 404.441175 69.454468 
L 413.966125 64.98376 
L 423.491075 63.358048 
L 433.016025 63.827963 
L 442.540975 68.342524 
L 452.065925 77.566547 
L 461.590875 91.184465 
L 471.115825 108.623751 
L 480.640775 127.554325 
L 490.165725 147.341177 
L 499.690675 167.867511 
L 509.215625 185.546126 
L 518.740575 202.995444 
L 528.265525 221.165613 
L 537.790475 236.969872 
L 547.315425 252.291606 
L 556.840375 266.774687 
L 566.365325 279.372236 
L 575.890275 290.331317 
L 585.415225 300.041879 
L 594.940175 308.76747 
L 604.465125 316.172743 
L 613.990075 322.297252 
L 623.515025 327.379321 
L 633.039975 331.833405 
L 642.564925 335.76369 
L 652.089875 338.887998 
L 661.614825 341.464717 
L 671.139775 343.300235 
L 680.664725 344.737781 
L 690.189675 346.044627 
L 699.714625 347.048946 
L 709.239575 347.934317 
L 718.764525 348.727826 
L 728.289475 349.420158 
L 737.814425 350.03324 
L 747.339375 350.572516 
L 756.864325 351.041857 
L 766.389275 351.455164 
L 775.914225 351.802692 
L 785.439175 352.093755 
L 794.964125 352.39743 
L 804.489075 352.655388 
L 814.014025 352.830513 
L 823.538975 352.962789 
L 833.063925 353.064396 
L 842.588875 353.132468 
L 852.113825 353.172595 
L 861.638775 353.194235 
L 871.163725 353.204123 
L 880.688675 353.211002 
L 890.213625 353.216734 
L 899.738575 353.220317 
L 909.263525 353.22261 
L 918.788475 353.22347 
L 928.313425 353.22347 
L 937.838375 353.223327 
L 947.363325 353.223327 
L 956.888275 353.22347 
L 966.413225 353.223613 
L 975.938175 353.223757 
L 985.463125 353.2239 
" style="fill:none;stroke:#5cb85c;stroke-linecap:square;"/>
   </g>
   <g id="line2d_13">
    <path clip-path="url(#p06232076ed)" d="M 32.968125 353.2239 
L 42.493075 353.223643 
L 52.018025 353.223387 
L 61.542975 353.223387 
L 71.067925 353.222874 
L 80.592875 353.222232 
L 90.117825 353.221719 
L 99.642775 353.219282 
L 109.167725 353.213509 
L 118.692675 353.205812 
L 128.217625 353.192471 
L 137.742575 353.171177 
L 147.267525 353.146675 
L 156.792475 353.097544 
L 166.317425 353.016342 
L 175.842375 352.885496 
L 185.367325 352.661903 
L 194.892275 352.261796 
L 204.417225 351.52508 
L 213.942175 350.235475 
L 223.467125 348.244432 
L 232.992075 345.509747 
L 242.517025 341.848619 
L 252.041975 336.847087 
L 261.566925 330.272963 
L 271.091875 321.755645 
L 280.616825 311.039726 
L 290.141775 298.300694 
L 299.666725 282.973472 
L 309.191675 265.985915 
L 318.716625 247.589581 
L 328.241575 226.928709 
L 337.766525 204.773625 
L 347.291475 182.866892 
L 356.816425 159.202715 
L 366.341375 134.763467 
L 375.866325 112.313722 
L 385.391275 92.256154 
L 394.916225 76.625933 
L 404.441175 66.099228 
L 413.966125 60.831899 
L 423.491075 59.031737 
L 433.016025 59.800138 
L 442.540975 64.166425 
L 452.065925 73.71281 
L 461.590875 88.352704 
L 471.115825 106.790216 
L 480.640775 126.807889 
L 490.165725 147.530336 
L 499.690675 168.775012 
L 509.215625 187.597752 
L 518.740575 205.686341 
L 528.265525 224.100635 
L 537.790475 240.457821 
L 547.315425 255.634698 
L 556.840375 269.779044 
L 566.365325 282.10745 
L 575.890275 292.980256 
L 585.415225 302.516379 
L 594.940175 310.836786 
L 604.465125 317.88914 
L 613.990075 323.763749 
L 623.515025 328.655601 
L 633.039975 332.904639 
L 642.564925 336.740486 
L 652.089875 339.769319 
L 661.614825 342.171629 
L 671.139775 343.895464 
L 680.664725 345.251261 
L 690.189675 346.496096 
L 699.714625 347.466026 
L 709.239575 348.28638 
L 718.764525 348.971912 
L 728.289475 349.541606 
L 737.814425 350.125924 
L 747.339375 350.620061 
L 756.864325 350.994383 
L 766.389275 351.386794 
L 775.914225 351.68774 
L 785.439175 351.916079 
L 794.964125 352.220874 
L 804.489075 352.572106 
L 814.014025 352.809297 
L 823.538975 352.942709 
L 833.063925 353.047129 
L 842.588875 353.116529 
L 852.113825 353.158092 
L 861.638775 353.185288 
L 871.163725 353.201707 
L 880.688675 353.212098 
L 890.213625 353.218769 
L 899.738575 353.221591 
L 909.263525 353.221848 
L 918.788475 353.222617 
L 928.313425 353.223515 
L 937.838375 353.223772 
L 947.363325 353.2239 
L 956.888275 353.2239 
L 966.413225 353.2239 
L 975.938175 353.2239 
L 985.463125 353.2239 
" style="fill:none;stroke:#5cb85c;stroke-linecap:square;"/>
   </g>
   <g id="line2d_14">
    <path clip-path="url(#p06232076ed)" d="M 32.968125 353.2239 
L 42.493075 353.223772 
L 52.018025 353.223515 
L 61.542975 353.223387 
L 71.067925 353.22313 
L 80.592875 353.222745 
L 90.117825 353.221334 
L 99.642775 353.215431 
L 109.167725 353.206448 
L 118.692675 353.20016 
L 128.217625 353.187456 
L 137.742575 353.164486 
L 147.267525 353.136896 
L 156.792475 353.087235 
L 166.317425 353.011396 
L 175.842375 352.88782 
L 185.367325 352.638871 
L 194.892275 352.224898 
L 204.417225 351.486394 
L 213.942175 350.171972 
L 223.467125 348.180769 
L 232.992075 345.446956 
L 242.517025 341.785232 
L 252.041975 336.775851 
L 261.566925 330.191164 
L 271.091875 321.658135 
L 280.616825 311.057936 
L 290.141775 298.391208 
L 299.666725 283.12066 
L 309.191675 266.406851 
L 318.716625 248.102853 
L 328.241575 227.250982 
L 337.766525 205.01116 
L 347.291475 183.360601 
L 356.816425 160.092263 
L 366.341375 135.412746 
L 375.866325 112.699024 
L 385.391275 92.906082 
L 394.916225 77.084639 
L 404.441175 66.415401 
L 413.966125 61.042606 
L 423.491075 58.774865 
L 433.016025 59.705984 
L 442.540975 64.254041 
L 452.065925 73.764385 
L 461.590875 88.481601 
L 471.115825 106.733115 
L 480.640775 126.626149 
L 490.165725 147.05609 
L 499.690675 168.254307 
L 509.215625 187.323373 
L 518.740575 205.558718 
L 528.265525 223.84873 
L 537.790475 240.028967 
L 547.315425 255.271285 
L 556.840375 269.482519 
L 566.365325 281.820353 
L 575.890275 292.655642 
L 585.415225 302.359755 
L 594.940175 310.784221 
L 604.465125 317.786346 
L 613.990075 323.617385 
L 623.515025 328.492027 
L 633.039975 332.746735 
L 642.564925 336.595427 
L 652.089875 339.695862 
L 661.614825 342.131964 
L 671.139775 343.836105 
L 680.664725 345.231628 
L 690.189675 346.511916 
L 699.714625 347.458049 
L 709.239575 348.229917 
L 718.764525 348.894379 
L 728.289475 349.512643 
L 737.814425 350.081247 
L 747.339375 350.556174 
L 756.864325 350.996068 
L 766.389275 351.385788 
L 775.914225 351.67888 
L 785.439175 351.916279 
L 794.964125 352.202056 
L 804.489075 352.538137 
L 814.014025 352.783107 
L 823.538975 352.941202 
L 833.063925 353.054641 
L 842.588875 353.116878 
L 852.113825 353.15422 
L 861.638775 353.180783 
L 871.163725 353.197979 
L 880.688675 353.211196 
L 890.213625 353.218254 
L 899.738575 353.220949 
L 909.263525 353.221077 
L 918.788475 353.22159 
L 928.313425 353.222873 
L 937.838375 353.223515 
L 947.363325 353.223643 
L 956.888275 353.223515 
L 966.413225 353.223515 
L 975.938175 353.223772 
L 985.463125 353.2239 
" style="fill:none;stroke:#5cb85c;stroke-linecap:square;"/>
   </g>
   <g id="line2d_15">
    <path clip-path="url(#p06232076ed)" d="M 32.968125 353.2239 
L 42.493075 353.2239 
L 52.018025 353.2239 
L 61.542975 353.2239 
L 71.067925 353.22341 
L 80.592875 353.222592 
L 90.117825 353.221775 
L 99.642775 353.219977 
L 109.167725 353.216707 
L 118.692675 353.211803 
L 128.217625 353.201995 
L 137.742575 353.190389 
L 147.267525 353.174696 
L 156.792475 353.143146 
L 166.317425 353.091653 
L 175.842375 353.013025 
L 185.367325 352.849392 
L 194.892275 352.532425 
L 204.417225 351.936742 
L 213.942175 350.845421 
L 223.467125 349.007535 
L 232.992075 346.309147 
L 242.517025 342.555401 
L 252.041975 337.194751 
L 261.566925 329.905162 
L 271.091875 320.215027 
L 280.616825 308.002069 
L 290.141775 293.431884 
L 299.666725 275.961425 
L 309.191675 256.711766 
L 318.716625 236.067714 
L 328.241575 213.843894 
L 337.766525 190.103896 
L 347.291475 167.271643 
L 356.816425 143.843217 
L 366.341375 119.985848 
L 375.866325 99.236194 
L 385.391275 81.936561 
L 394.916225 69.000415 
L 404.441175 61.572205 
L 413.966125 59.761455 
L 423.491075 60.78935 
L 433.016025 64.150443 
L 442.540975 70.523786 
L 452.065925 80.900656 
L 461.590875 95.720132 
L 471.115825 114.860103 
L 480.640775 135.542571 
L 490.165725 156.062714 
L 499.690675 177.235426 
L 509.215625 195.633573 
L 518.740575 213.104358 
L 528.265525 230.79452 
L 537.790475 246.198072 
L 547.315425 261.137698 
L 556.840375 274.844766 
L 566.365325 286.370008 
L 575.890275 296.591092 
L 585.415225 305.787714 
L 594.940175 313.863262 
L 604.465125 320.730936 
L 613.990075 326.573494 
L 623.515025 331.195426 
L 633.039975 335.07488 
L 642.564925 338.565768 
L 652.089875 341.245521 
L 661.614825 343.475896 
L 671.139775 345.160938 
L 680.664725 346.478011 
L 690.189675 347.639134 
L 699.714625 348.574832 
L 709.239575 349.356706 
L 718.764525 350.014833 
L 728.289475 350.593515 
L 737.814425 351.131656 
L 747.339375 351.580052 
L 756.864325 351.920232 
L 766.389275 352.230006 
L 775.914225 352.493846 
L 785.439175 352.692134 
L 794.964125 352.834026 
L 804.489075 352.959407 
L 814.014025 353.05193 
L 823.538975 353.114539 
L 833.063925 353.156714 
L 842.588875 353.182052 
L 852.113825 353.197581 
L 861.638775 353.207063 
L 871.163725 353.214746 
L 880.688675 353.218996 
L 890.213625 353.221284 
L 899.738575 353.222756 
L 909.263525 353.22341 
L 918.788475 353.223573 
L 928.313425 353.223246 
L 937.838375 353.22341 
L 947.363325 353.223737 
L 956.888275 353.2239 
L 966.413225 353.2239 
L 975.938175 353.2239 
L 985.463125 353.2239 
" style="fill:none;stroke:#5cb85c;stroke-linecap:square;"/>
   </g>
   <g id="line2d_16">
    <path clip-path="url(#p06232076ed)" d="M 32.968125 353.2239 
L 42.493075 353.223573 
L 52.018025 353.223082 
L 61.542975 353.222919 
L 71.067925 353.222265 
L 80.592875 353.221283 
L 90.117825 353.220302 
L 99.642775 353.217849 
L 109.167725 353.21376 
L 118.692675 353.207055 
L 128.217625 353.195116 
L 137.742575 353.177289 
L 147.267525 353.156682 
L 156.792475 353.121029 
L 166.317425 353.068366 
L 175.842375 352.981195 
L 185.367325 352.811596 
L 194.892275 352.506089 
L 204.417225 351.871198 
L 213.942175 350.734051 
L 223.467125 348.923742 
L 232.992075 346.24009 
L 242.517025 342.479966 
L 252.041975 337.085184 
L 261.566925 329.770844 
L 271.091875 320.089806 
L 280.616825 307.890462 
L 290.141775 293.494837 
L 299.666725 276.155846 
L 309.191675 256.718048 
L 318.716625 236.095511 
L 328.241575 213.794812 
L 337.766525 189.860435 
L 347.291475 167.103929 
L 356.816425 143.56959 
L 366.341375 119.732524 
L 375.866325 99.018237 
L 385.391275 81.762001 
L 394.916225 69.269089 
L 404.441175 61.98108 
L 413.966125 59.922669 
L 423.491075 61.044442 
L 433.016025 64.259952 
L 442.540975 70.472799 
L 452.065925 81.054984 
L 461.590875 96.09744 
L 471.115825 115.298094 
L 480.640775 135.641292 
L 490.165725 156.126776 
L 499.690675 177.396635 
L 509.215625 195.682567 
L 518.740575 212.995718 
L 528.265525 230.713159 
L 537.790475 246.280929 
L 547.315425 261.102596 
L 556.840375 274.700599 
L 566.365325 286.352222 
L 575.890275 296.611564 
L 585.415225 305.75633 
L 594.940175 313.89544 
L 604.465125 320.765912 
L 613.990075 326.55468 
L 623.515025 331.185204 
L 633.039975 335.117216 
L 642.564925 338.588024 
L 652.089875 341.239948 
L 661.614825 343.497396 
L 671.139775 345.129274 
L 680.664725 346.413123 
L 690.189675 347.619941 
L 699.714625 348.552816 
L 709.239575 349.340789 
L 718.764525 350.017876 
L 728.289475 350.603049 
L 737.814425 351.140794 
L 747.339375 351.590386 
L 756.864325 351.936617 
L 766.389275 352.229203 
L 775.914225 352.484665 
L 785.439175 352.691716 
L 794.964125 352.835965 
L 804.489075 352.952902 
L 814.014025 353.050049 
L 823.538975 353.116449 
L 833.063925 353.154392 
L 842.588875 353.179088 
L 852.113825 353.196588 
L 861.638775 353.20591 
L 871.163725 353.21376 
L 880.688675 353.218503 
L 890.213625 353.221283 
L 899.738575 353.222755 
L 909.263525 353.223409 
L 918.788475 353.223573 
L 928.313425 353.223246 
L 937.838375 353.223409 
L 947.363325 353.223736 
L 956.888275 353.2239 
L 966.413225 353.2239 
L 975.938175 353.2239 
L 985.463125 353.2239 
" style="fill:none;stroke:#5cb85c;stroke-linecap:square;"/>
   </g>
   <g id="line2d_17">
    <path clip-path="url(#p06232076ed)" d="M 32.968125 353.2239 
L 42.493075 353.2239 
L 52.018025 353.2239 
L 61.542975 353.2239 
L 71.067925 353.223138 
L 80.592875 353.222376 
L 90.117825 353.222072 
L 99.642775 353.220396 
L 109.167725 353.217196 
L 118.692675 353.21232 
L 128.217625 353.203026 
L 137.742575 353.183523 
L 147.267525 353.15762 
L 156.792475 353.112367 
L 166.317425 353.023537 
L 175.842375 352.854409 
L 185.367325 352.536266 
L 194.892275 351.983172 
L 204.417225 350.98547 
L 213.942175 349.325426 
L 223.467125 346.802678 
L 232.992075 343.246574 
L 242.517025 338.532325 
L 252.041975 331.989819 
L 261.566925 323.455718 
L 271.091875 312.619954 
L 280.616825 299.458148 
L 290.141775 284.557068 
L 299.666725 267.022622 
L 309.191675 248.239828 
L 318.716625 228.332715 
L 328.241575 207.172533 
L 337.766525 185.33462 
L 347.291475 164.558708 
L 356.816425 143.153213 
L 366.341375 121.338155 
L 375.866325 102.355303 
L 385.391275 86.380337 
L 394.916225 74.904935 
L 404.441175 68.09609 
L 413.966125 66.49288 
L 423.491075 68.115289 
L 433.016025 71.732644 
L 442.540975 78.064731 
L 452.065925 88.074206 
L 461.590875 103.029834 
L 471.115825 121.574782 
L 480.640775 141.107071 
L 490.165725 161.131506 
L 499.690675 181.465857 
L 509.215625 199.387622 
L 518.740575 216.606516 
L 528.265525 233.790975 
L 537.790475 249.162566 
L 547.315425 263.790908 
L 556.840375 277.000252 
L 566.365325 288.397947 
L 575.890275 298.250789 
L 585.415225 306.970778 
L 594.940175 314.793628 
L 604.465125 321.458485 
L 613.990075 326.931067 
L 623.515025 331.28451 
L 633.039975 334.893333 
L 642.564925 338.040788 
L 652.089875 340.430671 
L 661.614825 342.331455 
L 671.139775 343.720132 
L 680.664725 344.808645 
L 690.189675 345.840935 
L 699.714625 346.714 
L 709.239575 347.549126 
L 718.764525 348.316906 
L 728.289475 348.984733 
L 737.814425 349.637018 
L 747.339375 350.259744 
L 756.864325 350.811771 
L 766.389275 351.317021 
L 775.914225 351.760715 
L 785.439175 352.092267 
L 794.964125 352.381613 
L 804.489075 352.658464 
L 814.014025 352.845115 
L 823.538975 352.969294 
L 833.063925 353.066047 
L 842.588875 353.129737 
L 852.113825 353.163258 
L 861.638775 353.190074 
L 871.163725 353.209273 
L 880.688675 353.215825 
L 890.213625 353.220853 
L 899.738575 353.223138 
L 909.263525 353.223443 
L 918.788475 353.223443 
L 928.313425 353.223748 
L 937.838375 353.2239 
L 947.363325 353.2239 
L 956.888275 353.2239 
L 966.413225 353.2239 
L 975.938175 353.2239 
L 985.463125 353.2239 
" style="fill:none;stroke:#5cb85c;stroke-linecap:square;"/>
   </g>
   <g id="line2d_18">
    <path clip-path="url(#p06232076ed)" d="M 32.968125 353.2239 
L 42.493075 353.223748 
L 52.018025 353.223595 
L 61.542975 353.223748 
L 71.067925 353.223138 
L 80.592875 353.222071 
L 90.117825 353.22009 
L 99.642775 353.215517 
L 109.167725 353.211555 
L 118.692675 353.204696 
L 128.217625 353.190217 
L 137.742575 353.169946 
L 147.267525 353.142512 
L 156.792475 353.086729 
L 166.317425 352.988575 
L 175.842375 352.824884 
L 185.367325 352.518078 
L 194.892275 351.963449 
L 204.417225 350.955394 
L 213.942175 349.292422 
L 223.467125 346.721986 
L 232.992075 343.23159 
L 242.517025 338.513206 
L 252.041975 331.88479 
L 261.566925 323.363564 
L 271.091875 312.57749 
L 280.616825 299.454476 
L 290.141775 284.488187 
L 299.666725 266.959845 
L 309.191675 248.247105 
L 318.716625 228.545515 
L 328.241575 207.257768 
L 337.766525 185.373783 
L 347.291475 164.695991 
L 356.816425 143.19822 
L 366.341375 121.23178 
L 375.866325 102.383242 
L 385.391275 86.558413 
L 394.916225 75.038168 
L 404.441175 68.540065 
L 413.966125 66.64817 
L 423.491075 67.651501 
L 433.016025 71.239898 
L 442.540975 77.81878 
L 452.065925 88.253087 
L 461.590875 103.38764 
L 471.115825 121.940041 
L 480.640775 141.451116 
L 490.165725 161.167644 
L 499.690675 181.487419 
L 509.215625 199.359299 
L 518.740575 216.494417 
L 528.265525 233.768688 
L 537.790475 249.146796 
L 547.315425 263.775797 
L 556.840375 276.901706 
L 566.365325 288.261461 
L 575.890275 298.195093 
L 585.415225 306.97862 
L 594.940175 314.826183 
L 604.465125 321.477156 
L 613.990075 326.932606 
L 623.515025 331.285657 
L 633.039975 334.898288 
L 642.564925 338.039051 
L 652.089875 340.408759 
L 661.614825 342.304312 
L 671.139775 343.70102 
L 680.664725 344.803571 
L 690.189675 345.817571 
L 699.714625 346.692571 
L 709.239575 347.513312 
L 718.764525 348.289091 
L 728.289475 348.97708 
L 737.814425 349.621023 
L 747.339375 350.245609 
L 756.864325 350.770517 
L 766.389275 351.289177 
L 775.914225 351.750072 
L 785.439175 352.113423 
L 794.964125 352.399349 
L 804.489075 352.634369 
L 814.014025 352.825494 
L 823.538975 352.973182 
L 833.063925 353.068592 
L 842.588875 353.127423 
L 852.113825 353.166441 
L 861.638775 353.192198 
L 871.163725 353.208506 
L 880.688675 353.216432 
L 890.213625 353.221309 
L 899.738575 353.222376 
L 909.263525 353.222528 
L 918.788475 353.222833 
L 928.313425 353.223443 
L 937.838375 353.223595 
L 947.363325 353.223748 
L 956.888275 353.2239 
L 966.413225 353.2239 
L 975.938175 353.2239 
L 985.463125 353.2239 
" style="fill:none;stroke:#5cb85c;stroke-linecap:square;"/>
   </g>
   <g id="line2d_19">
    <path clip-path="url(#p06232076ed)" d="M 32.968125 353.2239 
L 42.493075 353.2239 
L 52.018025 353.223713 
L 61.542975 353.223338 
L 71.067925 353.22259 
L 80.592875 353.222403 
L 90.117825 353.221841 
L 99.642775 353.220531 
L 109.167725 353.219595 
L 118.692675 353.213793 
L 128.217625 353.203872 
L 137.742575 353.192642 
L 147.267525 353.175983 
L 156.792475 353.146036 
L 166.317425 353.089135 
L 175.842375 352.975333 
L 185.367325 352.766822 
L 194.892275 352.398463 
L 204.417225 351.721643 
L 213.942175 350.561352 
L 223.467125 348.777773 
L 232.992075 346.399355 
L 242.517025 343.430965 
L 252.041975 339.510797 
L 261.566925 334.446247 
L 271.091875 327.837514 
L 280.616825 319.365839 
L 290.141775 309.336691 
L 299.666725 297.14269 
L 309.191675 283.367632 
L 318.716625 267.812177 
L 328.241575 249.174904 
L 337.766525 227.882009 
L 347.291475 206.144764 
L 356.816425 181.719328 
L 366.341375 154.434437 
L 375.866325 127.646867 
L 385.391275 103.070944 
L 394.916225 82.673863 
L 404.441175 67.643804 
L 413.966125 58.578227 
L 423.491075 53.233104 
L 433.016025 50.397233 
L 442.540975 51.570252 
L 452.065925 58.115346 
L 461.590875 70.72375 
L 471.115825 89.008948 
L 480.640775 109.349315 
L 490.165725 130.113819 
L 499.690675 151.805394 
L 509.215625 171.0974 
L 518.740575 189.989791 
L 528.265525 209.503224 
L 537.790475 227.060129 
L 547.315425 244.283303 
L 556.840375 260.009461 
L 566.365325 273.526968 
L 575.890275 285.539784 
L 585.415225 296.355624 
L 594.940175 306.180753 
L 604.465125 314.551541 
L 613.990075 321.601069 
L 623.515025 327.346182 
L 633.039975 332.151683 
L 642.564925 336.433284 
L 652.089875 339.767599 
L 661.614825 342.60609 
L 671.139775 344.700191 
L 680.664725 346.222663 
L 690.189675 347.649489 
L 699.714625 348.700283 
L 709.239575 349.519917 
L 718.764525 350.275725 
L 728.289475 350.890965 
L 737.814425 351.36882 
L 747.339375 351.757955 
L 756.864325 352.061363 
L 766.389275 352.307123 
L 775.914225 352.516757 
L 785.439175 352.711792 
L 794.964125 352.871265 
L 804.489075 352.986751 
L 814.014025 353.063492 
L 823.538975 353.12058 
L 833.063925 353.157828 
L 842.588875 353.180476 
L 852.113825 353.199942 
L 861.638775 353.21267 
L 871.163725 353.218285 
L 880.688675 353.221092 
L 890.213625 353.222777 
L 899.738575 353.223151 
L 909.263525 353.223338 
L 918.788475 353.223526 
L 928.313425 353.223713 
L 937.838375 353.2239 
L 947.363325 353.2239 
L 956.888275 353.2239 
L 966.413225 353.2239 
L 975.938175 353.2239 
L 985.463125 353.2239 
" style="fill:none;stroke:#5cb85c;stroke-linecap:square;"/>
   </g>
   <g id="line2d_20">
    <path clip-path="url(#p06232076ed)" d="M 32.968125 353.223526 
L 42.493075 353.223526 
L 52.018025 353.223526 
L 61.542975 353.223151 
L 71.067925 353.222028 
L 80.592875 353.220717 
L 90.117825 353.219593 
L 99.642775 353.216785 
L 109.167725 353.212665 
L 118.692675 353.206861 
L 128.217625 353.197124 
L 137.742575 353.18177 
L 147.267525 353.160425 
L 156.792475 353.124474 
L 166.317425 353.066241 
L 175.842375 352.966066 
L 185.367325 352.762907 
L 194.892275 352.372131 
L 204.417225 351.65836 
L 213.942175 350.483971 
L 223.467125 348.702165 
L 232.992075 346.30564 
L 242.517025 343.359743 
L 252.041975 339.46134 
L 261.566925 334.351287 
L 271.091875 327.589188 
L 280.616825 319.046593 
L 290.141775 309.18487 
L 299.666725 296.950963 
L 309.191675 283.013519 
L 318.716625 267.361863 
L 328.241575 248.646721 
L 337.766525 227.290141 
L 347.291475 205.303113 
L 356.816425 180.933041 
L 366.341375 153.93707 
L 375.866325 127.203802 
L 385.391275 102.906755 
L 394.916225 83.018723 
L 404.441175 68.155548 
L 413.966125 58.863606 
L 423.491075 53.309786 
L 433.016025 50.677709 
L 442.540975 51.853035 
L 452.065925 58.54679 
L 461.590875 71.651565 
L 471.115825 90.002144 
L 480.640775 110.159245 
L 490.165725 130.637655 
L 499.690675 152.054528 
L 509.215625 171.30481 
L 518.740575 190.166001 
L 528.265525 209.664568 
L 537.790475 227.156824 
L 547.315425 244.197075 
L 556.840375 259.887116 
L 566.365325 273.505873 
L 575.890275 285.672184 
L 585.415225 296.379123 
L 594.940175 306.109027 
L 604.465125 314.529352 
L 613.990075 321.620437 
L 623.515025 327.42872 
L 633.039975 332.186569 
L 642.564925 336.38531 
L 652.089875 339.729473 
L 661.614825 342.58025 
L 671.139775 344.704523 
L 680.664725 346.23636 
L 690.189675 347.618214 
L 699.714625 348.662095 
L 709.239575 349.552623 
L 718.764525 350.299162 
L 728.289475 350.861828 
L 737.814425 351.350158 
L 747.339375 351.735504 
L 756.864325 352.053256 
L 766.389275 352.322137 
L 775.914225 352.54739 
L 785.439175 352.735757 
L 794.964125 352.8775 
L 804.489075 352.99097 
L 814.014025 353.072046 
L 823.538975 353.124848 
L 833.063925 353.155931 
L 842.588875 353.180834 
L 852.113825 353.201244 
L 861.638775 353.21304 
L 871.163725 353.218095 
L 880.688675 353.22053 
L 890.213625 353.222215 
L 899.738575 353.223151 
L 909.263525 353.223338 
L 918.788475 353.223526 
L 928.313425 353.223713 
L 937.838375 353.2239 
L 947.363325 353.2239 
L 956.888275 353.2239 
L 966.413225 353.2239 
L 975.938175 353.2239 
L 985.463125 353.2239 
" style="fill:none;stroke:#5cb85c;stroke-linecap:square;"/>
   </g>
   <g id="line2d_21">
    <path clip-path="url(#p06232076ed)" d="M 32.968125 353.2239 
L 42.493075 353.2239 
L 52.018025 353.2239 
L 61.542975 353.223765 
L 71.067925 353.223496 
L 80.592875 353.223496 
L 90.117825 353.222552 
L 99.642775 353.218238 
L 109.167725 353.213925 
L 118.692675 353.207185 
L 128.217625 353.1902 
L 137.742575 353.162567 
L 147.267525 353.129676 
L 156.792475 353.065916 
L 166.317425 352.960504 
L 175.842375 352.781492 
L 185.367325 352.442878 
L 194.892275 351.836285 
L 204.417225 350.783779 
L 213.942175 349.076961 
L 223.467125 346.480608 
L 232.992075 343.02815 
L 242.517025 338.762858 
L 252.041975 332.98998 
L 261.566925 325.447738 
L 271.091875 315.678491 
L 280.616825 303.725104 
L 290.141775 289.984965 
L 299.666725 273.057651 
L 309.191675 254.267692 
L 318.716625 234.069359 
L 328.241575 211.598459 
L 337.766525 187.519009 
L 347.291475 164.582381 
L 356.816425 140.614949 
L 366.341375 115.378524 
L 375.866325 93.149453 
L 385.391275 74.917694 
L 394.916225 61.80275 
L 404.441175 54.457717 
L 413.966125 53.102589 
L 423.491075 54.905383 
L 433.016025 58.988428 
L 442.540975 66.431593 
L 452.065925 78.130345 
L 461.590875 94.896306 
L 471.115825 115.700153 
L 480.640775 137.237169 
L 490.165725 158.882159 
L 499.690675 180.99153 
L 509.215625 199.967106 
L 518.740575 218.221645 
L 528.265525 236.470793 
L 537.790475 252.237223 
L 547.315425 267.411483 
L 556.840375 281.027069 
L 566.365325 292.461347 
L 575.890275 302.534834 
L 585.415225 311.344586 
L 594.940175 319.171118 
L 604.465125 325.79107 
L 613.990075 331.174245 
L 623.515025 335.446817 
L 633.039975 338.949419 
L 642.564925 342.111117 
L 652.089875 344.578602 
L 661.614825 346.47926 
L 671.139775 347.811877 
L 680.664725 348.855217 
L 690.189675 349.793145 
L 699.714625 350.460262 
L 709.239575 350.995412 
L 718.764525 351.468959 
L 728.289475 351.828871 
L 737.814425 352.10723 
L 747.339375 352.342049 
L 756.864325 352.526588 
L 766.389275 352.69212 
L 775.914225 352.828671 
L 785.439175 352.934353 
L 794.964125 353.019276 
L 804.489075 353.083979 
L 814.014025 353.128867 
L 823.538975 353.159736 
L 833.063925 353.18346 
L 842.588875 353.198962 
L 852.113825 353.209881 
L 861.638775 353.217025 
L 871.163725 353.22026 
L 880.688675 353.222013 
L 890.213625 353.222687 
L 899.738575 353.223091 
L 909.263525 353.223496 
L 918.788475 353.223765 
L 928.313425 353.2239 
L 937.838375 353.2239 
L 947.363325 353.2239 
L 956.888275 353.2239 
L 966.413225 353.2239 
L 975.938175 353.2239 
L 985.463125 353.2239 
" style="fill:none;stroke:#5cb85c;stroke-linecap:square;"/>
   </g>
   <g id="line2d_22">
    <path clip-path="url(#p06232076ed)" d="M 32.968125 353.2239 
L 42.493075 353.2239 
L 52.018025 353.2239 
L 61.542975 353.2239 
L 71.067925 353.223226 
L 80.592875 353.222147 
L 90.117825 353.219854 
L 99.642775 353.21473 
L 109.167725 353.209335 
L 118.692675 353.199491 
L 128.217625 353.175756 
L 137.742575 353.143525 
L 147.267525 353.107788 
L 156.792475 353.051283 
L 166.317425 352.95068 
L 175.842375 352.771994 
L 185.367325 352.428648 
L 194.892275 351.82314 
L 204.417225 350.745498 
L 213.942175 348.985075 
L 223.467125 346.422523 
L 232.992075 343.035859 
L 242.517025 338.660155 
L 252.041975 332.816801 
L 261.566925 325.381866 
L 271.091875 315.679311 
L 280.616825 303.796387 
L 290.141775 290.09249 
L 299.666725 273.240761 
L 309.191675 254.462465 
L 318.716625 234.005065 
L 328.241575 211.474239 
L 337.766525 187.604822 
L 347.291475 164.623573 
L 356.816425 140.518561 
L 366.341375 115.286415 
L 375.866325 93.124557 
L 385.391275 75.144749 
L 394.916225 62.249859 
L 404.441175 54.756666 
L 413.966125 53.100757 
L 423.491075 54.841895 
L 433.016025 58.88801 
L 442.540975 66.382417 
L 452.065925 78.306337 
L 461.590875 95.241542 
L 471.115825 116.02179 
L 480.640775 137.366819 
L 490.165725 158.835377 
L 499.690675 180.86413 
L 509.215625 199.807761 
L 518.740575 218.076567 
L 528.265525 236.341058 
L 537.790475 252.040299 
L 547.315425 267.26781 
L 556.840375 280.98789 
L 566.365325 292.485797 
L 575.890275 302.517943 
L 585.415225 311.277983 
L 594.940175 319.126525 
L 604.465125 325.747598 
L 613.990075 331.137158 
L 623.515025 335.42035 
L 633.039975 338.929194 
L 642.564925 342.077431 
L 652.089875 344.533042 
L 661.614825 346.457046 
L 671.139775 347.810471 
L 680.664725 348.837407 
L 690.189675 349.776281 
L 699.714625 350.453263 
L 709.239575 350.987836 
L 718.764525 351.458622 
L 728.289475 351.810869 
L 737.814425 352.102564 
L 747.339375 352.345981 
L 756.864325 352.537613 
L 766.389275 352.709286 
L 775.914225 352.833624 
L 785.439175 352.93598 
L 794.964125 353.025391 
L 804.489075 353.08675 
L 814.014025 353.127747 
L 823.538975 353.158225 
L 833.063925 353.185061 
L 842.588875 353.203671 
L 852.113825 353.212302 
L 861.638775 353.216348 
L 871.163725 353.21918 
L 880.688675 353.221068 
L 890.213625 353.222012 
L 899.738575 353.222686 
L 909.263525 353.223361 
L 918.788475 353.223765 
L 928.313425 353.2239 
L 937.838375 353.2239 
L 947.363325 353.2239 
L 956.888275 353.2239 
L 966.413225 353.2239 
L 975.938175 353.2239 
L 985.463125 353.2239 
" style="fill:none;stroke:#5cb85c;stroke-linecap:square;"/>
   </g>
   <g id="line2d_23">
    <path clip-path="url(#p06232076ed)" d="M 32.968125 353.2239 
L 985.463125 353.2239 
" style="fill:none;stroke:#dedede;stroke-linecap:square;stroke-width:2;"/>
   </g>
   <g id="text_15">
    <!-- FastQC: Per Sequence GC Content -->
    <defs>
     <path d="M 9.8125 72.90625 
L 51.703125 72.90625 
L 51.703125 64.59375 
L 19.671875 64.59375 
L 19.671875 43.109375 
L 48.578125 43.109375 
L 48.578125 34.8125 
L 19.671875 34.8125 
L 19.671875 0 
L 9.8125 0 
z
" id="DejaVuSans-70"/>
     <path d="M 44.28125 53.078125 
L 44.28125 44.578125 
Q 40.484375 46.53125 36.375 47.5 
Q 32.28125 48.484375 27.875 48.484375 
Q 21.1875 48.484375 17.84375 46.4375 
Q 14.5 44.390625 14.5 40.28125 
Q 14.5 37.15625 16.890625 35.375 
Q 19.28125 33.59375 26.515625 31.984375 
L 29.59375 31.296875 
Q 39.15625 29.25 43.1875 25.515625 
Q 47.21875 21.78125 47.21875 15.09375 
Q 47.21875 7.46875 41.1875 3.015625 
Q 35.15625 -1.421875 24.609375 -1.421875 
Q 20.21875 -1.421875 15.453125 -0.5625 
Q 10.6875 0.296875 5.421875 2 
L 5.421875 11.28125 
Q 10.40625 8.6875 15.234375 7.390625 
Q 20.0625 6.109375 24.8125 6.109375 
Q 31.15625 6.109375 34.5625 8.28125 
Q 37.984375 10.453125 37.984375 14.40625 
Q 37.984375 18.0625 35.515625 20.015625 
Q 33.0625 21.96875 24.703125 23.78125 
L 21.578125 24.515625 
Q 13.234375 26.265625 9.515625 29.90625 
Q 5.8125 33.546875 5.8125 39.890625 
Q 5.8125 47.609375 11.28125 51.796875 
Q 16.75 56 26.8125 56 
Q 31.78125 56 36.171875 55.265625 
Q 40.578125 54.546875 44.28125 53.078125 
z
" id="DejaVuSans-115"/>
     <path d="M 39.40625 66.21875 
Q 28.65625 66.21875 22.328125 58.203125 
Q 16.015625 50.203125 16.015625 36.375 
Q 16.015625 22.609375 22.328125 14.59375 
Q 28.65625 6.59375 39.40625 6.59375 
Q 50.140625 6.59375 56.421875 14.59375 
Q 62.703125 22.609375 62.703125 36.375 
Q 62.703125 50.203125 56.421875 58.203125 
Q 50.140625 66.21875 39.40625 66.21875 
z
M 53.21875 1.3125 
L 66.21875 -12.890625 
L 54.296875 -12.890625 
L 43.5 -1.21875 
Q 41.890625 -1.3125 41.03125 -1.359375 
Q 40.1875 -1.421875 39.40625 -1.421875 
Q 24.03125 -1.421875 14.8125 8.859375 
Q 5.609375 19.140625 5.609375 36.375 
Q 5.609375 53.65625 14.8125 63.9375 
Q 24.03125 74.21875 39.40625 74.21875 
Q 54.734375 74.21875 63.90625 63.9375 
Q 73.09375 53.65625 73.09375 36.375 
Q 73.09375 23.6875 67.984375 14.640625 
Q 62.890625 5.609375 53.21875 1.3125 
z
" id="DejaVuSans-81"/>
     <path d="M 11.71875 12.40625 
L 22.015625 12.40625 
L 22.015625 0 
L 11.71875 0 
z
M 11.71875 51.703125 
L 22.015625 51.703125 
L 22.015625 39.3125 
L 11.71875 39.3125 
z
" id="DejaVuSans-58"/>
     <path d="M 53.515625 70.515625 
L 53.515625 60.890625 
Q 47.90625 63.578125 42.921875 64.890625 
Q 37.9375 66.21875 33.296875 66.21875 
Q 25.25 66.21875 20.875 63.09375 
Q 16.5 59.96875 16.5 54.203125 
Q 16.5 49.359375 19.40625 46.890625 
Q 22.3125 44.4375 30.421875 42.921875 
L 36.375 41.703125 
Q 47.40625 39.59375 52.65625 34.296875 
Q 57.90625 29 57.90625 20.125 
Q 57.90625 9.515625 50.796875 4.046875 
Q 43.703125 -1.421875 29.984375 -1.421875 
Q 24.8125 -1.421875 18.96875 -0.25 
Q 13.140625 0.921875 6.890625 3.21875 
L 6.890625 13.375 
Q 12.890625 10.015625 18.65625 8.296875 
Q 24.421875 6.59375 29.984375 6.59375 
Q 38.421875 6.59375 43.015625 9.90625 
Q 47.609375 13.234375 47.609375 19.390625 
Q 47.609375 24.75 44.3125 27.78125 
Q 41.015625 30.8125 33.5 32.328125 
L 27.484375 33.5 
Q 16.453125 35.6875 11.515625 40.375 
Q 6.59375 45.0625 6.59375 53.421875 
Q 6.59375 63.09375 13.40625 68.65625 
Q 20.21875 74.21875 32.171875 74.21875 
Q 37.3125 74.21875 42.625 73.28125 
Q 47.953125 72.359375 53.515625 70.515625 
z
" id="DejaVuSans-83"/>
     <path d="M 14.796875 27.296875 
Q 14.796875 17.390625 18.875 11.75 
Q 22.953125 6.109375 30.078125 6.109375 
Q 37.203125 6.109375 41.296875 11.75 
Q 45.40625 17.390625 45.40625 27.296875 
Q 45.40625 37.203125 41.296875 42.84375 
Q 37.203125 48.484375 30.078125 48.484375 
Q 22.953125 48.484375 18.875 42.84375 
Q 14.796875 37.203125 14.796875 27.296875 
z
M 45.40625 8.203125 
Q 42.578125 3.328125 38.25 0.953125 
Q 33.9375 -1.421875 27.875 -1.421875 
Q 17.96875 -1.421875 11.734375 6.484375 
Q 5.515625 14.40625 5.515625 27.296875 
Q 5.515625 40.1875 11.734375 48.09375 
Q 17.96875 56 27.875 56 
Q 33.9375 56 38.25 53.625 
Q 42.578125 51.265625 45.40625 46.390625 
L 45.40625 54.6875 
L 54.390625 54.6875 
L 54.390625 -20.796875 
L 45.40625 -20.796875 
z
" id="DejaVuSans-113"/>
     <path d="M 8.5 21.578125 
L 8.5 54.6875 
L 17.484375 54.6875 
L 17.484375 21.921875 
Q 17.484375 14.15625 20.5 10.265625 
Q 23.53125 6.390625 29.59375 6.390625 
Q 36.859375 6.390625 41.078125 11.03125 
Q 45.3125 15.671875 45.3125 23.6875 
L 45.3125 54.6875 
L 54.296875 54.6875 
L 54.296875 0 
L 45.3125 0 
L 45.3125 8.40625 
Q 42.046875 3.421875 37.71875 1 
Q 33.40625 -1.421875 27.6875 -1.421875 
Q 18.265625 -1.421875 13.375 4.4375 
Q 8.5 10.296875 8.5 21.578125 
z
M 31.109375 56 
z
" id="DejaVuSans-117"/>
     <path d="M 30.609375 48.390625 
Q 23.390625 48.390625 19.1875 42.75 
Q 14.984375 37.109375 14.984375 27.296875 
Q 14.984375 17.484375 19.15625 11.84375 
Q 23.34375 6.203125 30.609375 6.203125 
Q 37.796875 6.203125 41.984375 11.859375 
Q 46.1875 17.53125 46.1875 27.296875 
Q 46.1875 37.015625 41.984375 42.703125 
Q 37.796875 48.390625 30.609375 48.390625 
z
M 30.609375 56 
Q 42.328125 56 49.015625 48.375 
Q 55.71875 40.765625 55.71875 27.296875 
Q 55.71875 13.875 49.015625 6.21875 
Q 42.328125 -1.421875 30.609375 -1.421875 
Q 18.84375 -1.421875 12.171875 6.21875 
Q 5.515625 13.875 5.515625 27.296875 
Q 5.515625 40.765625 12.171875 48.375 
Q 18.84375 56 30.609375 56 
z
" id="DejaVuSans-111"/>
    </defs>
    <g transform="translate(371.574375 19.3575)scale(0.16 -0.16)">
     <use xlink:href="#DejaVuSans-70"/>
     <use x="57.378906" xlink:href="#DejaVuSans-97"/>
     <use x="118.658203" xlink:href="#DejaVuSans-115"/>
     <use x="170.757812" xlink:href="#DejaVuSans-116"/>
     <use x="209.966797" xlink:href="#DejaVuSans-81"/>
     <use x="288.677734" xlink:href="#DejaVuSans-67"/>
     <use x="358.501953" xlink:href="#DejaVuSans-58"/>
     <use x="392.193359" xlink:href="#DejaVuSans-32"/>
     <use x="423.980469" xlink:href="#DejaVuSans-80"/>
     <use x="484.236328" xlink:href="#DejaVuSans-101"/>
     <use x="545.759766" xlink:href="#DejaVuSans-114"/>
     <use x="586.873047" xlink:href="#DejaVuSans-32"/>
     <use x="618.660156" xlink:href="#DejaVuSans-83"/>
     <use x="682.136719" xlink:href="#DejaVuSans-101"/>
     <use x="743.660156" xlink:href="#DejaVuSans-113"/>
     <use x="807.136719" xlink:href="#DejaVuSans-117"/>
     <use x="870.515625" xlink:href="#DejaVuSans-101"/>
     <use x="932.039062" xlink:href="#DejaVuSans-110"/>
     <use x="995.417969" xlink:href="#DejaVuSans-99"/>
     <use x="1050.398438" xlink:href="#DejaVuSans-101"/>
     <use x="1111.921875" xlink:href="#DejaVuSans-32"/>
     <use x="1143.708984" xlink:href="#DejaVuSans-71"/>
     <use x="1221.199219" xlink:href="#DejaVuSans-67"/>
     <use x="1291.023438" xlink:href="#DejaVuSans-32"/>
     <use x="1322.810547" xlink:href="#DejaVuSans-67"/>
     <use x="1392.634766" xlink:href="#DejaVuSans-111"/>
     <use x="1453.816406" xlink:href="#DejaVuSans-110"/>
     <use x="1517.195312" xlink:href="#DejaVuSans-116"/>
     <use x="1556.404297" xlink:href="#DejaVuSans-101"/>
     <use x="1617.927734" xlink:href="#DejaVuSans-110"/>
     <use x="1681.306641" xlink:href="#DejaVuSans-116"/>
    </g>
   </g>
  </g>
 </g>
 <defs>
  <clipPath id="p06232076ed">
   <rect height="317.968" width="952.495" x="32.968125" y="35.2559"/>
  </clipPath>
 </defs>
</svg>
