<?xml version="1.0" encoding="utf-8" standalone="no"?>
<!DOCTYPE svg PUBLIC "-//W3C//DTD SVG 1.1//EN"
  "http://www.w3.org/Graphics/SVG/1.1/DTD/svg11.dtd">
<!-- Created with matplotlib (https://matplotlib.org/) -->
<svg height="388.844525pt" version="1.1" viewBox="0 0 1000.358125 388.844525" width="1000.358125pt" xmlns="http://www.w3.org/2000/svg" xmlns:xlink="http://www.w3.org/1999/xlink">
 <defs>
  <style type="text/css">
*{stroke-linecap:butt;stroke-linejoin:round;}
  </style>
 </defs>
 <g id="figure_1">
  <g id="axes_1">
   <g id="patch_1">
    <path d="M 32.968125 353.2239 
L 993.158125 353.2239 
L 993.158125 35.2559 
L 32.968125 35.2559 
z
" style="fill:#ffffff;"/>
   </g>
   <g id="matplotlib.axis_1">
    <g id="xtick_1">
     <g id="text_1">
      <!-- 0 -->
      <defs>
       <path d="M 31.78125 66.40625 
Q 24.171875 66.40625 20.328125 58.90625 
Q 16.5 51.421875 16.5 36.375 
Q 16.5 21.390625 20.328125 13.890625 
Q 24.171875 6.390625 31.78125 6.390625 
Q 39.453125 6.390625 43.28125 13.890625 
Q 47.125 21.390625 47.125 36.375 
Q 47.125 51.421875 43.28125 58.90625 
Q 39.453125 66.40625 31.78125 66.40625 
z
M 31.78125 74.21875 
Q 44.046875 74.21875 50.515625 64.515625 
Q 56.984375 54.828125 56.984375 36.375 
Q 56.984375 17.96875 50.515625 8.265625 
Q 44.046875 -1.421875 31.78125 -1.421875 
Q 19.53125 -1.421875 13.0625 8.265625 
Q 6.59375 17.96875 6.59375 36.375 
Q 6.59375 54.828125 13.0625 64.515625 
Q 19.53125 74.21875 31.78125 74.21875 
z
" id="DejaVuSans-48"/>
      </defs>
      <g transform="translate(68.209736 366.30265)scale(0.08 -0.08)">
       <use xlink:href="#DejaVuSans-48"/>
      </g>
     </g>
    </g>
    <g id="xtick_2">
     <g id="text_2">
      <!-- 20 -->
      <defs>
       <path d="M 19.1875 8.296875 
L 53.609375 8.296875 
L 53.609375 0 
L 7.328125 0 
L 7.328125 8.296875 
Q 12.9375 14.109375 22.625 23.890625 
Q 32.328125 33.6875 34.8125 36.53125 
Q 39.546875 41.84375 41.421875 45.53125 
Q 43.3125 49.21875 43.3125 52.78125 
Q 43.3125 58.59375 39.234375 62.25 
Q 35.15625 65.921875 28.609375 65.921875 
Q 23.96875 65.921875 18.8125 64.3125 
Q 13.671875 62.703125 7.8125 59.421875 
L 7.8125 69.390625 
Q 13.765625 71.78125 18.9375 73 
Q 24.125 74.21875 28.421875 74.21875 
Q 39.75 74.21875 46.484375 68.546875 
Q 53.21875 62.890625 53.21875 53.421875 
Q 53.21875 48.921875 51.53125 44.890625 
Q 49.859375 40.875 45.40625 35.40625 
Q 44.1875 33.984375 37.640625 27.21875 
Q 31.109375 20.453125 19.1875 8.296875 
z
" id="DejaVuSans-50"/>
      </defs>
      <g transform="translate(182.832521 366.30265)scale(0.08 -0.08)">
       <use xlink:href="#DejaVuSans-50"/>
       <use x="63.623047" xlink:href="#DejaVuSans-48"/>
      </g>
     </g>
    </g>
    <g id="xtick_3">
     <g id="text_3">
      <!-- 40 -->
      <defs>
       <path d="M 37.796875 64.3125 
L 12.890625 25.390625 
L 37.796875 25.390625 
z
M 35.203125 72.90625 
L 47.609375 72.90625 
L 47.609375 25.390625 
L 58.015625 25.390625 
L 58.015625 17.1875 
L 47.609375 17.1875 
L 47.609375 0 
L 37.796875 0 
L 37.796875 17.1875 
L 4.890625 17.1875 
L 4.890625 26.703125 
z
" id="DejaVuSans-52"/>
      </defs>
      <g transform="translate(300.000306 366.30265)scale(0.08 -0.08)">
       <use xlink:href="#DejaVuSans-52"/>
       <use x="63.623047" xlink:href="#DejaVuSans-48"/>
      </g>
     </g>
    </g>
    <g id="xtick_4">
     <g id="text_4">
      <!-- 60 -->
      <defs>
       <path d="M 33.015625 40.375 
Q 26.375 40.375 22.484375 35.828125 
Q 18.609375 31.296875 18.609375 23.390625 
Q 18.609375 15.53125 22.484375 10.953125 
Q 26.375 6.390625 33.015625 6.390625 
Q 39.65625 6.390625 43.53125 10.953125 
Q 47.40625 15.53125 47.40625 23.390625 
Q 47.40625 31.296875 43.53125 35.828125 
Q 39.65625 40.375 33.015625 40.375 
z
M 52.59375 71.296875 
L 52.59375 62.3125 
Q 48.875 64.0625 45.09375 64.984375 
Q 41.3125 65.921875 37.59375 65.921875 
Q 27.828125 65.921875 22.671875 59.328125 
Q 17.53125 52.734375 16.796875 39.40625 
Q 19.671875 43.65625 24.015625 45.921875 
Q 28.375 48.1875 33.59375 48.1875 
Q 44.578125 48.1875 50.953125 41.515625 
Q 57.328125 34.859375 57.328125 23.390625 
Q 57.328125 12.15625 50.6875 5.359375 
Q 44.046875 -1.421875 33.015625 -1.421875 
Q 20.359375 -1.421875 13.671875 8.265625 
Q 6.984375 17.96875 6.984375 36.375 
Q 6.984375 53.65625 15.1875 63.9375 
Q 23.390625 74.21875 37.203125 74.21875 
Q 40.921875 74.21875 44.703125 73.484375 
Q 48.484375 72.75 52.59375 71.296875 
z
" id="DejaVuSans-54"/>
      </defs>
      <g transform="translate(417.168091 366.30265)scale(0.08 -0.08)">
       <use xlink:href="#DejaVuSans-54"/>
       <use x="63.623047" xlink:href="#DejaVuSans-48"/>
      </g>
     </g>
    </g>
    <g id="xtick_5">
     <g id="text_5">
      <!-- 80 -->
      <defs>
       <path d="M 31.78125 34.625 
Q 24.75 34.625 20.71875 30.859375 
Q 16.703125 27.09375 16.703125 20.515625 
Q 16.703125 13.921875 20.71875 10.15625 
Q 24.75 6.390625 31.78125 6.390625 
Q 38.8125 6.390625 42.859375 10.171875 
Q 46.921875 13.96875 46.921875 20.515625 
Q 46.921875 27.09375 42.890625 30.859375 
Q 38.875 34.625 31.78125 34.625 
z
M 21.921875 38.8125 
Q 15.578125 40.375 12.03125 44.71875 
Q 8.5 49.078125 8.5 55.328125 
Q 8.5 64.0625 14.71875 69.140625 
Q 20.953125 74.21875 31.78125 74.21875 
Q 42.671875 74.21875 48.875 69.140625 
Q 55.078125 64.0625 55.078125 55.328125 
Q 55.078125 49.078125 51.53125 44.71875 
Q 48 40.375 41.703125 38.8125 
Q 48.828125 37.15625 52.796875 32.3125 
Q 56.78125 27.484375 56.78125 20.515625 
Q 56.78125 9.90625 50.3125 4.234375 
Q 43.84375 -1.421875 31.78125 -1.421875 
Q 19.734375 -1.421875 13.25 4.234375 
Q 6.78125 9.90625 6.78125 20.515625 
Q 6.78125 27.484375 10.78125 32.3125 
Q 14.796875 37.15625 21.921875 38.8125 
z
M 18.3125 54.390625 
Q 18.3125 48.734375 21.84375 45.5625 
Q 25.390625 42.390625 31.78125 42.390625 
Q 38.140625 42.390625 41.71875 45.5625 
Q 45.3125 48.734375 45.3125 54.390625 
Q 45.3125 60.0625 41.71875 63.234375 
Q 38.140625 66.40625 31.78125 66.40625 
Q 25.390625 66.40625 21.84375 63.234375 
Q 18.3125 60.0625 18.3125 54.390625 
z
" id="DejaVuSans-56"/>
      </defs>
      <g transform="translate(534.335877 366.30265)scale(0.08 -0.08)">
       <use xlink:href="#DejaVuSans-56"/>
       <use x="63.623047" xlink:href="#DejaVuSans-48"/>
      </g>
     </g>
    </g>
    <g id="xtick_6">
     <g id="text_6">
      <!-- 100 -->
      <defs>
       <path d="M 12.40625 8.296875 
L 28.515625 8.296875 
L 28.515625 63.921875 
L 10.984375 60.40625 
L 10.984375 69.390625 
L 28.421875 72.90625 
L 38.28125 72.90625 
L 38.28125 8.296875 
L 54.390625 8.296875 
L 54.390625 0 
L 12.40625 0 
z
" id="DejaVuSans-49"/>
      </defs>
      <g transform="translate(648.958662 366.30265)scale(0.08 -0.08)">
       <use xlink:href="#DejaVuSans-49"/>
       <use x="63.623047" xlink:href="#DejaVuSans-48"/>
       <use x="127.246094" xlink:href="#DejaVuSans-48"/>
      </g>
     </g>
    </g>
    <g id="xtick_7">
     <g id="text_7">
      <!-- 120 -->
      <g transform="translate(766.126447 366.30265)scale(0.08 -0.08)">
       <use xlink:href="#DejaVuSans-49"/>
       <use x="63.623047" xlink:href="#DejaVuSans-50"/>
       <use x="127.246094" xlink:href="#DejaVuSans-48"/>
      </g>
     </g>
    </g>
    <g id="xtick_8">
     <g id="text_8">
      <!-- 140 -->
      <g transform="translate(883.294232 366.30265)scale(0.08 -0.08)">
       <use xlink:href="#DejaVuSans-49"/>
       <use x="63.623047" xlink:href="#DejaVuSans-52"/>
       <use x="127.246094" xlink:href="#DejaVuSans-48"/>
      </g>
     </g>
    </g>
    <g id="text_9">
     <!-- Read Position -->
     <defs>
      <path d="M 44.390625 34.1875 
Q 47.5625 33.109375 50.5625 29.59375 
Q 53.5625 26.078125 56.59375 19.921875 
L 66.609375 0 
L 56 0 
L 46.6875 18.703125 
Q 43.0625 26.03125 39.671875 28.421875 
Q 36.28125 30.8125 30.421875 30.8125 
L 19.671875 30.8125 
L 19.671875 0 
L 9.8125 0 
L 9.8125 72.90625 
L 32.078125 72.90625 
Q 44.578125 72.90625 50.734375 67.671875 
Q 56.890625 62.453125 56.890625 51.90625 
Q 56.890625 45.015625 53.6875 40.46875 
Q 50.484375 35.9375 44.390625 34.1875 
z
M 19.671875 64.796875 
L 19.671875 38.921875 
L 32.078125 38.921875 
Q 39.203125 38.921875 42.84375 42.21875 
Q 46.484375 45.515625 46.484375 51.90625 
Q 46.484375 58.296875 42.84375 61.546875 
Q 39.203125 64.796875 32.078125 64.796875 
z
" id="DejaVuSans-82"/>
      <path d="M 56.203125 29.59375 
L 56.203125 25.203125 
L 14.890625 25.203125 
Q 15.484375 15.921875 20.484375 11.0625 
Q 25.484375 6.203125 34.421875 6.203125 
Q 39.59375 6.203125 44.453125 7.46875 
Q 49.3125 8.734375 54.109375 11.28125 
L 54.109375 2.78125 
Q 49.265625 0.734375 44.1875 -0.34375 
Q 39.109375 -1.421875 33.890625 -1.421875 
Q 20.796875 -1.421875 13.15625 6.1875 
Q 5.515625 13.8125 5.515625 26.8125 
Q 5.515625 40.234375 12.765625 48.109375 
Q 20.015625 56 32.328125 56 
Q 43.359375 56 49.78125 48.890625 
Q 56.203125 41.796875 56.203125 29.59375 
z
M 47.21875 32.234375 
Q 47.125 39.59375 43.09375 43.984375 
Q 39.0625 48.390625 32.421875 48.390625 
Q 24.90625 48.390625 20.390625 44.140625 
Q 15.875 39.890625 15.1875 32.171875 
z
" id="DejaVuSans-101"/>
      <path d="M 34.28125 27.484375 
Q 23.390625 27.484375 19.1875 25 
Q 14.984375 22.515625 14.984375 16.5 
Q 14.984375 11.71875 18.140625 8.90625 
Q 21.296875 6.109375 26.703125 6.109375 
Q 34.1875 6.109375 38.703125 11.40625 
Q 43.21875 16.703125 43.21875 25.484375 
L 43.21875 27.484375 
z
M 52.203125 31.203125 
L 52.203125 0 
L 43.21875 0 
L 43.21875 8.296875 
Q 40.140625 3.328125 35.546875 0.953125 
Q 30.953125 -1.421875 24.3125 -1.421875 
Q 15.921875 -1.421875 10.953125 3.296875 
Q 6 8.015625 6 15.921875 
Q 6 25.140625 12.171875 29.828125 
Q 18.359375 34.515625 30.609375 34.515625 
L 43.21875 34.515625 
L 43.21875 35.40625 
Q 43.21875 41.609375 39.140625 45 
Q 35.0625 48.390625 27.6875 48.390625 
Q 23 48.390625 18.546875 47.265625 
Q 14.109375 46.140625 10.015625 43.890625 
L 10.015625 52.203125 
Q 14.9375 54.109375 19.578125 55.046875 
Q 24.21875 56 28.609375 56 
Q 40.484375 56 46.34375 49.84375 
Q 52.203125 43.703125 52.203125 31.203125 
z
" id="DejaVuSans-97"/>
      <path d="M 45.40625 46.390625 
L 45.40625 75.984375 
L 54.390625 75.984375 
L 54.390625 0 
L 45.40625 0 
L 45.40625 8.203125 
Q 42.578125 3.328125 38.25 0.953125 
Q 33.9375 -1.421875 27.875 -1.421875 
Q 17.96875 -1.421875 11.734375 6.484375 
Q 5.515625 14.40625 5.515625 27.296875 
Q 5.515625 40.1875 11.734375 48.09375 
Q 17.96875 56 27.875 56 
Q 33.9375 56 38.25 53.625 
Q 42.578125 51.265625 45.40625 46.390625 
z
M 14.796875 27.296875 
Q 14.796875 17.390625 18.875 11.75 
Q 22.953125 6.109375 30.078125 6.109375 
Q 37.203125 6.109375 41.296875 11.75 
Q 45.40625 17.390625 45.40625 27.296875 
Q 45.40625 37.203125 41.296875 42.84375 
Q 37.203125 48.484375 30.078125 48.484375 
Q 22.953125 48.484375 18.875 42.84375 
Q 14.796875 37.203125 14.796875 27.296875 
z
" id="DejaVuSans-100"/>
      <path id="DejaVuSans-32"/>
      <path d="M 19.671875 64.796875 
L 19.671875 37.40625 
L 32.078125 37.40625 
Q 38.96875 37.40625 42.71875 40.96875 
Q 46.484375 44.53125 46.484375 51.125 
Q 46.484375 57.671875 42.71875 61.234375 
Q 38.96875 64.796875 32.078125 64.796875 
z
M 9.8125 72.90625 
L 32.078125 72.90625 
Q 44.34375 72.90625 50.609375 67.359375 
Q 56.890625 61.8125 56.890625 51.125 
Q 56.890625 40.328125 50.609375 34.8125 
Q 44.34375 29.296875 32.078125 29.296875 
L 19.671875 29.296875 
L 19.671875 0 
L 9.8125 0 
z
" id="DejaVuSans-80"/>
      <path d="M 30.609375 48.390625 
Q 23.390625 48.390625 19.1875 42.75 
Q 14.984375 37.109375 14.984375 27.296875 
Q 14.984375 17.484375 19.15625 11.84375 
Q 23.34375 6.203125 30.609375 6.203125 
Q 37.796875 6.203125 41.984375 11.859375 
Q 46.1875 17.53125 46.1875 27.296875 
Q 46.1875 37.015625 41.984375 42.703125 
Q 37.796875 48.390625 30.609375 48.390625 
z
M 30.609375 56 
Q 42.328125 56 49.015625 48.375 
Q 55.71875 40.765625 55.71875 27.296875 
Q 55.71875 13.875 49.015625 6.21875 
Q 42.328125 -1.421875 30.609375 -1.421875 
Q 18.84375 -1.421875 12.171875 6.21875 
Q 5.515625 13.875 5.515625 27.296875 
Q 5.515625 40.765625 12.171875 48.375 
Q 18.84375 56 30.609375 56 
z
" id="DejaVuSans-111"/>
      <path d="M 44.28125 53.078125 
L 44.28125 44.578125 
Q 40.484375 46.53125 36.375 47.5 
Q 32.28125 48.484375 27.875 48.484375 
Q 21.1875 48.484375 17.84375 46.4375 
Q 14.5 44.390625 14.5 40.28125 
Q 14.5 37.15625 16.890625 35.375 
Q 19.28125 33.59375 26.515625 31.984375 
L 29.59375 31.296875 
Q 39.15625 29.25 43.1875 25.515625 
Q 47.21875 21.78125 47.21875 15.09375 
Q 47.21875 7.46875 41.1875 3.015625 
Q 35.15625 -1.421875 24.609375 -1.421875 
Q 20.21875 -1.421875 15.453125 -0.5625 
Q 10.6875 0.296875 5.421875 2 
L 5.421875 11.28125 
Q 10.40625 8.6875 15.234375 7.390625 
Q 20.0625 6.109375 24.8125 6.109375 
Q 31.15625 6.109375 34.5625 8.28125 
Q 37.984375 10.453125 37.984375 14.40625 
Q 37.984375 18.0625 35.515625 20.015625 
Q 33.0625 21.96875 24.703125 23.78125 
L 21.578125 24.515625 
Q 13.234375 26.265625 9.515625 29.90625 
Q 5.8125 33.546875 5.8125 39.890625 
Q 5.8125 47.609375 11.28125 51.796875 
Q 16.75 56 26.8125 56 
Q 31.78125 56 36.171875 55.265625 
Q 40.578125 54.546875 44.28125 53.078125 
z
" id="DejaVuSans-115"/>
      <path d="M 9.421875 54.6875 
L 18.40625 54.6875 
L 18.40625 0 
L 9.421875 0 
z
M 9.421875 75.984375 
L 18.40625 75.984375 
L 18.40625 64.59375 
L 9.421875 64.59375 
z
" id="DejaVuSans-105"/>
      <path d="M 18.3125 70.21875 
L 18.3125 54.6875 
L 36.8125 54.6875 
L 36.8125 47.703125 
L 18.3125 47.703125 
L 18.3125 18.015625 
Q 18.3125 11.328125 20.140625 9.421875 
Q 21.96875 7.515625 27.59375 7.515625 
L 36.8125 7.515625 
L 36.8125 0 
L 27.59375 0 
Q 17.1875 0 13.234375 3.875 
Q 9.28125 7.765625 9.28125 18.015625 
L 9.28125 47.703125 
L 2.6875 47.703125 
L 2.6875 54.6875 
L 9.28125 54.6875 
L 9.28125 70.21875 
z
" id="DejaVuSans-116"/>
      <path d="M 54.890625 33.015625 
L 54.890625 0 
L 45.90625 0 
L 45.90625 32.71875 
Q 45.90625 40.484375 42.875 44.328125 
Q 39.84375 48.1875 33.796875 48.1875 
Q 26.515625 48.1875 22.3125 43.546875 
Q 18.109375 38.921875 18.109375 30.90625 
L 18.109375 0 
L 9.078125 0 
L 9.078125 54.6875 
L 18.109375 54.6875 
L 18.109375 46.1875 
Q 21.34375 51.125 25.703125 53.5625 
Q 30.078125 56 35.796875 56 
Q 45.21875 56 50.046875 50.171875 
Q 54.890625 44.34375 54.890625 33.015625 
z
" id="DejaVuSans-110"/>
     </defs>
     <g transform="translate(479.045156 379.564837)scale(0.1 -0.1)">
      <use xlink:href="#DejaVuSans-82"/>
      <use x="69.419922" xlink:href="#DejaVuSans-101"/>
      <use x="130.943359" xlink:href="#DejaVuSans-97"/>
      <use x="192.222656" xlink:href="#DejaVuSans-100"/>
      <use x="255.699219" xlink:href="#DejaVuSans-32"/>
      <use x="287.486328" xlink:href="#DejaVuSans-80"/>
      <use x="347.742188" xlink:href="#DejaVuSans-111"/>
      <use x="408.923828" xlink:href="#DejaVuSans-115"/>
      <use x="461.023438" xlink:href="#DejaVuSans-105"/>
      <use x="488.806641" xlink:href="#DejaVuSans-116"/>
      <use x="528.015625" xlink:href="#DejaVuSans-105"/>
      <use x="555.798828" xlink:href="#DejaVuSans-111"/>
      <use x="616.980469" xlink:href="#DejaVuSans-110"/>
     </g>
    </g>
   </g>
   <g id="matplotlib.axis_2">
    <g id="ytick_1">
     <g id="line2d_1">
      <path clip-path="url(#pa1f6af38a4)" d="M 32.968125 353.2239 
L 993.158125 353.2239 
" style="fill:none;stroke:#dedede;stroke-linecap:square;"/>
     </g>
     <g id="text_10">
      <!-- 0 -->
      <g transform="translate(20.878125 356.263275)scale(0.08 -0.08)">
       <use xlink:href="#DejaVuSans-48"/>
      </g>
     </g>
    </g>
    <g id="ytick_2">
     <g id="line2d_2">
      <path clip-path="url(#pa1f6af38a4)" d="M 32.968125 289.6303 
L 993.158125 289.6303 
" style="fill:none;stroke:#dedede;stroke-linecap:square;"/>
     </g>
     <g id="text_11">
      <!-- 1 -->
      <g transform="translate(20.878125 292.669675)scale(0.08 -0.08)">
       <use xlink:href="#DejaVuSans-49"/>
      </g>
     </g>
    </g>
    <g id="ytick_3">
     <g id="line2d_3">
      <path clip-path="url(#pa1f6af38a4)" d="M 32.968125 226.0367 
L 993.158125 226.0367 
" style="fill:none;stroke:#dedede;stroke-linecap:square;"/>
     </g>
     <g id="text_12">
      <!-- 2 -->
      <g transform="translate(20.878125 229.076075)scale(0.08 -0.08)">
       <use xlink:href="#DejaVuSans-50"/>
      </g>
     </g>
    </g>
    <g id="ytick_4">
     <g id="line2d_4">
      <path clip-path="url(#pa1f6af38a4)" d="M 32.968125 162.4431 
L 993.158125 162.4431 
" style="fill:none;stroke:#dedede;stroke-linecap:square;"/>
     </g>
     <g id="text_13">
      <!-- 3 -->
      <defs>
       <path d="M 40.578125 39.3125 
Q 47.65625 37.796875 51.625 33 
Q 55.609375 28.21875 55.609375 21.1875 
Q 55.609375 10.40625 48.1875 4.484375 
Q 40.765625 -1.421875 27.09375 -1.421875 
Q 22.515625 -1.421875 17.65625 -0.515625 
Q 12.796875 0.390625 7.625 2.203125 
L 7.625 11.71875 
Q 11.71875 9.328125 16.59375 8.109375 
Q 21.484375 6.890625 26.8125 6.890625 
Q 36.078125 6.890625 40.9375 10.546875 
Q 45.796875 14.203125 45.796875 21.1875 
Q 45.796875 27.640625 41.28125 31.265625 
Q 36.765625 34.90625 28.71875 34.90625 
L 20.21875 34.90625 
L 20.21875 43.015625 
L 29.109375 43.015625 
Q 36.375 43.015625 40.234375 45.921875 
Q 44.09375 48.828125 44.09375 54.296875 
Q 44.09375 59.90625 40.109375 62.90625 
Q 36.140625 65.921875 28.71875 65.921875 
Q 24.65625 65.921875 20.015625 65.03125 
Q 15.375 64.15625 9.8125 62.3125 
L 9.8125 71.09375 
Q 15.4375 72.65625 20.34375 73.4375 
Q 25.25 74.21875 29.59375 74.21875 
Q 40.828125 74.21875 47.359375 69.109375 
Q 53.90625 64.015625 53.90625 55.328125 
Q 53.90625 49.265625 50.4375 45.09375 
Q 46.96875 40.921875 40.578125 39.3125 
z
" id="DejaVuSans-51"/>
      </defs>
      <g transform="translate(20.878125 165.482475)scale(0.08 -0.08)">
       <use xlink:href="#DejaVuSans-51"/>
      </g>
     </g>
    </g>
    <g id="ytick_5">
     <g id="line2d_5">
      <path clip-path="url(#pa1f6af38a4)" d="M 32.968125 98.8495 
L 993.158125 98.8495 
" style="fill:none;stroke:#dedede;stroke-linecap:square;"/>
     </g>
     <g id="text_14">
      <!-- 4 -->
      <g transform="translate(20.878125 101.888875)scale(0.08 -0.08)">
       <use xlink:href="#DejaVuSans-52"/>
      </g>
     </g>
    </g>
    <g id="ytick_6">
     <g id="line2d_6">
      <path clip-path="url(#pa1f6af38a4)" d="M 32.968125 35.2559 
L 993.158125 35.2559 
" style="fill:none;stroke:#dedede;stroke-linecap:square;"/>
     </g>
     <g id="text_15">
      <!-- 5 -->
      <defs>
       <path d="M 10.796875 72.90625 
L 49.515625 72.90625 
L 49.515625 64.59375 
L 19.828125 64.59375 
L 19.828125 46.734375 
Q 21.96875 47.46875 24.109375 47.828125 
Q 26.265625 48.1875 28.421875 48.1875 
Q 40.625 48.1875 47.75 41.5 
Q 54.890625 34.8125 54.890625 23.390625 
Q 54.890625 11.625 47.5625 5.09375 
Q 40.234375 -1.421875 26.90625 -1.421875 
Q 22.3125 -1.421875 17.546875 -0.640625 
Q 12.796875 0.140625 7.71875 1.703125 
L 7.71875 11.625 
Q 12.109375 9.234375 16.796875 8.0625 
Q 21.484375 6.890625 26.703125 6.890625 
Q 35.15625 6.890625 40.078125 11.328125 
Q 45.015625 15.765625 45.015625 23.390625 
Q 45.015625 31 40.078125 35.4375 
Q 35.15625 39.890625 26.703125 39.890625 
Q 22.75 39.890625 18.8125 39.015625 
Q 14.890625 38.140625 10.796875 36.28125 
z
" id="DejaVuSans-53"/>
      </defs>
      <g transform="translate(20.878125 38.295275)scale(0.08 -0.08)">
       <use xlink:href="#DejaVuSans-53"/>
      </g>
     </g>
    </g>
    <g id="text_16">
     <!-- R1 Before filtering: Base Content Percent -->
     <defs>
      <path d="M 19.671875 34.8125 
L 19.671875 8.109375 
L 35.5 8.109375 
Q 43.453125 8.109375 47.28125 11.40625 
Q 51.125 14.703125 51.125 21.484375 
Q 51.125 28.328125 47.28125 31.5625 
Q 43.453125 34.8125 35.5 34.8125 
z
M 19.671875 64.796875 
L 19.671875 42.828125 
L 34.28125 42.828125 
Q 41.5 42.828125 45.03125 45.53125 
Q 48.578125 48.25 48.578125 53.8125 
Q 48.578125 59.328125 45.03125 62.0625 
Q 41.5 64.796875 34.28125 64.796875 
z
M 9.8125 72.90625 
L 35.015625 72.90625 
Q 46.296875 72.90625 52.390625 68.21875 
Q 58.5 63.53125 58.5 54.890625 
Q 58.5 48.1875 55.375 44.234375 
Q 52.25 40.28125 46.1875 39.3125 
Q 53.46875 37.75 57.5 32.78125 
Q 61.53125 27.828125 61.53125 20.40625 
Q 61.53125 10.640625 54.890625 5.3125 
Q 48.25 0 35.984375 0 
L 9.8125 0 
z
" id="DejaVuSans-66"/>
      <path d="M 37.109375 75.984375 
L 37.109375 68.5 
L 28.515625 68.5 
Q 23.6875 68.5 21.796875 66.546875 
Q 19.921875 64.59375 19.921875 59.515625 
L 19.921875 54.6875 
L 34.71875 54.6875 
L 34.71875 47.703125 
L 19.921875 47.703125 
L 19.921875 0 
L 10.890625 0 
L 10.890625 47.703125 
L 2.296875 47.703125 
L 2.296875 54.6875 
L 10.890625 54.6875 
L 10.890625 58.5 
Q 10.890625 67.625 15.140625 71.796875 
Q 19.390625 75.984375 28.609375 75.984375 
z
" id="DejaVuSans-102"/>
      <path d="M 41.109375 46.296875 
Q 39.59375 47.171875 37.8125 47.578125 
Q 36.03125 48 33.890625 48 
Q 26.265625 48 22.1875 43.046875 
Q 18.109375 38.09375 18.109375 28.8125 
L 18.109375 0 
L 9.078125 0 
L 9.078125 54.6875 
L 18.109375 54.6875 
L 18.109375 46.1875 
Q 20.953125 51.171875 25.484375 53.578125 
Q 30.03125 56 36.53125 56 
Q 37.453125 56 38.578125 55.875 
Q 39.703125 55.765625 41.0625 55.515625 
z
" id="DejaVuSans-114"/>
      <path d="M 9.421875 75.984375 
L 18.40625 75.984375 
L 18.40625 0 
L 9.421875 0 
z
" id="DejaVuSans-108"/>
      <path d="M 45.40625 27.984375 
Q 45.40625 37.75 41.375 43.109375 
Q 37.359375 48.484375 30.078125 48.484375 
Q 22.859375 48.484375 18.828125 43.109375 
Q 14.796875 37.75 14.796875 27.984375 
Q 14.796875 18.265625 18.828125 12.890625 
Q 22.859375 7.515625 30.078125 7.515625 
Q 37.359375 7.515625 41.375 12.890625 
Q 45.40625 18.265625 45.40625 27.984375 
z
M 54.390625 6.78125 
Q 54.390625 -7.171875 48.1875 -13.984375 
Q 42 -20.796875 29.203125 -20.796875 
Q 24.46875 -20.796875 20.265625 -20.09375 
Q 16.0625 -19.390625 12.109375 -17.921875 
L 12.109375 -9.1875 
Q 16.0625 -11.328125 19.921875 -12.34375 
Q 23.78125 -13.375 27.78125 -13.375 
Q 36.625 -13.375 41.015625 -8.765625 
Q 45.40625 -4.15625 45.40625 5.171875 
L 45.40625 9.625 
Q 42.625 4.78125 38.28125 2.390625 
Q 33.9375 0 27.875 0 
Q 17.828125 0 11.671875 7.65625 
Q 5.515625 15.328125 5.515625 27.984375 
Q 5.515625 40.671875 11.671875 48.328125 
Q 17.828125 56 27.875 56 
Q 33.9375 56 38.28125 53.609375 
Q 42.625 51.21875 45.40625 46.390625 
L 45.40625 54.6875 
L 54.390625 54.6875 
z
" id="DejaVuSans-103"/>
      <path d="M 11.71875 12.40625 
L 22.015625 12.40625 
L 22.015625 0 
L 11.71875 0 
z
M 11.71875 51.703125 
L 22.015625 51.703125 
L 22.015625 39.3125 
L 11.71875 39.3125 
z
" id="DejaVuSans-58"/>
      <path d="M 64.40625 67.28125 
L 64.40625 56.890625 
Q 59.421875 61.53125 53.78125 63.8125 
Q 48.140625 66.109375 41.796875 66.109375 
Q 29.296875 66.109375 22.65625 58.46875 
Q 16.015625 50.828125 16.015625 36.375 
Q 16.015625 21.96875 22.65625 14.328125 
Q 29.296875 6.6875 41.796875 6.6875 
Q 48.140625 6.6875 53.78125 8.984375 
Q 59.421875 11.28125 64.40625 15.921875 
L 64.40625 5.609375 
Q 59.234375 2.09375 53.4375 0.328125 
Q 47.65625 -1.421875 41.21875 -1.421875 
Q 24.65625 -1.421875 15.125 8.703125 
Q 5.609375 18.84375 5.609375 36.375 
Q 5.609375 53.953125 15.125 64.078125 
Q 24.65625 74.21875 41.21875 74.21875 
Q 47.75 74.21875 53.53125 72.484375 
Q 59.328125 70.75 64.40625 67.28125 
z
" id="DejaVuSans-67"/>
      <path d="M 48.78125 52.59375 
L 48.78125 44.1875 
Q 44.96875 46.296875 41.140625 47.34375 
Q 37.3125 48.390625 33.40625 48.390625 
Q 24.65625 48.390625 19.8125 42.84375 
Q 14.984375 37.3125 14.984375 27.296875 
Q 14.984375 17.28125 19.8125 11.734375 
Q 24.65625 6.203125 33.40625 6.203125 
Q 37.3125 6.203125 41.140625 7.25 
Q 44.96875 8.296875 48.78125 10.40625 
L 48.78125 2.09375 
Q 45.015625 0.34375 40.984375 -0.53125 
Q 36.96875 -1.421875 32.421875 -1.421875 
Q 20.0625 -1.421875 12.78125 6.34375 
Q 5.515625 14.109375 5.515625 27.296875 
Q 5.515625 40.671875 12.859375 48.328125 
Q 20.21875 56 33.015625 56 
Q 37.15625 56 41.109375 55.140625 
Q 45.0625 54.296875 48.78125 52.59375 
z
" id="DejaVuSans-99"/>
     </defs>
     <g transform="translate(14.798438 297.503181)rotate(-90)scale(0.1 -0.1)">
      <use xlink:href="#DejaVuSans-82"/>
      <use x="69.482422" xlink:href="#DejaVuSans-49"/>
      <use x="133.105469" xlink:href="#DejaVuSans-32"/>
      <use x="164.892578" xlink:href="#DejaVuSans-66"/>
      <use x="233.496094" xlink:href="#DejaVuSans-101"/>
      <use x="295.019531" xlink:href="#DejaVuSans-102"/>
      <use x="330.224609" xlink:href="#DejaVuSans-111"/>
      <use x="391.40625" xlink:href="#DejaVuSans-114"/>
      <use x="432.488281" xlink:href="#DejaVuSans-101"/>
      <use x="494.011719" xlink:href="#DejaVuSans-32"/>
      <use x="525.798828" xlink:href="#DejaVuSans-102"/>
      <use x="561.003906" xlink:href="#DejaVuSans-105"/>
      <use x="588.787109" xlink:href="#DejaVuSans-108"/>
      <use x="616.570312" xlink:href="#DejaVuSans-116"/>
      <use x="655.779297" xlink:href="#DejaVuSans-101"/>
      <use x="717.302734" xlink:href="#DejaVuSans-114"/>
      <use x="758.416016" xlink:href="#DejaVuSans-105"/>
      <use x="786.199219" xlink:href="#DejaVuSans-110"/>
      <use x="849.578125" xlink:href="#DejaVuSans-103"/>
      <use x="913.054688" xlink:href="#DejaVuSans-58"/>
      <use x="946.746094" xlink:href="#DejaVuSans-32"/>
      <use x="978.533203" xlink:href="#DejaVuSans-66"/>
      <use x="1047.136719" xlink:href="#DejaVuSans-97"/>
      <use x="1108.416016" xlink:href="#DejaVuSans-115"/>
      <use x="1160.515625" xlink:href="#DejaVuSans-101"/>
      <use x="1222.039062" xlink:href="#DejaVuSans-32"/>
      <use x="1253.826172" xlink:href="#DejaVuSans-67"/>
      <use x="1323.650391" xlink:href="#DejaVuSans-111"/>
      <use x="1384.832031" xlink:href="#DejaVuSans-110"/>
      <use x="1448.210938" xlink:href="#DejaVuSans-116"/>
      <use x="1487.419922" xlink:href="#DejaVuSans-101"/>
      <use x="1548.943359" xlink:href="#DejaVuSans-110"/>
      <use x="1612.322266" xlink:href="#DejaVuSans-116"/>
      <use x="1651.53125" xlink:href="#DejaVuSans-32"/>
      <use x="1683.318359" xlink:href="#DejaVuSans-80"/>
      <use x="1743.574219" xlink:href="#DejaVuSans-101"/>
      <use x="1805.097656" xlink:href="#DejaVuSans-114"/>
      <use x="1846.179688" xlink:href="#DejaVuSans-99"/>
      <use x="1901.160156" xlink:href="#DejaVuSans-101"/>
      <use x="1962.683594" xlink:href="#DejaVuSans-110"/>
      <use x="2026.0625" xlink:href="#DejaVuSans-116"/>
     </g>
    </g>
   </g>
   <g id="line2d_7">
    <path clip-path="url(#pa1f6af38a4)" d="M 76.613125 349.713107 
L 82.471514 353.205075 
L 100.046682 353.205075 
L 105.905071 352.998005 
L 117.62185 353.2239 
L 193.78091 353.205075 
L 199.639299 353.092128 
L 264.081581 353.2239 
L 269.939971 352.884896 
L 275.79836 353.2239 
L 281.656749 353.110766 
L 287.515138 352.837053 
L 293.373528 353.05393 
L 305.090306 353.148206 
L 316.807085 353.2239 
L 639.018494 353.2239 
L 644.876883 353.066449 
L 650.735273 353.2239 
L 949.513125 353.2239 
L 949.513125 353.2239 
" style="fill:none;stroke:#7cb5ec;stroke-linecap:square;"/>
   </g>
   <g id="line2d_8">
    <path clip-path="url(#pa1f6af38a4)" d="M 76.613125 349.729273 
L 82.471514 353.206276 
L 100.046682 353.212224 
L 105.905071 353.049863 
L 111.763461 353.1946 
L 135.197018 353.2239 
L 228.931246 353.221036 
L 234.789635 353.026951 
L 252.364803 353.223459 
L 269.939971 353.00745 
L 275.79836 353.223679 
L 281.656749 353.131313 
L 287.515138 352.913492 
L 299.231917 353.175234 
L 351.95742 353.2239 
L 375.390977 353.2239 
L 949.513125 353.2239 
L 949.513125 353.2239 
" style="fill:none;stroke:#434348;stroke-linecap:square;"/>
   </g>
   <g id="line2d_9">
    <path clip-path="url(#pa1f6af38a4)" d="M 76.613125 349.604388 
L 82.471514 353.207948 
L 100.046682 353.210607 
L 105.905071 353.047178 
L 111.763461 353.200598 
L 141.055407 353.2239 
L 228.931246 353.221711 
L 234.789635 353.020123 
L 246.506414 353.198095 
L 264.081581 353.223587 
L 269.939971 353.011298 
L 275.79836 353.223585 
L 281.656749 353.118551 
L 287.515138 352.898476 
L 299.231917 353.171181 
L 346.099031 353.2239 
L 949.513125 353.2239 
L 949.513125 353.2239 
" style="fill:none;stroke:#90ed7d;stroke-linecap:square;"/>
   </g>
   <g id="line2d_10">
    <path clip-path="url(#pa1f6af38a4)" d="M 76.613125 349.685762 
L 82.471514 353.208929 
L 100.046682 353.213474 
L 105.905071 353.062164 
L 111.763461 353.201979 
L 146.913796 353.2239 
L 228.931246 353.223098 
L 234.789635 353.020193 
L 246.506414 353.197434 
L 264.081581 353.2239 
L 269.939971 353.03499 
L 275.79836 353.2239 
L 281.656749 353.129758 
L 287.515138 352.923867 
L 299.231917 353.18051 
L 381.249367 353.2239 
L 480.841984 353.2239 
L 949.513125 353.2239 
L 949.513125 353.2239 
" style="fill:none;stroke:#f7a35c;stroke-linecap:square;"/>
   </g>
   <g id="line2d_11">
    <path clip-path="url(#pa1f6af38a4)" d="M 76.613125 347.534289 
L 82.471514 353.189182 
L 100.046682 353.196491 
L 105.905071 352.887228 
L 111.763461 353.175478 
L 129.338628 353.2239 
L 193.78091 353.218875 
L 205.497689 352.942959 
L 223.072857 353.209739 
L 228.931246 353.218418 
L 234.789635 352.697194 
L 246.506414 353.145785 
L 252.364803 353.2239 
L 258.223192 353.117919 
L 264.081581 353.22253 
L 269.939971 352.666745 
L 275.79836 353.2239 
L 281.656749 352.948823 
L 287.515138 352.381914 
L 293.373528 352.83873 
L 299.231917 353.066458 
L 322.665474 353.2239 
L 410.541313 353.2239 
L 422.258091 353.077737 
L 428.116481 353.2239 
L 457.408427 353.2239 
L 639.018494 353.2239 
L 644.876883 353.041451 
L 650.735273 353.2239 
L 949.513125 353.2239 
L 949.513125 353.2239 
" style="fill:none;stroke:#8085e9;stroke-linecap:square;"/>
   </g>
   <g id="line2d_12">
    <path clip-path="url(#pa1f6af38a4)" d="M 76.613125 349.514612 
L 82.471514 353.204047 
L 100.046682 353.213973 
L 105.905071 353.068381 
L 117.62185 353.2239 
L 228.931246 353.217282 
L 234.789635 353.018748 
L 252.364803 353.2239 
L 258.223192 353.16434 
L 264.081581 353.2239 
L 269.939971 353.091246 
L 275.79836 353.2239 
L 281.656749 353.140501 
L 287.515138 352.942661 
L 299.231917 353.176632 
L 416.399702 353.208016 
L 422.258091 353.159632 
L 433.97487 353.2239 
L 949.513125 353.2239 
L 949.513125 353.2239 
" style="fill:none;stroke:#f15c80;stroke-linecap:square;"/>
   </g>
   <g id="line2d_13">
    <path clip-path="url(#pa1f6af38a4)" d="M 76.613125 349.690582 
L 82.471514 353.21031 
L 100.046682 353.2239 
L 105.905071 353.115182 
L 117.62185 353.2239 
L 199.639299 353.169541 
L 205.497689 353.074414 
L 217.214467 353.183131 
L 228.931246 353.2239 
L 234.789635 353.088003 
L 252.364803 353.2239 
L 258.223192 353.155952 
L 264.081581 353.2239 
L 269.939971 353.019829 
L 275.79836 353.2239 
L 293.373528 353.100591 
L 310.948695 353.2239 
L 949.513125 353.2239 
L 949.513125 353.2239 
" style="fill:none;stroke:#e4d354;stroke-linecap:square;"/>
   </g>
   <g id="line2d_14">
    <path clip-path="url(#pa1f6af38a4)" d="M 76.613125 349.819843 
L 82.471514 353.220639 
L 100.046682 353.217379 
L 105.905071 353.054349 
L 111.763461 353.201076 
L 141.055407 353.2239 
L 228.931246 353.2239 
L 234.789635 353.05761 
L 252.364803 353.2239 
L 264.081581 353.2239 
L 269.939971 353.044497 
L 275.79836 353.2239 
L 281.656749 353.158597 
L 287.515138 352.942918 
L 299.231917 353.174824 
L 334.382253 353.2239 
L 398.824534 353.2239 
L 949.513125 353.2239 
L 949.513125 353.2239 
" style="fill:none;stroke:#2b908f;stroke-linecap:square;"/>
   </g>
   <g id="line2d_15">
    <path clip-path="url(#pa1f6af38a4)" d="M 76.613125 349.695447 
L 82.471514 353.214305 
L 100.046682 353.215904 
L 105.905071 353.047198 
L 111.763461 353.195915 
L 141.055407 353.2239 
L 228.931246 353.2231 
L 234.789635 353.044799 
L 252.364803 353.2239 
L 269.939971 353.039097 
L 275.79836 353.2239 
L 287.515138 352.939924 
L 299.231917 353.182069 
L 381.249367 353.2239 
L 498.417152 353.212511 
L 557.001044 353.2239 
L 949.513125 353.2239 
L 949.513125 353.2239 
" style="fill:none;stroke:#f45b5b;stroke-linecap:square;"/>
   </g>
   <g id="line2d_16">
    <path clip-path="url(#pa1f6af38a4)" d="M 76.613125 349.498549 
L 82.471514 353.207554 
L 100.046682 353.211603 
L 105.905071 353.048445 
L 111.763461 353.202305 
L 146.913796 353.2239 
L 228.931246 353.22225 
L 234.789635 353.024751 
L 246.506414 353.198406 
L 264.081581 353.2236 
L 269.939971 353.008945 
L 275.79836 353.223598 
L 287.515138 352.915628 
L 299.231917 353.175092 
L 375.390977 353.2239 
L 949.513125 353.2239 
L 949.513125 353.2239 
" style="fill:none;stroke:#91e8e1;stroke-linecap:square;"/>
   </g>
   <g id="line2d_17">
    <path clip-path="url(#pa1f6af38a4)" d="M 76.613125 349.559923 
L 82.471514 353.210968 
L 100.046682 353.210699 
L 105.905071 353.053633 
L 111.763461 353.206388 
L 152.772185 353.2239 
L 228.931246 353.221206 
L 234.789635 353.049592 
L 252.364803 353.2239 
L 269.939971 353.01794 
L 275.79836 353.2239 
L 287.515138 352.925384 
L 299.231917 353.17705 
L 381.249367 353.2239 
L 474.983595 353.218512 
L 598.009769 353.2239 
L 949.513125 353.2239 
L 949.513125 353.2239 
" style="fill:none;stroke:#7cb5ec;stroke-linecap:square;"/>
   </g>
   <g id="line2d_18">
    <path clip-path="url(#pa1f6af38a4)" d="M 76.613125 349.722233 
L 82.471514 353.212432 
L 100.046682 353.214784 
L 105.905071 353.050405 
L 111.763461 353.203904 
L 146.913796 353.2239 
L 228.931246 353.221548 
L 234.789635 353.037466 
L 246.506414 353.204198 
L 264.081581 353.223606 
L 269.939971 353.026788 
L 275.79836 353.2239 
L 281.656749 353.133471 
L 287.515138 352.931473 
L 299.231917 353.176946 
L 346.099031 353.2239 
L 949.513125 353.2239 
L 949.513125 353.2239 
" style="fill:none;stroke:#434348;stroke-linecap:square;"/>
   </g>
   <g id="line2d_19">
    <path clip-path="url(#pa1f6af38a4)" d="M 76.613125 349.780033 
L 82.471514 353.209938 
L 100.046682 353.210411 
L 105.905071 353.054227 
L 111.763461 353.203075 
L 146.913796 353.2239 
L 228.931246 353.222717 
L 234.789635 353.02725 
L 252.364803 353.2239 
L 269.939971 353.022633 
L 275.79836 353.2239 
L 281.656749 353.131864 
L 287.515138 352.914677 
L 299.231917 353.177445 
L 346.099031 353.2239 
L 949.513125 353.2239 
L 949.513125 353.2239 
" style="fill:none;stroke:#90ed7d;stroke-linecap:square;"/>
   </g>
   <g id="line2d_20">
    <path clip-path="url(#pa1f6af38a4)" d="M 76.613125 349.595605 
L 82.471514 353.209034 
L 100.046682 353.21454 
L 105.905071 353.049918 
L 111.763461 353.20463 
L 146.913796 353.2239 
L 228.931246 353.221698 
L 234.789635 353.024591 
L 252.364803 353.2239 
L 269.939971 353.026409 
L 275.79836 353.2239 
L 281.656749 353.140702 
L 287.515138 352.92667 
L 299.231917 353.164401 
L 334.382253 353.2239 
L 363.674199 353.2239 
L 949.513125 353.2239 
L 949.513125 353.2239 
" style="fill:none;stroke:#f7a35c;stroke-linecap:square;"/>
   </g>
   <g id="line2d_21">
    <path clip-path="url(#pa1f6af38a4)" d="M 76.613125 349.387349 
L 82.471514 353.199131 
L 100.046682 353.205947 
L 105.905071 352.989009 
L 111.763461 353.182507 
L 129.338628 353.2239 
L 193.78091 353.217084 
L 205.497689 353.040044 
L 228.931246 353.221406 
L 234.789635 352.814795 
L 246.506414 353.167879 
L 252.364803 353.223734 
L 258.223192 353.13646 
L 264.081581 353.2239 
L 269.939971 352.791615 
L 275.79836 353.2239 
L 281.656749 353.022156 
L 287.515138 352.569318 
L 293.373528 352.922334 
L 299.231917 353.108518 
L 322.665474 353.223731 
L 410.541313 353.2239 
L 422.258091 353.103957 
L 428.116481 353.2239 
L 474.983595 353.212221 
L 527.709098 353.21265 
L 551.142655 353.202634 
L 586.292991 353.2239 
L 639.018494 353.2239 
L 644.876883 353.081585 
L 650.735273 353.2239 
L 949.513125 353.2239 
L 949.513125 353.2239 
" style="fill:none;stroke:#8085e9;stroke-linecap:square;"/>
   </g>
   <g id="line2d_22">
    <path clip-path="url(#pa1f6af38a4)" d="M 76.613125 349.981727 
L 82.471514 353.20977 
L 100.046682 353.217063 
L 105.905071 353.056162 
L 111.763461 353.20111 
L 141.055407 353.2239 
L 228.931246 353.222533 
L 234.789635 353.021064 
L 246.506414 353.191537 
L 264.081581 353.223444 
L 269.939971 352.979854 
L 275.79836 353.223443 
L 281.656749 353.116025 
L 287.515138 352.872391 
L 299.231917 353.1555 
L 328.523863 353.2239 
L 949.513125 353.2239 
L 949.513125 353.2239 
" style="fill:none;stroke:#f15c80;stroke-linecap:square;"/>
   </g>
   <g id="line2d_23">
    <path clip-path="url(#pa1f6af38a4)" d="M 76.613125 350.02139 
L 82.471514 353.206575 
L 100.046682 353.209131 
L 105.905071 353.049233 
L 111.763461 353.201747 
L 146.913796 353.2239 
L 199.639299 353.140401 
L 217.214467 353.143809 
L 228.931246 353.222764 
L 234.789635 352.97113 
L 246.506414 353.192091 
L 264.081581 353.2239 
L 269.939971 352.940617 
L 275.79836 353.2239 
L 281.656749 353.107252 
L 287.515138 352.829508 
L 299.231917 353.158257 
L 351.95742 353.2239 
L 369.532588 353.2239 
L 949.513125 353.2239 
L 949.513125 353.2239 
" style="fill:none;stroke:#e4d354;stroke-linecap:square;"/>
   </g>
   <g id="line2d_24">
    <path clip-path="url(#pa1f6af38a4)" d="M 76.613125 349.59876 
L 82.471514 353.209745 
L 100.046682 353.210513 
L 105.905071 353.055355 
L 111.763461 353.198882 
L 141.055407 353.2239 
L 228.931246 353.221157 
L 234.789635 352.999064 
L 246.506414 353.19537 
L 264.081581 353.223461 
L 269.939971 352.979017 
L 275.79836 353.2239 
L 281.656749 353.109512 
L 287.515138 352.872594 
L 299.231917 353.167555 
L 351.95742 353.2239 
L 375.390977 353.2239 
L 949.513125 353.2239 
L 949.513125 353.2239 
" style="fill:none;stroke:#2b908f;stroke-linecap:square;"/>
   </g>
   <g id="line2d_25">
    <path clip-path="url(#pa1f6af38a4)" d="M 76.613125 349.44506 
L 82.471514 353.208621 
L 100.046682 353.213093 
L 105.905071 353.044647 
L 111.763461 353.202658 
L 146.913796 353.2239 
L 228.931246 353.221291 
L 234.789635 353.047256 
L 246.506414 353.203403 
L 264.081581 353.223527 
L 269.939971 353.017818 
L 275.79836 353.2239 
L 287.515138 352.931988 
L 299.231917 353.164599 
L 334.382253 353.2239 
L 357.81581 353.204356 
L 392.966145 353.22209 
L 873.354065 353.2239 
L 949.513125 353.2239 
L 949.513125 353.2239 
" style="fill:none;stroke:#f45b5b;stroke-linecap:square;"/>
   </g>
   <g id="line2d_26">
    <path clip-path="url(#pa1f6af38a4)" d="M 76.613125 349.596311 
L 82.471514 353.210709 
L 100.046682 353.21267 
L 105.905071 353.050284 
L 111.763461 353.19948 
L 141.055407 353.2239 
L 228.931246 353.222296 
L 234.789635 353.02105 
L 246.506414 353.195915 
L 264.081581 353.223722 
L 269.939971 353.005834 
L 275.79836 353.2239 
L 281.656749 353.130702 
L 287.515138 352.906679 
L 299.231917 353.170605 
L 351.95742 353.2239 
L 381.249367 353.2239 
L 445.691648 353.202025 
L 480.841984 353.2239 
L 949.513125 353.2239 
L 949.513125 353.2239 
" style="fill:none;stroke:#91e8e1;stroke-linecap:square;"/>
   </g>
   <g id="line2d_27">
    <path clip-path="url(#pa1f6af38a4)" d="M 76.613125 349.64407 
L 82.471514 353.20893 
L 100.046682 353.209871 
L 105.905071 353.047937 
L 111.763461 353.199606 
L 141.055407 353.2239 
L 199.639299 353.147509 
L 217.214467 353.144601 
L 228.931246 353.221163 
L 234.789635 352.997124 
L 246.506414 353.196098 
L 264.081581 353.223558 
L 269.939971 352.989025 
L 275.79836 353.223385 
L 281.656749 353.116284 
L 287.515138 352.88542 
L 299.231917 353.163931 
L 334.382253 353.2239 
L 369.532588 353.2239 
L 949.513125 353.2239 
L 949.513125 353.2239 
" style="fill:none;stroke:#7cb5ec;stroke-linecap:square;"/>
   </g>
   <g id="line2d_28">
    <path clip-path="url(#pa1f6af38a4)" d="M 76.613125 349.629558 
L 82.471514 353.211381 
L 100.046682 353.208745 
L 105.905071 353.076305 
L 117.62185 353.2239 
L 228.931246 353.2239 
L 234.789635 353.058514 
L 246.506414 353.205451 
L 264.081581 353.2239 
L 269.939971 353.041334 
L 275.79836 353.2239 
L 293.373528 353.091235 
L 305.090306 353.197475 
L 334.382253 353.2239 
L 363.674199 353.2239 
L 949.513125 353.2239 
L 949.513125 353.2239 
" style="fill:none;stroke:#434348;stroke-linecap:square;"/>
   </g>
   <g id="line2d_29">
    <path clip-path="url(#pa1f6af38a4)" d="M 76.613125 349.517461 
L 82.471514 353.210036 
L 100.046682 353.2239 
L 105.905071 353.052904 
L 111.763461 353.210036 
L 158.630575 353.2239 
L 182.064132 353.214657 
L 199.639299 353.177685 
L 211.356078 353.182307 
L 228.931246 353.2239 
L 234.789635 353.085255 
L 252.364803 353.2239 
L 293.373528 353.112488 
L 310.948695 353.2239 
L 949.513125 353.2239 
L 949.513125 353.2239 
" style="fill:none;stroke:#90ed7d;stroke-linecap:square;"/>
   </g>
   <g id="line2d_30">
    <path clip-path="url(#pa1f6af38a4)" d="M 76.613125 349.700662 
L 82.471514 353.211168 
L 100.046682 353.211445 
L 105.905071 353.069729 
L 117.62185 353.223623 
L 228.931246 353.222239 
L 234.789635 353.068345 
L 246.506414 353.20148 
L 264.081581 353.2239 
L 269.939971 353.042004 
L 275.79836 353.2239 
L 287.515138 352.962574 
L 299.231917 353.184518 
L 363.674199 353.2239 
L 949.513125 353.2239 
L 949.513125 353.2239 
" style="fill:none;stroke:#f7a35c;stroke-linecap:square;"/>
   </g>
   <g id="line2d_31">
    <path clip-path="url(#pa1f6af38a4)" d="M 76.613125 349.2264 
L 82.471514 353.186188 
L 100.046682 353.205044 
L 105.905071 353.073051 
L 117.62185 353.2239 
L 228.931246 353.2239 
L 234.789635 353.054195 
L 240.648024 353.073051 
L 246.506414 353.2239 
L 264.081581 353.2239 
L 269.939971 352.997499 
L 275.79836 353.2239 
L 287.515138 352.940198 
L 293.373528 353.129236 
L 299.231917 353.185993 
L 305.090306 353.129022 
L 316.807085 353.2239 
L 949.513125 353.2239 
L 949.513125 353.2239 
" style="fill:none;stroke:#8085e9;stroke-linecap:square;"/>
   </g>
   <g id="line2d_32">
    <path clip-path="url(#pa1f6af38a4)" d="M 76.613125 349.652681 
L 82.471514 353.206774 
L 100.046682 353.215061 
L 105.905071 353.060103 
L 111.763461 353.204289 
L 146.913796 353.2239 
L 228.931246 353.222243 
L 234.789635 353.059274 
L 252.364803 353.2239 
L 269.939971 353.042042 
L 275.79836 353.2239 
L 287.515138 352.950502 
L 299.231917 353.187271 
L 410.541313 353.2239 
L 433.97487 353.221896 
L 639.018494 353.2239 
L 650.735273 353.2239 
L 949.513125 353.2239 
L 949.513125 353.2239 
" style="fill:none;stroke:#f15c80;stroke-linecap:square;"/>
   </g>
   <g id="line2d_33">
    <path clip-path="url(#pa1f6af38a4)" d="M 76.613125 349.538708 
L 82.471514 353.205553 
L 100.046682 353.208174 
L 105.905071 353.095469 
L 117.62185 353.2239 
L 281.656749 353.170986 
L 287.515138 352.990101 
L 299.231917 353.191721 
L 351.95742 353.2239 
L 404.682924 353.2239 
L 949.513125 353.2239 
L 949.513125 353.2239 
" style="fill:none;stroke:#e4d354;stroke-linecap:square;"/>
   </g>
   <g id="line2d_34">
    <path clip-path="url(#pa1f6af38a4)" d="M 76.613125 349.322871 
L 82.471514 353.2239 
L 100.046682 353.202466 
L 105.905071 353.030992 
L 111.763461 353.202466 
L 146.913796 353.2239 
L 211.356078 353.202466 
L 217.214467 353.07386 
L 228.931246 353.2239 
L 234.789635 353.095295 
L 246.506414 353.2239 
L 264.081581 353.2239 
L 269.939971 353.073782 
L 275.79836 353.2239 
L 287.515138 352.965859 
L 299.231917 353.202351 
L 334.382253 353.2239 
L 363.674199 353.2239 
L 949.513125 353.2239 
L 949.513125 353.2239 
" style="fill:none;stroke:#2b908f;stroke-linecap:square;"/>
   </g>
   <g id="line2d_35">
    <path clip-path="url(#pa1f6af38a4)" d="M 76.613125 349.690989 
L 82.471514 353.212002 
L 100.046682 353.211364 
L 105.905071 353.057538 
L 111.763461 353.199254 
L 141.055407 353.2239 
L 228.931246 353.222838 
L 234.789635 353.059663 
L 246.506414 353.203291 
L 264.081581 353.2239 
L 269.939971 353.048522 
L 275.79836 353.2239 
L 287.515138 352.973577 
L 299.231917 353.188256 
L 381.249367 353.2239 
L 592.15138 353.2239 
L 949.513125 353.2239 
L 949.513125 353.2239 
" style="fill:none;stroke:#f45b5b;stroke-linecap:square;"/>
   </g>
   <g id="line2d_36">
    <path clip-path="url(#pa1f6af38a4)" d="M 76.613125 349.743028 
L 82.471514 353.211057 
L 100.046682 353.210871 
L 105.905071 353.061592 
L 111.763461 353.203239 
L 146.913796 353.2239 
L 228.931246 353.222783 
L 234.789635 353.064384 
L 252.364803 353.2239 
L 269.939971 353.035664 
L 275.79836 353.223714 
L 287.515138 352.952851 
L 299.231917 353.18471 
L 375.390977 353.2239 
L 949.513125 353.2239 
L 949.513125 353.2239 
" style="fill:none;stroke:#91e8e1;stroke-linecap:square;"/>
   </g>
   <g id="line2d_37">
    <path clip-path="url(#pa1f6af38a4)" d="M 76.613125 349.548705 
L 82.471514 353.207069 
L 100.046682 353.21276 
L 105.905071 353.054259 
L 111.763461 353.199925 
L 141.055407 353.2239 
L 228.931246 353.22172 
L 234.789635 353.045419 
L 246.506414 353.202589 
L 264.081581 353.223537 
L 269.939971 353.034246 
L 275.79836 353.2239 
L 287.515138 352.943509 
L 299.231917 353.17993 
L 340.240642 353.210714 
L 392.966145 353.222972 
L 949.513125 353.2239 
L 949.513125 353.2239 
" style="fill:none;stroke:#7cb5ec;stroke-linecap:square;"/>
   </g>
   <g id="line2d_38">
    <path clip-path="url(#pa1f6af38a4)" d="M 76.613125 349.736948 
L 82.471514 353.206898 
L 100.046682 353.210617 
L 105.905071 353.062384 
L 111.763461 353.204773 
L 146.913796 353.2239 
L 228.931246 353.222306 
L 234.789635 353.049101 
L 246.506414 353.205304 
L 264.081581 353.2239 
L 269.939971 353.059149 
L 275.79836 353.2239 
L 281.656749 353.140935 
L 287.515138 352.942451 
L 299.231917 353.194613 
L 416.399702 353.197969 
L 439.833259 353.2239 
L 510.13393 353.220596 
L 639.018494 353.2239 
L 650.735273 353.2239 
L 949.513125 353.2239 
L 949.513125 353.2239 
" style="fill:none;stroke:#434348;stroke-linecap:square;"/>
   </g>
   <g id="line2d_39">
    <path clip-path="url(#pa1f6af38a4)" d="M 76.613125 349.798787 
L 82.471514 353.211751 
L 100.046682 353.2108 
L 105.905071 353.054446 
L 111.763461 353.19601 
L 141.055407 353.2239 
L 228.931246 353.222315 
L 234.789635 353.025077 
L 246.506414 353.201081 
L 264.081581 353.223794 
L 269.939971 353.007682 
L 275.79836 353.2239 
L 281.656749 353.125338 
L 287.515138 352.903763 
L 299.231917 353.176677 
L 351.95742 353.2239 
L 381.249367 353.2239 
L 510.13393 353.22183 
L 826.486951 353.223776 
L 949.513125 353.2239 
L 949.513125 353.2239 
" style="fill:none;stroke:#90ed7d;stroke-linecap:square;"/>
   </g>
   <g id="line2d_40">
    <path clip-path="url(#pa1f6af38a4)" d="M 76.613125 349.69069 
L 82.471514 353.211659 
L 100.046682 353.214005 
L 105.905071 353.060379 
L 111.763461 353.200336 
L 141.055407 353.2239 
L 228.931246 353.222268 
L 234.789635 353.050382 
L 246.506414 353.204722 
L 264.081581 353.223696 
L 269.939971 353.035298 
L 275.79836 353.2239 
L 287.515138 352.956529 
L 299.231917 353.186626 
L 398.824534 353.223796 
L 949.513125 353.2239 
L 949.513125 353.2239 
" style="fill:none;stroke:#f7a35c;stroke-linecap:square;"/>
   </g>
   <g id="line2d_41">
    <path clip-path="url(#pa1f6af38a4)" d="M 76.613125 349.816644 
L 82.471514 353.211823 
L 100.046682 353.211044 
L 105.905071 353.060277 
L 111.763461 353.198967 
L 141.055407 353.2239 
L 228.931246 353.222829 
L 234.789635 353.048882 
L 246.506414 353.202473 
L 264.081581 353.223803 
L 269.939971 353.026133 
L 275.79836 353.223803 
L 281.656749 353.143373 
L 287.515138 352.948655 
L 299.231917 353.180841 
L 375.390977 353.2239 
L 949.513125 353.2239 
L 949.513125 353.2239 
" style="fill:none;stroke:#8085e9;stroke-linecap:square;"/>
   </g>
   <g id="line2d_42">
    <path clip-path="url(#pa1f6af38a4)" d="M 76.613125 349.599039 
L 82.471514 353.2074 
L 100.046682 353.208669 
L 105.905071 353.052557 
L 111.763461 353.208669 
L 158.630575 353.2239 
L 187.922521 353.2239 
L 228.931246 353.222631 
L 234.789635 353.058903 
L 246.506414 353.211208 
L 264.081581 353.222631 
L 269.939971 353.043596 
L 275.79836 353.2239 
L 281.656749 353.148906 
L 287.515138 352.956798 
L 299.231917 353.183141 
L 334.382253 353.2239 
L 387.107756 353.216125 
L 486.700373 353.2239 
L 504.275541 353.2239 
L 949.513125 353.2239 
L 949.513125 353.2239 
" style="fill:none;stroke:#f15c80;stroke-linecap:square;"/>
   </g>
   <g id="line2d_43">
    <path clip-path="url(#pa1f6af38a4)" d="M 76.613125 349.559751 
L 82.471514 353.210501 
L 100.046682 353.215373 
L 105.905071 353.053361 
L 111.763461 353.195883 
L 141.055407 353.2239 
L 228.931246 353.222682 
L 234.789635 353.07407 
L 252.364803 353.2239 
L 269.939971 353.0509 
L 275.79836 353.2239 
L 287.515138 352.998395 
L 299.231917 353.197072 
L 949.513125 353.2239 
L 949.513125 353.2239 
" style="fill:none;stroke:#e4d354;stroke-linecap:square;"/>
   </g>
   <g id="line2d_44">
    <path clip-path="url(#pa1f6af38a4)" d="M 76.613125 349.180791 
L 82.471514 353.21073 
L 100.046682 353.217315 
L 105.905071 353.072448 
L 117.62185 353.217315 
L 193.78091 353.2239 
L 205.497689 353.125127 
L 211.356078 353.190976 
L 217.214467 353.144882 
L 228.931246 353.217315 
L 234.789635 353.079033 
L 246.506414 353.204145 
L 264.081581 353.2239 
L 269.939971 353.098676 
L 275.79836 353.2239 
L 287.515138 352.999011 
L 305.090306 353.217255 
L 404.682924 353.2239 
L 949.513125 353.2239 
L 949.513125 353.2239 
" style="fill:none;stroke:#2b908f;stroke-linecap:square;"/>
   </g>
   <g id="line2d_45">
    <path clip-path="url(#pa1f6af38a4)" d="M 76.613125 349.662665 
L 82.471514 353.211886 
L 100.046682 353.212525 
L 105.905071 353.050337 
L 111.763461 353.198466 
L 141.055407 353.2239 
L 228.931246 353.221855 
L 234.789635 353.043691 
L 246.506414 353.201278 
L 264.081581 353.223644 
L 269.939971 353.031673 
L 275.79836 353.2239 
L 287.515138 352.945832 
L 299.231917 353.180953 
L 363.674199 353.2239 
L 949.513125 353.2239 
L 949.513125 353.2239 
" style="fill:none;stroke:#f45b5b;stroke-linecap:square;"/>
   </g>
   <g id="line2d_46">
    <path clip-path="url(#pa1f6af38a4)" d="M 76.613125 349.616483 
L 82.471514 353.209379 
L 100.046682 353.213174 
L 105.905071 353.060534 
L 111.763461 353.198322 
L 141.055407 353.2239 
L 228.931246 353.22192 
L 234.789635 353.053108 
L 246.506414 353.206243 
L 264.081581 353.223735 
L 269.939971 353.04674 
L 275.79836 353.2239 
L 287.515138 352.957991 
L 299.231917 353.185773 
L 369.532588 353.2239 
L 949.513125 353.2239 
L 949.513125 353.2239 
" style="fill:none;stroke:#91e8e1;stroke-linecap:square;"/>
   </g>
   <g id="line2d_47">
    <path clip-path="url(#pa1f6af38a4)" d="M 76.613125 349.590524 
L 82.471514 353.211815 
L 100.046682 353.212871 
L 105.905071 353.060805 
L 111.763461 353.200668 
L 141.055407 353.2239 
L 228.931246 353.22214 
L 234.789635 353.058928 
L 252.364803 353.2239 
L 269.939971 353.038959 
L 275.79836 353.2239 
L 287.515138 352.953258 
L 299.231917 353.188836 
L 392.966145 353.223536 
L 949.513125 353.2239 
L 949.513125 353.2239 
" style="fill:none;stroke:#7cb5ec;stroke-linecap:square;"/>
   </g>
   <g id="line2d_48">
    <path clip-path="url(#pa1f6af38a4)" d="M 76.613125 349.74119 
L 82.471514 353.210996 
L 100.046682 353.215144 
L 105.905071 353.063406 
L 111.763461 353.200627 
L 141.055407 353.2239 
L 228.931246 353.222057 
L 234.789635 353.052807 
L 246.506414 353.203968 
L 264.081581 353.2239 
L 269.939971 353.041808 
L 275.79836 353.2239 
L 287.515138 352.9522 
L 299.231917 353.185794 
L 381.249367 353.2239 
L 551.142655 353.2134 
L 615.584937 353.218111 
L 732.752722 353.2239 
L 949.513125 353.2239 
L 949.513125 353.2239 
" style="fill:none;stroke:#434348;stroke-linecap:square;"/>
   </g>
   <g id="line2d_49">
    <path clip-path="url(#pa1f6af38a4)" d="M 76.613125 349.779276 
L 82.471514 353.210505 
L 100.046682 353.212711 
L 105.905071 353.064418 
L 111.763461 353.200577 
L 141.055407 353.2239 
L 228.931246 353.222324 
L 234.789635 353.052126 
L 252.364803 353.2239 
L 269.939971 353.038055 
L 275.79836 353.223742 
L 281.656749 353.145195 
L 287.515138 352.952357 
L 299.231917 353.185844 
L 351.95742 353.2239 
L 381.249367 353.2239 
L 504.275541 353.2239 
L 949.513125 353.2239 
L 949.513125 353.2239 
" style="fill:none;stroke:#90ed7d;stroke-linecap:square;"/>
   </g>
   <g id="line2d_50">
    <path clip-path="url(#pa1f6af38a4)" d="M 76.613125 349.634162 
L 82.471514 353.208301 
L 100.046682 353.214412 
L 105.905071 353.060511 
L 111.763461 353.203959 
L 146.913796 353.2239 
L 228.931246 353.221488 
L 234.789635 353.050862 
L 252.364803 353.223739 
L 269.939971 353.034511 
L 275.79836 353.2239 
L 287.515138 352.94612 
L 299.231917 353.185095 
L 410.541313 353.2239 
L 428.116481 353.2239 
L 568.717823 353.2239 
L 949.513125 353.2239 
L 949.513125 353.2239 
" style="fill:none;stroke:#f7a35c;stroke-linecap:square;"/>
   </g>
   <g id="line2d_51">
    <path clip-path="url(#pa1f6af38a4)" d="M 76.613125 350.005091 
L 82.471514 353.2239 
L 100.046682 353.2239 
L 105.905071 353.077591 
L 117.62185 353.2239 
L 228.931246 353.2239 
L 234.789635 353.05669 
L 246.506414 353.202999 
L 264.081581 353.2239 
L 269.939971 353.077279 
L 275.79836 353.2239 
L 293.373528 353.054346 
L 299.231917 353.202629 
L 322.665474 353.2239 
L 949.513125 353.2239 
L 949.513125 353.2239 
" style="fill:none;stroke:#8085e9;stroke-linecap:square;"/>
   </g>
   <g id="line2d_52">
    <path clip-path="url(#pa1f6af38a4)" d="M 76.613125 349.772853 
L 82.471514 353.210455 
L 100.046682 353.212422 
L 105.905071 353.06693 
L 117.62185 353.223572 
L 228.931246 353.221714 
L 234.789635 353.053594 
L 246.506414 353.205645 
L 264.081581 353.223681 
L 269.939971 353.032336 
L 275.79836 353.2239 
L 287.515138 352.944776 
L 299.231917 353.18336 
L 381.249367 353.2239 
L 498.417152 353.216723 
L 592.15138 353.2239 
L 949.513125 353.2239 
L 949.513125 353.2239 
" style="fill:none;stroke:#f15c80;stroke-linecap:square;"/>
   </g>
   <g id="line2d_53">
    <path clip-path="url(#pa1f6af38a4)" d="M 76.613125 349.801172 
L 82.471514 353.210146 
L 100.046682 353.211865 
L 105.905071 353.062693 
L 111.763461 353.200508 
L 141.055407 353.2239 
L 228.931246 353.222362 
L 234.789635 353.043373 
L 246.506414 353.203314 
L 264.081581 353.223855 
L 269.939971 353.027811 
L 275.79836 353.2239 
L 287.515138 352.937726 
L 299.231917 353.18203 
L 375.390977 353.2239 
L 949.513125 353.2239 
L 949.513125 353.2239 
" style="fill:none;stroke:#e4d354;stroke-linecap:square;"/>
   </g>
   <g id="line2d_54">
    <path clip-path="url(#pa1f6af38a4)" d="M 76.613125 349.600496 
L 82.471514 353.210826 
L 100.046682 353.21161 
L 105.905071 353.056288 
L 111.763461 353.199582 
L 141.055407 353.2239 
L 228.931246 353.22207 
L 234.789635 353.056288 
L 246.506414 353.206903 
L 264.081581 353.2239 
L 269.939971 353.040235 
L 275.79836 353.2239 
L 287.515138 352.957253 
L 299.231917 353.188443 
L 381.249367 353.2239 
L 498.417152 353.21696 
L 598.009769 353.2239 
L 949.513125 353.2239 
L 949.513125 353.2239 
" style="fill:none;stroke:#2b908f;stroke-linecap:square;"/>
   </g>
   <g id="line2d_55">
    <path clip-path="url(#pa1f6af38a4)" d="M 76.613125 349.407515 
L 82.471514 353.201351 
L 100.046682 353.2239 
L 105.905071 353.122431 
L 117.62185 353.2239 
L 228.931246 353.2239 
L 234.789635 353.099882 
L 246.506414 353.212626 
L 264.081581 353.2239 
L 269.939971 353.088498 
L 275.79836 353.2239 
L 281.656749 353.156063 
L 287.515138 352.974852 
L 305.090306 353.218215 
L 416.399702 353.217921 
L 428.116481 353.2239 
L 949.513125 353.2239 
L 949.513125 353.2239 
" style="fill:none;stroke:#f45b5b;stroke-linecap:square;"/>
   </g>
   <g id="line2d_56">
    <path clip-path="url(#pa1f6af38a4)" d="M 76.613125 349.586632 
L 82.471514 353.21052 
L 100.046682 353.20993 
L 105.905071 353.059214 
L 111.763461 353.200092 
L 141.055407 353.2239 
L 228.931246 353.222916 
L 234.789635 353.048588 
L 252.364803 353.2239 
L 269.939971 353.029113 
L 275.79836 353.2239 
L 287.515138 352.942579 
L 299.231917 353.181916 
L 351.95742 353.2239 
L 381.249367 353.2239 
L 498.417152 353.216627 
L 592.15138 353.2239 
L 949.513125 353.2239 
L 949.513125 353.2239 
" style="fill:none;stroke:#91e8e1;stroke-linecap:square;"/>
   </g>
   <g id="line2d_57">
    <path clip-path="url(#pa1f6af38a4)" d="M 76.613125 349.909478 
L 82.471514 353.210358 
L 100.046682 353.212419 
L 105.905071 353.064192 
L 111.763461 353.202998 
L 146.913796 353.2239 
L 228.931246 353.221986 
L 234.789635 353.040052 
L 246.506414 353.202115 
L 264.081581 353.2239 
L 269.939971 353.019965 
L 275.79836 353.2239 
L 281.656749 353.136811 
L 287.515138 352.933918 
L 299.231917 353.18273 
L 404.682924 353.2239 
L 949.513125 353.2239 
L 949.513125 353.2239 
" style="fill:none;stroke:#7cb5ec;stroke-linecap:square;"/>
   </g>
   <g id="line2d_58">
    <path clip-path="url(#pa1f6af38a4)" d="M 76.613125 349.845852 
L 82.471514 353.211869 
L 100.046682 353.213681 
L 105.905071 353.059909 
L 111.763461 353.199013 
L 141.055407 353.2239 
L 228.931246 353.222252 
L 234.789635 353.036506 
L 246.506414 353.200496 
L 264.081581 353.2239 
L 269.939971 353.03841 
L 275.79836 353.2239 
L 287.515138 352.937705 
L 299.231917 353.177762 
L 334.382253 353.2239 
L 375.390977 353.2239 
L 949.513125 353.2239 
L 949.513125 353.2239 
" style="fill:none;stroke:#434348;stroke-linecap:square;"/>
   </g>
   <g id="line2d_59">
    <path clip-path="url(#pa1f6af38a4)" d="M 76.613125 349.558021 
L 82.471514 353.209599 
L 100.046682 353.214366 
L 105.905071 353.06182 
L 111.763461 353.204832 
L 146.913796 353.2239 
L 228.931246 353.219133 
L 234.789635 353.06182 
L 252.364803 353.2239 
L 269.939971 353.090259 
L 275.79836 353.2239 
L 293.373528 353.127815 
L 310.948695 353.2239 
L 949.513125 353.2239 
L 949.513125 353.2239 
" style="fill:none;stroke:#90ed7d;stroke-linecap:square;"/>
   </g>
   <g id="line2d_60">
    <path clip-path="url(#pa1f6af38a4)" d="M 76.613125 349.894807 
L 82.471514 353.200456 
L 100.046682 353.216085 
L 105.905071 353.106679 
L 117.62185 353.2239 
L 228.931246 353.2239 
L 234.789635 353.067605 
L 252.364803 353.2239 
L 269.939971 353.106511 
L 275.79836 353.2239 
L 293.373528 353.121365 
L 305.090306 353.192199 
L 328.523863 353.2239 
L 949.513125 353.2239 
L 949.513125 353.2239 
" style="fill:none;stroke:#f7a35c;stroke-linecap:square;"/>
   </g>
   <g id="line2d_61">
    <path clip-path="url(#pa1f6af38a4)" d="M 76.613125 349.473391 
L 82.471514 353.213285 
L 100.046682 353.213285 
L 105.905071 353.076474 
L 117.62185 353.2239 
L 228.931246 353.222721 
L 234.789635 353.036375 
L 246.506414 353.194415 
L 264.081581 353.222721 
L 269.939971 353.048885 
L 275.79836 353.2239 
L 287.515138 352.952628 
L 299.231917 353.186531 
L 410.541313 353.2239 
L 422.258091 353.182535 
L 439.833259 353.2239 
L 515.99232 353.222339 
L 937.796346 353.2239 
L 949.513125 353.2239 
L 949.513125 353.2239 
" style="fill:none;stroke:#8085e9;stroke-linecap:square;"/>
   </g>
   <g id="line2d_62">
    <path clip-path="url(#pa1f6af38a4)" d="M 76.613125 349.594244 
L 82.471514 353.209999 
L 100.046682 353.212635 
L 105.905071 353.052292 
L 111.763461 353.198255 
L 141.055407 353.2239 
L 228.931246 353.222462 
L 234.789635 353.061639 
L 252.364803 353.2239 
L 269.939971 353.034924 
L 275.79836 353.2239 
L 281.656749 353.142482 
L 287.515138 352.943843 
L 299.231917 353.187527 
L 392.966145 353.2239 
L 949.513125 353.2239 
L 949.513125 353.2239 
" style="fill:none;stroke:#f15c80;stroke-linecap:square;"/>
   </g>
   <g id="line2d_63">
    <path clip-path="url(#pa1f6af38a4)" d="M 76.613125 349.624216 
L 82.471514 353.209746 
L 100.046682 353.213438 
L 105.905071 353.061434 
L 111.763461 353.204412 
L 146.913796 353.2239 
L 228.931246 353.222669 
L 234.789635 353.055896 
L 246.506414 353.205233 
L 264.081581 353.223695 
L 269.939971 353.046483 
L 275.79836 353.2239 
L 287.515138 352.955499 
L 299.231917 353.187505 
L 398.824534 353.223685 
L 949.513125 353.2239 
L 949.513125 353.2239 
" style="fill:none;stroke:#e4d354;stroke-linecap:square;"/>
   </g>
   <g id="line2d_64">
    <path clip-path="url(#pa1f6af38a4)" d="M 76.613125 349.677151 
L 82.471514 353.211458 
L 100.046682 353.211159 
L 105.905071 353.063359 
L 117.62185 353.22375 
L 228.931246 353.222551 
L 234.789635 353.056014 
L 252.364803 353.2239 
L 269.939971 353.042467 
L 275.79836 353.2239 
L 287.515138 352.952461 
L 299.231917 353.185338 
L 404.682924 353.2239 
L 949.513125 353.2239 
L 949.513125 353.2239 
" style="fill:none;stroke:#2b908f;stroke-linecap:square;"/>
   </g>
   <g id="line2d_65">
    <path clip-path="url(#pa1f6af38a4)" d="M 76.613125 349.592419 
L 82.471514 353.199044 
L 100.046682 353.215615 
L 105.905071 353.062657 
L 117.62185 353.2239 
L 228.931246 353.221988 
L 234.789635 353.046724 
L 252.364803 353.2239 
L 269.939971 353.036681 
L 275.79836 353.2239 
L 281.656749 353.137711 
L 287.515138 352.939696 
L 299.231917 353.176297 
L 363.674199 353.2239 
L 949.513125 353.2239 
L 949.513125 353.2239 
" style="fill:none;stroke:#f45b5b;stroke-linecap:square;"/>
   </g>
   <g id="line2d_66">
    <path clip-path="url(#pa1f6af38a4)" d="M 76.613125 349.730354 
L 82.471514 353.210728 
L 100.046682 353.211547 
L 105.905071 353.055868 
L 111.763461 353.200087 
L 141.055407 353.2239 
L 228.931246 353.222263 
L 234.789635 353.049394 
L 246.506414 353.202766 
L 264.081581 353.223826 
L 269.939971 353.037757 
L 275.79836 353.223825 
L 287.515138 352.953884 
L 299.231917 353.186234 
L 398.824534 353.223748 
L 949.513125 353.2239 
L 949.513125 353.2239 
" style="fill:none;stroke:#91e8e1;stroke-linecap:square;"/>
   </g>
   <g id="line2d_67">
    <path clip-path="url(#pa1f6af38a4)" d="M 76.613125 349.694004 
L 82.471514 353.212221 
L 100.046682 353.21514 
L 105.905071 353.074987 
L 117.62185 353.223274 
L 228.931246 353.222023 
L 234.789635 353.061222 
L 246.506414 353.207007 
L 264.081581 353.223691 
L 269.939971 353.032577 
L 275.79836 353.2239 
L 287.515138 352.951235 
L 299.231917 353.186458 
L 375.390977 353.2239 
L 949.513125 353.2239 
L 949.513125 353.2239 
" style="fill:none;stroke:#7cb5ec;stroke-linecap:square;"/>
   </g>
   <g id="line2d_68">
    <path clip-path="url(#pa1f6af38a4)" d="M 76.613125 349.541646 
L 82.471514 353.211925 
L 100.046682 353.208115 
L 105.905071 353.059519 
L 117.62185 353.2239 
L 228.931246 353.223356 
L 234.789635 353.023594 
L 246.506414 353.202672 
L 264.081581 353.2239 
L 269.939971 353.060651 
L 275.79836 353.2239 
L 287.515138 352.936977 
L 299.231917 353.176404 
L 340.240642 353.209826 
L 387.107756 353.213846 
L 451.550038 353.2239 
L 949.513125 353.2239 
L 949.513125 353.2239 
" style="fill:none;stroke:#434348;stroke-linecap:square;"/>
   </g>
   <g id="line2d_69">
    <path clip-path="url(#pa1f6af38a4)" d="M 76.613125 349.738869 
L 82.471514 353.2239 
L 100.046682 353.2239 
L 105.905071 353.028112 
L 111.763461 353.197795 
L 141.055407 353.2239 
L 228.931246 353.2239 
L 234.789635 353.106427 
L 258.223192 353.210847 
L 264.081581 353.2239 
L 269.939971 353.106347 
L 275.79836 353.2239 
L 293.373528 353.14523 
L 310.948695 353.2239 
L 949.513125 353.2239 
L 949.513125 353.2239 
" style="fill:none;stroke:#90ed7d;stroke-linecap:square;"/>
   </g>
   <g id="line2d_70">
    <path clip-path="url(#pa1f6af38a4)" d="M 76.613125 349.79962 
L 82.471514 353.198774 
L 100.046682 353.220311 
L 105.905071 353.091092 
L 111.763461 353.213132 
L 170.347353 353.220311 
L 228.931246 353.220311 
L 234.789635 353.10545 
L 252.364803 353.2239 
L 293.373528 353.14108 
L 316.807085 353.2239 
L 949.513125 353.2239 
L 949.513125 353.2239 
" style="fill:none;stroke:#f7a35c;stroke-linecap:square;"/>
   </g>
   <g id="line2d_71">
    <path clip-path="url(#pa1f6af38a4)" d="M 76.613125 349.847862 
L 82.471514 353.209313 
L 100.046682 353.212181 
L 105.905071 353.076037 
L 117.62185 353.223651 
L 228.931246 353.221905 
L 234.789635 353.044869 
L 246.506414 353.200337 
L 264.081581 353.2239 
L 269.939971 353.028958 
L 275.79836 353.2239 
L 281.656749 353.143627 
L 287.515138 352.938225 
L 299.231917 353.179627 
L 351.95742 353.2239 
L 381.249367 353.2239 
L 498.417152 353.21532 
L 574.576212 353.2239 
L 949.513125 353.2239 
L 949.513125 353.2239 
" style="fill:none;stroke:#8085e9;stroke-linecap:square;"/>
   </g>
   <g id="line2d_72">
    <path clip-path="url(#pa1f6af38a4)" d="M 76.613125 349.726672 
L 82.471514 353.209505 
L 100.046682 353.21246 
L 105.905071 353.057833 
L 111.763461 353.20102 
L 141.055407 353.2239 
L 228.931246 353.221898 
L 234.789635 353.054115 
L 246.506414 353.205024 
L 264.081581 353.223805 
L 269.939971 353.038885 
L 275.79836 353.223805 
L 287.515138 352.949656 
L 299.231917 353.183916 
L 369.532588 353.2239 
L 949.513125 353.2239 
L 949.513125 353.2239 
" style="fill:none;stroke:#f15c80;stroke-linecap:square;"/>
   </g>
   <g id="line2d_73">
    <path clip-path="url(#pa1f6af38a4)" d="M 76.613125 349.78058 
L 82.471514 353.212062 
L 100.046682 353.212459 
L 105.905071 353.06902 
L 117.62185 353.223569 
L 228.931246 353.222445 
L 234.789635 353.057646 
L 246.506414 353.205383 
L 264.081581 353.223834 
L 269.939971 353.040801 
L 275.79836 353.2239 
L 287.515138 352.955212 
L 299.231917 353.187588 
L 392.966145 353.223633 
L 949.513125 353.2239 
L 949.513125 353.2239 
" style="fill:none;stroke:#e4d354;stroke-linecap:square;"/>
   </g>
   <g id="line2d_74">
    <path clip-path="url(#pa1f6af38a4)" d="M 76.613125 349.720802 
L 82.471514 353.210999 
L 100.046682 353.212878 
L 105.905071 353.070214 
L 117.62185 353.223524 
L 228.931246 353.222647 
L 234.789635 353.064828 
L 252.364803 353.2239 
L 269.939971 353.042476 
L 275.79836 353.2239 
L 287.515138 352.95721 
L 299.231917 353.18937 
L 410.541313 353.2239 
L 439.833259 353.2239 
L 533.567487 353.210508 
L 586.292991 353.2239 
L 949.513125 353.2239 
L 949.513125 353.2239 
" style="fill:none;stroke:#2b908f;stroke-linecap:square;"/>
   </g>
   <g id="line2d_75">
    <path clip-path="url(#pa1f6af38a4)" d="M 76.613125 349.776326 
L 82.471514 353.211703 
L 100.046682 353.212155 
L 105.905071 353.068958 
L 117.62185 353.223448 
L 228.931246 353.222771 
L 234.789635 353.061278 
L 246.506414 353.205266 
L 264.081581 353.2239 
L 269.939971 353.035021 
L 275.79836 353.2239 
L 287.515138 352.961311 
L 299.231917 353.188134 
L 381.249367 353.2239 
L 515.99232 353.2239 
L 949.513125 353.2239 
L 949.513125 353.2239 
" style="fill:none;stroke:#f45b5b;stroke-linecap:square;"/>
   </g>
   <g id="line2d_76">
    <path clip-path="url(#pa1f6af38a4)" d="M 32.968125 353.2239 
L 993.158125 353.2239 
" style="fill:none;stroke:#dedede;stroke-linecap:square;stroke-width:2;"/>
   </g>
   <g id="text_17">
    <!-- Fastp: Read N Content -->
    <defs>
     <path d="M 9.8125 72.90625 
L 51.703125 72.90625 
L 51.703125 64.59375 
L 19.671875 64.59375 
L 19.671875 43.109375 
L 48.578125 43.109375 
L 48.578125 34.8125 
L 19.671875 34.8125 
L 19.671875 0 
L 9.8125 0 
z
" id="DejaVuSans-70"/>
     <path d="M 18.109375 8.203125 
L 18.109375 -20.796875 
L 9.078125 -20.796875 
L 9.078125 54.6875 
L 18.109375 54.6875 
L 18.109375 46.390625 
Q 20.953125 51.265625 25.265625 53.625 
Q 29.59375 56 35.59375 56 
Q 45.5625 56 51.78125 48.09375 
Q 58.015625 40.1875 58.015625 27.296875 
Q 58.015625 14.40625 51.78125 6.484375 
Q 45.5625 -1.421875 35.59375 -1.421875 
Q 29.59375 -1.421875 25.265625 0.953125 
Q 20.953125 3.328125 18.109375 8.203125 
z
M 48.6875 27.296875 
Q 48.6875 37.203125 44.609375 42.84375 
Q 40.53125 48.484375 33.40625 48.484375 
Q 26.265625 48.484375 22.1875 42.84375 
Q 18.109375 37.203125 18.109375 27.296875 
Q 18.109375 17.390625 22.1875 11.75 
Q 26.265625 6.109375 33.40625 6.109375 
Q 40.53125 6.109375 44.609375 11.75 
Q 48.6875 17.390625 48.6875 27.296875 
z
" id="DejaVuSans-112"/>
     <path d="M 9.8125 72.90625 
L 23.09375 72.90625 
L 55.421875 11.921875 
L 55.421875 72.90625 
L 64.984375 72.90625 
L 64.984375 0 
L 51.703125 0 
L 19.390625 60.984375 
L 19.390625 0 
L 9.8125 0 
z
" id="DejaVuSans-78"/>
    </defs>
    <g transform="translate(422.606875 19.3575)scale(0.16 -0.16)">
     <use xlink:href="#DejaVuSans-70"/>
     <use x="57.378906" xlink:href="#DejaVuSans-97"/>
     <use x="118.658203" xlink:href="#DejaVuSans-115"/>
     <use x="170.757812" xlink:href="#DejaVuSans-116"/>
     <use x="209.966797" xlink:href="#DejaVuSans-112"/>
     <use x="273.443359" xlink:href="#DejaVuSans-58"/>
     <use x="307.134766" xlink:href="#DejaVuSans-32"/>
     <use x="338.921875" xlink:href="#DejaVuSans-82"/>
     <use x="408.341797" xlink:href="#DejaVuSans-101"/>
     <use x="469.865234" xlink:href="#DejaVuSans-97"/>
     <use x="531.144531" xlink:href="#DejaVuSans-100"/>
     <use x="594.621094" xlink:href="#DejaVuSans-32"/>
     <use x="626.408203" xlink:href="#DejaVuSans-78"/>
     <use x="701.212891" xlink:href="#DejaVuSans-32"/>
     <use x="733" xlink:href="#DejaVuSans-67"/>
     <use x="802.824219" xlink:href="#DejaVuSans-111"/>
     <use x="864.005859" xlink:href="#DejaVuSans-110"/>
     <use x="927.384766" xlink:href="#DejaVuSans-116"/>
     <use x="966.59375" xlink:href="#DejaVuSans-101"/>
     <use x="1028.117188" xlink:href="#DejaVuSans-110"/>
     <use x="1091.496094" xlink:href="#DejaVuSans-116"/>
    </g>
   </g>
  </g>
 </g>
 <defs>
  <clipPath id="pa1f6af38a4">
   <rect height="317.968" width="960.19" x="32.968125" y="35.2559"/>
  </clipPath>
 </defs>
</svg>
