<?xml version="1.0" encoding="utf-8" standalone="no"?>
<!DOCTYPE svg PUBLIC "-//W3C//DTD SVG 1.1//EN"
  "http://www.w3.org/Graphics/SVG/1.1/DTD/svg11.dtd">
<!-- Created with matplotlib (https://matplotlib.org/) -->
<svg height="388.844525pt" version="1.1" viewBox="0 0 1000.358125 388.844525" width="1000.358125pt" xmlns="http://www.w3.org/2000/svg" xmlns:xlink="http://www.w3.org/1999/xlink">
 <defs>
  <style type="text/css">
*{stroke-linecap:butt;stroke-linejoin:round;}
  </style>
 </defs>
 <g id="figure_1">
  <g id="axes_1">
   <g id="patch_1">
    <path d="M 32.968125 353.2239 
L 993.158125 353.2239 
L 993.158125 35.2559 
L 32.968125 35.2559 
z
" style="fill:#ffffff;"/>
   </g>
   <g id="matplotlib.axis_1">
    <g id="xtick_1">
     <g id="text_1">
      <!-- 0 -->
      <defs>
       <path d="M 31.78125 66.40625 
Q 24.171875 66.40625 20.328125 58.90625 
Q 16.5 51.421875 16.5 36.375 
Q 16.5 21.390625 20.328125 13.890625 
Q 24.171875 6.390625 31.78125 6.390625 
Q 39.453125 6.390625 43.28125 13.890625 
Q 47.125 21.390625 47.125 36.375 
Q 47.125 51.421875 43.28125 58.90625 
Q 39.453125 66.40625 31.78125 66.40625 
z
M 31.78125 74.21875 
Q 44.046875 74.21875 50.515625 64.515625 
Q 56.984375 54.828125 56.984375 36.375 
Q 56.984375 17.96875 50.515625 8.265625 
Q 44.046875 -1.421875 31.78125 -1.421875 
Q 19.53125 -1.421875 13.0625 8.265625 
Q 6.59375 17.96875 6.59375 36.375 
Q 6.59375 54.828125 13.0625 64.515625 
Q 19.53125 74.21875 31.78125 74.21875 
z
" id="DejaVuSans-48"/>
      </defs>
      <g transform="translate(68.209736 366.30265)scale(0.08 -0.08)">
       <use xlink:href="#DejaVuSans-48"/>
      </g>
     </g>
    </g>
    <g id="xtick_2">
     <g id="text_2">
      <!-- 20 -->
      <defs>
       <path d="M 19.1875 8.296875 
L 53.609375 8.296875 
L 53.609375 0 
L 7.328125 0 
L 7.328125 8.296875 
Q 12.9375 14.109375 22.625 23.890625 
Q 32.328125 33.6875 34.8125 36.53125 
Q 39.546875 41.84375 41.421875 45.53125 
Q 43.3125 49.21875 43.3125 52.78125 
Q 43.3125 58.59375 39.234375 62.25 
Q 35.15625 65.921875 28.609375 65.921875 
Q 23.96875 65.921875 18.8125 64.3125 
Q 13.671875 62.703125 7.8125 59.421875 
L 7.8125 69.390625 
Q 13.765625 71.78125 18.9375 73 
Q 24.125 74.21875 28.421875 74.21875 
Q 39.75 74.21875 46.484375 68.546875 
Q 53.21875 62.890625 53.21875 53.421875 
Q 53.21875 48.921875 51.53125 44.890625 
Q 49.859375 40.875 45.40625 35.40625 
Q 44.1875 33.984375 37.640625 27.21875 
Q 31.109375 20.453125 19.1875 8.296875 
z
" id="DejaVuSans-50"/>
      </defs>
      <g transform="translate(182.832521 366.30265)scale(0.08 -0.08)">
       <use xlink:href="#DejaVuSans-50"/>
       <use x="63.623047" xlink:href="#DejaVuSans-48"/>
      </g>
     </g>
    </g>
    <g id="xtick_3">
     <g id="text_3">
      <!-- 40 -->
      <defs>
       <path d="M 37.796875 64.3125 
L 12.890625 25.390625 
L 37.796875 25.390625 
z
M 35.203125 72.90625 
L 47.609375 72.90625 
L 47.609375 25.390625 
L 58.015625 25.390625 
L 58.015625 17.1875 
L 47.609375 17.1875 
L 47.609375 0 
L 37.796875 0 
L 37.796875 17.1875 
L 4.890625 17.1875 
L 4.890625 26.703125 
z
" id="DejaVuSans-52"/>
      </defs>
      <g transform="translate(300.000306 366.30265)scale(0.08 -0.08)">
       <use xlink:href="#DejaVuSans-52"/>
       <use x="63.623047" xlink:href="#DejaVuSans-48"/>
      </g>
     </g>
    </g>
    <g id="xtick_4">
     <g id="text_4">
      <!-- 60 -->
      <defs>
       <path d="M 33.015625 40.375 
Q 26.375 40.375 22.484375 35.828125 
Q 18.609375 31.296875 18.609375 23.390625 
Q 18.609375 15.53125 22.484375 10.953125 
Q 26.375 6.390625 33.015625 6.390625 
Q 39.65625 6.390625 43.53125 10.953125 
Q 47.40625 15.53125 47.40625 23.390625 
Q 47.40625 31.296875 43.53125 35.828125 
Q 39.65625 40.375 33.015625 40.375 
z
M 52.59375 71.296875 
L 52.59375 62.3125 
Q 48.875 64.0625 45.09375 64.984375 
Q 41.3125 65.921875 37.59375 65.921875 
Q 27.828125 65.921875 22.671875 59.328125 
Q 17.53125 52.734375 16.796875 39.40625 
Q 19.671875 43.65625 24.015625 45.921875 
Q 28.375 48.1875 33.59375 48.1875 
Q 44.578125 48.1875 50.953125 41.515625 
Q 57.328125 34.859375 57.328125 23.390625 
Q 57.328125 12.15625 50.6875 5.359375 
Q 44.046875 -1.421875 33.015625 -1.421875 
Q 20.359375 -1.421875 13.671875 8.265625 
Q 6.984375 17.96875 6.984375 36.375 
Q 6.984375 53.65625 15.1875 63.9375 
Q 23.390625 74.21875 37.203125 74.21875 
Q 40.921875 74.21875 44.703125 73.484375 
Q 48.484375 72.75 52.59375 71.296875 
z
" id="DejaVuSans-54"/>
      </defs>
      <g transform="translate(417.168091 366.30265)scale(0.08 -0.08)">
       <use xlink:href="#DejaVuSans-54"/>
       <use x="63.623047" xlink:href="#DejaVuSans-48"/>
      </g>
     </g>
    </g>
    <g id="xtick_5">
     <g id="text_5">
      <!-- 80 -->
      <defs>
       <path d="M 31.78125 34.625 
Q 24.75 34.625 20.71875 30.859375 
Q 16.703125 27.09375 16.703125 20.515625 
Q 16.703125 13.921875 20.71875 10.15625 
Q 24.75 6.390625 31.78125 6.390625 
Q 38.8125 6.390625 42.859375 10.171875 
Q 46.921875 13.96875 46.921875 20.515625 
Q 46.921875 27.09375 42.890625 30.859375 
Q 38.875 34.625 31.78125 34.625 
z
M 21.921875 38.8125 
Q 15.578125 40.375 12.03125 44.71875 
Q 8.5 49.078125 8.5 55.328125 
Q 8.5 64.0625 14.71875 69.140625 
Q 20.953125 74.21875 31.78125 74.21875 
Q 42.671875 74.21875 48.875 69.140625 
Q 55.078125 64.0625 55.078125 55.328125 
Q 55.078125 49.078125 51.53125 44.71875 
Q 48 40.375 41.703125 38.8125 
Q 48.828125 37.15625 52.796875 32.3125 
Q 56.78125 27.484375 56.78125 20.515625 
Q 56.78125 9.90625 50.3125 4.234375 
Q 43.84375 -1.421875 31.78125 -1.421875 
Q 19.734375 -1.421875 13.25 4.234375 
Q 6.78125 9.90625 6.78125 20.515625 
Q 6.78125 27.484375 10.78125 32.3125 
Q 14.796875 37.15625 21.921875 38.8125 
z
M 18.3125 54.390625 
Q 18.3125 48.734375 21.84375 45.5625 
Q 25.390625 42.390625 31.78125 42.390625 
Q 38.140625 42.390625 41.71875 45.5625 
Q 45.3125 48.734375 45.3125 54.390625 
Q 45.3125 60.0625 41.71875 63.234375 
Q 38.140625 66.40625 31.78125 66.40625 
Q 25.390625 66.40625 21.84375 63.234375 
Q 18.3125 60.0625 18.3125 54.390625 
z
" id="DejaVuSans-56"/>
      </defs>
      <g transform="translate(534.335877 366.30265)scale(0.08 -0.08)">
       <use xlink:href="#DejaVuSans-56"/>
       <use x="63.623047" xlink:href="#DejaVuSans-48"/>
      </g>
     </g>
    </g>
    <g id="xtick_6">
     <g id="text_6">
      <!-- 100 -->
      <defs>
       <path d="M 12.40625 8.296875 
L 28.515625 8.296875 
L 28.515625 63.921875 
L 10.984375 60.40625 
L 10.984375 69.390625 
L 28.421875 72.90625 
L 38.28125 72.90625 
L 38.28125 8.296875 
L 54.390625 8.296875 
L 54.390625 0 
L 12.40625 0 
z
" id="DejaVuSans-49"/>
      </defs>
      <g transform="translate(648.958662 366.30265)scale(0.08 -0.08)">
       <use xlink:href="#DejaVuSans-49"/>
       <use x="63.623047" xlink:href="#DejaVuSans-48"/>
       <use x="127.246094" xlink:href="#DejaVuSans-48"/>
      </g>
     </g>
    </g>
    <g id="xtick_7">
     <g id="text_7">
      <!-- 120 -->
      <g transform="translate(766.126447 366.30265)scale(0.08 -0.08)">
       <use xlink:href="#DejaVuSans-49"/>
       <use x="63.623047" xlink:href="#DejaVuSans-50"/>
       <use x="127.246094" xlink:href="#DejaVuSans-48"/>
      </g>
     </g>
    </g>
    <g id="xtick_8">
     <g id="text_8">
      <!-- 140 -->
      <g transform="translate(883.294232 366.30265)scale(0.08 -0.08)">
       <use xlink:href="#DejaVuSans-49"/>
       <use x="63.623047" xlink:href="#DejaVuSans-52"/>
       <use x="127.246094" xlink:href="#DejaVuSans-48"/>
      </g>
     </g>
    </g>
    <g id="text_9">
     <!-- Read Position -->
     <defs>
      <path d="M 44.390625 34.1875 
Q 47.5625 33.109375 50.5625 29.59375 
Q 53.5625 26.078125 56.59375 19.921875 
L 66.609375 0 
L 56 0 
L 46.6875 18.703125 
Q 43.0625 26.03125 39.671875 28.421875 
Q 36.28125 30.8125 30.421875 30.8125 
L 19.671875 30.8125 
L 19.671875 0 
L 9.8125 0 
L 9.8125 72.90625 
L 32.078125 72.90625 
Q 44.578125 72.90625 50.734375 67.671875 
Q 56.890625 62.453125 56.890625 51.90625 
Q 56.890625 45.015625 53.6875 40.46875 
Q 50.484375 35.9375 44.390625 34.1875 
z
M 19.671875 64.796875 
L 19.671875 38.921875 
L 32.078125 38.921875 
Q 39.203125 38.921875 42.84375 42.21875 
Q 46.484375 45.515625 46.484375 51.90625 
Q 46.484375 58.296875 42.84375 61.546875 
Q 39.203125 64.796875 32.078125 64.796875 
z
" id="DejaVuSans-82"/>
      <path d="M 56.203125 29.59375 
L 56.203125 25.203125 
L 14.890625 25.203125 
Q 15.484375 15.921875 20.484375 11.0625 
Q 25.484375 6.203125 34.421875 6.203125 
Q 39.59375 6.203125 44.453125 7.46875 
Q 49.3125 8.734375 54.109375 11.28125 
L 54.109375 2.78125 
Q 49.265625 0.734375 44.1875 -0.34375 
Q 39.109375 -1.421875 33.890625 -1.421875 
Q 20.796875 -1.421875 13.15625 6.1875 
Q 5.515625 13.8125 5.515625 26.8125 
Q 5.515625 40.234375 12.765625 48.109375 
Q 20.015625 56 32.328125 56 
Q 43.359375 56 49.78125 48.890625 
Q 56.203125 41.796875 56.203125 29.59375 
z
M 47.21875 32.234375 
Q 47.125 39.59375 43.09375 43.984375 
Q 39.0625 48.390625 32.421875 48.390625 
Q 24.90625 48.390625 20.390625 44.140625 
Q 15.875 39.890625 15.1875 32.171875 
z
" id="DejaVuSans-101"/>
      <path d="M 34.28125 27.484375 
Q 23.390625 27.484375 19.1875 25 
Q 14.984375 22.515625 14.984375 16.5 
Q 14.984375 11.71875 18.140625 8.90625 
Q 21.296875 6.109375 26.703125 6.109375 
Q 34.1875 6.109375 38.703125 11.40625 
Q 43.21875 16.703125 43.21875 25.484375 
L 43.21875 27.484375 
z
M 52.203125 31.203125 
L 52.203125 0 
L 43.21875 0 
L 43.21875 8.296875 
Q 40.140625 3.328125 35.546875 0.953125 
Q 30.953125 -1.421875 24.3125 -1.421875 
Q 15.921875 -1.421875 10.953125 3.296875 
Q 6 8.015625 6 15.921875 
Q 6 25.140625 12.171875 29.828125 
Q 18.359375 34.515625 30.609375 34.515625 
L 43.21875 34.515625 
L 43.21875 35.40625 
Q 43.21875 41.609375 39.140625 45 
Q 35.0625 48.390625 27.6875 48.390625 
Q 23 48.390625 18.546875 47.265625 
Q 14.109375 46.140625 10.015625 43.890625 
L 10.015625 52.203125 
Q 14.9375 54.109375 19.578125 55.046875 
Q 24.21875 56 28.609375 56 
Q 40.484375 56 46.34375 49.84375 
Q 52.203125 43.703125 52.203125 31.203125 
z
" id="DejaVuSans-97"/>
      <path d="M 45.40625 46.390625 
L 45.40625 75.984375 
L 54.390625 75.984375 
L 54.390625 0 
L 45.40625 0 
L 45.40625 8.203125 
Q 42.578125 3.328125 38.25 0.953125 
Q 33.9375 -1.421875 27.875 -1.421875 
Q 17.96875 -1.421875 11.734375 6.484375 
Q 5.515625 14.40625 5.515625 27.296875 
Q 5.515625 40.1875 11.734375 48.09375 
Q 17.96875 56 27.875 56 
Q 33.9375 56 38.25 53.625 
Q 42.578125 51.265625 45.40625 46.390625 
z
M 14.796875 27.296875 
Q 14.796875 17.390625 18.875 11.75 
Q 22.953125 6.109375 30.078125 6.109375 
Q 37.203125 6.109375 41.296875 11.75 
Q 45.40625 17.390625 45.40625 27.296875 
Q 45.40625 37.203125 41.296875 42.84375 
Q 37.203125 48.484375 30.078125 48.484375 
Q 22.953125 48.484375 18.875 42.84375 
Q 14.796875 37.203125 14.796875 27.296875 
z
" id="DejaVuSans-100"/>
      <path id="DejaVuSans-32"/>
      <path d="M 19.671875 64.796875 
L 19.671875 37.40625 
L 32.078125 37.40625 
Q 38.96875 37.40625 42.71875 40.96875 
Q 46.484375 44.53125 46.484375 51.125 
Q 46.484375 57.671875 42.71875 61.234375 
Q 38.96875 64.796875 32.078125 64.796875 
z
M 9.8125 72.90625 
L 32.078125 72.90625 
Q 44.34375 72.90625 50.609375 67.359375 
Q 56.890625 61.8125 56.890625 51.125 
Q 56.890625 40.328125 50.609375 34.8125 
Q 44.34375 29.296875 32.078125 29.296875 
L 19.671875 29.296875 
L 19.671875 0 
L 9.8125 0 
z
" id="DejaVuSans-80"/>
      <path d="M 30.609375 48.390625 
Q 23.390625 48.390625 19.1875 42.75 
Q 14.984375 37.109375 14.984375 27.296875 
Q 14.984375 17.484375 19.15625 11.84375 
Q 23.34375 6.203125 30.609375 6.203125 
Q 37.796875 6.203125 41.984375 11.859375 
Q 46.1875 17.53125 46.1875 27.296875 
Q 46.1875 37.015625 41.984375 42.703125 
Q 37.796875 48.390625 30.609375 48.390625 
z
M 30.609375 56 
Q 42.328125 56 49.015625 48.375 
Q 55.71875 40.765625 55.71875 27.296875 
Q 55.71875 13.875 49.015625 6.21875 
Q 42.328125 -1.421875 30.609375 -1.421875 
Q 18.84375 -1.421875 12.171875 6.21875 
Q 5.515625 13.875 5.515625 27.296875 
Q 5.515625 40.765625 12.171875 48.375 
Q 18.84375 56 30.609375 56 
z
" id="DejaVuSans-111"/>
      <path d="M 44.28125 53.078125 
L 44.28125 44.578125 
Q 40.484375 46.53125 36.375 47.5 
Q 32.28125 48.484375 27.875 48.484375 
Q 21.1875 48.484375 17.84375 46.4375 
Q 14.5 44.390625 14.5 40.28125 
Q 14.5 37.15625 16.890625 35.375 
Q 19.28125 33.59375 26.515625 31.984375 
L 29.59375 31.296875 
Q 39.15625 29.25 43.1875 25.515625 
Q 47.21875 21.78125 47.21875 15.09375 
Q 47.21875 7.46875 41.1875 3.015625 
Q 35.15625 -1.421875 24.609375 -1.421875 
Q 20.21875 -1.421875 15.453125 -0.5625 
Q 10.6875 0.296875 5.421875 2 
L 5.421875 11.28125 
Q 10.40625 8.6875 15.234375 7.390625 
Q 20.0625 6.109375 24.8125 6.109375 
Q 31.15625 6.109375 34.5625 8.28125 
Q 37.984375 10.453125 37.984375 14.40625 
Q 37.984375 18.0625 35.515625 20.015625 
Q 33.0625 21.96875 24.703125 23.78125 
L 21.578125 24.515625 
Q 13.234375 26.265625 9.515625 29.90625 
Q 5.8125 33.546875 5.8125 39.890625 
Q 5.8125 47.609375 11.28125 51.796875 
Q 16.75 56 26.8125 56 
Q 31.78125 56 36.171875 55.265625 
Q 40.578125 54.546875 44.28125 53.078125 
z
" id="DejaVuSans-115"/>
      <path d="M 9.421875 54.6875 
L 18.40625 54.6875 
L 18.40625 0 
L 9.421875 0 
z
M 9.421875 75.984375 
L 18.40625 75.984375 
L 18.40625 64.59375 
L 9.421875 64.59375 
z
" id="DejaVuSans-105"/>
      <path d="M 18.3125 70.21875 
L 18.3125 54.6875 
L 36.8125 54.6875 
L 36.8125 47.703125 
L 18.3125 47.703125 
L 18.3125 18.015625 
Q 18.3125 11.328125 20.140625 9.421875 
Q 21.96875 7.515625 27.59375 7.515625 
L 36.8125 7.515625 
L 36.8125 0 
L 27.59375 0 
Q 17.1875 0 13.234375 3.875 
Q 9.28125 7.765625 9.28125 18.015625 
L 9.28125 47.703125 
L 2.6875 47.703125 
L 2.6875 54.6875 
L 9.28125 54.6875 
L 9.28125 70.21875 
z
" id="DejaVuSans-116"/>
      <path d="M 54.890625 33.015625 
L 54.890625 0 
L 45.90625 0 
L 45.90625 32.71875 
Q 45.90625 40.484375 42.875 44.328125 
Q 39.84375 48.1875 33.796875 48.1875 
Q 26.515625 48.1875 22.3125 43.546875 
Q 18.109375 38.921875 18.109375 30.90625 
L 18.109375 0 
L 9.078125 0 
L 9.078125 54.6875 
L 18.109375 54.6875 
L 18.109375 46.1875 
Q 21.34375 51.125 25.703125 53.5625 
Q 30.078125 56 35.796875 56 
Q 45.21875 56 50.046875 50.171875 
Q 54.890625 44.34375 54.890625 33.015625 
z
" id="DejaVuSans-110"/>
     </defs>
     <g transform="translate(479.045156 379.564837)scale(0.1 -0.1)">
      <use xlink:href="#DejaVuSans-82"/>
      <use x="69.419922" xlink:href="#DejaVuSans-101"/>
      <use x="130.943359" xlink:href="#DejaVuSans-97"/>
      <use x="192.222656" xlink:href="#DejaVuSans-100"/>
      <use x="255.699219" xlink:href="#DejaVuSans-32"/>
      <use x="287.486328" xlink:href="#DejaVuSans-80"/>
      <use x="347.742188" xlink:href="#DejaVuSans-111"/>
      <use x="408.923828" xlink:href="#DejaVuSans-115"/>
      <use x="461.023438" xlink:href="#DejaVuSans-105"/>
      <use x="488.806641" xlink:href="#DejaVuSans-116"/>
      <use x="528.015625" xlink:href="#DejaVuSans-105"/>
      <use x="555.798828" xlink:href="#DejaVuSans-111"/>
      <use x="616.980469" xlink:href="#DejaVuSans-110"/>
     </g>
    </g>
   </g>
   <g id="matplotlib.axis_2">
    <g id="ytick_1">
     <g id="line2d_1">
      <path clip-path="url(#pb7b0cef8c6)" d="M 32.968125 353.2239 
L 993.158125 353.2239 
" style="fill:none;stroke:#dedede;stroke-linecap:square;"/>
     </g>
     <g id="text_10">
      <!-- 0 -->
      <g transform="translate(20.878125 356.263275)scale(0.08 -0.08)">
       <use xlink:href="#DejaVuSans-48"/>
      </g>
     </g>
    </g>
    <g id="ytick_2">
     <g id="line2d_2">
      <path clip-path="url(#pb7b0cef8c6)" d="M 32.968125 289.6303 
L 993.158125 289.6303 
" style="fill:none;stroke:#dedede;stroke-linecap:square;"/>
     </g>
     <g id="text_11">
      <!-- 1 -->
      <g transform="translate(20.878125 292.669675)scale(0.08 -0.08)">
       <use xlink:href="#DejaVuSans-49"/>
      </g>
     </g>
    </g>
    <g id="ytick_3">
     <g id="line2d_3">
      <path clip-path="url(#pb7b0cef8c6)" d="M 32.968125 226.0367 
L 993.158125 226.0367 
" style="fill:none;stroke:#dedede;stroke-linecap:square;"/>
     </g>
     <g id="text_12">
      <!-- 2 -->
      <g transform="translate(20.878125 229.076075)scale(0.08 -0.08)">
       <use xlink:href="#DejaVuSans-50"/>
      </g>
     </g>
    </g>
    <g id="ytick_4">
     <g id="line2d_4">
      <path clip-path="url(#pb7b0cef8c6)" d="M 32.968125 162.4431 
L 993.158125 162.4431 
" style="fill:none;stroke:#dedede;stroke-linecap:square;"/>
     </g>
     <g id="text_13">
      <!-- 3 -->
      <defs>
       <path d="M 40.578125 39.3125 
Q 47.65625 37.796875 51.625 33 
Q 55.609375 28.21875 55.609375 21.1875 
Q 55.609375 10.40625 48.1875 4.484375 
Q 40.765625 -1.421875 27.09375 -1.421875 
Q 22.515625 -1.421875 17.65625 -0.515625 
Q 12.796875 0.390625 7.625 2.203125 
L 7.625 11.71875 
Q 11.71875 9.328125 16.59375 8.109375 
Q 21.484375 6.890625 26.8125 6.890625 
Q 36.078125 6.890625 40.9375 10.546875 
Q 45.796875 14.203125 45.796875 21.1875 
Q 45.796875 27.640625 41.28125 31.265625 
Q 36.765625 34.90625 28.71875 34.90625 
L 20.21875 34.90625 
L 20.21875 43.015625 
L 29.109375 43.015625 
Q 36.375 43.015625 40.234375 45.921875 
Q 44.09375 48.828125 44.09375 54.296875 
Q 44.09375 59.90625 40.109375 62.90625 
Q 36.140625 65.921875 28.71875 65.921875 
Q 24.65625 65.921875 20.015625 65.03125 
Q 15.375 64.15625 9.8125 62.3125 
L 9.8125 71.09375 
Q 15.4375 72.65625 20.34375 73.4375 
Q 25.25 74.21875 29.59375 74.21875 
Q 40.828125 74.21875 47.359375 69.109375 
Q 53.90625 64.015625 53.90625 55.328125 
Q 53.90625 49.265625 50.4375 45.09375 
Q 46.96875 40.921875 40.578125 39.3125 
z
" id="DejaVuSans-51"/>
      </defs>
      <g transform="translate(20.878125 165.482475)scale(0.08 -0.08)">
       <use xlink:href="#DejaVuSans-51"/>
      </g>
     </g>
    </g>
    <g id="ytick_5">
     <g id="line2d_5">
      <path clip-path="url(#pb7b0cef8c6)" d="M 32.968125 98.8495 
L 993.158125 98.8495 
" style="fill:none;stroke:#dedede;stroke-linecap:square;"/>
     </g>
     <g id="text_14">
      <!-- 4 -->
      <g transform="translate(20.878125 101.888875)scale(0.08 -0.08)">
       <use xlink:href="#DejaVuSans-52"/>
      </g>
     </g>
    </g>
    <g id="ytick_6">
     <g id="line2d_6">
      <path clip-path="url(#pb7b0cef8c6)" d="M 32.968125 35.2559 
L 993.158125 35.2559 
" style="fill:none;stroke:#dedede;stroke-linecap:square;"/>
     </g>
     <g id="text_15">
      <!-- 5 -->
      <defs>
       <path d="M 10.796875 72.90625 
L 49.515625 72.90625 
L 49.515625 64.59375 
L 19.828125 64.59375 
L 19.828125 46.734375 
Q 21.96875 47.46875 24.109375 47.828125 
Q 26.265625 48.1875 28.421875 48.1875 
Q 40.625 48.1875 47.75 41.5 
Q 54.890625 34.8125 54.890625 23.390625 
Q 54.890625 11.625 47.5625 5.09375 
Q 40.234375 -1.421875 26.90625 -1.421875 
Q 22.3125 -1.421875 17.546875 -0.640625 
Q 12.796875 0.140625 7.71875 1.703125 
L 7.71875 11.625 
Q 12.109375 9.234375 16.796875 8.0625 
Q 21.484375 6.890625 26.703125 6.890625 
Q 35.15625 6.890625 40.078125 11.328125 
Q 45.015625 15.765625 45.015625 23.390625 
Q 45.015625 31 40.078125 35.4375 
Q 35.15625 39.890625 26.703125 39.890625 
Q 22.75 39.890625 18.8125 39.015625 
Q 14.890625 38.140625 10.796875 36.28125 
z
" id="DejaVuSans-53"/>
      </defs>
      <g transform="translate(20.878125 38.295275)scale(0.08 -0.08)">
       <use xlink:href="#DejaVuSans-53"/>
      </g>
     </g>
    </g>
    <g id="text_16">
     <!-- R2 After filtering: Base Content Percent -->
     <defs>
      <path d="M 34.1875 63.1875 
L 20.796875 26.90625 
L 47.609375 26.90625 
z
M 28.609375 72.90625 
L 39.796875 72.90625 
L 67.578125 0 
L 57.328125 0 
L 50.6875 18.703125 
L 17.828125 18.703125 
L 11.1875 0 
L 0.78125 0 
z
" id="DejaVuSans-65"/>
      <path d="M 37.109375 75.984375 
L 37.109375 68.5 
L 28.515625 68.5 
Q 23.6875 68.5 21.796875 66.546875 
Q 19.921875 64.59375 19.921875 59.515625 
L 19.921875 54.6875 
L 34.71875 54.6875 
L 34.71875 47.703125 
L 19.921875 47.703125 
L 19.921875 0 
L 10.890625 0 
L 10.890625 47.703125 
L 2.296875 47.703125 
L 2.296875 54.6875 
L 10.890625 54.6875 
L 10.890625 58.5 
Q 10.890625 67.625 15.140625 71.796875 
Q 19.390625 75.984375 28.609375 75.984375 
z
" id="DejaVuSans-102"/>
      <path d="M 41.109375 46.296875 
Q 39.59375 47.171875 37.8125 47.578125 
Q 36.03125 48 33.890625 48 
Q 26.265625 48 22.1875 43.046875 
Q 18.109375 38.09375 18.109375 28.8125 
L 18.109375 0 
L 9.078125 0 
L 9.078125 54.6875 
L 18.109375 54.6875 
L 18.109375 46.1875 
Q 20.953125 51.171875 25.484375 53.578125 
Q 30.03125 56 36.53125 56 
Q 37.453125 56 38.578125 55.875 
Q 39.703125 55.765625 41.0625 55.515625 
z
" id="DejaVuSans-114"/>
      <path d="M 9.421875 75.984375 
L 18.40625 75.984375 
L 18.40625 0 
L 9.421875 0 
z
" id="DejaVuSans-108"/>
      <path d="M 45.40625 27.984375 
Q 45.40625 37.75 41.375 43.109375 
Q 37.359375 48.484375 30.078125 48.484375 
Q 22.859375 48.484375 18.828125 43.109375 
Q 14.796875 37.75 14.796875 27.984375 
Q 14.796875 18.265625 18.828125 12.890625 
Q 22.859375 7.515625 30.078125 7.515625 
Q 37.359375 7.515625 41.375 12.890625 
Q 45.40625 18.265625 45.40625 27.984375 
z
M 54.390625 6.78125 
Q 54.390625 -7.171875 48.1875 -13.984375 
Q 42 -20.796875 29.203125 -20.796875 
Q 24.46875 -20.796875 20.265625 -20.09375 
Q 16.0625 -19.390625 12.109375 -17.921875 
L 12.109375 -9.1875 
Q 16.0625 -11.328125 19.921875 -12.34375 
Q 23.78125 -13.375 27.78125 -13.375 
Q 36.625 -13.375 41.015625 -8.765625 
Q 45.40625 -4.15625 45.40625 5.171875 
L 45.40625 9.625 
Q 42.625 4.78125 38.28125 2.390625 
Q 33.9375 0 27.875 0 
Q 17.828125 0 11.671875 7.65625 
Q 5.515625 15.328125 5.515625 27.984375 
Q 5.515625 40.671875 11.671875 48.328125 
Q 17.828125 56 27.875 56 
Q 33.9375 56 38.28125 53.609375 
Q 42.625 51.21875 45.40625 46.390625 
L 45.40625 54.6875 
L 54.390625 54.6875 
z
" id="DejaVuSans-103"/>
      <path d="M 11.71875 12.40625 
L 22.015625 12.40625 
L 22.015625 0 
L 11.71875 0 
z
M 11.71875 51.703125 
L 22.015625 51.703125 
L 22.015625 39.3125 
L 11.71875 39.3125 
z
" id="DejaVuSans-58"/>
      <path d="M 19.671875 34.8125 
L 19.671875 8.109375 
L 35.5 8.109375 
Q 43.453125 8.109375 47.28125 11.40625 
Q 51.125 14.703125 51.125 21.484375 
Q 51.125 28.328125 47.28125 31.5625 
Q 43.453125 34.8125 35.5 34.8125 
z
M 19.671875 64.796875 
L 19.671875 42.828125 
L 34.28125 42.828125 
Q 41.5 42.828125 45.03125 45.53125 
Q 48.578125 48.25 48.578125 53.8125 
Q 48.578125 59.328125 45.03125 62.0625 
Q 41.5 64.796875 34.28125 64.796875 
z
M 9.8125 72.90625 
L 35.015625 72.90625 
Q 46.296875 72.90625 52.390625 68.21875 
Q 58.5 63.53125 58.5 54.890625 
Q 58.5 48.1875 55.375 44.234375 
Q 52.25 40.28125 46.1875 39.3125 
Q 53.46875 37.75 57.5 32.78125 
Q 61.53125 27.828125 61.53125 20.40625 
Q 61.53125 10.640625 54.890625 5.3125 
Q 48.25 0 35.984375 0 
L 9.8125 0 
z
" id="DejaVuSans-66"/>
      <path d="M 64.40625 67.28125 
L 64.40625 56.890625 
Q 59.421875 61.53125 53.78125 63.8125 
Q 48.140625 66.109375 41.796875 66.109375 
Q 29.296875 66.109375 22.65625 58.46875 
Q 16.015625 50.828125 16.015625 36.375 
Q 16.015625 21.96875 22.65625 14.328125 
Q 29.296875 6.6875 41.796875 6.6875 
Q 48.140625 6.6875 53.78125 8.984375 
Q 59.421875 11.28125 64.40625 15.921875 
L 64.40625 5.609375 
Q 59.234375 2.09375 53.4375 0.328125 
Q 47.65625 -1.421875 41.21875 -1.421875 
Q 24.65625 -1.421875 15.125 8.703125 
Q 5.609375 18.84375 5.609375 36.375 
Q 5.609375 53.953125 15.125 64.078125 
Q 24.65625 74.21875 41.21875 74.21875 
Q 47.75 74.21875 53.53125 72.484375 
Q 59.328125 70.75 64.40625 67.28125 
z
" id="DejaVuSans-67"/>
      <path d="M 48.78125 52.59375 
L 48.78125 44.1875 
Q 44.96875 46.296875 41.140625 47.34375 
Q 37.3125 48.390625 33.40625 48.390625 
Q 24.65625 48.390625 19.8125 42.84375 
Q 14.984375 37.3125 14.984375 27.296875 
Q 14.984375 17.28125 19.8125 11.734375 
Q 24.65625 6.203125 33.40625 6.203125 
Q 37.3125 6.203125 41.140625 7.25 
Q 44.96875 8.296875 48.78125 10.40625 
L 48.78125 2.09375 
Q 45.015625 0.34375 40.984375 -0.53125 
Q 36.96875 -1.421875 32.421875 -1.421875 
Q 20.0625 -1.421875 12.78125 6.34375 
Q 5.515625 14.109375 5.515625 27.296875 
Q 5.515625 40.671875 12.859375 48.328125 
Q 20.21875 56 33.015625 56 
Q 37.15625 56 41.109375 55.140625 
Q 45.0625 54.296875 48.78125 52.59375 
z
" id="DejaVuSans-99"/>
     </defs>
     <g transform="translate(14.798438 293.315681)rotate(-90)scale(0.1 -0.1)">
      <use xlink:href="#DejaVuSans-82"/>
      <use x="69.482422" xlink:href="#DejaVuSans-50"/>
      <use x="133.105469" xlink:href="#DejaVuSans-32"/>
      <use x="164.892578" xlink:href="#DejaVuSans-65"/>
      <use x="233.253906" xlink:href="#DejaVuSans-102"/>
      <use x="268.443359" xlink:href="#DejaVuSans-116"/>
      <use x="307.652344" xlink:href="#DejaVuSans-101"/>
      <use x="369.175781" xlink:href="#DejaVuSans-114"/>
      <use x="410.289062" xlink:href="#DejaVuSans-32"/>
      <use x="442.076172" xlink:href="#DejaVuSans-102"/>
      <use x="477.28125" xlink:href="#DejaVuSans-105"/>
      <use x="505.064453" xlink:href="#DejaVuSans-108"/>
      <use x="532.847656" xlink:href="#DejaVuSans-116"/>
      <use x="572.056641" xlink:href="#DejaVuSans-101"/>
      <use x="633.580078" xlink:href="#DejaVuSans-114"/>
      <use x="674.693359" xlink:href="#DejaVuSans-105"/>
      <use x="702.476562" xlink:href="#DejaVuSans-110"/>
      <use x="765.855469" xlink:href="#DejaVuSans-103"/>
      <use x="829.332031" xlink:href="#DejaVuSans-58"/>
      <use x="863.023438" xlink:href="#DejaVuSans-32"/>
      <use x="894.810547" xlink:href="#DejaVuSans-66"/>
      <use x="963.414062" xlink:href="#DejaVuSans-97"/>
      <use x="1024.693359" xlink:href="#DejaVuSans-115"/>
      <use x="1076.792969" xlink:href="#DejaVuSans-101"/>
      <use x="1138.316406" xlink:href="#DejaVuSans-32"/>
      <use x="1170.103516" xlink:href="#DejaVuSans-67"/>
      <use x="1239.927734" xlink:href="#DejaVuSans-111"/>
      <use x="1301.109375" xlink:href="#DejaVuSans-110"/>
      <use x="1364.488281" xlink:href="#DejaVuSans-116"/>
      <use x="1403.697266" xlink:href="#DejaVuSans-101"/>
      <use x="1465.220703" xlink:href="#DejaVuSans-110"/>
      <use x="1528.599609" xlink:href="#DejaVuSans-116"/>
      <use x="1567.808594" xlink:href="#DejaVuSans-32"/>
      <use x="1599.595703" xlink:href="#DejaVuSans-80"/>
      <use x="1659.851562" xlink:href="#DejaVuSans-101"/>
      <use x="1721.375" xlink:href="#DejaVuSans-114"/>
      <use x="1762.457031" xlink:href="#DejaVuSans-99"/>
      <use x="1817.4375" xlink:href="#DejaVuSans-101"/>
      <use x="1878.960938" xlink:href="#DejaVuSans-110"/>
      <use x="1942.339844" xlink:href="#DejaVuSans-116"/>
     </g>
    </g>
   </g>
   <g id="line2d_7">
    <path clip-path="url(#pb7b0cef8c6)" d="M 76.613125 353.2239 
L 82.471514 352.983478 
L 88.329904 353.2239 
L 100.046682 353.19651 
L 129.338628 353.2239 
L 949.513125 353.2239 
L 949.513125 353.2239 
" style="fill:none;stroke:#7cb5ec;stroke-linecap:square;"/>
   </g>
   <g id="line2d_8">
    <path clip-path="url(#pb7b0cef8c6)" d="M 76.613125 353.2239 
L 88.329904 353.2239 
L 949.513125 353.2239 
L 949.513125 353.2239 
" style="fill:none;stroke:#434348;stroke-linecap:square;"/>
   </g>
   <g id="line2d_9">
    <path clip-path="url(#pb7b0cef8c6)" d="M 76.613125 353.2239 
L 82.471514 353.091725 
L 88.329904 353.2239 
L 100.046682 353.174946 
L 117.62185 353.2239 
L 949.513125 353.2239 
L 949.513125 353.2239 
" style="fill:none;stroke:#90ed7d;stroke-linecap:square;"/>
   </g>
   <g id="line2d_10">
    <path clip-path="url(#pb7b0cef8c6)" d="M 76.613125 353.2239 
L 82.471514 352.977966 
L 88.329904 353.2239 
L 94.188293 353.162416 
L 105.905071 353.2239 
L 703.460776 353.2239 
L 709.319165 353.092116 
L 715.177555 353.2239 
L 949.513125 353.2239 
L 949.513125 353.2239 
" style="fill:none;stroke:#f7a35c;stroke-linecap:square;"/>
   </g>
   <g id="line2d_11">
    <path clip-path="url(#pb7b0cef8c6)" d="M 76.613125 353.2239 
L 82.471514 353.047853 
L 88.329904 353.2239 
L 105.905071 353.2239 
L 949.513125 353.2239 
L 949.513125 353.2239 
" style="fill:none;stroke:#8085e9;stroke-linecap:square;"/>
   </g>
   <g id="line2d_12">
    <path clip-path="url(#pb7b0cef8c6)" d="M 76.613125 353.2239 
L 82.471514 353.006935 
L 88.329904 353.2239 
L 100.046682 353.187739 
L 123.480239 353.2239 
L 949.513125 353.2239 
L 949.513125 353.2239 
" style="fill:none;stroke:#f15c80;stroke-linecap:square;"/>
   </g>
   <g id="line2d_13">
    <path clip-path="url(#pb7b0cef8c6)" d="M 76.613125 353.2239 
L 715.177555 353.2239 
L 721.035944 351.750118 
L 726.894333 353.2239 
L 949.513125 353.2239 
L 949.513125 353.2239 
" style="fill:none;stroke:#e4d354;stroke-linecap:square;"/>
   </g>
   <g id="line2d_14">
    <path clip-path="url(#pb7b0cef8c6)" d="M 76.613125 353.2239 
L 82.471514 353.008782 
L 88.329904 353.2239 
L 100.046682 353.192031 
L 123.480239 353.2239 
L 949.513125 353.2239 
L 949.513125 353.2239 
" style="fill:none;stroke:#2b908f;stroke-linecap:square;"/>
   </g>
   <g id="line2d_15">
    <path clip-path="url(#pb7b0cef8c6)" d="M 76.613125 353.2239 
L 82.471514 353.081914 
L 88.329904 353.2239 
L 111.763461 353.2239 
L 949.513125 353.2239 
L 949.513125 353.2239 
" style="fill:none;stroke:#f45b5b;stroke-linecap:square;"/>
   </g>
   <g id="line2d_16">
    <path clip-path="url(#pb7b0cef8c6)" d="M 76.613125 353.2239 
L 949.513125 353.2239 
L 949.513125 353.2239 
" style="fill:none;stroke:#91e8e1;stroke-linecap:square;"/>
   </g>
   <g id="line2d_17">
    <path clip-path="url(#pb7b0cef8c6)" d="M 76.613125 353.2239 
L 82.471514 353.084975 
L 88.329904 353.2239 
L 105.905071 353.2239 
L 949.513125 353.2239 
L 949.513125 353.2239 
" style="fill:none;stroke:#7cb5ec;stroke-linecap:square;"/>
   </g>
   <g id="line2d_18">
    <path clip-path="url(#pb7b0cef8c6)" d="M 76.613125 353.2239 
L 82.471514 353.139146 
L 94.188293 353.2239 
L 949.513125 353.2239 
L 949.513125 353.2239 
" style="fill:none;stroke:#434348;stroke-linecap:square;"/>
   </g>
   <g id="line2d_19">
    <path clip-path="url(#pb7b0cef8c6)" d="M 76.613125 353.2239 
L 82.471514 353.035151 
L 88.329904 353.2239 
L 100.046682 353.201363 
L 129.338628 353.221083 
L 363.674199 353.2239 
L 949.513125 353.2239 
L 949.513125 353.2239 
" style="fill:none;stroke:#90ed7d;stroke-linecap:square;"/>
   </g>
   <g id="line2d_20">
    <path clip-path="url(#pb7b0cef8c6)" d="M 76.613125 353.2239 
L 82.471514 353.134407 
L 94.188293 353.211696 
L 117.62185 353.2239 
L 949.513125 353.2239 
L 949.513125 353.2239 
" style="fill:none;stroke:#f7a35c;stroke-linecap:square;"/>
   </g>
   <g id="line2d_21">
    <path clip-path="url(#pb7b0cef8c6)" d="M 76.613125 353.2239 
L 82.471514 353.06946 
L 88.329904 353.2239 
L 105.905071 353.2239 
L 949.513125 353.2239 
L 949.513125 353.2239 
" style="fill:none;stroke:#8085e9;stroke-linecap:square;"/>
   </g>
   <g id="line2d_22">
    <path clip-path="url(#pb7b0cef8c6)" d="M 76.613125 353.2239 
L 82.471514 353.025549 
L 88.329904 353.2239 
L 100.046682 353.196729 
L 129.338628 353.2239 
L 949.513125 353.2239 
L 949.513125 353.2239 
" style="fill:none;stroke:#f15c80;stroke-linecap:square;"/>
   </g>
   <g id="line2d_23">
    <path clip-path="url(#pb7b0cef8c6)" d="M 76.613125 353.2239 
L 82.471514 353.089859 
L 88.329904 353.2239 
L 105.905071 353.2239 
L 949.513125 353.2239 
L 949.513125 353.2239 
" style="fill:none;stroke:#e4d354;stroke-linecap:square;"/>
   </g>
   <g id="line2d_24">
    <path clip-path="url(#pb7b0cef8c6)" d="M 76.613125 353.2239 
L 949.513125 353.2239 
L 949.513125 353.2239 
" style="fill:none;stroke:#2b908f;stroke-linecap:square;"/>
   </g>
   <g id="line2d_25">
    <path clip-path="url(#pb7b0cef8c6)" d="M 76.613125 353.2239 
L 82.471514 353.016605 
L 88.329904 353.2239 
L 100.046682 353.196464 
L 129.338628 353.2239 
L 949.513125 353.2239 
L 949.513125 353.2239 
" style="fill:none;stroke:#f45b5b;stroke-linecap:square;"/>
   </g>
   <g id="line2d_26">
    <path clip-path="url(#pb7b0cef8c6)" d="M 76.613125 353.2239 
L 82.471514 352.975767 
L 88.329904 353.2239 
L 94.188293 353.146253 
L 123.480239 353.2239 
L 949.513125 353.2239 
L 949.513125 353.2239 
" style="fill:none;stroke:#91e8e1;stroke-linecap:square;"/>
   </g>
   <g id="line2d_27">
    <path clip-path="url(#pb7b0cef8c6)" d="M 76.613125 353.2239 
L 82.471514 353.053749 
L 88.329904 353.2239 
L 100.046682 353.199593 
L 129.338628 353.2239 
L 949.513125 353.2239 
L 949.513125 353.2239 
" style="fill:none;stroke:#7cb5ec;stroke-linecap:square;"/>
   </g>
   <g id="line2d_28">
    <path clip-path="url(#pb7b0cef8c6)" d="M 76.613125 353.2239 
L 82.471514 353.036714 
L 88.329904 353.2239 
L 100.046682 353.199833 
L 129.338628 353.2239 
L 949.513125 353.2239 
L 949.513125 353.2239 
" style="fill:none;stroke:#434348;stroke-linecap:square;"/>
   </g>
   <g id="line2d_29">
    <path clip-path="url(#pb7b0cef8c6)" d="M 76.613125 353.2239 
L 82.471514 353.034916 
L 88.329904 353.2239 
L 100.046682 353.212446 
L 158.630575 353.2239 
L 949.513125 353.2239 
L 949.513125 353.2239 
" style="fill:none;stroke:#90ed7d;stroke-linecap:square;"/>
   </g>
   <g id="line2d_30">
    <path clip-path="url(#pb7b0cef8c6)" d="M 76.613125 353.2239 
L 82.471514 353.035184 
L 88.329904 353.2239 
L 100.046682 353.186157 
L 117.62185 353.2239 
L 949.513125 353.2239 
L 949.513125 353.2239 
" style="fill:none;stroke:#f7a35c;stroke-linecap:square;"/>
   </g>
   <g id="line2d_31">
    <path clip-path="url(#pb7b0cef8c6)" d="M 76.613125 353.2239 
L 82.471514 352.968918 
L 88.329904 353.2239 
L 94.188293 353.154116 
L 111.763461 353.2239 
L 949.513125 353.2239 
L 949.513125 353.2239 
" style="fill:none;stroke:#8085e9;stroke-linecap:square;"/>
   </g>
   <g id="line2d_32">
    <path clip-path="url(#pb7b0cef8c6)" d="M 76.613125 353.2239 
L 82.471514 352.995899 
L 88.329904 353.2239 
L 100.046682 353.191328 
L 123.480239 353.2239 
L 357.81581 353.221096 
L 592.15138 353.2239 
L 685.885608 353.215703 
L 767.903058 353.2239 
L 949.513125 353.2239 
L 949.513125 353.2239 
" style="fill:none;stroke:#f15c80;stroke-linecap:square;"/>
   </g>
   <g id="line2d_33">
    <path clip-path="url(#pb7b0cef8c6)" d="M 76.613125 353.2239 
L 82.471514 352.984623 
L 88.329904 353.221118 
L 100.046682 353.157125 
L 111.763461 353.2239 
L 949.513125 353.2239 
L 949.513125 353.2239 
" style="fill:none;stroke:#e4d354;stroke-linecap:square;"/>
   </g>
   <g id="line2d_34">
    <path clip-path="url(#pb7b0cef8c6)" d="M 76.613125 353.2239 
L 82.471514 353.03203 
L 88.329904 353.2239 
L 100.046682 353.193749 
L 123.480239 353.2239 
L 949.513125 353.2239 
L 949.513125 353.2239 
" style="fill:none;stroke:#2b908f;stroke-linecap:square;"/>
   </g>
   <g id="line2d_35">
    <path clip-path="url(#pb7b0cef8c6)" d="M 76.613125 353.2239 
L 82.471514 352.995046 
L 88.329904 353.2239 
L 100.046682 353.203707 
L 135.197018 353.2239 
L 949.513125 353.2239 
L 949.513125 353.2239 
" style="fill:none;stroke:#f45b5b;stroke-linecap:square;"/>
   </g>
   <g id="line2d_36">
    <path clip-path="url(#pb7b0cef8c6)" d="M 76.613125 353.2239 
L 82.471514 353.004488 
L 88.329904 353.2239 
L 100.046682 353.207206 
L 141.055407 353.2239 
L 193.78091 353.2239 
L 949.513125 353.2239 
L 949.513125 353.2239 
" style="fill:none;stroke:#91e8e1;stroke-linecap:square;"/>
   </g>
   <g id="line2d_37">
    <path clip-path="url(#pb7b0cef8c6)" d="M 76.613125 353.2239 
L 82.471514 352.983325 
L 88.329904 353.2239 
L 949.513125 353.2239 
L 949.513125 353.2239 
" style="fill:none;stroke:#7cb5ec;stroke-linecap:square;"/>
   </g>
   <g id="line2d_38">
    <path clip-path="url(#pb7b0cef8c6)" d="M 76.613125 353.2239 
L 82.471514 353.059989 
L 88.329904 353.2239 
L 100.046682 353.200484 
L 129.338628 353.2239 
L 949.513125 353.2239 
L 949.513125 353.2239 
" style="fill:none;stroke:#434348;stroke-linecap:square;"/>
   </g>
   <g id="line2d_39">
    <path clip-path="url(#pb7b0cef8c6)" d="M 76.613125 353.2239 
L 82.471514 353.036563 
L 88.329904 353.2239 
L 100.046682 353.201674 
L 129.338628 353.2239 
L 328.523863 353.214204 
L 398.824534 353.2239 
L 949.513125 353.2239 
L 949.513125 353.2239 
" style="fill:none;stroke:#90ed7d;stroke-linecap:square;"/>
   </g>
   <g id="line2d_40">
    <path clip-path="url(#pb7b0cef8c6)" d="M 76.613125 353.2239 
L 82.471514 353.031382 
L 88.329904 353.2239 
L 100.046682 353.18929 
L 123.480239 353.2239 
L 949.513125 353.2239 
L 949.513125 353.2239 
" style="fill:none;stroke:#f7a35c;stroke-linecap:square;"/>
   </g>
   <g id="line2d_41">
    <path clip-path="url(#pb7b0cef8c6)" d="M 76.613125 353.2239 
L 949.513125 353.2239 
L 949.513125 353.2239 
" style="fill:none;stroke:#8085e9;stroke-linecap:square;"/>
   </g>
   <g id="line2d_42">
    <path clip-path="url(#pb7b0cef8c6)" d="M 76.613125 353.2239 
L 82.471514 353.123173 
L 88.329904 353.2239 
L 105.905071 353.2239 
L 949.513125 353.2239 
L 949.513125 353.2239 
" style="fill:none;stroke:#f15c80;stroke-linecap:square;"/>
   </g>
   <g id="line2d_43">
    <path clip-path="url(#pb7b0cef8c6)" d="M 76.613125 353.2239 
L 82.471514 353.089703 
L 88.329904 353.2239 
L 105.905071 353.2239 
L 949.513125 353.2239 
L 949.513125 353.2239 
" style="fill:none;stroke:#e4d354;stroke-linecap:square;"/>
   </g>
   <g id="line2d_44">
    <path clip-path="url(#pb7b0cef8c6)" d="M 76.613125 353.2239 
L 82.471514 353.011074 
L 88.329904 353.221024 
L 100.046682 353.200892 
L 129.338628 353.2239 
L 949.513125 353.2239 
L 949.513125 353.2239 
" style="fill:none;stroke:#2b908f;stroke-linecap:square;"/>
   </g>
   <g id="line2d_45">
    <path clip-path="url(#pb7b0cef8c6)" d="M 76.613125 353.2239 
L 82.471514 353.076977 
L 88.329904 353.2239 
L 949.513125 353.2239 
L 949.513125 353.2239 
" style="fill:none;stroke:#f45b5b;stroke-linecap:square;"/>
   </g>
   <g id="line2d_46">
    <path clip-path="url(#pb7b0cef8c6)" d="M 76.613125 353.2239 
L 82.471514 353.08089 
L 88.329904 353.2239 
L 111.763461 353.2239 
L 949.513125 353.2239 
L 949.513125 353.2239 
" style="fill:none;stroke:#91e8e1;stroke-linecap:square;"/>
   </g>
   <g id="line2d_47">
    <path clip-path="url(#pb7b0cef8c6)" d="M 76.613125 353.2239 
L 82.471514 353.047898 
L 88.329904 353.2239 
L 100.046682 353.19231 
L 123.480239 353.2239 
L 410.541313 353.2239 
L 949.513125 353.2239 
L 949.513125 353.2239 
" style="fill:none;stroke:#7cb5ec;stroke-linecap:square;"/>
   </g>
   <g id="line2d_48">
    <path clip-path="url(#pb7b0cef8c6)" d="M 76.613125 353.2239 
L 88.329904 353.2239 
L 949.513125 353.2239 
L 949.513125 353.2239 
" style="fill:none;stroke:#434348;stroke-linecap:square;"/>
   </g>
   <g id="line2d_49">
    <path clip-path="url(#pb7b0cef8c6)" d="M 76.613125 353.2239 
L 82.471514 353.117212 
L 88.329904 353.2239 
L 105.905071 353.2239 
L 949.513125 353.2239 
L 949.513125 353.2239 
" style="fill:none;stroke:#90ed7d;stroke-linecap:square;"/>
   </g>
   <g id="line2d_50">
    <path clip-path="url(#pb7b0cef8c6)" d="M 76.613125 353.2239 
L 949.513125 353.2239 
L 949.513125 353.2239 
" style="fill:none;stroke:#f7a35c;stroke-linecap:square;"/>
   </g>
   <g id="line2d_51">
    <path clip-path="url(#pb7b0cef8c6)" d="M 76.613125 353.2239 
L 82.471514 353.017461 
L 88.329904 353.2239 
L 100.046682 353.198095 
L 129.338628 353.2239 
L 949.513125 353.2239 
L 949.513125 353.2239 
" style="fill:none;stroke:#8085e9;stroke-linecap:square;"/>
   </g>
   <g id="line2d_52">
    <path clip-path="url(#pb7b0cef8c6)" d="M 76.613125 353.2239 
L 82.471514 353.023068 
L 88.329904 353.2239 
L 100.046682 353.185279 
L 117.62185 353.2239 
L 949.513125 353.2239 
L 949.513125 353.2239 
" style="fill:none;stroke:#f15c80;stroke-linecap:square;"/>
   </g>
   <g id="line2d_53">
    <path clip-path="url(#pb7b0cef8c6)" d="M 76.613125 353.2239 
L 82.471514 352.838797 
L 88.329904 353.2239 
L 100.046682 353.146879 
L 111.763461 353.2239 
L 639.018494 353.2239 
L 644.876883 353.06498 
L 650.735273 353.2239 
L 949.513125 353.2239 
L 949.513125 353.2239 
" style="fill:none;stroke:#e4d354;stroke-linecap:square;"/>
   </g>
   <g id="line2d_54">
    <path clip-path="url(#pb7b0cef8c6)" d="M 76.613125 353.2239 
L 82.471514 353.09476 
L 88.329904 353.2239 
L 949.513125 353.2239 
L 949.513125 353.2239 
" style="fill:none;stroke:#2b908f;stroke-linecap:square;"/>
   </g>
   <g id="line2d_55">
    <path clip-path="url(#pb7b0cef8c6)" d="M 76.613125 353.2239 
L 949.513125 353.2239 
L 949.513125 353.2239 
" style="fill:none;stroke:#f45b5b;stroke-linecap:square;"/>
   </g>
   <g id="line2d_56">
    <path clip-path="url(#pb7b0cef8c6)" d="M 76.613125 353.2239 
L 82.471514 353.007455 
L 88.329904 353.2239 
L 949.513125 353.2239 
L 949.513125 353.2239 
" style="fill:none;stroke:#91e8e1;stroke-linecap:square;"/>
   </g>
   <g id="line2d_57">
    <path clip-path="url(#pb7b0cef8c6)" d="M 76.613125 353.2239 
L 82.471514 353.082004 
L 88.329904 353.2239 
L 117.62185 353.2239 
L 949.513125 353.2239 
L 949.513125 353.2239 
" style="fill:none;stroke:#7cb5ec;stroke-linecap:square;"/>
   </g>
   <g id="line2d_58">
    <path clip-path="url(#pb7b0cef8c6)" d="M 76.613125 353.2239 
L 82.471514 352.985525 
L 88.329904 353.2239 
L 387.107756 353.2239 
L 392.966145 352.949245 
L 398.824534 353.2239 
L 949.513125 353.2239 
L 949.513125 353.2239 
" style="fill:none;stroke:#434348;stroke-linecap:square;"/>
   </g>
   <g id="line2d_59">
    <path clip-path="url(#pb7b0cef8c6)" d="M 76.613125 353.2239 
L 82.471514 353.167015 
L 94.188293 353.209679 
L 100.046682 353.152793 
L 111.763461 353.2239 
L 926.079568 353.2239 
L 931.937957 352.961398 
L 937.796346 353.2239 
L 949.513125 353.2239 
L 949.513125 353.2239 
" style="fill:none;stroke:#90ed7d;stroke-linecap:square;"/>
   </g>
   <g id="line2d_60">
    <path clip-path="url(#pb7b0cef8c6)" d="M 76.613125 353.2239 
L 82.471514 353.093636 
L 88.329904 353.2239 
L 949.513125 353.2239 
L 949.513125 353.2239 
" style="fill:none;stroke:#f7a35c;stroke-linecap:square;"/>
   </g>
   <g id="line2d_61">
    <path clip-path="url(#pb7b0cef8c6)" d="M 76.613125 353.2239 
L 82.471514 353.039508 
L 88.329904 353.2239 
L 100.046682 353.193168 
L 123.480239 353.2239 
L 949.513125 353.2239 
L 949.513125 353.2239 
" style="fill:none;stroke:#8085e9;stroke-linecap:square;"/>
   </g>
   <g id="line2d_62">
    <path clip-path="url(#pb7b0cef8c6)" d="M 76.613125 353.2239 
L 82.471514 353.147882 
L 94.188293 353.198561 
L 949.513125 353.2239 
L 949.513125 353.2239 
" style="fill:none;stroke:#f15c80;stroke-linecap:square;"/>
   </g>
   <g id="line2d_63">
    <path clip-path="url(#pb7b0cef8c6)" d="M 76.613125 353.2239 
L 82.471514 353.14483 
L 94.188293 353.2239 
L 949.513125 353.2239 
L 949.513125 353.2239 
" style="fill:none;stroke:#e4d354;stroke-linecap:square;"/>
   </g>
   <g id="line2d_64">
    <path clip-path="url(#pb7b0cef8c6)" d="M 76.613125 353.2239 
L 82.471514 353.1148 
L 88.329904 353.2239 
L 135.197018 353.2239 
L 949.513125 353.2239 
L 949.513125 353.2239 
" style="fill:none;stroke:#2b908f;stroke-linecap:square;"/>
   </g>
   <g id="line2d_65">
    <path clip-path="url(#pb7b0cef8c6)" d="M 76.613125 353.2239 
L 82.471514 352.976423 
L 88.329904 353.2239 
L 105.905071 353.2239 
L 949.513125 353.2239 
L 949.513125 353.2239 
" style="fill:none;stroke:#f45b5b;stroke-linecap:square;"/>
   </g>
   <g id="line2d_66">
    <path clip-path="url(#pb7b0cef8c6)" d="M 76.613125 353.2239 
L 82.471514 353.133123 
L 94.188293 353.2239 
L 949.513125 353.2239 
L 949.513125 353.2239 
" style="fill:none;stroke:#91e8e1;stroke-linecap:square;"/>
   </g>
   <g id="line2d_67">
    <path clip-path="url(#pb7b0cef8c6)" d="M 76.613125 353.2239 
L 82.471514 352.984191 
L 88.329904 353.2239 
L 598.009769 353.2239 
L 603.868159 353.047721 
L 609.726548 353.2239 
L 639.018494 353.2239 
L 644.876883 353.034695 
L 650.735273 353.2239 
L 949.513125 353.2239 
L 949.513125 353.2239 
" style="fill:none;stroke:#7cb5ec;stroke-linecap:square;"/>
   </g>
   <g id="line2d_68">
    <path clip-path="url(#pb7b0cef8c6)" d="M 76.613125 353.2239 
L 82.471514 353.038625 
L 88.329904 353.2239 
L 100.046682 353.203596 
L 135.197018 353.2239 
L 392.966145 353.218492 
L 515.99232 353.2239 
L 949.513125 353.2239 
L 949.513125 353.2239 
" style="fill:none;stroke:#434348;stroke-linecap:square;"/>
   </g>
   <g id="line2d_69">
    <path clip-path="url(#pb7b0cef8c6)" d="M 76.613125 353.2239 
L 82.471514 353.013621 
L 88.329904 353.2239 
L 105.905071 353.2239 
L 949.513125 353.2239 
L 949.513125 353.2239 
" style="fill:none;stroke:#90ed7d;stroke-linecap:square;"/>
   </g>
   <g id="line2d_70">
    <path clip-path="url(#pb7b0cef8c6)" d="M 76.613125 353.2239 
L 82.471514 353.036783 
L 88.329904 353.2239 
L 949.513125 353.2239 
L 949.513125 353.2239 
" style="fill:none;stroke:#f7a35c;stroke-linecap:square;"/>
   </g>
   <g id="line2d_71">
    <path clip-path="url(#pb7b0cef8c6)" d="M 76.613125 353.2239 
L 82.471514 353.051949 
L 88.329904 353.221545 
L 105.905071 353.2239 
L 949.513125 353.2239 
L 949.513125 353.2239 
" style="fill:none;stroke:#8085e9;stroke-linecap:square;"/>
   </g>
   <g id="line2d_72">
    <path clip-path="url(#pb7b0cef8c6)" d="M 76.613125 353.2239 
L 82.471514 353.063926 
L 88.329904 353.2239 
L 105.905071 353.2239 
L 949.513125 353.2239 
L 949.513125 353.2239 
" style="fill:none;stroke:#f15c80;stroke-linecap:square;"/>
   </g>
   <g id="line2d_73">
    <path clip-path="url(#pb7b0cef8c6)" d="M 76.613125 353.2239 
L 82.471514 353.056433 
L 88.329904 353.2239 
L 100.046682 353.201305 
L 129.338628 353.222571 
L 609.726548 353.2239 
L 685.885608 353.2239 
L 949.513125 353.2239 
L 949.513125 353.2239 
" style="fill:none;stroke:#e4d354;stroke-linecap:square;"/>
   </g>
   <g id="line2d_74">
    <path clip-path="url(#pb7b0cef8c6)" d="M 76.613125 353.2239 
L 82.471514 353.112446 
L 88.329904 353.2239 
L 117.62185 353.2239 
L 949.513125 353.2239 
L 949.513125 353.2239 
" style="fill:none;stroke:#2b908f;stroke-linecap:square;"/>
   </g>
   <g id="line2d_75">
    <path clip-path="url(#pb7b0cef8c6)" d="M 76.613125 353.2239 
L 82.471514 353.084928 
L 88.329904 353.2239 
L 152.772185 353.2239 
L 949.513125 353.2239 
L 949.513125 353.2239 
" style="fill:none;stroke:#f45b5b;stroke-linecap:square;"/>
   </g>
   <g id="line2d_76">
    <path clip-path="url(#pb7b0cef8c6)" d="M 76.613125 353.2239 
L 82.471514 353.010539 
L 88.329904 353.2239 
L 94.188293 353.15825 
L 105.905071 353.2239 
L 949.513125 353.2239 
L 949.513125 353.2239 
" style="fill:none;stroke:#91e8e1;stroke-linecap:square;"/>
   </g>
   <g id="line2d_77">
    <path clip-path="url(#pb7b0cef8c6)" d="M 76.613125 353.2239 
L 82.471514 353.060033 
L 88.329904 353.2239 
L 105.905071 353.2239 
L 949.513125 353.2239 
L 949.513125 353.2239 
" style="fill:none;stroke:#7cb5ec;stroke-linecap:square;"/>
   </g>
   <g id="line2d_78">
    <path clip-path="url(#pb7b0cef8c6)" d="M 76.613125 353.2239 
L 82.471514 353.032047 
L 88.329904 353.2239 
L 228.931246 353.2239 
L 234.789635 353.032047 
L 240.648024 353.2239 
L 252.364803 353.2239 
L 258.223192 353.032047 
L 264.081581 353.2239 
L 322.665474 353.2239 
L 328.523863 353.025304 
L 334.382253 353.2239 
L 639.018494 353.2239 
L 644.876883 353.07366 
L 650.735273 353.2239 
L 949.513125 353.2239 
L 949.513125 353.2239 
" style="fill:none;stroke:#434348;stroke-linecap:square;"/>
   </g>
   <g id="line2d_79">
    <path clip-path="url(#pb7b0cef8c6)" d="M 76.613125 353.2239 
L 82.471514 353.027592 
L 88.329904 353.2239 
L 117.62185 353.2239 
L 949.513125 353.2239 
L 949.513125 353.2239 
" style="fill:none;stroke:#90ed7d;stroke-linecap:square;"/>
   </g>
   <g id="line2d_80">
    <path clip-path="url(#pb7b0cef8c6)" d="M 76.613125 353.2239 
L 82.471514 353.103991 
L 88.329904 353.2239 
L 322.665474 353.2239 
L 328.523863 353.092348 
L 334.382253 353.2239 
L 949.513125 353.2239 
L 949.513125 353.2239 
" style="fill:none;stroke:#f7a35c;stroke-linecap:square;"/>
   </g>
   <g id="line2d_81">
    <path clip-path="url(#pb7b0cef8c6)" d="M 76.613125 353.2239 
L 949.513125 353.2239 
L 949.513125 353.2239 
" style="fill:none;stroke:#8085e9;stroke-linecap:square;"/>
   </g>
   <g id="line2d_82">
    <path clip-path="url(#pb7b0cef8c6)" d="M 76.613125 353.2239 
L 949.513125 353.2239 
L 949.513125 353.2239 
" style="fill:none;stroke:#f15c80;stroke-linecap:square;"/>
   </g>
   <g id="line2d_83">
    <path clip-path="url(#pb7b0cef8c6)" d="M 76.613125 353.2239 
L 82.471514 353.126221 
L 88.329904 353.2239 
L 123.480239 353.2239 
L 949.513125 353.2239 
L 949.513125 353.2239 
" style="fill:none;stroke:#e4d354;stroke-linecap:square;"/>
   </g>
   <g id="line2d_84">
    <path clip-path="url(#pb7b0cef8c6)" d="M 76.613125 353.2239 
L 949.513125 353.2239 
L 949.513125 353.2239 
" style="fill:none;stroke:#2b908f;stroke-linecap:square;"/>
   </g>
   <g id="line2d_85">
    <path clip-path="url(#pb7b0cef8c6)" d="M 76.613125 353.2239 
L 949.513125 353.2239 
L 949.513125 353.2239 
" style="fill:none;stroke:#f45b5b;stroke-linecap:square;"/>
   </g>
   <g id="line2d_86">
    <path clip-path="url(#pb7b0cef8c6)" d="M 76.613125 353.2239 
L 82.471514 353.101321 
L 88.329904 353.2239 
L 949.513125 353.2239 
L 949.513125 353.2239 
" style="fill:none;stroke:#91e8e1;stroke-linecap:square;"/>
   </g>
   <g id="line2d_87">
    <path clip-path="url(#pb7b0cef8c6)" d="M 76.613125 353.2239 
L 82.471514 352.956254 
L 88.329904 353.2239 
L 94.188293 353.045469 
L 100.046682 353.2239 
L 639.018494 353.2239 
L 644.876883 353.080471 
L 650.735273 353.2239 
L 949.513125 353.2239 
L 949.513125 353.2239 
" style="fill:none;stroke:#7cb5ec;stroke-linecap:square;"/>
   </g>
   <g id="line2d_88">
    <path clip-path="url(#pb7b0cef8c6)" d="M 76.613125 353.2239 
L 141.055407 353.2239 
L 146.913796 353.110102 
L 152.772185 353.2239 
L 228.931246 353.2239 
L 234.789635 353.110102 
L 240.648024 353.2239 
L 322.665474 353.2239 
L 328.523863 353.106012 
L 334.382253 353.2239 
L 949.513125 353.2239 
L 949.513125 353.2239 
" style="fill:none;stroke:#434348;stroke-linecap:square;"/>
   </g>
   <g id="line2d_89">
    <path clip-path="url(#pb7b0cef8c6)" d="M 76.613125 353.2239 
L 82.471514 353.111886 
L 88.329904 353.2239 
L 117.62185 353.2239 
L 949.513125 353.2239 
L 949.513125 353.2239 
" style="fill:none;stroke:#90ed7d;stroke-linecap:square;"/>
   </g>
   <g id="line2d_90">
    <path clip-path="url(#pb7b0cef8c6)" d="M 76.613125 353.2239 
L 82.471514 352.991927 
L 88.329904 353.2239 
L 94.188293 353.13691 
L 117.62185 353.2239 
L 949.513125 353.2239 
L 949.513125 353.2239 
" style="fill:none;stroke:#f7a35c;stroke-linecap:square;"/>
   </g>
   <g id="line2d_91">
    <path clip-path="url(#pb7b0cef8c6)" d="M 76.613125 353.2239 
L 82.471514 353.008253 
L 88.329904 353.2239 
L 100.046682 353.198393 
L 129.338628 353.2239 
L 949.513125 353.2239 
L 949.513125 353.2239 
" style="fill:none;stroke:#8085e9;stroke-linecap:square;"/>
   </g>
   <g id="line2d_92">
    <path clip-path="url(#pb7b0cef8c6)" d="M 76.613125 353.2239 
L 82.471514 353.045994 
L 88.329904 353.2239 
L 100.046682 353.173449 
L 117.62185 353.2239 
L 949.513125 353.2239 
L 949.513125 353.2239 
" style="fill:none;stroke:#f15c80;stroke-linecap:square;"/>
   </g>
   <g id="line2d_93">
    <path clip-path="url(#pb7b0cef8c6)" d="M 76.613125 353.2239 
L 82.471514 353.016917 
L 88.329904 353.2239 
L 100.046682 353.193461 
L 123.480239 353.2239 
L 949.513125 353.2239 
L 949.513125 353.2239 
" style="fill:none;stroke:#e4d354;stroke-linecap:square;"/>
   </g>
   <g id="line2d_94">
    <path clip-path="url(#pb7b0cef8c6)" d="M 76.613125 353.2239 
L 82.471514 353.020035 
L 88.329904 353.2239 
L 100.046682 353.182082 
L 117.62185 353.2239 
L 949.513125 353.2239 
L 949.513125 353.2239 
" style="fill:none;stroke:#2b908f;stroke-linecap:square;"/>
   </g>
   <g id="line2d_95">
    <path clip-path="url(#pb7b0cef8c6)" d="M 76.613125 353.2239 
L 82.471514 353.038148 
L 88.329904 353.2239 
L 105.905071 353.2239 
L 949.513125 353.2239 
L 949.513125 353.2239 
" style="fill:none;stroke:#f45b5b;stroke-linecap:square;"/>
   </g>
   <g id="line2d_96">
    <path clip-path="url(#pb7b0cef8c6)" d="M 76.613125 353.2239 
L 82.471514 352.980665 
L 88.329904 353.2239 
L 100.046682 353.182094 
L 117.62185 353.2239 
L 949.513125 353.2239 
L 949.513125 353.2239 
" style="fill:none;stroke:#91e8e1;stroke-linecap:square;"/>
   </g>
   <g id="line2d_97">
    <path clip-path="url(#pb7b0cef8c6)" d="M 76.613125 353.2239 
L 82.471514 353.003156 
L 88.329904 353.2239 
L 94.188293 353.137334 
L 105.905071 353.2239 
L 949.513125 353.2239 
L 949.513125 353.2239 
" style="fill:none;stroke:#7cb5ec;stroke-linecap:square;"/>
   </g>
   <g id="line2d_98">
    <path clip-path="url(#pb7b0cef8c6)" d="M 76.613125 353.2239 
L 82.471514 352.927002 
L 88.329904 353.2239 
L 100.046682 353.179268 
L 117.62185 353.2239 
L 949.513125 353.2239 
L 949.513125 353.2239 
" style="fill:none;stroke:#434348;stroke-linecap:square;"/>
   </g>
   <g id="line2d_99">
    <path clip-path="url(#pb7b0cef8c6)" d="M 76.613125 353.2239 
L 82.471514 352.983944 
L 88.329904 353.2239 
L 100.046682 353.206125 
L 141.055407 353.2239 
L 164.488964 353.2239 
L 322.665474 353.217904 
L 328.523863 353.109803 
L 334.382253 353.2239 
L 949.513125 353.2239 
L 949.513125 353.2239 
" style="fill:none;stroke:#90ed7d;stroke-linecap:square;"/>
   </g>
   <g id="line2d_100">
    <path clip-path="url(#pb7b0cef8c6)" d="M 76.613125 353.2239 
L 82.471514 352.982573 
L 88.329904 353.2239 
L 100.046682 353.196248 
L 123.480239 353.2239 
L 381.249367 353.2239 
L 949.513125 353.2239 
L 949.513125 353.2239 
" style="fill:none;stroke:#f7a35c;stroke-linecap:square;"/>
   </g>
   <g id="line2d_101">
    <path clip-path="url(#pb7b0cef8c6)" d="M 76.613125 353.2239 
L 82.471514 353.027262 
L 88.329904 353.2239 
L 100.046682 353.187783 
L 123.480239 353.2239 
L 949.513125 353.2239 
L 949.513125 353.2239 
" style="fill:none;stroke:#8085e9;stroke-linecap:square;"/>
   </g>
   <g id="line2d_102">
    <path clip-path="url(#pb7b0cef8c6)" d="M 76.613125 353.2239 
L 82.471514 353.01293 
L 88.329904 353.2239 
L 100.046682 353.187813 
L 123.480239 353.2239 
L 949.513125 353.2239 
L 949.513125 353.2239 
" style="fill:none;stroke:#f15c80;stroke-linecap:square;"/>
   </g>
   <g id="line2d_103">
    <path clip-path="url(#pb7b0cef8c6)" d="M 76.613125 353.2239 
L 82.471514 353.063901 
L 88.329904 353.2239 
L 105.905071 353.2239 
L 949.513125 353.2239 
L 949.513125 353.2239 
" style="fill:none;stroke:#e4d354;stroke-linecap:square;"/>
   </g>
   <g id="line2d_104">
    <path clip-path="url(#pb7b0cef8c6)" d="M 76.613125 353.2239 
L 82.471514 352.993813 
L 88.329904 353.219204 
L 100.046682 353.186335 
L 117.62185 353.2239 
L 949.513125 353.2239 
L 949.513125 353.2239 
" style="fill:none;stroke:#2b908f;stroke-linecap:square;"/>
   </g>
   <g id="line2d_105">
    <path clip-path="url(#pb7b0cef8c6)" d="M 76.613125 353.2239 
L 82.471514 353.029009 
L 88.329904 353.2239 
L 100.046682 353.197018 
L 123.480239 353.2239 
L 217.214467 353.2239 
L 949.513125 353.2239 
L 949.513125 353.2239 
" style="fill:none;stroke:#f45b5b;stroke-linecap:square;"/>
   </g>
   <g id="line2d_106">
    <path clip-path="url(#pb7b0cef8c6)" d="M 76.613125 353.2239 
L 82.471514 352.995563 
L 88.329904 353.218882 
L 100.046682 353.196299 
L 123.480239 353.2239 
L 258.223192 353.158661 
L 269.939971 353.2239 
L 322.665474 353.216293 
L 328.523863 353.109658 
L 334.382253 353.2239 
L 949.513125 353.2239 
L 949.513125 353.2239 
" style="fill:none;stroke:#91e8e1;stroke-linecap:square;"/>
   </g>
   <g id="line2d_107">
    <path clip-path="url(#pb7b0cef8c6)" d="M 76.613125 353.2239 
L 82.471514 352.99426 
L 88.329904 353.2239 
L 94.188293 353.14225 
L 111.763461 353.2239 
L 949.513125 353.2239 
L 949.513125 353.2239 
" style="fill:none;stroke:#7cb5ec;stroke-linecap:square;"/>
   </g>
   <g id="line2d_108">
    <path clip-path="url(#pb7b0cef8c6)" d="M 76.613125 353.2239 
L 82.471514 352.985331 
L 88.329904 353.2239 
L 100.046682 353.187197 
L 123.480239 353.2239 
L 949.513125 353.2239 
L 949.513125 353.2239 
" style="fill:none;stroke:#434348;stroke-linecap:square;"/>
   </g>
   <g id="line2d_109">
    <path clip-path="url(#pb7b0cef8c6)" d="M 76.613125 353.2239 
L 82.471514 352.997082 
L 88.329904 353.2239 
L 100.046682 353.134952 
L 111.763461 353.2239 
L 322.665474 353.219414 
L 328.523863 353.093693 
L 334.382253 353.2239 
L 949.513125 353.2239 
L 949.513125 353.2239 
" style="fill:none;stroke:#90ed7d;stroke-linecap:square;"/>
   </g>
   <g id="line2d_110">
    <path clip-path="url(#pb7b0cef8c6)" d="M 76.613125 353.2239 
L 82.471514 353.020193 
L 88.329904 353.2239 
L 94.188293 353.157384 
L 111.763461 353.2239 
L 949.513125 353.2239 
L 949.513125 353.2239 
" style="fill:none;stroke:#f7a35c;stroke-linecap:square;"/>
   </g>
   <g id="line2d_111">
    <path clip-path="url(#pb7b0cef8c6)" d="M 76.613125 353.2239 
L 82.471514 352.954404 
L 88.329904 353.2239 
L 100.046682 353.178984 
L 117.62185 353.2239 
L 639.018494 353.2239 
L 644.876883 353.112678 
L 650.735273 353.2239 
L 949.513125 353.2239 
L 949.513125 353.2239 
" style="fill:none;stroke:#8085e9;stroke-linecap:square;"/>
   </g>
   <g id="line2d_112">
    <path clip-path="url(#pb7b0cef8c6)" d="M 76.613125 353.2239 
L 82.471514 353.017006 
L 88.329904 353.2239 
L 100.046682 353.181789 
L 117.62185 353.2239 
L 949.513125 353.2239 
L 949.513125 353.2239 
" style="fill:none;stroke:#f15c80;stroke-linecap:square;"/>
   </g>
   <g id="line2d_113">
    <path clip-path="url(#pb7b0cef8c6)" d="M 76.613125 353.2239 
L 82.471514 352.961131 
L 88.329904 353.2239 
L 94.188293 353.13631 
L 117.62185 353.2239 
L 949.513125 353.2239 
L 949.513125 353.2239 
" style="fill:none;stroke:#e4d354;stroke-linecap:square;"/>
   </g>
   <g id="line2d_114">
    <path clip-path="url(#pb7b0cef8c6)" d="M 76.613125 353.2239 
L 82.471514 352.955949 
L 88.329904 353.222567 
L 100.046682 353.171909 
L 117.62185 353.2239 
L 949.513125 353.2239 
L 949.513125 353.2239 
" style="fill:none;stroke:#2b908f;stroke-linecap:square;"/>
   </g>
   <g id="line2d_115">
    <path clip-path="url(#pb7b0cef8c6)" d="M 76.613125 353.2239 
L 82.471514 352.97784 
L 88.329904 353.2239 
L 100.046682 353.183162 
L 117.62185 353.2239 
L 322.665474 353.212392 
L 328.523863 353.103776 
L 334.382253 353.2239 
L 949.513125 353.2239 
L 949.513125 353.2239 
" style="fill:none;stroke:#f45b5b;stroke-linecap:square;"/>
   </g>
   <g id="line2d_116">
    <path clip-path="url(#pb7b0cef8c6)" d="M 76.613125 353.2239 
L 82.471514 352.992968 
L 88.329904 353.2239 
L 100.046682 353.188581 
L 123.480239 353.2239 
L 357.81581 353.2239 
L 949.513125 353.2239 
L 949.513125 353.2239 
" style="fill:none;stroke:#91e8e1;stroke-linecap:square;"/>
   </g>
   <g id="line2d_117">
    <path clip-path="url(#pb7b0cef8c6)" d="M 76.613125 353.2239 
L 82.471514 353.008858 
L 88.329904 353.219511 
L 105.905071 353.2239 
L 949.513125 353.2239 
L 949.513125 353.2239 
" style="fill:none;stroke:#7cb5ec;stroke-linecap:square;"/>
   </g>
   <g id="line2d_118">
    <path clip-path="url(#pb7b0cef8c6)" d="M 76.613125 353.2239 
L 82.471514 352.97727 
L 88.329904 353.222648 
L 100.046682 353.183838 
L 117.62185 353.2239 
L 949.513125 353.2239 
L 949.513125 353.2239 
" style="fill:none;stroke:#434348;stroke-linecap:square;"/>
   </g>
   <g id="line2d_119">
    <path clip-path="url(#pb7b0cef8c6)" d="M 76.613125 353.2239 
L 82.471514 353.046358 
L 88.329904 353.2239 
L 105.905071 353.2239 
L 949.513125 353.2239 
L 949.513125 353.2239 
" style="fill:none;stroke:#90ed7d;stroke-linecap:square;"/>
   </g>
   <g id="line2d_120">
    <path clip-path="url(#pb7b0cef8c6)" d="M 76.613125 353.2239 
L 82.471514 352.957052 
L 88.329904 353.219259 
L 100.046682 353.189094 
L 123.480239 353.2239 
L 322.665474 353.219222 
L 328.523863 353.104513 
L 334.382253 353.2239 
L 949.513125 353.2239 
L 949.513125 353.2239 
" style="fill:none;stroke:#f7a35c;stroke-linecap:square;"/>
   </g>
   <g id="line2d_121">
    <path clip-path="url(#pb7b0cef8c6)" d="M 76.613125 353.2239 
L 82.471514 353.015174 
L 88.329904 353.2239 
L 100.046682 353.179958 
L 117.62185 353.2239 
L 949.513125 353.2239 
L 949.513125 353.2239 
" style="fill:none;stroke:#8085e9;stroke-linecap:square;"/>
   </g>
   <g id="line2d_122">
    <path clip-path="url(#pb7b0cef8c6)" d="M 76.613125 353.2239 
L 82.471514 353.002081 
L 88.329904 353.2239 
L 100.046682 353.163653 
L 111.763461 353.2239 
L 949.513125 353.2239 
L 949.513125 353.2239 
" style="fill:none;stroke:#f15c80;stroke-linecap:square;"/>
   </g>
   <g id="line2d_123">
    <path clip-path="url(#pb7b0cef8c6)" d="M 76.613125 353.2239 
L 82.471514 352.942195 
L 88.329904 353.222203 
L 94.188293 353.130564 
L 111.763461 353.2239 
L 949.513125 353.2239 
L 949.513125 353.2239 
" style="fill:none;stroke:#e4d354;stroke-linecap:square;"/>
   </g>
   <g id="line2d_124">
    <path clip-path="url(#pb7b0cef8c6)" d="M 76.613125 353.2239 
L 82.471514 353.018703 
L 88.329904 353.22101 
L 100.046682 353.194999 
L 123.480239 353.2239 
L 949.513125 353.2239 
L 949.513125 353.2239 
" style="fill:none;stroke:#2b908f;stroke-linecap:square;"/>
   </g>
   <g id="line2d_125">
    <path clip-path="url(#pb7b0cef8c6)" d="M 76.613125 353.2239 
L 82.471514 352.982857 
L 88.329904 353.2239 
L 100.046682 353.176867 
L 117.62185 353.2239 
L 949.513125 353.2239 
L 949.513125 353.2239 
" style="fill:none;stroke:#f45b5b;stroke-linecap:square;"/>
   </g>
   <g id="line2d_126">
    <path clip-path="url(#pb7b0cef8c6)" d="M 76.613125 353.2239 
L 82.471514 352.997758 
L 88.329904 353.2239 
L 100.046682 353.187717 
L 123.480239 353.222091 
L 322.665474 353.216599 
L 328.523863 353.108791 
L 334.382253 353.2239 
L 949.513125 353.2239 
L 949.513125 353.2239 
" style="fill:none;stroke:#91e8e1;stroke-linecap:square;"/>
   </g>
   <g id="line2d_127">
    <path clip-path="url(#pb7b0cef8c6)" d="M 76.613125 353.2239 
L 82.471514 352.994463 
L 88.329904 353.22205 
L 100.046682 353.197996 
L 129.338628 353.220199 
L 322.665474 353.216418 
L 328.523863 353.130261 
L 340.240642 353.2239 
L 949.513125 353.2239 
L 949.513125 353.2239 
" style="fill:none;stroke:#7cb5ec;stroke-linecap:square;"/>
   </g>
   <g id="line2d_128">
    <path clip-path="url(#pb7b0cef8c6)" d="M 76.613125 353.2239 
L 82.471514 352.932831 
L 88.329904 353.2239 
L 94.188293 353.126877 
L 105.905071 353.2239 
L 322.665474 353.2239 
L 328.523863 353.111043 
L 334.382253 353.2239 
L 949.513125 353.2239 
L 949.513125 353.2239 
" style="fill:none;stroke:#434348;stroke-linecap:square;"/>
   </g>
   <g id="line2d_129">
    <path clip-path="url(#pb7b0cef8c6)" d="M 76.613125 353.2239 
L 82.471514 353.005592 
L 88.329904 353.2239 
L 100.046682 353.188499 
L 123.480239 353.219967 
L 228.931246 353.221933 
L 240.648024 353.2239 
L 275.79836 353.2239 
L 949.513125 353.2239 
L 949.513125 353.2239 
" style="fill:none;stroke:#90ed7d;stroke-linecap:square;"/>
   </g>
   <g id="line2d_130">
    <path clip-path="url(#pb7b0cef8c6)" d="M 76.613125 353.2239 
L 82.471514 353.011305 
L 88.329904 353.2239 
L 105.905071 353.2239 
L 949.513125 353.2239 
L 949.513125 353.2239 
" style="fill:none;stroke:#f7a35c;stroke-linecap:square;"/>
   </g>
   <g id="line2d_131">
    <path clip-path="url(#pb7b0cef8c6)" d="M 76.613125 353.2239 
L 82.471514 352.939029 
L 88.329904 353.2239 
L 94.188293 353.141196 
L 111.763461 353.2239 
L 639.018494 353.2239 
L 644.876883 353.107845 
L 650.735273 353.2239 
L 949.513125 353.2239 
L 949.513125 353.2239 
" style="fill:none;stroke:#8085e9;stroke-linecap:square;"/>
   </g>
   <g id="line2d_132">
    <path clip-path="url(#pb7b0cef8c6)" d="M 76.613125 353.2239 
L 82.471514 353.002911 
L 88.329904 353.2239 
L 100.046682 353.182859 
L 117.62185 353.2239 
L 949.513125 353.2239 
L 949.513125 353.2239 
" style="fill:none;stroke:#f15c80;stroke-linecap:square;"/>
   </g>
   <g id="line2d_133">
    <path clip-path="url(#pb7b0cef8c6)" d="M 76.613125 353.2239 
L 82.471514 352.988415 
L 88.329904 353.2239 
L 100.046682 353.17635 
L 117.62185 353.2239 
L 949.513125 353.2239 
L 949.513125 353.2239 
" style="fill:none;stroke:#e4d354;stroke-linecap:square;"/>
   </g>
   <g id="line2d_134">
    <path clip-path="url(#pb7b0cef8c6)" d="M 76.613125 353.2239 
L 82.471514 352.961462 
L 88.329904 353.2223 
L 100.046682 353.171092 
L 117.62185 353.2239 
L 322.665474 353.219059 
L 328.523863 353.109239 
L 334.382253 353.2239 
L 949.513125 353.2239 
L 949.513125 353.2239 
" style="fill:none;stroke:#2b908f;stroke-linecap:square;"/>
   </g>
   <g id="line2d_135">
    <path clip-path="url(#pb7b0cef8c6)" d="M 76.613125 353.2239 
L 82.471514 352.993241 
L 88.329904 353.2239 
L 100.046682 353.194454 
L 123.480239 353.2239 
L 949.513125 353.2239 
L 949.513125 353.2239 
" style="fill:none;stroke:#f45b5b;stroke-linecap:square;"/>
   </g>
   <g id="line2d_136">
    <path clip-path="url(#pb7b0cef8c6)" d="M 76.613125 353.2239 
L 82.471514 352.964168 
L 88.329904 353.222809 
L 100.046682 353.166061 
L 111.763461 353.2239 
L 322.665474 353.218398 
L 328.523863 353.108259 
L 334.382253 353.2239 
L 949.513125 353.2239 
L 949.513125 353.2239 
" style="fill:none;stroke:#91e8e1;stroke-linecap:square;"/>
   </g>
   <g id="line2d_137">
    <path clip-path="url(#pb7b0cef8c6)" d="M 76.613125 353.2239 
L 82.471514 352.991141 
L 88.329904 353.2239 
L 100.046682 353.192399 
L 123.480239 353.2239 
L 949.513125 353.2239 
L 949.513125 353.2239 
" style="fill:none;stroke:#7cb5ec;stroke-linecap:square;"/>
   </g>
   <g id="line2d_138">
    <path clip-path="url(#pb7b0cef8c6)" d="M 76.613125 353.2239 
L 82.471514 352.938208 
L 88.329904 353.2239 
L 100.046682 353.202996 
L 135.197018 353.2239 
L 639.018494 353.2239 
L 644.876883 353.103646 
L 650.735273 353.2239 
L 949.513125 353.2239 
L 949.513125 353.2239 
" style="fill:none;stroke:#434348;stroke-linecap:square;"/>
   </g>
   <g id="line2d_139">
    <path clip-path="url(#pb7b0cef8c6)" d="M 76.613125 353.2239 
L 82.471514 353.02131 
L 88.329904 353.2239 
L 100.046682 353.191047 
L 123.480239 353.2239 
L 949.513125 353.2239 
L 949.513125 353.2239 
" style="fill:none;stroke:#90ed7d;stroke-linecap:square;"/>
   </g>
   <g id="line2d_140">
    <path clip-path="url(#pb7b0cef8c6)" d="M 76.613125 353.2239 
L 82.471514 352.916532 
L 88.329904 353.2239 
L 100.046682 353.195528 
L 123.480239 353.2239 
L 949.513125 353.2239 
L 949.513125 353.2239 
" style="fill:none;stroke:#f7a35c;stroke-linecap:square;"/>
   </g>
   <g id="line2d_141">
    <path clip-path="url(#pb7b0cef8c6)" d="M 76.613125 353.2239 
L 82.471514 353.031543 
L 88.329904 353.2239 
L 100.046682 353.185829 
L 117.62185 353.2239 
L 949.513125 353.2239 
L 949.513125 353.2239 
" style="fill:none;stroke:#8085e9;stroke-linecap:square;"/>
   </g>
   <g id="line2d_142">
    <path clip-path="url(#pb7b0cef8c6)" d="M 76.613125 353.2239 
L 82.471514 353.039458 
L 88.329904 353.220876 
L 105.905071 353.2239 
L 949.513125 353.2239 
L 949.513125 353.2239 
" style="fill:none;stroke:#f15c80;stroke-linecap:square;"/>
   </g>
   <g id="line2d_143">
    <path clip-path="url(#pb7b0cef8c6)" d="M 76.613125 353.2239 
L 82.471514 352.95955 
L 88.329904 353.2239 
L 94.188293 353.144595 
L 123.480239 353.2239 
L 340.240642 353.2239 
L 949.513125 353.2239 
L 949.513125 353.2239 
" style="fill:none;stroke:#e4d354;stroke-linecap:square;"/>
   </g>
   <g id="line2d_144">
    <path clip-path="url(#pb7b0cef8c6)" d="M 76.613125 353.2239 
L 82.471514 352.937358 
L 88.329904 353.2239 
L 100.046682 353.176797 
L 117.62185 353.2239 
L 949.513125 353.2239 
L 949.513125 353.2239 
" style="fill:none;stroke:#2b908f;stroke-linecap:square;"/>
   </g>
   <g id="line2d_145">
    <path clip-path="url(#pb7b0cef8c6)" d="M 76.613125 353.2239 
L 82.471514 353.012113 
L 88.329904 353.2239 
L 100.046682 353.151892 
L 111.763461 353.2239 
L 949.513125 353.2239 
L 949.513125 353.2239 
" style="fill:none;stroke:#f45b5b;stroke-linecap:square;"/>
   </g>
   <g id="line2d_146">
    <path clip-path="url(#pb7b0cef8c6)" d="M 76.613125 353.2239 
L 82.471514 352.992978 
L 88.329904 353.2239 
L 94.188293 353.156313 
L 111.763461 353.2239 
L 949.513125 353.2239 
L 949.513125 353.2239 
" style="fill:none;stroke:#91e8e1;stroke-linecap:square;"/>
   </g>
   <g id="line2d_147">
    <path clip-path="url(#pb7b0cef8c6)" d="M 76.613125 353.2239 
L 82.471514 352.964118 
L 88.329904 353.220612 
L 100.046682 353.167998 
L 111.763461 353.2239 
L 949.513125 353.2239 
L 949.513125 353.2239 
" style="fill:none;stroke:#7cb5ec;stroke-linecap:square;"/>
   </g>
   <g id="line2d_148">
    <path clip-path="url(#pb7b0cef8c6)" d="M 76.613125 353.2239 
L 82.471514 353.01338 
L 88.329904 353.2239 
L 100.046682 353.213104 
L 164.488964 353.2239 
L 949.513125 353.2239 
L 949.513125 353.2239 
" style="fill:none;stroke:#434348;stroke-linecap:square;"/>
   </g>
   <g id="line2d_149">
    <path clip-path="url(#pb7b0cef8c6)" d="M 76.613125 353.2239 
L 82.471514 353.007431 
L 88.329904 353.2239 
L 100.046682 353.181176 
L 117.62185 353.2239 
L 949.513125 353.2239 
L 949.513125 353.2239 
" style="fill:none;stroke:#90ed7d;stroke-linecap:square;"/>
   </g>
   <g id="line2d_150">
    <path clip-path="url(#pb7b0cef8c6)" d="M 76.613125 353.2239 
L 82.471514 352.97179 
L 88.329904 353.2239 
L 94.188293 353.153869 
L 117.62185 353.2239 
L 949.513125 353.2239 
L 949.513125 353.2239 
" style="fill:none;stroke:#f7a35c;stroke-linecap:square;"/>
   </g>
   <g id="line2d_151">
    <path clip-path="url(#pb7b0cef8c6)" d="M 76.613125 353.2239 
L 82.471514 352.962879 
L 88.329904 353.2239 
L 94.188293 353.148204 
L 123.480239 353.2239 
L 369.532588 353.2239 
L 949.513125 353.2239 
L 949.513125 353.2239 
" style="fill:none;stroke:#8085e9;stroke-linecap:square;"/>
   </g>
   <g id="line2d_152">
    <path clip-path="url(#pb7b0cef8c6)" d="M 76.613125 353.2239 
L 82.471514 352.992337 
L 88.329904 353.2239 
L 100.046682 353.19196 
L 123.480239 353.2239 
L 949.513125 353.2239 
L 949.513125 353.2239 
" style="fill:none;stroke:#f15c80;stroke-linecap:square;"/>
   </g>
   <g id="line2d_153">
    <path clip-path="url(#pb7b0cef8c6)" d="M 76.613125 353.2239 
L 82.471514 352.880664 
L 88.329904 353.2239 
L 100.046682 353.157893 
L 111.763461 353.2239 
L 949.513125 353.2239 
L 949.513125 353.2239 
" style="fill:none;stroke:#e4d354;stroke-linecap:square;"/>
   </g>
   <g id="line2d_154">
    <path clip-path="url(#pb7b0cef8c6)" d="M 76.613125 353.2239 
L 82.471514 352.990836 
L 88.329904 353.2239 
L 94.188293 353.09442 
L 105.905071 353.2239 
L 949.513125 353.2239 
L 949.513125 353.2239 
" style="fill:none;stroke:#2b908f;stroke-linecap:square;"/>
   </g>
   <g id="line2d_155">
    <path clip-path="url(#pb7b0cef8c6)" d="M 76.613125 353.2239 
L 82.471514 352.979714 
L 88.329904 353.2239 
L 100.046682 353.181433 
L 117.62185 353.2239 
L 322.665474 353.2239 
L 328.523863 353.100668 
L 334.382253 353.2239 
L 949.513125 353.2239 
L 949.513125 353.2239 
" style="fill:none;stroke:#f45b5b;stroke-linecap:square;"/>
   </g>
   <g id="line2d_156">
    <path clip-path="url(#pb7b0cef8c6)" d="M 76.613125 353.2239 
L 82.471514 352.946806 
L 88.329904 353.2239 
L 94.188293 353.154626 
L 111.763461 353.2239 
L 639.018494 353.2239 
L 644.876883 353.044334 
L 650.735273 353.2239 
L 949.513125 353.2239 
L 949.513125 353.2239 
" style="fill:none;stroke:#91e8e1;stroke-linecap:square;"/>
   </g>
   <g id="line2d_157">
    <path clip-path="url(#pb7b0cef8c6)" d="M 76.613125 353.2239 
L 82.471514 353.080889 
L 88.329904 353.2239 
L 94.188293 353.2239 
L 100.046682 353.080889 
L 105.905071 353.2239 
L 949.513125 353.2239 
L 949.513125 353.2239 
" style="fill:none;stroke:#7cb5ec;stroke-linecap:square;"/>
   </g>
   <g id="line2d_158">
    <path clip-path="url(#pb7b0cef8c6)" d="M 76.613125 353.2239 
L 82.471514 352.850103 
L 88.329904 353.2239 
L 94.188293 353.063701 
L 123.480239 353.2239 
L 949.513125 353.2239 
L 949.513125 353.2239 
" style="fill:none;stroke:#434348;stroke-linecap:square;"/>
   </g>
   <g id="line2d_159">
    <path clip-path="url(#pb7b0cef8c6)" d="M 76.613125 353.2239 
L 82.471514 353.155008 
L 94.188293 353.2239 
L 100.046682 353.155008 
L 111.763461 353.2239 
L 609.726548 353.2239 
L 615.584937 352.95221 
L 621.443326 353.2239 
L 949.513125 353.2239 
L 949.513125 353.2239 
" style="fill:none;stroke:#90ed7d;stroke-linecap:square;"/>
   </g>
   <g id="line2d_160">
    <path clip-path="url(#pb7b0cef8c6)" d="M 76.613125 353.2239 
L 82.471514 352.987383 
L 88.329904 353.2239 
L 949.513125 353.2239 
L 949.513125 353.2239 
" style="fill:none;stroke:#f7a35c;stroke-linecap:square;"/>
   </g>
   <g id="line2d_161">
    <path clip-path="url(#pb7b0cef8c6)" d="M 76.613125 353.2239 
L 82.471514 353.079712 
L 88.329904 353.2239 
L 949.513125 353.2239 
L 949.513125 353.2239 
" style="fill:none;stroke:#8085e9;stroke-linecap:square;"/>
   </g>
   <g id="line2d_162">
    <path clip-path="url(#pb7b0cef8c6)" d="M 76.613125 353.2239 
L 949.513125 353.2239 
L 949.513125 353.2239 
" style="fill:none;stroke:#f15c80;stroke-linecap:square;"/>
   </g>
   <g id="line2d_163">
    <path clip-path="url(#pb7b0cef8c6)" d="M 76.613125 353.2239 
L 82.471514 353.083632 
L 88.329904 353.2239 
L 949.513125 353.2239 
L 949.513125 353.2239 
" style="fill:none;stroke:#e4d354;stroke-linecap:square;"/>
   </g>
   <g id="line2d_164">
    <path clip-path="url(#pb7b0cef8c6)" d="M 76.613125 353.2239 
L 82.471514 353.012767 
L 88.329904 353.2239 
L 94.188293 353.105138 
L 105.905071 353.2239 
L 949.513125 353.2239 
L 949.513125 353.2239 
" style="fill:none;stroke:#2b908f;stroke-linecap:square;"/>
   </g>
   <g id="line2d_165">
    <path clip-path="url(#pb7b0cef8c6)" d="M 76.613125 353.2239 
L 82.471514 353.00702 
L 88.329904 353.2239 
L 100.046682 353.212177 
L 158.630575 353.2239 
L 949.513125 353.2239 
L 949.513125 353.2239 
" style="fill:none;stroke:#f45b5b;stroke-linecap:square;"/>
   </g>
   <g id="line2d_166">
    <path clip-path="url(#pb7b0cef8c6)" d="M 76.613125 353.2239 
L 82.471514 353.018645 
L 88.329904 353.2239 
L 105.905071 353.2239 
L 949.513125 353.2239 
L 949.513125 353.2239 
" style="fill:none;stroke:#91e8e1;stroke-linecap:square;"/>
   </g>
   <g id="line2d_167">
    <path clip-path="url(#pb7b0cef8c6)" d="M 76.613125 353.2239 
L 82.471514 353.153698 
L 94.188293 353.2239 
L 949.513125 353.2239 
L 949.513125 353.2239 
" style="fill:none;stroke:#7cb5ec;stroke-linecap:square;"/>
   </g>
   <g id="line2d_168">
    <path clip-path="url(#pb7b0cef8c6)" d="M 76.613125 353.2239 
L 82.471514 353.124962 
L 88.329904 353.2239 
L 100.046682 353.124962 
L 111.763461 353.2239 
L 504.275541 353.2239 
L 510.13393 353.110546 
L 515.99232 353.2239 
L 568.717823 353.2239 
L 574.576212 353.103905 
L 580.434602 353.2239 
L 609.726548 353.2239 
L 615.584937 353.099226 
L 621.443326 353.2239 
L 633.160105 353.2239 
L 639.018494 353.096233 
L 644.876883 353.095475 
L 650.735273 353.2239 
L 949.513125 353.2239 
L 949.513125 353.2239 
" style="fill:none;stroke:#434348;stroke-linecap:square;"/>
   </g>
   <g id="line2d_169">
    <path clip-path="url(#pb7b0cef8c6)" d="M 76.613125 353.2239 
L 82.471514 352.921837 
L 88.329904 353.2239 
L 94.188293 353.072868 
L 105.905071 353.2239 
L 639.018494 353.2239 
L 644.876883 353.103803 
L 650.735273 353.2239 
L 949.513125 353.2239 
L 949.513125 353.2239 
" style="fill:none;stroke:#90ed7d;stroke-linecap:square;"/>
   </g>
   <g id="line2d_170">
    <path clip-path="url(#pb7b0cef8c6)" d="M 76.613125 353.2239 
L 82.471514 352.806834 
L 88.329904 353.2239 
L 94.188293 353.104738 
L 111.763461 353.2239 
L 949.513125 353.2239 
L 949.513125 353.2239 
" style="fill:none;stroke:#f7a35c;stroke-linecap:square;"/>
   </g>
   <g id="line2d_171">
    <path clip-path="url(#pb7b0cef8c6)" d="M 76.613125 353.2239 
L 94.188293 353.2239 
L 100.046682 353.06575 
L 105.905071 353.2239 
L 609.726548 353.2239 
L 615.584937 353.017253 
L 621.443326 353.2239 
L 949.513125 353.2239 
L 949.513125 353.2239 
" style="fill:none;stroke:#8085e9;stroke-linecap:square;"/>
   </g>
   <g id="line2d_172">
    <path clip-path="url(#pb7b0cef8c6)" d="M 76.613125 353.2239 
L 82.471514 353.032477 
L 88.329904 353.2239 
L 100.046682 353.20375 
L 135.197018 353.2239 
L 949.513125 353.2239 
L 949.513125 353.2239 
" style="fill:none;stroke:#f15c80;stroke-linecap:square;"/>
   </g>
   <g id="line2d_173">
    <path clip-path="url(#pb7b0cef8c6)" d="M 76.613125 353.2239 
L 82.471514 353.021413 
L 88.329904 353.2239 
L 100.046682 353.20089 
L 129.338628 353.219298 
L 228.931246 353.214696 
L 246.506414 353.205492 
L 287.515138 353.2239 
L 949.513125 353.2239 
L 949.513125 353.2239 
" style="fill:none;stroke:#e4d354;stroke-linecap:square;"/>
   </g>
   <g id="line2d_174">
    <path clip-path="url(#pb7b0cef8c6)" d="M 76.613125 353.2239 
L 82.471514 353.084135 
L 88.329904 353.2239 
L 228.931246 353.2239 
L 234.789635 353.084135 
L 240.648024 353.2239 
L 252.364803 353.2239 
L 258.223192 353.084135 
L 264.081581 353.2239 
L 322.665474 353.2239 
L 328.523863 353.080445 
L 334.382253 353.2239 
L 639.018494 353.2239 
L 644.876883 353.02295 
L 650.735273 353.2239 
L 949.513125 353.2239 
L 949.513125 353.2239 
" style="fill:none;stroke:#2b908f;stroke-linecap:square;"/>
   </g>
   <g id="line2d_175">
    <path clip-path="url(#pb7b0cef8c6)" d="M 76.613125 353.2239 
L 82.471514 352.965174 
L 88.329904 353.2239 
L 94.188293 353.2239 
L 100.046682 353.094537 
L 105.905071 353.2239 
L 949.513125 353.2239 
L 949.513125 353.2239 
" style="fill:none;stroke:#f45b5b;stroke-linecap:square;"/>
   </g>
   <g id="line2d_176">
    <path clip-path="url(#pb7b0cef8c6)" d="M 76.613125 353.2239 
L 82.471514 353.096488 
L 88.329904 353.2239 
L 949.513125 353.2239 
L 949.513125 353.2239 
" style="fill:none;stroke:#91e8e1;stroke-linecap:square;"/>
   </g>
   <g id="line2d_177">
    <path clip-path="url(#pb7b0cef8c6)" d="M 76.613125 353.2239 
L 82.471514 353.087307 
L 88.329904 353.2239 
L 94.188293 353.087307 
L 100.046682 353.087307 
L 105.905071 353.2239 
L 387.107756 353.2239 
L 392.966145 353.081284 
L 398.824534 353.2239 
L 627.301716 353.2239 
L 633.160105 353.056262 
L 639.018494 353.2239 
L 644.876883 353.054637 
L 650.735273 353.2239 
L 949.513125 353.2239 
L 949.513125 353.2239 
" style="fill:none;stroke:#7cb5ec;stroke-linecap:square;"/>
   </g>
   <g id="line2d_178">
    <path clip-path="url(#pb7b0cef8c6)" d="M 76.613125 353.2239 
L 949.513125 353.2239 
L 949.513125 353.2239 
" style="fill:none;stroke:#434348;stroke-linecap:square;"/>
   </g>
   <g id="line2d_179">
    <path clip-path="url(#pb7b0cef8c6)" d="M 76.613125 353.2239 
L 82.471514 352.992524 
L 88.329904 353.2239 
L 111.763461 353.2239 
L 639.018494 353.2239 
L 644.876883 353.108951 
L 650.735273 353.2239 
L 949.513125 353.2239 
L 949.513125 353.2239 
" style="fill:none;stroke:#90ed7d;stroke-linecap:square;"/>
   </g>
   <g id="line2d_180">
    <path clip-path="url(#pb7b0cef8c6)" d="M 76.613125 353.2239 
L 82.471514 352.862999 
L 88.329904 353.2239 
L 94.188293 353.07954 
L 111.763461 353.2239 
L 949.513125 353.2239 
L 949.513125 353.2239 
" style="fill:none;stroke:#f7a35c;stroke-linecap:square;"/>
   </g>
   <g id="line2d_181">
    <path clip-path="url(#pb7b0cef8c6)" d="M 76.613125 353.2239 
L 82.471514 353.139071 
L 94.188293 353.2239 
L 129.338628 353.2239 
L 949.513125 353.2239 
L 949.513125 353.2239 
" style="fill:none;stroke:#8085e9;stroke-linecap:square;"/>
   </g>
   <g id="line2d_182">
    <path clip-path="url(#pb7b0cef8c6)" d="M 76.613125 353.2239 
L 82.471514 353.07848 
L 88.329904 353.2239 
L 94.188293 353.07848 
L 100.046682 353.2239 
L 252.364803 353.2239 
L 258.223192 353.07848 
L 264.081581 353.2239 
L 322.665474 353.149854 
L 328.523863 353.075452 
L 334.382253 353.2239 
L 949.513125 353.2239 
L 949.513125 353.2239 
" style="fill:none;stroke:#f15c80;stroke-linecap:square;"/>
   </g>
   <g id="line2d_183">
    <path clip-path="url(#pb7b0cef8c6)" d="M 76.613125 353.2239 
L 82.471514 352.990049 
L 88.329904 353.2239 
L 111.763461 353.2239 
L 639.018494 353.2239 
L 644.876883 353.098221 
L 650.735273 353.2239 
L 949.513125 353.2239 
L 949.513125 353.2239 
" style="fill:none;stroke:#e4d354;stroke-linecap:square;"/>
   </g>
   <g id="line2d_184">
    <path clip-path="url(#pb7b0cef8c6)" d="M 76.613125 353.2239 
L 82.471514 352.93628 
L 88.329904 353.2239 
L 100.046682 353.151995 
L 111.763461 353.2239 
L 639.018494 353.2239 
L 644.876883 353.11057 
L 650.735273 353.2239 
L 949.513125 353.2239 
L 949.513125 353.2239 
" style="fill:none;stroke:#2b908f;stroke-linecap:square;"/>
   </g>
   <g id="line2d_185">
    <path clip-path="url(#pb7b0cef8c6)" d="M 76.613125 353.2239 
L 82.471514 353.043196 
L 88.329904 353.2239 
L 94.188293 353.043196 
L 100.046682 353.2239 
L 639.018494 353.2239 
L 644.876883 353.100451 
L 650.735273 353.2239 
L 949.513125 353.2239 
L 949.513125 353.2239 
" style="fill:none;stroke:#f45b5b;stroke-linecap:square;"/>
   </g>
   <g id="line2d_186">
    <path clip-path="url(#pb7b0cef8c6)" d="M 76.613125 353.2239 
L 82.471514 352.999402 
L 88.329904 353.2239 
L 94.188293 353.2239 
L 100.046682 352.999402 
L 105.905071 353.2239 
L 609.726548 353.2239 
L 615.584937 352.923306 
L 621.443326 353.2239 
L 949.513125 353.2239 
L 949.513125 353.2239 
" style="fill:none;stroke:#91e8e1;stroke-linecap:square;"/>
   </g>
   <g id="line2d_187">
    <path clip-path="url(#pb7b0cef8c6)" d="M 76.613125 353.2239 
L 82.471514 352.929508 
L 88.329904 353.2239 
L 94.188293 352.978573 
L 100.046682 353.2239 
L 228.931246 353.2239 
L 234.789635 353.076704 
L 240.648024 353.2239 
L 258.223192 353.076704 
L 264.081581 353.2239 
L 322.665474 353.2239 
L 328.523863 353.02261 
L 334.382253 353.2239 
L 639.018494 353.2239 
L 644.876883 353.088699 
L 650.735273 353.2239 
L 949.513125 353.2239 
L 949.513125 353.2239 
" style="fill:none;stroke:#7cb5ec;stroke-linecap:square;"/>
   </g>
   <g id="line2d_188">
    <path clip-path="url(#pb7b0cef8c6)" d="M 76.613125 353.2239 
L 82.471514 353.077598 
L 88.329904 353.2239 
L 100.046682 353.15075 
L 111.763461 353.2239 
L 240.648024 353.2239 
L 246.506414 353.077598 
L 252.364803 353.2239 
L 322.665474 353.2239 
L 328.523863 353.073703 
L 334.382253 353.2239 
L 949.513125 353.2239 
L 949.513125 353.2239 
" style="fill:none;stroke:#434348;stroke-linecap:square;"/>
   </g>
   <g id="line2d_189">
    <path clip-path="url(#pb7b0cef8c6)" d="M 76.613125 353.2239 
L 82.471514 353.043308 
L 88.329904 353.2239 
L 949.513125 353.2239 
L 949.513125 353.2239 
" style="fill:none;stroke:#90ed7d;stroke-linecap:square;"/>
   </g>
   <g id="line2d_190">
    <path clip-path="url(#pb7b0cef8c6)" d="M 76.613125 353.2239 
L 94.188293 353.178662 
L 111.763461 353.2239 
L 949.513125 353.2239 
L 949.513125 353.2239 
" style="fill:none;stroke:#f7a35c;stroke-linecap:square;"/>
   </g>
   <g id="line2d_191">
    <path clip-path="url(#pb7b0cef8c6)" d="M 76.613125 353.2239 
L 949.513125 353.2239 
L 949.513125 353.2239 
" style="fill:none;stroke:#8085e9;stroke-linecap:square;"/>
   </g>
   <g id="line2d_192">
    <path clip-path="url(#pb7b0cef8c6)" d="M 76.613125 353.2239 
L 949.513125 353.2239 
L 949.513125 353.2239 
" style="fill:none;stroke:#f15c80;stroke-linecap:square;"/>
   </g>
   <g id="line2d_193">
    <path clip-path="url(#pb7b0cef8c6)" d="M 76.613125 353.2239 
L 82.471514 352.973423 
L 88.329904 353.2239 
L 228.931246 353.2239 
L 234.789635 352.973423 
L 240.648024 353.2239 
L 252.364803 353.2239 
L 258.223192 352.973423 
L 264.081581 353.2239 
L 322.665474 353.2239 
L 328.523863 352.969251 
L 334.382253 353.2239 
L 639.018494 353.2239 
L 644.876883 352.90246 
L 650.735273 353.2239 
L 949.513125 353.2239 
L 949.513125 353.2239 
" style="fill:none;stroke:#e4d354;stroke-linecap:square;"/>
   </g>
   <g id="line2d_194">
    <path clip-path="url(#pb7b0cef8c6)" d="M 76.613125 353.2239 
L 88.329904 353.2239 
L 949.513125 353.2239 
L 949.513125 353.2239 
" style="fill:none;stroke:#2b908f;stroke-linecap:square;"/>
   </g>
   <g id="line2d_195">
    <path clip-path="url(#pb7b0cef8c6)" d="M 76.613125 353.2239 
L 82.471514 353.011368 
L 88.329904 353.2239 
L 123.480239 353.2239 
L 949.513125 353.2239 
L 949.513125 353.2239 
" style="fill:none;stroke:#f45b5b;stroke-linecap:square;"/>
   </g>
   <g id="line2d_196">
    <path clip-path="url(#pb7b0cef8c6)" d="M 76.613125 353.2239 
L 627.301716 353.2239 
L 633.160105 352.965798 
L 639.018494 353.2239 
L 644.876883 352.961561 
L 650.735273 353.2239 
L 949.513125 353.2239 
L 949.513125 353.2239 
" style="fill:none;stroke:#91e8e1;stroke-linecap:square;"/>
   </g>
   <g id="line2d_197">
    <path clip-path="url(#pb7b0cef8c6)" d="M 76.613125 353.2239 
L 82.471514 352.953159 
L 88.329904 353.2239 
L 94.188293 353.151702 
L 111.763461 353.2239 
L 639.018494 353.2239 
L 644.876883 353.091942 
L 650.735273 353.2239 
L 949.513125 353.2239 
L 949.513125 353.2239 
" style="fill:none;stroke:#7cb5ec;stroke-linecap:square;"/>
   </g>
   <g id="line2d_198">
    <path clip-path="url(#pb7b0cef8c6)" d="M 76.613125 353.2239 
L 82.471514 352.931549 
L 88.329904 353.2239 
L 94.188293 353.077724 
L 111.763461 353.2239 
L 949.513125 353.2239 
L 949.513125 353.2239 
" style="fill:none;stroke:#434348;stroke-linecap:square;"/>
   </g>
   <g id="line2d_199">
    <path clip-path="url(#pb7b0cef8c6)" d="M 76.613125 353.2239 
L 94.188293 353.179031 
L 111.763461 353.2239 
L 949.513125 353.2239 
L 949.513125 353.2239 
" style="fill:none;stroke:#90ed7d;stroke-linecap:square;"/>
   </g>
   <g id="line2d_200">
    <path clip-path="url(#pb7b0cef8c6)" d="M 76.613125 353.2239 
L 82.471514 352.777253 
L 88.329904 353.2239 
L 949.513125 353.2239 
L 949.513125 353.2239 
" style="fill:none;stroke:#f7a35c;stroke-linecap:square;"/>
   </g>
   <g id="line2d_201">
    <path clip-path="url(#pb7b0cef8c6)" d="M 76.613125 353.2239 
L 949.513125 353.2239 
L 949.513125 353.2239 
" style="fill:none;stroke:#8085e9;stroke-linecap:square;"/>
   </g>
   <g id="line2d_202">
    <path clip-path="url(#pb7b0cef8c6)" d="M 76.613125 353.2239 
L 949.513125 353.2239 
L 949.513125 353.2239 
" style="fill:none;stroke:#f15c80;stroke-linecap:square;"/>
   </g>
   <g id="line2d_203">
    <path clip-path="url(#pb7b0cef8c6)" d="M 32.968125 353.2239 
L 993.158125 353.2239 
" style="fill:none;stroke:#dedede;stroke-linecap:square;stroke-width:2;"/>
   </g>
   <g id="text_17">
    <!-- Fastp: Read N Content -->
    <defs>
     <path d="M 9.8125 72.90625 
L 51.703125 72.90625 
L 51.703125 64.59375 
L 19.671875 64.59375 
L 19.671875 43.109375 
L 48.578125 43.109375 
L 48.578125 34.8125 
L 19.671875 34.8125 
L 19.671875 0 
L 9.8125 0 
z
" id="DejaVuSans-70"/>
     <path d="M 18.109375 8.203125 
L 18.109375 -20.796875 
L 9.078125 -20.796875 
L 9.078125 54.6875 
L 18.109375 54.6875 
L 18.109375 46.390625 
Q 20.953125 51.265625 25.265625 53.625 
Q 29.59375 56 35.59375 56 
Q 45.5625 56 51.78125 48.09375 
Q 58.015625 40.1875 58.015625 27.296875 
Q 58.015625 14.40625 51.78125 6.484375 
Q 45.5625 -1.421875 35.59375 -1.421875 
Q 29.59375 -1.421875 25.265625 0.953125 
Q 20.953125 3.328125 18.109375 8.203125 
z
M 48.6875 27.296875 
Q 48.6875 37.203125 44.609375 42.84375 
Q 40.53125 48.484375 33.40625 48.484375 
Q 26.265625 48.484375 22.1875 42.84375 
Q 18.109375 37.203125 18.109375 27.296875 
Q 18.109375 17.390625 22.1875 11.75 
Q 26.265625 6.109375 33.40625 6.109375 
Q 40.53125 6.109375 44.609375 11.75 
Q 48.6875 17.390625 48.6875 27.296875 
z
" id="DejaVuSans-112"/>
     <path d="M 9.8125 72.90625 
L 23.09375 72.90625 
L 55.421875 11.921875 
L 55.421875 72.90625 
L 64.984375 72.90625 
L 64.984375 0 
L 51.703125 0 
L 19.390625 60.984375 
L 19.390625 0 
L 9.8125 0 
z
" id="DejaVuSans-78"/>
    </defs>
    <g transform="translate(422.606875 19.3575)scale(0.16 -0.16)">
     <use xlink:href="#DejaVuSans-70"/>
     <use x="57.378906" xlink:href="#DejaVuSans-97"/>
     <use x="118.658203" xlink:href="#DejaVuSans-115"/>
     <use x="170.757812" xlink:href="#DejaVuSans-116"/>
     <use x="209.966797" xlink:href="#DejaVuSans-112"/>
     <use x="273.443359" xlink:href="#DejaVuSans-58"/>
     <use x="307.134766" xlink:href="#DejaVuSans-32"/>
     <use x="338.921875" xlink:href="#DejaVuSans-82"/>
     <use x="408.341797" xlink:href="#DejaVuSans-101"/>
     <use x="469.865234" xlink:href="#DejaVuSans-97"/>
     <use x="531.144531" xlink:href="#DejaVuSans-100"/>
     <use x="594.621094" xlink:href="#DejaVuSans-32"/>
     <use x="626.408203" xlink:href="#DejaVuSans-78"/>
     <use x="701.212891" xlink:href="#DejaVuSans-32"/>
     <use x="733" xlink:href="#DejaVuSans-67"/>
     <use x="802.824219" xlink:href="#DejaVuSans-111"/>
     <use x="864.005859" xlink:href="#DejaVuSans-110"/>
     <use x="927.384766" xlink:href="#DejaVuSans-116"/>
     <use x="966.59375" xlink:href="#DejaVuSans-101"/>
     <use x="1028.117188" xlink:href="#DejaVuSans-110"/>
     <use x="1091.496094" xlink:href="#DejaVuSans-116"/>
    </g>
   </g>
  </g>
 </g>
 <defs>
  <clipPath id="pb7b0cef8c6">
   <rect height="317.968" width="960.19" x="32.968125" y="35.2559"/>
  </clipPath>
 </defs>
</svg>
