<?xml version="1.0" encoding="utf-8" standalone="no"?>
<!DOCTYPE svg PUBLIC "-//W3C//DTD SVG 1.1//EN"
  "http://www.w3.org/Graphics/SVG/1.1/DTD/svg11.dtd">
<!-- Created with matplotlib (https://matplotlib.org/) -->
<svg height="388.844525pt" version="1.1" viewBox="0 0 1000.358125 388.844525" width="1000.358125pt" xmlns="http://www.w3.org/2000/svg" xmlns:xlink="http://www.w3.org/1999/xlink">
 <defs>
  <style type="text/css">
*{stroke-linecap:butt;stroke-linejoin:round;}
  </style>
 </defs>
 <g id="figure_1">
  <g id="axes_1">
   <g id="patch_1">
    <path d="M 32.968125 353.2239 
L 993.158125 353.2239 
L 993.158125 35.2559 
L 32.968125 35.2559 
z
" style="fill:#ffffff;"/>
   </g>
   <g id="matplotlib.axis_1">
    <g id="xtick_1">
     <g id="text_1">
      <!-- 0 -->
      <defs>
       <path d="M 31.78125 66.40625 
Q 24.171875 66.40625 20.328125 58.90625 
Q 16.5 51.421875 16.5 36.375 
Q 16.5 21.390625 20.328125 13.890625 
Q 24.171875 6.390625 31.78125 6.390625 
Q 39.453125 6.390625 43.28125 13.890625 
Q 47.125 21.390625 47.125 36.375 
Q 47.125 51.421875 43.28125 58.90625 
Q 39.453125 66.40625 31.78125 66.40625 
z
M 31.78125 74.21875 
Q 44.046875 74.21875 50.515625 64.515625 
Q 56.984375 54.828125 56.984375 36.375 
Q 56.984375 17.96875 50.515625 8.265625 
Q 44.046875 -1.421875 31.78125 -1.421875 
Q 19.53125 -1.421875 13.0625 8.265625 
Q 6.59375 17.96875 6.59375 36.375 
Q 6.59375 54.828125 13.0625 64.515625 
Q 19.53125 74.21875 31.78125 74.21875 
z
" id="DejaVuSans-48"/>
      </defs>
      <g transform="translate(68.209736 366.30265)scale(0.08 -0.08)">
       <use xlink:href="#DejaVuSans-48"/>
      </g>
     </g>
    </g>
    <g id="xtick_2">
     <g id="text_2">
      <!-- 20 -->
      <defs>
       <path d="M 19.1875 8.296875 
L 53.609375 8.296875 
L 53.609375 0 
L 7.328125 0 
L 7.328125 8.296875 
Q 12.9375 14.109375 22.625 23.890625 
Q 32.328125 33.6875 34.8125 36.53125 
Q 39.546875 41.84375 41.421875 45.53125 
Q 43.3125 49.21875 43.3125 52.78125 
Q 43.3125 58.59375 39.234375 62.25 
Q 35.15625 65.921875 28.609375 65.921875 
Q 23.96875 65.921875 18.8125 64.3125 
Q 13.671875 62.703125 7.8125 59.421875 
L 7.8125 69.390625 
Q 13.765625 71.78125 18.9375 73 
Q 24.125 74.21875 28.421875 74.21875 
Q 39.75 74.21875 46.484375 68.546875 
Q 53.21875 62.890625 53.21875 53.421875 
Q 53.21875 48.921875 51.53125 44.890625 
Q 49.859375 40.875 45.40625 35.40625 
Q 44.1875 33.984375 37.640625 27.21875 
Q 31.109375 20.453125 19.1875 8.296875 
z
" id="DejaVuSans-50"/>
      </defs>
      <g transform="translate(182.832521 366.30265)scale(0.08 -0.08)">
       <use xlink:href="#DejaVuSans-50"/>
       <use x="63.623047" xlink:href="#DejaVuSans-48"/>
      </g>
     </g>
    </g>
    <g id="xtick_3">
     <g id="text_3">
      <!-- 40 -->
      <defs>
       <path d="M 37.796875 64.3125 
L 12.890625 25.390625 
L 37.796875 25.390625 
z
M 35.203125 72.90625 
L 47.609375 72.90625 
L 47.609375 25.390625 
L 58.015625 25.390625 
L 58.015625 17.1875 
L 47.609375 17.1875 
L 47.609375 0 
L 37.796875 0 
L 37.796875 17.1875 
L 4.890625 17.1875 
L 4.890625 26.703125 
z
" id="DejaVuSans-52"/>
      </defs>
      <g transform="translate(300.000306 366.30265)scale(0.08 -0.08)">
       <use xlink:href="#DejaVuSans-52"/>
       <use x="63.623047" xlink:href="#DejaVuSans-48"/>
      </g>
     </g>
    </g>
    <g id="xtick_4">
     <g id="text_4">
      <!-- 60 -->
      <defs>
       <path d="M 33.015625 40.375 
Q 26.375 40.375 22.484375 35.828125 
Q 18.609375 31.296875 18.609375 23.390625 
Q 18.609375 15.53125 22.484375 10.953125 
Q 26.375 6.390625 33.015625 6.390625 
Q 39.65625 6.390625 43.53125 10.953125 
Q 47.40625 15.53125 47.40625 23.390625 
Q 47.40625 31.296875 43.53125 35.828125 
Q 39.65625 40.375 33.015625 40.375 
z
M 52.59375 71.296875 
L 52.59375 62.3125 
Q 48.875 64.0625 45.09375 64.984375 
Q 41.3125 65.921875 37.59375 65.921875 
Q 27.828125 65.921875 22.671875 59.328125 
Q 17.53125 52.734375 16.796875 39.40625 
Q 19.671875 43.65625 24.015625 45.921875 
Q 28.375 48.1875 33.59375 48.1875 
Q 44.578125 48.1875 50.953125 41.515625 
Q 57.328125 34.859375 57.328125 23.390625 
Q 57.328125 12.15625 50.6875 5.359375 
Q 44.046875 -1.421875 33.015625 -1.421875 
Q 20.359375 -1.421875 13.671875 8.265625 
Q 6.984375 17.96875 6.984375 36.375 
Q 6.984375 53.65625 15.1875 63.9375 
Q 23.390625 74.21875 37.203125 74.21875 
Q 40.921875 74.21875 44.703125 73.484375 
Q 48.484375 72.75 52.59375 71.296875 
z
" id="DejaVuSans-54"/>
      </defs>
      <g transform="translate(417.168091 366.30265)scale(0.08 -0.08)">
       <use xlink:href="#DejaVuSans-54"/>
       <use x="63.623047" xlink:href="#DejaVuSans-48"/>
      </g>
     </g>
    </g>
    <g id="xtick_5">
     <g id="text_5">
      <!-- 80 -->
      <defs>
       <path d="M 31.78125 34.625 
Q 24.75 34.625 20.71875 30.859375 
Q 16.703125 27.09375 16.703125 20.515625 
Q 16.703125 13.921875 20.71875 10.15625 
Q 24.75 6.390625 31.78125 6.390625 
Q 38.8125 6.390625 42.859375 10.171875 
Q 46.921875 13.96875 46.921875 20.515625 
Q 46.921875 27.09375 42.890625 30.859375 
Q 38.875 34.625 31.78125 34.625 
z
M 21.921875 38.8125 
Q 15.578125 40.375 12.03125 44.71875 
Q 8.5 49.078125 8.5 55.328125 
Q 8.5 64.0625 14.71875 69.140625 
Q 20.953125 74.21875 31.78125 74.21875 
Q 42.671875 74.21875 48.875 69.140625 
Q 55.078125 64.0625 55.078125 55.328125 
Q 55.078125 49.078125 51.53125 44.71875 
Q 48 40.375 41.703125 38.8125 
Q 48.828125 37.15625 52.796875 32.3125 
Q 56.78125 27.484375 56.78125 20.515625 
Q 56.78125 9.90625 50.3125 4.234375 
Q 43.84375 -1.421875 31.78125 -1.421875 
Q 19.734375 -1.421875 13.25 4.234375 
Q 6.78125 9.90625 6.78125 20.515625 
Q 6.78125 27.484375 10.78125 32.3125 
Q 14.796875 37.15625 21.921875 38.8125 
z
M 18.3125 54.390625 
Q 18.3125 48.734375 21.84375 45.5625 
Q 25.390625 42.390625 31.78125 42.390625 
Q 38.140625 42.390625 41.71875 45.5625 
Q 45.3125 48.734375 45.3125 54.390625 
Q 45.3125 60.0625 41.71875 63.234375 
Q 38.140625 66.40625 31.78125 66.40625 
Q 25.390625 66.40625 21.84375 63.234375 
Q 18.3125 60.0625 18.3125 54.390625 
z
" id="DejaVuSans-56"/>
      </defs>
      <g transform="translate(534.335877 366.30265)scale(0.08 -0.08)">
       <use xlink:href="#DejaVuSans-56"/>
       <use x="63.623047" xlink:href="#DejaVuSans-48"/>
      </g>
     </g>
    </g>
    <g id="xtick_6">
     <g id="text_6">
      <!-- 100 -->
      <defs>
       <path d="M 12.40625 8.296875 
L 28.515625 8.296875 
L 28.515625 63.921875 
L 10.984375 60.40625 
L 10.984375 69.390625 
L 28.421875 72.90625 
L 38.28125 72.90625 
L 38.28125 8.296875 
L 54.390625 8.296875 
L 54.390625 0 
L 12.40625 0 
z
" id="DejaVuSans-49"/>
      </defs>
      <g transform="translate(648.958662 366.30265)scale(0.08 -0.08)">
       <use xlink:href="#DejaVuSans-49"/>
       <use x="63.623047" xlink:href="#DejaVuSans-48"/>
       <use x="127.246094" xlink:href="#DejaVuSans-48"/>
      </g>
     </g>
    </g>
    <g id="xtick_7">
     <g id="text_7">
      <!-- 120 -->
      <g transform="translate(766.126447 366.30265)scale(0.08 -0.08)">
       <use xlink:href="#DejaVuSans-49"/>
       <use x="63.623047" xlink:href="#DejaVuSans-50"/>
       <use x="127.246094" xlink:href="#DejaVuSans-48"/>
      </g>
     </g>
    </g>
    <g id="xtick_8">
     <g id="text_8">
      <!-- 140 -->
      <g transform="translate(883.294232 366.30265)scale(0.08 -0.08)">
       <use xlink:href="#DejaVuSans-49"/>
       <use x="63.623047" xlink:href="#DejaVuSans-52"/>
       <use x="127.246094" xlink:href="#DejaVuSans-48"/>
      </g>
     </g>
    </g>
    <g id="text_9">
     <!-- Read Position -->
     <defs>
      <path d="M 44.390625 34.1875 
Q 47.5625 33.109375 50.5625 29.59375 
Q 53.5625 26.078125 56.59375 19.921875 
L 66.609375 0 
L 56 0 
L 46.6875 18.703125 
Q 43.0625 26.03125 39.671875 28.421875 
Q 36.28125 30.8125 30.421875 30.8125 
L 19.671875 30.8125 
L 19.671875 0 
L 9.8125 0 
L 9.8125 72.90625 
L 32.078125 72.90625 
Q 44.578125 72.90625 50.734375 67.671875 
Q 56.890625 62.453125 56.890625 51.90625 
Q 56.890625 45.015625 53.6875 40.46875 
Q 50.484375 35.9375 44.390625 34.1875 
z
M 19.671875 64.796875 
L 19.671875 38.921875 
L 32.078125 38.921875 
Q 39.203125 38.921875 42.84375 42.21875 
Q 46.484375 45.515625 46.484375 51.90625 
Q 46.484375 58.296875 42.84375 61.546875 
Q 39.203125 64.796875 32.078125 64.796875 
z
" id="DejaVuSans-82"/>
      <path d="M 56.203125 29.59375 
L 56.203125 25.203125 
L 14.890625 25.203125 
Q 15.484375 15.921875 20.484375 11.0625 
Q 25.484375 6.203125 34.421875 6.203125 
Q 39.59375 6.203125 44.453125 7.46875 
Q 49.3125 8.734375 54.109375 11.28125 
L 54.109375 2.78125 
Q 49.265625 0.734375 44.1875 -0.34375 
Q 39.109375 -1.421875 33.890625 -1.421875 
Q 20.796875 -1.421875 13.15625 6.1875 
Q 5.515625 13.8125 5.515625 26.8125 
Q 5.515625 40.234375 12.765625 48.109375 
Q 20.015625 56 32.328125 56 
Q 43.359375 56 49.78125 48.890625 
Q 56.203125 41.796875 56.203125 29.59375 
z
M 47.21875 32.234375 
Q 47.125 39.59375 43.09375 43.984375 
Q 39.0625 48.390625 32.421875 48.390625 
Q 24.90625 48.390625 20.390625 44.140625 
Q 15.875 39.890625 15.1875 32.171875 
z
" id="DejaVuSans-101"/>
      <path d="M 34.28125 27.484375 
Q 23.390625 27.484375 19.1875 25 
Q 14.984375 22.515625 14.984375 16.5 
Q 14.984375 11.71875 18.140625 8.90625 
Q 21.296875 6.109375 26.703125 6.109375 
Q 34.1875 6.109375 38.703125 11.40625 
Q 43.21875 16.703125 43.21875 25.484375 
L 43.21875 27.484375 
z
M 52.203125 31.203125 
L 52.203125 0 
L 43.21875 0 
L 43.21875 8.296875 
Q 40.140625 3.328125 35.546875 0.953125 
Q 30.953125 -1.421875 24.3125 -1.421875 
Q 15.921875 -1.421875 10.953125 3.296875 
Q 6 8.015625 6 15.921875 
Q 6 25.140625 12.171875 29.828125 
Q 18.359375 34.515625 30.609375 34.515625 
L 43.21875 34.515625 
L 43.21875 35.40625 
Q 43.21875 41.609375 39.140625 45 
Q 35.0625 48.390625 27.6875 48.390625 
Q 23 48.390625 18.546875 47.265625 
Q 14.109375 46.140625 10.015625 43.890625 
L 10.015625 52.203125 
Q 14.9375 54.109375 19.578125 55.046875 
Q 24.21875 56 28.609375 56 
Q 40.484375 56 46.34375 49.84375 
Q 52.203125 43.703125 52.203125 31.203125 
z
" id="DejaVuSans-97"/>
      <path d="M 45.40625 46.390625 
L 45.40625 75.984375 
L 54.390625 75.984375 
L 54.390625 0 
L 45.40625 0 
L 45.40625 8.203125 
Q 42.578125 3.328125 38.25 0.953125 
Q 33.9375 -1.421875 27.875 -1.421875 
Q 17.96875 -1.421875 11.734375 6.484375 
Q 5.515625 14.40625 5.515625 27.296875 
Q 5.515625 40.1875 11.734375 48.09375 
Q 17.96875 56 27.875 56 
Q 33.9375 56 38.25 53.625 
Q 42.578125 51.265625 45.40625 46.390625 
z
M 14.796875 27.296875 
Q 14.796875 17.390625 18.875 11.75 
Q 22.953125 6.109375 30.078125 6.109375 
Q 37.203125 6.109375 41.296875 11.75 
Q 45.40625 17.390625 45.40625 27.296875 
Q 45.40625 37.203125 41.296875 42.84375 
Q 37.203125 48.484375 30.078125 48.484375 
Q 22.953125 48.484375 18.875 42.84375 
Q 14.796875 37.203125 14.796875 27.296875 
z
" id="DejaVuSans-100"/>
      <path id="DejaVuSans-32"/>
      <path d="M 19.671875 64.796875 
L 19.671875 37.40625 
L 32.078125 37.40625 
Q 38.96875 37.40625 42.71875 40.96875 
Q 46.484375 44.53125 46.484375 51.125 
Q 46.484375 57.671875 42.71875 61.234375 
Q 38.96875 64.796875 32.078125 64.796875 
z
M 9.8125 72.90625 
L 32.078125 72.90625 
Q 44.34375 72.90625 50.609375 67.359375 
Q 56.890625 61.8125 56.890625 51.125 
Q 56.890625 40.328125 50.609375 34.8125 
Q 44.34375 29.296875 32.078125 29.296875 
L 19.671875 29.296875 
L 19.671875 0 
L 9.8125 0 
z
" id="DejaVuSans-80"/>
      <path d="M 30.609375 48.390625 
Q 23.390625 48.390625 19.1875 42.75 
Q 14.984375 37.109375 14.984375 27.296875 
Q 14.984375 17.484375 19.15625 11.84375 
Q 23.34375 6.203125 30.609375 6.203125 
Q 37.796875 6.203125 41.984375 11.859375 
Q 46.1875 17.53125 46.1875 27.296875 
Q 46.1875 37.015625 41.984375 42.703125 
Q 37.796875 48.390625 30.609375 48.390625 
z
M 30.609375 56 
Q 42.328125 56 49.015625 48.375 
Q 55.71875 40.765625 55.71875 27.296875 
Q 55.71875 13.875 49.015625 6.21875 
Q 42.328125 -1.421875 30.609375 -1.421875 
Q 18.84375 -1.421875 12.171875 6.21875 
Q 5.515625 13.875 5.515625 27.296875 
Q 5.515625 40.765625 12.171875 48.375 
Q 18.84375 56 30.609375 56 
z
" id="DejaVuSans-111"/>
      <path d="M 44.28125 53.078125 
L 44.28125 44.578125 
Q 40.484375 46.53125 36.375 47.5 
Q 32.28125 48.484375 27.875 48.484375 
Q 21.1875 48.484375 17.84375 46.4375 
Q 14.5 44.390625 14.5 40.28125 
Q 14.5 37.15625 16.890625 35.375 
Q 19.28125 33.59375 26.515625 31.984375 
L 29.59375 31.296875 
Q 39.15625 29.25 43.1875 25.515625 
Q 47.21875 21.78125 47.21875 15.09375 
Q 47.21875 7.46875 41.1875 3.015625 
Q 35.15625 -1.421875 24.609375 -1.421875 
Q 20.21875 -1.421875 15.453125 -0.5625 
Q 10.6875 0.296875 5.421875 2 
L 5.421875 11.28125 
Q 10.40625 8.6875 15.234375 7.390625 
Q 20.0625 6.109375 24.8125 6.109375 
Q 31.15625 6.109375 34.5625 8.28125 
Q 37.984375 10.453125 37.984375 14.40625 
Q 37.984375 18.0625 35.515625 20.015625 
Q 33.0625 21.96875 24.703125 23.78125 
L 21.578125 24.515625 
Q 13.234375 26.265625 9.515625 29.90625 
Q 5.8125 33.546875 5.8125 39.890625 
Q 5.8125 47.609375 11.28125 51.796875 
Q 16.75 56 26.8125 56 
Q 31.78125 56 36.171875 55.265625 
Q 40.578125 54.546875 44.28125 53.078125 
z
" id="DejaVuSans-115"/>
      <path d="M 9.421875 54.6875 
L 18.40625 54.6875 
L 18.40625 0 
L 9.421875 0 
z
M 9.421875 75.984375 
L 18.40625 75.984375 
L 18.40625 64.59375 
L 9.421875 64.59375 
z
" id="DejaVuSans-105"/>
      <path d="M 18.3125 70.21875 
L 18.3125 54.6875 
L 36.8125 54.6875 
L 36.8125 47.703125 
L 18.3125 47.703125 
L 18.3125 18.015625 
Q 18.3125 11.328125 20.140625 9.421875 
Q 21.96875 7.515625 27.59375 7.515625 
L 36.8125 7.515625 
L 36.8125 0 
L 27.59375 0 
Q 17.1875 0 13.234375 3.875 
Q 9.28125 7.765625 9.28125 18.015625 
L 9.28125 47.703125 
L 2.6875 47.703125 
L 2.6875 54.6875 
L 9.28125 54.6875 
L 9.28125 70.21875 
z
" id="DejaVuSans-116"/>
      <path d="M 54.890625 33.015625 
L 54.890625 0 
L 45.90625 0 
L 45.90625 32.71875 
Q 45.90625 40.484375 42.875 44.328125 
Q 39.84375 48.1875 33.796875 48.1875 
Q 26.515625 48.1875 22.3125 43.546875 
Q 18.109375 38.921875 18.109375 30.90625 
L 18.109375 0 
L 9.078125 0 
L 9.078125 54.6875 
L 18.109375 54.6875 
L 18.109375 46.1875 
Q 21.34375 51.125 25.703125 53.5625 
Q 30.078125 56 35.796875 56 
Q 45.21875 56 50.046875 50.171875 
Q 54.890625 44.34375 54.890625 33.015625 
z
" id="DejaVuSans-110"/>
     </defs>
     <g transform="translate(479.045156 379.564837)scale(0.1 -0.1)">
      <use xlink:href="#DejaVuSans-82"/>
      <use x="69.419922" xlink:href="#DejaVuSans-101"/>
      <use x="130.943359" xlink:href="#DejaVuSans-97"/>
      <use x="192.222656" xlink:href="#DejaVuSans-100"/>
      <use x="255.699219" xlink:href="#DejaVuSans-32"/>
      <use x="287.486328" xlink:href="#DejaVuSans-80"/>
      <use x="347.742188" xlink:href="#DejaVuSans-111"/>
      <use x="408.923828" xlink:href="#DejaVuSans-115"/>
      <use x="461.023438" xlink:href="#DejaVuSans-105"/>
      <use x="488.806641" xlink:href="#DejaVuSans-116"/>
      <use x="528.015625" xlink:href="#DejaVuSans-105"/>
      <use x="555.798828" xlink:href="#DejaVuSans-111"/>
      <use x="616.980469" xlink:href="#DejaVuSans-110"/>
     </g>
    </g>
   </g>
   <g id="matplotlib.axis_2">
    <g id="ytick_1">
     <g id="line2d_1">
      <path clip-path="url(#pbadccd81e9)" d="M 32.968125 353.2239 
L 993.158125 353.2239 
" style="fill:none;stroke:#dedede;stroke-linecap:square;"/>
     </g>
     <g id="text_10">
      <!-- 0 -->
      <g transform="translate(20.878125 356.263275)scale(0.08 -0.08)">
       <use xlink:href="#DejaVuSans-48"/>
      </g>
     </g>
    </g>
    <g id="ytick_2">
     <g id="line2d_2">
      <path clip-path="url(#pbadccd81e9)" d="M 32.968125 289.6303 
L 993.158125 289.6303 
" style="fill:none;stroke:#dedede;stroke-linecap:square;"/>
     </g>
     <g id="text_11">
      <!-- 1 -->
      <g transform="translate(20.878125 292.669675)scale(0.08 -0.08)">
       <use xlink:href="#DejaVuSans-49"/>
      </g>
     </g>
    </g>
    <g id="ytick_3">
     <g id="line2d_3">
      <path clip-path="url(#pbadccd81e9)" d="M 32.968125 226.0367 
L 993.158125 226.0367 
" style="fill:none;stroke:#dedede;stroke-linecap:square;"/>
     </g>
     <g id="text_12">
      <!-- 2 -->
      <g transform="translate(20.878125 229.076075)scale(0.08 -0.08)">
       <use xlink:href="#DejaVuSans-50"/>
      </g>
     </g>
    </g>
    <g id="ytick_4">
     <g id="line2d_4">
      <path clip-path="url(#pbadccd81e9)" d="M 32.968125 162.4431 
L 993.158125 162.4431 
" style="fill:none;stroke:#dedede;stroke-linecap:square;"/>
     </g>
     <g id="text_13">
      <!-- 3 -->
      <defs>
       <path d="M 40.578125 39.3125 
Q 47.65625 37.796875 51.625 33 
Q 55.609375 28.21875 55.609375 21.1875 
Q 55.609375 10.40625 48.1875 4.484375 
Q 40.765625 -1.421875 27.09375 -1.421875 
Q 22.515625 -1.421875 17.65625 -0.515625 
Q 12.796875 0.390625 7.625 2.203125 
L 7.625 11.71875 
Q 11.71875 9.328125 16.59375 8.109375 
Q 21.484375 6.890625 26.8125 6.890625 
Q 36.078125 6.890625 40.9375 10.546875 
Q 45.796875 14.203125 45.796875 21.1875 
Q 45.796875 27.640625 41.28125 31.265625 
Q 36.765625 34.90625 28.71875 34.90625 
L 20.21875 34.90625 
L 20.21875 43.015625 
L 29.109375 43.015625 
Q 36.375 43.015625 40.234375 45.921875 
Q 44.09375 48.828125 44.09375 54.296875 
Q 44.09375 59.90625 40.109375 62.90625 
Q 36.140625 65.921875 28.71875 65.921875 
Q 24.65625 65.921875 20.015625 65.03125 
Q 15.375 64.15625 9.8125 62.3125 
L 9.8125 71.09375 
Q 15.4375 72.65625 20.34375 73.4375 
Q 25.25 74.21875 29.59375 74.21875 
Q 40.828125 74.21875 47.359375 69.109375 
Q 53.90625 64.015625 53.90625 55.328125 
Q 53.90625 49.265625 50.4375 45.09375 
Q 46.96875 40.921875 40.578125 39.3125 
z
" id="DejaVuSans-51"/>
      </defs>
      <g transform="translate(20.878125 165.482475)scale(0.08 -0.08)">
       <use xlink:href="#DejaVuSans-51"/>
      </g>
     </g>
    </g>
    <g id="ytick_5">
     <g id="line2d_5">
      <path clip-path="url(#pbadccd81e9)" d="M 32.968125 98.8495 
L 993.158125 98.8495 
" style="fill:none;stroke:#dedede;stroke-linecap:square;"/>
     </g>
     <g id="text_14">
      <!-- 4 -->
      <g transform="translate(20.878125 101.888875)scale(0.08 -0.08)">
       <use xlink:href="#DejaVuSans-52"/>
      </g>
     </g>
    </g>
    <g id="ytick_6">
     <g id="line2d_6">
      <path clip-path="url(#pbadccd81e9)" d="M 32.968125 35.2559 
L 993.158125 35.2559 
" style="fill:none;stroke:#dedede;stroke-linecap:square;"/>
     </g>
     <g id="text_15">
      <!-- 5 -->
      <defs>
       <path d="M 10.796875 72.90625 
L 49.515625 72.90625 
L 49.515625 64.59375 
L 19.828125 64.59375 
L 19.828125 46.734375 
Q 21.96875 47.46875 24.109375 47.828125 
Q 26.265625 48.1875 28.421875 48.1875 
Q 40.625 48.1875 47.75 41.5 
Q 54.890625 34.8125 54.890625 23.390625 
Q 54.890625 11.625 47.5625 5.09375 
Q 40.234375 -1.421875 26.90625 -1.421875 
Q 22.3125 -1.421875 17.546875 -0.640625 
Q 12.796875 0.140625 7.71875 1.703125 
L 7.71875 11.625 
Q 12.109375 9.234375 16.796875 8.0625 
Q 21.484375 6.890625 26.703125 6.890625 
Q 35.15625 6.890625 40.078125 11.328125 
Q 45.015625 15.765625 45.015625 23.390625 
Q 45.015625 31 40.078125 35.4375 
Q 35.15625 39.890625 26.703125 39.890625 
Q 22.75 39.890625 18.8125 39.015625 
Q 14.890625 38.140625 10.796875 36.28125 
z
" id="DejaVuSans-53"/>
      </defs>
      <g transform="translate(20.878125 38.295275)scale(0.08 -0.08)">
       <use xlink:href="#DejaVuSans-53"/>
      </g>
     </g>
    </g>
    <g id="text_16">
     <!-- R2 After filtering: Base Content Percent -->
     <defs>
      <path d="M 34.1875 63.1875 
L 20.796875 26.90625 
L 47.609375 26.90625 
z
M 28.609375 72.90625 
L 39.796875 72.90625 
L 67.578125 0 
L 57.328125 0 
L 50.6875 18.703125 
L 17.828125 18.703125 
L 11.1875 0 
L 0.78125 0 
z
" id="DejaVuSans-65"/>
      <path d="M 37.109375 75.984375 
L 37.109375 68.5 
L 28.515625 68.5 
Q 23.6875 68.5 21.796875 66.546875 
Q 19.921875 64.59375 19.921875 59.515625 
L 19.921875 54.6875 
L 34.71875 54.6875 
L 34.71875 47.703125 
L 19.921875 47.703125 
L 19.921875 0 
L 10.890625 0 
L 10.890625 47.703125 
L 2.296875 47.703125 
L 2.296875 54.6875 
L 10.890625 54.6875 
L 10.890625 58.5 
Q 10.890625 67.625 15.140625 71.796875 
Q 19.390625 75.984375 28.609375 75.984375 
z
" id="DejaVuSans-102"/>
      <path d="M 41.109375 46.296875 
Q 39.59375 47.171875 37.8125 47.578125 
Q 36.03125 48 33.890625 48 
Q 26.265625 48 22.1875 43.046875 
Q 18.109375 38.09375 18.109375 28.8125 
L 18.109375 0 
L 9.078125 0 
L 9.078125 54.6875 
L 18.109375 54.6875 
L 18.109375 46.1875 
Q 20.953125 51.171875 25.484375 53.578125 
Q 30.03125 56 36.53125 56 
Q 37.453125 56 38.578125 55.875 
Q 39.703125 55.765625 41.0625 55.515625 
z
" id="DejaVuSans-114"/>
      <path d="M 9.421875 75.984375 
L 18.40625 75.984375 
L 18.40625 0 
L 9.421875 0 
z
" id="DejaVuSans-108"/>
      <path d="M 45.40625 27.984375 
Q 45.40625 37.75 41.375 43.109375 
Q 37.359375 48.484375 30.078125 48.484375 
Q 22.859375 48.484375 18.828125 43.109375 
Q 14.796875 37.75 14.796875 27.984375 
Q 14.796875 18.265625 18.828125 12.890625 
Q 22.859375 7.515625 30.078125 7.515625 
Q 37.359375 7.515625 41.375 12.890625 
Q 45.40625 18.265625 45.40625 27.984375 
z
M 54.390625 6.78125 
Q 54.390625 -7.171875 48.1875 -13.984375 
Q 42 -20.796875 29.203125 -20.796875 
Q 24.46875 -20.796875 20.265625 -20.09375 
Q 16.0625 -19.390625 12.109375 -17.921875 
L 12.109375 -9.1875 
Q 16.0625 -11.328125 19.921875 -12.34375 
Q 23.78125 -13.375 27.78125 -13.375 
Q 36.625 -13.375 41.015625 -8.765625 
Q 45.40625 -4.15625 45.40625 5.171875 
L 45.40625 9.625 
Q 42.625 4.78125 38.28125 2.390625 
Q 33.9375 0 27.875 0 
Q 17.828125 0 11.671875 7.65625 
Q 5.515625 15.328125 5.515625 27.984375 
Q 5.515625 40.671875 11.671875 48.328125 
Q 17.828125 56 27.875 56 
Q 33.9375 56 38.28125 53.609375 
Q 42.625 51.21875 45.40625 46.390625 
L 45.40625 54.6875 
L 54.390625 54.6875 
z
" id="DejaVuSans-103"/>
      <path d="M 11.71875 12.40625 
L 22.015625 12.40625 
L 22.015625 0 
L 11.71875 0 
z
M 11.71875 51.703125 
L 22.015625 51.703125 
L 22.015625 39.3125 
L 11.71875 39.3125 
z
" id="DejaVuSans-58"/>
      <path d="M 19.671875 34.8125 
L 19.671875 8.109375 
L 35.5 8.109375 
Q 43.453125 8.109375 47.28125 11.40625 
Q 51.125 14.703125 51.125 21.484375 
Q 51.125 28.328125 47.28125 31.5625 
Q 43.453125 34.8125 35.5 34.8125 
z
M 19.671875 64.796875 
L 19.671875 42.828125 
L 34.28125 42.828125 
Q 41.5 42.828125 45.03125 45.53125 
Q 48.578125 48.25 48.578125 53.8125 
Q 48.578125 59.328125 45.03125 62.0625 
Q 41.5 64.796875 34.28125 64.796875 
z
M 9.8125 72.90625 
L 35.015625 72.90625 
Q 46.296875 72.90625 52.390625 68.21875 
Q 58.5 63.53125 58.5 54.890625 
Q 58.5 48.1875 55.375 44.234375 
Q 52.25 40.28125 46.1875 39.3125 
Q 53.46875 37.75 57.5 32.78125 
Q 61.53125 27.828125 61.53125 20.40625 
Q 61.53125 10.640625 54.890625 5.3125 
Q 48.25 0 35.984375 0 
L 9.8125 0 
z
" id="DejaVuSans-66"/>
      <path d="M 64.40625 67.28125 
L 64.40625 56.890625 
Q 59.421875 61.53125 53.78125 63.8125 
Q 48.140625 66.109375 41.796875 66.109375 
Q 29.296875 66.109375 22.65625 58.46875 
Q 16.015625 50.828125 16.015625 36.375 
Q 16.015625 21.96875 22.65625 14.328125 
Q 29.296875 6.6875 41.796875 6.6875 
Q 48.140625 6.6875 53.78125 8.984375 
Q 59.421875 11.28125 64.40625 15.921875 
L 64.40625 5.609375 
Q 59.234375 2.09375 53.4375 0.328125 
Q 47.65625 -1.421875 41.21875 -1.421875 
Q 24.65625 -1.421875 15.125 8.703125 
Q 5.609375 18.84375 5.609375 36.375 
Q 5.609375 53.953125 15.125 64.078125 
Q 24.65625 74.21875 41.21875 74.21875 
Q 47.75 74.21875 53.53125 72.484375 
Q 59.328125 70.75 64.40625 67.28125 
z
" id="DejaVuSans-67"/>
      <path d="M 48.78125 52.59375 
L 48.78125 44.1875 
Q 44.96875 46.296875 41.140625 47.34375 
Q 37.3125 48.390625 33.40625 48.390625 
Q 24.65625 48.390625 19.8125 42.84375 
Q 14.984375 37.3125 14.984375 27.296875 
Q 14.984375 17.28125 19.8125 11.734375 
Q 24.65625 6.203125 33.40625 6.203125 
Q 37.3125 6.203125 41.140625 7.25 
Q 44.96875 8.296875 48.78125 10.40625 
L 48.78125 2.09375 
Q 45.015625 0.34375 40.984375 -0.53125 
Q 36.96875 -1.421875 32.421875 -1.421875 
Q 20.0625 -1.421875 12.78125 6.34375 
Q 5.515625 14.109375 5.515625 27.296875 
Q 5.515625 40.671875 12.859375 48.328125 
Q 20.21875 56 33.015625 56 
Q 37.15625 56 41.109375 55.140625 
Q 45.0625 54.296875 48.78125 52.59375 
z
" id="DejaVuSans-99"/>
     </defs>
     <g transform="translate(14.798438 293.315681)rotate(-90)scale(0.1 -0.1)">
      <use xlink:href="#DejaVuSans-82"/>
      <use x="69.482422" xlink:href="#DejaVuSans-50"/>
      <use x="133.105469" xlink:href="#DejaVuSans-32"/>
      <use x="164.892578" xlink:href="#DejaVuSans-65"/>
      <use x="233.253906" xlink:href="#DejaVuSans-102"/>
      <use x="268.443359" xlink:href="#DejaVuSans-116"/>
      <use x="307.652344" xlink:href="#DejaVuSans-101"/>
      <use x="369.175781" xlink:href="#DejaVuSans-114"/>
      <use x="410.289062" xlink:href="#DejaVuSans-32"/>
      <use x="442.076172" xlink:href="#DejaVuSans-102"/>
      <use x="477.28125" xlink:href="#DejaVuSans-105"/>
      <use x="505.064453" xlink:href="#DejaVuSans-108"/>
      <use x="532.847656" xlink:href="#DejaVuSans-116"/>
      <use x="572.056641" xlink:href="#DejaVuSans-101"/>
      <use x="633.580078" xlink:href="#DejaVuSans-114"/>
      <use x="674.693359" xlink:href="#DejaVuSans-105"/>
      <use x="702.476562" xlink:href="#DejaVuSans-110"/>
      <use x="765.855469" xlink:href="#DejaVuSans-103"/>
      <use x="829.332031" xlink:href="#DejaVuSans-58"/>
      <use x="863.023438" xlink:href="#DejaVuSans-32"/>
      <use x="894.810547" xlink:href="#DejaVuSans-66"/>
      <use x="963.414062" xlink:href="#DejaVuSans-97"/>
      <use x="1024.693359" xlink:href="#DejaVuSans-115"/>
      <use x="1076.792969" xlink:href="#DejaVuSans-101"/>
      <use x="1138.316406" xlink:href="#DejaVuSans-32"/>
      <use x="1170.103516" xlink:href="#DejaVuSans-67"/>
      <use x="1239.927734" xlink:href="#DejaVuSans-111"/>
      <use x="1301.109375" xlink:href="#DejaVuSans-110"/>
      <use x="1364.488281" xlink:href="#DejaVuSans-116"/>
      <use x="1403.697266" xlink:href="#DejaVuSans-101"/>
      <use x="1465.220703" xlink:href="#DejaVuSans-110"/>
      <use x="1528.599609" xlink:href="#DejaVuSans-116"/>
      <use x="1567.808594" xlink:href="#DejaVuSans-32"/>
      <use x="1599.595703" xlink:href="#DejaVuSans-80"/>
      <use x="1659.851562" xlink:href="#DejaVuSans-101"/>
      <use x="1721.375" xlink:href="#DejaVuSans-114"/>
      <use x="1762.457031" xlink:href="#DejaVuSans-99"/>
      <use x="1817.4375" xlink:href="#DejaVuSans-101"/>
      <use x="1878.960938" xlink:href="#DejaVuSans-110"/>
      <use x="1942.339844" xlink:href="#DejaVuSans-116"/>
     </g>
    </g>
   </g>
   <g id="line2d_7">
    <path clip-path="url(#pbadccd81e9)" d="M 76.613125 310.49447 
L 82.471514 353.2239 
L 949.513125 353.2239 
L 949.513125 353.2239 
" style="fill:none;stroke:#7cb5ec;stroke-linecap:square;"/>
   </g>
   <g id="line2d_8">
    <path clip-path="url(#pbadccd81e9)" d="M 76.613125 296.291412 
L 82.471514 353.2239 
L 949.513125 353.2239 
L 949.513125 353.2239 
" style="fill:none;stroke:#434348;stroke-linecap:square;"/>
   </g>
   <g id="line2d_9">
    <path clip-path="url(#pbadccd81e9)" d="M 76.613125 306.889794 
L 82.471514 353.2239 
L 949.513125 353.2239 
L 949.513125 353.2239 
" style="fill:none;stroke:#90ed7d;stroke-linecap:square;"/>
   </g>
   <g id="line2d_10">
    <path clip-path="url(#pbadccd81e9)" d="M 76.613125 307.279368 
L 82.471514 353.2239 
L 949.513125 353.2239 
L 949.513125 353.2239 
" style="fill:none;stroke:#f7a35c;stroke-linecap:square;"/>
   </g>
   <g id="line2d_11">
    <path clip-path="url(#pbadccd81e9)" d="M 76.613125 302.559769 
L 82.471514 353.2239 
L 949.513125 353.2239 
L 949.513125 353.2239 
" style="fill:none;stroke:#8085e9;stroke-linecap:square;"/>
   </g>
   <g id="line2d_12">
    <path clip-path="url(#pbadccd81e9)" d="M 76.613125 302.993096 
L 82.471514 353.2239 
L 949.513125 353.2239 
L 949.513125 353.2239 
" style="fill:none;stroke:#f15c80;stroke-linecap:square;"/>
   </g>
   <g id="line2d_13">
    <path clip-path="url(#pbadccd81e9)" d="M 76.613125 301.60046 
L 82.471514 353.2239 
L 949.513125 353.2239 
L 949.513125 353.2239 
" style="fill:none;stroke:#e4d354;stroke-linecap:square;"/>
   </g>
   <g id="line2d_14">
    <path clip-path="url(#pbadccd81e9)" d="M 76.613125 316.215032 
L 82.471514 353.2239 
L 949.513125 353.2239 
L 949.513125 353.2239 
" style="fill:none;stroke:#2b908f;stroke-linecap:square;"/>
   </g>
   <g id="line2d_15">
    <path clip-path="url(#pbadccd81e9)" d="M 76.613125 297.243599 
L 82.471514 353.2239 
L 949.513125 353.2239 
L 949.513125 353.2239 
" style="fill:none;stroke:#f45b5b;stroke-linecap:square;"/>
   </g>
   <g id="line2d_16">
    <path clip-path="url(#pbadccd81e9)" d="M 76.613125 325.043604 
L 82.471514 353.2239 
L 949.513125 353.2239 
L 949.513125 353.2239 
" style="fill:none;stroke:#91e8e1;stroke-linecap:square;"/>
   </g>
   <g id="line2d_17">
    <path clip-path="url(#pbadccd81e9)" d="M 76.613125 270.327099 
L 82.471514 353.2239 
L 164.488964 353.2239 
L 170.347353 347.302706 
L 176.205742 353.2239 
L 949.513125 353.2239 
L 949.513125 353.2239 
" style="fill:none;stroke:#7cb5ec;stroke-linecap:square;"/>
   </g>
   <g id="line2d_18">
    <path clip-path="url(#pbadccd81e9)" d="M 76.613125 298.401829 
L 82.471514 353.2239 
L 949.513125 353.2239 
L 949.513125 353.2239 
" style="fill:none;stroke:#434348;stroke-linecap:square;"/>
   </g>
   <g id="line2d_19">
    <path clip-path="url(#pbadccd81e9)" d="M 76.613125 295.841169 
L 82.471514 353.2239 
L 949.513125 353.2239 
L 949.513125 353.2239 
" style="fill:none;stroke:#90ed7d;stroke-linecap:square;"/>
   </g>
   <g id="line2d_20">
    <path clip-path="url(#pbadccd81e9)" d="M 76.613125 304.610218 
L 82.471514 353.2239 
L 949.513125 353.2239 
L 949.513125 353.2239 
" style="fill:none;stroke:#f7a35c;stroke-linecap:square;"/>
   </g>
   <g id="line2d_21">
    <path clip-path="url(#pbadccd81e9)" d="M 76.613125 324.265092 
L 82.471514 353.2239 
L 949.513125 353.2239 
L 949.513125 353.2239 
" style="fill:none;stroke:#8085e9;stroke-linecap:square;"/>
   </g>
   <g id="line2d_22">
    <path clip-path="url(#pbadccd81e9)" d="M 76.613125 313.786011 
L 82.471514 353.2239 
L 949.513125 353.2239 
L 949.513125 353.2239 
" style="fill:none;stroke:#f15c80;stroke-linecap:square;"/>
   </g>
   <g id="line2d_23">
    <path clip-path="url(#pbadccd81e9)" d="M 76.613125 306.030136 
L 82.471514 353.2239 
L 949.513125 353.2239 
L 949.513125 353.2239 
" style="fill:none;stroke:#e4d354;stroke-linecap:square;"/>
   </g>
   <g id="line2d_24">
    <path clip-path="url(#pbadccd81e9)" d="M 76.613125 300.785381 
L 82.471514 353.2239 
L 949.513125 353.2239 
L 949.513125 353.2239 
" style="fill:none;stroke:#2b908f;stroke-linecap:square;"/>
   </g>
   <g id="line2d_25">
    <path clip-path="url(#pbadccd81e9)" d="M 76.613125 317.329128 
L 82.471514 353.2239 
L 949.513125 353.2239 
L 949.513125 353.2239 
" style="fill:none;stroke:#f45b5b;stroke-linecap:square;"/>
   </g>
   <g id="line2d_26">
    <path clip-path="url(#pbadccd81e9)" d="M 76.613125 317.625729 
L 82.471514 353.2239 
L 949.513125 353.2239 
L 949.513125 353.2239 
" style="fill:none;stroke:#91e8e1;stroke-linecap:square;"/>
   </g>
   <g id="line2d_27">
    <path clip-path="url(#pbadccd81e9)" d="M 76.613125 285.390515 
L 82.471514 353.2239 
L 949.513125 353.2239 
L 949.513125 353.2239 
" style="fill:none;stroke:#7cb5ec;stroke-linecap:square;"/>
   </g>
   <g id="line2d_28">
    <path clip-path="url(#pbadccd81e9)" d="M 76.613125 309.218973 
L 82.471514 353.2239 
L 949.513125 353.2239 
L 949.513125 353.2239 
" style="fill:none;stroke:#434348;stroke-linecap:square;"/>
   </g>
   <g id="line2d_29">
    <path clip-path="url(#pbadccd81e9)" d="M 76.613125 313.180727 
L 82.471514 353.2239 
L 949.513125 353.2239 
L 949.513125 353.2239 
" style="fill:none;stroke:#90ed7d;stroke-linecap:square;"/>
   </g>
   <g id="line2d_30">
    <path clip-path="url(#pbadccd81e9)" d="M 76.613125 312.477445 
L 82.471514 353.2239 
L 949.513125 353.2239 
L 949.513125 353.2239 
" style="fill:none;stroke:#f7a35c;stroke-linecap:square;"/>
   </g>
   <g id="line2d_31">
    <path clip-path="url(#pbadccd81e9)" d="M 76.613125 299.227719 
L 82.471514 353.2239 
L 949.513125 353.2239 
L 949.513125 353.2239 
" style="fill:none;stroke:#8085e9;stroke-linecap:square;"/>
   </g>
   <g id="line2d_32">
    <path clip-path="url(#pbadccd81e9)" d="M 76.613125 299.140023 
L 82.471514 353.2239 
L 949.513125 353.2239 
L 949.513125 353.2239 
" style="fill:none;stroke:#f15c80;stroke-linecap:square;"/>
   </g>
   <g id="line2d_33">
    <path clip-path="url(#pbadccd81e9)" d="M 76.613125 297.440039 
L 82.471514 353.2239 
L 949.513125 353.2239 
L 949.513125 353.2239 
" style="fill:none;stroke:#e4d354;stroke-linecap:square;"/>
   </g>
   <g id="line2d_34">
    <path clip-path="url(#pbadccd81e9)" d="M 76.613125 309.616878 
L 82.471514 353.2239 
L 949.513125 353.2239 
L 949.513125 353.2239 
" style="fill:none;stroke:#2b908f;stroke-linecap:square;"/>
   </g>
   <g id="line2d_35">
    <path clip-path="url(#pbadccd81e9)" d="M 76.613125 321.585321 
L 82.471514 353.2239 
L 949.513125 353.2239 
L 949.513125 353.2239 
" style="fill:none;stroke:#f45b5b;stroke-linecap:square;"/>
   </g>
   <g id="line2d_36">
    <path clip-path="url(#pbadccd81e9)" d="M 76.613125 310.255231 
L 82.471514 353.2239 
L 949.513125 353.2239 
L 949.513125 353.2239 
" style="fill:none;stroke:#91e8e1;stroke-linecap:square;"/>
   </g>
   <g id="line2d_37">
    <path clip-path="url(#pbadccd81e9)" d="M 76.613125 327.160953 
L 82.471514 353.2239 
L 949.513125 353.2239 
L 949.513125 353.2239 
" style="fill:none;stroke:#7cb5ec;stroke-linecap:square;"/>
   </g>
   <g id="line2d_38">
    <path clip-path="url(#pbadccd81e9)" d="M 76.613125 311.605068 
L 82.471514 353.2239 
L 949.513125 353.2239 
L 949.513125 353.2239 
" style="fill:none;stroke:#434348;stroke-linecap:square;"/>
   </g>
   <g id="line2d_39">
    <path clip-path="url(#pbadccd81e9)" d="M 76.613125 335.989844 
L 82.471514 353.2239 
L 949.513125 353.2239 
L 949.513125 353.2239 
" style="fill:none;stroke:#90ed7d;stroke-linecap:square;"/>
   </g>
   <g id="line2d_40">
    <path clip-path="url(#pbadccd81e9)" d="M 76.613125 315.520208 
L 82.471514 353.2239 
L 949.513125 353.2239 
L 949.513125 353.2239 
" style="fill:none;stroke:#f7a35c;stroke-linecap:square;"/>
   </g>
   <g id="line2d_41">
    <path clip-path="url(#pbadccd81e9)" d="M 76.613125 321.267289 
L 82.471514 353.2239 
L 949.513125 353.2239 
L 949.513125 353.2239 
" style="fill:none;stroke:#8085e9;stroke-linecap:square;"/>
   </g>
   <g id="line2d_42">
    <path clip-path="url(#pbadccd81e9)" d="M 76.613125 279.666455 
L 82.471514 353.2239 
L 949.513125 353.2239 
L 949.513125 353.2239 
" style="fill:none;stroke:#f15c80;stroke-linecap:square;"/>
   </g>
   <g id="line2d_43">
    <path clip-path="url(#pbadccd81e9)" d="M 76.613125 307.407191 
L 82.471514 353.2239 
L 949.513125 353.2239 
L 949.513125 353.2239 
" style="fill:none;stroke:#e4d354;stroke-linecap:square;"/>
   </g>
   <g id="line2d_44">
    <path clip-path="url(#pbadccd81e9)" d="M 76.613125 311.423509 
L 82.471514 353.2239 
L 949.513125 353.2239 
L 949.513125 353.2239 
" style="fill:none;stroke:#2b908f;stroke-linecap:square;"/>
   </g>
   <g id="line2d_45">
    <path clip-path="url(#pbadccd81e9)" d="M 76.613125 340.907537 
L 82.471514 353.2239 
L 949.513125 353.2239 
L 949.513125 353.2239 
" style="fill:none;stroke:#f45b5b;stroke-linecap:square;"/>
   </g>
   <g id="line2d_46">
    <path clip-path="url(#pbadccd81e9)" d="M 76.613125 294.804593 
L 82.471514 353.2239 
L 949.513125 353.2239 
L 949.513125 353.2239 
" style="fill:none;stroke:#91e8e1;stroke-linecap:square;"/>
   </g>
   <g id="line2d_47">
    <path clip-path="url(#pbadccd81e9)" d="M 76.613125 305.445074 
L 82.471514 353.2239 
L 949.513125 353.2239 
L 949.513125 353.2239 
" style="fill:none;stroke:#7cb5ec;stroke-linecap:square;"/>
   </g>
   <g id="line2d_48">
    <path clip-path="url(#pbadccd81e9)" d="M 76.613125 289.883657 
L 82.471514 353.2239 
L 949.513125 353.2239 
L 949.513125 353.2239 
" style="fill:none;stroke:#434348;stroke-linecap:square;"/>
   </g>
   <g id="line2d_49">
    <path clip-path="url(#pbadccd81e9)" d="M 76.613125 336.265585 
L 82.471514 353.2239 
L 949.513125 353.2239 
L 949.513125 353.2239 
" style="fill:none;stroke:#90ed7d;stroke-linecap:square;"/>
   </g>
   <g id="line2d_50">
    <path clip-path="url(#pbadccd81e9)" d="M 76.613125 273.979279 
L 82.471514 353.2239 
L 949.513125 353.2239 
L 949.513125 353.2239 
" style="fill:none;stroke:#f7a35c;stroke-linecap:square;"/>
   </g>
   <g id="line2d_51">
    <path clip-path="url(#pbadccd81e9)" d="M 76.613125 319.531947 
L 82.471514 353.2239 
L 949.513125 353.2239 
L 949.513125 353.2239 
" style="fill:none;stroke:#8085e9;stroke-linecap:square;"/>
   </g>
   <g id="line2d_52">
    <path clip-path="url(#pbadccd81e9)" d="M 76.613125 318.264908 
L 82.471514 353.2239 
L 949.513125 353.2239 
L 949.513125 353.2239 
" style="fill:none;stroke:#f15c80;stroke-linecap:square;"/>
   </g>
   <g id="line2d_53">
    <path clip-path="url(#pbadccd81e9)" d="M 76.613125 308.228439 
L 82.471514 353.2239 
L 814.770172 353.2239 
L 820.628561 330.098978 
L 826.486951 353.2239 
L 949.513125 353.2239 
L 949.513125 353.2239 
" style="fill:none;stroke:#e4d354;stroke-linecap:square;"/>
   </g>
   <g id="line2d_54">
    <path clip-path="url(#pbadccd81e9)" d="M 76.613125 327.026262 
L 82.471514 352.904895 
L 88.329904 353.2239 
L 94.188293 352.90735 
L 100.046682 353.2239 
L 146.913796 353.2239 
L 158.630575 352.872995 
L 164.488964 353.2239 
L 205.497689 353.216538 
L 228.931246 353.216538 
L 234.789635 352.846003 
L 240.648024 353.2239 
L 246.506414 352.980966 
L 252.364803 353.2239 
L 258.223192 353.096298 
L 264.081581 353.2239 
L 357.81581 353.211019 
L 363.674199 352.941515 
L 369.532588 353.2239 
L 469.125206 353.2239 
L 474.983595 353.109454 
L 480.841984 353.2239 
L 551.142655 353.217048 
L 592.15138 353.2239 
L 598.009769 353.007625 
L 603.868159 353.2239 
L 644.876883 353.215747 
L 650.735273 352.828103 
L 656.593662 353.21973 
L 662.452051 352.996133 
L 668.31044 353.198304 
L 697.602387 353.2239 
L 715.177555 353.191148 
L 744.469501 353.154406 
L 756.186279 353.2239 
L 814.770172 353.189405 
L 820.628561 352.950279 
L 826.486951 353.2239 
L 949.513125 353.2239 
L 949.513125 353.2239 
" style="fill:none;stroke:#2b908f;stroke-linecap:square;"/>
   </g>
   <g id="line2d_55">
    <path clip-path="url(#pbadccd81e9)" d="M 76.613125 327.816476 
L 82.471514 352.978777 
L 88.329904 353.2239 
L 94.188293 352.978777 
L 100.046682 353.2239 
L 152.772185 353.138478 
L 158.630575 352.911924 
L 164.488964 353.2239 
L 193.78091 353.142192 
L 205.497689 353.220186 
L 228.931246 353.220186 
L 234.789635 352.885927 
L 240.648024 353.2239 
L 246.506414 353.108766 
L 252.364803 353.2239 
L 258.223192 353.164476 
L 269.939971 353.2239 
L 310.948695 353.2239 
L 357.81581 353.21253 
L 363.674199 352.995939 
L 369.532588 353.2239 
L 592.15138 353.2239 
L 598.009769 352.980082 
L 603.868159 353.2239 
L 644.876883 353.218603 
L 650.735273 352.74739 
L 656.593662 353.2239 
L 662.452051 353.005008 
L 668.31044 353.218367 
L 721.035944 353.193192 
L 726.894333 353.118202 
L 738.611112 353.2239 
L 750.32789 353.2239 
L 814.770172 353.201386 
L 820.628561 352.919769 
L 826.486951 353.2239 
L 949.513125 353.2239 
L 949.513125 353.2239 
" style="fill:none;stroke:#f45b5b;stroke-linecap:square;"/>
   </g>
   <g id="line2d_56">
    <path clip-path="url(#pbadccd81e9)" d="M 76.613125 329.535984 
L 82.471514 353.012136 
L 88.329904 353.2239 
L 94.188293 353.043901 
L 100.046682 353.2239 
L 152.772185 353.170959 
L 158.630575 353.001548 
L 164.488964 353.2239 
L 223.072857 353.2239 
L 228.931246 353.221782 
L 234.789635 352.99096 
L 240.648024 353.2239 
L 246.506414 353.154018 
L 258.223192 353.183665 
L 275.79836 353.219662 
L 357.81581 353.221756 
L 363.674199 353.060716 
L 369.532588 353.2239 
L 592.15138 353.2239 
L 598.009769 352.95191 
L 603.868159 353.221437 
L 644.876883 353.221343 
L 650.735273 352.784049 
L 656.593662 353.221313 
L 662.452051 352.984492 
L 668.31044 353.221282 
L 721.035944 353.190674 
L 726.894333 353.065041 
L 732.752722 353.2239 
L 814.770172 353.211504 
L 820.628561 352.933465 
L 826.486951 353.214459 
L 896.787622 353.2239 
L 931.937957 353.2239 
L 937.796346 353.049599 
L 943.654736 353.219808 
L 949.513125 353.2239 
L 949.513125 353.2239 
" style="fill:none;stroke:#91e8e1;stroke-linecap:square;"/>
   </g>
   <g id="line2d_57">
    <path clip-path="url(#pbadccd81e9)" d="M 76.613125 327.900674 
L 82.471514 352.960953 
L 88.329904 353.221893 
L 94.188293 352.952924 
L 100.046682 353.2239 
L 152.772185 353.123538 
L 158.630575 352.908764 
L 164.488964 353.2239 
L 205.497689 353.213864 
L 228.931246 353.213864 
L 234.789635 352.90475 
L 240.648024 353.2239 
L 246.506414 353.089415 
L 252.364803 353.2239 
L 258.223192 353.147625 
L 269.939971 353.2239 
L 346.099031 353.2239 
L 357.81581 353.211429 
L 363.674199 352.958951 
L 369.532588 353.2239 
L 592.15138 353.2239 
L 598.009769 352.988913 
L 603.868159 353.2239 
L 644.876883 353.2239 
L 650.735273 352.80711 
L 656.593662 353.2239 
L 662.452051 352.963754 
L 668.31044 353.218004 
L 721.035944 353.188788 
L 726.894333 353.053182 
L 732.752722 353.2239 
L 814.770172 353.205322 
L 820.628561 352.983717 
L 826.486951 353.2239 
L 931.937957 353.2239 
L 937.796346 353.106516 
L 943.654736 353.2239 
L 949.513125 353.2239 
L 949.513125 353.2239 
" style="fill:none;stroke:#7cb5ec;stroke-linecap:square;"/>
   </g>
   <g id="line2d_58">
    <path clip-path="url(#pbadccd81e9)" d="M 76.613125 329.325107 
L 82.471514 353.047547 
L 88.329904 353.220859 
L 94.188293 353.071872 
L 100.046682 353.2239 
L 152.772185 353.166129 
L 158.630575 353.035385 
L 164.488964 353.2239 
L 217.214467 353.220859 
L 228.931246 353.217819 
L 234.789635 353.020182 
L 240.648024 353.2239 
L 246.506414 353.135724 
L 252.364803 353.2239 
L 269.939971 353.2239 
L 322.665474 353.211671 
L 357.81581 353.214659 
L 363.674199 353.09433 
L 369.532588 353.2239 
L 592.15138 353.2239 
L 598.009769 353.021532 
L 603.868159 353.2239 
L 644.876883 353.2239 
L 650.735273 352.882236 
L 656.593662 353.220248 
L 662.452051 353.003702 
L 668.31044 353.2239 
L 721.035944 353.192992 
L 726.894333 353.095706 
L 732.752722 353.2239 
L 814.770172 353.211188 
L 820.628561 352.976594 
L 826.486951 353.2239 
L 931.937957 353.2239 
L 937.796346 353.095473 
L 943.654736 353.218474 
L 949.513125 353.2239 
L 949.513125 353.2239 
" style="fill:none;stroke:#434348;stroke-linecap:square;"/>
   </g>
   <g id="line2d_59">
    <path clip-path="url(#pbadccd81e9)" d="M 76.613125 330.965631 
L 82.471514 353.09235 
L 88.329904 353.2239 
L 94.188293 353.06604 
L 100.046682 353.2239 
L 152.772185 353.19759 
L 158.630575 353.06604 
L 164.488964 353.2239 
L 228.931246 353.2239 
L 234.789635 353.06604 
L 240.648024 353.2239 
L 264.081581 353.2239 
L 357.81581 353.2239 
L 363.674199 353.065402 
L 369.532588 353.2239 
L 562.859434 353.2239 
L 568.717823 353.054233 
L 574.576212 353.2239 
L 592.15138 353.2239 
L 598.009769 353.021249 
L 603.868159 353.2239 
L 644.876883 353.2239 
L 650.735273 352.889246 
L 656.593662 353.2239 
L 662.452051 352.946788 
L 668.31044 353.2239 
L 721.035944 353.2239 
L 726.894333 353.058228 
L 732.752722 353.2239 
L 738.611112 353.2239 
L 744.469501 353.088468 
L 750.32789 353.2239 
L 814.770172 353.14932 
L 820.628561 353.07349 
L 826.486951 353.2239 
L 931.937957 353.2239 
L 937.796346 353.082448 
L 943.654736 353.2239 
L 949.513125 353.2239 
L 949.513125 353.2239 
" style="fill:none;stroke:#90ed7d;stroke-linecap:square;"/>
   </g>
   <g id="line2d_60">
    <path clip-path="url(#pbadccd81e9)" d="M 76.613125 330.502098 
L 82.471514 353.082478 
L 88.329904 353.2239 
L 94.188293 353.113905 
L 105.905071 353.2239 
L 152.772185 353.218662 
L 158.630575 353.087716 
L 164.488964 353.2239 
L 228.931246 353.2239 
L 234.789635 353.082478 
L 240.648024 353.2239 
L 264.081581 353.2239 
L 592.15138 353.2239 
L 598.009769 353.009839 
L 603.868159 353.2239 
L 644.876883 353.2239 
L 650.735273 352.880041 
L 656.593662 353.2239 
L 662.452051 353.018237 
L 668.31044 353.2239 
L 721.035944 353.193145 
L 726.894333 353.094092 
L 732.752722 353.2239 
L 814.770172 353.210495 
L 820.628561 352.967702 
L 826.486951 353.2239 
L 931.937957 353.2239 
L 937.796346 353.078948 
L 943.654736 353.2239 
L 949.513125 353.2239 
L 949.513125 353.2239 
" style="fill:none;stroke:#f7a35c;stroke-linecap:square;"/>
   </g>
   <g id="line2d_61">
    <path clip-path="url(#pbadccd81e9)" d="M 76.613125 330.725629 
L 82.471514 353.079681 
L 88.329904 353.2239 
L 94.188293 353.15179 
L 105.905071 353.217891 
L 152.772185 353.193854 
L 158.630575 353.109726 
L 164.488964 353.2239 
L 217.214467 353.2239 
L 592.15138 353.2239 
L 598.009769 353.082861 
L 603.868159 353.2239 
L 644.876883 353.2239 
L 650.735273 352.87978 
L 656.593662 353.2239 
L 662.452051 353.003801 
L 668.31044 353.2239 
L 721.035944 353.20997 
L 726.894333 353.069948 
L 732.752722 353.2239 
L 814.770172 353.2239 
L 820.628561 353.034099 
L 826.486951 353.2239 
L 931.937957 353.2239 
L 937.796346 353.106555 
L 949.513125 353.2239 
L 949.513125 353.2239 
" style="fill:none;stroke:#8085e9;stroke-linecap:square;"/>
   </g>
   <g id="line2d_62">
    <path clip-path="url(#pbadccd81e9)" d="M 76.613125 330.059613 
L 82.471514 353.045666 
L 88.329904 353.2239 
L 94.188293 353.125564 
L 105.905071 353.2239 
L 152.772185 353.183951 
L 158.630575 353.10098 
L 164.488964 353.2239 
L 269.939971 353.2239 
L 592.15138 353.2239 
L 598.009769 352.994995 
L 603.868159 353.2239 
L 644.876883 353.2239 
L 650.735273 352.857135 
L 656.593662 353.21682 
L 662.452051 353.01781 
L 668.31044 353.2239 
L 721.035944 353.19432 
L 726.894333 353.086526 
L 732.752722 353.220172 
L 814.770172 353.212002 
L 820.628561 353.008702 
L 826.486951 353.219896 
L 931.937957 353.2239 
L 937.796346 353.116478 
L 949.513125 353.2239 
L 949.513125 353.2239 
" style="fill:none;stroke:#f15c80;stroke-linecap:square;"/>
   </g>
   <g id="line2d_63">
    <path clip-path="url(#pbadccd81e9)" d="M 76.613125 330.014843 
L 82.471514 353.055056 
L 88.329904 353.2239 
L 94.188293 353.04802 
L 100.046682 353.2239 
L 152.772185 353.167619 
L 158.630575 353.023398 
L 164.488964 353.2239 
L 228.931246 353.220382 
L 234.789635 353.002292 
L 240.648024 353.2239 
L 246.506414 353.13596 
L 252.364803 353.2239 
L 264.081581 353.2239 
L 357.81581 353.2239 
L 363.674199 353.080341 
L 369.532588 353.2239 
L 592.15138 353.2239 
L 598.009769 353.019403 
L 603.868159 353.2239 
L 644.876883 353.2239 
L 650.735273 352.832698 
L 656.593662 353.2239 
L 662.452051 353.013664 
L 668.31044 353.2239 
L 721.035944 353.183432 
L 726.894333 353.110939 
L 738.611112 353.2239 
L 762.044669 353.2239 
L 814.770172 353.214152 
L 820.628561 352.993582 
L 826.486951 353.214046 
L 896.787622 353.2239 
L 949.513125 353.2239 
L 949.513125 353.2239 
" style="fill:none;stroke:#e4d354;stroke-linecap:square;"/>
   </g>
   <g id="line2d_64">
    <path clip-path="url(#pbadccd81e9)" d="M 76.613125 329.526127 
L 82.471514 353.034474 
L 88.329904 353.2239 
L 94.188293 353.023588 
L 100.046682 353.2239 
L 152.772185 353.180354 
L 158.630575 352.988751 
L 164.488964 353.2239 
L 228.931246 353.219545 
L 234.789635 352.971332 
L 240.648024 353.2239 
L 246.506414 353.141162 
L 258.223192 353.19995 
L 287.515138 353.2239 
L 357.81581 353.21947 
L 363.674199 353.050769 
L 369.532588 353.2239 
L 592.15138 353.2239 
L 598.009769 353.002999 
L 603.868159 353.218675 
L 644.876883 353.221188 
L 650.735273 352.866555 
L 656.593662 353.2239 
L 662.452051 353.019774 
L 668.31044 353.221126 
L 721.035944 353.188835 
L 726.894333 353.126897 
L 738.611112 353.2239 
L 750.32789 353.2239 
L 814.770172 353.214216 
L 820.628561 352.976976 
L 826.486951 353.2239 
L 931.937957 353.2239 
L 937.796346 353.101943 
L 943.654736 353.219745 
L 949.513125 353.2239 
L 949.513125 353.2239 
" style="fill:none;stroke:#2b908f;stroke-linecap:square;"/>
   </g>
   <g id="line2d_65">
    <path clip-path="url(#pbadccd81e9)" d="M 76.613125 328.788822 
L 82.471514 353.058239 
L 88.329904 353.2239 
L 94.188293 353.023363 
L 100.046682 353.2239 
L 152.772185 353.145429 
L 158.630575 352.992846 
L 164.488964 353.2239 
L 211.356078 353.2239 
L 228.931246 353.21954 
L 234.789635 352.992846 
L 240.648024 353.2239 
L 246.506414 353.127991 
L 252.364803 353.2239 
L 264.081581 353.2239 
L 357.81581 353.2239 
L 363.674199 353.037768 
L 369.532588 353.2239 
L 592.15138 353.2239 
L 598.009769 353.036967 
L 603.868159 353.2239 
L 644.876883 353.21264 
L 650.735273 352.88376 
L 656.593662 353.206775 
L 662.452051 352.988277 
L 668.31044 353.2239 
L 721.035944 353.180718 
L 726.894333 353.074791 
L 732.752722 353.2239 
L 814.770172 353.210003 
L 820.628561 353.041844 
L 826.486951 353.216844 
L 920.221179 353.2239 
L 949.513125 353.2239 
L 949.513125 353.2239 
" style="fill:none;stroke:#f45b5b;stroke-linecap:square;"/>
   </g>
   <g id="line2d_66">
    <path clip-path="url(#pbadccd81e9)" d="M 76.613125 327.755172 
L 82.471514 352.965952 
L 88.329904 353.2239 
L 94.188293 353.015698 
L 100.046682 353.2239 
L 152.772185 353.133618 
L 158.630575 352.967794 
L 164.488964 353.2239 
L 199.639299 353.2239 
L 228.931246 353.21653 
L 234.789635 352.962266 
L 240.648024 353.2239 
L 246.506414 353.091241 
L 252.364803 353.220215 
L 264.081581 353.2239 
L 357.81581 353.216317 
L 363.674199 353.039438 
L 369.532588 353.2239 
L 592.15138 353.2239 
L 598.009769 352.986795 
L 603.868159 353.22156 
L 644.876883 353.221444 
L 650.735273 352.786 
L 656.593662 353.221408 
L 662.452051 352.927692 
L 668.31044 353.211256 
L 709.319165 353.2239 
L 726.894333 353.06007 
L 732.752722 353.2239 
L 814.770172 353.217706 
L 820.628561 352.936418 
L 826.486951 353.2239 
L 931.937957 353.2239 
L 937.796346 353.064834 
L 943.654736 353.2239 
L 949.513125 353.2239 
L 949.513125 353.2239 
" style="fill:none;stroke:#91e8e1;stroke-linecap:square;"/>
   </g>
   <g id="line2d_67">
    <path clip-path="url(#pbadccd81e9)" d="M 76.613125 328.252855 
L 82.471514 353.002171 
L 88.329904 353.2239 
L 94.188293 352.984018 
L 100.046682 353.2239 
L 152.772185 353.140914 
L 158.630575 352.932152 
L 164.488964 353.2239 
L 205.497689 353.21612 
L 228.931246 353.22001 
L 234.789635 352.919185 
L 240.648024 353.2239 
L 246.506414 353.121464 
L 252.364803 353.221307 
L 264.081581 353.2239 
L 357.81581 353.211884 
L 363.674199 353.017625 
L 369.532588 353.2239 
L 592.15138 353.2239 
L 598.009769 352.971921 
L 603.868159 353.2239 
L 644.876883 353.2239 
L 650.735273 352.784351 
L 656.593662 353.218477 
L 662.452051 353.008992 
L 668.31044 353.214724 
L 721.035944 353.200284 
L 726.894333 353.100918 
L 732.752722 353.2239 
L 814.770172 353.214926 
L 820.628561 352.968223 
L 826.486951 353.2239 
L 931.937957 353.2239 
L 937.796346 353.103728 
L 949.513125 353.2239 
L 949.513125 353.2239 
" style="fill:none;stroke:#7cb5ec;stroke-linecap:square;"/>
   </g>
   <g id="line2d_68">
    <path clip-path="url(#pbadccd81e9)" d="M 76.613125 329.171465 
L 82.471514 353.019912 
L 88.329904 353.2239 
L 94.188293 352.988729 
L 100.046682 353.2239 
L 152.772185 353.157636 
L 158.630575 352.945852 
L 164.488964 353.2239 
L 228.931246 353.220002 
L 234.789635 352.928962 
L 240.648024 353.222601 
L 246.506414 353.129052 
L 252.364803 353.2239 
L 264.081581 353.2239 
L 357.81581 353.217245 
L 363.674199 353.015654 
L 369.532588 353.2239 
L 592.15138 353.2239 
L 598.009769 352.985588 
L 603.868159 353.222245 
L 644.876883 353.222165 
L 650.735273 352.809937 
L 656.593662 353.216865 
L 662.452051 352.975945 
L 668.31044 353.214982 
L 715.177555 353.189888 
L 744.469501 353.182712 
L 762.044669 353.2239 
L 814.770172 353.208825 
L 820.628561 352.974255 
L 826.486951 353.221711 
L 931.937957 353.2239 
L 937.796346 353.120599 
L 949.513125 353.2239 
L 949.513125 353.2239 
" style="fill:none;stroke:#434348;stroke-linecap:square;"/>
   </g>
   <g id="line2d_69">
    <path clip-path="url(#pbadccd81e9)" d="M 76.613125 327.908687 
L 82.471514 352.974687 
L 88.329904 353.221469 
L 94.188293 352.977118 
L 100.046682 353.2239 
L 152.772185 353.12543 
L 158.630575 352.922413 
L 164.488964 353.2239 
L 193.78091 353.136372 
L 205.497689 353.206881 
L 228.931246 353.209312 
L 234.789635 352.911472 
L 240.648024 353.222684 
L 246.506414 353.096254 
L 252.364803 353.222684 
L 258.223192 353.157038 
L 269.939971 353.2239 
L 328.523863 353.2239 
L 357.81581 353.21637 
L 363.674199 353.002201 
L 369.532588 353.2239 
L 592.15138 353.2239 
L 598.009769 352.984912 
L 603.868159 353.2239 
L 644.876883 353.2239 
L 650.735273 352.761737 
L 656.593662 353.218643 
L 662.452051 352.965904 
L 668.31044 353.222118 
L 721.035944 353.194979 
L 726.894333 353.068265 
L 732.752722 353.2239 
L 814.770172 353.201555 
L 820.628561 352.930609 
L 826.486951 353.221622 
L 931.937957 353.2239 
L 937.796346 353.11033 
L 949.513125 353.2239 
L 949.513125 353.2239 
" style="fill:none;stroke:#90ed7d;stroke-linecap:square;"/>
   </g>
   <g id="line2d_70">
    <path clip-path="url(#pbadccd81e9)" d="M 76.613125 328.91124 
L 82.471514 353.054596 
L 88.329904 353.2239 
L 94.188293 352.998161 
L 100.046682 353.2239 
L 152.772185 353.168991 
L 158.630575 352.966131 
L 164.488964 353.2239 
L 228.931246 353.222375 
L 234.789635 352.950879 
L 240.648024 353.2239 
L 246.506414 353.140011 
L 252.364803 353.2239 
L 269.939971 353.2239 
L 340.240642 353.22236 
L 357.81581 353.222352 
L 363.674199 353.011422 
L 369.532588 353.2239 
L 592.15138 353.2239 
L 598.009769 353.025373 
L 603.868159 353.222051 
L 644.876883 353.221968 
L 650.735273 352.846793 
L 656.593662 353.21803 
L 662.452051 353.021048 
L 668.31044 353.210023 
L 697.602387 353.2239 
L 715.177555 353.192518 
L 814.770172 353.209687 
L 820.628561 353.037711 
L 826.486951 353.221494 
L 931.937957 353.2239 
L 937.796346 353.128921 
L 949.513125 353.2239 
L 949.513125 353.2239 
" style="fill:none;stroke:#f7a35c;stroke-linecap:square;"/>
   </g>
   <g id="line2d_71">
    <path clip-path="url(#pbadccd81e9)" d="M 76.613125 328.866152 
L 82.471514 353.022987 
L 88.329904 353.2239 
L 94.188293 353.037169 
L 100.046682 353.2239 
L 152.772185 353.148262 
L 158.630575 353.007623 
L 164.488964 353.2239 
L 223.072857 353.2239 
L 228.931246 353.222718 
L 234.789635 352.995804 
L 240.648024 353.222718 
L 246.506414 353.113989 
L 252.364803 353.222718 
L 264.081581 353.2239 
L 357.81581 353.217853 
L 363.674199 353.063845 
L 369.532588 353.2239 
L 592.15138 353.2239 
L 598.009769 353.018605 
L 603.868159 353.2239 
L 644.876883 353.217948 
L 650.735273 352.818456 
L 656.593662 353.220891 
L 662.452051 353.033269 
L 668.31044 353.216292 
L 721.035944 353.204658 
L 726.894333 353.104516 
L 732.752722 353.2239 
L 814.770172 353.218575 
L 820.628561 352.982698 
L 826.486951 353.2239 
L 931.937957 353.2239 
L 937.796346 353.099473 
L 943.654736 353.22159 
L 949.513125 353.2239 
L 949.513125 353.2239 
" style="fill:none;stroke:#8085e9;stroke-linecap:square;"/>
   </g>
   <g id="line2d_72">
    <path clip-path="url(#pbadccd81e9)" d="M 76.613125 328.519376 
L 82.471514 353.013608 
L 88.329904 353.2239 
L 94.188293 353.012015 
L 100.046682 353.2239 
L 152.772185 353.139465 
L 158.630575 352.984932 
L 164.488964 353.2239 
L 205.497689 353.209562 
L 228.931246 353.212748 
L 234.789635 352.976967 
L 240.648024 353.2239 
L 246.506414 353.110789 
L 252.364803 353.2239 
L 258.223192 353.163361 
L 269.939971 353.2239 
L 334.382253 353.2239 
L 357.81581 353.217357 
L 363.674199 353.031917 
L 369.532588 353.2239 
L 592.15138 353.2239 
L 598.009769 353.016516 
L 603.868159 353.219848 
L 644.876883 353.21966 
L 650.735273 352.822698 
L 656.593662 353.215306 
L 662.452051 353.040053 
L 668.31044 353.219545 
L 721.035944 353.18913 
L 726.894333 353.109508 
L 732.752722 353.2239 
L 814.770172 353.21607 
L 820.628561 352.966105 
L 826.486951 353.2239 
L 931.937957 353.2239 
L 937.796346 353.108928 
L 943.654736 353.2239 
L 949.513125 353.2239 
L 949.513125 353.2239 
" style="fill:none;stroke:#f15c80;stroke-linecap:square;"/>
   </g>
   <g id="line2d_73">
    <path clip-path="url(#pbadccd81e9)" d="M 76.613125 329.608417 
L 82.471514 353.052325 
L 88.329904 353.221905 
L 94.188293 353.082251 
L 100.046682 353.2239 
L 152.772185 353.170033 
L 158.630575 353.060305 
L 164.488964 353.2239 
L 228.931246 353.2239 
L 234.789635 353.056315 
L 240.648024 353.2239 
L 246.506414 353.148088 
L 258.223192 353.191979 
L 281.656749 353.2239 
L 357.81581 353.219833 
L 363.674199 353.099585 
L 369.532588 353.2239 
L 592.15138 353.2239 
L 598.009769 353.018747 
L 603.868159 353.2239 
L 644.876883 353.219142 
L 650.735273 352.781942 
L 656.593662 353.2239 
L 662.452051 352.997463 
L 668.31044 353.214225 
L 715.177555 353.196358 
L 773.761447 353.2239 
L 814.770172 353.218477 
L 820.628561 352.951384 
L 826.486951 353.221161 
L 931.937957 353.2239 
L 937.796346 353.127017 
L 949.513125 353.2239 
L 949.513125 353.2239 
" style="fill:none;stroke:#e4d354;stroke-linecap:square;"/>
   </g>
   <g id="line2d_74">
    <path clip-path="url(#pbadccd81e9)" d="M 76.613125 329.931091 
L 82.471514 353.036666 
L 88.329904 353.2239 
L 94.188293 353.092331 
L 100.046682 353.2239 
L 152.772185 353.149681 
L 158.630575 353.055221 
L 164.488964 353.2239 
L 228.931246 353.217153 
L 234.789635 353.046787 
L 240.648024 353.2239 
L 246.506414 353.12944 
L 252.364803 353.2239 
L 264.081581 353.2239 
L 357.81581 353.220459 
L 363.674199 353.104931 
L 369.532588 353.2239 
L 592.15138 353.2239 
L 598.009769 353.014232 
L 603.868159 353.2239 
L 644.876883 353.2239 
L 650.735273 352.853769 
L 656.593662 353.217773 
L 662.452051 353.035194 
L 668.31044 353.213598 
L 715.177555 353.198269 
L 744.469501 353.171415 
L 762.044669 353.2239 
L 814.770172 353.214612 
L 820.628561 352.988128 
L 826.486951 353.221553 
L 931.937957 353.2239 
L 937.796346 353.121145 
L 949.513125 353.2239 
L 949.513125 353.2239 
" style="fill:none;stroke:#2b908f;stroke-linecap:square;"/>
   </g>
   <g id="line2d_75">
    <path clip-path="url(#pbadccd81e9)" d="M 76.613125 329.256553 
L 82.471514 353.004519 
L 88.329904 353.2239 
L 94.188293 353.02489 
L 100.046682 353.2239 
L 152.772185 353.153385 
L 158.630575 352.982581 
L 164.488964 353.2239 
L 223.072857 353.222333 
L 228.931246 353.217632 
L 234.789635 352.979447 
L 240.648024 353.2239 
L 246.506414 353.125179 
L 252.364803 353.2239 
L 264.081581 353.2239 
L 357.81581 353.222295 
L 363.674199 353.037227 
L 369.532588 353.2239 
L 592.15138 353.2239 
L 598.009769 352.943646 
L 603.868159 353.2239 
L 644.876883 353.221892 
L 650.735273 352.755408 
L 656.593662 353.215776 
L 662.452051 352.980765 
L 668.31044 353.217734 
L 721.035944 353.202188 
L 726.894333 353.070962 
L 732.752722 353.2239 
L 814.770172 353.204605 
L 820.628561 352.913037 
L 826.486951 353.221454 
L 931.937957 353.2239 
L 937.796346 353.065986 
L 943.654736 353.2239 
L 949.513125 353.2239 
L 949.513125 353.2239 
" style="fill:none;stroke:#f45b5b;stroke-linecap:square;"/>
   </g>
   <g id="line2d_76">
    <path clip-path="url(#pbadccd81e9)" d="M 76.613125 330.204416 
L 82.471514 353.02882 
L 88.329904 353.2239 
L 94.188293 353.0565 
L 100.046682 353.2239 
L 152.772185 353.171176 
L 158.630575 353.026184 
L 164.488964 353.2239 
L 228.931246 353.222582 
L 234.789635 353.020911 
L 240.648024 353.222582 
L 246.506414 353.143495 
L 258.223192 353.193583 
L 281.656749 353.2239 
L 357.81581 353.219881 
L 363.674199 353.078951 
L 369.532588 353.2239 
L 592.15138 353.2239 
L 598.009769 353.024537 
L 603.868159 353.220844 
L 644.876883 353.220755 
L 650.735273 352.862344 
L 656.593662 353.215973 
L 662.452051 353.016907 
L 668.31044 353.212706 
L 715.177555 353.208994 
L 803.053393 353.207905 
L 814.770172 353.218514 
L 820.628561 352.985731 
L 826.486951 353.2239 
L 949.513125 353.2239 
L 949.513125 353.2239 
" style="fill:none;stroke:#91e8e1;stroke-linecap:square;"/>
   </g>
   <g id="line2d_77">
    <path clip-path="url(#pbadccd81e9)" d="M 76.613125 328.161853 
L 82.471514 353.011923 
L 88.329904 353.2239 
L 94.188293 352.98366 
L 100.046682 353.2239 
L 152.772185 353.127547 
L 158.630575 352.942549 
L 164.488964 353.2239 
L 205.497689 353.214907 
L 228.931246 353.213622 
L 234.789635 352.932272 
L 240.648024 353.2239 
L 246.506414 353.109561 
L 252.364803 353.2239 
L 258.223192 353.15838 
L 269.939971 353.2239 
L 369.532588 353.2239 
L 592.15138 353.2239 
L 598.009769 353.006733 
L 603.868159 353.222244 
L 644.876883 353.218685 
L 650.735273 352.836995 
L 656.593662 353.21861 
L 662.452051 352.97882 
L 668.31044 353.216745 
L 721.035944 353.185672 
L 726.894333 353.081375 
L 732.752722 353.2239 
L 814.770172 353.210889 
L 820.628561 353.00746 
L 826.486951 353.2239 
L 949.513125 353.2239 
L 949.513125 353.2239 
" style="fill:none;stroke:#7cb5ec;stroke-linecap:square;"/>
   </g>
   <g id="line2d_78">
    <path clip-path="url(#pbadccd81e9)" d="M 76.613125 328.696866 
L 82.471514 352.936669 
L 88.329904 353.2239 
L 94.188293 352.976632 
L 100.046682 353.2239 
L 146.913796 353.2239 
L 158.630575 352.926678 
L 164.488964 353.2239 
L 182.064132 353.221402 
L 187.922521 353.2239 
L 193.78091 353.109007 
L 199.639299 353.2239 
L 228.931246 353.216407 
L 234.789635 352.909194 
L 240.648024 353.2239 
L 246.506414 353.061552 
L 252.364803 353.2239 
L 258.223192 353.133984 
L 269.939971 353.2239 
L 357.81581 353.210975 
L 363.674199 353.016356 
L 369.532588 353.2239 
L 592.15138 353.2239 
L 598.009769 352.989001 
L 603.868159 353.2239 
L 644.876883 353.220497 
L 650.735273 352.836605 
L 656.593662 353.220447 
L 662.452051 352.96301 
L 668.31044 353.206378 
L 697.602387 353.2239 
L 703.460776 353.165226 
L 715.177555 353.179209 
L 820.628561 352.999249 
L 826.486951 353.2239 
L 931.937957 353.2239 
L 937.796346 353.086988 
L 943.654736 353.2239 
L 949.513125 353.2239 
L 949.513125 353.2239 
" style="fill:none;stroke:#434348;stroke-linecap:square;"/>
   </g>
   <g id="line2d_79">
    <path clip-path="url(#pbadccd81e9)" d="M 76.613125 329.092227 
L 82.471514 352.986292 
L 88.329904 353.2239 
L 94.188293 353.01294 
L 100.046682 353.2239 
L 152.772185 353.123972 
L 158.630575 352.966306 
L 164.488964 353.2239 
L 228.931246 353.206135 
L 234.789635 352.939659 
L 240.648024 353.2239 
L 246.506414 353.084 
L 252.364803 353.2239 
L 258.223192 353.155061 
L 269.939971 353.2239 
L 357.81581 353.217034 
L 363.674199 353.026446 
L 369.532588 353.2239 
L 592.15138 353.2239 
L 598.009769 352.996514 
L 603.868159 353.2239 
L 644.876883 353.220895 
L 650.735273 352.854653 
L 656.593662 353.220852 
L 662.452051 353.030484 
L 668.31044 353.217715 
L 721.035944 353.204044 
L 726.894333 353.11051 
L 732.752722 353.2239 
L 814.770172 353.212602 
L 820.628561 352.996014 
L 826.486951 353.2239 
L 949.513125 353.2239 
L 949.513125 353.2239 
" style="fill:none;stroke:#90ed7d;stroke-linecap:square;"/>
   </g>
   <g id="line2d_80">
    <path clip-path="url(#pbadccd81e9)" d="M 76.613125 331.069734 
L 82.471514 353.02671 
L 88.329904 353.2239 
L 94.188293 353.08931 
L 100.046682 353.2239 
L 152.772185 353.15817 
L 158.630575 353.07679 
L 164.488964 353.2239 
L 264.081581 353.2239 
L 592.15138 353.2239 
L 598.009769 353.003093 
L 603.868159 353.2239 
L 644.876883 353.2239 
L 650.735273 352.847824 
L 656.593662 353.216345 
L 662.452051 353.037988 
L 668.31044 353.208654 
L 697.602387 353.2239 
L 715.177555 353.184325 
L 814.770172 353.193666 
L 820.628561 352.980679 
L 826.486951 353.2239 
L 949.513125 353.2239 
L 949.513125 353.2239 
" style="fill:none;stroke:#f7a35c;stroke-linecap:square;"/>
   </g>
   <g id="line2d_81">
    <path clip-path="url(#pbadccd81e9)" d="M 76.613125 329.178015 
L 82.471514 352.964188 
L 88.329904 353.2239 
L 94.188293 352.970046 
L 100.046682 353.2239 
L 146.913796 353.2239 
L 158.630575 352.915369 
L 164.488964 353.2239 
L 193.78091 353.114547 
L 199.639299 353.2239 
L 228.931246 353.221947 
L 234.789635 352.9017 
L 240.648024 353.221947 
L 246.506414 353.061823 
L 252.364803 353.219995 
L 258.223192 353.145791 
L 269.939971 353.2239 
L 357.81581 353.213804 
L 363.674199 352.988791 
L 369.532588 353.2239 
L 592.15138 353.2239 
L 598.009769 352.981038 
L 603.868159 353.2239 
L 644.876883 353.221187 
L 650.735273 352.846581 
L 656.593662 353.221145 
L 662.452051 352.968428 
L 668.31044 353.204309 
L 697.602387 353.2239 
L 726.894333 353.081378 
L 732.752722 353.2239 
L 814.770172 353.199726 
L 820.628561 352.979972 
L 826.486951 353.2239 
L 931.937957 353.2239 
L 937.796346 353.090403 
L 943.654736 353.2239 
L 949.513125 353.2239 
L 949.513125 353.2239 
" style="fill:none;stroke:#8085e9;stroke-linecap:square;"/>
   </g>
   <g id="line2d_82">
    <path clip-path="url(#pbadccd81e9)" d="M 76.613125 329.891154 
L 82.471514 353.046599 
L 88.329904 353.2239 
L 94.188293 353.046599 
L 100.046682 353.2239 
L 152.772185 353.183712 
L 158.630575 353.015867 
L 164.488964 353.2239 
L 205.497689 353.2239 
L 228.931246 353.221536 
L 234.789635 352.999319 
L 240.648024 353.2239 
L 246.506414 353.15298 
L 258.223192 353.197896 
L 287.515138 353.2239 
L 357.81581 353.219065 
L 363.674199 353.068807 
L 369.532588 353.2239 
L 592.15138 353.2239 
L 598.009769 352.999646 
L 603.868159 353.2239 
L 644.876883 353.2239 
L 650.735273 352.799284 
L 656.593662 353.220915 
L 662.452051 352.986828 
L 668.31044 353.220883 
L 721.035944 353.1922 
L 726.894333 353.083621 
L 732.752722 353.2239 
L 814.770172 353.22041 
L 820.628561 352.946397 
L 826.486951 353.220365 
L 931.937957 353.2239 
L 937.796346 353.10447 
L 943.654736 353.2239 
L 949.513125 353.2239 
L 949.513125 353.2239 
" style="fill:none;stroke:#f15c80;stroke-linecap:square;"/>
   </g>
   <g id="line2d_83">
    <path clip-path="url(#pbadccd81e9)" d="M 76.613125 330.733006 
L 82.471514 353.076355 
L 88.329904 353.2239 
L 94.188293 353.100201 
L 100.046682 353.2239 
L 152.772185 353.194093 
L 158.630575 353.070394 
L 164.488964 353.2239 
L 305.090306 353.208961 
L 351.95742 353.2239 
L 357.81581 353.220895 
L 363.674199 353.106627 
L 369.532588 353.2239 
L 592.15138 353.2239 
L 598.009769 353.05455 
L 603.868159 353.222266 
L 644.876883 353.222222 
L 650.735273 352.893754 
L 656.593662 353.220518 
L 662.452051 353.033711 
L 668.31044 353.222195 
L 721.035944 353.195513 
L 726.894333 353.108034 
L 732.752722 353.2239 
L 814.770172 353.214295 
L 820.628561 353.011448 
L 826.486951 353.2239 
L 949.513125 353.2239 
L 949.513125 353.2239 
" style="fill:none;stroke:#e4d354;stroke-linecap:square;"/>
   </g>
   <g id="line2d_84">
    <path clip-path="url(#pbadccd81e9)" d="M 76.613125 328.276767 
L 82.471514 352.93439 
L 88.329904 353.2239 
L 94.188293 352.900511 
L 100.046682 353.2239 
L 146.913796 353.2239 
L 152.772185 353.100705 
L 158.630575 352.854313 
L 164.488964 353.2239 
L 205.497689 353.21774 
L 228.931246 353.22082 
L 234.789635 352.841994 
L 240.648024 353.2239 
L 246.506414 353.066826 
L 252.364803 353.2239 
L 258.223192 353.140743 
L 269.939971 353.2239 
L 357.81581 353.217509 
L 363.674199 352.94152 
L 369.532588 353.2239 
L 592.15138 353.2239 
L 598.009769 352.968781 
L 603.868159 353.2239 
L 644.876883 353.2239 
L 650.735273 352.827739 
L 656.593662 353.21936 
L 662.452051 352.967488 
L 668.31044 353.219283 
L 721.035944 353.183925 
L 726.894333 353.082724 
L 732.752722 353.2239 
L 814.770172 353.206519 
L 820.628561 352.931435 
L 826.486951 353.2239 
L 931.937957 353.2239 
L 937.796346 353.087342 
L 943.654736 353.2239 
L 949.513125 353.2239 
L 949.513125 353.2239 
" style="fill:none;stroke:#2b908f;stroke-linecap:square;"/>
   </g>
   <g id="line2d_85">
    <path clip-path="url(#pbadccd81e9)" d="M 76.613125 332.177789 
L 82.471514 353.107742 
L 88.329904 353.2239 
L 94.188293 353.132633 
L 105.905071 353.2239 
L 228.931246 353.2239 
L 234.789635 353.104424 
L 240.648024 353.2239 
L 252.364803 353.2239 
L 305.090306 353.220576 
L 469.125206 353.2239 
L 492.558763 353.2239 
L 592.15138 353.2239 
L 598.009769 353.016298 
L 603.868159 353.2239 
L 644.876883 353.2239 
L 650.735273 352.851867 
L 656.593662 353.218494 
L 662.452051 353.026979 
L 668.31044 353.222089 
L 721.035944 353.190455 
L 726.894333 353.104638 
L 732.752722 353.2239 
L 814.770172 353.218035 
L 820.628561 352.976691 
L 826.486951 353.221931 
L 931.937957 353.2239 
L 937.796346 353.124646 
L 949.513125 353.2239 
L 949.513125 353.2239 
" style="fill:none;stroke:#f45b5b;stroke-linecap:square;"/>
   </g>
   <g id="line2d_86">
    <path clip-path="url(#pbadccd81e9)" d="M 76.613125 330.930146 
L 82.471514 353.018598 
L 88.329904 353.2239 
L 94.188293 353.100192 
L 100.046682 353.2239 
L 152.772185 353.171258 
L 158.630575 353.068607 
L 164.488964 353.2239 
L 287.515138 353.2239 
L 592.15138 353.2239 
L 598.009769 352.976834 
L 603.868159 353.2239 
L 644.876883 353.2239 
L 650.735273 352.804667 
L 656.593662 353.220851 
L 662.452051 353.076984 
L 668.31044 353.220828 
L 721.035944 353.20162 
L 726.894333 353.134416 
L 738.611112 353.2239 
L 750.32789 353.2239 
L 814.770172 353.206852 
L 820.628561 352.953331 
L 826.486951 353.2239 
L 931.937957 353.2239 
L 937.796346 353.059485 
L 943.654736 353.219654 
L 949.513125 353.2239 
L 949.513125 353.2239 
" style="fill:none;stroke:#91e8e1;stroke-linecap:square;"/>
   </g>
   <g id="line2d_87">
    <path clip-path="url(#pbadccd81e9)" d="M 76.613125 330.510619 
L 82.471514 353.019744 
L 88.329904 353.2239 
L 94.188293 353.059142 
L 100.046682 353.2239 
L 152.772185 353.13973 
L 158.630575 353.017953 
L 164.488964 353.2239 
L 234.789635 353.014371 
L 240.648024 353.2239 
L 246.506414 353.121822 
L 252.364803 353.2239 
L 258.223192 353.164802 
L 269.939971 353.2239 
L 445.691648 353.214339 
L 515.99232 353.2239 
L 592.15138 353.2239 
L 598.009769 353.000344 
L 603.868159 353.221739 
L 644.876883 353.2239 
L 650.735273 352.816128 
L 656.593662 353.217105 
L 662.452051 352.987072 
L 668.31044 353.22161 
L 721.035944 353.197409 
L 726.894333 353.06161 
L 732.752722 353.2239 
L 814.770172 353.213293 
L 820.628561 352.957061 
L 826.486951 353.2239 
L 931.937957 353.2239 
L 937.796346 353.078327 
L 943.654736 353.2239 
L 949.513125 353.2239 
L 949.513125 353.2239 
" style="fill:none;stroke:#7cb5ec;stroke-linecap:square;"/>
   </g>
   <g id="line2d_88">
    <path clip-path="url(#pbadccd81e9)" d="M 76.613125 331.679088 
L 82.471514 353.111379 
L 88.329904 353.2239 
L 94.188293 353.144938 
L 105.905071 353.221926 
L 152.772185 353.208108 
L 158.630575 353.125197 
L 170.347353 353.221926 
L 228.931246 353.2239 
L 234.789635 353.125197 
L 240.648024 353.2239 
L 246.506414 353.166652 
L 258.223192 353.216004 
L 346.099031 353.2239 
L 592.15138 353.2239 
L 598.009769 353.019767 
L 603.868159 353.2239 
L 644.876883 353.221752 
L 650.735273 352.887909 
L 656.593662 353.219581 
L 662.452051 353.039814 
L 668.31044 353.215213 
L 721.035944 353.18597 
L 726.894333 353.096336 
L 732.752722 353.2239 
L 814.770172 353.209774 
L 820.628561 353.013592 
L 826.486951 353.221528 
L 931.937957 353.2239 
L 937.796346 353.120419 
L 949.513125 353.2239 
L 949.513125 353.2239 
" style="fill:none;stroke:#434348;stroke-linecap:square;"/>
   </g>
   <g id="line2d_89">
    <path clip-path="url(#pbadccd81e9)" d="M 76.613125 332.447108 
L 82.471514 353.050015 
L 88.329904 353.2239 
L 100.046682 353.2239 
L 592.15138 353.2239 
L 598.009769 352.991649 
L 603.868159 353.2239 
L 644.876883 353.2239 
L 650.735273 352.825898 
L 656.593662 353.2239 
L 662.452051 353.051036 
L 668.31044 353.2239 
L 721.035944 353.190726 
L 726.894333 353.101978 
L 732.752722 353.2239 
L 814.770172 353.218139 
L 820.628561 352.98705 
L 826.486951 353.2239 
L 949.513125 353.2239 
L 949.513125 353.2239 
" style="fill:none;stroke:#90ed7d;stroke-linecap:square;"/>
   </g>
   <g id="line2d_90">
    <path clip-path="url(#pbadccd81e9)" d="M 76.613125 327.743153 
L 82.471514 352.989007 
L 88.329904 353.2239 
L 94.188293 352.866455 
L 100.046682 353.2239 
L 146.913796 353.2239 
L 152.772185 353.101348 
L 158.630575 352.825604 
L 164.488964 353.2239 
L 193.78091 353.11156 
L 199.639299 353.2239 
L 211.356078 353.2239 
L 228.931246 353.203475 
L 234.789635 352.794966 
L 240.648024 353.2239 
L 246.506414 353.080922 
L 252.364803 353.2239 
L 258.223192 353.142198 
L 269.939971 353.2239 
L 305.090306 353.203384 
L 340.240642 353.2239 
L 357.81581 353.213471 
L 363.674199 352.899693 
L 369.532588 353.2239 
L 592.15138 353.2239 
L 598.009769 353.058505 
L 603.868159 353.209978 
L 615.584937 353.2239 
L 621.443326 353.137776 
L 633.160105 353.2239 
L 644.876883 353.2239 
L 650.735273 352.951739 
L 656.593662 353.2239 
L 662.452051 352.945988 
L 668.31044 353.2239 
L 721.035944 353.189556 
L 726.894333 353.050312 
L 732.752722 353.2239 
L 814.770172 353.2239 
L 820.628561 353.017174 
L 826.486951 353.2239 
L 931.937957 353.2239 
L 937.796346 353.087124 
L 943.654736 353.2239 
L 949.513125 353.2239 
L 949.513125 353.2239 
" style="fill:none;stroke:#f7a35c;stroke-linecap:square;"/>
   </g>
   <g id="line2d_91">
    <path clip-path="url(#pbadccd81e9)" d="M 76.613125 327.286678 
L 82.471514 353.009115 
L 88.329904 353.2239 
L 94.188293 352.962368 
L 100.046682 353.2239 
L 152.772185 353.141776 
L 158.630575 352.921937 
L 164.488964 353.2239 
L 205.497689 353.207475 
L 228.931246 353.213792 
L 234.789635 352.91562 
L 240.648024 353.2239 
L 246.506414 353.115244 
L 252.364803 353.2239 
L 264.081581 353.2239 
L 357.81581 353.216149 
L 363.674199 352.981604 
L 369.532588 353.2239 
L 592.15138 353.2239 
L 598.009769 352.976495 
L 603.868159 353.2239 
L 644.876883 353.220282 
L 650.735273 352.813012 
L 656.593662 353.216527 
L 662.452051 352.998781 
L 668.31044 353.216387 
L 715.177555 353.197546 
L 732.752722 353.221812 
L 814.770172 353.204658 
L 820.628561 352.988141 
L 826.486951 353.221444 
L 931.937957 353.2239 
L 937.796346 353.083871 
L 943.654736 353.2239 
L 949.513125 353.2239 
L 949.513125 353.2239 
" style="fill:none;stroke:#8085e9;stroke-linecap:square;"/>
   </g>
   <g id="line2d_92">
    <path clip-path="url(#pbadccd81e9)" d="M 76.613125 329.612041 
L 82.471514 353.001121 
L 88.329904 353.2239 
L 94.188293 353.052003 
L 100.046682 353.2239 
L 152.772185 353.14964 
L 158.630575 353.020374 
L 164.488964 353.2239 
L 217.214467 353.22115 
L 228.931246 353.22115 
L 234.789635 353.010747 
L 240.648024 353.2239 
L 246.506414 353.111135 
L 252.364803 353.2239 
L 258.223192 353.164767 
L 269.939971 353.2239 
L 346.099031 353.2239 
L 357.81581 353.216876 
L 363.674199 353.066168 
L 369.532588 353.2239 
L 592.15138 353.2239 
L 598.009769 353.019714 
L 603.868159 353.2239 
L 644.876883 353.218763 
L 650.735273 352.836723 
L 656.593662 353.2239 
L 662.452051 353.025739 
L 668.31044 353.220405 
L 721.035944 353.200082 
L 726.894333 353.085738 
L 732.752722 353.2239 
L 814.770172 353.215874 
L 820.628561 352.991752 
L 826.486951 353.219838 
L 931.937957 353.2239 
L 937.796346 353.111961 
L 949.513125 353.2239 
L 949.513125 353.2239 
" style="fill:none;stroke:#f15c80;stroke-linecap:square;"/>
   </g>
   <g id="line2d_93">
    <path clip-path="url(#pbadccd81e9)" d="M 76.613125 328.406752 
L 82.471514 353.021766 
L 88.329904 353.220883 
L 94.188293 353.035343 
L 100.046682 353.2239 
L 152.772185 353.139426 
L 158.630575 352.997631 
L 164.488964 353.2239 
L 211.356078 353.2239 
L 228.931246 353.211832 
L 234.789635 352.994615 
L 240.648024 353.222392 
L 246.506414 353.112274 
L 252.364803 353.222392 
L 258.223192 353.16507 
L 269.939971 353.2239 
L 410.541313 353.2239 
L 592.15138 353.2239 
L 598.009769 353.010545 
L 603.868159 353.2239 
L 644.876883 353.221978 
L 650.735273 352.84317 
L 656.593662 353.221956 
L 662.452051 353.006928 
L 668.31044 353.218002 
L 721.035944 353.190715 
L 726.894333 353.096612 
L 732.752722 353.2239 
L 814.770172 353.207807 
L 820.628561 352.971579 
L 826.486951 353.2239 
L 949.513125 353.2239 
L 949.513125 353.2239 
" style="fill:none;stroke:#e4d354;stroke-linecap:square;"/>
   </g>
   <g id="line2d_94">
    <path clip-path="url(#pbadccd81e9)" d="M 76.613125 328.486753 
L 82.471514 353.027573 
L 88.329904 353.2239 
L 94.188293 353.014849 
L 100.046682 353.2239 
L 152.772185 353.158458 
L 158.630575 352.978492 
L 164.488964 353.2239 
L 205.497689 353.222082 
L 228.931246 353.220264 
L 234.789635 352.967585 
L 240.648024 353.222082 
L 246.506414 353.138461 
L 252.364803 353.222082 
L 264.081581 353.2239 
L 357.81581 353.212793 
L 363.674199 353.025339 
L 369.532588 353.2239 
L 592.15138 353.2239 
L 598.009769 352.998353 
L 603.868159 353.2239 
L 644.876883 353.221586 
L 650.735273 352.814165 
L 656.593662 353.221558 
L 662.452051 353.023653 
L 668.31044 353.21916 
L 721.035944 353.198851 
L 726.894333 353.080219 
L 732.752722 353.2239 
L 814.770172 353.21276 
L 820.628561 352.943452 
L 826.486951 353.221076 
L 931.937957 353.2239 
L 937.796346 353.076207 
L 943.654736 353.2239 
L 949.513125 353.2239 
L 949.513125 353.2239 
" style="fill:none;stroke:#2b908f;stroke-linecap:square;"/>
   </g>
   <g id="line2d_95">
    <path clip-path="url(#pbadccd81e9)" d="M 76.613125 328.998936 
L 82.471514 353.058139 
L 88.329904 353.2239 
L 94.188293 353.067679 
L 100.046682 353.2239 
L 152.772185 353.172621 
L 158.630575 353.035481 
L 164.488964 353.2239 
L 217.214467 353.222707 
L 228.931246 353.222707 
L 234.789635 353.018786 
L 240.648024 353.222707 
L 246.506414 353.142808 
L 252.364803 353.222707 
L 264.081581 353.2239 
L 357.81581 353.219058 
L 363.674199 353.075929 
L 369.532588 353.2239 
L 592.15138 353.2239 
L 598.009769 353.02345 
L 603.868159 353.2239 
L 644.876883 353.222439 
L 650.735273 352.828665 
L 656.593662 353.220946 
L 662.452051 353.023389 
L 668.31044 353.21942 
L 721.035944 353.19403 
L 726.894333 353.114784 
L 738.611112 353.2239 
L 750.32789 353.2239 
L 814.770172 353.211752 
L 820.628561 352.988085 
L 826.486951 353.218625 
L 931.937957 353.2239 
L 937.796346 353.106879 
L 943.654736 353.2239 
L 949.513125 353.2239 
L 949.513125 353.2239 
" style="fill:none;stroke:#f45b5b;stroke-linecap:square;"/>
   </g>
   <g id="line2d_96">
    <path clip-path="url(#pbadccd81e9)" d="M 76.613125 329.237284 
L 82.471514 353.046789 
L 88.329904 353.2239 
L 94.188293 353.042002 
L 100.046682 353.2239 
L 152.772185 353.180819 
L 158.630575 352.99892 
L 164.488964 353.2239 
L 228.931246 353.217518 
L 234.789635 352.994134 
L 240.648024 353.2239 
L 246.506414 353.15529 
L 258.223192 353.19837 
L 287.515138 353.2239 
L 357.81581 353.217434 
L 363.674199 353.053851 
L 369.532588 353.2239 
L 592.15138 353.2239 
L 598.009769 353.007966 
L 603.868159 353.218187 
L 644.876883 353.21994 
L 650.735273 352.827685 
L 656.593662 353.2239 
L 662.452051 353.026507 
L 668.31044 353.217822 
L 721.035944 353.183251 
L 726.894333 353.099028 
L 732.752722 353.2239 
L 814.770172 353.21439 
L 820.628561 352.974902 
L 826.486951 353.221489 
L 931.937957 353.2239 
L 937.796346 353.106519 
L 943.654736 353.2239 
L 949.513125 353.2239 
L 949.513125 353.2239 
" style="fill:none;stroke:#91e8e1;stroke-linecap:square;"/>
   </g>
   <g id="line2d_97">
    <path clip-path="url(#pbadccd81e9)" d="M 76.613125 330.990306 
L 82.471514 353.058215 
L 88.329904 353.2239 
L 94.188293 353.156921 
L 105.905071 353.2239 
L 592.15138 353.2239 
L 598.009769 353.05033 
L 603.868159 353.2239 
L 644.876883 353.2239 
L 650.735273 352.821213 
L 656.593662 353.215983 
L 662.452051 353.025422 
L 668.31044 353.21992 
L 721.035944 353.195322 
L 726.894333 353.105163 
L 732.752722 353.2239 
L 814.770172 353.193857 
L 820.628561 352.991376 
L 826.486951 353.2239 
L 931.937957 353.2239 
L 937.796346 353.095197 
L 943.654736 353.218636 
L 949.513125 353.2239 
L 949.513125 353.2239 
" style="fill:none;stroke:#7cb5ec;stroke-linecap:square;"/>
   </g>
   <g id="line2d_98">
    <path clip-path="url(#pbadccd81e9)" d="M 76.613125 328.690189 
L 82.471514 353.07691 
L 88.329904 353.2239 
L 94.188293 353.048562 
L 100.046682 353.2239 
L 152.772185 353.186103 
L 158.630575 353.013914 
L 164.488964 353.2239 
L 228.931246 353.21655 
L 234.789635 352.998165 
L 240.648024 353.22285 
L 246.506414 353.149355 
L 258.223192 353.205001 
L 293.373528 353.217593 
L 357.81581 353.219663 
L 363.674199 353.066949 
L 369.532588 353.2239 
L 592.15138 353.2239 
L 598.009769 353.032764 
L 603.868159 353.222692 
L 644.876883 353.2239 
L 650.735273 352.861958 
L 656.593662 353.220095 
L 662.452051 352.996891 
L 668.31044 353.213639 
L 715.177555 353.19162 
L 814.770172 353.213398 
L 820.628561 352.991278 
L 826.486951 353.220858 
L 931.937957 353.2239 
L 937.796346 353.107756 
L 943.654736 353.221949 
L 949.513125 353.2239 
L 949.513125 353.2239 
" style="fill:none;stroke:#434348;stroke-linecap:square;"/>
   </g>
   <g id="line2d_99">
    <path clip-path="url(#pbadccd81e9)" d="M 76.613125 328.588248 
L 82.471514 352.975554 
L 88.329904 353.2239 
L 94.188293 352.957601 
L 100.046682 353.2239 
L 146.913796 353.2239 
L 158.630575 352.920199 
L 164.488964 353.2239 
L 228.931246 353.219412 
L 234.789635 352.915711 
L 240.648024 353.2239 
L 246.506414 353.071301 
L 252.364803 353.2239 
L 258.223192 353.149097 
L 269.939971 353.2239 
L 328.523863 353.2239 
L 357.81581 353.219277 
L 363.674199 352.978069 
L 369.532588 353.2239 
L 592.15138 353.2239 
L 598.009769 353.015851 
L 603.868159 353.2239 
L 644.876883 353.221886 
L 650.735273 352.869032 
L 656.593662 353.221858 
L 662.452051 352.989473 
L 668.31044 353.221829 
L 721.035944 353.190761 
L 726.894333 353.090354 
L 732.752722 353.2239 
L 814.770172 353.20391 
L 820.628561 352.992152 
L 826.486951 353.2239 
L 931.937957 353.2239 
L 937.796346 353.109973 
L 943.654736 353.2239 
L 949.513125 353.2239 
L 949.513125 353.2239 
" style="fill:none;stroke:#90ed7d;stroke-linecap:square;"/>
   </g>
   <g id="line2d_100">
    <path clip-path="url(#pbadccd81e9)" d="M 76.613125 330.633355 
L 82.471514 353.103015 
L 88.329904 353.2239 
L 94.188293 353.11797 
L 105.905071 353.2239 
L 152.772185 353.212684 
L 158.630575 353.089306 
L 164.488964 353.2239 
L 422.258091 353.2239 
L 592.15138 353.2239 
L 598.009769 353.005099 
L 603.868159 353.2239 
L 644.876883 353.221142 
L 650.735273 352.826745 
L 656.593662 353.222511 
L 662.452051 353.044068 
L 668.31044 353.214106 
L 721.035944 353.192007 
L 726.894333 353.119096 
L 738.611112 353.2239 
L 744.469501 353.160517 
L 756.186279 353.2239 
L 814.770172 353.200572 
L 820.628561 352.987972 
L 826.486951 353.2239 
L 931.937957 353.2239 
L 937.796346 353.097246 
L 943.654736 353.220011 
L 949.513125 353.2239 
L 949.513125 353.2239 
" style="fill:none;stroke:#f7a35c;stroke-linecap:square;"/>
   </g>
   <g id="line2d_101">
    <path clip-path="url(#pbadccd81e9)" d="M 76.613125 329.428828 
L 82.471514 353.056716 
L 88.329904 353.2239 
L 94.188293 353.063065 
L 100.046682 353.2239 
L 152.772185 353.162529 
L 158.630575 353.035554 
L 164.488964 353.2239 
L 193.78091 353.170994 
L 211.356078 353.2239 
L 228.931246 353.215435 
L 234.789635 353.024973 
L 240.648024 353.2239 
L 246.506414 353.135018 
L 252.364803 353.2239 
L 264.081581 353.2239 
L 357.81581 353.213111 
L 363.674199 353.079039 
L 369.532588 353.2239 
L 592.15138 353.2239 
L 598.009769 353.02567 
L 603.868159 353.2239 
L 644.876883 353.221326 
L 650.735273 352.869579 
L 656.593662 353.221301 
L 662.452051 353.048897 
L 668.31044 353.21865 
L 721.035944 353.190891 
L 726.894333 353.127104 
L 738.611112 353.2239 
L 756.186279 353.2239 
L 814.770172 353.211862 
L 820.628561 353.00593 
L 826.486951 353.220854 
L 931.937957 353.2239 
L 937.796346 353.121947 
L 949.513125 353.2239 
L 949.513125 353.2239 
" style="fill:none;stroke:#8085e9;stroke-linecap:square;"/>
   </g>
   <g id="line2d_102">
    <path clip-path="url(#pbadccd81e9)" d="M 32.968125 353.2239 
L 993.158125 353.2239 
" style="fill:none;stroke:#dedede;stroke-linecap:square;stroke-width:2;"/>
   </g>
   <g id="text_17">
    <!-- Fastp: Read N Content -->
    <defs>
     <path d="M 9.8125 72.90625 
L 51.703125 72.90625 
L 51.703125 64.59375 
L 19.671875 64.59375 
L 19.671875 43.109375 
L 48.578125 43.109375 
L 48.578125 34.8125 
L 19.671875 34.8125 
L 19.671875 0 
L 9.8125 0 
z
" id="DejaVuSans-70"/>
     <path d="M 18.109375 8.203125 
L 18.109375 -20.796875 
L 9.078125 -20.796875 
L 9.078125 54.6875 
L 18.109375 54.6875 
L 18.109375 46.390625 
Q 20.953125 51.265625 25.265625 53.625 
Q 29.59375 56 35.59375 56 
Q 45.5625 56 51.78125 48.09375 
Q 58.015625 40.1875 58.015625 27.296875 
Q 58.015625 14.40625 51.78125 6.484375 
Q 45.5625 -1.421875 35.59375 -1.421875 
Q 29.59375 -1.421875 25.265625 0.953125 
Q 20.953125 3.328125 18.109375 8.203125 
z
M 48.6875 27.296875 
Q 48.6875 37.203125 44.609375 42.84375 
Q 40.53125 48.484375 33.40625 48.484375 
Q 26.265625 48.484375 22.1875 42.84375 
Q 18.109375 37.203125 18.109375 27.296875 
Q 18.109375 17.390625 22.1875 11.75 
Q 26.265625 6.109375 33.40625 6.109375 
Q 40.53125 6.109375 44.609375 11.75 
Q 48.6875 17.390625 48.6875 27.296875 
z
" id="DejaVuSans-112"/>
     <path d="M 9.8125 72.90625 
L 23.09375 72.90625 
L 55.421875 11.921875 
L 55.421875 72.90625 
L 64.984375 72.90625 
L 64.984375 0 
L 51.703125 0 
L 19.390625 60.984375 
L 19.390625 0 
L 9.8125 0 
z
" id="DejaVuSans-78"/>
    </defs>
    <g transform="translate(422.606875 19.3575)scale(0.16 -0.16)">
     <use xlink:href="#DejaVuSans-70"/>
     <use x="57.378906" xlink:href="#DejaVuSans-97"/>
     <use x="118.658203" xlink:href="#DejaVuSans-115"/>
     <use x="170.757812" xlink:href="#DejaVuSans-116"/>
     <use x="209.966797" xlink:href="#DejaVuSans-112"/>
     <use x="273.443359" xlink:href="#DejaVuSans-58"/>
     <use x="307.134766" xlink:href="#DejaVuSans-32"/>
     <use x="338.921875" xlink:href="#DejaVuSans-82"/>
     <use x="408.341797" xlink:href="#DejaVuSans-101"/>
     <use x="469.865234" xlink:href="#DejaVuSans-97"/>
     <use x="531.144531" xlink:href="#DejaVuSans-100"/>
     <use x="594.621094" xlink:href="#DejaVuSans-32"/>
     <use x="626.408203" xlink:href="#DejaVuSans-78"/>
     <use x="701.212891" xlink:href="#DejaVuSans-32"/>
     <use x="733" xlink:href="#DejaVuSans-67"/>
     <use x="802.824219" xlink:href="#DejaVuSans-111"/>
     <use x="864.005859" xlink:href="#DejaVuSans-110"/>
     <use x="927.384766" xlink:href="#DejaVuSans-116"/>
     <use x="966.59375" xlink:href="#DejaVuSans-101"/>
     <use x="1028.117188" xlink:href="#DejaVuSans-110"/>
     <use x="1091.496094" xlink:href="#DejaVuSans-116"/>
    </g>
   </g>
  </g>
 </g>
 <defs>
  <clipPath id="pbadccd81e9">
   <rect height="317.968" width="960.19" x="32.968125" y="35.2559"/>
  </clipPath>
 </defs>
</svg>
