<?xml version="1.0" encoding="utf-8" standalone="no"?>
<!DOCTYPE svg PUBLIC "-//W3C//DTD SVG 1.1//EN"
  "http://www.w3.org/Graphics/SVG/1.1/DTD/svg11.dtd">
<!-- Created with matplotlib (https://matplotlib.org/) -->
<svg height="388.844525pt" version="1.1" viewBox="0 0 1000.358125 388.844525" width="1000.358125pt" xmlns="http://www.w3.org/2000/svg" xmlns:xlink="http://www.w3.org/1999/xlink">
 <defs>
  <style type="text/css">
*{stroke-linecap:butt;stroke-linejoin:round;}
  </style>
 </defs>
 <g id="figure_1">
  <g id="axes_1">
   <g id="patch_1">
    <path d="M 32.968125 353.2239 
L 993.158125 353.2239 
L 993.158125 35.2559 
L 32.968125 35.2559 
z
" style="fill:#ffffff;"/>
   </g>
   <g id="matplotlib.axis_1">
    <g id="xtick_1">
     <g id="text_1">
      <!-- 0 -->
      <defs>
       <path d="M 31.78125 66.40625 
Q 24.171875 66.40625 20.328125 58.90625 
Q 16.5 51.421875 16.5 36.375 
Q 16.5 21.390625 20.328125 13.890625 
Q 24.171875 6.390625 31.78125 6.390625 
Q 39.453125 6.390625 43.28125 13.890625 
Q 47.125 21.390625 47.125 36.375 
Q 47.125 51.421875 43.28125 58.90625 
Q 39.453125 66.40625 31.78125 66.40625 
z
M 31.78125 74.21875 
Q 44.046875 74.21875 50.515625 64.515625 
Q 56.984375 54.828125 56.984375 36.375 
Q 56.984375 17.96875 50.515625 8.265625 
Q 44.046875 -1.421875 31.78125 -1.421875 
Q 19.53125 -1.421875 13.0625 8.265625 
Q 6.59375 17.96875 6.59375 36.375 
Q 6.59375 54.828125 13.0625 64.515625 
Q 19.53125 74.21875 31.78125 74.21875 
z
" id="DejaVuSans-48"/>
      </defs>
      <g transform="translate(68.209736 366.30265)scale(0.08 -0.08)">
       <use xlink:href="#DejaVuSans-48"/>
      </g>
     </g>
    </g>
    <g id="xtick_2">
     <g id="text_2">
      <!-- 20 -->
      <defs>
       <path d="M 19.1875 8.296875 
L 53.609375 8.296875 
L 53.609375 0 
L 7.328125 0 
L 7.328125 8.296875 
Q 12.9375 14.109375 22.625 23.890625 
Q 32.328125 33.6875 34.8125 36.53125 
Q 39.546875 41.84375 41.421875 45.53125 
Q 43.3125 49.21875 43.3125 52.78125 
Q 43.3125 58.59375 39.234375 62.25 
Q 35.15625 65.921875 28.609375 65.921875 
Q 23.96875 65.921875 18.8125 64.3125 
Q 13.671875 62.703125 7.8125 59.421875 
L 7.8125 69.390625 
Q 13.765625 71.78125 18.9375 73 
Q 24.125 74.21875 28.421875 74.21875 
Q 39.75 74.21875 46.484375 68.546875 
Q 53.21875 62.890625 53.21875 53.421875 
Q 53.21875 48.921875 51.53125 44.890625 
Q 49.859375 40.875 45.40625 35.40625 
Q 44.1875 33.984375 37.640625 27.21875 
Q 31.109375 20.453125 19.1875 8.296875 
z
" id="DejaVuSans-50"/>
      </defs>
      <g transform="translate(182.832521 366.30265)scale(0.08 -0.08)">
       <use xlink:href="#DejaVuSans-50"/>
       <use x="63.623047" xlink:href="#DejaVuSans-48"/>
      </g>
     </g>
    </g>
    <g id="xtick_3">
     <g id="text_3">
      <!-- 40 -->
      <defs>
       <path d="M 37.796875 64.3125 
L 12.890625 25.390625 
L 37.796875 25.390625 
z
M 35.203125 72.90625 
L 47.609375 72.90625 
L 47.609375 25.390625 
L 58.015625 25.390625 
L 58.015625 17.1875 
L 47.609375 17.1875 
L 47.609375 0 
L 37.796875 0 
L 37.796875 17.1875 
L 4.890625 17.1875 
L 4.890625 26.703125 
z
" id="DejaVuSans-52"/>
      </defs>
      <g transform="translate(300.000306 366.30265)scale(0.08 -0.08)">
       <use xlink:href="#DejaVuSans-52"/>
       <use x="63.623047" xlink:href="#DejaVuSans-48"/>
      </g>
     </g>
    </g>
    <g id="xtick_4">
     <g id="text_4">
      <!-- 60 -->
      <defs>
       <path d="M 33.015625 40.375 
Q 26.375 40.375 22.484375 35.828125 
Q 18.609375 31.296875 18.609375 23.390625 
Q 18.609375 15.53125 22.484375 10.953125 
Q 26.375 6.390625 33.015625 6.390625 
Q 39.65625 6.390625 43.53125 10.953125 
Q 47.40625 15.53125 47.40625 23.390625 
Q 47.40625 31.296875 43.53125 35.828125 
Q 39.65625 40.375 33.015625 40.375 
z
M 52.59375 71.296875 
L 52.59375 62.3125 
Q 48.875 64.0625 45.09375 64.984375 
Q 41.3125 65.921875 37.59375 65.921875 
Q 27.828125 65.921875 22.671875 59.328125 
Q 17.53125 52.734375 16.796875 39.40625 
Q 19.671875 43.65625 24.015625 45.921875 
Q 28.375 48.1875 33.59375 48.1875 
Q 44.578125 48.1875 50.953125 41.515625 
Q 57.328125 34.859375 57.328125 23.390625 
Q 57.328125 12.15625 50.6875 5.359375 
Q 44.046875 -1.421875 33.015625 -1.421875 
Q 20.359375 -1.421875 13.671875 8.265625 
Q 6.984375 17.96875 6.984375 36.375 
Q 6.984375 53.65625 15.1875 63.9375 
Q 23.390625 74.21875 37.203125 74.21875 
Q 40.921875 74.21875 44.703125 73.484375 
Q 48.484375 72.75 52.59375 71.296875 
z
" id="DejaVuSans-54"/>
      </defs>
      <g transform="translate(417.168091 366.30265)scale(0.08 -0.08)">
       <use xlink:href="#DejaVuSans-54"/>
       <use x="63.623047" xlink:href="#DejaVuSans-48"/>
      </g>
     </g>
    </g>
    <g id="xtick_5">
     <g id="text_5">
      <!-- 80 -->
      <defs>
       <path d="M 31.78125 34.625 
Q 24.75 34.625 20.71875 30.859375 
Q 16.703125 27.09375 16.703125 20.515625 
Q 16.703125 13.921875 20.71875 10.15625 
Q 24.75 6.390625 31.78125 6.390625 
Q 38.8125 6.390625 42.859375 10.171875 
Q 46.921875 13.96875 46.921875 20.515625 
Q 46.921875 27.09375 42.890625 30.859375 
Q 38.875 34.625 31.78125 34.625 
z
M 21.921875 38.8125 
Q 15.578125 40.375 12.03125 44.71875 
Q 8.5 49.078125 8.5 55.328125 
Q 8.5 64.0625 14.71875 69.140625 
Q 20.953125 74.21875 31.78125 74.21875 
Q 42.671875 74.21875 48.875 69.140625 
Q 55.078125 64.0625 55.078125 55.328125 
Q 55.078125 49.078125 51.53125 44.71875 
Q 48 40.375 41.703125 38.8125 
Q 48.828125 37.15625 52.796875 32.3125 
Q 56.78125 27.484375 56.78125 20.515625 
Q 56.78125 9.90625 50.3125 4.234375 
Q 43.84375 -1.421875 31.78125 -1.421875 
Q 19.734375 -1.421875 13.25 4.234375 
Q 6.78125 9.90625 6.78125 20.515625 
Q 6.78125 27.484375 10.78125 32.3125 
Q 14.796875 37.15625 21.921875 38.8125 
z
M 18.3125 54.390625 
Q 18.3125 48.734375 21.84375 45.5625 
Q 25.390625 42.390625 31.78125 42.390625 
Q 38.140625 42.390625 41.71875 45.5625 
Q 45.3125 48.734375 45.3125 54.390625 
Q 45.3125 60.0625 41.71875 63.234375 
Q 38.140625 66.40625 31.78125 66.40625 
Q 25.390625 66.40625 21.84375 63.234375 
Q 18.3125 60.0625 18.3125 54.390625 
z
" id="DejaVuSans-56"/>
      </defs>
      <g transform="translate(534.335877 366.30265)scale(0.08 -0.08)">
       <use xlink:href="#DejaVuSans-56"/>
       <use x="63.623047" xlink:href="#DejaVuSans-48"/>
      </g>
     </g>
    </g>
    <g id="xtick_6">
     <g id="text_6">
      <!-- 100 -->
      <defs>
       <path d="M 12.40625 8.296875 
L 28.515625 8.296875 
L 28.515625 63.921875 
L 10.984375 60.40625 
L 10.984375 69.390625 
L 28.421875 72.90625 
L 38.28125 72.90625 
L 38.28125 8.296875 
L 54.390625 8.296875 
L 54.390625 0 
L 12.40625 0 
z
" id="DejaVuSans-49"/>
      </defs>
      <g transform="translate(648.958662 366.30265)scale(0.08 -0.08)">
       <use xlink:href="#DejaVuSans-49"/>
       <use x="63.623047" xlink:href="#DejaVuSans-48"/>
       <use x="127.246094" xlink:href="#DejaVuSans-48"/>
      </g>
     </g>
    </g>
    <g id="xtick_7">
     <g id="text_7">
      <!-- 120 -->
      <g transform="translate(766.126447 366.30265)scale(0.08 -0.08)">
       <use xlink:href="#DejaVuSans-49"/>
       <use x="63.623047" xlink:href="#DejaVuSans-50"/>
       <use x="127.246094" xlink:href="#DejaVuSans-48"/>
      </g>
     </g>
    </g>
    <g id="xtick_8">
     <g id="text_8">
      <!-- 140 -->
      <g transform="translate(883.294232 366.30265)scale(0.08 -0.08)">
       <use xlink:href="#DejaVuSans-49"/>
       <use x="63.623047" xlink:href="#DejaVuSans-52"/>
       <use x="127.246094" xlink:href="#DejaVuSans-48"/>
      </g>
     </g>
    </g>
    <g id="text_9">
     <!-- Read Position -->
     <defs>
      <path d="M 44.390625 34.1875 
Q 47.5625 33.109375 50.5625 29.59375 
Q 53.5625 26.078125 56.59375 19.921875 
L 66.609375 0 
L 56 0 
L 46.6875 18.703125 
Q 43.0625 26.03125 39.671875 28.421875 
Q 36.28125 30.8125 30.421875 30.8125 
L 19.671875 30.8125 
L 19.671875 0 
L 9.8125 0 
L 9.8125 72.90625 
L 32.078125 72.90625 
Q 44.578125 72.90625 50.734375 67.671875 
Q 56.890625 62.453125 56.890625 51.90625 
Q 56.890625 45.015625 53.6875 40.46875 
Q 50.484375 35.9375 44.390625 34.1875 
z
M 19.671875 64.796875 
L 19.671875 38.921875 
L 32.078125 38.921875 
Q 39.203125 38.921875 42.84375 42.21875 
Q 46.484375 45.515625 46.484375 51.90625 
Q 46.484375 58.296875 42.84375 61.546875 
Q 39.203125 64.796875 32.078125 64.796875 
z
" id="DejaVuSans-82"/>
      <path d="M 56.203125 29.59375 
L 56.203125 25.203125 
L 14.890625 25.203125 
Q 15.484375 15.921875 20.484375 11.0625 
Q 25.484375 6.203125 34.421875 6.203125 
Q 39.59375 6.203125 44.453125 7.46875 
Q 49.3125 8.734375 54.109375 11.28125 
L 54.109375 2.78125 
Q 49.265625 0.734375 44.1875 -0.34375 
Q 39.109375 -1.421875 33.890625 -1.421875 
Q 20.796875 -1.421875 13.15625 6.1875 
Q 5.515625 13.8125 5.515625 26.8125 
Q 5.515625 40.234375 12.765625 48.109375 
Q 20.015625 56 32.328125 56 
Q 43.359375 56 49.78125 48.890625 
Q 56.203125 41.796875 56.203125 29.59375 
z
M 47.21875 32.234375 
Q 47.125 39.59375 43.09375 43.984375 
Q 39.0625 48.390625 32.421875 48.390625 
Q 24.90625 48.390625 20.390625 44.140625 
Q 15.875 39.890625 15.1875 32.171875 
z
" id="DejaVuSans-101"/>
      <path d="M 34.28125 27.484375 
Q 23.390625 27.484375 19.1875 25 
Q 14.984375 22.515625 14.984375 16.5 
Q 14.984375 11.71875 18.140625 8.90625 
Q 21.296875 6.109375 26.703125 6.109375 
Q 34.1875 6.109375 38.703125 11.40625 
Q 43.21875 16.703125 43.21875 25.484375 
L 43.21875 27.484375 
z
M 52.203125 31.203125 
L 52.203125 0 
L 43.21875 0 
L 43.21875 8.296875 
Q 40.140625 3.328125 35.546875 0.953125 
Q 30.953125 -1.421875 24.3125 -1.421875 
Q 15.921875 -1.421875 10.953125 3.296875 
Q 6 8.015625 6 15.921875 
Q 6 25.140625 12.171875 29.828125 
Q 18.359375 34.515625 30.609375 34.515625 
L 43.21875 34.515625 
L 43.21875 35.40625 
Q 43.21875 41.609375 39.140625 45 
Q 35.0625 48.390625 27.6875 48.390625 
Q 23 48.390625 18.546875 47.265625 
Q 14.109375 46.140625 10.015625 43.890625 
L 10.015625 52.203125 
Q 14.9375 54.109375 19.578125 55.046875 
Q 24.21875 56 28.609375 56 
Q 40.484375 56 46.34375 49.84375 
Q 52.203125 43.703125 52.203125 31.203125 
z
" id="DejaVuSans-97"/>
      <path d="M 45.40625 46.390625 
L 45.40625 75.984375 
L 54.390625 75.984375 
L 54.390625 0 
L 45.40625 0 
L 45.40625 8.203125 
Q 42.578125 3.328125 38.25 0.953125 
Q 33.9375 -1.421875 27.875 -1.421875 
Q 17.96875 -1.421875 11.734375 6.484375 
Q 5.515625 14.40625 5.515625 27.296875 
Q 5.515625 40.1875 11.734375 48.09375 
Q 17.96875 56 27.875 56 
Q 33.9375 56 38.25 53.625 
Q 42.578125 51.265625 45.40625 46.390625 
z
M 14.796875 27.296875 
Q 14.796875 17.390625 18.875 11.75 
Q 22.953125 6.109375 30.078125 6.109375 
Q 37.203125 6.109375 41.296875 11.75 
Q 45.40625 17.390625 45.40625 27.296875 
Q 45.40625 37.203125 41.296875 42.84375 
Q 37.203125 48.484375 30.078125 48.484375 
Q 22.953125 48.484375 18.875 42.84375 
Q 14.796875 37.203125 14.796875 27.296875 
z
" id="DejaVuSans-100"/>
      <path id="DejaVuSans-32"/>
      <path d="M 19.671875 64.796875 
L 19.671875 37.40625 
L 32.078125 37.40625 
Q 38.96875 37.40625 42.71875 40.96875 
Q 46.484375 44.53125 46.484375 51.125 
Q 46.484375 57.671875 42.71875 61.234375 
Q 38.96875 64.796875 32.078125 64.796875 
z
M 9.8125 72.90625 
L 32.078125 72.90625 
Q 44.34375 72.90625 50.609375 67.359375 
Q 56.890625 61.8125 56.890625 51.125 
Q 56.890625 40.328125 50.609375 34.8125 
Q 44.34375 29.296875 32.078125 29.296875 
L 19.671875 29.296875 
L 19.671875 0 
L 9.8125 0 
z
" id="DejaVuSans-80"/>
      <path d="M 30.609375 48.390625 
Q 23.390625 48.390625 19.1875 42.75 
Q 14.984375 37.109375 14.984375 27.296875 
Q 14.984375 17.484375 19.15625 11.84375 
Q 23.34375 6.203125 30.609375 6.203125 
Q 37.796875 6.203125 41.984375 11.859375 
Q 46.1875 17.53125 46.1875 27.296875 
Q 46.1875 37.015625 41.984375 42.703125 
Q 37.796875 48.390625 30.609375 48.390625 
z
M 30.609375 56 
Q 42.328125 56 49.015625 48.375 
Q 55.71875 40.765625 55.71875 27.296875 
Q 55.71875 13.875 49.015625 6.21875 
Q 42.328125 -1.421875 30.609375 -1.421875 
Q 18.84375 -1.421875 12.171875 6.21875 
Q 5.515625 13.875 5.515625 27.296875 
Q 5.515625 40.765625 12.171875 48.375 
Q 18.84375 56 30.609375 56 
z
" id="DejaVuSans-111"/>
      <path d="M 44.28125 53.078125 
L 44.28125 44.578125 
Q 40.484375 46.53125 36.375 47.5 
Q 32.28125 48.484375 27.875 48.484375 
Q 21.1875 48.484375 17.84375 46.4375 
Q 14.5 44.390625 14.5 40.28125 
Q 14.5 37.15625 16.890625 35.375 
Q 19.28125 33.59375 26.515625 31.984375 
L 29.59375 31.296875 
Q 39.15625 29.25 43.1875 25.515625 
Q 47.21875 21.78125 47.21875 15.09375 
Q 47.21875 7.46875 41.1875 3.015625 
Q 35.15625 -1.421875 24.609375 -1.421875 
Q 20.21875 -1.421875 15.453125 -0.5625 
Q 10.6875 0.296875 5.421875 2 
L 5.421875 11.28125 
Q 10.40625 8.6875 15.234375 7.390625 
Q 20.0625 6.109375 24.8125 6.109375 
Q 31.15625 6.109375 34.5625 8.28125 
Q 37.984375 10.453125 37.984375 14.40625 
Q 37.984375 18.0625 35.515625 20.015625 
Q 33.0625 21.96875 24.703125 23.78125 
L 21.578125 24.515625 
Q 13.234375 26.265625 9.515625 29.90625 
Q 5.8125 33.546875 5.8125 39.890625 
Q 5.8125 47.609375 11.28125 51.796875 
Q 16.75 56 26.8125 56 
Q 31.78125 56 36.171875 55.265625 
Q 40.578125 54.546875 44.28125 53.078125 
z
" id="DejaVuSans-115"/>
      <path d="M 9.421875 54.6875 
L 18.40625 54.6875 
L 18.40625 0 
L 9.421875 0 
z
M 9.421875 75.984375 
L 18.40625 75.984375 
L 18.40625 64.59375 
L 9.421875 64.59375 
z
" id="DejaVuSans-105"/>
      <path d="M 18.3125 70.21875 
L 18.3125 54.6875 
L 36.8125 54.6875 
L 36.8125 47.703125 
L 18.3125 47.703125 
L 18.3125 18.015625 
Q 18.3125 11.328125 20.140625 9.421875 
Q 21.96875 7.515625 27.59375 7.515625 
L 36.8125 7.515625 
L 36.8125 0 
L 27.59375 0 
Q 17.1875 0 13.234375 3.875 
Q 9.28125 7.765625 9.28125 18.015625 
L 9.28125 47.703125 
L 2.6875 47.703125 
L 2.6875 54.6875 
L 9.28125 54.6875 
L 9.28125 70.21875 
z
" id="DejaVuSans-116"/>
      <path d="M 54.890625 33.015625 
L 54.890625 0 
L 45.90625 0 
L 45.90625 32.71875 
Q 45.90625 40.484375 42.875 44.328125 
Q 39.84375 48.1875 33.796875 48.1875 
Q 26.515625 48.1875 22.3125 43.546875 
Q 18.109375 38.921875 18.109375 30.90625 
L 18.109375 0 
L 9.078125 0 
L 9.078125 54.6875 
L 18.109375 54.6875 
L 18.109375 46.1875 
Q 21.34375 51.125 25.703125 53.5625 
Q 30.078125 56 35.796875 56 
Q 45.21875 56 50.046875 50.171875 
Q 54.890625 44.34375 54.890625 33.015625 
z
" id="DejaVuSans-110"/>
     </defs>
     <g transform="translate(479.045156 379.564837)scale(0.1 -0.1)">
      <use xlink:href="#DejaVuSans-82"/>
      <use x="69.419922" xlink:href="#DejaVuSans-101"/>
      <use x="130.943359" xlink:href="#DejaVuSans-97"/>
      <use x="192.222656" xlink:href="#DejaVuSans-100"/>
      <use x="255.699219" xlink:href="#DejaVuSans-32"/>
      <use x="287.486328" xlink:href="#DejaVuSans-80"/>
      <use x="347.742188" xlink:href="#DejaVuSans-111"/>
      <use x="408.923828" xlink:href="#DejaVuSans-115"/>
      <use x="461.023438" xlink:href="#DejaVuSans-105"/>
      <use x="488.806641" xlink:href="#DejaVuSans-116"/>
      <use x="528.015625" xlink:href="#DejaVuSans-105"/>
      <use x="555.798828" xlink:href="#DejaVuSans-111"/>
      <use x="616.980469" xlink:href="#DejaVuSans-110"/>
     </g>
    </g>
   </g>
   <g id="matplotlib.axis_2">
    <g id="ytick_1">
     <g id="line2d_1">
      <path clip-path="url(#p2ffaa85bfb)" d="M 32.968125 353.2239 
L 993.158125 353.2239 
" style="fill:none;stroke:#dedede;stroke-linecap:square;"/>
     </g>
     <g id="text_10">
      <!-- 0 -->
      <g transform="translate(20.878125 356.263275)scale(0.08 -0.08)">
       <use xlink:href="#DejaVuSans-48"/>
      </g>
     </g>
    </g>
    <g id="ytick_2">
     <g id="line2d_2">
      <path clip-path="url(#p2ffaa85bfb)" d="M 32.968125 289.6303 
L 993.158125 289.6303 
" style="fill:none;stroke:#dedede;stroke-linecap:square;"/>
     </g>
     <g id="text_11">
      <!-- 1 -->
      <g transform="translate(20.878125 292.669675)scale(0.08 -0.08)">
       <use xlink:href="#DejaVuSans-49"/>
      </g>
     </g>
    </g>
    <g id="ytick_3">
     <g id="line2d_3">
      <path clip-path="url(#p2ffaa85bfb)" d="M 32.968125 226.0367 
L 993.158125 226.0367 
" style="fill:none;stroke:#dedede;stroke-linecap:square;"/>
     </g>
     <g id="text_12">
      <!-- 2 -->
      <g transform="translate(20.878125 229.076075)scale(0.08 -0.08)">
       <use xlink:href="#DejaVuSans-50"/>
      </g>
     </g>
    </g>
    <g id="ytick_4">
     <g id="line2d_4">
      <path clip-path="url(#p2ffaa85bfb)" d="M 32.968125 162.4431 
L 993.158125 162.4431 
" style="fill:none;stroke:#dedede;stroke-linecap:square;"/>
     </g>
     <g id="text_13">
      <!-- 3 -->
      <defs>
       <path d="M 40.578125 39.3125 
Q 47.65625 37.796875 51.625 33 
Q 55.609375 28.21875 55.609375 21.1875 
Q 55.609375 10.40625 48.1875 4.484375 
Q 40.765625 -1.421875 27.09375 -1.421875 
Q 22.515625 -1.421875 17.65625 -0.515625 
Q 12.796875 0.390625 7.625 2.203125 
L 7.625 11.71875 
Q 11.71875 9.328125 16.59375 8.109375 
Q 21.484375 6.890625 26.8125 6.890625 
Q 36.078125 6.890625 40.9375 10.546875 
Q 45.796875 14.203125 45.796875 21.1875 
Q 45.796875 27.640625 41.28125 31.265625 
Q 36.765625 34.90625 28.71875 34.90625 
L 20.21875 34.90625 
L 20.21875 43.015625 
L 29.109375 43.015625 
Q 36.375 43.015625 40.234375 45.921875 
Q 44.09375 48.828125 44.09375 54.296875 
Q 44.09375 59.90625 40.109375 62.90625 
Q 36.140625 65.921875 28.71875 65.921875 
Q 24.65625 65.921875 20.015625 65.03125 
Q 15.375 64.15625 9.8125 62.3125 
L 9.8125 71.09375 
Q 15.4375 72.65625 20.34375 73.4375 
Q 25.25 74.21875 29.59375 74.21875 
Q 40.828125 74.21875 47.359375 69.109375 
Q 53.90625 64.015625 53.90625 55.328125 
Q 53.90625 49.265625 50.4375 45.09375 
Q 46.96875 40.921875 40.578125 39.3125 
z
" id="DejaVuSans-51"/>
      </defs>
      <g transform="translate(20.878125 165.482475)scale(0.08 -0.08)">
       <use xlink:href="#DejaVuSans-51"/>
      </g>
     </g>
    </g>
    <g id="ytick_5">
     <g id="line2d_5">
      <path clip-path="url(#p2ffaa85bfb)" d="M 32.968125 98.8495 
L 993.158125 98.8495 
" style="fill:none;stroke:#dedede;stroke-linecap:square;"/>
     </g>
     <g id="text_14">
      <!-- 4 -->
      <g transform="translate(20.878125 101.888875)scale(0.08 -0.08)">
       <use xlink:href="#DejaVuSans-52"/>
      </g>
     </g>
    </g>
    <g id="ytick_6">
     <g id="line2d_6">
      <path clip-path="url(#p2ffaa85bfb)" d="M 32.968125 35.2559 
L 993.158125 35.2559 
" style="fill:none;stroke:#dedede;stroke-linecap:square;"/>
     </g>
     <g id="text_15">
      <!-- 5 -->
      <defs>
       <path d="M 10.796875 72.90625 
L 49.515625 72.90625 
L 49.515625 64.59375 
L 19.828125 64.59375 
L 19.828125 46.734375 
Q 21.96875 47.46875 24.109375 47.828125 
Q 26.265625 48.1875 28.421875 48.1875 
Q 40.625 48.1875 47.75 41.5 
Q 54.890625 34.8125 54.890625 23.390625 
Q 54.890625 11.625 47.5625 5.09375 
Q 40.234375 -1.421875 26.90625 -1.421875 
Q 22.3125 -1.421875 17.546875 -0.640625 
Q 12.796875 0.140625 7.71875 1.703125 
L 7.71875 11.625 
Q 12.109375 9.234375 16.796875 8.0625 
Q 21.484375 6.890625 26.703125 6.890625 
Q 35.15625 6.890625 40.078125 11.328125 
Q 45.015625 15.765625 45.015625 23.390625 
Q 45.015625 31 40.078125 35.4375 
Q 35.15625 39.890625 26.703125 39.890625 
Q 22.75 39.890625 18.8125 39.015625 
Q 14.890625 38.140625 10.796875 36.28125 
z
" id="DejaVuSans-53"/>
      </defs>
      <g transform="translate(20.878125 38.295275)scale(0.08 -0.08)">
       <use xlink:href="#DejaVuSans-53"/>
      </g>
     </g>
    </g>
    <g id="text_16">
     <!-- R1 Before filtering: Base Content Percent -->
     <defs>
      <path d="M 19.671875 34.8125 
L 19.671875 8.109375 
L 35.5 8.109375 
Q 43.453125 8.109375 47.28125 11.40625 
Q 51.125 14.703125 51.125 21.484375 
Q 51.125 28.328125 47.28125 31.5625 
Q 43.453125 34.8125 35.5 34.8125 
z
M 19.671875 64.796875 
L 19.671875 42.828125 
L 34.28125 42.828125 
Q 41.5 42.828125 45.03125 45.53125 
Q 48.578125 48.25 48.578125 53.8125 
Q 48.578125 59.328125 45.03125 62.0625 
Q 41.5 64.796875 34.28125 64.796875 
z
M 9.8125 72.90625 
L 35.015625 72.90625 
Q 46.296875 72.90625 52.390625 68.21875 
Q 58.5 63.53125 58.5 54.890625 
Q 58.5 48.1875 55.375 44.234375 
Q 52.25 40.28125 46.1875 39.3125 
Q 53.46875 37.75 57.5 32.78125 
Q 61.53125 27.828125 61.53125 20.40625 
Q 61.53125 10.640625 54.890625 5.3125 
Q 48.25 0 35.984375 0 
L 9.8125 0 
z
" id="DejaVuSans-66"/>
      <path d="M 37.109375 75.984375 
L 37.109375 68.5 
L 28.515625 68.5 
Q 23.6875 68.5 21.796875 66.546875 
Q 19.921875 64.59375 19.921875 59.515625 
L 19.921875 54.6875 
L 34.71875 54.6875 
L 34.71875 47.703125 
L 19.921875 47.703125 
L 19.921875 0 
L 10.890625 0 
L 10.890625 47.703125 
L 2.296875 47.703125 
L 2.296875 54.6875 
L 10.890625 54.6875 
L 10.890625 58.5 
Q 10.890625 67.625 15.140625 71.796875 
Q 19.390625 75.984375 28.609375 75.984375 
z
" id="DejaVuSans-102"/>
      <path d="M 41.109375 46.296875 
Q 39.59375 47.171875 37.8125 47.578125 
Q 36.03125 48 33.890625 48 
Q 26.265625 48 22.1875 43.046875 
Q 18.109375 38.09375 18.109375 28.8125 
L 18.109375 0 
L 9.078125 0 
L 9.078125 54.6875 
L 18.109375 54.6875 
L 18.109375 46.1875 
Q 20.953125 51.171875 25.484375 53.578125 
Q 30.03125 56 36.53125 56 
Q 37.453125 56 38.578125 55.875 
Q 39.703125 55.765625 41.0625 55.515625 
z
" id="DejaVuSans-114"/>
      <path d="M 9.421875 75.984375 
L 18.40625 75.984375 
L 18.40625 0 
L 9.421875 0 
z
" id="DejaVuSans-108"/>
      <path d="M 45.40625 27.984375 
Q 45.40625 37.75 41.375 43.109375 
Q 37.359375 48.484375 30.078125 48.484375 
Q 22.859375 48.484375 18.828125 43.109375 
Q 14.796875 37.75 14.796875 27.984375 
Q 14.796875 18.265625 18.828125 12.890625 
Q 22.859375 7.515625 30.078125 7.515625 
Q 37.359375 7.515625 41.375 12.890625 
Q 45.40625 18.265625 45.40625 27.984375 
z
M 54.390625 6.78125 
Q 54.390625 -7.171875 48.1875 -13.984375 
Q 42 -20.796875 29.203125 -20.796875 
Q 24.46875 -20.796875 20.265625 -20.09375 
Q 16.0625 -19.390625 12.109375 -17.921875 
L 12.109375 -9.1875 
Q 16.0625 -11.328125 19.921875 -12.34375 
Q 23.78125 -13.375 27.78125 -13.375 
Q 36.625 -13.375 41.015625 -8.765625 
Q 45.40625 -4.15625 45.40625 5.171875 
L 45.40625 9.625 
Q 42.625 4.78125 38.28125 2.390625 
Q 33.9375 0 27.875 0 
Q 17.828125 0 11.671875 7.65625 
Q 5.515625 15.328125 5.515625 27.984375 
Q 5.515625 40.671875 11.671875 48.328125 
Q 17.828125 56 27.875 56 
Q 33.9375 56 38.28125 53.609375 
Q 42.625 51.21875 45.40625 46.390625 
L 45.40625 54.6875 
L 54.390625 54.6875 
z
" id="DejaVuSans-103"/>
      <path d="M 11.71875 12.40625 
L 22.015625 12.40625 
L 22.015625 0 
L 11.71875 0 
z
M 11.71875 51.703125 
L 22.015625 51.703125 
L 22.015625 39.3125 
L 11.71875 39.3125 
z
" id="DejaVuSans-58"/>
      <path d="M 64.40625 67.28125 
L 64.40625 56.890625 
Q 59.421875 61.53125 53.78125 63.8125 
Q 48.140625 66.109375 41.796875 66.109375 
Q 29.296875 66.109375 22.65625 58.46875 
Q 16.015625 50.828125 16.015625 36.375 
Q 16.015625 21.96875 22.65625 14.328125 
Q 29.296875 6.6875 41.796875 6.6875 
Q 48.140625 6.6875 53.78125 8.984375 
Q 59.421875 11.28125 64.40625 15.921875 
L 64.40625 5.609375 
Q 59.234375 2.09375 53.4375 0.328125 
Q 47.65625 -1.421875 41.21875 -1.421875 
Q 24.65625 -1.421875 15.125 8.703125 
Q 5.609375 18.84375 5.609375 36.375 
Q 5.609375 53.953125 15.125 64.078125 
Q 24.65625 74.21875 41.21875 74.21875 
Q 47.75 74.21875 53.53125 72.484375 
Q 59.328125 70.75 64.40625 67.28125 
z
" id="DejaVuSans-67"/>
      <path d="M 48.78125 52.59375 
L 48.78125 44.1875 
Q 44.96875 46.296875 41.140625 47.34375 
Q 37.3125 48.390625 33.40625 48.390625 
Q 24.65625 48.390625 19.8125 42.84375 
Q 14.984375 37.3125 14.984375 27.296875 
Q 14.984375 17.28125 19.8125 11.734375 
Q 24.65625 6.203125 33.40625 6.203125 
Q 37.3125 6.203125 41.140625 7.25 
Q 44.96875 8.296875 48.78125 10.40625 
L 48.78125 2.09375 
Q 45.015625 0.34375 40.984375 -0.53125 
Q 36.96875 -1.421875 32.421875 -1.421875 
Q 20.0625 -1.421875 12.78125 6.34375 
Q 5.515625 14.109375 5.515625 27.296875 
Q 5.515625 40.671875 12.859375 48.328125 
Q 20.21875 56 33.015625 56 
Q 37.15625 56 41.109375 55.140625 
Q 45.0625 54.296875 48.78125 52.59375 
z
" id="DejaVuSans-99"/>
     </defs>
     <g transform="translate(14.798438 297.503181)rotate(-90)scale(0.1 -0.1)">
      <use xlink:href="#DejaVuSans-82"/>
      <use x="69.482422" xlink:href="#DejaVuSans-49"/>
      <use x="133.105469" xlink:href="#DejaVuSans-32"/>
      <use x="164.892578" xlink:href="#DejaVuSans-66"/>
      <use x="233.496094" xlink:href="#DejaVuSans-101"/>
      <use x="295.019531" xlink:href="#DejaVuSans-102"/>
      <use x="330.224609" xlink:href="#DejaVuSans-111"/>
      <use x="391.40625" xlink:href="#DejaVuSans-114"/>
      <use x="432.488281" xlink:href="#DejaVuSans-101"/>
      <use x="494.011719" xlink:href="#DejaVuSans-32"/>
      <use x="525.798828" xlink:href="#DejaVuSans-102"/>
      <use x="561.003906" xlink:href="#DejaVuSans-105"/>
      <use x="588.787109" xlink:href="#DejaVuSans-108"/>
      <use x="616.570312" xlink:href="#DejaVuSans-116"/>
      <use x="655.779297" xlink:href="#DejaVuSans-101"/>
      <use x="717.302734" xlink:href="#DejaVuSans-114"/>
      <use x="758.416016" xlink:href="#DejaVuSans-105"/>
      <use x="786.199219" xlink:href="#DejaVuSans-110"/>
      <use x="849.578125" xlink:href="#DejaVuSans-103"/>
      <use x="913.054688" xlink:href="#DejaVuSans-58"/>
      <use x="946.746094" xlink:href="#DejaVuSans-32"/>
      <use x="978.533203" xlink:href="#DejaVuSans-66"/>
      <use x="1047.136719" xlink:href="#DejaVuSans-97"/>
      <use x="1108.416016" xlink:href="#DejaVuSans-115"/>
      <use x="1160.515625" xlink:href="#DejaVuSans-101"/>
      <use x="1222.039062" xlink:href="#DejaVuSans-32"/>
      <use x="1253.826172" xlink:href="#DejaVuSans-67"/>
      <use x="1323.650391" xlink:href="#DejaVuSans-111"/>
      <use x="1384.832031" xlink:href="#DejaVuSans-110"/>
      <use x="1448.210938" xlink:href="#DejaVuSans-116"/>
      <use x="1487.419922" xlink:href="#DejaVuSans-101"/>
      <use x="1548.943359" xlink:href="#DejaVuSans-110"/>
      <use x="1612.322266" xlink:href="#DejaVuSans-116"/>
      <use x="1651.53125" xlink:href="#DejaVuSans-32"/>
      <use x="1683.318359" xlink:href="#DejaVuSans-80"/>
      <use x="1743.574219" xlink:href="#DejaVuSans-101"/>
      <use x="1805.097656" xlink:href="#DejaVuSans-114"/>
      <use x="1846.179688" xlink:href="#DejaVuSans-99"/>
      <use x="1901.160156" xlink:href="#DejaVuSans-101"/>
      <use x="1962.683594" xlink:href="#DejaVuSans-110"/>
      <use x="2026.0625" xlink:href="#DejaVuSans-116"/>
     </g>
    </g>
   </g>
   <g id="line2d_7">
    <path clip-path="url(#p2ffaa85bfb)" d="M 76.613125 349.085483 
L 82.471514 353.038635 
L 88.329904 353.223009 
L 123.480239 353.222787 
L 398.824534 353.2239 
L 410.541313 353.125219 
L 422.258091 353.2239 
L 773.761447 353.219127 
L 779.619836 352.669344 
L 785.478226 353.203712 
L 855.778897 353.222698 
L 873.354065 353.189651 
L 914.362789 353.2239 
L 926.079568 353.222378 
L 931.937957 353.085583 
L 943.654736 353.2239 
L 949.513125 353.2239 
L 949.513125 353.2239 
" style="fill:none;stroke:#7cb5ec;stroke-linecap:square;"/>
   </g>
   <g id="line2d_8">
    <path clip-path="url(#p2ffaa85bfb)" d="M 76.613125 349.298261 
L 82.471514 353.081744 
L 88.329904 353.222329 
L 129.338628 353.2239 
L 773.761447 353.221378 
L 779.619836 352.495868 
L 785.478226 353.199445 
L 855.778897 353.223566 
L 873.354065 353.197392 
L 926.079568 353.222805 
L 931.937957 353.119968 
L 943.654736 353.2239 
L 949.513125 353.2239 
L 949.513125 353.2239 
" style="fill:none;stroke:#434348;stroke-linecap:square;"/>
   </g>
   <g id="line2d_9">
    <path clip-path="url(#p2ffaa85bfb)" d="M 76.613125 349.278439 
L 82.471514 353.064007 
L 88.329904 353.222588 
L 123.480239 353.22235 
L 398.824534 353.2239 
L 410.541313 353.130389 
L 422.258091 353.2239 
L 773.761447 353.220364 
L 779.619836 352.465883 
L 785.478226 353.193359 
L 844.062118 353.2239 
L 926.079568 353.222666 
L 931.937957 353.08186 
L 943.654736 353.2239 
L 949.513125 353.2239 
L 949.513125 353.2239 
" style="fill:none;stroke:#90ed7d;stroke-linecap:square;"/>
   </g>
   <g id="line2d_10">
    <path clip-path="url(#p2ffaa85bfb)" d="M 76.613125 349.10947 
L 82.471514 353.050562 
L 88.329904 353.221699 
L 117.62185 353.2239 
L 773.761447 353.221948 
L 779.619836 352.487855 
L 785.478226 353.186046 
L 808.911783 353.2239 
L 814.770172 353.164979 
L 826.486951 353.22157 
L 926.079568 353.221643 
L 931.937957 353.066858 
L 943.654736 353.2239 
L 949.513125 353.2239 
L 949.513125 353.2239 
" style="fill:none;stroke:#f7a35c;stroke-linecap:square;"/>
   </g>
   <g id="line2d_11">
    <path clip-path="url(#p2ffaa85bfb)" d="M 76.613125 349.122176 
L 82.471514 353.064305 
L 88.329904 353.222663 
L 123.480239 353.222415 
L 398.824534 353.2239 
L 410.541313 353.143878 
L 422.258091 353.2239 
L 773.761447 353.220284 
L 779.619836 352.439874 
L 785.478226 353.195641 
L 844.062118 353.2239 
L 926.079568 353.2239 
L 931.937957 353.087269 
L 943.654736 353.2239 
L 949.513125 353.2239 
L 949.513125 353.2239 
" style="fill:none;stroke:#8085e9;stroke-linecap:square;"/>
   </g>
   <g id="line2d_12">
    <path clip-path="url(#p2ffaa85bfb)" d="M 76.613125 349.340557 
L 82.471514 353.04765 
L 88.329904 353.223344 
L 111.763461 353.204718 
L 146.913796 353.212224 
L 205.497689 353.2239 
L 404.682924 353.155852 
L 410.541313 353.107962 
L 422.258091 353.2239 
L 709.319165 353.2239 
L 715.177555 353.099101 
L 726.894333 353.208601 
L 773.761447 353.221399 
L 779.619836 352.441432 
L 785.478226 353.194122 
L 832.34534 353.2239 
L 926.079568 353.222879 
L 931.937957 353.019737 
L 937.796346 353.198348 
L 949.513125 353.2239 
L 949.513125 353.2239 
" style="fill:none;stroke:#f15c80;stroke-linecap:square;"/>
   </g>
   <g id="line2d_13">
    <path clip-path="url(#p2ffaa85bfb)" d="M 76.613125 349.256505 
L 82.471514 353.074667 
L 88.329904 353.22308 
L 129.338628 353.2239 
L 773.761447 353.22179 
L 779.619836 352.645996 
L 785.478226 353.200983 
L 855.778897 353.2239 
L 873.354065 353.181328 
L 902.646011 353.2239 
L 926.079568 353.223267 
L 931.937957 353.111192 
L 943.654736 353.2239 
L 949.513125 353.2239 
L 949.513125 353.2239 
" style="fill:none;stroke:#e4d354;stroke-linecap:square;"/>
   </g>
   <g id="line2d_14">
    <path clip-path="url(#p2ffaa85bfb)" d="M 76.613125 349.205471 
L 82.471514 353.04609 
L 88.329904 353.222318 
L 123.480239 353.223267 
L 404.682924 353.16299 
L 410.541313 353.130816 
L 422.258091 353.2239 
L 773.761447 353.221557 
L 779.619836 352.515219 
L 785.478226 353.197919 
L 844.062118 353.2239 
L 926.079568 353.22257 
L 931.937957 353.096251 
L 943.654736 353.2239 
L 949.513125 353.2239 
L 949.513125 353.2239 
" style="fill:none;stroke:#2b908f;stroke-linecap:square;"/>
   </g>
   <g id="line2d_15">
    <path clip-path="url(#p2ffaa85bfb)" d="M 76.613125 349.170291 
L 82.471514 353.038359 
L 88.329904 353.223181 
L 117.62185 353.2239 
L 656.593662 353.2239 
L 773.761447 353.22235 
L 779.619836 352.602371 
L 785.478226 353.203495 
L 855.778897 353.2239 
L 879.212454 353.193725 
L 902.646011 353.2239 
L 926.079568 353.221138 
L 931.937957 353.037921 
L 943.654736 353.2239 
L 949.513125 353.2239 
L 949.513125 353.2239 
" style="fill:none;stroke:#f45b5b;stroke-linecap:square;"/>
   </g>
   <g id="line2d_16">
    <path clip-path="url(#p2ffaa85bfb)" d="M 76.613125 349.128339 
L 82.471514 353.051959 
L 88.329904 353.222005 
L 123.480239 353.223426 
L 404.682924 353.172854 
L 410.541313 353.134852 
L 422.258091 353.2239 
L 773.761447 353.220689 
L 779.619836 352.464866 
L 785.478226 353.189451 
L 826.486951 353.222567 
L 926.079568 353.222197 
L 931.937957 353.087756 
L 943.654736 353.2239 
L 949.513125 353.2239 
L 949.513125 353.2239 
" style="fill:none;stroke:#91e8e1;stroke-linecap:square;"/>
   </g>
   <g id="line2d_17">
    <path clip-path="url(#p2ffaa85bfb)" d="M 76.613125 349.269485 
L 82.471514 353.048127 
L 88.329904 353.222251 
L 117.62185 353.2239 
L 773.761447 353.221282 
L 779.619836 352.462424 
L 785.478226 353.199824 
L 855.778897 353.22295 
L 873.354065 353.180365 
L 902.646011 353.2239 
L 926.079568 353.221135 
L 931.937957 353.056798 
L 943.654736 353.2239 
L 949.513125 353.2239 
L 949.513125 353.2239 
" style="fill:none;stroke:#7cb5ec;stroke-linecap:square;"/>
   </g>
   <g id="line2d_18">
    <path clip-path="url(#p2ffaa85bfb)" d="M 76.613125 349.023263 
L 82.471514 353.042902 
L 88.329904 353.222831 
L 111.763461 353.207591 
L 152.772185 353.2239 
L 773.761447 353.219964 
L 779.619836 352.585032 
L 785.478226 353.199788 
L 844.062118 353.2239 
L 926.079568 353.2239 
L 931.937957 353.091656 
L 943.654736 353.2239 
L 949.513125 353.2239 
L 949.513125 353.2239 
" style="fill:none;stroke:#434348;stroke-linecap:square;"/>
   </g>
   <g id="line2d_19">
    <path clip-path="url(#p2ffaa85bfb)" d="M 76.613125 349.021692 
L 82.471514 353.054326 
L 88.329904 353.222167 
L 123.480239 353.223157 
L 404.682924 353.170431 
L 410.541313 353.137645 
L 422.258091 353.2239 
L 773.761447 353.220738 
L 779.619836 352.474494 
L 785.478226 353.196514 
L 849.920508 353.2239 
L 949.513125 353.2239 
L 949.513125 353.2239 
" style="fill:none;stroke:#90ed7d;stroke-linecap:square;"/>
   </g>
   <g id="line2d_20">
    <path clip-path="url(#p2ffaa85bfb)" d="M 76.613125 349.273904 
L 82.471514 353.056089 
L 88.329904 353.22171 
L 117.62185 353.2239 
L 416.399702 353.217449 
L 521.850709 353.2239 
L 773.761447 353.221133 
L 779.619836 352.4385 
L 785.478226 353.195298 
L 838.203729 353.2239 
L 926.079568 353.222986 
L 931.937957 353.050999 
L 937.796346 353.198059 
L 949.513125 353.2239 
L 949.513125 353.2239 
" style="fill:none;stroke:#f7a35c;stroke-linecap:square;"/>
   </g>
   <g id="line2d_21">
    <path clip-path="url(#p2ffaa85bfb)" d="M 76.613125 349.211958 
L 82.471514 353.062206 
L 88.329904 353.222886 
L 117.62185 353.2239 
L 328.523863 353.2239 
L 404.682924 353.155306 
L 410.541313 353.110598 
L 422.258091 353.2239 
L 709.319165 353.2239 
L 715.177555 353.108979 
L 726.894333 353.211284 
L 773.761447 353.219256 
L 779.619836 352.429018 
L 785.478226 353.203893 
L 808.911783 353.2239 
L 814.770172 353.159862 
L 826.486951 353.218682 
L 926.079568 353.221238 
L 931.937957 353.067183 
L 943.654736 353.2239 
L 949.513125 353.2239 
L 949.513125 353.2239 
" style="fill:none;stroke:#8085e9;stroke-linecap:square;"/>
   </g>
   <g id="line2d_22">
    <path clip-path="url(#p2ffaa85bfb)" d="M 76.613125 349.221166 
L 82.471514 353.059791 
L 88.329904 353.223236 
L 117.62185 353.2239 
L 439.833259 353.2239 
L 773.761447 353.220415 
L 779.619836 352.435886 
L 785.478226 353.195817 
L 855.778897 353.222746 
L 873.354065 353.191927 
L 926.079568 353.2239 
L 931.937957 353.08182 
L 943.654736 353.2239 
L 949.513125 353.2239 
L 949.513125 353.2239 
" style="fill:none;stroke:#f15c80;stroke-linecap:square;"/>
   </g>
   <g id="line2d_23">
    <path clip-path="url(#p2ffaa85bfb)" d="M 76.613125 349.137566 
L 82.471514 353.042176 
L 88.329904 353.222474 
L 117.62185 353.2239 
L 580.434602 353.215601 
L 662.452051 353.2239 
L 680.027219 353.208039 
L 773.761447 353.221494 
L 779.619836 352.659582 
L 785.478226 353.207339 
L 855.778897 353.222374 
L 873.354065 353.172287 
L 908.5044 353.2239 
L 926.079568 353.223254 
L 931.937957 353.041105 
L 943.654736 353.2239 
L 949.513125 353.2239 
L 949.513125 353.2239 
" style="fill:none;stroke:#e4d354;stroke-linecap:square;"/>
   </g>
   <g id="line2d_24">
    <path clip-path="url(#p2ffaa85bfb)" d="M 76.613125 349.11204 
L 82.471514 353.056255 
L 88.329904 353.221826 
L 117.62185 353.2239 
L 627.301716 353.223224 
L 773.761447 353.222047 
L 779.619836 352.455804 
L 785.478226 353.192078 
L 832.34534 353.2239 
L 926.079568 353.223413 
L 931.937957 353.091827 
L 943.654736 353.2239 
L 949.513125 353.2239 
L 949.513125 353.2239 
" style="fill:none;stroke:#2b908f;stroke-linecap:square;"/>
   </g>
   <g id="line2d_25">
    <path clip-path="url(#p2ffaa85bfb)" d="M 76.613125 349.125121 
L 82.471514 353.054028 
L 88.329904 353.22279 
L 123.480239 353.22316 
L 709.319165 353.2239 
L 715.177555 353.14913 
L 726.894333 353.218414 
L 773.761447 353.221528 
L 779.619836 352.525006 
L 785.478226 353.201384 
L 855.778897 353.222364 
L 879.212454 353.201272 
L 908.5044 353.2239 
L 926.079568 353.222204 
L 931.937957 353.100579 
L 943.654736 353.2239 
L 949.513125 353.2239 
L 949.513125 353.2239 
" style="fill:none;stroke:#f45b5b;stroke-linecap:square;"/>
   </g>
   <g id="line2d_26">
    <path clip-path="url(#p2ffaa85bfb)" d="M 76.613125 349.183296 
L 82.471514 353.044257 
L 88.329904 353.223403 
L 123.480239 353.222658 
L 398.824534 353.2239 
L 410.541313 353.130545 
L 422.258091 353.2239 
L 773.761447 353.222964 
L 779.619836 352.573541 
L 785.478226 353.202677 
L 855.778897 353.2239 
L 873.354065 353.180635 
L 902.646011 353.2239 
L 926.079568 353.221694 
L 931.937957 353.076213 
L 943.654736 353.223114 
L 949.513125 353.2239 
L 949.513125 353.2239 
" style="fill:none;stroke:#91e8e1;stroke-linecap:square;"/>
   </g>
   <g id="line2d_27">
    <path clip-path="url(#p2ffaa85bfb)" d="M 76.613125 349.09279 
L 82.471514 353.058637 
L 88.329904 353.223186 
L 117.62185 353.2239 
L 773.761447 353.220774 
L 779.619836 352.468268 
L 785.478226 353.200789 
L 849.920508 353.2239 
L 949.513125 353.2239 
L 949.513125 353.2239 
" style="fill:none;stroke:#7cb5ec;stroke-linecap:square;"/>
   </g>
   <g id="line2d_28">
    <path clip-path="url(#p2ffaa85bfb)" d="M 76.613125 349.148326 
L 82.471514 353.029455 
L 88.329904 353.222397 
L 117.62185 353.2239 
L 633.160105 353.2239 
L 709.319165 353.2239 
L 715.177555 353.112688 
L 726.894333 353.213461 
L 773.761447 353.216984 
L 779.619836 352.561636 
L 785.478226 353.200271 
L 844.062118 353.2239 
L 926.079568 353.222118 
L 931.937957 353.04672 
L 943.654736 353.2239 
L 949.513125 353.2239 
L 949.513125 353.2239 
" style="fill:none;stroke:#434348;stroke-linecap:square;"/>
   </g>
   <g id="line2d_29">
    <path clip-path="url(#p2ffaa85bfb)" d="M 76.613125 349.325205 
L 82.471514 353.067183 
L 88.329904 353.223099 
L 123.480239 353.223366 
L 404.682924 353.157808 
L 410.541313 353.123509 
L 422.258091 353.2239 
L 773.761447 353.220313 
L 779.619836 352.529382 
L 785.478226 353.201079 
L 855.778897 353.223232 
L 873.354065 353.175531 
L 908.5044 353.2239 
L 926.079568 353.223023 
L 931.937957 353.081263 
L 943.654736 353.2239 
L 949.513125 353.2239 
L 949.513125 353.2239 
" style="fill:none;stroke:#90ed7d;stroke-linecap:square;"/>
   </g>
   <g id="line2d_30">
    <path clip-path="url(#p2ffaa85bfb)" d="M 76.613125 349.21281 
L 82.471514 353.060108 
L 88.329904 353.223054 
L 117.62185 353.2239 
L 691.743997 353.222281 
L 773.761447 353.21962 
L 779.619836 352.46919 
L 785.478226 353.194142 
L 838.203729 353.2239 
L 926.079568 353.2239 
L 931.937957 353.079555 
L 943.654736 353.2239 
L 949.513125 353.2239 
L 949.513125 353.2239 
" style="fill:none;stroke:#f7a35c;stroke-linecap:square;"/>
   </g>
   <g id="line2d_31">
    <path clip-path="url(#p2ffaa85bfb)" d="M 76.613125 349.045635 
L 82.471514 353.037708 
L 88.329904 353.223187 
L 117.62185 353.2239 
L 773.761447 353.221811 
L 779.619836 352.598027 
L 785.478226 353.203463 
L 849.920508 353.2239 
L 926.079568 353.221116 
L 931.937957 353.059069 
L 937.796346 353.206158 
L 949.513125 353.2239 
L 949.513125 353.2239 
" style="fill:none;stroke:#8085e9;stroke-linecap:square;"/>
   </g>
   <g id="line2d_32">
    <path clip-path="url(#p2ffaa85bfb)" d="M 76.613125 349.164027 
L 82.471514 353.057701 
L 88.329904 353.222271 
L 111.763461 353.205977 
L 152.772185 353.2239 
L 773.761447 353.222188 
L 779.619836 352.414881 
L 785.478226 353.19572 
L 838.203729 353.2239 
L 926.079568 353.22336 
L 931.937957 353.077799 
L 943.654736 353.2239 
L 949.513125 353.2239 
L 949.513125 353.2239 
" style="fill:none;stroke:#f15c80;stroke-linecap:square;"/>
   </g>
   <g id="line2d_33">
    <path clip-path="url(#p2ffaa85bfb)" d="M 76.613125 349.06374 
L 82.471514 353.042035 
L 88.329904 353.222897 
L 123.480239 353.222897 
L 404.682924 353.170149 
L 410.541313 353.134681 
L 422.258091 353.2239 
L 773.761447 353.222849 
L 779.619836 352.447149 
L 785.478226 353.189469 
L 838.203729 353.2239 
L 926.079568 353.2239 
L 931.937957 353.055131 
L 943.654736 353.2239 
L 949.513125 353.2239 
L 949.513125 353.2239 
" style="fill:none;stroke:#e4d354;stroke-linecap:square;"/>
   </g>
   <g id="line2d_34">
    <path clip-path="url(#p2ffaa85bfb)" d="M 76.613125 349.166546 
L 82.471514 353.0643 
L 88.329904 353.22288 
L 123.480239 353.222471 
L 404.682924 353.184213 
L 416.399702 353.222459 
L 709.319165 353.2239 
L 715.177555 353.143645 
L 726.894333 353.217352 
L 773.761447 353.222671 
L 779.619836 352.488147 
L 785.478226 353.202188 
L 855.778897 353.223621 
L 879.212454 353.203816 
L 914.362789 353.2239 
L 926.079568 353.221943 
L 931.937957 353.084979 
L 943.654736 353.2239 
L 949.513125 353.2239 
L 949.513125 353.2239 
" style="fill:none;stroke:#2b908f;stroke-linecap:square;"/>
   </g>
   <g id="line2d_35">
    <path clip-path="url(#p2ffaa85bfb)" d="M 76.613125 349.186514 
L 82.471514 353.073019 
L 88.329904 353.221473 
L 94.188293 353.209338 
L 100.046682 353.085154 
L 129.338628 353.2239 
L 773.761447 353.222028 
L 779.619836 352.489979 
L 785.478226 353.19978 
L 855.778897 353.223392 
L 879.212454 353.204572 
L 914.362789 353.2239 
L 926.079568 353.22334 
L 931.937957 353.104765 
L 943.654736 353.2239 
L 949.513125 353.2239 
L 949.513125 353.2239 
" style="fill:none;stroke:#f45b5b;stroke-linecap:square;"/>
   </g>
   <g id="line2d_36">
    <path clip-path="url(#p2ffaa85bfb)" d="M 76.613125 349.309771 
L 82.471514 352.999015 
L 88.329904 353.222112 
L 94.188293 353.200987 
L 100.046682 353.04853 
L 135.197018 353.223453 
L 404.682924 353.151976 
L 410.541313 353.099138 
L 416.399702 353.220183 
L 592.15138 353.220976 
L 709.319165 353.2239 
L 715.177555 353.081961 
L 721.035944 353.209348 
L 773.761447 353.218809 
L 779.619836 352.173957 
L 785.478226 353.186185 
L 808.911783 353.2239 
L 814.770172 353.14062 
L 826.486951 353.215271 
L 867.495675 353.223613 
L 879.212454 353.18357 
L 896.787622 353.2239 
L 926.079568 353.220766 
L 931.937957 353.001702 
L 937.796346 353.175574 
L 949.513125 353.2239 
L 949.513125 353.2239 
" style="fill:none;stroke:#91e8e1;stroke-linecap:square;"/>
   </g>
   <g id="line2d_37">
    <path clip-path="url(#p2ffaa85bfb)" d="M 76.613125 349.077699 
L 82.471514 353.051142 
L 88.329904 353.2239 
L 94.188293 353.211669 
L 100.046682 353.067959 
L 123.480239 353.222371 
L 398.824534 353.2239 
L 410.541313 353.16135 
L 422.258091 353.2239 
L 773.761447 353.2239 
L 779.619836 352.53962 
L 785.478226 353.186934 
L 826.486951 353.221555 
L 926.079568 353.220903 
L 931.937957 353.071733 
L 943.654736 353.2239 
L 949.513125 353.2239 
L 949.513125 353.2239 
" style="fill:none;stroke:#7cb5ec;stroke-linecap:square;"/>
   </g>
   <g id="line2d_38">
    <path clip-path="url(#p2ffaa85bfb)" d="M 76.613125 349.124167 
L 82.471514 353.059594 
L 88.329904 353.22235 
L 123.480239 353.22297 
L 404.682924 353.184308 
L 416.399702 353.222496 
L 709.319165 353.2239 
L 715.177555 353.1453 
L 726.894333 353.213965 
L 773.761447 353.221663 
L 779.619836 352.460561 
L 785.478226 353.196096 
L 838.203729 353.2239 
L 926.079568 353.22366 
L 931.937957 353.096413 
L 943.654736 353.2239 
L 949.513125 353.2239 
L 949.513125 353.2239 
" style="fill:none;stroke:#434348;stroke-linecap:square;"/>
   </g>
   <g id="line2d_39">
    <path clip-path="url(#p2ffaa85bfb)" d="M 76.613125 349.214483 
L 82.471514 353.060005 
L 88.329904 353.222628 
L 123.480239 353.222083 
L 398.824534 353.2239 
L 410.541313 353.156074 
L 422.258091 353.2239 
L 773.761447 353.220686 
L 779.619836 352.43864 
L 785.478226 353.195058 
L 844.062118 353.2239 
L 926.079568 353.222054 
L 931.937957 353.09822 
L 943.654736 353.2239 
L 949.513125 353.2239 
L 949.513125 353.2239 
" style="fill:none;stroke:#90ed7d;stroke-linecap:square;"/>
   </g>
   <g id="line2d_40">
    <path clip-path="url(#p2ffaa85bfb)" d="M 76.613125 349.014633 
L 82.471514 353.060029 
L 88.329904 353.221454 
L 105.905071 353.150525 
L 129.338628 353.2239 
L 773.761447 353.2239 
L 779.619836 352.497629 
L 785.478226 353.206692 
L 926.079568 353.2239 
L 931.937957 353.077936 
L 943.654736 353.2239 
L 949.513125 353.2239 
L 949.513125 353.2239 
" style="fill:none;stroke:#f7a35c;stroke-linecap:square;"/>
   </g>
   <g id="line2d_41">
    <path clip-path="url(#p2ffaa85bfb)" d="M 76.613125 349.444634 
L 82.471514 353.064644 
L 88.329904 353.2239 
L 105.905071 353.125897 
L 117.62185 353.2239 
L 773.761447 353.2239 
L 779.619836 352.575792 
L 785.478226 353.2239 
L 926.079568 353.2239 
L 931.937957 353.070135 
L 937.796346 353.2239 
L 949.513125 353.2239 
L 949.513125 353.2239 
" style="fill:none;stroke:#8085e9;stroke-linecap:square;"/>
   </g>
   <g id="line2d_42">
    <path clip-path="url(#p2ffaa85bfb)" d="M 76.613125 349.216505 
L 82.471514 353.066065 
L 88.329904 353.222517 
L 123.480239 353.223245 
L 404.682924 353.177393 
L 410.541313 353.144201 
L 422.258091 353.2239 
L 773.761447 353.221982 
L 779.619836 352.46105 
L 785.478226 353.197109 
L 844.062118 353.2239 
L 926.079568 353.223082 
L 931.937957 353.086318 
L 943.654736 353.223687 
L 949.513125 353.2239 
L 949.513125 353.2239 
" style="fill:none;stroke:#f15c80;stroke-linecap:square;"/>
   </g>
   <g id="line2d_43">
    <path clip-path="url(#p2ffaa85bfb)" d="M 76.613125 349.237179 
L 82.471514 353.064759 
L 88.329904 353.22185 
L 135.197018 353.222875 
L 404.682924 353.182652 
L 416.399702 353.223126 
L 709.319165 353.2239 
L 715.177555 353.13735 
L 726.894333 353.215372 
L 773.761447 353.221539 
L 779.619836 352.503601 
L 785.478226 353.194946 
L 849.920508 353.2239 
L 926.079568 353.223165 
L 931.937957 353.088232 
L 943.654736 353.2239 
L 949.513125 353.2239 
L 949.513125 353.2239 
" style="fill:none;stroke:#e4d354;stroke-linecap:square;"/>
   </g>
   <g id="line2d_44">
    <path clip-path="url(#p2ffaa85bfb)" d="M 76.613125 349.405492 
L 82.471514 353.06414 
L 88.329904 353.22211 
L 129.338628 353.2239 
L 773.761447 353.220222 
L 779.619836 352.434137 
L 785.478226 353.194944 
L 838.203729 353.2239 
L 926.079568 353.222713 
L 931.937957 353.085064 
L 943.654736 353.2239 
L 949.513125 353.2239 
L 949.513125 353.2239 
" style="fill:none;stroke:#2b908f;stroke-linecap:square;"/>
   </g>
   <g id="line2d_45">
    <path clip-path="url(#p2ffaa85bfb)" d="M 76.613125 349.104033 
L 82.471514 353.07863 
L 88.329904 353.222673 
L 123.480239 353.222936 
L 404.682924 353.181165 
L 416.399702 353.221058 
L 650.735273 353.2239 
L 773.761447 353.222101 
L 779.619836 352.50631 
L 785.478226 353.198329 
L 849.920508 353.2239 
L 926.079568 353.223006 
L 931.937957 353.08159 
L 943.654736 353.2239 
L 949.513125 353.2239 
L 949.513125 353.2239 
" style="fill:none;stroke:#f45b5b;stroke-linecap:square;"/>
   </g>
   <g id="line2d_46">
    <path clip-path="url(#p2ffaa85bfb)" d="M 76.613125 349.016624 
L 82.471514 353.076825 
L 88.329904 353.221142 
L 123.480239 353.222521 
L 404.682924 353.183069 
L 416.399702 353.222506 
L 709.319165 353.2239 
L 715.177555 353.142887 
L 726.894333 353.212646 
L 773.761447 353.220307 
L 779.619836 352.53604 
L 785.478226 353.195272 
L 855.778897 353.2239 
L 873.354065 353.190813 
L 926.079568 353.222333 
L 931.937957 353.096273 
L 943.654736 353.2239 
L 949.513125 353.2239 
L 949.513125 353.2239 
" style="fill:none;stroke:#91e8e1;stroke-linecap:square;"/>
   </g>
   <g id="line2d_47">
    <path clip-path="url(#p2ffaa85bfb)" d="M 76.613125 349.343221 
L 82.471514 353.039964 
L 88.329904 353.222774 
L 123.480239 353.222398 
L 404.682924 353.185499 
L 416.399702 353.223523 
L 773.761447 353.221778 
L 779.619836 352.462545 
L 785.478226 353.189169 
L 808.911783 353.2239 
L 820.628561 353.2239 
L 949.513125 353.2239 
L 949.513125 353.2239 
" style="fill:none;stroke:#7cb5ec;stroke-linecap:square;"/>
   </g>
   <g id="line2d_48">
    <path clip-path="url(#p2ffaa85bfb)" d="M 76.613125 349.381721 
L 82.471514 353.058159 
L 88.329904 353.216366 
L 94.188293 353.216366 
L 100.046682 353.103361 
L 111.763461 353.208833 
L 158.630575 353.2239 
L 773.761447 353.2239 
L 779.619836 352.65016 
L 785.478226 353.2239 
L 926.079568 353.2239 
L 931.937957 353.076584 
L 943.654736 353.2239 
L 949.513125 353.2239 
L 949.513125 353.2239 
" style="fill:none;stroke:#434348;stroke-linecap:square;"/>
   </g>
   <g id="line2d_49">
    <path clip-path="url(#p2ffaa85bfb)" d="M 76.613125 349.080007 
L 82.471514 353.061631 
L 88.329904 353.222969 
L 123.480239 353.223279 
L 709.319165 353.2239 
L 715.177555 353.144515 
L 726.894333 353.218277 
L 773.761447 353.219871 
L 779.619836 352.434996 
L 785.478226 353.194266 
L 838.203729 353.2239 
L 926.079568 353.222571 
L 931.937957 353.100989 
L 943.654736 353.2239 
L 949.513125 353.2239 
L 949.513125 353.2239 
" style="fill:none;stroke:#90ed7d;stroke-linecap:square;"/>
   </g>
   <g id="line2d_50">
    <path clip-path="url(#p2ffaa85bfb)" d="M 76.613125 349.032153 
L 82.471514 353.090011 
L 88.329904 353.2239 
L 135.197018 353.2239 
L 773.761447 353.219932 
L 779.619836 352.614958 
L 785.478226 353.211764 
L 844.062118 353.2239 
L 949.513125 353.2239 
L 949.513125 353.2239 
" style="fill:none;stroke:#f7a35c;stroke-linecap:square;"/>
   </g>
   <g id="line2d_51">
    <path clip-path="url(#p2ffaa85bfb)" d="M 76.613125 348.944966 
L 82.471514 353.056763 
L 88.329904 353.2239 
L 152.772185 353.2239 
L 773.761447 353.222064 
L 779.619836 352.540192 
L 785.478226 353.201343 
L 849.920508 353.2239 
L 926.079568 353.2239 
L 931.937957 353.084069 
L 943.654736 353.221165 
L 949.513125 353.2239 
L 949.513125 353.2239 
" style="fill:none;stroke:#8085e9;stroke-linecap:square;"/>
   </g>
   <g id="line2d_52">
    <path clip-path="url(#p2ffaa85bfb)" d="M 76.613125 349.181891 
L 82.471514 353.038715 
L 88.329904 353.220339 
L 123.480239 353.2239 
L 773.761447 353.2239 
L 779.619836 352.547868 
L 785.478226 353.202402 
L 832.34534 353.2239 
L 926.079568 353.2239 
L 931.937957 353.066884 
L 943.654736 353.2239 
L 949.513125 353.2239 
L 949.513125 353.2239 
" style="fill:none;stroke:#f15c80;stroke-linecap:square;"/>
   </g>
   <g id="line2d_53">
    <path clip-path="url(#p2ffaa85bfb)" d="M 76.613125 349.172295 
L 82.471514 353.047312 
L 88.329904 353.221539 
L 123.480239 353.222956 
L 662.452051 353.2239 
L 680.027219 353.21248 
L 773.761447 353.221425 
L 779.619836 352.458443 
L 785.478226 353.193128 
L 844.062118 353.2239 
L 926.079568 353.223509 
L 931.937957 353.095524 
L 943.654736 353.2239 
L 949.513125 353.2239 
L 949.513125 353.2239 
" style="fill:none;stroke:#e4d354;stroke-linecap:square;"/>
   </g>
   <g id="line2d_54">
    <path clip-path="url(#p2ffaa85bfb)" d="M 76.613125 349.111671 
L 82.471514 353.048737 
L 88.329904 353.222925 
L 117.62185 353.2239 
L 773.761447 353.221551 
L 779.619836 352.466004 
L 785.478226 353.197556 
L 855.778897 353.2239 
L 879.212454 353.200107 
L 908.5044 353.2239 
L 926.079568 353.222489 
L 931.937957 353.086013 
L 943.654736 353.2239 
L 949.513125 353.2239 
L 949.513125 353.2239 
" style="fill:none;stroke:#2b908f;stroke-linecap:square;"/>
   </g>
   <g id="line2d_55">
    <path clip-path="url(#p2ffaa85bfb)" d="M 76.613125 349.114164 
L 82.471514 353.057158 
L 88.329904 353.22336 
L 135.197018 353.222821 
L 404.682924 353.188093 
L 416.399702 353.2239 
L 773.761447 353.2239 
L 779.619836 352.495779 
L 785.478226 353.201784 
L 867.495675 353.2239 
L 885.070843 353.2239 
L 926.079568 353.223121 
L 931.937957 353.082524 
L 943.654736 353.223096 
L 949.513125 353.2239 
L 949.513125 353.2239 
" style="fill:none;stroke:#f45b5b;stroke-linecap:square;"/>
   </g>
   <g id="line2d_56">
    <path clip-path="url(#p2ffaa85bfb)" d="M 76.613125 349.126653 
L 82.471514 353.039616 
L 88.329904 353.2239 
L 117.62185 353.2239 
L 773.761447 353.221966 
L 779.619836 352.486806 
L 785.478226 353.199773 
L 855.778897 353.2239 
L 873.354065 353.187777 
L 920.221179 353.2239 
L 926.079568 353.222333 
L 931.937957 353.081656 
L 943.654736 353.2239 
L 949.513125 353.2239 
L 949.513125 353.2239 
" style="fill:none;stroke:#91e8e1;stroke-linecap:square;"/>
   </g>
   <g id="line2d_57">
    <path clip-path="url(#p2ffaa85bfb)" d="M 76.613125 349.01677 
L 82.471514 353.064015 
L 88.329904 353.221721 
L 117.62185 353.2239 
L 469.125206 353.2239 
L 773.761447 353.220796 
L 779.619836 352.512936 
L 785.478226 353.202732 
L 855.778897 353.2239 
L 873.354065 353.194679 
L 926.079568 353.222882 
L 931.937957 353.108361 
L 943.654736 353.2239 
L 949.513125 353.2239 
L 949.513125 353.2239 
" style="fill:none;stroke:#7cb5ec;stroke-linecap:square;"/>
   </g>
   <g id="line2d_58">
    <path clip-path="url(#p2ffaa85bfb)" d="M 76.613125 349.085966 
L 82.471514 353.061836 
L 88.329904 353.222271 
L 123.480239 353.223086 
L 662.452051 353.2239 
L 680.027219 353.213558 
L 773.761447 353.22138 
L 779.619836 352.462208 
L 785.478226 353.191366 
L 832.34534 353.2239 
L 926.079568 353.223441 
L 931.937957 353.090418 
L 943.654736 353.223423 
L 949.513125 353.2239 
L 949.513125 353.2239 
" style="fill:none;stroke:#434348;stroke-linecap:square;"/>
   </g>
   <g id="line2d_59">
    <path clip-path="url(#p2ffaa85bfb)" d="M 76.613125 349.018894 
L 82.471514 353.050795 
L 88.329904 353.222097 
L 123.480239 353.222097 
L 398.824534 353.2239 
L 410.541313 353.147738 
L 422.258091 353.2239 
L 773.761447 353.2239 
L 779.619836 352.486717 
L 785.478226 353.194537 
L 838.203729 353.2239 
L 926.079568 353.2239 
L 931.937957 353.095728 
L 943.654736 353.2239 
L 949.513125 353.2239 
L 949.513125 353.2239 
" style="fill:none;stroke:#90ed7d;stroke-linecap:square;"/>
   </g>
   <g id="line2d_60">
    <path clip-path="url(#p2ffaa85bfb)" d="M 76.613125 349.087022 
L 82.471514 353.057144 
L 88.329904 353.223586 
L 94.188293 353.210082 
L 100.046682 353.085407 
L 141.055407 353.2239 
L 187.922521 353.2239 
L 773.761447 353.221571 
L 779.619836 352.481826 
L 785.478226 353.197717 
L 832.34534 353.2239 
L 926.079568 353.2239 
L 931.937957 353.088224 
L 943.654736 353.2239 
L 949.513125 353.2239 
L 949.513125 353.2239 
" style="fill:none;stroke:#f7a35c;stroke-linecap:square;"/>
   </g>
   <g id="line2d_61">
    <path clip-path="url(#p2ffaa85bfb)" d="M 76.613125 349.098831 
L 82.471514 353.05856 
L 88.329904 353.222369 
L 94.188293 353.212418 
L 100.046682 353.083055 
L 129.338628 353.2239 
L 773.761447 353.221991 
L 779.619836 352.465152 
L 785.478226 353.191921 
L 844.062118 353.2239 
L 926.079568 353.221449 
L 931.937957 353.086324 
L 943.654736 353.2239 
L 949.513125 353.2239 
L 949.513125 353.2239 
" style="fill:none;stroke:#8085e9;stroke-linecap:square;"/>
   </g>
   <g id="line2d_62">
    <path clip-path="url(#p2ffaa85bfb)" d="M 76.613125 349.094825 
L 82.471514 353.06137 
L 88.329904 353.222275 
L 152.772185 353.2239 
L 773.761447 353.220641 
L 779.619836 352.441413 
L 785.478226 353.200678 
L 844.062118 353.2239 
L 926.079568 353.2239 
L 931.937957 353.102466 
L 943.654736 353.2239 
L 949.513125 353.2239 
L 949.513125 353.2239 
" style="fill:none;stroke:#f15c80;stroke-linecap:square;"/>
   </g>
   <g id="line2d_63">
    <path clip-path="url(#p2ffaa85bfb)" d="M 76.613125 349.104892 
L 82.471514 353.102638 
L 88.329904 353.219988 
L 146.913796 353.212165 
L 205.497689 353.2239 
L 773.761447 353.2239 
L 779.619836 352.538208 
L 785.478226 353.208997 
L 855.778897 353.2239 
L 873.354065 353.179154 
L 926.079568 353.217778 
L 931.937957 353.106427 
L 943.654736 353.2239 
L 949.513125 353.2239 
L 949.513125 353.2239 
" style="fill:none;stroke:#e4d354;stroke-linecap:square;"/>
   </g>
   <g id="line2d_64">
    <path clip-path="url(#p2ffaa85bfb)" d="M 76.613125 349.07541 
L 82.471514 353.055978 
L 88.329904 353.22279 
L 117.62185 353.2239 
L 469.125206 353.2239 
L 773.761447 353.222445 
L 779.619836 352.512606 
L 785.478226 353.194744 
L 838.203729 353.2239 
L 926.079568 353.223248 
L 931.937957 353.071466 
L 943.654736 353.2239 
L 949.513125 353.2239 
L 949.513125 353.2239 
" style="fill:none;stroke:#2b908f;stroke-linecap:square;"/>
   </g>
   <g id="line2d_65">
    <path clip-path="url(#p2ffaa85bfb)" d="M 76.613125 349.05375 
L 82.471514 353.06811 
L 88.329904 353.2239 
L 111.763461 353.20999 
L 158.630575 353.2239 
L 773.761447 353.222066 
L 779.619836 352.546692 
L 785.478226 353.184699 
L 844.062118 353.2239 
L 926.079568 353.2239 
L 931.937957 353.090648 
L 943.654736 353.2239 
L 949.513125 353.2239 
L 949.513125 353.2239 
" style="fill:none;stroke:#f45b5b;stroke-linecap:square;"/>
   </g>
   <g id="line2d_66">
    <path clip-path="url(#p2ffaa85bfb)" d="M 76.613125 349.094679 
L 82.471514 353.061515 
L 88.329904 353.2239 
L 111.763461 353.200702 
L 141.055407 353.2239 
L 193.78091 353.2239 
L 773.761447 353.2239 
L 779.619836 352.396878 
L 785.478226 353.211808 
L 808.911783 353.2239 
L 814.770172 353.160609 
L 826.486951 353.2239 
L 926.079568 353.2239 
L 931.937957 353.004405 
L 943.654736 353.2239 
L 949.513125 353.2239 
L 949.513125 353.2239 
" style="fill:none;stroke:#91e8e1;stroke-linecap:square;"/>
   </g>
   <g id="line2d_67">
    <path clip-path="url(#p2ffaa85bfb)" d="M 76.613125 349.286547 
L 82.471514 353.04694 
L 88.329904 353.2239 
L 117.62185 353.2239 
L 773.761447 353.2239 
L 779.619836 352.617302 
L 785.478226 353.209338 
L 832.34534 353.2239 
L 926.079568 353.2239 
L 931.937957 352.99798 
L 937.796346 353.2239 
L 949.513125 353.2239 
L 949.513125 353.2239 
" style="fill:none;stroke:#7cb5ec;stroke-linecap:square;"/>
   </g>
   <g id="line2d_68">
    <path clip-path="url(#p2ffaa85bfb)" d="M 76.613125 349.075721 
L 82.471514 353.048189 
L 88.329904 353.222794 
L 117.62185 353.2239 
L 773.761447 353.221605 
L 779.619836 352.477616 
L 785.478226 353.197796 
L 838.203729 353.2239 
L 926.079568 353.22225 
L 931.937957 353.094329 
L 943.654736 353.2239 
L 949.513125 353.2239 
L 949.513125 353.2239 
" style="fill:none;stroke:#434348;stroke-linecap:square;"/>
   </g>
   <g id="line2d_69">
    <path clip-path="url(#p2ffaa85bfb)" d="M 76.613125 349.035982 
L 82.471514 353.042146 
L 88.329904 353.218851 
L 94.188293 353.216327 
L 100.046682 353.095157 
L 211.356078 353.2239 
L 773.761447 353.2239 
L 779.619836 352.514946 
L 785.478226 353.20476 
L 808.911783 353.2239 
L 826.486951 353.219793 
L 926.079568 353.218871 
L 931.937957 353.111877 
L 943.654736 353.2239 
L 949.513125 353.2239 
L 949.513125 353.2239 
" style="fill:none;stroke:#90ed7d;stroke-linecap:square;"/>
   </g>
   <g id="line2d_70">
    <path clip-path="url(#p2ffaa85bfb)" d="M 76.613125 349.091289 
L 82.471514 353.055721 
L 88.329904 353.222111 
L 117.62185 353.2239 
L 357.81581 353.2239 
L 773.761447 353.221228 
L 779.619836 352.455238 
L 785.478226 353.192104 
L 838.203729 353.2239 
L 926.079568 353.222434 
L 931.937957 353.068332 
L 943.654736 353.2239 
L 949.513125 353.2239 
L 949.513125 353.2239 
" style="fill:none;stroke:#f7a35c;stroke-linecap:square;"/>
   </g>
   <g id="line2d_71">
    <path clip-path="url(#p2ffaa85bfb)" d="M 76.613125 349.040592 
L 82.471514 353.048074 
L 88.329904 353.222547 
L 146.913796 353.210375 
L 199.639299 353.2239 
L 773.761447 353.222985 
L 779.619836 352.482939 
L 785.478226 353.194112 
L 844.062118 353.2239 
L 926.079568 353.222701 
L 931.937957 353.079497 
L 943.654736 353.2239 
L 949.513125 353.2239 
L 949.513125 353.2239 
" style="fill:none;stroke:#8085e9;stroke-linecap:square;"/>
   </g>
   <g id="line2d_72">
    <path clip-path="url(#p2ffaa85bfb)" d="M 76.613125 349.475992 
L 82.471514 353.045106 
L 88.329904 353.223119 
L 123.480239 353.222338 
L 398.824534 353.2239 
L 410.541313 353.146479 
L 422.258091 353.2239 
L 773.761447 353.221555 
L 779.619836 352.4356 
L 785.478226 353.196728 
L 855.778897 353.223156 
L 873.354065 353.18993 
L 926.079568 353.223064 
L 931.937957 353.057191 
L 937.796346 353.196156 
L 949.513125 353.2239 
L 949.513125 353.2239 
" style="fill:none;stroke:#f15c80;stroke-linecap:square;"/>
   </g>
   <g id="line2d_73">
    <path clip-path="url(#p2ffaa85bfb)" d="M 76.613125 349.166069 
L 82.471514 353.03385 
L 88.329904 353.223166 
L 111.763461 353.207023 
L 152.772185 353.2239 
L 773.761447 353.222219 
L 779.619836 352.523442 
L 785.478226 353.197576 
L 844.062118 353.2239 
L 926.079568 353.221903 
L 931.937957 353.07599 
L 943.654736 353.2239 
L 949.513125 353.2239 
L 949.513125 353.2239 
" style="fill:none;stroke:#e4d354;stroke-linecap:square;"/>
   </g>
   <g id="line2d_74">
    <path clip-path="url(#p2ffaa85bfb)" d="M 76.613125 349.129165 
L 82.471514 353.060276 
L 88.329904 353.223415 
L 117.62185 353.2239 
L 562.859434 353.221571 
L 709.319165 353.2239 
L 715.177555 353.141167 
L 726.894333 353.212846 
L 773.761447 353.222185 
L 779.619836 352.499931 
L 785.478226 353.199359 
L 855.778897 353.223092 
L 873.354065 353.189058 
L 926.079568 353.222948 
L 931.937957 353.080499 
L 943.654736 353.2239 
L 949.513125 353.2239 
L 949.513125 353.2239 
" style="fill:none;stroke:#2b908f;stroke-linecap:square;"/>
   </g>
   <g id="line2d_75">
    <path clip-path="url(#p2ffaa85bfb)" d="M 76.613125 349.192276 
L 82.471514 353.075139 
L 88.329904 353.2239 
L 123.480239 353.222017 
L 398.824534 353.2239 
L 416.399702 353.2239 
L 773.761447 353.2214 
L 779.619836 352.513973 
L 785.478226 353.20108 
L 867.495675 353.2239 
L 885.070843 353.2239 
L 926.079568 353.2239 
L 931.937957 353.091556 
L 943.654736 353.220666 
L 949.513125 353.2239 
L 949.513125 353.2239 
" style="fill:none;stroke:#f45b5b;stroke-linecap:square;"/>
   </g>
   <g id="line2d_76">
    <path clip-path="url(#p2ffaa85bfb)" d="M 76.613125 348.961787 
L 82.471514 353.180903 
L 94.188293 353.2239 
L 105.905071 352.952598 
L 111.763461 353.221478 
L 381.249367 353.2239 
L 773.761447 353.2239 
L 779.619836 352.421578 
L 785.478226 353.172892 
L 808.911783 353.2239 
L 814.770172 353.062285 
L 820.628561 353.220677 
L 879.212454 353.178615 
L 896.787622 353.2239 
L 926.079568 353.220147 
L 931.937957 353.009003 
L 943.654736 353.2239 
L 949.513125 353.2239 
L 949.513125 353.2239 
" style="fill:none;stroke:#91e8e1;stroke-linecap:square;"/>
   </g>
   <g id="line2d_77">
    <path clip-path="url(#p2ffaa85bfb)" d="M 76.613125 348.779318 
L 82.471514 353.09143 
L 88.329904 353.2239 
L 111.763461 353.205628 
L 152.772185 353.2239 
L 773.761447 353.2239 
L 779.619836 352.593509 
L 785.478226 353.216822 
L 949.513125 353.2239 
L 949.513125 353.2239 
" style="fill:none;stroke:#7cb5ec;stroke-linecap:square;"/>
   </g>
   <g id="line2d_78">
    <path clip-path="url(#p2ffaa85bfb)" d="M 76.613125 349.148091 
L 82.471514 353.066047 
L 88.329904 353.22243 
L 123.480239 353.223585 
L 709.319165 353.2239 
L 715.177555 353.142342 
L 726.894333 353.216945 
L 773.761447 353.219794 
L 779.619836 352.548828 
L 785.478226 353.201002 
L 855.778897 353.2239 
L 873.354065 353.182229 
L 914.362789 353.2239 
L 926.079568 353.222934 
L 931.937957 353.087181 
L 943.654736 353.2239 
L 949.513125 353.2239 
L 949.513125 353.2239 
" style="fill:none;stroke:#434348;stroke-linecap:square;"/>
   </g>
   <g id="line2d_79">
    <path clip-path="url(#p2ffaa85bfb)" d="M 76.613125 349.26586 
L 82.471514 353.052091 
L 88.329904 353.222484 
L 123.480239 353.222742 
L 404.682924 353.183466 
L 416.399702 353.222603 
L 709.319165 353.2239 
L 715.177555 353.143357 
L 726.894333 353.21662 
L 773.761447 353.221933 
L 779.619836 352.450341 
L 785.478226 353.19331 
L 808.911783 353.2239 
L 820.628561 353.223267 
L 949.513125 353.2239 
L 949.513125 353.2239 
" style="fill:none;stroke:#90ed7d;stroke-linecap:square;"/>
   </g>
   <g id="line2d_80">
    <path clip-path="url(#p2ffaa85bfb)" d="M 76.613125 348.982716 
L 82.471514 353.05016 
L 88.329904 353.2239 
L 117.62185 353.2239 
L 773.761447 353.221068 
L 779.619836 352.479194 
L 785.478226 353.20217 
L 855.778897 353.222223 
L 873.354065 353.171559 
L 896.787622 353.2239 
L 926.079568 353.2239 
L 931.937957 353.095001 
L 943.654736 353.2239 
L 949.513125 353.2239 
L 949.513125 353.2239 
" style="fill:none;stroke:#f7a35c;stroke-linecap:square;"/>
   </g>
   <g id="line2d_81">
    <path clip-path="url(#p2ffaa85bfb)" d="M 76.613125 349.149553 
L 82.471514 353.068132 
L 88.329904 353.222545 
L 123.480239 353.2239 
L 773.761447 353.2239 
L 779.619836 352.541973 
L 785.478226 353.187446 
L 808.911783 353.2239 
L 814.770172 353.155324 
L 826.486951 353.219205 
L 926.079568 353.2239 
L 931.937957 353.085497 
L 937.796346 353.211389 
L 949.513125 353.2239 
L 949.513125 353.2239 
" style="fill:none;stroke:#8085e9;stroke-linecap:square;"/>
   </g>
   <g id="line2d_82">
    <path clip-path="url(#p2ffaa85bfb)" d="M 76.613125 349.064287 
L 82.471514 353.052578 
L 88.329904 353.221792 
L 117.62185 353.2239 
L 773.761447 353.221657 
L 779.619836 352.489521 
L 785.478226 353.197329 
L 844.062118 353.2239 
L 926.079568 353.222056 
L 931.937957 353.086802 
L 943.654736 353.2239 
L 949.513125 353.2239 
L 949.513125 353.2239 
" style="fill:none;stroke:#f15c80;stroke-linecap:square;"/>
   </g>
   <g id="line2d_83">
    <path clip-path="url(#p2ffaa85bfb)" d="M 76.613125 349.361778 
L 82.471514 353.055383 
L 88.329904 353.222754 
L 111.763461 353.207851 
L 152.772185 353.2239 
L 773.761447 353.214741 
L 779.619836 352.496752 
L 785.478226 353.189539 
L 808.911783 353.2239 
L 814.770172 353.161441 
L 826.486951 353.222526 
L 926.079568 353.2239 
L 931.937957 353.099959 
L 943.654736 353.2239 
L 949.513125 353.2239 
L 949.513125 353.2239 
" style="fill:none;stroke:#e4d354;stroke-linecap:square;"/>
   </g>
   <g id="line2d_84">
    <path clip-path="url(#p2ffaa85bfb)" d="M 76.613125 349.081699 
L 82.471514 353.04768 
L 88.329904 353.222111 
L 117.62185 353.2239 
L 668.31044 353.18821 
L 691.743997 353.223556 
L 773.761447 353.220885 
L 779.619836 352.471302 
L 785.478226 353.196733 
L 849.920508 353.2239 
L 926.079568 353.222938 
L 931.937957 353.088653 
L 943.654736 353.2239 
L 949.513125 353.2239 
L 949.513125 353.2239 
" style="fill:none;stroke:#2b908f;stroke-linecap:square;"/>
   </g>
   <g id="line2d_85">
    <path clip-path="url(#p2ffaa85bfb)" d="M 76.613125 349.087314 
L 82.471514 353.073113 
L 88.329904 353.2239 
L 94.188293 353.203795 
L 100.046682 353.047982 
L 117.62185 353.2239 
L 375.390977 353.221338 
L 633.160105 353.2239 
L 773.761447 353.2239 
L 779.619836 352.517973 
L 785.478226 353.209059 
L 808.911783 353.2239 
L 814.770172 353.157801 
L 826.486951 353.2239 
L 949.513125 353.2239 
L 949.513125 353.2239 
" style="fill:none;stroke:#f45b5b;stroke-linecap:square;"/>
   </g>
   <g id="line2d_86">
    <path clip-path="url(#p2ffaa85bfb)" d="M 76.613125 349.052421 
L 82.471514 353.061932 
L 88.329904 353.22326 
L 117.62185 353.2239 
L 621.443326 353.223118 
L 773.761447 353.222881 
L 779.619836 352.511594 
L 785.478226 353.193562 
L 867.495675 353.2239 
L 885.070843 353.2239 
L 926.079568 353.222381 
L 931.937957 353.066452 
L 943.654736 353.2239 
L 949.513125 353.2239 
L 949.513125 353.2239 
" style="fill:none;stroke:#91e8e1;stroke-linecap:square;"/>
   </g>
   <g id="line2d_87">
    <path clip-path="url(#p2ffaa85bfb)" d="M 76.613125 349.111836 
L 82.471514 353.058131 
L 88.329904 353.222386 
L 129.338628 353.2239 
L 773.761447 353.221919 
L 779.619836 352.478939 
L 785.478226 353.199158 
L 808.911783 353.2239 
L 814.770172 353.163374 
L 826.486951 353.217935 
L 926.079568 353.223218 
L 931.937957 353.093821 
L 943.654736 353.2239 
L 949.513125 353.2239 
L 949.513125 353.2239 
" style="fill:none;stroke:#7cb5ec;stroke-linecap:square;"/>
   </g>
   <g id="line2d_88">
    <path clip-path="url(#p2ffaa85bfb)" d="M 76.613125 348.99394 
L 82.471514 353.067064 
L 88.329904 353.221857 
L 141.055407 353.2239 
L 217.214467 353.2239 
L 533.567487 353.2239 
L 773.761447 353.220025 
L 779.619836 352.542857 
L 785.478226 353.192445 
L 838.203729 353.2239 
L 926.079568 353.221443 
L 931.937957 353.103871 
L 943.654736 353.2239 
L 949.513125 353.2239 
L 949.513125 353.2239 
" style="fill:none;stroke:#434348;stroke-linecap:square;"/>
   </g>
   <g id="line2d_89">
    <path clip-path="url(#p2ffaa85bfb)" d="M 76.613125 349.351406 
L 82.471514 353.068188 
L 88.329904 353.2239 
L 94.188293 353.19682 
L 100.046682 353.041107 
L 123.480239 353.2239 
L 773.761447 353.215004 
L 779.619836 352.603661 
L 785.478226 353.187557 
L 832.34534 353.2239 
L 926.079568 353.2239 
L 931.937957 352.995487 
L 937.796346 353.19812 
L 949.513125 353.2239 
L 949.513125 353.2239 
" style="fill:none;stroke:#90ed7d;stroke-linecap:square;"/>
   </g>
   <g id="line2d_90">
    <path clip-path="url(#p2ffaa85bfb)" d="M 32.968125 353.2239 
L 993.158125 353.2239 
" style="fill:none;stroke:#dedede;stroke-linecap:square;stroke-width:2;"/>
   </g>
   <g id="text_17">
    <!-- Fastp: Read N Content -->
    <defs>
     <path d="M 9.8125 72.90625 
L 51.703125 72.90625 
L 51.703125 64.59375 
L 19.671875 64.59375 
L 19.671875 43.109375 
L 48.578125 43.109375 
L 48.578125 34.8125 
L 19.671875 34.8125 
L 19.671875 0 
L 9.8125 0 
z
" id="DejaVuSans-70"/>
     <path d="M 18.109375 8.203125 
L 18.109375 -20.796875 
L 9.078125 -20.796875 
L 9.078125 54.6875 
L 18.109375 54.6875 
L 18.109375 46.390625 
Q 20.953125 51.265625 25.265625 53.625 
Q 29.59375 56 35.59375 56 
Q 45.5625 56 51.78125 48.09375 
Q 58.015625 40.1875 58.015625 27.296875 
Q 58.015625 14.40625 51.78125 6.484375 
Q 45.5625 -1.421875 35.59375 -1.421875 
Q 29.59375 -1.421875 25.265625 0.953125 
Q 20.953125 3.328125 18.109375 8.203125 
z
M 48.6875 27.296875 
Q 48.6875 37.203125 44.609375 42.84375 
Q 40.53125 48.484375 33.40625 48.484375 
Q 26.265625 48.484375 22.1875 42.84375 
Q 18.109375 37.203125 18.109375 27.296875 
Q 18.109375 17.390625 22.1875 11.75 
Q 26.265625 6.109375 33.40625 6.109375 
Q 40.53125 6.109375 44.609375 11.75 
Q 48.6875 17.390625 48.6875 27.296875 
z
" id="DejaVuSans-112"/>
     <path d="M 9.8125 72.90625 
L 23.09375 72.90625 
L 55.421875 11.921875 
L 55.421875 72.90625 
L 64.984375 72.90625 
L 64.984375 0 
L 51.703125 0 
L 19.390625 60.984375 
L 19.390625 0 
L 9.8125 0 
z
" id="DejaVuSans-78"/>
    </defs>
    <g transform="translate(422.606875 19.3575)scale(0.16 -0.16)">
     <use xlink:href="#DejaVuSans-70"/>
     <use x="57.378906" xlink:href="#DejaVuSans-97"/>
     <use x="118.658203" xlink:href="#DejaVuSans-115"/>
     <use x="170.757812" xlink:href="#DejaVuSans-116"/>
     <use x="209.966797" xlink:href="#DejaVuSans-112"/>
     <use x="273.443359" xlink:href="#DejaVuSans-58"/>
     <use x="307.134766" xlink:href="#DejaVuSans-32"/>
     <use x="338.921875" xlink:href="#DejaVuSans-82"/>
     <use x="408.341797" xlink:href="#DejaVuSans-101"/>
     <use x="469.865234" xlink:href="#DejaVuSans-97"/>
     <use x="531.144531" xlink:href="#DejaVuSans-100"/>
     <use x="594.621094" xlink:href="#DejaVuSans-32"/>
     <use x="626.408203" xlink:href="#DejaVuSans-78"/>
     <use x="701.212891" xlink:href="#DejaVuSans-32"/>
     <use x="733" xlink:href="#DejaVuSans-67"/>
     <use x="802.824219" xlink:href="#DejaVuSans-111"/>
     <use x="864.005859" xlink:href="#DejaVuSans-110"/>
     <use x="927.384766" xlink:href="#DejaVuSans-116"/>
     <use x="966.59375" xlink:href="#DejaVuSans-101"/>
     <use x="1028.117188" xlink:href="#DejaVuSans-110"/>
     <use x="1091.496094" xlink:href="#DejaVuSans-116"/>
    </g>
   </g>
  </g>
 </g>
 <defs>
  <clipPath id="p2ffaa85bfb">
   <rect height="317.968" width="960.19" x="32.968125" y="35.2559"/>
  </clipPath>
 </defs>
</svg>
