<?xml version="1.0" encoding="utf-8" standalone="no"?>
<!DOCTYPE svg PUBLIC "-//W3C//DTD SVG 1.1//EN"
  "http://www.w3.org/Graphics/SVG/1.1/DTD/svg11.dtd">
<!-- Created with matplotlib (https://matplotlib.org/) -->
<svg height="388.844525pt" version="1.1" viewBox="0 0 1000.358125 388.844525" width="1000.358125pt" xmlns="http://www.w3.org/2000/svg" xmlns:xlink="http://www.w3.org/1999/xlink">
 <defs>
  <style type="text/css">
*{stroke-linecap:butt;stroke-linejoin:round;}
  </style>
 </defs>
 <g id="figure_1">
  <g id="axes_1">
   <g id="patch_1">
    <path d="M 32.968125 353.2239 
L 993.158125 353.2239 
L 993.158125 35.2559 
L 32.968125 35.2559 
z
" style="fill:#ffffff;"/>
   </g>
   <g id="matplotlib.axis_1">
    <g id="xtick_1">
     <g id="text_1">
      <!-- 0 -->
      <defs>
       <path d="M 31.78125 66.40625 
Q 24.171875 66.40625 20.328125 58.90625 
Q 16.5 51.421875 16.5 36.375 
Q 16.5 21.390625 20.328125 13.890625 
Q 24.171875 6.390625 31.78125 6.390625 
Q 39.453125 6.390625 43.28125 13.890625 
Q 47.125 21.390625 47.125 36.375 
Q 47.125 51.421875 43.28125 58.90625 
Q 39.453125 66.40625 31.78125 66.40625 
z
M 31.78125 74.21875 
Q 44.046875 74.21875 50.515625 64.515625 
Q 56.984375 54.828125 56.984375 36.375 
Q 56.984375 17.96875 50.515625 8.265625 
Q 44.046875 -1.421875 31.78125 -1.421875 
Q 19.53125 -1.421875 13.0625 8.265625 
Q 6.59375 17.96875 6.59375 36.375 
Q 6.59375 54.828125 13.0625 64.515625 
Q 19.53125 74.21875 31.78125 74.21875 
z
" id="DejaVuSans-48"/>
      </defs>
      <g transform="translate(68.209736 366.30265)scale(0.08 -0.08)">
       <use xlink:href="#DejaVuSans-48"/>
      </g>
     </g>
    </g>
    <g id="xtick_2">
     <g id="text_2">
      <!-- 20 -->
      <defs>
       <path d="M 19.1875 8.296875 
L 53.609375 8.296875 
L 53.609375 0 
L 7.328125 0 
L 7.328125 8.296875 
Q 12.9375 14.109375 22.625 23.890625 
Q 32.328125 33.6875 34.8125 36.53125 
Q 39.546875 41.84375 41.421875 45.53125 
Q 43.3125 49.21875 43.3125 52.78125 
Q 43.3125 58.59375 39.234375 62.25 
Q 35.15625 65.921875 28.609375 65.921875 
Q 23.96875 65.921875 18.8125 64.3125 
Q 13.671875 62.703125 7.8125 59.421875 
L 7.8125 69.390625 
Q 13.765625 71.78125 18.9375 73 
Q 24.125 74.21875 28.421875 74.21875 
Q 39.75 74.21875 46.484375 68.546875 
Q 53.21875 62.890625 53.21875 53.421875 
Q 53.21875 48.921875 51.53125 44.890625 
Q 49.859375 40.875 45.40625 35.40625 
Q 44.1875 33.984375 37.640625 27.21875 
Q 31.109375 20.453125 19.1875 8.296875 
z
" id="DejaVuSans-50"/>
      </defs>
      <g transform="translate(182.832521 366.30265)scale(0.08 -0.08)">
       <use xlink:href="#DejaVuSans-50"/>
       <use x="63.623047" xlink:href="#DejaVuSans-48"/>
      </g>
     </g>
    </g>
    <g id="xtick_3">
     <g id="text_3">
      <!-- 40 -->
      <defs>
       <path d="M 37.796875 64.3125 
L 12.890625 25.390625 
L 37.796875 25.390625 
z
M 35.203125 72.90625 
L 47.609375 72.90625 
L 47.609375 25.390625 
L 58.015625 25.390625 
L 58.015625 17.1875 
L 47.609375 17.1875 
L 47.609375 0 
L 37.796875 0 
L 37.796875 17.1875 
L 4.890625 17.1875 
L 4.890625 26.703125 
z
" id="DejaVuSans-52"/>
      </defs>
      <g transform="translate(300.000306 366.30265)scale(0.08 -0.08)">
       <use xlink:href="#DejaVuSans-52"/>
       <use x="63.623047" xlink:href="#DejaVuSans-48"/>
      </g>
     </g>
    </g>
    <g id="xtick_4">
     <g id="text_4">
      <!-- 60 -->
      <defs>
       <path d="M 33.015625 40.375 
Q 26.375 40.375 22.484375 35.828125 
Q 18.609375 31.296875 18.609375 23.390625 
Q 18.609375 15.53125 22.484375 10.953125 
Q 26.375 6.390625 33.015625 6.390625 
Q 39.65625 6.390625 43.53125 10.953125 
Q 47.40625 15.53125 47.40625 23.390625 
Q 47.40625 31.296875 43.53125 35.828125 
Q 39.65625 40.375 33.015625 40.375 
z
M 52.59375 71.296875 
L 52.59375 62.3125 
Q 48.875 64.0625 45.09375 64.984375 
Q 41.3125 65.921875 37.59375 65.921875 
Q 27.828125 65.921875 22.671875 59.328125 
Q 17.53125 52.734375 16.796875 39.40625 
Q 19.671875 43.65625 24.015625 45.921875 
Q 28.375 48.1875 33.59375 48.1875 
Q 44.578125 48.1875 50.953125 41.515625 
Q 57.328125 34.859375 57.328125 23.390625 
Q 57.328125 12.15625 50.6875 5.359375 
Q 44.046875 -1.421875 33.015625 -1.421875 
Q 20.359375 -1.421875 13.671875 8.265625 
Q 6.984375 17.96875 6.984375 36.375 
Q 6.984375 53.65625 15.1875 63.9375 
Q 23.390625 74.21875 37.203125 74.21875 
Q 40.921875 74.21875 44.703125 73.484375 
Q 48.484375 72.75 52.59375 71.296875 
z
" id="DejaVuSans-54"/>
      </defs>
      <g transform="translate(417.168091 366.30265)scale(0.08 -0.08)">
       <use xlink:href="#DejaVuSans-54"/>
       <use x="63.623047" xlink:href="#DejaVuSans-48"/>
      </g>
     </g>
    </g>
    <g id="xtick_5">
     <g id="text_5">
      <!-- 80 -->
      <defs>
       <path d="M 31.78125 34.625 
Q 24.75 34.625 20.71875 30.859375 
Q 16.703125 27.09375 16.703125 20.515625 
Q 16.703125 13.921875 20.71875 10.15625 
Q 24.75 6.390625 31.78125 6.390625 
Q 38.8125 6.390625 42.859375 10.171875 
Q 46.921875 13.96875 46.921875 20.515625 
Q 46.921875 27.09375 42.890625 30.859375 
Q 38.875 34.625 31.78125 34.625 
z
M 21.921875 38.8125 
Q 15.578125 40.375 12.03125 44.71875 
Q 8.5 49.078125 8.5 55.328125 
Q 8.5 64.0625 14.71875 69.140625 
Q 20.953125 74.21875 31.78125 74.21875 
Q 42.671875 74.21875 48.875 69.140625 
Q 55.078125 64.0625 55.078125 55.328125 
Q 55.078125 49.078125 51.53125 44.71875 
Q 48 40.375 41.703125 38.8125 
Q 48.828125 37.15625 52.796875 32.3125 
Q 56.78125 27.484375 56.78125 20.515625 
Q 56.78125 9.90625 50.3125 4.234375 
Q 43.84375 -1.421875 31.78125 -1.421875 
Q 19.734375 -1.421875 13.25 4.234375 
Q 6.78125 9.90625 6.78125 20.515625 
Q 6.78125 27.484375 10.78125 32.3125 
Q 14.796875 37.15625 21.921875 38.8125 
z
M 18.3125 54.390625 
Q 18.3125 48.734375 21.84375 45.5625 
Q 25.390625 42.390625 31.78125 42.390625 
Q 38.140625 42.390625 41.71875 45.5625 
Q 45.3125 48.734375 45.3125 54.390625 
Q 45.3125 60.0625 41.71875 63.234375 
Q 38.140625 66.40625 31.78125 66.40625 
Q 25.390625 66.40625 21.84375 63.234375 
Q 18.3125 60.0625 18.3125 54.390625 
z
" id="DejaVuSans-56"/>
      </defs>
      <g transform="translate(534.335877 366.30265)scale(0.08 -0.08)">
       <use xlink:href="#DejaVuSans-56"/>
       <use x="63.623047" xlink:href="#DejaVuSans-48"/>
      </g>
     </g>
    </g>
    <g id="xtick_6">
     <g id="text_6">
      <!-- 100 -->
      <defs>
       <path d="M 12.40625 8.296875 
L 28.515625 8.296875 
L 28.515625 63.921875 
L 10.984375 60.40625 
L 10.984375 69.390625 
L 28.421875 72.90625 
L 38.28125 72.90625 
L 38.28125 8.296875 
L 54.390625 8.296875 
L 54.390625 0 
L 12.40625 0 
z
" id="DejaVuSans-49"/>
      </defs>
      <g transform="translate(648.958662 366.30265)scale(0.08 -0.08)">
       <use xlink:href="#DejaVuSans-49"/>
       <use x="63.623047" xlink:href="#DejaVuSans-48"/>
       <use x="127.246094" xlink:href="#DejaVuSans-48"/>
      </g>
     </g>
    </g>
    <g id="xtick_7">
     <g id="text_7">
      <!-- 120 -->
      <g transform="translate(766.126447 366.30265)scale(0.08 -0.08)">
       <use xlink:href="#DejaVuSans-49"/>
       <use x="63.623047" xlink:href="#DejaVuSans-50"/>
       <use x="127.246094" xlink:href="#DejaVuSans-48"/>
      </g>
     </g>
    </g>
    <g id="xtick_8">
     <g id="text_8">
      <!-- 140 -->
      <g transform="translate(883.294232 366.30265)scale(0.08 -0.08)">
       <use xlink:href="#DejaVuSans-49"/>
       <use x="63.623047" xlink:href="#DejaVuSans-52"/>
       <use x="127.246094" xlink:href="#DejaVuSans-48"/>
      </g>
     </g>
    </g>
    <g id="text_9">
     <!-- Read Position -->
     <defs>
      <path d="M 44.390625 34.1875 
Q 47.5625 33.109375 50.5625 29.59375 
Q 53.5625 26.078125 56.59375 19.921875 
L 66.609375 0 
L 56 0 
L 46.6875 18.703125 
Q 43.0625 26.03125 39.671875 28.421875 
Q 36.28125 30.8125 30.421875 30.8125 
L 19.671875 30.8125 
L 19.671875 0 
L 9.8125 0 
L 9.8125 72.90625 
L 32.078125 72.90625 
Q 44.578125 72.90625 50.734375 67.671875 
Q 56.890625 62.453125 56.890625 51.90625 
Q 56.890625 45.015625 53.6875 40.46875 
Q 50.484375 35.9375 44.390625 34.1875 
z
M 19.671875 64.796875 
L 19.671875 38.921875 
L 32.078125 38.921875 
Q 39.203125 38.921875 42.84375 42.21875 
Q 46.484375 45.515625 46.484375 51.90625 
Q 46.484375 58.296875 42.84375 61.546875 
Q 39.203125 64.796875 32.078125 64.796875 
z
" id="DejaVuSans-82"/>
      <path d="M 56.203125 29.59375 
L 56.203125 25.203125 
L 14.890625 25.203125 
Q 15.484375 15.921875 20.484375 11.0625 
Q 25.484375 6.203125 34.421875 6.203125 
Q 39.59375 6.203125 44.453125 7.46875 
Q 49.3125 8.734375 54.109375 11.28125 
L 54.109375 2.78125 
Q 49.265625 0.734375 44.1875 -0.34375 
Q 39.109375 -1.421875 33.890625 -1.421875 
Q 20.796875 -1.421875 13.15625 6.1875 
Q 5.515625 13.8125 5.515625 26.8125 
Q 5.515625 40.234375 12.765625 48.109375 
Q 20.015625 56 32.328125 56 
Q 43.359375 56 49.78125 48.890625 
Q 56.203125 41.796875 56.203125 29.59375 
z
M 47.21875 32.234375 
Q 47.125 39.59375 43.09375 43.984375 
Q 39.0625 48.390625 32.421875 48.390625 
Q 24.90625 48.390625 20.390625 44.140625 
Q 15.875 39.890625 15.1875 32.171875 
z
" id="DejaVuSans-101"/>
      <path d="M 34.28125 27.484375 
Q 23.390625 27.484375 19.1875 25 
Q 14.984375 22.515625 14.984375 16.5 
Q 14.984375 11.71875 18.140625 8.90625 
Q 21.296875 6.109375 26.703125 6.109375 
Q 34.1875 6.109375 38.703125 11.40625 
Q 43.21875 16.703125 43.21875 25.484375 
L 43.21875 27.484375 
z
M 52.203125 31.203125 
L 52.203125 0 
L 43.21875 0 
L 43.21875 8.296875 
Q 40.140625 3.328125 35.546875 0.953125 
Q 30.953125 -1.421875 24.3125 -1.421875 
Q 15.921875 -1.421875 10.953125 3.296875 
Q 6 8.015625 6 15.921875 
Q 6 25.140625 12.171875 29.828125 
Q 18.359375 34.515625 30.609375 34.515625 
L 43.21875 34.515625 
L 43.21875 35.40625 
Q 43.21875 41.609375 39.140625 45 
Q 35.0625 48.390625 27.6875 48.390625 
Q 23 48.390625 18.546875 47.265625 
Q 14.109375 46.140625 10.015625 43.890625 
L 10.015625 52.203125 
Q 14.9375 54.109375 19.578125 55.046875 
Q 24.21875 56 28.609375 56 
Q 40.484375 56 46.34375 49.84375 
Q 52.203125 43.703125 52.203125 31.203125 
z
" id="DejaVuSans-97"/>
      <path d="M 45.40625 46.390625 
L 45.40625 75.984375 
L 54.390625 75.984375 
L 54.390625 0 
L 45.40625 0 
L 45.40625 8.203125 
Q 42.578125 3.328125 38.25 0.953125 
Q 33.9375 -1.421875 27.875 -1.421875 
Q 17.96875 -1.421875 11.734375 6.484375 
Q 5.515625 14.40625 5.515625 27.296875 
Q 5.515625 40.1875 11.734375 48.09375 
Q 17.96875 56 27.875 56 
Q 33.9375 56 38.25 53.625 
Q 42.578125 51.265625 45.40625 46.390625 
z
M 14.796875 27.296875 
Q 14.796875 17.390625 18.875 11.75 
Q 22.953125 6.109375 30.078125 6.109375 
Q 37.203125 6.109375 41.296875 11.75 
Q 45.40625 17.390625 45.40625 27.296875 
Q 45.40625 37.203125 41.296875 42.84375 
Q 37.203125 48.484375 30.078125 48.484375 
Q 22.953125 48.484375 18.875 42.84375 
Q 14.796875 37.203125 14.796875 27.296875 
z
" id="DejaVuSans-100"/>
      <path id="DejaVuSans-32"/>
      <path d="M 19.671875 64.796875 
L 19.671875 37.40625 
L 32.078125 37.40625 
Q 38.96875 37.40625 42.71875 40.96875 
Q 46.484375 44.53125 46.484375 51.125 
Q 46.484375 57.671875 42.71875 61.234375 
Q 38.96875 64.796875 32.078125 64.796875 
z
M 9.8125 72.90625 
L 32.078125 72.90625 
Q 44.34375 72.90625 50.609375 67.359375 
Q 56.890625 61.8125 56.890625 51.125 
Q 56.890625 40.328125 50.609375 34.8125 
Q 44.34375 29.296875 32.078125 29.296875 
L 19.671875 29.296875 
L 19.671875 0 
L 9.8125 0 
z
" id="DejaVuSans-80"/>
      <path d="M 30.609375 48.390625 
Q 23.390625 48.390625 19.1875 42.75 
Q 14.984375 37.109375 14.984375 27.296875 
Q 14.984375 17.484375 19.15625 11.84375 
Q 23.34375 6.203125 30.609375 6.203125 
Q 37.796875 6.203125 41.984375 11.859375 
Q 46.1875 17.53125 46.1875 27.296875 
Q 46.1875 37.015625 41.984375 42.703125 
Q 37.796875 48.390625 30.609375 48.390625 
z
M 30.609375 56 
Q 42.328125 56 49.015625 48.375 
Q 55.71875 40.765625 55.71875 27.296875 
Q 55.71875 13.875 49.015625 6.21875 
Q 42.328125 -1.421875 30.609375 -1.421875 
Q 18.84375 -1.421875 12.171875 6.21875 
Q 5.515625 13.875 5.515625 27.296875 
Q 5.515625 40.765625 12.171875 48.375 
Q 18.84375 56 30.609375 56 
z
" id="DejaVuSans-111"/>
      <path d="M 44.28125 53.078125 
L 44.28125 44.578125 
Q 40.484375 46.53125 36.375 47.5 
Q 32.28125 48.484375 27.875 48.484375 
Q 21.1875 48.484375 17.84375 46.4375 
Q 14.5 44.390625 14.5 40.28125 
Q 14.5 37.15625 16.890625 35.375 
Q 19.28125 33.59375 26.515625 31.984375 
L 29.59375 31.296875 
Q 39.15625 29.25 43.1875 25.515625 
Q 47.21875 21.78125 47.21875 15.09375 
Q 47.21875 7.46875 41.1875 3.015625 
Q 35.15625 -1.421875 24.609375 -1.421875 
Q 20.21875 -1.421875 15.453125 -0.5625 
Q 10.6875 0.296875 5.421875 2 
L 5.421875 11.28125 
Q 10.40625 8.6875 15.234375 7.390625 
Q 20.0625 6.109375 24.8125 6.109375 
Q 31.15625 6.109375 34.5625 8.28125 
Q 37.984375 10.453125 37.984375 14.40625 
Q 37.984375 18.0625 35.515625 20.015625 
Q 33.0625 21.96875 24.703125 23.78125 
L 21.578125 24.515625 
Q 13.234375 26.265625 9.515625 29.90625 
Q 5.8125 33.546875 5.8125 39.890625 
Q 5.8125 47.609375 11.28125 51.796875 
Q 16.75 56 26.8125 56 
Q 31.78125 56 36.171875 55.265625 
Q 40.578125 54.546875 44.28125 53.078125 
z
" id="DejaVuSans-115"/>
      <path d="M 9.421875 54.6875 
L 18.40625 54.6875 
L 18.40625 0 
L 9.421875 0 
z
M 9.421875 75.984375 
L 18.40625 75.984375 
L 18.40625 64.59375 
L 9.421875 64.59375 
z
" id="DejaVuSans-105"/>
      <path d="M 18.3125 70.21875 
L 18.3125 54.6875 
L 36.8125 54.6875 
L 36.8125 47.703125 
L 18.3125 47.703125 
L 18.3125 18.015625 
Q 18.3125 11.328125 20.140625 9.421875 
Q 21.96875 7.515625 27.59375 7.515625 
L 36.8125 7.515625 
L 36.8125 0 
L 27.59375 0 
Q 17.1875 0 13.234375 3.875 
Q 9.28125 7.765625 9.28125 18.015625 
L 9.28125 47.703125 
L 2.6875 47.703125 
L 2.6875 54.6875 
L 9.28125 54.6875 
L 9.28125 70.21875 
z
" id="DejaVuSans-116"/>
      <path d="M 54.890625 33.015625 
L 54.890625 0 
L 45.90625 0 
L 45.90625 32.71875 
Q 45.90625 40.484375 42.875 44.328125 
Q 39.84375 48.1875 33.796875 48.1875 
Q 26.515625 48.1875 22.3125 43.546875 
Q 18.109375 38.921875 18.109375 30.90625 
L 18.109375 0 
L 9.078125 0 
L 9.078125 54.6875 
L 18.109375 54.6875 
L 18.109375 46.1875 
Q 21.34375 51.125 25.703125 53.5625 
Q 30.078125 56 35.796875 56 
Q 45.21875 56 50.046875 50.171875 
Q 54.890625 44.34375 54.890625 33.015625 
z
" id="DejaVuSans-110"/>
     </defs>
     <g transform="translate(479.045156 379.564837)scale(0.1 -0.1)">
      <use xlink:href="#DejaVuSans-82"/>
      <use x="69.419922" xlink:href="#DejaVuSans-101"/>
      <use x="130.943359" xlink:href="#DejaVuSans-97"/>
      <use x="192.222656" xlink:href="#DejaVuSans-100"/>
      <use x="255.699219" xlink:href="#DejaVuSans-32"/>
      <use x="287.486328" xlink:href="#DejaVuSans-80"/>
      <use x="347.742188" xlink:href="#DejaVuSans-111"/>
      <use x="408.923828" xlink:href="#DejaVuSans-115"/>
      <use x="461.023438" xlink:href="#DejaVuSans-105"/>
      <use x="488.806641" xlink:href="#DejaVuSans-116"/>
      <use x="528.015625" xlink:href="#DejaVuSans-105"/>
      <use x="555.798828" xlink:href="#DejaVuSans-111"/>
      <use x="616.980469" xlink:href="#DejaVuSans-110"/>
     </g>
    </g>
   </g>
   <g id="matplotlib.axis_2">
    <g id="ytick_1">
     <g id="line2d_1">
      <path clip-path="url(#p3ca17c1a2a)" d="M 32.968125 353.2239 
L 993.158125 353.2239 
" style="fill:none;stroke:#dedede;stroke-linecap:square;"/>
     </g>
     <g id="text_10">
      <!-- 0 -->
      <g transform="translate(20.878125 356.263275)scale(0.08 -0.08)">
       <use xlink:href="#DejaVuSans-48"/>
      </g>
     </g>
    </g>
    <g id="ytick_2">
     <g id="line2d_2">
      <path clip-path="url(#p3ca17c1a2a)" d="M 32.968125 289.6303 
L 993.158125 289.6303 
" style="fill:none;stroke:#dedede;stroke-linecap:square;"/>
     </g>
     <g id="text_11">
      <!-- 1 -->
      <g transform="translate(20.878125 292.669675)scale(0.08 -0.08)">
       <use xlink:href="#DejaVuSans-49"/>
      </g>
     </g>
    </g>
    <g id="ytick_3">
     <g id="line2d_3">
      <path clip-path="url(#p3ca17c1a2a)" d="M 32.968125 226.0367 
L 993.158125 226.0367 
" style="fill:none;stroke:#dedede;stroke-linecap:square;"/>
     </g>
     <g id="text_12">
      <!-- 2 -->
      <g transform="translate(20.878125 229.076075)scale(0.08 -0.08)">
       <use xlink:href="#DejaVuSans-50"/>
      </g>
     </g>
    </g>
    <g id="ytick_4">
     <g id="line2d_4">
      <path clip-path="url(#p3ca17c1a2a)" d="M 32.968125 162.4431 
L 993.158125 162.4431 
" style="fill:none;stroke:#dedede;stroke-linecap:square;"/>
     </g>
     <g id="text_13">
      <!-- 3 -->
      <defs>
       <path d="M 40.578125 39.3125 
Q 47.65625 37.796875 51.625 33 
Q 55.609375 28.21875 55.609375 21.1875 
Q 55.609375 10.40625 48.1875 4.484375 
Q 40.765625 -1.421875 27.09375 -1.421875 
Q 22.515625 -1.421875 17.65625 -0.515625 
Q 12.796875 0.390625 7.625 2.203125 
L 7.625 11.71875 
Q 11.71875 9.328125 16.59375 8.109375 
Q 21.484375 6.890625 26.8125 6.890625 
Q 36.078125 6.890625 40.9375 10.546875 
Q 45.796875 14.203125 45.796875 21.1875 
Q 45.796875 27.640625 41.28125 31.265625 
Q 36.765625 34.90625 28.71875 34.90625 
L 20.21875 34.90625 
L 20.21875 43.015625 
L 29.109375 43.015625 
Q 36.375 43.015625 40.234375 45.921875 
Q 44.09375 48.828125 44.09375 54.296875 
Q 44.09375 59.90625 40.109375 62.90625 
Q 36.140625 65.921875 28.71875 65.921875 
Q 24.65625 65.921875 20.015625 65.03125 
Q 15.375 64.15625 9.8125 62.3125 
L 9.8125 71.09375 
Q 15.4375 72.65625 20.34375 73.4375 
Q 25.25 74.21875 29.59375 74.21875 
Q 40.828125 74.21875 47.359375 69.109375 
Q 53.90625 64.015625 53.90625 55.328125 
Q 53.90625 49.265625 50.4375 45.09375 
Q 46.96875 40.921875 40.578125 39.3125 
z
" id="DejaVuSans-51"/>
      </defs>
      <g transform="translate(20.878125 165.482475)scale(0.08 -0.08)">
       <use xlink:href="#DejaVuSans-51"/>
      </g>
     </g>
    </g>
    <g id="ytick_5">
     <g id="line2d_5">
      <path clip-path="url(#p3ca17c1a2a)" d="M 32.968125 98.8495 
L 993.158125 98.8495 
" style="fill:none;stroke:#dedede;stroke-linecap:square;"/>
     </g>
     <g id="text_14">
      <!-- 4 -->
      <g transform="translate(20.878125 101.888875)scale(0.08 -0.08)">
       <use xlink:href="#DejaVuSans-52"/>
      </g>
     </g>
    </g>
    <g id="ytick_6">
     <g id="line2d_6">
      <path clip-path="url(#p3ca17c1a2a)" d="M 32.968125 35.2559 
L 993.158125 35.2559 
" style="fill:none;stroke:#dedede;stroke-linecap:square;"/>
     </g>
     <g id="text_15">
      <!-- 5 -->
      <defs>
       <path d="M 10.796875 72.90625 
L 49.515625 72.90625 
L 49.515625 64.59375 
L 19.828125 64.59375 
L 19.828125 46.734375 
Q 21.96875 47.46875 24.109375 47.828125 
Q 26.265625 48.1875 28.421875 48.1875 
Q 40.625 48.1875 47.75 41.5 
Q 54.890625 34.8125 54.890625 23.390625 
Q 54.890625 11.625 47.5625 5.09375 
Q 40.234375 -1.421875 26.90625 -1.421875 
Q 22.3125 -1.421875 17.546875 -0.640625 
Q 12.796875 0.140625 7.71875 1.703125 
L 7.71875 11.625 
Q 12.109375 9.234375 16.796875 8.0625 
Q 21.484375 6.890625 26.703125 6.890625 
Q 35.15625 6.890625 40.078125 11.328125 
Q 45.015625 15.765625 45.015625 23.390625 
Q 45.015625 31 40.078125 35.4375 
Q 35.15625 39.890625 26.703125 39.890625 
Q 22.75 39.890625 18.8125 39.015625 
Q 14.890625 38.140625 10.796875 36.28125 
z
" id="DejaVuSans-53"/>
      </defs>
      <g transform="translate(20.878125 38.295275)scale(0.08 -0.08)">
       <use xlink:href="#DejaVuSans-53"/>
      </g>
     </g>
    </g>
    <g id="text_16">
     <!-- R2 After filtering: Base Content Percent -->
     <defs>
      <path d="M 34.1875 63.1875 
L 20.796875 26.90625 
L 47.609375 26.90625 
z
M 28.609375 72.90625 
L 39.796875 72.90625 
L 67.578125 0 
L 57.328125 0 
L 50.6875 18.703125 
L 17.828125 18.703125 
L 11.1875 0 
L 0.78125 0 
z
" id="DejaVuSans-65"/>
      <path d="M 37.109375 75.984375 
L 37.109375 68.5 
L 28.515625 68.5 
Q 23.6875 68.5 21.796875 66.546875 
Q 19.921875 64.59375 19.921875 59.515625 
L 19.921875 54.6875 
L 34.71875 54.6875 
L 34.71875 47.703125 
L 19.921875 47.703125 
L 19.921875 0 
L 10.890625 0 
L 10.890625 47.703125 
L 2.296875 47.703125 
L 2.296875 54.6875 
L 10.890625 54.6875 
L 10.890625 58.5 
Q 10.890625 67.625 15.140625 71.796875 
Q 19.390625 75.984375 28.609375 75.984375 
z
" id="DejaVuSans-102"/>
      <path d="M 41.109375 46.296875 
Q 39.59375 47.171875 37.8125 47.578125 
Q 36.03125 48 33.890625 48 
Q 26.265625 48 22.1875 43.046875 
Q 18.109375 38.09375 18.109375 28.8125 
L 18.109375 0 
L 9.078125 0 
L 9.078125 54.6875 
L 18.109375 54.6875 
L 18.109375 46.1875 
Q 20.953125 51.171875 25.484375 53.578125 
Q 30.03125 56 36.53125 56 
Q 37.453125 56 38.578125 55.875 
Q 39.703125 55.765625 41.0625 55.515625 
z
" id="DejaVuSans-114"/>
      <path d="M 9.421875 75.984375 
L 18.40625 75.984375 
L 18.40625 0 
L 9.421875 0 
z
" id="DejaVuSans-108"/>
      <path d="M 45.40625 27.984375 
Q 45.40625 37.75 41.375 43.109375 
Q 37.359375 48.484375 30.078125 48.484375 
Q 22.859375 48.484375 18.828125 43.109375 
Q 14.796875 37.75 14.796875 27.984375 
Q 14.796875 18.265625 18.828125 12.890625 
Q 22.859375 7.515625 30.078125 7.515625 
Q 37.359375 7.515625 41.375 12.890625 
Q 45.40625 18.265625 45.40625 27.984375 
z
M 54.390625 6.78125 
Q 54.390625 -7.171875 48.1875 -13.984375 
Q 42 -20.796875 29.203125 -20.796875 
Q 24.46875 -20.796875 20.265625 -20.09375 
Q 16.0625 -19.390625 12.109375 -17.921875 
L 12.109375 -9.1875 
Q 16.0625 -11.328125 19.921875 -12.34375 
Q 23.78125 -13.375 27.78125 -13.375 
Q 36.625 -13.375 41.015625 -8.765625 
Q 45.40625 -4.15625 45.40625 5.171875 
L 45.40625 9.625 
Q 42.625 4.78125 38.28125 2.390625 
Q 33.9375 0 27.875 0 
Q 17.828125 0 11.671875 7.65625 
Q 5.515625 15.328125 5.515625 27.984375 
Q 5.515625 40.671875 11.671875 48.328125 
Q 17.828125 56 27.875 56 
Q 33.9375 56 38.28125 53.609375 
Q 42.625 51.21875 45.40625 46.390625 
L 45.40625 54.6875 
L 54.390625 54.6875 
z
" id="DejaVuSans-103"/>
      <path d="M 11.71875 12.40625 
L 22.015625 12.40625 
L 22.015625 0 
L 11.71875 0 
z
M 11.71875 51.703125 
L 22.015625 51.703125 
L 22.015625 39.3125 
L 11.71875 39.3125 
z
" id="DejaVuSans-58"/>
      <path d="M 19.671875 34.8125 
L 19.671875 8.109375 
L 35.5 8.109375 
Q 43.453125 8.109375 47.28125 11.40625 
Q 51.125 14.703125 51.125 21.484375 
Q 51.125 28.328125 47.28125 31.5625 
Q 43.453125 34.8125 35.5 34.8125 
z
M 19.671875 64.796875 
L 19.671875 42.828125 
L 34.28125 42.828125 
Q 41.5 42.828125 45.03125 45.53125 
Q 48.578125 48.25 48.578125 53.8125 
Q 48.578125 59.328125 45.03125 62.0625 
Q 41.5 64.796875 34.28125 64.796875 
z
M 9.8125 72.90625 
L 35.015625 72.90625 
Q 46.296875 72.90625 52.390625 68.21875 
Q 58.5 63.53125 58.5 54.890625 
Q 58.5 48.1875 55.375 44.234375 
Q 52.25 40.28125 46.1875 39.3125 
Q 53.46875 37.75 57.5 32.78125 
Q 61.53125 27.828125 61.53125 20.40625 
Q 61.53125 10.640625 54.890625 5.3125 
Q 48.25 0 35.984375 0 
L 9.8125 0 
z
" id="DejaVuSans-66"/>
      <path d="M 64.40625 67.28125 
L 64.40625 56.890625 
Q 59.421875 61.53125 53.78125 63.8125 
Q 48.140625 66.109375 41.796875 66.109375 
Q 29.296875 66.109375 22.65625 58.46875 
Q 16.015625 50.828125 16.015625 36.375 
Q 16.015625 21.96875 22.65625 14.328125 
Q 29.296875 6.6875 41.796875 6.6875 
Q 48.140625 6.6875 53.78125 8.984375 
Q 59.421875 11.28125 64.40625 15.921875 
L 64.40625 5.609375 
Q 59.234375 2.09375 53.4375 0.328125 
Q 47.65625 -1.421875 41.21875 -1.421875 
Q 24.65625 -1.421875 15.125 8.703125 
Q 5.609375 18.84375 5.609375 36.375 
Q 5.609375 53.953125 15.125 64.078125 
Q 24.65625 74.21875 41.21875 74.21875 
Q 47.75 74.21875 53.53125 72.484375 
Q 59.328125 70.75 64.40625 67.28125 
z
" id="DejaVuSans-67"/>
      <path d="M 48.78125 52.59375 
L 48.78125 44.1875 
Q 44.96875 46.296875 41.140625 47.34375 
Q 37.3125 48.390625 33.40625 48.390625 
Q 24.65625 48.390625 19.8125 42.84375 
Q 14.984375 37.3125 14.984375 27.296875 
Q 14.984375 17.28125 19.8125 11.734375 
Q 24.65625 6.203125 33.40625 6.203125 
Q 37.3125 6.203125 41.140625 7.25 
Q 44.96875 8.296875 48.78125 10.40625 
L 48.78125 2.09375 
Q 45.015625 0.34375 40.984375 -0.53125 
Q 36.96875 -1.421875 32.421875 -1.421875 
Q 20.0625 -1.421875 12.78125 6.34375 
Q 5.515625 14.109375 5.515625 27.296875 
Q 5.515625 40.671875 12.859375 48.328125 
Q 20.21875 56 33.015625 56 
Q 37.15625 56 41.109375 55.140625 
Q 45.0625 54.296875 48.78125 52.59375 
z
" id="DejaVuSans-99"/>
     </defs>
     <g transform="translate(14.798438 293.315681)rotate(-90)scale(0.1 -0.1)">
      <use xlink:href="#DejaVuSans-82"/>
      <use x="69.482422" xlink:href="#DejaVuSans-50"/>
      <use x="133.105469" xlink:href="#DejaVuSans-32"/>
      <use x="164.892578" xlink:href="#DejaVuSans-65"/>
      <use x="233.253906" xlink:href="#DejaVuSans-102"/>
      <use x="268.443359" xlink:href="#DejaVuSans-116"/>
      <use x="307.652344" xlink:href="#DejaVuSans-101"/>
      <use x="369.175781" xlink:href="#DejaVuSans-114"/>
      <use x="410.289062" xlink:href="#DejaVuSans-32"/>
      <use x="442.076172" xlink:href="#DejaVuSans-102"/>
      <use x="477.28125" xlink:href="#DejaVuSans-105"/>
      <use x="505.064453" xlink:href="#DejaVuSans-108"/>
      <use x="532.847656" xlink:href="#DejaVuSans-116"/>
      <use x="572.056641" xlink:href="#DejaVuSans-101"/>
      <use x="633.580078" xlink:href="#DejaVuSans-114"/>
      <use x="674.693359" xlink:href="#DejaVuSans-105"/>
      <use x="702.476562" xlink:href="#DejaVuSans-110"/>
      <use x="765.855469" xlink:href="#DejaVuSans-103"/>
      <use x="829.332031" xlink:href="#DejaVuSans-58"/>
      <use x="863.023438" xlink:href="#DejaVuSans-32"/>
      <use x="894.810547" xlink:href="#DejaVuSans-66"/>
      <use x="963.414062" xlink:href="#DejaVuSans-97"/>
      <use x="1024.693359" xlink:href="#DejaVuSans-115"/>
      <use x="1076.792969" xlink:href="#DejaVuSans-101"/>
      <use x="1138.316406" xlink:href="#DejaVuSans-32"/>
      <use x="1170.103516" xlink:href="#DejaVuSans-67"/>
      <use x="1239.927734" xlink:href="#DejaVuSans-111"/>
      <use x="1301.109375" xlink:href="#DejaVuSans-110"/>
      <use x="1364.488281" xlink:href="#DejaVuSans-116"/>
      <use x="1403.697266" xlink:href="#DejaVuSans-101"/>
      <use x="1465.220703" xlink:href="#DejaVuSans-110"/>
      <use x="1528.599609" xlink:href="#DejaVuSans-116"/>
      <use x="1567.808594" xlink:href="#DejaVuSans-32"/>
      <use x="1599.595703" xlink:href="#DejaVuSans-80"/>
      <use x="1659.851562" xlink:href="#DejaVuSans-101"/>
      <use x="1721.375" xlink:href="#DejaVuSans-114"/>
      <use x="1762.457031" xlink:href="#DejaVuSans-99"/>
      <use x="1817.4375" xlink:href="#DejaVuSans-101"/>
      <use x="1878.960938" xlink:href="#DejaVuSans-110"/>
      <use x="1942.339844" xlink:href="#DejaVuSans-116"/>
     </g>
    </g>
   </g>
   <g id="line2d_7">
    <path clip-path="url(#p3ca17c1a2a)" d="M 76.613125 320.554151 
L 82.471514 353.2239 
L 146.913796 353.2239 
L 152.772185 352.989935 
L 158.630575 353.2239 
L 193.78091 353.2239 
L 199.639299 353.099606 
L 205.497689 353.2239 
L 328.523863 353.218995 
L 334.382253 352.966067 
L 340.240642 353.2239 
L 351.95742 353.149923 
L 369.532588 353.2239 
L 469.125206 353.2239 
L 474.983595 353.083134 
L 480.841984 353.2239 
L 498.417152 353.2239 
L 504.275541 352.958725 
L 510.13393 353.2239 
L 515.99232 353.161939 
L 527.709098 353.2239 
L 533.567487 353.031879 
L 539.425877 353.218011 
L 551.142655 353.2239 
L 557.001044 353.061656 
L 562.859434 353.220796 
L 592.15138 353.2239 
L 598.009769 352.829064 
L 603.868159 353.2239 
L 627.301716 353.2239 
L 949.513125 353.2239 
L 949.513125 353.2239 
" style="fill:none;stroke:#7cb5ec;stroke-linecap:square;"/>
   </g>
   <g id="line2d_8">
    <path clip-path="url(#p3ca17c1a2a)" d="M 76.613125 320.822134 
L 82.471514 353.2239 
L 146.913796 353.2239 
L 152.772185 353.020556 
L 158.630575 353.2239 
L 328.523863 353.210341 
L 334.382253 352.995848 
L 340.240642 353.2239 
L 351.95742 353.162554 
L 369.532588 353.2239 
L 469.125206 353.2239 
L 474.983595 353.1027 
L 480.841984 353.2239 
L 498.417152 353.2239 
L 504.275541 352.985308 
L 510.13393 353.2239 
L 515.99232 353.148706 
L 527.709098 353.2239 
L 533.567487 353.053629 
L 539.425877 353.219123 
L 551.142655 353.2239 
L 557.001044 353.087554 
L 562.859434 353.218916 
L 592.15138 353.2239 
L 598.009769 352.828892 
L 603.868159 353.2239 
L 644.876883 353.2239 
L 949.513125 353.2239 
L 949.513125 353.2239 
" style="fill:none;stroke:#434348;stroke-linecap:square;"/>
   </g>
   <g id="line2d_9">
    <path clip-path="url(#p3ca17c1a2a)" d="M 76.613125 320.334498 
L 82.471514 353.2239 
L 146.913796 353.2239 
L 152.772185 352.993706 
L 158.630575 353.2239 
L 328.523863 353.206398 
L 334.382253 352.989504 
L 340.240642 353.2239 
L 351.95742 353.164474 
L 375.390977 353.2239 
L 469.125206 353.2239 
L 474.983595 353.095402 
L 480.841984 353.2239 
L 498.417152 353.2239 
L 504.275541 352.927103 
L 510.13393 353.2239 
L 515.99232 353.123115 
L 527.709098 353.2239 
L 533.567487 353.101768 
L 539.425877 353.2239 
L 551.142655 353.2239 
L 557.001044 353.082145 
L 562.859434 353.218377 
L 592.15138 353.2239 
L 598.009769 352.790714 
L 603.868159 353.2239 
L 621.443326 353.162991 
L 633.160105 353.220583 
L 797.195004 353.2239 
L 808.911783 353.2239 
L 908.5044 353.2239 
L 914.362789 353.104057 
L 920.221179 353.2239 
L 949.513125 353.2239 
L 949.513125 353.2239 
" style="fill:none;stroke:#90ed7d;stroke-linecap:square;"/>
   </g>
   <g id="line2d_10">
    <path clip-path="url(#p3ca17c1a2a)" d="M 76.613125 320.073383 
L 82.471514 353.2239 
L 129.338628 353.2239 
L 146.913796 353.2239 
L 152.772185 352.987792 
L 158.630575 353.2239 
L 328.523863 353.20716 
L 334.382253 352.963961 
L 340.240642 353.2239 
L 351.95742 353.156408 
L 369.532588 353.2239 
L 469.125206 353.2239 
L 474.983595 353.089756 
L 480.841984 353.2239 
L 498.417152 353.2239 
L 504.275541 352.982515 
L 510.13393 353.2239 
L 515.99232 353.150014 
L 527.709098 353.2239 
L 533.567487 353.055858 
L 539.425877 353.2239 
L 551.142655 353.2239 
L 557.001044 353.063188 
L 562.859434 353.21847 
L 592.15138 353.2239 
L 598.009769 352.826069 
L 603.868159 353.2239 
L 709.319165 353.2239 
L 949.513125 353.2239 
L 949.513125 353.2239 
" style="fill:none;stroke:#f7a35c;stroke-linecap:square;"/>
   </g>
   <g id="line2d_11">
    <path clip-path="url(#p3ca17c1a2a)" d="M 76.613125 320.412591 
L 82.471514 353.2239 
L 146.913796 353.2239 
L 152.772185 352.97139 
L 158.630575 353.2239 
L 328.523863 353.212004 
L 334.382253 352.942739 
L 340.240642 353.2239 
L 351.95742 353.172301 
L 410.541313 353.2239 
L 469.125206 353.2239 
L 474.983595 353.072351 
L 480.841984 353.2239 
L 498.417152 353.2239 
L 504.275541 352.930388 
L 510.13393 353.2239 
L 515.99232 353.161407 
L 527.709098 353.2239 
L 533.567487 353.083606 
L 539.425877 353.2239 
L 551.142655 353.2239 
L 557.001044 353.057864 
L 562.859434 353.216982 
L 592.15138 353.2239 
L 598.009769 352.777296 
L 603.868159 353.2239 
L 627.301716 353.2239 
L 949.513125 353.2239 
L 949.513125 353.2239 
" style="fill:none;stroke:#8085e9;stroke-linecap:square;"/>
   </g>
   <g id="line2d_12">
    <path clip-path="url(#p3ca17c1a2a)" d="M 76.613125 320.196309 
L 82.471514 353.2239 
L 146.913796 353.2239 
L 152.772185 352.995179 
L 158.630575 353.2239 
L 193.78091 353.220891 
L 199.639299 353.099007 
L 205.497689 353.2239 
L 328.523863 353.214751 
L 334.382253 352.982441 
L 340.240642 353.2239 
L 351.95742 353.143801 
L 369.532588 353.2239 
L 469.125206 353.2239 
L 474.983595 353.084896 
L 480.841984 353.2239 
L 498.417152 353.2239 
L 504.275541 352.967306 
L 510.13393 353.2239 
L 515.99232 353.165299 
L 527.709098 353.2239 
L 533.567487 353.070474 
L 539.425877 353.2239 
L 551.142655 353.2239 
L 557.001044 353.080454 
L 562.859434 353.213803 
L 592.15138 353.2239 
L 598.009769 352.842028 
L 603.868159 353.2239 
L 639.018494 353.2239 
L 949.513125 353.2239 
L 949.513125 353.2239 
" style="fill:none;stroke:#f15c80;stroke-linecap:square;"/>
   </g>
   <g id="line2d_13">
    <path clip-path="url(#p3ca17c1a2a)" d="M 76.613125 321.089736 
L 82.471514 353.2239 
L 146.913796 353.2239 
L 152.772185 352.971459 
L 158.630575 353.2239 
L 193.78091 353.194201 
L 199.639299 353.075406 
L 205.497689 353.2239 
L 328.523863 353.2239 
L 334.382253 352.924276 
L 340.240642 353.2239 
L 351.95742 353.118547 
L 363.674199 353.2239 
L 469.125206 353.2239 
L 474.983595 353.061685 
L 480.841984 353.2239 
L 498.417152 353.2239 
L 504.275541 352.971031 
L 510.13393 353.2239 
L 515.99232 353.138079 
L 527.709098 353.2239 
L 533.567487 353.082414 
L 545.284266 353.2239 
L 551.142655 353.2239 
L 557.001044 352.964366 
L 562.859434 353.2239 
L 592.15138 353.2239 
L 598.009769 352.714387 
L 603.868159 353.2239 
L 633.160105 353.2239 
L 949.513125 353.2239 
L 949.513125 353.2239 
" style="fill:none;stroke:#e4d354;stroke-linecap:square;"/>
   </g>
   <g id="line2d_14">
    <path clip-path="url(#p3ca17c1a2a)" d="M 76.613125 320.31383 
L 82.471514 353.2239 
L 146.913796 353.2239 
L 152.772185 353.064995 
L 158.630575 353.2239 
L 328.523863 353.218977 
L 334.382253 353.036692 
L 340.240642 353.2239 
L 351.95742 353.150814 
L 369.532588 353.2239 
L 469.125206 353.2239 
L 474.983595 353.091505 
L 480.841984 353.2239 
L 498.417152 353.2239 
L 504.275541 352.955101 
L 510.13393 353.2239 
L 521.850709 353.21631 
L 527.709098 353.2239 
L 533.567487 353.048794 
L 539.425877 353.222789 
L 551.142655 353.2239 
L 557.001044 353.109779 
L 568.717823 353.2239 
L 592.15138 353.2239 
L 598.009769 352.843863 
L 603.868159 353.2239 
L 633.160105 353.2239 
L 949.513125 353.2239 
L 949.513125 353.2239 
" style="fill:none;stroke:#2b908f;stroke-linecap:square;"/>
   </g>
   <g id="line2d_15">
    <path clip-path="url(#p3ca17c1a2a)" d="M 76.613125 321.174697 
L 82.471514 353.2239 
L 146.913796 353.2239 
L 152.772185 353.031279 
L 158.630575 353.2239 
L 328.523863 353.21502 
L 334.382253 353.0266 
L 340.240642 353.2239 
L 357.81581 353.202485 
L 392.966145 353.2239 
L 469.125206 353.2239 
L 474.983595 353.092352 
L 480.841984 353.2239 
L 498.417152 353.2239 
L 504.275541 352.935708 
L 510.13393 353.2239 
L 515.99232 353.13758 
L 527.709098 353.2239 
L 533.567487 353.053054 
L 539.425877 353.2239 
L 551.142655 353.2239 
L 557.001044 353.094445 
L 562.859434 353.21546 
L 592.15138 353.2239 
L 598.009769 352.816421 
L 603.868159 353.2239 
L 633.160105 353.2239 
L 908.5044 353.2239 
L 914.362789 353.097988 
L 920.221179 353.2239 
L 949.513125 353.2239 
L 949.513125 353.2239 
" style="fill:none;stroke:#f45b5b;stroke-linecap:square;"/>
   </g>
   <g id="line2d_16">
    <path clip-path="url(#p3ca17c1a2a)" d="M 76.613125 320.850433 
L 82.471514 353.2239 
L 152.772185 353.023467 
L 158.630575 353.2239 
L 328.523863 353.2073 
L 334.382253 353.022114 
L 340.240642 353.2239 
L 351.95742 353.159563 
L 375.390977 353.2239 
L 469.125206 353.2239 
L 474.983595 353.075873 
L 480.841984 353.2239 
L 498.417152 353.2239 
L 504.275541 352.943791 
L 510.13393 353.2239 
L 515.99232 353.140617 
L 527.709098 353.2239 
L 533.567487 353.074737 
L 539.425877 353.21832 
L 551.142655 353.2239 
L 557.001044 353.094277 
L 562.859434 353.218073 
L 592.15138 353.2239 
L 598.009769 352.803267 
L 603.868159 353.2239 
L 650.735273 353.2239 
L 949.513125 353.2239 
L 949.513125 353.2239 
" style="fill:none;stroke:#91e8e1;stroke-linecap:square;"/>
   </g>
   <g id="line2d_17">
    <path clip-path="url(#p3ca17c1a2a)" d="M 76.613125 320.967255 
L 82.471514 353.2239 
L 146.913796 353.2239 
L 152.772185 353.079483 
L 158.630575 353.2239 
L 328.523863 353.2239 
L 334.382253 353.079289 
L 340.240642 353.2239 
L 369.532588 353.2239 
L 498.417152 353.2239 
L 504.275541 353.020139 
L 510.13393 353.2239 
L 515.99232 353.159047 
L 527.709098 353.2239 
L 533.567487 353.103388 
L 539.425877 353.2239 
L 551.142655 353.2239 
L 557.001044 353.07843 
L 562.859434 353.2239 
L 592.15138 353.2239 
L 598.009769 352.907869 
L 603.868159 353.2239 
L 949.513125 353.2239 
L 949.513125 353.2239 
" style="fill:none;stroke:#7cb5ec;stroke-linecap:square;"/>
   </g>
   <g id="line2d_18">
    <path clip-path="url(#p3ca17c1a2a)" d="M 76.613125 321.049227 
L 82.471514 353.2239 
L 527.709098 353.2239 
L 533.567487 353.037253 
L 539.425877 353.2239 
L 949.513125 353.2239 
L 949.513125 353.2239 
" style="fill:none;stroke:#434348;stroke-linecap:square;"/>
   </g>
   <g id="line2d_19">
    <path clip-path="url(#p3ca17c1a2a)" d="M 76.613125 319.732585 
L 82.471514 353.2239 
L 135.197018 353.2239 
L 146.913796 353.2239 
L 152.772185 353.060377 
L 158.630575 353.2239 
L 328.523863 353.211489 
L 334.382253 353.03755 
L 340.240642 353.2239 
L 357.81581 353.205176 
L 398.824534 353.2239 
L 498.417152 353.2239 
L 504.275541 352.939983 
L 510.13393 353.2239 
L 515.99232 353.147455 
L 527.709098 353.2239 
L 533.567487 353.059763 
L 539.425877 353.216695 
L 592.15138 353.2239 
L 598.009769 352.804523 
L 603.868159 353.2239 
L 627.301716 353.2239 
L 908.5044 353.2239 
L 914.362789 353.103863 
L 920.221179 353.2239 
L 949.513125 353.2239 
L 949.513125 353.2239 
" style="fill:none;stroke:#90ed7d;stroke-linecap:square;"/>
   </g>
   <g id="line2d_20">
    <path clip-path="url(#p3ca17c1a2a)" d="M 76.613125 320.14518 
L 82.471514 353.2239 
L 146.913796 353.2239 
L 152.772185 353.03249 
L 158.630575 353.2239 
L 328.523863 353.216315 
L 334.382253 353.011366 
L 340.240642 353.2239 
L 351.95742 353.165564 
L 381.249367 353.2239 
L 469.125206 353.2239 
L 474.983595 353.052785 
L 480.841984 353.2239 
L 498.417152 353.221159 
L 504.275541 352.89261 
L 510.13393 353.2239 
L 515.99232 353.148152 
L 527.709098 353.2239 
L 533.567487 353.071043 
L 539.425877 353.215158 
L 551.142655 353.2239 
L 557.001044 353.106475 
L 568.717823 353.2239 
L 592.15138 353.2239 
L 598.009769 352.808511 
L 603.868159 353.2239 
L 633.160105 353.22029 
L 685.885608 353.2239 
L 691.743997 353.137921 
L 697.602387 353.2239 
L 709.319165 353.2239 
L 908.5044 353.2239 
L 914.362789 353.106684 
L 920.221179 353.2239 
L 949.513125 353.2239 
L 949.513125 353.2239 
" style="fill:none;stroke:#f7a35c;stroke-linecap:square;"/>
   </g>
   <g id="line2d_21">
    <path clip-path="url(#p3ca17c1a2a)" d="M 76.613125 320.414626 
L 82.471514 353.2239 
L 105.905071 353.2239 
L 111.763461 353.097223 
L 117.62185 353.2239 
L 146.913796 353.2239 
L 152.772185 352.970547 
L 158.630575 353.2239 
L 193.78091 353.160562 
L 199.639299 353.097223 
L 205.497689 353.2239 
L 287.515138 353.2239 
L 293.373528 353.096989 
L 299.231917 353.2239 
L 328.523863 353.2239 
L 334.382253 352.967828 
L 340.240642 353.2239 
L 346.099031 353.095374 
L 351.95742 353.095094 
L 357.81581 353.2239 
L 469.125206 353.2239 
L 474.983595 352.769308 
L 480.841984 353.2239 
L 498.417152 353.2239 
L 504.275541 352.888822 
L 510.13393 353.2239 
L 551.142655 353.2239 
L 557.001044 352.899432 
L 562.859434 353.2239 
L 592.15138 353.2239 
L 598.009769 352.81083 
L 603.868159 353.2239 
L 949.513125 353.2239 
L 949.513125 353.2239 
" style="fill:none;stroke:#8085e9;stroke-linecap:square;"/>
   </g>
   <g id="line2d_22">
    <path clip-path="url(#p3ca17c1a2a)" d="M 76.613125 320.529794 
L 82.471514 353.2239 
L 240.648024 353.158634 
L 252.364803 353.2239 
L 293.373528 353.183034 
L 316.807085 353.2239 
L 328.523863 353.20748 
L 334.382253 353.055418 
L 340.240642 353.2239 
L 346.099031 353.141522 
L 381.249367 353.2239 
L 498.417152 353.2239 
L 504.275541 352.96389 
L 510.13393 353.2239 
L 515.99232 353.145022 
L 527.709098 353.2239 
L 533.567487 353.071121 
L 539.425877 353.219077 
L 551.142655 353.2239 
L 557.001044 353.114207 
L 568.717823 353.2239 
L 592.15138 353.2239 
L 598.009769 352.880537 
L 603.868159 353.2239 
L 621.443326 353.19505 
L 644.876883 353.2239 
L 949.513125 353.2239 
L 949.513125 353.2239 
" style="fill:none;stroke:#f15c80;stroke-linecap:square;"/>
   </g>
   <g id="line2d_23">
    <path clip-path="url(#p3ca17c1a2a)" d="M 76.613125 320.364197 
L 82.471514 353.2239 
L 146.913796 353.2239 
L 152.772185 353.007654 
L 158.630575 353.2239 
L 328.523863 353.206268 
L 334.382253 352.968967 
L 340.240642 353.2239 
L 351.95742 353.164867 
L 381.249367 353.2239 
L 469.125206 353.2239 
L 474.983595 353.081608 
L 480.841984 353.2239 
L 498.417152 353.2239 
L 504.275541 352.944958 
L 510.13393 353.2239 
L 515.99232 353.162371 
L 527.709098 353.2239 
L 533.567487 353.074829 
L 539.425877 353.221618 
L 551.142655 353.2239 
L 557.001044 353.08017 
L 562.859434 353.211982 
L 592.15138 353.2239 
L 598.009769 352.808962 
L 603.868159 353.2239 
L 621.443326 353.196553 
L 650.735273 353.2239 
L 861.637286 353.2239 
L 949.513125 353.2239 
L 949.513125 353.2239 
" style="fill:none;stroke:#e4d354;stroke-linecap:square;"/>
   </g>
   <g id="line2d_24">
    <path clip-path="url(#p3ca17c1a2a)" d="M 76.613125 321.106906 
L 82.471514 353.2239 
L 146.913796 353.2239 
L 152.772185 353.04576 
L 158.630575 353.2239 
L 328.523863 353.217388 
L 334.382253 353.012072 
L 340.240642 353.2239 
L 351.95742 353.148702 
L 369.532588 353.2239 
L 469.125206 353.2239 
L 474.983595 353.064802 
L 480.841984 353.2239 
L 498.417152 353.2239 
L 504.275541 352.960185 
L 510.13393 353.2239 
L 515.99232 353.13712 
L 527.709098 353.2239 
L 533.567487 353.057093 
L 539.425877 353.216419 
L 551.142655 353.2239 
L 557.001044 353.058392 
L 562.859434 353.2239 
L 592.15138 353.2239 
L 598.009769 352.794677 
L 603.868159 353.2239 
L 674.16883 353.2239 
L 949.513125 353.2239 
L 949.513125 353.2239 
" style="fill:none;stroke:#2b908f;stroke-linecap:square;"/>
   </g>
   <g id="line2d_25">
    <path clip-path="url(#p3ca17c1a2a)" d="M 76.613125 320.539079 
L 82.471514 353.2239 
L 135.197018 353.2239 
L 146.913796 353.2239 
L 152.772185 353.010895 
L 158.630575 353.2239 
L 328.523863 353.207568 
L 334.382253 352.992612 
L 340.240642 353.2239 
L 351.95742 353.176958 
L 387.107756 353.2239 
L 469.125206 353.2239 
L 474.983595 353.079583 
L 480.841984 353.2239 
L 498.417152 353.2239 
L 504.275541 352.934734 
L 510.13393 353.2239 
L 515.99232 353.143608 
L 527.709098 353.2239 
L 533.567487 353.069428 
L 539.425877 353.221111 
L 551.142655 353.2239 
L 557.001044 353.079471 
L 562.859434 353.2239 
L 592.15138 353.2239 
L 598.009769 352.773167 
L 603.868159 353.2239 
L 621.443326 353.193552 
L 644.876883 353.2239 
L 949.513125 353.2239 
L 949.513125 353.2239 
" style="fill:none;stroke:#f45b5b;stroke-linecap:square;"/>
   </g>
   <g id="line2d_26">
    <path clip-path="url(#p3ca17c1a2a)" d="M 76.613125 320.025179 
L 82.471514 353.2239 
L 176.205742 353.216686 
L 193.78091 353.209472 
L 199.639299 353.11569 
L 211.356078 353.2239 
L 328.523863 353.201913 
L 334.382253 353.010881 
L 340.240642 353.2239 
L 351.95742 353.157279 
L 375.390977 353.2239 
L 469.125206 353.2239 
L 474.983595 353.110706 
L 480.841984 353.2239 
L 498.417152 353.2239 
L 504.275541 352.981565 
L 510.13393 353.2239 
L 515.99232 353.105177 
L 521.850709 353.2239 
L 527.709098 353.2239 
L 533.567487 353.067554 
L 539.425877 353.2239 
L 551.142655 353.2239 
L 557.001044 353.106978 
L 568.717823 353.2239 
L 592.15138 353.2239 
L 598.009769 352.916235 
L 603.868159 353.2239 
L 621.443326 353.163781 
L 633.160105 353.2239 
L 949.513125 353.2239 
L 949.513125 353.2239 
" style="fill:none;stroke:#91e8e1;stroke-linecap:square;"/>
   </g>
   <g id="line2d_27">
    <path clip-path="url(#p3ca17c1a2a)" d="M 76.613125 320.788811 
L 82.471514 353.2239 
L 146.913796 353.2239 
L 152.772185 352.972062 
L 158.630575 353.2239 
L 193.78091 353.220542 
L 199.639299 353.09966 
L 205.497689 353.2239 
L 328.523863 353.203548 
L 334.382253 352.95382 
L 340.240642 353.2239 
L 351.95742 353.157298 
L 398.824534 353.2239 
L 498.417152 353.2239 
L 504.275541 352.940535 
L 510.13393 353.2239 
L 515.99232 353.144674 
L 527.709098 353.2239 
L 533.567487 353.063128 
L 539.425877 353.221896 
L 551.142655 353.2239 
L 557.001044 353.064716 
L 562.859434 353.207176 
L 592.15138 353.2239 
L 598.009769 352.812325 
L 603.868159 353.2239 
L 627.301716 353.2239 
L 949.513125 353.2239 
L 949.513125 353.2239 
" style="fill:none;stroke:#7cb5ec;stroke-linecap:square;"/>
   </g>
   <g id="line2d_28">
    <path clip-path="url(#p3ca17c1a2a)" d="M 76.613125 320.302002 
L 82.471514 353.2239 
L 146.913796 353.2239 
L 152.772185 353.013328 
L 158.630575 353.2239 
L 328.523863 353.213828 
L 334.382253 353.009684 
L 340.240642 353.2239 
L 346.099031 353.112801 
L 369.532588 353.2239 
L 469.125206 353.2239 
L 474.983595 353.077069 
L 480.841984 353.2239 
L 498.417152 353.2239 
L 504.275541 352.951739 
L 510.13393 353.2239 
L 521.850709 353.207035 
L 527.709098 353.2239 
L 533.567487 353.043813 
L 539.425877 353.221016 
L 551.142655 353.2239 
L 557.001044 353.048707 
L 562.859434 353.202898 
L 592.15138 353.2239 
L 598.009769 352.821921 
L 603.868159 353.2239 
L 621.443326 353.190014 
L 644.876883 353.2239 
L 949.513125 353.2239 
L 949.513125 353.2239 
" style="fill:none;stroke:#434348;stroke-linecap:square;"/>
   </g>
   <g id="line2d_29">
    <path clip-path="url(#p3ca17c1a2a)" d="M 76.613125 320.113638 
L 82.471514 353.2239 
L 152.772185 353.01082 
L 158.630575 353.2239 
L 193.78091 353.217981 
L 199.639299 353.111441 
L 205.497689 353.2239 
L 328.523863 353.214956 
L 334.382253 352.985087 
L 340.240642 353.2239 
L 351.95742 353.157924 
L 369.532588 353.2239 
L 469.125206 353.2239 
L 474.983595 353.068152 
L 480.841984 353.2239 
L 498.417152 353.2239 
L 504.275541 352.95359 
L 510.13393 353.2239 
L 515.99232 353.134358 
L 527.709098 353.2239 
L 533.567487 353.046132 
L 539.425877 353.2239 
L 551.142655 353.2239 
L 557.001044 353.096982 
L 562.859434 353.220119 
L 592.15138 353.2239 
L 598.009769 352.820442 
L 603.868159 353.2239 
L 756.186279 353.2239 
L 908.5044 353.2239 
L 914.362789 353.098074 
L 920.221179 353.2239 
L 949.513125 353.2239 
L 949.513125 353.2239 
" style="fill:none;stroke:#90ed7d;stroke-linecap:square;"/>
   </g>
   <g id="line2d_30">
    <path clip-path="url(#p3ca17c1a2a)" d="M 76.613125 324.264392 
L 82.471514 353.2239 
L 105.905071 353.2239 
L 111.763461 353.101708 
L 129.338628 353.2239 
L 146.913796 353.2239 
L 152.772185 352.857324 
L 158.630575 353.2239 
L 193.78091 353.2239 
L 199.639299 353.040612 
L 205.497689 353.2239 
L 328.523863 353.2239 
L 334.382253 352.663555 
L 340.240642 353.2239 
L 469.125206 353.2239 
L 474.983595 353.014757 
L 480.841984 353.2239 
L 498.417152 353.2239 
L 504.275541 352.932767 
L 510.13393 353.2239 
L 527.709098 353.2239 
L 533.567487 352.993982 
L 539.425877 353.2239 
L 551.142655 353.2239 
L 557.001044 352.902789 
L 562.859434 353.2239 
L 592.15138 353.2239 
L 598.009769 352.51887 
L 603.868159 353.2239 
L 609.726548 353.133221 
L 621.443326 353.2239 
L 685.885608 353.2239 
L 691.743997 352.996487 
L 697.602387 353.2239 
L 703.460776 353.106053 
L 709.319165 353.2239 
L 908.5044 353.2239 
L 914.362789 352.987079 
L 920.221179 353.2239 
L 949.513125 353.2239 
L 949.513125 353.2239 
" style="fill:none;stroke:#f7a35c;stroke-linecap:square;"/>
   </g>
   <g id="line2d_31">
    <path clip-path="url(#p3ca17c1a2a)" d="M 76.613125 319.802729 
L 82.471514 353.2239 
L 146.913796 353.2239 
L 152.772185 352.99081 
L 158.630575 353.221958 
L 193.78091 353.218073 
L 199.639299 353.101528 
L 205.497689 353.2239 
L 328.523863 353.204098 
L 334.382253 352.997488 
L 340.240642 353.2239 
L 351.95742 353.14365 
L 375.390977 353.2239 
L 469.125206 353.2239 
L 474.983595 353.066637 
L 480.841984 353.2239 
L 498.417152 353.2239 
L 504.275541 352.94994 
L 510.13393 353.2239 
L 515.99232 353.125413 
L 527.709098 353.2239 
L 533.567487 353.072642 
L 539.425877 353.2239 
L 551.142655 353.2239 
L 557.001044 353.071441 
L 562.859434 353.210068 
L 592.15138 353.2239 
L 598.009769 352.827451 
L 603.868159 353.2239 
L 627.301716 353.2239 
L 949.513125 353.2239 
L 949.513125 353.2239 
" style="fill:none;stroke:#8085e9;stroke-linecap:square;"/>
   </g>
   <g id="line2d_32">
    <path clip-path="url(#p3ca17c1a2a)" d="M 76.613125 320.50989 
L 82.471514 353.2239 
L 146.913796 353.2239 
L 152.772185 353.028454 
L 158.630575 353.2239 
L 328.523863 353.203924 
L 334.382253 352.998968 
L 340.240642 353.2239 
L 351.95742 353.162056 
L 369.532588 353.2239 
L 469.125206 353.2239 
L 474.983595 353.108757 
L 480.841984 353.2239 
L 498.417152 353.2239 
L 504.275541 352.964217 
L 510.13393 353.2239 
L 515.99232 353.132884 
L 527.709098 353.2239 
L 533.567487 353.031227 
L 539.425877 353.2239 
L 551.142655 353.2239 
L 557.001044 353.072795 
L 562.859434 353.219879 
L 592.15138 353.2239 
L 598.009769 352.794393 
L 603.868159 353.2239 
L 627.301716 353.2239 
L 949.513125 353.2239 
L 949.513125 353.2239 
" style="fill:none;stroke:#f15c80;stroke-linecap:square;"/>
   </g>
   <g id="line2d_33">
    <path clip-path="url(#p3ca17c1a2a)" d="M 76.613125 321.064171 
L 82.471514 353.2239 
L 146.913796 353.2239 
L 152.772185 353.019125 
L 158.630575 353.2239 
L 328.523863 353.213727 
L 334.382253 353.003114 
L 340.240642 353.2239 
L 351.95742 353.158966 
L 375.390977 353.2239 
L 498.417152 353.2239 
L 504.275541 352.957251 
L 510.13393 353.2239 
L 515.99232 353.145261 
L 527.709098 353.2239 
L 533.567487 353.045901 
L 539.425877 353.219814 
L 551.142655 353.2239 
L 557.001044 353.101547 
L 562.859434 353.219633 
L 592.15138 353.2239 
L 598.009769 352.810959 
L 603.868159 353.2239 
L 627.301716 353.2239 
L 949.513125 353.2239 
L 949.513125 353.2239 
" style="fill:none;stroke:#e4d354;stroke-linecap:square;"/>
   </g>
   <g id="line2d_34">
    <path clip-path="url(#p3ca17c1a2a)" d="M 76.613125 320.819145 
L 82.471514 353.2239 
L 146.913796 353.2239 
L 152.772185 353.063179 
L 158.630575 353.2239 
L 328.523863 353.219014 
L 334.382253 353.028341 
L 340.240642 353.2239 
L 351.95742 353.145511 
L 369.532588 353.2239 
L 469.125206 353.2239 
L 474.983595 353.093049 
L 480.841984 353.2239 
L 498.417152 353.2239 
L 504.275541 353.004856 
L 510.13393 353.2239 
L 515.99232 353.119535 
L 527.709098 353.2239 
L 533.567487 353.075873 
L 539.425877 353.207307 
L 551.142655 353.2239 
L 557.001044 353.098721 
L 568.717823 353.2239 
L 592.15138 353.2239 
L 598.009769 352.851522 
L 603.868159 353.2239 
L 621.443326 353.168833 
L 639.018494 353.2239 
L 949.513125 353.2239 
L 949.513125 353.2239 
" style="fill:none;stroke:#2b908f;stroke-linecap:square;"/>
   </g>
   <g id="line2d_35">
    <path clip-path="url(#p3ca17c1a2a)" d="M 76.613125 320.347662 
L 82.471514 353.2239 
L 146.913796 353.2239 
L 152.772185 353.020343 
L 158.630575 353.2239 
L 328.523863 353.20521 
L 334.382253 352.995497 
L 340.240642 353.2239 
L 351.95742 353.133518 
L 369.532588 353.2239 
L 469.125206 353.2239 
L 474.983595 353.080332 
L 480.841984 353.2239 
L 498.417152 353.2239 
L 504.275541 352.989217 
L 510.13393 353.2239 
L 521.850709 353.215121 
L 527.709098 353.2239 
L 533.567487 353.008774 
L 539.425877 353.219367 
L 551.142655 353.2239 
L 557.001044 353.087696 
L 562.859434 353.219145 
L 592.15138 353.2239 
L 598.009769 352.826476 
L 603.868159 353.2239 
L 639.018494 353.2239 
L 949.513125 353.2239 
L 949.513125 353.2239 
" style="fill:none;stroke:#f45b5b;stroke-linecap:square;"/>
   </g>
   <g id="line2d_36">
    <path clip-path="url(#p3ca17c1a2a)" d="M 76.613125 319.652584 
L 82.471514 353.2239 
L 141.055407 353.217529 
L 146.913796 353.2239 
L 152.772185 352.979691 
L 158.630575 353.2239 
L 193.78091 353.213282 
L 199.639299 353.09224 
L 205.497689 353.2239 
L 328.523863 353.206563 
L 334.382253 352.969468 
L 340.240642 353.2239 
L 351.95742 353.16226 
L 387.107756 353.2239 
L 469.125206 353.2239 
L 474.983595 353.029793 
L 480.841984 353.2239 
L 498.417152 353.2239 
L 504.275541 352.948453 
L 510.13393 353.2239 
L 515.99232 353.161592 
L 527.709098 353.2239 
L 533.567487 353.07876 
L 539.425877 353.2239 
L 551.142655 353.2239 
L 557.001044 353.056339 
L 562.859434 353.214252 
L 592.15138 353.2239 
L 598.009769 352.807722 
L 603.868159 353.2239 
L 627.301716 353.2239 
L 949.513125 353.2239 
L 949.513125 353.2239 
" style="fill:none;stroke:#91e8e1;stroke-linecap:square;"/>
   </g>
   <g id="line2d_37">
    <path clip-path="url(#p3ca17c1a2a)" d="M 76.613125 320.016022 
L 82.471514 353.2239 
L 146.913796 353.2239 
L 152.772185 353.000924 
L 158.630575 353.2239 
L 328.523863 353.209923 
L 334.382253 352.978848 
L 340.240642 353.2239 
L 351.95742 353.165777 
L 375.390977 353.2239 
L 498.417152 353.2239 
L 504.275541 352.98585 
L 510.13393 353.2239 
L 515.99232 353.132184 
L 527.709098 353.2239 
L 533.567487 353.079153 
L 539.425877 353.219788 
L 551.142655 353.2239 
L 557.001044 353.076405 
L 562.859434 353.211154 
L 592.15138 353.2239 
L 598.009769 352.833907 
L 603.868159 353.2239 
L 621.443326 353.202919 
L 650.735273 353.2239 
L 732.752722 353.2239 
L 949.513125 353.2239 
L 949.513125 353.2239 
" style="fill:none;stroke:#7cb5ec;stroke-linecap:square;"/>
   </g>
   <g id="line2d_38">
    <path clip-path="url(#p3ca17c1a2a)" d="M 76.613125 320.151794 
L 82.471514 353.2239 
L 146.913796 353.2239 
L 152.772185 352.999966 
L 158.630575 353.2239 
L 328.523863 353.210197 
L 334.382253 352.98601 
L 340.240642 353.2239 
L 351.95742 353.159496 
L 375.390977 353.2239 
L 469.125206 353.2239 
L 474.983595 353.041136 
L 480.841984 353.2239 
L 498.417152 353.2239 
L 504.275541 352.960769 
L 510.13393 353.2239 
L 515.99232 353.128349 
L 527.709098 353.2239 
L 533.567487 353.024053 
L 539.425877 353.221131 
L 551.142655 353.2239 
L 557.001044 353.083362 
L 562.859434 353.218092 
L 592.15138 353.2239 
L 598.009769 352.798396 
L 603.868159 353.2239 
L 639.018494 353.2239 
L 949.513125 353.2239 
L 949.513125 353.2239 
" style="fill:none;stroke:#434348;stroke-linecap:square;"/>
   </g>
   <g id="line2d_39">
    <path clip-path="url(#p3ca17c1a2a)" d="M 76.613125 320.155419 
L 82.471514 353.2239 
L 146.913796 353.2239 
L 152.772185 352.97475 
L 158.630575 353.2239 
L 193.78091 353.219015 
L 199.639299 353.084669 
L 205.497689 353.2239 
L 328.523863 353.209055 
L 334.382253 352.961077 
L 340.240642 353.2239 
L 351.95742 353.133968 
L 363.674199 353.2239 
L 469.125206 353.2239 
L 474.983595 353.052498 
L 480.841984 353.2239 
L 498.417152 353.2239 
L 504.275541 352.958554 
L 510.13393 353.2239 
L 515.99232 353.135686 
L 527.709098 353.2239 
L 533.567487 353.035671 
L 539.425877 353.21776 
L 551.142655 353.2239 
L 557.001044 353.077574 
L 562.859434 353.220679 
L 592.15138 353.2239 
L 598.009769 352.839991 
L 603.868159 353.2239 
L 633.160105 353.2239 
L 949.513125 353.2239 
L 949.513125 353.2239 
" style="fill:none;stroke:#90ed7d;stroke-linecap:square;"/>
   </g>
   <g id="line2d_40">
    <path clip-path="url(#p3ca17c1a2a)" d="M 76.613125 320.585375 
L 82.471514 353.2239 
L 146.913796 353.2239 
L 152.772185 353.030417 
L 158.630575 353.2239 
L 328.523863 353.208172 
L 334.382253 353.012339 
L 340.240642 353.2239 
L 351.95742 353.160502 
L 392.966145 353.2239 
L 469.125206 353.2239 
L 474.983595 353.085857 
L 480.841984 353.2239 
L 498.417152 353.2239 
L 504.275541 352.966069 
L 510.13393 353.2239 
L 515.99232 353.1383 
L 527.709098 353.2239 
L 533.567487 353.093426 
L 539.425877 353.218524 
L 551.142655 353.2239 
L 557.001044 353.113136 
L 568.717823 353.2239 
L 592.15138 353.2239 
L 598.009769 352.840357 
L 603.868159 353.2239 
L 627.301716 353.2239 
L 949.513125 353.2239 
L 949.513125 353.2239 
" style="fill:none;stroke:#f7a35c;stroke-linecap:square;"/>
   </g>
   <g id="line2d_41">
    <path clip-path="url(#p3ca17c1a2a)" d="M 76.613125 321.209101 
L 82.471514 353.2239 
L 146.913796 353.2239 
L 152.772185 353.033367 
L 158.630575 353.2239 
L 328.523863 353.218667 
L 334.382253 353.019259 
L 340.240642 353.2239 
L 351.95742 353.155031 
L 369.532588 353.2239 
L 469.125206 353.2239 
L 474.983595 353.103807 
L 480.841984 353.2239 
L 498.417152 353.2239 
L 504.275541 352.871682 
L 510.13393 353.2239 
L 521.850709 353.217408 
L 527.709098 353.2239 
L 533.567487 353.051229 
L 539.425877 353.217181 
L 551.142655 353.2239 
L 557.001044 353.09838 
L 562.859434 353.216837 
L 592.15138 353.2239 
L 598.009769 352.847521 
L 603.868159 353.2239 
L 644.876883 353.2239 
L 908.5044 353.2239 
L 914.362789 353.04246 
L 920.221179 353.2239 
L 949.513125 353.2239 
L 949.513125 353.2239 
" style="fill:none;stroke:#8085e9;stroke-linecap:square;"/>
   </g>
   <g id="line2d_42">
    <path clip-path="url(#p3ca17c1a2a)" d="M 76.613125 322.354676 
L 82.471514 353.2239 
L 246.506414 353.2239 
L 328.523863 353.215941 
L 334.382253 353.096502 
L 340.240642 353.2239 
L 351.95742 353.164104 
L 363.674199 353.21592 
L 445.691648 353.2239 
L 498.417152 353.2239 
L 504.275541 353.065432 
L 510.13393 353.2239 
L 515.99232 353.150581 
L 527.709098 353.2239 
L 533.567487 353.064402 
L 539.425877 353.215709 
L 592.15138 353.2239 
L 598.009769 352.936672 
L 603.868159 353.2239 
L 650.735273 353.2239 
L 949.513125 353.2239 
L 949.513125 353.2239 
" style="fill:none;stroke:#f15c80;stroke-linecap:square;"/>
   </g>
   <g id="line2d_43">
    <path clip-path="url(#p3ca17c1a2a)" d="M 76.613125 321.756578 
L 82.471514 353.2239 
L 404.682924 353.214295 
L 469.125206 353.2239 
L 474.983595 353.144259 
L 486.700373 353.2239 
L 498.417152 353.2239 
L 504.275541 353.016479 
L 510.13393 353.2239 
L 515.99232 353.155158 
L 527.709098 353.2239 
L 533.567487 353.077604 
L 539.425877 353.222483 
L 592.15138 353.2239 
L 598.009769 352.887456 
L 603.868159 353.2239 
L 627.301716 353.2239 
L 949.513125 353.2239 
L 949.513125 353.2239 
" style="fill:none;stroke:#e4d354;stroke-linecap:square;"/>
   </g>
   <g id="line2d_44">
    <path clip-path="url(#p3ca17c1a2a)" d="M 76.613125 321.589391 
L 82.471514 353.2239 
L 498.417152 353.2239 
L 504.275541 353.035265 
L 510.13393 353.2239 
L 515.99232 353.151942 
L 527.709098 353.2239 
L 533.567487 353.087248 
L 539.425877 353.219425 
L 592.15138 353.2239 
L 598.009769 352.89435 
L 603.868159 353.2239 
L 627.301716 353.2239 
L 949.513125 353.2239 
L 949.513125 353.2239 
" style="fill:none;stroke:#2b908f;stroke-linecap:square;"/>
   </g>
   <g id="line2d_45">
    <path clip-path="url(#p3ca17c1a2a)" d="M 76.613125 319.623776 
L 82.471514 353.2239 
L 88.329904 353.15821 
L 100.046682 353.2239 
L 146.913796 353.2239 
L 152.772185 352.993987 
L 158.630575 353.2239 
L 193.78091 353.2239 
L 199.639299 353.092521 
L 205.497689 353.2239 
L 328.523863 353.158013 
L 334.382253 352.960212 
L 340.240642 353.2239 
L 346.099031 353.124885 
L 363.674199 353.2239 
L 498.417152 353.2239 
L 504.275541 353.038361 
L 510.13393 353.2239 
L 515.99232 353.147756 
L 527.709098 353.2239 
L 533.567487 353.064732 
L 539.425877 353.2239 
L 551.142655 353.2239 
L 557.001044 353.01066 
L 562.859434 353.2239 
L 592.15138 353.2239 
L 598.009769 352.731236 
L 603.868159 353.2239 
L 949.513125 353.2239 
L 949.513125 353.2239 
" style="fill:none;stroke:#f45b5b;stroke-linecap:square;"/>
   </g>
   <g id="line2d_46">
    <path clip-path="url(#p3ca17c1a2a)" d="M 76.613125 321.822779 
L 82.471514 353.2239 
L 328.523863 353.215976 
L 334.382253 353.071341 
L 340.240642 353.2239 
L 351.95742 353.152543 
L 369.532588 353.2239 
L 498.417152 353.2239 
L 504.275541 353.02024 
L 510.13393 353.2239 
L 515.99232 353.149017 
L 527.709098 353.2239 
L 533.567487 353.067078 
L 539.425877 353.219817 
L 592.15138 353.2239 
L 598.009769 352.87912 
L 603.868159 353.2239 
L 627.301716 353.2239 
L 949.513125 353.2239 
L 949.513125 353.2239 
" style="fill:none;stroke:#91e8e1;stroke-linecap:square;"/>
   </g>
   <g id="line2d_47">
    <path clip-path="url(#p3ca17c1a2a)" d="M 76.613125 321.315048 
L 82.471514 353.2239 
L 586.292991 353.2239 
L 592.15138 353.2239 
L 598.009769 352.892944 
L 603.868159 353.2239 
L 627.301716 353.2239 
L 949.513125 353.2239 
L 949.513125 353.2239 
" style="fill:none;stroke:#7cb5ec;stroke-linecap:square;"/>
   </g>
   <g id="line2d_48">
    <path clip-path="url(#p3ca17c1a2a)" d="M 76.613125 321.462013 
L 82.471514 353.2239 
L 258.223192 353.21014 
L 310.948695 353.222982 
L 328.523863 353.211962 
L 334.382253 353.070523 
L 340.240642 353.2239 
L 351.95742 353.155896 
L 375.390977 353.2239 
L 498.417152 353.2239 
L 504.275541 352.993418 
L 510.13393 353.2239 
L 515.99232 353.156469 
L 527.709098 353.2239 
L 533.567487 353.069567 
L 539.425877 353.222938 
L 592.15138 353.2239 
L 598.009769 352.863659 
L 603.868159 353.2239 
L 639.018494 353.2239 
L 949.513125 353.2239 
L 949.513125 353.2239 
" style="fill:none;stroke:#434348;stroke-linecap:square;"/>
   </g>
   <g id="line2d_49">
    <path clip-path="url(#p3ca17c1a2a)" d="M 76.613125 322.123577 
L 82.471514 353.2239 
L 539.425877 353.220222 
L 592.15138 353.2239 
L 598.009769 352.887439 
L 603.868159 353.2239 
L 633.160105 353.2239 
L 949.513125 353.2239 
L 949.513125 353.2239 
" style="fill:none;stroke:#90ed7d;stroke-linecap:square;"/>
   </g>
   <g id="line2d_50">
    <path clip-path="url(#p3ca17c1a2a)" d="M 76.613125 321.779854 
L 82.471514 353.2239 
L 264.081581 353.2239 
L 328.523863 353.209755 
L 334.382253 353.098357 
L 340.240642 353.2239 
L 351.95742 353.167303 
L 375.390977 353.2239 
L 498.417152 353.2239 
L 504.275541 353.029459 
L 510.13393 353.2239 
L 515.99232 353.153781 
L 527.709098 353.2239 
L 533.567487 353.061121 
L 539.425877 353.221181 
L 592.15138 353.2239 
L 598.009769 352.91218 
L 603.868159 353.2239 
L 650.735273 353.2239 
L 949.513125 353.2239 
L 949.513125 353.2239 
" style="fill:none;stroke:#f7a35c;stroke-linecap:square;"/>
   </g>
   <g id="line2d_51">
    <path clip-path="url(#p3ca17c1a2a)" d="M 76.613125 321.646752 
L 82.471514 353.2239 
L 146.913796 353.2239 
L 152.772185 353.075317 
L 158.630575 353.2239 
L 328.523863 353.198041 
L 334.382253 353.049334 
L 340.240642 353.2239 
L 346.099031 353.146295 
L 369.532588 353.2239 
L 498.417152 353.2239 
L 504.275541 353.011488 
L 510.13393 353.2239 
L 515.99232 353.070312 
L 521.850709 353.2239 
L 527.709098 353.2239 
L 533.567487 353.028229 
L 539.425877 353.217126 
L 551.142655 353.2239 
L 557.001044 353.072974 
L 562.859434 353.2239 
L 592.15138 353.2239 
L 598.009769 352.840134 
L 603.868159 353.2239 
L 644.876883 353.2239 
L 949.513125 353.2239 
L 949.513125 353.2239 
" style="fill:none;stroke:#8085e9;stroke-linecap:square;"/>
   </g>
   <g id="line2d_52">
    <path clip-path="url(#p3ca17c1a2a)" d="M 76.613125 321.433396 
L 82.471514 353.2239 
L 105.905071 353.2239 
L 111.763461 353.109545 
L 117.62185 353.2239 
L 146.913796 353.2239 
L 152.772185 352.995191 
L 158.630575 353.2239 
L 234.789635 353.2239 
L 240.648024 353.109545 
L 246.506414 353.2239 
L 328.523863 353.2239 
L 334.382253 352.880145 
L 340.240642 353.2239 
L 346.099031 353.2239 
L 351.95742 353.109224 
L 357.81581 353.2239 
L 527.709098 353.2239 
L 533.567487 353.10179 
L 539.425877 353.2239 
L 551.142655 353.2239 
L 557.001044 352.973453 
L 562.859434 353.2239 
L 592.15138 353.2239 
L 598.009769 352.960289 
L 603.868159 353.2239 
L 697.602387 353.2239 
L 703.460776 353.062952 
L 709.319165 353.2239 
L 949.513125 353.2239 
L 949.513125 353.2239 
" style="fill:none;stroke:#f15c80;stroke-linecap:square;"/>
   </g>
   <g id="line2d_53">
    <path clip-path="url(#p3ca17c1a2a)" d="M 76.613125 322.767653 
L 82.471514 353.2239 
L 223.072857 353.195174 
L 246.506414 353.2239 
L 328.523863 353.209522 
L 334.382253 353.075306 
L 340.240642 353.2239 
L 351.95742 353.17235 
L 381.249367 353.2239 
L 498.417152 353.2239 
L 504.275541 353.007182 
L 510.13393 353.2239 
L 515.99232 353.150606 
L 527.709098 353.2239 
L 533.567487 353.06786 
L 539.425877 353.220206 
L 592.15138 353.2239 
L 598.009769 352.884736 
L 603.868159 353.2239 
L 639.018494 353.2239 
L 949.513125 353.2239 
L 949.513125 353.2239 
" style="fill:none;stroke:#e4d354;stroke-linecap:square;"/>
   </g>
   <g id="line2d_54">
    <path clip-path="url(#p3ca17c1a2a)" d="M 76.613125 322.092162 
L 82.471514 353.2239 
L 328.523863 353.221048 
L 334.382253 353.108401 
L 340.240642 353.2239 
L 357.81581 353.203931 
L 398.824534 353.2239 
L 498.417152 353.2239 
L 504.275541 352.99768 
L 510.13393 353.2239 
L 515.99232 353.153123 
L 527.709098 353.2239 
L 533.567487 353.055584 
L 539.425877 353.222446 
L 592.15138 353.2239 
L 598.009769 352.882415 
L 603.868159 353.2239 
L 627.301716 353.2239 
L 949.513125 353.2239 
L 949.513125 353.2239 
" style="fill:none;stroke:#2b908f;stroke-linecap:square;"/>
   </g>
   <g id="line2d_55">
    <path clip-path="url(#p3ca17c1a2a)" d="M 76.613125 322.251209 
L 82.471514 353.2239 
L 328.523863 353.212059 
L 334.382253 353.103108 
L 340.240642 353.2239 
L 351.95742 353.181248 
L 392.966145 353.2239 
L 498.417152 353.2239 
L 504.275541 353.008026 
L 510.13393 353.2239 
L 515.99232 353.149365 
L 527.709098 353.2239 
L 533.567487 353.05973 
L 539.425877 353.221482 
L 592.15138 353.2239 
L 598.009769 352.890932 
L 603.868159 353.2239 
L 621.443326 353.198988 
L 650.735273 353.2239 
L 773.761447 353.2239 
L 949.513125 353.2239 
L 949.513125 353.2239 
" style="fill:none;stroke:#f45b5b;stroke-linecap:square;"/>
   </g>
   <g id="line2d_56">
    <path clip-path="url(#p3ca17c1a2a)" d="M 76.613125 322.828067 
L 82.471514 353.2239 
L 334.382253 353.083473 
L 340.240642 353.2239 
L 357.81581 353.197815 
L 387.107756 353.2239 
L 498.417152 353.2239 
L 504.275541 353.033472 
L 510.13393 353.2239 
L 515.99232 353.143186 
L 527.709098 353.2239 
L 533.567487 353.099522 
L 539.425877 353.2239 
L 592.15138 353.2239 
L 598.009769 352.903583 
L 603.868159 353.2239 
L 633.160105 353.2239 
L 949.513125 353.2239 
L 949.513125 353.2239 
" style="fill:none;stroke:#91e8e1;stroke-linecap:square;"/>
   </g>
   <g id="line2d_57">
    <path clip-path="url(#p3ca17c1a2a)" d="M 76.613125 323.471889 
L 82.471514 353.2239 
L 146.913796 353.2239 
L 152.772185 353.078945 
L 158.630575 353.2239 
L 328.523863 353.2239 
L 334.382253 353.078566 
L 340.240642 353.2239 
L 351.95742 353.114794 
L 387.107756 353.2239 
L 498.417152 353.2239 
L 504.275541 353.112764 
L 510.13393 353.2239 
L 515.99232 353.149593 
L 527.709098 353.2239 
L 533.567487 352.925289 
L 539.425877 353.2239 
L 551.142655 353.2239 
L 557.001044 353.111073 
L 586.292991 353.2239 
L 592.15138 353.2239 
L 598.009769 352.956516 
L 603.868159 353.2239 
L 609.726548 353.147118 
L 615.584937 353.2239 
L 621.443326 353.146727 
L 633.160105 353.2239 
L 949.513125 353.2239 
L 949.513125 353.2239 
" style="fill:none;stroke:#7cb5ec;stroke-linecap:square;"/>
   </g>
   <g id="line2d_58">
    <path clip-path="url(#p3ca17c1a2a)" d="M 76.613125 322.636269 
L 82.471514 353.2239 
L 381.249367 353.2239 
L 498.417152 353.2239 
L 504.275541 353.03723 
L 510.13393 353.2239 
L 515.99232 353.162318 
L 527.709098 353.2239 
L 533.567487 353.065136 
L 539.425877 353.2239 
L 592.15138 353.2239 
L 598.009769 352.933415 
L 603.868159 353.2239 
L 627.301716 353.2239 
L 949.513125 353.2239 
L 949.513125 353.2239 
" style="fill:none;stroke:#434348;stroke-linecap:square;"/>
   </g>
   <g id="line2d_59">
    <path clip-path="url(#p3ca17c1a2a)" d="M 76.613125 321.298132 
L 82.471514 353.2239 
L 146.913796 353.2239 
L 152.772185 353.090213 
L 158.630575 353.2239 
L 328.523863 353.221777 
L 334.382253 353.066752 
L 340.240642 353.2239 
L 357.81581 353.196283 
L 387.107756 353.2239 
L 498.417152 353.2239 
L 504.275541 353.010704 
L 510.13393 353.2239 
L 515.99232 353.143958 
L 527.709098 353.2239 
L 533.567487 353.073944 
L 539.425877 353.219544 
L 551.142655 353.2239 
L 557.001044 353.107568 
L 568.717823 353.2239 
L 592.15138 353.2239 
L 598.009769 352.860113 
L 603.868159 353.2239 
L 639.018494 353.2239 
L 949.513125 353.2239 
L 949.513125 353.2239 
" style="fill:none;stroke:#90ed7d;stroke-linecap:square;"/>
   </g>
   <g id="line2d_60">
    <path clip-path="url(#p3ca17c1a2a)" d="M 76.613125 321.551743 
L 82.471514 353.2239 
L 146.913796 353.2239 
L 152.772185 353.086278 
L 158.630575 353.2239 
L 328.523863 353.217567 
L 334.382253 353.060805 
L 340.240642 353.2239 
L 351.95742 353.158954 
L 375.390977 353.2239 
L 498.417152 353.2239 
L 504.275541 352.98368 
L 510.13393 353.2239 
L 515.99232 353.152693 
L 527.709098 353.2239 
L 533.567487 353.103355 
L 539.425877 353.222267 
L 592.15138 353.2239 
L 598.009769 352.845152 
L 603.868159 353.2239 
L 627.301716 353.2239 
L 949.513125 353.2239 
L 949.513125 353.2239 
" style="fill:none;stroke:#f7a35c;stroke-linecap:square;"/>
   </g>
   <g id="line2d_61">
    <path clip-path="url(#p3ca17c1a2a)" d="M 76.613125 323.450776 
L 82.471514 353.2239 
L 949.513125 353.2239 
L 949.513125 353.2239 
" style="fill:none;stroke:#8085e9;stroke-linecap:square;"/>
   </g>
   <g id="line2d_62">
    <path clip-path="url(#p3ca17c1a2a)" d="M 76.613125 322.681166 
L 82.471514 353.2239 
L 328.523863 353.219433 
L 334.382253 353.086903 
L 340.240642 353.2239 
L 357.81581 353.195589 
L 392.966145 353.2239 
L 498.417152 353.2239 
L 504.275541 353.029082 
L 510.13393 353.2239 
L 515.99232 353.152734 
L 527.709098 353.2239 
L 533.567487 353.074845 
L 539.425877 353.222376 
L 592.15138 353.2239 
L 598.009769 352.897112 
L 603.868159 353.2239 
L 633.160105 353.2239 
L 949.513125 353.2239 
L 949.513125 353.2239 
" style="fill:none;stroke:#f15c80;stroke-linecap:square;"/>
   </g>
   <g id="line2d_63">
    <path clip-path="url(#p3ca17c1a2a)" d="M 76.613125 322.812423 
L 82.471514 353.2239 
L 187.922521 353.2239 
L 498.417152 353.2239 
L 504.275541 353.056539 
L 510.13393 353.2239 
L 515.99232 353.134068 
L 527.709098 353.2239 
L 533.567487 353.067664 
L 539.425877 353.217884 
L 592.15138 353.2239 
L 598.009769 352.942652 
L 603.868159 353.2239 
L 621.443326 353.16841 
L 639.018494 353.2239 
L 949.513125 353.2239 
L 949.513125 353.2239 
" style="fill:none;stroke:#e4d354;stroke-linecap:square;"/>
   </g>
   <g id="line2d_64">
    <path clip-path="url(#p3ca17c1a2a)" d="M 76.613125 322.05496 
L 82.471514 353.2239 
L 328.523863 353.2239 
L 334.382253 353.084991 
L 340.240642 353.2239 
L 357.81581 353.200727 
L 398.824534 353.2239 
L 457.408427 353.2239 
L 498.417152 353.2239 
L 504.275541 352.993418 
L 510.13393 353.2239 
L 521.850709 353.219563 
L 527.709098 353.2239 
L 533.567487 353.036472 
L 539.425877 353.2239 
L 592.15138 353.2239 
L 598.009769 352.86724 
L 603.868159 353.2239 
L 656.593662 353.2239 
L 949.513125 353.2239 
L 949.513125 353.2239 
" style="fill:none;stroke:#2b908f;stroke-linecap:square;"/>
   </g>
   <g id="line2d_65">
    <path clip-path="url(#p3ca17c1a2a)" d="M 76.613125 321.761475 
L 82.471514 353.2239 
L 498.417152 353.2239 
L 504.275541 353.013537 
L 510.13393 353.2239 
L 515.99232 353.155213 
L 527.709098 353.2239 
L 533.567487 353.080879 
L 539.425877 353.221429 
L 592.15138 353.2239 
L 598.009769 352.914292 
L 603.868159 353.2239 
L 627.301716 353.2239 
L 949.513125 353.2239 
L 949.513125 353.2239 
" style="fill:none;stroke:#f45b5b;stroke-linecap:square;"/>
   </g>
   <g id="line2d_66">
    <path clip-path="url(#p3ca17c1a2a)" d="M 76.613125 322.370066 
L 82.471514 353.2239 
L 240.648024 353.173396 
L 258.223192 353.219691 
L 328.523863 353.219638 
L 334.382253 353.053107 
L 340.240642 353.2239 
L 351.95742 353.180972 
L 457.408427 353.2239 
L 498.417152 353.2239 
L 504.275541 353.032567 
L 510.13393 353.2239 
L 515.99232 353.155177 
L 527.709098 353.2239 
L 533.567487 353.094478 
L 539.425877 353.219264 
L 592.15138 353.2239 
L 598.009769 352.926887 
L 603.868159 353.2239 
L 621.443326 353.204455 
L 656.593662 353.218924 
L 791.336615 353.2239 
L 949.513125 353.2239 
L 949.513125 353.2239 
" style="fill:none;stroke:#91e8e1;stroke-linecap:square;"/>
   </g>
   <g id="line2d_67">
    <path clip-path="url(#p3ca17c1a2a)" d="M 76.613125 322.381894 
L 82.471514 353.2239 
L 498.417152 353.2239 
L 504.275541 353.00209 
L 510.13393 353.2239 
L 515.99232 353.151961 
L 527.709098 353.2239 
L 533.567487 353.092538 
L 539.425877 353.2239 
L 592.15138 353.2239 
L 598.009769 352.902939 
L 603.868159 353.2239 
L 650.735273 353.2239 
L 744.469501 353.2239 
L 949.513125 353.2239 
L 949.513125 353.2239 
" style="fill:none;stroke:#7cb5ec;stroke-linecap:square;"/>
   </g>
   <g id="line2d_68">
    <path clip-path="url(#p3ca17c1a2a)" d="M 76.613125 322.943998 
L 82.471514 353.2239 
L 146.913796 353.2239 
L 152.772185 353.102791 
L 158.630575 353.2239 
L 328.523863 353.221253 
L 334.382253 353.080867 
L 340.240642 353.2239 
L 357.81581 353.189373 
L 381.249367 353.2239 
L 498.417152 353.2239 
L 504.275541 353.027888 
L 510.13393 353.2239 
L 515.99232 353.158374 
L 527.709098 353.2239 
L 533.567487 353.073028 
L 539.425877 353.2239 
L 592.15138 353.2239 
L 598.009769 352.916001 
L 603.868159 353.2239 
L 621.443326 353.198494 
L 650.735273 353.2239 
L 949.513125 353.2239 
L 949.513125 353.2239 
" style="fill:none;stroke:#434348;stroke-linecap:square;"/>
   </g>
   <g id="line2d_69">
    <path clip-path="url(#p3ca17c1a2a)" d="M 76.613125 322.606698 
L 82.471514 353.2239 
L 100.046682 353.2239 
L 328.523863 353.179062 
L 334.382253 353.08928 
L 340.240642 353.2239 
L 351.95742 353.163899 
L 369.532588 353.2239 
L 469.125206 353.2239 
L 474.983595 353.099906 
L 480.841984 353.2239 
L 498.417152 353.2239 
L 504.275541 352.879061 
L 510.13393 353.2239 
L 515.99232 353.097877 
L 521.850709 353.2239 
L 527.709098 353.2239 
L 533.567487 353.033392 
L 539.425877 353.2239 
L 592.15138 353.2239 
L 598.009769 352.846873 
L 603.868159 353.2239 
L 621.443326 353.174068 
L 639.018494 353.2239 
L 949.513125 353.2239 
L 949.513125 353.2239 
" style="fill:none;stroke:#90ed7d;stroke-linecap:square;"/>
   </g>
   <g id="line2d_70">
    <path clip-path="url(#p3ca17c1a2a)" d="M 76.613125 322.286631 
L 82.471514 353.2239 
L 334.382253 353.121754 
L 340.240642 353.2239 
L 351.95742 353.168746 
L 387.107756 353.2239 
L 498.417152 353.2239 
L 504.275541 352.998796 
L 510.13393 353.2239 
L 521.850709 353.2239 
L 527.709098 353.2239 
L 533.567487 353.040608 
L 539.425877 353.2239 
L 592.15138 353.2239 
L 598.009769 352.935824 
L 603.868159 353.2239 
L 621.443326 353.20132 
L 650.735273 353.2239 
L 949.513125 353.2239 
L 949.513125 353.2239 
" style="fill:none;stroke:#f7a35c;stroke-linecap:square;"/>
   </g>
   <g id="line2d_71">
    <path clip-path="url(#p3ca17c1a2a)" d="M 76.613125 321.939346 
L 82.471514 353.2239 
L 146.913796 353.2239 
L 152.772185 353.08109 
L 158.630575 353.2239 
L 328.523863 353.214617 
L 334.382253 353.049351 
L 340.240642 353.2239 
L 351.95742 353.149576 
L 369.532588 353.2239 
L 498.417152 353.2239 
L 504.275541 352.992434 
L 510.13393 353.2239 
L 515.99232 353.127673 
L 527.709098 353.2239 
L 533.567487 353.037203 
L 539.425877 353.2239 
L 551.142655 353.2239 
L 557.001044 353.107257 
L 568.717823 353.2239 
L 592.15138 353.2239 
L 598.009769 352.869607 
L 603.868159 353.2239 
L 627.301716 353.2239 
L 949.513125 353.2239 
L 949.513125 353.2239 
" style="fill:none;stroke:#8085e9;stroke-linecap:square;"/>
   </g>
   <g id="line2d_72">
    <path clip-path="url(#p3ca17c1a2a)" d="M 76.613125 322.631181 
L 82.471514 353.2239 
L 498.417152 353.2239 
L 504.275541 353.105035 
L 510.13393 353.2239 
L 515.99232 353.154317 
L 527.709098 353.2239 
L 533.567487 353.08391 
L 539.425877 353.213881 
L 592.15138 353.2239 
L 598.009769 353.049922 
L 603.868159 353.2239 
L 662.452051 353.2239 
L 949.513125 353.2239 
L 949.513125 353.2239 
" style="fill:none;stroke:#f15c80;stroke-linecap:square;"/>
   </g>
   <g id="line2d_73">
    <path clip-path="url(#p3ca17c1a2a)" d="M 76.613125 326.007111 
L 82.471514 353.2239 
L 328.523863 353.2239 
L 334.382253 353.042567 
L 340.240642 353.2239 
L 469.125206 353.2239 
L 474.983595 352.850303 
L 480.841984 353.2239 
L 498.417152 353.2239 
L 504.275541 352.657902 
L 510.13393 353.2239 
L 515.99232 353.034413 
L 521.850709 353.2239 
L 551.142655 353.2239 
L 557.001044 353.030906 
L 562.859434 353.2239 
L 592.15138 353.2239 
L 598.009769 352.436122 
L 603.868159 353.2239 
L 908.5044 353.2239 
L 914.362789 352.970428 
L 920.221179 353.2239 
L 949.513125 353.2239 
L 949.513125 353.2239 
" style="fill:none;stroke:#e4d354;stroke-linecap:square;"/>
   </g>
   <g id="line2d_74">
    <path clip-path="url(#p3ca17c1a2a)" d="M 76.613125 322.087838 
L 82.471514 353.2239 
L 228.931246 353.2239 
L 328.523863 353.210875 
L 334.382253 353.11098 
L 340.240642 353.2239 
L 346.099031 353.132625 
L 387.107756 353.2239 
L 498.417152 353.2239 
L 504.275541 353.028983 
L 510.13393 353.2239 
L 515.99232 353.143967 
L 527.709098 353.2239 
L 533.567487 353.076744 
L 539.425877 353.219434 
L 592.15138 353.2239 
L 598.009769 352.964957 
L 603.868159 353.2239 
L 639.018494 353.2239 
L 949.513125 353.2239 
L 949.513125 353.2239 
" style="fill:none;stroke:#2b908f;stroke-linecap:square;"/>
   </g>
   <g id="line2d_75">
    <path clip-path="url(#p3ca17c1a2a)" d="M 76.613125 324.701471 
L 82.471514 353.2239 
L 469.125206 353.2239 
L 474.983595 353.013238 
L 480.841984 353.2239 
L 498.417152 353.2239 
L 504.275541 352.588948 
L 510.13393 353.2239 
L 515.99232 353.117797 
L 527.709098 353.2239 
L 533.567487 352.904537 
L 539.425877 353.2239 
L 592.15138 353.2239 
L 598.009769 352.681875 
L 603.868159 353.2239 
L 685.885608 353.2239 
L 691.743997 353.11071 
L 697.602387 353.2239 
L 908.5044 353.2239 
L 914.362789 352.948603 
L 920.221179 353.2239 
L 949.513125 353.2239 
L 949.513125 353.2239 
" style="fill:none;stroke:#f45b5b;stroke-linecap:square;"/>
   </g>
   <g id="line2d_76">
    <path clip-path="url(#p3ca17c1a2a)" d="M 76.613125 322.4811 
L 82.471514 353.2239 
L 328.523863 353.189938 
L 334.382253 353.105021 
L 340.240642 353.2239 
L 351.95742 353.121972 
L 369.532588 353.2239 
L 498.417152 353.2239 
L 504.275541 352.981708 
L 510.13393 353.2239 
L 515.99232 353.154423 
L 527.709098 353.2239 
L 533.567487 353.136429 
L 545.284266 353.2239 
L 592.15138 353.2239 
L 598.009769 352.879516 
L 603.868159 353.2239 
L 639.018494 353.2239 
L 949.513125 353.2239 
L 949.513125 353.2239 
" style="fill:none;stroke:#91e8e1;stroke-linecap:square;"/>
   </g>
   <g id="line2d_77">
    <path clip-path="url(#p3ca17c1a2a)" d="M 76.613125 323.203142 
L 82.471514 353.2239 
L 328.523863 353.213572 
L 334.382253 353.101975 
L 340.240642 353.2239 
L 351.95742 353.178377 
L 422.258091 353.2239 
L 498.417152 353.2239 
L 504.275541 353.01082 
L 510.13393 353.2239 
L 521.850709 353.217547 
L 527.709098 353.2239 
L 533.567487 353.03915 
L 539.425877 353.219647 
L 592.15138 353.2239 
L 598.009769 352.906015 
L 603.868159 353.2239 
L 627.301716 353.2239 
L 949.513125 353.2239 
L 949.513125 353.2239 
" style="fill:none;stroke:#7cb5ec;stroke-linecap:square;"/>
   </g>
   <g id="line2d_78">
    <path clip-path="url(#p3ca17c1a2a)" d="M 76.613125 321.302011 
L 82.471514 353.2239 
L 275.79836 353.215628 
L 328.523863 353.209001 
L 334.382253 353.099727 
L 340.240642 353.2239 
L 351.95742 353.179177 
L 392.966145 353.2239 
L 498.417152 353.2239 
L 504.275541 353.01427 
L 510.13393 353.2239 
L 515.99232 353.157684 
L 527.709098 353.2239 
L 533.567487 353.057968 
L 539.425877 353.222184 
L 592.15138 353.2239 
L 598.009769 352.932323 
L 603.868159 353.2239 
L 627.301716 353.2239 
L 949.513125 353.2239 
L 949.513125 353.2239 
" style="fill:none;stroke:#434348;stroke-linecap:square;"/>
   </g>
   <g id="line2d_79">
    <path clip-path="url(#p3ca17c1a2a)" d="M 76.613125 322.742088 
L 82.471514 353.2239 
L 328.523863 353.209684 
L 334.382253 353.110022 
L 340.240642 353.2239 
L 351.95742 353.145261 
L 369.532588 353.2239 
L 498.417152 353.2239 
L 504.275541 353.028291 
L 510.13393 353.2239 
L 521.850709 353.208738 
L 527.709098 353.2239 
L 533.567487 353.025723 
L 539.425877 353.2239 
L 592.15138 353.2239 
L 598.009769 352.90103 
L 603.868159 353.2239 
L 691.743997 353.190575 
L 715.177555 353.2239 
L 949.513125 353.2239 
L 949.513125 353.2239 
" style="fill:none;stroke:#90ed7d;stroke-linecap:square;"/>
   </g>
   <g id="line2d_80">
    <path clip-path="url(#p3ca17c1a2a)" d="M 76.613125 321.480073 
L 82.471514 353.2239 
L 293.373528 353.198531 
L 322.665474 353.2239 
L 328.523863 353.215175 
L 334.382253 353.05334 
L 340.240642 353.2239 
L 351.95742 353.164376 
L 375.390977 353.2239 
L 498.417152 353.2239 
L 504.275541 352.975295 
L 510.13393 353.2239 
L 515.99232 353.156112 
L 527.709098 353.2239 
L 533.567487 353.073875 
L 539.425877 353.221418 
L 551.142655 353.2239 
L 557.001044 353.106761 
L 568.717823 353.2239 
L 592.15138 353.2239 
L 598.009769 352.845148 
L 603.868159 353.2239 
L 633.160105 353.2239 
L 949.513125 353.2239 
L 949.513125 353.2239 
" style="fill:none;stroke:#f7a35c;stroke-linecap:square;"/>
   </g>
   <g id="line2d_81">
    <path clip-path="url(#p3ca17c1a2a)" d="M 76.613125 323.836407 
L 82.471514 353.2239 
L 469.125206 353.2239 
L 474.983595 353.051828 
L 480.841984 353.2239 
L 498.417152 353.2239 
L 504.275541 352.945091 
L 510.13393 353.2239 
L 521.850709 353.188771 
L 527.709098 353.2239 
L 533.567487 353.011875 
L 539.425877 353.2239 
L 592.15138 353.2239 
L 598.009769 352.857736 
L 603.868159 353.2239 
L 621.443326 353.186715 
L 639.018494 353.2239 
L 949.513125 353.2239 
L 949.513125 353.2239 
" style="fill:none;stroke:#8085e9;stroke-linecap:square;"/>
   </g>
   <g id="line2d_82">
    <path clip-path="url(#p3ca17c1a2a)" d="M 76.613125 333.181423 
L 82.471514 353.2239 
L 346.099031 353.2239 
L 351.95742 352.630344 
L 357.81581 353.2239 
L 949.513125 353.2239 
L 949.513125 353.2239 
" style="fill:none;stroke:#f15c80;stroke-linecap:square;"/>
   </g>
   <g id="line2d_83">
    <path clip-path="url(#p3ca17c1a2a)" d="M 76.613125 322.49083 
L 82.471514 353.2239 
L 328.523863 353.219073 
L 334.382253 353.083817 
L 340.240642 353.2239 
L 351.95742 353.165822 
L 375.390977 353.2239 
L 498.417152 353.2239 
L 504.275541 353.015483 
L 510.13393 353.2239 
L 515.99232 353.152568 
L 527.709098 353.2239 
L 533.567487 353.083913 
L 539.425877 353.2239 
L 592.15138 353.2239 
L 598.009769 352.912892 
L 603.868159 353.2239 
L 633.160105 353.2239 
L 949.513125 353.2239 
L 949.513125 353.2239 
" style="fill:none;stroke:#e4d354;stroke-linecap:square;"/>
   </g>
   <g id="line2d_84">
    <path clip-path="url(#p3ca17c1a2a)" d="M 76.613125 322.145517 
L 82.471514 353.2239 
L 375.390977 353.2239 
L 498.417152 353.2239 
L 504.275541 353.020926 
L 510.13393 353.2239 
L 515.99232 353.157181 
L 527.709098 353.2239 
L 533.567487 353.085244 
L 539.425877 353.222761 
L 592.15138 353.2239 
L 598.009769 352.913229 
L 603.868159 353.2239 
L 621.443326 353.196671 
L 650.735273 353.2239 
L 914.362789 353.147505 
L 926.079568 353.2239 
L 949.513125 353.2239 
L 949.513125 353.2239 
" style="fill:none;stroke:#2b908f;stroke-linecap:square;"/>
   </g>
   <g id="line2d_85">
    <path clip-path="url(#p3ca17c1a2a)" d="M 76.613125 322.048092 
L 82.471514 353.2239 
L 328.523863 353.2239 
L 334.382253 353.09966 
L 340.240642 353.2239 
L 351.95742 353.166541 
L 369.532588 353.2239 
L 498.417152 353.2239 
L 504.275541 353.06898 
L 510.13393 353.2239 
L 515.99232 353.155927 
L 527.709098 353.2239 
L 533.567487 353.067772 
L 539.425877 353.214124 
L 592.15138 353.2239 
L 598.009769 352.943391 
L 603.868159 353.2239 
L 621.443326 353.193468 
L 644.876883 353.2239 
L 949.513125 353.2239 
L 949.513125 353.2239 
" style="fill:none;stroke:#f45b5b;stroke-linecap:square;"/>
   </g>
   <g id="line2d_86">
    <path clip-path="url(#p3ca17c1a2a)" d="M 76.613125 323.4013 
L 82.471514 353.2239 
L 498.417152 353.2239 
L 504.275541 353.029373 
L 510.13393 353.2239 
L 515.99232 353.165371 
L 527.709098 353.2239 
L 533.567487 353.119369 
L 545.284266 353.2239 
L 592.15138 353.2239 
L 598.009769 352.924019 
L 603.868159 353.2239 
L 650.735273 353.2239 
L 949.513125 353.2239 
L 949.513125 353.2239 
" style="fill:none;stroke:#91e8e1;stroke-linecap:square;"/>
   </g>
   <g id="line2d_87">
    <path clip-path="url(#p3ca17c1a2a)" d="M 76.613125 323.233921 
L 82.471514 353.2239 
L 498.417152 353.2239 
L 504.275541 353.010521 
L 510.13393 353.2239 
L 533.567487 353.009172 
L 539.425877 353.2239 
L 592.15138 353.2239 
L 598.009769 352.936266 
L 603.868159 353.2239 
L 949.513125 353.2239 
L 949.513125 353.2239 
" style="fill:none;stroke:#7cb5ec;stroke-linecap:square;"/>
   </g>
   <g id="line2d_88">
    <path clip-path="url(#p3ca17c1a2a)" d="M 76.613125 321.966692 
L 82.471514 353.2239 
L 328.523863 353.216545 
L 334.382253 353.106204 
L 340.240642 353.2239 
L 351.95742 353.157672 
L 369.532588 353.2239 
L 498.417152 353.2239 
L 504.275541 353.017493 
L 510.13393 353.2239 
L 515.99232 353.161425 
L 527.709098 353.2239 
L 533.567487 353.043368 
L 539.425877 353.222406 
L 592.15138 353.2239 
L 598.009769 352.90248 
L 603.868159 353.2239 
L 639.018494 353.2239 
L 949.513125 353.2239 
L 949.513125 353.2239 
" style="fill:none;stroke:#434348;stroke-linecap:square;"/>
   </g>
   <g id="line2d_89">
    <path clip-path="url(#p3ca17c1a2a)" d="M 76.613125 321.683255 
L 82.471514 353.2239 
L 328.523863 353.212934 
L 334.382253 353.100523 
L 340.240642 353.2239 
L 351.95742 353.163558 
L 387.107756 353.2239 
L 498.417152 353.2239 
L 504.275541 352.946399 
L 510.13393 353.2239 
L 515.99232 353.137661 
L 527.709098 353.2239 
L 533.567487 353.100953 
L 539.425877 353.2239 
L 592.15138 353.2239 
L 598.009769 352.87197 
L 603.868159 353.2239 
L 639.018494 353.2239 
L 949.513125 353.2239 
L 949.513125 353.2239 
" style="fill:none;stroke:#90ed7d;stroke-linecap:square;"/>
   </g>
   <g id="line2d_90">
    <path clip-path="url(#p3ca17c1a2a)" d="M 76.613125 322.518239 
L 82.471514 353.2239 
L 334.382253 353.069932 
L 340.240642 353.2239 
L 351.95742 353.173346 
L 392.966145 353.2239 
L 498.417152 353.2239 
L 504.275541 353.012434 
L 510.13393 353.2239 
L 515.99232 353.149485 
L 527.709098 353.2239 
L 533.567487 353.018822 
L 539.425877 353.221123 
L 592.15138 353.2239 
L 598.009769 352.883487 
L 603.868159 353.2239 
L 627.301716 353.2239 
L 949.513125 353.2239 
L 949.513125 353.2239 
" style="fill:none;stroke:#f7a35c;stroke-linecap:square;"/>
   </g>
   <g id="line2d_91">
    <path clip-path="url(#p3ca17c1a2a)" d="M 76.613125 321.360772 
L 82.471514 353.2239 
L 498.417152 353.2239 
L 504.275541 353.022698 
L 510.13393 353.2239 
L 515.99232 353.150274 
L 527.709098 353.2239 
L 533.567487 353.037912 
L 539.425877 353.2239 
L 592.15138 353.2239 
L 598.009769 352.870861 
L 603.868159 353.2239 
L 621.443326 353.183727 
L 639.018494 353.2239 
L 949.513125 353.2239 
L 949.513125 353.2239 
" style="fill:none;stroke:#8085e9;stroke-linecap:square;"/>
   </g>
   <g id="line2d_92">
    <path clip-path="url(#p3ca17c1a2a)" d="M 76.613125 321.795434 
L 82.471514 353.2239 
L 486.700373 353.2239 
L 498.417152 353.2239 
L 504.275541 353.021092 
L 510.13393 353.2239 
L 515.99232 353.143511 
L 527.709098 353.2239 
L 533.567487 353.025972 
L 539.425877 353.222247 
L 592.15138 353.2239 
L 598.009769 352.884594 
L 603.868159 353.2239 
L 633.160105 353.2239 
L 949.513125 353.2239 
L 949.513125 353.2239 
" style="fill:none;stroke:#f15c80;stroke-linecap:square;"/>
   </g>
   <g id="line2d_93">
    <path clip-path="url(#p3ca17c1a2a)" d="M 76.613125 321.343983 
L 82.471514 353.2239 
L 240.648024 353.180262 
L 258.223192 353.21896 
L 328.523863 353.210709 
L 334.382253 353.054862 
L 340.240642 353.2239 
L 351.95742 353.162836 
L 369.532588 353.2239 
L 498.417152 353.2239 
L 504.275541 353.003913 
L 510.13393 353.2239 
L 515.99232 353.147499 
L 527.709098 353.2239 
L 533.567487 353.065815 
L 539.425877 353.223028 
L 592.15138 353.2239 
L 598.009769 352.89495 
L 603.868159 353.2239 
L 633.160105 353.222939 
L 949.513125 353.2239 
L 949.513125 353.2239 
" style="fill:none;stroke:#e4d354;stroke-linecap:square;"/>
   </g>
   <g id="line2d_94">
    <path clip-path="url(#p3ca17c1a2a)" d="M 76.613125 323.372492 
L 82.471514 353.2239 
L 223.072857 353.200727 
L 252.364803 353.2239 
L 387.107756 353.2239 
L 498.417152 353.2239 
L 504.275541 353.045552 
L 510.13393 353.2239 
L 515.99232 353.153403 
L 527.709098 353.2239 
L 533.567487 353.091986 
L 539.425877 353.2239 
L 592.15138 353.2239 
L 598.009769 352.947684 
L 603.868159 353.2239 
L 633.160105 353.2239 
L 949.513125 353.2239 
L 949.513125 353.2239 
" style="fill:none;stroke:#2b908f;stroke-linecap:square;"/>
   </g>
   <g id="line2d_95">
    <path clip-path="url(#p3ca17c1a2a)" d="M 76.613125 322.042177 
L 82.471514 353.2239 
L 328.523863 353.214596 
L 334.382253 353.102933 
L 340.240642 353.2239 
L 351.95742 353.163401 
L 375.390977 353.2239 
L 498.417152 353.2239 
L 504.275541 353.031904 
L 510.13393 353.2239 
L 515.99232 353.144198 
L 527.709098 353.2239 
L 533.567487 353.073558 
L 539.425877 353.219198 
L 592.15138 353.2239 
L 598.009769 352.929245 
L 603.868159 353.2239 
L 668.31044 353.2239 
L 949.513125 353.2239 
L 949.513125 353.2239 
" style="fill:none;stroke:#f45b5b;stroke-linecap:square;"/>
   </g>
   <g id="line2d_96">
    <path clip-path="url(#p3ca17c1a2a)" d="M 76.613125 322.32555 
L 82.471514 353.2239 
L 328.523863 353.212852 
L 334.382253 353.102293 
L 340.240642 353.2239 
L 351.95742 353.162978 
L 398.824534 353.2239 
L 474.983595 353.158824 
L 486.700373 353.2239 
L 498.417152 353.2239 
L 504.275541 352.998688 
L 510.13393 353.2239 
L 515.99232 353.13236 
L 527.709098 353.2239 
L 533.567487 353.068561 
L 539.425877 353.218136 
L 592.15138 353.2239 
L 598.009769 352.888182 
L 603.868159 353.2239 
L 633.160105 353.2239 
L 949.513125 353.2239 
L 949.513125 353.2239 
" style="fill:none;stroke:#91e8e1;stroke-linecap:square;"/>
   </g>
   <g id="line2d_97">
    <path clip-path="url(#p3ca17c1a2a)" d="M 76.613125 321.635941 
L 82.471514 353.2239 
L 146.913796 353.2239 
L 152.772185 353.068803 
L 158.630575 353.2239 
L 328.523863 353.2239 
L 334.382253 353.016969 
L 340.240642 353.2239 
L 346.099031 353.068658 
L 357.81581 353.172137 
L 375.390977 353.2239 
L 498.417152 353.2239 
L 504.275541 352.960225 
L 510.13393 353.2239 
L 515.99232 353.117988 
L 527.709098 353.2239 
L 533.567487 353.063818 
L 539.425877 353.2239 
L 592.15138 353.2239 
L 598.009769 352.780585 
L 603.868159 353.2239 
L 697.602387 353.2239 
L 703.460776 353.102406 
L 709.319165 353.2239 
L 908.5044 353.2239 
L 914.362789 353.063725 
L 920.221179 353.2239 
L 949.513125 353.2239 
L 949.513125 353.2239 
" style="fill:none;stroke:#7cb5ec;stroke-linecap:square;"/>
   </g>
   <g id="line2d_98">
    <path clip-path="url(#p3ca17c1a2a)" d="M 76.613125 322.375344 
L 82.471514 353.2239 
L 328.523863 353.220163 
L 334.382253 353.109839 
L 340.240642 353.2239 
L 351.95742 353.17518 
L 392.966145 353.2239 
L 498.417152 353.2239 
L 504.275541 353.039081 
L 510.13393 353.2239 
L 521.850709 353.218098 
L 527.709098 353.2239 
L 533.567487 353.062836 
L 539.425877 353.221956 
L 592.15138 353.2239 
L 598.009769 352.938578 
L 603.868159 353.2239 
L 633.160105 353.2239 
L 949.513125 353.2239 
L 949.513125 353.2239 
" style="fill:none;stroke:#434348;stroke-linecap:square;"/>
   </g>
   <g id="line2d_99">
    <path clip-path="url(#p3ca17c1a2a)" d="M 76.613125 322.760022 
L 82.471514 353.2239 
L 328.523863 353.219316 
L 334.382253 353.093194 
L 340.240642 353.2239 
L 357.81581 353.205524 
L 410.541313 353.2239 
L 498.417152 353.2239 
L 504.275541 352.999039 
L 510.13393 353.2239 
L 521.850709 353.221548 
L 527.709098 353.2239 
L 533.567487 353.08702 
L 539.425877 353.2239 
L 592.15138 353.2239 
L 598.009769 352.896182 
L 603.868159 353.2239 
L 627.301716 353.2239 
L 949.513125 353.2239 
L 949.513125 353.2239 
" style="fill:none;stroke:#90ed7d;stroke-linecap:square;"/>
   </g>
   <g id="line2d_100">
    <path clip-path="url(#p3ca17c1a2a)" d="M 76.613125 322.067551 
L 82.471514 353.2239 
L 498.417152 353.2239 
L 504.275541 353.004545 
L 510.13393 353.2239 
L 515.99232 353.152751 
L 527.709098 353.2239 
L 533.567487 353.063242 
L 539.425877 353.218387 
L 592.15138 353.2239 
L 598.009769 352.872486 
L 603.868159 353.2239 
L 650.735273 353.2239 
L 949.513125 353.2239 
L 949.513125 353.2239 
" style="fill:none;stroke:#f7a35c;stroke-linecap:square;"/>
   </g>
   <g id="line2d_101">
    <path clip-path="url(#p3ca17c1a2a)" d="M 76.613125 321.516513 
L 82.471514 353.2239 
L 146.913796 353.2239 
L 152.772185 353.103529 
L 158.630575 353.2239 
L 328.523863 353.218655 
L 334.382253 353.076988 
L 340.240642 353.2239 
L 351.95742 353.1775 
L 387.107756 353.2239 
L 498.417152 353.2239 
L 504.275541 352.999026 
L 510.13393 353.2239 
L 515.99232 353.149814 
L 527.709098 353.2239 
L 533.567487 353.06731 
L 539.425877 353.221161 
L 551.142655 353.2239 
L 557.001044 353.113314 
L 568.717823 353.2239 
L 592.15138 353.2239 
L 598.009769 352.871113 
L 603.868159 353.2239 
L 627.301716 353.2239 
L 949.513125 353.2239 
L 949.513125 353.2239 
" style="fill:none;stroke:#8085e9;stroke-linecap:square;"/>
   </g>
   <g id="line2d_102">
    <path clip-path="url(#p3ca17c1a2a)" d="M 76.613125 322.430925 
L 82.471514 353.2239 
L 369.532588 353.2239 
L 498.417152 353.2239 
L 504.275541 353.025269 
L 510.13393 353.2239 
L 515.99232 353.140477 
L 527.709098 353.2239 
L 533.567487 353.109765 
L 545.284266 353.2239 
L 592.15138 353.2239 
L 598.009769 352.921303 
L 603.868159 353.2239 
L 633.160105 353.2239 
L 949.513125 353.2239 
L 949.513125 353.2239 
" style="fill:none;stroke:#f15c80;stroke-linecap:square;"/>
   </g>
   <g id="line2d_103">
    <path clip-path="url(#p3ca17c1a2a)" d="M 76.613125 321.80669 
L 82.471514 353.2239 
L 498.417152 353.2239 
L 504.275541 352.989025 
L 510.13393 353.2239 
L 515.99232 353.153184 
L 527.709098 353.2239 
L 533.567487 353.04896 
L 539.425877 353.217956 
L 592.15138 353.2239 
L 598.009769 352.911381 
L 603.868159 353.2239 
L 633.160105 353.2239 
L 949.513125 353.2239 
L 949.513125 353.2239 
" style="fill:none;stroke:#e4d354;stroke-linecap:square;"/>
   </g>
   <g id="line2d_104">
    <path clip-path="url(#p3ca17c1a2a)" d="M 76.613125 323.158563 
L 82.471514 353.2239 
L 293.373528 353.22074 
L 498.417152 353.2239 
L 504.275541 353.031851 
L 510.13393 353.2239 
L 521.850709 353.214264 
L 527.709098 353.2239 
L 533.567487 353.043542 
L 539.425877 353.2239 
L 592.15138 353.2239 
L 598.009769 352.967585 
L 603.868159 353.2239 
L 639.018494 353.2239 
L 949.513125 353.2239 
L 949.513125 353.2239 
" style="fill:none;stroke:#2b908f;stroke-linecap:square;"/>
   </g>
   <g id="line2d_105">
    <path clip-path="url(#p3ca17c1a2a)" d="M 76.613125 321.897311 
L 82.471514 353.2239 
L 498.417152 353.2239 
L 504.275541 353.023049 
L 510.13393 353.2239 
L 515.99232 353.145527 
L 527.709098 353.2239 
L 533.567487 353.063392 
L 539.425877 353.2239 
L 592.15138 353.2239 
L 598.009769 352.942229 
L 603.868159 353.2239 
L 621.443326 353.200327 
L 650.735273 353.2239 
L 861.637286 353.2239 
L 949.513125 353.2239 
L 949.513125 353.2239 
" style="fill:none;stroke:#f45b5b;stroke-linecap:square;"/>
   </g>
   <g id="line2d_106">
    <path clip-path="url(#p3ca17c1a2a)" d="M 32.968125 353.2239 
L 993.158125 353.2239 
" style="fill:none;stroke:#dedede;stroke-linecap:square;stroke-width:2;"/>
   </g>
   <g id="text_17">
    <!-- Fastp: Read N Content -->
    <defs>
     <path d="M 9.8125 72.90625 
L 51.703125 72.90625 
L 51.703125 64.59375 
L 19.671875 64.59375 
L 19.671875 43.109375 
L 48.578125 43.109375 
L 48.578125 34.8125 
L 19.671875 34.8125 
L 19.671875 0 
L 9.8125 0 
z
" id="DejaVuSans-70"/>
     <path d="M 18.109375 8.203125 
L 18.109375 -20.796875 
L 9.078125 -20.796875 
L 9.078125 54.6875 
L 18.109375 54.6875 
L 18.109375 46.390625 
Q 20.953125 51.265625 25.265625 53.625 
Q 29.59375 56 35.59375 56 
Q 45.5625 56 51.78125 48.09375 
Q 58.015625 40.1875 58.015625 27.296875 
Q 58.015625 14.40625 51.78125 6.484375 
Q 45.5625 -1.421875 35.59375 -1.421875 
Q 29.59375 -1.421875 25.265625 0.953125 
Q 20.953125 3.328125 18.109375 8.203125 
z
M 48.6875 27.296875 
Q 48.6875 37.203125 44.609375 42.84375 
Q 40.53125 48.484375 33.40625 48.484375 
Q 26.265625 48.484375 22.1875 42.84375 
Q 18.109375 37.203125 18.109375 27.296875 
Q 18.109375 17.390625 22.1875 11.75 
Q 26.265625 6.109375 33.40625 6.109375 
Q 40.53125 6.109375 44.609375 11.75 
Q 48.6875 17.390625 48.6875 27.296875 
z
" id="DejaVuSans-112"/>
     <path d="M 9.8125 72.90625 
L 23.09375 72.90625 
L 55.421875 11.921875 
L 55.421875 72.90625 
L 64.984375 72.90625 
L 64.984375 0 
L 51.703125 0 
L 19.390625 60.984375 
L 19.390625 0 
L 9.8125 0 
z
" id="DejaVuSans-78"/>
    </defs>
    <g transform="translate(422.606875 19.3575)scale(0.16 -0.16)">
     <use xlink:href="#DejaVuSans-70"/>
     <use x="57.378906" xlink:href="#DejaVuSans-97"/>
     <use x="118.658203" xlink:href="#DejaVuSans-115"/>
     <use x="170.757812" xlink:href="#DejaVuSans-116"/>
     <use x="209.966797" xlink:href="#DejaVuSans-112"/>
     <use x="273.443359" xlink:href="#DejaVuSans-58"/>
     <use x="307.134766" xlink:href="#DejaVuSans-32"/>
     <use x="338.921875" xlink:href="#DejaVuSans-82"/>
     <use x="408.341797" xlink:href="#DejaVuSans-101"/>
     <use x="469.865234" xlink:href="#DejaVuSans-97"/>
     <use x="531.144531" xlink:href="#DejaVuSans-100"/>
     <use x="594.621094" xlink:href="#DejaVuSans-32"/>
     <use x="626.408203" xlink:href="#DejaVuSans-78"/>
     <use x="701.212891" xlink:href="#DejaVuSans-32"/>
     <use x="733" xlink:href="#DejaVuSans-67"/>
     <use x="802.824219" xlink:href="#DejaVuSans-111"/>
     <use x="864.005859" xlink:href="#DejaVuSans-110"/>
     <use x="927.384766" xlink:href="#DejaVuSans-116"/>
     <use x="966.59375" xlink:href="#DejaVuSans-101"/>
     <use x="1028.117188" xlink:href="#DejaVuSans-110"/>
     <use x="1091.496094" xlink:href="#DejaVuSans-116"/>
    </g>
   </g>
  </g>
 </g>
 <defs>
  <clipPath id="p3ca17c1a2a">
   <rect height="317.968" width="960.19" x="32.968125" y="35.2559"/>
  </clipPath>
 </defs>
</svg>
