<?xml version="1.0" encoding="utf-8" standalone="no"?>
<!DOCTYPE svg PUBLIC "-//W3C//DTD SVG 1.1//EN"
  "http://www.w3.org/Graphics/SVG/1.1/DTD/svg11.dtd">
<!-- Created with matplotlib (https://matplotlib.org/) -->
<svg height="388.844525pt" version="1.1" viewBox="0 0 1000.358125 388.844525" width="1000.358125pt" xmlns="http://www.w3.org/2000/svg" xmlns:xlink="http://www.w3.org/1999/xlink">
 <defs>
  <style type="text/css">
*{stroke-linecap:butt;stroke-linejoin:round;}
  </style>
 </defs>
 <g id="figure_1">
  <g id="axes_1">
   <g id="patch_1">
    <path d="M 32.968125 353.2239 
L 993.158125 353.2239 
L 993.158125 35.2559 
L 32.968125 35.2559 
z
" style="fill:#ffffff;"/>
   </g>
   <g id="matplotlib.axis_1">
    <g id="xtick_1">
     <g id="text_1">
      <!-- 0 -->
      <defs>
       <path d="M 31.78125 66.40625 
Q 24.171875 66.40625 20.328125 58.90625 
Q 16.5 51.421875 16.5 36.375 
Q 16.5 21.390625 20.328125 13.890625 
Q 24.171875 6.390625 31.78125 6.390625 
Q 39.453125 6.390625 43.28125 13.890625 
Q 47.125 21.390625 47.125 36.375 
Q 47.125 51.421875 43.28125 58.90625 
Q 39.453125 66.40625 31.78125 66.40625 
z
M 31.78125 74.21875 
Q 44.046875 74.21875 50.515625 64.515625 
Q 56.984375 54.828125 56.984375 36.375 
Q 56.984375 17.96875 50.515625 8.265625 
Q 44.046875 -1.421875 31.78125 -1.421875 
Q 19.53125 -1.421875 13.0625 8.265625 
Q 6.59375 17.96875 6.59375 36.375 
Q 6.59375 54.828125 13.0625 64.515625 
Q 19.53125 74.21875 31.78125 74.21875 
z
" id="DejaVuSans-48"/>
      </defs>
      <g transform="translate(68.209736 366.30265)scale(0.08 -0.08)">
       <use xlink:href="#DejaVuSans-48"/>
      </g>
     </g>
    </g>
    <g id="xtick_2">
     <g id="text_2">
      <!-- 20 -->
      <defs>
       <path d="M 19.1875 8.296875 
L 53.609375 8.296875 
L 53.609375 0 
L 7.328125 0 
L 7.328125 8.296875 
Q 12.9375 14.109375 22.625 23.890625 
Q 32.328125 33.6875 34.8125 36.53125 
Q 39.546875 41.84375 41.421875 45.53125 
Q 43.3125 49.21875 43.3125 52.78125 
Q 43.3125 58.59375 39.234375 62.25 
Q 35.15625 65.921875 28.609375 65.921875 
Q 23.96875 65.921875 18.8125 64.3125 
Q 13.671875 62.703125 7.8125 59.421875 
L 7.8125 69.390625 
Q 13.765625 71.78125 18.9375 73 
Q 24.125 74.21875 28.421875 74.21875 
Q 39.75 74.21875 46.484375 68.546875 
Q 53.21875 62.890625 53.21875 53.421875 
Q 53.21875 48.921875 51.53125 44.890625 
Q 49.859375 40.875 45.40625 35.40625 
Q 44.1875 33.984375 37.640625 27.21875 
Q 31.109375 20.453125 19.1875 8.296875 
z
" id="DejaVuSans-50"/>
      </defs>
      <g transform="translate(182.832521 366.30265)scale(0.08 -0.08)">
       <use xlink:href="#DejaVuSans-50"/>
       <use x="63.623047" xlink:href="#DejaVuSans-48"/>
      </g>
     </g>
    </g>
    <g id="xtick_3">
     <g id="text_3">
      <!-- 40 -->
      <defs>
       <path d="M 37.796875 64.3125 
L 12.890625 25.390625 
L 37.796875 25.390625 
z
M 35.203125 72.90625 
L 47.609375 72.90625 
L 47.609375 25.390625 
L 58.015625 25.390625 
L 58.015625 17.1875 
L 47.609375 17.1875 
L 47.609375 0 
L 37.796875 0 
L 37.796875 17.1875 
L 4.890625 17.1875 
L 4.890625 26.703125 
z
" id="DejaVuSans-52"/>
      </defs>
      <g transform="translate(300.000306 366.30265)scale(0.08 -0.08)">
       <use xlink:href="#DejaVuSans-52"/>
       <use x="63.623047" xlink:href="#DejaVuSans-48"/>
      </g>
     </g>
    </g>
    <g id="xtick_4">
     <g id="text_4">
      <!-- 60 -->
      <defs>
       <path d="M 33.015625 40.375 
Q 26.375 40.375 22.484375 35.828125 
Q 18.609375 31.296875 18.609375 23.390625 
Q 18.609375 15.53125 22.484375 10.953125 
Q 26.375 6.390625 33.015625 6.390625 
Q 39.65625 6.390625 43.53125 10.953125 
Q 47.40625 15.53125 47.40625 23.390625 
Q 47.40625 31.296875 43.53125 35.828125 
Q 39.65625 40.375 33.015625 40.375 
z
M 52.59375 71.296875 
L 52.59375 62.3125 
Q 48.875 64.0625 45.09375 64.984375 
Q 41.3125 65.921875 37.59375 65.921875 
Q 27.828125 65.921875 22.671875 59.328125 
Q 17.53125 52.734375 16.796875 39.40625 
Q 19.671875 43.65625 24.015625 45.921875 
Q 28.375 48.1875 33.59375 48.1875 
Q 44.578125 48.1875 50.953125 41.515625 
Q 57.328125 34.859375 57.328125 23.390625 
Q 57.328125 12.15625 50.6875 5.359375 
Q 44.046875 -1.421875 33.015625 -1.421875 
Q 20.359375 -1.421875 13.671875 8.265625 
Q 6.984375 17.96875 6.984375 36.375 
Q 6.984375 53.65625 15.1875 63.9375 
Q 23.390625 74.21875 37.203125 74.21875 
Q 40.921875 74.21875 44.703125 73.484375 
Q 48.484375 72.75 52.59375 71.296875 
z
" id="DejaVuSans-54"/>
      </defs>
      <g transform="translate(417.168091 366.30265)scale(0.08 -0.08)">
       <use xlink:href="#DejaVuSans-54"/>
       <use x="63.623047" xlink:href="#DejaVuSans-48"/>
      </g>
     </g>
    </g>
    <g id="xtick_5">
     <g id="text_5">
      <!-- 80 -->
      <defs>
       <path d="M 31.78125 34.625 
Q 24.75 34.625 20.71875 30.859375 
Q 16.703125 27.09375 16.703125 20.515625 
Q 16.703125 13.921875 20.71875 10.15625 
Q 24.75 6.390625 31.78125 6.390625 
Q 38.8125 6.390625 42.859375 10.171875 
Q 46.921875 13.96875 46.921875 20.515625 
Q 46.921875 27.09375 42.890625 30.859375 
Q 38.875 34.625 31.78125 34.625 
z
M 21.921875 38.8125 
Q 15.578125 40.375 12.03125 44.71875 
Q 8.5 49.078125 8.5 55.328125 
Q 8.5 64.0625 14.71875 69.140625 
Q 20.953125 74.21875 31.78125 74.21875 
Q 42.671875 74.21875 48.875 69.140625 
Q 55.078125 64.0625 55.078125 55.328125 
Q 55.078125 49.078125 51.53125 44.71875 
Q 48 40.375 41.703125 38.8125 
Q 48.828125 37.15625 52.796875 32.3125 
Q 56.78125 27.484375 56.78125 20.515625 
Q 56.78125 9.90625 50.3125 4.234375 
Q 43.84375 -1.421875 31.78125 -1.421875 
Q 19.734375 -1.421875 13.25 4.234375 
Q 6.78125 9.90625 6.78125 20.515625 
Q 6.78125 27.484375 10.78125 32.3125 
Q 14.796875 37.15625 21.921875 38.8125 
z
M 18.3125 54.390625 
Q 18.3125 48.734375 21.84375 45.5625 
Q 25.390625 42.390625 31.78125 42.390625 
Q 38.140625 42.390625 41.71875 45.5625 
Q 45.3125 48.734375 45.3125 54.390625 
Q 45.3125 60.0625 41.71875 63.234375 
Q 38.140625 66.40625 31.78125 66.40625 
Q 25.390625 66.40625 21.84375 63.234375 
Q 18.3125 60.0625 18.3125 54.390625 
z
" id="DejaVuSans-56"/>
      </defs>
      <g transform="translate(534.335877 366.30265)scale(0.08 -0.08)">
       <use xlink:href="#DejaVuSans-56"/>
       <use x="63.623047" xlink:href="#DejaVuSans-48"/>
      </g>
     </g>
    </g>
    <g id="xtick_6">
     <g id="text_6">
      <!-- 100 -->
      <defs>
       <path d="M 12.40625 8.296875 
L 28.515625 8.296875 
L 28.515625 63.921875 
L 10.984375 60.40625 
L 10.984375 69.390625 
L 28.421875 72.90625 
L 38.28125 72.90625 
L 38.28125 8.296875 
L 54.390625 8.296875 
L 54.390625 0 
L 12.40625 0 
z
" id="DejaVuSans-49"/>
      </defs>
      <g transform="translate(648.958662 366.30265)scale(0.08 -0.08)">
       <use xlink:href="#DejaVuSans-49"/>
       <use x="63.623047" xlink:href="#DejaVuSans-48"/>
       <use x="127.246094" xlink:href="#DejaVuSans-48"/>
      </g>
     </g>
    </g>
    <g id="xtick_7">
     <g id="text_7">
      <!-- 120 -->
      <g transform="translate(766.126447 366.30265)scale(0.08 -0.08)">
       <use xlink:href="#DejaVuSans-49"/>
       <use x="63.623047" xlink:href="#DejaVuSans-50"/>
       <use x="127.246094" xlink:href="#DejaVuSans-48"/>
      </g>
     </g>
    </g>
    <g id="xtick_8">
     <g id="text_8">
      <!-- 140 -->
      <g transform="translate(883.294232 366.30265)scale(0.08 -0.08)">
       <use xlink:href="#DejaVuSans-49"/>
       <use x="63.623047" xlink:href="#DejaVuSans-52"/>
       <use x="127.246094" xlink:href="#DejaVuSans-48"/>
      </g>
     </g>
    </g>
    <g id="text_9">
     <!-- Read Position -->
     <defs>
      <path d="M 44.390625 34.1875 
Q 47.5625 33.109375 50.5625 29.59375 
Q 53.5625 26.078125 56.59375 19.921875 
L 66.609375 0 
L 56 0 
L 46.6875 18.703125 
Q 43.0625 26.03125 39.671875 28.421875 
Q 36.28125 30.8125 30.421875 30.8125 
L 19.671875 30.8125 
L 19.671875 0 
L 9.8125 0 
L 9.8125 72.90625 
L 32.078125 72.90625 
Q 44.578125 72.90625 50.734375 67.671875 
Q 56.890625 62.453125 56.890625 51.90625 
Q 56.890625 45.015625 53.6875 40.46875 
Q 50.484375 35.9375 44.390625 34.1875 
z
M 19.671875 64.796875 
L 19.671875 38.921875 
L 32.078125 38.921875 
Q 39.203125 38.921875 42.84375 42.21875 
Q 46.484375 45.515625 46.484375 51.90625 
Q 46.484375 58.296875 42.84375 61.546875 
Q 39.203125 64.796875 32.078125 64.796875 
z
" id="DejaVuSans-82"/>
      <path d="M 56.203125 29.59375 
L 56.203125 25.203125 
L 14.890625 25.203125 
Q 15.484375 15.921875 20.484375 11.0625 
Q 25.484375 6.203125 34.421875 6.203125 
Q 39.59375 6.203125 44.453125 7.46875 
Q 49.3125 8.734375 54.109375 11.28125 
L 54.109375 2.78125 
Q 49.265625 0.734375 44.1875 -0.34375 
Q 39.109375 -1.421875 33.890625 -1.421875 
Q 20.796875 -1.421875 13.15625 6.1875 
Q 5.515625 13.8125 5.515625 26.8125 
Q 5.515625 40.234375 12.765625 48.109375 
Q 20.015625 56 32.328125 56 
Q 43.359375 56 49.78125 48.890625 
Q 56.203125 41.796875 56.203125 29.59375 
z
M 47.21875 32.234375 
Q 47.125 39.59375 43.09375 43.984375 
Q 39.0625 48.390625 32.421875 48.390625 
Q 24.90625 48.390625 20.390625 44.140625 
Q 15.875 39.890625 15.1875 32.171875 
z
" id="DejaVuSans-101"/>
      <path d="M 34.28125 27.484375 
Q 23.390625 27.484375 19.1875 25 
Q 14.984375 22.515625 14.984375 16.5 
Q 14.984375 11.71875 18.140625 8.90625 
Q 21.296875 6.109375 26.703125 6.109375 
Q 34.1875 6.109375 38.703125 11.40625 
Q 43.21875 16.703125 43.21875 25.484375 
L 43.21875 27.484375 
z
M 52.203125 31.203125 
L 52.203125 0 
L 43.21875 0 
L 43.21875 8.296875 
Q 40.140625 3.328125 35.546875 0.953125 
Q 30.953125 -1.421875 24.3125 -1.421875 
Q 15.921875 -1.421875 10.953125 3.296875 
Q 6 8.015625 6 15.921875 
Q 6 25.140625 12.171875 29.828125 
Q 18.359375 34.515625 30.609375 34.515625 
L 43.21875 34.515625 
L 43.21875 35.40625 
Q 43.21875 41.609375 39.140625 45 
Q 35.0625 48.390625 27.6875 48.390625 
Q 23 48.390625 18.546875 47.265625 
Q 14.109375 46.140625 10.015625 43.890625 
L 10.015625 52.203125 
Q 14.9375 54.109375 19.578125 55.046875 
Q 24.21875 56 28.609375 56 
Q 40.484375 56 46.34375 49.84375 
Q 52.203125 43.703125 52.203125 31.203125 
z
" id="DejaVuSans-97"/>
      <path d="M 45.40625 46.390625 
L 45.40625 75.984375 
L 54.390625 75.984375 
L 54.390625 0 
L 45.40625 0 
L 45.40625 8.203125 
Q 42.578125 3.328125 38.25 0.953125 
Q 33.9375 -1.421875 27.875 -1.421875 
Q 17.96875 -1.421875 11.734375 6.484375 
Q 5.515625 14.40625 5.515625 27.296875 
Q 5.515625 40.1875 11.734375 48.09375 
Q 17.96875 56 27.875 56 
Q 33.9375 56 38.25 53.625 
Q 42.578125 51.265625 45.40625 46.390625 
z
M 14.796875 27.296875 
Q 14.796875 17.390625 18.875 11.75 
Q 22.953125 6.109375 30.078125 6.109375 
Q 37.203125 6.109375 41.296875 11.75 
Q 45.40625 17.390625 45.40625 27.296875 
Q 45.40625 37.203125 41.296875 42.84375 
Q 37.203125 48.484375 30.078125 48.484375 
Q 22.953125 48.484375 18.875 42.84375 
Q 14.796875 37.203125 14.796875 27.296875 
z
" id="DejaVuSans-100"/>
      <path id="DejaVuSans-32"/>
      <path d="M 19.671875 64.796875 
L 19.671875 37.40625 
L 32.078125 37.40625 
Q 38.96875 37.40625 42.71875 40.96875 
Q 46.484375 44.53125 46.484375 51.125 
Q 46.484375 57.671875 42.71875 61.234375 
Q 38.96875 64.796875 32.078125 64.796875 
z
M 9.8125 72.90625 
L 32.078125 72.90625 
Q 44.34375 72.90625 50.609375 67.359375 
Q 56.890625 61.8125 56.890625 51.125 
Q 56.890625 40.328125 50.609375 34.8125 
Q 44.34375 29.296875 32.078125 29.296875 
L 19.671875 29.296875 
L 19.671875 0 
L 9.8125 0 
z
" id="DejaVuSans-80"/>
      <path d="M 30.609375 48.390625 
Q 23.390625 48.390625 19.1875 42.75 
Q 14.984375 37.109375 14.984375 27.296875 
Q 14.984375 17.484375 19.15625 11.84375 
Q 23.34375 6.203125 30.609375 6.203125 
Q 37.796875 6.203125 41.984375 11.859375 
Q 46.1875 17.53125 46.1875 27.296875 
Q 46.1875 37.015625 41.984375 42.703125 
Q 37.796875 48.390625 30.609375 48.390625 
z
M 30.609375 56 
Q 42.328125 56 49.015625 48.375 
Q 55.71875 40.765625 55.71875 27.296875 
Q 55.71875 13.875 49.015625 6.21875 
Q 42.328125 -1.421875 30.609375 -1.421875 
Q 18.84375 -1.421875 12.171875 6.21875 
Q 5.515625 13.875 5.515625 27.296875 
Q 5.515625 40.765625 12.171875 48.375 
Q 18.84375 56 30.609375 56 
z
" id="DejaVuSans-111"/>
      <path d="M 44.28125 53.078125 
L 44.28125 44.578125 
Q 40.484375 46.53125 36.375 47.5 
Q 32.28125 48.484375 27.875 48.484375 
Q 21.1875 48.484375 17.84375 46.4375 
Q 14.5 44.390625 14.5 40.28125 
Q 14.5 37.15625 16.890625 35.375 
Q 19.28125 33.59375 26.515625 31.984375 
L 29.59375 31.296875 
Q 39.15625 29.25 43.1875 25.515625 
Q 47.21875 21.78125 47.21875 15.09375 
Q 47.21875 7.46875 41.1875 3.015625 
Q 35.15625 -1.421875 24.609375 -1.421875 
Q 20.21875 -1.421875 15.453125 -0.5625 
Q 10.6875 0.296875 5.421875 2 
L 5.421875 11.28125 
Q 10.40625 8.6875 15.234375 7.390625 
Q 20.0625 6.109375 24.8125 6.109375 
Q 31.15625 6.109375 34.5625 8.28125 
Q 37.984375 10.453125 37.984375 14.40625 
Q 37.984375 18.0625 35.515625 20.015625 
Q 33.0625 21.96875 24.703125 23.78125 
L 21.578125 24.515625 
Q 13.234375 26.265625 9.515625 29.90625 
Q 5.8125 33.546875 5.8125 39.890625 
Q 5.8125 47.609375 11.28125 51.796875 
Q 16.75 56 26.8125 56 
Q 31.78125 56 36.171875 55.265625 
Q 40.578125 54.546875 44.28125 53.078125 
z
" id="DejaVuSans-115"/>
      <path d="M 9.421875 54.6875 
L 18.40625 54.6875 
L 18.40625 0 
L 9.421875 0 
z
M 9.421875 75.984375 
L 18.40625 75.984375 
L 18.40625 64.59375 
L 9.421875 64.59375 
z
" id="DejaVuSans-105"/>
      <path d="M 18.3125 70.21875 
L 18.3125 54.6875 
L 36.8125 54.6875 
L 36.8125 47.703125 
L 18.3125 47.703125 
L 18.3125 18.015625 
Q 18.3125 11.328125 20.140625 9.421875 
Q 21.96875 7.515625 27.59375 7.515625 
L 36.8125 7.515625 
L 36.8125 0 
L 27.59375 0 
Q 17.1875 0 13.234375 3.875 
Q 9.28125 7.765625 9.28125 18.015625 
L 9.28125 47.703125 
L 2.6875 47.703125 
L 2.6875 54.6875 
L 9.28125 54.6875 
L 9.28125 70.21875 
z
" id="DejaVuSans-116"/>
      <path d="M 54.890625 33.015625 
L 54.890625 0 
L 45.90625 0 
L 45.90625 32.71875 
Q 45.90625 40.484375 42.875 44.328125 
Q 39.84375 48.1875 33.796875 48.1875 
Q 26.515625 48.1875 22.3125 43.546875 
Q 18.109375 38.921875 18.109375 30.90625 
L 18.109375 0 
L 9.078125 0 
L 9.078125 54.6875 
L 18.109375 54.6875 
L 18.109375 46.1875 
Q 21.34375 51.125 25.703125 53.5625 
Q 30.078125 56 35.796875 56 
Q 45.21875 56 50.046875 50.171875 
Q 54.890625 44.34375 54.890625 33.015625 
z
" id="DejaVuSans-110"/>
     </defs>
     <g transform="translate(479.045156 379.564837)scale(0.1 -0.1)">
      <use xlink:href="#DejaVuSans-82"/>
      <use x="69.419922" xlink:href="#DejaVuSans-101"/>
      <use x="130.943359" xlink:href="#DejaVuSans-97"/>
      <use x="192.222656" xlink:href="#DejaVuSans-100"/>
      <use x="255.699219" xlink:href="#DejaVuSans-32"/>
      <use x="287.486328" xlink:href="#DejaVuSans-80"/>
      <use x="347.742188" xlink:href="#DejaVuSans-111"/>
      <use x="408.923828" xlink:href="#DejaVuSans-115"/>
      <use x="461.023438" xlink:href="#DejaVuSans-105"/>
      <use x="488.806641" xlink:href="#DejaVuSans-116"/>
      <use x="528.015625" xlink:href="#DejaVuSans-105"/>
      <use x="555.798828" xlink:href="#DejaVuSans-111"/>
      <use x="616.980469" xlink:href="#DejaVuSans-110"/>
     </g>
    </g>
   </g>
   <g id="matplotlib.axis_2">
    <g id="ytick_1">
     <g id="line2d_1">
      <path clip-path="url(#p3f7adde1e2)" d="M 32.968125 353.2239 
L 993.158125 353.2239 
" style="fill:none;stroke:#dedede;stroke-linecap:square;"/>
     </g>
     <g id="text_10">
      <!-- 0 -->
      <g transform="translate(20.878125 356.263275)scale(0.08 -0.08)">
       <use xlink:href="#DejaVuSans-48"/>
      </g>
     </g>
    </g>
    <g id="ytick_2">
     <g id="line2d_2">
      <path clip-path="url(#p3f7adde1e2)" d="M 32.968125 289.6303 
L 993.158125 289.6303 
" style="fill:none;stroke:#dedede;stroke-linecap:square;"/>
     </g>
     <g id="text_11">
      <!-- 1 -->
      <g transform="translate(20.878125 292.669675)scale(0.08 -0.08)">
       <use xlink:href="#DejaVuSans-49"/>
      </g>
     </g>
    </g>
    <g id="ytick_3">
     <g id="line2d_3">
      <path clip-path="url(#p3f7adde1e2)" d="M 32.968125 226.0367 
L 993.158125 226.0367 
" style="fill:none;stroke:#dedede;stroke-linecap:square;"/>
     </g>
     <g id="text_12">
      <!-- 2 -->
      <g transform="translate(20.878125 229.076075)scale(0.08 -0.08)">
       <use xlink:href="#DejaVuSans-50"/>
      </g>
     </g>
    </g>
    <g id="ytick_4">
     <g id="line2d_4">
      <path clip-path="url(#p3f7adde1e2)" d="M 32.968125 162.4431 
L 993.158125 162.4431 
" style="fill:none;stroke:#dedede;stroke-linecap:square;"/>
     </g>
     <g id="text_13">
      <!-- 3 -->
      <defs>
       <path d="M 40.578125 39.3125 
Q 47.65625 37.796875 51.625 33 
Q 55.609375 28.21875 55.609375 21.1875 
Q 55.609375 10.40625 48.1875 4.484375 
Q 40.765625 -1.421875 27.09375 -1.421875 
Q 22.515625 -1.421875 17.65625 -0.515625 
Q 12.796875 0.390625 7.625 2.203125 
L 7.625 11.71875 
Q 11.71875 9.328125 16.59375 8.109375 
Q 21.484375 6.890625 26.8125 6.890625 
Q 36.078125 6.890625 40.9375 10.546875 
Q 45.796875 14.203125 45.796875 21.1875 
Q 45.796875 27.640625 41.28125 31.265625 
Q 36.765625 34.90625 28.71875 34.90625 
L 20.21875 34.90625 
L 20.21875 43.015625 
L 29.109375 43.015625 
Q 36.375 43.015625 40.234375 45.921875 
Q 44.09375 48.828125 44.09375 54.296875 
Q 44.09375 59.90625 40.109375 62.90625 
Q 36.140625 65.921875 28.71875 65.921875 
Q 24.65625 65.921875 20.015625 65.03125 
Q 15.375 64.15625 9.8125 62.3125 
L 9.8125 71.09375 
Q 15.4375 72.65625 20.34375 73.4375 
Q 25.25 74.21875 29.59375 74.21875 
Q 40.828125 74.21875 47.359375 69.109375 
Q 53.90625 64.015625 53.90625 55.328125 
Q 53.90625 49.265625 50.4375 45.09375 
Q 46.96875 40.921875 40.578125 39.3125 
z
" id="DejaVuSans-51"/>
      </defs>
      <g transform="translate(20.878125 165.482475)scale(0.08 -0.08)">
       <use xlink:href="#DejaVuSans-51"/>
      </g>
     </g>
    </g>
    <g id="ytick_5">
     <g id="line2d_5">
      <path clip-path="url(#p3f7adde1e2)" d="M 32.968125 98.8495 
L 993.158125 98.8495 
" style="fill:none;stroke:#dedede;stroke-linecap:square;"/>
     </g>
     <g id="text_14">
      <!-- 4 -->
      <g transform="translate(20.878125 101.888875)scale(0.08 -0.08)">
       <use xlink:href="#DejaVuSans-52"/>
      </g>
     </g>
    </g>
    <g id="ytick_6">
     <g id="line2d_6">
      <path clip-path="url(#p3f7adde1e2)" d="M 32.968125 35.2559 
L 993.158125 35.2559 
" style="fill:none;stroke:#dedede;stroke-linecap:square;"/>
     </g>
     <g id="text_15">
      <!-- 5 -->
      <defs>
       <path d="M 10.796875 72.90625 
L 49.515625 72.90625 
L 49.515625 64.59375 
L 19.828125 64.59375 
L 19.828125 46.734375 
Q 21.96875 47.46875 24.109375 47.828125 
Q 26.265625 48.1875 28.421875 48.1875 
Q 40.625 48.1875 47.75 41.5 
Q 54.890625 34.8125 54.890625 23.390625 
Q 54.890625 11.625 47.5625 5.09375 
Q 40.234375 -1.421875 26.90625 -1.421875 
Q 22.3125 -1.421875 17.546875 -0.640625 
Q 12.796875 0.140625 7.71875 1.703125 
L 7.71875 11.625 
Q 12.109375 9.234375 16.796875 8.0625 
Q 21.484375 6.890625 26.703125 6.890625 
Q 35.15625 6.890625 40.078125 11.328125 
Q 45.015625 15.765625 45.015625 23.390625 
Q 45.015625 31 40.078125 35.4375 
Q 35.15625 39.890625 26.703125 39.890625 
Q 22.75 39.890625 18.8125 39.015625 
Q 14.890625 38.140625 10.796875 36.28125 
z
" id="DejaVuSans-53"/>
      </defs>
      <g transform="translate(20.878125 38.295275)scale(0.08 -0.08)">
       <use xlink:href="#DejaVuSans-53"/>
      </g>
     </g>
    </g>
    <g id="text_16">
     <!-- R2 Before filtering: Base Content Percent -->
     <defs>
      <path d="M 19.671875 34.8125 
L 19.671875 8.109375 
L 35.5 8.109375 
Q 43.453125 8.109375 47.28125 11.40625 
Q 51.125 14.703125 51.125 21.484375 
Q 51.125 28.328125 47.28125 31.5625 
Q 43.453125 34.8125 35.5 34.8125 
z
M 19.671875 64.796875 
L 19.671875 42.828125 
L 34.28125 42.828125 
Q 41.5 42.828125 45.03125 45.53125 
Q 48.578125 48.25 48.578125 53.8125 
Q 48.578125 59.328125 45.03125 62.0625 
Q 41.5 64.796875 34.28125 64.796875 
z
M 9.8125 72.90625 
L 35.015625 72.90625 
Q 46.296875 72.90625 52.390625 68.21875 
Q 58.5 63.53125 58.5 54.890625 
Q 58.5 48.1875 55.375 44.234375 
Q 52.25 40.28125 46.1875 39.3125 
Q 53.46875 37.75 57.5 32.78125 
Q 61.53125 27.828125 61.53125 20.40625 
Q 61.53125 10.640625 54.890625 5.3125 
Q 48.25 0 35.984375 0 
L 9.8125 0 
z
" id="DejaVuSans-66"/>
      <path d="M 37.109375 75.984375 
L 37.109375 68.5 
L 28.515625 68.5 
Q 23.6875 68.5 21.796875 66.546875 
Q 19.921875 64.59375 19.921875 59.515625 
L 19.921875 54.6875 
L 34.71875 54.6875 
L 34.71875 47.703125 
L 19.921875 47.703125 
L 19.921875 0 
L 10.890625 0 
L 10.890625 47.703125 
L 2.296875 47.703125 
L 2.296875 54.6875 
L 10.890625 54.6875 
L 10.890625 58.5 
Q 10.890625 67.625 15.140625 71.796875 
Q 19.390625 75.984375 28.609375 75.984375 
z
" id="DejaVuSans-102"/>
      <path d="M 41.109375 46.296875 
Q 39.59375 47.171875 37.8125 47.578125 
Q 36.03125 48 33.890625 48 
Q 26.265625 48 22.1875 43.046875 
Q 18.109375 38.09375 18.109375 28.8125 
L 18.109375 0 
L 9.078125 0 
L 9.078125 54.6875 
L 18.109375 54.6875 
L 18.109375 46.1875 
Q 20.953125 51.171875 25.484375 53.578125 
Q 30.03125 56 36.53125 56 
Q 37.453125 56 38.578125 55.875 
Q 39.703125 55.765625 41.0625 55.515625 
z
" id="DejaVuSans-114"/>
      <path d="M 9.421875 75.984375 
L 18.40625 75.984375 
L 18.40625 0 
L 9.421875 0 
z
" id="DejaVuSans-108"/>
      <path d="M 45.40625 27.984375 
Q 45.40625 37.75 41.375 43.109375 
Q 37.359375 48.484375 30.078125 48.484375 
Q 22.859375 48.484375 18.828125 43.109375 
Q 14.796875 37.75 14.796875 27.984375 
Q 14.796875 18.265625 18.828125 12.890625 
Q 22.859375 7.515625 30.078125 7.515625 
Q 37.359375 7.515625 41.375 12.890625 
Q 45.40625 18.265625 45.40625 27.984375 
z
M 54.390625 6.78125 
Q 54.390625 -7.171875 48.1875 -13.984375 
Q 42 -20.796875 29.203125 -20.796875 
Q 24.46875 -20.796875 20.265625 -20.09375 
Q 16.0625 -19.390625 12.109375 -17.921875 
L 12.109375 -9.1875 
Q 16.0625 -11.328125 19.921875 -12.34375 
Q 23.78125 -13.375 27.78125 -13.375 
Q 36.625 -13.375 41.015625 -8.765625 
Q 45.40625 -4.15625 45.40625 5.171875 
L 45.40625 9.625 
Q 42.625 4.78125 38.28125 2.390625 
Q 33.9375 0 27.875 0 
Q 17.828125 0 11.671875 7.65625 
Q 5.515625 15.328125 5.515625 27.984375 
Q 5.515625 40.671875 11.671875 48.328125 
Q 17.828125 56 27.875 56 
Q 33.9375 56 38.28125 53.609375 
Q 42.625 51.21875 45.40625 46.390625 
L 45.40625 54.6875 
L 54.390625 54.6875 
z
" id="DejaVuSans-103"/>
      <path d="M 11.71875 12.40625 
L 22.015625 12.40625 
L 22.015625 0 
L 11.71875 0 
z
M 11.71875 51.703125 
L 22.015625 51.703125 
L 22.015625 39.3125 
L 11.71875 39.3125 
z
" id="DejaVuSans-58"/>
      <path d="M 64.40625 67.28125 
L 64.40625 56.890625 
Q 59.421875 61.53125 53.78125 63.8125 
Q 48.140625 66.109375 41.796875 66.109375 
Q 29.296875 66.109375 22.65625 58.46875 
Q 16.015625 50.828125 16.015625 36.375 
Q 16.015625 21.96875 22.65625 14.328125 
Q 29.296875 6.6875 41.796875 6.6875 
Q 48.140625 6.6875 53.78125 8.984375 
Q 59.421875 11.28125 64.40625 15.921875 
L 64.40625 5.609375 
Q 59.234375 2.09375 53.4375 0.328125 
Q 47.65625 -1.421875 41.21875 -1.421875 
Q 24.65625 -1.421875 15.125 8.703125 
Q 5.609375 18.84375 5.609375 36.375 
Q 5.609375 53.953125 15.125 64.078125 
Q 24.65625 74.21875 41.21875 74.21875 
Q 47.75 74.21875 53.53125 72.484375 
Q 59.328125 70.75 64.40625 67.28125 
z
" id="DejaVuSans-67"/>
      <path d="M 48.78125 52.59375 
L 48.78125 44.1875 
Q 44.96875 46.296875 41.140625 47.34375 
Q 37.3125 48.390625 33.40625 48.390625 
Q 24.65625 48.390625 19.8125 42.84375 
Q 14.984375 37.3125 14.984375 27.296875 
Q 14.984375 17.28125 19.8125 11.734375 
Q 24.65625 6.203125 33.40625 6.203125 
Q 37.3125 6.203125 41.140625 7.25 
Q 44.96875 8.296875 48.78125 10.40625 
L 48.78125 2.09375 
Q 45.015625 0.34375 40.984375 -0.53125 
Q 36.96875 -1.421875 32.421875 -1.421875 
Q 20.0625 -1.421875 12.78125 6.34375 
Q 5.515625 14.109375 5.515625 27.296875 
Q 5.515625 40.671875 12.859375 48.328125 
Q 20.21875 56 33.015625 56 
Q 37.15625 56 41.109375 55.140625 
Q 45.0625 54.296875 48.78125 52.59375 
z
" id="DejaVuSans-99"/>
     </defs>
     <g transform="translate(14.798438 297.503181)rotate(-90)scale(0.1 -0.1)">
      <use xlink:href="#DejaVuSans-82"/>
      <use x="69.482422" xlink:href="#DejaVuSans-50"/>
      <use x="133.105469" xlink:href="#DejaVuSans-32"/>
      <use x="164.892578" xlink:href="#DejaVuSans-66"/>
      <use x="233.496094" xlink:href="#DejaVuSans-101"/>
      <use x="295.019531" xlink:href="#DejaVuSans-102"/>
      <use x="330.224609" xlink:href="#DejaVuSans-111"/>
      <use x="391.40625" xlink:href="#DejaVuSans-114"/>
      <use x="432.488281" xlink:href="#DejaVuSans-101"/>
      <use x="494.011719" xlink:href="#DejaVuSans-32"/>
      <use x="525.798828" xlink:href="#DejaVuSans-102"/>
      <use x="561.003906" xlink:href="#DejaVuSans-105"/>
      <use x="588.787109" xlink:href="#DejaVuSans-108"/>
      <use x="616.570312" xlink:href="#DejaVuSans-116"/>
      <use x="655.779297" xlink:href="#DejaVuSans-101"/>
      <use x="717.302734" xlink:href="#DejaVuSans-114"/>
      <use x="758.416016" xlink:href="#DejaVuSans-105"/>
      <use x="786.199219" xlink:href="#DejaVuSans-110"/>
      <use x="849.578125" xlink:href="#DejaVuSans-103"/>
      <use x="913.054688" xlink:href="#DejaVuSans-58"/>
      <use x="946.746094" xlink:href="#DejaVuSans-32"/>
      <use x="978.533203" xlink:href="#DejaVuSans-66"/>
      <use x="1047.136719" xlink:href="#DejaVuSans-97"/>
      <use x="1108.416016" xlink:href="#DejaVuSans-115"/>
      <use x="1160.515625" xlink:href="#DejaVuSans-101"/>
      <use x="1222.039062" xlink:href="#DejaVuSans-32"/>
      <use x="1253.826172" xlink:href="#DejaVuSans-67"/>
      <use x="1323.650391" xlink:href="#DejaVuSans-111"/>
      <use x="1384.832031" xlink:href="#DejaVuSans-110"/>
      <use x="1448.210938" xlink:href="#DejaVuSans-116"/>
      <use x="1487.419922" xlink:href="#DejaVuSans-101"/>
      <use x="1548.943359" xlink:href="#DejaVuSans-110"/>
      <use x="1612.322266" xlink:href="#DejaVuSans-116"/>
      <use x="1651.53125" xlink:href="#DejaVuSans-32"/>
      <use x="1683.318359" xlink:href="#DejaVuSans-80"/>
      <use x="1743.574219" xlink:href="#DejaVuSans-101"/>
      <use x="1805.097656" xlink:href="#DejaVuSans-114"/>
      <use x="1846.179688" xlink:href="#DejaVuSans-99"/>
      <use x="1901.160156" xlink:href="#DejaVuSans-101"/>
      <use x="1962.683594" xlink:href="#DejaVuSans-110"/>
      <use x="2026.0625" xlink:href="#DejaVuSans-116"/>
     </g>
    </g>
   </g>
   <g id="line2d_7">
    <path clip-path="url(#p3f7adde1e2)" d="M 76.613125 339.955922 
L 82.471514 353.220631 
L 105.905071 353.22094 
L 111.763461 352.794579 
L 117.62185 353.178459 
L 158.630575 353.212196 
L 164.488964 349.820167 
L 170.347353 353.218445 
L 176.205742 352.178485 
L 182.064132 352.904845 
L 187.922521 352.374372 
L 193.78091 352.727394 
L 199.639299 352.375027 
L 205.497689 349.134704 
L 211.356078 349.867525 
L 217.214467 351.286992 
L 228.931246 350.720169 
L 234.789635 350.840787 
L 252.364803 350.098853 
L 264.081581 349.882476 
L 269.939971 349.957211 
L 275.79836 349.505754 
L 281.656749 349.739715 
L 334.382253 349.320531 
L 363.674199 349.174845 
L 369.532588 349.004935 
L 375.390977 349.225739 
L 381.249367 349.22137 
L 387.107756 349.09195 
L 515.99232 349.180085 
L 568.717823 348.991587 
L 580.434602 349.037921 
L 586.292991 348.936108 
L 603.868159 349.007568 
L 609.726548 348.95317 
L 615.584937 349.112262 
L 627.301716 349.004147 
L 709.319165 348.896432 
L 715.177555 348.744577 
L 721.035944 348.914556 
L 738.611112 348.892311 
L 762.044669 348.943033 
L 767.903058 348.762567 
L 779.619836 348.935529 
L 791.336615 348.960502 
L 826.486951 348.898988 
L 832.34534 348.62808 
L 838.203729 348.925723 
L 849.920508 348.898117 
L 879.212454 348.589987 
L 885.070843 348.774904 
L 908.5044 348.910435 
L 949.513125 348.953946 
L 949.513125 348.953946 
" style="fill:none;stroke:#7cb5ec;stroke-linecap:square;"/>
   </g>
   <g id="line2d_8">
    <path clip-path="url(#p3f7adde1e2)" d="M 76.613125 333.134491 
L 82.471514 353.220193 
L 105.905071 353.219421 
L 111.763461 352.815674 
L 117.62185 353.177872 
L 158.630575 353.211466 
L 164.488964 349.936467 
L 170.347353 353.217722 
L 176.205742 352.223102 
L 182.064132 352.897613 
L 187.922521 352.405978 
L 193.78091 352.747714 
L 199.639299 352.392929 
L 205.497689 349.277097 
L 211.356078 349.987285 
L 217.214467 351.336684 
L 228.931246 350.787133 
L 234.789635 350.893245 
L 252.364803 350.168844 
L 264.081581 349.961955 
L 269.939971 350.029835 
L 275.79836 349.610486 
L 281.656749 349.827887 
L 334.382253 349.425454 
L 363.674199 349.28876 
L 369.532588 349.128046 
L 375.390977 349.332932 
L 439.833259 349.249294 
L 451.550038 349.321116 
L 480.841984 349.263507 
L 492.558763 349.251227 
L 527.709098 349.242502 
L 533.567487 349.152606 
L 545.284266 349.1221 
L 644.876883 349.128746 
L 656.593662 349.054061 
L 668.31044 349.128822 
L 680.027219 349.051975 
L 697.602387 349.056147 
L 715.177555 348.867789 
L 721.035944 349.033056 
L 738.611112 349.011587 
L 762.044669 349.0614 
L 767.903058 348.893818 
L 779.619836 349.057381 
L 791.336615 349.081559 
L 826.486951 349.012363 
L 832.34534 348.755807 
L 838.203729 349.039619 
L 855.778897 348.955523 
L 861.637286 348.824927 
L 873.354065 348.889646 
L 879.212454 348.729321 
L 890.929232 348.960769 
L 902.646011 348.972744 
L 931.937957 349.121947 
L 949.513125 349.065877 
L 949.513125 349.065877 
" style="fill:none;stroke:#434348;stroke-linecap:square;"/>
   </g>
   <g id="line2d_9">
    <path clip-path="url(#p3f7adde1e2)" d="M 76.613125 324.622233 
L 82.471514 353.216392 
L 105.905071 353.218158 
L 111.763461 352.818292 
L 117.62185 353.176444 
L 158.630575 353.208589 
L 164.488964 350.024239 
L 170.347353 353.214723 
L 176.205742 352.245977 
L 182.064132 352.89588 
L 187.922521 352.422748 
L 193.78091 352.761365 
L 199.639299 352.419066 
L 205.497689 349.371781 
L 211.356078 350.086217 
L 217.214467 351.406541 
L 228.931246 350.877462 
L 234.789635 350.979637 
L 252.364803 350.295179 
L 264.081581 350.074096 
L 269.939971 350.162135 
L 275.79836 349.741413 
L 281.656749 349.955087 
L 351.95742 349.491229 
L 363.674199 349.43224 
L 369.532588 349.27407 
L 375.390977 349.480921 
L 416.399702 349.34312 
L 422.258091 349.455846 
L 433.97487 349.444558 
L 445.691648 349.46218 
L 480.841984 349.41016 
L 492.558763 349.396367 
L 527.709098 349.388023 
L 533.567487 349.304251 
L 545.284266 349.275545 
L 709.319165 349.171258 
L 715.177555 349.030856 
L 721.035944 349.188187 
L 738.611112 349.172485 
L 762.044669 349.223621 
L 767.903058 349.052987 
L 779.619836 349.210864 
L 791.336615 349.240454 
L 826.486951 349.176365 
L 832.34534 348.920388 
L 838.203729 349.195207 
L 855.778897 349.121591 
L 861.637286 348.996204 
L 873.354065 349.055244 
L 879.212454 348.893392 
L 890.929232 349.124491 
L 902.646011 349.130037 
L 926.079568 349.288792 
L 949.513125 349.230394 
L 949.513125 349.230394 
" style="fill:none;stroke:#90ed7d;stroke-linecap:square;"/>
   </g>
   <g id="line2d_10">
    <path clip-path="url(#p3f7adde1e2)" d="M 76.613125 346.142816 
L 82.471514 353.222102 
L 105.905071 353.222133 
L 111.763461 352.786738 
L 117.62185 353.179501 
L 158.630575 353.214758 
L 164.488964 349.734042 
L 170.347353 353.220152 
L 176.205742 352.15147 
L 182.064132 352.903449 
L 187.922521 352.353265 
L 193.78091 352.714426 
L 199.639299 352.354881 
L 205.497689 349.033959 
L 211.356078 349.779289 
L 217.214467 351.237929 
L 228.931246 350.655596 
L 234.789635 350.78029 
L 252.364803 350.015304 
L 264.081581 349.79934 
L 269.939971 349.871016 
L 275.79836 349.407979 
L 281.656749 349.648382 
L 310.948695 349.337135 
L 316.807085 349.386223 
L 328.523863 349.276613 
L 351.95742 349.12556 
L 363.674199 349.064618 
L 369.532588 348.888419 
L 375.390977 349.118278 
L 381.249367 349.117426 
L 387.107756 348.985628 
L 416.399702 348.957749 
L 422.258091 349.085305 
L 439.833259 349.026188 
L 451.550038 349.110507 
L 609.726548 348.836711 
L 615.584937 349.001476 
L 627.301716 348.893602 
L 709.319165 348.780215 
L 715.177555 348.618343 
L 721.035944 348.796514 
L 732.752722 348.775858 
L 762.044669 348.825341 
L 767.903058 348.640067 
L 779.619836 348.817239 
L 785.478226 348.886899 
L 797.195004 348.834364 
L 814.770172 348.853741 
L 832.34534 348.505439 
L 838.203729 348.808158 
L 849.920508 348.782714 
L 867.495675 348.675902 
L 873.354065 348.639914 
L 879.212454 348.463086 
L 885.070843 348.653962 
L 908.5044 348.792463 
L 949.513125 348.837989 
L 949.513125 348.837989 
" style="fill:none;stroke:#f7a35c;stroke-linecap:square;"/>
   </g>
   <g id="line2d_11">
    <path clip-path="url(#p3f7adde1e2)" d="M 76.613125 340.489282 
L 82.471514 353.221123 
L 105.905071 353.221037 
L 111.763461 352.797995 
L 117.62185 353.177802 
L 158.630575 353.214079 
L 164.488964 349.837592 
L 170.347353 353.218718 
L 176.205742 352.192793 
L 182.064132 352.905967 
L 187.922521 352.380223 
L 193.78091 352.735204 
L 199.639299 352.383142 
L 205.497689 349.157261 
L 211.356078 349.889758 
L 217.214467 351.281026 
L 228.931246 350.712881 
L 234.789635 350.836285 
L 252.364803 350.095737 
L 264.081581 349.879137 
L 269.939971 349.953294 
L 275.79836 349.508088 
L 281.656749 349.735918 
L 340.240642 349.291628 
L 363.674199 349.173178 
L 369.532588 348.996458 
L 375.390977 349.230616 
L 381.249367 349.219564 
L 387.107756 349.092237 
L 521.850709 349.148326 
L 557.001044 349.015988 
L 562.859434 348.903001 
L 574.576212 349.01974 
L 580.434602 349.040611 
L 586.292991 348.938505 
L 603.868159 349.006455 
L 609.726548 348.953628 
L 615.584937 349.113966 
L 627.301716 349.00505 
L 709.319165 348.894041 
L 715.177555 348.735165 
L 721.035944 348.915516 
L 738.611112 348.893214 
L 762.044669 348.943949 
L 767.903058 348.761505 
L 779.619836 348.934156 
L 791.336615 348.962499 
L 826.486951 348.899224 
L 832.34534 348.632569 
L 838.203729 348.924165 
L 849.920508 348.899484 
L 879.212454 348.590508 
L 885.070843 348.77107 
L 890.929232 348.839554 
L 902.646011 348.850778 
L 926.079568 349.018907 
L 949.513125 348.954798 
L 949.513125 348.954798 
" style="fill:none;stroke:#8085e9;stroke-linecap:square;"/>
   </g>
   <g id="line2d_12">
    <path clip-path="url(#p3f7adde1e2)" d="M 76.613125 326.95809 
L 82.471514 353.218788 
L 105.905071 353.217732 
L 111.763461 352.818444 
L 117.62185 353.179504 
L 158.630575 353.209175 
L 164.488964 350.025873 
L 170.347353 353.216343 
L 176.205742 352.236851 
L 182.064132 352.899291 
L 187.922521 352.42416 
L 193.78091 352.7501 
L 199.639299 352.407657 
L 205.497689 349.363431 
L 211.356078 350.055877 
L 217.214467 351.386655 
L 228.931246 350.839731 
L 234.789635 350.960973 
L 252.364803 350.254352 
L 264.081581 350.038484 
L 269.939971 350.120723 
L 275.79836 349.702652 
L 281.656749 349.918686 
L 340.240642 349.496005 
L 363.674199 349.388487 
L 369.532588 349.226018 
L 375.390977 349.427661 
L 428.116481 349.34698 
L 445.691648 349.410771 
L 527.709098 349.340035 
L 533.567487 349.248467 
L 545.284266 349.222851 
L 609.726548 349.171729 
L 615.584937 349.318865 
L 633.160105 349.210514 
L 668.31044 349.223074 
L 680.027219 349.155118 
L 697.602387 349.161732 
L 715.177555 348.973088 
L 721.035944 349.139226 
L 738.611112 349.121502 
L 779.619836 349.159398 
L 791.336615 349.184842 
L 826.486951 349.122889 
L 832.34534 348.863789 
L 838.203729 349.144059 
L 855.778897 349.068605 
L 861.637286 348.931357 
L 873.354065 349.000204 
L 879.212454 348.834841 
L 890.929232 349.066716 
L 902.646011 349.078329 
L 931.937957 349.224963 
L 949.513125 349.167728 
L 949.513125 349.167728 
" style="fill:none;stroke:#f15c80;stroke-linecap:square;"/>
   </g>
   <g id="line2d_13">
    <path clip-path="url(#p3f7adde1e2)" d="M 76.613125 334.9995 
L 82.471514 353.220303 
L 105.905071 353.21977 
L 111.763461 352.804147 
L 117.62185 353.177934 
L 158.630575 353.211842 
L 164.488964 349.941612 
L 170.347353 353.217971 
L 176.205742 352.214587 
L 182.064132 352.903672 
L 187.922521 352.399314 
L 193.78091 352.739661 
L 199.639299 352.395186 
L 205.497689 349.261586 
L 211.356078 349.989046 
L 217.214467 351.341701 
L 223.072857 351.116605 
L 228.931246 350.77306 
L 234.789635 350.896101 
L 258.223192 350.06139 
L 264.081581 349.959666 
L 269.939971 350.036144 
L 275.79836 349.598938 
L 281.656749 349.827169 
L 346.099031 349.381899 
L 363.674199 349.284569 
L 369.532588 349.12156 
L 375.390977 349.335399 
L 381.249367 349.326407 
L 387.107756 349.196969 
L 469.125206 349.309555 
L 498.417152 349.262922 
L 521.850709 349.262655 
L 574.576212 349.12942 
L 580.434602 349.150539 
L 586.292991 349.059072 
L 603.868159 349.123626 
L 609.726548 349.06327 
L 615.584937 349.224683 
L 627.301716 349.116364 
L 709.319165 349.011441 
L 715.177555 348.867618 
L 721.035944 349.03436 
L 738.611112 349.015905 
L 762.044669 349.064204 
L 767.903058 348.882874 
L 779.619836 349.05181 
L 791.336615 349.080389 
L 826.486951 349.019905 
L 832.34534 348.7561 
L 838.203729 349.046284 
L 855.778897 348.961348 
L 861.637286 348.823515 
L 867.495675 348.919179 
L 873.354065 348.8862 
L 879.212454 348.719724 
L 890.929232 348.955949 
L 902.646011 348.973806 
L 931.937957 349.136949 
L 949.513125 349.078856 
L 949.513125 349.078856 
" style="fill:none;stroke:#e4d354;stroke-linecap:square;"/>
   </g>
   <g id="line2d_14">
    <path clip-path="url(#p3f7adde1e2)" d="M 76.613125 352.589906 
L 82.471514 353.2239 
L 105.905071 353.223641 
L 111.763461 352.768233 
L 117.62185 353.177633 
L 158.630575 353.217161 
L 164.488964 349.641545 
L 170.347353 353.220919 
L 176.205742 352.122898 
L 182.064132 352.904894 
L 187.922521 352.33116 
L 193.78091 352.714709 
L 199.639299 352.351898 
L 205.497689 348.937443 
L 211.356078 349.701031 
L 217.214467 351.17508 
L 228.931246 350.585281 
L 234.789635 350.71222 
L 252.364803 349.935608 
L 264.081581 349.722614 
L 269.939971 349.784752 
L 275.79836 349.306668 
L 281.656749 349.562041 
L 310.948695 349.2464 
L 316.807085 349.303425 
L 322.665474 349.182317 
L 340.240642 349.086608 
L 363.674199 348.965755 
L 369.532588 348.775636 
L 375.390977 349.028223 
L 381.249367 349.027899 
L 387.107756 348.901284 
L 416.399702 348.857735 
L 422.258091 348.990188 
L 439.833259 348.923058 
L 451.550038 349.01883 
L 557.001044 348.803439 
L 562.859434 348.680964 
L 574.576212 348.811471 
L 580.434602 348.839337 
L 586.292991 348.728271 
L 603.868159 348.796049 
L 609.726548 348.74693 
L 615.584937 348.908089 
L 627.301716 348.803115 
L 709.319165 348.680061 
L 715.177555 348.502966 
L 721.035944 348.701638 
L 732.752722 348.677663 
L 762.044669 348.73002 
L 767.903058 348.528626 
L 773.761447 348.682522 
L 803.053393 348.780564 
L 826.486951 348.684722 
L 832.34534 348.395073 
L 838.203729 348.716087 
L 849.920508 348.683883 
L 879.212454 348.352694 
L 885.070843 348.550464 
L 890.929232 348.620054 
L 896.787622 348.57288 
L 926.079568 348.808425 
L 949.513125 348.739159 
L 949.513125 348.739159 
" style="fill:none;stroke:#2b908f;stroke-linecap:square;"/>
   </g>
   <g id="line2d_15">
    <path clip-path="url(#p3f7adde1e2)" d="M 76.613125 338.906818 
L 82.471514 353.221627 
L 105.905071 353.220424 
L 111.763461 352.809293 
L 117.62185 353.176704 
L 158.630575 353.214808 
L 164.488964 349.898489 
L 170.347353 353.21922 
L 176.205742 352.21673 
L 182.064132 352.896467 
L 187.922521 352.382385 
L 193.78091 352.729474 
L 199.639299 352.362735 
L 205.497689 349.202711 
L 211.356078 349.920282 
L 217.214467 351.284302 
L 228.931246 350.717943 
L 234.789635 350.846962 
L 252.364803 350.095432 
L 264.081581 349.876829 
L 269.939971 349.955717 
L 275.79836 349.521989 
L 281.656749 349.737114 
L 369.532588 349.014862 
L 375.390977 349.247901 
L 416.399702 349.092942 
L 422.258091 349.210196 
L 439.833259 349.152975 
L 451.550038 349.232524 
L 557.001044 349.020478 
L 562.859434 348.924076 
L 574.576212 349.031842 
L 580.434602 349.043339 
L 586.292991 348.941997 
L 603.868159 349.01326 
L 609.726548 348.954296 
L 615.584937 349.112199 
L 627.301716 349.011784 
L 709.319165 348.895866 
L 715.177555 348.75334 
L 721.035944 348.923141 
L 732.752722 348.900413 
L 762.044669 348.950283 
L 767.903058 348.781149 
L 773.761447 348.922073 
L 803.053393 348.99628 
L 826.486951 348.899344 
L 832.34534 348.651864 
L 838.203729 348.921271 
L 849.920508 348.904826 
L 879.212454 348.607075 
L 885.070843 348.78824 
L 896.787622 348.806288 
L 931.937957 349.021679 
L 949.513125 348.963657 
L 949.513125 348.963657 
" style="fill:none;stroke:#f45b5b;stroke-linecap:square;"/>
   </g>
   <g id="line2d_16">
    <path clip-path="url(#p3f7adde1e2)" d="M 76.613125 329.339289 
L 82.471514 353.217685 
L 105.905071 353.220275 
L 111.763461 352.802318 
L 117.62185 353.170037 
L 158.630575 353.21147 
L 164.488964 350.00869 
L 170.347353 353.218203 
L 176.205742 352.227954 
L 182.064132 352.910562 
L 187.922521 352.414919 
L 193.78091 352.754152 
L 199.639299 352.408706 
L 205.497689 349.359743 
L 211.356078 350.049606 
L 217.214467 351.36925 
L 228.931246 350.817156 
L 234.789635 350.93006 
L 252.364803 350.237608 
L 264.081581 350.007139 
L 269.939971 350.090001 
L 275.79836 349.665317 
L 281.656749 349.877141 
L 351.95742 349.387196 
L 363.674199 349.338509 
L 369.532588 349.186762 
L 375.390977 349.376315 
L 381.249367 349.366993 
L 387.107756 349.244251 
L 480.841984 349.306401 
L 492.558763 349.306916 
L 527.709098 349.290343 
L 533.567487 349.206959 
L 539.425877 349.242699 
L 551.142655 349.172778 
L 557.001044 349.185725 
L 562.859434 349.087321 
L 574.576212 349.191423 
L 609.726548 349.126164 
L 615.584937 349.280505 
L 627.301716 349.157757 
L 668.31044 349.173814 
L 680.027219 349.103378 
L 697.602387 349.109076 
L 715.177555 348.924178 
L 721.035944 349.080071 
L 738.611112 349.067123 
L 762.044669 349.125649 
L 767.903058 348.926766 
L 773.761447 349.084217 
L 814.770172 349.136523 
L 832.34534 348.82681 
L 838.203729 349.095092 
L 855.778897 349.026207 
L 861.637286 348.894658 
L 873.354065 348.949558 
L 879.212454 348.77554 
L 890.929232 349.030354 
L 902.646011 349.027244 
L 937.796346 349.171741 
L 949.513125 349.120987 
L 949.513125 349.120987 
" style="fill:none;stroke:#91e8e1;stroke-linecap:square;"/>
   </g>
   <g id="line2d_17">
    <path clip-path="url(#p3f7adde1e2)" d="M 76.613125 337.825791 
L 82.471514 353.220405 
L 105.905071 353.219968 
L 111.763461 352.800355 
L 117.62185 353.178525 
L 158.630575 353.211167 
L 164.488964 349.867118 
L 170.347353 353.218345 
L 176.205742 352.201798 
L 182.064132 352.9039 
L 187.922521 352.391911 
L 193.78091 352.737129 
L 199.639299 352.388477 
L 205.497689 349.197032 
L 211.356078 349.927469 
L 217.214467 351.320194 
L 228.931246 350.774128 
L 234.789635 350.882911 
L 252.364803 350.152037 
L 264.081581 349.942826 
L 269.939971 350.009294 
L 275.79836 349.57558 
L 281.656749 349.798647 
L 334.382253 349.391018 
L 363.674199 349.245777 
L 369.532588 349.090742 
L 375.390977 349.300518 
L 439.833259 349.210641 
L 451.550038 349.285536 
L 527.709098 349.202088 
L 533.567487 349.117019 
L 545.284266 349.080879 
L 609.726548 349.033317 
L 615.584937 349.184861 
L 627.301716 349.079696 
L 709.319165 348.977832 
L 715.177555 348.823484 
L 721.035944 348.995307 
L 738.611112 348.972776 
L 762.044669 349.024891 
L 767.903058 348.847134 
L 779.619836 349.0214 
L 791.336615 349.047047 
L 826.486951 348.981514 
L 832.34534 348.712131 
L 838.203729 349.001609 
L 855.778897 348.921036 
L 861.637286 348.785156 
L 867.495675 348.877093 
L 873.354065 348.846263 
L 879.212454 348.674872 
L 885.070843 348.859993 
L 896.787622 348.879592 
L 926.079568 349.095359 
L 949.513125 349.028827 
L 949.513125 349.028827 
" style="fill:none;stroke:#7cb5ec;stroke-linecap:square;"/>
   </g>
   <g id="line2d_18">
    <path clip-path="url(#p3f7adde1e2)" d="M 76.613125 339.819005 
L 82.471514 353.220071 
L 105.905071 353.222098 
L 111.763461 352.784676 
L 117.62185 353.176148 
L 158.630575 353.21489 
L 164.488964 349.810564 
L 170.347353 353.216917 
L 176.205742 352.167737 
L 182.064132 352.90901 
L 187.922521 352.362569 
L 193.78091 352.715076 
L 199.639299 352.373158 
L 205.497689 349.126056 
L 211.356078 349.868231 
L 217.214467 351.29627 
L 228.931246 350.737664 
L 234.789635 350.852991 
L 258.223192 350.024996 
L 264.081581 349.929942 
L 269.939971 349.997517 
L 275.79836 349.54433 
L 281.656749 349.787143 
L 340.240642 349.351972 
L 363.674199 349.226285 
L 369.532588 349.044287 
L 375.390977 349.268632 
L 381.249367 349.276067 
L 387.107756 349.150151 
L 539.425877 349.130329 
L 551.142655 349.048122 
L 557.001044 349.062983 
L 562.859434 348.938874 
L 574.576212 349.06884 
L 580.434602 349.087085 
L 586.292991 348.991581 
L 603.868159 349.062983 
L 609.726548 349.003295 
L 615.584937 349.155112 
L 627.301716 349.050824 
L 685.885608 349.011403 
L 703.460776 348.931218 
L 709.319165 348.946308 
L 715.177555 348.772869 
L 721.035944 348.969056 
L 732.752722 348.938874 
L 762.044669 348.987981 
L 767.903058 348.815216 
L 779.619836 348.978518 
L 785.478226 349.059829 
L 797.195004 349.00014 
L 814.770172 349.019962 
L 826.486951 348.953513 
L 832.34534 348.655069 
L 838.203729 348.97897 
L 855.778897 348.882562 
L 861.637286 348.729848 
L 867.495675 348.842021 
L 873.354065 348.80756 
L 879.212454 348.638852 
L 890.929232 348.888648 
L 902.646011 348.900133 
L 931.937957 349.070418 
L 949.513125 348.999244 
L 949.513125 348.999244 
" style="fill:none;stroke:#434348;stroke-linecap:square;"/>
   </g>
   <g id="line2d_19">
    <path clip-path="url(#p3f7adde1e2)" d="M 76.613125 324.359401 
L 82.471514 353.220309 
L 105.905071 353.218256 
L 111.763461 352.818593 
L 117.62185 353.178239 
L 158.630575 353.206969 
L 164.488964 350.049168 
L 170.347353 353.213639 
L 176.205742 352.263478 
L 182.064132 352.88529 
L 187.922521 352.423034 
L 193.78091 352.749332 
L 199.639299 352.415339 
L 205.497689 349.409912 
L 211.356078 350.106116 
L 217.214467 351.397969 
L 228.931246 350.861837 
L 234.789635 350.999332 
L 252.364803 350.283122 
L 264.081581 350.085085 
L 269.939971 350.159477 
L 275.79836 349.767505 
L 281.656749 349.970159 
L 334.382253 349.593583 
L 363.674199 349.470453 
L 369.532588 349.339628 
L 375.390977 349.512527 
L 416.399702 349.349377 
L 422.258091 349.487382 
L 439.833259 349.427356 
L 451.550038 349.494568 
L 480.841984 349.431973 
L 498.417152 349.432488 
L 521.850709 349.445315 
L 557.001044 349.30628 
L 562.859434 349.23702 
L 574.576212 349.325263 
L 609.726548 349.261128 
L 615.584937 349.357072 
L 639.018494 349.297555 
L 668.31044 349.30628 
L 674.16883 349.208288 
L 697.602387 349.224702 
L 715.177555 349.082589 
L 721.035944 349.224702 
L 732.752722 349.20418 
L 756.186279 349.158011 
L 762.044669 349.226756 
L 767.903058 349.107728 
L 779.619836 349.265237 
L 797.195004 349.267284 
L 820.628561 349.20675 
L 826.486951 349.182635 
L 832.34534 348.923033 
L 838.203729 349.206234 
L 855.778897 349.128765 
L 861.637286 349.043085 
L 873.354065 349.099524 
L 879.212454 348.911745 
L 885.070843 349.101572 
L 896.787622 349.12107 
L 931.937957 349.277033 
L 949.513125 349.238044 
L 949.513125 349.238044 
" style="fill:none;stroke:#90ed7d;stroke-linecap:square;"/>
   </g>
   <g id="line2d_20">
    <path clip-path="url(#p3f7adde1e2)" d="M 76.613125 328.619727 
L 82.471514 353.217876 
L 105.905071 353.219144 
L 111.763461 352.793354 
L 117.62185 353.173807 
L 158.630575 353.208999 
L 164.488964 349.953593 
L 170.347353 353.214706 
L 176.205742 352.196043 
L 182.064132 352.898296 
L 187.922521 352.39705 
L 193.78091 352.743578 
L 199.639299 352.417972 
L 205.497689 349.30841 
L 211.356078 350.02366 
L 217.214467 351.391705 
L 223.072857 351.18182 
L 228.931246 350.856533 
L 234.789635 350.968133 
L 252.364803 350.265882 
L 264.081581 350.044265 
L 269.939971 350.131133 
L 275.79836 349.691396 
L 281.656749 349.916181 
L 369.532588 349.225026 
L 375.390977 349.431737 
L 439.833259 349.331234 
L 451.550038 349.417785 
L 480.841984 349.368646 
L 492.558763 349.350891 
L 527.709098 349.344868 
L 533.567487 349.250069 
L 545.284266 349.225344 
L 598.009769 349.184129 
L 621.443326 349.255462 
L 633.160105 349.210756 
L 668.31044 349.224708 
L 674.16883 349.123251 
L 697.602387 349.151468 
L 715.177555 348.97139 
L 721.035944 349.127378 
L 738.611112 349.128326 
L 773.761447 349.118501 
L 814.770172 349.185077 
L 826.486951 349.124205 
L 832.34534 348.852501 
L 838.203729 349.142908 
L 855.778897 349.070627 
L 861.637286 348.932394 
L 873.354065 348.99041 
L 879.212454 348.812552 
L 885.070843 348.995803 
L 920.221179 349.207589 
L 943.654736 349.216785 
L 949.513125 349.161935 
L 949.513125 349.161935 
" style="fill:none;stroke:#f7a35c;stroke-linecap:square;"/>
   </g>
   <g id="line2d_21">
    <path clip-path="url(#p3f7adde1e2)" d="M 76.613125 321.697882 
L 82.471514 353.216949 
L 105.905071 353.214343 
L 111.763461 352.833789 
L 117.62185 353.180458 
L 158.630575 353.199572 
L 164.488964 350.110828 
L 170.347353 353.215212 
L 176.205742 352.287287 
L 182.064132 352.890264 
L 187.922521 352.469743 
L 193.78091 352.767756 
L 199.639299 352.42891 
L 205.497689 349.472227 
L 211.356078 350.193372 
L 217.214467 351.486211 
L 228.931246 350.974461 
L 234.789635 351.093495 
L 252.364803 350.414926 
L 264.081581 350.212482 
L 269.939971 350.308928 
L 275.79836 349.87798 
L 281.656749 350.108221 
L 310.948695 349.753737 
L 316.807085 349.89101 
L 322.665474 349.73375 
L 363.674199 349.546079 
L 369.532588 349.423572 
L 375.390977 349.587783 
L 416.399702 349.472227 
L 422.258091 349.589526 
L 428.116481 349.515668 
L 445.691648 349.576489 
L 510.13393 349.525226 
L 521.850709 349.522619 
L 539.425877 349.464412 
L 551.142655 349.39664 
L 580.434602 349.400112 
L 592.15138 349.382738 
L 609.726548 349.350592 
L 615.584937 349.524361 
L 627.301716 349.395769 
L 709.319165 349.309752 
L 715.177555 349.160313 
L 721.035944 349.330604 
L 732.752722 349.294114 
L 762.044669 349.356671 
L 767.903058 349.175951 
L 785.478226 349.400112 
L 808.911783 349.381002 
L 826.486951 349.314102 
L 832.34534 349.062131 
L 838.203729 349.321918 
L 855.778897 349.263704 
L 861.637286 349.13251 
L 867.495675 349.216791 
L 873.354065 349.188117 
L 879.212454 349.02912 
L 890.929232 349.253281 
L 902.646011 349.259361 
L 926.079568 349.400112 
L 949.513125 349.351457 
L 949.513125 349.351457 
" style="fill:none;stroke:#8085e9;stroke-linecap:square;"/>
   </g>
   <g id="line2d_22">
    <path clip-path="url(#p3f7adde1e2)" d="M 76.613125 327.96643 
L 82.471514 353.218359 
L 105.905071 353.218543 
L 111.763461 352.819559 
L 117.62185 353.179845 
L 158.630575 353.208892 
L 164.488964 350.012582 
L 170.347353 353.214941 
L 176.205742 352.231198 
L 182.064132 352.898478 
L 187.922521 352.418633 
L 193.78091 352.748582 
L 199.639299 352.405291 
L 205.497689 349.356563 
L 211.356078 350.039043 
L 217.214467 351.377072 
L 228.931246 350.838491 
L 234.789635 350.947287 
L 252.364803 350.248413 
L 264.081581 350.031978 
L 269.939971 350.112971 
L 275.79836 349.689794 
L 281.656749 349.906692 
L 340.240642 349.49584 
L 363.674199 349.382331 
L 369.532588 349.223526 
L 375.390977 349.42768 
L 381.249367 349.416456 
L 387.107756 349.290528 
L 410.541313 349.289746 
L 416.399702 349.285173 
L 422.258091 349.402325 
L 433.97487 349.39582 
L 439.833259 349.34174 
L 451.550038 349.414567 
L 480.841984 349.359196 
L 492.558763 349.342293 
L 527.709098 349.340035 
L 533.567487 349.252244 
L 545.284266 349.22191 
L 609.726548 349.173191 
L 615.584937 349.325994 
L 633.160105 349.208791 
L 650.735273 349.178082 
L 662.452051 349.235945 
L 709.319165 349.118602 
L 715.177555 348.971574 
L 721.035944 349.135874 
L 738.611112 349.120733 
L 762.044669 349.169312 
L 767.903058 348.993183 
L 779.619836 349.158088 
L 791.336615 349.185382 
L 826.486951 349.124148 
L 832.34534 348.864711 
L 838.203729 349.145757 
L 855.778897 349.068319 
L 861.637286 348.940725 
L 867.495675 349.02671 
L 873.354065 349.001221 
L 879.212454 348.832482 
L 890.929232 349.066748 
L 902.646011 349.077457 
L 931.937957 349.228282 
L 949.513125 349.175449 
L 949.513125 349.175449 
" style="fill:none;stroke:#f15c80;stroke-linecap:square;"/>
   </g>
   <g id="line2d_23">
    <path clip-path="url(#p3f7adde1e2)" d="M 76.613125 346.775891 
L 82.471514 353.22235 
L 105.905071 353.222033 
L 111.763461 352.779263 
L 117.62185 353.176734 
L 158.630575 353.215478 
L 164.488964 349.728173 
L 170.347353 353.220135 
L 176.205742 352.151445 
L 182.064132 352.902065 
L 187.922521 352.350493 
L 193.78091 352.714635 
L 199.639299 352.352687 
L 205.497689 349.022767 
L 211.356078 349.773426 
L 217.214467 351.219315 
L 228.931246 350.634737 
L 234.789635 350.759069 
L 252.364803 349.991813 
L 264.081581 349.779683 
L 269.939971 349.844485 
L 275.79836 349.383597 
L 281.656749 349.622658 
L 334.382253 349.192664 
L 363.674199 349.042951 
L 369.532588 348.862727 
L 375.390977 349.097597 
L 381.249367 349.094259 
L 387.107756 348.963415 
L 527.709098 348.992172 
L 533.567487 348.901653 
L 545.284266 348.866079 
L 609.726548 348.813398 
L 615.584937 348.977444 
L 627.301716 348.8706 
L 709.319165 348.753435 
L 715.177555 348.590973 
L 721.035944 348.774071 
L 738.611112 348.748443 
L 762.044669 348.802517 
L 767.903058 348.615812 
L 779.619836 348.797658 
L 791.336615 348.822021 
L 826.486951 348.757098 
L 832.34534 348.481051 
L 838.203729 348.789067 
L 849.920508 348.761086 
L 867.495675 348.65524 
L 873.354065 348.61683 
L 879.212454 348.438113 
L 885.070843 348.632983 
L 908.5044 348.769219 
L 943.654736 348.862651 
L 949.513125 348.812927 
L 949.513125 348.812927 
" style="fill:none;stroke:#e4d354;stroke-linecap:square;"/>
   </g>
   <g id="line2d_24">
    <path clip-path="url(#p3f7adde1e2)" d="M 76.613125 322.947114 
L 82.471514 353.216868 
L 105.905071 353.21842 
L 111.763461 352.831359 
L 117.62185 353.177595 
L 158.630575 353.207186 
L 164.488964 350.050605 
L 170.347353 353.215224 
L 176.205742 352.264743 
L 182.064132 352.898487 
L 187.922521 352.436446 
L 193.78091 352.762678 
L 199.639299 352.424115 
L 205.497689 349.408271 
L 211.356078 350.111706 
L 217.214467 351.417371 
L 228.931246 350.885277 
L 234.789635 350.990671 
L 252.364803 350.321399 
L 264.081581 350.113073 
L 269.939971 350.190701 
L 275.79836 349.792408 
L 281.656749 349.990051 
L 369.532588 349.30525 
L 375.390977 349.519789 
L 416.399702 349.384157 
L 422.258091 349.493302 
L 433.97487 349.47832 
L 445.691648 349.503166 
L 527.709098 349.429003 
L 533.567487 349.338312 
L 545.284266 349.314471 
L 609.726548 349.258852 
L 615.584937 349.410007 
L 627.301716 349.302967 
L 709.319165 349.206521 
L 715.177555 349.067333 
L 721.035944 349.229624 
L 738.611112 349.208893 
L 762.044669 349.260314 
L 767.903058 349.103499 
L 779.619836 349.248988 
L 791.336615 349.276753 
L 826.486951 349.211818 
L 832.34534 348.965774 
L 838.203729 349.235201 
L 855.778897 349.159029 
L 861.637286 349.034176 
L 873.354065 349.089979 
L 879.212454 348.935815 
L 890.929232 349.160307 
L 902.646011 349.163684 
L 926.079568 349.32525 
L 949.513125 349.2689 
L 949.513125 349.2689 
" style="fill:none;stroke:#2b908f;stroke-linecap:square;"/>
   </g>
   <g id="line2d_25">
    <path clip-path="url(#p3f7adde1e2)" d="M 76.613125 338.092248 
L 82.471514 353.220483 
L 105.905071 353.220352 
L 111.763461 352.798828 
L 117.62185 353.177995 
L 158.630575 353.212799 
L 164.488964 349.848403 
L 170.347353 353.218132 
L 176.205742 352.190072 
L 182.064132 352.901826 
L 187.922521 352.386557 
L 193.78091 352.734575 
L 199.639299 352.382264 
L 205.497689 349.166355 
L 211.356078 349.896435 
L 217.214467 351.288734 
L 228.931246 350.722967 
L 234.789635 350.840762 
L 252.364803 350.101626 
L 264.081581 349.890864 
L 269.939971 349.962604 
L 275.79836 349.519427 
L 281.656749 349.748033 
L 346.099031 349.293339 
L 369.532588 349.023416 
L 375.390977 349.248677 
L 381.249367 349.238489 
L 387.107756 349.106653 
L 469.125206 349.218902 
L 492.558763 349.161217 
L 527.709098 349.146787 
L 533.567487 349.055041 
L 545.284266 349.027053 
L 609.726548 348.975619 
L 615.584937 349.1319 
L 627.301716 349.023918 
L 709.319165 348.919313 
L 715.177555 348.76183 
L 721.035944 348.937221 
L 738.611112 348.917176 
L 762.044669 348.967606 
L 767.903058 348.792107 
L 779.619836 348.96173 
L 791.336615 348.986544 
L 826.486951 348.919898 
L 832.34534 348.65091 
L 838.203729 348.946474 
L 849.920508 348.919574 
L 879.212454 348.615609 
L 885.070843 348.801143 
L 902.646011 348.878498 
L 931.937957 349.038608 
L 949.513125 348.976032 
L 949.513125 348.976032 
" style="fill:none;stroke:#f45b5b;stroke-linecap:square;"/>
   </g>
   <g id="line2d_26">
    <path clip-path="url(#p3f7adde1e2)" d="M 76.613125 352.002769 
L 82.471514 353.223709 
L 105.905071 353.222943 
L 111.763461 352.77296 
L 117.62185 353.176161 
L 158.630575 353.217873 
L 164.488964 349.631256 
L 170.347353 353.221652 
L 176.205742 352.120875 
L 182.064132 352.902832 
L 187.922521 352.331637 
L 193.78091 352.706852 
L 199.639299 352.346989 
L 205.497689 348.923058 
L 211.356078 349.701908 
L 217.214467 351.183309 
L 228.931246 350.589058 
L 234.789635 350.719692 
L 252.364803 349.933955 
L 264.081581 349.715975 
L 269.939971 349.779499 
L 275.79836 349.315978 
L 281.656749 349.554339 
L 322.665474 349.182228 
L 340.240642 349.085604 
L 363.674199 348.959033 
L 369.532588 348.787878 
L 375.390977 349.022125 
L 381.249367 349.018398 
L 387.107756 348.890721 
L 416.399702 348.85633 
L 422.258091 348.982951 
L 439.833259 348.92234 
L 451.550038 349.013902 
L 609.726548 348.726554 
L 615.584937 348.900432 
L 627.301716 348.789315 
L 709.319165 348.669199 
L 715.177555 348.511252 
L 721.035944 348.691826 
L 732.752722 348.664754 
L 762.044669 348.72139 
L 767.903058 348.524454 
L 773.761447 348.674128 
L 803.053393 348.767356 
L 826.486951 348.674369 
L 832.34534 348.392999 
L 838.203729 348.705556 
L 849.920508 348.675946 
L 867.495675 348.572906 
L 873.354065 348.532104 
L 879.212454 348.346888 
L 885.070843 348.552098 
L 920.221179 348.776831 
L 943.654736 348.781277 
L 949.513125 348.727801 
L 949.513125 348.727801 
" style="fill:none;stroke:#91e8e1;stroke-linecap:square;"/>
   </g>
   <g id="line2d_27">
    <path clip-path="url(#p3f7adde1e2)" d="M 76.613125 343.448546 
L 82.471514 353.221508 
L 105.905071 353.221147 
L 111.763461 352.782324 
L 117.62185 353.177829 
L 158.630575 353.213477 
L 164.488964 349.776059 
L 170.347353 353.21932 
L 176.205742 352.166637 
L 182.064132 352.905623 
L 187.922521 352.364642 
L 193.78091 352.726574 
L 199.639299 352.372153 
L 205.497689 349.086163 
L 211.356078 349.836587 
L 217.214467 351.255354 
L 228.931246 350.679196 
L 234.789635 350.803286 
L 252.364803 350.04497 
L 264.081581 349.830565 
L 269.939971 349.898025 
L 275.79836 349.441785 
L 281.656749 349.680528 
L 340.240642 349.228441 
L 363.674199 349.109655 
L 369.532588 348.93137 
L 375.390977 349.162584 
L 381.249367 349.158387 
L 387.107756 349.028344 
L 480.841984 349.087969 
L 492.558763 349.080211 
L 527.709098 349.062341 
L 533.567487 348.972229 
L 545.284266 348.936992 
L 609.726548 348.887783 
L 615.584937 349.048624 
L 627.301716 348.94283 
L 709.319165 348.828425 
L 715.177555 348.664309 
L 721.035944 348.84742 
L 738.611112 348.823484 
L 762.044669 348.876953 
L 767.903058 348.691495 
L 779.619836 348.870931 
L 791.336615 348.896782 
L 826.486951 348.831153 
L 832.34534 348.55358 
L 838.203729 348.860711 
L 849.920508 348.834873 
L 867.495675 348.728856 
L 873.354065 348.694541 
L 879.212454 348.515989 
L 885.070843 348.71002 
L 908.5044 348.84363 
L 943.654736 348.935815 
L 949.513125 348.888368 
L 949.513125 348.888368 
" style="fill:none;stroke:#7cb5ec;stroke-linecap:square;"/>
   </g>
   <g id="line2d_28">
    <path clip-path="url(#p3f7adde1e2)" d="M 76.613125 352.669119 
L 82.471514 353.2239 
L 105.905071 353.223365 
L 111.763461 352.77109 
L 117.62185 353.176349 
L 158.630575 353.21805 
L 164.488964 349.643682 
L 170.347353 353.221276 
L 176.205742 352.123775 
L 182.064132 352.899527 
L 187.922521 352.329405 
L 193.78091 352.700646 
L 199.639299 352.331294 
L 205.497689 348.921106 
L 211.356078 349.68126 
L 217.214467 351.167525 
L 228.931246 350.570979 
L 234.789635 350.697568 
L 252.364803 349.912696 
L 264.081581 349.702722 
L 269.939971 349.762049 
L 275.79836 349.292054 
L 281.656749 349.536317 
L 310.948695 349.227831 
L 316.807085 349.270578 
L 328.523863 349.161859 
L 346.099031 349.048287 
L 363.674199 348.941831 
L 369.532588 348.756202 
L 375.390977 348.998754 
L 381.249367 348.996961 
L 387.107756 348.865265 
L 416.399702 348.829951 
L 422.258091 348.961895 
L 439.833259 348.904559 
L 451.550038 348.989876 
L 609.726548 348.702815 
L 615.584937 348.871115 
L 627.301716 348.765168 
L 709.319165 348.641364 
L 715.177555 348.477356 
L 721.035944 348.663094 
L 732.752722 348.633937 
L 762.044669 348.691222 
L 767.903058 348.499983 
L 773.761447 348.649867 
L 803.053393 348.743349 
L 826.486951 348.645383 
L 832.34534 348.366767 
L 838.203729 348.679921 
L 849.920508 348.650693 
L 867.495675 348.543252 
L 873.354065 348.500358 
L 879.212454 348.319231 
L 885.070843 348.520053 
L 908.5044 348.657256 
L 943.654736 348.752774 
L 949.513125 348.701206 
L 949.513125 348.701206 
" style="fill:none;stroke:#434348;stroke-linecap:square;"/>
   </g>
   <g id="line2d_29">
    <path clip-path="url(#p3f7adde1e2)" d="M 76.613125 341.461501 
L 82.471514 353.221023 
L 105.905071 353.221005 
L 111.763461 352.795217 
L 117.62185 353.17829 
L 158.630575 353.213638 
L 164.488964 349.799792 
L 170.347353 353.219465 
L 176.205742 352.176768 
L 182.064132 352.90478 
L 187.922521 352.376286 
L 193.78091 352.729103 
L 199.639299 352.378684 
L 205.497689 349.109509 
L 211.356078 349.858813 
L 217.214467 351.267233 
L 228.931246 350.698916 
L 234.789635 350.818542 
L 252.364803 350.076971 
L 264.081581 349.866069 
L 269.939971 349.935558 
L 275.79836 349.490091 
L 281.656749 349.717495 
L 334.382253 349.303876 
L 363.674199 349.157134 
L 369.532588 348.983638 
L 375.390977 349.212161 
L 381.249367 349.203036 
L 387.107756 349.078907 
L 527.709098 349.107257 
L 533.567487 349.020821 
L 545.284266 348.986735 
L 609.726548 348.934365 
L 615.584937 349.094907 
L 627.301716 348.987708 
L 709.319165 348.879834 
L 715.177555 348.719896 
L 721.035944 348.899166 
L 732.752722 348.873805 
L 762.044669 348.925513 
L 767.903058 348.744704 
L 779.619836 348.919739 
L 791.336615 348.944903 
L 826.486951 348.879554 
L 832.34534 348.613777 
L 838.203729 348.909519 
L 849.920508 348.881443 
L 867.495675 348.780145 
L 873.354065 348.746612 
L 879.212454 348.572861 
L 885.070843 348.758504 
L 908.5044 348.8924 
L 943.654736 348.984757 
L 949.513125 348.933539 
L 949.513125 348.933539 
" style="fill:none;stroke:#90ed7d;stroke-linecap:square;"/>
   </g>
   <g id="line2d_30">
    <path clip-path="url(#p3f7adde1e2)" d="M 76.613125 339.331751 
L 82.471514 353.220281 
L 105.905071 353.220762 
L 111.763461 352.796 
L 117.62185 353.178192 
L 158.630575 353.212646 
L 164.488964 349.843474 
L 170.347353 353.219089 
L 176.205742 352.187731 
L 182.064132 352.89842 
L 187.922521 352.380045 
L 193.78091 352.729832 
L 199.639299 352.374041 
L 205.497689 349.151576 
L 211.356078 349.886921 
L 217.214467 351.282648 
L 228.931246 350.713752 
L 234.789635 350.833849 
L 252.364803 350.099941 
L 264.081581 349.887303 
L 269.939971 349.956315 
L 275.79836 349.512597 
L 281.656749 349.740866 
L 334.382253 349.325034 
L 363.674199 349.183748 
L 369.532588 349.019218 
L 375.390977 349.232301 
L 381.249367 349.220041 
L 387.107756 349.094259 
L 480.841984 349.155945 
L 492.558763 349.144987 
L 527.709098 349.129127 
L 533.567487 349.041686 
L 545.284266 349.009972 
L 609.726548 348.956585 
L 615.584937 349.112542 
L 627.301716 349.007695 
L 709.319165 348.898327 
L 715.177555 348.756392 
L 721.035944 348.917615 
L 738.611112 348.893602 
L 762.044669 348.944413 
L 767.903058 348.767623 
L 779.619836 348.941545 
L 791.336615 348.963701 
L 826.486951 348.898995 
L 832.34534 348.630668 
L 838.203729 348.92826 
L 849.920508 348.89944 
L 879.212454 348.594915 
L 885.070843 348.784609 
L 908.5044 348.910982 
L 943.654736 349.005018 
L 949.513125 348.954016 
L 949.513125 348.954016 
" style="fill:none;stroke:#f7a35c;stroke-linecap:square;"/>
   </g>
   <g id="line2d_31">
    <path clip-path="url(#p3f7adde1e2)" d="M 76.613125 345.154381 
L 82.471514 353.222148 
L 105.905071 353.221438 
L 111.763461 352.787685 
L 117.62185 353.177933 
L 158.630575 353.215 
L 164.488964 349.743677 
L 170.347353 353.220563 
L 176.205742 352.1619 
L 182.064132 352.905444 
L 187.922521 352.363211 
L 193.78091 352.721338 
L 199.639299 352.366716 
L 205.497689 349.041909 
L 211.356078 349.799493 
L 217.214467 351.232333 
L 228.931246 350.654731 
L 234.789635 350.777772 
L 252.364803 350.020735 
L 264.081581 349.810259 
L 269.939971 349.877083 
L 275.79836 349.423992 
L 281.656749 349.656668 
L 334.382253 349.238934 
L 363.674199 349.088561 
L 369.532588 348.910111 
L 375.390977 349.145846 
L 381.249367 349.137839 
L 387.107756 349.012961 
L 539.425877 348.986684 
L 551.142655 348.908858 
L 557.001044 348.928718 
L 562.859434 348.812851 
L 574.576212 348.932578 
L 580.434602 348.953927 
L 586.292991 348.852501 
L 603.868159 348.922467 
L 609.726548 348.864711 
L 615.584937 349.025953 
L 627.301716 348.9215 
L 709.319165 348.80852 
L 715.177555 348.642216 
L 721.035944 348.829633 
L 732.752722 348.801372 
L 762.044669 348.855153 
L 767.903058 348.669651 
L 779.619836 348.848336 
L 791.336615 348.875268 
L 826.486951 348.808259 
L 832.34534 348.539201 
L 838.203729 348.839579 
L 849.920508 348.810701 
L 867.495675 348.708068 
L 873.354065 348.672112 
L 879.212454 348.495913 
L 885.070843 348.685721 
L 908.5044 348.818746 
L 943.654736 348.914467 
L 949.513125 348.862066 
L 949.513125 348.862066 
" style="fill:none;stroke:#8085e9;stroke-linecap:square;"/>
   </g>
   <g id="line2d_32">
    <path clip-path="url(#p3f7adde1e2)" d="M 76.613125 329.419226 
L 82.471514 353.218741 
L 105.905071 353.219327 
L 111.763461 352.816395 
L 117.62185 353.178839 
L 158.630575 353.210182 
L 164.488964 349.978712 
L 170.347353 353.216514 
L 176.205742 352.237792 
L 182.064132 352.904017 
L 187.922521 352.418309 
L 193.78091 352.75574 
L 199.639299 352.404242 
L 205.497689 349.313428 
L 211.356078 350.031355 
L 217.214467 351.370178 
L 228.931246 350.818777 
L 234.789635 350.939694 
L 252.364803 350.241188 
L 264.081581 350.025651 
L 269.939971 350.107368 
L 275.79836 349.683059 
L 281.656749 349.903678 
L 340.240642 349.48101 
L 363.674199 349.365015 
L 369.532588 349.201064 
L 375.390977 349.415387 
L 428.116481 349.327965 
L 445.691648 349.396513 
L 480.841984 349.339883 
L 492.558763 349.327298 
L 527.709098 349.32015 
L 533.567487 349.229243 
L 545.284266 349.200912 
L 609.726548 349.150495 
L 615.584937 349.307526 
L 627.301716 349.192466 
L 709.319165 349.095467 
L 715.177555 348.951453 
L 721.035944 349.115397 
L 738.611112 349.096523 
L 762.044669 349.145846 
L 767.903058 348.975568 
L 779.619836 349.134393 
L 791.336615 349.163468 
L 826.486951 349.094685 
L 832.34534 348.844018 
L 838.203729 349.121337 
L 855.778897 349.043918 
L 861.637286 348.914753 
L 867.495675 349.001164 
L 873.354065 348.968375 
L 879.212454 348.810682 
L 890.929232 349.040013 
L 902.646011 349.053374 
L 926.079568 349.219354 
L 949.513125 349.155735 
L 949.513125 349.155735 
" style="fill:none;stroke:#f15c80;stroke-linecap:square;"/>
   </g>
   <g id="line2d_33">
    <path clip-path="url(#p3f7adde1e2)" d="M 76.613125 335.769365 
L 82.471514 353.220774 
L 105.905071 353.219833 
L 111.763461 352.8012 
L 117.62185 353.178528 
L 158.630575 353.21338 
L 164.488964 349.87887 
L 170.347353 353.218018 
L 176.205742 352.203127 
L 182.064132 352.895709 
L 187.922521 352.398131 
L 193.78091 352.740368 
L 199.639299 352.388751 
L 205.497689 349.211125 
L 211.356078 349.940575 
L 217.214467 351.319482 
L 228.931246 350.748971 
L 234.789635 350.871573 
L 252.364803 350.139439 
L 264.081581 349.920371 
L 269.939971 349.995927 
L 275.79836 349.558308 
L 281.656749 349.784764 
L 334.382253 349.373123 
L 363.674199 349.229173 
L 369.532588 349.067651 
L 375.390977 349.279583 
L 381.249367 349.272359 
L 387.107756 349.143976 
L 469.125206 349.259049 
L 492.558763 349.194927 
L 527.709098 349.180676 
L 533.567487 349.091512 
L 545.284266 349.06002 
L 609.726548 349.010449 
L 615.584937 349.165484 
L 627.301716 349.056828 
L 709.319165 348.954556 
L 715.177555 348.807382 
L 721.035944 348.976064 
L 732.752722 348.951765 
L 762.044669 348.998881 
L 767.903058 348.828387 
L 779.619836 348.997609 
L 791.336615 349.019587 
L 826.486951 348.955192 
L 832.34534 348.686859 
L 838.203729 348.980032 
L 855.778897 348.898295 
L 861.637286 348.765136 
L 873.354065 348.826606 
L 879.212454 348.656608 
L 885.070843 348.838269 
L 902.646011 348.909685 
L 926.079568 349.075143 
L 949.513125 349.007587 
L 949.513125 349.007587 
" style="fill:none;stroke:#e4d354;stroke-linecap:square;"/>
   </g>
   <g id="line2d_34">
    <path clip-path="url(#p3f7adde1e2)" d="M 76.613125 331.070179 
L 82.471514 353.218999 
L 105.905071 353.219081 
L 111.763461 352.805969 
L 117.62185 353.176658 
L 158.630575 353.209773 
L 164.488964 349.917802 
L 170.347353 353.216569 
L 176.205742 352.2099 
L 182.064132 352.898229 
L 187.922521 352.39656 
L 193.78091 352.74431 
L 199.639299 352.390589 
L 205.497689 349.265599 
L 211.356078 349.981523 
L 217.214467 351.346274 
L 228.931246 350.810586 
L 234.789635 350.913309 
L 252.364803 350.206244 
L 264.081581 349.993262 
L 269.939971 350.06789 
L 275.79836 349.641679 
L 281.656749 349.860555 
L 334.382253 349.45947 
L 363.674199 349.318731 
L 369.532588 349.16032 
L 375.390977 349.361892 
L 381.249367 349.348964 
L 387.107756 349.223958 
L 433.97487 349.332487 
L 439.833259 349.280054 
L 451.550038 349.352379 
L 527.709098 349.27157 
L 533.567487 349.183264 
L 545.284266 349.154635 
L 609.726548 349.101712 
L 615.584937 349.25571 
L 633.160105 349.142075 
L 650.735273 349.109082 
L 662.452051 349.16757 
L 709.319165 349.052243 
L 715.177555 348.905697 
L 721.035944 349.065591 
L 738.611112 349.048618 
L 762.044669 349.096109 
L 767.903058 348.923701 
L 779.619836 349.08631 
L 791.336615 349.113572 
L 826.486951 349.054099 
L 832.34534 348.790046 
L 838.203729 349.077947 
L 855.778897 348.998538 
L 861.637286 348.864921 
L 867.495675 348.950385 
L 873.354065 348.922378 
L 879.212454 348.757588 
L 890.929232 348.993635 
L 902.646011 349.005539 
L 926.079568 349.166209 
L 949.513125 349.105375 
L 949.513125 349.105375 
" style="fill:none;stroke:#2b908f;stroke-linecap:square;"/>
   </g>
   <g id="line2d_35">
    <path clip-path="url(#p3f7adde1e2)" d="M 76.613125 327.994665 
L 82.471514 353.21866 
L 105.905071 353.219575 
L 111.763461 352.813672 
L 117.62185 353.177487 
L 158.630575 353.209344 
L 164.488964 349.995221 
L 170.347353 353.21525 
L 176.205742 352.23626 
L 182.064132 352.894685 
L 187.922521 352.411015 
L 193.78091 352.746631 
L 199.639299 352.400363 
L 205.497689 349.333631 
L 211.356078 350.042802 
L 217.214467 351.375291 
L 228.931246 350.850778 
L 234.789635 350.956248 
L 252.364803 350.259561 
L 264.081581 350.052532 
L 269.939971 350.126224 
L 275.79836 349.71167 
L 281.656749 349.918616 
L 351.95742 349.450078 
L 363.674199 349.393689 
L 369.532588 349.234069 
L 375.390977 349.433779 
L 439.833259 349.349269 
L 451.550038 349.427457 
L 539.425877 349.296118 
L 551.142655 349.221179 
L 557.001044 349.242222 
L 562.859434 349.135588 
L 574.576212 349.245631 
L 644.876883 349.240893 
L 656.593662 349.16287 
L 668.31044 349.234483 
L 680.027219 349.162705 
L 697.602387 349.173935 
L 715.177555 348.984706 
L 721.035944 349.14058 
L 738.611112 349.12411 
L 762.044669 349.175099 
L 767.903058 349.004503 
L 779.619836 349.165032 
L 791.336615 349.19356 
L 826.486951 349.128599 
L 832.34534 348.864184 
L 838.203729 349.150813 
L 855.778897 349.077534 
L 861.637286 348.946614 
L 867.495675 349.029037 
L 873.354065 349.000096 
L 879.212454 348.845048 
L 890.929232 349.073788 
L 902.646011 349.085101 
L 926.079568 349.245548 
L 949.513125 349.178177 
L 949.513125 349.178177 
" style="fill:none;stroke:#f45b5b;stroke-linecap:square;"/>
   </g>
   <g id="line2d_36">
    <path clip-path="url(#p3f7adde1e2)" d="M 76.613125 342.662847 
L 82.471514 353.221443 
L 105.905071 353.221415 
L 111.763461 352.790108 
L 117.62185 353.177197 
L 158.630575 353.214247 
L 164.488964 349.776974 
L 170.347353 353.219594 
L 176.205742 352.168176 
L 182.064132 352.899756 
L 187.922521 352.373539 
L 193.78091 352.729938 
L 199.639299 352.370359 
L 205.497689 349.08713 
L 211.356078 349.830266 
L 217.214467 351.251812 
L 228.931246 350.678197 
L 234.789635 350.798224 
L 252.364803 350.048144 
L 264.081581 349.837579 
L 269.939971 349.90006 
L 275.79836 349.454332 
L 281.656749 349.688077 
L 334.382253 349.264429 
L 363.674199 349.120307 
L 369.532588 348.955803 
L 375.390977 349.170647 
L 381.249367 349.164352 
L 387.107756 349.035715 
L 527.709098 349.066494 
L 533.567487 348.976757 
L 539.425877 349.016522 
L 551.142655 348.941354 
L 557.001044 348.96049 
L 562.859434 348.860578 
L 580.434602 348.977743 
L 586.292991 348.876502 
L 603.868159 348.949679 
L 609.726548 348.896127 
L 615.584937 349.052967 
L 633.160105 348.937971 
L 650.735273 348.908527 
L 656.593662 348.875287 
L 668.31044 348.945488 
L 680.027219 348.873818 
L 697.602387 348.881532 
L 715.177555 348.685905 
L 721.035944 348.857455 
L 738.611112 348.834021 
L 762.044669 348.88454 
L 767.903058 348.705791 
L 779.619836 348.881125 
L 791.336615 348.903262 
L 826.486951 348.837919 
L 832.34534 348.568918 
L 838.203729 348.865926 
L 849.920508 348.841245 
L 867.495675 348.736742 
L 873.354065 348.706338 
L 879.212454 348.532791 
L 885.070843 348.726974 
L 920.221179 348.941272 
L 943.654736 348.944102 
L 949.513125 348.891014 
L 949.513125 348.891014 
" style="fill:none;stroke:#91e8e1;stroke-linecap:square;"/>
   </g>
   <g id="line2d_37">
    <path clip-path="url(#p3f7adde1e2)" d="M 76.613125 322.127075 
L 82.471514 353.218454 
L 105.905071 353.217492 
L 111.763461 352.802919 
L 117.62185 353.177445 
L 158.630575 353.208842 
L 164.488964 350.040271 
L 170.347353 353.214929 
L 176.205742 352.232641 
L 182.064132 352.898392 
L 187.922521 352.411091 
L 193.78091 352.769279 
L 199.639299 352.40276 
L 205.497689 349.377085 
L 211.356078 350.069429 
L 217.214467 351.412144 
L 228.931246 350.863331 
L 234.789635 350.974181 
L 258.223192 350.191814 
L 264.081581 350.091852 
L 269.939971 350.185404 
L 275.79836 349.741355 
L 281.656749 349.977796 
L 340.240642 349.565468 
L 363.674199 349.451413 
L 369.532588 349.294744 
L 375.390977 349.502034 
L 416.399702 349.356576 
L 422.258091 349.462625 
L 433.97487 349.456539 
L 445.691648 349.475121 
L 469.125206 349.46775 
L 492.558763 349.406879 
L 527.709098 349.402713 
L 533.567487 349.315571 
L 545.284266 349.284493 
L 650.735273 349.244441 
L 662.452051 349.297625 
L 709.319165 349.187417 
L 715.177555 349.0567 
L 721.035944 349.193503 
L 738.611112 349.182609 
L 762.044669 349.230025 
L 767.903058 349.04837 
L 779.619836 349.210482 
L 791.336615 349.23868 
L 826.486951 349.178768 
L 832.34534 348.910289 
L 838.203729 349.200231 
L 855.778897 349.130068 
L 861.637286 349.01345 
L 873.354065 349.057661 
L 879.212454 348.882734 
L 885.070843 349.071759 
L 896.787622 349.084891 
L 931.937957 349.289618 
L 949.513125 349.23868 
L 949.513125 349.23868 
" style="fill:none;stroke:#7cb5ec;stroke-linecap:square;"/>
   </g>
   <g id="line2d_38">
    <path clip-path="url(#p3f7adde1e2)" d="M 76.613125 321.873972 
L 82.471514 353.215692 
L 105.905071 353.216175 
L 111.763461 352.840559 
L 117.62185 353.178517 
L 158.630575 353.204588 
L 164.488964 350.046128 
L 170.347353 353.214244 
L 176.205742 352.244304 
L 182.064132 352.897047 
L 187.922521 352.457699 
L 193.78091 352.793728 
L 199.639299 352.453839 
L 205.497689 349.397734 
L 211.356078 350.131585 
L 217.214467 351.445759 
L 228.931246 350.93689 
L 234.789635 351.013654 
L 252.364803 350.348363 
L 264.081581 350.138345 
L 269.939971 350.224762 
L 275.79836 349.839493 
L 281.656749 350.019577 
L 351.95742 349.571058 
L 363.674199 349.510708 
L 369.532588 349.359107 
L 375.390977 349.557538 
L 439.833259 349.488501 
L 457.408427 349.560921 
L 469.125206 349.555605 
L 486.700373 349.448424 
L 515.99232 349.523261 
L 568.717823 349.353314 
L 603.868159 349.366834 
L 609.726548 349.308417 
L 615.584937 349.466288 
L 633.160105 349.363457 
L 668.31044 349.362974 
L 674.16883 349.268346 
L 697.602387 349.298757 
L 715.177555 349.120122 
L 721.035944 349.27945 
L 732.752722 349.25676 
L 762.044669 349.32097 
L 767.903058 349.154406 
L 785.478226 349.364417 
L 797.195004 349.315177 
L 814.770172 349.327247 
L 832.34534 349.038048 
L 838.203729 349.290553 
L 855.778897 349.22296 
L 861.637286 349.074742 
L 867.495675 349.173236 
L 885.070843 349.142819 
L 896.787622 349.165509 
L 926.079568 349.37842 
L 949.513125 349.341244 
L 949.513125 349.341244 
" style="fill:none;stroke:#434348;stroke-linecap:square;"/>
   </g>
   <g id="line2d_39">
    <path clip-path="url(#p3f7adde1e2)" d="M 76.613125 321.985643 
L 82.471514 353.21592 
L 105.905071 353.2182 
L 111.763461 352.81348 
L 117.62185 353.176398 
L 158.630575 353.209839 
L 164.488964 350.059107 
L 170.347353 353.21402 
L 176.205742 352.253716 
L 182.064132 352.895564 
L 187.922521 352.433082 
L 193.78091 352.753437 
L 199.639299 352.422443 
L 205.497689 349.42562 
L 211.356078 350.08305 
L 217.214467 351.387654 
L 228.931246 350.867407 
L 234.789635 350.973431 
L 252.364803 350.303841 
L 264.081581 350.081906 
L 269.939971 350.163992 
L 275.79836 349.766112 
L 281.656749 349.968283 
L 310.948695 349.678709 
L 316.807085 349.735333 
L 322.665474 349.616006 
L 340.240642 349.541901 
L 363.674199 349.434357 
L 369.532588 349.281211 
L 375.390977 349.477677 
L 381.249367 349.470841 
L 387.107756 349.345816 
L 404.682924 349.356455 
L 416.399702 349.359495 
L 422.258091 349.46438 
L 428.116481 349.397499 
L 433.97487 349.462478 
L 439.833259 349.406993 
L 457.408427 349.478059 
L 486.700373 349.370897 
L 515.99232 349.470841 
L 551.142655 349.28235 
L 557.001044 349.306293 
L 562.859434 349.178603 
L 574.576212 349.296029 
L 592.15138 349.270947 
L 609.726548 349.241688 
L 615.584937 349.419534 
L 627.301716 349.276652 
L 668.31044 349.283869 
L 680.027219 349.236747 
L 697.602387 349.227246 
L 715.177555 349.044077 
L 721.035944 349.21281 
L 756.186279 349.193427 
L 762.044669 349.253847 
L 767.903058 349.08968 
L 785.478226 349.288811 
L 808.911783 349.265249 
L 826.486951 349.209764 
L 832.34534 348.941475 
L 838.203729 349.229529 
L 855.778897 349.152002 
L 861.637286 348.985177 
L 867.495675 349.116663 
L 885.070843 349.057381 
L 890.929232 349.131862 
L 902.646011 349.155423 
L 920.221179 349.286528 
L 943.654736 349.300588 
L 949.513125 349.256512 
L 949.513125 349.256512 
" style="fill:none;stroke:#90ed7d;stroke-linecap:square;"/>
   </g>
   <g id="line2d_40">
    <path clip-path="url(#p3f7adde1e2)" d="M 76.613125 324.386047 
L 82.471514 353.217692 
L 105.905071 353.21714 
L 111.763461 352.816672 
L 117.62185 353.175204 
L 158.630575 353.207208 
L 164.488964 350.073403 
L 170.347353 353.214795 
L 176.205742 352.25715 
L 182.064132 352.895166 
L 187.922521 352.435931 
L 193.78091 352.771977 
L 199.639299 352.422964 
L 205.497689 349.423794 
L 211.356078 350.115203 
L 217.214467 351.414414 
L 228.931246 350.885786 
L 234.789635 350.987873 
L 252.364803 350.297157 
L 264.081581 350.092163 
L 269.939971 350.170517 
L 275.79836 349.757775 
L 281.656749 349.97587 
L 334.382253 349.587268 
L 363.674199 349.452354 
L 369.532588 349.287501 
L 375.390977 349.493321 
L 439.833259 349.411241 
L 451.550038 349.483528 
L 480.841984 349.430834 
L 492.558763 349.411108 
L 521.850709 349.429454 
L 598.009769 349.260327 
L 621.443326 349.322127 
L 639.018494 349.295914 
L 668.31044 349.292741 
L 680.027219 349.22846 
L 697.602387 349.226387 
L 715.177555 349.0334 
L 721.035944 349.207767 
L 738.611112 349.195354 
L 779.619836 349.222801 
L 791.336615 349.257841 
L 826.486951 349.198107 
L 832.34534 348.936693 
L 838.203729 349.219494 
L 855.778897 349.136587 
L 861.637286 348.997806 
L 867.495675 349.10734 
L 873.354065 349.064853 
L 879.212454 348.908139 
L 890.929232 349.135207 
L 902.646011 349.149553 
L 926.079568 349.311507 
L 949.513125 349.253841 
L 949.513125 349.253841 
" style="fill:none;stroke:#f7a35c;stroke-linecap:square;"/>
   </g>
   <g id="line2d_41">
    <path clip-path="url(#p3f7adde1e2)" d="M 76.613125 340.688012 
L 82.471514 353.221069 
L 105.905071 353.220239 
L 111.763461 352.792299 
L 117.62185 353.178407 
L 158.630575 353.212893 
L 164.488964 349.807283 
L 170.347353 353.218555 
L 176.205742 352.174943 
L 182.064132 352.903201 
L 187.922521 352.364725 
L 193.78091 352.725108 
L 199.639299 352.372973 
L 205.497689 349.121858 
L 211.356078 349.864129 
L 217.214467 351.284499 
L 228.931246 350.713733 
L 234.789635 350.830129 
L 252.364803 350.094351 
L 264.081581 349.877891 
L 269.939971 349.952111 
L 275.79836 349.500984 
L 281.656749 349.736847 
L 334.382253 349.319081 
L 363.674199 349.17045 
L 369.532588 348.99214 
L 375.390977 349.230807 
L 381.249367 349.225147 
L 387.107756 349.092739 
L 480.841984 349.153878 
L 492.558763 349.143576 
L 527.709098 349.128421 
L 533.567487 349.034214 
L 539.425877 349.074265 
L 551.142655 348.997654 
L 557.001044 349.013247 
L 562.859434 348.898467 
L 574.576212 349.019085 
L 580.434602 349.039244 
L 586.292991 348.940203 
L 603.868159 349.006779 
L 609.726548 348.951377 
L 615.584937 349.118583 
L 627.301716 349.004999 
L 709.319165 348.895096 
L 715.177555 348.733187 
L 721.035944 348.912426 
L 738.611112 348.892489 
L 762.044669 348.945641 
L 767.903058 348.762548 
L 779.619836 348.930779 
L 785.478226 349.005342 
L 803.053393 348.994112 
L 826.486951 348.895974 
L 832.34534 348.62841 
L 838.203729 348.928292 
L 849.920508 348.904152 
L 867.495675 348.797302 
L 873.354065 348.759985 
L 879.212454 348.58455 
L 885.070843 348.770014 
L 908.5044 348.920356 
L 949.513125 348.958824 
L 949.513125 348.958824 
" style="fill:none;stroke:#8085e9;stroke-linecap:square;"/>
   </g>
   <g id="line2d_42">
    <path clip-path="url(#p3f7adde1e2)" d="M 76.613125 321.415526 
L 82.471514 353.216994 
L 105.905071 353.216227 
L 111.763461 352.801886 
L 117.62185 353.174793 
L 158.630575 353.204718 
L 164.488964 350.011603 
L 170.347353 353.212774 
L 176.205742 352.254034 
L 182.064132 352.920817 
L 187.922521 352.431282 
L 193.78091 352.778483 
L 199.639299 352.465425 
L 205.497689 349.441887 
L 211.356078 350.182326 
L 217.214467 351.507452 
L 223.072857 351.284937 
L 228.931246 350.929297 
L 234.789635 351.079683 
L 252.364803 350.402544 
L 264.081581 350.170434 
L 269.939971 350.258677 
L 275.79836 349.827455 
L 281.656749 350.045365 
L 369.532588 349.371292 
L 375.390977 349.578079 
L 416.399702 349.446873 
L 422.258091 349.543936 
L 428.116481 349.475649 
L 445.691648 349.554676 
L 557.001044 349.378198 
L 562.859434 349.27538 
L 574.576212 349.373212 
L 627.301716 349.356716 
L 709.319165 349.267329 
L 715.177555 349.113483 
L 721.035944 349.2773 
L 750.32789 349.220518 
L 762.044669 349.325638 
L 767.903058 349.132281 
L 779.619836 349.301084 
L 791.336615 349.341752 
L 826.486951 349.281523 
L 832.34534 349.010283 
L 838.203729 349.300321 
L 855.778897 349.227812 
L 861.637286 349.080103 
L 867.495675 349.189064 
L 873.354065 349.151461 
L 879.212454 348.971917 
L 890.929232 349.204021 
L 902.646011 349.229344 
L 920.221179 349.366694 
L 949.513125 349.338299 
L 949.513125 349.338299 
" style="fill:none;stroke:#f15c80;stroke-linecap:square;"/>
   </g>
   <g id="line2d_43">
    <path clip-path="url(#p3f7adde1e2)" d="M 76.613125 331.540772 
L 82.471514 353.219641 
L 105.905071 353.219772 
L 111.763461 352.797811 
L 117.62185 353.180197 
L 158.630575 353.211713 
L 164.488964 349.935291 
L 170.347353 353.215906 
L 176.205742 352.212768 
L 182.064132 352.900222 
L 187.922521 352.395046 
L 193.78091 352.74618 
L 199.639299 352.395574 
L 205.497689 349.267361 
L 211.356078 349.991768 
L 217.214467 351.365568 
L 228.931246 350.809353 
L 234.789635 350.921856 
L 252.364803 350.206619 
L 264.081581 349.994458 
L 269.939971 350.073212 
L 275.79836 349.632909 
L 281.656749 349.865249 
L 334.382253 349.465696 
L 363.674199 349.323711 
L 369.532588 349.155976 
L 375.390977 349.377963 
L 381.249367 349.362757 
L 387.107756 349.232111 
L 457.408427 349.362567 
L 492.558763 349.286165 
L 527.709098 349.274699 
L 533.567487 349.189522 
L 545.284266 349.158794 
L 609.726548 349.104014 
L 615.584937 349.259698 
L 627.301716 349.150991 
L 709.319165 349.052255 
L 715.177555 348.90758 
L 721.035944 349.068701 
L 738.611112 349.051925 
L 762.044669 349.103098 
L 767.903058 348.92606 
L 779.619836 349.093267 
L 791.336615 349.112529 
L 826.486951 349.050417 
L 832.34534 348.780863 
L 838.203729 349.076427 
L 855.778897 348.992433 
L 861.637286 348.868724 
L 867.495675 348.953513 
L 873.354065 348.92606 
L 879.212454 348.753995 
L 885.070843 348.937984 
L 908.5044 349.068243 
L 949.513125 349.109712 
L 949.513125 349.109712 
" style="fill:none;stroke:#e4d354;stroke-linecap:square;"/>
   </g>
   <g id="line2d_44">
    <path clip-path="url(#p3f7adde1e2)" d="M 76.613125 299.222695 
L 82.471514 353.214096 
L 105.905071 353.214096 
L 111.763461 352.906484 
L 117.62185 353.178555 
L 158.630575 353.210419 
L 164.488964 350.376961 
L 170.347353 353.210419 
L 176.205742 352.385628 
L 182.064132 352.880748 
L 187.922521 352.548625 
L 193.78091 352.807215 
L 199.639299 352.464065 
L 205.497689 349.814437 
L 211.356078 350.467652 
L 217.214467 351.570638 
L 228.931246 351.200523 
L 234.789635 351.251996 
L 240.648024 350.97993 
L 264.081581 350.428433 
L 269.939971 350.524027 
L 275.79836 350.200482 
L 281.656749 350.356128 
L 316.807085 350.162491 
L 328.523863 350.053416 
L 369.532588 349.761737 
L 375.390977 349.945567 
L 416.399702 349.84507 
L 422.258091 349.924734 
L 428.116481 349.851201 
L 451.550038 349.927182 
L 474.983595 349.900225 
L 504.275541 349.89777 
L 557.001044 349.780122 
L 562.859434 349.668592 
L 574.576212 349.76664 
L 668.31044 349.789922 
L 674.16883 349.674722 
L 697.602387 349.728649 
L 715.177555 349.52398 
L 721.035944 349.689431 
L 756.186279 349.667371 
L 762.044669 349.737228 
L 767.903058 349.586486 
L 785.478226 349.767861 
L 826.486951 349.69801 
L 832.34534 349.494568 
L 838.203729 349.71394 
L 855.778897 349.653889 
L 861.637286 349.512953 
L 867.495675 349.599961 
L 885.070843 349.544813 
L 890.929232 349.628153 
L 896.787622 349.558295 
L 920.221179 349.77644 
L 943.654736 349.789922 
L 949.513125 349.750704 
L 949.513125 349.750704 
" style="fill:none;stroke:#2b908f;stroke-linecap:square;"/>
   </g>
   <g id="line2d_45">
    <path clip-path="url(#p3f7adde1e2)" d="M 76.613125 326.448959 
L 82.471514 353.217888 
L 105.905071 353.21909 
L 111.763461 352.824862 
L 117.62185 353.175054 
L 158.630575 353.20857 
L 164.488964 350.038058 
L 170.347353 353.216085 
L 176.205742 352.252832 
L 182.064132 352.896854 
L 187.922521 352.433336 
L 193.78091 352.75843 
L 199.639299 352.414252 
L 205.497689 349.40651 
L 211.356078 350.095623 
L 217.214467 351.403807 
L 228.931246 350.889939 
L 234.789635 350.991542 
L 252.364803 350.301679 
L 264.081581 350.089607 
L 269.939971 350.164456 
L 275.79836 349.765572 
L 281.656749 349.965014 
L 351.95742 349.501499 
L 363.674199 349.444532 
L 369.532588 349.302356 
L 375.390977 349.487668 
L 381.249367 349.475343 
L 387.107756 349.346992 
L 433.97487 349.44604 
L 445.691648 349.465575 
L 480.841984 349.420939 
L 492.558763 349.398096 
L 521.850709 349.419585 
L 598.009769 349.257268 
L 621.443326 349.313027 
L 639.018494 349.285218 
L 697.602387 349.226152 
L 715.177555 349.046697 
L 721.035944 349.198349 
L 738.611112 349.1737 
L 762.044669 349.229459 
L 767.903058 349.055867 
L 779.619836 349.213077 
L 791.336615 349.247494 
L 826.486951 349.18542 
L 832.34534 348.928267 
L 838.203729 349.202253 
L 855.778897 349.123048 
L 861.637286 349.013336 
L 873.354065 349.056917 
L 879.212454 348.892794 
L 885.070843 349.076758 
L 926.079568 349.302655 
L 949.513125 349.231265 
L 949.513125 349.231265 
" style="fill:none;stroke:#f45b5b;stroke-linecap:square;"/>
   </g>
   <g id="line2d_46">
    <path clip-path="url(#p3f7adde1e2)" d="M 76.613125 326.708485 
L 82.471514 353.217111 
L 105.905071 353.218081 
L 111.763461 352.818502 
L 117.62185 353.175084 
L 158.630575 353.209676 
L 164.488964 350.100653 
L 170.347353 353.216464 
L 176.205742 352.257602 
L 182.064132 352.892534 
L 187.922521 352.425063 
L 193.78091 352.754168 
L 199.639299 352.395326 
L 205.497689 349.39816 
L 211.356078 350.072208 
L 217.214467 351.353701 
L 228.931246 350.824488 
L 234.789635 350.917271 
L 252.364803 350.209602 
L 264.081581 349.994293 
L 269.939971 350.06768 
L 275.79836 349.671333 
L 281.656749 349.881147 
L 369.532588 349.185757 
L 375.390977 349.395572 
L 381.249367 349.38167 
L 387.107756 349.249122 
L 404.682924 349.261408 
L 416.399702 349.2682 
L 422.258091 349.37456 
L 433.97487 349.355482 
L 451.550038 349.377142 
L 480.841984 349.326712 
L 492.558763 349.310223 
L 521.850709 349.332207 
L 574.576212 349.199017 
L 603.868159 349.192225 
L 609.726548 349.137916 
L 615.584937 349.281453 
L 627.301716 349.170889 
L 668.31044 349.18867 
L 680.027219 349.110761 
L 697.602387 349.127893 
L 715.177555 348.946531 
L 721.035944 349.097178 
L 750.32789 349.038341 
L 762.044669 349.136943 
L 767.903058 348.97401 
L 785.478226 349.187379 
L 797.195004 349.138558 
L 808.911783 349.16184 
L 826.486951 349.085216 
L 832.34534 348.840171 
L 838.203729 349.116898 
L 855.778897 349.032846 
L 861.637286 348.902887 
L 873.354065 348.961075 
L 879.212454 348.818186 
L 890.929232 349.035435 
L 902.646011 349.050627 
L 931.937957 349.190285 
L 949.513125 349.146965 
L 949.513125 349.146965 
" style="fill:none;stroke:#91e8e1;stroke-linecap:square;"/>
   </g>
   <g id="line2d_47">
    <path clip-path="url(#p3f7adde1e2)" d="M 32.968125 353.2239 
L 993.158125 353.2239 
" style="fill:none;stroke:#dedede;stroke-linecap:square;stroke-width:2;"/>
   </g>
   <g id="text_17">
    <!-- Fastp: Read N Content -->
    <defs>
     <path d="M 9.8125 72.90625 
L 51.703125 72.90625 
L 51.703125 64.59375 
L 19.671875 64.59375 
L 19.671875 43.109375 
L 48.578125 43.109375 
L 48.578125 34.8125 
L 19.671875 34.8125 
L 19.671875 0 
L 9.8125 0 
z
" id="DejaVuSans-70"/>
     <path d="M 18.109375 8.203125 
L 18.109375 -20.796875 
L 9.078125 -20.796875 
L 9.078125 54.6875 
L 18.109375 54.6875 
L 18.109375 46.390625 
Q 20.953125 51.265625 25.265625 53.625 
Q 29.59375 56 35.59375 56 
Q 45.5625 56 51.78125 48.09375 
Q 58.015625 40.1875 58.015625 27.296875 
Q 58.015625 14.40625 51.78125 6.484375 
Q 45.5625 -1.421875 35.59375 -1.421875 
Q 29.59375 -1.421875 25.265625 0.953125 
Q 20.953125 3.328125 18.109375 8.203125 
z
M 48.6875 27.296875 
Q 48.6875 37.203125 44.609375 42.84375 
Q 40.53125 48.484375 33.40625 48.484375 
Q 26.265625 48.484375 22.1875 42.84375 
Q 18.109375 37.203125 18.109375 27.296875 
Q 18.109375 17.390625 22.1875 11.75 
Q 26.265625 6.109375 33.40625 6.109375 
Q 40.53125 6.109375 44.609375 11.75 
Q 48.6875 17.390625 48.6875 27.296875 
z
" id="DejaVuSans-112"/>
     <path d="M 9.8125 72.90625 
L 23.09375 72.90625 
L 55.421875 11.921875 
L 55.421875 72.90625 
L 64.984375 72.90625 
L 64.984375 0 
L 51.703125 0 
L 19.390625 60.984375 
L 19.390625 0 
L 9.8125 0 
z
" id="DejaVuSans-78"/>
    </defs>
    <g transform="translate(422.606875 19.3575)scale(0.16 -0.16)">
     <use xlink:href="#DejaVuSans-70"/>
     <use x="57.378906" xlink:href="#DejaVuSans-97"/>
     <use x="118.658203" xlink:href="#DejaVuSans-115"/>
     <use x="170.757812" xlink:href="#DejaVuSans-116"/>
     <use x="209.966797" xlink:href="#DejaVuSans-112"/>
     <use x="273.443359" xlink:href="#DejaVuSans-58"/>
     <use x="307.134766" xlink:href="#DejaVuSans-32"/>
     <use x="338.921875" xlink:href="#DejaVuSans-82"/>
     <use x="408.341797" xlink:href="#DejaVuSans-101"/>
     <use x="469.865234" xlink:href="#DejaVuSans-97"/>
     <use x="531.144531" xlink:href="#DejaVuSans-100"/>
     <use x="594.621094" xlink:href="#DejaVuSans-32"/>
     <use x="626.408203" xlink:href="#DejaVuSans-78"/>
     <use x="701.212891" xlink:href="#DejaVuSans-32"/>
     <use x="733" xlink:href="#DejaVuSans-67"/>
     <use x="802.824219" xlink:href="#DejaVuSans-111"/>
     <use x="864.005859" xlink:href="#DejaVuSans-110"/>
     <use x="927.384766" xlink:href="#DejaVuSans-116"/>
     <use x="966.59375" xlink:href="#DejaVuSans-101"/>
     <use x="1028.117188" xlink:href="#DejaVuSans-110"/>
     <use x="1091.496094" xlink:href="#DejaVuSans-116"/>
    </g>
   </g>
  </g>
 </g>
 <defs>
  <clipPath id="p3f7adde1e2">
   <rect height="317.968" width="960.19" x="32.968125" y="35.2559"/>
  </clipPath>
 </defs>
</svg>
