<?xml version="1.0" encoding="utf-8" standalone="no"?>
<!DOCTYPE svg PUBLIC "-//W3C//DTD SVG 1.1//EN"
  "http://www.w3.org/Graphics/SVG/1.1/DTD/svg11.dtd">
<!-- Created with matplotlib (https://matplotlib.org/) -->
<svg height="388.844525pt" version="1.1" viewBox="0 0 1000.358125 388.844525" width="1000.358125pt" xmlns="http://www.w3.org/2000/svg" xmlns:xlink="http://www.w3.org/1999/xlink">
 <defs>
  <style type="text/css">
*{stroke-linecap:butt;stroke-linejoin:round;}
  </style>
 </defs>
 <g id="figure_1">
  <g id="axes_1">
   <g id="patch_1">
    <path d="M 32.968125 353.2239 
L 993.158125 353.2239 
L 993.158125 35.2559 
L 32.968125 35.2559 
z
" style="fill:#ffffff;"/>
   </g>
   <g id="matplotlib.axis_1">
    <g id="xtick_1">
     <g id="text_1">
      <!-- 0 -->
      <defs>
       <path d="M 31.78125 66.40625 
Q 24.171875 66.40625 20.328125 58.90625 
Q 16.5 51.421875 16.5 36.375 
Q 16.5 21.390625 20.328125 13.890625 
Q 24.171875 6.390625 31.78125 6.390625 
Q 39.453125 6.390625 43.28125 13.890625 
Q 47.125 21.390625 47.125 36.375 
Q 47.125 51.421875 43.28125 58.90625 
Q 39.453125 66.40625 31.78125 66.40625 
z
M 31.78125 74.21875 
Q 44.046875 74.21875 50.515625 64.515625 
Q 56.984375 54.828125 56.984375 36.375 
Q 56.984375 17.96875 50.515625 8.265625 
Q 44.046875 -1.421875 31.78125 -1.421875 
Q 19.53125 -1.421875 13.0625 8.265625 
Q 6.59375 17.96875 6.59375 36.375 
Q 6.59375 54.828125 13.0625 64.515625 
Q 19.53125 74.21875 31.78125 74.21875 
z
" id="DejaVuSans-48"/>
      </defs>
      <g transform="translate(68.209736 366.30265)scale(0.08 -0.08)">
       <use xlink:href="#DejaVuSans-48"/>
      </g>
     </g>
    </g>
    <g id="xtick_2">
     <g id="text_2">
      <!-- 20 -->
      <defs>
       <path d="M 19.1875 8.296875 
L 53.609375 8.296875 
L 53.609375 0 
L 7.328125 0 
L 7.328125 8.296875 
Q 12.9375 14.109375 22.625 23.890625 
Q 32.328125 33.6875 34.8125 36.53125 
Q 39.546875 41.84375 41.421875 45.53125 
Q 43.3125 49.21875 43.3125 52.78125 
Q 43.3125 58.59375 39.234375 62.25 
Q 35.15625 65.921875 28.609375 65.921875 
Q 23.96875 65.921875 18.8125 64.3125 
Q 13.671875 62.703125 7.8125 59.421875 
L 7.8125 69.390625 
Q 13.765625 71.78125 18.9375 73 
Q 24.125 74.21875 28.421875 74.21875 
Q 39.75 74.21875 46.484375 68.546875 
Q 53.21875 62.890625 53.21875 53.421875 
Q 53.21875 48.921875 51.53125 44.890625 
Q 49.859375 40.875 45.40625 35.40625 
Q 44.1875 33.984375 37.640625 27.21875 
Q 31.109375 20.453125 19.1875 8.296875 
z
" id="DejaVuSans-50"/>
      </defs>
      <g transform="translate(182.832521 366.30265)scale(0.08 -0.08)">
       <use xlink:href="#DejaVuSans-50"/>
       <use x="63.623047" xlink:href="#DejaVuSans-48"/>
      </g>
     </g>
    </g>
    <g id="xtick_3">
     <g id="text_3">
      <!-- 40 -->
      <defs>
       <path d="M 37.796875 64.3125 
L 12.890625 25.390625 
L 37.796875 25.390625 
z
M 35.203125 72.90625 
L 47.609375 72.90625 
L 47.609375 25.390625 
L 58.015625 25.390625 
L 58.015625 17.1875 
L 47.609375 17.1875 
L 47.609375 0 
L 37.796875 0 
L 37.796875 17.1875 
L 4.890625 17.1875 
L 4.890625 26.703125 
z
" id="DejaVuSans-52"/>
      </defs>
      <g transform="translate(300.000306 366.30265)scale(0.08 -0.08)">
       <use xlink:href="#DejaVuSans-52"/>
       <use x="63.623047" xlink:href="#DejaVuSans-48"/>
      </g>
     </g>
    </g>
    <g id="xtick_4">
     <g id="text_4">
      <!-- 60 -->
      <defs>
       <path d="M 33.015625 40.375 
Q 26.375 40.375 22.484375 35.828125 
Q 18.609375 31.296875 18.609375 23.390625 
Q 18.609375 15.53125 22.484375 10.953125 
Q 26.375 6.390625 33.015625 6.390625 
Q 39.65625 6.390625 43.53125 10.953125 
Q 47.40625 15.53125 47.40625 23.390625 
Q 47.40625 31.296875 43.53125 35.828125 
Q 39.65625 40.375 33.015625 40.375 
z
M 52.59375 71.296875 
L 52.59375 62.3125 
Q 48.875 64.0625 45.09375 64.984375 
Q 41.3125 65.921875 37.59375 65.921875 
Q 27.828125 65.921875 22.671875 59.328125 
Q 17.53125 52.734375 16.796875 39.40625 
Q 19.671875 43.65625 24.015625 45.921875 
Q 28.375 48.1875 33.59375 48.1875 
Q 44.578125 48.1875 50.953125 41.515625 
Q 57.328125 34.859375 57.328125 23.390625 
Q 57.328125 12.15625 50.6875 5.359375 
Q 44.046875 -1.421875 33.015625 -1.421875 
Q 20.359375 -1.421875 13.671875 8.265625 
Q 6.984375 17.96875 6.984375 36.375 
Q 6.984375 53.65625 15.1875 63.9375 
Q 23.390625 74.21875 37.203125 74.21875 
Q 40.921875 74.21875 44.703125 73.484375 
Q 48.484375 72.75 52.59375 71.296875 
z
" id="DejaVuSans-54"/>
      </defs>
      <g transform="translate(417.168091 366.30265)scale(0.08 -0.08)">
       <use xlink:href="#DejaVuSans-54"/>
       <use x="63.623047" xlink:href="#DejaVuSans-48"/>
      </g>
     </g>
    </g>
    <g id="xtick_5">
     <g id="text_5">
      <!-- 80 -->
      <defs>
       <path d="M 31.78125 34.625 
Q 24.75 34.625 20.71875 30.859375 
Q 16.703125 27.09375 16.703125 20.515625 
Q 16.703125 13.921875 20.71875 10.15625 
Q 24.75 6.390625 31.78125 6.390625 
Q 38.8125 6.390625 42.859375 10.171875 
Q 46.921875 13.96875 46.921875 20.515625 
Q 46.921875 27.09375 42.890625 30.859375 
Q 38.875 34.625 31.78125 34.625 
z
M 21.921875 38.8125 
Q 15.578125 40.375 12.03125 44.71875 
Q 8.5 49.078125 8.5 55.328125 
Q 8.5 64.0625 14.71875 69.140625 
Q 20.953125 74.21875 31.78125 74.21875 
Q 42.671875 74.21875 48.875 69.140625 
Q 55.078125 64.0625 55.078125 55.328125 
Q 55.078125 49.078125 51.53125 44.71875 
Q 48 40.375 41.703125 38.8125 
Q 48.828125 37.15625 52.796875 32.3125 
Q 56.78125 27.484375 56.78125 20.515625 
Q 56.78125 9.90625 50.3125 4.234375 
Q 43.84375 -1.421875 31.78125 -1.421875 
Q 19.734375 -1.421875 13.25 4.234375 
Q 6.78125 9.90625 6.78125 20.515625 
Q 6.78125 27.484375 10.78125 32.3125 
Q 14.796875 37.15625 21.921875 38.8125 
z
M 18.3125 54.390625 
Q 18.3125 48.734375 21.84375 45.5625 
Q 25.390625 42.390625 31.78125 42.390625 
Q 38.140625 42.390625 41.71875 45.5625 
Q 45.3125 48.734375 45.3125 54.390625 
Q 45.3125 60.0625 41.71875 63.234375 
Q 38.140625 66.40625 31.78125 66.40625 
Q 25.390625 66.40625 21.84375 63.234375 
Q 18.3125 60.0625 18.3125 54.390625 
z
" id="DejaVuSans-56"/>
      </defs>
      <g transform="translate(534.335877 366.30265)scale(0.08 -0.08)">
       <use xlink:href="#DejaVuSans-56"/>
       <use x="63.623047" xlink:href="#DejaVuSans-48"/>
      </g>
     </g>
    </g>
    <g id="xtick_6">
     <g id="text_6">
      <!-- 100 -->
      <defs>
       <path d="M 12.40625 8.296875 
L 28.515625 8.296875 
L 28.515625 63.921875 
L 10.984375 60.40625 
L 10.984375 69.390625 
L 28.421875 72.90625 
L 38.28125 72.90625 
L 38.28125 8.296875 
L 54.390625 8.296875 
L 54.390625 0 
L 12.40625 0 
z
" id="DejaVuSans-49"/>
      </defs>
      <g transform="translate(648.958662 366.30265)scale(0.08 -0.08)">
       <use xlink:href="#DejaVuSans-49"/>
       <use x="63.623047" xlink:href="#DejaVuSans-48"/>
       <use x="127.246094" xlink:href="#DejaVuSans-48"/>
      </g>
     </g>
    </g>
    <g id="xtick_7">
     <g id="text_7">
      <!-- 120 -->
      <g transform="translate(766.126447 366.30265)scale(0.08 -0.08)">
       <use xlink:href="#DejaVuSans-49"/>
       <use x="63.623047" xlink:href="#DejaVuSans-50"/>
       <use x="127.246094" xlink:href="#DejaVuSans-48"/>
      </g>
     </g>
    </g>
    <g id="xtick_8">
     <g id="text_8">
      <!-- 140 -->
      <g transform="translate(883.294232 366.30265)scale(0.08 -0.08)">
       <use xlink:href="#DejaVuSans-49"/>
       <use x="63.623047" xlink:href="#DejaVuSans-52"/>
       <use x="127.246094" xlink:href="#DejaVuSans-48"/>
      </g>
     </g>
    </g>
    <g id="text_9">
     <!-- Read Position -->
     <defs>
      <path d="M 44.390625 34.1875 
Q 47.5625 33.109375 50.5625 29.59375 
Q 53.5625 26.078125 56.59375 19.921875 
L 66.609375 0 
L 56 0 
L 46.6875 18.703125 
Q 43.0625 26.03125 39.671875 28.421875 
Q 36.28125 30.8125 30.421875 30.8125 
L 19.671875 30.8125 
L 19.671875 0 
L 9.8125 0 
L 9.8125 72.90625 
L 32.078125 72.90625 
Q 44.578125 72.90625 50.734375 67.671875 
Q 56.890625 62.453125 56.890625 51.90625 
Q 56.890625 45.015625 53.6875 40.46875 
Q 50.484375 35.9375 44.390625 34.1875 
z
M 19.671875 64.796875 
L 19.671875 38.921875 
L 32.078125 38.921875 
Q 39.203125 38.921875 42.84375 42.21875 
Q 46.484375 45.515625 46.484375 51.90625 
Q 46.484375 58.296875 42.84375 61.546875 
Q 39.203125 64.796875 32.078125 64.796875 
z
" id="DejaVuSans-82"/>
      <path d="M 56.203125 29.59375 
L 56.203125 25.203125 
L 14.890625 25.203125 
Q 15.484375 15.921875 20.484375 11.0625 
Q 25.484375 6.203125 34.421875 6.203125 
Q 39.59375 6.203125 44.453125 7.46875 
Q 49.3125 8.734375 54.109375 11.28125 
L 54.109375 2.78125 
Q 49.265625 0.734375 44.1875 -0.34375 
Q 39.109375 -1.421875 33.890625 -1.421875 
Q 20.796875 -1.421875 13.15625 6.1875 
Q 5.515625 13.8125 5.515625 26.8125 
Q 5.515625 40.234375 12.765625 48.109375 
Q 20.015625 56 32.328125 56 
Q 43.359375 56 49.78125 48.890625 
Q 56.203125 41.796875 56.203125 29.59375 
z
M 47.21875 32.234375 
Q 47.125 39.59375 43.09375 43.984375 
Q 39.0625 48.390625 32.421875 48.390625 
Q 24.90625 48.390625 20.390625 44.140625 
Q 15.875 39.890625 15.1875 32.171875 
z
" id="DejaVuSans-101"/>
      <path d="M 34.28125 27.484375 
Q 23.390625 27.484375 19.1875 25 
Q 14.984375 22.515625 14.984375 16.5 
Q 14.984375 11.71875 18.140625 8.90625 
Q 21.296875 6.109375 26.703125 6.109375 
Q 34.1875 6.109375 38.703125 11.40625 
Q 43.21875 16.703125 43.21875 25.484375 
L 43.21875 27.484375 
z
M 52.203125 31.203125 
L 52.203125 0 
L 43.21875 0 
L 43.21875 8.296875 
Q 40.140625 3.328125 35.546875 0.953125 
Q 30.953125 -1.421875 24.3125 -1.421875 
Q 15.921875 -1.421875 10.953125 3.296875 
Q 6 8.015625 6 15.921875 
Q 6 25.140625 12.171875 29.828125 
Q 18.359375 34.515625 30.609375 34.515625 
L 43.21875 34.515625 
L 43.21875 35.40625 
Q 43.21875 41.609375 39.140625 45 
Q 35.0625 48.390625 27.6875 48.390625 
Q 23 48.390625 18.546875 47.265625 
Q 14.109375 46.140625 10.015625 43.890625 
L 10.015625 52.203125 
Q 14.9375 54.109375 19.578125 55.046875 
Q 24.21875 56 28.609375 56 
Q 40.484375 56 46.34375 49.84375 
Q 52.203125 43.703125 52.203125 31.203125 
z
" id="DejaVuSans-97"/>
      <path d="M 45.40625 46.390625 
L 45.40625 75.984375 
L 54.390625 75.984375 
L 54.390625 0 
L 45.40625 0 
L 45.40625 8.203125 
Q 42.578125 3.328125 38.25 0.953125 
Q 33.9375 -1.421875 27.875 -1.421875 
Q 17.96875 -1.421875 11.734375 6.484375 
Q 5.515625 14.40625 5.515625 27.296875 
Q 5.515625 40.1875 11.734375 48.09375 
Q 17.96875 56 27.875 56 
Q 33.9375 56 38.25 53.625 
Q 42.578125 51.265625 45.40625 46.390625 
z
M 14.796875 27.296875 
Q 14.796875 17.390625 18.875 11.75 
Q 22.953125 6.109375 30.078125 6.109375 
Q 37.203125 6.109375 41.296875 11.75 
Q 45.40625 17.390625 45.40625 27.296875 
Q 45.40625 37.203125 41.296875 42.84375 
Q 37.203125 48.484375 30.078125 48.484375 
Q 22.953125 48.484375 18.875 42.84375 
Q 14.796875 37.203125 14.796875 27.296875 
z
" id="DejaVuSans-100"/>
      <path id="DejaVuSans-32"/>
      <path d="M 19.671875 64.796875 
L 19.671875 37.40625 
L 32.078125 37.40625 
Q 38.96875 37.40625 42.71875 40.96875 
Q 46.484375 44.53125 46.484375 51.125 
Q 46.484375 57.671875 42.71875 61.234375 
Q 38.96875 64.796875 32.078125 64.796875 
z
M 9.8125 72.90625 
L 32.078125 72.90625 
Q 44.34375 72.90625 50.609375 67.359375 
Q 56.890625 61.8125 56.890625 51.125 
Q 56.890625 40.328125 50.609375 34.8125 
Q 44.34375 29.296875 32.078125 29.296875 
L 19.671875 29.296875 
L 19.671875 0 
L 9.8125 0 
z
" id="DejaVuSans-80"/>
      <path d="M 30.609375 48.390625 
Q 23.390625 48.390625 19.1875 42.75 
Q 14.984375 37.109375 14.984375 27.296875 
Q 14.984375 17.484375 19.15625 11.84375 
Q 23.34375 6.203125 30.609375 6.203125 
Q 37.796875 6.203125 41.984375 11.859375 
Q 46.1875 17.53125 46.1875 27.296875 
Q 46.1875 37.015625 41.984375 42.703125 
Q 37.796875 48.390625 30.609375 48.390625 
z
M 30.609375 56 
Q 42.328125 56 49.015625 48.375 
Q 55.71875 40.765625 55.71875 27.296875 
Q 55.71875 13.875 49.015625 6.21875 
Q 42.328125 -1.421875 30.609375 -1.421875 
Q 18.84375 -1.421875 12.171875 6.21875 
Q 5.515625 13.875 5.515625 27.296875 
Q 5.515625 40.765625 12.171875 48.375 
Q 18.84375 56 30.609375 56 
z
" id="DejaVuSans-111"/>
      <path d="M 44.28125 53.078125 
L 44.28125 44.578125 
Q 40.484375 46.53125 36.375 47.5 
Q 32.28125 48.484375 27.875 48.484375 
Q 21.1875 48.484375 17.84375 46.4375 
Q 14.5 44.390625 14.5 40.28125 
Q 14.5 37.15625 16.890625 35.375 
Q 19.28125 33.59375 26.515625 31.984375 
L 29.59375 31.296875 
Q 39.15625 29.25 43.1875 25.515625 
Q 47.21875 21.78125 47.21875 15.09375 
Q 47.21875 7.46875 41.1875 3.015625 
Q 35.15625 -1.421875 24.609375 -1.421875 
Q 20.21875 -1.421875 15.453125 -0.5625 
Q 10.6875 0.296875 5.421875 2 
L 5.421875 11.28125 
Q 10.40625 8.6875 15.234375 7.390625 
Q 20.0625 6.109375 24.8125 6.109375 
Q 31.15625 6.109375 34.5625 8.28125 
Q 37.984375 10.453125 37.984375 14.40625 
Q 37.984375 18.0625 35.515625 20.015625 
Q 33.0625 21.96875 24.703125 23.78125 
L 21.578125 24.515625 
Q 13.234375 26.265625 9.515625 29.90625 
Q 5.8125 33.546875 5.8125 39.890625 
Q 5.8125 47.609375 11.28125 51.796875 
Q 16.75 56 26.8125 56 
Q 31.78125 56 36.171875 55.265625 
Q 40.578125 54.546875 44.28125 53.078125 
z
" id="DejaVuSans-115"/>
      <path d="M 9.421875 54.6875 
L 18.40625 54.6875 
L 18.40625 0 
L 9.421875 0 
z
M 9.421875 75.984375 
L 18.40625 75.984375 
L 18.40625 64.59375 
L 9.421875 64.59375 
z
" id="DejaVuSans-105"/>
      <path d="M 18.3125 70.21875 
L 18.3125 54.6875 
L 36.8125 54.6875 
L 36.8125 47.703125 
L 18.3125 47.703125 
L 18.3125 18.015625 
Q 18.3125 11.328125 20.140625 9.421875 
Q 21.96875 7.515625 27.59375 7.515625 
L 36.8125 7.515625 
L 36.8125 0 
L 27.59375 0 
Q 17.1875 0 13.234375 3.875 
Q 9.28125 7.765625 9.28125 18.015625 
L 9.28125 47.703125 
L 2.6875 47.703125 
L 2.6875 54.6875 
L 9.28125 54.6875 
L 9.28125 70.21875 
z
" id="DejaVuSans-116"/>
      <path d="M 54.890625 33.015625 
L 54.890625 0 
L 45.90625 0 
L 45.90625 32.71875 
Q 45.90625 40.484375 42.875 44.328125 
Q 39.84375 48.1875 33.796875 48.1875 
Q 26.515625 48.1875 22.3125 43.546875 
Q 18.109375 38.921875 18.109375 30.90625 
L 18.109375 0 
L 9.078125 0 
L 9.078125 54.6875 
L 18.109375 54.6875 
L 18.109375 46.1875 
Q 21.34375 51.125 25.703125 53.5625 
Q 30.078125 56 35.796875 56 
Q 45.21875 56 50.046875 50.171875 
Q 54.890625 44.34375 54.890625 33.015625 
z
" id="DejaVuSans-110"/>
     </defs>
     <g transform="translate(479.045156 379.564837)scale(0.1 -0.1)">
      <use xlink:href="#DejaVuSans-82"/>
      <use x="69.419922" xlink:href="#DejaVuSans-101"/>
      <use x="130.943359" xlink:href="#DejaVuSans-97"/>
      <use x="192.222656" xlink:href="#DejaVuSans-100"/>
      <use x="255.699219" xlink:href="#DejaVuSans-32"/>
      <use x="287.486328" xlink:href="#DejaVuSans-80"/>
      <use x="347.742188" xlink:href="#DejaVuSans-111"/>
      <use x="408.923828" xlink:href="#DejaVuSans-115"/>
      <use x="461.023438" xlink:href="#DejaVuSans-105"/>
      <use x="488.806641" xlink:href="#DejaVuSans-116"/>
      <use x="528.015625" xlink:href="#DejaVuSans-105"/>
      <use x="555.798828" xlink:href="#DejaVuSans-111"/>
      <use x="616.980469" xlink:href="#DejaVuSans-110"/>
     </g>
    </g>
   </g>
   <g id="matplotlib.axis_2">
    <g id="ytick_1">
     <g id="line2d_1">
      <path clip-path="url(#p24b4d82244)" d="M 32.968125 353.2239 
L 993.158125 353.2239 
" style="fill:none;stroke:#dedede;stroke-linecap:square;"/>
     </g>
     <g id="text_10">
      <!-- 0 -->
      <g transform="translate(20.878125 356.263275)scale(0.08 -0.08)">
       <use xlink:href="#DejaVuSans-48"/>
      </g>
     </g>
    </g>
    <g id="ytick_2">
     <g id="line2d_2">
      <path clip-path="url(#p24b4d82244)" d="M 32.968125 289.6303 
L 993.158125 289.6303 
" style="fill:none;stroke:#dedede;stroke-linecap:square;"/>
     </g>
     <g id="text_11">
      <!-- 1 -->
      <g transform="translate(20.878125 292.669675)scale(0.08 -0.08)">
       <use xlink:href="#DejaVuSans-49"/>
      </g>
     </g>
    </g>
    <g id="ytick_3">
     <g id="line2d_3">
      <path clip-path="url(#p24b4d82244)" d="M 32.968125 226.0367 
L 993.158125 226.0367 
" style="fill:none;stroke:#dedede;stroke-linecap:square;"/>
     </g>
     <g id="text_12">
      <!-- 2 -->
      <g transform="translate(20.878125 229.076075)scale(0.08 -0.08)">
       <use xlink:href="#DejaVuSans-50"/>
      </g>
     </g>
    </g>
    <g id="ytick_4">
     <g id="line2d_4">
      <path clip-path="url(#p24b4d82244)" d="M 32.968125 162.4431 
L 993.158125 162.4431 
" style="fill:none;stroke:#dedede;stroke-linecap:square;"/>
     </g>
     <g id="text_13">
      <!-- 3 -->
      <defs>
       <path d="M 40.578125 39.3125 
Q 47.65625 37.796875 51.625 33 
Q 55.609375 28.21875 55.609375 21.1875 
Q 55.609375 10.40625 48.1875 4.484375 
Q 40.765625 -1.421875 27.09375 -1.421875 
Q 22.515625 -1.421875 17.65625 -0.515625 
Q 12.796875 0.390625 7.625 2.203125 
L 7.625 11.71875 
Q 11.71875 9.328125 16.59375 8.109375 
Q 21.484375 6.890625 26.8125 6.890625 
Q 36.078125 6.890625 40.9375 10.546875 
Q 45.796875 14.203125 45.796875 21.1875 
Q 45.796875 27.640625 41.28125 31.265625 
Q 36.765625 34.90625 28.71875 34.90625 
L 20.21875 34.90625 
L 20.21875 43.015625 
L 29.109375 43.015625 
Q 36.375 43.015625 40.234375 45.921875 
Q 44.09375 48.828125 44.09375 54.296875 
Q 44.09375 59.90625 40.109375 62.90625 
Q 36.140625 65.921875 28.71875 65.921875 
Q 24.65625 65.921875 20.015625 65.03125 
Q 15.375 64.15625 9.8125 62.3125 
L 9.8125 71.09375 
Q 15.4375 72.65625 20.34375 73.4375 
Q 25.25 74.21875 29.59375 74.21875 
Q 40.828125 74.21875 47.359375 69.109375 
Q 53.90625 64.015625 53.90625 55.328125 
Q 53.90625 49.265625 50.4375 45.09375 
Q 46.96875 40.921875 40.578125 39.3125 
z
" id="DejaVuSans-51"/>
      </defs>
      <g transform="translate(20.878125 165.482475)scale(0.08 -0.08)">
       <use xlink:href="#DejaVuSans-51"/>
      </g>
     </g>
    </g>
    <g id="ytick_5">
     <g id="line2d_5">
      <path clip-path="url(#p24b4d82244)" d="M 32.968125 98.8495 
L 993.158125 98.8495 
" style="fill:none;stroke:#dedede;stroke-linecap:square;"/>
     </g>
     <g id="text_14">
      <!-- 4 -->
      <g transform="translate(20.878125 101.888875)scale(0.08 -0.08)">
       <use xlink:href="#DejaVuSans-52"/>
      </g>
     </g>
    </g>
    <g id="ytick_6">
     <g id="line2d_6">
      <path clip-path="url(#p24b4d82244)" d="M 32.968125 35.2559 
L 993.158125 35.2559 
" style="fill:none;stroke:#dedede;stroke-linecap:square;"/>
     </g>
     <g id="text_15">
      <!-- 5 -->
      <defs>
       <path d="M 10.796875 72.90625 
L 49.515625 72.90625 
L 49.515625 64.59375 
L 19.828125 64.59375 
L 19.828125 46.734375 
Q 21.96875 47.46875 24.109375 47.828125 
Q 26.265625 48.1875 28.421875 48.1875 
Q 40.625 48.1875 47.75 41.5 
Q 54.890625 34.8125 54.890625 23.390625 
Q 54.890625 11.625 47.5625 5.09375 
Q 40.234375 -1.421875 26.90625 -1.421875 
Q 22.3125 -1.421875 17.546875 -0.640625 
Q 12.796875 0.140625 7.71875 1.703125 
L 7.71875 11.625 
Q 12.109375 9.234375 16.796875 8.0625 
Q 21.484375 6.890625 26.703125 6.890625 
Q 35.15625 6.890625 40.078125 11.328125 
Q 45.015625 15.765625 45.015625 23.390625 
Q 45.015625 31 40.078125 35.4375 
Q 35.15625 39.890625 26.703125 39.890625 
Q 22.75 39.890625 18.8125 39.015625 
Q 14.890625 38.140625 10.796875 36.28125 
z
" id="DejaVuSans-53"/>
      </defs>
      <g transform="translate(20.878125 38.295275)scale(0.08 -0.08)">
       <use xlink:href="#DejaVuSans-53"/>
      </g>
     </g>
    </g>
    <g id="text_16">
     <!-- R1 After filtering: Base Content Percent -->
     <defs>
      <path d="M 34.1875 63.1875 
L 20.796875 26.90625 
L 47.609375 26.90625 
z
M 28.609375 72.90625 
L 39.796875 72.90625 
L 67.578125 0 
L 57.328125 0 
L 50.6875 18.703125 
L 17.828125 18.703125 
L 11.1875 0 
L 0.78125 0 
z
" id="DejaVuSans-65"/>
      <path d="M 37.109375 75.984375 
L 37.109375 68.5 
L 28.515625 68.5 
Q 23.6875 68.5 21.796875 66.546875 
Q 19.921875 64.59375 19.921875 59.515625 
L 19.921875 54.6875 
L 34.71875 54.6875 
L 34.71875 47.703125 
L 19.921875 47.703125 
L 19.921875 0 
L 10.890625 0 
L 10.890625 47.703125 
L 2.296875 47.703125 
L 2.296875 54.6875 
L 10.890625 54.6875 
L 10.890625 58.5 
Q 10.890625 67.625 15.140625 71.796875 
Q 19.390625 75.984375 28.609375 75.984375 
z
" id="DejaVuSans-102"/>
      <path d="M 41.109375 46.296875 
Q 39.59375 47.171875 37.8125 47.578125 
Q 36.03125 48 33.890625 48 
Q 26.265625 48 22.1875 43.046875 
Q 18.109375 38.09375 18.109375 28.8125 
L 18.109375 0 
L 9.078125 0 
L 9.078125 54.6875 
L 18.109375 54.6875 
L 18.109375 46.1875 
Q 20.953125 51.171875 25.484375 53.578125 
Q 30.03125 56 36.53125 56 
Q 37.453125 56 38.578125 55.875 
Q 39.703125 55.765625 41.0625 55.515625 
z
" id="DejaVuSans-114"/>
      <path d="M 9.421875 75.984375 
L 18.40625 75.984375 
L 18.40625 0 
L 9.421875 0 
z
" id="DejaVuSans-108"/>
      <path d="M 45.40625 27.984375 
Q 45.40625 37.75 41.375 43.109375 
Q 37.359375 48.484375 30.078125 48.484375 
Q 22.859375 48.484375 18.828125 43.109375 
Q 14.796875 37.75 14.796875 27.984375 
Q 14.796875 18.265625 18.828125 12.890625 
Q 22.859375 7.515625 30.078125 7.515625 
Q 37.359375 7.515625 41.375 12.890625 
Q 45.40625 18.265625 45.40625 27.984375 
z
M 54.390625 6.78125 
Q 54.390625 -7.171875 48.1875 -13.984375 
Q 42 -20.796875 29.203125 -20.796875 
Q 24.46875 -20.796875 20.265625 -20.09375 
Q 16.0625 -19.390625 12.109375 -17.921875 
L 12.109375 -9.1875 
Q 16.0625 -11.328125 19.921875 -12.34375 
Q 23.78125 -13.375 27.78125 -13.375 
Q 36.625 -13.375 41.015625 -8.765625 
Q 45.40625 -4.15625 45.40625 5.171875 
L 45.40625 9.625 
Q 42.625 4.78125 38.28125 2.390625 
Q 33.9375 0 27.875 0 
Q 17.828125 0 11.671875 7.65625 
Q 5.515625 15.328125 5.515625 27.984375 
Q 5.515625 40.671875 11.671875 48.328125 
Q 17.828125 56 27.875 56 
Q 33.9375 56 38.28125 53.609375 
Q 42.625 51.21875 45.40625 46.390625 
L 45.40625 54.6875 
L 54.390625 54.6875 
z
" id="DejaVuSans-103"/>
      <path d="M 11.71875 12.40625 
L 22.015625 12.40625 
L 22.015625 0 
L 11.71875 0 
z
M 11.71875 51.703125 
L 22.015625 51.703125 
L 22.015625 39.3125 
L 11.71875 39.3125 
z
" id="DejaVuSans-58"/>
      <path d="M 19.671875 34.8125 
L 19.671875 8.109375 
L 35.5 8.109375 
Q 43.453125 8.109375 47.28125 11.40625 
Q 51.125 14.703125 51.125 21.484375 
Q 51.125 28.328125 47.28125 31.5625 
Q 43.453125 34.8125 35.5 34.8125 
z
M 19.671875 64.796875 
L 19.671875 42.828125 
L 34.28125 42.828125 
Q 41.5 42.828125 45.03125 45.53125 
Q 48.578125 48.25 48.578125 53.8125 
Q 48.578125 59.328125 45.03125 62.0625 
Q 41.5 64.796875 34.28125 64.796875 
z
M 9.8125 72.90625 
L 35.015625 72.90625 
Q 46.296875 72.90625 52.390625 68.21875 
Q 58.5 63.53125 58.5 54.890625 
Q 58.5 48.1875 55.375 44.234375 
Q 52.25 40.28125 46.1875 39.3125 
Q 53.46875 37.75 57.5 32.78125 
Q 61.53125 27.828125 61.53125 20.40625 
Q 61.53125 10.640625 54.890625 5.3125 
Q 48.25 0 35.984375 0 
L 9.8125 0 
z
" id="DejaVuSans-66"/>
      <path d="M 64.40625 67.28125 
L 64.40625 56.890625 
Q 59.421875 61.53125 53.78125 63.8125 
Q 48.140625 66.109375 41.796875 66.109375 
Q 29.296875 66.109375 22.65625 58.46875 
Q 16.015625 50.828125 16.015625 36.375 
Q 16.015625 21.96875 22.65625 14.328125 
Q 29.296875 6.6875 41.796875 6.6875 
Q 48.140625 6.6875 53.78125 8.984375 
Q 59.421875 11.28125 64.40625 15.921875 
L 64.40625 5.609375 
Q 59.234375 2.09375 53.4375 0.328125 
Q 47.65625 -1.421875 41.21875 -1.421875 
Q 24.65625 -1.421875 15.125 8.703125 
Q 5.609375 18.84375 5.609375 36.375 
Q 5.609375 53.953125 15.125 64.078125 
Q 24.65625 74.21875 41.21875 74.21875 
Q 47.75 74.21875 53.53125 72.484375 
Q 59.328125 70.75 64.40625 67.28125 
z
" id="DejaVuSans-67"/>
      <path d="M 48.78125 52.59375 
L 48.78125 44.1875 
Q 44.96875 46.296875 41.140625 47.34375 
Q 37.3125 48.390625 33.40625 48.390625 
Q 24.65625 48.390625 19.8125 42.84375 
Q 14.984375 37.3125 14.984375 27.296875 
Q 14.984375 17.28125 19.8125 11.734375 
Q 24.65625 6.203125 33.40625 6.203125 
Q 37.3125 6.203125 41.140625 7.25 
Q 44.96875 8.296875 48.78125 10.40625 
L 48.78125 2.09375 
Q 45.015625 0.34375 40.984375 -0.53125 
Q 36.96875 -1.421875 32.421875 -1.421875 
Q 20.0625 -1.421875 12.78125 6.34375 
Q 5.515625 14.109375 5.515625 27.296875 
Q 5.515625 40.671875 12.859375 48.328125 
Q 20.21875 56 33.015625 56 
Q 37.15625 56 41.109375 55.140625 
Q 45.0625 54.296875 48.78125 52.59375 
z
" id="DejaVuSans-99"/>
     </defs>
     <g transform="translate(14.798438 293.315681)rotate(-90)scale(0.1 -0.1)">
      <use xlink:href="#DejaVuSans-82"/>
      <use x="69.482422" xlink:href="#DejaVuSans-49"/>
      <use x="133.105469" xlink:href="#DejaVuSans-32"/>
      <use x="164.892578" xlink:href="#DejaVuSans-65"/>
      <use x="233.253906" xlink:href="#DejaVuSans-102"/>
      <use x="268.443359" xlink:href="#DejaVuSans-116"/>
      <use x="307.652344" xlink:href="#DejaVuSans-101"/>
      <use x="369.175781" xlink:href="#DejaVuSans-114"/>
      <use x="410.289062" xlink:href="#DejaVuSans-32"/>
      <use x="442.076172" xlink:href="#DejaVuSans-102"/>
      <use x="477.28125" xlink:href="#DejaVuSans-105"/>
      <use x="505.064453" xlink:href="#DejaVuSans-108"/>
      <use x="532.847656" xlink:href="#DejaVuSans-116"/>
      <use x="572.056641" xlink:href="#DejaVuSans-101"/>
      <use x="633.580078" xlink:href="#DejaVuSans-114"/>
      <use x="674.693359" xlink:href="#DejaVuSans-105"/>
      <use x="702.476562" xlink:href="#DejaVuSans-110"/>
      <use x="765.855469" xlink:href="#DejaVuSans-103"/>
      <use x="829.332031" xlink:href="#DejaVuSans-58"/>
      <use x="863.023438" xlink:href="#DejaVuSans-32"/>
      <use x="894.810547" xlink:href="#DejaVuSans-66"/>
      <use x="963.414062" xlink:href="#DejaVuSans-97"/>
      <use x="1024.693359" xlink:href="#DejaVuSans-115"/>
      <use x="1076.792969" xlink:href="#DejaVuSans-101"/>
      <use x="1138.316406" xlink:href="#DejaVuSans-32"/>
      <use x="1170.103516" xlink:href="#DejaVuSans-67"/>
      <use x="1239.927734" xlink:href="#DejaVuSans-111"/>
      <use x="1301.109375" xlink:href="#DejaVuSans-110"/>
      <use x="1364.488281" xlink:href="#DejaVuSans-116"/>
      <use x="1403.697266" xlink:href="#DejaVuSans-101"/>
      <use x="1465.220703" xlink:href="#DejaVuSans-110"/>
      <use x="1528.599609" xlink:href="#DejaVuSans-116"/>
      <use x="1567.808594" xlink:href="#DejaVuSans-32"/>
      <use x="1599.595703" xlink:href="#DejaVuSans-80"/>
      <use x="1659.851562" xlink:href="#DejaVuSans-101"/>
      <use x="1721.375" xlink:href="#DejaVuSans-114"/>
      <use x="1762.457031" xlink:href="#DejaVuSans-99"/>
      <use x="1817.4375" xlink:href="#DejaVuSans-101"/>
      <use x="1878.960938" xlink:href="#DejaVuSans-110"/>
      <use x="1942.339844" xlink:href="#DejaVuSans-116"/>
     </g>
    </g>
   </g>
   <g id="line2d_7">
    <path clip-path="url(#p24b4d82244)" d="M 76.613125 338.579184 
L 82.471514 351.589729 
L 88.329904 353.112211 
L 94.188293 353.2239 
L 100.046682 350.053524 
L 105.905071 353.222315 
L 264.081581 353.214451 
L 305.090306 353.18806 
L 310.948695 346.988732 
L 316.807085 353.147922 
L 328.523863 353.190508 
L 334.382253 353.06768 
L 340.240642 353.212042 
L 357.81581 353.223045 
L 363.674199 352.968892 
L 369.532588 353.193682 
L 392.966145 353.223282 
L 428.116481 353.2239 
L 433.97487 350.693256 
L 439.833259 353.2239 
L 451.550038 353.2239 
L 457.408427 353.110384 
L 469.125206 353.218553 
L 498.417152 353.2239 
L 504.275541 351.234107 
L 510.13393 353.2239 
L 568.717823 353.22388 
L 574.576212 351.260231 
L 580.434602 353.2239 
L 603.868159 353.223475 
L 621.443326 353.2239 
L 627.301716 350.591328 
L 633.160105 353.222052 
L 662.452051 353.2239 
L 721.035944 353.222467 
L 726.894333 352.309602 
L 732.752722 353.214496 
L 808.911783 353.2239 
L 867.495675 353.223692 
L 873.354065 351.259761 
L 879.212454 353.223318 
L 949.513125 353.2239 
L 949.513125 353.2239 
" style="fill:none;stroke:#7cb5ec;stroke-linecap:square;"/>
   </g>
   <g id="line2d_8">
    <path clip-path="url(#p24b4d82244)" d="M 76.613125 330.564801 
L 82.471514 351.633755 
L 88.329904 353.115974 
L 94.188293 353.2239 
L 100.046682 350.113136 
L 105.905071 353.222712 
L 158.630575 353.2239 
L 305.090306 353.180973 
L 310.948695 347.188855 
L 316.807085 353.146073 
L 328.523863 353.187174 
L 334.382253 353.062047 
L 340.240642 353.211406 
L 357.81581 353.223103 
L 363.674199 352.975238 
L 369.532588 353.191968 
L 392.966145 353.222699 
L 428.116481 353.2239 
L 433.97487 350.752074 
L 439.833259 353.2239 
L 498.417152 353.2239 
L 504.275541 351.264537 
L 510.13393 353.2239 
L 568.717823 353.2239 
L 574.576212 351.298884 
L 580.434602 353.2239 
L 603.868159 353.223237 
L 621.443326 353.2239 
L 627.301716 350.661116 
L 633.160105 353.2224 
L 662.452051 353.223816 
L 721.035944 353.22246 
L 726.894333 352.328661 
L 732.752722 353.214391 
L 820.628561 353.2239 
L 867.495675 353.222943 
L 873.354065 351.273942 
L 879.212454 353.222852 
L 949.513125 353.2239 
L 949.513125 353.2239 
" style="fill:none;stroke:#434348;stroke-linecap:square;"/>
   </g>
   <g id="line2d_9">
    <path clip-path="url(#p24b4d82244)" d="M 76.613125 320.686998 
L 82.471514 351.693863 
L 88.329904 353.124695 
L 94.188293 353.2239 
L 100.046682 350.227866 
L 105.905071 353.222542 
L 152.772185 353.223749 
L 287.515138 353.219167 
L 293.373528 353.088517 
L 299.231917 353.19483 
L 305.090306 353.175569 
L 310.948695 347.392685 
L 316.807085 353.148502 
L 328.523863 353.191697 
L 334.382253 353.069883 
L 340.240642 353.211927 
L 357.81581 353.223394 
L 363.674199 352.981146 
L 369.532588 353.192696 
L 392.966145 353.22324 
L 428.116481 353.2239 
L 433.97487 350.837334 
L 439.833259 353.2239 
L 498.417152 353.2239 
L 504.275541 351.331234 
L 510.13393 353.2239 
L 568.717823 353.223848 
L 574.576212 351.354197 
L 580.434602 353.2239 
L 603.868159 353.223481 
L 621.443326 353.2239 
L 627.301716 350.759158 
L 633.160105 353.22269 
L 662.452051 353.223794 
L 721.035944 353.221018 
L 726.894333 352.345539 
L 732.752722 353.213314 
L 808.911783 353.2239 
L 867.495675 353.223189 
L 873.354065 351.304989 
L 879.212454 353.222803 
L 949.513125 353.2239 
L 949.513125 353.2239 
" style="fill:none;stroke:#90ed7d;stroke-linecap:square;"/>
   </g>
   <g id="line2d_10">
    <path clip-path="url(#p24b4d82244)" d="M 76.613125 345.712288 
L 82.471514 351.54059 
L 88.329904 353.111413 
L 94.188293 353.2239 
L 100.046682 349.986229 
L 105.905071 353.222248 
L 305.090306 353.192043 
L 310.948695 346.831599 
L 316.807085 353.143661 
L 328.523863 353.188844 
L 334.382253 353.0648 
L 340.240642 353.210942 
L 357.81581 353.222932 
L 363.674199 352.959658 
L 369.532588 353.19331 
L 392.966145 353.22365 
L 428.116481 353.2239 
L 433.97487 350.650757 
L 439.833259 353.2239 
L 451.550038 353.2239 
L 457.408427 353.106242 
L 463.266816 353.220798 
L 498.417152 353.2239 
L 504.275541 351.200657 
L 510.13393 353.2239 
L 568.717823 353.2239 
L 574.576212 351.228657 
L 580.434602 353.2239 
L 603.868159 353.223522 
L 621.443326 353.2239 
L 627.301716 350.523061 
L 633.160105 353.222009 
L 656.593662 353.2239 
L 721.035944 353.223299 
L 726.894333 352.298212 
L 732.752722 353.213901 
L 803.053393 353.222758 
L 867.495675 353.223804 
L 873.354065 351.243519 
L 879.212454 353.223581 
L 949.513125 353.2239 
L 949.513125 353.2239 
" style="fill:none;stroke:#f7a35c;stroke-linecap:square;"/>
   </g>
   <g id="line2d_11">
    <path clip-path="url(#p24b4d82244)" d="M 76.613125 339.132003 
L 82.471514 351.590225 
L 88.329904 353.111251 
L 94.188293 353.2239 
L 100.046682 350.041765 
L 105.905071 353.222314 
L 234.789635 353.223812 
L 305.090306 353.189755 
L 310.948695 346.970748 
L 316.807085 353.14592 
L 328.523863 353.18842 
L 334.382253 353.067764 
L 340.240642 353.211584 
L 357.81581 353.223104 
L 363.674199 352.969129 
L 369.532588 353.193701 
L 392.966145 353.223279 
L 428.116481 353.2239 
L 433.97487 350.689212 
L 439.833259 353.2239 
L 451.550038 353.2239 
L 457.408427 353.109391 
L 469.125206 353.219347 
L 498.417152 353.2239 
L 504.275541 351.227493 
L 510.13393 353.2239 
L 568.717823 353.2239 
L 574.576212 351.255519 
L 580.434602 353.2239 
L 603.868159 353.223448 
L 621.443326 353.223809 
L 627.301716 350.618585 
L 633.160105 353.222175 
L 662.452051 353.2239 
L 721.035944 353.222434 
L 726.894333 352.311605 
L 732.752722 353.214204 
L 808.911783 353.2239 
L 867.495675 353.223683 
L 873.354065 351.253783 
L 879.212454 353.223339 
L 949.513125 353.2239 
L 949.513125 353.2239 
" style="fill:none;stroke:#8085e9;stroke-linecap:square;"/>
   </g>
   <g id="line2d_12">
    <path clip-path="url(#p24b4d82244)" d="M 76.613125 323.522191 
L 82.471514 351.678512 
L 88.329904 353.118944 
L 94.188293 353.2239 
L 100.046682 350.208851 
L 105.905071 353.222419 
L 152.772185 353.223729 
L 287.515138 353.218767 
L 293.373528 353.088811 
L 299.231917 353.195424 
L 305.090306 353.17886 
L 310.948695 347.341537 
L 316.807085 353.152146 
L 328.523863 353.192566 
L 334.382253 353.069161 
L 340.240642 353.212396 
L 357.81581 353.223327 
L 363.674199 352.982992 
L 369.532588 353.193711 
L 392.966145 353.223325 
L 428.116481 353.2239 
L 433.97487 350.820399 
L 439.833259 353.2239 
L 498.417152 353.2239 
L 504.275541 351.328092 
L 510.13393 353.2239 
L 568.717823 353.2239 
L 574.576212 351.350038 
L 580.434602 353.2239 
L 603.868159 353.223424 
L 621.443326 353.2239 
L 627.301716 350.745117 
L 633.160105 353.222048 
L 662.452051 353.2239 
L 721.035944 353.221714 
L 726.894333 352.359587 
L 732.752722 353.21447 
L 814.770172 353.2239 
L 867.495675 353.223526 
L 873.354065 351.322496 
L 879.212454 353.223149 
L 949.513125 353.2239 
L 949.513125 353.2239 
" style="fill:none;stroke:#f15c80;stroke-linecap:square;"/>
   </g>
   <g id="line2d_13">
    <path clip-path="url(#p24b4d82244)" d="M 76.613125 332.771308 
L 82.471514 351.630352 
L 88.329904 353.11305 
L 94.188293 353.2239 
L 100.046682 350.130199 
L 105.905071 353.222946 
L 182.064132 353.2239 
L 305.090306 353.186771 
L 310.948695 347.216651 
L 316.807085 353.147975 
L 328.523863 353.187561 
L 334.382253 353.065051 
L 340.240642 353.212693 
L 357.81581 353.222943 
L 363.674199 352.973601 
L 369.532588 353.194477 
L 392.966145 353.223078 
L 428.116481 353.2239 
L 433.97487 350.776379 
L 439.833259 353.2239 
L 451.550038 353.2239 
L 457.408427 353.110984 
L 469.125206 353.217018 
L 498.417152 353.2239 
L 504.275541 351.306795 
L 510.13393 353.2239 
L 568.717823 353.2239 
L 574.576212 351.32551 
L 580.434602 353.2239 
L 603.868159 353.223483 
L 621.443326 353.2239 
L 627.301716 350.690827 
L 633.160105 353.221949 
L 662.452051 353.2239 
L 721.035944 353.221375 
L 726.894333 352.343491 
L 732.752722 353.214493 
L 814.770172 353.2239 
L 867.495675 353.223261 
L 873.354065 351.315653 
L 879.212454 353.223188 
L 949.513125 353.2239 
L 949.513125 353.2239 
" style="fill:none;stroke:#e4d354;stroke-linecap:square;"/>
   </g>
   <g id="line2d_14">
    <path clip-path="url(#p24b4d82244)" d="M 76.613125 353.117254 
L 82.471514 351.508393 
L 88.329904 353.105021 
L 94.188293 353.2239 
L 100.046682 349.899926 
L 105.905071 353.222703 
L 164.488964 353.2239 
L 170.347353 353.121177 
L 182.064132 353.2239 
L 305.090306 353.196944 
L 310.948695 346.626128 
L 316.807085 353.140475 
L 328.523863 353.186002 
L 334.382253 353.057224 
L 340.240642 353.210308 
L 357.81581 353.222967 
L 363.674199 352.957832 
L 369.532588 353.192752 
L 392.966145 353.223633 
L 428.116481 353.2239 
L 433.97487 350.5577 
L 439.833259 353.2239 
L 451.550038 353.2239 
L 457.408427 353.102953 
L 463.266816 353.220553 
L 498.417152 353.2239 
L 504.275541 351.119111 
L 510.13393 353.2239 
L 568.717823 353.2239 
L 574.576212 351.154024 
L 580.434602 353.2239 
L 603.868159 353.223294 
L 621.443326 353.2239 
L 627.301716 350.486844 
L 633.160105 353.222078 
L 656.593662 353.2239 
L 721.035944 353.2239 
L 726.894333 352.264025 
L 732.752722 353.213932 
L 803.053393 353.222267 
L 867.495675 353.2239 
L 873.354065 351.181509 
L 879.212454 353.2239 
L 949.513125 353.2239 
L 949.513125 353.2239 
" style="fill:none;stroke:#2b908f;stroke-linecap:square;"/>
   </g>
   <g id="line2d_15">
    <path clip-path="url(#p24b4d82244)" d="M 76.613125 337.264069 
L 82.471514 351.606537 
L 88.329904 353.115701 
L 94.188293 353.2239 
L 100.046682 350.033002 
L 105.905071 353.221298 
L 275.79836 353.21979 
L 305.090306 353.187562 
L 310.948695 347.074634 
L 316.807085 353.152293 
L 328.523863 353.188355 
L 334.382253 353.071532 
L 340.240642 353.211955 
L 357.81581 353.223213 
L 363.674199 352.965517 
L 369.532588 353.191318 
L 392.966145 353.222661 
L 428.116481 353.2239 
L 433.97487 350.756888 
L 439.833259 353.2239 
L 451.550038 353.2239 
L 457.408427 353.108974 
L 469.125206 353.218371 
L 498.417152 353.2239 
L 504.275541 351.285033 
L 510.13393 353.2239 
L 568.717823 353.2239 
L 574.576212 351.311647 
L 580.434602 353.2239 
L 603.868159 353.223481 
L 621.443326 353.2239 
L 627.301716 350.586794 
L 633.160105 353.222221 
L 662.452051 353.2239 
L 721.035944 353.222209 
L 726.894333 352.341609 
L 732.752722 353.214591 
L 808.911783 353.2239 
L 867.495675 353.223757 
L 873.354065 351.313052 
L 879.212454 353.223184 
L 949.513125 353.2239 
L 949.513125 353.2239 
" style="fill:none;stroke:#f45b5b;stroke-linecap:square;"/>
   </g>
   <g id="line2d_16">
    <path clip-path="url(#p24b4d82244)" d="M 76.613125 326.33341 
L 82.471514 351.652413 
L 88.329904 353.117718 
L 94.188293 353.2239 
L 100.046682 350.234352 
L 105.905071 353.222307 
L 146.913796 353.2239 
L 305.090306 353.185595 
L 310.948695 347.22565 
L 316.807085 353.155744 
L 328.523863 353.196186 
L 334.382253 353.075125 
L 340.240642 353.210028 
L 357.81581 353.222297 
L 363.674199 352.989671 
L 369.532588 353.193399 
L 392.966145 353.22229 
L 428.116481 353.2239 
L 433.97487 350.803248 
L 439.833259 353.2239 
L 498.417152 353.2239 
L 504.275541 351.314757 
L 510.13393 353.2239 
L 568.717823 353.2239 
L 574.576212 351.353008 
L 580.434602 353.2239 
L 603.868159 353.222796 
L 621.443326 353.2239 
L 627.301716 350.659844 
L 633.160105 353.222237 
L 656.593662 353.2239 
L 721.035944 353.219973 
L 726.894333 352.368274 
L 732.752722 353.214348 
L 814.770172 353.2239 
L 867.495675 353.223328 
L 873.354065 351.325777 
L 879.212454 353.223326 
L 949.513125 353.2239 
L 949.513125 353.2239 
" style="fill:none;stroke:#91e8e1;stroke-linecap:square;"/>
   </g>
   <g id="line2d_17">
    <path clip-path="url(#p24b4d82244)" d="M 76.613125 336.212994 
L 82.471514 351.582218 
L 88.329904 353.116948 
L 94.188293 353.2239 
L 100.046682 350.028118 
L 105.905071 353.222621 
L 228.931246 353.223516 
L 305.090306 353.188379 
L 310.948695 347.134336 
L 316.807085 353.148094 
L 328.523863 353.192387 
L 334.382253 353.069631 
L 340.240642 353.211661 
L 357.81581 353.223451 
L 363.674199 352.969974 
L 369.532588 353.194838 
L 392.966145 353.223322 
L 428.116481 353.2239 
L 433.97487 350.723266 
L 439.833259 353.2239 
L 451.550038 353.2239 
L 457.408427 353.110956 
L 469.125206 353.219645 
L 498.417152 353.2239 
L 504.275541 351.255634 
L 510.13393 353.2239 
L 568.717823 353.223835 
L 574.576212 351.282992 
L 580.434602 353.2239 
L 603.868159 353.22325 
L 621.443326 353.2239 
L 627.301716 350.631679 
L 633.160105 353.221882 
L 662.452051 353.2239 
L 721.035944 353.222394 
L 726.894333 352.324254 
L 732.752722 353.213745 
L 803.053393 353.222781 
L 867.495675 353.223437 
L 873.354065 351.276212 
L 879.212454 353.22264 
L 949.513125 353.2239 
L 949.513125 353.2239 
" style="fill:none;stroke:#7cb5ec;stroke-linecap:square;"/>
   </g>
   <g id="line2d_18">
    <path clip-path="url(#p24b4d82244)" d="M 76.613125 338.533906 
L 82.471514 351.573379 
L 88.329904 353.121708 
L 94.188293 353.2239 
L 100.046682 350.065874 
L 105.905071 353.222977 
L 205.497689 353.2239 
L 305.090306 353.183929 
L 310.948695 346.939873 
L 316.807085 353.149226 
L 328.523863 353.191974 
L 334.382253 353.066061 
L 340.240642 353.212092 
L 357.81581 353.223668 
L 363.674199 352.970404 
L 369.532588 353.200233 
L 398.824534 353.215759 
L 428.116481 353.2239 
L 433.97487 350.694083 
L 439.833259 353.2239 
L 451.550038 353.2239 
L 457.408427 353.108801 
L 469.125206 353.21945 
L 498.417152 353.2239 
L 504.275541 351.237287 
L 510.13393 353.2239 
L 568.717823 353.2239 
L 574.576212 351.264092 
L 580.434602 353.2239 
L 598.009769 353.2239 
L 621.443326 353.223661 
L 627.301716 350.525178 
L 633.160105 353.222466 
L 650.735273 353.2239 
L 721.035944 353.22245 
L 726.894333 352.318906 
L 732.752722 353.210585 
L 797.195004 353.2239 
L 867.495675 353.223161 
L 873.354065 351.260435 
L 879.212454 353.223159 
L 949.513125 353.2239 
L 949.513125 353.2239 
" style="fill:none;stroke:#434348;stroke-linecap:square;"/>
   </g>
   <g id="line2d_19">
    <path clip-path="url(#p24b4d82244)" d="M 76.613125 320.616218 
L 82.471514 351.640445 
L 88.329904 353.121776 
L 94.188293 353.2239 
L 100.046682 350.179649 
L 105.905071 353.222847 
L 146.913796 353.2239 
L 287.515138 353.218102 
L 293.373528 353.073073 
L 299.231917 353.188549 
L 305.090306 353.179556 
L 310.948695 347.452177 
L 316.807085 353.148848 
L 328.523863 353.192675 
L 334.382253 353.06819 
L 340.240642 353.21542 
L 357.81581 353.223369 
L 363.674199 352.965423 
L 369.532588 353.190895 
L 392.966145 353.222831 
L 428.116481 353.2239 
L 433.97487 350.806129 
L 439.833259 353.2239 
L 498.417152 353.2239 
L 504.275541 351.303246 
L 510.13393 353.2239 
L 515.99232 353.2239 
L 521.850709 353.101496 
L 527.709098 353.2239 
L 568.717823 353.2239 
L 574.576212 351.323653 
L 580.434602 353.2239 
L 603.868159 353.2239 
L 621.443326 353.2239 
L 627.301716 350.854549 
L 633.160105 353.223337 
L 662.452051 353.2239 
L 721.035944 353.220448 
L 726.894333 352.342455 
L 732.752722 353.212939 
L 808.911783 353.2239 
L 867.495675 353.223305 
L 873.354065 351.270769 
L 879.212454 353.222705 
L 949.513125 353.2239 
L 949.513125 353.2239 
" style="fill:none;stroke:#90ed7d;stroke-linecap:square;"/>
   </g>
   <g id="line2d_20">
    <path clip-path="url(#p24b4d82244)" d="M 76.613125 325.39674 
L 82.471514 351.686162 
L 88.329904 353.119564 
L 94.188293 353.2239 
L 100.046682 350.15362 
L 105.905071 353.220975 
L 170.347353 353.133865 
L 182.064132 353.2239 
L 287.515138 353.219021 
L 293.373528 353.101908 
L 299.231917 353.198195 
L 305.090306 353.172804 
L 310.948695 347.27524 
L 316.807085 353.151615 
L 328.523863 353.193602 
L 334.382253 353.073342 
L 340.240642 353.211839 
L 357.81581 353.2239 
L 363.674199 352.988532 
L 369.532588 353.196141 
L 392.966145 353.223246 
L 428.116481 353.2239 
L 433.97487 350.820164 
L 439.833259 353.2239 
L 498.417152 353.2239 
L 504.275541 351.343749 
L 510.13393 353.2239 
L 568.717823 353.2239 
L 574.576212 351.358827 
L 580.434602 353.2239 
L 609.726548 353.2239 
L 621.443326 353.2239 
L 627.301716 350.75119 
L 633.160105 353.223227 
L 656.593662 353.2239 
L 721.035944 353.220149 
L 726.894333 352.359052 
L 732.752722 353.215702 
L 832.34534 353.223553 
L 867.495675 353.223551 
L 873.354065 351.327997 
L 879.212454 353.2232 
L 949.513125 353.2239 
L 949.513125 353.2239 
" style="fill:none;stroke:#f7a35c;stroke-linecap:square;"/>
   </g>
   <g id="line2d_21">
    <path clip-path="url(#p24b4d82244)" d="M 76.613125 317.307125 
L 82.471514 351.709412 
L 88.329904 353.116167 
L 94.188293 353.2239 
L 100.046682 350.344503 
L 105.905071 353.22301 
L 135.197018 353.2239 
L 287.515138 353.218553 
L 293.373528 353.051835 
L 299.231917 353.183767 
L 305.090306 353.167692 
L 310.948695 347.478517 
L 316.807085 353.147107 
L 328.523863 353.203342 
L 334.382253 353.060245 
L 340.240642 353.209583 
L 357.81581 353.2239 
L 363.674199 352.975411 
L 369.532588 353.199663 
L 398.824534 353.210384 
L 422.258091 353.2239 
L 428.116481 353.2239 
L 433.97487 350.810116 
L 439.833259 353.2239 
L 451.550038 353.2239 
L 457.408427 353.105706 
L 469.125206 353.208413 
L 498.417152 353.2239 
L 504.275541 351.340957 
L 510.13393 353.2239 
L 515.99232 353.2239 
L 521.850709 353.096979 
L 527.709098 353.2239 
L 568.717823 353.2239 
L 574.576212 351.362382 
L 580.434602 353.2239 
L 598.009769 353.222966 
L 621.443326 353.2239 
L 627.301716 350.744424 
L 633.160105 353.222019 
L 656.593662 353.2239 
L 721.035944 353.221026 
L 726.894333 352.375905 
L 732.752722 353.213336 
L 803.053393 353.2239 
L 867.495675 353.2239 
L 873.354065 351.295519 
L 879.212454 353.22291 
L 949.513125 353.2239 
L 949.513125 353.2239 
" style="fill:none;stroke:#8085e9;stroke-linecap:square;"/>
   </g>
   <g id="line2d_22">
    <path clip-path="url(#p24b4d82244)" d="M 76.613125 324.643028 
L 82.471514 351.660566 
L 88.329904 353.114622 
L 94.188293 353.2239 
L 100.046682 350.215369 
L 105.905071 353.222053 
L 152.772185 353.223758 
L 287.515138 353.219017 
L 293.373528 353.102642 
L 305.090306 353.178443 
L 310.948695 347.312525 
L 316.807085 353.153625 
L 328.523863 353.193202 
L 334.382253 353.073152 
L 340.240642 353.211962 
L 357.81581 353.222995 
L 363.674199 352.980155 
L 369.532588 353.195675 
L 392.966145 353.223088 
L 428.116481 353.2239 
L 433.97487 350.831025 
L 439.833259 353.2239 
L 498.417152 353.2239 
L 504.275541 351.345021 
L 510.13393 353.2239 
L 568.717823 353.223802 
L 574.576212 351.371755 
L 580.434602 353.2239 
L 603.868159 353.223163 
L 621.443326 353.2239 
L 627.301716 350.738529 
L 633.160105 353.222616 
L 662.452051 353.223801 
L 721.035944 353.221196 
L 726.894333 352.359517 
L 732.752722 353.214769 
L 820.628561 353.2239 
L 867.495675 353.223438 
L 873.354065 351.336836 
L 879.212454 353.222717 
L 949.513125 353.2239 
L 949.513125 353.2239 
" style="fill:none;stroke:#f15c80;stroke-linecap:square;"/>
   </g>
   <g id="line2d_23">
    <path clip-path="url(#p24b4d82244)" d="M 76.613125 346.439353 
L 82.471514 351.539013 
L 88.329904 353.111022 
L 94.188293 353.2239 
L 100.046682 349.952028 
L 105.905071 353.222406 
L 305.090306 353.192711 
L 310.948695 346.806034 
L 316.807085 353.14527 
L 328.523863 353.188314 
L 334.382253 353.06433 
L 340.240642 353.21151 
L 357.81581 353.223101 
L 363.674199 352.96125 
L 369.532588 353.194031 
L 392.966145 353.223566 
L 428.116481 353.2239 
L 433.97487 350.631774 
L 439.833259 353.2239 
L 451.550038 353.2239 
L 457.408427 353.106916 
L 463.266816 353.220366 
L 498.417152 353.2239 
L 504.275541 351.183487 
L 510.13393 353.2239 
L 568.717823 353.223892 
L 574.576212 351.21164 
L 580.434602 353.2239 
L 603.868159 353.22332 
L 621.443326 353.2239 
L 627.301716 350.604562 
L 633.160105 353.221932 
L 656.593662 353.2239 
L 721.035944 353.223176 
L 726.894333 352.289189 
L 732.752722 353.213565 
L 803.053393 353.222786 
L 867.495675 353.223749 
L 873.354065 351.223939 
L 879.212454 353.223646 
L 949.513125 353.2239 
L 949.513125 353.2239 
" style="fill:none;stroke:#e4d354;stroke-linecap:square;"/>
   </g>
   <g id="line2d_24">
    <path clip-path="url(#p24b4d82244)" d="M 76.613125 318.923547 
L 82.471514 351.691523 
L 88.329904 353.122572 
L 94.188293 353.2239 
L 100.046682 350.257195 
L 105.905071 353.22287 
L 146.913796 353.2239 
L 287.515138 353.218932 
L 293.373528 353.080994 
L 299.231917 353.192289 
L 305.090306 353.175574 
L 310.948695 347.441321 
L 316.807085 353.150083 
L 328.523863 353.190905 
L 334.382253 353.078777 
L 340.240642 353.213549 
L 357.81581 353.223334 
L 363.674199 352.980427 
L 369.532588 353.192183 
L 392.966145 353.223427 
L 428.116481 353.2239 
L 433.97487 350.840336 
L 439.833259 353.2239 
L 498.417152 353.2239 
L 504.275541 351.333529 
L 510.13393 353.2239 
L 515.99232 353.2239 
L 521.850709 353.106826 
L 527.709098 353.2239 
L 568.717823 353.223803 
L 574.576212 351.353123 
L 580.434602 353.2239 
L 603.868159 353.223312 
L 621.443326 353.2239 
L 627.301716 350.832145 
L 633.160105 353.221632 
L 662.452051 353.2239 
L 721.035944 353.220991 
L 726.894333 352.355332 
L 732.752722 353.216461 
L 832.34534 353.2239 
L 867.495675 353.223487 
L 873.354065 351.312353 
L 879.212454 353.222347 
L 949.513125 353.2239 
L 949.513125 353.2239 
" style="fill:none;stroke:#2b908f;stroke-linecap:square;"/>
   </g>
   <g id="line2d_25">
    <path clip-path="url(#p24b4d82244)" d="M 76.613125 336.429784 
L 82.471514 351.598823 
L 88.329904 353.115808 
L 94.188293 353.2239 
L 100.046682 350.067114 
L 105.905071 353.222651 
L 217.214467 353.216004 
L 287.515138 353.219503 
L 293.373528 353.14559 
L 305.090306 353.185289 
L 310.948695 347.048694 
L 316.807085 353.147897 
L 328.523863 353.189279 
L 334.382253 353.064972 
L 340.240642 353.211825 
L 357.81581 353.223229 
L 363.674199 352.972181 
L 369.532588 353.193649 
L 392.966145 353.223429 
L 428.116481 353.2239 
L 433.97487 350.718904 
L 439.833259 353.2239 
L 451.550038 353.2239 
L 457.408427 353.111778 
L 469.125206 353.218202 
L 498.417152 353.2239 
L 504.275541 351.252371 
L 510.13393 353.2239 
L 568.717823 353.223877 
L 574.576212 351.275882 
L 580.434602 353.2239 
L 603.868159 353.223468 
L 621.443326 353.2239 
L 627.301716 350.667819 
L 633.160105 353.22219 
L 662.452051 353.223877 
L 721.035944 353.222315 
L 726.894333 352.321914 
L 732.752722 353.214359 
L 808.911783 353.2239 
L 867.495675 353.223597 
L 873.354065 351.269497 
L 879.212454 353.223154 
L 949.513125 353.2239 
L 949.513125 353.2239 
" style="fill:none;stroke:#f45b5b;stroke-linecap:square;"/>
   </g>
   <g id="line2d_26">
    <path clip-path="url(#p24b4d82244)" d="M 76.613125 352.440268 
L 82.471514 351.506383 
L 88.329904 353.10951 
L 94.188293 353.2239 
L 100.046682 349.912569 
L 105.905071 353.222185 
L 305.090306 353.19752 
L 310.948695 346.631088 
L 316.807085 353.146063 
L 328.523863 353.188968 
L 334.382253 353.066438 
L 340.240642 353.211337 
L 357.81581 353.223065 
L 363.674199 352.958077 
L 369.532588 353.194921 
L 392.966145 353.223703 
L 428.116481 353.2239 
L 433.97487 350.5573 
L 439.833259 353.2239 
L 451.550038 353.2239 
L 457.408427 353.104341 
L 463.266816 353.2205 
L 498.417152 353.2239 
L 504.275541 351.131461 
L 510.13393 353.2239 
L 568.717823 353.2239 
L 574.576212 351.160498 
L 580.434602 353.2239 
L 598.009769 353.22385 
L 621.443326 353.2239 
L 627.301716 350.475404 
L 633.160105 353.221866 
L 656.593662 353.2239 
L 721.035944 353.22385 
L 726.894333 352.260819 
L 732.752722 353.213287 
L 797.195004 353.2239 
L 867.495675 353.2239 
L 873.354065 351.185789 
L 879.212454 353.2239 
L 949.513125 353.2239 
L 949.513125 353.2239 
" style="fill:none;stroke:#91e8e1;stroke-linecap:square;"/>
   </g>
   <g id="line2d_27">
    <path clip-path="url(#p24b4d82244)" d="M 76.613125 342.635057 
L 82.471514 351.560966 
L 88.329904 353.111619 
L 94.188293 353.2239 
L 100.046682 350.04195 
L 105.905071 353.222236 
L 305.090306 353.191592 
L 310.948695 346.832298 
L 316.807085 353.148928 
L 328.523863 353.189887 
L 334.382253 353.066382 
L 340.240642 353.211565 
L 357.81581 353.223113 
L 363.674199 352.968692 
L 369.532588 353.195509 
L 392.966145 353.223668 
L 428.116481 353.2239 
L 433.97487 350.663653 
L 439.833259 353.2239 
L 451.550038 353.2239 
L 457.408427 353.112167 
L 469.125206 353.22014 
L 498.417152 353.2239 
L 504.275541 351.213821 
L 510.13393 353.2239 
L 568.717823 353.2239 
L 574.576212 351.240581 
L 580.434602 353.2239 
L 603.868159 353.223201 
L 621.443326 353.2239 
L 627.301716 350.55066 
L 633.160105 353.222197 
L 662.452051 353.2239 
L 721.035944 353.222731 
L 726.894333 352.304349 
L 732.752722 353.213909 
L 803.053393 353.222915 
L 867.495675 353.223641 
L 873.354065 351.24523 
L 879.212454 353.223499 
L 949.513125 353.2239 
L 949.513125 353.2239 
" style="fill:none;stroke:#7cb5ec;stroke-linecap:square;"/>
   </g>
   <g id="line2d_28">
    <path clip-path="url(#p24b4d82244)" d="M 76.613125 353.207434 
L 82.471514 351.497525 
L 88.329904 353.108307 
L 94.188293 353.2239 
L 100.046682 349.842914 
L 105.905071 353.222503 
L 164.488964 353.2239 
L 170.347353 353.121458 
L 182.064132 353.2239 
L 305.090306 353.19633 
L 310.948695 346.68705 
L 316.807085 353.141705 
L 328.523863 353.186565 
L 334.382253 353.061348 
L 340.240642 353.211169 
L 357.81581 353.223063 
L 363.674199 352.952437 
L 369.532588 353.192739 
L 392.966145 353.223598 
L 428.116481 353.2239 
L 433.97487 350.577427 
L 439.833259 353.2239 
L 451.550038 353.2239 
L 457.408427 353.101463 
L 463.266816 353.221919 
L 498.417152 353.2239 
L 504.275541 351.140555 
L 510.13393 353.2239 
L 568.717823 353.2239 
L 574.576212 351.170456 
L 580.434602 353.2239 
L 598.009769 353.223748 
L 621.443326 353.2239 
L 627.301716 350.615767 
L 633.160105 353.221826 
L 656.593662 353.2239 
L 721.035944 353.2239 
L 726.894333 352.269805 
L 732.752722 353.213112 
L 797.195004 353.2239 
L 867.495675 353.2239 
L 873.354065 351.197464 
L 879.212454 353.2239 
L 949.513125 353.2239 
L 949.513125 353.2239 
" style="fill:none;stroke:#434348;stroke-linecap:square;"/>
   </g>
   <g id="line2d_29">
    <path clip-path="url(#p24b4d82244)" d="M 76.613125 340.335194 
L 82.471514 351.575916 
L 88.329904 353.114522 
L 94.188293 353.2239 
L 100.046682 350.055336 
L 105.905071 353.222379 
L 305.090306 353.189242 
L 310.948695 346.913081 
L 316.807085 353.145534 
L 328.523863 353.188895 
L 334.382253 353.065527 
L 340.240642 353.21148 
L 357.81581 353.223071 
L 363.674199 352.965159 
L 369.532588 353.193021 
L 392.966145 353.223504 
L 428.116481 353.2239 
L 433.97487 350.680035 
L 439.833259 353.2239 
L 451.550038 353.2239 
L 457.408427 353.108768 
L 469.125206 353.21998 
L 498.417152 353.2239 
L 504.275541 351.223398 
L 510.13393 353.2239 
L 568.717823 353.223881 
L 574.576212 351.24811 
L 580.434602 353.2239 
L 603.868159 353.223308 
L 621.443326 353.223881 
L 627.301716 350.574737 
L 633.160105 353.221641 
L 656.593662 353.2239 
L 721.035944 353.222822 
L 726.894333 352.301303 
L 732.752722 353.213821 
L 803.053393 353.222447 
L 867.495675 353.223666 
L 873.354065 351.251068 
L 879.212454 353.223373 
L 949.513125 353.2239 
L 949.513125 353.2239 
" style="fill:none;stroke:#90ed7d;stroke-linecap:square;"/>
   </g>
   <g id="line2d_30">
    <path clip-path="url(#p24b4d82244)" d="M 76.613125 337.860577 
L 82.471514 351.594931 
L 88.329904 353.115572 
L 94.188293 353.2239 
L 100.046682 350.037333 
L 105.905071 353.222507 
L 223.072857 353.223664 
L 305.090306 353.187118 
L 310.948695 347.091124 
L 316.807085 353.148679 
L 328.523863 353.189387 
L 334.382253 353.065257 
L 340.240642 353.210996 
L 357.81581 353.223255 
L 363.674199 352.974284 
L 369.532588 353.194601 
L 392.966145 353.223534 
L 428.116481 353.2239 
L 433.97487 350.70801 
L 439.833259 353.2239 
L 498.417152 353.2239 
L 504.275541 351.242457 
L 510.13393 353.2239 
L 568.717823 353.2239 
L 574.576212 351.270235 
L 580.434602 353.2239 
L 603.868159 353.223399 
L 621.443326 353.223856 
L 627.301716 350.60116 
L 633.160105 353.222002 
L 656.593662 353.2239 
L 721.035944 353.222232 
L 726.894333 352.317284 
L 732.752722 353.213357 
L 803.053393 353.222443 
L 867.495675 353.223567 
L 873.354065 351.265529 
L 879.212454 353.223166 
L 949.513125 353.2239 
L 949.513125 353.2239 
" style="fill:none;stroke:#f7a35c;stroke-linecap:square;"/>
   </g>
   <g id="line2d_31">
    <path clip-path="url(#p24b4d82244)" d="M 76.613125 344.610974 
L 82.471514 351.549487 
L 88.329904 353.112701 
L 94.188293 353.2239 
L 100.046682 350.016907 
L 105.905071 353.2223 
L 305.090306 353.19205 
L 310.948695 346.81729 
L 316.807085 353.143685 
L 328.523863 353.187908 
L 334.382253 353.06467 
L 340.240642 353.211276 
L 357.81581 353.22305 
L 363.674199 352.96153 
L 369.532588 353.192879 
L 392.966145 353.223633 
L 428.116481 353.2239 
L 433.97487 350.646407 
L 439.833259 353.2239 
L 451.550038 353.2239 
L 457.408427 353.107095 
L 463.266816 353.220734 
L 498.417152 353.2239 
L 504.275541 351.198533 
L 510.13393 353.2239 
L 568.717823 353.2239 
L 574.576212 351.223811 
L 580.434602 353.2239 
L 603.868159 353.223386 
L 621.443326 353.223876 
L 627.301716 350.54219 
L 633.160105 353.221721 
L 656.593662 353.2239 
L 721.035944 353.223139 
L 726.894333 352.292489 
L 732.752722 353.213286 
L 797.195004 353.2239 
L 867.495675 353.223826 
L 873.354065 351.236975 
L 879.212454 353.223677 
L 949.513125 353.2239 
L 949.513125 353.2239 
" style="fill:none;stroke:#8085e9;stroke-linecap:square;"/>
   </g>
   <g id="line2d_32">
    <path clip-path="url(#p24b4d82244)" d="M 76.613125 326.377671 
L 82.471514 351.650194 
L 88.329904 353.120136 
L 94.188293 353.2239 
L 100.046682 350.164609 
L 105.905071 353.222657 
L 158.630575 353.2239 
L 287.515138 353.218603 
L 293.373528 353.101345 
L 305.090306 353.179876 
L 310.948695 347.310115 
L 316.807085 353.151544 
L 328.523863 353.190468 
L 334.382253 353.070592 
L 340.240642 353.210934 
L 357.81581 353.223134 
L 363.674199 352.977633 
L 369.532588 353.194104 
L 392.966145 353.223212 
L 428.116481 353.2239 
L 433.97487 350.784284 
L 439.833259 353.2239 
L 498.417152 353.2239 
L 504.275541 351.30371 
L 510.13393 353.2239 
L 568.717823 353.2239 
L 574.576212 351.32799 
L 580.434602 353.2239 
L 603.868159 353.223358 
L 621.443326 353.2239 
L 627.301716 350.746408 
L 633.160105 353.222224 
L 662.452051 353.223816 
L 721.035944 353.221435 
L 726.894333 352.340318 
L 732.752722 353.214191 
L 814.770172 353.2239 
L 867.495675 353.223203 
L 873.354065 351.296868 
L 879.212454 353.222546 
L 949.513125 353.2239 
L 949.513125 353.2239 
" style="fill:none;stroke:#f15c80;stroke-linecap:square;"/>
   </g>
   <g id="line2d_33">
    <path clip-path="url(#p24b4d82244)" d="M 76.613125 333.769219 
L 82.471514 351.597716 
L 88.329904 353.114996 
L 94.188293 353.2239 
L 100.046682 350.113423 
L 105.905071 353.222624 
L 182.064132 353.2239 
L 305.090306 353.184541 
L 310.948695 347.118119 
L 316.807085 353.150839 
L 328.523863 353.190509 
L 334.382253 353.06799 
L 340.240642 353.212001 
L 357.81581 353.223207 
L 363.674199 352.972599 
L 369.532588 353.192985 
L 392.966145 353.223414 
L 428.116481 353.2239 
L 433.97487 350.721136 
L 439.833259 353.2239 
L 451.550038 353.2239 
L 457.408427 353.111949 
L 469.125206 353.217118 
L 498.417152 353.2239 
L 504.275541 351.260785 
L 510.13393 353.2239 
L 568.717823 353.2239 
L 574.576212 351.287449 
L 580.434602 353.2239 
L 603.868159 353.223474 
L 621.443326 353.2239 
L 627.301716 350.629955 
L 633.160105 353.2218 
L 656.593662 353.2239 
L 721.035944 353.222211 
L 726.894333 352.322677 
L 732.752722 353.213896 
L 814.770172 353.2239 
L 867.495675 353.223498 
L 873.354065 351.276143 
L 879.212454 353.223057 
L 949.513125 353.2239 
L 949.513125 353.2239 
" style="fill:none;stroke:#e4d354;stroke-linecap:square;"/>
   </g>
   <g id="line2d_34">
    <path clip-path="url(#p24b4d82244)" d="M 76.613125 328.318166 
L 82.471514 351.642092 
L 88.329904 353.118623 
L 94.188293 353.2239 
L 100.046682 350.130834 
L 105.905071 353.222252 
L 170.347353 353.132396 
L 182.064132 353.2239 
L 287.515138 353.219206 
L 293.373528 353.107289 
L 305.090306 353.18145 
L 310.948695 347.287755 
L 316.807085 353.146816 
L 328.523863 353.190116 
L 334.382253 353.071274 
L 340.240642 353.212742 
L 357.81581 353.223305 
L 363.674199 352.97799 
L 369.532588 353.194293 
L 392.966145 353.223388 
L 428.116481 353.2239 
L 433.97487 350.748436 
L 439.833259 353.2239 
L 451.550038 353.2239 
L 457.408427 353.11132 
L 469.125206 353.216067 
L 498.417152 353.2239 
L 504.275541 351.264944 
L 510.13393 353.2239 
L 568.717823 353.223856 
L 574.576212 351.290292 
L 580.434602 353.2239 
L 603.868159 353.223242 
L 621.443326 353.2239 
L 627.301716 350.74726 
L 633.160105 353.221431 
L 662.452051 353.2239 
L 721.035944 353.222112 
L 726.894333 352.321723 
L 732.752722 353.214901 
L 820.628561 353.2239 
L 867.495675 353.223351 
L 873.354065 351.261433 
L 879.212454 353.223212 
L 949.513125 353.2239 
L 949.513125 353.2239 
" style="fill:none;stroke:#2b908f;stroke-linecap:square;"/>
   </g>
   <g id="line2d_35">
    <path clip-path="url(#p24b4d82244)" d="M 76.613125 324.823125 
L 82.471514 351.674633 
L 88.329904 353.12172 
L 94.188293 353.2239 
L 100.046682 350.197245 
L 105.905071 353.222705 
L 170.347353 353.132305 
L 182.064132 353.2239 
L 287.515138 353.219799 
L 293.373528 353.099382 
L 299.231917 353.200819 
L 305.090306 353.180802 
L 310.948695 347.374383 
L 316.807085 353.152965 
L 328.523863 353.190676 
L 334.382253 353.074934 
L 340.240642 353.211817 
L 357.81581 353.223128 
L 363.674199 352.98507 
L 369.532588 353.195814 
L 392.966145 353.223039 
L 428.116481 353.2239 
L 433.97487 350.816024 
L 439.833259 353.2239 
L 498.417152 353.2239 
L 504.275541 351.326445 
L 510.13393 353.2239 
L 568.717823 353.2239 
L 574.576212 351.349186 
L 580.434602 353.2239 
L 603.868159 353.223547 
L 621.443326 353.2239 
L 627.301716 350.780717 
L 633.160105 353.222304 
L 662.452051 353.223811 
L 721.035944 353.221025 
L 726.894333 352.343478 
L 732.752722 353.214901 
L 820.628561 353.2239 
L 867.495675 353.223532 
L 873.354065 351.314718 
L 879.212454 353.222978 
L 949.513125 353.2239 
L 949.513125 353.2239 
" style="fill:none;stroke:#f45b5b;stroke-linecap:square;"/>
   </g>
   <g id="line2d_36">
    <path clip-path="url(#p24b4d82244)" d="M 76.613125 341.743602 
L 82.471514 351.56508 
L 88.329904 353.107455 
L 94.188293 353.2239 
L 100.046682 350.015565 
L 105.905071 353.222389 
L 305.090306 353.189379 
L 310.948695 346.970983 
L 316.807085 353.147601 
L 328.523863 353.189419 
L 334.382253 353.064616 
L 340.240642 353.211641 
L 357.81581 353.223039 
L 363.674199 352.969327 
L 369.532588 353.194223 
L 392.966145 353.223662 
L 428.116481 353.2239 
L 433.97487 350.669669 
L 439.833259 353.2239 
L 451.550038 353.2239 
L 457.408427 353.109835 
L 469.125206 353.22074 
L 498.417152 353.2239 
L 504.275541 351.211729 
L 510.13393 353.2239 
L 568.717823 353.22387 
L 574.576212 351.241484 
L 580.434602 353.2239 
L 603.868159 353.22327 
L 621.443326 353.2239 
L 627.301716 350.691418 
L 633.160105 353.221948 
L 656.593662 353.2239 
L 721.035944 353.222694 
L 726.894333 352.30709 
L 732.752722 353.214279 
L 808.911783 353.2239 
L 867.495675 353.223444 
L 873.354065 351.249904 
L 879.212454 353.223109 
L 949.513125 353.2239 
L 949.513125 353.2239 
" style="fill:none;stroke:#91e8e1;stroke-linecap:square;"/>
   </g>
   <g id="line2d_37">
    <path clip-path="url(#p24b4d82244)" d="M 76.613125 318.065479 
L 82.471514 351.695186 
L 88.329904 353.123479 
L 94.188293 353.2239 
L 100.046682 350.315955 
L 105.905071 353.221924 
L 141.055407 353.2239 
L 287.515138 353.219943 
L 293.373528 353.059953 
L 299.231917 353.193207 
L 305.090306 353.17635 
L 310.948695 347.410237 
L 316.807085 353.149515 
L 328.523863 353.188811 
L 334.382253 353.060256 
L 340.240642 353.210971 
L 357.81581 353.222571 
L 363.674199 352.982441 
L 369.532588 353.191944 
L 392.966145 353.221895 
L 428.116481 353.2239 
L 433.97487 350.830447 
L 439.833259 353.2239 
L 498.417152 353.2239 
L 504.275541 351.337873 
L 510.13393 353.2239 
L 515.99232 353.2239 
L 521.850709 353.09521 
L 527.709098 353.2239 
L 568.717823 353.2239 
L 574.576212 351.368608 
L 580.434602 353.2239 
L 603.868159 353.223552 
L 621.443326 353.2239 
L 627.301716 350.719902 
L 633.160105 353.221798 
L 662.452051 353.2239 
L 721.035944 353.221045 
L 726.894333 352.350709 
L 732.752722 353.213169 
L 808.911783 353.2239 
L 867.495675 353.2239 
L 873.354065 351.318165 
L 879.212454 353.223531 
L 949.513125 353.2239 
L 949.513125 353.2239 
" style="fill:none;stroke:#7cb5ec;stroke-linecap:square;"/>
   </g>
   <g id="line2d_38">
    <path clip-path="url(#p24b4d82244)" d="M 76.613125 317.606079 
L 82.471514 351.721419 
L 88.329904 353.110496 
L 94.188293 353.2239 
L 100.046682 350.275885 
L 105.905071 353.222414 
L 152.772185 353.223405 
L 287.515138 353.221421 
L 293.373528 353.068136 
L 299.231917 353.192634 
L 305.090306 353.172758 
L 310.948695 347.525341 
L 316.807085 353.145366 
L 328.523863 353.195037 
L 334.382253 353.078993 
L 340.240642 353.212439 
L 357.81581 353.222402 
L 363.674199 352.976514 
L 369.532588 353.191389 
L 392.966145 353.223398 
L 428.116481 353.2239 
L 433.97487 350.880374 
L 439.833259 353.2239 
L 498.417152 353.2239 
L 504.275541 351.373625 
L 510.13393 353.2239 
L 515.99232 353.2239 
L 521.850709 353.101144 
L 527.709098 353.2239 
L 568.717823 353.2239 
L 574.576212 351.39278 
L 580.434602 353.2239 
L 609.726548 353.2239 
L 621.443326 353.2239 
L 627.301716 350.943351 
L 633.160105 353.222322 
L 668.31044 353.2239 
L 721.035944 353.221218 
L 726.894333 352.37525 
L 732.752722 353.216371 
L 867.495675 353.223346 
L 873.354065 351.351406 
L 879.212454 353.221674 
L 949.513125 353.2239 
L 949.513125 353.2239 
" style="fill:none;stroke:#434348;stroke-linecap:square;"/>
   </g>
   <g id="line2d_39">
    <path clip-path="url(#p24b4d82244)" d="M 76.613125 317.749609 
L 82.471514 351.705209 
L 88.329904 353.119229 
L 94.188293 353.2239 
L 100.046682 350.349552 
L 105.905071 353.221954 
L 141.055407 353.2239 
L 287.515138 353.217279 
L 293.373528 353.077029 
L 299.231917 353.189216 
L 305.090306 353.169322 
L 310.948695 347.429417 
L 316.807085 353.152893 
L 328.523863 353.188755 
L 334.382253 353.060591 
L 340.240642 353.212173 
L 357.81581 353.222725 
L 363.674199 352.981358 
L 369.532588 353.190181 
L 392.966145 353.2239 
L 428.116481 353.2239 
L 433.97487 350.861894 
L 439.833259 353.2239 
L 498.417152 353.2239 
L 504.275541 351.344283 
L 510.13393 353.2239 
L 515.99232 353.2239 
L 521.850709 353.107749 
L 527.709098 353.2239 
L 568.717823 353.2239 
L 574.576212 351.367444 
L 580.434602 353.2239 
L 603.868159 353.2239 
L 621.443326 353.2239 
L 627.301716 350.769149 
L 633.160105 353.221843 
L 668.31044 353.223485 
L 721.035944 353.220126 
L 726.894333 352.337971 
L 732.752722 353.217174 
L 867.495675 353.222604 
L 873.354065 351.329968 
L 879.212454 353.2226 
L 949.513125 353.2239 
L 949.513125 353.2239 
" style="fill:none;stroke:#90ed7d;stroke-linecap:square;"/>
   </g>
   <g id="line2d_40">
    <path clip-path="url(#p24b4d82244)" d="M 76.613125 320.315484 
L 82.471514 351.706118 
L 88.329904 353.125628 
L 94.188293 353.2239 
L 100.046682 350.298486 
L 105.905071 353.222345 
L 146.913796 353.2239 
L 287.515138 353.21654 
L 293.373528 353.077511 
L 299.231917 353.195009 
L 305.090306 353.176298 
L 310.948695 347.315966 
L 316.807085 353.14776 
L 328.523863 353.191543 
L 334.382253 353.072681 
L 340.240642 353.21012 
L 357.81581 353.22205 
L 363.674199 352.979809 
L 369.532588 353.192976 
L 392.966145 353.223042 
L 428.116481 353.2239 
L 433.97487 350.843477 
L 439.833259 353.2239 
L 498.417152 353.2239 
L 504.275541 351.354483 
L 510.13393 353.2239 
L 515.99232 353.2239 
L 521.850709 353.108535 
L 527.709098 353.223754 
L 568.717823 353.2239 
L 574.576212 351.370922 
L 580.434602 353.2239 
L 603.868159 353.223456 
L 621.443326 353.2239 
L 627.301716 350.72932 
L 633.160105 353.222411 
L 662.452051 353.22375 
L 721.035944 353.221933 
L 726.894333 352.357463 
L 732.752722 353.215103 
L 832.34534 353.223746 
L 867.495675 353.223589 
L 873.354065 351.333981 
L 879.212454 353.222496 
L 949.513125 353.2239 
L 949.513125 353.2239 
" style="fill:none;stroke:#f7a35c;stroke-linecap:square;"/>
   </g>
   <g id="line2d_41">
    <path clip-path="url(#p24b4d82244)" d="M 76.613125 339.456267 
L 82.471514 351.583974 
L 88.329904 353.113554 
L 94.188293 353.2239 
L 100.046682 350.028144 
L 105.905071 353.222549 
L 264.081581 353.213939 
L 305.090306 353.188549 
L 310.948695 346.994888 
L 316.807085 353.149739 
L 328.523863 353.190679 
L 334.382253 353.066642 
L 340.240642 353.211033 
L 357.81581 353.223273 
L 363.674199 352.972795 
L 369.532588 353.19485 
L 392.966145 353.223548 
L 428.116481 353.2239 
L 433.97487 350.691348 
L 439.833259 353.2239 
L 451.550038 353.2239 
L 457.408427 353.110598 
L 469.125206 353.21936 
L 498.417152 353.2239 
L 504.275541 351.229077 
L 510.13393 353.2239 
L 568.717823 353.223875 
L 574.576212 351.254642 
L 580.434602 353.2239 
L 603.868159 353.223417 
L 621.443326 353.2239 
L 627.301716 350.570126 
L 633.160105 353.221634 
L 662.452051 353.223874 
L 721.035944 353.222799 
L 726.894333 352.310003 
L 732.752722 353.214084 
L 808.911783 353.2239 
L 867.495675 353.223408 
L 873.354065 351.25487 
L 879.212454 353.223147 
L 949.513125 353.2239 
L 949.513125 353.2239 
" style="fill:none;stroke:#8085e9;stroke-linecap:square;"/>
   </g>
   <g id="line2d_42">
    <path clip-path="url(#p24b4d82244)" d="M 76.613125 317.069794 
L 82.471514 351.727759 
L 88.329904 353.127857 
L 94.188293 353.2239 
L 100.046682 350.272165 
L 105.905071 353.2239 
L 135.197018 353.2239 
L 287.515138 353.220354 
L 293.373528 353.061521 
L 299.231917 353.183686 
L 305.090306 353.174204 
L 310.948695 347.362516 
L 316.807085 353.159557 
L 328.523863 353.200192 
L 334.382253 353.086318 
L 340.240642 353.214802 
L 357.81581 353.223504 
L 363.674199 353.003378 
L 369.532588 353.197704 
L 398.824534 353.211547 
L 428.116481 353.2239 
L 433.97487 350.851185 
L 439.833259 353.2239 
L 498.417152 353.2239 
L 504.275541 351.337529 
L 510.13393 353.2239 
L 515.99232 353.2239 
L 521.850709 353.095905 
L 527.709098 353.2239 
L 568.717823 353.2239 
L 574.576212 351.359883 
L 580.434602 353.2239 
L 615.584937 353.2239 
L 621.443326 353.223483 
L 627.301716 350.830994 
L 633.160105 353.222645 
L 662.452051 353.2239 
L 721.035944 353.221335 
L 726.894333 352.33373 
L 732.752722 353.217039 
L 844.062118 353.2239 
L 867.495675 353.222571 
L 873.354065 351.313319 
L 879.212454 353.221676 
L 949.513125 353.2239 
L 949.513125 353.2239 
" style="fill:none;stroke:#f15c80;stroke-linecap:square;"/>
   </g>
   <g id="line2d_43">
    <path clip-path="url(#p24b4d82244)" d="M 76.613125 328.933561 
L 82.471514 351.650359 
L 88.329904 353.118706 
L 94.188293 353.2239 
L 100.046682 350.104405 
L 105.905071 353.223027 
L 170.347353 353.133743 
L 182.064132 353.2239 
L 305.090306 353.18115 
L 310.948695 347.22862 
L 316.807085 353.153155 
L 328.523863 353.190932 
L 334.382253 353.074763 
L 340.240642 353.212119 
L 357.81581 353.223294 
L 363.674199 352.984076 
L 369.532588 353.196187 
L 392.966145 353.22336 
L 428.116481 353.223832 
L 433.97487 350.791292 
L 439.833259 353.2239 
L 498.417152 353.2239 
L 504.275541 351.310006 
L 510.13393 353.2239 
L 568.717823 353.2239 
L 574.576212 351.332849 
L 580.434602 353.2239 
L 609.726548 353.2239 
L 621.443326 353.2239 
L 627.301716 350.727743 
L 633.160105 353.220994 
L 662.452051 353.2239 
L 721.035944 353.220264 
L 726.894333 352.334995 
L 732.752722 353.214727 
L 814.770172 353.2239 
L 867.495675 353.223259 
L 873.354065 351.309847 
L 879.212454 353.223114 
L 949.513125 353.2239 
L 949.513125 353.2239 
" style="fill:none;stroke:#e4d354;stroke-linecap:square;"/>
   </g>
   <g id="line2d_44">
    <path clip-path="url(#p24b4d82244)" d="M 76.613125 291.102047 
L 82.471514 351.825782 
L 88.329904 353.115772 
L 94.188293 353.2239 
L 100.046682 350.584829 
L 105.905071 353.221385 
L 129.338628 353.2239 
L 287.515138 353.220124 
L 293.373528 352.960741 
L 299.231917 353.178553 
L 305.090306 353.162149 
L 310.948695 347.929739 
L 316.807085 353.149471 
L 328.523863 353.182223 
L 334.382253 353.108895 
L 346.099031 353.218838 
L 357.81581 353.2239 
L 363.674199 353.024732 
L 369.532588 353.197236 
L 392.966145 353.222626 
L 428.116481 353.2239 
L 433.97487 351.054137 
L 439.833259 353.2239 
L 498.417152 353.2239 
L 504.275541 351.4521 
L 510.13393 353.2239 
L 515.99232 353.2239 
L 521.850709 352.999614 
L 527.709098 353.2239 
L 568.717823 353.2239 
L 574.576212 351.467547 
L 580.434602 353.2239 
L 609.726548 353.2239 
L 621.443326 353.2239 
L 627.301716 351.019561 
L 633.160105 353.222547 
L 662.452051 353.2239 
L 721.035944 353.221125 
L 726.894333 352.399733 
L 732.752722 353.218332 
L 844.062118 353.2239 
L 867.495675 353.222455 
L 873.354065 351.343456 
L 879.212454 353.220998 
L 949.513125 353.2239 
L 949.513125 353.2239 
" style="fill:none;stroke:#2b908f;stroke-linecap:square;"/>
   </g>
   <g id="line2d_45">
    <path clip-path="url(#p24b4d82244)" d="M 76.613125 322.907177 
L 82.471514 351.656089 
L 88.329904 353.116354 
L 94.188293 353.2239 
L 100.046682 350.200749 
L 105.905071 353.223285 
L 152.772185 353.223592 
L 287.515138 353.219588 
L 293.373528 353.091591 
L 299.231917 353.193702 
L 305.090306 353.18013 
L 310.948695 347.502352 
L 316.807085 353.146479 
L 328.523863 353.19303 
L 334.382253 353.076895 
L 340.240642 353.211232 
L 357.81581 353.223281 
L 363.674199 352.964731 
L 369.532588 353.193383 
L 392.966145 353.222347 
L 428.116481 353.2239 
L 433.97487 350.81816 
L 439.833259 353.2239 
L 451.550038 353.2239 
L 457.408427 353.104392 
L 469.125206 353.214486 
L 498.417152 353.2239 
L 504.275541 351.326687 
L 510.13393 353.2239 
L 568.717823 353.2239 
L 574.576212 351.34387 
L 580.434602 353.2239 
L 603.868159 353.222777 
L 621.443326 353.2239 
L 627.301716 350.903936 
L 633.160105 353.22261 
L 656.593662 353.2239 
L 721.035944 353.221772 
L 726.894333 352.336133 
L 732.752722 353.213567 
L 808.911783 353.2239 
L 867.495675 353.223396 
L 873.354065 351.314496 
L 879.212454 353.222553 
L 949.513125 353.2239 
L 949.513125 353.2239 
" style="fill:none;stroke:#f45b5b;stroke-linecap:square;"/>
   </g>
   <g id="line2d_46">
    <path clip-path="url(#p24b4d82244)" d="M 76.613125 323.283016 
L 82.471514 351.691682 
L 88.329904 353.120515 
L 94.188293 353.2239 
L 100.046682 350.148863 
L 105.905071 353.221912 
L 158.630575 353.2239 
L 287.515138 353.220252 
L 293.373528 353.107145 
L 305.090306 353.178768 
L 310.948695 347.367635 
L 316.807085 353.146539 
L 328.523863 353.189682 
L 334.382253 353.074694 
L 340.240642 353.210936 
L 357.81581 353.222569 
L 363.674199 352.982573 
L 369.532588 353.196262 
L 398.824534 353.210554 
L 428.116481 353.2239 
L 433.97487 350.890842 
L 439.833259 353.2239 
L 498.417152 353.2239 
L 504.275541 351.400048 
L 510.13393 353.2239 
L 568.717823 353.2239 
L 574.576212 351.431966 
L 580.434602 353.2239 
L 609.726548 353.2239 
L 621.443326 353.2239 
L 627.301716 350.829251 
L 633.160105 353.2239 
L 662.452051 353.2239 
L 721.035944 353.222177 
L 726.894333 352.366932 
L 732.752722 353.215618 
L 820.628561 353.2239 
L 867.495675 353.222497 
L 873.354065 351.384029 
L 879.212454 353.222141 
L 949.513125 353.2239 
L 949.513125 353.2239 
" style="fill:none;stroke:#91e8e1;stroke-linecap:square;"/>
   </g>
   <g id="line2d_47">
    <path clip-path="url(#p24b4d82244)" d="M 32.968125 353.2239 
L 993.158125 353.2239 
" style="fill:none;stroke:#dedede;stroke-linecap:square;stroke-width:2;"/>
   </g>
   <g id="text_17">
    <!-- Fastp: Read N Content -->
    <defs>
     <path d="M 9.8125 72.90625 
L 51.703125 72.90625 
L 51.703125 64.59375 
L 19.671875 64.59375 
L 19.671875 43.109375 
L 48.578125 43.109375 
L 48.578125 34.8125 
L 19.671875 34.8125 
L 19.671875 0 
L 9.8125 0 
z
" id="DejaVuSans-70"/>
     <path d="M 18.109375 8.203125 
L 18.109375 -20.796875 
L 9.078125 -20.796875 
L 9.078125 54.6875 
L 18.109375 54.6875 
L 18.109375 46.390625 
Q 20.953125 51.265625 25.265625 53.625 
Q 29.59375 56 35.59375 56 
Q 45.5625 56 51.78125 48.09375 
Q 58.015625 40.1875 58.015625 27.296875 
Q 58.015625 14.40625 51.78125 6.484375 
Q 45.5625 -1.421875 35.59375 -1.421875 
Q 29.59375 -1.421875 25.265625 0.953125 
Q 20.953125 3.328125 18.109375 8.203125 
z
M 48.6875 27.296875 
Q 48.6875 37.203125 44.609375 42.84375 
Q 40.53125 48.484375 33.40625 48.484375 
Q 26.265625 48.484375 22.1875 42.84375 
Q 18.109375 37.203125 18.109375 27.296875 
Q 18.109375 17.390625 22.1875 11.75 
Q 26.265625 6.109375 33.40625 6.109375 
Q 40.53125 6.109375 44.609375 11.75 
Q 48.6875 17.390625 48.6875 27.296875 
z
" id="DejaVuSans-112"/>
     <path d="M 9.8125 72.90625 
L 23.09375 72.90625 
L 55.421875 11.921875 
L 55.421875 72.90625 
L 64.984375 72.90625 
L 64.984375 0 
L 51.703125 0 
L 19.390625 60.984375 
L 19.390625 0 
L 9.8125 0 
z
" id="DejaVuSans-78"/>
    </defs>
    <g transform="translate(422.606875 19.3575)scale(0.16 -0.16)">
     <use xlink:href="#DejaVuSans-70"/>
     <use x="57.378906" xlink:href="#DejaVuSans-97"/>
     <use x="118.658203" xlink:href="#DejaVuSans-115"/>
     <use x="170.757812" xlink:href="#DejaVuSans-116"/>
     <use x="209.966797" xlink:href="#DejaVuSans-112"/>
     <use x="273.443359" xlink:href="#DejaVuSans-58"/>
     <use x="307.134766" xlink:href="#DejaVuSans-32"/>
     <use x="338.921875" xlink:href="#DejaVuSans-82"/>
     <use x="408.341797" xlink:href="#DejaVuSans-101"/>
     <use x="469.865234" xlink:href="#DejaVuSans-97"/>
     <use x="531.144531" xlink:href="#DejaVuSans-100"/>
     <use x="594.621094" xlink:href="#DejaVuSans-32"/>
     <use x="626.408203" xlink:href="#DejaVuSans-78"/>
     <use x="701.212891" xlink:href="#DejaVuSans-32"/>
     <use x="733" xlink:href="#DejaVuSans-67"/>
     <use x="802.824219" xlink:href="#DejaVuSans-111"/>
     <use x="864.005859" xlink:href="#DejaVuSans-110"/>
     <use x="927.384766" xlink:href="#DejaVuSans-116"/>
     <use x="966.59375" xlink:href="#DejaVuSans-101"/>
     <use x="1028.117188" xlink:href="#DejaVuSans-110"/>
     <use x="1091.496094" xlink:href="#DejaVuSans-116"/>
    </g>
   </g>
  </g>
 </g>
 <defs>
  <clipPath id="p24b4d82244">
   <rect height="317.968" width="960.19" x="32.968125" y="35.2559"/>
  </clipPath>
 </defs>
</svg>
