<?xml version="1.0" encoding="utf-8" standalone="no"?>
<!DOCTYPE svg PUBLIC "-//W3C//DTD SVG 1.1//EN"
  "http://www.w3.org/Graphics/SVG/1.1/DTD/svg11.dtd">
<!-- Created with matplotlib (https://matplotlib.org/) -->
<svg height="388.844525pt" version="1.1" viewBox="0 0 1000.358125 388.844525" width="1000.358125pt" xmlns="http://www.w3.org/2000/svg" xmlns:xlink="http://www.w3.org/1999/xlink">
 <defs>
  <style type="text/css">
*{stroke-linecap:butt;stroke-linejoin:round;}
  </style>
 </defs>
 <g id="figure_1">
  <g id="axes_1">
   <g id="patch_1">
    <path d="M 32.968125 353.2239 
L 993.158125 353.2239 
L 993.158125 35.2559 
L 32.968125 35.2559 
z
" style="fill:#ffffff;"/>
   </g>
   <g id="matplotlib.axis_1">
    <g id="xtick_1">
     <g id="text_1">
      <!-- 0 -->
      <defs>
       <path d="M 31.78125 66.40625 
Q 24.171875 66.40625 20.328125 58.90625 
Q 16.5 51.421875 16.5 36.375 
Q 16.5 21.390625 20.328125 13.890625 
Q 24.171875 6.390625 31.78125 6.390625 
Q 39.453125 6.390625 43.28125 13.890625 
Q 47.125 21.390625 47.125 36.375 
Q 47.125 51.421875 43.28125 58.90625 
Q 39.453125 66.40625 31.78125 66.40625 
z
M 31.78125 74.21875 
Q 44.046875 74.21875 50.515625 64.515625 
Q 56.984375 54.828125 56.984375 36.375 
Q 56.984375 17.96875 50.515625 8.265625 
Q 44.046875 -1.421875 31.78125 -1.421875 
Q 19.53125 -1.421875 13.0625 8.265625 
Q 6.59375 17.96875 6.59375 36.375 
Q 6.59375 54.828125 13.0625 64.515625 
Q 19.53125 74.21875 31.78125 74.21875 
z
" id="DejaVuSans-48"/>
      </defs>
      <g transform="translate(68.209736 366.30265)scale(0.08 -0.08)">
       <use xlink:href="#DejaVuSans-48"/>
      </g>
     </g>
    </g>
    <g id="xtick_2">
     <g id="text_2">
      <!-- 20 -->
      <defs>
       <path d="M 19.1875 8.296875 
L 53.609375 8.296875 
L 53.609375 0 
L 7.328125 0 
L 7.328125 8.296875 
Q 12.9375 14.109375 22.625 23.890625 
Q 32.328125 33.6875 34.8125 36.53125 
Q 39.546875 41.84375 41.421875 45.53125 
Q 43.3125 49.21875 43.3125 52.78125 
Q 43.3125 58.59375 39.234375 62.25 
Q 35.15625 65.921875 28.609375 65.921875 
Q 23.96875 65.921875 18.8125 64.3125 
Q 13.671875 62.703125 7.8125 59.421875 
L 7.8125 69.390625 
Q 13.765625 71.78125 18.9375 73 
Q 24.125 74.21875 28.421875 74.21875 
Q 39.75 74.21875 46.484375 68.546875 
Q 53.21875 62.890625 53.21875 53.421875 
Q 53.21875 48.921875 51.53125 44.890625 
Q 49.859375 40.875 45.40625 35.40625 
Q 44.1875 33.984375 37.640625 27.21875 
Q 31.109375 20.453125 19.1875 8.296875 
z
" id="DejaVuSans-50"/>
      </defs>
      <g transform="translate(182.832521 366.30265)scale(0.08 -0.08)">
       <use xlink:href="#DejaVuSans-50"/>
       <use x="63.623047" xlink:href="#DejaVuSans-48"/>
      </g>
     </g>
    </g>
    <g id="xtick_3">
     <g id="text_3">
      <!-- 40 -->
      <defs>
       <path d="M 37.796875 64.3125 
L 12.890625 25.390625 
L 37.796875 25.390625 
z
M 35.203125 72.90625 
L 47.609375 72.90625 
L 47.609375 25.390625 
L 58.015625 25.390625 
L 58.015625 17.1875 
L 47.609375 17.1875 
L 47.609375 0 
L 37.796875 0 
L 37.796875 17.1875 
L 4.890625 17.1875 
L 4.890625 26.703125 
z
" id="DejaVuSans-52"/>
      </defs>
      <g transform="translate(300.000306 366.30265)scale(0.08 -0.08)">
       <use xlink:href="#DejaVuSans-52"/>
       <use x="63.623047" xlink:href="#DejaVuSans-48"/>
      </g>
     </g>
    </g>
    <g id="xtick_4">
     <g id="text_4">
      <!-- 60 -->
      <defs>
       <path d="M 33.015625 40.375 
Q 26.375 40.375 22.484375 35.828125 
Q 18.609375 31.296875 18.609375 23.390625 
Q 18.609375 15.53125 22.484375 10.953125 
Q 26.375 6.390625 33.015625 6.390625 
Q 39.65625 6.390625 43.53125 10.953125 
Q 47.40625 15.53125 47.40625 23.390625 
Q 47.40625 31.296875 43.53125 35.828125 
Q 39.65625 40.375 33.015625 40.375 
z
M 52.59375 71.296875 
L 52.59375 62.3125 
Q 48.875 64.0625 45.09375 64.984375 
Q 41.3125 65.921875 37.59375 65.921875 
Q 27.828125 65.921875 22.671875 59.328125 
Q 17.53125 52.734375 16.796875 39.40625 
Q 19.671875 43.65625 24.015625 45.921875 
Q 28.375 48.1875 33.59375 48.1875 
Q 44.578125 48.1875 50.953125 41.515625 
Q 57.328125 34.859375 57.328125 23.390625 
Q 57.328125 12.15625 50.6875 5.359375 
Q 44.046875 -1.421875 33.015625 -1.421875 
Q 20.359375 -1.421875 13.671875 8.265625 
Q 6.984375 17.96875 6.984375 36.375 
Q 6.984375 53.65625 15.1875 63.9375 
Q 23.390625 74.21875 37.203125 74.21875 
Q 40.921875 74.21875 44.703125 73.484375 
Q 48.484375 72.75 52.59375 71.296875 
z
" id="DejaVuSans-54"/>
      </defs>
      <g transform="translate(417.168091 366.30265)scale(0.08 -0.08)">
       <use xlink:href="#DejaVuSans-54"/>
       <use x="63.623047" xlink:href="#DejaVuSans-48"/>
      </g>
     </g>
    </g>
    <g id="xtick_5">
     <g id="text_5">
      <!-- 80 -->
      <defs>
       <path d="M 31.78125 34.625 
Q 24.75 34.625 20.71875 30.859375 
Q 16.703125 27.09375 16.703125 20.515625 
Q 16.703125 13.921875 20.71875 10.15625 
Q 24.75 6.390625 31.78125 6.390625 
Q 38.8125 6.390625 42.859375 10.171875 
Q 46.921875 13.96875 46.921875 20.515625 
Q 46.921875 27.09375 42.890625 30.859375 
Q 38.875 34.625 31.78125 34.625 
z
M 21.921875 38.8125 
Q 15.578125 40.375 12.03125 44.71875 
Q 8.5 49.078125 8.5 55.328125 
Q 8.5 64.0625 14.71875 69.140625 
Q 20.953125 74.21875 31.78125 74.21875 
Q 42.671875 74.21875 48.875 69.140625 
Q 55.078125 64.0625 55.078125 55.328125 
Q 55.078125 49.078125 51.53125 44.71875 
Q 48 40.375 41.703125 38.8125 
Q 48.828125 37.15625 52.796875 32.3125 
Q 56.78125 27.484375 56.78125 20.515625 
Q 56.78125 9.90625 50.3125 4.234375 
Q 43.84375 -1.421875 31.78125 -1.421875 
Q 19.734375 -1.421875 13.25 4.234375 
Q 6.78125 9.90625 6.78125 20.515625 
Q 6.78125 27.484375 10.78125 32.3125 
Q 14.796875 37.15625 21.921875 38.8125 
z
M 18.3125 54.390625 
Q 18.3125 48.734375 21.84375 45.5625 
Q 25.390625 42.390625 31.78125 42.390625 
Q 38.140625 42.390625 41.71875 45.5625 
Q 45.3125 48.734375 45.3125 54.390625 
Q 45.3125 60.0625 41.71875 63.234375 
Q 38.140625 66.40625 31.78125 66.40625 
Q 25.390625 66.40625 21.84375 63.234375 
Q 18.3125 60.0625 18.3125 54.390625 
z
" id="DejaVuSans-56"/>
      </defs>
      <g transform="translate(534.335877 366.30265)scale(0.08 -0.08)">
       <use xlink:href="#DejaVuSans-56"/>
       <use x="63.623047" xlink:href="#DejaVuSans-48"/>
      </g>
     </g>
    </g>
    <g id="xtick_6">
     <g id="text_6">
      <!-- 100 -->
      <defs>
       <path d="M 12.40625 8.296875 
L 28.515625 8.296875 
L 28.515625 63.921875 
L 10.984375 60.40625 
L 10.984375 69.390625 
L 28.421875 72.90625 
L 38.28125 72.90625 
L 38.28125 8.296875 
L 54.390625 8.296875 
L 54.390625 0 
L 12.40625 0 
z
" id="DejaVuSans-49"/>
      </defs>
      <g transform="translate(648.958662 366.30265)scale(0.08 -0.08)">
       <use xlink:href="#DejaVuSans-49"/>
       <use x="63.623047" xlink:href="#DejaVuSans-48"/>
       <use x="127.246094" xlink:href="#DejaVuSans-48"/>
      </g>
     </g>
    </g>
    <g id="xtick_7">
     <g id="text_7">
      <!-- 120 -->
      <g transform="translate(766.126447 366.30265)scale(0.08 -0.08)">
       <use xlink:href="#DejaVuSans-49"/>
       <use x="63.623047" xlink:href="#DejaVuSans-50"/>
       <use x="127.246094" xlink:href="#DejaVuSans-48"/>
      </g>
     </g>
    </g>
    <g id="xtick_8">
     <g id="text_8">
      <!-- 140 -->
      <g transform="translate(883.294232 366.30265)scale(0.08 -0.08)">
       <use xlink:href="#DejaVuSans-49"/>
       <use x="63.623047" xlink:href="#DejaVuSans-52"/>
       <use x="127.246094" xlink:href="#DejaVuSans-48"/>
      </g>
     </g>
    </g>
    <g id="text_9">
     <!-- Read Position -->
     <defs>
      <path d="M 44.390625 34.1875 
Q 47.5625 33.109375 50.5625 29.59375 
Q 53.5625 26.078125 56.59375 19.921875 
L 66.609375 0 
L 56 0 
L 46.6875 18.703125 
Q 43.0625 26.03125 39.671875 28.421875 
Q 36.28125 30.8125 30.421875 30.8125 
L 19.671875 30.8125 
L 19.671875 0 
L 9.8125 0 
L 9.8125 72.90625 
L 32.078125 72.90625 
Q 44.578125 72.90625 50.734375 67.671875 
Q 56.890625 62.453125 56.890625 51.90625 
Q 56.890625 45.015625 53.6875 40.46875 
Q 50.484375 35.9375 44.390625 34.1875 
z
M 19.671875 64.796875 
L 19.671875 38.921875 
L 32.078125 38.921875 
Q 39.203125 38.921875 42.84375 42.21875 
Q 46.484375 45.515625 46.484375 51.90625 
Q 46.484375 58.296875 42.84375 61.546875 
Q 39.203125 64.796875 32.078125 64.796875 
z
" id="DejaVuSans-82"/>
      <path d="M 56.203125 29.59375 
L 56.203125 25.203125 
L 14.890625 25.203125 
Q 15.484375 15.921875 20.484375 11.0625 
Q 25.484375 6.203125 34.421875 6.203125 
Q 39.59375 6.203125 44.453125 7.46875 
Q 49.3125 8.734375 54.109375 11.28125 
L 54.109375 2.78125 
Q 49.265625 0.734375 44.1875 -0.34375 
Q 39.109375 -1.421875 33.890625 -1.421875 
Q 20.796875 -1.421875 13.15625 6.1875 
Q 5.515625 13.8125 5.515625 26.8125 
Q 5.515625 40.234375 12.765625 48.109375 
Q 20.015625 56 32.328125 56 
Q 43.359375 56 49.78125 48.890625 
Q 56.203125 41.796875 56.203125 29.59375 
z
M 47.21875 32.234375 
Q 47.125 39.59375 43.09375 43.984375 
Q 39.0625 48.390625 32.421875 48.390625 
Q 24.90625 48.390625 20.390625 44.140625 
Q 15.875 39.890625 15.1875 32.171875 
z
" id="DejaVuSans-101"/>
      <path d="M 34.28125 27.484375 
Q 23.390625 27.484375 19.1875 25 
Q 14.984375 22.515625 14.984375 16.5 
Q 14.984375 11.71875 18.140625 8.90625 
Q 21.296875 6.109375 26.703125 6.109375 
Q 34.1875 6.109375 38.703125 11.40625 
Q 43.21875 16.703125 43.21875 25.484375 
L 43.21875 27.484375 
z
M 52.203125 31.203125 
L 52.203125 0 
L 43.21875 0 
L 43.21875 8.296875 
Q 40.140625 3.328125 35.546875 0.953125 
Q 30.953125 -1.421875 24.3125 -1.421875 
Q 15.921875 -1.421875 10.953125 3.296875 
Q 6 8.015625 6 15.921875 
Q 6 25.140625 12.171875 29.828125 
Q 18.359375 34.515625 30.609375 34.515625 
L 43.21875 34.515625 
L 43.21875 35.40625 
Q 43.21875 41.609375 39.140625 45 
Q 35.0625 48.390625 27.6875 48.390625 
Q 23 48.390625 18.546875 47.265625 
Q 14.109375 46.140625 10.015625 43.890625 
L 10.015625 52.203125 
Q 14.9375 54.109375 19.578125 55.046875 
Q 24.21875 56 28.609375 56 
Q 40.484375 56 46.34375 49.84375 
Q 52.203125 43.703125 52.203125 31.203125 
z
" id="DejaVuSans-97"/>
      <path d="M 45.40625 46.390625 
L 45.40625 75.984375 
L 54.390625 75.984375 
L 54.390625 0 
L 45.40625 0 
L 45.40625 8.203125 
Q 42.578125 3.328125 38.25 0.953125 
Q 33.9375 -1.421875 27.875 -1.421875 
Q 17.96875 -1.421875 11.734375 6.484375 
Q 5.515625 14.40625 5.515625 27.296875 
Q 5.515625 40.1875 11.734375 48.09375 
Q 17.96875 56 27.875 56 
Q 33.9375 56 38.25 53.625 
Q 42.578125 51.265625 45.40625 46.390625 
z
M 14.796875 27.296875 
Q 14.796875 17.390625 18.875 11.75 
Q 22.953125 6.109375 30.078125 6.109375 
Q 37.203125 6.109375 41.296875 11.75 
Q 45.40625 17.390625 45.40625 27.296875 
Q 45.40625 37.203125 41.296875 42.84375 
Q 37.203125 48.484375 30.078125 48.484375 
Q 22.953125 48.484375 18.875 42.84375 
Q 14.796875 37.203125 14.796875 27.296875 
z
" id="DejaVuSans-100"/>
      <path id="DejaVuSans-32"/>
      <path d="M 19.671875 64.796875 
L 19.671875 37.40625 
L 32.078125 37.40625 
Q 38.96875 37.40625 42.71875 40.96875 
Q 46.484375 44.53125 46.484375 51.125 
Q 46.484375 57.671875 42.71875 61.234375 
Q 38.96875 64.796875 32.078125 64.796875 
z
M 9.8125 72.90625 
L 32.078125 72.90625 
Q 44.34375 72.90625 50.609375 67.359375 
Q 56.890625 61.8125 56.890625 51.125 
Q 56.890625 40.328125 50.609375 34.8125 
Q 44.34375 29.296875 32.078125 29.296875 
L 19.671875 29.296875 
L 19.671875 0 
L 9.8125 0 
z
" id="DejaVuSans-80"/>
      <path d="M 30.609375 48.390625 
Q 23.390625 48.390625 19.1875 42.75 
Q 14.984375 37.109375 14.984375 27.296875 
Q 14.984375 17.484375 19.15625 11.84375 
Q 23.34375 6.203125 30.609375 6.203125 
Q 37.796875 6.203125 41.984375 11.859375 
Q 46.1875 17.53125 46.1875 27.296875 
Q 46.1875 37.015625 41.984375 42.703125 
Q 37.796875 48.390625 30.609375 48.390625 
z
M 30.609375 56 
Q 42.328125 56 49.015625 48.375 
Q 55.71875 40.765625 55.71875 27.296875 
Q 55.71875 13.875 49.015625 6.21875 
Q 42.328125 -1.421875 30.609375 -1.421875 
Q 18.84375 -1.421875 12.171875 6.21875 
Q 5.515625 13.875 5.515625 27.296875 
Q 5.515625 40.765625 12.171875 48.375 
Q 18.84375 56 30.609375 56 
z
" id="DejaVuSans-111"/>
      <path d="M 44.28125 53.078125 
L 44.28125 44.578125 
Q 40.484375 46.53125 36.375 47.5 
Q 32.28125 48.484375 27.875 48.484375 
Q 21.1875 48.484375 17.84375 46.4375 
Q 14.5 44.390625 14.5 40.28125 
Q 14.5 37.15625 16.890625 35.375 
Q 19.28125 33.59375 26.515625 31.984375 
L 29.59375 31.296875 
Q 39.15625 29.25 43.1875 25.515625 
Q 47.21875 21.78125 47.21875 15.09375 
Q 47.21875 7.46875 41.1875 3.015625 
Q 35.15625 -1.421875 24.609375 -1.421875 
Q 20.21875 -1.421875 15.453125 -0.5625 
Q 10.6875 0.296875 5.421875 2 
L 5.421875 11.28125 
Q 10.40625 8.6875 15.234375 7.390625 
Q 20.0625 6.109375 24.8125 6.109375 
Q 31.15625 6.109375 34.5625 8.28125 
Q 37.984375 10.453125 37.984375 14.40625 
Q 37.984375 18.0625 35.515625 20.015625 
Q 33.0625 21.96875 24.703125 23.78125 
L 21.578125 24.515625 
Q 13.234375 26.265625 9.515625 29.90625 
Q 5.8125 33.546875 5.8125 39.890625 
Q 5.8125 47.609375 11.28125 51.796875 
Q 16.75 56 26.8125 56 
Q 31.78125 56 36.171875 55.265625 
Q 40.578125 54.546875 44.28125 53.078125 
z
" id="DejaVuSans-115"/>
      <path d="M 9.421875 54.6875 
L 18.40625 54.6875 
L 18.40625 0 
L 9.421875 0 
z
M 9.421875 75.984375 
L 18.40625 75.984375 
L 18.40625 64.59375 
L 9.421875 64.59375 
z
" id="DejaVuSans-105"/>
      <path d="M 18.3125 70.21875 
L 18.3125 54.6875 
L 36.8125 54.6875 
L 36.8125 47.703125 
L 18.3125 47.703125 
L 18.3125 18.015625 
Q 18.3125 11.328125 20.140625 9.421875 
Q 21.96875 7.515625 27.59375 7.515625 
L 36.8125 7.515625 
L 36.8125 0 
L 27.59375 0 
Q 17.1875 0 13.234375 3.875 
Q 9.28125 7.765625 9.28125 18.015625 
L 9.28125 47.703125 
L 2.6875 47.703125 
L 2.6875 54.6875 
L 9.28125 54.6875 
L 9.28125 70.21875 
z
" id="DejaVuSans-116"/>
      <path d="M 54.890625 33.015625 
L 54.890625 0 
L 45.90625 0 
L 45.90625 32.71875 
Q 45.90625 40.484375 42.875 44.328125 
Q 39.84375 48.1875 33.796875 48.1875 
Q 26.515625 48.1875 22.3125 43.546875 
Q 18.109375 38.921875 18.109375 30.90625 
L 18.109375 0 
L 9.078125 0 
L 9.078125 54.6875 
L 18.109375 54.6875 
L 18.109375 46.1875 
Q 21.34375 51.125 25.703125 53.5625 
Q 30.078125 56 35.796875 56 
Q 45.21875 56 50.046875 50.171875 
Q 54.890625 44.34375 54.890625 33.015625 
z
" id="DejaVuSans-110"/>
     </defs>
     <g transform="translate(479.045156 379.564837)scale(0.1 -0.1)">
      <use xlink:href="#DejaVuSans-82"/>
      <use x="69.419922" xlink:href="#DejaVuSans-101"/>
      <use x="130.943359" xlink:href="#DejaVuSans-97"/>
      <use x="192.222656" xlink:href="#DejaVuSans-100"/>
      <use x="255.699219" xlink:href="#DejaVuSans-32"/>
      <use x="287.486328" xlink:href="#DejaVuSans-80"/>
      <use x="347.742188" xlink:href="#DejaVuSans-111"/>
      <use x="408.923828" xlink:href="#DejaVuSans-115"/>
      <use x="461.023438" xlink:href="#DejaVuSans-105"/>
      <use x="488.806641" xlink:href="#DejaVuSans-116"/>
      <use x="528.015625" xlink:href="#DejaVuSans-105"/>
      <use x="555.798828" xlink:href="#DejaVuSans-111"/>
      <use x="616.980469" xlink:href="#DejaVuSans-110"/>
     </g>
    </g>
   </g>
   <g id="matplotlib.axis_2">
    <g id="ytick_1">
     <g id="line2d_1">
      <path clip-path="url(#p87a202a9e7)" d="M 32.968125 353.2239 
L 993.158125 353.2239 
" style="fill:none;stroke:#dedede;stroke-linecap:square;"/>
     </g>
     <g id="text_10">
      <!-- 0 -->
      <g transform="translate(20.878125 356.263275)scale(0.08 -0.08)">
       <use xlink:href="#DejaVuSans-48"/>
      </g>
     </g>
    </g>
    <g id="ytick_2">
     <g id="line2d_2">
      <path clip-path="url(#p87a202a9e7)" d="M 32.968125 289.6303 
L 993.158125 289.6303 
" style="fill:none;stroke:#dedede;stroke-linecap:square;"/>
     </g>
     <g id="text_11">
      <!-- 1 -->
      <g transform="translate(20.878125 292.669675)scale(0.08 -0.08)">
       <use xlink:href="#DejaVuSans-49"/>
      </g>
     </g>
    </g>
    <g id="ytick_3">
     <g id="line2d_3">
      <path clip-path="url(#p87a202a9e7)" d="M 32.968125 226.0367 
L 993.158125 226.0367 
" style="fill:none;stroke:#dedede;stroke-linecap:square;"/>
     </g>
     <g id="text_12">
      <!-- 2 -->
      <g transform="translate(20.878125 229.076075)scale(0.08 -0.08)">
       <use xlink:href="#DejaVuSans-50"/>
      </g>
     </g>
    </g>
    <g id="ytick_4">
     <g id="line2d_4">
      <path clip-path="url(#p87a202a9e7)" d="M 32.968125 162.4431 
L 993.158125 162.4431 
" style="fill:none;stroke:#dedede;stroke-linecap:square;"/>
     </g>
     <g id="text_13">
      <!-- 3 -->
      <defs>
       <path d="M 40.578125 39.3125 
Q 47.65625 37.796875 51.625 33 
Q 55.609375 28.21875 55.609375 21.1875 
Q 55.609375 10.40625 48.1875 4.484375 
Q 40.765625 -1.421875 27.09375 -1.421875 
Q 22.515625 -1.421875 17.65625 -0.515625 
Q 12.796875 0.390625 7.625 2.203125 
L 7.625 11.71875 
Q 11.71875 9.328125 16.59375 8.109375 
Q 21.484375 6.890625 26.8125 6.890625 
Q 36.078125 6.890625 40.9375 10.546875 
Q 45.796875 14.203125 45.796875 21.1875 
Q 45.796875 27.640625 41.28125 31.265625 
Q 36.765625 34.90625 28.71875 34.90625 
L 20.21875 34.90625 
L 20.21875 43.015625 
L 29.109375 43.015625 
Q 36.375 43.015625 40.234375 45.921875 
Q 44.09375 48.828125 44.09375 54.296875 
Q 44.09375 59.90625 40.109375 62.90625 
Q 36.140625 65.921875 28.71875 65.921875 
Q 24.65625 65.921875 20.015625 65.03125 
Q 15.375 64.15625 9.8125 62.3125 
L 9.8125 71.09375 
Q 15.4375 72.65625 20.34375 73.4375 
Q 25.25 74.21875 29.59375 74.21875 
Q 40.828125 74.21875 47.359375 69.109375 
Q 53.90625 64.015625 53.90625 55.328125 
Q 53.90625 49.265625 50.4375 45.09375 
Q 46.96875 40.921875 40.578125 39.3125 
z
" id="DejaVuSans-51"/>
      </defs>
      <g transform="translate(20.878125 165.482475)scale(0.08 -0.08)">
       <use xlink:href="#DejaVuSans-51"/>
      </g>
     </g>
    </g>
    <g id="ytick_5">
     <g id="line2d_5">
      <path clip-path="url(#p87a202a9e7)" d="M 32.968125 98.8495 
L 993.158125 98.8495 
" style="fill:none;stroke:#dedede;stroke-linecap:square;"/>
     </g>
     <g id="text_14">
      <!-- 4 -->
      <g transform="translate(20.878125 101.888875)scale(0.08 -0.08)">
       <use xlink:href="#DejaVuSans-52"/>
      </g>
     </g>
    </g>
    <g id="ytick_6">
     <g id="line2d_6">
      <path clip-path="url(#p87a202a9e7)" d="M 32.968125 35.2559 
L 993.158125 35.2559 
" style="fill:none;stroke:#dedede;stroke-linecap:square;"/>
     </g>
     <g id="text_15">
      <!-- 5 -->
      <defs>
       <path d="M 10.796875 72.90625 
L 49.515625 72.90625 
L 49.515625 64.59375 
L 19.828125 64.59375 
L 19.828125 46.734375 
Q 21.96875 47.46875 24.109375 47.828125 
Q 26.265625 48.1875 28.421875 48.1875 
Q 40.625 48.1875 47.75 41.5 
Q 54.890625 34.8125 54.890625 23.390625 
Q 54.890625 11.625 47.5625 5.09375 
Q 40.234375 -1.421875 26.90625 -1.421875 
Q 22.3125 -1.421875 17.546875 -0.640625 
Q 12.796875 0.140625 7.71875 1.703125 
L 7.71875 11.625 
Q 12.109375 9.234375 16.796875 8.0625 
Q 21.484375 6.890625 26.703125 6.890625 
Q 35.15625 6.890625 40.078125 11.328125 
Q 45.015625 15.765625 45.015625 23.390625 
Q 45.015625 31 40.078125 35.4375 
Q 35.15625 39.890625 26.703125 39.890625 
Q 22.75 39.890625 18.8125 39.015625 
Q 14.890625 38.140625 10.796875 36.28125 
z
" id="DejaVuSans-53"/>
      </defs>
      <g transform="translate(20.878125 38.295275)scale(0.08 -0.08)">
       <use xlink:href="#DejaVuSans-53"/>
      </g>
     </g>
    </g>
    <g id="text_16">
     <!-- R2 After filtering: Base Content Percent -->
     <defs>
      <path d="M 34.1875 63.1875 
L 20.796875 26.90625 
L 47.609375 26.90625 
z
M 28.609375 72.90625 
L 39.796875 72.90625 
L 67.578125 0 
L 57.328125 0 
L 50.6875 18.703125 
L 17.828125 18.703125 
L 11.1875 0 
L 0.78125 0 
z
" id="DejaVuSans-65"/>
      <path d="M 37.109375 75.984375 
L 37.109375 68.5 
L 28.515625 68.5 
Q 23.6875 68.5 21.796875 66.546875 
Q 19.921875 64.59375 19.921875 59.515625 
L 19.921875 54.6875 
L 34.71875 54.6875 
L 34.71875 47.703125 
L 19.921875 47.703125 
L 19.921875 0 
L 10.890625 0 
L 10.890625 47.703125 
L 2.296875 47.703125 
L 2.296875 54.6875 
L 10.890625 54.6875 
L 10.890625 58.5 
Q 10.890625 67.625 15.140625 71.796875 
Q 19.390625 75.984375 28.609375 75.984375 
z
" id="DejaVuSans-102"/>
      <path d="M 41.109375 46.296875 
Q 39.59375 47.171875 37.8125 47.578125 
Q 36.03125 48 33.890625 48 
Q 26.265625 48 22.1875 43.046875 
Q 18.109375 38.09375 18.109375 28.8125 
L 18.109375 0 
L 9.078125 0 
L 9.078125 54.6875 
L 18.109375 54.6875 
L 18.109375 46.1875 
Q 20.953125 51.171875 25.484375 53.578125 
Q 30.03125 56 36.53125 56 
Q 37.453125 56 38.578125 55.875 
Q 39.703125 55.765625 41.0625 55.515625 
z
" id="DejaVuSans-114"/>
      <path d="M 9.421875 75.984375 
L 18.40625 75.984375 
L 18.40625 0 
L 9.421875 0 
z
" id="DejaVuSans-108"/>
      <path d="M 45.40625 27.984375 
Q 45.40625 37.75 41.375 43.109375 
Q 37.359375 48.484375 30.078125 48.484375 
Q 22.859375 48.484375 18.828125 43.109375 
Q 14.796875 37.75 14.796875 27.984375 
Q 14.796875 18.265625 18.828125 12.890625 
Q 22.859375 7.515625 30.078125 7.515625 
Q 37.359375 7.515625 41.375 12.890625 
Q 45.40625 18.265625 45.40625 27.984375 
z
M 54.390625 6.78125 
Q 54.390625 -7.171875 48.1875 -13.984375 
Q 42 -20.796875 29.203125 -20.796875 
Q 24.46875 -20.796875 20.265625 -20.09375 
Q 16.0625 -19.390625 12.109375 -17.921875 
L 12.109375 -9.1875 
Q 16.0625 -11.328125 19.921875 -12.34375 
Q 23.78125 -13.375 27.78125 -13.375 
Q 36.625 -13.375 41.015625 -8.765625 
Q 45.40625 -4.15625 45.40625 5.171875 
L 45.40625 9.625 
Q 42.625 4.78125 38.28125 2.390625 
Q 33.9375 0 27.875 0 
Q 17.828125 0 11.671875 7.65625 
Q 5.515625 15.328125 5.515625 27.984375 
Q 5.515625 40.671875 11.671875 48.328125 
Q 17.828125 56 27.875 56 
Q 33.9375 56 38.28125 53.609375 
Q 42.625 51.21875 45.40625 46.390625 
L 45.40625 54.6875 
L 54.390625 54.6875 
z
" id="DejaVuSans-103"/>
      <path d="M 11.71875 12.40625 
L 22.015625 12.40625 
L 22.015625 0 
L 11.71875 0 
z
M 11.71875 51.703125 
L 22.015625 51.703125 
L 22.015625 39.3125 
L 11.71875 39.3125 
z
" id="DejaVuSans-58"/>
      <path d="M 19.671875 34.8125 
L 19.671875 8.109375 
L 35.5 8.109375 
Q 43.453125 8.109375 47.28125 11.40625 
Q 51.125 14.703125 51.125 21.484375 
Q 51.125 28.328125 47.28125 31.5625 
Q 43.453125 34.8125 35.5 34.8125 
z
M 19.671875 64.796875 
L 19.671875 42.828125 
L 34.28125 42.828125 
Q 41.5 42.828125 45.03125 45.53125 
Q 48.578125 48.25 48.578125 53.8125 
Q 48.578125 59.328125 45.03125 62.0625 
Q 41.5 64.796875 34.28125 64.796875 
z
M 9.8125 72.90625 
L 35.015625 72.90625 
Q 46.296875 72.90625 52.390625 68.21875 
Q 58.5 63.53125 58.5 54.890625 
Q 58.5 48.1875 55.375 44.234375 
Q 52.25 40.28125 46.1875 39.3125 
Q 53.46875 37.75 57.5 32.78125 
Q 61.53125 27.828125 61.53125 20.40625 
Q 61.53125 10.640625 54.890625 5.3125 
Q 48.25 0 35.984375 0 
L 9.8125 0 
z
" id="DejaVuSans-66"/>
      <path d="M 64.40625 67.28125 
L 64.40625 56.890625 
Q 59.421875 61.53125 53.78125 63.8125 
Q 48.140625 66.109375 41.796875 66.109375 
Q 29.296875 66.109375 22.65625 58.46875 
Q 16.015625 50.828125 16.015625 36.375 
Q 16.015625 21.96875 22.65625 14.328125 
Q 29.296875 6.6875 41.796875 6.6875 
Q 48.140625 6.6875 53.78125 8.984375 
Q 59.421875 11.28125 64.40625 15.921875 
L 64.40625 5.609375 
Q 59.234375 2.09375 53.4375 0.328125 
Q 47.65625 -1.421875 41.21875 -1.421875 
Q 24.65625 -1.421875 15.125 8.703125 
Q 5.609375 18.84375 5.609375 36.375 
Q 5.609375 53.953125 15.125 64.078125 
Q 24.65625 74.21875 41.21875 74.21875 
Q 47.75 74.21875 53.53125 72.484375 
Q 59.328125 70.75 64.40625 67.28125 
z
" id="DejaVuSans-67"/>
      <path d="M 48.78125 52.59375 
L 48.78125 44.1875 
Q 44.96875 46.296875 41.140625 47.34375 
Q 37.3125 48.390625 33.40625 48.390625 
Q 24.65625 48.390625 19.8125 42.84375 
Q 14.984375 37.3125 14.984375 27.296875 
Q 14.984375 17.28125 19.8125 11.734375 
Q 24.65625 6.203125 33.40625 6.203125 
Q 37.3125 6.203125 41.140625 7.25 
Q 44.96875 8.296875 48.78125 10.40625 
L 48.78125 2.09375 
Q 45.015625 0.34375 40.984375 -0.53125 
Q 36.96875 -1.421875 32.421875 -1.421875 
Q 20.0625 -1.421875 12.78125 6.34375 
Q 5.515625 14.109375 5.515625 27.296875 
Q 5.515625 40.671875 12.859375 48.328125 
Q 20.21875 56 33.015625 56 
Q 37.15625 56 41.109375 55.140625 
Q 45.0625 54.296875 48.78125 52.59375 
z
" id="DejaVuSans-99"/>
     </defs>
     <g transform="translate(14.798438 293.315681)rotate(-90)scale(0.1 -0.1)">
      <use xlink:href="#DejaVuSans-82"/>
      <use x="69.482422" xlink:href="#DejaVuSans-50"/>
      <use x="133.105469" xlink:href="#DejaVuSans-32"/>
      <use x="164.892578" xlink:href="#DejaVuSans-65"/>
      <use x="233.253906" xlink:href="#DejaVuSans-102"/>
      <use x="268.443359" xlink:href="#DejaVuSans-116"/>
      <use x="307.652344" xlink:href="#DejaVuSans-101"/>
      <use x="369.175781" xlink:href="#DejaVuSans-114"/>
      <use x="410.289062" xlink:href="#DejaVuSans-32"/>
      <use x="442.076172" xlink:href="#DejaVuSans-102"/>
      <use x="477.28125" xlink:href="#DejaVuSans-105"/>
      <use x="505.064453" xlink:href="#DejaVuSans-108"/>
      <use x="532.847656" xlink:href="#DejaVuSans-116"/>
      <use x="572.056641" xlink:href="#DejaVuSans-101"/>
      <use x="633.580078" xlink:href="#DejaVuSans-114"/>
      <use x="674.693359" xlink:href="#DejaVuSans-105"/>
      <use x="702.476562" xlink:href="#DejaVuSans-110"/>
      <use x="765.855469" xlink:href="#DejaVuSans-103"/>
      <use x="829.332031" xlink:href="#DejaVuSans-58"/>
      <use x="863.023438" xlink:href="#DejaVuSans-32"/>
      <use x="894.810547" xlink:href="#DejaVuSans-66"/>
      <use x="963.414062" xlink:href="#DejaVuSans-97"/>
      <use x="1024.693359" xlink:href="#DejaVuSans-115"/>
      <use x="1076.792969" xlink:href="#DejaVuSans-101"/>
      <use x="1138.316406" xlink:href="#DejaVuSans-32"/>
      <use x="1170.103516" xlink:href="#DejaVuSans-67"/>
      <use x="1239.927734" xlink:href="#DejaVuSans-111"/>
      <use x="1301.109375" xlink:href="#DejaVuSans-110"/>
      <use x="1364.488281" xlink:href="#DejaVuSans-116"/>
      <use x="1403.697266" xlink:href="#DejaVuSans-101"/>
      <use x="1465.220703" xlink:href="#DejaVuSans-110"/>
      <use x="1528.599609" xlink:href="#DejaVuSans-116"/>
      <use x="1567.808594" xlink:href="#DejaVuSans-32"/>
      <use x="1599.595703" xlink:href="#DejaVuSans-80"/>
      <use x="1659.851562" xlink:href="#DejaVuSans-101"/>
      <use x="1721.375" xlink:href="#DejaVuSans-114"/>
      <use x="1762.457031" xlink:href="#DejaVuSans-99"/>
      <use x="1817.4375" xlink:href="#DejaVuSans-101"/>
      <use x="1878.960938" xlink:href="#DejaVuSans-110"/>
      <use x="1942.339844" xlink:href="#DejaVuSans-116"/>
     </g>
    </g>
   </g>
   <g id="line2d_7">
    <path clip-path="url(#p87a202a9e7)" d="M 76.613125 340.957076 
L 82.471514 353.223642 
L 158.630575 353.222117 
L 164.488964 351.885496 
L 170.347353 353.2239 
L 199.639299 353.218096 
L 205.497689 352.394493 
L 211.356078 353.195235 
L 234.789635 353.217799 
L 258.223192 353.124513 
L 264.081581 353.097175 
L 275.79836 353.20446 
L 346.099031 353.21321 
L 363.674199 353.219823 
L 369.532588 353.004716 
L 375.390977 353.223164 
L 562.859434 353.139354 
L 574.576212 353.223738 
L 709.319165 353.22341 
L 715.177555 352.968532 
L 721.035944 353.223859 
L 855.778897 353.220875 
L 861.637286 353.067281 
L 873.354065 353.223132 
L 949.513125 353.2239 
L 949.513125 353.2239 
" style="fill:none;stroke:#7cb5ec;stroke-linecap:square;"/>
   </g>
   <g id="line2d_8">
    <path clip-path="url(#p87a202a9e7)" d="M 76.613125 334.185312 
L 82.471514 353.223504 
L 158.630575 353.221841 
L 164.488964 351.898069 
L 170.347353 353.223821 
L 199.639299 353.215427 
L 205.497689 352.405151 
L 211.356078 353.182725 
L 223.072857 353.2239 
L 240.648024 353.21709 
L 258.223192 353.134503 
L 264.081581 353.106631 
L 275.79836 353.206709 
L 334.382253 353.217855 
L 363.674199 353.219831 
L 369.532588 352.998142 
L 375.390977 353.222622 
L 480.841984 353.216439 
L 557.001044 353.222668 
L 562.859434 353.136548 
L 574.576212 353.2239 
L 697.602387 353.219262 
L 709.319165 353.223731 
L 715.177555 352.966072 
L 721.035944 353.223731 
L 855.778897 353.220776 
L 861.637286 353.06612 
L 873.354065 353.222942 
L 949.513125 353.2239 
L 949.513125 353.2239 
" style="fill:none;stroke:#434348;stroke-linecap:square;"/>
   </g>
   <g id="line2d_9">
    <path clip-path="url(#p87a202a9e7)" d="M 76.613125 325.884948 
L 82.471514 353.222894 
L 158.630575 353.221938 
L 164.488964 351.946305 
L 170.347353 353.2239 
L 199.639299 353.21082 
L 205.497689 352.421253 
L 211.356078 353.187427 
L 228.931246 353.189037 
L 252.364803 353.201513 
L 264.081581 353.10256 
L 275.79836 353.205631 
L 357.81581 353.210289 
L 363.674199 353.220002 
L 369.532588 353.009476 
L 375.390977 353.222937 
L 469.125206 353.222567 
L 709.319165 353.223474 
L 715.177555 352.97434 
L 721.035944 353.22374 
L 855.778897 353.220736 
L 861.637286 353.069838 
L 873.354065 353.222914 
L 949.513125 353.2239 
L 949.513125 353.2239 
" style="fill:none;stroke:#90ed7d;stroke-linecap:square;"/>
   </g>
   <g id="line2d_10">
    <path clip-path="url(#p87a202a9e7)" d="M 76.613125 346.998277 
L 82.471514 353.223869 
L 158.630575 353.223214 
L 164.488964 351.86486 
L 170.347353 353.2239 
L 199.639299 353.221219 
L 205.497689 352.387326 
L 211.356078 353.201359 
L 240.648024 353.220003 
L 258.223192 353.12086 
L 264.081581 353.092614 
L 275.79836 353.204378 
L 346.099031 353.213095 
L 363.674199 353.220213 
L 369.532588 353.002115 
L 375.390977 353.223306 
L 650.735273 353.223585 
L 709.319165 353.223584 
L 715.177555 352.963967 
L 721.035944 353.223868 
L 855.778897 353.220782 
L 861.637286 353.064746 
L 873.354065 353.223008 
L 949.513125 353.2239 
L 949.513125 353.2239 
" style="fill:none;stroke:#f7a35c;stroke-linecap:square;"/>
   </g>
   <g id="line2d_11">
    <path clip-path="url(#p87a202a9e7)" d="M 76.613125 341.418066 
L 82.471514 353.223636 
L 158.630575 353.222813 
L 164.488964 351.88086 
L 170.347353 353.223871 
L 199.639299 353.218027 
L 205.497689 352.393482 
L 211.356078 353.190628 
L 234.789635 353.217939 
L 258.223192 353.128283 
L 264.081581 353.099182 
L 275.79836 353.204217 
L 357.81581 353.209299 
L 363.674199 353.219444 
L 369.532588 353.001617 
L 375.390977 353.223162 
L 580.434602 353.220471 
L 709.319165 353.223382 
L 715.177555 352.958172 
L 721.035944 353.223778 
L 855.778897 353.220211 
L 861.637286 353.062139 
L 873.354065 353.222408 
L 949.513125 353.2239 
L 949.513125 353.2239 
" style="fill:none;stroke:#8085e9;stroke-linecap:square;"/>
   </g>
   <g id="line2d_12">
    <path clip-path="url(#p87a202a9e7)" d="M 76.613125 328.242998 
L 82.471514 353.223558 
L 158.630575 353.220538 
L 164.488964 351.948365 
L 170.347353 353.2239 
L 199.639299 353.210282 
L 205.497689 352.42739 
L 211.356078 353.184186 
L 223.072857 353.2239 
L 240.648024 353.214214 
L 258.223192 353.133132 
L 264.081581 353.103845 
L 275.79836 353.206058 
L 357.81581 353.210084 
L 363.674199 353.219827 
L 369.532588 353.009878 
L 375.390977 353.222981 
L 463.266816 353.218906 
L 557.001044 353.22278 
L 562.859434 353.14124 
L 574.576212 353.223723 
L 703.460776 353.220996 
L 709.319165 353.223355 
L 715.177555 352.972023 
L 721.035944 353.223779 
L 855.778897 353.220916 
L 861.637286 353.071033 
L 873.354065 353.223089 
L 949.513125 353.2239 
L 949.513125 353.2239 
" style="fill:none;stroke:#f15c80;stroke-linecap:square;"/>
   </g>
   <g id="line2d_13">
    <path clip-path="url(#p87a202a9e7)" d="M 76.613125 336.201865 
L 82.471514 353.223695 
L 158.630575 353.221991 
L 164.488964 351.931201 
L 170.347353 353.2239 
L 199.639299 353.21456 
L 205.497689 352.423549 
L 211.356078 353.197585 
L 234.789635 353.215242 
L 258.223192 353.127367 
L 264.081581 353.098666 
L 275.79836 353.20351 
L 346.099031 353.21392 
L 363.674199 353.218975 
L 369.532588 353.008839 
L 375.390977 353.223147 
L 539.425877 353.223485 
L 709.319165 353.22362 
L 715.177555 352.975966 
L 721.035944 353.22369 
L 855.778897 353.221347 
L 861.637286 353.070271 
L 873.354065 353.223047 
L 949.513125 353.2239 
L 949.513125 353.2239 
" style="fill:none;stroke:#e4d354;stroke-linecap:square;"/>
   </g>
   <g id="line2d_14">
    <path clip-path="url(#p87a202a9e7)" d="M 76.613125 353.147772 
L 88.329904 353.2239 
L 158.630575 353.2239 
L 164.488964 351.815499 
L 170.347353 353.2239 
L 199.639299 353.2239 
L 205.497689 352.356706 
L 211.356078 353.195842 
L 234.789635 353.222304 
L 258.223192 353.126762 
L 264.081581 353.099435 
L 275.79836 353.202352 
L 363.674199 353.219566 
L 369.532588 352.98786 
L 375.390977 353.2233 
L 709.319165 353.223629 
L 715.177555 352.944835 
L 721.035944 353.223832 
L 855.778897 353.219598 
L 861.637286 353.053519 
L 873.354065 353.222805 
L 949.513125 353.2239 
L 949.513125 353.2239 
" style="fill:none;stroke:#2b908f;stroke-linecap:square;"/>
   </g>
   <g id="line2d_15">
    <path clip-path="url(#p87a202a9e7)" d="M 76.613125 339.933855 
L 82.471514 353.223626 
L 158.630575 353.222941 
L 164.488964 351.915652 
L 170.347353 353.2239 
L 199.639299 353.218011 
L 205.497689 352.422684 
L 211.356078 353.194864 
L 234.789635 353.217326 
L 258.223192 353.127069 
L 264.081581 353.098581 
L 275.79836 353.204856 
L 328.523863 353.219783 
L 363.674199 353.219502 
L 369.532588 353.00284 
L 375.390977 353.2228 
L 709.319165 353.223056 
L 715.177555 352.960049 
L 721.035944 353.223759 
L 855.778897 353.220906 
L 861.637286 353.064708 
L 873.354065 353.222042 
L 949.513125 353.2239 
L 949.513125 353.2239 
" style="fill:none;stroke:#f45b5b;stroke-linecap:square;"/>
   </g>
   <g id="line2d_16">
    <path clip-path="url(#p87a202a9e7)" d="M 76.613125 330.625278 
L 82.471514 353.2239 
L 158.630575 353.222838 
L 164.488964 351.935386 
L 170.347353 353.2239 
L 199.639299 353.215405 
L 205.497689 352.434971 
L 211.356078 353.18302 
L 223.072857 353.2239 
L 234.789635 353.213282 
L 258.223192 353.132584 
L 264.081581 353.10126 
L 275.79836 353.205309 
L 363.674199 353.218018 
L 369.532588 353.011467 
L 375.390977 353.2239 
L 439.833259 353.220662 
L 557.001044 353.2239 
L 562.859434 353.125131 
L 574.576212 353.2239 
L 709.319165 353.22334 
L 715.177555 352.962227 
L 721.035944 353.2239 
L 855.778897 353.221046 
L 861.637286 353.066227 
L 873.354065 353.2239 
L 949.513125 353.2239 
L 949.513125 353.2239 
" style="fill:none;stroke:#91e8e1;stroke-linecap:square;"/>
   </g>
   <g id="line2d_17">
    <path clip-path="url(#p87a202a9e7)" d="M 76.613125 339.034324 
L 82.471514 353.223772 
L 158.630575 353.222302 
L 164.488964 351.9064 
L 170.347353 353.2239 
L 199.639299 353.216484 
L 205.497689 352.411562 
L 211.356078 353.19852 
L 240.648024 353.217315 
L 258.223192 353.132547 
L 264.081581 353.106399 
L 275.79836 353.204396 
L 369.532588 353.008535 
L 375.390977 353.222937 
L 545.284266 353.223188 
L 709.319165 353.223312 
L 715.177555 352.968793 
L 721.035944 353.223835 
L 855.778897 353.220134 
L 861.637286 353.067488 
L 873.354065 353.223503 
L 949.513125 353.2239 
L 949.513125 353.2239 
" style="fill:none;stroke:#7cb5ec;stroke-linecap:square;"/>
   </g>
   <g id="line2d_18">
    <path clip-path="url(#p87a202a9e7)" d="M 76.613125 340.833323 
L 82.471514 353.2239 
L 158.630575 353.222285 
L 164.488964 351.875569 
L 170.347353 353.2239 
L 199.639299 353.219286 
L 205.497689 352.376611 
L 211.356078 353.183531 
L 223.072857 353.2239 
L 240.648024 353.218825 
L 258.223192 353.127706 
L 264.081581 353.100947 
L 275.79836 353.206823 
L 328.523863 353.217653 
L 363.674199 353.219029 
L 369.532588 352.989545 
L 375.390977 353.223668 
L 515.99232 353.193528 
L 539.425877 353.223664 
L 709.319165 353.223417 
L 715.177555 352.944301 
L 721.035944 353.2239 
L 855.778897 353.220703 
L 861.637286 353.054795 
L 873.354065 353.22242 
L 949.513125 353.2239 
L 949.513125 353.2239 
" style="fill:none;stroke:#434348;stroke-linecap:square;"/>
   </g>
   <g id="line2d_19">
    <path clip-path="url(#p87a202a9e7)" d="M 76.613125 325.75191 
L 82.471514 353.2239 
L 158.630575 353.220742 
L 164.488964 351.904708 
L 170.347353 353.2239 
L 199.639299 353.208108 
L 205.497689 352.403746 
L 211.356078 353.172838 
L 223.072857 353.2239 
L 240.648024 353.208634 
L 258.223192 353.148623 
L 264.081581 353.11967 
L 275.79836 353.206518 
L 334.382253 353.218074 
L 363.674199 353.218581 
L 369.532588 353.02587 
L 375.390977 353.223367 
L 439.833259 353.216351 
L 510.13393 353.2239 
L 521.850709 353.223351 
L 709.319165 353.223326 
L 715.177555 352.976352 
L 721.035944 353.2239 
L 855.778897 353.219747 
L 861.637286 353.070629 
L 873.354065 353.222708 
L 949.513125 353.2239 
L 949.513125 353.2239 
" style="fill:none;stroke:#90ed7d;stroke-linecap:square;"/>
   </g>
   <g id="line2d_20">
    <path clip-path="url(#p87a202a9e7)" d="M 76.613125 329.856495 
L 82.471514 353.22325 
L 158.630575 353.220325 
L 164.488964 351.943589 
L 170.347353 353.2239 
L 199.639299 353.212524 
L 205.497689 352.439918 
L 211.356078 353.190421 
L 228.931246 353.194322 
L 252.364803 353.199847 
L 264.081581 353.102987 
L 275.79836 353.206017 
L 316.807085 353.191338 
L 351.95742 353.220312 
L 363.674199 353.220309 
L 369.532588 353.032525 
L 375.390977 353.223247 
L 463.266816 353.21929 
L 709.319165 353.222879 
L 715.177555 352.978327 
L 721.035944 353.2239 
L 949.513125 353.2239 
L 949.513125 353.2239 
" style="fill:none;stroke:#f7a35c;stroke-linecap:square;"/>
   </g>
   <g id="line2d_21">
    <path clip-path="url(#p87a202a9e7)" d="M 76.613125 322.911883 
L 82.471514 353.2239 
L 158.630575 353.214997 
L 164.488964 351.966724 
L 170.347353 353.2239 
L 199.639299 353.211435 
L 205.497689 352.417241 
L 211.356078 353.175821 
L 223.072857 353.2239 
L 246.506414 353.221229 
L 293.373528 353.165949 
L 351.95742 353.21942 
L 363.674199 353.219415 
L 369.532588 353.036283 
L 375.390977 353.2239 
L 428.116481 353.219376 
L 709.319165 353.2239 
L 715.177555 353.002957 
L 721.035944 353.2239 
L 855.778897 353.221933 
L 861.637286 353.086993 
L 873.354065 353.2239 
L 949.513125 353.2239 
L 949.513125 353.2239 
" style="fill:none;stroke:#8085e9;stroke-linecap:square;"/>
   </g>
   <g id="line2d_22">
    <path clip-path="url(#p87a202a9e7)" d="M 76.613125 329.200082 
L 82.471514 353.223711 
L 158.630575 353.221105 
L 164.488964 351.951169 
L 170.347353 353.223853 
L 199.639299 353.210163 
L 205.497689 352.438347 
L 211.356078 353.187474 
L 228.931246 353.187806 
L 252.364803 353.200832 
L 264.081581 353.101312 
L 275.79836 353.203192 
L 363.674199 353.220326 
L 369.532588 353.014928 
L 375.390977 353.223184 
L 492.558763 353.22332 
L 709.319165 353.2235 
L 715.177555 352.974086 
L 721.035944 353.2238 
L 855.778897 353.22124 
L 861.637286 353.077953 
L 873.354065 353.222925 
L 949.513125 353.2239 
L 949.513125 353.2239 
" style="fill:none;stroke:#f15c80;stroke-linecap:square;"/>
   </g>
   <g id="line2d_23">
    <path clip-path="url(#p87a202a9e7)" d="M 76.613125 347.560451 
L 82.471514 353.223869 
L 158.630575 353.223304 
L 164.488964 351.855455 
L 170.347353 353.223892 
L 199.639299 353.221245 
L 205.497689 352.382868 
L 211.356078 353.200123 
L 240.648024 353.220541 
L 258.223192 353.125139 
L 264.081581 353.098731 
L 275.79836 353.203631 
L 346.099031 353.212887 
L 363.674199 353.220059 
L 369.532588 352.997051 
L 375.390977 353.223209 
L 592.15138 353.223321 
L 709.319165 353.223538 
L 715.177555 352.955254 
L 721.035944 353.223837 
L 855.778897 353.220689 
L 861.637286 353.059991 
L 873.354065 353.223002 
L 949.513125 353.2239 
L 949.513125 353.2239 
" style="fill:none;stroke:#e4d354;stroke-linecap:square;"/>
   </g>
   <g id="line2d_24">
    <path clip-path="url(#p87a202a9e7)" d="M 76.613125 324.309289 
L 82.471514 353.222683 
L 158.630575 353.219686 
L 164.488964 351.943627 
L 170.347353 353.2239 
L 199.639299 353.210789 
L 205.497689 352.424885 
L 211.356078 353.187845 
L 228.931246 353.188969 
L 252.364803 353.200862 
L 264.081581 353.109461 
L 275.79836 353.207785 
L 322.665474 353.210088 
L 363.674199 353.219749 
L 369.532588 353.004712 
L 375.390977 353.22305 
L 492.558763 353.223323 
L 709.319165 353.2234 
L 715.177555 352.971516 
L 721.035944 353.2239 
L 855.778897 353.221431 
L 861.637286 353.070021 
L 873.354065 353.223074 
L 949.513125 353.2239 
L 949.513125 353.2239 
" style="fill:none;stroke:#2b908f;stroke-linecap:square;"/>
   </g>
   <g id="line2d_25">
    <path clip-path="url(#p87a202a9e7)" d="M 76.613125 339.188284 
L 82.471514 353.223788 
L 158.630575 353.222093 
L 164.488964 351.89749 
L 170.347353 353.223878 
L 199.639299 353.21761 
L 205.497689 352.404268 
L 211.356078 353.196799 
L 234.789635 353.216115 
L 258.223192 353.126872 
L 264.081581 353.099704 
L 275.79836 353.204934 
L 346.099031 353.212962 
L 363.674199 353.220072 
L 369.532588 353.004399 
L 375.390977 353.223228 
L 539.425877 353.223742 
L 709.319165 353.223556 
L 715.177555 352.962965 
L 721.035944 353.223808 
L 855.778897 353.220741 
L 861.637286 353.065602 
L 873.354065 353.222689 
L 949.513125 353.2239 
L 949.513125 353.2239 
" style="fill:none;stroke:#f45b5b;stroke-linecap:square;"/>
   </g>
   <g id="line2d_26">
    <path clip-path="url(#p87a202a9e7)" d="M 76.613125 352.583659 
L 82.471514 353.2239 
L 158.630575 353.223802 
L 164.488964 351.812078 
L 170.347353 353.2239 
L 199.639299 353.223459 
L 205.497689 352.356789 
L 211.356078 353.198964 
L 240.648024 353.221353 
L 258.223192 353.122345 
L 264.081581 353.096283 
L 275.79836 353.202143 
L 334.382253 353.218699 
L 363.674199 353.220315 
L 369.532588 352.997521 
L 375.390977 353.223065 
L 615.584937 353.169432 
L 633.160105 353.223801 
L 709.319165 353.223701 
L 715.177555 352.955501 
L 721.035944 353.2238 
L 855.778897 353.22024 
L 861.637286 353.061331 
L 873.354065 353.223197 
L 949.513125 353.2239 
L 949.513125 353.2239 
" style="fill:none;stroke:#91e8e1;stroke-linecap:square;"/>
   </g>
   <g id="line2d_27">
    <path clip-path="url(#p87a202a9e7)" d="M 76.613125 344.440288 
L 82.471514 353.223854 
L 158.630575 353.223022 
L 164.488964 351.877172 
L 170.347353 353.2239 
L 199.639299 353.219879 
L 205.497689 352.395943 
L 211.356078 353.202687 
L 246.506414 353.220295 
L 281.656749 353.195952 
L 363.674199 353.219848 
L 369.532588 352.998537 
L 375.390977 353.223182 
L 592.15138 353.223504 
L 709.319165 353.223433 
L 715.177555 352.957517 
L 721.035944 353.223853 
L 855.778897 353.22042 
L 861.637286 353.063259 
L 873.354065 353.223076 
L 949.513125 353.2239 
L 949.513125 353.2239 
" style="fill:none;stroke:#7cb5ec;stroke-linecap:square;"/>
   </g>
   <g id="line2d_28">
    <path clip-path="url(#p87a202a9e7)" d="M 76.613125 353.222516 
L 158.630575 353.2239 
L 164.488964 351.826615 
L 170.347353 353.2239 
L 199.639299 353.2239 
L 205.497689 352.367212 
L 211.356078 353.201009 
L 240.648024 353.221968 
L 258.223192 353.1238 
L 264.081581 353.098101 
L 275.79836 353.203017 
L 346.099031 353.212786 
L 363.674199 353.22029 
L 369.532588 352.993411 
L 375.390977 353.223282 
L 650.735273 353.223803 
L 709.319165 353.223581 
L 715.177555 352.950292 
L 721.035944 353.223845 
L 855.778897 353.220848 
L 861.637286 353.056338 
L 873.354065 353.222895 
L 949.513125 353.2239 
L 949.513125 353.2239 
" style="fill:none;stroke:#434348;stroke-linecap:square;"/>
   </g>
   <g id="line2d_29">
    <path clip-path="url(#p87a202a9e7)" d="M 76.613125 342.462019 
L 82.471514 353.223825 
L 158.630575 353.222454 
L 164.488964 351.875837 
L 170.347353 353.223862 
L 199.639299 353.2187 
L 205.497689 352.389368 
L 211.356078 353.196452 
L 234.789635 353.217329 
L 258.223192 353.126837 
L 264.081581 353.100853 
L 275.79836 353.204913 
L 340.240642 353.214943 
L 363.674199 353.219511 
L 369.532588 353.004073 
L 375.390977 353.223033 
L 562.859434 353.138031 
L 574.576212 353.223862 
L 709.319165 353.22365 
L 715.177555 352.962796 
L 721.035944 353.223881 
L 855.778897 353.220944 
L 861.637286 353.064286 
L 873.354065 353.223023 
L 949.513125 353.2239 
L 949.513125 353.2239 
" style="fill:none;stroke:#90ed7d;stroke-linecap:square;"/>
   </g>
   <g id="line2d_30">
    <path clip-path="url(#p87a202a9e7)" d="M 76.613125 340.404702 
L 82.471514 353.223664 
L 158.630575 353.222336 
L 164.488964 351.89714 
L 170.347353 353.2239 
L 199.639299 353.218094 
L 205.497689 352.405291 
L 211.356078 353.199218 
L 240.648024 353.217194 
L 258.223192 353.12742 
L 264.081581 353.101817 
L 275.79836 353.204118 
L 346.099031 353.21256 
L 363.674199 353.220247 
L 369.532588 353.007393 
L 375.390977 353.223233 
L 515.99232 353.193106 
L 539.425877 353.223596 
L 709.319165 353.22344 
L 715.177555 352.965582 
L 721.035944 353.223856 
L 855.778897 353.220376 
L 861.637286 353.066967 
L 873.354065 353.223234 
L 949.513125 353.2239 
L 949.513125 353.2239 
" style="fill:none;stroke:#f7a35c;stroke-linecap:square;"/>
   </g>
   <g id="line2d_31">
    <path clip-path="url(#p87a202a9e7)" d="M 76.613125 346.083992 
L 82.471514 353.223876 
L 158.630575 353.222906 
L 164.488964 351.863041 
L 170.347353 353.2239 
L 199.639299 353.220628 
L 205.497689 352.386054 
L 211.356078 353.200027 
L 240.648024 353.220071 
L 258.223192 353.124383 
L 264.081581 353.098474 
L 275.79836 353.204699 
L 346.099031 353.212464 
L 363.674199 353.219309 
L 369.532588 353.001552 
L 375.390977 353.222928 
L 644.876883 353.22319 
L 709.319165 353.223655 
L 715.177555 352.957695 
L 721.035944 353.2239 
L 855.778897 353.221011 
L 861.637286 353.061722 
L 873.354065 353.223034 
L 949.513125 353.2239 
L 949.513125 353.2239 
" style="fill:none;stroke:#8085e9;stroke-linecap:square;"/>
   </g>
   <g id="line2d_32">
    <path clip-path="url(#p87a202a9e7)" d="M 76.613125 330.637806 
L 82.471514 353.223619 
L 158.630575 353.220853 
L 164.488964 351.927366 
L 170.347353 353.2239 
L 199.639299 353.212994 
L 205.497689 352.413349 
L 211.356078 353.185971 
L 228.931246 353.189499 
L 252.364803 353.201768 
L 264.081581 353.105741 
L 275.79836 353.20589 
L 357.81581 353.210631 
L 363.674199 353.219461 
L 369.532588 353.011649 
L 375.390977 353.223173 
L 469.125206 353.221817 
L 709.319165 353.223476 
L 715.177555 352.974966 
L 721.035944 353.2239 
L 855.778897 353.220859 
L 861.637286 353.071743 
L 873.354065 353.222941 
L 949.513125 353.2239 
L 949.513125 353.2239 
" style="fill:none;stroke:#f15c80;stroke-linecap:square;"/>
   </g>
   <g id="line2d_33">
    <path clip-path="url(#p87a202a9e7)" d="M 76.613125 336.908898 
L 82.471514 353.223693 
L 158.630575 353.221866 
L 164.488964 351.893643 
L 170.347353 353.2239 
L 199.639299 353.215316 
L 205.497689 352.405927 
L 211.356078 353.190081 
L 234.789635 353.216281 
L 258.223192 353.12751 
L 264.081581 353.100792 
L 275.79836 353.204173 
L 346.099031 353.211651 
L 363.674199 353.219119 
L 369.532588 353.00431 
L 375.390977 353.222929 
L 498.417152 353.222883 
L 709.319165 353.223505 
L 715.177555 352.965024 
L 721.035944 353.223864 
L 855.778897 353.221164 
L 861.637286 353.065766 
L 873.354065 353.223168 
L 949.513125 353.2239 
L 949.513125 353.2239 
" style="fill:none;stroke:#e4d354;stroke-linecap:square;"/>
   </g>
   <g id="line2d_34">
    <path clip-path="url(#p87a202a9e7)" d="M 76.613125 332.29035 
L 82.471514 353.223689 
L 158.630575 353.220647 
L 164.488964 351.891557 
L 170.347353 353.223858 
L 199.639299 353.212747 
L 205.497689 352.401037 
L 211.356078 353.185203 
L 223.072857 353.2239 
L 240.648024 353.216592 
L 258.223192 353.130959 
L 264.081581 353.103331 
L 275.79836 353.205642 
L 340.240642 353.215075 
L 363.674199 353.219351 
L 369.532588 353.009117 
L 375.390977 353.223006 
L 480.841984 353.21597 
L 557.001044 353.222898 
L 562.859434 353.141095 
L 574.576212 353.223682 
L 709.319165 353.223588 
L 715.177555 352.972928 
L 721.035944 353.223855 
L 855.778897 353.221071 
L 861.637286 353.072964 
L 873.354065 353.22303 
L 949.513125 353.2239 
L 949.513125 353.2239 
" style="fill:none;stroke:#2b908f;stroke-linecap:square;"/>
   </g>
   <g id="line2d_35">
    <path clip-path="url(#p87a202a9e7)" d="M 76.613125 329.310353 
L 82.471514 353.223644 
L 158.630575 353.221424 
L 164.488964 351.935678 
L 170.347353 353.2239 
L 199.639299 353.211181 
L 205.497689 352.422761 
L 211.356078 353.19095 
L 234.789635 353.212717 
L 258.223192 353.1335 
L 264.081581 353.103367 
L 275.79836 353.205197 
L 357.81581 353.2112 
L 363.674199 353.218921 
L 369.532588 353.015188 
L 375.390977 353.223213 
L 486.700373 353.223639 
L 709.319165 353.223541 
L 715.177555 352.978595 
L 721.035944 353.22381 
L 855.778897 353.221241 
L 861.637286 353.071553 
L 873.354065 353.222796 
L 949.513125 353.2239 
L 949.513125 353.2239 
" style="fill:none;stroke:#f45b5b;stroke-linecap:square;"/>
   </g>
   <g id="line2d_36">
    <path clip-path="url(#p87a202a9e7)" d="M 76.613125 343.719836 
L 82.471514 353.223841 
L 158.630575 353.222922 
L 164.488964 351.871868 
L 170.347353 353.2239 
L 199.639299 353.220256 
L 205.497689 352.393673 
L 211.356078 353.197263 
L 234.789635 353.218567 
L 258.223192 353.124403 
L 264.081581 353.098922 
L 275.79836 353.203805 
L 346.099031 353.212411 
L 363.674199 353.21989 
L 369.532588 353.002226 
L 375.390977 353.22286 
L 633.160105 353.22375 
L 709.319165 353.223599 
L 715.177555 352.961357 
L 721.035944 353.22384 
L 855.778897 353.221017 
L 861.637286 353.065881 
L 873.354065 353.223018 
L 949.513125 353.2239 
L 949.513125 353.2239 
" style="fill:none;stroke:#91e8e1;stroke-linecap:square;"/>
   </g>
   <g id="line2d_37">
    <path clip-path="url(#p87a202a9e7)" d="M 76.613125 323.569568 
L 82.471514 353.223242 
L 158.630575 353.220278 
L 164.488964 351.944104 
L 170.347353 353.2239 
L 199.639299 353.211059 
L 205.497689 352.419212 
L 211.356078 353.178793 
L 223.072857 353.2239 
L 240.648024 353.213364 
L 258.223192 353.132697 
L 264.081581 353.111296 
L 275.79836 353.206768 
L 346.099031 353.211293 
L 363.674199 353.221239 
L 369.532588 353.021512 
L 375.390977 353.222567 
L 469.125206 353.222545 
L 709.319165 353.223188 
L 715.177555 352.998387 
L 721.035944 353.2239 
L 855.778897 353.2228 
L 861.637286 353.082872 
L 873.354065 353.222058 
L 949.513125 353.2239 
L 949.513125 353.2239 
" style="fill:none;stroke:#7cb5ec;stroke-linecap:square;"/>
   </g>
   <g id="line2d_38">
    <path clip-path="url(#p87a202a9e7)" d="M 76.613125 323.236656 
L 82.471514 353.22291 
L 158.630575 353.219443 
L 164.488964 351.974966 
L 170.347353 353.2239 
L 199.639299 353.209539 
L 205.497689 352.432052 
L 211.356078 353.180321 
L 223.072857 353.2239 
L 240.648024 353.213005 
L 258.223192 353.139218 
L 264.081581 353.106534 
L 275.79836 353.208539 
L 334.382253 353.217924 
L 363.674199 353.218902 
L 369.532588 353.026329 
L 375.390977 353.222899 
L 515.99232 353.193634 
L 539.425877 353.2239 
L 709.319165 353.2239 
L 715.177555 352.994136 
L 721.035944 353.223364 
L 855.778897 353.222795 
L 861.637286 353.08722 
L 873.354065 353.221679 
L 949.513125 353.2239 
L 949.513125 353.2239 
" style="fill:none;stroke:#434348;stroke-linecap:square;"/>
   </g>
   <g id="line2d_39">
    <path clip-path="url(#p87a202a9e7)" d="M 76.613125 323.295162 
L 82.471514 353.222733 
L 158.630575 353.220787 
L 164.488964 351.944117 
L 170.347353 353.2239 
L 199.639299 353.207947 
L 205.497689 352.433228 
L 211.356078 353.182265 
L 223.072857 353.2239 
L 240.648024 353.211059 
L 258.223192 353.133238 
L 264.081581 353.109113 
L 275.79836 353.206383 
L 340.240642 353.216082 
L 363.674199 353.221549 
L 369.532588 353.01923 
L 375.390977 353.223115 
L 445.691648 353.223504 
L 709.319165 353.223064 
L 715.177555 352.986093 
L 721.035944 353.2239 
L 855.778897 353.220885 
L 861.637286 353.069965 
L 873.354065 353.223035 
L 949.513125 353.2239 
L 949.513125 353.2239 
" style="fill:none;stroke:#90ed7d;stroke-linecap:square;"/>
   </g>
   <g id="line2d_40">
    <path clip-path="url(#p87a202a9e7)" d="M 76.613125 325.59477 
L 82.471514 353.223193 
L 158.630575 353.220789 
L 164.488964 351.96516 
L 170.347353 353.2239 
L 199.639299 353.212447 
L 205.497689 352.434328 
L 211.356078 353.188409 
L 228.931246 353.188267 
L 252.364803 353.200852 
L 264.081581 353.105124 
L 275.79836 353.203388 
L 363.674199 353.21977 
L 369.532588 353.007007 
L 375.390977 353.223615 
L 463.266816 353.217836 
L 557.001044 353.222579 
L 562.859434 353.135911 
L 574.576212 353.223753 
L 709.319165 353.223447 
L 715.177555 352.96747 
L 721.035944 353.223597 
L 855.778897 353.220025 
L 861.637286 353.070109 
L 873.354065 353.222344 
L 949.513125 353.2239 
L 949.513125 353.2239 
" style="fill:none;stroke:#f7a35c;stroke-linecap:square;"/>
   </g>
   <g id="line2d_41">
    <path clip-path="url(#p87a202a9e7)" d="M 76.613125 341.734126 
L 82.471514 353.223875 
L 158.630575 353.222899 
L 164.488964 351.879703 
L 170.347353 353.2239 
L 199.639299 353.218369 
L 205.497689 352.39649 
L 211.356078 353.198272 
L 240.648024 353.218769 
L 258.223192 353.127594 
L 264.081581 353.098612 
L 275.79836 353.204798 
L 334.382253 353.219261 
L 363.674199 353.219959 
L 369.532588 353.004781 
L 375.390977 353.223021 
L 562.859434 353.13881 
L 574.576212 353.223773 
L 709.319165 353.223491 
L 715.177555 352.965711 
L 721.035944 353.223849 
L 855.778897 353.220564 
L 861.637286 353.063806 
L 873.354065 353.223097 
L 949.513125 353.2239 
L 949.513125 353.2239 
" style="fill:none;stroke:#8085e9;stroke-linecap:square;"/>
   </g>
   <g id="line2d_42">
    <path clip-path="url(#p87a202a9e7)" d="M 76.613125 322.805173 
L 82.471514 353.223506 
L 158.630575 353.221538 
L 164.488964 351.919061 
L 170.347353 353.2239 
L 199.639299 353.205794 
L 205.497689 352.410296 
L 211.356078 353.185719 
L 223.072857 353.2239 
L 240.648024 353.20973 
L 252.364803 353.205006 
L 264.081581 353.097549 
L 275.79836 353.207361 
L 322.665474 353.211657 
L 363.674199 353.22033 
L 369.532588 353.007584 
L 375.390977 353.223503 
L 451.550038 353.2239 
L 709.319165 353.222622 
L 715.177555 352.975955 
L 721.035944 353.223473 
L 855.778897 353.221692 
L 861.637286 353.069579 
L 873.354065 353.2239 
L 949.513125 353.2239 
L 949.513125 353.2239 
" style="fill:none;stroke:#f15c80;stroke-linecap:square;"/>
   </g>
   <g id="line2d_43">
    <path clip-path="url(#p87a202a9e7)" d="M 76.613125 332.817223 
L 82.471514 353.223631 
L 158.630575 353.221819 
L 164.488964 351.927805 
L 170.347353 353.2239 
L 199.639299 353.214435 
L 205.497689 352.424039 
L 211.356078 353.1949 
L 234.789635 353.214703 
L 258.223192 353.134885 
L 264.081581 353.105348 
L 275.79836 353.205164 
L 346.099031 353.212385 
L 363.674199 353.219721 
L 369.532588 353.009615 
L 375.390977 353.223293 
L 480.841984 353.217167 
L 557.001044 353.222597 
L 562.859434 353.141305 
L 574.576212 353.223831 
L 709.319165 353.223481 
L 715.177555 352.971412 
L 721.035944 353.22376 
L 855.778897 353.221341 
L 861.637286 353.073062 
L 873.354065 353.223258 
L 949.513125 353.2239 
L 949.513125 353.2239 
" style="fill:none;stroke:#e4d354;stroke-linecap:square;"/>
   </g>
   <g id="line2d_44">
    <path clip-path="url(#p87a202a9e7)" d="M 76.613125 300.919054 
L 82.471514 353.222643 
L 158.630575 353.217614 
L 164.488964 352.011863 
L 170.347353 353.2239 
L 199.639299 353.198754 
L 205.497689 352.477063 
L 211.356078 353.182409 
L 223.072857 353.2239 
L 240.648024 353.201269 
L 258.223192 353.150977 
L 264.081581 353.114515 
L 275.79836 353.206289 
L 392.966145 353.211155 
L 445.691648 353.222612 
L 709.319165 353.2239 
L 715.177555 353.000947 
L 721.035944 353.2239 
L 949.513125 353.2239 
L 949.513125 353.2239 
" style="fill:none;stroke:#2b908f;stroke-linecap:square;"/>
   </g>
   <g id="line2d_45">
    <path clip-path="url(#p87a202a9e7)" d="M 76.613125 327.742262 
L 82.471514 353.223438 
L 158.630575 353.221284 
L 164.488964 351.929802 
L 170.347353 353.223746 
L 199.639299 353.209745 
L 205.497689 352.414913 
L 211.356078 353.187743 
L 228.931246 353.188051 
L 252.364803 353.200975 
L 264.081581 353.10666 
L 275.79836 353.205276 
L 387.107756 353.208845 
L 557.001044 353.223423 
L 562.859434 353.143482 
L 574.576212 353.22374 
L 709.319165 353.2239 
L 715.177555 352.980143 
L 721.035944 353.223736 
L 855.778897 353.220717 
L 861.637286 353.08086 
L 873.354065 353.223059 
L 949.513125 353.2239 
L 949.513125 353.2239 
" style="fill:none;stroke:#f45b5b;stroke-linecap:square;"/>
   </g>
   <g id="line2d_46">
    <path clip-path="url(#p87a202a9e7)" d="M 76.613125 328.036446 
L 82.471514 353.223569 
L 158.630575 353.222906 
L 164.488964 351.996868 
L 170.347353 353.2239 
L 199.639299 353.211308 
L 205.497689 352.457457 
L 211.356078 353.196728 
L 234.789635 353.213628 
L 363.674199 353.222569 
L 369.532588 353.006461 
L 375.390977 353.223234 
L 445.691648 353.223565 
L 709.319165 353.223212 
L 715.177555 352.975334 
L 721.035944 353.2239 
L 855.778897 353.220749 
L 861.637286 353.075684 
L 873.354065 353.223198 
L 949.513125 353.2239 
L 949.513125 353.2239 
" style="fill:none;stroke:#91e8e1;stroke-linecap:square;"/>
   </g>
   <g id="line2d_47">
    <path clip-path="url(#p87a202a9e7)" d="M 32.968125 353.2239 
L 993.158125 353.2239 
" style="fill:none;stroke:#dedede;stroke-linecap:square;stroke-width:2;"/>
   </g>
   <g id="text_17">
    <!-- Fastp: Read N Content -->
    <defs>
     <path d="M 9.8125 72.90625 
L 51.703125 72.90625 
L 51.703125 64.59375 
L 19.671875 64.59375 
L 19.671875 43.109375 
L 48.578125 43.109375 
L 48.578125 34.8125 
L 19.671875 34.8125 
L 19.671875 0 
L 9.8125 0 
z
" id="DejaVuSans-70"/>
     <path d="M 18.109375 8.203125 
L 18.109375 -20.796875 
L 9.078125 -20.796875 
L 9.078125 54.6875 
L 18.109375 54.6875 
L 18.109375 46.390625 
Q 20.953125 51.265625 25.265625 53.625 
Q 29.59375 56 35.59375 56 
Q 45.5625 56 51.78125 48.09375 
Q 58.015625 40.1875 58.015625 27.296875 
Q 58.015625 14.40625 51.78125 6.484375 
Q 45.5625 -1.421875 35.59375 -1.421875 
Q 29.59375 -1.421875 25.265625 0.953125 
Q 20.953125 3.328125 18.109375 8.203125 
z
M 48.6875 27.296875 
Q 48.6875 37.203125 44.609375 42.84375 
Q 40.53125 48.484375 33.40625 48.484375 
Q 26.265625 48.484375 22.1875 42.84375 
Q 18.109375 37.203125 18.109375 27.296875 
Q 18.109375 17.390625 22.1875 11.75 
Q 26.265625 6.109375 33.40625 6.109375 
Q 40.53125 6.109375 44.609375 11.75 
Q 48.6875 17.390625 48.6875 27.296875 
z
" id="DejaVuSans-112"/>
     <path d="M 9.8125 72.90625 
L 23.09375 72.90625 
L 55.421875 11.921875 
L 55.421875 72.90625 
L 64.984375 72.90625 
L 64.984375 0 
L 51.703125 0 
L 19.390625 60.984375 
L 19.390625 0 
L 9.8125 0 
z
" id="DejaVuSans-78"/>
    </defs>
    <g transform="translate(422.606875 19.3575)scale(0.16 -0.16)">
     <use xlink:href="#DejaVuSans-70"/>
     <use x="57.378906" xlink:href="#DejaVuSans-97"/>
     <use x="118.658203" xlink:href="#DejaVuSans-115"/>
     <use x="170.757812" xlink:href="#DejaVuSans-116"/>
     <use x="209.966797" xlink:href="#DejaVuSans-112"/>
     <use x="273.443359" xlink:href="#DejaVuSans-58"/>
     <use x="307.134766" xlink:href="#DejaVuSans-32"/>
     <use x="338.921875" xlink:href="#DejaVuSans-82"/>
     <use x="408.341797" xlink:href="#DejaVuSans-101"/>
     <use x="469.865234" xlink:href="#DejaVuSans-97"/>
     <use x="531.144531" xlink:href="#DejaVuSans-100"/>
     <use x="594.621094" xlink:href="#DejaVuSans-32"/>
     <use x="626.408203" xlink:href="#DejaVuSans-78"/>
     <use x="701.212891" xlink:href="#DejaVuSans-32"/>
     <use x="733" xlink:href="#DejaVuSans-67"/>
     <use x="802.824219" xlink:href="#DejaVuSans-111"/>
     <use x="864.005859" xlink:href="#DejaVuSans-110"/>
     <use x="927.384766" xlink:href="#DejaVuSans-116"/>
     <use x="966.59375" xlink:href="#DejaVuSans-101"/>
     <use x="1028.117188" xlink:href="#DejaVuSans-110"/>
     <use x="1091.496094" xlink:href="#DejaVuSans-116"/>
    </g>
   </g>
  </g>
 </g>
 <defs>
  <clipPath id="p87a202a9e7">
   <rect height="317.968" width="960.19" x="32.968125" y="35.2559"/>
  </clipPath>
 </defs>
</svg>
