<?xml version="1.0" encoding="utf-8" standalone="no"?>
<!DOCTYPE svg PUBLIC "-//W3C//DTD SVG 1.1//EN"
  "http://www.w3.org/Graphics/SVG/1.1/DTD/svg11.dtd">
<!-- Created with matplotlib (https://matplotlib.org/) -->
<svg height="388.844525pt" version="1.1" viewBox="0 0 1000.278125 388.844525" width="1000.278125pt" xmlns="http://www.w3.org/2000/svg" xmlns:xlink="http://www.w3.org/1999/xlink">
 <defs>
  <style type="text/css">
*{stroke-linecap:butt;stroke-linejoin:round;}
  </style>
 </defs>
 <g id="figure_1">
  <g id="axes_1">
   <g id="patch_1">
    <path d="M 43.148125 353.2239 
L 993.078125 353.2239 
L 993.078125 35.2559 
L 43.148125 35.2559 
z
" style="fill:#ffffff;"/>
   </g>
   <g id="matplotlib.axis_1">
    <g id="xtick_1">
     <g id="text_1">
      <!-- 0 -->
      <defs>
       <path d="M 31.78125 66.40625 
Q 24.171875 66.40625 20.328125 58.90625 
Q 16.5 51.421875 16.5 36.375 
Q 16.5 21.390625 20.328125 13.890625 
Q 24.171875 6.390625 31.78125 6.390625 
Q 39.453125 6.390625 43.28125 13.890625 
Q 47.125 21.390625 47.125 36.375 
Q 47.125 51.421875 43.28125 58.90625 
Q 39.453125 66.40625 31.78125 66.40625 
z
M 31.78125 74.21875 
Q 44.046875 74.21875 50.515625 64.515625 
Q 56.984375 54.828125 56.984375 36.375 
Q 56.984375 17.96875 50.515625 8.265625 
Q 44.046875 -1.421875 31.78125 -1.421875 
Q 19.53125 -1.421875 13.0625 8.265625 
Q 6.59375 17.96875 6.59375 36.375 
Q 6.59375 54.828125 13.0625 64.515625 
Q 19.53125 74.21875 31.78125 74.21875 
z
" id="DejaVuSans-48"/>
      </defs>
      <g transform="translate(79.283987 366.30265)scale(0.08 -0.08)">
       <use xlink:href="#DejaVuSans-48"/>
      </g>
     </g>
    </g>
    <g id="xtick_2">
     <g id="text_2">
      <!-- 25 -->
      <defs>
       <path d="M 19.1875 8.296875 
L 53.609375 8.296875 
L 53.609375 0 
L 7.328125 0 
L 7.328125 8.296875 
Q 12.9375 14.109375 22.625 23.890625 
Q 32.328125 33.6875 34.8125 36.53125 
Q 39.546875 41.84375 41.421875 45.53125 
Q 43.3125 49.21875 43.3125 52.78125 
Q 43.3125 58.59375 39.234375 62.25 
Q 35.15625 65.921875 28.609375 65.921875 
Q 23.96875 65.921875 18.8125 64.3125 
Q 13.671875 62.703125 7.8125 59.421875 
L 7.8125 69.390625 
Q 13.765625 71.78125 18.9375 73 
Q 24.125 74.21875 28.421875 74.21875 
Q 39.75 74.21875 46.484375 68.546875 
Q 53.21875 62.890625 53.21875 53.421875 
Q 53.21875 48.921875 51.53125 44.890625 
Q 49.859375 40.875 45.40625 35.40625 
Q 44.1875 33.984375 37.640625 27.21875 
Q 31.109375 20.453125 19.1875 8.296875 
z
" id="DejaVuSans-50"/>
       <path d="M 10.796875 72.90625 
L 49.515625 72.90625 
L 49.515625 64.59375 
L 19.828125 64.59375 
L 19.828125 46.734375 
Q 21.96875 47.46875 24.109375 47.828125 
Q 26.265625 48.1875 28.421875 48.1875 
Q 40.625 48.1875 47.75 41.5 
Q 54.890625 34.8125 54.890625 23.390625 
Q 54.890625 11.625 47.5625 5.09375 
Q 40.234375 -1.421875 26.90625 -1.421875 
Q 22.3125 -1.421875 17.546875 -0.640625 
Q 12.796875 0.140625 7.71875 1.703125 
L 7.71875 11.625 
Q 12.109375 9.234375 16.796875 8.0625 
Q 21.484375 6.890625 26.703125 6.890625 
Q 35.15625 6.890625 40.078125 11.328125 
Q 45.015625 15.765625 45.015625 23.390625 
Q 45.015625 31 40.078125 35.4375 
Q 35.15625 39.890625 26.703125 39.890625 
Q 22.75 39.890625 18.8125 39.015625 
Q 14.890625 38.140625 10.796875 36.28125 
z
" id="DejaVuSans-53"/>
      </defs>
      <g transform="translate(189.183352 366.30265)scale(0.08 -0.08)">
       <use xlink:href="#DejaVuSans-50"/>
       <use x="63.623047" xlink:href="#DejaVuSans-53"/>
      </g>
     </g>
    </g>
    <g id="xtick_3">
     <g id="text_3">
      <!-- 50 -->
      <g transform="translate(301.627718 366.30265)scale(0.08 -0.08)">
       <use xlink:href="#DejaVuSans-53"/>
       <use x="63.623047" xlink:href="#DejaVuSans-48"/>
      </g>
     </g>
    </g>
    <g id="xtick_4">
     <g id="text_4">
      <!-- 75 -->
      <defs>
       <path d="M 8.203125 72.90625 
L 55.078125 72.90625 
L 55.078125 68.703125 
L 28.609375 0 
L 18.3125 0 
L 43.21875 64.59375 
L 8.203125 64.59375 
z
" id="DejaVuSans-55"/>
      </defs>
      <g transform="translate(414.072083 366.30265)scale(0.08 -0.08)">
       <use xlink:href="#DejaVuSans-55"/>
       <use x="63.623047" xlink:href="#DejaVuSans-53"/>
      </g>
     </g>
    </g>
    <g id="xtick_5">
     <g id="text_5">
      <!-- 100 -->
      <defs>
       <path d="M 12.40625 8.296875 
L 28.515625 8.296875 
L 28.515625 63.921875 
L 10.984375 60.40625 
L 10.984375 69.390625 
L 28.421875 72.90625 
L 38.28125 72.90625 
L 38.28125 8.296875 
L 54.390625 8.296875 
L 54.390625 0 
L 12.40625 0 
z
" id="DejaVuSans-49"/>
      </defs>
      <g transform="translate(523.971449 366.30265)scale(0.08 -0.08)">
       <use xlink:href="#DejaVuSans-49"/>
       <use x="63.623047" xlink:href="#DejaVuSans-48"/>
       <use x="127.246094" xlink:href="#DejaVuSans-48"/>
      </g>
     </g>
    </g>
    <g id="xtick_6">
     <g id="text_6">
      <!-- 125 -->
      <g transform="translate(636.415814 366.30265)scale(0.08 -0.08)">
       <use xlink:href="#DejaVuSans-49"/>
       <use x="63.623047" xlink:href="#DejaVuSans-50"/>
       <use x="127.246094" xlink:href="#DejaVuSans-53"/>
      </g>
     </g>
    </g>
    <g id="xtick_7">
     <g id="text_7">
      <!-- 150 -->
      <g transform="translate(748.86018 366.30265)scale(0.08 -0.08)">
       <use xlink:href="#DejaVuSans-49"/>
       <use x="63.623047" xlink:href="#DejaVuSans-53"/>
       <use x="127.246094" xlink:href="#DejaVuSans-48"/>
      </g>
     </g>
    </g>
    <g id="xtick_8">
     <g id="text_8">
      <!-- 175 -->
      <g transform="translate(861.304545 366.30265)scale(0.08 -0.08)">
       <use xlink:href="#DejaVuSans-49"/>
       <use x="63.623047" xlink:href="#DejaVuSans-55"/>
       <use x="127.246094" xlink:href="#DejaVuSans-53"/>
      </g>
     </g>
    </g>
    <g id="xtick_9">
     <g id="text_9">
      <!-- 200 -->
      <g transform="translate(973.748911 366.30265)scale(0.08 -0.08)">
       <use xlink:href="#DejaVuSans-50"/>
       <use x="63.623047" xlink:href="#DejaVuSans-48"/>
       <use x="127.246094" xlink:href="#DejaVuSans-48"/>
      </g>
     </g>
    </g>
    <g id="text_10">
     <!-- Read Position -->
     <defs>
      <path d="M 44.390625 34.1875 
Q 47.5625 33.109375 50.5625 29.59375 
Q 53.5625 26.078125 56.59375 19.921875 
L 66.609375 0 
L 56 0 
L 46.6875 18.703125 
Q 43.0625 26.03125 39.671875 28.421875 
Q 36.28125 30.8125 30.421875 30.8125 
L 19.671875 30.8125 
L 19.671875 0 
L 9.8125 0 
L 9.8125 72.90625 
L 32.078125 72.90625 
Q 44.578125 72.90625 50.734375 67.671875 
Q 56.890625 62.453125 56.890625 51.90625 
Q 56.890625 45.015625 53.6875 40.46875 
Q 50.484375 35.9375 44.390625 34.1875 
z
M 19.671875 64.796875 
L 19.671875 38.921875 
L 32.078125 38.921875 
Q 39.203125 38.921875 42.84375 42.21875 
Q 46.484375 45.515625 46.484375 51.90625 
Q 46.484375 58.296875 42.84375 61.546875 
Q 39.203125 64.796875 32.078125 64.796875 
z
" id="DejaVuSans-82"/>
      <path d="M 56.203125 29.59375 
L 56.203125 25.203125 
L 14.890625 25.203125 
Q 15.484375 15.921875 20.484375 11.0625 
Q 25.484375 6.203125 34.421875 6.203125 
Q 39.59375 6.203125 44.453125 7.46875 
Q 49.3125 8.734375 54.109375 11.28125 
L 54.109375 2.78125 
Q 49.265625 0.734375 44.1875 -0.34375 
Q 39.109375 -1.421875 33.890625 -1.421875 
Q 20.796875 -1.421875 13.15625 6.1875 
Q 5.515625 13.8125 5.515625 26.8125 
Q 5.515625 40.234375 12.765625 48.109375 
Q 20.015625 56 32.328125 56 
Q 43.359375 56 49.78125 48.890625 
Q 56.203125 41.796875 56.203125 29.59375 
z
M 47.21875 32.234375 
Q 47.125 39.59375 43.09375 43.984375 
Q 39.0625 48.390625 32.421875 48.390625 
Q 24.90625 48.390625 20.390625 44.140625 
Q 15.875 39.890625 15.1875 32.171875 
z
" id="DejaVuSans-101"/>
      <path d="M 34.28125 27.484375 
Q 23.390625 27.484375 19.1875 25 
Q 14.984375 22.515625 14.984375 16.5 
Q 14.984375 11.71875 18.140625 8.90625 
Q 21.296875 6.109375 26.703125 6.109375 
Q 34.1875 6.109375 38.703125 11.40625 
Q 43.21875 16.703125 43.21875 25.484375 
L 43.21875 27.484375 
z
M 52.203125 31.203125 
L 52.203125 0 
L 43.21875 0 
L 43.21875 8.296875 
Q 40.140625 3.328125 35.546875 0.953125 
Q 30.953125 -1.421875 24.3125 -1.421875 
Q 15.921875 -1.421875 10.953125 3.296875 
Q 6 8.015625 6 15.921875 
Q 6 25.140625 12.171875 29.828125 
Q 18.359375 34.515625 30.609375 34.515625 
L 43.21875 34.515625 
L 43.21875 35.40625 
Q 43.21875 41.609375 39.140625 45 
Q 35.0625 48.390625 27.6875 48.390625 
Q 23 48.390625 18.546875 47.265625 
Q 14.109375 46.140625 10.015625 43.890625 
L 10.015625 52.203125 
Q 14.9375 54.109375 19.578125 55.046875 
Q 24.21875 56 28.609375 56 
Q 40.484375 56 46.34375 49.84375 
Q 52.203125 43.703125 52.203125 31.203125 
z
" id="DejaVuSans-97"/>
      <path d="M 45.40625 46.390625 
L 45.40625 75.984375 
L 54.390625 75.984375 
L 54.390625 0 
L 45.40625 0 
L 45.40625 8.203125 
Q 42.578125 3.328125 38.25 0.953125 
Q 33.9375 -1.421875 27.875 -1.421875 
Q 17.96875 -1.421875 11.734375 6.484375 
Q 5.515625 14.40625 5.515625 27.296875 
Q 5.515625 40.1875 11.734375 48.09375 
Q 17.96875 56 27.875 56 
Q 33.9375 56 38.25 53.625 
Q 42.578125 51.265625 45.40625 46.390625 
z
M 14.796875 27.296875 
Q 14.796875 17.390625 18.875 11.75 
Q 22.953125 6.109375 30.078125 6.109375 
Q 37.203125 6.109375 41.296875 11.75 
Q 45.40625 17.390625 45.40625 27.296875 
Q 45.40625 37.203125 41.296875 42.84375 
Q 37.203125 48.484375 30.078125 48.484375 
Q 22.953125 48.484375 18.875 42.84375 
Q 14.796875 37.203125 14.796875 27.296875 
z
" id="DejaVuSans-100"/>
      <path id="DejaVuSans-32"/>
      <path d="M 19.671875 64.796875 
L 19.671875 37.40625 
L 32.078125 37.40625 
Q 38.96875 37.40625 42.71875 40.96875 
Q 46.484375 44.53125 46.484375 51.125 
Q 46.484375 57.671875 42.71875 61.234375 
Q 38.96875 64.796875 32.078125 64.796875 
z
M 9.8125 72.90625 
L 32.078125 72.90625 
Q 44.34375 72.90625 50.609375 67.359375 
Q 56.890625 61.8125 56.890625 51.125 
Q 56.890625 40.328125 50.609375 34.8125 
Q 44.34375 29.296875 32.078125 29.296875 
L 19.671875 29.296875 
L 19.671875 0 
L 9.8125 0 
z
" id="DejaVuSans-80"/>
      <path d="M 30.609375 48.390625 
Q 23.390625 48.390625 19.1875 42.75 
Q 14.984375 37.109375 14.984375 27.296875 
Q 14.984375 17.484375 19.15625 11.84375 
Q 23.34375 6.203125 30.609375 6.203125 
Q 37.796875 6.203125 41.984375 11.859375 
Q 46.1875 17.53125 46.1875 27.296875 
Q 46.1875 37.015625 41.984375 42.703125 
Q 37.796875 48.390625 30.609375 48.390625 
z
M 30.609375 56 
Q 42.328125 56 49.015625 48.375 
Q 55.71875 40.765625 55.71875 27.296875 
Q 55.71875 13.875 49.015625 6.21875 
Q 42.328125 -1.421875 30.609375 -1.421875 
Q 18.84375 -1.421875 12.171875 6.21875 
Q 5.515625 13.875 5.515625 27.296875 
Q 5.515625 40.765625 12.171875 48.375 
Q 18.84375 56 30.609375 56 
z
" id="DejaVuSans-111"/>
      <path d="M 44.28125 53.078125 
L 44.28125 44.578125 
Q 40.484375 46.53125 36.375 47.5 
Q 32.28125 48.484375 27.875 48.484375 
Q 21.1875 48.484375 17.84375 46.4375 
Q 14.5 44.390625 14.5 40.28125 
Q 14.5 37.15625 16.890625 35.375 
Q 19.28125 33.59375 26.515625 31.984375 
L 29.59375 31.296875 
Q 39.15625 29.25 43.1875 25.515625 
Q 47.21875 21.78125 47.21875 15.09375 
Q 47.21875 7.46875 41.1875 3.015625 
Q 35.15625 -1.421875 24.609375 -1.421875 
Q 20.21875 -1.421875 15.453125 -0.5625 
Q 10.6875 0.296875 5.421875 2 
L 5.421875 11.28125 
Q 10.40625 8.6875 15.234375 7.390625 
Q 20.0625 6.109375 24.8125 6.109375 
Q 31.15625 6.109375 34.5625 8.28125 
Q 37.984375 10.453125 37.984375 14.40625 
Q 37.984375 18.0625 35.515625 20.015625 
Q 33.0625 21.96875 24.703125 23.78125 
L 21.578125 24.515625 
Q 13.234375 26.265625 9.515625 29.90625 
Q 5.8125 33.546875 5.8125 39.890625 
Q 5.8125 47.609375 11.28125 51.796875 
Q 16.75 56 26.8125 56 
Q 31.78125 56 36.171875 55.265625 
Q 40.578125 54.546875 44.28125 53.078125 
z
" id="DejaVuSans-115"/>
      <path d="M 9.421875 54.6875 
L 18.40625 54.6875 
L 18.40625 0 
L 9.421875 0 
z
M 9.421875 75.984375 
L 18.40625 75.984375 
L 18.40625 64.59375 
L 9.421875 64.59375 
z
" id="DejaVuSans-105"/>
      <path d="M 18.3125 70.21875 
L 18.3125 54.6875 
L 36.8125 54.6875 
L 36.8125 47.703125 
L 18.3125 47.703125 
L 18.3125 18.015625 
Q 18.3125 11.328125 20.140625 9.421875 
Q 21.96875 7.515625 27.59375 7.515625 
L 36.8125 7.515625 
L 36.8125 0 
L 27.59375 0 
Q 17.1875 0 13.234375 3.875 
Q 9.28125 7.765625 9.28125 18.015625 
L 9.28125 47.703125 
L 2.6875 47.703125 
L 2.6875 54.6875 
L 9.28125 54.6875 
L 9.28125 70.21875 
z
" id="DejaVuSans-116"/>
      <path d="M 54.890625 33.015625 
L 54.890625 0 
L 45.90625 0 
L 45.90625 32.71875 
Q 45.90625 40.484375 42.875 44.328125 
Q 39.84375 48.1875 33.796875 48.1875 
Q 26.515625 48.1875 22.3125 43.546875 
Q 18.109375 38.921875 18.109375 30.90625 
L 18.109375 0 
L 9.078125 0 
L 9.078125 54.6875 
L 18.109375 54.6875 
L 18.109375 46.1875 
Q 21.34375 51.125 25.703125 53.5625 
Q 30.078125 56 35.796875 56 
Q 45.21875 56 50.046875 50.171875 
Q 54.890625 44.34375 54.890625 33.015625 
z
" id="DejaVuSans-110"/>
     </defs>
     <g transform="translate(484.095156 379.564837)scale(0.1 -0.1)">
      <use xlink:href="#DejaVuSans-82"/>
      <use x="69.419922" xlink:href="#DejaVuSans-101"/>
      <use x="130.943359" xlink:href="#DejaVuSans-97"/>
      <use x="192.222656" xlink:href="#DejaVuSans-100"/>
      <use x="255.699219" xlink:href="#DejaVuSans-32"/>
      <use x="287.486328" xlink:href="#DejaVuSans-80"/>
      <use x="347.742188" xlink:href="#DejaVuSans-111"/>
      <use x="408.923828" xlink:href="#DejaVuSans-115"/>
      <use x="461.023438" xlink:href="#DejaVuSans-105"/>
      <use x="488.806641" xlink:href="#DejaVuSans-116"/>
      <use x="528.015625" xlink:href="#DejaVuSans-105"/>
      <use x="555.798828" xlink:href="#DejaVuSans-111"/>
      <use x="616.980469" xlink:href="#DejaVuSans-110"/>
     </g>
    </g>
   </g>
   <g id="matplotlib.axis_2">
    <g id="ytick_1">
     <g id="line2d_1">
      <path clip-path="url(#pf5a4aeee19)" d="M 43.148125 353.2239 
L 993.078125 353.2239 
" style="fill:none;stroke:#dedede;stroke-linecap:square;"/>
     </g>
     <g id="text_11">
      <!-- 0 -->
      <g transform="translate(31.058125 356.263275)scale(0.08 -0.08)">
       <use xlink:href="#DejaVuSans-48"/>
      </g>
     </g>
    </g>
    <g id="ytick_2">
     <g id="line2d_2">
      <path clip-path="url(#pf5a4aeee19)" d="M 43.148125 289.6303 
L 993.078125 289.6303 
" style="fill:none;stroke:#dedede;stroke-linecap:square;"/>
     </g>
     <g id="text_12">
      <!-- 20 -->
      <g transform="translate(25.968125 292.669675)scale(0.08 -0.08)">
       <use xlink:href="#DejaVuSans-50"/>
       <use x="63.623047" xlink:href="#DejaVuSans-48"/>
      </g>
     </g>
    </g>
    <g id="ytick_3">
     <g id="line2d_3">
      <path clip-path="url(#pf5a4aeee19)" d="M 43.148125 226.0367 
L 993.078125 226.0367 
" style="fill:none;stroke:#dedede;stroke-linecap:square;"/>
     </g>
     <g id="text_13">
      <!-- 40 -->
      <defs>
       <path d="M 37.796875 64.3125 
L 12.890625 25.390625 
L 37.796875 25.390625 
z
M 35.203125 72.90625 
L 47.609375 72.90625 
L 47.609375 25.390625 
L 58.015625 25.390625 
L 58.015625 17.1875 
L 47.609375 17.1875 
L 47.609375 0 
L 37.796875 0 
L 37.796875 17.1875 
L 4.890625 17.1875 
L 4.890625 26.703125 
z
" id="DejaVuSans-52"/>
      </defs>
      <g transform="translate(25.968125 229.076075)scale(0.08 -0.08)">
       <use xlink:href="#DejaVuSans-52"/>
       <use x="63.623047" xlink:href="#DejaVuSans-48"/>
      </g>
     </g>
    </g>
    <g id="ytick_4">
     <g id="line2d_4">
      <path clip-path="url(#pf5a4aeee19)" d="M 43.148125 162.4431 
L 993.078125 162.4431 
" style="fill:none;stroke:#dedede;stroke-linecap:square;"/>
     </g>
     <g id="text_14">
      <!-- 60 -->
      <defs>
       <path d="M 33.015625 40.375 
Q 26.375 40.375 22.484375 35.828125 
Q 18.609375 31.296875 18.609375 23.390625 
Q 18.609375 15.53125 22.484375 10.953125 
Q 26.375 6.390625 33.015625 6.390625 
Q 39.65625 6.390625 43.53125 10.953125 
Q 47.40625 15.53125 47.40625 23.390625 
Q 47.40625 31.296875 43.53125 35.828125 
Q 39.65625 40.375 33.015625 40.375 
z
M 52.59375 71.296875 
L 52.59375 62.3125 
Q 48.875 64.0625 45.09375 64.984375 
Q 41.3125 65.921875 37.59375 65.921875 
Q 27.828125 65.921875 22.671875 59.328125 
Q 17.53125 52.734375 16.796875 39.40625 
Q 19.671875 43.65625 24.015625 45.921875 
Q 28.375 48.1875 33.59375 48.1875 
Q 44.578125 48.1875 50.953125 41.515625 
Q 57.328125 34.859375 57.328125 23.390625 
Q 57.328125 12.15625 50.6875 5.359375 
Q 44.046875 -1.421875 33.015625 -1.421875 
Q 20.359375 -1.421875 13.671875 8.265625 
Q 6.984375 17.96875 6.984375 36.375 
Q 6.984375 53.65625 15.1875 63.9375 
Q 23.390625 74.21875 37.203125 74.21875 
Q 40.921875 74.21875 44.703125 73.484375 
Q 48.484375 72.75 52.59375 71.296875 
z
" id="DejaVuSans-54"/>
      </defs>
      <g transform="translate(25.968125 165.482475)scale(0.08 -0.08)">
       <use xlink:href="#DejaVuSans-54"/>
       <use x="63.623047" xlink:href="#DejaVuSans-48"/>
      </g>
     </g>
    </g>
    <g id="ytick_5">
     <g id="line2d_5">
      <path clip-path="url(#pf5a4aeee19)" d="M 43.148125 98.8495 
L 993.078125 98.8495 
" style="fill:none;stroke:#dedede;stroke-linecap:square;"/>
     </g>
     <g id="text_15">
      <!-- 80 -->
      <defs>
       <path d="M 31.78125 34.625 
Q 24.75 34.625 20.71875 30.859375 
Q 16.703125 27.09375 16.703125 20.515625 
Q 16.703125 13.921875 20.71875 10.15625 
Q 24.75 6.390625 31.78125 6.390625 
Q 38.8125 6.390625 42.859375 10.171875 
Q 46.921875 13.96875 46.921875 20.515625 
Q 46.921875 27.09375 42.890625 30.859375 
Q 38.875 34.625 31.78125 34.625 
z
M 21.921875 38.8125 
Q 15.578125 40.375 12.03125 44.71875 
Q 8.5 49.078125 8.5 55.328125 
Q 8.5 64.0625 14.71875 69.140625 
Q 20.953125 74.21875 31.78125 74.21875 
Q 42.671875 74.21875 48.875 69.140625 
Q 55.078125 64.0625 55.078125 55.328125 
Q 55.078125 49.078125 51.53125 44.71875 
Q 48 40.375 41.703125 38.8125 
Q 48.828125 37.15625 52.796875 32.3125 
Q 56.78125 27.484375 56.78125 20.515625 
Q 56.78125 9.90625 50.3125 4.234375 
Q 43.84375 -1.421875 31.78125 -1.421875 
Q 19.734375 -1.421875 13.25 4.234375 
Q 6.78125 9.90625 6.78125 20.515625 
Q 6.78125 27.484375 10.78125 32.3125 
Q 14.796875 37.15625 21.921875 38.8125 
z
M 18.3125 54.390625 
Q 18.3125 48.734375 21.84375 45.5625 
Q 25.390625 42.390625 31.78125 42.390625 
Q 38.140625 42.390625 41.71875 45.5625 
Q 45.3125 48.734375 45.3125 54.390625 
Q 45.3125 60.0625 41.71875 63.234375 
Q 38.140625 66.40625 31.78125 66.40625 
Q 25.390625 66.40625 21.84375 63.234375 
Q 18.3125 60.0625 18.3125 54.390625 
z
" id="DejaVuSans-56"/>
      </defs>
      <g transform="translate(25.968125 101.888875)scale(0.08 -0.08)">
       <use xlink:href="#DejaVuSans-56"/>
       <use x="63.623047" xlink:href="#DejaVuSans-48"/>
      </g>
     </g>
    </g>
    <g id="ytick_6">
     <g id="line2d_6">
      <path clip-path="url(#pf5a4aeee19)" d="M 43.148125 35.2559 
L 993.078125 35.2559 
" style="fill:none;stroke:#dedede;stroke-linecap:square;"/>
     </g>
     <g id="text_16">
      <!-- 100 -->
      <g transform="translate(20.878125 38.295275)scale(0.08 -0.08)">
       <use xlink:href="#DejaVuSans-49"/>
       <use x="63.623047" xlink:href="#DejaVuSans-48"/>
       <use x="127.246094" xlink:href="#DejaVuSans-48"/>
      </g>
     </g>
    </g>
    <g id="text_17">
     <!-- R2 After filtering: Base Content Percent -->
     <defs>
      <path d="M 34.1875 63.1875 
L 20.796875 26.90625 
L 47.609375 26.90625 
z
M 28.609375 72.90625 
L 39.796875 72.90625 
L 67.578125 0 
L 57.328125 0 
L 50.6875 18.703125 
L 17.828125 18.703125 
L 11.1875 0 
L 0.78125 0 
z
" id="DejaVuSans-65"/>
      <path d="M 37.109375 75.984375 
L 37.109375 68.5 
L 28.515625 68.5 
Q 23.6875 68.5 21.796875 66.546875 
Q 19.921875 64.59375 19.921875 59.515625 
L 19.921875 54.6875 
L 34.71875 54.6875 
L 34.71875 47.703125 
L 19.921875 47.703125 
L 19.921875 0 
L 10.890625 0 
L 10.890625 47.703125 
L 2.296875 47.703125 
L 2.296875 54.6875 
L 10.890625 54.6875 
L 10.890625 58.5 
Q 10.890625 67.625 15.140625 71.796875 
Q 19.390625 75.984375 28.609375 75.984375 
z
" id="DejaVuSans-102"/>
      <path d="M 41.109375 46.296875 
Q 39.59375 47.171875 37.8125 47.578125 
Q 36.03125 48 33.890625 48 
Q 26.265625 48 22.1875 43.046875 
Q 18.109375 38.09375 18.109375 28.8125 
L 18.109375 0 
L 9.078125 0 
L 9.078125 54.6875 
L 18.109375 54.6875 
L 18.109375 46.1875 
Q 20.953125 51.171875 25.484375 53.578125 
Q 30.03125 56 36.53125 56 
Q 37.453125 56 38.578125 55.875 
Q 39.703125 55.765625 41.0625 55.515625 
z
" id="DejaVuSans-114"/>
      <path d="M 9.421875 75.984375 
L 18.40625 75.984375 
L 18.40625 0 
L 9.421875 0 
z
" id="DejaVuSans-108"/>
      <path d="M 45.40625 27.984375 
Q 45.40625 37.75 41.375 43.109375 
Q 37.359375 48.484375 30.078125 48.484375 
Q 22.859375 48.484375 18.828125 43.109375 
Q 14.796875 37.75 14.796875 27.984375 
Q 14.796875 18.265625 18.828125 12.890625 
Q 22.859375 7.515625 30.078125 7.515625 
Q 37.359375 7.515625 41.375 12.890625 
Q 45.40625 18.265625 45.40625 27.984375 
z
M 54.390625 6.78125 
Q 54.390625 -7.171875 48.1875 -13.984375 
Q 42 -20.796875 29.203125 -20.796875 
Q 24.46875 -20.796875 20.265625 -20.09375 
Q 16.0625 -19.390625 12.109375 -17.921875 
L 12.109375 -9.1875 
Q 16.0625 -11.328125 19.921875 -12.34375 
Q 23.78125 -13.375 27.78125 -13.375 
Q 36.625 -13.375 41.015625 -8.765625 
Q 45.40625 -4.15625 45.40625 5.171875 
L 45.40625 9.625 
Q 42.625 4.78125 38.28125 2.390625 
Q 33.9375 0 27.875 0 
Q 17.828125 0 11.671875 7.65625 
Q 5.515625 15.328125 5.515625 27.984375 
Q 5.515625 40.671875 11.671875 48.328125 
Q 17.828125 56 27.875 56 
Q 33.9375 56 38.28125 53.609375 
Q 42.625 51.21875 45.40625 46.390625 
L 45.40625 54.6875 
L 54.390625 54.6875 
z
" id="DejaVuSans-103"/>
      <path d="M 11.71875 12.40625 
L 22.015625 12.40625 
L 22.015625 0 
L 11.71875 0 
z
M 11.71875 51.703125 
L 22.015625 51.703125 
L 22.015625 39.3125 
L 11.71875 39.3125 
z
" id="DejaVuSans-58"/>
      <path d="M 19.671875 34.8125 
L 19.671875 8.109375 
L 35.5 8.109375 
Q 43.453125 8.109375 47.28125 11.40625 
Q 51.125 14.703125 51.125 21.484375 
Q 51.125 28.328125 47.28125 31.5625 
Q 43.453125 34.8125 35.5 34.8125 
z
M 19.671875 64.796875 
L 19.671875 42.828125 
L 34.28125 42.828125 
Q 41.5 42.828125 45.03125 45.53125 
Q 48.578125 48.25 48.578125 53.8125 
Q 48.578125 59.328125 45.03125 62.0625 
Q 41.5 64.796875 34.28125 64.796875 
z
M 9.8125 72.90625 
L 35.015625 72.90625 
Q 46.296875 72.90625 52.390625 68.21875 
Q 58.5 63.53125 58.5 54.890625 
Q 58.5 48.1875 55.375 44.234375 
Q 52.25 40.28125 46.1875 39.3125 
Q 53.46875 37.75 57.5 32.78125 
Q 61.53125 27.828125 61.53125 20.40625 
Q 61.53125 10.640625 54.890625 5.3125 
Q 48.25 0 35.984375 0 
L 9.8125 0 
z
" id="DejaVuSans-66"/>
      <path d="M 64.40625 67.28125 
L 64.40625 56.890625 
Q 59.421875 61.53125 53.78125 63.8125 
Q 48.140625 66.109375 41.796875 66.109375 
Q 29.296875 66.109375 22.65625 58.46875 
Q 16.015625 50.828125 16.015625 36.375 
Q 16.015625 21.96875 22.65625 14.328125 
Q 29.296875 6.6875 41.796875 6.6875 
Q 48.140625 6.6875 53.78125 8.984375 
Q 59.421875 11.28125 64.40625 15.921875 
L 64.40625 5.609375 
Q 59.234375 2.09375 53.4375 0.328125 
Q 47.65625 -1.421875 41.21875 -1.421875 
Q 24.65625 -1.421875 15.125 8.703125 
Q 5.609375 18.84375 5.609375 36.375 
Q 5.609375 53.953125 15.125 64.078125 
Q 24.65625 74.21875 41.21875 74.21875 
Q 47.75 74.21875 53.53125 72.484375 
Q 59.328125 70.75 64.40625 67.28125 
z
" id="DejaVuSans-67"/>
      <path d="M 48.78125 52.59375 
L 48.78125 44.1875 
Q 44.96875 46.296875 41.140625 47.34375 
Q 37.3125 48.390625 33.40625 48.390625 
Q 24.65625 48.390625 19.8125 42.84375 
Q 14.984375 37.3125 14.984375 27.296875 
Q 14.984375 17.28125 19.8125 11.734375 
Q 24.65625 6.203125 33.40625 6.203125 
Q 37.3125 6.203125 41.140625 7.25 
Q 44.96875 8.296875 48.78125 10.40625 
L 48.78125 2.09375 
Q 45.015625 0.34375 40.984375 -0.53125 
Q 36.96875 -1.421875 32.421875 -1.421875 
Q 20.0625 -1.421875 12.78125 6.34375 
Q 5.515625 14.109375 5.515625 27.296875 
Q 5.515625 40.671875 12.859375 48.328125 
Q 20.21875 56 33.015625 56 
Q 37.15625 56 41.109375 55.140625 
Q 45.0625 54.296875 48.78125 52.59375 
z
" id="DejaVuSans-99"/>
     </defs>
     <g transform="translate(14.798438 293.315681)rotate(-90)scale(0.1 -0.1)">
      <use xlink:href="#DejaVuSans-82"/>
      <use x="69.482422" xlink:href="#DejaVuSans-50"/>
      <use x="133.105469" xlink:href="#DejaVuSans-32"/>
      <use x="164.892578" xlink:href="#DejaVuSans-65"/>
      <use x="233.253906" xlink:href="#DejaVuSans-102"/>
      <use x="268.443359" xlink:href="#DejaVuSans-116"/>
      <use x="307.652344" xlink:href="#DejaVuSans-101"/>
      <use x="369.175781" xlink:href="#DejaVuSans-114"/>
      <use x="410.289062" xlink:href="#DejaVuSans-32"/>
      <use x="442.076172" xlink:href="#DejaVuSans-102"/>
      <use x="477.28125" xlink:href="#DejaVuSans-105"/>
      <use x="505.064453" xlink:href="#DejaVuSans-108"/>
      <use x="532.847656" xlink:href="#DejaVuSans-116"/>
      <use x="572.056641" xlink:href="#DejaVuSans-101"/>
      <use x="633.580078" xlink:href="#DejaVuSans-114"/>
      <use x="674.693359" xlink:href="#DejaVuSans-105"/>
      <use x="702.476562" xlink:href="#DejaVuSans-110"/>
      <use x="765.855469" xlink:href="#DejaVuSans-103"/>
      <use x="829.332031" xlink:href="#DejaVuSans-58"/>
      <use x="863.023438" xlink:href="#DejaVuSans-32"/>
      <use x="894.810547" xlink:href="#DejaVuSans-66"/>
      <use x="963.414062" xlink:href="#DejaVuSans-97"/>
      <use x="1024.693359" xlink:href="#DejaVuSans-115"/>
      <use x="1076.792969" xlink:href="#DejaVuSans-101"/>
      <use x="1138.316406" xlink:href="#DejaVuSans-32"/>
      <use x="1170.103516" xlink:href="#DejaVuSans-67"/>
      <use x="1239.927734" xlink:href="#DejaVuSans-111"/>
      <use x="1301.109375" xlink:href="#DejaVuSans-110"/>
      <use x="1364.488281" xlink:href="#DejaVuSans-116"/>
      <use x="1403.697266" xlink:href="#DejaVuSans-101"/>
      <use x="1465.220703" xlink:href="#DejaVuSans-110"/>
      <use x="1528.599609" xlink:href="#DejaVuSans-116"/>
      <use x="1567.808594" xlink:href="#DejaVuSans-32"/>
      <use x="1599.595703" xlink:href="#DejaVuSans-80"/>
      <use x="1659.851562" xlink:href="#DejaVuSans-101"/>
      <use x="1721.375" xlink:href="#DejaVuSans-114"/>
      <use x="1762.457031" xlink:href="#DejaVuSans-99"/>
      <use x="1817.4375" xlink:href="#DejaVuSans-101"/>
      <use x="1878.960938" xlink:href="#DejaVuSans-110"/>
      <use x="1942.339844" xlink:href="#DejaVuSans-116"/>
     </g>
    </g>
   </g>
   <g id="line2d_7">
    <path clip-path="url(#pf5a4aeee19)" d="M 86.326761 348.496002 
L 90.824536 353.098993 
L 95.322311 353.218135 
L 185.277803 353.2239 
L 756.49518 353.2239 
L 756.49518 353.2239 
" style="fill:none;stroke:#7cb5ec;stroke-linecap:square;"/>
   </g>
   <g id="line2d_8">
    <path clip-path="url(#pf5a4aeee19)" d="M 86.326761 348.4512 
L 90.824536 353.117719 
L 99.820085 353.2239 
L 756.49518 353.2239 
L 756.49518 353.2239 
" style="fill:none;stroke:#434348;stroke-linecap:square;"/>
   </g>
   <g id="line2d_9">
    <path clip-path="url(#pf5a4aeee19)" d="M 86.326761 348.687482 
L 90.824536 353.112329 
L 99.820085 353.2239 
L 756.49518 353.2239 
L 756.49518 353.2239 
" style="fill:none;stroke:#90ed7d;stroke-linecap:square;"/>
   </g>
   <g id="line2d_10">
    <path clip-path="url(#pf5a4aeee19)" d="M 86.326761 348.565542 
L 90.824536 353.109721 
L 99.820085 353.2239 
L 756.49518 353.2239 
L 756.49518 353.2239 
" style="fill:none;stroke:#f7a35c;stroke-linecap:square;"/>
   </g>
   <g id="line2d_11">
    <path clip-path="url(#pf5a4aeee19)" d="M 86.326761 348.552346 
L 90.824536 353.112895 
L 99.820085 353.2239 
L 756.49518 353.2239 
L 756.49518 353.2239 
" style="fill:none;stroke:#8085e9;stroke-linecap:square;"/>
   </g>
   <g id="line2d_12">
    <path clip-path="url(#pf5a4aeee19)" d="M 86.326761 348.543506 
L 90.824536 353.109883 
L 99.820085 353.2239 
L 756.49518 353.2239 
L 756.49518 353.2239 
" style="fill:none;stroke:#f15c80;stroke-linecap:square;"/>
   </g>
   <g id="line2d_13">
    <path clip-path="url(#pf5a4aeee19)" d="M 86.326761 348.586973 
L 90.824536 353.103467 
L 99.820085 353.2239 
L 756.49518 353.2239 
L 756.49518 353.2239 
" style="fill:none;stroke:#e4d354;stroke-linecap:square;"/>
   </g>
   <g id="line2d_14">
    <path clip-path="url(#pf5a4aeee19)" d="M 86.326761 348.552282 
L 90.824536 353.110726 
L 99.820085 353.2239 
L 756.49518 353.2239 
L 756.49518 353.2239 
" style="fill:none;stroke:#2b908f;stroke-linecap:square;"/>
   </g>
   <g id="line2d_15">
    <path clip-path="url(#pf5a4aeee19)" d="M 86.326761 348.594795 
L 90.824536 353.102039 
L 95.322311 353.220693 
L 248.246648 353.220674 
L 545.099773 353.22213 
L 756.49518 353.2239 
L 756.49518 353.2239 
" style="fill:none;stroke:#f45b5b;stroke-linecap:square;"/>
   </g>
   <g id="line2d_16">
    <path clip-path="url(#pf5a4aeee19)" d="M 86.326761 348.57931 
L 90.824536 353.1039 
L 95.322311 353.220546 
L 243.748873 353.2239 
L 464.13983 353.221819 
L 702.521884 353.2239 
L 756.49518 353.2239 
L 756.49518 353.2239 
" style="fill:none;stroke:#91e8e1;stroke-linecap:square;"/>
   </g>
   <g id="line2d_17">
    <path clip-path="url(#pf5a4aeee19)" d="M 86.326761 348.488307 
L 90.824536 353.095844 
L 95.322311 353.217967 
L 180.780028 353.2239 
L 756.49518 353.2239 
L 756.49518 353.2239 
" style="fill:none;stroke:#7cb5ec;stroke-linecap:square;"/>
   </g>
   <g id="line2d_18">
    <path clip-path="url(#pf5a4aeee19)" d="M 86.326761 348.446399 
L 90.824536 353.12016 
L 99.820085 353.2239 
L 756.49518 353.2239 
L 756.49518 353.2239 
" style="fill:none;stroke:#434348;stroke-linecap:square;"/>
   </g>
   <g id="line2d_19">
    <path clip-path="url(#pf5a4aeee19)" d="M 86.326761 348.582394 
L 90.824536 353.107656 
L 99.820085 353.2239 
L 756.49518 353.2239 
L 756.49518 353.2239 
" style="fill:none;stroke:#90ed7d;stroke-linecap:square;"/>
   </g>
   <g id="line2d_20">
    <path clip-path="url(#pf5a4aeee19)" d="M 86.326761 348.558515 
L 90.824536 353.113945 
L 99.820085 353.2239 
L 756.49518 353.2239 
L 756.49518 353.2239 
" style="fill:none;stroke:#f7a35c;stroke-linecap:square;"/>
   </g>
   <g id="line2d_21">
    <path clip-path="url(#pf5a4aeee19)" d="M 86.326761 348.63276 
L 90.824536 353.113264 
L 99.820085 353.2239 
L 756.49518 353.2239 
L 756.49518 353.2239 
" style="fill:none;stroke:#8085e9;stroke-linecap:square;"/>
   </g>
   <g id="line2d_22">
    <path clip-path="url(#pf5a4aeee19)" d="M 86.326761 348.564429 
L 90.824536 353.103777 
L 95.322311 353.220574 
L 243.748873 353.2239 
L 450.646506 353.2239 
L 756.49518 353.2239 
L 756.49518 353.2239 
" style="fill:none;stroke:#f15c80;stroke-linecap:square;"/>
   </g>
   <g id="line2d_23">
    <path clip-path="url(#pf5a4aeee19)" d="M 86.326761 348.501121 
L 90.824536 353.101578 
L 95.322311 353.220446 
L 243.748873 353.2239 
L 455.14428 353.2239 
L 756.49518 353.2239 
L 756.49518 353.2239 
" style="fill:none;stroke:#e4d354;stroke-linecap:square;"/>
   </g>
   <g id="line2d_24">
    <path clip-path="url(#pf5a4aeee19)" d="M 86.326761 348.626146 
L 90.824536 353.100829 
L 95.322311 353.220881 
L 261.739972 353.2239 
L 756.49518 353.2239 
L 756.49518 353.2239 
" style="fill:none;stroke:#2b908f;stroke-linecap:square;"/>
   </g>
   <g id="line2d_25">
    <path clip-path="url(#pf5a4aeee19)" d="M 86.326761 348.507131 
L 90.824536 353.103704 
L 99.820085 353.2239 
L 756.49518 353.2239 
L 756.49518 353.2239 
" style="fill:none;stroke:#f45b5b;stroke-linecap:square;"/>
   </g>
   <g id="line2d_26">
    <path clip-path="url(#pf5a4aeee19)" d="M 86.326761 348.531519 
L 90.824536 353.098428 
L 95.322311 353.220715 
L 248.246648 353.221549 
L 500.122027 353.2239 
L 756.49518 353.2239 
L 756.49518 353.2239 
" style="fill:none;stroke:#91e8e1;stroke-linecap:square;"/>
   </g>
   <g id="line2d_27">
    <path clip-path="url(#pf5a4aeee19)" d="M 86.326761 348.54039 
L 90.824536 353.100897 
L 95.322311 353.219448 
L 203.268902 353.222911 
L 252.744422 353.217067 
L 329.206591 353.2239 
L 756.49518 353.2239 
L 756.49518 353.2239 
" style="fill:none;stroke:#7cb5ec;stroke-linecap:square;"/>
   </g>
   <g id="line2d_28">
    <path clip-path="url(#pf5a4aeee19)" d="M 86.326761 348.537242 
L 90.824536 353.106725 
L 99.820085 353.2239 
L 756.49518 353.2239 
L 756.49518 353.2239 
" style="fill:none;stroke:#434348;stroke-linecap:square;"/>
   </g>
   <g id="line2d_29">
    <path clip-path="url(#pf5a4aeee19)" d="M 86.326761 348.618515 
L 90.824536 353.104599 
L 99.820085 353.2239 
L 756.49518 353.2239 
L 756.49518 353.2239 
" style="fill:none;stroke:#90ed7d;stroke-linecap:square;"/>
   </g>
   <g id="line2d_30">
    <path clip-path="url(#pf5a4aeee19)" d="M 86.326761 348.56198 
L 90.824536 353.104521 
L 95.322311 353.221213 
L 279.73107 353.221557 
L 756.49518 353.2239 
L 756.49518 353.2239 
" style="fill:none;stroke:#f7a35c;stroke-linecap:square;"/>
   </g>
   <g id="line2d_31">
    <path clip-path="url(#pf5a4aeee19)" d="M 86.326761 348.542266 
L 90.824536 353.095772 
L 95.322311 353.220057 
L 225.757775 353.2239 
L 756.49518 353.2239 
L 756.49518 353.2239 
" style="fill:none;stroke:#8085e9;stroke-linecap:square;"/>
   </g>
   <g id="line2d_32">
    <path clip-path="url(#pf5a4aeee19)" d="M 86.326761 348.615749 
L 90.824536 353.11032 
L 99.820085 353.2239 
L 756.49518 353.2239 
L 756.49518 353.2239 
" style="fill:none;stroke:#f15c80;stroke-linecap:square;"/>
   </g>
   <g id="line2d_33">
    <path clip-path="url(#pf5a4aeee19)" d="M 86.326761 348.572887 
L 90.824536 353.115037 
L 99.820085 353.2239 
L 756.49518 353.2239 
L 756.49518 353.2239 
" style="fill:none;stroke:#e4d354;stroke-linecap:square;"/>
   </g>
   <g id="line2d_34">
    <path clip-path="url(#pf5a4aeee19)" d="M 86.326761 348.57082 
L 90.824536 353.095771 
L 95.322311 353.219212 
L 203.268902 353.223705 
L 243.748873 353.2239 
L 410.166534 353.2239 
L 756.49518 353.2239 
L 756.49518 353.2239 
" style="fill:none;stroke:#2b908f;stroke-linecap:square;"/>
   </g>
   <g id="line2d_35">
    <path clip-path="url(#pf5a4aeee19)" d="M 86.326761 348.605001 
L 90.824536 353.092457 
L 95.322311 353.219304 
L 203.268902 353.22344 
L 257.242197 353.2239 
L 756.49518 353.2239 
L 756.49518 353.2239 
" style="fill:none;stroke:#f45b5b;stroke-linecap:square;"/>
   </g>
   <g id="line2d_36">
    <path clip-path="url(#pf5a4aeee19)" d="M 86.326761 348.528816 
L 90.824536 353.091086 
L 95.322311 353.218623 
L 194.273352 353.223649 
L 252.744422 353.219059 
L 356.193239 353.220919 
L 527.108674 353.2239 
L 756.49518 353.2239 
L 756.49518 353.2239 
" style="fill:none;stroke:#91e8e1;stroke-linecap:square;"/>
   </g>
   <g id="line2d_37">
    <path clip-path="url(#pf5a4aeee19)" d="M 86.326761 348.573395 
L 90.824536 353.101291 
L 95.322311 353.221429 
L 297.722169 353.2239 
L 576.584195 353.2239 
L 756.49518 353.2239 
L 756.49518 353.2239 
" style="fill:none;stroke:#7cb5ec;stroke-linecap:square;"/>
   </g>
   <g id="line2d_38">
    <path clip-path="url(#pf5a4aeee19)" d="M 86.326761 348.56834 
L 90.824536 353.100261 
L 95.322311 353.220624 
L 248.246648 353.221733 
L 356.193239 353.221982 
L 617.064167 353.2239 
L 707.019659 353.2239 
L 756.49518 353.2239 
L 756.49518 353.2239 
" style="fill:none;stroke:#434348;stroke-linecap:square;"/>
   </g>
   <g id="line2d_39">
    <path clip-path="url(#pf5a4aeee19)" d="M 86.326761 348.547481 
L 90.824536 353.099056 
L 95.322311 353.218505 
L 189.775578 353.2239 
L 756.49518 353.2239 
L 756.49518 353.2239 
" style="fill:none;stroke:#90ed7d;stroke-linecap:square;"/>
   </g>
   <g id="line2d_40">
    <path clip-path="url(#pf5a4aeee19)" d="M 86.326761 348.541217 
L 90.824536 353.097588 
L 95.322311 353.21996 
L 225.757775 353.223777 
L 756.49518 353.2239 
L 756.49518 353.2239 
" style="fill:none;stroke:#f7a35c;stroke-linecap:square;"/>
   </g>
   <g id="line2d_41">
    <path clip-path="url(#pf5a4aeee19)" d="M 86.326761 348.614413 
L 90.824536 353.099044 
L 95.322311 353.221144 
L 275.233295 353.2239 
L 626.059716 353.215007 
L 684.530786 353.2239 
L 756.49518 353.2239 
L 756.49518 353.2239 
" style="fill:none;stroke:#8085e9;stroke-linecap:square;"/>
   </g>
   <g id="line2d_42">
    <path clip-path="url(#pf5a4aeee19)" d="M 86.326761 348.531169 
L 90.824536 353.09848 
L 95.322311 353.219412 
L 203.268902 353.223428 
L 239.251098 353.221767 
L 477.633153 353.2239 
L 756.49518 353.2239 
L 756.49518 353.2239 
" style="fill:none;stroke:#f15c80;stroke-linecap:square;"/>
   </g>
   <g id="line2d_43">
    <path clip-path="url(#pf5a4aeee19)" d="M 86.326761 348.533395 
L 90.824536 353.102513 
L 95.322311 353.220455 
L 243.748873 353.2239 
L 464.13983 353.223219 
L 756.49518 353.2239 
L 756.49518 353.2239 
" style="fill:none;stroke:#e4d354;stroke-linecap:square;"/>
   </g>
   <g id="line2d_44">
    <path clip-path="url(#pf5a4aeee19)" d="M 86.326761 348.519691 
L 90.824536 353.103119 
L 95.322311 353.220619 
L 248.246648 353.221549 
L 558.593097 353.2239 
L 756.49518 353.2239 
L 756.49518 353.2239 
" style="fill:none;stroke:#2b908f;stroke-linecap:square;"/>
   </g>
   <g id="line2d_45">
    <path clip-path="url(#pf5a4aeee19)" d="M 86.326761 348.530502 
L 90.824536 353.099101 
L 95.322311 353.219908 
L 221.26 353.22348 
L 756.49518 353.2239 
L 756.49518 353.2239 
" style="fill:none;stroke:#f45b5b;stroke-linecap:square;"/>
   </g>
   <g id="line2d_46">
    <path clip-path="url(#pf5a4aeee19)" d="M 86.326761 348.531137 
L 90.824536 353.096588 
L 95.322311 353.219912 
L 221.26 353.223593 
L 756.49518 353.2239 
L 756.49518 353.2239 
" style="fill:none;stroke:#91e8e1;stroke-linecap:square;"/>
   </g>
   <g id="line2d_47">
    <path clip-path="url(#pf5a4aeee19)" d="M 86.326761 348.591233 
L 90.824536 353.089996 
L 95.322311 353.22061 
L 248.246648 353.221576 
L 455.14428 353.2239 
L 756.49518 353.2239 
L 756.49518 353.2239 
" style="fill:none;stroke:#7cb5ec;stroke-linecap:square;"/>
   </g>
   <g id="line2d_48">
    <path clip-path="url(#pf5a4aeee19)" d="M 86.326761 348.573745 
L 90.824536 353.104033 
L 95.322311 353.219604 
L 203.268902 353.223623 
L 248.246648 353.221666 
L 464.13983 353.221472 
L 671.037462 353.222932 
L 729.508532 353.220958 
L 756.49518 353.2239 
L 756.49518 353.2239 
" style="fill:none;stroke:#434348;stroke-linecap:square;"/>
   </g>
   <g id="line2d_49">
    <path clip-path="url(#pf5a4aeee19)" d="M 86.326761 348.594191 
L 90.824536 353.104372 
L 95.322311 353.219809 
L 221.26 353.223316 
L 756.49518 353.2239 
L 756.49518 353.2239 
" style="fill:none;stroke:#90ed7d;stroke-linecap:square;"/>
   </g>
   <g id="line2d_50">
    <path clip-path="url(#pf5a4aeee19)" d="M 86.326761 348.536924 
L 90.824536 353.101697 
L 95.322311 353.219057 
L 194.273352 353.223416 
L 261.739972 353.2239 
L 756.49518 353.2239 
L 756.49518 353.2239 
" style="fill:none;stroke:#f7a35c;stroke-linecap:square;"/>
   </g>
   <g id="line2d_51">
    <path clip-path="url(#pf5a4aeee19)" d="M 86.326761 348.603316 
L 90.824536 353.1008 
L 95.322311 353.218755 
L 194.273352 353.223147 
L 257.242197 353.2239 
L 756.49518 353.2239 
L 756.49518 353.2239 
" style="fill:none;stroke:#8085e9;stroke-linecap:square;"/>
   </g>
   <g id="line2d_52">
    <path clip-path="url(#pf5a4aeee19)" d="M 86.326761 350.618435 
L 90.824536 352.786118 
L 95.322311 353.2239 
L 468.637604 353.2239 
L 473.135379 249.199079 
L 477.633153 353.2239 
L 482.130928 245.97075 
L 486.628703 353.2239 
L 491.126477 242.710624 
L 495.624252 353.2239 
L 500.122027 353.2239 
L 504.619801 237.626634 
L 509.117576 353.213374 
L 513.61535 353.2239 
L 518.113125 232.479686 
L 522.6109 353.2239 
L 540.601998 353.2239 
L 545.099773 221.39087 
L 549.597547 353.2239 
L 567.588646 353.2239 
L 572.08642 209.422554 
L 576.584195 207.426033 
L 581.08197 353.2239 
L 608.068617 353.2239 
L 612.566392 190.424284 
L 617.064167 353.2239 
L 621.561941 186.213752 
L 626.059716 353.2239 
L 639.55304 353.2239 
L 644.050814 175.249897 
L 648.548589 172.997412 
L 653.046364 353.2239 
L 662.041913 353.2239 
L 666.539688 164.223085 
L 671.037462 353.2239 
L 675.535237 159.860564 
L 684.530786 155.669428 
L 689.028561 353.2239 
L 738.504081 353.2239 
L 743.001856 126.73275 
L 747.499631 353.2239 
L 760.992955 353.2239 
L 765.490729 35.2559 
L 769.988504 353.2239 
L 774.486278 35.2559 
L 778.984053 35.2559 
L 783.481828 353.2239 
L 796.975152 353.2239 
L 801.472926 35.2559 
L 805.970701 353.2239 
L 837.455123 353.2239 
L 841.952898 35.2559 
L 850.948447 35.2559 
L 855.446222 353.2239 
L 891.428419 353.2239 
L 895.926193 35.2559 
L 900.423968 353.2239 
L 927.410616 353.2239 
L 931.90839 35.2559 
L 936.406165 353.2239 
L 949.899489 353.2239 
L 949.899489 353.2239 
" style="fill:none;stroke:#f15c80;stroke-linecap:square;"/>
   </g>
   <g id="line2d_53">
    <path clip-path="url(#pf5a4aeee19)" d="M 86.326761 348.639724 
L 90.824536 353.101272 
L 95.322311 353.219796 
L 212.264451 353.223572 
L 302.219943 353.221437 
L 522.6109 353.2239 
L 756.49518 353.2239 
L 756.49518 353.2239 
" style="fill:none;stroke:#e4d354;stroke-linecap:square;"/>
   </g>
   <g id="line2d_54"/>
   <g id="line2d_55">
    <path clip-path="url(#pf5a4aeee19)" d="M 86.326761 348.585574 
L 90.824536 353.094005 
L 95.322311 353.220096 
L 230.255549 353.2239 
L 756.49518 353.2239 
L 756.49518 353.2239 
" style="fill:none;stroke:#f45b5b;stroke-linecap:square;"/>
   </g>
   <g id="line2d_56">
    <path clip-path="url(#pf5a4aeee19)" d="M 86.326761 348.593046 
L 90.824536 353.111726 
L 99.820085 353.2239 
L 756.49518 353.2239 
L 756.49518 353.2239 
" style="fill:none;stroke:#91e8e1;stroke-linecap:square;"/>
   </g>
   <g id="line2d_57">
    <path clip-path="url(#pf5a4aeee19)" d="M 86.326761 349.896269 
L 90.824536 352.648403 
L 95.322311 353.2239 
L 756.49518 353.2239 
L 756.49518 353.2239 
" style="fill:none;stroke:#7cb5ec;stroke-linecap:square;"/>
   </g>
   <g id="line2d_58">
    <path clip-path="url(#pf5a4aeee19)" d="M 86.326761 350.114249 
L 90.824536 352.589172 
L 95.322311 353.2239 
L 756.49518 353.2239 
L 756.49518 353.2239 
" style="fill:none;stroke:#434348;stroke-linecap:square;"/>
   </g>
   <g id="line2d_59"/>
   <g id="line2d_60"/>
   <g id="line2d_61">
    <path clip-path="url(#pf5a4aeee19)" d="M 86.326761 348.490056 
L 90.824536 353.094993 
L 95.322311 353.219837 
L 225.757775 353.2239 
L 756.49518 353.2239 
L 756.49518 353.2239 
" style="fill:none;stroke:#8085e9;stroke-linecap:square;"/>
   </g>
   <g id="line2d_62">
    <path clip-path="url(#pf5a4aeee19)" d="M 86.326761 348.555112 
L 90.824536 353.106268 
L 99.820085 353.2239 
L 756.49518 353.2239 
L 756.49518 353.2239 
" style="fill:none;stroke:#f15c80;stroke-linecap:square;"/>
   </g>
   <g id="line2d_63">
    <path clip-path="url(#pf5a4aeee19)" d="M 86.326761 348.548276 
L 90.824536 353.090282 
L 95.322311 353.2201 
L 230.255549 353.2239 
L 756.49518 353.2239 
L 756.49518 353.2239 
" style="fill:none;stroke:#e4d354;stroke-linecap:square;"/>
   </g>
   <g id="line2d_64">
    <path clip-path="url(#pf5a4aeee19)" d="M 86.326761 348.573332 
L 90.824536 353.103837 
L 95.322311 353.219493 
L 203.268902 353.223781 
L 239.251098 353.221867 
L 486.628703 353.2239 
L 756.49518 353.2239 
L 756.49518 353.2239 
" style="fill:none;stroke:#2b908f;stroke-linecap:square;"/>
   </g>
   <g id="line2d_65">
    <path clip-path="url(#pf5a4aeee19)" d="M 86.326761 348.543665 
L 90.824536 353.0918 
L 95.322311 353.220398 
L 239.251098 353.222071 
L 513.61535 353.2239 
L 756.49518 353.2239 
L 756.49518 353.2239 
" style="fill:none;stroke:#f45b5b;stroke-linecap:square;"/>
   </g>
   <g id="line2d_66">
    <path clip-path="url(#pf5a4aeee19)" d="M 86.326761 350.534469 
L 90.824536 352.608842 
L 95.322311 353.2239 
L 756.49518 353.2239 
L 756.49518 353.2239 
" style="fill:none;stroke:#91e8e1;stroke-linecap:square;"/>
   </g>
   <g id="line2d_67">
    <path clip-path="url(#pf5a4aeee19)" d="M 86.326761 348.551487 
L 90.824536 353.089697 
L 95.322311 353.219378 
L 203.268902 353.223411 
L 243.748873 353.2239 
L 495.624252 353.2239 
L 756.49518 353.2239 
L 756.49518 353.2239 
" style="fill:none;stroke:#7cb5ec;stroke-linecap:square;"/>
   </g>
   <g id="line2d_68">
    <path clip-path="url(#pf5a4aeee19)" d="M 86.326761 348.516606 
L 90.824536 353.097243 
L 95.322311 353.220583 
L 243.748873 353.2239 
L 437.153182 353.2239 
L 756.49518 353.2239 
L 756.49518 353.2239 
" style="fill:none;stroke:#434348;stroke-linecap:square;"/>
   </g>
   <g id="line2d_69">
    <path clip-path="url(#pf5a4aeee19)" d="M 86.326761 350.03484 
L 90.824536 352.5748 
L 95.322311 353.2239 
L 756.49518 353.2239 
L 756.49518 353.2239 
" style="fill:none;stroke:#90ed7d;stroke-linecap:square;"/>
   </g>
   <g id="line2d_70">
    <path clip-path="url(#pf5a4aeee19)" d="M 86.326761 348.58799 
L 90.824536 353.099669 
L 95.322311 353.219305 
L 203.268902 353.223594 
L 239.251098 353.222673 
L 648.548589 353.2239 
L 756.49518 353.2239 
L 756.49518 353.2239 
" style="fill:none;stroke:#f7a35c;stroke-linecap:square;"/>
   </g>
   <g id="line2d_71">
    <path clip-path="url(#pf5a4aeee19)" d="M 86.326761 350.187449 
L 90.824536 352.606915 
L 95.322311 353.2239 
L 756.49518 353.2239 
L 756.49518 353.2239 
" style="fill:none;stroke:#8085e9;stroke-linecap:square;"/>
   </g>
   <g id="line2d_72">
    <path clip-path="url(#pf5a4aeee19)" d="M 86.326761 348.547449 
L 90.824536 353.104403 
L 99.820085 353.2239 
L 756.49518 353.2239 
L 756.49518 353.2239 
" style="fill:none;stroke:#f15c80;stroke-linecap:square;"/>
   </g>
   <g id="line2d_73">
    <path clip-path="url(#pf5a4aeee19)" d="M 86.326761 348.529357 
L 90.824536 353.106924 
L 99.820085 353.2239 
L 756.49518 353.2239 
L 756.49518 353.2239 
" style="fill:none;stroke:#e4d354;stroke-linecap:square;"/>
   </g>
   <g id="line2d_74">
    <path clip-path="url(#pf5a4aeee19)" d="M 86.326761 348.52128 
L 90.824536 353.110314 
L 99.820085 353.2239 
L 756.49518 353.2239 
L 756.49518 353.2239 
" style="fill:none;stroke:#2b908f;stroke-linecap:square;"/>
   </g>
   <g id="line2d_75">
    <path clip-path="url(#pf5a4aeee19)" d="M 86.326761 348.524937 
L 90.824536 353.102183 
L 95.322311 353.22006 
L 225.757775 353.2239 
L 756.49518 353.2239 
L 756.49518 353.2239 
" style="fill:none;stroke:#f45b5b;stroke-linecap:square;"/>
   </g>
   <g id="line2d_76">
    <path clip-path="url(#pf5a4aeee19)" d="M 86.326761 348.557751 
L 90.824536 353.09743 
L 95.322311 353.220247 
L 234.753324 353.2239 
L 756.49518 353.2239 
L 756.49518 353.2239 
" style="fill:none;stroke:#91e8e1;stroke-linecap:square;"/>
   </g>
   <g id="line2d_77">
    <path clip-path="url(#pf5a4aeee19)" d="M 86.326761 348.489166 
L 90.824536 353.108231 
L 99.820085 353.2239 
L 756.49518 353.2239 
L 756.49518 353.2239 
" style="fill:none;stroke:#7cb5ec;stroke-linecap:square;"/>
   </g>
   <g id="line2d_78">
    <path clip-path="url(#pf5a4aeee19)" d="M 86.326761 348.558165 
L 90.824536 353.10334 
L 95.322311 353.220381 
L 239.251098 353.222416 
L 576.584195 353.2239 
L 756.49518 353.2239 
L 756.49518 353.2239 
" style="fill:none;stroke:#434348;stroke-linecap:square;"/>
   </g>
   <g id="line2d_79">
    <path clip-path="url(#pf5a4aeee19)" d="M 86.326761 348.528594 
L 90.824536 353.107633 
L 99.820085 353.2239 
L 756.49518 353.2239 
L 756.49518 353.2239 
" style="fill:none;stroke:#90ed7d;stroke-linecap:square;"/>
   </g>
   <g id="line2d_80">
    <path clip-path="url(#pf5a4aeee19)" d="M 86.326761 348.54481 
L 90.824536 353.105169 
L 95.322311 353.220414 
L 239.251098 353.222809 
L 671.037462 353.222594 
L 756.49518 353.2239 
L 756.49518 353.2239 
" style="fill:none;stroke:#f7a35c;stroke-linecap:square;"/>
   </g>
   <g id="line2d_81">
    <path clip-path="url(#pf5a4aeee19)" d="M 86.326761 348.540422 
L 90.824536 353.09745 
L 95.322311 353.219669 
L 203.268902 353.223416 
L 239.251098 353.222079 
L 513.61535 353.2239 
L 734.006307 353.2171 
L 756.49518 353.2239 
L 756.49518 353.2239 
" style="fill:none;stroke:#8085e9;stroke-linecap:square;"/>
   </g>
   <g id="line2d_82">
    <path clip-path="url(#pf5a4aeee19)" d="M 86.326761 348.576607 
L 90.824536 353.106776 
L 99.820085 353.2239 
L 756.49518 353.2239 
L 756.49518 353.2239 
" style="fill:none;stroke:#f15c80;stroke-linecap:square;"/>
   </g>
   <g id="line2d_83">
    <path clip-path="url(#pf5a4aeee19)" d="M 86.326761 348.523697 
L 90.824536 353.103081 
L 95.322311 353.219581 
L 203.268902 353.223786 
L 248.246648 353.221949 
L 482.130928 353.2239 
L 756.49518 353.2239 
L 756.49518 353.2239 
" style="fill:none;stroke:#e4d354;stroke-linecap:square;"/>
   </g>
   <g id="line2d_84">
    <path clip-path="url(#pf5a4aeee19)" d="M 86.326761 349.996557 
L 90.824536 352.651777 
L 95.322311 353.2239 
L 756.49518 353.2239 
L 756.49518 353.2239 
" style="fill:none;stroke:#2b908f;stroke-linecap:square;"/>
   </g>
   <g id="line2d_85">
    <path clip-path="url(#pf5a4aeee19)" d="M 86.326761 348.549039 
L 90.824536 353.102493 
L 95.322311 353.221305 
L 288.726619 353.223309 
L 756.49518 353.2239 
L 756.49518 353.2239 
" style="fill:none;stroke:#f45b5b;stroke-linecap:square;"/>
   </g>
   <g id="line2d_86">
    <path clip-path="url(#pf5a4aeee19)" d="M 86.326761 350.030929 
L 90.824536 352.757686 
L 95.322311 353.2239 
L 756.49518 353.2239 
L 756.49518 353.2239 
" style="fill:none;stroke:#91e8e1;stroke-linecap:square;"/>
   </g>
   <g id="line2d_87"/>
   <g id="line2d_88">
    <path clip-path="url(#pf5a4aeee19)" d="M 86.326761 348.49066 
L 90.824536 353.10535 
L 99.820085 353.2239 
L 756.49518 353.2239 
L 756.49518 353.2239 
" style="fill:none;stroke:#434348;stroke-linecap:square;"/>
   </g>
   <g id="line2d_89">
    <path clip-path="url(#pf5a4aeee19)" d="M 86.326761 348.555971 
L 90.824536 353.108811 
L 99.820085 353.2239 
L 756.49518 353.2239 
L 756.49518 353.2239 
" style="fill:none;stroke:#90ed7d;stroke-linecap:square;"/>
   </g>
   <g id="line2d_90">
    <path clip-path="url(#pf5a4aeee19)" d="M 86.326761 348.564333 
L 90.824536 353.10306 
L 95.322311 353.219468 
L 203.268902 353.223457 
L 257.242197 353.2239 
L 756.49518 353.2239 
L 756.49518 353.2239 
" style="fill:none;stroke:#f7a35c;stroke-linecap:square;"/>
   </g>
   <g id="line2d_91">
    <path clip-path="url(#pf5a4aeee19)" d="M 86.326761 348.578165 
L 90.824536 353.105733 
L 95.322311 353.220663 
L 248.246648 353.222272 
L 432.655407 353.219883 
L 558.593097 353.2239 
L 756.49518 353.2239 
L 756.49518 353.2239 
" style="fill:none;stroke:#8085e9;stroke-linecap:square;"/>
   </g>
   <g id="line2d_92">
    <path clip-path="url(#pf5a4aeee19)" d="M 86.326761 348.60392 
L 90.824536 353.104098 
L 95.322311 353.220278 
L 234.753324 353.2239 
L 495.624252 353.2239 
L 756.49518 353.2239 
L 756.49518 353.2239 
" style="fill:none;stroke:#f15c80;stroke-linecap:square;"/>
   </g>
   <g id="line2d_93">
    <path clip-path="url(#pf5a4aeee19)" d="M 86.326761 348.634318 
L 90.824536 353.128937 
L 99.820085 353.2239 
L 756.49518 353.2239 
L 756.49518 353.2239 
" style="fill:none;stroke:#e4d354;stroke-linecap:square;"/>
   </g>
   <g id="line2d_94">
    <path clip-path="url(#pf5a4aeee19)" d="M 86.326761 348.890028 
L 90.824536 353.111878 
L 99.820085 353.2239 
L 756.49518 353.2239 
L 756.49518 353.2239 
" style="fill:none;stroke:#2b908f;stroke-linecap:square;"/>
   </g>
   <g id="line2d_95">
    <path clip-path="url(#pf5a4aeee19)" d="M 86.326761 352.280899 
L 90.824536 353.08015 
L 95.322311 353.2239 
L 504.619801 353.2239 
L 509.117576 128.65741 
L 513.61535 128.470127 
L 518.113125 353.2239 
L 522.6109 353.2239 
L 527.108674 127.893015 
L 531.606449 127.695875 
L 536.104223 353.2239 
L 594.575294 353.2239 
L 599.073068 124.42939 
L 603.570843 353.2239 
L 617.064167 353.2239 
L 621.561941 123.166103 
L 626.059716 122.922221 
L 630.557491 353.2239 
L 644.050814 353.2239 
L 648.548589 121.529204 
L 653.046364 353.2239 
L 662.041913 353.2239 
L 666.539688 120.371164 
L 671.037462 353.221347 
L 725.010758 353.2239 
L 729.508532 115.091941 
L 734.006307 114.684306 
L 738.504081 353.2239 
L 743.001856 113.572372 
L 747.499631 353.2239 
L 765.490729 353.2239 
L 769.988504 35.2559 
L 774.486278 35.2559 
L 778.984053 353.2239 
L 814.96625 353.2239 
L 819.464025 35.2559 
L 823.961799 353.2239 
L 837.455123 353.2239 
L 841.952898 35.2559 
L 846.450672 35.2559 
L 850.948447 353.2239 
L 855.446222 35.2559 
L 859.943996 353.2239 
L 864.441771 35.2559 
L 868.939545 353.2239 
L 900.423968 353.2239 
L 904.921742 35.2559 
L 909.419517 353.2239 
L 913.917292 35.2559 
L 918.415066 353.2239 
L 927.410616 353.2239 
L 931.90839 35.2559 
L 936.406165 353.2239 
L 940.903939 353.2239 
L 940.903939 353.2239 
" style="fill:none;stroke:#f45b5b;stroke-linecap:square;"/>
   </g>
   <g id="line2d_96">
    <path clip-path="url(#pf5a4aeee19)" d="M 86.326761 348.488021 
L 90.824536 353.118457 
L 99.820085 353.2239 
L 756.49518 353.2239 
L 756.49518 353.2239 
" style="fill:none;stroke:#91e8e1;stroke-linecap:square;"/>
   </g>
   <g id="line2d_97">
    <path clip-path="url(#pf5a4aeee19)" d="M 86.326761 349.548508 
L 90.824536 353.028133 
L 95.322311 353.2239 
L 756.49518 353.2239 
L 756.49518 353.2239 
" style="fill:none;stroke:#7cb5ec;stroke-linecap:square;"/>
   </g>
   <g id="line2d_98">
    <path clip-path="url(#pf5a4aeee19)" d="M 86.326761 349.24682 
L 90.824536 353.094922 
L 95.322311 353.222208 
L 378.682112 353.2239 
L 432.655407 353.2239 
L 756.49518 353.2239 
L 756.49518 353.2239 
" style="fill:none;stroke:#434348;stroke-linecap:square;"/>
   </g>
   <g id="line2d_99">
    <path clip-path="url(#pf5a4aeee19)" d="M 86.326761 348.688404 
L 90.824536 353.134545 
L 99.820085 353.2239 
L 756.49518 353.2239 
L 756.49518 353.2239 
" style="fill:none;stroke:#90ed7d;stroke-linecap:square;"/>
   </g>
   <g id="line2d_100">
    <path clip-path="url(#pf5a4aeee19)" d="M 86.326761 348.650693 
L 90.824536 353.137351 
L 99.820085 353.2239 
L 756.49518 353.2239 
L 756.49518 353.2239 
" style="fill:none;stroke:#f7a35c;stroke-linecap:square;"/>
   </g>
   <g id="line2d_101">
    <path clip-path="url(#pf5a4aeee19)" d="M 86.326761 348.952413 
L 90.824536 353.111256 
L 95.322311 353.2239 
L 756.49518 353.2239 
L 756.49518 353.2239 
" style="fill:none;stroke:#8085e9;stroke-linecap:square;"/>
   </g>
   <g id="line2d_102">
    <path clip-path="url(#pf5a4aeee19)" d="M 86.326761 348.708913 
L 90.824536 353.122054 
L 99.820085 353.2239 
L 756.49518 353.2239 
L 756.49518 353.2239 
" style="fill:none;stroke:#f15c80;stroke-linecap:square;"/>
   </g>
   <g id="line2d_103">
    <path clip-path="url(#pf5a4aeee19)" d="M 86.326761 348.701505 
L 90.824536 353.14103 
L 99.820085 353.2239 
L 756.49518 353.2239 
L 756.49518 353.2239 
" style="fill:none;stroke:#e4d354;stroke-linecap:square;"/>
   </g>
   <g id="line2d_104">
    <path clip-path="url(#pf5a4aeee19)" d="M 86.326761 350.432284 
L 90.824536 352.7007 
L 95.322311 353.2239 
L 756.49518 353.2239 
L 756.49518 353.2239 
" style="fill:none;stroke:#2b908f;stroke-linecap:square;"/>
   </g>
   <g id="line2d_105">
    <path clip-path="url(#pf5a4aeee19)" d="M 86.326761 348.672029 
L 90.824536 353.151215 
L 99.820085 353.2239 
L 756.49518 353.2239 
L 756.49518 353.2239 
" style="fill:none;stroke:#f45b5b;stroke-linecap:square;"/>
   </g>
   <g id="line2d_106"/>
   <g id="line2d_107">
    <path clip-path="url(#pf5a4aeee19)" d="M 86.326761 348.86335 
L 90.824536 353.105458 
L 99.820085 353.2239 
L 756.49518 353.2239 
L 756.49518 353.2239 
" style="fill:none;stroke:#7cb5ec;stroke-linecap:square;"/>
   </g>
   <g id="line2d_108">
    <path clip-path="url(#pf5a4aeee19)" d="M 86.326761 350.674309 
L 90.824536 352.731342 
L 95.322311 353.2239 
L 756.49518 353.2239 
L 756.49518 353.2239 
" style="fill:none;stroke:#434348;stroke-linecap:square;"/>
   </g>
   <g id="line2d_109"/>
   <g id="line2d_110">
    <path clip-path="url(#pf5a4aeee19)" d="M 86.326761 353.2239 
L 756.49518 353.2239 
L 756.49518 353.2239 
" style="fill:none;stroke:#f7a35c;stroke-linecap:square;"/>
   </g>
   <g id="line2d_111">
    <path clip-path="url(#pf5a4aeee19)" d="M 86.326761 348.559914 
L 90.824536 353.128182 
L 99.820085 353.2239 
L 756.49518 353.2239 
L 756.49518 353.2239 
" style="fill:none;stroke:#8085e9;stroke-linecap:square;"/>
   </g>
   <g id="line2d_112">
    <path clip-path="url(#pf5a4aeee19)" d="M 86.326761 348.649231 
L 90.824536 353.133074 
L 99.820085 353.2239 
L 756.49518 353.2239 
L 756.49518 353.2239 
" style="fill:none;stroke:#f15c80;stroke-linecap:square;"/>
   </g>
   <g id="line2d_113"/>
   <g id="line2d_114"/>
   <g id="line2d_115">
    <path clip-path="url(#pf5a4aeee19)" d="M 86.326761 348.79025 
L 90.824536 353.13218 
L 99.820085 353.2239 
L 756.49518 353.2239 
L 756.49518 353.2239 
" style="fill:none;stroke:#f45b5b;stroke-linecap:square;"/>
   </g>
   <g id="line2d_116"/>
   <g id="line2d_117"/>
   <g id="line2d_118"/>
   <g id="line2d_119">
    <path clip-path="url(#pf5a4aeee19)" d="M 86.326761 353.2239 
L 756.49518 353.2239 
L 756.49518 353.2239 
" style="fill:none;stroke:#90ed7d;stroke-linecap:square;"/>
   </g>
   <g id="line2d_120">
    <path clip-path="url(#pf5a4aeee19)" d="M 86.326761 353.2239 
L 756.49518 353.2239 
L 756.49518 353.2239 
" style="fill:none;stroke:#f7a35c;stroke-linecap:square;"/>
   </g>
   <g id="line2d_121"/>
   <g id="line2d_122">
    <path clip-path="url(#pf5a4aeee19)" d="M 86.326761 348.357463 
L 90.824536 353.113924 
L 99.820085 353.2239 
L 756.49518 353.2239 
L 756.49518 353.2239 
" style="fill:none;stroke:#f15c80;stroke-linecap:square;"/>
   </g>
   <g id="line2d_123">
    <path clip-path="url(#pf5a4aeee19)" d="M 86.326761 353.2239 
L 756.49518 353.2239 
L 756.49518 353.2239 
" style="fill:none;stroke:#e4d354;stroke-linecap:square;"/>
   </g>
   <g id="line2d_124"/>
   <g id="line2d_125"/>
   <g id="line2d_126"/>
   <g id="line2d_127"/>
   <g id="line2d_128">
    <path clip-path="url(#pf5a4aeee19)" d="M 86.326761 348.717848 
L 90.824536 353.2239 
L 756.49518 353.2239 
L 756.49518 353.2239 
" style="fill:none;stroke:#434348;stroke-linecap:square;"/>
   </g>
   <g id="line2d_129"/>
   <g id="line2d_130">
    <path clip-path="url(#pf5a4aeee19)" d="M 86.326761 350.17907 
L 90.824536 352.718891 
L 95.322311 353.2239 
L 756.49518 353.2239 
L 756.49518 353.2239 
" style="fill:none;stroke:#f7a35c;stroke-linecap:square;"/>
   </g>
   <g id="line2d_131">
    <path clip-path="url(#pf5a4aeee19)" d="M 86.326761 352.639875 
L 90.824536 353.151415 
L 99.820085 353.2239 
L 581.08197 353.2239 
L 585.579744 74.147838 
L 590.077519 353.2239 
L 621.561941 353.2239 
L 626.059716 72.983439 
L 630.557491 353.2239 
L 639.55304 353.2239 
L 644.050814 72.384387 
L 648.548589 353.2239 
L 680.033011 353.2239 
L 684.530786 71.000591 
L 689.028561 70.824436 
L 693.526335 353.2239 
L 756.49518 353.2239 
L 760.992955 35.2559 
L 765.490729 35.2559 
L 769.988504 353.2239 
L 774.486278 353.2239 
L 778.984053 35.2559 
L 783.481828 353.2239 
L 931.90839 353.2239 
L 936.406165 35.2559 
L 940.903939 353.2239 
L 940.903939 353.2239 
" style="fill:none;stroke:#8085e9;stroke-linecap:square;"/>
   </g>
   <g id="line2d_132"/>
   <g id="line2d_133">
    <path clip-path="url(#pf5a4aeee19)" d="M 86.326761 350.223284 
L 90.824536 352.811276 
L 95.322311 353.2239 
L 756.49518 353.2239 
L 756.49518 353.2239 
" style="fill:none;stroke:#e4d354;stroke-linecap:square;"/>
   </g>
   <g id="line2d_134">
    <path clip-path="url(#pf5a4aeee19)" d="M 86.326761 350.077658 
L 90.824536 352.762897 
L 95.322311 353.2239 
L 756.49518 353.2239 
L 756.49518 353.2239 
" style="fill:none;stroke:#2b908f;stroke-linecap:square;"/>
   </g>
   <g id="line2d_135">
    <path clip-path="url(#pf5a4aeee19)" d="M 86.326761 350.036621 
L 90.824536 352.728852 
L 95.322311 353.2239 
L 756.49518 353.2239 
L 756.49518 353.2239 
" style="fill:none;stroke:#f45b5b;stroke-linecap:square;"/>
   </g>
   <g id="line2d_136">
    <path clip-path="url(#pf5a4aeee19)" d="M 86.326761 349.661577 
L 90.824536 353.101061 
L 95.322311 353.2239 
L 756.49518 353.2239 
L 756.49518 353.2239 
" style="fill:none;stroke:#91e8e1;stroke-linecap:square;"/>
   </g>
   <g id="line2d_137">
    <path clip-path="url(#pf5a4aeee19)" d="M 86.326761 348.635304 
L 90.824536 353.123235 
L 99.820085 353.2239 
L 756.49518 353.2239 
L 756.49518 353.2239 
" style="fill:none;stroke:#7cb5ec;stroke-linecap:square;"/>
   </g>
   <g id="line2d_138">
    <path clip-path="url(#pf5a4aeee19)" d="M 86.326761 352.360817 
L 90.824536 353.089449 
L 95.322311 353.2239 
L 810.468475 353.2239 
L 814.96625 35.2559 
L 819.464025 35.2559 
L 823.961799 353.2239 
L 940.903939 353.2239 
L 940.903939 353.2239 
" style="fill:none;stroke:#434348;stroke-linecap:square;"/>
   </g>
   <g id="line2d_139">
    <path clip-path="url(#pf5a4aeee19)" d="M 86.326761 348.699565 
L 90.824536 353.134328 
L 99.820085 353.2239 
L 756.49518 353.2239 
L 756.49518 353.2239 
" style="fill:none;stroke:#90ed7d;stroke-linecap:square;"/>
   </g>
   <g id="line2d_140">
    <path clip-path="url(#pf5a4aeee19)" d="M 86.326761 350.097165 
L 90.824536 352.642947 
L 95.322311 353.2239 
L 756.49518 353.2239 
L 756.49518 353.2239 
" style="fill:none;stroke:#f7a35c;stroke-linecap:square;"/>
   </g>
   <g id="line2d_141">
    <path clip-path="url(#pf5a4aeee19)" d="M 86.326761 348.663571 
L 90.824536 353.133299 
L 99.820085 353.2239 
L 756.49518 353.2239 
L 756.49518 353.2239 
" style="fill:none;stroke:#8085e9;stroke-linecap:square;"/>
   </g>
   <g id="line2d_142">
    <path clip-path="url(#pf5a4aeee19)" d="M 86.326761 348.671075 
L 90.824536 353.131747 
L 99.820085 353.2239 
L 756.49518 353.2239 
L 756.49518 353.2239 
" style="fill:none;stroke:#f15c80;stroke-linecap:square;"/>
   </g>
   <g id="line2d_143">
    <path clip-path="url(#pf5a4aeee19)" d="M 86.326761 350.058872 
L 90.824536 352.873957 
L 95.322311 353.2239 
L 756.49518 353.2239 
L 756.49518 353.2239 
" style="fill:none;stroke:#e4d354;stroke-linecap:square;"/>
   </g>
   <g id="line2d_144">
    <path clip-path="url(#pf5a4aeee19)" d="M 86.326761 349.95379 
L 90.824536 352.75952 
L 95.322311 353.2239 
L 756.49518 353.2239 
L 756.49518 353.2239 
" style="fill:none;stroke:#2b908f;stroke-linecap:square;"/>
   </g>
   <g id="line2d_145">
    <path clip-path="url(#pf5a4aeee19)" d="M 86.326761 350.117712 
L 90.824536 352.845458 
L 95.322311 353.2239 
L 756.49518 353.2239 
L 756.49518 353.2239 
" style="fill:none;stroke:#f45b5b;stroke-linecap:square;"/>
   </g>
   <g id="line2d_146">
    <path clip-path="url(#pf5a4aeee19)" d="M 86.326761 348.657085 
L 90.824536 353.125729 
L 99.820085 353.2239 
L 756.49518 353.2239 
L 756.49518 353.2239 
" style="fill:none;stroke:#91e8e1;stroke-linecap:square;"/>
   </g>
   <g id="line2d_147">
    <path clip-path="url(#pf5a4aeee19)" d="M 86.326761 348.620296 
L 90.824536 353.129057 
L 99.820085 353.2239 
L 756.49518 353.2239 
L 756.49518 353.2239 
" style="fill:none;stroke:#7cb5ec;stroke-linecap:square;"/>
   </g>
   <g id="line2d_148">
    <path clip-path="url(#pf5a4aeee19)" d="M 86.326761 348.64815 
L 90.824536 353.133847 
L 99.820085 353.2239 
L 756.49518 353.2239 
L 756.49518 353.2239 
" style="fill:none;stroke:#434348;stroke-linecap:square;"/>
   </g>
   <g id="line2d_149">
    <path clip-path="url(#pf5a4aeee19)" d="M 86.326761 348.651584 
L 90.824536 353.116292 
L 99.820085 353.2239 
L 756.49518 353.2239 
L 756.49518 353.2239 
" style="fill:none;stroke:#90ed7d;stroke-linecap:square;"/>
   </g>
   <g id="line2d_150">
    <path clip-path="url(#pf5a4aeee19)" d="M 86.326761 349.213115 
L 90.824536 353.098452 
L 95.322311 353.221233 
L 279.73107 353.2239 
L 396.67321 353.2239 
L 756.49518 353.2239 
L 756.49518 353.2239 
" style="fill:none;stroke:#f7a35c;stroke-linecap:square;"/>
   </g>
   <g id="line2d_151">
    <path clip-path="url(#pf5a4aeee19)" d="M 86.326761 348.712983 
L 90.824536 353.129079 
L 99.820085 353.2239 
L 756.49518 353.2239 
L 756.49518 353.2239 
" style="fill:none;stroke:#8085e9;stroke-linecap:square;"/>
   </g>
   <g id="line2d_152">
    <path clip-path="url(#pf5a4aeee19)" d="M 86.326761 348.671934 
L 90.824536 353.136195 
L 99.820085 353.2239 
L 756.49518 353.2239 
L 756.49518 353.2239 
" style="fill:none;stroke:#f15c80;stroke-linecap:square;"/>
   </g>
   <g id="line2d_153">
    <path clip-path="url(#pf5a4aeee19)" d="M 86.326761 348.6747 
L 90.824536 353.136942 
L 99.820085 353.2239 
L 756.49518 353.2239 
L 756.49518 353.2239 
" style="fill:none;stroke:#e4d354;stroke-linecap:square;"/>
   </g>
   <g id="line2d_154">
    <path clip-path="url(#pf5a4aeee19)" d="M 86.326761 348.695495 
L 90.824536 353.133171 
L 99.820085 353.2239 
L 756.49518 353.2239 
L 756.49518 353.2239 
" style="fill:none;stroke:#2b908f;stroke-linecap:square;"/>
   </g>
   <g id="line2d_155">
    <path clip-path="url(#pf5a4aeee19)" d="M 86.326761 348.609262 
L 90.824536 353.126586 
L 99.820085 353.2239 
L 756.49518 353.2239 
L 756.49518 353.2239 
" style="fill:none;stroke:#f45b5b;stroke-linecap:square;"/>
   </g>
   <g id="line2d_156">
    <path clip-path="url(#pf5a4aeee19)" d="M 86.326761 348.653364 
L 90.824536 353.135623 
L 99.820085 353.2239 
L 756.49518 353.2239 
L 756.49518 353.2239 
" style="fill:none;stroke:#91e8e1;stroke-linecap:square;"/>
   </g>
   <g id="line2d_157">
    <path clip-path="url(#pf5a4aeee19)" d="M 43.148125 353.2239 
L 993.078125 353.2239 
" style="fill:none;stroke:#dedede;stroke-linecap:square;stroke-width:2;"/>
   </g>
   <g id="text_18">
    <!-- Fastp: Read N Content -->
    <defs>
     <path d="M 9.8125 72.90625 
L 51.703125 72.90625 
L 51.703125 64.59375 
L 19.671875 64.59375 
L 19.671875 43.109375 
L 48.578125 43.109375 
L 48.578125 34.8125 
L 19.671875 34.8125 
L 19.671875 0 
L 9.8125 0 
z
" id="DejaVuSans-70"/>
     <path d="M 18.109375 8.203125 
L 18.109375 -20.796875 
L 9.078125 -20.796875 
L 9.078125 54.6875 
L 18.109375 54.6875 
L 18.109375 46.390625 
Q 20.953125 51.265625 25.265625 53.625 
Q 29.59375 56 35.59375 56 
Q 45.5625 56 51.78125 48.09375 
Q 58.015625 40.1875 58.015625 27.296875 
Q 58.015625 14.40625 51.78125 6.484375 
Q 45.5625 -1.421875 35.59375 -1.421875 
Q 29.59375 -1.421875 25.265625 0.953125 
Q 20.953125 3.328125 18.109375 8.203125 
z
M 48.6875 27.296875 
Q 48.6875 37.203125 44.609375 42.84375 
Q 40.53125 48.484375 33.40625 48.484375 
Q 26.265625 48.484375 22.1875 42.84375 
Q 18.109375 37.203125 18.109375 27.296875 
Q 18.109375 17.390625 22.1875 11.75 
Q 26.265625 6.109375 33.40625 6.109375 
Q 40.53125 6.109375 44.609375 11.75 
Q 48.6875 17.390625 48.6875 27.296875 
z
" id="DejaVuSans-112"/>
     <path d="M 9.8125 72.90625 
L 23.09375 72.90625 
L 55.421875 11.921875 
L 55.421875 72.90625 
L 64.984375 72.90625 
L 64.984375 0 
L 51.703125 0 
L 19.390625 60.984375 
L 19.390625 0 
L 9.8125 0 
z
" id="DejaVuSans-78"/>
    </defs>
    <g transform="translate(427.656875 19.3575)scale(0.16 -0.16)">
     <use xlink:href="#DejaVuSans-70"/>
     <use x="57.378906" xlink:href="#DejaVuSans-97"/>
     <use x="118.658203" xlink:href="#DejaVuSans-115"/>
     <use x="170.757812" xlink:href="#DejaVuSans-116"/>
     <use x="209.966797" xlink:href="#DejaVuSans-112"/>
     <use x="273.443359" xlink:href="#DejaVuSans-58"/>
     <use x="307.134766" xlink:href="#DejaVuSans-32"/>
     <use x="338.921875" xlink:href="#DejaVuSans-82"/>
     <use x="408.341797" xlink:href="#DejaVuSans-101"/>
     <use x="469.865234" xlink:href="#DejaVuSans-97"/>
     <use x="531.144531" xlink:href="#DejaVuSans-100"/>
     <use x="594.621094" xlink:href="#DejaVuSans-32"/>
     <use x="626.408203" xlink:href="#DejaVuSans-78"/>
     <use x="701.212891" xlink:href="#DejaVuSans-32"/>
     <use x="733" xlink:href="#DejaVuSans-67"/>
     <use x="802.824219" xlink:href="#DejaVuSans-111"/>
     <use x="864.005859" xlink:href="#DejaVuSans-110"/>
     <use x="927.384766" xlink:href="#DejaVuSans-116"/>
     <use x="966.59375" xlink:href="#DejaVuSans-101"/>
     <use x="1028.117188" xlink:href="#DejaVuSans-110"/>
     <use x="1091.496094" xlink:href="#DejaVuSans-116"/>
    </g>
   </g>
  </g>
 </g>
 <defs>
  <clipPath id="pf5a4aeee19">
   <rect height="317.968" width="949.93" x="43.148125" y="35.2559"/>
  </clipPath>
 </defs>
</svg>
