<?xml version="1.0" encoding="utf-8" standalone="no"?>
<!DOCTYPE svg PUBLIC "-//W3C//DTD SVG 1.1//EN"
  "http://www.w3.org/Graphics/SVG/1.1/DTD/svg11.dtd">
<!-- Created with matplotlib (https://matplotlib.org/) -->
<svg height="388.844525pt" version="1.1" viewBox="0 0 1000.358125 388.844525" width="1000.358125pt" xmlns="http://www.w3.org/2000/svg" xmlns:xlink="http://www.w3.org/1999/xlink">
 <defs>
  <style type="text/css">
*{stroke-linecap:butt;stroke-linejoin:round;}
  </style>
 </defs>
 <g id="figure_1">
  <g id="axes_1">
   <g id="patch_1">
    <path d="M 32.968125 353.2239 
L 993.158125 353.2239 
L 993.158125 35.2559 
L 32.968125 35.2559 
z
" style="fill:#ffffff;"/>
   </g>
   <g id="matplotlib.axis_1">
    <g id="xtick_1">
     <g id="text_1">
      <!-- 0 -->
      <defs>
       <path d="M 31.78125 66.40625 
Q 24.171875 66.40625 20.328125 58.90625 
Q 16.5 51.421875 16.5 36.375 
Q 16.5 21.390625 20.328125 13.890625 
Q 24.171875 6.390625 31.78125 6.390625 
Q 39.453125 6.390625 43.28125 13.890625 
Q 47.125 21.390625 47.125 36.375 
Q 47.125 51.421875 43.28125 58.90625 
Q 39.453125 66.40625 31.78125 66.40625 
z
M 31.78125 74.21875 
Q 44.046875 74.21875 50.515625 64.515625 
Q 56.984375 54.828125 56.984375 36.375 
Q 56.984375 17.96875 50.515625 8.265625 
Q 44.046875 -1.421875 31.78125 -1.421875 
Q 19.53125 -1.421875 13.0625 8.265625 
Q 6.59375 17.96875 6.59375 36.375 
Q 6.59375 54.828125 13.0625 64.515625 
Q 19.53125 74.21875 31.78125 74.21875 
z
" id="DejaVuSans-48"/>
      </defs>
      <g transform="translate(68.209736 366.30265)scale(0.08 -0.08)">
       <use xlink:href="#DejaVuSans-48"/>
      </g>
     </g>
    </g>
    <g id="xtick_2">
     <g id="text_2">
      <!-- 20 -->
      <defs>
       <path d="M 19.1875 8.296875 
L 53.609375 8.296875 
L 53.609375 0 
L 7.328125 0 
L 7.328125 8.296875 
Q 12.9375 14.109375 22.625 23.890625 
Q 32.328125 33.6875 34.8125 36.53125 
Q 39.546875 41.84375 41.421875 45.53125 
Q 43.3125 49.21875 43.3125 52.78125 
Q 43.3125 58.59375 39.234375 62.25 
Q 35.15625 65.921875 28.609375 65.921875 
Q 23.96875 65.921875 18.8125 64.3125 
Q 13.671875 62.703125 7.8125 59.421875 
L 7.8125 69.390625 
Q 13.765625 71.78125 18.9375 73 
Q 24.125 74.21875 28.421875 74.21875 
Q 39.75 74.21875 46.484375 68.546875 
Q 53.21875 62.890625 53.21875 53.421875 
Q 53.21875 48.921875 51.53125 44.890625 
Q 49.859375 40.875 45.40625 35.40625 
Q 44.1875 33.984375 37.640625 27.21875 
Q 31.109375 20.453125 19.1875 8.296875 
z
" id="DejaVuSans-50"/>
      </defs>
      <g transform="translate(182.832521 366.30265)scale(0.08 -0.08)">
       <use xlink:href="#DejaVuSans-50"/>
       <use x="63.623047" xlink:href="#DejaVuSans-48"/>
      </g>
     </g>
    </g>
    <g id="xtick_3">
     <g id="text_3">
      <!-- 40 -->
      <defs>
       <path d="M 37.796875 64.3125 
L 12.890625 25.390625 
L 37.796875 25.390625 
z
M 35.203125 72.90625 
L 47.609375 72.90625 
L 47.609375 25.390625 
L 58.015625 25.390625 
L 58.015625 17.1875 
L 47.609375 17.1875 
L 47.609375 0 
L 37.796875 0 
L 37.796875 17.1875 
L 4.890625 17.1875 
L 4.890625 26.703125 
z
" id="DejaVuSans-52"/>
      </defs>
      <g transform="translate(300.000306 366.30265)scale(0.08 -0.08)">
       <use xlink:href="#DejaVuSans-52"/>
       <use x="63.623047" xlink:href="#DejaVuSans-48"/>
      </g>
     </g>
    </g>
    <g id="xtick_4">
     <g id="text_4">
      <!-- 60 -->
      <defs>
       <path d="M 33.015625 40.375 
Q 26.375 40.375 22.484375 35.828125 
Q 18.609375 31.296875 18.609375 23.390625 
Q 18.609375 15.53125 22.484375 10.953125 
Q 26.375 6.390625 33.015625 6.390625 
Q 39.65625 6.390625 43.53125 10.953125 
Q 47.40625 15.53125 47.40625 23.390625 
Q 47.40625 31.296875 43.53125 35.828125 
Q 39.65625 40.375 33.015625 40.375 
z
M 52.59375 71.296875 
L 52.59375 62.3125 
Q 48.875 64.0625 45.09375 64.984375 
Q 41.3125 65.921875 37.59375 65.921875 
Q 27.828125 65.921875 22.671875 59.328125 
Q 17.53125 52.734375 16.796875 39.40625 
Q 19.671875 43.65625 24.015625 45.921875 
Q 28.375 48.1875 33.59375 48.1875 
Q 44.578125 48.1875 50.953125 41.515625 
Q 57.328125 34.859375 57.328125 23.390625 
Q 57.328125 12.15625 50.6875 5.359375 
Q 44.046875 -1.421875 33.015625 -1.421875 
Q 20.359375 -1.421875 13.671875 8.265625 
Q 6.984375 17.96875 6.984375 36.375 
Q 6.984375 53.65625 15.1875 63.9375 
Q 23.390625 74.21875 37.203125 74.21875 
Q 40.921875 74.21875 44.703125 73.484375 
Q 48.484375 72.75 52.59375 71.296875 
z
" id="DejaVuSans-54"/>
      </defs>
      <g transform="translate(417.168091 366.30265)scale(0.08 -0.08)">
       <use xlink:href="#DejaVuSans-54"/>
       <use x="63.623047" xlink:href="#DejaVuSans-48"/>
      </g>
     </g>
    </g>
    <g id="xtick_5">
     <g id="text_5">
      <!-- 80 -->
      <defs>
       <path d="M 31.78125 34.625 
Q 24.75 34.625 20.71875 30.859375 
Q 16.703125 27.09375 16.703125 20.515625 
Q 16.703125 13.921875 20.71875 10.15625 
Q 24.75 6.390625 31.78125 6.390625 
Q 38.8125 6.390625 42.859375 10.171875 
Q 46.921875 13.96875 46.921875 20.515625 
Q 46.921875 27.09375 42.890625 30.859375 
Q 38.875 34.625 31.78125 34.625 
z
M 21.921875 38.8125 
Q 15.578125 40.375 12.03125 44.71875 
Q 8.5 49.078125 8.5 55.328125 
Q 8.5 64.0625 14.71875 69.140625 
Q 20.953125 74.21875 31.78125 74.21875 
Q 42.671875 74.21875 48.875 69.140625 
Q 55.078125 64.0625 55.078125 55.328125 
Q 55.078125 49.078125 51.53125 44.71875 
Q 48 40.375 41.703125 38.8125 
Q 48.828125 37.15625 52.796875 32.3125 
Q 56.78125 27.484375 56.78125 20.515625 
Q 56.78125 9.90625 50.3125 4.234375 
Q 43.84375 -1.421875 31.78125 -1.421875 
Q 19.734375 -1.421875 13.25 4.234375 
Q 6.78125 9.90625 6.78125 20.515625 
Q 6.78125 27.484375 10.78125 32.3125 
Q 14.796875 37.15625 21.921875 38.8125 
z
M 18.3125 54.390625 
Q 18.3125 48.734375 21.84375 45.5625 
Q 25.390625 42.390625 31.78125 42.390625 
Q 38.140625 42.390625 41.71875 45.5625 
Q 45.3125 48.734375 45.3125 54.390625 
Q 45.3125 60.0625 41.71875 63.234375 
Q 38.140625 66.40625 31.78125 66.40625 
Q 25.390625 66.40625 21.84375 63.234375 
Q 18.3125 60.0625 18.3125 54.390625 
z
" id="DejaVuSans-56"/>
      </defs>
      <g transform="translate(534.335877 366.30265)scale(0.08 -0.08)">
       <use xlink:href="#DejaVuSans-56"/>
       <use x="63.623047" xlink:href="#DejaVuSans-48"/>
      </g>
     </g>
    </g>
    <g id="xtick_6">
     <g id="text_6">
      <!-- 100 -->
      <defs>
       <path d="M 12.40625 8.296875 
L 28.515625 8.296875 
L 28.515625 63.921875 
L 10.984375 60.40625 
L 10.984375 69.390625 
L 28.421875 72.90625 
L 38.28125 72.90625 
L 38.28125 8.296875 
L 54.390625 8.296875 
L 54.390625 0 
L 12.40625 0 
z
" id="DejaVuSans-49"/>
      </defs>
      <g transform="translate(648.958662 366.30265)scale(0.08 -0.08)">
       <use xlink:href="#DejaVuSans-49"/>
       <use x="63.623047" xlink:href="#DejaVuSans-48"/>
       <use x="127.246094" xlink:href="#DejaVuSans-48"/>
      </g>
     </g>
    </g>
    <g id="xtick_7">
     <g id="text_7">
      <!-- 120 -->
      <g transform="translate(766.126447 366.30265)scale(0.08 -0.08)">
       <use xlink:href="#DejaVuSans-49"/>
       <use x="63.623047" xlink:href="#DejaVuSans-50"/>
       <use x="127.246094" xlink:href="#DejaVuSans-48"/>
      </g>
     </g>
    </g>
    <g id="xtick_8">
     <g id="text_8">
      <!-- 140 -->
      <g transform="translate(883.294232 366.30265)scale(0.08 -0.08)">
       <use xlink:href="#DejaVuSans-49"/>
       <use x="63.623047" xlink:href="#DejaVuSans-52"/>
       <use x="127.246094" xlink:href="#DejaVuSans-48"/>
      </g>
     </g>
    </g>
    <g id="text_9">
     <!-- Read Position -->
     <defs>
      <path d="M 44.390625 34.1875 
Q 47.5625 33.109375 50.5625 29.59375 
Q 53.5625 26.078125 56.59375 19.921875 
L 66.609375 0 
L 56 0 
L 46.6875 18.703125 
Q 43.0625 26.03125 39.671875 28.421875 
Q 36.28125 30.8125 30.421875 30.8125 
L 19.671875 30.8125 
L 19.671875 0 
L 9.8125 0 
L 9.8125 72.90625 
L 32.078125 72.90625 
Q 44.578125 72.90625 50.734375 67.671875 
Q 56.890625 62.453125 56.890625 51.90625 
Q 56.890625 45.015625 53.6875 40.46875 
Q 50.484375 35.9375 44.390625 34.1875 
z
M 19.671875 64.796875 
L 19.671875 38.921875 
L 32.078125 38.921875 
Q 39.203125 38.921875 42.84375 42.21875 
Q 46.484375 45.515625 46.484375 51.90625 
Q 46.484375 58.296875 42.84375 61.546875 
Q 39.203125 64.796875 32.078125 64.796875 
z
" id="DejaVuSans-82"/>
      <path d="M 56.203125 29.59375 
L 56.203125 25.203125 
L 14.890625 25.203125 
Q 15.484375 15.921875 20.484375 11.0625 
Q 25.484375 6.203125 34.421875 6.203125 
Q 39.59375 6.203125 44.453125 7.46875 
Q 49.3125 8.734375 54.109375 11.28125 
L 54.109375 2.78125 
Q 49.265625 0.734375 44.1875 -0.34375 
Q 39.109375 -1.421875 33.890625 -1.421875 
Q 20.796875 -1.421875 13.15625 6.1875 
Q 5.515625 13.8125 5.515625 26.8125 
Q 5.515625 40.234375 12.765625 48.109375 
Q 20.015625 56 32.328125 56 
Q 43.359375 56 49.78125 48.890625 
Q 56.203125 41.796875 56.203125 29.59375 
z
M 47.21875 32.234375 
Q 47.125 39.59375 43.09375 43.984375 
Q 39.0625 48.390625 32.421875 48.390625 
Q 24.90625 48.390625 20.390625 44.140625 
Q 15.875 39.890625 15.1875 32.171875 
z
" id="DejaVuSans-101"/>
      <path d="M 34.28125 27.484375 
Q 23.390625 27.484375 19.1875 25 
Q 14.984375 22.515625 14.984375 16.5 
Q 14.984375 11.71875 18.140625 8.90625 
Q 21.296875 6.109375 26.703125 6.109375 
Q 34.1875 6.109375 38.703125 11.40625 
Q 43.21875 16.703125 43.21875 25.484375 
L 43.21875 27.484375 
z
M 52.203125 31.203125 
L 52.203125 0 
L 43.21875 0 
L 43.21875 8.296875 
Q 40.140625 3.328125 35.546875 0.953125 
Q 30.953125 -1.421875 24.3125 -1.421875 
Q 15.921875 -1.421875 10.953125 3.296875 
Q 6 8.015625 6 15.921875 
Q 6 25.140625 12.171875 29.828125 
Q 18.359375 34.515625 30.609375 34.515625 
L 43.21875 34.515625 
L 43.21875 35.40625 
Q 43.21875 41.609375 39.140625 45 
Q 35.0625 48.390625 27.6875 48.390625 
Q 23 48.390625 18.546875 47.265625 
Q 14.109375 46.140625 10.015625 43.890625 
L 10.015625 52.203125 
Q 14.9375 54.109375 19.578125 55.046875 
Q 24.21875 56 28.609375 56 
Q 40.484375 56 46.34375 49.84375 
Q 52.203125 43.703125 52.203125 31.203125 
z
" id="DejaVuSans-97"/>
      <path d="M 45.40625 46.390625 
L 45.40625 75.984375 
L 54.390625 75.984375 
L 54.390625 0 
L 45.40625 0 
L 45.40625 8.203125 
Q 42.578125 3.328125 38.25 0.953125 
Q 33.9375 -1.421875 27.875 -1.421875 
Q 17.96875 -1.421875 11.734375 6.484375 
Q 5.515625 14.40625 5.515625 27.296875 
Q 5.515625 40.1875 11.734375 48.09375 
Q 17.96875 56 27.875 56 
Q 33.9375 56 38.25 53.625 
Q 42.578125 51.265625 45.40625 46.390625 
z
M 14.796875 27.296875 
Q 14.796875 17.390625 18.875 11.75 
Q 22.953125 6.109375 30.078125 6.109375 
Q 37.203125 6.109375 41.296875 11.75 
Q 45.40625 17.390625 45.40625 27.296875 
Q 45.40625 37.203125 41.296875 42.84375 
Q 37.203125 48.484375 30.078125 48.484375 
Q 22.953125 48.484375 18.875 42.84375 
Q 14.796875 37.203125 14.796875 27.296875 
z
" id="DejaVuSans-100"/>
      <path id="DejaVuSans-32"/>
      <path d="M 19.671875 64.796875 
L 19.671875 37.40625 
L 32.078125 37.40625 
Q 38.96875 37.40625 42.71875 40.96875 
Q 46.484375 44.53125 46.484375 51.125 
Q 46.484375 57.671875 42.71875 61.234375 
Q 38.96875 64.796875 32.078125 64.796875 
z
M 9.8125 72.90625 
L 32.078125 72.90625 
Q 44.34375 72.90625 50.609375 67.359375 
Q 56.890625 61.8125 56.890625 51.125 
Q 56.890625 40.328125 50.609375 34.8125 
Q 44.34375 29.296875 32.078125 29.296875 
L 19.671875 29.296875 
L 19.671875 0 
L 9.8125 0 
z
" id="DejaVuSans-80"/>
      <path d="M 30.609375 48.390625 
Q 23.390625 48.390625 19.1875 42.75 
Q 14.984375 37.109375 14.984375 27.296875 
Q 14.984375 17.484375 19.15625 11.84375 
Q 23.34375 6.203125 30.609375 6.203125 
Q 37.796875 6.203125 41.984375 11.859375 
Q 46.1875 17.53125 46.1875 27.296875 
Q 46.1875 37.015625 41.984375 42.703125 
Q 37.796875 48.390625 30.609375 48.390625 
z
M 30.609375 56 
Q 42.328125 56 49.015625 48.375 
Q 55.71875 40.765625 55.71875 27.296875 
Q 55.71875 13.875 49.015625 6.21875 
Q 42.328125 -1.421875 30.609375 -1.421875 
Q 18.84375 -1.421875 12.171875 6.21875 
Q 5.515625 13.875 5.515625 27.296875 
Q 5.515625 40.765625 12.171875 48.375 
Q 18.84375 56 30.609375 56 
z
" id="DejaVuSans-111"/>
      <path d="M 44.28125 53.078125 
L 44.28125 44.578125 
Q 40.484375 46.53125 36.375 47.5 
Q 32.28125 48.484375 27.875 48.484375 
Q 21.1875 48.484375 17.84375 46.4375 
Q 14.5 44.390625 14.5 40.28125 
Q 14.5 37.15625 16.890625 35.375 
Q 19.28125 33.59375 26.515625 31.984375 
L 29.59375 31.296875 
Q 39.15625 29.25 43.1875 25.515625 
Q 47.21875 21.78125 47.21875 15.09375 
Q 47.21875 7.46875 41.1875 3.015625 
Q 35.15625 -1.421875 24.609375 -1.421875 
Q 20.21875 -1.421875 15.453125 -0.5625 
Q 10.6875 0.296875 5.421875 2 
L 5.421875 11.28125 
Q 10.40625 8.6875 15.234375 7.390625 
Q 20.0625 6.109375 24.8125 6.109375 
Q 31.15625 6.109375 34.5625 8.28125 
Q 37.984375 10.453125 37.984375 14.40625 
Q 37.984375 18.0625 35.515625 20.015625 
Q 33.0625 21.96875 24.703125 23.78125 
L 21.578125 24.515625 
Q 13.234375 26.265625 9.515625 29.90625 
Q 5.8125 33.546875 5.8125 39.890625 
Q 5.8125 47.609375 11.28125 51.796875 
Q 16.75 56 26.8125 56 
Q 31.78125 56 36.171875 55.265625 
Q 40.578125 54.546875 44.28125 53.078125 
z
" id="DejaVuSans-115"/>
      <path d="M 9.421875 54.6875 
L 18.40625 54.6875 
L 18.40625 0 
L 9.421875 0 
z
M 9.421875 75.984375 
L 18.40625 75.984375 
L 18.40625 64.59375 
L 9.421875 64.59375 
z
" id="DejaVuSans-105"/>
      <path d="M 18.3125 70.21875 
L 18.3125 54.6875 
L 36.8125 54.6875 
L 36.8125 47.703125 
L 18.3125 47.703125 
L 18.3125 18.015625 
Q 18.3125 11.328125 20.140625 9.421875 
Q 21.96875 7.515625 27.59375 7.515625 
L 36.8125 7.515625 
L 36.8125 0 
L 27.59375 0 
Q 17.1875 0 13.234375 3.875 
Q 9.28125 7.765625 9.28125 18.015625 
L 9.28125 47.703125 
L 2.6875 47.703125 
L 2.6875 54.6875 
L 9.28125 54.6875 
L 9.28125 70.21875 
z
" id="DejaVuSans-116"/>
      <path d="M 54.890625 33.015625 
L 54.890625 0 
L 45.90625 0 
L 45.90625 32.71875 
Q 45.90625 40.484375 42.875 44.328125 
Q 39.84375 48.1875 33.796875 48.1875 
Q 26.515625 48.1875 22.3125 43.546875 
Q 18.109375 38.921875 18.109375 30.90625 
L 18.109375 0 
L 9.078125 0 
L 9.078125 54.6875 
L 18.109375 54.6875 
L 18.109375 46.1875 
Q 21.34375 51.125 25.703125 53.5625 
Q 30.078125 56 35.796875 56 
Q 45.21875 56 50.046875 50.171875 
Q 54.890625 44.34375 54.890625 33.015625 
z
" id="DejaVuSans-110"/>
     </defs>
     <g transform="translate(479.045156 379.564837)scale(0.1 -0.1)">
      <use xlink:href="#DejaVuSans-82"/>
      <use x="69.419922" xlink:href="#DejaVuSans-101"/>
      <use x="130.943359" xlink:href="#DejaVuSans-97"/>
      <use x="192.222656" xlink:href="#DejaVuSans-100"/>
      <use x="255.699219" xlink:href="#DejaVuSans-32"/>
      <use x="287.486328" xlink:href="#DejaVuSans-80"/>
      <use x="347.742188" xlink:href="#DejaVuSans-111"/>
      <use x="408.923828" xlink:href="#DejaVuSans-115"/>
      <use x="461.023438" xlink:href="#DejaVuSans-105"/>
      <use x="488.806641" xlink:href="#DejaVuSans-116"/>
      <use x="528.015625" xlink:href="#DejaVuSans-105"/>
      <use x="555.798828" xlink:href="#DejaVuSans-111"/>
      <use x="616.980469" xlink:href="#DejaVuSans-110"/>
     </g>
    </g>
   </g>
   <g id="matplotlib.axis_2">
    <g id="ytick_1">
     <g id="line2d_1">
      <path clip-path="url(#pa1728d46ce)" d="M 32.968125 353.2239 
L 993.158125 353.2239 
" style="fill:none;stroke:#dedede;stroke-linecap:square;"/>
     </g>
     <g id="text_10">
      <!-- 0 -->
      <g transform="translate(20.878125 356.263275)scale(0.08 -0.08)">
       <use xlink:href="#DejaVuSans-48"/>
      </g>
     </g>
    </g>
    <g id="ytick_2">
     <g id="line2d_2">
      <path clip-path="url(#pa1728d46ce)" d="M 32.968125 289.6303 
L 993.158125 289.6303 
" style="fill:none;stroke:#dedede;stroke-linecap:square;"/>
     </g>
     <g id="text_11">
      <!-- 1 -->
      <g transform="translate(20.878125 292.669675)scale(0.08 -0.08)">
       <use xlink:href="#DejaVuSans-49"/>
      </g>
     </g>
    </g>
    <g id="ytick_3">
     <g id="line2d_3">
      <path clip-path="url(#pa1728d46ce)" d="M 32.968125 226.0367 
L 993.158125 226.0367 
" style="fill:none;stroke:#dedede;stroke-linecap:square;"/>
     </g>
     <g id="text_12">
      <!-- 2 -->
      <g transform="translate(20.878125 229.076075)scale(0.08 -0.08)">
       <use xlink:href="#DejaVuSans-50"/>
      </g>
     </g>
    </g>
    <g id="ytick_4">
     <g id="line2d_4">
      <path clip-path="url(#pa1728d46ce)" d="M 32.968125 162.4431 
L 993.158125 162.4431 
" style="fill:none;stroke:#dedede;stroke-linecap:square;"/>
     </g>
     <g id="text_13">
      <!-- 3 -->
      <defs>
       <path d="M 40.578125 39.3125 
Q 47.65625 37.796875 51.625 33 
Q 55.609375 28.21875 55.609375 21.1875 
Q 55.609375 10.40625 48.1875 4.484375 
Q 40.765625 -1.421875 27.09375 -1.421875 
Q 22.515625 -1.421875 17.65625 -0.515625 
Q 12.796875 0.390625 7.625 2.203125 
L 7.625 11.71875 
Q 11.71875 9.328125 16.59375 8.109375 
Q 21.484375 6.890625 26.8125 6.890625 
Q 36.078125 6.890625 40.9375 10.546875 
Q 45.796875 14.203125 45.796875 21.1875 
Q 45.796875 27.640625 41.28125 31.265625 
Q 36.765625 34.90625 28.71875 34.90625 
L 20.21875 34.90625 
L 20.21875 43.015625 
L 29.109375 43.015625 
Q 36.375 43.015625 40.234375 45.921875 
Q 44.09375 48.828125 44.09375 54.296875 
Q 44.09375 59.90625 40.109375 62.90625 
Q 36.140625 65.921875 28.71875 65.921875 
Q 24.65625 65.921875 20.015625 65.03125 
Q 15.375 64.15625 9.8125 62.3125 
L 9.8125 71.09375 
Q 15.4375 72.65625 20.34375 73.4375 
Q 25.25 74.21875 29.59375 74.21875 
Q 40.828125 74.21875 47.359375 69.109375 
Q 53.90625 64.015625 53.90625 55.328125 
Q 53.90625 49.265625 50.4375 45.09375 
Q 46.96875 40.921875 40.578125 39.3125 
z
" id="DejaVuSans-51"/>
      </defs>
      <g transform="translate(20.878125 165.482475)scale(0.08 -0.08)">
       <use xlink:href="#DejaVuSans-51"/>
      </g>
     </g>
    </g>
    <g id="ytick_5">
     <g id="line2d_5">
      <path clip-path="url(#pa1728d46ce)" d="M 32.968125 98.8495 
L 993.158125 98.8495 
" style="fill:none;stroke:#dedede;stroke-linecap:square;"/>
     </g>
     <g id="text_14">
      <!-- 4 -->
      <g transform="translate(20.878125 101.888875)scale(0.08 -0.08)">
       <use xlink:href="#DejaVuSans-52"/>
      </g>
     </g>
    </g>
    <g id="ytick_6">
     <g id="line2d_6">
      <path clip-path="url(#pa1728d46ce)" d="M 32.968125 35.2559 
L 993.158125 35.2559 
" style="fill:none;stroke:#dedede;stroke-linecap:square;"/>
     </g>
     <g id="text_15">
      <!-- 5 -->
      <defs>
       <path d="M 10.796875 72.90625 
L 49.515625 72.90625 
L 49.515625 64.59375 
L 19.828125 64.59375 
L 19.828125 46.734375 
Q 21.96875 47.46875 24.109375 47.828125 
Q 26.265625 48.1875 28.421875 48.1875 
Q 40.625 48.1875 47.75 41.5 
Q 54.890625 34.8125 54.890625 23.390625 
Q 54.890625 11.625 47.5625 5.09375 
Q 40.234375 -1.421875 26.90625 -1.421875 
Q 22.3125 -1.421875 17.546875 -0.640625 
Q 12.796875 0.140625 7.71875 1.703125 
L 7.71875 11.625 
Q 12.109375 9.234375 16.796875 8.0625 
Q 21.484375 6.890625 26.703125 6.890625 
Q 35.15625 6.890625 40.078125 11.328125 
Q 45.015625 15.765625 45.015625 23.390625 
Q 45.015625 31 40.078125 35.4375 
Q 35.15625 39.890625 26.703125 39.890625 
Q 22.75 39.890625 18.8125 39.015625 
Q 14.890625 38.140625 10.796875 36.28125 
z
" id="DejaVuSans-53"/>
      </defs>
      <g transform="translate(20.878125 38.295275)scale(0.08 -0.08)">
       <use xlink:href="#DejaVuSans-53"/>
      </g>
     </g>
    </g>
    <g id="text_16">
     <!-- R2 Before filtering: Base Content Percent -->
     <defs>
      <path d="M 19.671875 34.8125 
L 19.671875 8.109375 
L 35.5 8.109375 
Q 43.453125 8.109375 47.28125 11.40625 
Q 51.125 14.703125 51.125 21.484375 
Q 51.125 28.328125 47.28125 31.5625 
Q 43.453125 34.8125 35.5 34.8125 
z
M 19.671875 64.796875 
L 19.671875 42.828125 
L 34.28125 42.828125 
Q 41.5 42.828125 45.03125 45.53125 
Q 48.578125 48.25 48.578125 53.8125 
Q 48.578125 59.328125 45.03125 62.0625 
Q 41.5 64.796875 34.28125 64.796875 
z
M 9.8125 72.90625 
L 35.015625 72.90625 
Q 46.296875 72.90625 52.390625 68.21875 
Q 58.5 63.53125 58.5 54.890625 
Q 58.5 48.1875 55.375 44.234375 
Q 52.25 40.28125 46.1875 39.3125 
Q 53.46875 37.75 57.5 32.78125 
Q 61.53125 27.828125 61.53125 20.40625 
Q 61.53125 10.640625 54.890625 5.3125 
Q 48.25 0 35.984375 0 
L 9.8125 0 
z
" id="DejaVuSans-66"/>
      <path d="M 37.109375 75.984375 
L 37.109375 68.5 
L 28.515625 68.5 
Q 23.6875 68.5 21.796875 66.546875 
Q 19.921875 64.59375 19.921875 59.515625 
L 19.921875 54.6875 
L 34.71875 54.6875 
L 34.71875 47.703125 
L 19.921875 47.703125 
L 19.921875 0 
L 10.890625 0 
L 10.890625 47.703125 
L 2.296875 47.703125 
L 2.296875 54.6875 
L 10.890625 54.6875 
L 10.890625 58.5 
Q 10.890625 67.625 15.140625 71.796875 
Q 19.390625 75.984375 28.609375 75.984375 
z
" id="DejaVuSans-102"/>
      <path d="M 41.109375 46.296875 
Q 39.59375 47.171875 37.8125 47.578125 
Q 36.03125 48 33.890625 48 
Q 26.265625 48 22.1875 43.046875 
Q 18.109375 38.09375 18.109375 28.8125 
L 18.109375 0 
L 9.078125 0 
L 9.078125 54.6875 
L 18.109375 54.6875 
L 18.109375 46.1875 
Q 20.953125 51.171875 25.484375 53.578125 
Q 30.03125 56 36.53125 56 
Q 37.453125 56 38.578125 55.875 
Q 39.703125 55.765625 41.0625 55.515625 
z
" id="DejaVuSans-114"/>
      <path d="M 9.421875 75.984375 
L 18.40625 75.984375 
L 18.40625 0 
L 9.421875 0 
z
" id="DejaVuSans-108"/>
      <path d="M 45.40625 27.984375 
Q 45.40625 37.75 41.375 43.109375 
Q 37.359375 48.484375 30.078125 48.484375 
Q 22.859375 48.484375 18.828125 43.109375 
Q 14.796875 37.75 14.796875 27.984375 
Q 14.796875 18.265625 18.828125 12.890625 
Q 22.859375 7.515625 30.078125 7.515625 
Q 37.359375 7.515625 41.375 12.890625 
Q 45.40625 18.265625 45.40625 27.984375 
z
M 54.390625 6.78125 
Q 54.390625 -7.171875 48.1875 -13.984375 
Q 42 -20.796875 29.203125 -20.796875 
Q 24.46875 -20.796875 20.265625 -20.09375 
Q 16.0625 -19.390625 12.109375 -17.921875 
L 12.109375 -9.1875 
Q 16.0625 -11.328125 19.921875 -12.34375 
Q 23.78125 -13.375 27.78125 -13.375 
Q 36.625 -13.375 41.015625 -8.765625 
Q 45.40625 -4.15625 45.40625 5.171875 
L 45.40625 9.625 
Q 42.625 4.78125 38.28125 2.390625 
Q 33.9375 0 27.875 0 
Q 17.828125 0 11.671875 7.65625 
Q 5.515625 15.328125 5.515625 27.984375 
Q 5.515625 40.671875 11.671875 48.328125 
Q 17.828125 56 27.875 56 
Q 33.9375 56 38.28125 53.609375 
Q 42.625 51.21875 45.40625 46.390625 
L 45.40625 54.6875 
L 54.390625 54.6875 
z
" id="DejaVuSans-103"/>
      <path d="M 11.71875 12.40625 
L 22.015625 12.40625 
L 22.015625 0 
L 11.71875 0 
z
M 11.71875 51.703125 
L 22.015625 51.703125 
L 22.015625 39.3125 
L 11.71875 39.3125 
z
" id="DejaVuSans-58"/>
      <path d="M 64.40625 67.28125 
L 64.40625 56.890625 
Q 59.421875 61.53125 53.78125 63.8125 
Q 48.140625 66.109375 41.796875 66.109375 
Q 29.296875 66.109375 22.65625 58.46875 
Q 16.015625 50.828125 16.015625 36.375 
Q 16.015625 21.96875 22.65625 14.328125 
Q 29.296875 6.6875 41.796875 6.6875 
Q 48.140625 6.6875 53.78125 8.984375 
Q 59.421875 11.28125 64.40625 15.921875 
L 64.40625 5.609375 
Q 59.234375 2.09375 53.4375 0.328125 
Q 47.65625 -1.421875 41.21875 -1.421875 
Q 24.65625 -1.421875 15.125 8.703125 
Q 5.609375 18.84375 5.609375 36.375 
Q 5.609375 53.953125 15.125 64.078125 
Q 24.65625 74.21875 41.21875 74.21875 
Q 47.75 74.21875 53.53125 72.484375 
Q 59.328125 70.75 64.40625 67.28125 
z
" id="DejaVuSans-67"/>
      <path d="M 48.78125 52.59375 
L 48.78125 44.1875 
Q 44.96875 46.296875 41.140625 47.34375 
Q 37.3125 48.390625 33.40625 48.390625 
Q 24.65625 48.390625 19.8125 42.84375 
Q 14.984375 37.3125 14.984375 27.296875 
Q 14.984375 17.28125 19.8125 11.734375 
Q 24.65625 6.203125 33.40625 6.203125 
Q 37.3125 6.203125 41.140625 7.25 
Q 44.96875 8.296875 48.78125 10.40625 
L 48.78125 2.09375 
Q 45.015625 0.34375 40.984375 -0.53125 
Q 36.96875 -1.421875 32.421875 -1.421875 
Q 20.0625 -1.421875 12.78125 6.34375 
Q 5.515625 14.109375 5.515625 27.296875 
Q 5.515625 40.671875 12.859375 48.328125 
Q 20.21875 56 33.015625 56 
Q 37.15625 56 41.109375 55.140625 
Q 45.0625 54.296875 48.78125 52.59375 
z
" id="DejaVuSans-99"/>
     </defs>
     <g transform="translate(14.798438 297.503181)rotate(-90)scale(0.1 -0.1)">
      <use xlink:href="#DejaVuSans-82"/>
      <use x="69.482422" xlink:href="#DejaVuSans-50"/>
      <use x="133.105469" xlink:href="#DejaVuSans-32"/>
      <use x="164.892578" xlink:href="#DejaVuSans-66"/>
      <use x="233.496094" xlink:href="#DejaVuSans-101"/>
      <use x="295.019531" xlink:href="#DejaVuSans-102"/>
      <use x="330.224609" xlink:href="#DejaVuSans-111"/>
      <use x="391.40625" xlink:href="#DejaVuSans-114"/>
      <use x="432.488281" xlink:href="#DejaVuSans-101"/>
      <use x="494.011719" xlink:href="#DejaVuSans-32"/>
      <use x="525.798828" xlink:href="#DejaVuSans-102"/>
      <use x="561.003906" xlink:href="#DejaVuSans-105"/>
      <use x="588.787109" xlink:href="#DejaVuSans-108"/>
      <use x="616.570312" xlink:href="#DejaVuSans-116"/>
      <use x="655.779297" xlink:href="#DejaVuSans-101"/>
      <use x="717.302734" xlink:href="#DejaVuSans-114"/>
      <use x="758.416016" xlink:href="#DejaVuSans-105"/>
      <use x="786.199219" xlink:href="#DejaVuSans-110"/>
      <use x="849.578125" xlink:href="#DejaVuSans-103"/>
      <use x="913.054688" xlink:href="#DejaVuSans-58"/>
      <use x="946.746094" xlink:href="#DejaVuSans-32"/>
      <use x="978.533203" xlink:href="#DejaVuSans-66"/>
      <use x="1047.136719" xlink:href="#DejaVuSans-97"/>
      <use x="1108.416016" xlink:href="#DejaVuSans-115"/>
      <use x="1160.515625" xlink:href="#DejaVuSans-101"/>
      <use x="1222.039062" xlink:href="#DejaVuSans-32"/>
      <use x="1253.826172" xlink:href="#DejaVuSans-67"/>
      <use x="1323.650391" xlink:href="#DejaVuSans-111"/>
      <use x="1384.832031" xlink:href="#DejaVuSans-110"/>
      <use x="1448.210938" xlink:href="#DejaVuSans-116"/>
      <use x="1487.419922" xlink:href="#DejaVuSans-101"/>
      <use x="1548.943359" xlink:href="#DejaVuSans-110"/>
      <use x="1612.322266" xlink:href="#DejaVuSans-116"/>
      <use x="1651.53125" xlink:href="#DejaVuSans-32"/>
      <use x="1683.318359" xlink:href="#DejaVuSans-80"/>
      <use x="1743.574219" xlink:href="#DejaVuSans-101"/>
      <use x="1805.097656" xlink:href="#DejaVuSans-114"/>
      <use x="1846.179688" xlink:href="#DejaVuSans-99"/>
      <use x="1901.160156" xlink:href="#DejaVuSans-101"/>
      <use x="1962.683594" xlink:href="#DejaVuSans-110"/>
      <use x="2026.0625" xlink:href="#DejaVuSans-116"/>
     </g>
    </g>
   </g>
   <g id="line2d_7">
    <path clip-path="url(#pa1728d46ce)" d="M 76.613125 326.03859 
L 82.471514 353.2239 
L 328.523863 353.213598 
L 334.382253 353.110569 
L 340.240642 353.2239 
L 351.95742 353.147637 
L 381.249367 353.2239 
L 498.417152 353.2239 
L 504.275541 352.97232 
L 510.13393 353.2239 
L 515.99232 353.157279 
L 527.709098 353.2239 
L 533.567487 353.07367 
L 539.425877 353.2239 
L 592.15138 353.2239 
L 598.009769 352.846585 
L 603.868159 353.2239 
L 621.443326 353.187899 
L 644.876883 353.2239 
L 949.513125 353.2239 
L 949.513125 353.2239 
" style="fill:none;stroke:#7cb5ec;stroke-linecap:square;"/>
   </g>
   <g id="line2d_8">
    <path clip-path="url(#pa1728d46ce)" d="M 76.613125 323.778092 
L 82.471514 353.2239 
L 428.116481 353.2239 
L 498.417152 353.2239 
L 504.275541 352.970786 
L 510.13393 353.2239 
L 515.99232 353.145003 
L 527.709098 353.2239 
L 533.567487 353.057451 
L 539.425877 353.221961 
L 592.15138 353.2239 
L 598.009769 352.834656 
L 603.868159 353.2239 
L 621.443326 353.189756 
L 644.876883 353.2239 
L 949.513125 353.2239 
L 949.513125 353.2239 
" style="fill:none;stroke:#434348;stroke-linecap:square;"/>
   </g>
   <g id="line2d_9">
    <path clip-path="url(#pa1728d46ce)" d="M 76.613125 326.824988 
L 82.471514 353.2239 
L 152.772185 353.077303 
L 158.630575 353.2239 
L 328.523863 353.212392 
L 334.382253 353.054124 
L 340.240642 353.2239 
L 351.95742 353.157677 
L 381.249367 353.2239 
L 498.417152 353.2239 
L 504.275541 352.980355 
L 510.13393 353.2239 
L 515.99232 353.138555 
L 527.709098 353.2239 
L 533.567487 353.070136 
L 539.425877 353.217976 
L 551.142655 353.2239 
L 557.001044 353.110738 
L 568.717823 353.2239 
L 592.15138 353.2239 
L 598.009769 352.80095 
L 603.868159 353.2239 
L 615.584937 353.2239 
L 627.301716 353.2239 
L 949.513125 353.2239 
L 949.513125 353.2239 
" style="fill:none;stroke:#90ed7d;stroke-linecap:square;"/>
   </g>
   <g id="line2d_10">
    <path clip-path="url(#pa1728d46ce)" d="M 76.613125 325.504594 
L 82.471514 353.2239 
L 264.081581 353.2239 
L 328.523863 353.211488 
L 334.382253 353.073155 
L 340.240642 353.2239 
L 357.81581 353.184843 
L 381.249367 353.2239 
L 498.417152 353.2239 
L 504.275541 352.967219 
L 510.13393 353.2239 
L 515.99232 353.156282 
L 527.709098 353.2239 
L 533.567487 353.054705 
L 539.425877 353.2239 
L 592.15138 353.2239 
L 598.009769 352.828565 
L 603.868159 353.2239 
L 615.584937 353.2239 
L 644.876883 353.2239 
L 949.513125 353.2239 
L 949.513125 353.2239 
" style="fill:none;stroke:#f7a35c;stroke-linecap:square;"/>
   </g>
   <g id="line2d_11">
    <path clip-path="url(#pa1728d46ce)" d="M 76.613125 324.162388 
L 82.471514 353.2239 
L 264.081581 353.220264 
L 328.523863 353.198405 
L 334.382253 353.056314 
L 340.240642 353.2239 
L 351.95742 353.15461 
L 375.390977 353.2239 
L 498.417152 353.2239 
L 504.275541 353.035106 
L 510.13393 353.2239 
L 515.99232 353.151786 
L 527.709098 353.2239 
L 533.567487 353.07081 
L 539.425877 353.216223 
L 551.142655 353.2239 
L 557.001044 353.107684 
L 568.717823 353.2239 
L 592.15138 353.2239 
L 598.009769 352.870769 
L 603.868159 353.2239 
L 621.443326 353.179588 
L 639.018494 353.2239 
L 949.513125 353.2239 
L 949.513125 353.2239 
" style="fill:none;stroke:#8085e9;stroke-linecap:square;"/>
   </g>
   <g id="line2d_12">
    <path clip-path="url(#pa1728d46ce)" d="M 76.613125 326.538054 
L 82.471514 353.2239 
L 146.913796 353.2239 
L 152.772185 353.061364 
L 158.630575 353.2239 
L 234.789635 353.2239 
L 240.648024 353.101168 
L 246.506414 353.2239 
L 328.523863 353.210607 
L 334.382253 352.994517 
L 340.240642 353.2239 
L 351.95742 353.137366 
L 387.107756 353.2239 
L 469.125206 353.2239 
L 474.983595 353.105019 
L 480.841984 353.2239 
L 498.417152 353.2239 
L 504.275541 352.946274 
L 510.13393 353.2239 
L 515.99232 353.134423 
L 527.709098 353.2239 
L 533.567487 353.019569 
L 539.425877 353.2239 
L 551.142655 353.2239 
L 557.001044 353.08058 
L 568.717823 353.2239 
L 592.15138 353.2239 
L 598.009769 352.732764 
L 603.868159 353.2239 
L 609.726548 353.166632 
L 621.443326 353.177096 
L 639.018494 353.2239 
L 908.5044 353.2239 
L 914.362789 353.106575 
L 920.221179 353.2239 
L 949.513125 353.2239 
L 949.513125 353.2239 
" style="fill:none;stroke:#f15c80;stroke-linecap:square;"/>
   </g>
   <g id="line2d_13">
    <path clip-path="url(#pa1728d46ce)" d="M 76.613125 325.938239 
L 82.471514 353.2239 
L 146.913796 353.2239 
L 152.772185 353.104038 
L 158.630575 353.2239 
L 328.523863 353.221636 
L 334.382253 353.076679 
L 340.240642 353.2239 
L 351.95742 353.144566 
L 375.390977 353.2239 
L 498.417152 353.2239 
L 504.275541 352.92258 
L 510.13393 353.2239 
L 515.99232 353.14019 
L 527.709098 353.2239 
L 533.567487 353.074294 
L 539.425877 353.221558 
L 592.15138 353.2239 
L 598.009769 352.805162 
L 603.868159 353.2239 
L 621.443326 353.180389 
L 639.018494 353.2239 
L 908.5044 353.2239 
L 914.362789 353.099474 
L 920.221179 353.2239 
L 949.513125 353.2239 
L 949.513125 353.2239 
" style="fill:none;stroke:#e4d354;stroke-linecap:square;"/>
   </g>
   <g id="line2d_14">
    <path clip-path="url(#pa1728d46ce)" d="M 76.613125 325.073303 
L 82.471514 353.2239 
L 146.913796 353.2239 
L 152.772185 353.053828 
L 158.630575 353.2239 
L 328.523863 353.212796 
L 334.382253 352.998087 
L 340.240642 353.2239 
L 351.95742 353.140555 
L 369.532588 353.2239 
L 498.417152 353.2239 
L 504.275541 352.952011 
L 510.13393 353.2239 
L 515.99232 353.159522 
L 527.709098 353.2239 
L 533.567487 353.020384 
L 539.425877 353.22009 
L 551.142655 353.2239 
L 557.001044 353.076461 
L 562.859434 353.214309 
L 592.15138 353.2239 
L 598.009769 352.760099 
L 603.868159 353.2239 
L 621.443326 353.19845 
L 650.735273 353.2239 
L 808.911783 353.217388 
L 890.929232 353.2239 
L 896.787622 353.163074 
L 908.5044 353.2239 
L 914.362789 353.12371 
L 926.079568 353.2239 
L 949.513125 353.2239 
L 949.513125 353.2239 
" style="fill:none;stroke:#2b908f;stroke-linecap:square;"/>
   </g>
   <g id="line2d_15">
    <path clip-path="url(#pa1728d46ce)" d="M 76.613125 325.030504 
L 82.471514 353.2239 
L 123.480239 353.2239 
L 146.913796 353.2239 
L 152.772185 353.072463 
L 158.630575 353.2239 
L 328.523863 353.206404 
L 334.382253 353.031402 
L 340.240642 353.2239 
L 357.81581 353.183013 
L 381.249367 353.2239 
L 498.417152 353.2239 
L 504.275541 352.905369 
L 510.13393 353.2239 
L 515.99232 353.144534 
L 527.709098 353.2239 
L 533.567487 353.001906 
L 539.425877 353.2239 
L 551.142655 353.2239 
L 557.001044 353.098718 
L 568.717823 353.2239 
L 592.15138 353.2239 
L 598.009769 352.740284 
L 603.868159 353.2239 
L 627.301716 353.2239 
L 908.5044 353.2239 
L 914.362789 353.089207 
L 920.221179 353.2239 
L 949.513125 353.2239 
L 949.513125 353.2239 
" style="fill:none;stroke:#f45b5b;stroke-linecap:square;"/>
   </g>
   <g id="line2d_16">
    <path clip-path="url(#pa1728d46ce)" d="M 76.613125 325.469364 
L 82.471514 353.2239 
L 146.913796 353.2239 
L 152.772185 353.085349 
L 158.630575 353.2239 
L 328.523863 353.196159 
L 334.382253 353.05742 
L 340.240642 353.2239 
L 351.95742 353.140597 
L 381.249367 353.2239 
L 469.125206 353.2239 
L 474.983595 353.07708 
L 480.841984 353.2239 
L 498.417152 353.2239 
L 504.275541 352.859291 
L 510.13393 353.2239 
L 515.99232 353.149541 
L 527.709098 353.2239 
L 533.567487 353.103 
L 545.284266 353.2239 
L 592.15138 353.2239 
L 598.009769 352.678493 
L 603.868159 353.2239 
L 621.443326 353.181881 
L 639.018494 353.2239 
L 908.5044 353.2239 
L 914.362789 353.052884 
L 920.221179 353.2239 
L 949.513125 353.2239 
L 949.513125 353.2239 
" style="fill:none;stroke:#91e8e1;stroke-linecap:square;"/>
   </g>
   <g id="line2d_17">
    <path clip-path="url(#pa1728d46ce)" d="M 76.613125 326.294745 
L 82.471514 353.2239 
L 264.081581 353.2239 
L 328.523863 353.220359 
L 334.382253 353.053924 
L 340.240642 353.2239 
L 357.81581 353.181376 
L 375.390977 353.2239 
L 469.125206 353.2239 
L 474.983595 353.112604 
L 480.841984 353.2239 
L 498.417152 353.2239 
L 504.275541 352.905688 
L 510.13393 353.2239 
L 515.99232 353.129565 
L 527.709098 353.2239 
L 533.567487 353.059732 
L 539.425877 353.220245 
L 592.15138 353.2239 
L 598.009769 352.72615 
L 603.868159 353.2239 
L 621.443326 353.197394 
L 650.735273 353.2239 
L 814.770172 353.2239 
L 949.513125 353.2239 
L 949.513125 353.2239 
" style="fill:none;stroke:#7cb5ec;stroke-linecap:square;"/>
   </g>
   <g id="line2d_18">
    <path clip-path="url(#pa1728d46ce)" d="M 76.613125 325.360173 
L 82.471514 353.2239 
L 228.931246 353.2239 
L 328.523863 353.208499 
L 334.382253 353.039047 
L 340.240642 353.2239 
L 351.95742 353.162234 
L 375.390977 353.2239 
L 498.417152 353.2239 
L 504.275541 352.934378 
L 510.13393 353.2239 
L 515.99232 353.133067 
L 527.709098 353.2239 
L 533.567487 353.047943 
L 539.425877 353.22161 
L 551.142655 353.2239 
L 557.001044 353.108583 
L 568.717823 353.2239 
L 592.15138 353.2239 
L 598.009769 352.761206 
L 603.868159 353.2239 
L 621.443326 353.185882 
L 639.018494 353.2239 
L 949.513125 353.2239 
L 949.513125 353.2239 
" style="fill:none;stroke:#434348;stroke-linecap:square;"/>
   </g>
   <g id="line2d_19">
    <path clip-path="url(#pa1728d46ce)" d="M 76.613125 325.3348 
L 82.471514 353.2239 
L 428.116481 353.2239 
L 498.417152 353.2239 
L 504.275541 352.94885 
L 510.13393 353.2239 
L 515.99232 353.139626 
L 527.709098 353.2239 
L 533.567487 353.041102 
L 539.425877 353.218118 
L 551.142655 353.2239 
L 557.001044 353.119283 
L 568.717823 353.2239 
L 592.15138 353.2239 
L 598.009769 352.775953 
L 603.868159 353.2239 
L 621.443326 353.18821 
L 644.876883 353.2239 
L 949.513125 353.2239 
L 949.513125 353.2239 
" style="fill:none;stroke:#90ed7d;stroke-linecap:square;"/>
   </g>
   <g id="line2d_20">
    <path clip-path="url(#pa1728d46ce)" d="M 76.613125 324.83152 
L 82.471514 353.2239 
L 293.373528 353.217702 
L 328.523863 353.214597 
L 334.382253 353.040911 
L 340.240642 353.2239 
L 351.95742 353.164939 
L 381.249367 353.2239 
L 498.417152 353.2239 
L 504.275541 353.002733 
L 510.13393 353.2239 
L 515.99232 353.147864 
L 527.709098 353.2239 
L 533.567487 353.058421 
L 539.425877 353.220713 
L 551.142655 353.2239 
L 557.001044 353.098952 
L 562.859434 353.217481 
L 592.15138 353.2239 
L 598.009769 352.840594 
L 603.868159 353.2239 
L 627.301716 353.2239 
L 949.513125 353.2239 
L 949.513125 353.2239 
" style="fill:none;stroke:#f7a35c;stroke-linecap:square;"/>
   </g>
   <g id="line2d_21">
    <path clip-path="url(#pa1728d46ce)" d="M 76.613125 325.042205 
L 82.471514 353.2239 
L 146.913796 353.2239 
L 152.772185 353.077672 
L 158.630575 353.2239 
L 328.523863 353.219655 
L 334.382253 353.056177 
L 340.240642 353.2239 
L 357.81581 353.202646 
L 398.824534 353.2239 
L 498.417152 353.2239 
L 504.275541 352.997905 
L 510.13393 353.2239 
L 515.99232 353.136695 
L 527.709098 353.2239 
L 533.567487 353.077055 
L 539.425877 353.2239 
L 551.142655 353.2239 
L 557.001044 353.104623 
L 568.717823 353.2239 
L 592.15138 353.2239 
L 598.009769 352.815513 
L 603.868159 353.2239 
L 621.443326 353.189897 
L 644.876883 353.2239 
L 908.5044 353.2239 
L 914.362789 353.110665 
L 920.221179 353.2239 
L 949.513125 353.2239 
L 949.513125 353.2239 
" style="fill:none;stroke:#8085e9;stroke-linecap:square;"/>
   </g>
   <g id="line2d_22">
    <path clip-path="url(#pa1728d46ce)" d="M 76.613125 324.331293 
L 82.471514 353.2239 
L 451.550038 353.2239 
L 498.417152 353.2239 
L 504.275541 352.960237 
L 510.13393 353.2239 
L 515.99232 353.126758 
L 527.709098 353.2239 
L 533.567487 353.053977 
L 539.425877 353.220278 
L 592.15138 353.2239 
L 598.009769 352.824712 
L 603.868159 353.2239 
L 621.443326 353.186572 
L 639.018494 353.2239 
L 908.5044 353.2239 
L 914.362789 353.104597 
L 920.221179 353.2239 
L 949.513125 353.2239 
L 949.513125 353.2239 
" style="fill:none;stroke:#f15c80;stroke-linecap:square;"/>
   </g>
   <g id="line2d_23">
    <path clip-path="url(#pa1728d46ce)" d="M 76.613125 326.131818 
L 82.471514 353.2239 
L 334.382253 353.072728 
L 340.240642 353.2239 
L 351.95742 353.139273 
L 363.674199 353.218767 
L 469.125206 353.2239 
L 474.983595 353.119551 
L 486.700373 353.2239 
L 498.417152 353.2239 
L 504.275541 352.953053 
L 510.13393 353.2239 
L 515.99232 353.131535 
L 527.709098 353.2239 
L 533.567487 353.046074 
L 539.425877 353.2239 
L 592.15138 353.2239 
L 598.009769 352.815776 
L 603.868159 353.2239 
L 621.443326 353.185406 
L 639.018494 353.2239 
L 949.513125 353.2239 
L 949.513125 353.2239 
" style="fill:none;stroke:#e4d354;stroke-linecap:square;"/>
   </g>
   <g id="line2d_24">
    <path clip-path="url(#pa1728d46ce)" d="M 76.613125 324.678704 
L 82.471514 353.2239 
L 299.231917 353.2239 
L 328.523863 353.21488 
L 334.382253 353.085556 
L 340.240642 353.2239 
L 351.95742 353.148646 
L 369.532588 353.2239 
L 498.417152 353.2239 
L 504.275541 352.950521 
L 510.13393 353.2239 
L 515.99232 353.146899 
L 527.709098 353.2239 
L 533.567487 353.038268 
L 539.425877 353.220801 
L 592.15138 353.2239 
L 598.009769 352.820001 
L 603.868159 353.2239 
L 644.876883 353.2239 
L 908.5044 353.2239 
L 914.362789 353.10846 
L 920.221179 353.2239 
L 949.513125 353.2239 
L 949.513125 353.2239 
" style="fill:none;stroke:#2b908f;stroke-linecap:square;"/>
   </g>
   <g id="line2d_25">
    <path clip-path="url(#pa1728d46ce)" d="M 76.613125 326.185428 
L 82.471514 353.2239 
L 146.913796 353.2239 
L 152.772185 353.076136 
L 158.630575 353.2239 
L 328.523863 353.214931 
L 334.382253 353.039994 
L 340.240642 353.2239 
L 351.95742 353.145337 
L 369.532588 353.2239 
L 498.417152 353.2239 
L 504.275541 352.9436 
L 510.13393 353.2239 
L 515.99232 353.12939 
L 527.709098 353.2239 
L 533.567487 353.033884 
L 539.425877 353.219257 
L 551.142655 353.2239 
L 557.001044 353.095478 
L 568.717823 353.2239 
L 592.15138 353.2239 
L 598.009769 352.780579 
L 603.868159 353.2239 
L 621.443326 353.173618 
L 639.018494 353.2239 
L 949.513125 353.2239 
L 949.513125 353.2239 
" style="fill:none;stroke:#f45b5b;stroke-linecap:square;"/>
   </g>
   <g id="line2d_26">
    <path clip-path="url(#pa1728d46ce)" d="M 76.613125 324.994129 
L 82.471514 353.2239 
L 146.913796 353.2239 
L 152.772185 353.068927 
L 158.630575 353.2239 
L 328.523863 353.209117 
L 334.382253 353.048924 
L 340.240642 353.2239 
L 351.95742 353.169628 
L 392.966145 353.2239 
L 469.125206 353.2239 
L 474.983595 353.100363 
L 480.841984 353.2239 
L 498.417152 353.2239 
L 504.275541 352.918073 
L 510.13393 353.2239 
L 515.99232 353.136823 
L 527.709098 353.2239 
L 533.567487 353.019987 
L 539.425877 353.221312 
L 551.142655 353.2239 
L 557.001044 353.090751 
L 562.859434 353.218663 
L 592.15138 353.2239 
L 598.009769 352.761847 
L 603.868159 353.2239 
L 633.160105 353.2239 
L 908.5044 353.2239 
L 914.362789 353.104269 
L 920.221179 353.2239 
L 949.513125 353.2239 
L 949.513125 353.2239 
" style="fill:none;stroke:#91e8e1;stroke-linecap:square;"/>
   </g>
   <g id="line2d_27">
    <path clip-path="url(#pa1728d46ce)" d="M 76.613125 325.285387 
L 82.471514 353.2239 
L 211.356078 353.2239 
L 328.523863 353.218891 
L 334.382253 353.028491 
L 340.240642 353.2239 
L 351.95742 353.1537 
L 392.966145 353.2239 
L 469.125206 353.2239 
L 474.983595 353.09606 
L 480.841984 353.2239 
L 498.417152 353.2239 
L 504.275541 352.981093 
L 510.13393 353.2239 
L 521.850709 353.213495 
L 527.709098 353.2239 
L 533.567487 353.040887 
L 539.425877 353.2239 
L 592.15138 353.2239 
L 598.009769 352.818558 
L 603.868159 353.2239 
L 621.443326 353.212937 
L 685.885608 353.2239 
L 691.743997 353.154791 
L 697.602387 353.2239 
L 709.319165 353.2239 
L 949.513125 353.2239 
L 949.513125 353.2239 
" style="fill:none;stroke:#7cb5ec;stroke-linecap:square;"/>
   </g>
   <g id="line2d_28">
    <path clip-path="url(#pa1728d46ce)" d="M 76.613125 323.456817 
L 82.471514 353.2239 
L 146.913796 353.2239 
L 152.772185 353.021678 
L 158.630575 353.2239 
L 328.523863 353.2239 
L 334.382253 353.020958 
L 340.240642 353.2239 
L 351.95742 353.183241 
L 369.532588 353.2239 
L 498.417152 353.2239 
L 504.275541 353.099194 
L 510.13393 353.2239 
L 521.850709 353.2239 
L 527.709098 353.2239 
L 533.567487 353.098435 
L 539.425877 353.2239 
L 551.142655 353.2239 
L 557.001044 353.055745 
L 562.859434 353.2239 
L 592.15138 353.2239 
L 598.009769 352.926549 
L 603.868159 353.2239 
L 949.513125 353.2239 
L 949.513125 353.2239 
" style="fill:none;stroke:#434348;stroke-linecap:square;"/>
   </g>
   <g id="line2d_29">
    <path clip-path="url(#pa1728d46ce)" d="M 76.613125 325.830384 
L 82.471514 353.2239 
L 498.417152 353.2239 
L 504.275541 353.076676 
L 510.13393 353.2239 
L 515.99232 353.149856 
L 527.709098 353.2239 
L 533.567487 352.850584 
L 539.425877 353.2239 
L 592.15138 353.2239 
L 598.009769 352.991886 
L 603.868159 353.2239 
L 949.513125 353.2239 
L 949.513125 353.2239 
" style="fill:none;stroke:#90ed7d;stroke-linecap:square;"/>
   </g>
   <g id="line2d_30">
    <path clip-path="url(#pa1728d46ce)" d="M 76.613125 324.251292 
L 82.471514 353.2239 
L 146.913796 353.2239 
L 152.772185 353.111472 
L 158.630575 353.2239 
L 328.523863 353.212614 
L 334.382253 353.088395 
L 340.240642 353.2239 
L 351.95742 353.122106 
L 369.532588 353.2239 
L 498.417152 353.2239 
L 504.275541 352.911395 
L 510.13393 353.2239 
L 515.99232 353.084622 
L 521.850709 353.212278 
L 527.709098 353.2239 
L 533.567487 353.002459 
L 539.425877 353.212227 
L 551.142655 353.2239 
L 557.001044 353.118357 
L 568.717823 353.2239 
L 592.15138 353.2239 
L 598.009769 352.796603 
L 603.868159 353.2239 
L 621.443326 353.14019 
L 633.160105 353.2239 
L 949.513125 353.2239 
L 949.513125 353.2239 
" style="fill:none;stroke:#f7a35c;stroke-linecap:square;"/>
   </g>
   <g id="line2d_31">
    <path clip-path="url(#pa1728d46ce)" d="M 76.613125 323.115001 
L 82.471514 353.2239 
L 305.090306 353.2239 
L 328.523863 353.215153 
L 334.382253 353.101426 
L 340.240642 353.2239 
L 351.95742 353.168464 
L 375.390977 353.2239 
L 498.417152 353.2239 
L 504.275541 353.024794 
L 510.13393 353.2239 
L 515.99232 353.157438 
L 527.709098 353.2239 
L 533.567487 353.059603 
L 539.425877 353.219456 
L 592.15138 353.2239 
L 598.009769 352.898134 
L 603.868159 353.2239 
L 633.160105 353.2239 
L 949.513125 353.2239 
L 949.513125 353.2239 
" style="fill:none;stroke:#8085e9;stroke-linecap:square;"/>
   </g>
   <g id="line2d_32">
    <path clip-path="url(#pa1728d46ce)" d="M 76.613125 325.291365 
L 82.471514 353.2239 
L 146.913796 353.2239 
L 152.772185 353.083536 
L 158.630575 353.2239 
L 193.78091 353.2239 
L 199.639299 353.083536 
L 205.497689 353.2239 
L 234.789635 353.2239 
L 240.648024 353.083536 
L 246.506414 353.2239 
L 328.523863 353.2239 
L 334.382253 352.801679 
L 340.240642 353.2239 
L 346.099031 353.083066 
L 351.95742 353.2239 
L 469.125206 353.2239 
L 474.983595 353.081092 
L 480.841984 353.2239 
L 498.417152 353.2239 
L 504.275541 353.080293 
L 510.13393 353.2239 
L 527.709098 353.2239 
L 533.567487 353.079221 
L 539.425877 353.2239 
L 551.142655 353.2239 
L 557.001044 353.07823 
L 562.859434 353.2239 
L 592.15138 353.2239 
L 598.009769 352.633211 
L 603.868159 353.2239 
L 949.513125 353.2239 
L 949.513125 353.2239 
" style="fill:none;stroke:#f15c80;stroke-linecap:square;"/>
   </g>
   <g id="line2d_33">
    <path clip-path="url(#pa1728d46ce)" d="M 76.613125 324.674126 
L 82.471514 353.2239 
L 498.417152 353.2239 
L 504.275541 353.011336 
L 510.13393 353.2239 
L 521.850709 353.2239 
L 527.709098 353.2239 
L 533.567487 353.081599 
L 539.425877 353.2239 
L 592.15138 353.2239 
L 598.009769 352.97228 
L 603.868159 353.2239 
L 908.5044 353.2239 
L 914.362789 353.104544 
L 920.221179 353.2239 
L 949.513125 353.2239 
L 949.513125 353.2239 
" style="fill:none;stroke:#e4d354;stroke-linecap:square;"/>
   </g>
   <g id="line2d_34">
    <path clip-path="url(#pa1728d46ce)" d="M 76.613125 322.670927 
L 82.471514 353.2239 
L 234.789635 353.2239 
L 240.648024 353.083288 
L 246.506414 353.2239 
L 527.709098 353.2239 
L 533.567487 353.016813 
L 539.425877 353.203165 
L 574.576212 353.2239 
L 592.15138 353.2239 
L 598.009769 353.034876 
L 603.868159 353.2239 
L 615.584937 353.2239 
L 949.513125 353.2239 
L 949.513125 353.2239 
" style="fill:none;stroke:#2b908f;stroke-linecap:square;"/>
   </g>
   <g id="line2d_35">
    <path clip-path="url(#pa1728d46ce)" d="M 76.613125 324.428273 
L 82.471514 353.2239 
L 469.125206 353.2239 
L 474.983595 353.067581 
L 480.841984 353.2239 
L 498.417152 353.2239 
L 504.275541 352.804234 
L 510.13393 353.2239 
L 527.709098 353.2239 
L 533.567487 352.959603 
L 539.425877 353.2239 
L 592.15138 353.2239 
L 598.009769 352.73821 
L 603.868159 353.2239 
L 615.584937 353.2239 
L 908.5044 353.2239 
L 914.362789 353.094696 
L 920.221179 353.2239 
L 949.513125 353.2239 
L 949.513125 353.2239 
" style="fill:none;stroke:#f45b5b;stroke-linecap:square;"/>
   </g>
   <g id="line2d_36">
    <path clip-path="url(#pa1728d46ce)" d="M 76.613125 324.192786 
L 82.471514 353.2239 
L 328.523863 353.2239 
L 334.382253 353.102624 
L 340.240642 353.2239 
L 346.099031 353.102494 
L 357.81581 353.2239 
L 498.417152 353.2239 
L 504.275541 352.943434 
L 510.13393 353.2239 
L 515.99232 353.161396 
L 527.709098 353.2239 
L 545.284266 353.2239 
L 592.15138 353.2239 
L 598.009769 352.838776 
L 603.868159 353.2239 
L 621.443326 353.191529 
L 644.876883 353.2239 
L 949.513125 353.2239 
L 949.513125 353.2239 
" style="fill:none;stroke:#91e8e1;stroke-linecap:square;"/>
   </g>
   <g id="line2d_37">
    <path clip-path="url(#pa1728d46ce)" d="M 76.613125 323.258278 
L 82.471514 353.2239 
L 498.417152 353.2239 
L 504.275541 353.004609 
L 510.13393 353.2239 
L 515.99232 353.140249 
L 527.709098 353.2239 
L 533.567487 353.056244 
L 539.425877 353.2239 
L 592.15138 353.2239 
L 598.009769 352.948979 
L 603.868159 353.2239 
L 621.443326 353.202669 
L 656.593662 353.2239 
L 949.513125 353.2239 
L 949.513125 353.2239 
" style="fill:none;stroke:#7cb5ec;stroke-linecap:square;"/>
   </g>
   <g id="line2d_38">
    <path clip-path="url(#pa1728d46ce)" d="M 76.613125 326.023327 
L 82.471514 353.2239 
L 146.913796 353.2239 
L 152.772185 353.112422 
L 158.630575 353.2239 
L 217.214467 353.2239 
L 223.072857 353.112422 
L 228.931246 353.2239 
L 234.789635 353.2239 
L 240.648024 353.112422 
L 246.506414 353.2239 
L 328.523863 353.2239 
L 334.382253 352.887941 
L 340.240642 353.2239 
L 346.099031 353.11174 
L 351.95742 353.2239 
L 357.81581 353.11161 
L 363.674199 353.2239 
L 469.125206 353.2239 
L 474.983595 353.109156 
L 480.841984 353.2239 
L 498.417152 353.2239 
L 504.275541 353.108282 
L 510.13393 353.2239 
L 515.99232 353.1078 
L 521.850709 353.2239 
L 527.709098 353.2239 
L 533.567487 353.10709 
L 539.425877 353.2239 
L 551.142655 353.2239 
L 557.001044 353.10601 
L 562.859434 353.2239 
L 592.15138 353.2239 
L 598.009769 352.62491 
L 603.868159 353.2239 
L 609.726548 353.103458 
L 615.584937 353.2239 
L 949.513125 353.2239 
L 949.513125 353.2239 
" style="fill:none;stroke:#434348;stroke-linecap:square;"/>
   </g>
   <g id="line2d_39">
    <path clip-path="url(#pa1728d46ce)" d="M 76.613125 323.215352 
L 82.471514 353.2239 
L 146.913796 353.2239 
L 152.772185 353.002435 
L 158.630575 353.2239 
L 328.523863 353.209145 
L 334.382253 352.981496 
L 340.240642 353.2239 
L 351.95742 353.155499 
L 375.390977 353.2239 
L 498.417152 353.2239 
L 504.275541 352.961287 
L 510.13393 353.2239 
L 515.99232 353.158472 
L 527.709098 353.2239 
L 533.567487 353.051342 
L 539.425877 353.21723 
L 551.142655 353.2239 
L 557.001044 353.118943 
L 568.717823 353.2239 
L 592.15138 353.2239 
L 598.009769 352.801628 
L 603.868159 353.2239 
L 633.160105 353.2239 
L 949.513125 353.2239 
L 949.513125 353.2239 
" style="fill:none;stroke:#90ed7d;stroke-linecap:square;"/>
   </g>
   <g id="line2d_40">
    <path clip-path="url(#pa1728d46ce)" d="M 76.613125 321.821953 
L 82.471514 353.2239 
L 146.913796 353.2239 
L 152.772185 353.094528 
L 158.630575 353.2239 
L 328.523863 353.212107 
L 334.382253 353.041042 
L 340.240642 353.2239 
L 351.95742 353.170742 
L 369.532588 353.2239 
L 469.125206 353.2239 
L 474.983595 353.103956 
L 480.841984 353.2239 
L 498.417152 353.2239 
L 504.275541 352.928564 
L 510.13393 353.2239 
L 521.850709 353.211805 
L 527.709098 353.2239 
L 533.567487 353.102673 
L 539.425877 353.2239 
L 592.15138 353.2239 
L 598.009769 352.793589 
L 603.868159 353.2239 
L 656.593662 353.2239 
L 908.5044 353.2239 
L 914.362789 353.103641 
L 920.221179 353.2239 
L 949.513125 353.2239 
L 949.513125 353.2239 
" style="fill:none;stroke:#f7a35c;stroke-linecap:square;"/>
   </g>
   <g id="line2d_41">
    <path clip-path="url(#pa1728d46ce)" d="M 76.613125 322.68797 
L 82.471514 353.2239 
L 152.772185 353.168161 
L 164.488964 353.2239 
L 498.417152 353.2239 
L 504.275541 353.071738 
L 510.13393 353.2239 
L 515.99232 353.157194 
L 527.709098 353.2239 
L 533.567487 353.061427 
L 539.425877 353.2239 
L 592.15138 353.2239 
L 598.009769 352.962387 
L 603.868159 353.2239 
L 668.31044 353.2239 
L 949.513125 353.2239 
L 949.513125 353.2239 
" style="fill:none;stroke:#8085e9;stroke-linecap:square;"/>
   </g>
   <g id="line2d_42">
    <path clip-path="url(#pa1728d46ce)" d="M 76.613125 325.570923 
L 82.471514 353.2239 
L 234.789635 353.2239 
L 240.648024 353.060273 
L 246.506414 353.2239 
L 328.523863 353.168976 
L 334.382253 353.058974 
L 340.240642 353.2239 
L 357.81581 353.113495 
L 369.532588 353.2239 
L 498.417152 353.2239 
L 504.275541 353.108659 
L 510.13393 353.2239 
L 515.99232 353.166006 
L 527.709098 353.2239 
L 533.567487 352.932301 
L 539.425877 353.2239 
L 592.15138 353.2239 
L 598.009769 352.983362 
L 603.868159 353.2239 
L 609.726548 353.163396 
L 615.584937 353.2239 
L 621.443326 353.163013 
L 633.160105 353.2239 
L 949.513125 353.2239 
L 949.513125 353.2239 
" style="fill:none;stroke:#f15c80;stroke-linecap:square;"/>
   </g>
   <g id="line2d_43">
    <path clip-path="url(#pa1728d46ce)" d="M 76.613125 322.963967 
L 82.471514 353.2239 
L 334.382253 353.086989 
L 340.240642 353.2239 
L 351.95742 353.149487 
L 375.390977 353.2239 
L 498.417152 353.2239 
L 504.275541 353.009224 
L 510.13393 353.2239 
L 515.99232 353.145123 
L 527.709098 353.2239 
L 533.567487 353.060058 
L 539.425877 353.221071 
L 592.15138 353.2239 
L 598.009769 352.878002 
L 603.868159 353.2239 
L 621.443326 353.194286 
L 644.876883 353.2239 
L 949.513125 353.2239 
L 949.513125 353.2239 
" style="fill:none;stroke:#e4d354;stroke-linecap:square;"/>
   </g>
   <g id="line2d_44">
    <path clip-path="url(#pa1728d46ce)" d="M 76.613125 324.767545 
L 82.471514 353.2239 
L 498.417152 353.2239 
L 504.275541 353.005467 
L 510.13393 353.2239 
L 515.99232 353.130112 
L 527.709098 353.2239 
L 533.567487 353.129838 
L 545.284266 353.2239 
L 592.15138 353.2239 
L 598.009769 352.938052 
L 603.868159 353.2239 
L 949.513125 353.2239 
L 949.513125 353.2239 
" style="fill:none;stroke:#2b908f;stroke-linecap:square;"/>
   </g>
   <g id="line2d_45">
    <path clip-path="url(#pa1728d46ce)" d="M 76.613125 323.260631 
L 82.471514 353.2239 
L 346.099031 353.150269 
L 351.95742 353.101098 
L 369.532588 353.2239 
L 498.417152 353.2239 
L 504.275541 353.047748 
L 510.13393 353.2239 
L 521.850709 353.2239 
L 527.709098 353.2239 
L 533.567487 353.097264 
L 539.425877 353.2239 
L 592.15138 353.2239 
L 598.009769 352.811903 
L 603.868159 353.2239 
L 609.726548 353.146377 
L 615.584937 353.2239 
L 627.301716 353.2239 
L 908.5044 353.2239 
L 914.362789 353.104465 
L 920.221179 353.2239 
L 949.513125 353.2239 
L 949.513125 353.2239 
" style="fill:none;stroke:#f45b5b;stroke-linecap:square;"/>
   </g>
   <g id="line2d_46">
    <path clip-path="url(#pa1728d46ce)" d="M 76.613125 324.271197 
L 82.471514 353.2239 
L 105.905071 353.2239 
L 111.763461 353.09017 
L 117.62185 353.2239 
L 346.099031 353.2239 
L 351.95742 353.089018 
L 357.81581 353.2239 
L 363.674199 353.156364 
L 375.390977 353.2239 
L 498.417152 353.2239 
L 504.275541 353.084257 
L 510.13393 353.2239 
L 527.709098 353.2239 
L 533.567487 353.082783 
L 539.425877 353.2239 
L 592.15138 353.2239 
L 598.009769 353.006739 
L 603.868159 353.2239 
L 949.513125 353.2239 
L 949.513125 353.2239 
" style="fill:none;stroke:#91e8e1;stroke-linecap:square;"/>
   </g>
   <g id="line2d_47">
    <path clip-path="url(#pa1728d46ce)" d="M 76.613125 325.211428 
L 82.471514 353.2239 
L 498.417152 353.2239 
L 504.275541 353.112572 
L 510.13393 353.2239 
L 527.709098 353.2239 
L 533.567487 352.998103 
L 539.425877 353.2239 
L 592.15138 353.2239 
L 598.009769 353.048201 
L 603.868159 353.2239 
L 949.513125 353.2239 
L 949.513125 353.2239 
" style="fill:none;stroke:#7cb5ec;stroke-linecap:square;"/>
   </g>
   <g id="line2d_48">
    <path clip-path="url(#pa1728d46ce)" d="M 76.613125 322.990676 
L 82.471514 353.2239 
L 498.417152 353.2239 
L 504.275541 353.065862 
L 510.13393 353.2239 
L 527.709098 353.2239 
L 533.567487 353.06481 
L 539.425877 353.2239 
L 592.15138 353.2239 
L 598.009769 352.981232 
L 603.868159 353.2239 
L 949.513125 353.2239 
L 949.513125 353.2239 
" style="fill:none;stroke:#434348;stroke-linecap:square;"/>
   </g>
   <g id="line2d_49">
    <path clip-path="url(#pa1728d46ce)" d="M 76.613125 325.647044 
L 82.471514 353.2239 
L 146.913796 353.2239 
L 152.772185 353.005901 
L 158.630575 353.2239 
L 217.214467 353.2239 
L 223.072857 353.005901 
L 228.931246 353.2239 
L 234.789635 353.2239 
L 240.648024 353.005901 
L 246.506414 353.2239 
L 328.523863 353.2239 
L 334.382253 353.004562 
L 340.240642 353.2239 
L 469.125206 353.2239 
L 474.983595 352.998127 
L 480.841984 353.2239 
L 498.417152 353.2239 
L 504.275541 352.88236 
L 510.13393 353.2239 
L 515.99232 353.109535 
L 521.850709 353.2239 
L 551.142655 353.2239 
L 557.001044 353.107575 
L 562.859434 353.2239 
L 592.15138 353.2239 
L 598.009769 352.868165 
L 603.868159 353.2239 
L 615.584937 353.2239 
L 621.443326 353.103788 
L 627.301716 353.2239 
L 685.885608 353.2239 
L 691.743997 353.098476 
L 697.602387 353.2239 
L 703.460776 353.097438 
L 709.319165 353.2239 
L 797.195004 353.2239 
L 803.053393 353.087222 
L 808.911783 353.2239 
L 890.929232 353.2239 
L 896.787622 353.073728 
L 902.646011 353.2239 
L 908.5044 353.2239 
L 914.362789 353.07024 
L 920.221179 353.2239 
L 949.513125 353.2239 
L 949.513125 353.2239 
" style="fill:none;stroke:#90ed7d;stroke-linecap:square;"/>
   </g>
   <g id="line2d_50">
    <path clip-path="url(#pa1728d46ce)" d="M 76.613125 323.448741 
L 82.471514 353.2239 
L 328.523863 353.212645 
L 334.382253 353.102884 
L 340.240642 353.2239 
L 357.81581 353.187279 
L 381.249367 353.2239 
L 498.417152 353.2239 
L 504.275541 352.995984 
L 510.13393 353.2239 
L 515.99232 353.126908 
L 527.709098 353.2239 
L 533.567487 353.072374 
L 539.425877 353.2239 
L 592.15138 353.2239 
L 598.009769 352.894762 
L 603.868159 353.2239 
L 621.443326 353.186201 
L 639.018494 353.2239 
L 949.513125 353.2239 
L 949.513125 353.2239 
" style="fill:none;stroke:#f7a35c;stroke-linecap:square;"/>
   </g>
   <g id="line2d_51">
    <path clip-path="url(#pa1728d46ce)" d="M 76.613125 323.267308 
L 82.471514 353.2239 
L 498.417152 353.2239 
L 504.275541 353.00473 
L 510.13393 353.2239 
L 515.99232 353.151984 
L 527.709098 353.2239 
L 533.567487 353.069318 
L 539.425877 353.221966 
L 592.15138 353.2239 
L 598.009769 352.876942 
L 603.868159 353.2239 
L 633.160105 353.2239 
L 949.513125 353.2239 
L 949.513125 353.2239 
" style="fill:none;stroke:#8085e9;stroke-linecap:square;"/>
   </g>
   <g id="line2d_52">
    <path clip-path="url(#pa1728d46ce)" d="M 76.613125 322.601928 
L 82.471514 353.2239 
L 146.913796 353.2239 
L 152.772185 353.090316 
L 158.630575 353.2239 
L 328.523863 353.213799 
L 334.382253 353.073339 
L 340.240642 353.2239 
L 351.95742 353.149476 
L 375.390977 353.2239 
L 498.417152 353.2239 
L 504.275541 352.984094 
L 510.13393 353.2239 
L 515.99232 353.153106 
L 527.709098 353.2239 
L 533.567487 353.051839 
L 539.425877 353.2239 
L 592.15138 353.2239 
L 598.009769 352.875677 
L 603.868159 353.2239 
L 627.301716 353.2239 
L 949.513125 353.2239 
L 949.513125 353.2239 
" style="fill:none;stroke:#f15c80;stroke-linecap:square;"/>
   </g>
   <g id="line2d_53">
    <path clip-path="url(#pa1728d46ce)" d="M 76.613125 322.619607 
L 82.471514 353.2239 
L 357.81581 353.198119 
L 387.107756 353.2239 
L 498.417152 353.2239 
L 504.275541 352.987293 
L 510.13393 353.2239 
L 515.99232 353.147755 
L 527.709098 353.2239 
L 533.567487 353.053052 
L 539.425877 353.218792 
L 592.15138 353.2239 
L 598.009769 352.817294 
L 603.868159 353.2239 
L 644.876883 353.2239 
L 949.513125 353.2239 
L 949.513125 353.2239 
" style="fill:none;stroke:#e4d354;stroke-linecap:square;"/>
   </g>
   <g id="line2d_54">
    <path clip-path="url(#pa1728d46ce)" d="M 76.613125 323.362253 
L 82.471514 353.2239 
L 141.055407 353.212803 
L 205.497689 353.2239 
L 498.417152 353.2239 
L 504.275541 353.077076 
L 510.13393 353.2239 
L 515.99232 353.133423 
L 527.709098 353.2239 
L 533.567487 353.053865 
L 539.425877 353.2239 
L 592.15138 353.2239 
L 598.009769 353.006383 
L 603.868159 353.2239 
L 609.726548 353.166542 
L 621.443326 353.200912 
L 650.735273 353.2239 
L 949.513125 353.2239 
L 949.513125 353.2239 
" style="fill:none;stroke:#2b908f;stroke-linecap:square;"/>
   </g>
   <g id="line2d_55">
    <path clip-path="url(#pa1728d46ce)" d="M 76.613125 323.885056 
L 82.471514 353.2239 
L 328.523863 353.2239 
L 334.382253 353.08365 
L 340.240642 353.2239 
L 357.81581 353.171193 
L 375.390977 353.2239 
L 527.709098 353.2239 
L 533.567487 352.953216 
L 539.425877 353.2239 
L 592.15138 353.2239 
L 598.009769 353.040742 
L 603.868159 353.2239 
L 639.018494 353.2239 
L 949.513125 353.2239 
L 949.513125 353.2239 
" style="fill:none;stroke:#f45b5b;stroke-linecap:square;"/>
   </g>
   <g id="line2d_56">
    <path clip-path="url(#pa1728d46ce)" d="M 76.613125 323.914309 
L 82.471514 353.2239 
L 246.506414 353.2239 
L 498.417152 353.2239 
L 504.275541 353.026342 
L 510.13393 353.2239 
L 515.99232 353.149994 
L 527.709098 353.2239 
L 533.567487 353.059859 
L 539.425877 353.221898 
L 592.15138 353.2239 
L 598.009769 352.919882 
L 603.868159 353.2239 
L 633.160105 353.2239 
L 949.513125 353.2239 
L 949.513125 353.2239 
" style="fill:none;stroke:#91e8e1;stroke-linecap:square;"/>
   </g>
   <g id="line2d_57">
    <path clip-path="url(#pa1728d46ce)" d="M 76.613125 322.927909 
L 82.471514 353.2239 
L 223.072857 353.1884 
L 234.789635 353.2239 
L 246.506414 353.2239 
L 328.523863 353.206588 
L 334.382253 353.103648 
L 340.240642 353.2239 
L 351.95742 353.166135 
L 375.390977 353.2239 
L 498.417152 353.2239 
L 504.275541 353.035355 
L 510.13393 353.2239 
L 515.99232 353.156772 
L 527.709098 353.2239 
L 533.567487 353.063129 
L 539.425877 353.22195 
L 592.15138 353.2239 
L 598.009769 352.899258 
L 603.868159 353.2239 
L 633.160105 353.2239 
L 949.513125 353.2239 
L 949.513125 353.2239 
" style="fill:none;stroke:#7cb5ec;stroke-linecap:square;"/>
   </g>
   <g id="line2d_58">
    <path clip-path="url(#pa1728d46ce)" d="M 76.613125 324.67101 
L 82.471514 353.2239 
L 328.523863 353.2239 
L 334.382253 353.096776 
L 340.240642 353.2239 
L 498.417152 353.2239 
L 504.275541 352.921149 
L 510.13393 353.2239 
L 527.709098 353.2239 
L 533.567487 353.093341 
L 539.425877 353.2239 
L 592.15138 353.2239 
L 598.009769 352.781528 
L 603.868159 353.2239 
L 615.584937 353.2239 
L 949.513125 353.2239 
L 949.513125 353.2239 
" style="fill:none;stroke:#434348;stroke-linecap:square;"/>
   </g>
   <g id="line2d_59">
    <path clip-path="url(#pa1728d46ce)" d="M 76.613125 322.596586 
L 82.471514 353.2239 
L 498.417152 353.2239 
L 504.275541 352.945933 
L 510.13393 353.2239 
L 533.567487 353.097 
L 539.425877 353.2239 
L 592.15138 353.2239 
L 598.009769 352.813321 
L 603.868159 353.2239 
L 615.584937 353.2239 
L 949.513125 353.2239 
L 949.513125 353.2239 
" style="fill:none;stroke:#90ed7d;stroke-linecap:square;"/>
   </g>
   <g id="line2d_60">
    <path clip-path="url(#pa1728d46ce)" d="M 76.613125 323.264001 
L 82.471514 353.2239 
L 328.523863 353.2239 
L 334.382253 353.08025 
L 340.240642 353.2239 
L 351.95742 353.191922 
L 375.390977 353.2239 
L 498.417152 353.2239 
L 504.275541 353.10951 
L 510.13393 353.2239 
L 515.99232 353.142005 
L 527.709098 353.2239 
L 533.567487 353.125263 
L 545.284266 353.2239 
L 592.15138 353.2239 
L 598.009769 352.906906 
L 603.868159 353.2239 
L 621.443326 353.173539 
L 639.018494 353.2239 
L 949.513125 353.2239 
L 949.513125 353.2239 
" style="fill:none;stroke:#f7a35c;stroke-linecap:square;"/>
   </g>
   <g id="line2d_61">
    <path clip-path="url(#pa1728d46ce)" d="M 76.613125 322.863743 
L 82.471514 353.2239 
L 146.913796 353.2239 
L 152.772185 353.035592 
L 158.630575 353.223533 
L 328.523863 353.214221 
L 334.382253 353.018751 
L 340.240642 353.2239 
L 351.95742 353.158592 
L 375.390977 353.2239 
L 498.417152 353.2239 
L 504.275541 352.987928 
L 510.13393 353.2239 
L 515.99232 353.151194 
L 527.709098 353.2239 
L 533.567487 353.055732 
L 539.425877 353.220581 
L 592.15138 353.2239 
L 598.009769 352.845405 
L 603.868159 353.2239 
L 627.301716 353.2239 
L 949.513125 353.2239 
L 949.513125 353.2239 
" style="fill:none;stroke:#8085e9;stroke-linecap:square;"/>
   </g>
   <g id="line2d_62">
    <path clip-path="url(#pa1728d46ce)" d="M 76.613125 323.101392 
L 82.471514 353.2239 
L 240.648024 353.17043 
L 252.364803 353.2239 
L 334.382253 353.093511 
L 340.240642 353.2239 
L 351.95742 353.158306 
L 375.390977 353.2239 
L 498.417152 353.2239 
L 504.275541 353.015914 
L 510.13393 353.2239 
L 515.99232 353.155646 
L 527.709098 353.2239 
L 533.567487 353.050642 
L 539.425877 353.221474 
L 592.15138 353.2239 
L 598.009769 352.883039 
L 603.868159 353.2239 
L 627.301716 353.2239 
L 949.513125 353.2239 
L 949.513125 353.2239 
" style="fill:none;stroke:#f15c80;stroke-linecap:square;"/>
   </g>
   <g id="line2d_63">
    <path clip-path="url(#pa1728d46ce)" d="M 76.613125 324.849644 
L 82.471514 353.2239 
L 234.789635 353.2239 
L 240.648024 353.084125 
L 246.506414 353.2239 
L 527.709098 353.2239 
L 533.567487 352.961325 
L 539.425877 353.2239 
L 592.15138 353.2239 
L 598.009769 353.074924 
L 603.868159 353.2239 
L 609.726548 353.164046 
L 621.443326 353.193835 
L 644.876883 353.2239 
L 949.513125 353.2239 
L 949.513125 353.2239 
" style="fill:none;stroke:#e4d354;stroke-linecap:square;"/>
   </g>
   <g id="line2d_64">
    <path clip-path="url(#pa1728d46ce)" d="M 76.613125 323.107052 
L 82.471514 353.2239 
L 146.913796 353.2239 
L 152.772185 353.079714 
L 158.630575 353.2239 
L 328.523863 353.2239 
L 334.382253 353.079298 
L 340.240642 353.2239 
L 357.81581 353.187691 
L 381.249367 353.2239 
L 498.417152 353.2239 
L 504.275541 353.002393 
L 510.13393 353.2239 
L 515.99232 353.094394 
L 521.850709 353.2239 
L 527.709098 353.2239 
L 533.567487 353.056786 
L 539.425877 353.2239 
L 551.142655 353.2239 
L 557.001044 353.111921 
L 562.859434 353.2239 
L 592.15138 353.2239 
L 598.009769 352.846794 
L 603.868159 353.2239 
L 633.160105 353.2239 
L 949.513125 353.2239 
L 949.513125 353.2239 
" style="fill:none;stroke:#2b908f;stroke-linecap:square;"/>
   </g>
   <g id="line2d_65">
    <path clip-path="url(#pa1728d46ce)" d="M 76.613125 325.405961 
L 82.471514 353.2239 
L 146.913796 353.2239 
L 152.772185 353.107507 
L 158.630575 353.2239 
L 328.523863 353.2239 
L 334.382253 353.107069 
L 340.240642 353.2239 
L 469.125206 353.2239 
L 474.983595 353.104329 
L 480.841984 353.2239 
L 498.417152 353.2239 
L 504.275541 352.861578 
L 510.13393 353.2239 
L 527.709098 353.2239 
L 533.567487 352.857373 
L 539.425877 353.2239 
L 551.142655 353.2239 
L 557.001044 353.100329 
L 562.859434 353.2239 
L 592.15138 353.2239 
L 598.009769 352.97061 
L 603.868159 353.2239 
L 697.602387 353.2239 
L 703.460776 353.086685 
L 709.319165 353.2239 
L 949.513125 353.2239 
L 949.513125 353.2239 
" style="fill:none;stroke:#f45b5b;stroke-linecap:square;"/>
   </g>
   <g id="line2d_66">
    <path clip-path="url(#pa1728d46ce)" d="M 76.613125 321.657436 
L 82.471514 353.2239 
L 146.913796 353.2239 
L 152.772185 352.991794 
L 158.630575 353.2239 
L 328.523863 353.2239 
L 334.382253 352.951635 
L 340.240642 353.2239 
L 498.417152 353.2239 
L 504.275541 353.063751 
L 510.13393 353.2239 
L 521.850709 353.183675 
L 527.709098 353.2239 
L 533.567487 353.102823 
L 539.425877 353.2239 
L 551.142655 353.2239 
L 557.001044 353.102032 
L 562.859434 353.2239 
L 592.15138 353.2239 
L 598.009769 352.647643 
L 603.868159 353.2239 
L 949.513125 353.2239 
L 949.513125 353.2239 
" style="fill:none;stroke:#91e8e1;stroke-linecap:square;"/>
   </g>
   <g id="line2d_67">
    <path clip-path="url(#pa1728d46ce)" d="M 76.613125 324.171355 
L 82.471514 353.2239 
L 275.79836 353.216148 
L 328.523863 353.212785 
L 334.382253 353.103791 
L 340.240642 353.2239 
L 351.95742 353.160399 
L 369.532588 353.2239 
L 498.417152 353.2239 
L 504.275541 353.021083 
L 510.13393 353.2239 
L 515.99232 353.149672 
L 527.709098 353.2239 
L 533.567487 353.060023 
L 539.425877 353.221605 
L 592.15138 353.2239 
L 598.009769 352.890295 
L 603.868159 353.2239 
L 627.301716 353.2239 
L 949.513125 353.2239 
L 949.513125 353.2239 
" style="fill:none;stroke:#7cb5ec;stroke-linecap:square;"/>
   </g>
   <g id="line2d_68">
    <path clip-path="url(#pa1728d46ce)" d="M 76.613125 323.529377 
L 82.471514 353.2239 
L 264.081581 353.220246 
L 328.523863 353.214727 
L 334.382253 353.082565 
L 340.240642 353.2239 
L 351.95742 353.171498 
L 381.249367 353.2239 
L 498.417152 353.2239 
L 504.275541 353.009854 
L 510.13393 353.2239 
L 515.99232 353.139242 
L 527.709098 353.2239 
L 533.567487 353.082366 
L 539.425877 353.215399 
L 592.15138 353.2239 
L 598.009769 352.882879 
L 603.868159 353.2239 
L 633.160105 353.2239 
L 949.513125 353.2239 
L 949.513125 353.2239 
" style="fill:none;stroke:#434348;stroke-linecap:square;"/>
   </g>
   <g id="line2d_69">
    <path clip-path="url(#pa1728d46ce)" d="M 76.613125 323.650014 
L 82.471514 353.2239 
L 240.648024 353.178039 
L 258.223192 353.217646 
L 328.523863 353.215527 
L 334.382253 353.062621 
L 340.240642 353.2239 
L 357.81581 353.205 
L 398.824534 353.2239 
L 498.417152 353.2239 
L 504.275541 353.027153 
L 510.13393 353.2239 
L 521.850709 353.219555 
L 527.709098 353.2239 
L 533.567487 353.056035 
L 539.425877 353.221716 
L 592.15138 353.2239 
L 598.009769 352.865343 
L 603.868159 353.2239 
L 627.301716 353.2239 
L 949.513125 353.2239 
L 949.513125 353.2239 
" style="fill:none;stroke:#90ed7d;stroke-linecap:square;"/>
   </g>
   <g id="line2d_70">
    <path clip-path="url(#pa1728d46ce)" d="M 76.613125 322.925874 
L 82.471514 353.2239 
L 328.523863 353.217424 
L 334.382253 353.100832 
L 340.240642 353.2239 
L 351.95742 353.178521 
L 422.258091 353.2239 
L 498.417152 353.2239 
L 504.275541 353.040149 
L 510.13393 353.2239 
L 515.99232 353.13847 
L 527.709098 353.2239 
L 533.567487 353.059254 
L 539.425877 353.2239 
L 592.15138 353.2239 
L 598.009769 352.938049 
L 603.868159 353.2239 
L 627.301716 353.2239 
L 949.513125 353.2239 
L 949.513125 353.2239 
" style="fill:none;stroke:#f7a35c;stroke-linecap:square;"/>
   </g>
   <g id="line2d_71">
    <path clip-path="url(#pa1728d46ce)" d="M 76.613125 323.048864 
L 82.471514 353.2239 
L 328.523863 353.215535 
L 334.382253 353.100465 
L 340.240642 353.2239 
L 351.95742 353.161061 
L 375.390977 353.2239 
L 498.417152 353.2239 
L 504.275541 353.009062 
L 510.13393 353.2239 
L 515.99232 353.147202 
L 527.709098 353.2239 
L 533.567487 353.07866 
L 539.425877 353.221762 
L 592.15138 353.2239 
L 598.009769 352.913091 
L 603.868159 353.2239 
L 656.593662 353.215167 
L 762.044669 353.2239 
L 949.513125 353.2239 
L 949.513125 353.2239 
" style="fill:none;stroke:#8085e9;stroke-linecap:square;"/>
   </g>
   <g id="line2d_72">
    <path clip-path="url(#pa1728d46ce)" d="M 76.613125 323.318501 
L 82.471514 353.2239 
L 387.107756 353.2239 
L 498.417152 353.2239 
L 504.275541 353.027646 
L 510.13393 353.2239 
L 515.99232 353.160802 
L 527.709098 353.2239 
L 533.567487 353.091747 
L 539.425877 353.221744 
L 592.15138 353.2239 
L 598.009769 352.886102 
L 603.868159 353.2239 
L 627.301716 353.2239 
L 949.513125 353.2239 
L 949.513125 353.2239 
" style="fill:none;stroke:#f15c80;stroke-linecap:square;"/>
   </g>
   <g id="line2d_73">
    <path clip-path="url(#pa1728d46ce)" d="M 76.613125 323.361872 
L 82.471514 353.2239 
L 328.523863 353.2239 
L 334.382253 353.10322 
L 340.240642 353.2239 
L 363.674199 353.2239 
L 498.417152 353.2239 
L 504.275541 353.048326 
L 510.13393 353.2239 
L 515.99232 353.135935 
L 527.709098 353.2239 
L 533.567487 353.073882 
L 539.425877 353.2239 
L 592.15138 353.2239 
L 598.009769 352.875064 
L 603.868159 353.2239 
L 639.018494 353.2239 
L 949.513125 353.2239 
L 949.513125 353.2239 
" style="fill:none;stroke:#e4d354;stroke-linecap:square;"/>
   </g>
   <g id="line2d_74">
    <path clip-path="url(#pa1728d46ce)" d="M 76.613125 323.324415 
L 82.471514 353.2239 
L 146.913796 353.2239 
L 152.772185 353.094636 
L 158.630575 353.2239 
L 328.523863 353.216194 
L 334.382253 353.068586 
L 340.240642 353.2239 
L 351.95742 353.1676 
L 375.390977 353.2239 
L 498.417152 353.2239 
L 504.275541 352.966906 
L 510.13393 353.2239 
L 515.99232 353.140638 
L 527.709098 353.2239 
L 533.567487 353.084097 
L 539.425877 353.220457 
L 592.15138 353.2239 
L 598.009769 352.851306 
L 603.868159 353.2239 
L 633.160105 353.2239 
L 949.513125 353.2239 
L 949.513125 353.2239 
" style="fill:none;stroke:#2b908f;stroke-linecap:square;"/>
   </g>
   <g id="line2d_75">
    <path clip-path="url(#pa1728d46ce)" d="M 76.613125 322.936876 
L 82.471514 353.2239 
L 105.905071 353.2239 
L 111.763461 353.111809 
L 123.480239 353.2239 
L 146.913796 353.2239 
L 152.772185 353.022136 
L 158.630575 353.2239 
L 328.523863 353.2239 
L 334.382253 352.998241 
L 340.240642 353.2239 
L 351.95742 353.110777 
L 369.532588 353.2239 
L 469.125206 353.2239 
L 474.983595 353.107652 
L 480.841984 353.2239 
L 498.417152 353.2239 
L 504.275541 352.965824 
L 510.13393 353.2239 
L 515.99232 353.106128 
L 521.850709 353.2239 
L 527.709098 353.2239 
L 533.567487 352.986851 
L 539.425877 353.2239 
L 551.142655 353.2239 
L 557.001044 353.008593 
L 562.859434 353.2239 
L 592.15138 353.2239 
L 598.009769 352.83422 
L 603.868159 353.2239 
L 627.301716 353.2239 
L 890.929232 353.2239 
L 896.787622 353.075937 
L 902.646011 353.2239 
L 949.513125 353.2239 
L 949.513125 353.2239 
" style="fill:none;stroke:#f45b5b;stroke-linecap:square;"/>
   </g>
   <g id="line2d_76">
    <path clip-path="url(#pa1728d46ce)" d="M 76.613125 325.200235 
L 82.471514 353.2239 
L 498.417152 353.2239 
L 504.275541 353.022341 
L 510.13393 353.2239 
L 533.567487 353.15598 
L 545.284266 353.2239 
L 592.15138 353.2239 
L 598.009769 352.803424 
L 603.868159 353.2239 
L 949.513125 353.2239 
L 949.513125 353.2239 
" style="fill:none;stroke:#91e8e1;stroke-linecap:square;"/>
   </g>
   <g id="line2d_77">
    <path clip-path="url(#pa1728d46ce)" d="M 76.613125 323.081805 
L 82.471514 353.2239 
L 498.417152 353.2239 
L 504.275541 353.007913 
L 510.13393 353.2239 
L 521.850709 353.209451 
L 527.709098 353.2239 
L 533.567487 353.067914 
L 539.425877 353.222784 
L 592.15138 353.2239 
L 598.009769 352.872337 
L 603.868159 353.2239 
L 627.301716 353.2239 
L 949.513125 353.2239 
L 949.513125 353.2239 
" style="fill:none;stroke:#7cb5ec;stroke-linecap:square;"/>
   </g>
   <g id="line2d_78">
    <path clip-path="url(#pa1728d46ce)" d="M 32.968125 353.2239 
L 993.158125 353.2239 
" style="fill:none;stroke:#dedede;stroke-linecap:square;stroke-width:2;"/>
   </g>
   <g id="text_17">
    <!-- Fastp: Read N Content -->
    <defs>
     <path d="M 9.8125 72.90625 
L 51.703125 72.90625 
L 51.703125 64.59375 
L 19.671875 64.59375 
L 19.671875 43.109375 
L 48.578125 43.109375 
L 48.578125 34.8125 
L 19.671875 34.8125 
L 19.671875 0 
L 9.8125 0 
z
" id="DejaVuSans-70"/>
     <path d="M 18.109375 8.203125 
L 18.109375 -20.796875 
L 9.078125 -20.796875 
L 9.078125 54.6875 
L 18.109375 54.6875 
L 18.109375 46.390625 
Q 20.953125 51.265625 25.265625 53.625 
Q 29.59375 56 35.59375 56 
Q 45.5625 56 51.78125 48.09375 
Q 58.015625 40.1875 58.015625 27.296875 
Q 58.015625 14.40625 51.78125 6.484375 
Q 45.5625 -1.421875 35.59375 -1.421875 
Q 29.59375 -1.421875 25.265625 0.953125 
Q 20.953125 3.328125 18.109375 8.203125 
z
M 48.6875 27.296875 
Q 48.6875 37.203125 44.609375 42.84375 
Q 40.53125 48.484375 33.40625 48.484375 
Q 26.265625 48.484375 22.1875 42.84375 
Q 18.109375 37.203125 18.109375 27.296875 
Q 18.109375 17.390625 22.1875 11.75 
Q 26.265625 6.109375 33.40625 6.109375 
Q 40.53125 6.109375 44.609375 11.75 
Q 48.6875 17.390625 48.6875 27.296875 
z
" id="DejaVuSans-112"/>
     <path d="M 9.8125 72.90625 
L 23.09375 72.90625 
L 55.421875 11.921875 
L 55.421875 72.90625 
L 64.984375 72.90625 
L 64.984375 0 
L 51.703125 0 
L 19.390625 60.984375 
L 19.390625 0 
L 9.8125 0 
z
" id="DejaVuSans-78"/>
    </defs>
    <g transform="translate(422.606875 19.3575)scale(0.16 -0.16)">
     <use xlink:href="#DejaVuSans-70"/>
     <use x="57.378906" xlink:href="#DejaVuSans-97"/>
     <use x="118.658203" xlink:href="#DejaVuSans-115"/>
     <use x="170.757812" xlink:href="#DejaVuSans-116"/>
     <use x="209.966797" xlink:href="#DejaVuSans-112"/>
     <use x="273.443359" xlink:href="#DejaVuSans-58"/>
     <use x="307.134766" xlink:href="#DejaVuSans-32"/>
     <use x="338.921875" xlink:href="#DejaVuSans-82"/>
     <use x="408.341797" xlink:href="#DejaVuSans-101"/>
     <use x="469.865234" xlink:href="#DejaVuSans-97"/>
     <use x="531.144531" xlink:href="#DejaVuSans-100"/>
     <use x="594.621094" xlink:href="#DejaVuSans-32"/>
     <use x="626.408203" xlink:href="#DejaVuSans-78"/>
     <use x="701.212891" xlink:href="#DejaVuSans-32"/>
     <use x="733" xlink:href="#DejaVuSans-67"/>
     <use x="802.824219" xlink:href="#DejaVuSans-111"/>
     <use x="864.005859" xlink:href="#DejaVuSans-110"/>
     <use x="927.384766" xlink:href="#DejaVuSans-116"/>
     <use x="966.59375" xlink:href="#DejaVuSans-101"/>
     <use x="1028.117188" xlink:href="#DejaVuSans-110"/>
     <use x="1091.496094" xlink:href="#DejaVuSans-116"/>
    </g>
   </g>
  </g>
 </g>
 <defs>
  <clipPath id="pa1728d46ce">
   <rect height="317.968" width="960.19" x="32.968125" y="35.2559"/>
  </clipPath>
 </defs>
</svg>
