<?xml version="1.0" encoding="utf-8" standalone="no"?>
<!DOCTYPE svg PUBLIC "-//W3C//DTD SVG 1.1//EN"
  "http://www.w3.org/Graphics/SVG/1.1/DTD/svg11.dtd">
<!-- Created with matplotlib (https://matplotlib.org/) -->
<svg height="388.844525pt" version="1.1" viewBox="0 0 1000.278125 388.844525" width="1000.278125pt" xmlns="http://www.w3.org/2000/svg" xmlns:xlink="http://www.w3.org/1999/xlink">
 <defs>
  <style type="text/css">
*{stroke-linecap:butt;stroke-linejoin:round;}
  </style>
 </defs>
 <g id="figure_1">
  <g id="axes_1">
   <g id="patch_1">
    <path d="M 43.148125 353.2239 
L 993.078125 353.2239 
L 993.078125 35.2559 
L 43.148125 35.2559 
z
" style="fill:#ffffff;"/>
   </g>
   <g id="matplotlib.axis_1">
    <g id="xtick_1">
     <g id="text_1">
      <!-- 0 -->
      <defs>
       <path d="M 31.78125 66.40625 
Q 24.171875 66.40625 20.328125 58.90625 
Q 16.5 51.421875 16.5 36.375 
Q 16.5 21.390625 20.328125 13.890625 
Q 24.171875 6.390625 31.78125 6.390625 
Q 39.453125 6.390625 43.28125 13.890625 
Q 47.125 21.390625 47.125 36.375 
Q 47.125 51.421875 43.28125 58.90625 
Q 39.453125 66.40625 31.78125 66.40625 
z
M 31.78125 74.21875 
Q 44.046875 74.21875 50.515625 64.515625 
Q 56.984375 54.828125 56.984375 36.375 
Q 56.984375 17.96875 50.515625 8.265625 
Q 44.046875 -1.421875 31.78125 -1.421875 
Q 19.53125 -1.421875 13.0625 8.265625 
Q 6.59375 17.96875 6.59375 36.375 
Q 6.59375 54.828125 13.0625 64.515625 
Q 19.53125 74.21875 31.78125 74.21875 
z
" id="DejaVuSans-48"/>
      </defs>
      <g transform="translate(54.996004 366.30265)scale(0.08 -0.08)">
       <use xlink:href="#DejaVuSans-48"/>
      </g>
     </g>
    </g>
    <g id="xtick_2">
     <g id="text_2">
      <!-- 5 -->
      <defs>
       <path d="M 10.796875 72.90625 
L 49.515625 72.90625 
L 49.515625 64.59375 
L 19.828125 64.59375 
L 19.828125 46.734375 
Q 21.96875 47.46875 24.109375 47.828125 
Q 26.265625 48.1875 28.421875 48.1875 
Q 40.625 48.1875 47.75 41.5 
Q 54.890625 34.8125 54.890625 23.390625 
Q 54.890625 11.625 47.5625 5.09375 
Q 40.234375 -1.421875 26.90625 -1.421875 
Q 22.3125 -1.421875 17.546875 -0.640625 
Q 12.796875 0.140625 7.71875 1.703125 
L 7.71875 11.625 
Q 12.109375 9.234375 16.796875 8.0625 
Q 21.484375 6.890625 26.703125 6.890625 
Q 35.15625 6.890625 40.078125 11.328125 
Q 45.015625 15.765625 45.015625 23.390625 
Q 45.015625 31 40.078125 35.4375 
Q 35.15625 39.890625 26.703125 39.890625 
Q 22.75 39.890625 18.8125 39.015625 
Q 14.890625 38.140625 10.796875 36.28125 
z
" id="DejaVuSans-53"/>
      </defs>
      <g transform="translate(198.924792 366.30265)scale(0.08 -0.08)">
       <use xlink:href="#DejaVuSans-53"/>
      </g>
     </g>
    </g>
    <g id="xtick_3">
     <g id="text_3">
      <!-- 10 -->
      <defs>
       <path d="M 12.40625 8.296875 
L 28.515625 8.296875 
L 28.515625 63.921875 
L 10.984375 60.40625 
L 10.984375 69.390625 
L 28.421875 72.90625 
L 38.28125 72.90625 
L 38.28125 8.296875 
L 54.390625 8.296875 
L 54.390625 0 
L 12.40625 0 
z
" id="DejaVuSans-49"/>
      </defs>
      <g transform="translate(340.30858 366.30265)scale(0.08 -0.08)">
       <use xlink:href="#DejaVuSans-49"/>
       <use x="63.623047" xlink:href="#DejaVuSans-48"/>
      </g>
     </g>
    </g>
    <g id="xtick_4">
     <g id="text_4">
      <!-- 15 -->
      <g transform="translate(484.237367 366.30265)scale(0.08 -0.08)">
       <use xlink:href="#DejaVuSans-49"/>
       <use x="63.623047" xlink:href="#DejaVuSans-53"/>
      </g>
     </g>
    </g>
    <g id="xtick_5">
     <g id="text_5">
      <!-- 20 -->
      <defs>
       <path d="M 19.1875 8.296875 
L 53.609375 8.296875 
L 53.609375 0 
L 7.328125 0 
L 7.328125 8.296875 
Q 12.9375 14.109375 22.625 23.890625 
Q 32.328125 33.6875 34.8125 36.53125 
Q 39.546875 41.84375 41.421875 45.53125 
Q 43.3125 49.21875 43.3125 52.78125 
Q 43.3125 58.59375 39.234375 62.25 
Q 35.15625 65.921875 28.609375 65.921875 
Q 23.96875 65.921875 18.8125 64.3125 
Q 13.671875 62.703125 7.8125 59.421875 
L 7.8125 69.390625 
Q 13.765625 71.78125 18.9375 73 
Q 24.125 74.21875 28.421875 74.21875 
Q 39.75 74.21875 46.484375 68.546875 
Q 53.21875 62.890625 53.21875 53.421875 
Q 53.21875 48.921875 51.53125 44.890625 
Q 49.859375 40.875 45.40625 35.40625 
Q 44.1875 33.984375 37.640625 27.21875 
Q 31.109375 20.453125 19.1875 8.296875 
z
" id="DejaVuSans-50"/>
      </defs>
      <g transform="translate(628.166155 366.30265)scale(0.08 -0.08)">
       <use xlink:href="#DejaVuSans-50"/>
       <use x="63.623047" xlink:href="#DejaVuSans-48"/>
      </g>
     </g>
    </g>
    <g id="xtick_6">
     <g id="text_6">
      <!-- 25 -->
      <g transform="translate(772.094943 366.30265)scale(0.08 -0.08)">
       <use xlink:href="#DejaVuSans-50"/>
       <use x="63.623047" xlink:href="#DejaVuSans-53"/>
      </g>
     </g>
    </g>
    <g id="xtick_7">
     <g id="text_7">
      <!-- 30 -->
      <defs>
       <path d="M 40.578125 39.3125 
Q 47.65625 37.796875 51.625 33 
Q 55.609375 28.21875 55.609375 21.1875 
Q 55.609375 10.40625 48.1875 4.484375 
Q 40.765625 -1.421875 27.09375 -1.421875 
Q 22.515625 -1.421875 17.65625 -0.515625 
Q 12.796875 0.390625 7.625 2.203125 
L 7.625 11.71875 
Q 11.71875 9.328125 16.59375 8.109375 
Q 21.484375 6.890625 26.8125 6.890625 
Q 36.078125 6.890625 40.9375 10.546875 
Q 45.796875 14.203125 45.796875 21.1875 
Q 45.796875 27.640625 41.28125 31.265625 
Q 36.765625 34.90625 28.71875 34.90625 
L 20.21875 34.90625 
L 20.21875 43.015625 
L 29.109375 43.015625 
Q 36.375 43.015625 40.234375 45.921875 
Q 44.09375 48.828125 44.09375 54.296875 
Q 44.09375 59.90625 40.109375 62.90625 
Q 36.140625 65.921875 28.71875 65.921875 
Q 24.65625 65.921875 20.015625 65.03125 
Q 15.375 64.15625 9.8125 62.3125 
L 9.8125 71.09375 
Q 15.4375 72.65625 20.34375 73.4375 
Q 25.25 74.21875 29.59375 74.21875 
Q 40.828125 74.21875 47.359375 69.109375 
Q 53.90625 64.015625 53.90625 55.328125 
Q 53.90625 49.265625 50.4375 45.09375 
Q 46.96875 40.921875 40.578125 39.3125 
z
" id="DejaVuSans-51"/>
      </defs>
      <g transform="translate(916.023731 366.30265)scale(0.08 -0.08)">
       <use xlink:href="#DejaVuSans-51"/>
       <use x="63.623047" xlink:href="#DejaVuSans-48"/>
      </g>
     </g>
    </g>
    <g id="text_8">
     <!-- Duplication level -->
     <defs>
      <path d="M 19.671875 64.796875 
L 19.671875 8.109375 
L 31.59375 8.109375 
Q 46.6875 8.109375 53.6875 14.9375 
Q 60.6875 21.78125 60.6875 36.53125 
Q 60.6875 51.171875 53.6875 57.984375 
Q 46.6875 64.796875 31.59375 64.796875 
z
M 9.8125 72.90625 
L 30.078125 72.90625 
Q 51.265625 72.90625 61.171875 64.09375 
Q 71.09375 55.28125 71.09375 36.53125 
Q 71.09375 17.671875 61.125 8.828125 
Q 51.171875 0 30.078125 0 
L 9.8125 0 
z
" id="DejaVuSans-68"/>
      <path d="M 8.5 21.578125 
L 8.5 54.6875 
L 17.484375 54.6875 
L 17.484375 21.921875 
Q 17.484375 14.15625 20.5 10.265625 
Q 23.53125 6.390625 29.59375 6.390625 
Q 36.859375 6.390625 41.078125 11.03125 
Q 45.3125 15.671875 45.3125 23.6875 
L 45.3125 54.6875 
L 54.296875 54.6875 
L 54.296875 0 
L 45.3125 0 
L 45.3125 8.40625 
Q 42.046875 3.421875 37.71875 1 
Q 33.40625 -1.421875 27.6875 -1.421875 
Q 18.265625 -1.421875 13.375 4.4375 
Q 8.5 10.296875 8.5 21.578125 
z
M 31.109375 56 
z
" id="DejaVuSans-117"/>
      <path d="M 18.109375 8.203125 
L 18.109375 -20.796875 
L 9.078125 -20.796875 
L 9.078125 54.6875 
L 18.109375 54.6875 
L 18.109375 46.390625 
Q 20.953125 51.265625 25.265625 53.625 
Q 29.59375 56 35.59375 56 
Q 45.5625 56 51.78125 48.09375 
Q 58.015625 40.1875 58.015625 27.296875 
Q 58.015625 14.40625 51.78125 6.484375 
Q 45.5625 -1.421875 35.59375 -1.421875 
Q 29.59375 -1.421875 25.265625 0.953125 
Q 20.953125 3.328125 18.109375 8.203125 
z
M 48.6875 27.296875 
Q 48.6875 37.203125 44.609375 42.84375 
Q 40.53125 48.484375 33.40625 48.484375 
Q 26.265625 48.484375 22.1875 42.84375 
Q 18.109375 37.203125 18.109375 27.296875 
Q 18.109375 17.390625 22.1875 11.75 
Q 26.265625 6.109375 33.40625 6.109375 
Q 40.53125 6.109375 44.609375 11.75 
Q 48.6875 17.390625 48.6875 27.296875 
z
" id="DejaVuSans-112"/>
      <path d="M 9.421875 75.984375 
L 18.40625 75.984375 
L 18.40625 0 
L 9.421875 0 
z
" id="DejaVuSans-108"/>
      <path d="M 9.421875 54.6875 
L 18.40625 54.6875 
L 18.40625 0 
L 9.421875 0 
z
M 9.421875 75.984375 
L 18.40625 75.984375 
L 18.40625 64.59375 
L 9.421875 64.59375 
z
" id="DejaVuSans-105"/>
      <path d="M 48.78125 52.59375 
L 48.78125 44.1875 
Q 44.96875 46.296875 41.140625 47.34375 
Q 37.3125 48.390625 33.40625 48.390625 
Q 24.65625 48.390625 19.8125 42.84375 
Q 14.984375 37.3125 14.984375 27.296875 
Q 14.984375 17.28125 19.8125 11.734375 
Q 24.65625 6.203125 33.40625 6.203125 
Q 37.3125 6.203125 41.140625 7.25 
Q 44.96875 8.296875 48.78125 10.40625 
L 48.78125 2.09375 
Q 45.015625 0.34375 40.984375 -0.53125 
Q 36.96875 -1.421875 32.421875 -1.421875 
Q 20.0625 -1.421875 12.78125 6.34375 
Q 5.515625 14.109375 5.515625 27.296875 
Q 5.515625 40.671875 12.859375 48.328125 
Q 20.21875 56 33.015625 56 
Q 37.15625 56 41.109375 55.140625 
Q 45.0625 54.296875 48.78125 52.59375 
z
" id="DejaVuSans-99"/>
      <path d="M 34.28125 27.484375 
Q 23.390625 27.484375 19.1875 25 
Q 14.984375 22.515625 14.984375 16.5 
Q 14.984375 11.71875 18.140625 8.90625 
Q 21.296875 6.109375 26.703125 6.109375 
Q 34.1875 6.109375 38.703125 11.40625 
Q 43.21875 16.703125 43.21875 25.484375 
L 43.21875 27.484375 
z
M 52.203125 31.203125 
L 52.203125 0 
L 43.21875 0 
L 43.21875 8.296875 
Q 40.140625 3.328125 35.546875 0.953125 
Q 30.953125 -1.421875 24.3125 -1.421875 
Q 15.921875 -1.421875 10.953125 3.296875 
Q 6 8.015625 6 15.921875 
Q 6 25.140625 12.171875 29.828125 
Q 18.359375 34.515625 30.609375 34.515625 
L 43.21875 34.515625 
L 43.21875 35.40625 
Q 43.21875 41.609375 39.140625 45 
Q 35.0625 48.390625 27.6875 48.390625 
Q 23 48.390625 18.546875 47.265625 
Q 14.109375 46.140625 10.015625 43.890625 
L 10.015625 52.203125 
Q 14.9375 54.109375 19.578125 55.046875 
Q 24.21875 56 28.609375 56 
Q 40.484375 56 46.34375 49.84375 
Q 52.203125 43.703125 52.203125 31.203125 
z
" id="DejaVuSans-97"/>
      <path d="M 18.3125 70.21875 
L 18.3125 54.6875 
L 36.8125 54.6875 
L 36.8125 47.703125 
L 18.3125 47.703125 
L 18.3125 18.015625 
Q 18.3125 11.328125 20.140625 9.421875 
Q 21.96875 7.515625 27.59375 7.515625 
L 36.8125 7.515625 
L 36.8125 0 
L 27.59375 0 
Q 17.1875 0 13.234375 3.875 
Q 9.28125 7.765625 9.28125 18.015625 
L 9.28125 47.703125 
L 2.6875 47.703125 
L 2.6875 54.6875 
L 9.28125 54.6875 
L 9.28125 70.21875 
z
" id="DejaVuSans-116"/>
      <path d="M 30.609375 48.390625 
Q 23.390625 48.390625 19.1875 42.75 
Q 14.984375 37.109375 14.984375 27.296875 
Q 14.984375 17.484375 19.15625 11.84375 
Q 23.34375 6.203125 30.609375 6.203125 
Q 37.796875 6.203125 41.984375 11.859375 
Q 46.1875 17.53125 46.1875 27.296875 
Q 46.1875 37.015625 41.984375 42.703125 
Q 37.796875 48.390625 30.609375 48.390625 
z
M 30.609375 56 
Q 42.328125 56 49.015625 48.375 
Q 55.71875 40.765625 55.71875 27.296875 
Q 55.71875 13.875 49.015625 6.21875 
Q 42.328125 -1.421875 30.609375 -1.421875 
Q 18.84375 -1.421875 12.171875 6.21875 
Q 5.515625 13.875 5.515625 27.296875 
Q 5.515625 40.765625 12.171875 48.375 
Q 18.84375 56 30.609375 56 
z
" id="DejaVuSans-111"/>
      <path d="M 54.890625 33.015625 
L 54.890625 0 
L 45.90625 0 
L 45.90625 32.71875 
Q 45.90625 40.484375 42.875 44.328125 
Q 39.84375 48.1875 33.796875 48.1875 
Q 26.515625 48.1875 22.3125 43.546875 
Q 18.109375 38.921875 18.109375 30.90625 
L 18.109375 0 
L 9.078125 0 
L 9.078125 54.6875 
L 18.109375 54.6875 
L 18.109375 46.1875 
Q 21.34375 51.125 25.703125 53.5625 
Q 30.078125 56 35.796875 56 
Q 45.21875 56 50.046875 50.171875 
Q 54.890625 44.34375 54.890625 33.015625 
z
" id="DejaVuSans-110"/>
      <path id="DejaVuSans-32"/>
      <path d="M 56.203125 29.59375 
L 56.203125 25.203125 
L 14.890625 25.203125 
Q 15.484375 15.921875 20.484375 11.0625 
Q 25.484375 6.203125 34.421875 6.203125 
Q 39.59375 6.203125 44.453125 7.46875 
Q 49.3125 8.734375 54.109375 11.28125 
L 54.109375 2.78125 
Q 49.265625 0.734375 44.1875 -0.34375 
Q 39.109375 -1.421875 33.890625 -1.421875 
Q 20.796875 -1.421875 13.15625 6.1875 
Q 5.515625 13.8125 5.515625 26.8125 
Q 5.515625 40.234375 12.765625 48.109375 
Q 20.015625 56 32.328125 56 
Q 43.359375 56 49.78125 48.890625 
Q 56.203125 41.796875 56.203125 29.59375 
z
M 47.21875 32.234375 
Q 47.125 39.59375 43.09375 43.984375 
Q 39.0625 48.390625 32.421875 48.390625 
Q 24.90625 48.390625 20.390625 44.140625 
Q 15.875 39.890625 15.1875 32.171875 
z
" id="DejaVuSans-101"/>
      <path d="M 2.984375 54.6875 
L 12.5 54.6875 
L 29.59375 8.796875 
L 46.6875 54.6875 
L 56.203125 54.6875 
L 35.6875 0 
L 23.484375 0 
z
" id="DejaVuSans-118"/>
     </defs>
     <g transform="translate(476.271719 379.564837)scale(0.1 -0.1)">
      <use xlink:href="#DejaVuSans-68"/>
      <use x="77.001953" xlink:href="#DejaVuSans-117"/>
      <use x="140.380859" xlink:href="#DejaVuSans-112"/>
      <use x="203.857422" xlink:href="#DejaVuSans-108"/>
      <use x="231.640625" xlink:href="#DejaVuSans-105"/>
      <use x="259.423828" xlink:href="#DejaVuSans-99"/>
      <use x="314.404297" xlink:href="#DejaVuSans-97"/>
      <use x="375.683594" xlink:href="#DejaVuSans-116"/>
      <use x="414.892578" xlink:href="#DejaVuSans-105"/>
      <use x="442.675781" xlink:href="#DejaVuSans-111"/>
      <use x="503.857422" xlink:href="#DejaVuSans-110"/>
      <use x="567.236328" xlink:href="#DejaVuSans-32"/>
      <use x="599.023438" xlink:href="#DejaVuSans-108"/>
      <use x="626.806641" xlink:href="#DejaVuSans-101"/>
      <use x="688.330078" xlink:href="#DejaVuSans-118"/>
      <use x="747.509766" xlink:href="#DejaVuSans-101"/>
      <use x="809.033203" xlink:href="#DejaVuSans-108"/>
     </g>
    </g>
   </g>
   <g id="matplotlib.axis_2">
    <g id="ytick_1">
     <g id="line2d_1">
      <path clip-path="url(#p14acbe88c1)" d="M 43.148125 353.2239 
L 993.078125 353.2239 
" style="fill:none;stroke:#dedede;stroke-linecap:square;"/>
     </g>
     <g id="text_9">
      <!-- 0 -->
      <g transform="translate(31.058125 356.263275)scale(0.08 -0.08)">
       <use xlink:href="#DejaVuSans-48"/>
      </g>
     </g>
    </g>
    <g id="ytick_2">
     <g id="line2d_2">
      <path clip-path="url(#p14acbe88c1)" d="M 43.148125 289.6303 
L 993.078125 289.6303 
" style="fill:none;stroke:#dedede;stroke-linecap:square;"/>
     </g>
     <g id="text_10">
      <!-- 20 -->
      <g transform="translate(25.968125 292.669675)scale(0.08 -0.08)">
       <use xlink:href="#DejaVuSans-50"/>
       <use x="63.623047" xlink:href="#DejaVuSans-48"/>
      </g>
     </g>
    </g>
    <g id="ytick_3">
     <g id="line2d_3">
      <path clip-path="url(#p14acbe88c1)" d="M 43.148125 226.0367 
L 993.078125 226.0367 
" style="fill:none;stroke:#dedede;stroke-linecap:square;"/>
     </g>
     <g id="text_11">
      <!-- 40 -->
      <defs>
       <path d="M 37.796875 64.3125 
L 12.890625 25.390625 
L 37.796875 25.390625 
z
M 35.203125 72.90625 
L 47.609375 72.90625 
L 47.609375 25.390625 
L 58.015625 25.390625 
L 58.015625 17.1875 
L 47.609375 17.1875 
L 47.609375 0 
L 37.796875 0 
L 37.796875 17.1875 
L 4.890625 17.1875 
L 4.890625 26.703125 
z
" id="DejaVuSans-52"/>
      </defs>
      <g transform="translate(25.968125 229.076075)scale(0.08 -0.08)">
       <use xlink:href="#DejaVuSans-52"/>
       <use x="63.623047" xlink:href="#DejaVuSans-48"/>
      </g>
     </g>
    </g>
    <g id="ytick_4">
     <g id="line2d_4">
      <path clip-path="url(#p14acbe88c1)" d="M 43.148125 162.4431 
L 993.078125 162.4431 
" style="fill:none;stroke:#dedede;stroke-linecap:square;"/>
     </g>
     <g id="text_12">
      <!-- 60 -->
      <defs>
       <path d="M 33.015625 40.375 
Q 26.375 40.375 22.484375 35.828125 
Q 18.609375 31.296875 18.609375 23.390625 
Q 18.609375 15.53125 22.484375 10.953125 
Q 26.375 6.390625 33.015625 6.390625 
Q 39.65625 6.390625 43.53125 10.953125 
Q 47.40625 15.53125 47.40625 23.390625 
Q 47.40625 31.296875 43.53125 35.828125 
Q 39.65625 40.375 33.015625 40.375 
z
M 52.59375 71.296875 
L 52.59375 62.3125 
Q 48.875 64.0625 45.09375 64.984375 
Q 41.3125 65.921875 37.59375 65.921875 
Q 27.828125 65.921875 22.671875 59.328125 
Q 17.53125 52.734375 16.796875 39.40625 
Q 19.671875 43.65625 24.015625 45.921875 
Q 28.375 48.1875 33.59375 48.1875 
Q 44.578125 48.1875 50.953125 41.515625 
Q 57.328125 34.859375 57.328125 23.390625 
Q 57.328125 12.15625 50.6875 5.359375 
Q 44.046875 -1.421875 33.015625 -1.421875 
Q 20.359375 -1.421875 13.671875 8.265625 
Q 6.984375 17.96875 6.984375 36.375 
Q 6.984375 53.65625 15.1875 63.9375 
Q 23.390625 74.21875 37.203125 74.21875 
Q 40.921875 74.21875 44.703125 73.484375 
Q 48.484375 72.75 52.59375 71.296875 
z
" id="DejaVuSans-54"/>
      </defs>
      <g transform="translate(25.968125 165.482475)scale(0.08 -0.08)">
       <use xlink:href="#DejaVuSans-54"/>
       <use x="63.623047" xlink:href="#DejaVuSans-48"/>
      </g>
     </g>
    </g>
    <g id="ytick_5">
     <g id="line2d_5">
      <path clip-path="url(#p14acbe88c1)" d="M 43.148125 98.8495 
L 993.078125 98.8495 
" style="fill:none;stroke:#dedede;stroke-linecap:square;"/>
     </g>
     <g id="text_13">
      <!-- 80 -->
      <defs>
       <path d="M 31.78125 34.625 
Q 24.75 34.625 20.71875 30.859375 
Q 16.703125 27.09375 16.703125 20.515625 
Q 16.703125 13.921875 20.71875 10.15625 
Q 24.75 6.390625 31.78125 6.390625 
Q 38.8125 6.390625 42.859375 10.171875 
Q 46.921875 13.96875 46.921875 20.515625 
Q 46.921875 27.09375 42.890625 30.859375 
Q 38.875 34.625 31.78125 34.625 
z
M 21.921875 38.8125 
Q 15.578125 40.375 12.03125 44.71875 
Q 8.5 49.078125 8.5 55.328125 
Q 8.5 64.0625 14.71875 69.140625 
Q 20.953125 74.21875 31.78125 74.21875 
Q 42.671875 74.21875 48.875 69.140625 
Q 55.078125 64.0625 55.078125 55.328125 
Q 55.078125 49.078125 51.53125 44.71875 
Q 48 40.375 41.703125 38.8125 
Q 48.828125 37.15625 52.796875 32.3125 
Q 56.78125 27.484375 56.78125 20.515625 
Q 56.78125 9.90625 50.3125 4.234375 
Q 43.84375 -1.421875 31.78125 -1.421875 
Q 19.734375 -1.421875 13.25 4.234375 
Q 6.78125 9.90625 6.78125 20.515625 
Q 6.78125 27.484375 10.78125 32.3125 
Q 14.796875 37.15625 21.921875 38.8125 
z
M 18.3125 54.390625 
Q 18.3125 48.734375 21.84375 45.5625 
Q 25.390625 42.390625 31.78125 42.390625 
Q 38.140625 42.390625 41.71875 45.5625 
Q 45.3125 48.734375 45.3125 54.390625 
Q 45.3125 60.0625 41.71875 63.234375 
Q 38.140625 66.40625 31.78125 66.40625 
Q 25.390625 66.40625 21.84375 63.234375 
Q 18.3125 60.0625 18.3125 54.390625 
z
" id="DejaVuSans-56"/>
      </defs>
      <g transform="translate(25.968125 101.888875)scale(0.08 -0.08)">
       <use xlink:href="#DejaVuSans-56"/>
       <use x="63.623047" xlink:href="#DejaVuSans-48"/>
      </g>
     </g>
    </g>
    <g id="ytick_6">
     <g id="line2d_6">
      <path clip-path="url(#p14acbe88c1)" d="M 43.148125 35.2559 
L 993.078125 35.2559 
" style="fill:none;stroke:#dedede;stroke-linecap:square;"/>
     </g>
     <g id="text_14">
      <!-- 100 -->
      <g transform="translate(20.878125 38.295275)scale(0.08 -0.08)">
       <use xlink:href="#DejaVuSans-49"/>
       <use x="63.623047" xlink:href="#DejaVuSans-48"/>
       <use x="127.246094" xlink:href="#DejaVuSans-48"/>
      </g>
     </g>
    </g>
    <g id="text_15">
     <!-- Read percent -->
     <defs>
      <path d="M 44.390625 34.1875 
Q 47.5625 33.109375 50.5625 29.59375 
Q 53.5625 26.078125 56.59375 19.921875 
L 66.609375 0 
L 56 0 
L 46.6875 18.703125 
Q 43.0625 26.03125 39.671875 28.421875 
Q 36.28125 30.8125 30.421875 30.8125 
L 19.671875 30.8125 
L 19.671875 0 
L 9.8125 0 
L 9.8125 72.90625 
L 32.078125 72.90625 
Q 44.578125 72.90625 50.734375 67.671875 
Q 56.890625 62.453125 56.890625 51.90625 
Q 56.890625 45.015625 53.6875 40.46875 
Q 50.484375 35.9375 44.390625 34.1875 
z
M 19.671875 64.796875 
L 19.671875 38.921875 
L 32.078125 38.921875 
Q 39.203125 38.921875 42.84375 42.21875 
Q 46.484375 45.515625 46.484375 51.90625 
Q 46.484375 58.296875 42.84375 61.546875 
Q 39.203125 64.796875 32.078125 64.796875 
z
" id="DejaVuSans-82"/>
      <path d="M 45.40625 46.390625 
L 45.40625 75.984375 
L 54.390625 75.984375 
L 54.390625 0 
L 45.40625 0 
L 45.40625 8.203125 
Q 42.578125 3.328125 38.25 0.953125 
Q 33.9375 -1.421875 27.875 -1.421875 
Q 17.96875 -1.421875 11.734375 6.484375 
Q 5.515625 14.40625 5.515625 27.296875 
Q 5.515625 40.1875 11.734375 48.09375 
Q 17.96875 56 27.875 56 
Q 33.9375 56 38.25 53.625 
Q 42.578125 51.265625 45.40625 46.390625 
z
M 14.796875 27.296875 
Q 14.796875 17.390625 18.875 11.75 
Q 22.953125 6.109375 30.078125 6.109375 
Q 37.203125 6.109375 41.296875 11.75 
Q 45.40625 17.390625 45.40625 27.296875 
Q 45.40625 37.203125 41.296875 42.84375 
Q 37.203125 48.484375 30.078125 48.484375 
Q 22.953125 48.484375 18.875 42.84375 
Q 14.796875 37.203125 14.796875 27.296875 
z
" id="DejaVuSans-100"/>
      <path d="M 41.109375 46.296875 
Q 39.59375 47.171875 37.8125 47.578125 
Q 36.03125 48 33.890625 48 
Q 26.265625 48 22.1875 43.046875 
Q 18.109375 38.09375 18.109375 28.8125 
L 18.109375 0 
L 9.078125 0 
L 9.078125 54.6875 
L 18.109375 54.6875 
L 18.109375 46.1875 
Q 20.953125 51.171875 25.484375 53.578125 
Q 30.03125 56 36.53125 56 
Q 37.453125 56 38.578125 55.875 
Q 39.703125 55.765625 41.0625 55.515625 
z
" id="DejaVuSans-114"/>
     </defs>
     <g transform="translate(14.798437 227.874275)rotate(-90)scale(0.1 -0.1)">
      <use xlink:href="#DejaVuSans-82"/>
      <use x="69.419922" xlink:href="#DejaVuSans-101"/>
      <use x="130.943359" xlink:href="#DejaVuSans-97"/>
      <use x="192.222656" xlink:href="#DejaVuSans-100"/>
      <use x="255.699219" xlink:href="#DejaVuSans-32"/>
      <use x="287.486328" xlink:href="#DejaVuSans-112"/>
      <use x="350.962891" xlink:href="#DejaVuSans-101"/>
      <use x="412.486328" xlink:href="#DejaVuSans-114"/>
      <use x="453.568359" xlink:href="#DejaVuSans-99"/>
      <use x="508.548828" xlink:href="#DejaVuSans-101"/>
      <use x="570.072266" xlink:href="#DejaVuSans-110"/>
      <use x="633.451172" xlink:href="#DejaVuSans-116"/>
     </g>
    </g>
   </g>
   <g id="line2d_7">
    <path clip-path="url(#p14acbe88c1)" d="M 86.326761 66.658377 
L 115.112519 325.593783 
L 143.898277 349.97569 
L 172.684034 352.788506 
L 201.469792 353.152705 
L 230.255549 353.209978 
L 259.041307 353.221527 
L 287.827064 353.222793 
L 316.612822 353.2239 
L 345.39858 353.223742 
L 374.184337 353.2239 
L 402.970095 353.2239 
L 431.755852 353.2239 
L 460.54161 353.2239 
L 489.327367 353.2239 
L 518.113125 353.2239 
L 546.898883 353.2239 
L 575.68464 353.2239 
L 604.470398 353.2239 
L 633.256155 353.2239 
L 662.041913 353.2239 
L 690.82767 353.2239 
L 719.613428 353.2239 
L 748.399186 353.2239 
L 777.184943 353.2239 
L 805.970701 353.2239 
L 834.756458 353.2239 
L 863.542216 353.2239 
L 892.327973 353.2239 
L 921.113731 353.2239 
L 949.899489 353.2239 
" style="fill:none;stroke:#7cb5ec;stroke-linecap:square;"/>
   </g>
   <g id="line2d_8">
    <path clip-path="url(#p14acbe88c1)" d="M 86.326761 52.334185 
L 115.112519 337.475309 
L 143.898277 352.03064 
L 172.684034 353.105326 
L 201.469792 353.209666 
L 230.255549 353.221214 
L 259.041307 353.223229 
L 287.827064 353.2239 
L 316.612822 353.223631 
L 345.39858 353.2239 
L 374.184337 353.2239 
L 402.970095 353.2239 
L 431.755852 353.2239 
L 460.54161 353.2239 
L 489.327367 353.2239 
L 518.113125 353.2239 
L 546.898883 353.2239 
L 575.68464 353.2239 
L 604.470398 353.2239 
L 633.256155 353.2239 
L 662.041913 353.2239 
L 690.82767 353.2239 
L 719.613428 353.2239 
L 748.399186 353.2239 
L 777.184943 353.2239 
L 805.970701 353.2239 
L 834.756458 353.2239 
L 863.542216 353.2239 
L 892.327973 353.2239 
L 921.113731 353.2239 
L 949.899489 353.2239 
" style="fill:none;stroke:#434348;stroke-linecap:square;"/>
   </g>
   <g id="line2d_9">
    <path clip-path="url(#p14acbe88c1)" d="M 86.326761 59.743218 
L 115.112519 331.30698 
L 143.898277 350.971942 
L 172.684034 352.95458 
L 201.469792 353.184226 
L 230.255549 353.216133 
L 259.041307 353.22285 
L 287.827064 353.22348 
L 316.612822 353.2239 
L 345.39858 353.22369 
L 374.184337 353.2239 
L 402.970095 353.2239 
L 431.755852 353.2239 
L 460.54161 353.2239 
L 489.327367 353.2239 
L 518.113125 353.2239 
L 546.898883 353.2239 
L 575.68464 353.2239 
L 604.470398 353.2239 
L 633.256155 353.2239 
L 662.041913 353.2239 
L 690.82767 353.2239 
L 719.613428 353.2239 
L 748.399186 353.2239 
L 777.184943 353.2239 
L 805.970701 353.2239 
L 834.756458 353.2239 
L 863.542216 353.2239 
L 892.327973 353.2239 
L 921.113731 353.2239 
L 949.899489 353.2239 
" style="fill:none;stroke:#90ed7d;stroke-linecap:square;"/>
   </g>
   <g id="line2d_10">
    <path clip-path="url(#p14acbe88c1)" d="M 86.326761 56.644551 
L 115.112519 333.799429 
L 143.898277 351.490589 
L 172.684034 353.030602 
L 201.469792 353.192967 
L 230.255549 353.219121 
L 259.041307 353.222705 
L 287.827064 353.223502 
L 316.612822 353.2239 
L 345.39858 353.223634 
L 374.184337 353.2239 
L 402.970095 353.2239 
L 431.755852 353.2239 
L 460.54161 353.2239 
L 489.327367 353.2239 
L 518.113125 353.2239 
L 546.898883 353.2239 
L 575.68464 353.2239 
L 604.470398 353.2239 
L 633.256155 353.2239 
L 662.041913 353.2239 
L 690.82767 353.2239 
L 719.613428 353.2239 
L 748.399186 353.2239 
L 777.184943 353.2239 
L 805.970701 353.2239 
L 834.756458 353.2239 
L 863.542216 353.2239 
L 892.327973 353.2239 
L 921.113731 353.2239 
L 949.899489 353.2239 
" style="fill:none;stroke:#f7a35c;stroke-linecap:square;"/>
   </g>
   <g id="line2d_11">
    <path clip-path="url(#p14acbe88c1)" d="M 86.326761 58.010276 
L 115.112519 332.842084 
L 143.898277 351.159768 
L 172.684034 352.965387 
L 201.469792 353.185409 
L 230.255549 353.215705 
L 259.041307 353.221417 
L 287.827064 353.223403 
L 316.612822 353.2239 
L 345.39858 353.2239 
L 374.184337 353.2239 
L 402.970095 353.2239 
L 431.755852 353.223652 
L 460.54161 353.2239 
L 489.327367 353.2239 
L 518.113125 353.2239 
L 546.898883 353.2239 
L 575.68464 353.2239 
L 604.470398 353.2239 
L 633.256155 353.2239 
L 662.041913 353.2239 
L 690.82767 353.2239 
L 719.613428 353.2239 
L 748.399186 353.2239 
L 777.184943 353.2239 
L 805.970701 353.2239 
L 834.756458 353.2239 
L 863.542216 353.2239 
L 892.327973 353.2239 
L 921.113731 353.2239 
L 949.899489 353.2239 
" style="fill:none;stroke:#8085e9;stroke-linecap:square;"/>
   </g>
   <g id="line2d_12">
    <path clip-path="url(#p14acbe88c1)" d="M 86.326761 70.817047 
L 115.112519 322.94032 
L 143.898277 348.825026 
L 172.684034 352.532252 
L 201.469792 353.084292 
L 230.255549 353.191456 
L 259.041307 353.213823 
L 287.827064 353.221442 
L 316.612822 353.222671 
L 345.39858 353.222671 
L 374.184337 353.2239 
L 402.970095 353.2239 
L 431.755852 353.2239 
L 460.54161 353.2239 
L 489.327367 353.2239 
L 518.113125 353.2239 
L 546.898883 353.2239 
L 575.68464 353.2239 
L 604.470398 353.2239 
L 633.256155 353.2239 
L 662.041913 353.2239 
L 690.82767 353.2239 
L 719.613428 353.2239 
L 748.399186 353.2239 
L 777.184943 353.2239 
L 805.970701 353.2239 
L 834.756458 353.2239 
L 863.542216 353.2239 
L 892.327973 353.2239 
L 921.113731 353.2239 
L 949.899489 353.2239 
" style="fill:none;stroke:#f15c80;stroke-linecap:square;"/>
   </g>
   <g id="line2d_13">
    <path clip-path="url(#p14acbe88c1)" d="M 86.326761 58.821313 
L 115.112519 332.023482 
L 143.898277 351.142631 
L 172.684034 352.988266 
L 201.469792 353.187457 
L 230.255549 353.215247 
L 259.041307 353.221903 
L 287.827064 353.223068 
L 316.612822 353.2239 
L 345.39858 353.2239 
L 374.184337 353.2239 
L 402.970095 353.2239 
L 431.755852 353.2239 
L 460.54161 353.2239 
L 489.327367 353.2239 
L 518.113125 353.2239 
L 546.898883 353.2239 
L 575.68464 353.2239 
L 604.470398 353.2239 
L 633.256155 353.2239 
L 662.041913 353.223734 
L 690.82767 353.2239 
L 719.613428 353.2239 
L 748.399186 353.2239 
L 777.184943 353.2239 
L 805.970701 353.2239 
L 834.756458 353.2239 
L 863.542216 353.2239 
L 892.327973 353.2239 
L 921.113731 353.2239 
L 949.899489 353.2239 
" style="fill:none;stroke:#e4d354;stroke-linecap:square;"/>
   </g>
   <g id="line2d_14">
    <path clip-path="url(#p14acbe88c1)" d="M 86.326761 62.887596 
L 115.112519 328.707771 
L 143.898277 350.537356 
L 172.684034 352.870006 
L 201.469792 353.167695 
L 230.255549 353.210343 
L 259.041307 353.220228 
L 287.827064 353.222911 
L 316.612822 353.223476 
L 345.39858 353.223759 
L 374.184337 353.2239 
L 402.970095 353.2239 
L 431.755852 353.2239 
L 460.54161 353.2239 
L 489.327367 353.223759 
L 518.113125 353.2239 
L 546.898883 353.2239 
L 575.68464 353.2239 
L 604.470398 353.2239 
L 633.256155 353.2239 
L 662.041913 353.2239 
L 690.82767 353.2239 
L 719.613428 353.2239 
L 748.399186 353.2239 
L 777.184943 353.2239 
L 805.970701 353.2239 
L 834.756458 353.2239 
L 863.542216 353.2239 
L 892.327973 353.2239 
L 921.113731 353.2239 
L 949.899489 353.2239 
" style="fill:none;stroke:#2b908f;stroke-linecap:square;"/>
   </g>
   <g id="line2d_15">
    <path clip-path="url(#p14acbe88c1)" d="M 86.326761 58.228696 
L 115.112519 332.705953 
L 143.898277 351.103948 
L 172.684034 352.949077 
L 201.469792 353.176599 
L 230.255549 353.214719 
L 259.041307 353.221705 
L 287.827064 353.223102 
L 316.612822 353.223501 
L 345.39858 353.2237 
L 374.184337 353.2239 
L 402.970095 353.2239 
L 431.755852 353.2239 
L 460.54161 353.2239 
L 489.327367 353.2239 
L 518.113125 353.2239 
L 546.898883 353.2239 
L 575.68464 353.2239 
L 604.470398 353.2239 
L 633.256155 353.2239 
L 662.041913 353.2239 
L 690.82767 353.2239 
L 719.613428 353.2239 
L 748.399186 353.2239 
L 777.184943 353.2239 
L 805.970701 353.2239 
L 834.756458 353.2239 
L 863.542216 353.2239 
L 892.327973 353.2239 
L 921.113731 353.2239 
L 949.899489 353.2239 
" style="fill:none;stroke:#f45b5b;stroke-linecap:square;"/>
   </g>
   <g id="line2d_16">
    <path clip-path="url(#p14acbe88c1)" d="M 86.326761 60.343722 
L 115.112519 331.034572 
L 143.898277 350.73645 
L 172.684034 352.884212 
L 201.469792 353.170011 
L 230.255549 353.210149 
L 259.041307 353.222413 
L 287.827064 353.222785 
L 316.612822 353.223157 
L 345.39858 353.223528 
L 374.184337 353.2239 
L 402.970095 353.2239 
L 431.755852 353.2239 
L 460.54161 353.2239 
L 489.327367 353.2239 
L 518.113125 353.2239 
L 546.898883 353.2239 
L 575.68464 353.2239 
L 604.470398 353.2239 
L 633.256155 353.2239 
L 662.041913 353.2239 
L 690.82767 353.2239 
L 719.613428 353.2239 
L 748.399186 353.2239 
L 777.184943 353.2239 
L 805.970701 353.2239 
L 834.756458 353.2239 
L 863.542216 353.2239 
L 892.327973 353.2239 
L 921.113731 353.2239 
L 949.899489 353.2239 
" style="fill:none;stroke:#91e8e1;stroke-linecap:square;"/>
   </g>
   <g id="line2d_17">
    <path clip-path="url(#p14acbe88c1)" d="M 86.326761 60.604245 
L 115.112519 330.689198 
L 143.898277 350.783572 
L 172.684034 352.915226 
L 201.469792 353.172037 
L 230.255549 353.214129 
L 259.041307 353.222146 
L 287.827064 353.222898 
L 316.612822 353.223649 
L 345.39858 353.2239 
L 374.184337 353.2239 
L 402.970095 353.2239 
L 431.755852 353.2239 
L 460.54161 353.2239 
L 489.327367 353.2239 
L 518.113125 353.2239 
L 546.898883 353.2239 
L 575.68464 353.2239 
L 604.470398 353.2239 
L 633.256155 353.2239 
L 662.041913 353.2239 
L 690.82767 353.2239 
L 719.613428 353.2239 
L 748.399186 353.2239 
L 777.184943 353.2239 
L 805.970701 353.2239 
L 834.756458 353.2239 
L 863.542216 353.2239 
L 892.327973 353.2239 
L 921.113731 353.2239 
L 949.899489 353.2239 
" style="fill:none;stroke:#7cb5ec;stroke-linecap:square;"/>
   </g>
   <g id="line2d_18">
    <path clip-path="url(#p14acbe88c1)" d="M 86.326761 67.868879 
L 115.112519 325.087912 
L 143.898277 349.488874 
L 172.684034 352.633981 
L 201.469792 353.110077 
L 230.255549 353.197009 
L 259.041307 353.217135 
L 287.827064 353.220687 
L 316.612822 353.222885 
L 345.39858 353.223562 
L 374.184337 353.2239 
L 402.970095 353.2239 
L 431.755852 353.2239 
L 460.54161 353.2239 
L 489.327367 353.2239 
L 518.113125 353.2239 
L 546.898883 353.2239 
L 575.68464 353.2239 
L 604.470398 353.2239 
L 633.256155 353.2239 
L 662.041913 353.2239 
L 690.82767 353.2239 
L 719.613428 353.2239 
L 748.399186 353.2239 
L 777.184943 353.2239 
L 805.970701 353.2239 
L 834.756458 353.2239 
L 863.542216 353.2239 
L 892.327973 353.2239 
L 921.113731 353.2239 
L 949.899489 353.2239 
" style="fill:none;stroke:#434348;stroke-linecap:square;"/>
   </g>
   <g id="line2d_19">
    <path clip-path="url(#p14acbe88c1)" d="M 86.326761 59.77834 
L 115.112519 331.294384 
L 143.898277 350.971785 
L 172.684034 352.945389 
L 201.469792 353.17816 
L 230.255549 353.212227 
L 259.041307 353.220643 
L 287.827064 353.22295 
L 316.612822 353.223357 
L 345.39858 353.2239 
L 374.184337 353.2239 
L 402.970095 353.2239 
L 431.755852 353.223764 
L 460.54161 353.2239 
L 489.327367 353.2239 
L 518.113125 353.2239 
L 546.898883 353.2239 
L 575.68464 353.2239 
L 604.470398 353.2239 
L 633.256155 353.2239 
L 662.041913 353.2239 
L 690.82767 353.2239 
L 719.613428 353.2239 
L 748.399186 353.2239 
L 777.184943 353.2239 
L 805.970701 353.2239 
L 834.756458 353.2239 
L 863.542216 353.2239 
L 892.327973 353.2239 
L 921.113731 353.2239 
L 949.899489 353.2239 
" style="fill:none;stroke:#90ed7d;stroke-linecap:square;"/>
   </g>
   <g id="line2d_20">
    <path clip-path="url(#p14acbe88c1)" d="M 86.326761 55.202482 
L 115.112519 335.101622 
L 143.898277 351.617696 
L 172.684034 353.042759 
L 201.469792 353.195321 
L 230.255549 353.217883 
L 259.041307 353.222396 
L 287.827064 353.22304 
L 316.612822 353.2239 
L 345.39858 353.2239 
L 374.184337 353.2239 
L 402.970095 353.2239 
L 431.755852 353.2239 
L 460.54161 353.2239 
L 489.327367 353.2239 
L 518.113125 353.2239 
L 546.898883 353.2239 
L 575.68464 353.2239 
L 604.470398 353.2239 
L 633.256155 353.2239 
L 662.041913 353.2239 
L 690.82767 353.2239 
L 719.613428 353.2239 
L 748.399186 353.2239 
L 777.184943 353.2239 
L 805.970701 353.2239 
L 834.756458 353.2239 
L 863.542216 353.2239 
L 892.327973 353.2239 
L 921.113731 353.2239 
L 949.899489 353.2239 
" style="fill:none;stroke:#f7a35c;stroke-linecap:square;"/>
   </g>
   <g id="line2d_21">
    <path clip-path="url(#p14acbe88c1)" d="M 86.326761 56.826775 
L 115.112519 333.717359 
L 143.898277 351.416177 
L 172.684034 353.011808 
L 201.469792 353.188473 
L 230.255549 353.217786 
L 259.041307 353.221705 
L 287.827064 353.22343 
L 316.612822 353.223743 
L 345.39858 353.223743 
L 374.184337 353.2239 
L 402.970095 353.2239 
L 431.755852 353.2239 
L 460.54161 353.2239 
L 489.327367 353.2239 
L 518.113125 353.2239 
L 546.898883 353.2239 
L 575.68464 353.2239 
L 604.470398 353.2239 
L 633.256155 353.2239 
L 662.041913 353.2239 
L 690.82767 353.2239 
L 719.613428 353.2239 
L 748.399186 353.2239 
L 777.184943 353.2239 
L 805.970701 353.2239 
L 834.756458 353.2239 
L 863.542216 353.2239 
L 892.327973 353.2239 
L 921.113731 353.2239 
L 949.899489 353.2239 
" style="fill:none;stroke:#8085e9;stroke-linecap:square;"/>
   </g>
   <g id="line2d_22">
    <path clip-path="url(#p14acbe88c1)" d="M 86.326761 51.937157 
L 115.112519 337.865765 
L 143.898277 352.042054 
L 172.684034 353.10175 
L 201.469792 353.209109 
L 230.255549 353.221477 
L 259.041307 353.222242 
L 287.827064 353.223772 
L 316.612822 353.2239 
L 345.39858 353.223772 
L 374.184337 353.2239 
L 402.970095 353.2239 
L 431.755852 353.2239 
L 460.54161 353.2239 
L 489.327367 353.2239 
L 518.113125 353.2239 
L 546.898883 353.2239 
L 575.68464 353.2239 
L 604.470398 353.2239 
L 633.256155 353.2239 
L 662.041913 353.2239 
L 690.82767 353.2239 
L 719.613428 353.2239 
L 748.399186 353.2239 
L 777.184943 353.2239 
L 805.970701 353.2239 
L 834.756458 353.2239 
L 863.542216 353.2239 
L 892.327973 353.2239 
L 921.113731 353.2239 
L 949.899489 353.2239 
" style="fill:none;stroke:#f15c80;stroke-linecap:square;"/>
   </g>
   <g id="line2d_23">
    <path clip-path="url(#p14acbe88c1)" d="M 86.326761 66.198029 
L 115.112519 326.12599 
L 143.898277 349.917017 
L 172.684034 352.786512 
L 201.469792 353.148892 
L 230.255549 353.205867 
L 259.041307 353.219104 
L 287.827064 353.223133 
L 316.612822 353.222749 
L 345.39858 353.223708 
L 374.184337 353.2239 
L 402.970095 353.2239 
L 431.755852 353.2239 
L 460.54161 353.2239 
L 489.327367 353.2239 
L 518.113125 353.2239 
L 546.898883 353.2239 
L 575.68464 353.2239 
L 604.470398 353.2239 
L 633.256155 353.2239 
L 662.041913 353.2239 
L 690.82767 353.2239 
L 719.613428 353.2239 
L 748.399186 353.2239 
L 777.184943 353.2239 
L 805.970701 353.2239 
L 834.756458 353.2239 
L 863.542216 353.2239 
L 892.327973 353.2239 
L 921.113731 353.2239 
L 949.899489 353.2239 
" style="fill:none;stroke:#e4d354;stroke-linecap:square;"/>
   </g>
   <g id="line2d_24">
    <path clip-path="url(#p14acbe88c1)" d="M 86.326761 55.325133 
L 115.112519 334.9287 
L 143.898277 351.640204 
L 172.684034 353.060604 
L 201.469792 353.201051 
L 230.255549 353.220965 
L 259.041307 353.222642 
L 287.827064 353.2239 
L 316.612822 353.2239 
L 345.39858 353.2239 
L 374.184337 353.2239 
L 402.970095 353.2239 
L 431.755852 353.2239 
L 460.54161 353.2239 
L 489.327367 353.2239 
L 518.113125 353.2239 
L 546.898883 353.2239 
L 575.68464 353.2239 
L 604.470398 353.2239 
L 633.256155 353.2239 
L 662.041913 353.2239 
L 690.82767 353.2239 
L 719.613428 353.2239 
L 748.399186 353.2239 
L 777.184943 353.2239 
L 805.970701 353.2239 
L 834.756458 353.2239 
L 863.542216 353.2239 
L 892.327973 353.2239 
L 921.113731 353.2239 
L 949.899489 353.2239 
" style="fill:none;stroke:#2b908f;stroke-linecap:square;"/>
   </g>
   <g id="line2d_25">
    <path clip-path="url(#p14acbe88c1)" d="M 86.326761 62.731149 
L 115.112519 328.775746 
L 143.898277 350.586179 
L 172.684034 352.896786 
L 201.469792 353.176456 
L 230.255549 353.211914 
L 259.041307 353.222235 
L 287.827064 353.222901 
L 316.612822 353.223734 
L 345.39858 353.2239 
L 374.184337 353.2239 
L 402.970095 353.2239 
L 431.755852 353.2239 
L 460.54161 353.2239 
L 489.327367 353.2239 
L 518.113125 353.2239 
L 546.898883 353.2239 
L 575.68464 353.2239 
L 604.470398 353.2239 
L 633.256155 353.2239 
L 662.041913 353.2239 
L 690.82767 353.2239 
L 719.613428 353.2239 
L 748.399186 353.2239 
L 777.184943 353.2239 
L 805.970701 353.2239 
L 834.756458 353.2239 
L 863.542216 353.2239 
L 892.327973 353.2239 
L 921.113731 353.2239 
L 949.899489 353.2239 
" style="fill:none;stroke:#f45b5b;stroke-linecap:square;"/>
   </g>
   <g id="line2d_26">
    <path clip-path="url(#p14acbe88c1)" d="M 86.326761 62.06266 
L 115.112519 329.685681 
L 143.898277 350.471875 
L 172.684034 352.807917 
L 201.469792 353.151432 
L 230.255549 353.205783 
L 259.041307 353.21715 
L 287.827064 353.222301 
L 316.612822 353.222834 
L 345.39858 353.223722 
L 374.184337 353.2239 
L 402.970095 353.2239 
L 431.755852 353.223722 
L 460.54161 353.2239 
L 489.327367 353.223722 
L 518.113125 353.2239 
L 546.898883 353.2239 
L 575.68464 353.2239 
L 604.470398 353.2239 
L 633.256155 353.2239 
L 662.041913 353.2239 
L 690.82767 353.2239 
L 719.613428 353.2239 
L 748.399186 353.2239 
L 777.184943 353.2239 
L 805.970701 353.2239 
L 834.756458 353.2239 
L 863.542216 353.2239 
L 892.327973 353.2239 
L 921.113731 353.2239 
L 949.899489 353.2239 
" style="fill:none;stroke:#91e8e1;stroke-linecap:square;"/>
   </g>
   <g id="line2d_27">
    <path clip-path="url(#p14acbe88c1)" d="M 86.326761 61.089045 
L 115.112519 330.275978 
L 143.898277 350.753009 
L 172.684034 352.88237 
L 201.469792 353.163847 
L 230.255549 353.214171 
L 259.041307 353.221887 
L 287.827064 353.222894 
L 316.612822 353.2239 
L 345.39858 353.2239 
L 374.184337 353.2239 
L 402.970095 353.2239 
L 431.755852 353.2239 
L 460.54161 353.2239 
L 489.327367 353.2239 
L 518.113125 353.2239 
L 546.898883 353.2239 
L 575.68464 353.2239 
L 604.470398 353.2239 
L 633.256155 353.2239 
L 662.041913 353.2239 
L 690.82767 353.2239 
L 719.613428 353.2239 
L 748.399186 353.2239 
L 777.184943 353.2239 
L 805.970701 353.2239 
L 834.756458 353.2239 
L 863.542216 353.2239 
L 892.327973 353.2239 
L 921.113731 353.2239 
L 949.899489 353.2239 
" style="fill:none;stroke:#7cb5ec;stroke-linecap:square;"/>
   </g>
   <g id="line2d_28">
    <path clip-path="url(#p14acbe88c1)" d="M 86.326761 45.408776 
L 115.112519 343.591806 
L 143.898277 352.745728 
L 172.684034 353.181291 
L 201.469792 353.2239 
L 230.255549 353.2239 
L 259.041307 353.2239 
L 287.827064 353.2239 
L 316.612822 353.2239 
L 345.39858 353.2239 
L 374.184337 353.2239 
L 402.970095 353.2239 
L 431.755852 353.2239 
L 460.54161 353.2239 
L 489.327367 353.2239 
L 518.113125 353.2239 
L 546.898883 353.2239 
L 575.68464 353.2239 
L 604.470398 353.2239 
L 633.256155 353.2239 
L 662.041913 353.2239 
L 690.82767 353.2239 
L 719.613428 353.2239 
L 748.399186 353.2239 
L 777.184943 353.2239 
L 805.970701 353.2239 
L 834.756458 353.2239 
L 863.542216 353.2239 
L 892.327973 353.2239 
L 921.113731 353.2239 
L 949.899489 353.2239 
" style="fill:none;stroke:#434348;stroke-linecap:square;"/>
   </g>
   <g id="line2d_29">
    <path clip-path="url(#p14acbe88c1)" d="M 86.326761 36.350144 
L 115.112519 352.164284 
L 143.898277 353.192735 
L 172.684034 353.2239 
L 201.469792 353.220437 
L 230.255549 353.2239 
L 259.041307 353.2239 
L 287.827064 353.2239 
L 316.612822 353.2239 
L 345.39858 353.2239 
L 374.184337 353.2239 
L 402.970095 353.2239 
L 431.755852 353.2239 
L 460.54161 353.2239 
L 489.327367 353.2239 
L 518.113125 353.2239 
L 546.898883 353.2239 
L 575.68464 353.2239 
L 604.470398 353.2239 
L 633.256155 353.2239 
L 662.041913 353.2239 
L 690.82767 353.2239 
L 719.613428 353.2239 
L 748.399186 353.2239 
L 777.184943 353.2239 
L 805.970701 353.2239 
L 834.756458 353.2239 
L 863.542216 353.2239 
L 892.327973 353.2239 
L 921.113731 353.2239 
L 949.899489 353.2239 
" style="fill:none;stroke:#90ed7d;stroke-linecap:square;"/>
   </g>
   <g id="line2d_30">
    <path clip-path="url(#p14acbe88c1)" d="M 86.326761 47.141057 
L 115.112519 342.097831 
L 143.898277 352.546559 
L 172.684034 353.151328 
L 201.469792 353.216393 
L 230.255549 353.222232 
L 259.041307 353.2239 
L 287.827064 353.2239 
L 316.612822 353.2239 
L 345.39858 353.2239 
L 374.184337 353.2239 
L 402.970095 353.2239 
L 431.755852 353.2239 
L 460.54161 353.2239 
L 489.327367 353.2239 
L 518.113125 353.2239 
L 546.898883 353.2239 
L 575.68464 353.2239 
L 604.470398 353.2239 
L 633.256155 353.2239 
L 662.041913 353.2239 
L 690.82767 353.2239 
L 719.613428 353.2239 
L 748.399186 353.2239 
L 777.184943 353.2239 
L 805.970701 353.2239 
L 834.756458 353.2239 
L 863.542216 353.2239 
L 892.327973 353.2239 
L 921.113731 353.2239 
L 949.899489 353.2239 
" style="fill:none;stroke:#f7a35c;stroke-linecap:square;"/>
   </g>
   <g id="line2d_31">
    <path clip-path="url(#p14acbe88c1)" d="M 86.326761 48.158607 
L 115.112519 341.072933 
L 143.898277 352.530299 
L 172.684034 353.170331 
L 201.469792 353.219838 
L 230.255549 353.223646 
L 259.041307 353.223646 
L 287.827064 353.2239 
L 316.612822 353.2239 
L 345.39858 353.2239 
L 374.184337 353.2239 
L 402.970095 353.2239 
L 431.755852 353.2239 
L 460.54161 353.2239 
L 489.327367 353.2239 
L 518.113125 353.2239 
L 546.898883 353.2239 
L 575.68464 353.2239 
L 604.470398 353.2239 
L 633.256155 353.2239 
L 662.041913 353.2239 
L 690.82767 353.2239 
L 719.613428 353.2239 
L 748.399186 353.2239 
L 777.184943 353.2239 
L 805.970701 353.2239 
L 834.756458 353.2239 
L 863.542216 353.2239 
L 892.327973 353.2239 
L 921.113731 353.2239 
L 949.899489 353.2239 
" style="fill:none;stroke:#8085e9;stroke-linecap:square;"/>
   </g>
   <g id="line2d_32">
    <path clip-path="url(#p14acbe88c1)" d="M 86.326761 43.947821 
L 115.112519 345.028358 
L 143.898277 352.780327 
L 172.684034 353.171094 
L 201.469792 353.2239 
L 230.255549 353.2239 
L 259.041307 353.2239 
L 287.827064 353.2239 
L 316.612822 353.2239 
L 345.39858 353.2239 
L 374.184337 353.2239 
L 402.970095 353.2239 
L 431.755852 353.2239 
L 460.54161 353.2239 
L 489.327367 353.2239 
L 518.113125 353.2239 
L 546.898883 353.2239 
L 575.68464 353.2239 
L 604.470398 353.2239 
L 633.256155 353.2239 
L 662.041913 353.2239 
L 690.82767 353.2239 
L 719.613428 353.2239 
L 748.399186 353.2239 
L 777.184943 353.2239 
L 805.970701 353.2239 
L 834.756458 353.2239 
L 863.542216 353.2239 
L 892.327973 353.2239 
L 921.113731 353.2239 
L 949.899489 353.2239 
" style="fill:none;stroke:#f15c80;stroke-linecap:square;"/>
   </g>
   <g id="line2d_33">
    <path clip-path="url(#p14acbe88c1)" d="M 86.326761 45.514536 
L 115.112519 343.58565 
L 143.898277 352.663585 
L 172.684034 353.172115 
L 201.469792 353.215614 
L 230.255549 353.2239 
L 259.041307 353.2239 
L 287.827064 353.2239 
L 316.612822 353.2239 
L 345.39858 353.2239 
L 374.184337 353.2239 
L 402.970095 353.2239 
L 431.755852 353.2239 
L 460.54161 353.2239 
L 489.327367 353.2239 
L 518.113125 353.2239 
L 546.898883 353.2239 
L 575.68464 353.2239 
L 604.470398 353.2239 
L 633.256155 353.2239 
L 662.041913 353.2239 
L 690.82767 353.2239 
L 719.613428 353.2239 
L 748.399186 353.2239 
L 777.184943 353.2239 
L 805.970701 353.2239 
L 834.756458 353.2239 
L 863.542216 353.2239 
L 892.327973 353.2239 
L 921.113731 353.2239 
L 949.899489 353.2239 
" style="fill:none;stroke:#e4d354;stroke-linecap:square;"/>
   </g>
   <g id="line2d_34">
    <path clip-path="url(#p14acbe88c1)" d="M 86.326761 47.953018 
L 115.112519 341.349111 
L 143.898277 352.480195 
L 172.684034 353.149143 
L 201.469792 353.220033 
L 230.255549 353.2239 
L 259.041307 353.2239 
L 287.827064 353.2239 
L 316.612822 353.2239 
L 345.39858 353.2239 
L 374.184337 353.2239 
L 402.970095 353.2239 
L 431.755852 353.2239 
L 460.54161 353.2239 
L 489.327367 353.2239 
L 518.113125 353.2239 
L 546.898883 353.2239 
L 575.68464 353.2239 
L 604.470398 353.2239 
L 633.256155 353.2239 
L 662.041913 353.2239 
L 690.82767 353.2239 
L 719.613428 353.2239 
L 748.399186 353.2239 
L 777.184943 353.2239 
L 805.970701 353.2239 
L 834.756458 353.2239 
L 863.542216 353.2239 
L 892.327973 353.2239 
L 921.113731 353.2239 
L 949.899489 353.2239 
" style="fill:none;stroke:#2b908f;stroke-linecap:square;"/>
   </g>
   <g id="line2d_35">
    <path clip-path="url(#p14acbe88c1)" d="M 86.326761 44.528095 
L 115.112519 344.512349 
L 143.898277 352.71357 
L 172.684034 353.17718 
L 201.469792 353.220306 
L 230.255549 353.2239 
L 259.041307 353.2239 
L 287.827064 353.2239 
L 316.612822 353.2239 
L 345.39858 353.2239 
L 374.184337 353.2239 
L 402.970095 353.2239 
L 431.755852 353.2239 
L 460.54161 353.2239 
L 489.327367 353.2239 
L 518.113125 353.2239 
L 546.898883 353.2239 
L 575.68464 353.2239 
L 604.470398 353.2239 
L 633.256155 353.2239 
L 662.041913 353.2239 
L 690.82767 353.2239 
L 719.613428 353.2239 
L 748.399186 353.2239 
L 777.184943 353.2239 
L 805.970701 353.2239 
L 834.756458 353.2239 
L 863.542216 353.2239 
L 892.327973 353.2239 
L 921.113731 353.2239 
L 949.899489 353.2239 
" style="fill:none;stroke:#f45b5b;stroke-linecap:square;"/>
   </g>
   <g id="line2d_36">
    <path clip-path="url(#p14acbe88c1)" d="M 86.326761 45.279132 
L 115.112519 343.906594 
L 143.898277 352.612251 
L 172.684034 353.138821 
L 201.469792 353.217002 
L 230.255549 353.221601 
L 259.041307 353.2239 
L 287.827064 353.2239 
L 316.612822 353.2239 
L 345.39858 353.2239 
L 374.184337 353.2239 
L 402.970095 353.2239 
L 431.755852 353.2239 
L 460.54161 353.2239 
L 489.327367 353.2239 
L 518.113125 353.2239 
L 546.898883 353.2239 
L 575.68464 353.2239 
L 604.470398 353.2239 
L 633.256155 353.2239 
L 662.041913 353.2239 
L 690.82767 353.2239 
L 719.613428 353.2239 
L 748.399186 353.2239 
L 777.184943 353.2239 
L 805.970701 353.2239 
L 834.756458 353.2239 
L 863.542216 353.2239 
L 892.327973 353.2239 
L 921.113731 353.2239 
L 949.899489 353.2239 
" style="fill:none;stroke:#91e8e1;stroke-linecap:square;"/>
   </g>
   <g id="line2d_37">
    <path clip-path="url(#p14acbe88c1)" d="M 86.326761 48.473529 
L 115.112519 340.778347 
L 143.898277 352.525162 
L 172.684034 353.157354 
L 201.469792 353.217789 
L 230.255549 353.223221 
L 259.041307 353.2239 
L 287.827064 353.2239 
L 316.612822 353.2239 
L 345.39858 353.2239 
L 374.184337 353.2239 
L 402.970095 353.2239 
L 431.755852 353.2239 
L 460.54161 353.2239 
L 489.327367 353.2239 
L 518.113125 353.2239 
L 546.898883 353.2239 
L 575.68464 353.2239 
L 604.470398 353.2239 
L 633.256155 353.2239 
L 662.041913 353.2239 
L 690.82767 353.2239 
L 719.613428 353.2239 
L 748.399186 353.2239 
L 777.184943 353.2239 
L 805.970701 353.2239 
L 834.756458 353.2239 
L 863.542216 353.2239 
L 892.327973 353.2239 
L 921.113731 353.2239 
L 949.899489 353.2239 
" style="fill:none;stroke:#7cb5ec;stroke-linecap:square;"/>
   </g>
   <g id="line2d_38">
    <path clip-path="url(#p14acbe88c1)" d="M 86.326761 36.859421 
L 115.112519 351.652195 
L 143.898277 353.192084 
L 172.684034 353.2239 
L 201.469792 353.2239 
L 230.255549 353.2239 
L 259.041307 353.2239 
L 287.827064 353.2239 
L 316.612822 353.2239 
L 345.39858 353.2239 
L 374.184337 353.2239 
L 402.970095 353.2239 
L 431.755852 353.2239 
L 460.54161 353.2239 
L 489.327367 353.2239 
L 518.113125 353.2239 
L 546.898883 353.2239 
L 575.68464 353.2239 
L 604.470398 353.2239 
L 633.256155 353.2239 
L 662.041913 353.2239 
L 690.82767 353.2239 
L 719.613428 353.2239 
L 748.399186 353.2239 
L 777.184943 353.2239 
L 805.970701 353.2239 
L 834.756458 353.2239 
L 863.542216 353.2239 
L 892.327973 353.2239 
L 921.113731 353.2239 
L 949.899489 353.2239 
" style="fill:none;stroke:#434348;stroke-linecap:square;"/>
   </g>
   <g id="line2d_39">
    <path clip-path="url(#p14acbe88c1)" d="M 86.326761 42.777112 
L 115.112519 346.057562 
L 143.898277 352.894603 
L 172.684034 353.200291 
L 201.469792 353.222424 
L 230.255549 353.223408 
L 259.041307 353.2239 
L 287.827064 353.2239 
L 316.612822 353.2239 
L 345.39858 353.2239 
L 374.184337 353.2239 
L 402.970095 353.2239 
L 431.755852 353.2239 
L 460.54161 353.2239 
L 489.327367 353.2239 
L 518.113125 353.2239 
L 546.898883 353.2239 
L 575.68464 353.2239 
L 604.470398 353.2239 
L 633.256155 353.2239 
L 662.041913 353.2239 
L 690.82767 353.2239 
L 719.613428 353.2239 
L 748.399186 353.2239 
L 777.184943 353.2239 
L 805.970701 353.2239 
L 834.756458 353.2239 
L 863.542216 353.2239 
L 892.327973 353.2239 
L 921.113731 353.2239 
L 949.899489 353.2239 
" style="fill:none;stroke:#90ed7d;stroke-linecap:square;"/>
   </g>
   <g id="line2d_40">
    <path clip-path="url(#p14acbe88c1)" d="M 86.326761 46.436335 
L 115.112519 342.653707 
L 143.898277 352.671062 
L 172.684034 353.172661 
L 201.469792 353.219277 
L 230.255549 353.222744 
L 259.041307 353.223515 
L 287.827064 353.2239 
L 316.612822 353.2239 
L 345.39858 353.2239 
L 374.184337 353.2239 
L 402.970095 353.2239 
L 431.755852 353.2239 
L 460.54161 353.2239 
L 489.327367 353.2239 
L 518.113125 353.2239 
L 546.898883 353.2239 
L 575.68464 353.2239 
L 604.470398 353.2239 
L 633.256155 353.2239 
L 662.041913 353.2239 
L 690.82767 353.2239 
L 719.613428 353.2239 
L 748.399186 353.2239 
L 777.184943 353.2239 
L 805.970701 353.2239 
L 834.756458 353.2239 
L 863.542216 353.2239 
L 892.327973 353.2239 
L 921.113731 353.2239 
L 949.899489 353.2239 
" style="fill:none;stroke:#f7a35c;stroke-linecap:square;"/>
   </g>
   <g id="line2d_41">
    <path clip-path="url(#p14acbe88c1)" d="M 86.326761 47.179968 
L 115.112519 341.980806 
L 143.898277 352.605946 
L 172.684034 353.168223 
L 201.469792 353.21717 
L 230.255549 353.223288 
L 259.041307 353.2239 
L 287.827064 353.2239 
L 316.612822 353.2239 
L 345.39858 353.2239 
L 374.184337 353.2239 
L 402.970095 353.2239 
L 431.755852 353.2239 
L 460.54161 353.2239 
L 489.327367 353.2239 
L 518.113125 353.2239 
L 546.898883 353.2239 
L 575.68464 353.2239 
L 604.470398 353.2239 
L 633.256155 353.2239 
L 662.041913 353.2239 
L 690.82767 353.2239 
L 719.613428 353.2239 
L 748.399186 353.2239 
L 777.184943 353.2239 
L 805.970701 353.2239 
L 834.756458 353.2239 
L 863.542216 353.2239 
L 892.327973 353.2239 
L 921.113731 353.2239 
L 949.899489 353.2239 
" style="fill:none;stroke:#8085e9;stroke-linecap:square;"/>
   </g>
   <g id="line2d_42">
    <path clip-path="url(#p14acbe88c1)" d="M 86.326761 36.33202 
L 115.112519 352.176099 
L 143.898277 353.198413 
L 172.684034 353.221068 
L 201.469792 353.2239 
L 230.255549 353.2239 
L 259.041307 353.2239 
L 287.827064 353.2239 
L 316.612822 353.2239 
L 345.39858 353.2239 
L 374.184337 353.2239 
L 402.970095 353.2239 
L 431.755852 353.2239 
L 460.54161 353.2239 
L 489.327367 353.2239 
L 518.113125 353.2239 
L 546.898883 353.2239 
L 575.68464 353.2239 
L 604.470398 353.2239 
L 633.256155 353.2239 
L 662.041913 353.2239 
L 690.82767 353.2239 
L 719.613428 353.2239 
L 748.399186 353.2239 
L 777.184943 353.2239 
L 805.970701 353.2239 
L 834.756458 353.2239 
L 863.542216 353.2239 
L 892.327973 353.2239 
L 921.113731 353.2239 
L 949.899489 353.2239 
" style="fill:none;stroke:#f15c80;stroke-linecap:square;"/>
   </g>
   <g id="line2d_43">
    <path clip-path="url(#p14acbe88c1)" d="M 86.326761 47.766837 
L 115.112519 341.496975 
L 143.898277 352.512028 
L 172.684034 353.159594 
L 201.469792 353.217396 
L 230.255549 353.222939 
L 259.041307 353.223678 
L 287.827064 353.2239 
L 316.612822 353.2239 
L 345.39858 353.223752 
L 374.184337 353.2239 
L 402.970095 353.2239 
L 431.755852 353.2239 
L 460.54161 353.2239 
L 489.327367 353.2239 
L 518.113125 353.2239 
L 546.898883 353.2239 
L 575.68464 353.2239 
L 604.470398 353.2239 
L 633.256155 353.2239 
L 662.041913 353.2239 
L 690.82767 353.2239 
L 719.613428 353.2239 
L 748.399186 353.2239 
L 777.184943 353.2239 
L 805.970701 353.2239 
L 834.756458 353.2239 
L 863.542216 353.2239 
L 892.327973 353.2239 
L 921.113731 353.2239 
L 949.899489 353.2239 
" style="fill:none;stroke:#e4d354;stroke-linecap:square;"/>
   </g>
   <g id="line2d_44">
    <path clip-path="url(#p14acbe88c1)" d="M 86.326761 43.041505 
L 115.112519 345.887498 
L 143.898277 352.811119 
L 172.684034 353.189213 
L 201.469792 353.222166 
L 230.255549 353.2239 
L 259.041307 353.2239 
L 287.827064 353.2239 
L 316.612822 353.2239 
L 345.39858 353.2239 
L 374.184337 353.2239 
L 402.970095 353.2239 
L 431.755852 353.2239 
L 460.54161 353.2239 
L 489.327367 353.2239 
L 518.113125 353.2239 
L 546.898883 353.2239 
L 575.68464 353.2239 
L 604.470398 353.2239 
L 633.256155 353.2239 
L 662.041913 353.2239 
L 690.82767 353.2239 
L 719.613428 353.2239 
L 748.399186 353.2239 
L 777.184943 353.2239 
L 805.970701 353.2239 
L 834.756458 353.2239 
L 863.542216 353.2239 
L 892.327973 353.2239 
L 921.113731 353.2239 
L 949.899489 353.2239 
" style="fill:none;stroke:#2b908f;stroke-linecap:square;"/>
   </g>
   <g id="line2d_45">
    <path clip-path="url(#p14acbe88c1)" d="M 86.326761 43.066345 
L 115.112519 345.829263 
L 143.898277 352.844616 
L 172.684034 353.188781 
L 201.469792 353.222495 
L 230.255549 353.2239 
L 259.041307 353.2239 
L 287.827064 353.2239 
L 316.612822 353.2239 
L 345.39858 353.2239 
L 374.184337 353.2239 
L 402.970095 353.2239 
L 431.755852 353.2239 
L 460.54161 353.2239 
L 489.327367 353.2239 
L 518.113125 353.2239 
L 546.898883 353.2239 
L 575.68464 353.2239 
L 604.470398 353.2239 
L 633.256155 353.2239 
L 662.041913 353.2239 
L 690.82767 353.2239 
L 719.613428 353.2239 
L 748.399186 353.2239 
L 777.184943 353.2239 
L 805.970701 353.2239 
L 834.756458 353.2239 
L 863.542216 353.2239 
L 892.327973 353.2239 
L 921.113731 353.2239 
L 949.899489 353.2239 
" style="fill:none;stroke:#f45b5b;stroke-linecap:square;"/>
   </g>
   <g id="line2d_46">
    <path clip-path="url(#p14acbe88c1)" d="M 86.326761 38.117838 
L 115.112519 350.547147 
L 143.898277 353.055551 
L 172.684034 353.210432 
L 201.469792 353.220533 
L 230.255549 353.2239 
L 259.041307 353.2239 
L 287.827064 353.2239 
L 316.612822 353.2239 
L 345.39858 353.2239 
L 374.184337 353.2239 
L 402.970095 353.2239 
L 431.755852 353.2239 
L 460.54161 353.2239 
L 489.327367 353.2239 
L 518.113125 353.2239 
L 546.898883 353.2239 
L 575.68464 353.2239 
L 604.470398 353.2239 
L 633.256155 353.2239 
L 662.041913 353.2239 
L 690.82767 353.2239 
L 719.613428 353.2239 
L 748.399186 353.2239 
L 777.184943 353.2239 
L 805.970701 353.2239 
L 834.756458 353.2239 
L 863.542216 353.2239 
L 892.327973 353.2239 
L 921.113731 353.2239 
L 949.899489 353.2239 
" style="fill:none;stroke:#91e8e1;stroke-linecap:square;"/>
   </g>
   <g id="line2d_47">
    <path clip-path="url(#p14acbe88c1)" d="M 86.326761 36.458118 
L 115.112519 352.050811 
L 143.898277 353.197419 
L 172.684034 353.221252 
L 201.469792 353.2239 
L 230.255549 353.2239 
L 259.041307 353.2239 
L 287.827064 353.2239 
L 316.612822 353.2239 
L 345.39858 353.2239 
L 374.184337 353.2239 
L 402.970095 353.2239 
L 431.755852 353.2239 
L 460.54161 353.2239 
L 489.327367 353.2239 
L 518.113125 353.2239 
L 546.898883 353.2239 
L 575.68464 353.2239 
L 604.470398 353.2239 
L 633.256155 353.2239 
L 662.041913 353.2239 
L 690.82767 353.2239 
L 719.613428 353.2239 
L 748.399186 353.2239 
L 777.184943 353.2239 
L 805.970701 353.2239 
L 834.756458 353.2239 
L 863.542216 353.2239 
L 892.327973 353.2239 
L 921.113731 353.2239 
L 949.899489 353.2239 
" style="fill:none;stroke:#7cb5ec;stroke-linecap:square;"/>
   </g>
   <g id="line2d_48">
    <path clip-path="url(#p14acbe88c1)" d="M 86.326761 44.101134 
L 115.112519 344.795741 
L 143.898277 352.839325 
L 172.684034 353.191401 
L 201.469792 353.2239 
L 230.255549 353.2239 
L 259.041307 353.2239 
L 287.827064 353.2239 
L 316.612822 353.2239 
L 345.39858 353.2239 
L 374.184337 353.2239 
L 402.970095 353.2239 
L 431.755852 353.2239 
L 460.54161 353.2239 
L 489.327367 353.2239 
L 518.113125 353.2239 
L 546.898883 353.2239 
L 575.68464 353.2239 
L 604.470398 353.2239 
L 633.256155 353.2239 
L 662.041913 353.2239 
L 690.82767 353.2239 
L 719.613428 353.2239 
L 748.399186 353.2239 
L 777.184943 353.2239 
L 805.970701 353.2239 
L 834.756458 353.2239 
L 863.542216 353.2239 
L 892.327973 353.2239 
L 921.113731 353.2239 
L 949.899489 353.2239 
" style="fill:none;stroke:#434348;stroke-linecap:square;"/>
   </g>
   <g id="line2d_49">
    <path clip-path="url(#p14acbe88c1)" d="M 86.326761 36.703261 
L 115.112519 351.803096 
L 143.898277 353.197343 
L 172.684034 353.2239 
L 201.469792 353.2239 
L 230.255549 353.2239 
L 259.041307 353.2239 
L 287.827064 353.2239 
L 316.612822 353.2239 
L 345.39858 353.2239 
L 374.184337 353.2239 
L 402.970095 353.2239 
L 431.755852 353.2239 
L 460.54161 353.2239 
L 489.327367 353.2239 
L 518.113125 353.2239 
L 546.898883 353.2239 
L 575.68464 353.2239 
L 604.470398 353.2239 
L 633.256155 353.2239 
L 662.041913 353.2239 
L 690.82767 353.2239 
L 719.613428 353.2239 
L 748.399186 353.2239 
L 777.184943 353.2239 
L 805.970701 353.2239 
L 834.756458 353.2239 
L 863.542216 353.2239 
L 892.327973 353.2239 
L 921.113731 353.2239 
L 949.899489 353.2239 
" style="fill:none;stroke:#90ed7d;stroke-linecap:square;"/>
   </g>
   <g id="line2d_50">
    <path clip-path="url(#p14acbe88c1)" d="M 86.326761 47.214468 
L 115.112519 341.987899 
L 143.898277 352.564073 
L 172.684034 353.167897 
L 201.469792 353.217584 
L 230.255549 353.223479 
L 259.041307 353.2239 
L 287.827064 353.2239 
L 316.612822 353.2239 
L 345.39858 353.2239 
L 374.184337 353.2239 
L 402.970095 353.2239 
L 431.755852 353.2239 
L 460.54161 353.2239 
L 489.327367 353.2239 
L 518.113125 353.2239 
L 546.898883 353.2239 
L 575.68464 353.2239 
L 604.470398 353.2239 
L 633.256155 353.2239 
L 662.041913 353.2239 
L 690.82767 353.2239 
L 719.613428 353.2239 
L 748.399186 353.2239 
L 777.184943 353.2239 
L 805.970701 353.2239 
L 834.756458 353.2239 
L 863.542216 353.2239 
L 892.327973 353.2239 
L 921.113731 353.2239 
L 949.899489 353.2239 
" style="fill:none;stroke:#f7a35c;stroke-linecap:square;"/>
   </g>
   <g id="line2d_51">
    <path clip-path="url(#p14acbe88c1)" d="M 86.326761 48.386686 
L 115.112519 340.918752 
L 143.898277 352.472661 
L 172.684034 353.157154 
L 201.469792 353.217625 
L 230.255549 353.222866 
L 259.041307 353.223555 
L 287.827064 353.2239 
L 316.612822 353.2239 
L 345.39858 353.2239 
L 374.184337 353.2239 
L 402.970095 353.2239 
L 431.755852 353.2239 
L 460.54161 353.2239 
L 489.327367 353.2239 
L 518.113125 353.2239 
L 546.898883 353.2239 
L 575.68464 353.2239 
L 604.470398 353.2239 
L 633.256155 353.2239 
L 662.041913 353.2239 
L 690.82767 353.2239 
L 719.613428 353.2239 
L 748.399186 353.2239 
L 777.184943 353.2239 
L 805.970701 353.2239 
L 834.756458 353.2239 
L 863.542216 353.2239 
L 892.327973 353.2239 
L 921.113731 353.2239 
L 949.899489 353.2239 
" style="fill:none;stroke:#8085e9;stroke-linecap:square;"/>
   </g>
   <g id="line2d_52">
    <path clip-path="url(#p14acbe88c1)" d="M 86.326761 46.571325 
L 115.112519 342.572274 
L 143.898277 352.615451 
L 172.684034 353.173618 
L 201.469792 353.219555 
L 230.255549 353.223279 
L 259.041307 353.223797 
L 287.827064 353.2239 
L 316.612822 353.2239 
L 345.39858 353.2239 
L 374.184337 353.2239 
L 402.970095 353.2239 
L 431.755852 353.2239 
L 460.54161 353.2239 
L 489.327367 353.2239 
L 518.113125 353.2239 
L 546.898883 353.2239 
L 575.68464 353.2239 
L 604.470398 353.2239 
L 633.256155 353.2239 
L 662.041913 353.2239 
L 690.82767 353.2239 
L 719.613428 353.2239 
L 748.399186 353.2239 
L 777.184943 353.2239 
L 805.970701 353.2239 
L 834.756458 353.2239 
L 863.542216 353.2239 
L 892.327973 353.2239 
L 921.113731 353.2239 
L 949.899489 353.2239 
" style="fill:none;stroke:#f15c80;stroke-linecap:square;"/>
   </g>
   <g id="line2d_53">
    <path clip-path="url(#p14acbe88c1)" d="M 86.326761 46.054788 
L 115.112519 343.028625 
L 143.898277 352.673666 
L 172.684034 353.177179 
L 201.469792 353.2181 
L 230.255549 353.223148 
L 259.041307 353.223793 
L 287.827064 353.2239 
L 316.612822 353.2239 
L 345.39858 353.2239 
L 374.184337 353.2239 
L 402.970095 353.2239 
L 431.755852 353.2239 
L 460.54161 353.2239 
L 489.327367 353.2239 
L 518.113125 353.2239 
L 546.898883 353.2239 
L 575.68464 353.2239 
L 604.470398 353.2239 
L 633.256155 353.2239 
L 662.041913 353.2239 
L 690.82767 353.2239 
L 719.613428 353.2239 
L 748.399186 353.2239 
L 777.184943 353.2239 
L 805.970701 353.2239 
L 834.756458 353.2239 
L 863.542216 353.2239 
L 892.327973 353.2239 
L 921.113731 353.2239 
L 949.899489 353.2239 
" style="fill:none;stroke:#e4d354;stroke-linecap:square;"/>
   </g>
   <g id="line2d_54">
    <path clip-path="url(#p14acbe88c1)" d="M 86.326761 47.762069 
L 115.112519 341.489001 
L 143.898277 352.522345 
L 172.684034 353.162991 
L 201.469792 353.217295 
L 230.255549 353.2239 
L 259.041307 353.222432 
L 287.827064 353.2239 
L 316.612822 353.2239 
L 345.39858 353.223166 
L 374.184337 353.2239 
L 402.970095 353.2239 
L 431.755852 353.2239 
L 460.54161 353.2239 
L 489.327367 353.2239 
L 518.113125 353.2239 
L 546.898883 353.2239 
L 575.68464 353.2239 
L 604.470398 353.2239 
L 633.256155 353.2239 
L 662.041913 353.2239 
L 690.82767 353.2239 
L 719.613428 353.2239 
L 748.399186 353.2239 
L 777.184943 353.2239 
L 805.970701 353.2239 
L 834.756458 353.2239 
L 863.542216 353.2239 
L 892.327973 353.2239 
L 921.113731 353.2239 
L 949.899489 353.2239 
" style="fill:none;stroke:#2b908f;stroke-linecap:square;"/>
   </g>
   <g id="line2d_55">
    <path clip-path="url(#p14acbe88c1)" d="M 86.326761 46.29844 
L 115.112519 342.802552 
L 143.898277 352.663698 
L 172.684034 353.170816 
L 201.469792 353.217123 
L 230.255549 353.222771 
L 259.041307 353.2239 
L 287.827064 353.2239 
L 316.612822 353.2239 
L 345.39858 353.2239 
L 374.184337 353.2239 
L 402.970095 353.2239 
L 431.755852 353.2239 
L 460.54161 353.2239 
L 489.327367 353.2239 
L 518.113125 353.2239 
L 546.898883 353.2239 
L 575.68464 353.2239 
L 604.470398 353.2239 
L 633.256155 353.2239 
L 662.041913 353.2239 
L 690.82767 353.2239 
L 719.613428 353.2239 
L 748.399186 353.2239 
L 777.184943 353.2239 
L 805.970701 353.2239 
L 834.756458 353.2239 
L 863.542216 353.2239 
L 892.327973 353.2239 
L 921.113731 353.2239 
L 949.899489 353.2239 
" style="fill:none;stroke:#f45b5b;stroke-linecap:square;"/>
   </g>
   <g id="line2d_56">
    <path clip-path="url(#p14acbe88c1)" d="M 86.326761 51.890614 
L 115.112519 337.806551 
L 143.898277 352.119313 
L 172.684034 353.128558 
L 201.469792 353.208863 
L 230.255549 353.22182 
L 259.041307 353.22358 
L 287.827064 353.2239 
L 316.612822 353.2239 
L 345.39858 353.2239 
L 374.184337 353.2239 
L 402.970095 353.2239 
L 431.755852 353.2239 
L 460.54161 353.2239 
L 489.327367 353.2239 
L 518.113125 353.2239 
L 546.898883 353.2239 
L 575.68464 353.2239 
L 604.470398 353.2239 
L 633.256155 353.2239 
L 662.041913 353.2239 
L 690.82767 353.2239 
L 719.613428 353.2239 
L 748.399186 353.2239 
L 777.184943 353.2239 
L 805.970701 353.2239 
L 834.756458 353.2239 
L 863.542216 353.2239 
L 892.327973 353.2239 
L 921.113731 353.2239 
L 949.899489 353.2239 
" style="fill:none;stroke:#91e8e1;stroke-linecap:square;"/>
   </g>
   <g id="line2d_57">
    <path clip-path="url(#p14acbe88c1)" d="M 86.326761 50.733631 
L 115.112519 338.825434 
L 143.898277 352.241694 
L 172.684034 353.13974 
L 201.469792 353.212465 
L 230.255549 353.222802 
L 259.041307 353.223534 
L 287.827064 353.2239 
L 316.612822 353.2239 
L 345.39858 353.2239 
L 374.184337 353.2239 
L 402.970095 353.2239 
L 431.755852 353.2239 
L 460.54161 353.2239 
L 489.327367 353.2239 
L 518.113125 353.2239 
L 546.898883 353.2239 
L 575.68464 353.2239 
L 604.470398 353.2239 
L 633.256155 353.2239 
L 662.041913 353.2239 
L 690.82767 353.2239 
L 719.613428 353.2239 
L 748.399186 353.2239 
L 777.184943 353.2239 
L 805.970701 353.2239 
L 834.756458 353.2239 
L 863.542216 353.2239 
L 892.327973 353.2239 
L 921.113731 353.2239 
L 949.899489 353.2239 
" style="fill:none;stroke:#7cb5ec;stroke-linecap:square;"/>
   </g>
   <g id="line2d_58">
    <path clip-path="url(#p14acbe88c1)" d="M 86.326761 46.267792 
L 115.112519 342.969887 
L 143.898277 352.565662 
L 172.684034 353.130297 
L 201.469792 353.217861 
L 230.255549 353.2239 
L 259.041307 353.2239 
L 287.827064 353.2239 
L 316.612822 353.2239 
L 345.39858 353.2239 
L 374.184337 353.2239 
L 402.970095 353.2239 
L 431.755852 353.2239 
L 460.54161 353.2239 
L 489.327367 353.2239 
L 518.113125 353.2239 
L 546.898883 353.2239 
L 575.68464 353.2239 
L 604.470398 353.2239 
L 633.256155 353.2239 
L 662.041913 353.2239 
L 690.82767 353.2239 
L 719.613428 353.2239 
L 748.399186 353.2239 
L 777.184943 353.2239 
L 805.970701 353.2239 
L 834.756458 353.2239 
L 863.542216 353.2239 
L 892.327973 353.2239 
L 921.113731 353.2239 
L 949.899489 353.2239 
" style="fill:none;stroke:#434348;stroke-linecap:square;"/>
   </g>
   <g id="line2d_59">
    <path clip-path="url(#p14acbe88c1)" d="M 86.326761 46.734077 
L 115.112519 342.38845 
L 143.898277 352.61945 
L 172.684034 353.187218 
L 201.469792 353.222305 
L 230.255549 353.2239 
L 259.041307 353.2239 
L 287.827064 353.2239 
L 316.612822 353.2239 
L 345.39858 353.2239 
L 374.184337 353.2239 
L 402.970095 353.2239 
L 431.755852 353.2239 
L 460.54161 353.2239 
L 489.327367 353.2239 
L 518.113125 353.2239 
L 546.898883 353.2239 
L 575.68464 353.2239 
L 604.470398 353.2239 
L 633.256155 353.2239 
L 662.041913 353.2239 
L 690.82767 353.2239 
L 719.613428 353.2239 
L 748.399186 353.2239 
L 777.184943 353.2239 
L 805.970701 353.2239 
L 834.756458 353.2239 
L 863.542216 353.2239 
L 892.327973 353.2239 
L 921.113731 353.2239 
L 949.899489 353.2239 
" style="fill:none;stroke:#90ed7d;stroke-linecap:square;"/>
   </g>
   <g id="line2d_60">
    <path clip-path="url(#p14acbe88c1)" d="M 86.326761 44.476237 
L 115.112519 344.508862 
L 143.898277 352.764206 
L 172.684034 353.185592 
L 201.469792 353.217515 
L 230.255549 353.222988 
L 259.041307 353.2239 
L 287.827064 353.2239 
L 316.612822 353.2239 
L 345.39858 353.2239 
L 374.184337 353.2239 
L 402.970095 353.2239 
L 431.755852 353.2239 
L 460.54161 353.2239 
L 489.327367 353.2239 
L 518.113125 353.2239 
L 546.898883 353.2239 
L 575.68464 353.2239 
L 604.470398 353.2239 
L 633.256155 353.2239 
L 662.041913 353.2239 
L 690.82767 353.2239 
L 719.613428 353.2239 
L 748.399186 353.2239 
L 777.184943 353.2239 
L 805.970701 353.2239 
L 834.756458 353.2239 
L 863.542216 353.2239 
L 892.327973 353.2239 
L 921.113731 353.2239 
L 949.899489 353.2239 
" style="fill:none;stroke:#f7a35c;stroke-linecap:square;"/>
   </g>
   <g id="line2d_61">
    <path clip-path="url(#p14acbe88c1)" d="M 86.326761 42.926547 
L 115.112519 345.888822 
L 143.898277 352.91009 
L 172.684034 353.204204 
L 201.469792 353.222279 
L 230.255549 353.223556 
L 259.041307 353.223802 
L 287.827064 353.2239 
L 316.612822 353.2239 
L 345.39858 353.2239 
L 374.184337 353.2239 
L 402.970095 353.2239 
L 431.755852 353.2239 
L 460.54161 353.2239 
L 489.327367 353.2239 
L 518.113125 353.2239 
L 546.898883 353.2239 
L 575.68464 353.2239 
L 604.470398 353.2239 
L 633.256155 353.2239 
L 662.041913 353.2239 
L 690.82767 353.2239 
L 719.613428 353.2239 
L 748.399186 353.2239 
L 777.184943 353.2239 
L 805.970701 353.2239 
L 834.756458 353.2239 
L 863.542216 353.2239 
L 892.327973 353.2239 
L 921.113731 353.2239 
L 949.899489 353.2239 
" style="fill:none;stroke:#8085e9;stroke-linecap:square;"/>
   </g>
   <g id="line2d_62">
    <path clip-path="url(#p14acbe88c1)" d="M 86.326761 47.497621 
L 115.112519 341.680095 
L 143.898277 352.581057 
L 172.684034 353.173692 
L 201.469792 353.219748 
L 230.255549 353.223251 
L 259.041307 353.223835 
L 287.827064 353.2239 
L 316.612822 353.2239 
L 345.39858 353.2239 
L 374.184337 353.2239 
L 402.970095 353.2239 
L 431.755852 353.2239 
L 460.54161 353.2239 
L 489.327367 353.2239 
L 518.113125 353.2239 
L 546.898883 353.2239 
L 575.68464 353.2239 
L 604.470398 353.2239 
L 633.256155 353.2239 
L 662.041913 353.2239 
L 690.82767 353.2239 
L 719.613428 353.2239 
L 748.399186 353.2239 
L 777.184943 353.2239 
L 805.970701 353.2239 
L 834.756458 353.2239 
L 863.542216 353.2239 
L 892.327973 353.2239 
L 921.113731 353.2239 
L 949.899489 353.2239 
" style="fill:none;stroke:#f15c80;stroke-linecap:square;"/>
   </g>
   <g id="line2d_63">
    <path clip-path="url(#p14acbe88c1)" d="M 86.326761 42.341003 
L 115.112519 346.547587 
L 143.898277 352.845065 
L 172.684034 353.200994 
L 201.469792 353.216852 
L 230.255549 353.2239 
L 259.041307 353.2239 
L 287.827064 353.2239 
L 316.612822 353.2239 
L 345.39858 353.2239 
L 374.184337 353.2239 
L 402.970095 353.2239 
L 431.755852 353.2239 
L 460.54161 353.2239 
L 489.327367 353.2239 
L 518.113125 353.2239 
L 546.898883 353.2239 
L 575.68464 353.2239 
L 604.470398 353.2239 
L 633.256155 353.2239 
L 662.041913 353.2239 
L 690.82767 353.2239 
L 719.613428 353.2239 
L 748.399186 353.2239 
L 777.184943 353.2239 
L 805.970701 353.2239 
L 834.756458 353.2239 
L 863.542216 353.2239 
L 892.327973 353.2239 
L 921.113731 353.2239 
L 949.899489 353.2239 
" style="fill:none;stroke:#e4d354;stroke-linecap:square;"/>
   </g>
   <g id="line2d_64">
    <path clip-path="url(#p14acbe88c1)" d="M 86.326761 45.906751 
L 115.112519 343.132161 
L 143.898277 352.706944 
L 172.684034 353.187292 
L 201.469792 353.219463 
L 230.255549 353.222791 
L 259.041307 353.2239 
L 287.827064 353.2239 
L 316.612822 353.2239 
L 345.39858 353.2239 
L 374.184337 353.2239 
L 402.970095 353.2239 
L 431.755852 353.2239 
L 460.54161 353.2239 
L 489.327367 353.2239 
L 518.113125 353.2239 
L 546.898883 353.2239 
L 575.68464 353.2239 
L 604.470398 353.2239 
L 633.256155 353.2239 
L 662.041913 353.2239 
L 690.82767 353.2239 
L 719.613428 353.2239 
L 748.399186 353.2239 
L 777.184943 353.2239 
L 805.970701 353.2239 
L 834.756458 353.2239 
L 863.542216 353.2239 
L 892.327973 353.2239 
L 921.113731 353.2239 
L 949.899489 353.2239 
" style="fill:none;stroke:#2b908f;stroke-linecap:square;"/>
   </g>
   <g id="line2d_65">
    <path clip-path="url(#p14acbe88c1)" d="M 86.326761 36.694235 
L 115.112519 351.833509 
L 143.898277 353.175955 
L 172.684034 353.2239 
L 201.469792 353.2239 
L 230.255549 353.2239 
L 259.041307 353.2239 
L 287.827064 353.2239 
L 316.612822 353.2239 
L 345.39858 353.2239 
L 374.184337 353.2239 
L 402.970095 353.2239 
L 431.755852 353.2239 
L 460.54161 353.2239 
L 489.327367 353.2239 
L 518.113125 353.2239 
L 546.898883 353.2239 
L 575.68464 353.2239 
L 604.470398 353.2239 
L 633.256155 353.2239 
L 662.041913 353.2239 
L 690.82767 353.2239 
L 719.613428 353.2239 
L 748.399186 353.2239 
L 777.184943 353.2239 
L 805.970701 353.2239 
L 834.756458 353.2239 
L 863.542216 353.2239 
L 892.327973 353.2239 
L 921.113731 353.2239 
L 949.899489 353.2239 
" style="fill:none;stroke:#f45b5b;stroke-linecap:square;"/>
   </g>
   <g id="line2d_66">
    <path clip-path="url(#p14acbe88c1)" d="M 86.326761 46.087917 
L 115.112519 343.140988 
L 143.898277 352.550488 
L 172.684034 353.161257 
L 201.469792 353.21346 
L 230.255549 353.22129 
L 259.041307 353.2239 
L 287.827064 353.2239 
L 316.612822 353.2239 
L 345.39858 353.2239 
L 374.184337 353.2239 
L 402.970095 353.2239 
L 431.755852 353.2239 
L 460.54161 353.2239 
L 489.327367 353.2239 
L 518.113125 353.2239 
L 546.898883 353.2239 
L 575.68464 353.2239 
L 604.470398 353.2239 
L 633.256155 353.2239 
L 662.041913 353.2239 
L 690.82767 353.2239 
L 719.613428 353.2239 
L 748.399186 353.2239 
L 777.184943 353.2239 
L 805.970701 353.2239 
L 834.756458 353.2239 
L 863.542216 353.2239 
L 892.327973 353.2239 
L 921.113731 353.2239 
L 949.899489 353.2239 
" style="fill:none;stroke:#91e8e1;stroke-linecap:square;"/>
   </g>
   <g id="line2d_67">
    <path clip-path="url(#p14acbe88c1)" d="M 86.326761 46.653089 
L 115.112519 342.434402 
L 143.898277 352.659538 
L 172.684034 353.186 
L 201.469792 353.219064 
L 230.255549 353.223505 
L 259.041307 353.223801 
L 287.827064 353.223801 
L 316.612822 353.2239 
L 345.39858 353.2239 
L 374.184337 353.2239 
L 402.970095 353.2239 
L 431.755852 353.2239 
L 460.54161 353.2239 
L 489.327367 353.2239 
L 518.113125 353.2239 
L 546.898883 353.2239 
L 575.68464 353.2239 
L 604.470398 353.2239 
L 633.256155 353.2239 
L 662.041913 353.2239 
L 690.82767 353.2239 
L 719.613428 353.2239 
L 748.399186 353.2239 
L 777.184943 353.2239 
L 805.970701 353.2239 
L 834.756458 353.2239 
L 863.542216 353.2239 
L 892.327973 353.2239 
L 921.113731 353.2239 
L 949.899489 353.2239 
" style="fill:none;stroke:#7cb5ec;stroke-linecap:square;"/>
   </g>
   <g id="line2d_68">
    <path clip-path="url(#p14acbe88c1)" d="M 86.326761 47.22783 
L 115.112519 341.968851 
L 143.898277 352.566299 
L 172.684034 353.170837 
L 201.469792 353.218559 
L 230.255549 353.223199 
L 259.041307 353.223725 
L 287.827064 353.2239 
L 316.612822 353.2239 
L 345.39858 353.2239 
L 374.184337 353.2239 
L 402.970095 353.2239 
L 431.755852 353.2239 
L 460.54161 353.2239 
L 489.327367 353.2239 
L 518.113125 353.2239 
L 546.898883 353.2239 
L 575.68464 353.2239 
L 604.470398 353.2239 
L 633.256155 353.2239 
L 662.041913 353.2239 
L 690.82767 353.2239 
L 719.613428 353.2239 
L 748.399186 353.2239 
L 777.184943 353.2239 
L 805.970701 353.2239 
L 834.756458 353.2239 
L 863.542216 353.2239 
L 892.327973 353.2239 
L 921.113731 353.2239 
L 949.899489 353.2239 
" style="fill:none;stroke:#434348;stroke-linecap:square;"/>
   </g>
   <g id="line2d_69">
    <path clip-path="url(#p14acbe88c1)" d="M 86.326761 45.00425 
L 115.112519 343.942907 
L 143.898277 352.788475 
L 172.684034 353.194752 
L 201.469792 353.22128 
L 230.255549 353.223736 
L 259.041307 353.2239 
L 287.827064 353.2239 
L 316.612822 353.2239 
L 345.39858 353.2239 
L 374.184337 353.2239 
L 402.970095 353.2239 
L 431.755852 353.2239 
L 460.54161 353.2239 
L 489.327367 353.2239 
L 518.113125 353.2239 
L 546.898883 353.2239 
L 575.68464 353.2239 
L 604.470398 353.2239 
L 633.256155 353.2239 
L 662.041913 353.2239 
L 690.82767 353.2239 
L 719.613428 353.2239 
L 748.399186 353.2239 
L 777.184943 353.2239 
L 805.970701 353.2239 
L 834.756458 353.2239 
L 863.542216 353.2239 
L 892.327973 353.2239 
L 921.113731 353.2239 
L 949.899489 353.2239 
" style="fill:none;stroke:#90ed7d;stroke-linecap:square;"/>
   </g>
   <g id="line2d_70">
    <path clip-path="url(#p14acbe88c1)" d="M 86.326761 47.794559 
L 115.112519 341.478065 
L 143.898277 352.502789 
L 172.684034 353.160598 
L 201.469792 353.215932 
L 230.255549 353.223457 
L 259.041307 353.2239 
L 287.827064 353.2239 
L 316.612822 353.2239 
L 345.39858 353.2239 
L 374.184337 353.2239 
L 402.970095 353.2239 
L 431.755852 353.2239 
L 460.54161 353.2239 
L 489.327367 353.2239 
L 518.113125 353.2239 
L 546.898883 353.2239 
L 575.68464 353.2239 
L 604.470398 353.2239 
L 633.256155 353.2239 
L 662.041913 353.2239 
L 690.82767 353.2239 
L 719.613428 353.2239 
L 748.399186 353.2239 
L 777.184943 353.2239 
L 805.970701 353.2239 
L 834.756458 353.2239 
L 863.542216 353.2239 
L 892.327973 353.2239 
L 921.113731 353.2239 
L 949.899489 353.2239 
" style="fill:none;stroke:#f7a35c;stroke-linecap:square;"/>
   </g>
   <g id="line2d_71">
    <path clip-path="url(#p14acbe88c1)" d="M 86.326761 47.015359 
L 115.112519 342.120571 
L 143.898277 352.620608 
L 172.684034 353.174989 
L 201.469792 353.220956 
L 230.255549 353.222919 
L 259.041307 353.2239 
L 287.827064 353.2239 
L 316.612822 353.2239 
L 345.39858 353.2239 
L 374.184337 353.2239 
L 402.970095 353.2239 
L 431.755852 353.2239 
L 460.54161 353.2239 
L 489.327367 353.2239 
L 518.113125 353.2239 
L 546.898883 353.2239 
L 575.68464 353.2239 
L 604.470398 353.2239 
L 633.256155 353.2239 
L 662.041913 353.2239 
L 690.82767 353.2239 
L 719.613428 353.2239 
L 748.399186 353.2239 
L 777.184943 353.2239 
L 805.970701 353.2239 
L 834.756458 353.2239 
L 863.542216 353.2239 
L 892.327973 353.2239 
L 921.113731 353.2239 
L 949.899489 353.2239 
" style="fill:none;stroke:#8085e9;stroke-linecap:square;"/>
   </g>
   <g id="line2d_72">
    <path clip-path="url(#p14acbe88c1)" d="M 86.326761 48.636796 
L 115.112519 340.663804 
L 143.898277 352.471695 
L 172.684034 353.160971 
L 201.469792 353.218763 
L 230.255549 353.223522 
L 259.041307 353.223824 
L 287.827064 353.223824 
L 316.612822 353.2239 
L 345.39858 353.2239 
L 374.184337 353.2239 
L 402.970095 353.2239 
L 431.755852 353.2239 
L 460.54161 353.2239 
L 489.327367 353.2239 
L 518.113125 353.2239 
L 546.898883 353.2239 
L 575.68464 353.2239 
L 604.470398 353.2239 
L 633.256155 353.2239 
L 662.041913 353.2239 
L 690.82767 353.2239 
L 719.613428 353.2239 
L 748.399186 353.2239 
L 777.184943 353.2239 
L 805.970701 353.2239 
L 834.756458 353.2239 
L 863.542216 353.2239 
L 892.327973 353.2239 
L 921.113731 353.2239 
L 949.899489 353.2239 
" style="fill:none;stroke:#f15c80;stroke-linecap:square;"/>
   </g>
   <g id="line2d_73">
    <path clip-path="url(#p14acbe88c1)" d="M 86.326761 48.843327 
L 115.112519 340.526914 
L 143.898277 352.419222 
L 172.684034 353.149073 
L 201.469792 353.215842 
L 230.255549 353.221598 
L 259.041307 353.223324 
L 287.827064 353.2239 
L 316.612822 353.2239 
L 345.39858 353.2239 
L 374.184337 353.2239 
L 402.970095 353.2239 
L 431.755852 353.2239 
L 460.54161 353.2239 
L 489.327367 353.2239 
L 518.113125 353.2239 
L 546.898883 353.2239 
L 575.68464 353.2239 
L 604.470398 353.2239 
L 633.256155 353.2239 
L 662.041913 353.2239 
L 690.82767 353.2239 
L 719.613428 353.2239 
L 748.399186 353.2239 
L 777.184943 353.2239 
L 805.970701 353.2239 
L 834.756458 353.2239 
L 863.542216 353.2239 
L 892.327973 353.2239 
L 921.113731 353.2239 
L 949.899489 353.2239 
" style="fill:none;stroke:#e4d354;stroke-linecap:square;"/>
   </g>
   <g id="line2d_74">
    <path clip-path="url(#p14acbe88c1)" d="M 86.326761 47.163236 
L 115.112519 342.028887 
L 143.898277 352.572937 
L 172.684034 353.16836 
L 201.469792 353.218795 
L 230.255549 353.22339 
L 259.041307 353.223798 
L 287.827064 353.223798 
L 316.612822 353.2239 
L 345.39858 353.2239 
L 374.184337 353.2239 
L 402.970095 353.2239 
L 431.755852 353.2239 
L 460.54161 353.2239 
L 489.327367 353.2239 
L 518.113125 353.2239 
L 546.898883 353.2239 
L 575.68464 353.2239 
L 604.470398 353.2239 
L 633.256155 353.2239 
L 662.041913 353.2239 
L 690.82767 353.2239 
L 719.613428 353.2239 
L 748.399186 353.2239 
L 777.184943 353.2239 
L 805.970701 353.2239 
L 834.756458 353.2239 
L 863.542216 353.2239 
L 892.327973 353.2239 
L 921.113731 353.2239 
L 949.899489 353.2239 
" style="fill:none;stroke:#2b908f;stroke-linecap:square;"/>
   </g>
   <g id="line2d_75">
    <path clip-path="url(#p14acbe88c1)" d="M 86.326761 43.615081 
L 115.112519 345.307942 
L 143.898277 352.816135 
L 172.684034 353.197307 
L 201.469792 353.216808 
L 230.255549 353.2239 
L 259.041307 353.222127 
L 287.827064 353.2239 
L 316.612822 353.2239 
L 345.39858 353.2239 
L 374.184337 353.2239 
L 402.970095 353.2239 
L 431.755852 353.2239 
L 460.54161 353.2239 
L 489.327367 353.2239 
L 518.113125 353.2239 
L 546.898883 353.2239 
L 575.68464 353.2239 
L 604.470398 353.2239 
L 633.256155 353.2239 
L 662.041913 353.2239 
L 690.82767 353.2239 
L 719.613428 353.2239 
L 748.399186 353.2239 
L 777.184943 353.2239 
L 805.970701 353.2239 
L 834.756458 353.2239 
L 863.542216 353.2239 
L 892.327973 353.2239 
L 921.113731 353.2239 
L 949.899489 353.2239 
" style="fill:none;stroke:#f45b5b;stroke-linecap:square;"/>
   </g>
   <g id="line2d_76">
    <path clip-path="url(#p14acbe88c1)" d="M 86.326761 42.80192 
L 115.112519 346.183693 
L 143.898277 352.76514 
L 172.684034 353.182729 
L 201.469792 353.220959 
L 230.255549 353.220959 
L 259.041307 353.2239 
L 287.827064 353.2239 
L 316.612822 353.2239 
L 345.39858 353.2239 
L 374.184337 353.2239 
L 402.970095 353.2239 
L 431.755852 353.2239 
L 460.54161 353.2239 
L 489.327367 353.2239 
L 518.113125 353.2239 
L 546.898883 353.2239 
L 575.68464 353.2239 
L 604.470398 353.2239 
L 633.256155 353.2239 
L 662.041913 353.2239 
L 690.82767 353.2239 
L 719.613428 353.2239 
L 748.399186 353.2239 
L 777.184943 353.2239 
L 805.970701 353.2239 
L 834.756458 353.2239 
L 863.542216 353.2239 
L 892.327973 353.2239 
L 921.113731 353.2239 
L 949.899489 353.2239 
" style="fill:none;stroke:#91e8e1;stroke-linecap:square;"/>
   </g>
   <g id="line2d_77">
    <path clip-path="url(#p14acbe88c1)" d="M 86.326761 49.067242 
L 115.112519 340.316163 
L 143.898277 352.399101 
L 172.684034 353.154969 
L 201.469792 353.215308 
L 230.255549 353.222715 
L 259.041307 353.223801 
L 287.827064 353.2239 
L 316.612822 353.2239 
L 345.39858 353.2239 
L 374.184337 353.2239 
L 402.970095 353.2239 
L 431.755852 353.2239 
L 460.54161 353.2239 
L 489.327367 353.2239 
L 518.113125 353.2239 
L 546.898883 353.2239 
L 575.68464 353.2239 
L 604.470398 353.2239 
L 633.256155 353.2239 
L 662.041913 353.2239 
L 690.82767 353.2239 
L 719.613428 353.2239 
L 748.399186 353.2239 
L 777.184943 353.2239 
L 805.970701 353.2239 
L 834.756458 353.2239 
L 863.542216 353.2239 
L 892.327973 353.2239 
L 921.113731 353.2239 
L 949.899489 353.2239 
" style="fill:none;stroke:#7cb5ec;stroke-linecap:square;"/>
   </g>
   <g id="line2d_78">
    <path clip-path="url(#p14acbe88c1)" d="M 43.148125 353.2239 
L 993.078125 353.2239 
" style="fill:none;stroke:#dedede;stroke-linecap:square;stroke-width:2;"/>
   </g>
   <g id="text_16">
    <!-- Fastp: Duplication Rate -->
    <defs>
     <path d="M 9.8125 72.90625 
L 51.703125 72.90625 
L 51.703125 64.59375 
L 19.671875 64.59375 
L 19.671875 43.109375 
L 48.578125 43.109375 
L 48.578125 34.8125 
L 19.671875 34.8125 
L 19.671875 0 
L 9.8125 0 
z
" id="DejaVuSans-70"/>
     <path d="M 44.28125 53.078125 
L 44.28125 44.578125 
Q 40.484375 46.53125 36.375 47.5 
Q 32.28125 48.484375 27.875 48.484375 
Q 21.1875 48.484375 17.84375 46.4375 
Q 14.5 44.390625 14.5 40.28125 
Q 14.5 37.15625 16.890625 35.375 
Q 19.28125 33.59375 26.515625 31.984375 
L 29.59375 31.296875 
Q 39.15625 29.25 43.1875 25.515625 
Q 47.21875 21.78125 47.21875 15.09375 
Q 47.21875 7.46875 41.1875 3.015625 
Q 35.15625 -1.421875 24.609375 -1.421875 
Q 20.21875 -1.421875 15.453125 -0.5625 
Q 10.6875 0.296875 5.421875 2 
L 5.421875 11.28125 
Q 10.40625 8.6875 15.234375 7.390625 
Q 20.0625 6.109375 24.8125 6.109375 
Q 31.15625 6.109375 34.5625 8.28125 
Q 37.984375 10.453125 37.984375 14.40625 
Q 37.984375 18.0625 35.515625 20.015625 
Q 33.0625 21.96875 24.703125 23.78125 
L 21.578125 24.515625 
Q 13.234375 26.265625 9.515625 29.90625 
Q 5.8125 33.546875 5.8125 39.890625 
Q 5.8125 47.609375 11.28125 51.796875 
Q 16.75 56 26.8125 56 
Q 31.78125 56 36.171875 55.265625 
Q 40.578125 54.546875 44.28125 53.078125 
z
" id="DejaVuSans-115"/>
     <path d="M 11.71875 12.40625 
L 22.015625 12.40625 
L 22.015625 0 
L 11.71875 0 
z
M 11.71875 51.703125 
L 22.015625 51.703125 
L 22.015625 39.3125 
L 11.71875 39.3125 
z
" id="DejaVuSans-58"/>
    </defs>
    <g transform="translate(424.561875 19.3575)scale(0.16 -0.16)">
     <use xlink:href="#DejaVuSans-70"/>
     <use x="57.378906" xlink:href="#DejaVuSans-97"/>
     <use x="118.658203" xlink:href="#DejaVuSans-115"/>
     <use x="170.757812" xlink:href="#DejaVuSans-116"/>
     <use x="209.966797" xlink:href="#DejaVuSans-112"/>
     <use x="273.443359" xlink:href="#DejaVuSans-58"/>
     <use x="307.134766" xlink:href="#DejaVuSans-32"/>
     <use x="338.921875" xlink:href="#DejaVuSans-68"/>
     <use x="415.923828" xlink:href="#DejaVuSans-117"/>
     <use x="479.302734" xlink:href="#DejaVuSans-112"/>
     <use x="542.779297" xlink:href="#DejaVuSans-108"/>
     <use x="570.5625" xlink:href="#DejaVuSans-105"/>
     <use x="598.345703" xlink:href="#DejaVuSans-99"/>
     <use x="653.326172" xlink:href="#DejaVuSans-97"/>
     <use x="714.605469" xlink:href="#DejaVuSans-116"/>
     <use x="753.814453" xlink:href="#DejaVuSans-105"/>
     <use x="781.597656" xlink:href="#DejaVuSans-111"/>
     <use x="842.779297" xlink:href="#DejaVuSans-110"/>
     <use x="906.158203" xlink:href="#DejaVuSans-32"/>
     <use x="937.945312" xlink:href="#DejaVuSans-82"/>
     <use x="1007.396484" xlink:href="#DejaVuSans-97"/>
     <use x="1068.675781" xlink:href="#DejaVuSans-116"/>
     <use x="1107.884766" xlink:href="#DejaVuSans-101"/>
    </g>
   </g>
  </g>
 </g>
 <defs>
  <clipPath id="p14acbe88c1">
   <rect height="317.968" width="949.93" x="43.148125" y="35.2559"/>
  </clipPath>
 </defs>
</svg>
