<?xml version="1.0" encoding="utf-8" standalone="no"?>
<!DOCTYPE svg PUBLIC "-//W3C//DTD SVG 1.1//EN"
  "http://www.w3.org/Graphics/SVG/1.1/DTD/svg11.dtd">
<!-- Created with matplotlib (https://matplotlib.org/) -->
<svg height="388.844525pt" version="1.1" viewBox="0 0 1000.358125 388.844525" width="1000.358125pt" xmlns="http://www.w3.org/2000/svg" xmlns:xlink="http://www.w3.org/1999/xlink">
 <defs>
  <style type="text/css">
*{stroke-linecap:butt;stroke-linejoin:round;}
  </style>
 </defs>
 <g id="figure_1">
  <g id="axes_1">
   <g id="patch_1">
    <path d="M 32.968125 353.2239 
L 993.158125 353.2239 
L 993.158125 35.2559 
L 32.968125 35.2559 
z
" style="fill:#ffffff;"/>
   </g>
   <g id="matplotlib.axis_1">
    <g id="xtick_1">
     <g id="text_1">
      <!-- 0 -->
      <defs>
       <path d="M 31.78125 66.40625 
Q 24.171875 66.40625 20.328125 58.90625 
Q 16.5 51.421875 16.5 36.375 
Q 16.5 21.390625 20.328125 13.890625 
Q 24.171875 6.390625 31.78125 6.390625 
Q 39.453125 6.390625 43.28125 13.890625 
Q 47.125 21.390625 47.125 36.375 
Q 47.125 51.421875 43.28125 58.90625 
Q 39.453125 66.40625 31.78125 66.40625 
z
M 31.78125 74.21875 
Q 44.046875 74.21875 50.515625 64.515625 
Q 56.984375 54.828125 56.984375 36.375 
Q 56.984375 17.96875 50.515625 8.265625 
Q 44.046875 -1.421875 31.78125 -1.421875 
Q 19.53125 -1.421875 13.0625 8.265625 
Q 6.59375 17.96875 6.59375 36.375 
Q 6.59375 54.828125 13.0625 64.515625 
Q 19.53125 74.21875 31.78125 74.21875 
z
" id="DejaVuSans-48"/>
      </defs>
      <g transform="translate(68.209736 366.30265)scale(0.08 -0.08)">
       <use xlink:href="#DejaVuSans-48"/>
      </g>
     </g>
    </g>
    <g id="xtick_2">
     <g id="text_2">
      <!-- 20 -->
      <defs>
       <path d="M 19.1875 8.296875 
L 53.609375 8.296875 
L 53.609375 0 
L 7.328125 0 
L 7.328125 8.296875 
Q 12.9375 14.109375 22.625 23.890625 
Q 32.328125 33.6875 34.8125 36.53125 
Q 39.546875 41.84375 41.421875 45.53125 
Q 43.3125 49.21875 43.3125 52.78125 
Q 43.3125 58.59375 39.234375 62.25 
Q 35.15625 65.921875 28.609375 65.921875 
Q 23.96875 65.921875 18.8125 64.3125 
Q 13.671875 62.703125 7.8125 59.421875 
L 7.8125 69.390625 
Q 13.765625 71.78125 18.9375 73 
Q 24.125 74.21875 28.421875 74.21875 
Q 39.75 74.21875 46.484375 68.546875 
Q 53.21875 62.890625 53.21875 53.421875 
Q 53.21875 48.921875 51.53125 44.890625 
Q 49.859375 40.875 45.40625 35.40625 
Q 44.1875 33.984375 37.640625 27.21875 
Q 31.109375 20.453125 19.1875 8.296875 
z
" id="DejaVuSans-50"/>
      </defs>
      <g transform="translate(182.832521 366.30265)scale(0.08 -0.08)">
       <use xlink:href="#DejaVuSans-50"/>
       <use x="63.623047" xlink:href="#DejaVuSans-48"/>
      </g>
     </g>
    </g>
    <g id="xtick_3">
     <g id="text_3">
      <!-- 40 -->
      <defs>
       <path d="M 37.796875 64.3125 
L 12.890625 25.390625 
L 37.796875 25.390625 
z
M 35.203125 72.90625 
L 47.609375 72.90625 
L 47.609375 25.390625 
L 58.015625 25.390625 
L 58.015625 17.1875 
L 47.609375 17.1875 
L 47.609375 0 
L 37.796875 0 
L 37.796875 17.1875 
L 4.890625 17.1875 
L 4.890625 26.703125 
z
" id="DejaVuSans-52"/>
      </defs>
      <g transform="translate(300.000306 366.30265)scale(0.08 -0.08)">
       <use xlink:href="#DejaVuSans-52"/>
       <use x="63.623047" xlink:href="#DejaVuSans-48"/>
      </g>
     </g>
    </g>
    <g id="xtick_4">
     <g id="text_4">
      <!-- 60 -->
      <defs>
       <path d="M 33.015625 40.375 
Q 26.375 40.375 22.484375 35.828125 
Q 18.609375 31.296875 18.609375 23.390625 
Q 18.609375 15.53125 22.484375 10.953125 
Q 26.375 6.390625 33.015625 6.390625 
Q 39.65625 6.390625 43.53125 10.953125 
Q 47.40625 15.53125 47.40625 23.390625 
Q 47.40625 31.296875 43.53125 35.828125 
Q 39.65625 40.375 33.015625 40.375 
z
M 52.59375 71.296875 
L 52.59375 62.3125 
Q 48.875 64.0625 45.09375 64.984375 
Q 41.3125 65.921875 37.59375 65.921875 
Q 27.828125 65.921875 22.671875 59.328125 
Q 17.53125 52.734375 16.796875 39.40625 
Q 19.671875 43.65625 24.015625 45.921875 
Q 28.375 48.1875 33.59375 48.1875 
Q 44.578125 48.1875 50.953125 41.515625 
Q 57.328125 34.859375 57.328125 23.390625 
Q 57.328125 12.15625 50.6875 5.359375 
Q 44.046875 -1.421875 33.015625 -1.421875 
Q 20.359375 -1.421875 13.671875 8.265625 
Q 6.984375 17.96875 6.984375 36.375 
Q 6.984375 53.65625 15.1875 63.9375 
Q 23.390625 74.21875 37.203125 74.21875 
Q 40.921875 74.21875 44.703125 73.484375 
Q 48.484375 72.75 52.59375 71.296875 
z
" id="DejaVuSans-54"/>
      </defs>
      <g transform="translate(417.168091 366.30265)scale(0.08 -0.08)">
       <use xlink:href="#DejaVuSans-54"/>
       <use x="63.623047" xlink:href="#DejaVuSans-48"/>
      </g>
     </g>
    </g>
    <g id="xtick_5">
     <g id="text_5">
      <!-- 80 -->
      <defs>
       <path d="M 31.78125 34.625 
Q 24.75 34.625 20.71875 30.859375 
Q 16.703125 27.09375 16.703125 20.515625 
Q 16.703125 13.921875 20.71875 10.15625 
Q 24.75 6.390625 31.78125 6.390625 
Q 38.8125 6.390625 42.859375 10.171875 
Q 46.921875 13.96875 46.921875 20.515625 
Q 46.921875 27.09375 42.890625 30.859375 
Q 38.875 34.625 31.78125 34.625 
z
M 21.921875 38.8125 
Q 15.578125 40.375 12.03125 44.71875 
Q 8.5 49.078125 8.5 55.328125 
Q 8.5 64.0625 14.71875 69.140625 
Q 20.953125 74.21875 31.78125 74.21875 
Q 42.671875 74.21875 48.875 69.140625 
Q 55.078125 64.0625 55.078125 55.328125 
Q 55.078125 49.078125 51.53125 44.71875 
Q 48 40.375 41.703125 38.8125 
Q 48.828125 37.15625 52.796875 32.3125 
Q 56.78125 27.484375 56.78125 20.515625 
Q 56.78125 9.90625 50.3125 4.234375 
Q 43.84375 -1.421875 31.78125 -1.421875 
Q 19.734375 -1.421875 13.25 4.234375 
Q 6.78125 9.90625 6.78125 20.515625 
Q 6.78125 27.484375 10.78125 32.3125 
Q 14.796875 37.15625 21.921875 38.8125 
z
M 18.3125 54.390625 
Q 18.3125 48.734375 21.84375 45.5625 
Q 25.390625 42.390625 31.78125 42.390625 
Q 38.140625 42.390625 41.71875 45.5625 
Q 45.3125 48.734375 45.3125 54.390625 
Q 45.3125 60.0625 41.71875 63.234375 
Q 38.140625 66.40625 31.78125 66.40625 
Q 25.390625 66.40625 21.84375 63.234375 
Q 18.3125 60.0625 18.3125 54.390625 
z
" id="DejaVuSans-56"/>
      </defs>
      <g transform="translate(534.335877 366.30265)scale(0.08 -0.08)">
       <use xlink:href="#DejaVuSans-56"/>
       <use x="63.623047" xlink:href="#DejaVuSans-48"/>
      </g>
     </g>
    </g>
    <g id="xtick_6">
     <g id="text_6">
      <!-- 100 -->
      <defs>
       <path d="M 12.40625 8.296875 
L 28.515625 8.296875 
L 28.515625 63.921875 
L 10.984375 60.40625 
L 10.984375 69.390625 
L 28.421875 72.90625 
L 38.28125 72.90625 
L 38.28125 8.296875 
L 54.390625 8.296875 
L 54.390625 0 
L 12.40625 0 
z
" id="DejaVuSans-49"/>
      </defs>
      <g transform="translate(648.958662 366.30265)scale(0.08 -0.08)">
       <use xlink:href="#DejaVuSans-49"/>
       <use x="63.623047" xlink:href="#DejaVuSans-48"/>
       <use x="127.246094" xlink:href="#DejaVuSans-48"/>
      </g>
     </g>
    </g>
    <g id="xtick_7">
     <g id="text_7">
      <!-- 120 -->
      <g transform="translate(766.126447 366.30265)scale(0.08 -0.08)">
       <use xlink:href="#DejaVuSans-49"/>
       <use x="63.623047" xlink:href="#DejaVuSans-50"/>
       <use x="127.246094" xlink:href="#DejaVuSans-48"/>
      </g>
     </g>
    </g>
    <g id="xtick_8">
     <g id="text_8">
      <!-- 140 -->
      <g transform="translate(883.294232 366.30265)scale(0.08 -0.08)">
       <use xlink:href="#DejaVuSans-49"/>
       <use x="63.623047" xlink:href="#DejaVuSans-52"/>
       <use x="127.246094" xlink:href="#DejaVuSans-48"/>
      </g>
     </g>
    </g>
    <g id="text_9">
     <!-- Read Position -->
     <defs>
      <path d="M 44.390625 34.1875 
Q 47.5625 33.109375 50.5625 29.59375 
Q 53.5625 26.078125 56.59375 19.921875 
L 66.609375 0 
L 56 0 
L 46.6875 18.703125 
Q 43.0625 26.03125 39.671875 28.421875 
Q 36.28125 30.8125 30.421875 30.8125 
L 19.671875 30.8125 
L 19.671875 0 
L 9.8125 0 
L 9.8125 72.90625 
L 32.078125 72.90625 
Q 44.578125 72.90625 50.734375 67.671875 
Q 56.890625 62.453125 56.890625 51.90625 
Q 56.890625 45.015625 53.6875 40.46875 
Q 50.484375 35.9375 44.390625 34.1875 
z
M 19.671875 64.796875 
L 19.671875 38.921875 
L 32.078125 38.921875 
Q 39.203125 38.921875 42.84375 42.21875 
Q 46.484375 45.515625 46.484375 51.90625 
Q 46.484375 58.296875 42.84375 61.546875 
Q 39.203125 64.796875 32.078125 64.796875 
z
" id="DejaVuSans-82"/>
      <path d="M 56.203125 29.59375 
L 56.203125 25.203125 
L 14.890625 25.203125 
Q 15.484375 15.921875 20.484375 11.0625 
Q 25.484375 6.203125 34.421875 6.203125 
Q 39.59375 6.203125 44.453125 7.46875 
Q 49.3125 8.734375 54.109375 11.28125 
L 54.109375 2.78125 
Q 49.265625 0.734375 44.1875 -0.34375 
Q 39.109375 -1.421875 33.890625 -1.421875 
Q 20.796875 -1.421875 13.15625 6.1875 
Q 5.515625 13.8125 5.515625 26.8125 
Q 5.515625 40.234375 12.765625 48.109375 
Q 20.015625 56 32.328125 56 
Q 43.359375 56 49.78125 48.890625 
Q 56.203125 41.796875 56.203125 29.59375 
z
M 47.21875 32.234375 
Q 47.125 39.59375 43.09375 43.984375 
Q 39.0625 48.390625 32.421875 48.390625 
Q 24.90625 48.390625 20.390625 44.140625 
Q 15.875 39.890625 15.1875 32.171875 
z
" id="DejaVuSans-101"/>
      <path d="M 34.28125 27.484375 
Q 23.390625 27.484375 19.1875 25 
Q 14.984375 22.515625 14.984375 16.5 
Q 14.984375 11.71875 18.140625 8.90625 
Q 21.296875 6.109375 26.703125 6.109375 
Q 34.1875 6.109375 38.703125 11.40625 
Q 43.21875 16.703125 43.21875 25.484375 
L 43.21875 27.484375 
z
M 52.203125 31.203125 
L 52.203125 0 
L 43.21875 0 
L 43.21875 8.296875 
Q 40.140625 3.328125 35.546875 0.953125 
Q 30.953125 -1.421875 24.3125 -1.421875 
Q 15.921875 -1.421875 10.953125 3.296875 
Q 6 8.015625 6 15.921875 
Q 6 25.140625 12.171875 29.828125 
Q 18.359375 34.515625 30.609375 34.515625 
L 43.21875 34.515625 
L 43.21875 35.40625 
Q 43.21875 41.609375 39.140625 45 
Q 35.0625 48.390625 27.6875 48.390625 
Q 23 48.390625 18.546875 47.265625 
Q 14.109375 46.140625 10.015625 43.890625 
L 10.015625 52.203125 
Q 14.9375 54.109375 19.578125 55.046875 
Q 24.21875 56 28.609375 56 
Q 40.484375 56 46.34375 49.84375 
Q 52.203125 43.703125 52.203125 31.203125 
z
" id="DejaVuSans-97"/>
      <path d="M 45.40625 46.390625 
L 45.40625 75.984375 
L 54.390625 75.984375 
L 54.390625 0 
L 45.40625 0 
L 45.40625 8.203125 
Q 42.578125 3.328125 38.25 0.953125 
Q 33.9375 -1.421875 27.875 -1.421875 
Q 17.96875 -1.421875 11.734375 6.484375 
Q 5.515625 14.40625 5.515625 27.296875 
Q 5.515625 40.1875 11.734375 48.09375 
Q 17.96875 56 27.875 56 
Q 33.9375 56 38.25 53.625 
Q 42.578125 51.265625 45.40625 46.390625 
z
M 14.796875 27.296875 
Q 14.796875 17.390625 18.875 11.75 
Q 22.953125 6.109375 30.078125 6.109375 
Q 37.203125 6.109375 41.296875 11.75 
Q 45.40625 17.390625 45.40625 27.296875 
Q 45.40625 37.203125 41.296875 42.84375 
Q 37.203125 48.484375 30.078125 48.484375 
Q 22.953125 48.484375 18.875 42.84375 
Q 14.796875 37.203125 14.796875 27.296875 
z
" id="DejaVuSans-100"/>
      <path id="DejaVuSans-32"/>
      <path d="M 19.671875 64.796875 
L 19.671875 37.40625 
L 32.078125 37.40625 
Q 38.96875 37.40625 42.71875 40.96875 
Q 46.484375 44.53125 46.484375 51.125 
Q 46.484375 57.671875 42.71875 61.234375 
Q 38.96875 64.796875 32.078125 64.796875 
z
M 9.8125 72.90625 
L 32.078125 72.90625 
Q 44.34375 72.90625 50.609375 67.359375 
Q 56.890625 61.8125 56.890625 51.125 
Q 56.890625 40.328125 50.609375 34.8125 
Q 44.34375 29.296875 32.078125 29.296875 
L 19.671875 29.296875 
L 19.671875 0 
L 9.8125 0 
z
" id="DejaVuSans-80"/>
      <path d="M 30.609375 48.390625 
Q 23.390625 48.390625 19.1875 42.75 
Q 14.984375 37.109375 14.984375 27.296875 
Q 14.984375 17.484375 19.15625 11.84375 
Q 23.34375 6.203125 30.609375 6.203125 
Q 37.796875 6.203125 41.984375 11.859375 
Q 46.1875 17.53125 46.1875 27.296875 
Q 46.1875 37.015625 41.984375 42.703125 
Q 37.796875 48.390625 30.609375 48.390625 
z
M 30.609375 56 
Q 42.328125 56 49.015625 48.375 
Q 55.71875 40.765625 55.71875 27.296875 
Q 55.71875 13.875 49.015625 6.21875 
Q 42.328125 -1.421875 30.609375 -1.421875 
Q 18.84375 -1.421875 12.171875 6.21875 
Q 5.515625 13.875 5.515625 27.296875 
Q 5.515625 40.765625 12.171875 48.375 
Q 18.84375 56 30.609375 56 
z
" id="DejaVuSans-111"/>
      <path d="M 44.28125 53.078125 
L 44.28125 44.578125 
Q 40.484375 46.53125 36.375 47.5 
Q 32.28125 48.484375 27.875 48.484375 
Q 21.1875 48.484375 17.84375 46.4375 
Q 14.5 44.390625 14.5 40.28125 
Q 14.5 37.15625 16.890625 35.375 
Q 19.28125 33.59375 26.515625 31.984375 
L 29.59375 31.296875 
Q 39.15625 29.25 43.1875 25.515625 
Q 47.21875 21.78125 47.21875 15.09375 
Q 47.21875 7.46875 41.1875 3.015625 
Q 35.15625 -1.421875 24.609375 -1.421875 
Q 20.21875 -1.421875 15.453125 -0.5625 
Q 10.6875 0.296875 5.421875 2 
L 5.421875 11.28125 
Q 10.40625 8.6875 15.234375 7.390625 
Q 20.0625 6.109375 24.8125 6.109375 
Q 31.15625 6.109375 34.5625 8.28125 
Q 37.984375 10.453125 37.984375 14.40625 
Q 37.984375 18.0625 35.515625 20.015625 
Q 33.0625 21.96875 24.703125 23.78125 
L 21.578125 24.515625 
Q 13.234375 26.265625 9.515625 29.90625 
Q 5.8125 33.546875 5.8125 39.890625 
Q 5.8125 47.609375 11.28125 51.796875 
Q 16.75 56 26.8125 56 
Q 31.78125 56 36.171875 55.265625 
Q 40.578125 54.546875 44.28125 53.078125 
z
" id="DejaVuSans-115"/>
      <path d="M 9.421875 54.6875 
L 18.40625 54.6875 
L 18.40625 0 
L 9.421875 0 
z
M 9.421875 75.984375 
L 18.40625 75.984375 
L 18.40625 64.59375 
L 9.421875 64.59375 
z
" id="DejaVuSans-105"/>
      <path d="M 18.3125 70.21875 
L 18.3125 54.6875 
L 36.8125 54.6875 
L 36.8125 47.703125 
L 18.3125 47.703125 
L 18.3125 18.015625 
Q 18.3125 11.328125 20.140625 9.421875 
Q 21.96875 7.515625 27.59375 7.515625 
L 36.8125 7.515625 
L 36.8125 0 
L 27.59375 0 
Q 17.1875 0 13.234375 3.875 
Q 9.28125 7.765625 9.28125 18.015625 
L 9.28125 47.703125 
L 2.6875 47.703125 
L 2.6875 54.6875 
L 9.28125 54.6875 
L 9.28125 70.21875 
z
" id="DejaVuSans-116"/>
      <path d="M 54.890625 33.015625 
L 54.890625 0 
L 45.90625 0 
L 45.90625 32.71875 
Q 45.90625 40.484375 42.875 44.328125 
Q 39.84375 48.1875 33.796875 48.1875 
Q 26.515625 48.1875 22.3125 43.546875 
Q 18.109375 38.921875 18.109375 30.90625 
L 18.109375 0 
L 9.078125 0 
L 9.078125 54.6875 
L 18.109375 54.6875 
L 18.109375 46.1875 
Q 21.34375 51.125 25.703125 53.5625 
Q 30.078125 56 35.796875 56 
Q 45.21875 56 50.046875 50.171875 
Q 54.890625 44.34375 54.890625 33.015625 
z
" id="DejaVuSans-110"/>
     </defs>
     <g transform="translate(479.045156 379.564837)scale(0.1 -0.1)">
      <use xlink:href="#DejaVuSans-82"/>
      <use x="69.419922" xlink:href="#DejaVuSans-101"/>
      <use x="130.943359" xlink:href="#DejaVuSans-97"/>
      <use x="192.222656" xlink:href="#DejaVuSans-100"/>
      <use x="255.699219" xlink:href="#DejaVuSans-32"/>
      <use x="287.486328" xlink:href="#DejaVuSans-80"/>
      <use x="347.742188" xlink:href="#DejaVuSans-111"/>
      <use x="408.923828" xlink:href="#DejaVuSans-115"/>
      <use x="461.023438" xlink:href="#DejaVuSans-105"/>
      <use x="488.806641" xlink:href="#DejaVuSans-116"/>
      <use x="528.015625" xlink:href="#DejaVuSans-105"/>
      <use x="555.798828" xlink:href="#DejaVuSans-111"/>
      <use x="616.980469" xlink:href="#DejaVuSans-110"/>
     </g>
    </g>
   </g>
   <g id="matplotlib.axis_2">
    <g id="ytick_1">
     <g id="line2d_1">
      <path clip-path="url(#pd8423d5f6a)" d="M 32.968125 353.2239 
L 993.158125 353.2239 
" style="fill:none;stroke:#dedede;stroke-linecap:square;"/>
     </g>
     <g id="text_10">
      <!-- 0 -->
      <g transform="translate(20.878125 356.263275)scale(0.08 -0.08)">
       <use xlink:href="#DejaVuSans-48"/>
      </g>
     </g>
    </g>
    <g id="ytick_2">
     <g id="line2d_2">
      <path clip-path="url(#pd8423d5f6a)" d="M 32.968125 289.6303 
L 993.158125 289.6303 
" style="fill:none;stroke:#dedede;stroke-linecap:square;"/>
     </g>
     <g id="text_11">
      <!-- 1 -->
      <g transform="translate(20.878125 292.669675)scale(0.08 -0.08)">
       <use xlink:href="#DejaVuSans-49"/>
      </g>
     </g>
    </g>
    <g id="ytick_3">
     <g id="line2d_3">
      <path clip-path="url(#pd8423d5f6a)" d="M 32.968125 226.0367 
L 993.158125 226.0367 
" style="fill:none;stroke:#dedede;stroke-linecap:square;"/>
     </g>
     <g id="text_12">
      <!-- 2 -->
      <g transform="translate(20.878125 229.076075)scale(0.08 -0.08)">
       <use xlink:href="#DejaVuSans-50"/>
      </g>
     </g>
    </g>
    <g id="ytick_4">
     <g id="line2d_4">
      <path clip-path="url(#pd8423d5f6a)" d="M 32.968125 162.4431 
L 993.158125 162.4431 
" style="fill:none;stroke:#dedede;stroke-linecap:square;"/>
     </g>
     <g id="text_13">
      <!-- 3 -->
      <defs>
       <path d="M 40.578125 39.3125 
Q 47.65625 37.796875 51.625 33 
Q 55.609375 28.21875 55.609375 21.1875 
Q 55.609375 10.40625 48.1875 4.484375 
Q 40.765625 -1.421875 27.09375 -1.421875 
Q 22.515625 -1.421875 17.65625 -0.515625 
Q 12.796875 0.390625 7.625 2.203125 
L 7.625 11.71875 
Q 11.71875 9.328125 16.59375 8.109375 
Q 21.484375 6.890625 26.8125 6.890625 
Q 36.078125 6.890625 40.9375 10.546875 
Q 45.796875 14.203125 45.796875 21.1875 
Q 45.796875 27.640625 41.28125 31.265625 
Q 36.765625 34.90625 28.71875 34.90625 
L 20.21875 34.90625 
L 20.21875 43.015625 
L 29.109375 43.015625 
Q 36.375 43.015625 40.234375 45.921875 
Q 44.09375 48.828125 44.09375 54.296875 
Q 44.09375 59.90625 40.109375 62.90625 
Q 36.140625 65.921875 28.71875 65.921875 
Q 24.65625 65.921875 20.015625 65.03125 
Q 15.375 64.15625 9.8125 62.3125 
L 9.8125 71.09375 
Q 15.4375 72.65625 20.34375 73.4375 
Q 25.25 74.21875 29.59375 74.21875 
Q 40.828125 74.21875 47.359375 69.109375 
Q 53.90625 64.015625 53.90625 55.328125 
Q 53.90625 49.265625 50.4375 45.09375 
Q 46.96875 40.921875 40.578125 39.3125 
z
" id="DejaVuSans-51"/>
      </defs>
      <g transform="translate(20.878125 165.482475)scale(0.08 -0.08)">
       <use xlink:href="#DejaVuSans-51"/>
      </g>
     </g>
    </g>
    <g id="ytick_5">
     <g id="line2d_5">
      <path clip-path="url(#pd8423d5f6a)" d="M 32.968125 98.8495 
L 993.158125 98.8495 
" style="fill:none;stroke:#dedede;stroke-linecap:square;"/>
     </g>
     <g id="text_14">
      <!-- 4 -->
      <g transform="translate(20.878125 101.888875)scale(0.08 -0.08)">
       <use xlink:href="#DejaVuSans-52"/>
      </g>
     </g>
    </g>
    <g id="ytick_6">
     <g id="line2d_6">
      <path clip-path="url(#pd8423d5f6a)" d="M 32.968125 35.2559 
L 993.158125 35.2559 
" style="fill:none;stroke:#dedede;stroke-linecap:square;"/>
     </g>
     <g id="text_15">
      <!-- 5 -->
      <defs>
       <path d="M 10.796875 72.90625 
L 49.515625 72.90625 
L 49.515625 64.59375 
L 19.828125 64.59375 
L 19.828125 46.734375 
Q 21.96875 47.46875 24.109375 47.828125 
Q 26.265625 48.1875 28.421875 48.1875 
Q 40.625 48.1875 47.75 41.5 
Q 54.890625 34.8125 54.890625 23.390625 
Q 54.890625 11.625 47.5625 5.09375 
Q 40.234375 -1.421875 26.90625 -1.421875 
Q 22.3125 -1.421875 17.546875 -0.640625 
Q 12.796875 0.140625 7.71875 1.703125 
L 7.71875 11.625 
Q 12.109375 9.234375 16.796875 8.0625 
Q 21.484375 6.890625 26.703125 6.890625 
Q 35.15625 6.890625 40.078125 11.328125 
Q 45.015625 15.765625 45.015625 23.390625 
Q 45.015625 31 40.078125 35.4375 
Q 35.15625 39.890625 26.703125 39.890625 
Q 22.75 39.890625 18.8125 39.015625 
Q 14.890625 38.140625 10.796875 36.28125 
z
" id="DejaVuSans-53"/>
      </defs>
      <g transform="translate(20.878125 38.295275)scale(0.08 -0.08)">
       <use xlink:href="#DejaVuSans-53"/>
      </g>
     </g>
    </g>
    <g id="text_16">
     <!-- R1 Before filtering: Base Content Percent -->
     <defs>
      <path d="M 19.671875 34.8125 
L 19.671875 8.109375 
L 35.5 8.109375 
Q 43.453125 8.109375 47.28125 11.40625 
Q 51.125 14.703125 51.125 21.484375 
Q 51.125 28.328125 47.28125 31.5625 
Q 43.453125 34.8125 35.5 34.8125 
z
M 19.671875 64.796875 
L 19.671875 42.828125 
L 34.28125 42.828125 
Q 41.5 42.828125 45.03125 45.53125 
Q 48.578125 48.25 48.578125 53.8125 
Q 48.578125 59.328125 45.03125 62.0625 
Q 41.5 64.796875 34.28125 64.796875 
z
M 9.8125 72.90625 
L 35.015625 72.90625 
Q 46.296875 72.90625 52.390625 68.21875 
Q 58.5 63.53125 58.5 54.890625 
Q 58.5 48.1875 55.375 44.234375 
Q 52.25 40.28125 46.1875 39.3125 
Q 53.46875 37.75 57.5 32.78125 
Q 61.53125 27.828125 61.53125 20.40625 
Q 61.53125 10.640625 54.890625 5.3125 
Q 48.25 0 35.984375 0 
L 9.8125 0 
z
" id="DejaVuSans-66"/>
      <path d="M 37.109375 75.984375 
L 37.109375 68.5 
L 28.515625 68.5 
Q 23.6875 68.5 21.796875 66.546875 
Q 19.921875 64.59375 19.921875 59.515625 
L 19.921875 54.6875 
L 34.71875 54.6875 
L 34.71875 47.703125 
L 19.921875 47.703125 
L 19.921875 0 
L 10.890625 0 
L 10.890625 47.703125 
L 2.296875 47.703125 
L 2.296875 54.6875 
L 10.890625 54.6875 
L 10.890625 58.5 
Q 10.890625 67.625 15.140625 71.796875 
Q 19.390625 75.984375 28.609375 75.984375 
z
" id="DejaVuSans-102"/>
      <path d="M 41.109375 46.296875 
Q 39.59375 47.171875 37.8125 47.578125 
Q 36.03125 48 33.890625 48 
Q 26.265625 48 22.1875 43.046875 
Q 18.109375 38.09375 18.109375 28.8125 
L 18.109375 0 
L 9.078125 0 
L 9.078125 54.6875 
L 18.109375 54.6875 
L 18.109375 46.1875 
Q 20.953125 51.171875 25.484375 53.578125 
Q 30.03125 56 36.53125 56 
Q 37.453125 56 38.578125 55.875 
Q 39.703125 55.765625 41.0625 55.515625 
z
" id="DejaVuSans-114"/>
      <path d="M 9.421875 75.984375 
L 18.40625 75.984375 
L 18.40625 0 
L 9.421875 0 
z
" id="DejaVuSans-108"/>
      <path d="M 45.40625 27.984375 
Q 45.40625 37.75 41.375 43.109375 
Q 37.359375 48.484375 30.078125 48.484375 
Q 22.859375 48.484375 18.828125 43.109375 
Q 14.796875 37.75 14.796875 27.984375 
Q 14.796875 18.265625 18.828125 12.890625 
Q 22.859375 7.515625 30.078125 7.515625 
Q 37.359375 7.515625 41.375 12.890625 
Q 45.40625 18.265625 45.40625 27.984375 
z
M 54.390625 6.78125 
Q 54.390625 -7.171875 48.1875 -13.984375 
Q 42 -20.796875 29.203125 -20.796875 
Q 24.46875 -20.796875 20.265625 -20.09375 
Q 16.0625 -19.390625 12.109375 -17.921875 
L 12.109375 -9.1875 
Q 16.0625 -11.328125 19.921875 -12.34375 
Q 23.78125 -13.375 27.78125 -13.375 
Q 36.625 -13.375 41.015625 -8.765625 
Q 45.40625 -4.15625 45.40625 5.171875 
L 45.40625 9.625 
Q 42.625 4.78125 38.28125 2.390625 
Q 33.9375 0 27.875 0 
Q 17.828125 0 11.671875 7.65625 
Q 5.515625 15.328125 5.515625 27.984375 
Q 5.515625 40.671875 11.671875 48.328125 
Q 17.828125 56 27.875 56 
Q 33.9375 56 38.28125 53.609375 
Q 42.625 51.21875 45.40625 46.390625 
L 45.40625 54.6875 
L 54.390625 54.6875 
z
" id="DejaVuSans-103"/>
      <path d="M 11.71875 12.40625 
L 22.015625 12.40625 
L 22.015625 0 
L 11.71875 0 
z
M 11.71875 51.703125 
L 22.015625 51.703125 
L 22.015625 39.3125 
L 11.71875 39.3125 
z
" id="DejaVuSans-58"/>
      <path d="M 64.40625 67.28125 
L 64.40625 56.890625 
Q 59.421875 61.53125 53.78125 63.8125 
Q 48.140625 66.109375 41.796875 66.109375 
Q 29.296875 66.109375 22.65625 58.46875 
Q 16.015625 50.828125 16.015625 36.375 
Q 16.015625 21.96875 22.65625 14.328125 
Q 29.296875 6.6875 41.796875 6.6875 
Q 48.140625 6.6875 53.78125 8.984375 
Q 59.421875 11.28125 64.40625 15.921875 
L 64.40625 5.609375 
Q 59.234375 2.09375 53.4375 0.328125 
Q 47.65625 -1.421875 41.21875 -1.421875 
Q 24.65625 -1.421875 15.125 8.703125 
Q 5.609375 18.84375 5.609375 36.375 
Q 5.609375 53.953125 15.125 64.078125 
Q 24.65625 74.21875 41.21875 74.21875 
Q 47.75 74.21875 53.53125 72.484375 
Q 59.328125 70.75 64.40625 67.28125 
z
" id="DejaVuSans-67"/>
      <path d="M 48.78125 52.59375 
L 48.78125 44.1875 
Q 44.96875 46.296875 41.140625 47.34375 
Q 37.3125 48.390625 33.40625 48.390625 
Q 24.65625 48.390625 19.8125 42.84375 
Q 14.984375 37.3125 14.984375 27.296875 
Q 14.984375 17.28125 19.8125 11.734375 
Q 24.65625 6.203125 33.40625 6.203125 
Q 37.3125 6.203125 41.140625 7.25 
Q 44.96875 8.296875 48.78125 10.40625 
L 48.78125 2.09375 
Q 45.015625 0.34375 40.984375 -0.53125 
Q 36.96875 -1.421875 32.421875 -1.421875 
Q 20.0625 -1.421875 12.78125 6.34375 
Q 5.515625 14.109375 5.515625 27.296875 
Q 5.515625 40.671875 12.859375 48.328125 
Q 20.21875 56 33.015625 56 
Q 37.15625 56 41.109375 55.140625 
Q 45.0625 54.296875 48.78125 52.59375 
z
" id="DejaVuSans-99"/>
     </defs>
     <g transform="translate(14.798438 297.503181)rotate(-90)scale(0.1 -0.1)">
      <use xlink:href="#DejaVuSans-82"/>
      <use x="69.482422" xlink:href="#DejaVuSans-49"/>
      <use x="133.105469" xlink:href="#DejaVuSans-32"/>
      <use x="164.892578" xlink:href="#DejaVuSans-66"/>
      <use x="233.496094" xlink:href="#DejaVuSans-101"/>
      <use x="295.019531" xlink:href="#DejaVuSans-102"/>
      <use x="330.224609" xlink:href="#DejaVuSans-111"/>
      <use x="391.40625" xlink:href="#DejaVuSans-114"/>
      <use x="432.488281" xlink:href="#DejaVuSans-101"/>
      <use x="494.011719" xlink:href="#DejaVuSans-32"/>
      <use x="525.798828" xlink:href="#DejaVuSans-102"/>
      <use x="561.003906" xlink:href="#DejaVuSans-105"/>
      <use x="588.787109" xlink:href="#DejaVuSans-108"/>
      <use x="616.570312" xlink:href="#DejaVuSans-116"/>
      <use x="655.779297" xlink:href="#DejaVuSans-101"/>
      <use x="717.302734" xlink:href="#DejaVuSans-114"/>
      <use x="758.416016" xlink:href="#DejaVuSans-105"/>
      <use x="786.199219" xlink:href="#DejaVuSans-110"/>
      <use x="849.578125" xlink:href="#DejaVuSans-103"/>
      <use x="913.054688" xlink:href="#DejaVuSans-58"/>
      <use x="946.746094" xlink:href="#DejaVuSans-32"/>
      <use x="978.533203" xlink:href="#DejaVuSans-66"/>
      <use x="1047.136719" xlink:href="#DejaVuSans-97"/>
      <use x="1108.416016" xlink:href="#DejaVuSans-115"/>
      <use x="1160.515625" xlink:href="#DejaVuSans-101"/>
      <use x="1222.039062" xlink:href="#DejaVuSans-32"/>
      <use x="1253.826172" xlink:href="#DejaVuSans-67"/>
      <use x="1323.650391" xlink:href="#DejaVuSans-111"/>
      <use x="1384.832031" xlink:href="#DejaVuSans-110"/>
      <use x="1448.210938" xlink:href="#DejaVuSans-116"/>
      <use x="1487.419922" xlink:href="#DejaVuSans-101"/>
      <use x="1548.943359" xlink:href="#DejaVuSans-110"/>
      <use x="1612.322266" xlink:href="#DejaVuSans-116"/>
      <use x="1651.53125" xlink:href="#DejaVuSans-32"/>
      <use x="1683.318359" xlink:href="#DejaVuSans-80"/>
      <use x="1743.574219" xlink:href="#DejaVuSans-101"/>
      <use x="1805.097656" xlink:href="#DejaVuSans-114"/>
      <use x="1846.179688" xlink:href="#DejaVuSans-99"/>
      <use x="1901.160156" xlink:href="#DejaVuSans-101"/>
      <use x="1962.683594" xlink:href="#DejaVuSans-110"/>
      <use x="2026.0625" xlink:href="#DejaVuSans-116"/>
     </g>
    </g>
   </g>
   <g id="line2d_7">
    <path clip-path="url(#pd8423d5f6a)" d="M 76.613125 321.765291 
L 82.471514 353.2239 
L 211.356078 353.2239 
L 217.214467 353.088404 
L 223.072857 353.2239 
L 228.931246 353.086254 
L 234.789635 353.2239 
L 258.223192 353.2239 
L 264.081581 353.107761 
L 269.939971 353.2239 
L 275.79836 353.127111 
L 287.515138 353.2239 
L 410.541313 353.2239 
L 416.399702 353.021177 
L 422.258091 353.2239 
L 433.97487 353.2239 
L 439.833259 353.100818 
L 445.691648 353.2239 
L 457.408427 353.2239 
L 463.266816 352.955707 
L 469.125206 353.2239 
L 474.983595 353.143795 
L 486.700373 353.2239 
L 545.284266 353.2239 
L 633.160105 353.2239 
L 639.018494 352.955421 
L 644.876883 353.2239 
L 656.593662 353.036745 
L 662.452051 353.2239 
L 902.646011 353.2239 
L 908.5044 352.767571 
L 914.362789 353.2239 
L 937.796346 353.208425 
L 943.654736 352.821908 
L 949.513125 353.2239 
L 949.513125 353.2239 
" style="fill:none;stroke:#7cb5ec;stroke-linecap:square;"/>
   </g>
   <g id="line2d_8">
    <path clip-path="url(#pd8423d5f6a)" d="M 76.613125 317.737717 
L 82.471514 353.2239 
L 211.356078 353.2239 
L 217.214467 353.101124 
L 223.072857 353.2239 
L 228.931246 353.114986 
L 240.648024 353.2239 
L 258.223192 353.22192 
L 264.081581 353.109046 
L 269.939971 353.2239 
L 275.79836 353.114972 
L 287.515138 353.2239 
L 410.541313 353.2239 
L 416.399702 353.068415 
L 422.258091 353.2239 
L 433.97487 353.2239 
L 439.833259 353.073923 
L 445.691648 353.2239 
L 457.408427 353.2239 
L 463.266816 352.96483 
L 469.125206 353.2239 
L 474.983595 353.127252 
L 486.700373 353.2239 
L 527.709098 353.2239 
L 633.160105 353.2239 
L 639.018494 352.973201 
L 644.876883 353.2239 
L 656.593662 353.04217 
L 662.452051 353.2239 
L 902.646011 353.2239 
L 908.5044 352.785477 
L 914.362789 353.2239 
L 937.796346 353.201491 
L 943.654736 352.863617 
L 949.513125 353.2239 
L 949.513125 353.2239 
" style="fill:none;stroke:#434348;stroke-linecap:square;"/>
   </g>
   <g id="line2d_9">
    <path clip-path="url(#pd8423d5f6a)" d="M 76.613125 319.546128 
L 82.471514 353.2239 
L 258.223192 353.2239 
L 264.081581 353.095441 
L 269.939971 353.2239 
L 275.79836 353.122961 
L 287.515138 353.2239 
L 410.541313 353.2239 
L 416.399702 353.018 
L 422.258091 353.2239 
L 433.97487 353.2239 
L 439.833259 353.10376 
L 445.691648 353.2239 
L 457.408427 353.2239 
L 463.266816 352.92721 
L 469.125206 353.2239 
L 474.983595 353.143394 
L 486.700373 353.2239 
L 633.160105 353.2239 
L 639.018494 352.905341 
L 644.876883 353.2239 
L 656.593662 353.040436 
L 662.452051 353.2239 
L 902.646011 353.2239 
L 908.5044 352.750491 
L 914.362789 353.2239 
L 937.796346 353.219744 
L 943.654736 352.775 
L 949.513125 353.2239 
L 949.513125 353.2239 
" style="fill:none;stroke:#90ed7d;stroke-linecap:square;"/>
   </g>
   <g id="line2d_10">
    <path clip-path="url(#pd8423d5f6a)" d="M 76.613125 319.307652 
L 82.471514 353.2239 
L 211.356078 353.2239 
L 217.214467 353.109274 
L 223.072857 353.2239 
L 228.931246 353.097999 
L 234.789635 353.2239 
L 410.541313 353.2239 
L 416.399702 353.045999 
L 422.258091 353.2239 
L 433.97487 353.2239 
L 439.833259 353.108053 
L 445.691648 353.2239 
L 457.408427 353.2239 
L 463.266816 352.935795 
L 469.125206 353.2239 
L 474.983595 353.147371 
L 486.700373 353.2239 
L 598.009769 353.2239 
L 633.160105 353.2239 
L 639.018494 352.939579 
L 644.876883 353.2239 
L 656.593662 353.048182 
L 662.452051 353.2239 
L 902.646011 353.2239 
L 908.5044 352.76674 
L 914.362789 353.2239 
L 937.796346 353.196319 
L 943.654736 352.849845 
L 949.513125 353.2239 
L 949.513125 353.2239 
" style="fill:none;stroke:#f7a35c;stroke-linecap:square;"/>
   </g>
   <g id="line2d_11">
    <path clip-path="url(#pd8423d5f6a)" d="M 76.613125 318.24087 
L 82.471514 353.2239 
L 211.356078 353.2239 
L 217.214467 353.096352 
L 223.072857 353.2239 
L 228.931246 353.111812 
L 234.789635 353.2239 
L 258.223192 353.2239 
L 264.081581 353.073161 
L 269.939971 353.2239 
L 275.79836 353.100202 
L 281.656749 353.2239 
L 410.541313 353.2239 
L 416.399702 352.997558 
L 422.258091 353.2239 
L 433.97487 353.2239 
L 439.833259 353.07097 
L 445.691648 353.2239 
L 457.408427 353.2239 
L 463.266816 352.920064 
L 469.125206 353.2239 
L 474.983595 353.124881 
L 486.700373 353.2239 
L 521.850709 353.2239 
L 633.160105 353.2239 
L 639.018494 352.909199 
L 644.876883 353.2239 
L 656.593662 353.014395 
L 662.452051 353.2239 
L 902.646011 353.2239 
L 908.5044 352.732137 
L 914.362789 353.2239 
L 937.796346 353.199754 
L 943.654736 352.78008 
L 949.513125 353.2239 
L 949.513125 353.2239 
" style="fill:none;stroke:#8085e9;stroke-linecap:square;"/>
   </g>
   <g id="line2d_12">
    <path clip-path="url(#pd8423d5f6a)" d="M 76.613125 319.222437 
L 82.471514 353.2239 
L 211.356078 353.2239 
L 217.214467 353.063567 
L 223.072857 353.2239 
L 228.931246 353.102759 
L 234.789635 353.2239 
L 258.223192 353.2239 
L 264.081581 353.084944 
L 269.939971 353.2239 
L 275.79836 353.113432 
L 287.515138 353.2239 
L 410.541313 353.2239 
L 416.399702 352.994003 
L 422.258091 353.2239 
L 433.97487 353.2239 
L 439.833259 353.04724 
L 445.691648 353.2239 
L 457.408427 353.2239 
L 463.266816 352.894282 
L 469.125206 353.2239 
L 474.983595 353.140364 
L 486.700373 353.2239 
L 580.434602 353.186349 
L 598.009769 353.2239 
L 633.160105 353.2239 
L 639.018494 352.919948 
L 644.876883 353.2239 
L 656.593662 353.010497 
L 662.452051 353.2239 
L 703.460776 353.2239 
L 709.319165 353.096234 
L 715.177555 353.2239 
L 902.646011 353.2239 
L 908.5044 352.762294 
L 914.362789 353.2239 
L 937.796346 353.189861 
L 943.654736 352.807342 
L 949.513125 353.2239 
L 949.513125 353.2239 
" style="fill:none;stroke:#f15c80;stroke-linecap:square;"/>
   </g>
   <g id="line2d_13">
    <path clip-path="url(#pd8423d5f6a)" d="M 76.613125 320.415453 
L 82.471514 353.2239 
L 211.356078 353.2239 
L 217.214467 353.111608 
L 223.072857 353.2239 
L 228.931246 353.092494 
L 234.789635 353.2239 
L 258.223192 353.2239 
L 264.081581 353.106829 
L 269.939971 353.2239 
L 275.79836 353.066194 
L 281.656749 353.2239 
L 410.541313 353.2239 
L 416.399702 353.014635 
L 422.258091 353.2239 
L 433.97487 353.2239 
L 439.833259 353.040521 
L 445.691648 353.2239 
L 457.408427 353.2239 
L 463.266816 352.957407 
L 469.125206 353.2239 
L 474.983595 353.095199 
L 480.841984 353.2239 
L 633.160105 353.2239 
L 639.018494 352.974963 
L 644.876883 353.221326 
L 656.593662 353.042686 
L 662.452051 353.2239 
L 902.646011 353.2239 
L 908.5044 352.787877 
L 914.362789 353.2239 
L 937.796346 353.187624 
L 943.654736 352.830615 
L 949.513125 353.2239 
L 949.513125 353.2239 
" style="fill:none;stroke:#e4d354;stroke-linecap:square;"/>
   </g>
   <g id="line2d_14">
    <path clip-path="url(#pd8423d5f6a)" d="M 76.613125 319.395793 
L 82.471514 353.2239 
L 211.356078 353.2239 
L 217.214467 353.093575 
L 223.072857 353.2239 
L 228.931246 353.122752 
L 240.648024 353.2239 
L 258.223192 353.2239 
L 264.081581 353.101356 
L 269.939971 353.2239 
L 275.79836 353.134413 
L 287.515138 353.2239 
L 410.541313 353.2239 
L 416.399702 352.995045 
L 422.258091 353.2239 
L 433.97487 353.2239 
L 439.833259 353.108199 
L 445.691648 353.2239 
L 457.408427 353.2239 
L 463.266816 352.944467 
L 469.125206 353.2239 
L 474.983595 353.143054 
L 486.700373 353.2239 
L 633.160105 353.2239 
L 639.018494 352.93055 
L 644.876883 353.221829 
L 656.593662 353.036639 
L 662.452051 353.2239 
L 902.646011 353.2239 
L 908.5044 352.769511 
L 914.362789 353.2239 
L 937.796346 353.205907 
L 943.654736 352.83364 
L 949.513125 353.2239 
L 949.513125 353.2239 
" style="fill:none;stroke:#2b908f;stroke-linecap:square;"/>
   </g>
   <g id="line2d_15">
    <path clip-path="url(#pd8423d5f6a)" d="M 76.613125 317.946749 
L 82.471514 353.2239 
L 211.356078 353.2239 
L 217.214467 353.103447 
L 223.072857 353.2239 
L 228.931246 353.078739 
L 234.789635 353.2239 
L 258.223192 353.2239 
L 264.081581 353.063297 
L 269.939971 353.2239 
L 275.79836 353.081813 
L 281.656749 353.2239 
L 410.541313 353.2239 
L 416.399702 352.996448 
L 422.258091 353.2239 
L 433.97487 353.2239 
L 439.833259 353.0454 
L 445.691648 353.2239 
L 457.408427 353.2239 
L 463.266816 352.962092 
L 469.125206 353.2239 
L 474.983595 353.106684 
L 480.841984 353.2239 
L 633.160105 353.2239 
L 639.018494 352.939337 
L 644.876883 353.2239 
L 650.735273 353.163561 
L 656.593662 352.991956 
L 662.452051 353.2239 
L 902.646011 353.2239 
L 908.5044 352.811177 
L 914.362789 353.2239 
L 937.796346 353.197469 
L 943.654736 352.872572 
L 949.513125 353.2239 
L 949.513125 353.2239 
" style="fill:none;stroke:#f45b5b;stroke-linecap:square;"/>
   </g>
   <g id="line2d_16">
    <path clip-path="url(#pd8423d5f6a)" d="M 76.613125 319.1963 
L 82.471514 353.2239 
L 258.223192 353.2239 
L 264.081581 353.086402 
L 269.939971 353.2239 
L 275.79836 353.074437 
L 281.656749 353.2239 
L 410.541313 353.2239 
L 416.399702 353.025539 
L 422.258091 353.2239 
L 433.97487 353.2239 
L 439.833259 353.043025 
L 445.691648 353.2239 
L 457.408427 353.2239 
L 463.266816 352.933243 
L 469.125206 353.2239 
L 474.983595 353.102474 
L 480.841984 353.2239 
L 633.160105 353.2239 
L 639.018494 352.887215 
L 644.876883 353.2239 
L 656.593662 353.021127 
L 662.452051 353.2239 
L 902.646011 353.2239 
L 908.5044 352.678605 
L 914.362789 353.2239 
L 937.796346 353.215375 
L 943.654736 352.711028 
L 949.513125 353.2239 
L 949.513125 353.2239 
" style="fill:none;stroke:#91e8e1;stroke-linecap:square;"/>
   </g>
   <g id="line2d_17">
    <path clip-path="url(#pd8423d5f6a)" d="M 76.613125 319.719548 
L 82.471514 353.2239 
L 211.356078 353.2239 
L 217.214467 353.106884 
L 223.072857 353.2239 
L 228.931246 353.069137 
L 234.789635 353.2239 
L 269.939971 353.2239 
L 275.79836 353.054034 
L 281.656749 353.2239 
L 410.541313 353.2239 
L 416.399702 353.007887 
L 422.258091 353.2239 
L 433.97487 353.2239 
L 439.833259 353.011159 
L 445.691648 353.2239 
L 457.408427 353.2239 
L 463.266816 352.991346 
L 469.125206 353.2239 
L 474.983595 353.071073 
L 480.841984 353.2239 
L 633.160105 353.2239 
L 639.018494 352.960801 
L 644.876883 353.2239 
L 656.593662 353.076743 
L 662.452051 353.2239 
L 750.32789 353.2239 
L 756.186279 353.109904 
L 762.044669 353.2239 
L 902.646011 353.2239 
L 908.5044 352.774282 
L 914.362789 353.2239 
L 937.796346 353.202173 
L 943.654736 352.769417 
L 949.513125 353.2239 
L 949.513125 353.2239 
" style="fill:none;stroke:#7cb5ec;stroke-linecap:square;"/>
   </g>
   <g id="line2d_18">
    <path clip-path="url(#pd8423d5f6a)" d="M 76.613125 319.699771 
L 82.471514 353.2239 
L 223.072857 353.2239 
L 228.931246 353.093358 
L 234.789635 353.2239 
L 258.223192 353.2239 
L 264.081581 353.088778 
L 269.939971 353.2239 
L 275.79836 353.075019 
L 281.656749 353.2239 
L 410.541313 353.2239 
L 416.399702 352.967876 
L 422.258091 353.2239 
L 433.97487 353.2239 
L 439.833259 353.05722 
L 445.691648 353.2239 
L 457.408427 353.2239 
L 463.266816 352.919138 
L 469.125206 353.2239 
L 474.983595 353.083918 
L 480.841984 353.2239 
L 633.160105 353.2239 
L 639.018494 352.918033 
L 644.876883 353.2239 
L 656.593662 353.020601 
L 662.452051 353.2239 
L 750.32789 353.221236 
L 756.186279 353.106198 
L 762.044669 353.2239 
L 902.646011 353.2239 
L 908.5044 352.696261 
L 914.362789 353.2239 
L 937.796346 353.201291 
L 943.654736 352.782393 
L 949.513125 353.2239 
L 949.513125 353.2239 
" style="fill:none;stroke:#434348;stroke-linecap:square;"/>
   </g>
   <g id="line2d_19">
    <path clip-path="url(#pd8423d5f6a)" d="M 76.613125 318.308661 
L 82.471514 353.2239 
L 211.356078 353.2239 
L 217.214467 353.098834 
L 223.072857 353.2239 
L 228.931246 353.096849 
L 234.789635 353.2239 
L 258.223192 353.2239 
L 264.081581 353.078982 
L 269.939971 353.2239 
L 275.79836 353.092867 
L 281.656749 353.2239 
L 410.541313 353.2239 
L 416.399702 353.07039 
L 422.258091 353.2239 
L 433.97487 353.2239 
L 439.833259 353.076057 
L 445.691648 353.2239 
L 457.408427 353.2239 
L 463.266816 352.957392 
L 469.125206 353.2239 
L 474.983595 353.103458 
L 480.841984 353.2239 
L 633.160105 353.2239 
L 639.018494 352.971849 
L 644.876883 353.2239 
L 656.593662 353.018631 
L 662.452051 353.2239 
L 750.32789 353.2239 
L 756.186279 353.107581 
L 762.044669 353.2239 
L 902.646011 353.2239 
L 908.5044 352.752122 
L 914.362789 353.2239 
L 937.796346 353.191725 
L 943.654736 352.84917 
L 949.513125 353.2239 
L 949.513125 353.2239 
" style="fill:none;stroke:#90ed7d;stroke-linecap:square;"/>
   </g>
   <g id="line2d_20">
    <path clip-path="url(#pd8423d5f6a)" d="M 76.613125 319.819963 
L 82.471514 353.2239 
L 211.356078 353.2239 
L 217.214467 353.072587 
L 223.072857 353.2239 
L 228.931246 353.082456 
L 234.789635 353.2239 
L 269.939971 353.2239 
L 275.79836 353.102175 
L 281.656749 353.2239 
L 410.541313 353.2239 
L 416.399702 353.02883 
L 422.258091 353.2239 
L 433.97487 353.2239 
L 439.833259 353.0615 
L 445.691648 353.2239 
L 457.408427 353.2239 
L 463.266816 352.93795 
L 469.125206 353.2239 
L 474.983595 353.110632 
L 480.841984 353.2239 
L 633.160105 353.2239 
L 639.018494 352.958328 
L 644.876883 353.2239 
L 656.593662 353.072466 
L 662.452051 353.2239 
L 902.646011 353.2239 
L 908.5044 352.725921 
L 914.362789 353.2239 
L 937.796346 353.197197 
L 943.654736 352.778757 
L 949.513125 353.2239 
L 949.513125 353.2239 
" style="fill:none;stroke:#f7a35c;stroke-linecap:square;"/>
   </g>
   <g id="line2d_21">
    <path clip-path="url(#pd8423d5f6a)" d="M 76.613125 319.46988 
L 82.471514 353.2239 
L 223.072857 353.2239 
L 228.931246 353.07775 
L 234.789635 353.2239 
L 269.939971 353.2239 
L 275.79836 353.082217 
L 281.656749 353.2239 
L 410.541313 353.2239 
L 416.399702 352.983857 
L 422.258091 353.2239 
L 433.97487 353.2239 
L 439.833259 353.053544 
L 445.691648 353.2239 
L 457.408427 353.2239 
L 463.266816 352.931997 
L 469.125206 353.2239 
L 474.983595 353.109609 
L 480.841984 353.2239 
L 633.160105 353.2239 
L 639.018494 352.917058 
L 644.876883 353.2239 
L 656.593662 353.043574 
L 662.452051 353.2239 
L 750.32789 353.2239 
L 756.186279 353.11266 
L 762.044669 353.2239 
L 902.646011 353.2239 
L 908.5044 352.747684 
L 914.362789 353.2239 
L 937.796346 353.211548 
L 943.654736 352.811445 
L 949.513125 353.2239 
L 949.513125 353.2239 
" style="fill:none;stroke:#8085e9;stroke-linecap:square;"/>
   </g>
   <g id="line2d_22">
    <path clip-path="url(#pd8423d5f6a)" d="M 76.613125 319.972842 
L 82.471514 353.2239 
L 258.223192 353.2239 
L 264.081581 353.109287 
L 269.939971 353.2239 
L 275.79836 353.113034 
L 287.515138 353.2239 
L 410.541313 353.2239 
L 416.399702 353.02743 
L 422.258091 353.2239 
L 433.97487 353.2239 
L 439.833259 353.076173 
L 445.691648 353.2239 
L 457.408427 353.2239 
L 463.266816 352.992033 
L 469.125206 353.2239 
L 474.983595 353.128679 
L 486.700373 353.2239 
L 568.717823 353.2239 
L 633.160105 353.2239 
L 639.018494 353.005233 
L 644.876883 353.2239 
L 656.593662 353.039804 
L 662.452051 353.2239 
L 902.646011 353.2239 
L 908.5044 352.797063 
L 914.362789 353.2239 
L 937.796346 353.216155 
L 943.654736 352.863031 
L 949.513125 353.2239 
L 949.513125 353.2239 
" style="fill:none;stroke:#f15c80;stroke-linecap:square;"/>
   </g>
   <g id="line2d_23">
    <path clip-path="url(#pd8423d5f6a)" d="M 76.613125 320.402226 
L 82.471514 353.2239 
L 211.356078 353.2239 
L 217.214467 353.064243 
L 223.072857 353.2239 
L 228.931246 353.058831 
L 234.789635 353.2239 
L 258.223192 353.2239 
L 264.081581 353.083185 
L 269.939971 353.2239 
L 275.79836 353.099407 
L 281.656749 353.2239 
L 410.541313 353.2239 
L 416.399702 353.005817 
L 422.258091 353.2239 
L 433.97487 353.2239 
L 439.833259 353.076191 
L 445.691648 353.2239 
L 457.408427 353.2239 
L 463.266816 352.910689 
L 469.125206 353.2239 
L 474.983595 353.124733 
L 486.700373 353.2239 
L 562.859434 353.2239 
L 633.160105 353.2239 
L 639.018494 352.897037 
L 644.876883 353.2239 
L 656.593662 353.038434 
L 662.452051 353.2239 
L 902.646011 353.2239 
L 908.5044 352.72969 
L 914.362789 353.2239 
L 937.796346 353.197714 
L 943.654736 352.793019 
L 949.513125 353.2239 
L 949.513125 353.2239 
" style="fill:none;stroke:#e4d354;stroke-linecap:square;"/>
   </g>
   <g id="line2d_24">
    <path clip-path="url(#pd8423d5f6a)" d="M 76.613125 319.416461 
L 82.471514 353.2239 
L 258.223192 353.2239 
L 264.081581 353.08806 
L 269.939971 353.2239 
L 275.79836 353.091358 
L 281.656749 353.2239 
L 410.541313 353.2239 
L 416.399702 352.997355 
L 422.258091 353.2239 
L 433.97487 353.2239 
L 439.833259 353.066957 
L 445.691648 353.2239 
L 457.408427 353.2239 
L 463.266816 352.952614 
L 469.125206 353.2239 
L 474.983595 353.123251 
L 486.700373 353.2239 
L 633.160105 353.2239 
L 639.018494 352.954904 
L 644.876883 353.2239 
L 656.593662 353.037557 
L 662.452051 353.2239 
L 902.646011 353.2239 
L 908.5044 352.771365 
L 914.362789 353.2239 
L 937.796346 353.193992 
L 943.654736 352.801584 
L 949.513125 353.2239 
L 949.513125 353.2239 
" style="fill:none;stroke:#2b908f;stroke-linecap:square;"/>
   </g>
   <g id="line2d_25">
    <path clip-path="url(#pd8423d5f6a)" d="M 76.613125 319.394839 
L 82.471514 353.2239 
L 211.356078 353.2239 
L 217.214467 353.082238 
L 223.072857 353.2239 
L 228.931246 353.077515 
L 234.789635 353.2239 
L 258.223192 353.2239 
L 264.081581 353.084598 
L 269.939971 353.2239 
L 275.79836 353.091665 
L 281.656749 353.2239 
L 410.541313 353.2239 
L 416.399702 353.047881 
L 422.258091 353.2239 
L 433.97487 353.2239 
L 439.833259 353.061635 
L 445.691648 353.2239 
L 457.408427 353.2239 
L 463.266816 352.960331 
L 469.125206 353.2239 
L 474.983595 353.113416 
L 486.700373 353.2239 
L 551.142655 353.2239 
L 633.160105 353.2239 
L 639.018494 352.945129 
L 644.876883 353.2239 
L 650.735273 353.195871 
L 656.593662 353.016915 
L 662.452051 353.2239 
L 902.646011 353.2239 
L 908.5044 352.760635 
L 914.362789 353.2239 
L 937.796346 353.204573 
L 943.654736 352.833197 
L 949.513125 353.2239 
L 949.513125 353.2239 
" style="fill:none;stroke:#f45b5b;stroke-linecap:square;"/>
   </g>
   <g id="line2d_26">
    <path clip-path="url(#pd8423d5f6a)" d="M 76.613125 317.098856 
L 82.471514 353.2239 
L 223.072857 353.2239 
L 228.931246 353.09925 
L 234.789635 353.2239 
L 258.223192 353.218706 
L 264.081581 353.09146 
L 269.939971 353.2239 
L 275.79836 353.101833 
L 281.656749 353.2239 
L 410.541313 353.2239 
L 416.399702 353.040469 
L 422.258091 353.2239 
L 433.97487 353.2239 
L 439.833259 353.084399 
L 445.691648 353.2239 
L 457.408427 353.2239 
L 463.266816 352.975006 
L 469.125206 353.2239 
L 474.983595 353.125581 
L 486.700373 353.2239 
L 633.160105 353.2239 
L 639.018494 352.961878 
L 644.876883 353.2239 
L 656.593662 353.046176 
L 662.452051 353.2239 
L 902.646011 353.2239 
L 908.5044 352.797238 
L 914.362789 353.2239 
L 937.796346 353.188482 
L 943.654736 352.866232 
L 949.513125 353.2239 
L 949.513125 353.2239 
" style="fill:none;stroke:#91e8e1;stroke-linecap:square;"/>
   </g>
   <g id="line2d_27">
    <path clip-path="url(#pd8423d5f6a)" d="M 76.613125 319.646225 
L 82.471514 353.2239 
L 223.072857 353.2239 
L 228.931246 353.084284 
L 234.789635 353.2239 
L 258.223192 353.2239 
L 264.081581 353.046695 
L 269.939971 353.2239 
L 275.79836 353.10038 
L 281.656749 353.2239 
L 410.541313 353.2239 
L 416.399702 352.95886 
L 422.258091 353.2239 
L 433.97487 353.2239 
L 439.833259 353.077289 
L 445.691648 353.2239 
L 457.408427 353.2239 
L 463.266816 352.929116 
L 469.125206 353.2239 
L 474.983595 353.125331 
L 486.700373 353.2239 
L 603.868159 353.2239 
L 633.160105 353.2239 
L 639.018494 352.916663 
L 644.876883 353.2239 
L 656.593662 352.996774 
L 662.452051 353.2239 
L 902.646011 353.2239 
L 908.5044 352.757895 
L 914.362789 353.2239 
L 937.796346 353.207842 
L 943.654736 352.773299 
L 949.513125 353.2239 
L 949.513125 353.2239 
" style="fill:none;stroke:#7cb5ec;stroke-linecap:square;"/>
   </g>
   <g id="line2d_28">
    <path clip-path="url(#pd8423d5f6a)" d="M 76.613125 319.179257 
L 82.471514 353.2239 
L 211.356078 353.2239 
L 217.214467 353.095268 
L 223.072857 353.2239 
L 269.939971 353.2239 
L 275.79836 353.095222 
L 281.656749 353.2239 
L 410.541313 353.2239 
L 416.399702 353.006996 
L 422.258091 353.2239 
L 433.97487 353.2239 
L 439.833259 353.093361 
L 445.691648 353.2239 
L 457.408427 353.2239 
L 463.266816 352.830883 
L 469.125206 353.2239 
L 474.983595 353.1364 
L 486.700373 353.2239 
L 633.160105 353.2239 
L 639.018494 352.997514 
L 644.876883 353.2239 
L 656.593662 353.132884 
L 668.31044 353.2239 
L 680.027219 353.2239 
L 703.460776 353.2239 
L 709.319165 353.085271 
L 715.177555 353.2239 
L 902.646011 353.2239 
L 908.5044 352.564288 
L 914.362789 353.2239 
L 937.796346 353.2239 
L 943.654736 352.743102 
L 949.513125 353.2239 
L 949.513125 353.2239 
" style="fill:none;stroke:#434348;stroke-linecap:square;"/>
   </g>
   <g id="line2d_29">
    <path clip-path="url(#pd8423d5f6a)" d="M 76.613125 323.583813 
L 82.471514 353.2239 
L 152.772185 353.2239 
L 158.630575 353.091282 
L 164.488964 353.2239 
L 258.223192 353.2239 
L 264.081581 352.892355 
L 269.939971 353.2239 
L 275.79836 353.091188 
L 281.656749 353.2239 
L 433.97487 353.2239 
L 439.833259 353.087134 
L 445.691648 353.2239 
L 457.408427 353.2239 
L 463.266816 352.948466 
L 469.125206 353.2239 
L 474.983595 353.085684 
L 480.841984 353.2239 
L 574.576212 353.2239 
L 580.434602 353.08002 
L 586.292991 353.2239 
L 592.15138 353.151558 
L 603.868159 353.2239 
L 633.160105 353.2239 
L 639.018494 353.001591 
L 644.876883 353.2239 
L 650.735273 353.149338 
L 656.593662 352.924661 
L 662.452051 353.2239 
L 703.460776 353.2239 
L 709.319165 353.069535 
L 715.177555 353.2239 
L 902.646011 353.2239 
L 908.5044 352.952035 
L 914.362789 353.2239 
L 937.796346 353.2239 
L 943.654736 352.931713 
L 949.513125 353.2239 
L 949.513125 353.2239 
" style="fill:none;stroke:#90ed7d;stroke-linecap:square;"/>
   </g>
   <g id="line2d_30">
    <path clip-path="url(#pd8423d5f6a)" d="M 76.613125 321.784878 
L 82.471514 353.2239 
L 211.356078 353.2239 
L 217.214467 353.111063 
L 223.072857 353.2239 
L 228.931246 353.139273 
L 240.648024 353.2239 
L 269.939971 353.2239 
L 275.79836 353.096899 
L 281.656749 353.2239 
L 410.541313 353.2239 
L 416.399702 353.066842 
L 422.258091 353.2239 
L 433.97487 353.2239 
L 439.833259 353.066375 
L 445.691648 353.2239 
L 457.408427 353.2239 
L 463.266816 352.965314 
L 469.125206 353.2239 
L 474.983595 353.123166 
L 486.700373 353.2239 
L 633.160105 353.2239 
L 639.018494 352.986833 
L 644.876883 353.2239 
L 650.735273 353.209045 
L 656.593662 353.060281 
L 662.452051 353.2239 
L 902.646011 353.2239 
L 908.5044 352.834158 
L 914.362789 353.2239 
L 937.796346 353.2239 
L 943.654736 353.002867 
L 949.513125 353.2239 
L 949.513125 353.2239 
" style="fill:none;stroke:#f7a35c;stroke-linecap:square;"/>
   </g>
   <g id="line2d_31">
    <path clip-path="url(#pd8423d5f6a)" d="M 76.613125 317.959214 
L 82.471514 353.2239 
L 410.541313 353.2239 
L 416.399702 353.066932 
L 422.258091 353.2239 
L 433.97487 353.2239 
L 439.833259 353.099047 
L 445.691648 353.2239 
L 457.408427 353.2239 
L 463.266816 352.990706 
L 469.125206 353.2239 
L 474.983595 353.140416 
L 486.700373 353.2239 
L 592.15138 353.181543 
L 609.726548 353.2239 
L 633.160105 353.2239 
L 639.018494 352.994562 
L 644.876883 353.222317 
L 656.593662 353.082645 
L 662.452051 353.2239 
L 902.646011 353.2239 
L 908.5044 352.850379 
L 914.362789 353.2239 
L 937.796346 353.204262 
L 943.654736 352.903894 
L 949.513125 353.2239 
L 949.513125 353.2239 
" style="fill:none;stroke:#8085e9;stroke-linecap:square;"/>
   </g>
   <g id="line2d_32">
    <path clip-path="url(#pd8423d5f6a)" d="M 76.613125 323.577009 
L 82.471514 353.2239 
L 223.072857 353.2239 
L 228.931246 352.626982 
L 234.789635 353.2239 
L 305.090306 353.2239 
L 310.948695 353.024666 
L 316.807085 353.2239 
L 392.966145 353.2239 
L 398.824534 352.82355 
L 404.682924 353.2239 
L 410.541313 353.2239 
L 416.399702 352.823045 
L 422.258091 353.2239 
L 457.408427 353.2239 
L 463.266816 352.82146 
L 469.125206 353.2239 
L 633.160105 353.2239 
L 639.018494 352.812783 
L 644.876883 353.2239 
L 902.646011 353.2239 
L 908.5044 352.553458 
L 914.362789 353.2239 
L 937.796346 353.2239 
L 943.654736 352.989549 
L 949.513125 353.2239 
L 949.513125 353.2239 
" style="fill:none;stroke:#f15c80;stroke-linecap:square;"/>
   </g>
   <g id="line2d_33">
    <path clip-path="url(#pd8423d5f6a)" d="M 76.613125 321.85464 
L 82.471514 353.2239 
L 211.356078 353.2239 
L 217.214467 353.046972 
L 223.072857 353.2239 
L 228.931246 353.117743 
L 240.648024 353.2239 
L 457.408427 353.2239 
L 463.266816 352.901837 
L 469.125206 353.2239 
L 480.841984 353.2239 
L 633.160105 353.2239 
L 639.018494 352.912558 
L 644.876883 353.2239 
L 680.027219 353.2239 
L 902.646011 353.2239 
L 908.5044 352.804673 
L 914.362789 353.2239 
L 937.796346 353.182849 
L 943.654736 352.993569 
L 949.513125 353.2239 
L 949.513125 353.2239 
" style="fill:none;stroke:#e4d354;stroke-linecap:square;"/>
   </g>
   <g id="line2d_34">
    <path clip-path="url(#pd8423d5f6a)" d="M 76.613125 319.518974 
L 82.471514 353.2239 
L 223.072857 353.2239 
L 228.931246 353.067341 
L 234.789635 353.2239 
L 258.223192 353.2239 
L 264.081581 353.067341 
L 269.939971 353.2239 
L 275.79836 353.134399 
L 287.515138 353.2239 
L 410.541313 353.2239 
L 416.399702 353.065452 
L 422.258091 353.2239 
L 433.97487 353.2239 
L 439.833259 353.110388 
L 445.691648 353.2239 
L 457.408427 353.2239 
L 463.266816 353.064458 
L 469.125206 353.2239 
L 480.841984 353.2239 
L 633.160105 353.2239 
L 639.018494 353.035828 
L 644.876883 353.2239 
L 650.735273 353.2239 
L 656.593662 353.082268 
L 662.452051 353.2239 
L 902.646011 353.2239 
L 908.5044 352.939471 
L 914.362789 353.2239 
L 937.796346 353.2239 
L 943.654736 352.899323 
L 949.513125 353.2239 
L 949.513125 353.2239 
" style="fill:none;stroke:#2b908f;stroke-linecap:square;"/>
   </g>
   <g id="line2d_35">
    <path clip-path="url(#pd8423d5f6a)" d="M 76.613125 322.096613 
L 82.471514 353.2239 
L 223.072857 353.2239 
L 228.931246 353.026891 
L 234.789635 353.2239 
L 258.223192 353.2239 
L 264.081581 353.026891 
L 269.939971 353.2239 
L 410.541313 353.2239 
L 416.399702 353.024257 
L 422.258091 353.2239 
L 433.97487 353.2239 
L 439.833259 353.090345 
L 445.691648 353.2239 
L 457.408427 353.2239 
L 463.266816 353.089864 
L 469.125206 353.2239 
L 633.160105 353.2239 
L 639.018494 353.084095 
L 644.876883 353.2239 
L 650.735273 353.2239 
L 656.593662 352.942929 
L 662.452051 353.2239 
L 902.646011 353.2239 
L 908.5044 352.987267 
L 914.362789 353.2239 
L 937.796346 353.2239 
L 943.654736 352.892135 
L 949.513125 353.2239 
L 949.513125 353.2239 
" style="fill:none;stroke:#f45b5b;stroke-linecap:square;"/>
   </g>
   <g id="line2d_36">
    <path clip-path="url(#pd8423d5f6a)" d="M 76.613125 320.704867 
L 82.471514 353.2239 
L 258.223192 353.2239 
L 264.081581 353.102409 
L 269.939971 353.2239 
L 275.79836 353.102348 
L 281.656749 353.2239 
L 410.541313 353.2239 
L 416.399702 353.059574 
L 422.258091 353.2239 
L 433.97487 353.2239 
L 439.833259 353.059042 
L 445.691648 353.2239 
L 457.408427 353.2239 
L 463.266816 353.099791 
L 469.125206 353.2239 
L 474.983595 353.099559 
L 480.841984 353.2239 
L 650.735273 353.137864 
L 656.593662 353.008486 
L 662.452051 353.2239 
L 703.460776 353.2239 
L 709.319165 353.092738 
L 715.177555 353.2239 
L 773.761447 353.2239 
L 779.619836 353.04496 
L 785.478226 353.2239 
L 902.646011 353.2239 
L 908.5044 352.843419 
L 914.362789 353.2239 
L 937.796346 353.174925 
L 943.654736 352.82427 
L 949.513125 353.2239 
L 949.513125 353.2239 
" style="fill:none;stroke:#91e8e1;stroke-linecap:square;"/>
   </g>
   <g id="line2d_37">
    <path clip-path="url(#pd8423d5f6a)" d="M 76.613125 319.115155 
L 82.471514 353.2239 
L 410.541313 353.2239 
L 416.399702 353.029826 
L 422.258091 353.2239 
L 433.97487 353.2239 
L 439.833259 353.098163 
L 445.691648 353.2239 
L 457.408427 353.2239 
L 463.266816 352.96063 
L 469.125206 353.2239 
L 474.983595 353.166623 
L 486.700373 353.2239 
L 539.425877 353.2239 
L 633.160105 353.2239 
L 639.018494 352.979424 
L 644.876883 353.2239 
L 656.593662 353.06051 
L 662.452051 353.2239 
L 902.646011 353.2239 
L 908.5044 352.885964 
L 914.362789 353.2239 
L 937.796346 353.211074 
L 943.654736 352.949694 
L 949.513125 353.2239 
L 949.513125 353.2239 
" style="fill:none;stroke:#7cb5ec;stroke-linecap:square;"/>
   </g>
   <g id="line2d_38">
    <path clip-path="url(#pd8423d5f6a)" d="M 76.613125 324.700517 
L 82.471514 353.2239 
L 152.772185 353.2239 
L 158.630575 353.100954 
L 164.488964 353.2239 
L 223.072857 353.2239 
L 228.931246 353.100954 
L 234.789635 353.2239 
L 258.223192 353.2239 
L 264.081581 353.100954 
L 269.939971 353.2239 
L 275.79836 353.100888 
L 281.656749 353.2239 
L 433.97487 353.2239 
L 439.833259 353.099072 
L 445.691648 353.2239 
L 457.408427 353.2239 
L 463.266816 352.973344 
L 469.125206 353.2239 
L 474.983595 353.09842 
L 480.841984 353.2239 
L 586.292991 353.2239 
L 592.15138 353.095622 
L 598.009769 353.2239 
L 633.160105 353.2239 
L 639.018494 352.964493 
L 644.876883 353.2239 
L 656.593662 352.963297 
L 662.452051 353.2239 
L 703.460776 353.2239 
L 709.319165 353.091565 
L 715.177555 353.2239 
L 750.32789 353.2239 
L 756.186279 353.089595 
L 762.044669 353.2239 
L 838.203729 353.2239 
L 844.062118 352.946132 
L 849.920508 353.2239 
L 873.354065 353.2239 
L 879.212454 353.082502 
L 885.070843 353.2239 
L 902.646011 353.2239 
L 908.5044 352.935042 
L 914.362789 353.2239 
L 937.796346 353.2239 
L 943.654736 352.918411 
L 949.513125 353.2239 
L 949.513125 353.2239 
" style="fill:none;stroke:#434348;stroke-linecap:square;"/>
   </g>
   <g id="line2d_39">
    <path clip-path="url(#pd8423d5f6a)" d="M 76.613125 315.391177 
L 82.471514 353.2239 
L 211.356078 353.2239 
L 217.214467 353.088673 
L 223.072857 353.2239 
L 228.931246 353.119407 
L 240.648024 353.2239 
L 410.541313 353.2239 
L 416.399702 353.033302 
L 422.258091 353.2239 
L 433.97487 353.2239 
L 439.833259 353.106043 
L 445.691648 353.2239 
L 457.408427 353.2239 
L 463.266816 352.954721 
L 469.125206 353.2239 
L 474.983595 353.143503 
L 486.700373 353.2239 
L 633.160105 353.2239 
L 639.018494 352.995016 
L 644.876883 353.219996 
L 656.593662 353.08548 
L 662.452051 353.2239 
L 902.646011 353.2239 
L 908.5044 352.904764 
L 914.362789 353.2239 
L 937.796346 353.21201 
L 943.654736 352.949487 
L 949.513125 353.2239 
L 949.513125 353.2239 
" style="fill:none;stroke:#90ed7d;stroke-linecap:square;"/>
   </g>
   <g id="line2d_40">
    <path clip-path="url(#pd8423d5f6a)" d="M 76.613125 317.308079 
L 82.471514 353.2239 
L 258.223192 353.217733 
L 264.081581 353.106729 
L 269.939971 353.2239 
L 275.79836 353.106693 
L 281.656749 353.2239 
L 410.541313 353.2239 
L 416.399702 353.036857 
L 422.258091 353.2239 
L 433.97487 353.2239 
L 439.833259 353.080056 
L 445.691648 353.2239 
L 457.408427 353.2239 
L 463.266816 352.997998 
L 469.125206 353.2239 
L 474.983595 353.123315 
L 486.700373 353.2239 
L 633.160105 353.2239 
L 639.018494 353.015752 
L 644.876883 353.2239 
L 656.593662 353.073553 
L 662.452051 353.2239 
L 703.460776 353.2239 
L 709.319165 353.077759 
L 715.177555 353.2239 
L 902.646011 353.2239 
L 908.5044 352.87084 
L 914.362789 353.2239 
L 937.796346 353.193519 
L 943.654736 352.891074 
L 949.513125 353.2239 
L 949.513125 353.2239 
" style="fill:none;stroke:#f7a35c;stroke-linecap:square;"/>
   </g>
   <g id="line2d_41">
    <path clip-path="url(#pd8423d5f6a)" d="M 76.613125 317.959659 
L 82.471514 353.2239 
L 258.223192 353.2239 
L 264.081581 353.074094 
L 269.939971 353.2239 
L 275.79836 353.094009 
L 281.656749 353.2239 
L 410.541313 353.2239 
L 416.399702 353.05222 
L 422.258091 353.2239 
L 433.97487 353.2239 
L 439.833259 353.072002 
L 445.691648 353.2239 
L 457.408427 353.2239 
L 463.266816 353.041075 
L 469.125206 353.2239 
L 474.983595 353.101818 
L 480.841984 353.2239 
L 633.160105 353.2239 
L 639.018494 353.06672 
L 644.876883 353.2239 
L 650.735273 353.192375 
L 656.593662 353.034464 
L 662.452051 353.2239 
L 902.646011 353.2239 
L 908.5044 352.920571 
L 914.362789 353.2239 
L 937.796346 353.199871 
L 943.654736 352.905494 
L 949.513125 353.2239 
L 949.513125 353.2239 
" style="fill:none;stroke:#8085e9;stroke-linecap:square;"/>
   </g>
   <g id="line2d_42">
    <path clip-path="url(#pd8423d5f6a)" d="M 76.613125 324.968691 
L 82.471514 353.2239 
L 410.541313 353.2239 
L 416.399702 353.004185 
L 422.258091 353.2239 
L 457.408427 353.2239 
L 463.266816 353.057301 
L 469.125206 353.2239 
L 474.983595 353.168195 
L 486.700373 353.2239 
L 633.160105 353.2239 
L 639.018494 353.046354 
L 644.876883 353.2239 
L 773.761447 353.2239 
L 779.619836 353.095381 
L 785.478226 353.2239 
L 902.646011 353.2239 
L 908.5044 352.936653 
L 914.362789 353.2239 
L 937.796346 353.2239 
L 943.654736 352.915825 
L 949.513125 353.2239 
L 949.513125 353.2239 
" style="fill:none;stroke:#f15c80;stroke-linecap:square;"/>
   </g>
   <g id="line2d_43">
    <path clip-path="url(#pd8423d5f6a)" d="M 76.613125 317.21396 
L 82.471514 353.2239 
L 410.541313 353.2239 
L 416.399702 353.062167 
L 422.258091 353.2239 
L 433.97487 353.2239 
L 439.833259 353.095267 
L 445.691648 353.2239 
L 457.408427 353.2239 
L 463.266816 352.995803 
L 469.125206 353.2239 
L 474.983595 353.14359 
L 486.700373 353.2239 
L 615.584937 353.191741 
L 633.160105 353.2239 
L 639.018494 352.998826 
L 644.876883 353.2239 
L 656.593662 353.060457 
L 662.452051 353.2239 
L 902.646011 353.2239 
L 908.5044 352.839154 
L 914.362789 353.2239 
L 937.796346 353.206387 
L 943.654736 352.905263 
L 949.513125 353.2239 
L 949.513125 353.2239 
" style="fill:none;stroke:#e4d354;stroke-linecap:square;"/>
   </g>
   <g id="line2d_44">
    <path clip-path="url(#pd8423d5f6a)" d="M 76.613125 321.026333 
L 82.471514 353.2239 
L 211.356078 353.2239 
L 217.214467 353.068206 
L 223.072857 353.2239 
L 228.931246 353.099345 
L 234.789635 353.2239 
L 258.223192 353.2239 
L 264.081581 353.099345 
L 269.939971 353.2239 
L 287.515138 353.2239 
L 410.541313 353.2239 
L 416.399702 353.00398 
L 422.258091 353.2239 
L 457.408427 353.2239 
L 463.266816 352.971348 
L 469.125206 353.2239 
L 492.558763 353.19222 
L 515.99232 353.2239 
L 633.160105 353.2239 
L 639.018494 352.963957 
L 644.876883 353.2239 
L 650.735273 353.191322 
L 656.593662 352.96293 
L 662.452051 353.2239 
L 902.646011 353.2239 
L 908.5044 352.721794 
L 914.362789 353.2239 
L 937.796346 353.2239 
L 943.654736 352.847065 
L 949.513125 353.2239 
L 949.513125 353.2239 
" style="fill:none;stroke:#2b908f;stroke-linecap:square;"/>
   </g>
   <g id="line2d_45">
    <path clip-path="url(#pd8423d5f6a)" d="M 76.613125 320.750909 
L 82.471514 353.2239 
L 152.772185 353.2239 
L 158.630575 353.097938 
L 164.488964 353.2239 
L 223.072857 353.2239 
L 228.931246 353.072746 
L 234.789635 353.2239 
L 258.223192 353.2239 
L 264.081581 353.072746 
L 269.939971 353.2239 
L 275.79836 353.097881 
L 281.656749 353.2239 
L 410.541313 353.2239 
L 416.399702 353.096252 
L 422.258091 353.2239 
L 433.97487 353.2239 
L 439.833259 353.07021 
L 445.691648 353.2239 
L 457.408427 353.2239 
L 463.266816 353.069639 
L 469.125206 353.2239 
L 474.983595 353.095082 
L 480.841984 353.2239 
L 633.160105 353.2239 
L 639.018494 353.06354 
L 644.876883 353.2239 
L 674.16883 353.196882 
L 703.460776 353.2239 
L 726.894333 353.2239 
L 750.32789 353.2239 
L 756.186279 353.1126 
L 762.044669 353.2239 
L 902.646011 353.2239 
L 908.5044 353.042482 
L 914.362789 353.2239 
L 937.796346 353.2239 
L 943.654736 353.06441 
L 949.513125 353.2239 
L 949.513125 353.2239 
" style="fill:none;stroke:#f45b5b;stroke-linecap:square;"/>
   </g>
   <g id="line2d_46">
    <path clip-path="url(#pd8423d5f6a)" d="M 76.613125 325.301286 
L 82.471514 353.2239 
L 211.356078 353.2239 
L 217.214467 353.09669 
L 223.072857 353.2239 
L 228.931246 353.160295 
L 240.648024 353.2239 
L 258.223192 353.2239 
L 264.081581 353.033085 
L 269.939971 353.2239 
L 275.79836 353.096624 
L 281.656749 353.2239 
L 410.541313 353.2239 
L 416.399702 353.094725 
L 422.258091 353.2239 
L 433.97487 353.2239 
L 439.833259 353.029323 
L 445.691648 353.2239 
L 457.408427 353.2239 
L 463.266816 353.093506 
L 469.125206 353.2239 
L 474.983595 353.158526 
L 486.700373 353.2239 
L 650.735273 353.154809 
L 656.593662 353.016116 
L 662.452051 353.2239 
L 902.646011 353.2239 
L 908.5044 353.061096 
L 914.362789 353.2239 
L 937.796346 353.2239 
L 943.654736 353.050218 
L 949.513125 353.2239 
L 949.513125 353.2239 
" style="fill:none;stroke:#91e8e1;stroke-linecap:square;"/>
   </g>
   <g id="line2d_47">
    <path clip-path="url(#pd8423d5f6a)" d="M 76.613125 326.670837 
L 82.471514 353.2239 
L 152.772185 353.2239 
L 158.630575 353.073031 
L 164.488964 353.2239 
L 211.356078 353.2239 
L 217.214467 353.073031 
L 223.072857 353.2239 
L 228.931246 353.12332 
L 240.648024 353.2239 
L 269.939971 353.2239 
L 275.79836 353.022586 
L 281.656749 353.2239 
L 433.97487 353.2239 
L 439.833259 353.016738 
L 445.691648 353.2239 
L 469.125206 353.2239 
L 474.983595 353.014641 
L 480.841984 353.2239 
L 633.160105 353.2239 
L 639.018494 353.055715 
L 644.876883 353.2239 
L 650.735273 353.2239 
L 656.593662 353.110656 
L 662.452051 353.2239 
L 750.32789 353.2239 
L 756.186279 353.103037 
L 762.044669 353.2239 
L 902.646011 353.2239 
L 908.5044 352.87756 
L 914.362789 353.2239 
L 937.796346 353.151349 
L 943.654736 352.851459 
L 949.513125 353.2239 
L 949.513125 353.2239 
" style="fill:none;stroke:#7cb5ec;stroke-linecap:square;"/>
   </g>
   <g id="line2d_48">
    <path clip-path="url(#pd8423d5f6a)" d="M 76.613125 321.293999 
L 82.471514 353.2239 
L 211.356078 353.2239 
L 217.214467 353.023712 
L 223.072857 353.2239 
L 457.408427 353.2239 
L 463.266816 352.9187 
L 469.125206 353.2239 
L 633.160105 353.2239 
L 639.018494 352.908654 
L 644.876883 353.2239 
L 650.735273 353.2239 
L 656.593662 353.012818 
L 662.452051 353.2239 
L 838.203729 353.2239 
L 844.062118 353.111468 
L 849.920508 353.2239 
L 902.646011 353.2239 
L 908.5044 352.990284 
L 914.362789 353.2239 
L 937.796346 353.2239 
L 943.654736 353.10122 
L 949.513125 353.2239 
L 949.513125 353.2239 
" style="fill:none;stroke:#434348;stroke-linecap:square;"/>
   </g>
   <g id="line2d_49">
    <path clip-path="url(#pd8423d5f6a)" d="M 76.613125 325.755026 
L 82.471514 353.2239 
L 223.072857 353.2239 
L 228.931246 352.968376 
L 234.789635 353.2239 
L 258.223192 353.2239 
L 264.081581 353.096138 
L 269.939971 353.2239 
L 305.090306 353.2239 
L 310.948695 353.095767 
L 316.807085 353.2239 
L 486.700373 353.2239 
L 492.558763 353.092432 
L 498.417152 353.2239 
L 609.726548 353.2239 
L 615.584937 353.088511 
L 621.443326 353.2239 
L 633.160105 353.2239 
L 639.018494 353.087532 
L 644.876883 353.2239 
L 650.735273 353.08709 
L 656.593662 353.2239 
L 703.460776 353.2239 
L 709.319165 353.084223 
L 715.177555 353.2239 
L 902.646011 353.2239 
L 908.5044 352.762876 
L 914.362789 353.2239 
L 949.513125 353.2239 
L 949.513125 353.2239 
" style="fill:none;stroke:#90ed7d;stroke-linecap:square;"/>
   </g>
   <g id="line2d_50">
    <path clip-path="url(#pd8423d5f6a)" d="M 76.613125 317.597239 
L 82.471514 353.2239 
L 223.072857 353.2239 
L 228.931246 353.107852 
L 234.789635 353.2239 
L 269.939971 353.2239 
L 275.79836 353.098888 
L 281.656749 353.2239 
L 410.541313 353.2239 
L 416.399702 353.03531 
L 422.258091 353.2239 
L 433.97487 353.2239 
L 439.833259 353.073977 
L 445.691648 353.2239 
L 457.408427 353.2239 
L 463.266816 353.052658 
L 469.125206 353.2239 
L 474.983595 353.124656 
L 486.700373 353.2239 
L 592.15138 353.181168 
L 609.726548 353.2239 
L 639.018494 353.042227 
L 644.876883 353.2239 
L 656.593662 353.087901 
L 662.452051 353.2239 
L 902.646011 353.2239 
L 908.5044 352.883661 
L 914.362789 353.2239 
L 937.796346 353.213263 
L 943.654736 352.931191 
L 949.513125 353.2239 
L 949.513125 353.2239 
" style="fill:none;stroke:#f7a35c;stroke-linecap:square;"/>
   </g>
   <g id="line2d_51">
    <path clip-path="url(#pd8423d5f6a)" d="M 76.613125 317.545537 
L 82.471514 353.2239 
L 223.072857 353.2239 
L 228.931246 353.109694 
L 234.789635 353.2239 
L 410.541313 353.2239 
L 416.399702 353.072113 
L 422.258091 353.2239 
L 433.97487 353.2239 
L 439.833259 353.09076 
L 445.691648 353.2239 
L 457.408427 353.2239 
L 463.266816 353.00898 
L 469.125206 353.2239 
L 474.983595 353.139107 
L 486.700373 353.2239 
L 627.301716 353.217768 
L 633.160105 353.2239 
L 639.018494 352.990963 
L 644.876883 353.2239 
L 656.593662 353.075745 
L 662.452051 353.2239 
L 902.646011 353.2239 
L 908.5044 352.852506 
L 914.362789 353.2239 
L 937.796346 353.204504 
L 943.654736 352.92358 
L 949.513125 353.2239 
L 949.513125 353.2239 
" style="fill:none;stroke:#8085e9;stroke-linecap:square;"/>
   </g>
   <g id="line2d_52">
    <path clip-path="url(#pd8423d5f6a)" d="M 76.613125 316.952845 
L 82.471514 353.2239 
L 211.356078 353.2239 
L 217.214467 353.110965 
L 223.072857 353.2239 
L 228.931246 353.110965 
L 234.789635 353.2239 
L 410.541313 353.2239 
L 416.399702 353.055647 
L 422.258091 353.2239 
L 433.97487 353.2239 
L 439.833259 353.091108 
L 445.691648 353.2239 
L 457.408427 353.2239 
L 463.266816 352.992079 
L 469.125206 353.2239 
L 474.983595 353.129123 
L 486.700373 353.2239 
L 533.567487 353.2239 
L 633.160105 353.2239 
L 639.018494 353.006604 
L 644.876883 353.2239 
L 656.593662 353.056218 
L 662.452051 353.2239 
L 902.646011 353.2239 
L 908.5044 352.858705 
L 914.362789 353.2239 
L 937.796346 353.210067 
L 943.654736 352.916871 
L 949.513125 353.2239 
L 949.513125 353.2239 
" style="fill:none;stroke:#f15c80;stroke-linecap:square;"/>
   </g>
   <g id="line2d_53">
    <path clip-path="url(#pd8423d5f6a)" d="M 76.613125 317.087282 
L 82.471514 353.2239 
L 258.223192 353.2239 
L 264.081581 353.107755 
L 269.939971 353.2239 
L 275.79836 353.117905 
L 287.515138 353.2239 
L 410.541313 353.2239 
L 416.399702 353.076853 
L 422.258091 353.2239 
L 433.97487 353.2239 
L 439.833259 353.090528 
L 445.691648 353.2239 
L 457.408427 353.2239 
L 463.266816 352.979436 
L 469.125206 353.2239 
L 474.983595 353.140876 
L 486.700373 353.2239 
L 633.160105 353.2239 
L 639.018494 352.990601 
L 644.876883 353.2239 
L 656.593662 353.054455 
L 662.452051 353.2239 
L 902.646011 353.2239 
L 908.5044 352.82401 
L 914.362789 353.2239 
L 937.796346 353.202578 
L 943.654736 352.916233 
L 949.513125 353.2239 
L 949.513125 353.2239 
" style="fill:none;stroke:#e4d354;stroke-linecap:square;"/>
   </g>
   <g id="line2d_54">
    <path clip-path="url(#pd8423d5f6a)" d="M 76.613125 319.837642 
L 82.471514 353.2239 
L 410.541313 353.2239 
L 416.399702 353.025563 
L 422.258091 353.2239 
L 433.97487 353.2239 
L 439.833259 353.099705 
L 445.691648 353.2239 
L 457.408427 353.2239 
L 463.266816 353.024752 
L 469.125206 353.2239 
L 474.983595 353.136674 
L 486.700373 353.2239 
L 633.160105 353.2239 
L 639.018494 353.020261 
L 644.876883 353.2239 
L 656.593662 353.08348 
L 662.452051 353.2239 
L 902.646011 353.2239 
L 908.5044 352.851676 
L 914.362789 353.2239 
L 937.796346 353.2239 
L 943.654736 352.892919 
L 949.513125 353.2239 
L 949.513125 353.2239 
" style="fill:none;stroke:#2b908f;stroke-linecap:square;"/>
   </g>
   <g id="line2d_55">
    <path clip-path="url(#pd8423d5f6a)" d="M 76.613125 319.116554 
L 82.471514 353.2239 
L 211.356078 353.2239 
L 217.214467 353.105746 
L 223.072857 353.2239 
L 234.789635 353.2239 
L 457.408427 353.2239 
L 463.266816 353.022941 
L 469.125206 353.2239 
L 480.841984 353.2239 
L 633.160105 353.2239 
L 639.018494 352.994805 
L 644.876883 353.2239 
L 656.593662 353.202983 
L 691.743997 353.2239 
L 902.646011 353.2239 
L 908.5044 352.90166 
L 914.362789 353.2239 
L 937.796346 353.2239 
L 943.654736 352.983095 
L 949.513125 353.2239 
L 949.513125 353.2239 
" style="fill:none;stroke:#f45b5b;stroke-linecap:square;"/>
   </g>
   <g id="line2d_56">
    <path clip-path="url(#pd8423d5f6a)" d="M 76.613125 321.341185 
L 82.471514 353.2239 
L 223.072857 353.2239 
L 228.931246 353.102344 
L 234.789635 353.2239 
L 410.541313 353.2239 
L 416.399702 353.068327 
L 422.258091 353.2239 
L 433.97487 353.2239 
L 439.833259 353.097188 
L 445.691648 353.2239 
L 457.408427 353.2239 
L 463.266816 353.024183 
L 469.125206 353.2239 
L 474.983595 353.138535 
L 486.700373 353.2239 
L 639.018494 353.027475 
L 644.876883 353.2239 
L 656.593662 353.073644 
L 662.452051 353.2239 
L 902.646011 353.2239 
L 908.5044 352.863538 
L 914.362789 353.2239 
L 937.796346 353.210166 
L 943.654736 352.960596 
L 949.513125 353.2239 
L 949.513125 353.2239 
" style="fill:none;stroke:#91e8e1;stroke-linecap:square;"/>
   </g>
   <g id="line2d_57">
    <path clip-path="url(#pd8423d5f6a)" d="M 76.613125 318.993055 
L 82.471514 353.2239 
L 410.541313 353.2239 
L 416.399702 353.049318 
L 422.258091 353.2239 
L 457.408427 353.2239 
L 463.266816 353.014608 
L 469.125206 353.2239 
L 474.983595 353.158445 
L 486.700373 353.2239 
L 615.584937 353.204521 
L 633.160105 353.2239 
L 639.018494 353.025478 
L 644.876883 353.2239 
L 656.593662 353.074231 
L 662.452051 353.2239 
L 902.646011 353.2239 
L 908.5044 352.864898 
L 914.362789 353.2239 
L 937.796346 353.207077 
L 943.654736 352.921421 
L 949.513125 353.2239 
L 949.513125 353.2239 
" style="fill:none;stroke:#7cb5ec;stroke-linecap:square;"/>
   </g>
   <g id="line2d_58">
    <path clip-path="url(#pd8423d5f6a)" d="M 76.613125 321.46869 
L 82.471514 353.2239 
L 211.356078 353.2239 
L 217.214467 353.060774 
L 223.072857 353.2239 
L 234.789635 353.2239 
L 392.966145 353.2239 
L 398.824534 353.059356 
L 404.682924 353.2239 
L 457.408427 353.2239 
L 463.266816 352.892442 
L 469.125206 353.2239 
L 609.726548 353.2239 
L 615.584937 353.053846 
L 621.443326 353.2239 
L 633.160105 353.2239 
L 639.018494 352.938931 
L 644.876883 353.2239 
L 902.646011 353.2239 
L 908.5044 352.780726 
L 914.362789 353.2239 
L 937.796346 353.2239 
L 943.654736 352.891363 
L 949.513125 353.2239 
L 949.513125 353.2239 
" style="fill:none;stroke:#434348;stroke-linecap:square;"/>
   </g>
   <g id="line2d_59">
    <path clip-path="url(#pd8423d5f6a)" d="M 76.613125 319.047618 
L 82.471514 353.2239 
L 223.072857 353.2239 
L 228.931246 352.998127 
L 234.789635 353.2239 
L 258.223192 353.2239 
L 264.081581 353.111014 
L 269.939971 353.2239 
L 275.79836 353.167434 
L 287.515138 353.2239 
L 410.541313 353.2239 
L 416.399702 353.081569 
L 422.258091 353.2239 
L 457.408427 353.2239 
L 463.266816 352.995151 
L 469.125206 353.2239 
L 633.160105 353.2239 
L 639.018494 352.989532 
L 644.876883 353.2239 
L 656.593662 353.106336 
L 662.452051 353.2239 
L 703.460776 353.2239 
L 709.319165 353.105101 
L 715.177555 353.2239 
L 902.646011 353.2239 
L 908.5044 352.778286 
L 914.362789 353.2239 
L 937.796346 353.191227 
L 943.654736 352.857783 
L 949.513125 353.2239 
L 949.513125 353.2239 
" style="fill:none;stroke:#90ed7d;stroke-linecap:square;"/>
   </g>
   <g id="line2d_60">
    <path clip-path="url(#pd8423d5f6a)" d="M 76.613125 319.231149 
L 82.471514 353.2239 
L 223.072857 353.2239 
L 228.931246 353.112657 
L 234.789635 353.2239 
L 410.541313 353.2239 
L 416.399702 353.06291 
L 422.258091 353.2239 
L 457.408427 353.2239 
L 463.266816 353.061867 
L 469.125206 353.2239 
L 474.983595 353.158966 
L 486.700373 353.2239 
L 504.275541 353.2239 
L 633.160105 353.2239 
L 639.018494 353.022395 
L 644.876883 353.2239 
L 680.027219 353.2239 
L 902.646011 353.2239 
L 908.5044 352.845987 
L 914.362789 353.2239 
L 937.796346 353.2239 
L 943.654736 352.944702 
L 949.513125 353.2239 
L 949.513125 353.2239 
" style="fill:none;stroke:#f7a35c;stroke-linecap:square;"/>
   </g>
   <g id="line2d_61">
    <path clip-path="url(#pd8423d5f6a)" d="M 76.613125 316.041803 
L 82.471514 353.2239 
L 211.356078 353.2239 
L 217.214467 353.101899 
L 223.072857 353.2239 
L 228.931246 353.098849 
L 234.789635 353.2239 
L 269.939971 353.2239 
L 275.79836 353.110495 
L 281.656749 353.2239 
L 410.541313 353.2239 
L 416.399702 353.051943 
L 422.258091 353.2239 
L 433.97487 353.2239 
L 439.833259 353.085992 
L 445.691648 353.2239 
L 457.408427 353.2239 
L 463.266816 352.987261 
L 469.125206 353.2239 
L 474.983595 353.131258 
L 486.700373 353.2239 
L 603.868159 353.2239 
L 633.160105 353.2239 
L 639.018494 352.998277 
L 644.876883 353.2239 
L 656.593662 353.072078 
L 662.452051 353.2239 
L 902.646011 353.2239 
L 908.5044 352.873981 
L 914.362789 353.2239 
L 937.796346 353.205752 
L 943.654736 352.926843 
L 949.513125 353.2239 
L 949.513125 353.2239 
" style="fill:none;stroke:#8085e9;stroke-linecap:square;"/>
   </g>
   <g id="line2d_62">
    <path clip-path="url(#pd8423d5f6a)" d="M 76.613125 318.055749 
L 82.471514 353.2239 
L 410.541313 353.2239 
L 416.399702 353.055741 
L 422.258091 353.2239 
L 433.97487 353.2239 
L 439.833259 353.100824 
L 445.691648 353.2239 
L 457.408427 353.2239 
L 463.266816 353.017047 
L 469.125206 353.2239 
L 474.983595 353.146669 
L 486.700373 353.2239 
L 539.425877 353.2239 
L 633.160105 353.2239 
L 639.018494 353.011727 
L 644.876883 353.222605 
L 656.593662 353.060894 
L 662.452051 353.2239 
L 902.646011 353.2239 
L 908.5044 352.864283 
L 914.362789 353.2239 
L 937.796346 353.205619 
L 943.654736 352.937993 
L 949.513125 353.2239 
L 949.513125 353.2239 
" style="fill:none;stroke:#f15c80;stroke-linecap:square;"/>
   </g>
   <g id="line2d_63">
    <path clip-path="url(#pd8423d5f6a)" d="M 76.613125 322.241734 
L 82.471514 353.2239 
L 223.072857 353.2239 
L 228.931246 353.063537 
L 234.789635 353.2239 
L 258.223192 353.2239 
L 264.081581 353.063537 
L 269.939971 353.2239 
L 410.541313 353.2239 
L 416.399702 353.093856 
L 422.258091 353.2239 
L 457.408427 353.2239 
L 463.266816 353.027553 
L 469.125206 353.2239 
L 633.160105 353.2239 
L 639.018494 353.054349 
L 644.876883 353.2239 
L 650.735273 353.2239 
L 656.593662 353.053542 
L 662.452051 353.2239 
L 902.646011 353.2239 
L 908.5044 353.035538 
L 914.362789 353.2239 
L 937.796346 353.2239 
L 943.654736 352.985938 
L 949.513125 353.2239 
L 949.513125 353.2239 
" style="fill:none;stroke:#e4d354;stroke-linecap:square;"/>
   </g>
   <g id="line2d_64">
    <path clip-path="url(#pd8423d5f6a)" d="M 76.613125 318.736964 
L 82.471514 353.2239 
L 152.772185 353.2239 
L 158.630575 353.108559 
L 164.488964 353.2239 
L 223.072857 353.2239 
L 228.931246 353.070112 
L 234.789635 353.2239 
L 258.223192 353.2239 
L 264.081581 353.089335 
L 269.939971 353.2239 
L 275.79836 353.089292 
L 281.656749 353.2239 
L 410.541313 353.2239 
L 416.399702 353.068587 
L 422.258091 353.2239 
L 433.97487 353.2239 
L 439.833259 353.048667 
L 445.691648 353.2239 
L 457.408427 353.2239 
L 463.266816 352.989483 
L 469.125206 353.2239 
L 474.983595 353.106486 
L 480.841984 353.2239 
L 633.160105 353.2239 
L 639.018494 353.061698 
L 644.876883 353.2239 
L 656.593662 353.040506 
L 662.452051 353.2239 
L 902.646011 353.2239 
L 908.5044 352.946646 
L 914.362789 353.2239 
L 937.796346 353.152216 
L 943.654736 352.882608 
L 949.513125 353.2239 
L 949.513125 353.2239 
" style="fill:none;stroke:#2b908f;stroke-linecap:square;"/>
   </g>
   <g id="line2d_65">
    <path clip-path="url(#pd8423d5f6a)" d="M 76.613125 327.778066 
L 82.471514 353.2239 
L 433.97487 353.2239 
L 439.833259 352.986964 
L 445.691648 353.2239 
L 773.761447 353.2239 
L 779.619836 352.968021 
L 785.478226 353.2239 
L 949.513125 353.2239 
L 949.513125 353.2239 
" style="fill:none;stroke:#f45b5b;stroke-linecap:square;"/>
   </g>
   <g id="line2d_66">
    <path clip-path="url(#pd8423d5f6a)" d="M 76.613125 319.406223 
L 82.471514 353.2239 
L 258.223192 353.2239 
L 264.081581 353.083578 
L 269.939971 353.2239 
L 281.656749 353.2239 
L 410.541313 353.2239 
L 416.399702 353.033702 
L 422.258091 353.2239 
L 650.735273 353.123497 
L 656.593662 353.073047 
L 662.452051 353.2239 
L 902.646011 353.2239 
L 908.5044 352.88505 
L 914.362789 353.2239 
L 937.796346 353.2239 
L 943.654736 352.926264 
L 949.513125 353.2239 
L 949.513125 353.2239 
" style="fill:none;stroke:#91e8e1;stroke-linecap:square;"/>
   </g>
   <g id="line2d_67">
    <path clip-path="url(#pd8423d5f6a)" d="M 76.613125 319.636113 
L 82.471514 353.2239 
L 269.939971 353.2239 
L 275.79836 353.107603 
L 281.656749 353.2239 
L 410.541313 353.2239 
L 416.399702 353.07597 
L 422.258091 353.2239 
L 433.97487 353.2239 
L 439.833259 353.087065 
L 445.691648 353.2239 
L 457.408427 353.2239 
L 463.266816 353.031871 
L 469.125206 353.2239 
L 474.983595 353.127118 
L 486.700373 353.2239 
L 562.859434 353.2239 
L 633.160105 353.2239 
L 639.018494 353.027189 
L 644.876883 353.2239 
L 662.452051 353.2239 
L 902.646011 353.2239 
L 908.5044 352.879071 
L 914.362789 353.2239 
L 937.796346 353.208554 
L 943.654736 352.943689 
L 949.513125 353.2239 
L 949.513125 353.2239 
" style="fill:none;stroke:#7cb5ec;stroke-linecap:square;"/>
   </g>
   <g id="line2d_68">
    <path clip-path="url(#pd8423d5f6a)" d="M 76.613125 318.590062 
L 82.471514 353.2239 
L 410.541313 353.2239 
L 416.399702 353.082437 
L 422.258091 353.2239 
L 457.408427 353.2239 
L 463.266816 353.013763 
L 469.125206 353.2239 
L 474.983595 353.152091 
L 486.700373 353.2239 
L 568.717823 353.2239 
L 633.160105 353.2239 
L 639.018494 353.003941 
L 644.876883 353.2239 
L 656.593662 353.073301 
L 662.452051 353.2239 
L 902.646011 353.2239 
L 908.5044 352.830224 
L 914.362789 353.2239 
L 937.796346 353.196506 
L 943.654736 352.90773 
L 949.513125 353.2239 
L 949.513125 353.2239 
" style="fill:none;stroke:#434348;stroke-linecap:square;"/>
   </g>
   <g id="line2d_69">
    <path clip-path="url(#pd8423d5f6a)" d="M 76.613125 318.761193 
L 82.471514 353.2239 
L 223.072857 353.2239 
L 228.931246 353.092076 
L 234.789635 353.2239 
L 410.541313 353.2239 
L 416.399702 353.077216 
L 422.258091 353.2239 
L 433.97487 353.2239 
L 439.833259 353.097917 
L 445.691648 353.2239 
L 457.408427 353.2239 
L 463.266816 353.035052 
L 469.125206 353.2239 
L 474.983595 353.144282 
L 486.700373 353.2239 
L 557.001044 353.2239 
L 633.160105 353.2239 
L 639.018494 353.031381 
L 644.876883 353.2239 
L 656.593662 353.077908 
L 662.452051 353.2239 
L 902.646011 353.2239 
L 908.5044 352.894205 
L 914.362789 353.2239 
L 937.796346 353.204598 
L 943.654736 352.956491 
L 949.513125 353.2239 
L 949.513125 353.2239 
" style="fill:none;stroke:#90ed7d;stroke-linecap:square;"/>
   </g>
   <g id="line2d_70">
    <path clip-path="url(#pd8423d5f6a)" d="M 76.613125 319.665176 
L 82.471514 353.2239 
L 269.939971 353.2239 
L 275.79836 353.105176 
L 281.656749 353.2239 
L 410.541313 353.2239 
L 416.399702 353.083263 
L 422.258091 353.2239 
L 433.97487 353.2239 
L 439.833259 353.104142 
L 445.691648 353.2239 
L 457.408427 353.2239 
L 463.266816 353.061558 
L 469.125206 353.2239 
L 474.983595 353.132048 
L 486.700373 353.2239 
L 580.434602 353.21675 
L 633.160105 353.2239 
L 639.018494 353.014659 
L 644.876883 353.2239 
L 656.593662 353.028472 
L 662.452051 353.2239 
L 902.646011 353.2239 
L 908.5044 352.85954 
L 914.362789 353.2239 
L 937.796346 353.207598 
L 943.654736 352.908362 
L 949.513125 353.2239 
L 949.513125 353.2239 
" style="fill:none;stroke:#f7a35c;stroke-linecap:square;"/>
   </g>
   <g id="line2d_71">
    <path clip-path="url(#pd8423d5f6a)" d="M 76.613125 318.596676 
L 82.471514 353.2239 
L 223.072857 353.2239 
L 228.931246 353.110675 
L 234.789635 353.2239 
L 410.541313 353.2239 
L 416.399702 353.1074 
L 422.258091 353.2239 
L 457.408427 353.2239 
L 463.266816 352.985368 
L 469.125206 353.2239 
L 474.983595 353.157551 
L 486.700373 353.2239 
L 545.284266 353.2239 
L 633.160105 353.2239 
L 639.018494 352.997085 
L 644.876883 353.2239 
L 662.452051 353.2239 
L 902.646011 353.2239 
L 908.5044 352.836315 
L 914.362789 353.2239 
L 937.796346 353.205888 
L 943.654736 352.917198 
L 949.513125 353.2239 
L 949.513125 353.2239 
" style="fill:none;stroke:#8085e9;stroke-linecap:square;"/>
   </g>
   <g id="line2d_72">
    <path clip-path="url(#pd8423d5f6a)" d="M 76.613125 318.892513 
L 82.471514 353.2239 
L 410.541313 353.2239 
L 416.399702 353.074372 
L 422.258091 353.2239 
L 457.408427 353.2239 
L 463.266816 353.033945 
L 469.125206 353.2239 
L 474.983595 353.155998 
L 486.700373 353.2239 
L 580.434602 353.196468 
L 609.726548 353.2239 
L 639.018494 353.041213 
L 644.876883 353.223132 
L 656.593662 353.05922 
L 662.452051 353.2239 
L 902.646011 353.2239 
L 908.5044 352.883555 
L 914.362789 353.2239 
L 937.796346 353.20941 
L 943.654736 352.925284 
L 949.513125 353.2239 
L 949.513125 353.2239 
" style="fill:none;stroke:#f15c80;stroke-linecap:square;"/>
   </g>
   <g id="line2d_73">
    <path clip-path="url(#pd8423d5f6a)" d="M 76.613125 318.63108 
L 82.471514 353.2239 
L 152.772185 353.2239 
L 158.630575 353.111979 
L 164.488964 353.2239 
L 223.072857 353.2239 
L 228.931246 353.046692 
L 234.789635 353.2239 
L 269.939971 353.2239 
L 275.79836 353.055963 
L 281.656749 353.2239 
L 410.541313 353.2239 
L 416.399702 353.073409 
L 422.258091 353.2239 
L 433.97487 353.2239 
L 439.833259 353.035324 
L 445.691648 353.2239 
L 457.408427 353.2239 
L 463.266816 353.053679 
L 469.125206 353.2239 
L 474.983595 353.072362 
L 480.841984 353.2239 
L 633.160105 353.2239 
L 639.018494 353.067799 
L 644.876883 353.2239 
L 656.593662 353.116144 
L 668.31044 353.2239 
L 732.752722 353.2239 
L 750.32789 353.2239 
L 756.186279 353.092973 
L 762.044669 353.2239 
L 902.646011 353.2239 
L 908.5044 352.921144 
L 914.362789 353.2239 
L 937.796346 353.212776 
L 943.654736 352.963272 
L 949.513125 353.2239 
L 949.513125 353.2239 
" style="fill:none;stroke:#e4d354;stroke-linecap:square;"/>
   </g>
   <g id="line2d_74">
    <path clip-path="url(#pd8423d5f6a)" d="M 76.613125 318.312731 
L 82.471514 353.2239 
L 258.223192 353.2239 
L 264.081581 353.111716 
L 269.939971 353.2239 
L 275.79836 353.122066 
L 287.515138 353.2239 
L 410.541313 353.2239 
L 416.399702 353.066152 
L 422.258091 353.2239 
L 433.97487 353.2239 
L 439.833259 353.108004 
L 445.691648 353.2239 
L 457.408427 353.2239 
L 463.266816 353.015909 
L 469.125206 353.2239 
L 474.983595 353.138096 
L 486.700373 353.2239 
L 592.15138 353.177161 
L 609.726548 353.2239 
L 639.018494 353.022774 
L 644.876883 353.222648 
L 656.593662 353.059229 
L 662.452051 353.2239 
L 902.646011 353.2239 
L 908.5044 352.869432 
L 914.362789 353.2239 
L 937.796346 353.207508 
L 943.654736 352.939724 
L 949.513125 353.2239 
L 949.513125 353.2239 
" style="fill:none;stroke:#2b908f;stroke-linecap:square;"/>
   </g>
   <g id="line2d_75">
    <path clip-path="url(#pd8423d5f6a)" d="M 76.613125 318.320871 
L 82.471514 353.2239 
L 211.356078 353.2239 
L 217.214467 353.035235 
L 223.072857 353.2239 
L 228.931246 353.129568 
L 240.648024 353.2239 
L 410.541313 353.2239 
L 416.399702 353.031426 
L 422.258091 353.2239 
L 457.408427 353.2239 
L 463.266816 352.834716 
L 469.125206 353.2239 
L 486.700373 353.2239 
L 633.160105 353.2239 
L 639.018494 352.847242 
L 644.876883 353.2239 
L 656.593662 353.017111 
L 662.452051 353.2239 
L 902.646011 353.2239 
L 908.5044 352.792238 
L 914.362789 353.2239 
L 937.796346 353.2239 
L 943.654736 352.727782 
L 949.513125 353.2239 
L 949.513125 353.2239 
" style="fill:none;stroke:#f45b5b;stroke-linecap:square;"/>
   </g>
   <g id="line2d_76">
    <path clip-path="url(#pd8423d5f6a)" d="M 76.613125 322.244659 
L 82.471514 353.2239 
L 152.772185 353.2239 
L 158.630575 353.060277 
L 164.488964 353.2239 
L 258.223192 353.2239 
L 264.081581 352.896654 
L 269.939971 353.2239 
L 275.79836 353.060169 
L 281.656749 353.2239 
L 457.408427 353.2239 
L 463.266816 353.001399 
L 469.125206 353.2239 
L 474.983595 353.112446 
L 480.841984 353.2239 
L 574.576212 353.2239 
L 580.434602 353.110314 
L 586.292991 353.2239 
L 633.160105 353.2239 
L 639.018494 353.051251 
L 644.876883 353.2239 
L 650.735273 353.2239 
L 656.593662 352.819213 
L 662.452051 353.2239 
L 750.32789 353.2239 
L 756.186279 353.104838 
L 762.044669 353.2239 
L 820.628561 353.2239 
L 826.486951 353.101637 
L 832.34534 353.2239 
L 873.354065 353.2239 
L 879.212454 353.098455 
L 885.070843 353.2239 
L 902.646011 353.2239 
L 908.5044 353.03179 
L 914.362789 353.2239 
L 937.796346 353.157916 
L 943.654736 353.089112 
L 949.513125 353.2239 
L 949.513125 353.2239 
" style="fill:none;stroke:#91e8e1;stroke-linecap:square;"/>
   </g>
   <g id="line2d_77">
    <path clip-path="url(#pd8423d5f6a)" d="M 76.613125 317.479464 
L 82.471514 353.2239 
L 223.072857 353.2239 
L 228.931246 353.112516 
L 234.789635 353.2239 
L 258.223192 353.2239 
L 264.081581 353.111413 
L 269.939971 353.2239 
L 275.79836 353.09921 
L 281.656749 353.2239 
L 410.541313 353.2239 
L 416.399702 353.073775 
L 422.258091 353.2239 
L 433.97487 353.2239 
L 439.833259 353.061988 
L 445.691648 353.2239 
L 457.408427 353.2239 
L 463.266816 353.017331 
L 469.125206 353.2239 
L 474.983595 353.117577 
L 486.700373 353.2239 
L 545.284266 353.2239 
L 633.160105 353.2239 
L 639.018494 353.000121 
L 644.876883 353.2239 
L 656.593662 353.039098 
L 662.452051 353.2239 
L 902.646011 353.2239 
L 908.5044 352.829737 
L 914.362789 353.2239 
L 937.796346 353.214458 
L 943.654736 352.913254 
L 949.513125 353.2239 
L 949.513125 353.2239 
" style="fill:none;stroke:#7cb5ec;stroke-linecap:square;"/>
   </g>
   <g id="line2d_78">
    <path clip-path="url(#pd8423d5f6a)" d="M 32.968125 353.2239 
L 993.158125 353.2239 
" style="fill:none;stroke:#dedede;stroke-linecap:square;stroke-width:2;"/>
   </g>
   <g id="text_17">
    <!-- Fastp: Read N Content -->
    <defs>
     <path d="M 9.8125 72.90625 
L 51.703125 72.90625 
L 51.703125 64.59375 
L 19.671875 64.59375 
L 19.671875 43.109375 
L 48.578125 43.109375 
L 48.578125 34.8125 
L 19.671875 34.8125 
L 19.671875 0 
L 9.8125 0 
z
" id="DejaVuSans-70"/>
     <path d="M 18.109375 8.203125 
L 18.109375 -20.796875 
L 9.078125 -20.796875 
L 9.078125 54.6875 
L 18.109375 54.6875 
L 18.109375 46.390625 
Q 20.953125 51.265625 25.265625 53.625 
Q 29.59375 56 35.59375 56 
Q 45.5625 56 51.78125 48.09375 
Q 58.015625 40.1875 58.015625 27.296875 
Q 58.015625 14.40625 51.78125 6.484375 
Q 45.5625 -1.421875 35.59375 -1.421875 
Q 29.59375 -1.421875 25.265625 0.953125 
Q 20.953125 3.328125 18.109375 8.203125 
z
M 48.6875 27.296875 
Q 48.6875 37.203125 44.609375 42.84375 
Q 40.53125 48.484375 33.40625 48.484375 
Q 26.265625 48.484375 22.1875 42.84375 
Q 18.109375 37.203125 18.109375 27.296875 
Q 18.109375 17.390625 22.1875 11.75 
Q 26.265625 6.109375 33.40625 6.109375 
Q 40.53125 6.109375 44.609375 11.75 
Q 48.6875 17.390625 48.6875 27.296875 
z
" id="DejaVuSans-112"/>
     <path d="M 9.8125 72.90625 
L 23.09375 72.90625 
L 55.421875 11.921875 
L 55.421875 72.90625 
L 64.984375 72.90625 
L 64.984375 0 
L 51.703125 0 
L 19.390625 60.984375 
L 19.390625 0 
L 9.8125 0 
z
" id="DejaVuSans-78"/>
    </defs>
    <g transform="translate(422.606875 19.3575)scale(0.16 -0.16)">
     <use xlink:href="#DejaVuSans-70"/>
     <use x="57.378906" xlink:href="#DejaVuSans-97"/>
     <use x="118.658203" xlink:href="#DejaVuSans-115"/>
     <use x="170.757812" xlink:href="#DejaVuSans-116"/>
     <use x="209.966797" xlink:href="#DejaVuSans-112"/>
     <use x="273.443359" xlink:href="#DejaVuSans-58"/>
     <use x="307.134766" xlink:href="#DejaVuSans-32"/>
     <use x="338.921875" xlink:href="#DejaVuSans-82"/>
     <use x="408.341797" xlink:href="#DejaVuSans-101"/>
     <use x="469.865234" xlink:href="#DejaVuSans-97"/>
     <use x="531.144531" xlink:href="#DejaVuSans-100"/>
     <use x="594.621094" xlink:href="#DejaVuSans-32"/>
     <use x="626.408203" xlink:href="#DejaVuSans-78"/>
     <use x="701.212891" xlink:href="#DejaVuSans-32"/>
     <use x="733" xlink:href="#DejaVuSans-67"/>
     <use x="802.824219" xlink:href="#DejaVuSans-111"/>
     <use x="864.005859" xlink:href="#DejaVuSans-110"/>
     <use x="927.384766" xlink:href="#DejaVuSans-116"/>
     <use x="966.59375" xlink:href="#DejaVuSans-101"/>
     <use x="1028.117188" xlink:href="#DejaVuSans-110"/>
     <use x="1091.496094" xlink:href="#DejaVuSans-116"/>
    </g>
   </g>
  </g>
 </g>
 <defs>
  <clipPath id="pd8423d5f6a">
   <rect height="317.968" width="960.19" x="32.968125" y="35.2559"/>
  </clipPath>
 </defs>
</svg>
