<?xml version="1.0" encoding="utf-8" standalone="no"?>
<!DOCTYPE svg PUBLIC "-//W3C//DTD SVG 1.1//EN"
  "http://www.w3.org/Graphics/SVG/1.1/DTD/svg11.dtd">
<!-- Created with matplotlib (https://matplotlib.org/) -->
<svg height="330.541644pt" version="1.1" viewBox="0 0 1000.278125 330.541644" width="1000.278125pt" xmlns="http://www.w3.org/2000/svg" xmlns:xlink="http://www.w3.org/1999/xlink">
 <defs>
  <style type="text/css">
*{stroke-linecap:butt;stroke-linejoin:round;}
  </style>
 </defs>
 <g id="figure_1">
  <g id="axes_1">
   <g id="patch_1">
    <path d="M 43.148125 273.99006 
L 993.078125 273.99006 
L 993.078125 31.48286 
L 43.148125 31.48286 
z
" style="fill:#ffffff;"/>
   </g>
   <g id="matplotlib.axis_1">
    <g id="xtick_1">
     <g id="text_1">
      <!-- 0 -->
      <defs>
       <path d="M 31.78125 66.40625 
Q 24.171875 66.40625 20.328125 58.90625 
Q 16.5 51.421875 16.5 36.375 
Q 16.5 21.390625 20.328125 13.890625 
Q 24.171875 6.390625 31.78125 6.390625 
Q 39.453125 6.390625 43.28125 13.890625 
Q 47.125 21.390625 47.125 36.375 
Q 47.125 51.421875 43.28125 58.90625 
Q 39.453125 66.40625 31.78125 66.40625 
z
M 31.78125 74.21875 
Q 44.046875 74.21875 50.515625 64.515625 
Q 56.984375 54.828125 56.984375 36.375 
Q 56.984375 17.96875 50.515625 8.265625 
Q 44.046875 -1.421875 31.78125 -1.421875 
Q 19.53125 -1.421875 13.0625 8.265625 
Q 6.59375 17.96875 6.59375 36.375 
Q 6.59375 54.828125 13.0625 64.515625 
Q 19.53125 74.21875 31.78125 74.21875 
z
" id="DejaVuSans-48"/>
      </defs>
      <g transform="translate(77.985971 287.06881)scale(0.08 -0.08)">
       <use xlink:href="#DejaVuSans-48"/>
      </g>
     </g>
    </g>
    <g id="xtick_2">
     <g id="text_2">
      <!-- 20 -->
      <defs>
       <path d="M 19.1875 8.296875 
L 53.609375 8.296875 
L 53.609375 0 
L 7.328125 0 
L 7.328125 8.296875 
Q 12.9375 14.109375 22.625 23.890625 
Q 32.328125 33.6875 34.8125 36.53125 
Q 39.546875 41.84375 41.421875 45.53125 
Q 43.3125 49.21875 43.3125 52.78125 
Q 43.3125 58.59375 39.234375 62.25 
Q 35.15625 65.921875 28.609375 65.921875 
Q 23.96875 65.921875 18.8125 64.3125 
Q 13.671875 62.703125 7.8125 59.421875 
L 7.8125 69.390625 
Q 13.765625 71.78125 18.9375 73 
Q 24.125 74.21875 28.421875 74.21875 
Q 39.75 74.21875 46.484375 68.546875 
Q 53.21875 62.890625 53.21875 53.421875 
Q 53.21875 48.921875 51.53125 44.890625 
Q 49.859375 40.875 45.40625 35.40625 
Q 44.1875 33.984375 37.640625 27.21875 
Q 31.109375 20.453125 19.1875 8.296875 
z
" id="DejaVuSans-50"/>
      </defs>
      <g transform="translate(191.356774 287.06881)scale(0.08 -0.08)">
       <use xlink:href="#DejaVuSans-50"/>
       <use x="63.623047" xlink:href="#DejaVuSans-48"/>
      </g>
     </g>
    </g>
    <g id="xtick_3">
     <g id="text_3">
      <!-- 40 -->
      <defs>
       <path d="M 37.796875 64.3125 
L 12.890625 25.390625 
L 37.796875 25.390625 
z
M 35.203125 72.90625 
L 47.609375 72.90625 
L 47.609375 25.390625 
L 58.015625 25.390625 
L 58.015625 17.1875 
L 47.609375 17.1875 
L 47.609375 0 
L 37.796875 0 
L 37.796875 17.1875 
L 4.890625 17.1875 
L 4.890625 26.703125 
z
" id="DejaVuSans-52"/>
      </defs>
      <g transform="translate(307.272576 287.06881)scale(0.08 -0.08)">
       <use xlink:href="#DejaVuSans-52"/>
       <use x="63.623047" xlink:href="#DejaVuSans-48"/>
      </g>
     </g>
    </g>
    <g id="xtick_4">
     <g id="text_4">
      <!-- 60 -->
      <defs>
       <path d="M 33.015625 40.375 
Q 26.375 40.375 22.484375 35.828125 
Q 18.609375 31.296875 18.609375 23.390625 
Q 18.609375 15.53125 22.484375 10.953125 
Q 26.375 6.390625 33.015625 6.390625 
Q 39.65625 6.390625 43.53125 10.953125 
Q 47.40625 15.53125 47.40625 23.390625 
Q 47.40625 31.296875 43.53125 35.828125 
Q 39.65625 40.375 33.015625 40.375 
z
M 52.59375 71.296875 
L 52.59375 62.3125 
Q 48.875 64.0625 45.09375 64.984375 
Q 41.3125 65.921875 37.59375 65.921875 
Q 27.828125 65.921875 22.671875 59.328125 
Q 17.53125 52.734375 16.796875 39.40625 
Q 19.671875 43.65625 24.015625 45.921875 
Q 28.375 48.1875 33.59375 48.1875 
Q 44.578125 48.1875 50.953125 41.515625 
Q 57.328125 34.859375 57.328125 23.390625 
Q 57.328125 12.15625 50.6875 5.359375 
Q 44.046875 -1.421875 33.015625 -1.421875 
Q 20.359375 -1.421875 13.671875 8.265625 
Q 6.984375 17.96875 6.984375 36.375 
Q 6.984375 53.65625 15.1875 63.9375 
Q 23.390625 74.21875 37.203125 74.21875 
Q 40.921875 74.21875 44.703125 73.484375 
Q 48.484375 72.75 52.59375 71.296875 
z
" id="DejaVuSans-54"/>
      </defs>
      <g transform="translate(423.188378 287.06881)scale(0.08 -0.08)">
       <use xlink:href="#DejaVuSans-54"/>
       <use x="63.623047" xlink:href="#DejaVuSans-48"/>
      </g>
     </g>
    </g>
    <g id="xtick_5">
     <g id="text_5">
      <!-- 80 -->
      <defs>
       <path d="M 31.78125 34.625 
Q 24.75 34.625 20.71875 30.859375 
Q 16.703125 27.09375 16.703125 20.515625 
Q 16.703125 13.921875 20.71875 10.15625 
Q 24.75 6.390625 31.78125 6.390625 
Q 38.8125 6.390625 42.859375 10.171875 
Q 46.921875 13.96875 46.921875 20.515625 
Q 46.921875 27.09375 42.890625 30.859375 
Q 38.875 34.625 31.78125 34.625 
z
M 21.921875 38.8125 
Q 15.578125 40.375 12.03125 44.71875 
Q 8.5 49.078125 8.5 55.328125 
Q 8.5 64.0625 14.71875 69.140625 
Q 20.953125 74.21875 31.78125 74.21875 
Q 42.671875 74.21875 48.875 69.140625 
Q 55.078125 64.0625 55.078125 55.328125 
Q 55.078125 49.078125 51.53125 44.71875 
Q 48 40.375 41.703125 38.8125 
Q 48.828125 37.15625 52.796875 32.3125 
Q 56.78125 27.484375 56.78125 20.515625 
Q 56.78125 9.90625 50.3125 4.234375 
Q 43.84375 -1.421875 31.78125 -1.421875 
Q 19.734375 -1.421875 13.25 4.234375 
Q 6.78125 9.90625 6.78125 20.515625 
Q 6.78125 27.484375 10.78125 32.3125 
Q 14.796875 37.15625 21.921875 38.8125 
z
M 18.3125 54.390625 
Q 18.3125 48.734375 21.84375 45.5625 
Q 25.390625 42.390625 31.78125 42.390625 
Q 38.140625 42.390625 41.71875 45.5625 
Q 45.3125 48.734375 45.3125 54.390625 
Q 45.3125 60.0625 41.71875 63.234375 
Q 38.140625 66.40625 31.78125 66.40625 
Q 25.390625 66.40625 21.84375 63.234375 
Q 18.3125 60.0625 18.3125 54.390625 
z
" id="DejaVuSans-56"/>
      </defs>
      <g transform="translate(539.104181 287.06881)scale(0.08 -0.08)">
       <use xlink:href="#DejaVuSans-56"/>
       <use x="63.623047" xlink:href="#DejaVuSans-48"/>
      </g>
     </g>
    </g>
    <g id="xtick_6">
     <g id="text_6">
      <!-- 100 -->
      <defs>
       <path d="M 12.40625 8.296875 
L 28.515625 8.296875 
L 28.515625 63.921875 
L 10.984375 60.40625 
L 10.984375 69.390625 
L 28.421875 72.90625 
L 38.28125 72.90625 
L 38.28125 8.296875 
L 54.390625 8.296875 
L 54.390625 0 
L 12.40625 0 
z
" id="DejaVuSans-49"/>
      </defs>
      <g transform="translate(652.474983 287.06881)scale(0.08 -0.08)">
       <use xlink:href="#DejaVuSans-49"/>
       <use x="63.623047" xlink:href="#DejaVuSans-48"/>
       <use x="127.246094" xlink:href="#DejaVuSans-48"/>
      </g>
     </g>
    </g>
    <g id="xtick_7">
     <g id="text_7">
      <!-- 120 -->
      <g transform="translate(768.390785 287.06881)scale(0.08 -0.08)">
       <use xlink:href="#DejaVuSans-49"/>
       <use x="63.623047" xlink:href="#DejaVuSans-50"/>
       <use x="127.246094" xlink:href="#DejaVuSans-48"/>
      </g>
     </g>
    </g>
    <g id="xtick_8">
     <g id="text_8">
      <!-- 140 -->
      <g transform="translate(884.306587 287.06881)scale(0.08 -0.08)">
       <use xlink:href="#DejaVuSans-49"/>
       <use x="63.623047" xlink:href="#DejaVuSans-52"/>
       <use x="127.246094" xlink:href="#DejaVuSans-48"/>
      </g>
     </g>
    </g>
    <g id="text_9">
     <!-- Read Position -->
     <defs>
      <path d="M 44.390625 34.1875 
Q 47.5625 33.109375 50.5625 29.59375 
Q 53.5625 26.078125 56.59375 19.921875 
L 66.609375 0 
L 56 0 
L 46.6875 18.703125 
Q 43.0625 26.03125 39.671875 28.421875 
Q 36.28125 30.8125 30.421875 30.8125 
L 19.671875 30.8125 
L 19.671875 0 
L 9.8125 0 
L 9.8125 72.90625 
L 32.078125 72.90625 
Q 44.578125 72.90625 50.734375 67.671875 
Q 56.890625 62.453125 56.890625 51.90625 
Q 56.890625 45.015625 53.6875 40.46875 
Q 50.484375 35.9375 44.390625 34.1875 
z
M 19.671875 64.796875 
L 19.671875 38.921875 
L 32.078125 38.921875 
Q 39.203125 38.921875 42.84375 42.21875 
Q 46.484375 45.515625 46.484375 51.90625 
Q 46.484375 58.296875 42.84375 61.546875 
Q 39.203125 64.796875 32.078125 64.796875 
z
" id="DejaVuSans-82"/>
      <path d="M 56.203125 29.59375 
L 56.203125 25.203125 
L 14.890625 25.203125 
Q 15.484375 15.921875 20.484375 11.0625 
Q 25.484375 6.203125 34.421875 6.203125 
Q 39.59375 6.203125 44.453125 7.46875 
Q 49.3125 8.734375 54.109375 11.28125 
L 54.109375 2.78125 
Q 49.265625 0.734375 44.1875 -0.34375 
Q 39.109375 -1.421875 33.890625 -1.421875 
Q 20.796875 -1.421875 13.15625 6.1875 
Q 5.515625 13.8125 5.515625 26.8125 
Q 5.515625 40.234375 12.765625 48.109375 
Q 20.015625 56 32.328125 56 
Q 43.359375 56 49.78125 48.890625 
Q 56.203125 41.796875 56.203125 29.59375 
z
M 47.21875 32.234375 
Q 47.125 39.59375 43.09375 43.984375 
Q 39.0625 48.390625 32.421875 48.390625 
Q 24.90625 48.390625 20.390625 44.140625 
Q 15.875 39.890625 15.1875 32.171875 
z
" id="DejaVuSans-101"/>
      <path d="M 34.28125 27.484375 
Q 23.390625 27.484375 19.1875 25 
Q 14.984375 22.515625 14.984375 16.5 
Q 14.984375 11.71875 18.140625 8.90625 
Q 21.296875 6.109375 26.703125 6.109375 
Q 34.1875 6.109375 38.703125 11.40625 
Q 43.21875 16.703125 43.21875 25.484375 
L 43.21875 27.484375 
z
M 52.203125 31.203125 
L 52.203125 0 
L 43.21875 0 
L 43.21875 8.296875 
Q 40.140625 3.328125 35.546875 0.953125 
Q 30.953125 -1.421875 24.3125 -1.421875 
Q 15.921875 -1.421875 10.953125 3.296875 
Q 6 8.015625 6 15.921875 
Q 6 25.140625 12.171875 29.828125 
Q 18.359375 34.515625 30.609375 34.515625 
L 43.21875 34.515625 
L 43.21875 35.40625 
Q 43.21875 41.609375 39.140625 45 
Q 35.0625 48.390625 27.6875 48.390625 
Q 23 48.390625 18.546875 47.265625 
Q 14.109375 46.140625 10.015625 43.890625 
L 10.015625 52.203125 
Q 14.9375 54.109375 19.578125 55.046875 
Q 24.21875 56 28.609375 56 
Q 40.484375 56 46.34375 49.84375 
Q 52.203125 43.703125 52.203125 31.203125 
z
" id="DejaVuSans-97"/>
      <path d="M 45.40625 46.390625 
L 45.40625 75.984375 
L 54.390625 75.984375 
L 54.390625 0 
L 45.40625 0 
L 45.40625 8.203125 
Q 42.578125 3.328125 38.25 0.953125 
Q 33.9375 -1.421875 27.875 -1.421875 
Q 17.96875 -1.421875 11.734375 6.484375 
Q 5.515625 14.40625 5.515625 27.296875 
Q 5.515625 40.1875 11.734375 48.09375 
Q 17.96875 56 27.875 56 
Q 33.9375 56 38.25 53.625 
Q 42.578125 51.265625 45.40625 46.390625 
z
M 14.796875 27.296875 
Q 14.796875 17.390625 18.875 11.75 
Q 22.953125 6.109375 30.078125 6.109375 
Q 37.203125 6.109375 41.296875 11.75 
Q 45.40625 17.390625 45.40625 27.296875 
Q 45.40625 37.203125 41.296875 42.84375 
Q 37.203125 48.484375 30.078125 48.484375 
Q 22.953125 48.484375 18.875 42.84375 
Q 14.796875 37.203125 14.796875 27.296875 
z
" id="DejaVuSans-100"/>
      <path id="DejaVuSans-32"/>
      <path d="M 19.671875 64.796875 
L 19.671875 37.40625 
L 32.078125 37.40625 
Q 38.96875 37.40625 42.71875 40.96875 
Q 46.484375 44.53125 46.484375 51.125 
Q 46.484375 57.671875 42.71875 61.234375 
Q 38.96875 64.796875 32.078125 64.796875 
z
M 9.8125 72.90625 
L 32.078125 72.90625 
Q 44.34375 72.90625 50.609375 67.359375 
Q 56.890625 61.8125 56.890625 51.125 
Q 56.890625 40.328125 50.609375 34.8125 
Q 44.34375 29.296875 32.078125 29.296875 
L 19.671875 29.296875 
L 19.671875 0 
L 9.8125 0 
z
" id="DejaVuSans-80"/>
      <path d="M 30.609375 48.390625 
Q 23.390625 48.390625 19.1875 42.75 
Q 14.984375 37.109375 14.984375 27.296875 
Q 14.984375 17.484375 19.15625 11.84375 
Q 23.34375 6.203125 30.609375 6.203125 
Q 37.796875 6.203125 41.984375 11.859375 
Q 46.1875 17.53125 46.1875 27.296875 
Q 46.1875 37.015625 41.984375 42.703125 
Q 37.796875 48.390625 30.609375 48.390625 
z
M 30.609375 56 
Q 42.328125 56 49.015625 48.375 
Q 55.71875 40.765625 55.71875 27.296875 
Q 55.71875 13.875 49.015625 6.21875 
Q 42.328125 -1.421875 30.609375 -1.421875 
Q 18.84375 -1.421875 12.171875 6.21875 
Q 5.515625 13.875 5.515625 27.296875 
Q 5.515625 40.765625 12.171875 48.375 
Q 18.84375 56 30.609375 56 
z
" id="DejaVuSans-111"/>
      <path d="M 44.28125 53.078125 
L 44.28125 44.578125 
Q 40.484375 46.53125 36.375 47.5 
Q 32.28125 48.484375 27.875 48.484375 
Q 21.1875 48.484375 17.84375 46.4375 
Q 14.5 44.390625 14.5 40.28125 
Q 14.5 37.15625 16.890625 35.375 
Q 19.28125 33.59375 26.515625 31.984375 
L 29.59375 31.296875 
Q 39.15625 29.25 43.1875 25.515625 
Q 47.21875 21.78125 47.21875 15.09375 
Q 47.21875 7.46875 41.1875 3.015625 
Q 35.15625 -1.421875 24.609375 -1.421875 
Q 20.21875 -1.421875 15.453125 -0.5625 
Q 10.6875 0.296875 5.421875 2 
L 5.421875 11.28125 
Q 10.40625 8.6875 15.234375 7.390625 
Q 20.0625 6.109375 24.8125 6.109375 
Q 31.15625 6.109375 34.5625 8.28125 
Q 37.984375 10.453125 37.984375 14.40625 
Q 37.984375 18.0625 35.515625 20.015625 
Q 33.0625 21.96875 24.703125 23.78125 
L 21.578125 24.515625 
Q 13.234375 26.265625 9.515625 29.90625 
Q 5.8125 33.546875 5.8125 39.890625 
Q 5.8125 47.609375 11.28125 51.796875 
Q 16.75 56 26.8125 56 
Q 31.78125 56 36.171875 55.265625 
Q 40.578125 54.546875 44.28125 53.078125 
z
" id="DejaVuSans-115"/>
      <path d="M 9.421875 54.6875 
L 18.40625 54.6875 
L 18.40625 0 
L 9.421875 0 
z
M 9.421875 75.984375 
L 18.40625 75.984375 
L 18.40625 64.59375 
L 9.421875 64.59375 
z
" id="DejaVuSans-105"/>
      <path d="M 18.3125 70.21875 
L 18.3125 54.6875 
L 36.8125 54.6875 
L 36.8125 47.703125 
L 18.3125 47.703125 
L 18.3125 18.015625 
Q 18.3125 11.328125 20.140625 9.421875 
Q 21.96875 7.515625 27.59375 7.515625 
L 36.8125 7.515625 
L 36.8125 0 
L 27.59375 0 
Q 17.1875 0 13.234375 3.875 
Q 9.28125 7.765625 9.28125 18.015625 
L 9.28125 47.703125 
L 2.6875 47.703125 
L 2.6875 54.6875 
L 9.28125 54.6875 
L 9.28125 70.21875 
z
" id="DejaVuSans-116"/>
      <path d="M 54.890625 33.015625 
L 54.890625 0 
L 45.90625 0 
L 45.90625 32.71875 
Q 45.90625 40.484375 42.875 44.328125 
Q 39.84375 48.1875 33.796875 48.1875 
Q 26.515625 48.1875 22.3125 43.546875 
Q 18.109375 38.921875 18.109375 30.90625 
L 18.109375 0 
L 9.078125 0 
L 9.078125 54.6875 
L 18.109375 54.6875 
L 18.109375 46.1875 
Q 21.34375 51.125 25.703125 53.5625 
Q 30.078125 56 35.796875 56 
Q 45.21875 56 50.046875 50.171875 
Q 54.890625 44.34375 54.890625 33.015625 
z
" id="DejaVuSans-110"/>
     </defs>
     <g transform="translate(484.095156 300.330997)scale(0.1 -0.1)">
      <use xlink:href="#DejaVuSans-82"/>
      <use x="69.419922" xlink:href="#DejaVuSans-101"/>
      <use x="130.943359" xlink:href="#DejaVuSans-97"/>
      <use x="192.222656" xlink:href="#DejaVuSans-100"/>
      <use x="255.699219" xlink:href="#DejaVuSans-32"/>
      <use x="287.486328" xlink:href="#DejaVuSans-80"/>
      <use x="347.742188" xlink:href="#DejaVuSans-111"/>
      <use x="408.923828" xlink:href="#DejaVuSans-115"/>
      <use x="461.023438" xlink:href="#DejaVuSans-105"/>
      <use x="488.806641" xlink:href="#DejaVuSans-116"/>
      <use x="528.015625" xlink:href="#DejaVuSans-105"/>
      <use x="555.798828" xlink:href="#DejaVuSans-111"/>
      <use x="616.980469" xlink:href="#DejaVuSans-110"/>
     </g>
    </g>
   </g>
   <g id="matplotlib.axis_2">
    <g id="ytick_1">
     <g id="line2d_1">
      <path clip-path="url(#p8cef8f303c)" d="M 43.148125 273.99006 
L 993.078125 273.99006 
" style="fill:none;stroke:#dedede;stroke-linecap:square;"/>
     </g>
     <g id="text_10">
      <!-- 0 -->
      <g transform="translate(31.058125 277.029435)scale(0.08 -0.08)">
       <use xlink:href="#DejaVuSans-48"/>
      </g>
     </g>
    </g>
    <g id="ytick_2">
     <g id="line2d_2">
      <path clip-path="url(#p8cef8f303c)" d="M 43.148125 225.48862 
L 993.078125 225.48862 
" style="fill:none;stroke:#dedede;stroke-linecap:square;"/>
     </g>
     <g id="text_11">
      <!-- 20 -->
      <g transform="translate(25.968125 228.527995)scale(0.08 -0.08)">
       <use xlink:href="#DejaVuSans-50"/>
       <use x="63.623047" xlink:href="#DejaVuSans-48"/>
      </g>
     </g>
    </g>
    <g id="ytick_3">
     <g id="line2d_3">
      <path clip-path="url(#p8cef8f303c)" d="M 43.148125 176.98718 
L 993.078125 176.98718 
" style="fill:none;stroke:#dedede;stroke-linecap:square;"/>
     </g>
     <g id="text_12">
      <!-- 40 -->
      <g transform="translate(25.968125 180.026555)scale(0.08 -0.08)">
       <use xlink:href="#DejaVuSans-52"/>
       <use x="63.623047" xlink:href="#DejaVuSans-48"/>
      </g>
     </g>
    </g>
    <g id="ytick_4">
     <g id="line2d_4">
      <path clip-path="url(#p8cef8f303c)" d="M 43.148125 128.48574 
L 993.078125 128.48574 
" style="fill:none;stroke:#dedede;stroke-linecap:square;"/>
     </g>
     <g id="text_13">
      <!-- 60 -->
      <g transform="translate(25.968125 131.525115)scale(0.08 -0.08)">
       <use xlink:href="#DejaVuSans-54"/>
       <use x="63.623047" xlink:href="#DejaVuSans-48"/>
      </g>
     </g>
    </g>
    <g id="ytick_5">
     <g id="line2d_5">
      <path clip-path="url(#p8cef8f303c)" d="M 43.148125 79.9843 
L 993.078125 79.9843 
" style="fill:none;stroke:#dedede;stroke-linecap:square;"/>
     </g>
     <g id="text_14">
      <!-- 80 -->
      <g transform="translate(25.968125 83.023675)scale(0.08 -0.08)">
       <use xlink:href="#DejaVuSans-56"/>
       <use x="63.623047" xlink:href="#DejaVuSans-48"/>
      </g>
     </g>
    </g>
    <g id="ytick_6">
     <g id="line2d_6">
      <path clip-path="url(#p8cef8f303c)" d="M 43.148125 31.48286 
L 993.078125 31.48286 
" style="fill:none;stroke:#dedede;stroke-linecap:square;"/>
     </g>
     <g id="text_15">
      <!-- 100 -->
      <g transform="translate(20.878125 34.522235)scale(0.08 -0.08)">
       <use xlink:href="#DejaVuSans-49"/>
       <use x="63.623047" xlink:href="#DejaVuSans-48"/>
       <use x="127.246094" xlink:href="#DejaVuSans-48"/>
      </g>
     </g>
    </g>
    <g id="text_16">
     <!-- R2 Before filtering: Base Content Percent -->
     <defs>
      <path d="M 19.671875 34.8125 
L 19.671875 8.109375 
L 35.5 8.109375 
Q 43.453125 8.109375 47.28125 11.40625 
Q 51.125 14.703125 51.125 21.484375 
Q 51.125 28.328125 47.28125 31.5625 
Q 43.453125 34.8125 35.5 34.8125 
z
M 19.671875 64.796875 
L 19.671875 42.828125 
L 34.28125 42.828125 
Q 41.5 42.828125 45.03125 45.53125 
Q 48.578125 48.25 48.578125 53.8125 
Q 48.578125 59.328125 45.03125 62.0625 
Q 41.5 64.796875 34.28125 64.796875 
z
M 9.8125 72.90625 
L 35.015625 72.90625 
Q 46.296875 72.90625 52.390625 68.21875 
Q 58.5 63.53125 58.5 54.890625 
Q 58.5 48.1875 55.375 44.234375 
Q 52.25 40.28125 46.1875 39.3125 
Q 53.46875 37.75 57.5 32.78125 
Q 61.53125 27.828125 61.53125 20.40625 
Q 61.53125 10.640625 54.890625 5.3125 
Q 48.25 0 35.984375 0 
L 9.8125 0 
z
" id="DejaVuSans-66"/>
      <path d="M 37.109375 75.984375 
L 37.109375 68.5 
L 28.515625 68.5 
Q 23.6875 68.5 21.796875 66.546875 
Q 19.921875 64.59375 19.921875 59.515625 
L 19.921875 54.6875 
L 34.71875 54.6875 
L 34.71875 47.703125 
L 19.921875 47.703125 
L 19.921875 0 
L 10.890625 0 
L 10.890625 47.703125 
L 2.296875 47.703125 
L 2.296875 54.6875 
L 10.890625 54.6875 
L 10.890625 58.5 
Q 10.890625 67.625 15.140625 71.796875 
Q 19.390625 75.984375 28.609375 75.984375 
z
" id="DejaVuSans-102"/>
      <path d="M 41.109375 46.296875 
Q 39.59375 47.171875 37.8125 47.578125 
Q 36.03125 48 33.890625 48 
Q 26.265625 48 22.1875 43.046875 
Q 18.109375 38.09375 18.109375 28.8125 
L 18.109375 0 
L 9.078125 0 
L 9.078125 54.6875 
L 18.109375 54.6875 
L 18.109375 46.1875 
Q 20.953125 51.171875 25.484375 53.578125 
Q 30.03125 56 36.53125 56 
Q 37.453125 56 38.578125 55.875 
Q 39.703125 55.765625 41.0625 55.515625 
z
" id="DejaVuSans-114"/>
      <path d="M 9.421875 75.984375 
L 18.40625 75.984375 
L 18.40625 0 
L 9.421875 0 
z
" id="DejaVuSans-108"/>
      <path d="M 45.40625 27.984375 
Q 45.40625 37.75 41.375 43.109375 
Q 37.359375 48.484375 30.078125 48.484375 
Q 22.859375 48.484375 18.828125 43.109375 
Q 14.796875 37.75 14.796875 27.984375 
Q 14.796875 18.265625 18.828125 12.890625 
Q 22.859375 7.515625 30.078125 7.515625 
Q 37.359375 7.515625 41.375 12.890625 
Q 45.40625 18.265625 45.40625 27.984375 
z
M 54.390625 6.78125 
Q 54.390625 -7.171875 48.1875 -13.984375 
Q 42 -20.796875 29.203125 -20.796875 
Q 24.46875 -20.796875 20.265625 -20.09375 
Q 16.0625 -19.390625 12.109375 -17.921875 
L 12.109375 -9.1875 
Q 16.0625 -11.328125 19.921875 -12.34375 
Q 23.78125 -13.375 27.78125 -13.375 
Q 36.625 -13.375 41.015625 -8.765625 
Q 45.40625 -4.15625 45.40625 5.171875 
L 45.40625 9.625 
Q 42.625 4.78125 38.28125 2.390625 
Q 33.9375 0 27.875 0 
Q 17.828125 0 11.671875 7.65625 
Q 5.515625 15.328125 5.515625 27.984375 
Q 5.515625 40.671875 11.671875 48.328125 
Q 17.828125 56 27.875 56 
Q 33.9375 56 38.28125 53.609375 
Q 42.625 51.21875 45.40625 46.390625 
L 45.40625 54.6875 
L 54.390625 54.6875 
z
" id="DejaVuSans-103"/>
      <path d="M 11.71875 12.40625 
L 22.015625 12.40625 
L 22.015625 0 
L 11.71875 0 
z
M 11.71875 51.703125 
L 22.015625 51.703125 
L 22.015625 39.3125 
L 11.71875 39.3125 
z
" id="DejaVuSans-58"/>
      <path d="M 64.40625 67.28125 
L 64.40625 56.890625 
Q 59.421875 61.53125 53.78125 63.8125 
Q 48.140625 66.109375 41.796875 66.109375 
Q 29.296875 66.109375 22.65625 58.46875 
Q 16.015625 50.828125 16.015625 36.375 
Q 16.015625 21.96875 22.65625 14.328125 
Q 29.296875 6.6875 41.796875 6.6875 
Q 48.140625 6.6875 53.78125 8.984375 
Q 59.421875 11.28125 64.40625 15.921875 
L 64.40625 5.609375 
Q 59.234375 2.09375 53.4375 0.328125 
Q 47.65625 -1.421875 41.21875 -1.421875 
Q 24.65625 -1.421875 15.125 8.703125 
Q 5.609375 18.84375 5.609375 36.375 
Q 5.609375 53.953125 15.125 64.078125 
Q 24.65625 74.21875 41.21875 74.21875 
Q 47.75 74.21875 53.53125 72.484375 
Q 59.328125 70.75 64.40625 67.28125 
z
" id="DejaVuSans-67"/>
      <path d="M 48.78125 52.59375 
L 48.78125 44.1875 
Q 44.96875 46.296875 41.140625 47.34375 
Q 37.3125 48.390625 33.40625 48.390625 
Q 24.65625 48.390625 19.8125 42.84375 
Q 14.984375 37.3125 14.984375 27.296875 
Q 14.984375 17.28125 19.8125 11.734375 
Q 24.65625 6.203125 33.40625 6.203125 
Q 37.3125 6.203125 41.140625 7.25 
Q 44.96875 8.296875 48.78125 10.40625 
L 48.78125 2.09375 
Q 45.015625 0.34375 40.984375 -0.53125 
Q 36.96875 -1.421875 32.421875 -1.421875 
Q 20.0625 -1.421875 12.78125 6.34375 
Q 5.515625 14.109375 5.515625 27.296875 
Q 5.515625 40.671875 12.859375 48.328125 
Q 20.21875 56 33.015625 56 
Q 37.15625 56 41.109375 55.140625 
Q 45.0625 54.296875 48.78125 52.59375 
z
" id="DejaVuSans-99"/>
     </defs>
     <g transform="translate(14.798438 255.999741)rotate(-90)scale(0.1 -0.1)">
      <use xlink:href="#DejaVuSans-82"/>
      <use x="69.482422" xlink:href="#DejaVuSans-50"/>
      <use x="133.105469" xlink:href="#DejaVuSans-32"/>
      <use x="164.892578" xlink:href="#DejaVuSans-66"/>
      <use x="233.496094" xlink:href="#DejaVuSans-101"/>
      <use x="295.019531" xlink:href="#DejaVuSans-102"/>
      <use x="330.224609" xlink:href="#DejaVuSans-111"/>
      <use x="391.40625" xlink:href="#DejaVuSans-114"/>
      <use x="432.488281" xlink:href="#DejaVuSans-101"/>
      <use x="494.011719" xlink:href="#DejaVuSans-32"/>
      <use x="525.798828" xlink:href="#DejaVuSans-102"/>
      <use x="561.003906" xlink:href="#DejaVuSans-105"/>
      <use x="588.787109" xlink:href="#DejaVuSans-108"/>
      <use x="616.570312" xlink:href="#DejaVuSans-116"/>
      <use x="655.779297" xlink:href="#DejaVuSans-101"/>
      <use x="717.302734" xlink:href="#DejaVuSans-114"/>
      <use x="758.416016" xlink:href="#DejaVuSans-105"/>
      <use x="786.199219" xlink:href="#DejaVuSans-110"/>
      <use x="849.578125" xlink:href="#DejaVuSans-103"/>
      <use x="913.054688" xlink:href="#DejaVuSans-58"/>
      <use x="946.746094" xlink:href="#DejaVuSans-32"/>
      <use x="978.533203" xlink:href="#DejaVuSans-66"/>
      <use x="1047.136719" xlink:href="#DejaVuSans-97"/>
      <use x="1108.416016" xlink:href="#DejaVuSans-115"/>
      <use x="1160.515625" xlink:href="#DejaVuSans-101"/>
      <use x="1222.039062" xlink:href="#DejaVuSans-32"/>
      <use x="1253.826172" xlink:href="#DejaVuSans-67"/>
      <use x="1323.650391" xlink:href="#DejaVuSans-111"/>
      <use x="1384.832031" xlink:href="#DejaVuSans-110"/>
      <use x="1448.210938" xlink:href="#DejaVuSans-116"/>
      <use x="1487.419922" xlink:href="#DejaVuSans-101"/>
      <use x="1548.943359" xlink:href="#DejaVuSans-110"/>
      <use x="1612.322266" xlink:href="#DejaVuSans-116"/>
      <use x="1651.53125" xlink:href="#DejaVuSans-32"/>
      <use x="1683.318359" xlink:href="#DejaVuSans-80"/>
      <use x="1743.574219" xlink:href="#DejaVuSans-101"/>
      <use x="1805.097656" xlink:href="#DejaVuSans-114"/>
      <use x="1846.179688" xlink:href="#DejaVuSans-99"/>
      <use x="1901.160156" xlink:href="#DejaVuSans-101"/>
      <use x="1962.683594" xlink:href="#DejaVuSans-110"/>
      <use x="2026.0625" xlink:href="#DejaVuSans-116"/>
     </g>
    </g>
   </g>
   <g id="line2d_7">
    <path clip-path="url(#p8cef8f303c)" d="M 86.326761 149.282187 
L 92.122551 165.657971 
L 97.918342 167.764389 
L 103.714132 168.829965 
L 109.509922 166.697842 
L 115.305712 168.24625 
L 121.101502 168.353439 
L 126.897292 165.916726 
L 138.488872 167.650168 
L 144.284663 162.110576 
L 150.080453 163.389801 
L 155.876243 163.034771 
L 161.672033 164.568144 
L 167.467823 164.28247 
L 173.263613 164.36662 
L 179.059403 163.813461 
L 184.855193 164.474293 
L 190.650983 163.797213 
L 196.446774 164.615675 
L 202.242564 163.683478 
L 208.038354 165.636873 
L 213.834144 163.768355 
L 219.629934 165.848824 
L 225.425724 165.219033 
L 231.221514 165.897811 
L 237.017304 166.060776 
L 242.813094 167.070091 
L 248.608885 165.901448 
L 254.404675 167.238391 
L 260.200465 166.708997 
L 265.996255 166.461397 
L 271.792045 166.933559 
L 277.587835 166.648371 
L 283.383625 166.060533 
L 289.179415 166.209433 
L 294.975206 166.757984 
L 300.770996 166.230531 
L 306.566786 166.661223 
L 312.362576 166.254296 
L 318.158366 165.092444 
L 323.954156 167.20929 
L 329.749946 164.918809 
L 335.545736 166.423324 
L 341.341526 166.044043 
L 347.137317 167.596574 
L 352.933107 165.386848 
L 358.728897 166.788782 
L 364.524687 166.266664 
L 370.320477 166.524449 
L 376.116267 166.002574 
L 381.912057 166.490741 
L 387.707847 164.656659 
L 393.503638 166.118735 
L 399.299428 164.95761 
L 405.095218 165.231158 
L 410.891008 165.337134 
L 416.686798 165.241344 
L 422.482588 163.549371 
L 428.278378 164.211173 
L 434.074168 163.525605 
L 439.869958 161.944701 
L 445.665749 163.230232 
L 451.461539 162.660097 
L 457.257329 161.826842 
L 463.053119 163.590597 
L 474.644699 162.68847 
L 480.440489 163.00761 
L 486.236279 164.09768 
L 492.032069 162.644334 
L 497.82786 163.453823 
L 503.62365 162.987482 
L 509.41944 162.016483 
L 515.21523 162.508773 
L 521.01102 162.590255 
L 526.80681 161.434951 
L 532.6026 162.007995 
L 538.39839 160.933446 
L 544.194181 160.397747 
L 549.989971 160.901677 
L 555.785761 159.930921 
L 561.581551 160.231145 
L 567.377341 159.934559 
L 578.968921 158.649271 
L 584.764711 158.266352 
L 590.560501 158.710625 
L 596.356292 158.04567 
L 602.152082 158.191174 
L 607.947872 158.770282 
L 613.743662 158.161589 
L 619.539452 158.402641 
L 625.335242 158.392213 
L 631.131032 157.396236 
L 636.926822 157.723621 
L 642.722612 157.420487 
L 648.518403 156.820039 
L 654.314193 157.050421 
L 660.109983 157.017925 
L 665.905773 155.997697 
L 671.701563 156.79021 
L 677.497353 156.494594 
L 683.293143 156.056869 
L 689.088933 156.52806 
L 694.884724 156.239234 
L 700.680514 155.764647 
L 706.476304 156.017825 
L 712.272094 155.999152 
L 718.067884 155.395794 
L 723.863674 155.826729 
L 729.659464 155.615748 
L 735.455254 154.974559 
L 741.251044 155.375908 
L 747.046835 155.243257 
L 752.842625 154.369261 
L 758.638415 154.885801 
L 764.434205 154.76479 
L 770.229995 154.097895 
L 776.025785 154.391329 
L 781.821575 154.064187 
L 787.617365 153.315325 
L 793.413156 153.386379 
L 799.208946 153.209834 
L 805.004736 152.576648 
L 816.596316 152.316438 
L 822.392106 151.456992 
L 828.187896 151.319005 
L 833.983686 150.987498 
L 839.779476 150.177524 
L 845.575267 150.104772 
L 851.371057 149.605692 
L 857.166847 148.414254 
L 862.962637 148.416194 
L 868.758427 147.921237 
L 874.554217 146.905374 
L 880.350007 146.965759 
L 886.145797 146.377921 
L 891.941587 145.227952 
L 903.533168 144.48782 
L 909.328958 143.349734 
L 915.124748 143.162276 
L 920.920538 142.37534 
L 926.716328 141.279692 
L 932.512118 140.945032 
L 938.307908 140.046301 
L 944.103699 138.772895 
L 949.899489 138.410832 
L 949.899489 138.410832 
" style="fill:none;stroke:#7cb5ec;stroke-linecap:square;"/>
   </g>
   <g id="line2d_8">
    <path clip-path="url(#p8cef8f303c)" d="M 86.326761 154.18156 
L 92.122551 170.993615 
L 103.714132 174.320086 
L 109.509922 172.670794 
L 115.305712 173.567828 
L 121.101502 173.883573 
L 126.897292 172.356263 
L 132.693082 172.214153 
L 138.488872 173.763774 
L 144.284663 167.952574 
L 150.080453 169.257506 
L 155.876243 169.362996 
L 161.672033 170.562194 
L 167.467823 170.383951 
L 173.263613 170.585717 
L 179.059403 169.950106 
L 184.855193 170.594448 
L 190.650983 169.822547 
L 196.446774 170.978094 
L 202.242564 169.918338 
L 208.038354 171.665117 
L 213.834144 170.655075 
L 219.629934 172.007537 
L 225.425724 171.60643 
L 231.221514 172.34147 
L 237.017304 171.963643 
L 242.813094 172.827211 
L 248.608885 172.100417 
L 254.404675 172.9538 
L 260.200465 172.398944 
L 265.996255 172.761492 
L 277.587835 172.735544 
L 289.179415 172.130246 
L 294.975206 172.830607 
L 300.770996 172.122486 
L 306.566786 172.479214 
L 312.362576 172.380998 
L 318.158366 171.83463 
L 323.954156 173.064626 
L 329.749946 171.701251 
L 335.545736 172.765372 
L 341.341526 172.097992 
L 347.137317 173.188062 
L 352.933107 171.746599 
L 358.728897 172.52917 
L 364.524687 172.087565 
L 370.320477 172.150374 
L 376.116267 171.501667 
L 381.912057 172.069619 
L 387.707847 170.435605 
L 393.503638 171.213811 
L 399.299428 170.348545 
L 410.891008 170.033529 
L 416.686798 169.891177 
L 422.482588 168.598371 
L 428.278378 168.622137 
L 434.074168 167.989435 
L 439.869958 166.910521 
L 445.665749 167.259974 
L 451.461539 166.80309 
L 457.257329 165.880835 
L 463.053119 166.746343 
L 468.848909 166.160689 
L 474.644699 165.729996 
L 480.440489 165.69168 
L 486.236279 165.976626 
L 492.032069 165.090019 
L 497.82786 165.214425 
L 509.41944 164.233726 
L 521.01102 164.049178 
L 526.80681 163.33936 
L 532.6026 163.311956 
L 538.39839 162.719511 
L 544.194181 162.445963 
L 549.989971 162.390914 
L 561.581551 161.727414 
L 567.377341 161.540199 
L 573.173131 160.972975 
L 584.764711 160.136082 
L 590.560501 160.330088 
L 596.356292 159.785659 
L 602.152082 159.684776 
L 607.947872 159.784932 
L 619.539452 159.273242 
L 625.335242 159.198307 
L 631.131032 158.342014 
L 636.926822 158.378633 
L 648.518403 157.564536 
L 654.314193 157.364952 
L 660.109983 157.28832 
L 665.905773 156.495564 
L 671.701563 156.720853 
L 677.497353 156.496292 
L 683.293143 156.156539 
L 689.088933 156.174727 
L 700.680514 155.634906 
L 706.476304 155.720511 
L 712.272094 155.596105 
L 718.067884 155.357478 
L 723.863674 155.448661 
L 729.659464 155.27357 
L 735.455254 154.945943 
L 741.251044 155.130491 
L 747.046835 154.93988 
L 752.842625 154.565449 
L 758.638415 154.655177 
L 764.434205 154.539016 
L 770.229995 154.208479 
L 776.025785 154.146154 
L 781.821575 153.792094 
L 787.617365 153.298834 
L 799.208946 152.738643 
L 805.004736 152.015001 
L 810.800526 151.648815 
L 816.596316 151.087411 
L 822.392106 150.367892 
L 833.983686 149.080421 
L 839.779476 148.17587 
L 845.575267 147.450288 
L 851.371057 146.58478 
L 857.166847 145.478462 
L 868.758427 143.780669 
L 874.554217 142.591414 
L 880.350007 141.778045 
L 886.145797 140.739871 
L 891.941587 139.400262 
L 897.737378 138.227497 
L 903.533168 137.250678 
L 909.328958 135.960054 
L 915.124748 134.862952 
L 920.920538 133.616222 
L 926.716328 132.215016 
L 938.307908 129.73926 
L 944.103699 128.123919 
L 949.899489 126.927146 
L 949.899489 126.927146 
" style="fill:none;stroke:#434348;stroke-linecap:square;"/>
   </g>
   <g id="line2d_9">
    <path clip-path="url(#p8cef8f303c)" d="M 86.326761 155.998667 
L 92.122551 172.740394 
L 97.918342 172.898024 
L 103.714132 175.06434 
L 109.509922 173.734916 
L 115.305712 174.803403 
L 121.101502 174.918351 
L 126.897292 173.752134 
L 132.693082 174.155423 
L 138.488872 174.007252 
L 144.284663 169.743732 
L 150.080453 170.946811 
L 155.876243 170.831377 
L 161.672033 171.84724 
L 167.467823 171.978436 
L 179.059403 171.571752 
L 184.855193 171.768425 
L 190.650983 171.393509 
L 196.446774 172.074227 
L 202.242564 171.173555 
L 208.038354 172.879351 
L 213.834144 171.968493 
L 219.629934 173.242626 
L 225.425724 172.979506 
L 231.221514 173.492651 
L 237.017304 173.54188 
L 242.813094 173.942017 
L 248.608885 173.707028 
L 254.404675 174.273524 
L 260.200465 173.836526 
L 265.996255 174.127778 
L 271.792045 174.252911 
L 277.587835 173.984941 
L 283.383625 173.994156 
L 289.179415 173.282155 
L 294.975206 174.400598 
L 300.770996 173.345449 
L 306.566786 173.988821 
L 312.362576 173.427174 
L 318.158366 173.232926 
L 323.954156 174.274009 
L 329.749946 173.036738 
L 335.545736 174.006281 
L 341.341526 173.553763 
L 347.137317 174.636315 
L 352.933107 173.064869 
L 358.728897 173.565403 
L 370.320477 173.133013 
L 376.116267 172.7062 
L 381.912057 172.999392 
L 387.707847 171.443708 
L 393.503638 172.114968 
L 399.299428 171.241214 
L 405.095218 170.985854 
L 416.686798 170.642222 
L 422.482588 169.256535 
L 428.278378 169.122186 
L 434.074168 168.410428 
L 439.869958 166.923374 
L 445.665749 167.492781 
L 451.461539 166.742463 
L 457.257329 165.877925 
L 463.053119 166.79824 
L 468.848909 166.112672 
L 474.644699 165.705745 
L 480.440489 165.564606 
L 486.236279 165.797655 
L 492.032069 164.943302 
L 497.82786 164.801193 
L 503.62365 164.426035 
L 509.41944 163.659712 
L 515.21523 163.700453 
L 521.01102 163.519058 
L 526.80681 162.815302 
L 532.6026 162.772863 
L 538.39839 162.185753 
L 544.194181 161.824175 
L 549.989971 161.817627 
L 555.785761 161.179106 
L 561.581551 161.15146 
L 567.377341 160.792792 
L 573.173131 160.123472 
L 578.968921 159.823975 
L 584.764711 159.186424 
L 590.560501 159.397648 
L 596.356292 158.876742 
L 602.152082 158.736573 
L 607.947872 158.995086 
L 613.743662 158.483153 
L 625.335242 158.12885 
L 631.131032 157.334882 
L 636.926822 157.343127 
L 648.518403 156.376978 
L 660.109983 155.970536 
L 665.905773 155.233314 
L 671.701563 155.412042 
L 677.497353 155.138736 
L 683.293143 154.701981 
L 689.088933 154.91175 
L 694.884724 154.523253 
L 700.680514 154.34113 
L 712.272094 154.311302 
L 718.067884 154.000165 
L 723.863674 154.178165 
L 729.659464 154.052304 
L 735.455254 153.759355 
L 741.251044 153.841808 
L 747.046835 153.729042 
L 752.842625 153.334483 
L 758.638415 153.414025 
L 764.434205 153.268763 
L 770.229995 152.882934 
L 776.025785 152.759013 
L 781.821575 152.351116 
L 787.617365 151.769584 
L 793.413156 151.497976 
L 799.208946 150.980223 
L 805.004736 150.268464 
L 816.596316 149.124315 
L 822.392106 148.212003 
L 833.983686 146.681783 
L 839.779476 145.640214 
L 845.575267 144.793864 
L 851.371057 143.795947 
L 857.166847 142.459975 
L 862.962637 141.509832 
L 868.758427 140.407394 
L 874.554217 139.131564 
L 880.350007 138.082235 
L 886.145797 136.907045 
L 891.941587 135.249266 
L 903.533168 132.754352 
L 909.328958 131.260992 
L 915.124748 129.934478 
L 920.920538 128.446211 
L 926.716328 126.73411 
L 932.512118 125.340179 
L 938.307908 123.723626 
L 944.103699 121.943866 
L 949.899489 120.396912 
L 949.899489 120.396912 
" style="fill:none;stroke:#90ed7d;stroke-linecap:square;"/>
   </g>
   <g id="line2d_10">
    <path clip-path="url(#p8cef8f303c)" d="M 86.326761 152.543667 
L 92.122551 173.71891 
L 97.918342 173.339144 
L 103.714132 175.79453 
L 109.509922 173.473251 
L 115.305712 175.05658 
L 121.101502 175.183896 
L 126.897292 174.109105 
L 132.693082 173.610752 
L 138.488872 174.924414 
L 144.284663 168.669668 
L 150.080453 170.227777 
L 155.876243 170.01243 
L 161.672033 171.458258 
L 167.467823 171.126508 
L 173.263613 171.608613 
L 179.059403 170.66235 
L 184.855193 171.573934 
L 190.650983 170.578927 
L 196.446774 171.775943 
L 202.242564 170.626944 
L 208.038354 172.443808 
L 213.834144 171.401027 
L 219.629934 172.919607 
L 225.425724 172.321341 
L 231.221514 173.133983 
L 237.017304 172.665944 
L 242.813094 173.463308 
L 248.608885 172.783075 
L 254.404675 173.661679 
L 260.200465 172.924699 
L 265.996255 173.3697 
L 271.792045 173.27294 
L 277.587835 173.309801 
L 289.179415 172.77483 
L 294.975206 173.400741 
L 300.770996 172.7855 
L 306.566786 173.029462 
L 312.362576 173.054926 
L 318.158366 172.413494 
L 323.954156 173.753104 
L 329.749946 172.291756 
L 335.545736 173.555946 
L 341.341526 172.740151 
L 347.137317 173.973058 
L 352.933107 172.324252 
L 358.728897 173.147078 
L 364.524687 172.619383 
L 370.320477 172.732876 
L 376.116267 172.133883 
L 381.912057 172.866255 
L 387.707847 171.230302 
L 393.503638 171.953458 
L 399.299428 171.168705 
L 416.686798 170.84132 
L 422.482588 169.426048 
L 428.278378 169.694503 
L 439.869958 167.952332 
L 445.665749 168.254253 
L 451.461539 167.822348 
L 457.257329 166.810123 
L 463.053119 167.773119 
L 468.848909 166.994671 
L 474.644699 166.671894 
L 480.440489 166.505534 
L 486.236279 166.859594 
L 492.032069 165.838882 
L 497.82786 165.942432 
L 509.41944 164.985499 
L 521.01102 164.827869 
L 526.80681 164.11514 
L 532.6026 164.218206 
L 538.39839 163.552281 
L 549.989971 163.289646 
L 555.785761 162.847555 
L 567.377341 162.567944 
L 573.173131 161.865159 
L 578.968921 161.620226 
L 584.764711 161.075798 
L 590.560501 161.314425 
L 596.356292 160.714947 
L 607.947872 160.702337 
L 619.539452 160.220475 
L 625.335242 160.109406 
L 631.131032 159.397405 
L 636.926822 159.414381 
L 642.722612 158.953375 
L 654.314193 158.425194 
L 660.109983 158.304668 
L 665.905773 157.575206 
L 671.701563 157.857242 
L 683.293143 157.174584 
L 689.088933 157.221146 
L 700.680514 156.667017 
L 706.476304 156.731524 
L 718.067884 156.282643 
L 723.863674 156.36752 
L 729.659464 156.242387 
L 735.455254 155.893419 
L 741.251044 156.124528 
L 752.842625 155.571127 
L 758.638415 155.678315 
L 764.434205 155.594165 
L 770.229995 155.260475 
L 776.025785 155.306309 
L 787.617365 154.489787 
L 799.208946 153.99289 
L 805.004736 153.319932 
L 810.800526 153.017768 
L 816.596316 152.468247 
L 822.392106 151.772494 
L 828.187896 151.23146 
L 833.983686 150.559473 
L 839.779476 149.664864 
L 845.575267 149.062961 
L 851.371057 148.18557 
L 857.166847 147.118781 
L 868.758427 145.533269 
L 874.554217 144.376024 
L 880.350007 143.721982 
L 886.145797 142.682354 
L 891.941587 141.411374 
L 897.737378 140.323001 
L 903.533168 139.386196 
L 909.328958 138.144317 
L 915.124748 137.121421 
L 920.920538 135.931681 
L 926.716328 134.582614 
L 932.512118 133.459805 
L 938.307908 132.187127 
L 944.103699 130.659332 
L 949.899489 129.546952 
L 949.899489 129.546952 
" style="fill:none;stroke:#f7a35c;stroke-linecap:square;"/>
   </g>
   <g id="line2d_11">
    <path clip-path="url(#p8cef8f303c)" d="M 86.326761 157.653536 
L 92.122551 175.96283 
L 97.918342 173.668954 
L 103.714132 176.874172 
L 109.509922 174.778667 
L 115.305712 176.062985 
L 121.101502 176.700779 
L 132.693082 176.144225 
L 138.488872 174.972188 
L 144.284663 171.50676 
L 150.080453 172.166622 
L 155.876243 172.320856 
L 161.672033 172.788895 
L 173.263613 173.197035 
L 184.855193 173.131558 
L 196.446774 173.415049 
L 202.242564 172.879836 
L 208.038354 173.95681 
L 213.834144 173.279972 
L 219.629934 174.197862 
L 225.425724 174.161486 
L 242.813094 174.721678 
L 248.608885 174.72289 
L 254.404675 175.008806 
L 260.200465 174.614975 
L 265.996255 174.934357 
L 283.383625 174.838809 
L 289.179415 174.36786 
L 294.975206 175.324793 
L 300.770996 174.676814 
L 306.566786 175.078891 
L 312.362576 174.689667 
L 318.158366 174.512394 
L 323.954156 175.028934 
L 329.749946 174.401568 
L 335.545736 174.839051 
L 341.341526 174.737441 
L 347.137317 175.413551 
L 352.933107 174.279102 
L 358.728897 174.411269 
L 364.524687 174.309173 
L 376.116267 173.781477 
L 381.912057 173.924072 
L 387.707847 172.902146 
L 393.503638 173.134226 
L 399.299428 172.411554 
L 416.686798 171.928965 
L 422.482588 170.873573 
L 428.278378 170.805671 
L 434.074168 170.241842 
L 439.869958 169.078535 
L 445.665749 169.344808 
L 451.461539 168.887197 
L 457.257329 168.118449 
L 463.053119 168.727385 
L 474.644699 167.727285 
L 480.440489 167.585661 
L 486.236279 167.795672 
L 492.032069 167.177036 
L 503.62365 166.655161 
L 509.41944 166.003059 
L 515.21523 165.96353 
L 521.01102 165.698227 
L 526.80681 165.095597 
L 532.6026 164.953245 
L 544.194181 164.222329 
L 549.989971 164.19638 
L 555.785761 163.593022 
L 561.581551 163.639584 
L 567.377341 163.130076 
L 573.173131 162.50271 
L 578.968921 162.257535 
L 584.764711 161.414823 
L 590.560501 161.589913 
L 602.152082 160.730225 
L 607.947872 160.931263 
L 613.743662 160.481655 
L 625.335242 159.918068 
L 631.131032 159.138893 
L 636.926822 159.049407 
L 642.722612 158.521469 
L 654.314193 157.836871 
L 660.109983 157.557988 
L 665.905773 156.831437 
L 671.701563 156.96336 
L 683.293143 156.306408 
L 689.088933 156.357578 
L 694.884724 155.964231 
L 718.067884 155.540328 
L 723.863674 155.58786 
L 735.455254 155.174385 
L 741.251044 155.255625 
L 747.046835 155.070349 
L 752.842625 154.772308 
L 764.434205 154.638686 
L 770.229995 154.190291 
L 776.025785 154.020051 
L 781.821575 153.661867 
L 787.617365 152.946956 
L 793.413156 152.607931 
L 799.208946 152.131647 
L 805.004736 151.341559 
L 810.800526 150.811195 
L 822.392106 149.340874 
L 833.983686 147.716076 
L 839.779476 146.639586 
L 845.575267 145.8187 
L 851.371057 144.853521 
L 857.166847 143.556835 
L 868.758427 141.680799 
L 874.554217 140.415639 
L 886.145797 138.414955 
L 891.941587 136.995318 
L 897.737378 135.771626 
L 903.533168 134.714052 
L 938.307908 126.713012 
L 944.103699 125.167756 
L 949.899489 123.768732 
L 949.899489 123.768732 
" style="fill:none;stroke:#8085e9;stroke-linecap:square;"/>
   </g>
   <g id="line2d_12">
    <path clip-path="url(#p8cef8f303c)" d="M 86.326761 155.724634 
L 92.122551 177.026709 
L 97.918342 174.195922 
L 103.714132 177.012401 
L 109.509922 174.994256 
L 115.305712 176.355449 
L 121.101502 177.027194 
L 132.693082 176.737398 
L 138.488872 175.172499 
L 144.284663 171.599398 
L 150.080453 172.291028 
L 155.876243 172.296848 
L 161.672033 172.827939 
L 167.467823 173.242626 
L 173.263613 173.337689 
L 179.059403 173.26809 
L 196.446774 173.604447 
L 202.242564 173.161144 
L 208.038354 174.154696 
L 213.834144 173.503322 
L 219.629934 174.524519 
L 225.425724 174.299958 
L 237.017304 174.904771 
L 242.813094 174.832504 
L 254.404675 175.256891 
L 260.200465 174.887795 
L 265.996255 175.242826 
L 277.587835 175.007836 
L 283.383625 175.093926 
L 289.179415 174.682149 
L 294.975206 175.557115 
L 300.770996 174.854087 
L 306.566786 175.354622 
L 312.362576 174.886583 
L 318.158366 174.712462 
L 323.954156 175.29933 
L 329.749946 174.488871 
L 335.545736 174.991588 
L 341.341526 174.880277 
L 347.137317 175.474905 
L 352.933107 174.312811 
L 358.728897 174.426061 
L 364.524687 174.266734 
L 370.320477 173.812276 
L 376.116267 173.782447 
L 381.912057 173.576316 
L 387.707847 172.61914 
L 393.503638 172.860192 
L 399.299428 172.042216 
L 405.095218 171.770608 
L 410.891008 171.619768 
L 416.686798 171.311541 
L 422.482588 170.335935 
L 428.278378 170.213954 
L 434.074168 169.689168 
L 439.869958 168.457232 
L 445.665749 168.774431 
L 451.461539 168.261286 
L 457.257329 167.496418 
L 463.053119 168.205024 
L 468.848909 167.575961 
L 474.644699 167.154483 
L 486.236279 167.174611 
L 492.032069 166.645218 
L 503.62365 166.201187 
L 509.41944 165.492096 
L 515.21523 165.500099 
L 521.01102 165.195752 
L 526.80681 164.674362 
L 532.6026 164.514307 
L 544.194181 163.661167 
L 549.989971 163.746287 
L 555.785761 163.015613 
L 561.581551 163.087637 
L 567.377341 162.629299 
L 573.173131 161.993687 
L 578.968921 161.711894 
L 584.764711 160.961092 
L 590.560501 160.996013 
L 602.152082 160.083458 
L 607.947872 160.253941 
L 613.743662 159.740068 
L 619.539452 159.544365 
L 625.335242 159.163871 
L 631.131032 158.29327 
L 636.926822 158.20718 
L 642.722612 157.629285 
L 648.518403 157.235939 
L 654.314193 157.01647 
L 665.905773 156.021948 
L 671.701563 156.157509 
L 683.293143 155.540571 
L 689.088933 155.661582 
L 694.884724 155.290303 
L 700.680514 155.206881 
L 706.476304 155.272843 
L 718.067884 155.046826 
L 723.863674 155.27648 
L 735.455254 154.868098 
L 741.251044 154.878284 
L 764.434205 154.108808 
L 770.229995 153.639799 
L 776.025785 153.467862 
L 799.208946 151.134942 
L 805.004736 150.176069 
L 810.800526 149.589202 
L 816.596316 148.732909 
L 828.187896 146.864148 
L 833.983686 145.884662 
L 839.779476 144.776889 
L 845.575267 143.805405 
L 851.371057 142.647433 
L 857.166847 141.308793 
L 868.758427 139.153632 
L 874.554217 137.884592 
L 880.350007 136.906803 
L 886.145797 135.692811 
L 891.941587 134.173019 
L 915.124748 129.207199 
L 926.716328 126.337369 
L 932.512118 125.04432 
L 938.307908 123.605768 
L 944.103699 121.961569 
L 949.899489 120.652515 
L 949.899489 120.652515 
" style="fill:none;stroke:#f15c80;stroke-linecap:square;"/>
   </g>
   <g id="line2d_13">
    <path clip-path="url(#p8cef8f303c)" d="M 86.326761 152.868384 
L 92.122551 177.149175 
L 97.918342 173.823674 
L 103.714132 174.240301 
L 109.509922 173.986881 
L 115.305712 175.345406 
L 121.101502 176.920491 
L 126.897292 175.384935 
L 132.693082 174.817468 
L 138.488872 173.372368 
L 144.284663 169.467032 
L 150.080453 170.304894 
L 155.876243 170.414022 
L 161.672033 171.128449 
L 167.467823 171.696158 
L 179.059403 171.702706 
L 184.855193 171.315664 
L 190.650983 171.363196 
L 196.446774 171.660024 
L 202.242564 170.692906 
L 208.038354 171.760665 
L 213.834144 171.251885 
L 219.629934 172.196208 
L 225.425724 171.971889 
L 231.221514 172.397974 
L 237.017304 172.45666 
L 242.813094 172.310186 
L 248.608885 172.817511 
L 254.404675 172.895599 
L 260.200465 172.194025 
L 265.996255 173.059776 
L 271.792045 172.630538 
L 277.587835 172.463693 
L 283.383625 172.741121 
L 289.179415 171.919022 
L 294.975206 173.149504 
L 300.770996 172.263867 
L 306.566786 172.749367 
L 312.362576 172.122243 
L 318.158366 172.09387 
L 323.954156 172.440655 
L 329.749946 171.677 
L 335.545736 172.204453 
L 341.341526 172.058221 
L 347.137317 172.808781 
L 352.933107 171.588727 
L 358.728897 171.317604 
L 364.524687 171.337005 
L 370.320477 170.790394 
L 376.116267 170.946083 
L 381.912057 170.633491 
L 387.707847 169.818667 
L 393.503638 170.131016 
L 399.299428 169.313525 
L 410.891008 168.880407 
L 416.686798 168.880892 
L 422.482588 167.794945 
L 428.278378 167.57305 
L 434.074168 167.215595 
L 439.869958 165.963288 
L 445.665749 166.086966 
L 451.461539 165.88908 
L 457.257329 165.027452 
L 463.053119 166.10952 
L 468.848909 165.369388 
L 474.644699 165.110875 
L 486.236279 165.017267 
L 492.032069 164.843389 
L 497.82786 164.414152 
L 515.21523 163.532881 
L 521.01102 163.380829 
L 526.80681 162.891449 
L 532.6026 162.887811 
L 538.39839 162.621538 
L 544.194181 162.198363 
L 549.989971 162.291001 
L 555.785761 161.497275 
L 561.581551 161.67479 
L 567.377341 161.304482 
L 573.173131 160.541554 
L 578.968921 160.425878 
L 584.764711 159.485435 
L 590.560501 159.729155 
L 596.356292 159.308648 
L 602.152082 158.752821 
L 607.947872 158.986598 
L 613.743662 158.5593 
L 625.335242 158.024087 
L 631.131032 157.111047 
L 636.926822 156.987369 
L 648.518403 156.078937 
L 660.109983 155.637574 
L 665.905773 155.159107 
L 671.701563 155.245197 
L 683.293143 154.860823 
L 689.088933 155.17099 
L 694.884724 154.880709 
L 712.272094 155.075199 
L 718.067884 154.961221 
L 723.863674 155.062589 
L 752.842625 154.133544 
L 758.638415 153.788699 
L 764.434205 153.596391 
L 781.821575 152.015971 
L 787.617365 151.309548 
L 793.413156 150.738443 
L 816.596316 147.471386 
L 833.983686 144.498005 
L 851.371057 141.158681 
L 862.962637 138.636121 
L 868.758427 137.58752 
L 880.350007 135.207797 
L 886.145797 134.062678 
L 897.737378 131.211036 
L 903.533168 130.059612 
L 932.512118 123.146701 
L 938.307908 121.686323 
L 944.103699 120.054977 
L 949.899489 118.595811 
L 949.899489 118.595811 
" style="fill:none;stroke:#e4d354;stroke-linecap:square;"/>
   </g>
   <g id="line2d_14">
    <path clip-path="url(#p8cef8f303c)" d="M 86.326761 151.905388 
L 92.122551 180.09297 
L 103.714132 177.159118 
L 109.509922 177.413265 
L 115.305712 179.445475 
L 121.101502 182.860947 
L 126.897292 180.69366 
L 132.693082 179.776255 
L 138.488872 177.098976 
L 144.284663 173.43833 
L 150.080453 174.215808 
L 155.876243 173.803545 
L 161.672033 174.695972 
L 167.467823 175.455505 
L 173.263613 175.853216 
L 179.059403 175.844729 
L 184.855193 175.672063 
L 190.650983 175.715472 
L 196.446774 176.066865 
L 202.242564 174.863302 
L 208.038354 175.619197 
L 213.834144 175.424949 
L 219.629934 176.280272 
L 231.221514 176.682591 
L 237.017304 176.913943 
L 242.813094 176.552122 
L 248.608885 177.479227 
L 254.404675 177.351183 
L 260.200465 176.670951 
L 265.996255 177.506145 
L 271.792045 177.124924 
L 277.587835 176.896482 
L 283.383625 177.201799 
L 289.179415 176.336048 
L 294.975206 177.773631 
L 300.770996 176.717269 
L 306.566786 177.33542 
L 312.362576 176.585346 
L 318.158366 176.558912 
L 323.954156 176.73764 
L 329.749946 176.278089 
L 335.545736 176.778139 
L 341.341526 176.772319 
L 347.137317 177.717127 
L 352.933107 176.321983 
L 358.728897 175.586701 
L 364.524687 175.997751 
L 370.320477 174.72095 
L 376.116267 175.507159 
L 387.707847 174.166821 
L 393.503638 174.19568 
L 399.299428 173.559098 
L 405.095218 172.692377 
L 410.891008 172.611623 
L 416.686798 172.307761 
L 422.482588 171.247762 
L 434.074168 170.50763 
L 439.869958 168.858339 
L 451.461539 168.623592 
L 457.257329 167.601181 
L 463.053119 168.836998 
L 468.848909 167.877882 
L 492.032069 167.233298 
L 497.82786 166.577801 
L 503.62365 166.485648 
L 509.41944 166.006211 
L 515.21523 165.673734 
L 521.01102 165.649968 
L 526.80681 165.067466 
L 538.39839 164.827141 
L 544.194181 164.192985 
L 549.989971 164.19735 
L 555.785761 163.25327 
L 561.581551 163.496989 
L 567.377341 163.107038 
L 573.173131 162.388732 
L 578.968921 162.258505 
L 584.764711 161.317577 
L 590.560501 161.539229 
L 602.152082 160.41157 
L 607.947872 160.526519 
L 613.743662 160.237693 
L 619.539452 159.725275 
L 625.335242 159.552852 
L 631.131032 158.435137 
L 636.926822 158.327949 
L 642.722612 157.575206 
L 660.109983 156.459431 
L 665.905773 155.843462 
L 671.701563 155.783805 
L 683.293143 155.178265 
L 689.088933 155.520443 
L 694.884724 155.134856 
L 723.863674 155.442598 
L 729.659464 155.291273 
L 747.046835 155.086355 
L 752.842625 154.962434 
L 758.638415 154.649357 
L 764.434205 154.559144 
L 770.229995 153.996527 
L 776.025785 153.613609 
L 781.821575 152.993033 
L 787.617365 152.164143 
L 793.413156 151.706289 
L 805.004736 149.874633 
L 816.596316 147.972649 
L 822.392106 146.937385 
L 828.187896 145.718302 
L 833.983686 144.673338 
L 845.575267 142.086271 
L 851.371057 140.823536 
L 862.962637 137.963891 
L 868.758427 136.701884 
L 874.554217 135.198339 
L 880.350007 134.011994 
L 886.145797 132.640131 
L 897.737378 129.522943 
L 909.328958 126.655053 
L 920.920538 123.672457 
L 949.899489 115.833412 
L 949.899489 115.833412 
" style="fill:none;stroke:#2b908f;stroke-linecap:square;"/>
   </g>
   <g id="line2d_15">
    <path clip-path="url(#p8cef8f303c)" d="M 43.148125 273.99006 
L 993.078125 273.99006 
" style="fill:none;stroke:#dedede;stroke-linecap:square;stroke-width:2;"/>
   </g>
   <g id="text_17">
    <!-- Fastp: Read GC Content -->
    <defs>
     <path d="M 9.8125 72.90625 
L 51.703125 72.90625 
L 51.703125 64.59375 
L 19.671875 64.59375 
L 19.671875 43.109375 
L 48.578125 43.109375 
L 48.578125 34.8125 
L 19.671875 34.8125 
L 19.671875 0 
L 9.8125 0 
z
" id="DejaVuSans-70"/>
     <path d="M 18.109375 8.203125 
L 18.109375 -20.796875 
L 9.078125 -20.796875 
L 9.078125 54.6875 
L 18.109375 54.6875 
L 18.109375 46.390625 
Q 20.953125 51.265625 25.265625 53.625 
Q 29.59375 56 35.59375 56 
Q 45.5625 56 51.78125 48.09375 
Q 58.015625 40.1875 58.015625 27.296875 
Q 58.015625 14.40625 51.78125 6.484375 
Q 45.5625 -1.421875 35.59375 -1.421875 
Q 29.59375 -1.421875 25.265625 0.953125 
Q 20.953125 3.328125 18.109375 8.203125 
z
M 48.6875 27.296875 
Q 48.6875 37.203125 44.609375 42.84375 
Q 40.53125 48.484375 33.40625 48.484375 
Q 26.265625 48.484375 22.1875 42.84375 
Q 18.109375 37.203125 18.109375 27.296875 
Q 18.109375 17.390625 22.1875 11.75 
Q 26.265625 6.109375 33.40625 6.109375 
Q 40.53125 6.109375 44.609375 11.75 
Q 48.6875 17.390625 48.6875 27.296875 
z
" id="DejaVuSans-112"/>
     <path d="M 59.515625 10.40625 
L 59.515625 29.984375 
L 43.40625 29.984375 
L 43.40625 38.09375 
L 69.28125 38.09375 
L 69.28125 6.78125 
Q 63.578125 2.734375 56.6875 0.65625 
Q 49.8125 -1.421875 42 -1.421875 
Q 24.90625 -1.421875 15.25 8.5625 
Q 5.609375 18.5625 5.609375 36.375 
Q 5.609375 54.25 15.25 64.234375 
Q 24.90625 74.21875 42 74.21875 
Q 49.125 74.21875 55.546875 72.453125 
Q 61.96875 70.703125 67.390625 67.28125 
L 67.390625 56.78125 
Q 61.921875 61.421875 55.765625 63.765625 
Q 49.609375 66.109375 42.828125 66.109375 
Q 29.4375 66.109375 22.71875 58.640625 
Q 16.015625 51.171875 16.015625 36.375 
Q 16.015625 21.625 22.71875 14.15625 
Q 29.4375 6.6875 42.828125 6.6875 
Q 48.046875 6.6875 52.140625 7.59375 
Q 56.25 8.5 59.515625 10.40625 
z
" id="DejaVuSans-71"/>
    </defs>
    <g transform="translate(421.856875 19.3575)scale(0.16 -0.16)">
     <use xlink:href="#DejaVuSans-70"/>
     <use x="57.378906" xlink:href="#DejaVuSans-97"/>
     <use x="118.658203" xlink:href="#DejaVuSans-115"/>
     <use x="170.757812" xlink:href="#DejaVuSans-116"/>
     <use x="209.966797" xlink:href="#DejaVuSans-112"/>
     <use x="273.443359" xlink:href="#DejaVuSans-58"/>
     <use x="307.134766" xlink:href="#DejaVuSans-32"/>
     <use x="338.921875" xlink:href="#DejaVuSans-82"/>
     <use x="408.341797" xlink:href="#DejaVuSans-101"/>
     <use x="469.865234" xlink:href="#DejaVuSans-97"/>
     <use x="531.144531" xlink:href="#DejaVuSans-100"/>
     <use x="594.621094" xlink:href="#DejaVuSans-32"/>
     <use x="626.408203" xlink:href="#DejaVuSans-71"/>
     <use x="703.898438" xlink:href="#DejaVuSans-67"/>
     <use x="773.722656" xlink:href="#DejaVuSans-32"/>
     <use x="805.509766" xlink:href="#DejaVuSans-67"/>
     <use x="875.333984" xlink:href="#DejaVuSans-111"/>
     <use x="936.515625" xlink:href="#DejaVuSans-110"/>
     <use x="999.894531" xlink:href="#DejaVuSans-116"/>
     <use x="1039.103516" xlink:href="#DejaVuSans-101"/>
     <use x="1100.626953" xlink:href="#DejaVuSans-110"/>
     <use x="1164.005859" xlink:href="#DejaVuSans-116"/>
    </g>
   </g>
   <g id="legend_1">
    <g id="line2d_16">
     <path d="M 50.348125 303.490394 
L 66.348125 303.490394 
" style="fill:none;stroke:#7cb5ec;stroke-linecap:square;"/>
    </g>
    <g id="line2d_17"/>
    <g id="text_18">
     <!-- Sfu-ABai_005-Ex1-1A-lcwgs-1-1 -->
     <defs>
      <path d="M 53.515625 70.515625 
L 53.515625 60.890625 
Q 47.90625 63.578125 42.921875 64.890625 
Q 37.9375 66.21875 33.296875 66.21875 
Q 25.25 66.21875 20.875 63.09375 
Q 16.5 59.96875 16.5 54.203125 
Q 16.5 49.359375 19.40625 46.890625 
Q 22.3125 44.4375 30.421875 42.921875 
L 36.375 41.703125 
Q 47.40625 39.59375 52.65625 34.296875 
Q 57.90625 29 57.90625 20.125 
Q 57.90625 9.515625 50.796875 4.046875 
Q 43.703125 -1.421875 29.984375 -1.421875 
Q 24.8125 -1.421875 18.96875 -0.25 
Q 13.140625 0.921875 6.890625 3.21875 
L 6.890625 13.375 
Q 12.890625 10.015625 18.65625 8.296875 
Q 24.421875 6.59375 29.984375 6.59375 
Q 38.421875 6.59375 43.015625 9.90625 
Q 47.609375 13.234375 47.609375 19.390625 
Q 47.609375 24.75 44.3125 27.78125 
Q 41.015625 30.8125 33.5 32.328125 
L 27.484375 33.5 
Q 16.453125 35.6875 11.515625 40.375 
Q 6.59375 45.0625 6.59375 53.421875 
Q 6.59375 63.09375 13.40625 68.65625 
Q 20.21875 74.21875 32.171875 74.21875 
Q 37.3125 74.21875 42.625 73.28125 
Q 47.953125 72.359375 53.515625 70.515625 
z
" id="DejaVuSans-83"/>
      <path d="M 8.5 21.578125 
L 8.5 54.6875 
L 17.484375 54.6875 
L 17.484375 21.921875 
Q 17.484375 14.15625 20.5 10.265625 
Q 23.53125 6.390625 29.59375 6.390625 
Q 36.859375 6.390625 41.078125 11.03125 
Q 45.3125 15.671875 45.3125 23.6875 
L 45.3125 54.6875 
L 54.296875 54.6875 
L 54.296875 0 
L 45.3125 0 
L 45.3125 8.40625 
Q 42.046875 3.421875 37.71875 1 
Q 33.40625 -1.421875 27.6875 -1.421875 
Q 18.265625 -1.421875 13.375 4.4375 
Q 8.5 10.296875 8.5 21.578125 
z
M 31.109375 56 
z
" id="DejaVuSans-117"/>
      <path d="M 4.890625 31.390625 
L 31.203125 31.390625 
L 31.203125 23.390625 
L 4.890625 23.390625 
z
" id="DejaVuSans-45"/>
      <path d="M 34.1875 63.1875 
L 20.796875 26.90625 
L 47.609375 26.90625 
z
M 28.609375 72.90625 
L 39.796875 72.90625 
L 67.578125 0 
L 57.328125 0 
L 50.6875 18.703125 
L 17.828125 18.703125 
L 11.1875 0 
L 0.78125 0 
z
" id="DejaVuSans-65"/>
      <path d="M 50.984375 -16.609375 
L 50.984375 -23.578125 
L -0.984375 -23.578125 
L -0.984375 -16.609375 
z
" id="DejaVuSans-95"/>
      <path d="M 10.796875 72.90625 
L 49.515625 72.90625 
L 49.515625 64.59375 
L 19.828125 64.59375 
L 19.828125 46.734375 
Q 21.96875 47.46875 24.109375 47.828125 
Q 26.265625 48.1875 28.421875 48.1875 
Q 40.625 48.1875 47.75 41.5 
Q 54.890625 34.8125 54.890625 23.390625 
Q 54.890625 11.625 47.5625 5.09375 
Q 40.234375 -1.421875 26.90625 -1.421875 
Q 22.3125 -1.421875 17.546875 -0.640625 
Q 12.796875 0.140625 7.71875 1.703125 
L 7.71875 11.625 
Q 12.109375 9.234375 16.796875 8.0625 
Q 21.484375 6.890625 26.703125 6.890625 
Q 35.15625 6.890625 40.078125 11.328125 
Q 45.015625 15.765625 45.015625 23.390625 
Q 45.015625 31 40.078125 35.4375 
Q 35.15625 39.890625 26.703125 39.890625 
Q 22.75 39.890625 18.8125 39.015625 
Q 14.890625 38.140625 10.796875 36.28125 
z
" id="DejaVuSans-53"/>
      <path d="M 9.8125 72.90625 
L 55.90625 72.90625 
L 55.90625 64.59375 
L 19.671875 64.59375 
L 19.671875 43.015625 
L 54.390625 43.015625 
L 54.390625 34.71875 
L 19.671875 34.71875 
L 19.671875 8.296875 
L 56.78125 8.296875 
L 56.78125 0 
L 9.8125 0 
z
" id="DejaVuSans-69"/>
      <path d="M 54.890625 54.6875 
L 35.109375 28.078125 
L 55.90625 0 
L 45.3125 0 
L 29.390625 21.484375 
L 13.484375 0 
L 2.875 0 
L 24.125 28.609375 
L 4.6875 54.6875 
L 15.28125 54.6875 
L 29.78125 35.203125 
L 44.28125 54.6875 
z
" id="DejaVuSans-120"/>
      <path d="M 4.203125 54.6875 
L 13.1875 54.6875 
L 24.421875 12.015625 
L 35.59375 54.6875 
L 46.1875 54.6875 
L 57.421875 12.015625 
L 68.609375 54.6875 
L 77.59375 54.6875 
L 63.28125 0 
L 52.6875 0 
L 40.921875 44.828125 
L 29.109375 0 
L 18.5 0 
z
" id="DejaVuSans-119"/>
     </defs>
     <g transform="translate(72.748125 306.290394)scale(0.08 -0.08)">
      <use xlink:href="#DejaVuSans-83"/>
      <use x="63.476562" xlink:href="#DejaVuSans-102"/>
      <use x="98.681641" xlink:href="#DejaVuSans-117"/>
      <use x="162.060547" xlink:href="#DejaVuSans-45"/>
      <use x="198.113281" xlink:href="#DejaVuSans-65"/>
      <use x="266.521484" xlink:href="#DejaVuSans-66"/>
      <use x="335.125" xlink:href="#DejaVuSans-97"/>
      <use x="396.404297" xlink:href="#DejaVuSans-105"/>
      <use x="424.1875" xlink:href="#DejaVuSans-95"/>
      <use x="474.1875" xlink:href="#DejaVuSans-48"/>
      <use x="537.810547" xlink:href="#DejaVuSans-48"/>
      <use x="601.433594" xlink:href="#DejaVuSans-53"/>
      <use x="665.056641" xlink:href="#DejaVuSans-45"/>
      <use x="701.140625" xlink:href="#DejaVuSans-69"/>
      <use x="764.324219" xlink:href="#DejaVuSans-120"/>
      <use x="823.503906" xlink:href="#DejaVuSans-49"/>
      <use x="887.126953" xlink:href="#DejaVuSans-45"/>
      <use x="923.210938" xlink:href="#DejaVuSans-49"/>
      <use x="986.833984" xlink:href="#DejaVuSans-65"/>
      <use x="1055.210938" xlink:href="#DejaVuSans-45"/>
      <use x="1091.294922" xlink:href="#DejaVuSans-108"/>
      <use x="1119.078125" xlink:href="#DejaVuSans-99"/>
      <use x="1174.058594" xlink:href="#DejaVuSans-119"/>
      <use x="1255.845703" xlink:href="#DejaVuSans-103"/>
      <use x="1319.322266" xlink:href="#DejaVuSans-115"/>
      <use x="1371.421875" xlink:href="#DejaVuSans-45"/>
      <use x="1407.505859" xlink:href="#DejaVuSans-49"/>
      <use x="1471.128906" xlink:href="#DejaVuSans-45"/>
      <use x="1507.212891" xlink:href="#DejaVuSans-49"/>
     </g>
    </g>
    <g id="line2d_18">
     <path d="M 50.348125 315.455394 
L 66.348125 315.455394 
" style="fill:none;stroke:#434348;stroke-linecap:square;"/>
    </g>
    <g id="line2d_19"/>
    <g id="text_19">
     <!-- Sfu-ABai_006-Ex1-1B-lcwgs-1-1 -->
     <g transform="translate(72.748125 318.255394)scale(0.08 -0.08)">
      <use xlink:href="#DejaVuSans-83"/>
      <use x="63.476562" xlink:href="#DejaVuSans-102"/>
      <use x="98.681641" xlink:href="#DejaVuSans-117"/>
      <use x="162.060547" xlink:href="#DejaVuSans-45"/>
      <use x="198.113281" xlink:href="#DejaVuSans-65"/>
      <use x="266.521484" xlink:href="#DejaVuSans-66"/>
      <use x="335.125" xlink:href="#DejaVuSans-97"/>
      <use x="396.404297" xlink:href="#DejaVuSans-105"/>
      <use x="424.1875" xlink:href="#DejaVuSans-95"/>
      <use x="474.1875" xlink:href="#DejaVuSans-48"/>
      <use x="537.810547" xlink:href="#DejaVuSans-48"/>
      <use x="601.433594" xlink:href="#DejaVuSans-54"/>
      <use x="665.056641" xlink:href="#DejaVuSans-45"/>
      <use x="701.140625" xlink:href="#DejaVuSans-69"/>
      <use x="764.324219" xlink:href="#DejaVuSans-120"/>
      <use x="823.503906" xlink:href="#DejaVuSans-49"/>
      <use x="887.126953" xlink:href="#DejaVuSans-45"/>
      <use x="923.210938" xlink:href="#DejaVuSans-49"/>
      <use x="986.833984" xlink:href="#DejaVuSans-66"/>
      <use x="1055.4375" xlink:href="#DejaVuSans-45"/>
      <use x="1091.521484" xlink:href="#DejaVuSans-108"/>
      <use x="1119.304688" xlink:href="#DejaVuSans-99"/>
      <use x="1174.285156" xlink:href="#DejaVuSans-119"/>
      <use x="1256.072266" xlink:href="#DejaVuSans-103"/>
      <use x="1319.548828" xlink:href="#DejaVuSans-115"/>
      <use x="1371.648438" xlink:href="#DejaVuSans-45"/>
      <use x="1407.732422" xlink:href="#DejaVuSans-49"/>
      <use x="1471.355469" xlink:href="#DejaVuSans-45"/>
      <use x="1507.439453" xlink:href="#DejaVuSans-49"/>
     </g>
    </g>
    <g id="line2d_20">
     <path d="M 246.840625 303.490394 
L 262.840625 303.490394 
" style="fill:none;stroke:#90ed7d;stroke-linecap:square;"/>
    </g>
    <g id="line2d_21"/>
    <g id="text_20">
     <!-- Sfu-ABai_007-Ex1-1C-lcwgs-1-1 -->
     <defs>
      <path d="M 8.203125 72.90625 
L 55.078125 72.90625 
L 55.078125 68.703125 
L 28.609375 0 
L 18.3125 0 
L 43.21875 64.59375 
L 8.203125 64.59375 
z
" id="DejaVuSans-55"/>
     </defs>
     <g transform="translate(269.240625 306.290394)scale(0.08 -0.08)">
      <use xlink:href="#DejaVuSans-83"/>
      <use x="63.476562" xlink:href="#DejaVuSans-102"/>
      <use x="98.681641" xlink:href="#DejaVuSans-117"/>
      <use x="162.060547" xlink:href="#DejaVuSans-45"/>
      <use x="198.113281" xlink:href="#DejaVuSans-65"/>
      <use x="266.521484" xlink:href="#DejaVuSans-66"/>
      <use x="335.125" xlink:href="#DejaVuSans-97"/>
      <use x="396.404297" xlink:href="#DejaVuSans-105"/>
      <use x="424.1875" xlink:href="#DejaVuSans-95"/>
      <use x="474.1875" xlink:href="#DejaVuSans-48"/>
      <use x="537.810547" xlink:href="#DejaVuSans-48"/>
      <use x="601.433594" xlink:href="#DejaVuSans-55"/>
      <use x="665.056641" xlink:href="#DejaVuSans-45"/>
      <use x="701.140625" xlink:href="#DejaVuSans-69"/>
      <use x="764.324219" xlink:href="#DejaVuSans-120"/>
      <use x="823.503906" xlink:href="#DejaVuSans-49"/>
      <use x="887.126953" xlink:href="#DejaVuSans-45"/>
      <use x="923.210938" xlink:href="#DejaVuSans-49"/>
      <use x="986.833984" xlink:href="#DejaVuSans-67"/>
      <use x="1056.658203" xlink:href="#DejaVuSans-45"/>
      <use x="1092.742188" xlink:href="#DejaVuSans-108"/>
      <use x="1120.525391" xlink:href="#DejaVuSans-99"/>
      <use x="1175.505859" xlink:href="#DejaVuSans-119"/>
      <use x="1257.292969" xlink:href="#DejaVuSans-103"/>
      <use x="1320.769531" xlink:href="#DejaVuSans-115"/>
      <use x="1372.869141" xlink:href="#DejaVuSans-45"/>
      <use x="1408.953125" xlink:href="#DejaVuSans-49"/>
      <use x="1472.576172" xlink:href="#DejaVuSans-45"/>
      <use x="1508.660156" xlink:href="#DejaVuSans-49"/>
     </g>
    </g>
    <g id="line2d_22">
     <path d="M 246.840625 315.455394 
L 262.840625 315.455394 
" style="fill:none;stroke:#f7a35c;stroke-linecap:square;"/>
    </g>
    <g id="line2d_23"/>
    <g id="text_21">
     <!-- Sfu-ABai_008-Ex1-1D-lcwgs-1-1 -->
     <defs>
      <path d="M 19.671875 64.796875 
L 19.671875 8.109375 
L 31.59375 8.109375 
Q 46.6875 8.109375 53.6875 14.9375 
Q 60.6875 21.78125 60.6875 36.53125 
Q 60.6875 51.171875 53.6875 57.984375 
Q 46.6875 64.796875 31.59375 64.796875 
z
M 9.8125 72.90625 
L 30.078125 72.90625 
Q 51.265625 72.90625 61.171875 64.09375 
Q 71.09375 55.28125 71.09375 36.53125 
Q 71.09375 17.671875 61.125 8.828125 
Q 51.171875 0 30.078125 0 
L 9.8125 0 
z
" id="DejaVuSans-68"/>
     </defs>
     <g transform="translate(269.240625 318.255394)scale(0.08 -0.08)">
      <use xlink:href="#DejaVuSans-83"/>
      <use x="63.476562" xlink:href="#DejaVuSans-102"/>
      <use x="98.681641" xlink:href="#DejaVuSans-117"/>
      <use x="162.060547" xlink:href="#DejaVuSans-45"/>
      <use x="198.113281" xlink:href="#DejaVuSans-65"/>
      <use x="266.521484" xlink:href="#DejaVuSans-66"/>
      <use x="335.125" xlink:href="#DejaVuSans-97"/>
      <use x="396.404297" xlink:href="#DejaVuSans-105"/>
      <use x="424.1875" xlink:href="#DejaVuSans-95"/>
      <use x="474.1875" xlink:href="#DejaVuSans-48"/>
      <use x="537.810547" xlink:href="#DejaVuSans-48"/>
      <use x="601.433594" xlink:href="#DejaVuSans-56"/>
      <use x="665.056641" xlink:href="#DejaVuSans-45"/>
      <use x="701.140625" xlink:href="#DejaVuSans-69"/>
      <use x="764.324219" xlink:href="#DejaVuSans-120"/>
      <use x="823.503906" xlink:href="#DejaVuSans-49"/>
      <use x="887.126953" xlink:href="#DejaVuSans-45"/>
      <use x="923.210938" xlink:href="#DejaVuSans-49"/>
      <use x="986.833984" xlink:href="#DejaVuSans-68"/>
      <use x="1063.835938" xlink:href="#DejaVuSans-45"/>
      <use x="1099.919922" xlink:href="#DejaVuSans-108"/>
      <use x="1127.703125" xlink:href="#DejaVuSans-99"/>
      <use x="1182.683594" xlink:href="#DejaVuSans-119"/>
      <use x="1264.470703" xlink:href="#DejaVuSans-103"/>
      <use x="1327.947266" xlink:href="#DejaVuSans-115"/>
      <use x="1380.046875" xlink:href="#DejaVuSans-45"/>
      <use x="1416.130859" xlink:href="#DejaVuSans-49"/>
      <use x="1479.753906" xlink:href="#DejaVuSans-45"/>
      <use x="1515.837891" xlink:href="#DejaVuSans-49"/>
     </g>
    </g>
    <g id="line2d_24">
     <path d="M 444.004375 303.490394 
L 460.004375 303.490394 
" style="fill:none;stroke:#8085e9;stroke-linecap:square;"/>
    </g>
    <g id="line2d_25"/>
    <g id="text_22">
     <!-- Sfu-ABai_009-Ex1-1E-lcwgs-1-1 -->
     <defs>
      <path d="M 10.984375 1.515625 
L 10.984375 10.5 
Q 14.703125 8.734375 18.5 7.8125 
Q 22.3125 6.890625 25.984375 6.890625 
Q 35.75 6.890625 40.890625 13.453125 
Q 46.046875 20.015625 46.78125 33.40625 
Q 43.953125 29.203125 39.59375 26.953125 
Q 35.25 24.703125 29.984375 24.703125 
Q 19.046875 24.703125 12.671875 31.3125 
Q 6.296875 37.9375 6.296875 49.421875 
Q 6.296875 60.640625 12.9375 67.421875 
Q 19.578125 74.21875 30.609375 74.21875 
Q 43.265625 74.21875 49.921875 64.515625 
Q 56.59375 54.828125 56.59375 36.375 
Q 56.59375 19.140625 48.40625 8.859375 
Q 40.234375 -1.421875 26.421875 -1.421875 
Q 22.703125 -1.421875 18.890625 -0.6875 
Q 15.09375 0.046875 10.984375 1.515625 
z
M 30.609375 32.421875 
Q 37.25 32.421875 41.125 36.953125 
Q 45.015625 41.5 45.015625 49.421875 
Q 45.015625 57.28125 41.125 61.84375 
Q 37.25 66.40625 30.609375 66.40625 
Q 23.96875 66.40625 20.09375 61.84375 
Q 16.21875 57.28125 16.21875 49.421875 
Q 16.21875 41.5 20.09375 36.953125 
Q 23.96875 32.421875 30.609375 32.421875 
z
" id="DejaVuSans-57"/>
     </defs>
     <g transform="translate(466.404375 306.290394)scale(0.08 -0.08)">
      <use xlink:href="#DejaVuSans-83"/>
      <use x="63.476562" xlink:href="#DejaVuSans-102"/>
      <use x="98.681641" xlink:href="#DejaVuSans-117"/>
      <use x="162.060547" xlink:href="#DejaVuSans-45"/>
      <use x="198.113281" xlink:href="#DejaVuSans-65"/>
      <use x="266.521484" xlink:href="#DejaVuSans-66"/>
      <use x="335.125" xlink:href="#DejaVuSans-97"/>
      <use x="396.404297" xlink:href="#DejaVuSans-105"/>
      <use x="424.1875" xlink:href="#DejaVuSans-95"/>
      <use x="474.1875" xlink:href="#DejaVuSans-48"/>
      <use x="537.810547" xlink:href="#DejaVuSans-48"/>
      <use x="601.433594" xlink:href="#DejaVuSans-57"/>
      <use x="665.056641" xlink:href="#DejaVuSans-45"/>
      <use x="701.140625" xlink:href="#DejaVuSans-69"/>
      <use x="764.324219" xlink:href="#DejaVuSans-120"/>
      <use x="823.503906" xlink:href="#DejaVuSans-49"/>
      <use x="887.126953" xlink:href="#DejaVuSans-45"/>
      <use x="923.210938" xlink:href="#DejaVuSans-49"/>
      <use x="986.833984" xlink:href="#DejaVuSans-69"/>
      <use x="1050.017578" xlink:href="#DejaVuSans-45"/>
      <use x="1086.101562" xlink:href="#DejaVuSans-108"/>
      <use x="1113.884766" xlink:href="#DejaVuSans-99"/>
      <use x="1168.865234" xlink:href="#DejaVuSans-119"/>
      <use x="1250.652344" xlink:href="#DejaVuSans-103"/>
      <use x="1314.128906" xlink:href="#DejaVuSans-115"/>
      <use x="1366.228516" xlink:href="#DejaVuSans-45"/>
      <use x="1402.3125" xlink:href="#DejaVuSans-49"/>
      <use x="1465.935547" xlink:href="#DejaVuSans-45"/>
      <use x="1502.019531" xlink:href="#DejaVuSans-49"/>
     </g>
    </g>
    <g id="line2d_26">
     <path d="M 444.004375 315.455394 
L 460.004375 315.455394 
" style="fill:none;stroke:#f15c80;stroke-linecap:square;"/>
    </g>
    <g id="line2d_27"/>
    <g id="text_23">
     <!-- Sfu-ABai_010-Ex1-1F-lcwgs-1-1 -->
     <g transform="translate(466.404375 318.255394)scale(0.08 -0.08)">
      <use xlink:href="#DejaVuSans-83"/>
      <use x="63.476562" xlink:href="#DejaVuSans-102"/>
      <use x="98.681641" xlink:href="#DejaVuSans-117"/>
      <use x="162.060547" xlink:href="#DejaVuSans-45"/>
      <use x="198.113281" xlink:href="#DejaVuSans-65"/>
      <use x="266.521484" xlink:href="#DejaVuSans-66"/>
      <use x="335.125" xlink:href="#DejaVuSans-97"/>
      <use x="396.404297" xlink:href="#DejaVuSans-105"/>
      <use x="424.1875" xlink:href="#DejaVuSans-95"/>
      <use x="474.1875" xlink:href="#DejaVuSans-48"/>
      <use x="537.810547" xlink:href="#DejaVuSans-49"/>
      <use x="601.433594" xlink:href="#DejaVuSans-48"/>
      <use x="665.056641" xlink:href="#DejaVuSans-45"/>
      <use x="701.140625" xlink:href="#DejaVuSans-69"/>
      <use x="764.324219" xlink:href="#DejaVuSans-120"/>
      <use x="823.503906" xlink:href="#DejaVuSans-49"/>
      <use x="887.126953" xlink:href="#DejaVuSans-45"/>
      <use x="923.210938" xlink:href="#DejaVuSans-49"/>
      <use x="986.833984" xlink:href="#DejaVuSans-70"/>
      <use x="1044.353516" xlink:href="#DejaVuSans-45"/>
      <use x="1080.4375" xlink:href="#DejaVuSans-108"/>
      <use x="1108.220703" xlink:href="#DejaVuSans-99"/>
      <use x="1163.201172" xlink:href="#DejaVuSans-119"/>
      <use x="1244.988281" xlink:href="#DejaVuSans-103"/>
      <use x="1308.464844" xlink:href="#DejaVuSans-115"/>
      <use x="1360.564453" xlink:href="#DejaVuSans-45"/>
      <use x="1396.648438" xlink:href="#DejaVuSans-49"/>
      <use x="1460.271484" xlink:href="#DejaVuSans-45"/>
      <use x="1496.355469" xlink:href="#DejaVuSans-49"/>
     </g>
    </g>
    <g id="line2d_28">
     <path d="M 640.063125 303.490394 
L 656.063125 303.490394 
" style="fill:none;stroke:#e4d354;stroke-linecap:square;"/>
    </g>
    <g id="line2d_29"/>
    <g id="text_24">
     <!-- Sfu-ABai_011-Ex1-1G-lcwgs-1-1 -->
     <g transform="translate(662.463125 306.290394)scale(0.08 -0.08)">
      <use xlink:href="#DejaVuSans-83"/>
      <use x="63.476562" xlink:href="#DejaVuSans-102"/>
      <use x="98.681641" xlink:href="#DejaVuSans-117"/>
      <use x="162.060547" xlink:href="#DejaVuSans-45"/>
      <use x="198.113281" xlink:href="#DejaVuSans-65"/>
      <use x="266.521484" xlink:href="#DejaVuSans-66"/>
      <use x="335.125" xlink:href="#DejaVuSans-97"/>
      <use x="396.404297" xlink:href="#DejaVuSans-105"/>
      <use x="424.1875" xlink:href="#DejaVuSans-95"/>
      <use x="474.1875" xlink:href="#DejaVuSans-48"/>
      <use x="537.810547" xlink:href="#DejaVuSans-49"/>
      <use x="601.433594" xlink:href="#DejaVuSans-49"/>
      <use x="665.056641" xlink:href="#DejaVuSans-45"/>
      <use x="701.140625" xlink:href="#DejaVuSans-69"/>
      <use x="764.324219" xlink:href="#DejaVuSans-120"/>
      <use x="823.503906" xlink:href="#DejaVuSans-49"/>
      <use x="887.126953" xlink:href="#DejaVuSans-45"/>
      <use x="923.210938" xlink:href="#DejaVuSans-49"/>
      <use x="986.833984" xlink:href="#DejaVuSans-71"/>
      <use x="1064.324219" xlink:href="#DejaVuSans-45"/>
      <use x="1100.408203" xlink:href="#DejaVuSans-108"/>
      <use x="1128.191406" xlink:href="#DejaVuSans-99"/>
      <use x="1183.171875" xlink:href="#DejaVuSans-119"/>
      <use x="1264.958984" xlink:href="#DejaVuSans-103"/>
      <use x="1328.435547" xlink:href="#DejaVuSans-115"/>
      <use x="1380.535156" xlink:href="#DejaVuSans-45"/>
      <use x="1416.619141" xlink:href="#DejaVuSans-49"/>
      <use x="1480.242188" xlink:href="#DejaVuSans-45"/>
      <use x="1516.326172" xlink:href="#DejaVuSans-49"/>
     </g>
    </g>
    <g id="line2d_30">
     <path d="M 837.265625 303.490394 
L 853.265625 303.490394 
" style="fill:none;stroke:#2b908f;stroke-linecap:square;"/>
    </g>
    <g id="line2d_31"/>
    <g id="text_25">
     <!-- Sfu-ABai_012-Ex1-1H-lcwgs-1-1 -->
     <defs>
      <path d="M 9.8125 72.90625 
L 19.671875 72.90625 
L 19.671875 43.015625 
L 55.515625 43.015625 
L 55.515625 72.90625 
L 65.375 72.90625 
L 65.375 0 
L 55.515625 0 
L 55.515625 34.71875 
L 19.671875 34.71875 
L 19.671875 0 
L 9.8125 0 
z
" id="DejaVuSans-72"/>
     </defs>
     <g transform="translate(859.665625 306.290394)scale(0.08 -0.08)">
      <use xlink:href="#DejaVuSans-83"/>
      <use x="63.476562" xlink:href="#DejaVuSans-102"/>
      <use x="98.681641" xlink:href="#DejaVuSans-117"/>
      <use x="162.060547" xlink:href="#DejaVuSans-45"/>
      <use x="198.113281" xlink:href="#DejaVuSans-65"/>
      <use x="266.521484" xlink:href="#DejaVuSans-66"/>
      <use x="335.125" xlink:href="#DejaVuSans-97"/>
      <use x="396.404297" xlink:href="#DejaVuSans-105"/>
      <use x="424.1875" xlink:href="#DejaVuSans-95"/>
      <use x="474.1875" xlink:href="#DejaVuSans-48"/>
      <use x="537.810547" xlink:href="#DejaVuSans-49"/>
      <use x="601.433594" xlink:href="#DejaVuSans-50"/>
      <use x="665.056641" xlink:href="#DejaVuSans-45"/>
      <use x="701.140625" xlink:href="#DejaVuSans-69"/>
      <use x="764.324219" xlink:href="#DejaVuSans-120"/>
      <use x="823.503906" xlink:href="#DejaVuSans-49"/>
      <use x="887.126953" xlink:href="#DejaVuSans-45"/>
      <use x="923.210938" xlink:href="#DejaVuSans-49"/>
      <use x="986.833984" xlink:href="#DejaVuSans-72"/>
      <use x="1062.029297" xlink:href="#DejaVuSans-45"/>
      <use x="1098.113281" xlink:href="#DejaVuSans-108"/>
      <use x="1125.896484" xlink:href="#DejaVuSans-99"/>
      <use x="1180.876953" xlink:href="#DejaVuSans-119"/>
      <use x="1262.664062" xlink:href="#DejaVuSans-103"/>
      <use x="1326.140625" xlink:href="#DejaVuSans-115"/>
      <use x="1378.240234" xlink:href="#DejaVuSans-45"/>
      <use x="1414.324219" xlink:href="#DejaVuSans-49"/>
      <use x="1477.947266" xlink:href="#DejaVuSans-45"/>
      <use x="1514.03125" xlink:href="#DejaVuSans-49"/>
     </g>
    </g>
   </g>
  </g>
 </g>
 <defs>
  <clipPath id="p8cef8f303c">
   <rect height="242.5072" width="949.93" x="43.148125" y="31.48286"/>
  </clipPath>
 </defs>
</svg>
