<?xml version="1.0" encoding="utf-8" standalone="no"?>
<!DOCTYPE svg PUBLIC "-//W3C//DTD SVG 1.1//EN"
  "http://www.w3.org/Graphics/SVG/1.1/DTD/svg11.dtd">
<!-- Created with matplotlib (https://matplotlib.org/) -->
<svg height="330.541644pt" version="1.1" viewBox="0 0 1000.358125 330.541644" width="1000.358125pt" xmlns="http://www.w3.org/2000/svg" xmlns:xlink="http://www.w3.org/1999/xlink">
 <defs>
  <style type="text/css">
*{stroke-linecap:butt;stroke-linejoin:round;}
  </style>
 </defs>
 <g id="figure_1">
  <g id="axes_1">
   <g id="patch_1">
    <path d="M 32.968125 273.99006 
L 993.158125 273.99006 
L 993.158125 31.48286 
L 32.968125 31.48286 
z
" style="fill:#ffffff;"/>
   </g>
   <g id="matplotlib.axis_1">
    <g id="xtick_1">
     <g id="text_1">
      <!-- 0 -->
      <defs>
       <path d="M 31.78125 66.40625 
Q 24.171875 66.40625 20.328125 58.90625 
Q 16.5 51.421875 16.5 36.375 
Q 16.5 21.390625 20.328125 13.890625 
Q 24.171875 6.390625 31.78125 6.390625 
Q 39.453125 6.390625 43.28125 13.890625 
Q 47.125 21.390625 47.125 36.375 
Q 47.125 51.421875 43.28125 58.90625 
Q 39.453125 66.40625 31.78125 66.40625 
z
M 31.78125 74.21875 
Q 44.046875 74.21875 50.515625 64.515625 
Q 56.984375 54.828125 56.984375 36.375 
Q 56.984375 17.96875 50.515625 8.265625 
Q 44.046875 -1.421875 31.78125 -1.421875 
Q 19.53125 -1.421875 13.0625 8.265625 
Q 6.59375 17.96875 6.59375 36.375 
Q 6.59375 54.828125 13.0625 64.515625 
Q 19.53125 74.21875 31.78125 74.21875 
z
" id="DejaVuSans-48"/>
      </defs>
      <g transform="translate(68.209736 287.06881)scale(0.08 -0.08)">
       <use xlink:href="#DejaVuSans-48"/>
      </g>
     </g>
    </g>
    <g id="xtick_2">
     <g id="text_2">
      <!-- 20 -->
      <defs>
       <path d="M 19.1875 8.296875 
L 53.609375 8.296875 
L 53.609375 0 
L 7.328125 0 
L 7.328125 8.296875 
Q 12.9375 14.109375 22.625 23.890625 
Q 32.328125 33.6875 34.8125 36.53125 
Q 39.546875 41.84375 41.421875 45.53125 
Q 43.3125 49.21875 43.3125 52.78125 
Q 43.3125 58.59375 39.234375 62.25 
Q 35.15625 65.921875 28.609375 65.921875 
Q 23.96875 65.921875 18.8125 64.3125 
Q 13.671875 62.703125 7.8125 59.421875 
L 7.8125 69.390625 
Q 13.765625 71.78125 18.9375 73 
Q 24.125 74.21875 28.421875 74.21875 
Q 39.75 74.21875 46.484375 68.546875 
Q 53.21875 62.890625 53.21875 53.421875 
Q 53.21875 48.921875 51.53125 44.890625 
Q 49.859375 40.875 45.40625 35.40625 
Q 44.1875 33.984375 37.640625 27.21875 
Q 31.109375 20.453125 19.1875 8.296875 
z
" id="DejaVuSans-50"/>
      </defs>
      <g transform="translate(182.832521 287.06881)scale(0.08 -0.08)">
       <use xlink:href="#DejaVuSans-50"/>
       <use x="63.623047" xlink:href="#DejaVuSans-48"/>
      </g>
     </g>
    </g>
    <g id="xtick_3">
     <g id="text_3">
      <!-- 40 -->
      <defs>
       <path d="M 37.796875 64.3125 
L 12.890625 25.390625 
L 37.796875 25.390625 
z
M 35.203125 72.90625 
L 47.609375 72.90625 
L 47.609375 25.390625 
L 58.015625 25.390625 
L 58.015625 17.1875 
L 47.609375 17.1875 
L 47.609375 0 
L 37.796875 0 
L 37.796875 17.1875 
L 4.890625 17.1875 
L 4.890625 26.703125 
z
" id="DejaVuSans-52"/>
      </defs>
      <g transform="translate(300.000306 287.06881)scale(0.08 -0.08)">
       <use xlink:href="#DejaVuSans-52"/>
       <use x="63.623047" xlink:href="#DejaVuSans-48"/>
      </g>
     </g>
    </g>
    <g id="xtick_4">
     <g id="text_4">
      <!-- 60 -->
      <defs>
       <path d="M 33.015625 40.375 
Q 26.375 40.375 22.484375 35.828125 
Q 18.609375 31.296875 18.609375 23.390625 
Q 18.609375 15.53125 22.484375 10.953125 
Q 26.375 6.390625 33.015625 6.390625 
Q 39.65625 6.390625 43.53125 10.953125 
Q 47.40625 15.53125 47.40625 23.390625 
Q 47.40625 31.296875 43.53125 35.828125 
Q 39.65625 40.375 33.015625 40.375 
z
M 52.59375 71.296875 
L 52.59375 62.3125 
Q 48.875 64.0625 45.09375 64.984375 
Q 41.3125 65.921875 37.59375 65.921875 
Q 27.828125 65.921875 22.671875 59.328125 
Q 17.53125 52.734375 16.796875 39.40625 
Q 19.671875 43.65625 24.015625 45.921875 
Q 28.375 48.1875 33.59375 48.1875 
Q 44.578125 48.1875 50.953125 41.515625 
Q 57.328125 34.859375 57.328125 23.390625 
Q 57.328125 12.15625 50.6875 5.359375 
Q 44.046875 -1.421875 33.015625 -1.421875 
Q 20.359375 -1.421875 13.671875 8.265625 
Q 6.984375 17.96875 6.984375 36.375 
Q 6.984375 53.65625 15.1875 63.9375 
Q 23.390625 74.21875 37.203125 74.21875 
Q 40.921875 74.21875 44.703125 73.484375 
Q 48.484375 72.75 52.59375 71.296875 
z
" id="DejaVuSans-54"/>
      </defs>
      <g transform="translate(417.168091 287.06881)scale(0.08 -0.08)">
       <use xlink:href="#DejaVuSans-54"/>
       <use x="63.623047" xlink:href="#DejaVuSans-48"/>
      </g>
     </g>
    </g>
    <g id="xtick_5">
     <g id="text_5">
      <!-- 80 -->
      <defs>
       <path d="M 31.78125 34.625 
Q 24.75 34.625 20.71875 30.859375 
Q 16.703125 27.09375 16.703125 20.515625 
Q 16.703125 13.921875 20.71875 10.15625 
Q 24.75 6.390625 31.78125 6.390625 
Q 38.8125 6.390625 42.859375 10.171875 
Q 46.921875 13.96875 46.921875 20.515625 
Q 46.921875 27.09375 42.890625 30.859375 
Q 38.875 34.625 31.78125 34.625 
z
M 21.921875 38.8125 
Q 15.578125 40.375 12.03125 44.71875 
Q 8.5 49.078125 8.5 55.328125 
Q 8.5 64.0625 14.71875 69.140625 
Q 20.953125 74.21875 31.78125 74.21875 
Q 42.671875 74.21875 48.875 69.140625 
Q 55.078125 64.0625 55.078125 55.328125 
Q 55.078125 49.078125 51.53125 44.71875 
Q 48 40.375 41.703125 38.8125 
Q 48.828125 37.15625 52.796875 32.3125 
Q 56.78125 27.484375 56.78125 20.515625 
Q 56.78125 9.90625 50.3125 4.234375 
Q 43.84375 -1.421875 31.78125 -1.421875 
Q 19.734375 -1.421875 13.25 4.234375 
Q 6.78125 9.90625 6.78125 20.515625 
Q 6.78125 27.484375 10.78125 32.3125 
Q 14.796875 37.15625 21.921875 38.8125 
z
M 18.3125 54.390625 
Q 18.3125 48.734375 21.84375 45.5625 
Q 25.390625 42.390625 31.78125 42.390625 
Q 38.140625 42.390625 41.71875 45.5625 
Q 45.3125 48.734375 45.3125 54.390625 
Q 45.3125 60.0625 41.71875 63.234375 
Q 38.140625 66.40625 31.78125 66.40625 
Q 25.390625 66.40625 21.84375 63.234375 
Q 18.3125 60.0625 18.3125 54.390625 
z
" id="DejaVuSans-56"/>
      </defs>
      <g transform="translate(534.335877 287.06881)scale(0.08 -0.08)">
       <use xlink:href="#DejaVuSans-56"/>
       <use x="63.623047" xlink:href="#DejaVuSans-48"/>
      </g>
     </g>
    </g>
    <g id="xtick_6">
     <g id="text_6">
      <!-- 100 -->
      <defs>
       <path d="M 12.40625 8.296875 
L 28.515625 8.296875 
L 28.515625 63.921875 
L 10.984375 60.40625 
L 10.984375 69.390625 
L 28.421875 72.90625 
L 38.28125 72.90625 
L 38.28125 8.296875 
L 54.390625 8.296875 
L 54.390625 0 
L 12.40625 0 
z
" id="DejaVuSans-49"/>
      </defs>
      <g transform="translate(648.958662 287.06881)scale(0.08 -0.08)">
       <use xlink:href="#DejaVuSans-49"/>
       <use x="63.623047" xlink:href="#DejaVuSans-48"/>
       <use x="127.246094" xlink:href="#DejaVuSans-48"/>
      </g>
     </g>
    </g>
    <g id="xtick_7">
     <g id="text_7">
      <!-- 120 -->
      <g transform="translate(766.126447 287.06881)scale(0.08 -0.08)">
       <use xlink:href="#DejaVuSans-49"/>
       <use x="63.623047" xlink:href="#DejaVuSans-50"/>
       <use x="127.246094" xlink:href="#DejaVuSans-48"/>
      </g>
     </g>
    </g>
    <g id="xtick_8">
     <g id="text_8">
      <!-- 140 -->
      <g transform="translate(883.294232 287.06881)scale(0.08 -0.08)">
       <use xlink:href="#DejaVuSans-49"/>
       <use x="63.623047" xlink:href="#DejaVuSans-52"/>
       <use x="127.246094" xlink:href="#DejaVuSans-48"/>
      </g>
     </g>
    </g>
    <g id="text_9">
     <!-- Read Position -->
     <defs>
      <path d="M 44.390625 34.1875 
Q 47.5625 33.109375 50.5625 29.59375 
Q 53.5625 26.078125 56.59375 19.921875 
L 66.609375 0 
L 56 0 
L 46.6875 18.703125 
Q 43.0625 26.03125 39.671875 28.421875 
Q 36.28125 30.8125 30.421875 30.8125 
L 19.671875 30.8125 
L 19.671875 0 
L 9.8125 0 
L 9.8125 72.90625 
L 32.078125 72.90625 
Q 44.578125 72.90625 50.734375 67.671875 
Q 56.890625 62.453125 56.890625 51.90625 
Q 56.890625 45.015625 53.6875 40.46875 
Q 50.484375 35.9375 44.390625 34.1875 
z
M 19.671875 64.796875 
L 19.671875 38.921875 
L 32.078125 38.921875 
Q 39.203125 38.921875 42.84375 42.21875 
Q 46.484375 45.515625 46.484375 51.90625 
Q 46.484375 58.296875 42.84375 61.546875 
Q 39.203125 64.796875 32.078125 64.796875 
z
" id="DejaVuSans-82"/>
      <path d="M 56.203125 29.59375 
L 56.203125 25.203125 
L 14.890625 25.203125 
Q 15.484375 15.921875 20.484375 11.0625 
Q 25.484375 6.203125 34.421875 6.203125 
Q 39.59375 6.203125 44.453125 7.46875 
Q 49.3125 8.734375 54.109375 11.28125 
L 54.109375 2.78125 
Q 49.265625 0.734375 44.1875 -0.34375 
Q 39.109375 -1.421875 33.890625 -1.421875 
Q 20.796875 -1.421875 13.15625 6.1875 
Q 5.515625 13.8125 5.515625 26.8125 
Q 5.515625 40.234375 12.765625 48.109375 
Q 20.015625 56 32.328125 56 
Q 43.359375 56 49.78125 48.890625 
Q 56.203125 41.796875 56.203125 29.59375 
z
M 47.21875 32.234375 
Q 47.125 39.59375 43.09375 43.984375 
Q 39.0625 48.390625 32.421875 48.390625 
Q 24.90625 48.390625 20.390625 44.140625 
Q 15.875 39.890625 15.1875 32.171875 
z
" id="DejaVuSans-101"/>
      <path d="M 34.28125 27.484375 
Q 23.390625 27.484375 19.1875 25 
Q 14.984375 22.515625 14.984375 16.5 
Q 14.984375 11.71875 18.140625 8.90625 
Q 21.296875 6.109375 26.703125 6.109375 
Q 34.1875 6.109375 38.703125 11.40625 
Q 43.21875 16.703125 43.21875 25.484375 
L 43.21875 27.484375 
z
M 52.203125 31.203125 
L 52.203125 0 
L 43.21875 0 
L 43.21875 8.296875 
Q 40.140625 3.328125 35.546875 0.953125 
Q 30.953125 -1.421875 24.3125 -1.421875 
Q 15.921875 -1.421875 10.953125 3.296875 
Q 6 8.015625 6 15.921875 
Q 6 25.140625 12.171875 29.828125 
Q 18.359375 34.515625 30.609375 34.515625 
L 43.21875 34.515625 
L 43.21875 35.40625 
Q 43.21875 41.609375 39.140625 45 
Q 35.0625 48.390625 27.6875 48.390625 
Q 23 48.390625 18.546875 47.265625 
Q 14.109375 46.140625 10.015625 43.890625 
L 10.015625 52.203125 
Q 14.9375 54.109375 19.578125 55.046875 
Q 24.21875 56 28.609375 56 
Q 40.484375 56 46.34375 49.84375 
Q 52.203125 43.703125 52.203125 31.203125 
z
" id="DejaVuSans-97"/>
      <path d="M 45.40625 46.390625 
L 45.40625 75.984375 
L 54.390625 75.984375 
L 54.390625 0 
L 45.40625 0 
L 45.40625 8.203125 
Q 42.578125 3.328125 38.25 0.953125 
Q 33.9375 -1.421875 27.875 -1.421875 
Q 17.96875 -1.421875 11.734375 6.484375 
Q 5.515625 14.40625 5.515625 27.296875 
Q 5.515625 40.1875 11.734375 48.09375 
Q 17.96875 56 27.875 56 
Q 33.9375 56 38.25 53.625 
Q 42.578125 51.265625 45.40625 46.390625 
z
M 14.796875 27.296875 
Q 14.796875 17.390625 18.875 11.75 
Q 22.953125 6.109375 30.078125 6.109375 
Q 37.203125 6.109375 41.296875 11.75 
Q 45.40625 17.390625 45.40625 27.296875 
Q 45.40625 37.203125 41.296875 42.84375 
Q 37.203125 48.484375 30.078125 48.484375 
Q 22.953125 48.484375 18.875 42.84375 
Q 14.796875 37.203125 14.796875 27.296875 
z
" id="DejaVuSans-100"/>
      <path id="DejaVuSans-32"/>
      <path d="M 19.671875 64.796875 
L 19.671875 37.40625 
L 32.078125 37.40625 
Q 38.96875 37.40625 42.71875 40.96875 
Q 46.484375 44.53125 46.484375 51.125 
Q 46.484375 57.671875 42.71875 61.234375 
Q 38.96875 64.796875 32.078125 64.796875 
z
M 9.8125 72.90625 
L 32.078125 72.90625 
Q 44.34375 72.90625 50.609375 67.359375 
Q 56.890625 61.8125 56.890625 51.125 
Q 56.890625 40.328125 50.609375 34.8125 
Q 44.34375 29.296875 32.078125 29.296875 
L 19.671875 29.296875 
L 19.671875 0 
L 9.8125 0 
z
" id="DejaVuSans-80"/>
      <path d="M 30.609375 48.390625 
Q 23.390625 48.390625 19.1875 42.75 
Q 14.984375 37.109375 14.984375 27.296875 
Q 14.984375 17.484375 19.15625 11.84375 
Q 23.34375 6.203125 30.609375 6.203125 
Q 37.796875 6.203125 41.984375 11.859375 
Q 46.1875 17.53125 46.1875 27.296875 
Q 46.1875 37.015625 41.984375 42.703125 
Q 37.796875 48.390625 30.609375 48.390625 
z
M 30.609375 56 
Q 42.328125 56 49.015625 48.375 
Q 55.71875 40.765625 55.71875 27.296875 
Q 55.71875 13.875 49.015625 6.21875 
Q 42.328125 -1.421875 30.609375 -1.421875 
Q 18.84375 -1.421875 12.171875 6.21875 
Q 5.515625 13.875 5.515625 27.296875 
Q 5.515625 40.765625 12.171875 48.375 
Q 18.84375 56 30.609375 56 
z
" id="DejaVuSans-111"/>
      <path d="M 44.28125 53.078125 
L 44.28125 44.578125 
Q 40.484375 46.53125 36.375 47.5 
Q 32.28125 48.484375 27.875 48.484375 
Q 21.1875 48.484375 17.84375 46.4375 
Q 14.5 44.390625 14.5 40.28125 
Q 14.5 37.15625 16.890625 35.375 
Q 19.28125 33.59375 26.515625 31.984375 
L 29.59375 31.296875 
Q 39.15625 29.25 43.1875 25.515625 
Q 47.21875 21.78125 47.21875 15.09375 
Q 47.21875 7.46875 41.1875 3.015625 
Q 35.15625 -1.421875 24.609375 -1.421875 
Q 20.21875 -1.421875 15.453125 -0.5625 
Q 10.6875 0.296875 5.421875 2 
L 5.421875 11.28125 
Q 10.40625 8.6875 15.234375 7.390625 
Q 20.0625 6.109375 24.8125 6.109375 
Q 31.15625 6.109375 34.5625 8.28125 
Q 37.984375 10.453125 37.984375 14.40625 
Q 37.984375 18.0625 35.515625 20.015625 
Q 33.0625 21.96875 24.703125 23.78125 
L 21.578125 24.515625 
Q 13.234375 26.265625 9.515625 29.90625 
Q 5.8125 33.546875 5.8125 39.890625 
Q 5.8125 47.609375 11.28125 51.796875 
Q 16.75 56 26.8125 56 
Q 31.78125 56 36.171875 55.265625 
Q 40.578125 54.546875 44.28125 53.078125 
z
" id="DejaVuSans-115"/>
      <path d="M 9.421875 54.6875 
L 18.40625 54.6875 
L 18.40625 0 
L 9.421875 0 
z
M 9.421875 75.984375 
L 18.40625 75.984375 
L 18.40625 64.59375 
L 9.421875 64.59375 
z
" id="DejaVuSans-105"/>
      <path d="M 18.3125 70.21875 
L 18.3125 54.6875 
L 36.8125 54.6875 
L 36.8125 47.703125 
L 18.3125 47.703125 
L 18.3125 18.015625 
Q 18.3125 11.328125 20.140625 9.421875 
Q 21.96875 7.515625 27.59375 7.515625 
L 36.8125 7.515625 
L 36.8125 0 
L 27.59375 0 
Q 17.1875 0 13.234375 3.875 
Q 9.28125 7.765625 9.28125 18.015625 
L 9.28125 47.703125 
L 2.6875 47.703125 
L 2.6875 54.6875 
L 9.28125 54.6875 
L 9.28125 70.21875 
z
" id="DejaVuSans-116"/>
      <path d="M 54.890625 33.015625 
L 54.890625 0 
L 45.90625 0 
L 45.90625 32.71875 
Q 45.90625 40.484375 42.875 44.328125 
Q 39.84375 48.1875 33.796875 48.1875 
Q 26.515625 48.1875 22.3125 43.546875 
Q 18.109375 38.921875 18.109375 30.90625 
L 18.109375 0 
L 9.078125 0 
L 9.078125 54.6875 
L 18.109375 54.6875 
L 18.109375 46.1875 
Q 21.34375 51.125 25.703125 53.5625 
Q 30.078125 56 35.796875 56 
Q 45.21875 56 50.046875 50.171875 
Q 54.890625 44.34375 54.890625 33.015625 
z
" id="DejaVuSans-110"/>
     </defs>
     <g transform="translate(479.045156 300.330997)scale(0.1 -0.1)">
      <use xlink:href="#DejaVuSans-82"/>
      <use x="69.419922" xlink:href="#DejaVuSans-101"/>
      <use x="130.943359" xlink:href="#DejaVuSans-97"/>
      <use x="192.222656" xlink:href="#DejaVuSans-100"/>
      <use x="255.699219" xlink:href="#DejaVuSans-32"/>
      <use x="287.486328" xlink:href="#DejaVuSans-80"/>
      <use x="347.742188" xlink:href="#DejaVuSans-111"/>
      <use x="408.923828" xlink:href="#DejaVuSans-115"/>
      <use x="461.023438" xlink:href="#DejaVuSans-105"/>
      <use x="488.806641" xlink:href="#DejaVuSans-116"/>
      <use x="528.015625" xlink:href="#DejaVuSans-105"/>
      <use x="555.798828" xlink:href="#DejaVuSans-111"/>
      <use x="616.980469" xlink:href="#DejaVuSans-110"/>
     </g>
    </g>
   </g>
   <g id="matplotlib.axis_2">
    <g id="ytick_1">
     <g id="line2d_1">
      <path clip-path="url(#p036bd44bd6)" d="M 32.968125 273.99006 
L 993.158125 273.99006 
" style="fill:none;stroke:#dedede;stroke-linecap:square;"/>
     </g>
     <g id="text_10">
      <!-- 0 -->
      <g transform="translate(20.878125 277.029435)scale(0.08 -0.08)">
       <use xlink:href="#DejaVuSans-48"/>
      </g>
     </g>
    </g>
    <g id="ytick_2">
     <g id="line2d_2">
      <path clip-path="url(#p036bd44bd6)" d="M 32.968125 225.48862 
L 993.158125 225.48862 
" style="fill:none;stroke:#dedede;stroke-linecap:square;"/>
     </g>
     <g id="text_11">
      <!-- 1 -->
      <g transform="translate(20.878125 228.527995)scale(0.08 -0.08)">
       <use xlink:href="#DejaVuSans-49"/>
      </g>
     </g>
    </g>
    <g id="ytick_3">
     <g id="line2d_3">
      <path clip-path="url(#p036bd44bd6)" d="M 32.968125 176.98718 
L 993.158125 176.98718 
" style="fill:none;stroke:#dedede;stroke-linecap:square;"/>
     </g>
     <g id="text_12">
      <!-- 2 -->
      <g transform="translate(20.878125 180.026555)scale(0.08 -0.08)">
       <use xlink:href="#DejaVuSans-50"/>
      </g>
     </g>
    </g>
    <g id="ytick_4">
     <g id="line2d_4">
      <path clip-path="url(#p036bd44bd6)" d="M 32.968125 128.48574 
L 993.158125 128.48574 
" style="fill:none;stroke:#dedede;stroke-linecap:square;"/>
     </g>
     <g id="text_13">
      <!-- 3 -->
      <defs>
       <path d="M 40.578125 39.3125 
Q 47.65625 37.796875 51.625 33 
Q 55.609375 28.21875 55.609375 21.1875 
Q 55.609375 10.40625 48.1875 4.484375 
Q 40.765625 -1.421875 27.09375 -1.421875 
Q 22.515625 -1.421875 17.65625 -0.515625 
Q 12.796875 0.390625 7.625 2.203125 
L 7.625 11.71875 
Q 11.71875 9.328125 16.59375 8.109375 
Q 21.484375 6.890625 26.8125 6.890625 
Q 36.078125 6.890625 40.9375 10.546875 
Q 45.796875 14.203125 45.796875 21.1875 
Q 45.796875 27.640625 41.28125 31.265625 
Q 36.765625 34.90625 28.71875 34.90625 
L 20.21875 34.90625 
L 20.21875 43.015625 
L 29.109375 43.015625 
Q 36.375 43.015625 40.234375 45.921875 
Q 44.09375 48.828125 44.09375 54.296875 
Q 44.09375 59.90625 40.109375 62.90625 
Q 36.140625 65.921875 28.71875 65.921875 
Q 24.65625 65.921875 20.015625 65.03125 
Q 15.375 64.15625 9.8125 62.3125 
L 9.8125 71.09375 
Q 15.4375 72.65625 20.34375 73.4375 
Q 25.25 74.21875 29.59375 74.21875 
Q 40.828125 74.21875 47.359375 69.109375 
Q 53.90625 64.015625 53.90625 55.328125 
Q 53.90625 49.265625 50.4375 45.09375 
Q 46.96875 40.921875 40.578125 39.3125 
z
" id="DejaVuSans-51"/>
      </defs>
      <g transform="translate(20.878125 131.525115)scale(0.08 -0.08)">
       <use xlink:href="#DejaVuSans-51"/>
      </g>
     </g>
    </g>
    <g id="ytick_5">
     <g id="line2d_5">
      <path clip-path="url(#p036bd44bd6)" d="M 32.968125 79.9843 
L 993.158125 79.9843 
" style="fill:none;stroke:#dedede;stroke-linecap:square;"/>
     </g>
     <g id="text_14">
      <!-- 4 -->
      <g transform="translate(20.878125 83.023675)scale(0.08 -0.08)">
       <use xlink:href="#DejaVuSans-52"/>
      </g>
     </g>
    </g>
    <g id="ytick_6">
     <g id="line2d_6">
      <path clip-path="url(#p036bd44bd6)" d="M 32.968125 31.48286 
L 993.158125 31.48286 
" style="fill:none;stroke:#dedede;stroke-linecap:square;"/>
     </g>
     <g id="text_15">
      <!-- 5 -->
      <defs>
       <path d="M 10.796875 72.90625 
L 49.515625 72.90625 
L 49.515625 64.59375 
L 19.828125 64.59375 
L 19.828125 46.734375 
Q 21.96875 47.46875 24.109375 47.828125 
Q 26.265625 48.1875 28.421875 48.1875 
Q 40.625 48.1875 47.75 41.5 
Q 54.890625 34.8125 54.890625 23.390625 
Q 54.890625 11.625 47.5625 5.09375 
Q 40.234375 -1.421875 26.90625 -1.421875 
Q 22.3125 -1.421875 17.546875 -0.640625 
Q 12.796875 0.140625 7.71875 1.703125 
L 7.71875 11.625 
Q 12.109375 9.234375 16.796875 8.0625 
Q 21.484375 6.890625 26.703125 6.890625 
Q 35.15625 6.890625 40.078125 11.328125 
Q 45.015625 15.765625 45.015625 23.390625 
Q 45.015625 31 40.078125 35.4375 
Q 35.15625 39.890625 26.703125 39.890625 
Q 22.75 39.890625 18.8125 39.015625 
Q 14.890625 38.140625 10.796875 36.28125 
z
" id="DejaVuSans-53"/>
      </defs>
      <g transform="translate(20.878125 34.522235)scale(0.08 -0.08)">
       <use xlink:href="#DejaVuSans-53"/>
      </g>
     </g>
    </g>
    <g id="text_16">
     <!-- R2 Before filtering: Base Content Percent -->
     <defs>
      <path d="M 19.671875 34.8125 
L 19.671875 8.109375 
L 35.5 8.109375 
Q 43.453125 8.109375 47.28125 11.40625 
Q 51.125 14.703125 51.125 21.484375 
Q 51.125 28.328125 47.28125 31.5625 
Q 43.453125 34.8125 35.5 34.8125 
z
M 19.671875 64.796875 
L 19.671875 42.828125 
L 34.28125 42.828125 
Q 41.5 42.828125 45.03125 45.53125 
Q 48.578125 48.25 48.578125 53.8125 
Q 48.578125 59.328125 45.03125 62.0625 
Q 41.5 64.796875 34.28125 64.796875 
z
M 9.8125 72.90625 
L 35.015625 72.90625 
Q 46.296875 72.90625 52.390625 68.21875 
Q 58.5 63.53125 58.5 54.890625 
Q 58.5 48.1875 55.375 44.234375 
Q 52.25 40.28125 46.1875 39.3125 
Q 53.46875 37.75 57.5 32.78125 
Q 61.53125 27.828125 61.53125 20.40625 
Q 61.53125 10.640625 54.890625 5.3125 
Q 48.25 0 35.984375 0 
L 9.8125 0 
z
" id="DejaVuSans-66"/>
      <path d="M 37.109375 75.984375 
L 37.109375 68.5 
L 28.515625 68.5 
Q 23.6875 68.5 21.796875 66.546875 
Q 19.921875 64.59375 19.921875 59.515625 
L 19.921875 54.6875 
L 34.71875 54.6875 
L 34.71875 47.703125 
L 19.921875 47.703125 
L 19.921875 0 
L 10.890625 0 
L 10.890625 47.703125 
L 2.296875 47.703125 
L 2.296875 54.6875 
L 10.890625 54.6875 
L 10.890625 58.5 
Q 10.890625 67.625 15.140625 71.796875 
Q 19.390625 75.984375 28.609375 75.984375 
z
" id="DejaVuSans-102"/>
      <path d="M 41.109375 46.296875 
Q 39.59375 47.171875 37.8125 47.578125 
Q 36.03125 48 33.890625 48 
Q 26.265625 48 22.1875 43.046875 
Q 18.109375 38.09375 18.109375 28.8125 
L 18.109375 0 
L 9.078125 0 
L 9.078125 54.6875 
L 18.109375 54.6875 
L 18.109375 46.1875 
Q 20.953125 51.171875 25.484375 53.578125 
Q 30.03125 56 36.53125 56 
Q 37.453125 56 38.578125 55.875 
Q 39.703125 55.765625 41.0625 55.515625 
z
" id="DejaVuSans-114"/>
      <path d="M 9.421875 75.984375 
L 18.40625 75.984375 
L 18.40625 0 
L 9.421875 0 
z
" id="DejaVuSans-108"/>
      <path d="M 45.40625 27.984375 
Q 45.40625 37.75 41.375 43.109375 
Q 37.359375 48.484375 30.078125 48.484375 
Q 22.859375 48.484375 18.828125 43.109375 
Q 14.796875 37.75 14.796875 27.984375 
Q 14.796875 18.265625 18.828125 12.890625 
Q 22.859375 7.515625 30.078125 7.515625 
Q 37.359375 7.515625 41.375 12.890625 
Q 45.40625 18.265625 45.40625 27.984375 
z
M 54.390625 6.78125 
Q 54.390625 -7.171875 48.1875 -13.984375 
Q 42 -20.796875 29.203125 -20.796875 
Q 24.46875 -20.796875 20.265625 -20.09375 
Q 16.0625 -19.390625 12.109375 -17.921875 
L 12.109375 -9.1875 
Q 16.0625 -11.328125 19.921875 -12.34375 
Q 23.78125 -13.375 27.78125 -13.375 
Q 36.625 -13.375 41.015625 -8.765625 
Q 45.40625 -4.15625 45.40625 5.171875 
L 45.40625 9.625 
Q 42.625 4.78125 38.28125 2.390625 
Q 33.9375 0 27.875 0 
Q 17.828125 0 11.671875 7.65625 
Q 5.515625 15.328125 5.515625 27.984375 
Q 5.515625 40.671875 11.671875 48.328125 
Q 17.828125 56 27.875 56 
Q 33.9375 56 38.28125 53.609375 
Q 42.625 51.21875 45.40625 46.390625 
L 45.40625 54.6875 
L 54.390625 54.6875 
z
" id="DejaVuSans-103"/>
      <path d="M 11.71875 12.40625 
L 22.015625 12.40625 
L 22.015625 0 
L 11.71875 0 
z
M 11.71875 51.703125 
L 22.015625 51.703125 
L 22.015625 39.3125 
L 11.71875 39.3125 
z
" id="DejaVuSans-58"/>
      <path d="M 64.40625 67.28125 
L 64.40625 56.890625 
Q 59.421875 61.53125 53.78125 63.8125 
Q 48.140625 66.109375 41.796875 66.109375 
Q 29.296875 66.109375 22.65625 58.46875 
Q 16.015625 50.828125 16.015625 36.375 
Q 16.015625 21.96875 22.65625 14.328125 
Q 29.296875 6.6875 41.796875 6.6875 
Q 48.140625 6.6875 53.78125 8.984375 
Q 59.421875 11.28125 64.40625 15.921875 
L 64.40625 5.609375 
Q 59.234375 2.09375 53.4375 0.328125 
Q 47.65625 -1.421875 41.21875 -1.421875 
Q 24.65625 -1.421875 15.125 8.703125 
Q 5.609375 18.84375 5.609375 36.375 
Q 5.609375 53.953125 15.125 64.078125 
Q 24.65625 74.21875 41.21875 74.21875 
Q 47.75 74.21875 53.53125 72.484375 
Q 59.328125 70.75 64.40625 67.28125 
z
" id="DejaVuSans-67"/>
      <path d="M 48.78125 52.59375 
L 48.78125 44.1875 
Q 44.96875 46.296875 41.140625 47.34375 
Q 37.3125 48.390625 33.40625 48.390625 
Q 24.65625 48.390625 19.8125 42.84375 
Q 14.984375 37.3125 14.984375 27.296875 
Q 14.984375 17.28125 19.8125 11.734375 
Q 24.65625 6.203125 33.40625 6.203125 
Q 37.3125 6.203125 41.140625 7.25 
Q 44.96875 8.296875 48.78125 10.40625 
L 48.78125 2.09375 
Q 45.015625 0.34375 40.984375 -0.53125 
Q 36.96875 -1.421875 32.421875 -1.421875 
Q 20.0625 -1.421875 12.78125 6.34375 
Q 5.515625 14.109375 5.515625 27.296875 
Q 5.515625 40.671875 12.859375 48.328125 
Q 20.21875 56 33.015625 56 
Q 37.15625 56 41.109375 55.140625 
Q 45.0625 54.296875 48.78125 52.59375 
z
" id="DejaVuSans-99"/>
     </defs>
     <g transform="translate(14.798438 255.999741)rotate(-90)scale(0.1 -0.1)">
      <use xlink:href="#DejaVuSans-82"/>
      <use x="69.482422" xlink:href="#DejaVuSans-50"/>
      <use x="133.105469" xlink:href="#DejaVuSans-32"/>
      <use x="164.892578" xlink:href="#DejaVuSans-66"/>
      <use x="233.496094" xlink:href="#DejaVuSans-101"/>
      <use x="295.019531" xlink:href="#DejaVuSans-102"/>
      <use x="330.224609" xlink:href="#DejaVuSans-111"/>
      <use x="391.40625" xlink:href="#DejaVuSans-114"/>
      <use x="432.488281" xlink:href="#DejaVuSans-101"/>
      <use x="494.011719" xlink:href="#DejaVuSans-32"/>
      <use x="525.798828" xlink:href="#DejaVuSans-102"/>
      <use x="561.003906" xlink:href="#DejaVuSans-105"/>
      <use x="588.787109" xlink:href="#DejaVuSans-108"/>
      <use x="616.570312" xlink:href="#DejaVuSans-116"/>
      <use x="655.779297" xlink:href="#DejaVuSans-101"/>
      <use x="717.302734" xlink:href="#DejaVuSans-114"/>
      <use x="758.416016" xlink:href="#DejaVuSans-105"/>
      <use x="786.199219" xlink:href="#DejaVuSans-110"/>
      <use x="849.578125" xlink:href="#DejaVuSans-103"/>
      <use x="913.054688" xlink:href="#DejaVuSans-58"/>
      <use x="946.746094" xlink:href="#DejaVuSans-32"/>
      <use x="978.533203" xlink:href="#DejaVuSans-66"/>
      <use x="1047.136719" xlink:href="#DejaVuSans-97"/>
      <use x="1108.416016" xlink:href="#DejaVuSans-115"/>
      <use x="1160.515625" xlink:href="#DejaVuSans-101"/>
      <use x="1222.039062" xlink:href="#DejaVuSans-32"/>
      <use x="1253.826172" xlink:href="#DejaVuSans-67"/>
      <use x="1323.650391" xlink:href="#DejaVuSans-111"/>
      <use x="1384.832031" xlink:href="#DejaVuSans-110"/>
      <use x="1448.210938" xlink:href="#DejaVuSans-116"/>
      <use x="1487.419922" xlink:href="#DejaVuSans-101"/>
      <use x="1548.943359" xlink:href="#DejaVuSans-110"/>
      <use x="1612.322266" xlink:href="#DejaVuSans-116"/>
      <use x="1651.53125" xlink:href="#DejaVuSans-32"/>
      <use x="1683.318359" xlink:href="#DejaVuSans-80"/>
      <use x="1743.574219" xlink:href="#DejaVuSans-101"/>
      <use x="1805.097656" xlink:href="#DejaVuSans-114"/>
      <use x="1846.179688" xlink:href="#DejaVuSans-99"/>
      <use x="1901.160156" xlink:href="#DejaVuSans-101"/>
      <use x="1962.683594" xlink:href="#DejaVuSans-110"/>
      <use x="2026.0625" xlink:href="#DejaVuSans-116"/>
     </g>
    </g>
   </g>
   <g id="line2d_7">
    <path clip-path="url(#p036bd44bd6)" d="M 76.613125 268.662274 
L 82.471514 273.99006 
L 146.913796 273.98558 
L 152.772185 272.8639 
L 158.630575 271.584985 
L 164.488964 273.912788 
L 170.347353 273.966094 
L 176.205742 273.461026 
L 182.064132 273.939217 
L 199.639299 273.988044 
L 205.497689 273.943921 
L 211.356078 273.616689 
L 223.072857 273.99006 
L 228.931246 273.914131 
L 234.789635 273.987596 
L 240.648024 273.678059 
L 246.506414 273.984685 
L 258.223192 273.99006 
L 264.081581 272.970288 
L 269.939971 273.989612 
L 299.231917 273.99006 
L 305.090306 273.159327 
L 310.948695 273.989836 
L 340.240642 273.957135 
L 346.099031 273.616017 
L 351.95742 273.99006 
L 357.81581 273.983341 
L 363.674199 273.511419 
L 375.390977 273.98782 
L 387.107756 273.989388 
L 392.966145 273.689257 
L 398.824534 273.906292 
L 410.541313 273.99006 
L 445.691648 273.99006 
L 457.408427 273.99006 
L 463.266816 272.633426 
L 469.125206 273.99006 
L 480.841984 273.988716 
L 486.700373 273.20972 
L 492.558763 273.989836 
L 498.417152 273.632591 
L 504.275541 273.979533 
L 533.567487 273.988716 
L 539.425877 273.848058 
L 545.284266 273.989612 
L 580.434602 273.99006 
L 586.292991 271.981203 
L 592.15138 273.78288 
L 598.009769 273.99006 
L 603.868159 273.985804 
L 609.726548 271.201533 
L 615.584937 273.986476 
L 621.443326 273.487231 
L 627.301716 273.989612 
L 633.160105 273.859257 
L 639.018494 273.569205 
L 644.876883 273.879863 
L 650.735273 273.989164 
L 656.593662 273.921971 
L 668.31044 273.98782 
L 715.177555 273.99006 
L 721.035944 273.28789 
L 726.894333 273.989836 
L 732.752722 273.734949 
L 738.611112 273.988044 
L 750.32789 273.981325 
L 756.186279 273.819165 
L 762.044669 273.99006 
L 767.903058 273.99006 
L 773.761447 271.978288 
L 779.619836 273.99006 
L 785.478226 273.988044 
L 791.336615 273.459008 
L 797.195004 273.819165 
L 803.053393 273.99006 
L 808.911783 273.546584 
L 814.770172 273.971694 
L 855.778897 273.929586 
L 861.637286 273.99006 
L 867.495675 273.690601 
L 873.354065 273.96811 
L 879.212454 273.555543 
L 885.070843 266.704271 
L 890.929232 273.91346 
L 896.787622 273.865976 
L 902.646011 273.981325 
L 937.796346 273.943025 
L 943.654736 273.630351 
L 949.513125 273.948176 
L 949.513125 273.948176 
" style="fill:none;stroke:#7cb5ec;stroke-linecap:square;"/>
   </g>
   <g id="line2d_8">
    <path clip-path="url(#p036bd44bd6)" d="M 76.613125 268.716692 
L 82.471514 273.99006 
L 146.913796 273.986999 
L 152.772185 272.875992 
L 158.630575 271.582672 
L 164.488964 273.904645 
L 170.347353 273.964497 
L 176.205742 273.48048 
L 182.064132 273.93679 
L 199.639299 273.987305 
L 205.497689 273.945516 
L 211.356078 273.631102 
L 223.072857 273.99006 
L 228.931246 273.912605 
L 234.789635 273.987611 
L 240.648024 273.680545 
L 246.506414 273.984702 
L 258.223192 273.99006 
L 264.081581 272.989723 
L 269.939971 273.989754 
L 299.231917 273.99006 
L 305.090306 273.185198 
L 310.948695 273.99006 
L 340.240642 273.952404 
L 346.099031 273.628347 
L 351.95742 273.99006 
L 357.81581 273.985468 
L 363.674199 273.534054 
L 375.390977 273.988835 
L 387.107756 273.989142 
L 392.966145 273.702588 
L 398.824534 273.907094 
L 410.541313 273.99006 
L 457.408427 273.99006 
L 463.266816 272.642554 
L 469.125206 273.99006 
L 480.841984 273.988682 
L 486.700373 273.229131 
L 492.558763 273.99006 
L 498.417152 273.644114 
L 504.275541 273.983325 
L 533.567487 273.988835 
L 539.425877 273.845405 
L 545.284266 273.989907 
L 580.434602 273.99006 
L 586.292991 272.008524 
L 592.15138 273.785248 
L 598.009769 273.989907 
L 603.868159 273.987611 
L 609.726548 271.252493 
L 615.584937 273.987152 
L 621.443326 273.504968 
L 627.301716 273.989907 
L 633.160105 273.856427 
L 639.018494 273.581966 
L 644.876883 273.880306 
L 650.735273 273.989295 
L 656.593662 273.920259 
L 668.31044 273.987764 
L 715.177555 273.99006 
L 721.035944 273.309803 
L 726.894333 273.99006 
L 732.752722 273.739479 
L 738.611112 273.988376 
L 750.32789 273.9821 
L 756.186279 273.81923 
L 762.044669 273.99006 
L 767.903058 273.99006 
L 773.761447 272.006686 
L 779.619836 273.99006 
L 785.478226 273.988682 
L 791.336615 273.471754 
L 797.195004 273.821067 
L 803.053393 273.99006 
L 808.911783 273.566964 
L 814.770172 273.971844 
L 861.637286 273.99006 
L 867.495675 273.697077 
L 873.354065 273.967711 
L 879.212454 273.546453 
L 885.070843 266.811847 
L 890.929232 273.914441 
L 896.787622 273.867907 
L 902.646011 273.983019 
L 937.796346 273.944291 
L 943.654736 273.626204 
L 949.513125 273.949649 
L 949.513125 273.949649 
" style="fill:none;stroke:#434348;stroke-linecap:square;"/>
   </g>
   <g id="line2d_9">
    <path clip-path="url(#p036bd44bd6)" d="M 76.613125 268.695934 
L 82.471514 273.99006 
L 146.913796 273.986758 
L 152.772185 272.846478 
L 158.630575 271.57335 
L 164.488964 273.899746 
L 170.347353 273.961898 
L 176.205742 273.470905 
L 182.064132 273.943058 
L 199.639299 273.986952 
L 205.497689 273.94267 
L 211.356078 273.620649 
L 223.072857 273.99006 
L 228.931246 273.905962 
L 234.789635 273.987729 
L 240.648024 273.673478 
L 246.506414 273.985593 
L 258.223192 273.99006 
L 264.081581 272.966122 
L 269.939971 273.99006 
L 299.231917 273.99006 
L 305.090306 273.158595 
L 310.948695 273.989866 
L 340.240642 273.950827 
L 346.099031 273.620066 
L 351.95742 273.989866 
L 357.81581 273.983651 
L 363.674199 273.521596 
L 375.390977 273.988118 
L 387.107756 273.99006 
L 392.966145 273.691928 
L 398.824534 273.899941 
L 410.541313 273.99006 
L 451.550038 273.99006 
L 457.408427 273.99006 
L 463.266816 272.626035 
L 469.125206 273.99006 
L 480.841984 273.989089 
L 486.700373 273.206762 
L 492.558763 273.99006 
L 498.417152 273.636769 
L 504.275541 273.979378 
L 533.567487 273.989089 
L 539.425877 273.847307 
L 545.284266 273.989866 
L 580.434602 273.99006 
L 586.292991 271.974224 
L 592.15138 273.781659 
L 598.009769 273.99006 
L 603.868159 273.986758 
L 609.726548 271.193258 
L 615.584937 273.987535 
L 621.443326 273.485664 
L 627.301716 273.99006 
L 633.160105 273.856435 
L 639.018494 273.576366 
L 644.876883 273.874692 
L 650.735273 273.989477 
L 656.593662 273.922276 
L 668.31044 273.987924 
L 715.177555 273.99006 
L 721.035944 273.291246 
L 726.894333 273.99006 
L 732.752722 273.732521 
L 738.611112 273.987924 
L 750.32789 273.982874 
L 756.186279 273.811181 
L 762.044669 273.99006 
L 767.903058 273.99006 
L 773.761447 271.970538 
L 779.619836 273.99006 
L 785.478226 273.9887 
L 791.336615 273.448959 
L 797.195004 273.817008 
L 803.053393 273.99006 
L 808.911783 273.555585 
L 814.770172 273.972968 
L 861.637286 273.99006 
L 867.495675 273.694453 
L 873.354065 273.963646 
L 879.212454 273.570346 
L 885.070843 266.778963 
L 890.929232 273.914896 
L 896.787622 273.868477 
L 902.646011 273.982291 
L 937.796346 273.945 
L 943.654736 273.626281 
L 949.513125 273.953158 
L 949.513125 273.953158 
" style="fill:none;stroke:#90ed7d;stroke-linecap:square;"/>
   </g>
   <g id="line2d_10">
    <path clip-path="url(#p036bd44bd6)" d="M 76.613125 268.688659 
L 82.471514 273.99006 
L 146.913796 273.986714 
L 152.772185 272.852294 
L 158.630575 271.536358 
L 164.488964 273.91528 
L 170.347353 273.968981 
L 176.205742 273.473956 
L 182.064132 273.941545 
L 199.639299 273.989056 
L 205.497689 273.946062 
L 211.356078 273.618835 
L 223.072857 273.99006 
L 228.931246 273.91528 
L 234.789635 273.987885 
L 240.648024 273.676886 
L 246.506414 273.98571 
L 258.223192 273.99006 
L 264.081581 272.978766 
L 269.939971 273.99006 
L 299.231917 273.99006 
L 305.090306 273.166806 
L 310.948695 273.989893 
L 340.240642 273.954426 
L 346.099031 273.616994 
L 351.95742 273.99006 
L 357.81581 273.984539 
L 363.674199 273.524146 
L 375.390977 273.989056 
L 387.107756 273.989558 
L 392.966145 273.696626 
L 398.824534 273.909424 
L 410.541313 273.99006 
L 445.691648 273.989893 
L 457.408427 273.99006 
L 463.266816 272.611727 
L 469.125206 273.99006 
L 480.841984 273.988387 
L 486.700373 273.210137 
L 492.558763 273.99006 
L 498.417152 273.636233 
L 504.275541 273.981695 
L 533.567487 273.989725 
L 539.425877 273.849868 
L 545.284266 273.989893 
L 580.434602 273.99006 
L 586.292991 271.975005 
L 592.15138 273.783954 
L 598.009769 273.99006 
L 603.868159 273.986212 
L 609.726548 271.210137 
L 615.584937 273.987049 
L 621.443326 273.491358 
L 627.301716 273.989893 
L 633.160105 273.860574 
L 639.018494 273.576676 
L 644.876883 273.875966 
L 650.735273 273.989893 
L 656.593662 273.923811 
L 668.31044 273.988889 
L 715.177555 273.99006 
L 721.035944 273.291271 
L 726.894333 273.99006 
L 732.752722 273.737446 
L 738.611112 273.98822 
L 750.32789 273.981528 
L 756.186279 273.812561 
L 762.044669 273.99006 
L 767.903058 273.99006 
L 773.761447 271.962457 
L 779.619836 273.99006 
L 785.478226 273.989391 
L 791.336615 273.449866 
L 797.195004 273.820256 
L 803.053393 273.99006 
L 808.911783 273.553924 
L 814.770172 273.971992 
L 861.637286 273.99006 
L 867.495675 273.692946 
L 873.354065 273.970989 
L 879.212454 273.558274 
L 885.070843 266.773337 
L 890.929232 273.916116 
L 896.787622 273.868772 
L 902.646011 273.980524 
L 937.796346 273.945393 
L 943.654736 273.634393 
L 949.513125 273.951081 
L 949.513125 273.951081 
" style="fill:none;stroke:#f7a35c;stroke-linecap:square;"/>
   </g>
   <g id="line2d_11">
    <path clip-path="url(#p036bd44bd6)" d="M 76.613125 268.686282 
L 82.471514 273.99006 
L 146.913796 273.986837 
L 152.772185 272.832394 
L 158.630575 271.523485 
L 164.488964 273.906728 
L 170.347353 273.962666 
L 176.205742 273.467971 
L 182.064132 273.938726 
L 199.639299 273.988218 
L 205.497689 273.942869 
L 211.356078 273.621742 
L 223.072857 273.99006 
L 228.931246 273.911102 
L 234.789635 273.987528 
L 240.648024 273.67699 
L 246.506414 273.984075 
L 258.223192 273.99006 
L 264.081581 272.963837 
L 269.939971 273.99006 
L 299.231917 273.99006 
L 305.090306 273.147071 
L 310.948695 273.98983 
L 340.240642 273.948394 
L 346.099031 273.625656 
L 351.95742 273.99006 
L 357.81581 273.984075 
L 363.674199 273.517693 
L 375.390977 273.988679 
L 387.107756 273.9896 
L 392.966145 273.694485 
L 398.824534 273.903275 
L 410.541313 273.99006 
L 445.691648 273.98983 
L 457.408427 273.99006 
L 463.266816 272.59529 
L 469.125206 273.99006 
L 480.841984 273.989139 
L 486.700373 273.195873 
L 492.558763 273.99006 
L 498.417152 273.638777 
L 504.275541 273.979701 
L 533.567487 273.9896 
L 539.425877 273.843654 
L 545.284266 273.99006 
L 580.434602 273.99006 
L 586.292991 271.945205 
L 592.15138 273.784723 
L 598.009769 273.99006 
L 603.868159 273.985686 
L 609.726548 271.186473 
L 615.584937 273.986607 
L 621.443326 273.481324 
L 627.301716 273.99006 
L 633.160105 273.856545 
L 639.018494 273.576624 
L 644.876883 273.87335 
L 650.735273 273.989139 
L 656.593662 273.924683 
L 668.31044 273.987758 
L 715.177555 273.99006 
L 721.035944 273.291179 
L 726.894333 273.99006 
L 732.752722 273.739604 
L 738.611112 273.987528 
L 750.32789 273.982233 
L 756.186279 273.81557 
L 762.044669 273.99006 
L 767.903058 273.98983 
L 773.761447 271.935767 
L 779.619836 273.99006 
L 785.478226 273.989369 
L 791.336615 273.453469 
L 797.195004 273.816721 
L 803.053393 273.99006 
L 808.911783 273.553373 
L 814.770172 273.972795 
L 861.637286 273.99006 
L 867.495675 273.694025 
L 873.354065 273.96681 
L 879.212454 273.557057 
L 885.070843 266.819607 
L 890.929232 273.912713 
L 896.787622 273.866443 
L 902.646011 273.981543 
L 937.796346 273.940337 
L 943.654736 273.633483 
L 949.513125 273.950466 
L 949.513125 273.950466 
" style="fill:none;stroke:#8085e9;stroke-linecap:square;"/>
   </g>
   <g id="line2d_12">
    <path clip-path="url(#p036bd44bd6)" d="M 76.613125 268.732843 
L 82.471514 273.99006 
L 146.913796 273.986304 
L 152.772185 272.861417 
L 158.630575 271.55424 
L 164.488964 273.915377 
L 170.347353 273.963324 
L 176.205742 273.467719 
L 182.064132 273.946311 
L 199.639299 273.987188 
L 205.497689 273.944764 
L 211.356078 273.615981 
L 223.072857 273.99006 
L 228.931246 273.915377 
L 234.789635 273.987188 
L 240.648024 273.670557 
L 246.506414 273.983873 
L 258.223192 273.99006 
L 264.081581 272.986478 
L 269.939971 273.989839 
L 299.231917 273.99006 
L 305.090306 273.175173 
L 310.948695 273.99006 
L 340.240642 273.95537 
L 346.099031 273.614434 
L 351.95742 273.989839 
L 357.81581 273.984094 
L 363.674199 273.516992 
L 375.390977 273.988292 
L 387.107756 273.989176 
L 392.966145 273.686908 
L 398.824534 273.910516 
L 410.541313 273.99006 
L 451.550038 273.99006 
L 457.408427 273.99006 
L 463.266816 272.632946 
L 469.125206 273.99006 
L 480.841984 273.988955 
L 486.700373 273.223563 
L 492.558763 273.99006 
L 498.417152 273.632332 
L 504.275541 273.980338 
L 533.567487 273.988734 
L 539.425877 273.843787 
L 545.284266 273.99006 
L 580.434602 273.99006 
L 586.292991 271.985985 
L 592.15138 273.774848 
L 598.009769 273.989839 
L 603.868159 273.987629 
L 609.726548 271.255282 
L 615.584937 273.986967 
L 621.443326 273.475455 
L 627.301716 273.99006 
L 633.160105 273.855498 
L 639.018494 273.571348 
L 644.876883 273.876489 
L 650.735273 273.988955 
L 656.593662 273.92532 
L 668.31044 273.98785 
L 715.177555 273.99006 
L 721.035944 273.304652 
L 726.894333 273.99006 
L 732.752722 273.727785 
L 738.611112 273.988955 
L 750.32789 273.981885 
L 756.186279 273.813958 
L 762.044669 273.99006 
L 767.903058 273.99006 
L 773.761447 271.982008 
L 779.619836 273.99006 
L 785.478226 273.988955 
L 791.336615 273.448498 
L 797.195004 273.813295 
L 803.053393 273.99006 
L 808.911783 273.550799 
L 814.770172 273.97393 
L 855.778897 273.933716 
L 861.637286 273.99006 
L 867.495675 273.686024 
L 873.354065 273.969732 
L 879.212454 273.554776 
L 885.070843 266.803456 
L 890.929232 273.916481 
L 896.787622 273.866325 
L 902.646011 273.982989 
L 937.796346 273.942333 
L 943.654736 273.619958 
L 949.513125 273.94852 
L 949.513125 273.94852 
" style="fill:none;stroke:#f15c80;stroke-linecap:square;"/>
   </g>
   <g id="line2d_13">
    <path clip-path="url(#p036bd44bd6)" d="M 76.613125 268.704567 
L 82.471514 273.99006 
L 146.913796 273.986555 
L 152.772185 272.864157 
L 158.630575 271.546829 
L 164.488964 273.911333 
L 170.347353 273.960403 
L 176.205742 273.488851 
L 182.064132 273.936677 
L 199.639299 273.987633 
L 205.497689 273.937485 
L 211.356078 273.632553 
L 223.072857 273.99006 
L 228.931246 273.909176 
L 234.789635 273.986825 
L 240.648024 273.688364 
L 246.506414 273.983589 
L 258.223192 273.99006 
L 264.081581 272.99546 
L 269.939971 273.99006 
L 299.231917 273.99006 
L 305.090306 273.186343 
L 310.948695 273.98979 
L 340.240642 273.949888 
L 346.099031 273.631745 
L 351.95742 273.99006 
L 357.81581 273.984129 
L 363.674199 273.540076 
L 381.249367 273.980354 
L 387.107756 273.988712 
L 392.966145 273.700227 
L 398.824534 273.902436 
L 410.541313 273.99006 
L 445.691648 273.99006 
L 457.408427 273.99006 
L 463.266816 272.618541 
L 469.125206 273.99006 
L 480.841984 273.988442 
L 486.700373 273.232176 
L 492.558763 273.99006 
L 498.417152 273.647922 
L 504.275541 273.980893 
L 533.567487 273.98979 
L 539.425877 273.848244 
L 545.284266 273.99006 
L 580.434602 273.99006 
L 586.292991 271.972007 
L 592.15138 273.782189 
L 598.009769 273.99006 
L 603.868159 273.986285 
L 609.726548 271.213047 
L 615.584937 273.984937 
L 621.443326 273.474291 
L 627.301716 273.99006 
L 633.160105 273.858489 
L 639.018494 273.591573 
L 644.876883 273.882754 
L 650.735273 273.989251 
L 656.593662 273.925353 
L 668.31044 273.986555 
L 715.177555 273.99006 
L 721.035944 273.314682 
L 726.894333 273.99006 
L 732.752722 273.736085 
L 738.611112 273.987903 
L 750.32789 273.981702 
L 756.186279 273.81589 
L 762.044669 273.99006 
L 767.903058 273.98979 
L 773.761447 271.966076 
L 779.619836 273.99006 
L 785.478226 273.98979 
L 791.336615 273.44841 
L 797.195004 273.816699 
L 803.053393 273.99006 
L 808.911783 273.570812 
L 814.770172 273.973074 
L 855.778897 273.922118 
L 861.637286 273.99006 
L 867.495675 273.702922 
L 873.354065 273.964716 
L 879.212454 273.567038 
L 885.070843 266.741811 
L 890.929232 273.917265 
L 896.787622 273.871161 
L 902.646011 273.98278 
L 937.796346 273.944226 
L 943.654736 273.630127 
L 949.513125 273.949079 
L 949.513125 273.949079 
" style="fill:none;stroke:#e4d354;stroke-linecap:square;"/>
   </g>
   <g id="line2d_14">
    <path clip-path="url(#p036bd44bd6)" d="M 76.613125 268.645347 
L 82.471514 273.99006 
L 146.913796 273.985782 
L 152.772185 272.845038 
L 158.630575 271.531129 
L 164.488964 273.905616 
L 170.347353 273.964764 
L 176.205742 273.472045 
L 182.064132 273.93891 
L 199.639299 273.988386 
L 205.497689 273.94449 
L 211.356078 273.620476 
L 223.072857 273.99006 
L 228.931246 273.908592 
L 234.789635 273.985968 
L 240.648024 273.677578 
L 246.506414 273.982992 
L 258.223192 273.99006 
L 264.081581 272.960918 
L 269.939971 273.989874 
L 299.231917 273.99006 
L 305.090306 273.160123 
L 310.948695 273.99006 
L 340.240642 273.952488 
L 346.099031 273.619918 
L 351.95742 273.99006 
L 357.81581 273.984108 
L 363.674199 273.520222 
L 375.390977 273.988758 
L 387.107756 273.989688 
L 392.966145 273.694319 
L 398.824534 273.90078 
L 410.541313 273.99006 
L 451.550038 273.99006 
L 457.408427 273.99006 
L 463.266816 272.602123 
L 469.125206 273.99006 
L 480.841984 273.988758 
L 486.700373 273.210715 
L 492.558763 273.99006 
L 498.417152 273.637402 
L 504.275541 273.980016 
L 533.567487 273.989316 
L 539.425877 273.844049 
L 545.284266 273.989688 
L 580.434602 273.99006 
L 586.292991 271.960605 
L 592.15138 273.780065 
L 598.009769 273.989874 
L 603.868159 273.984852 
L 609.726548 271.194093 
L 615.584937 273.984294 
L 621.443326 273.472608 
L 627.301716 273.989874 
L 633.160105 273.857255 
L 639.018494 273.57379 
L 644.876883 273.869717 
L 650.735273 273.989316 
L 656.593662 273.92403 
L 668.31044 273.985968 
L 715.177555 273.99006 
L 721.035944 273.295903 
L 726.894333 273.99006 
L 732.752722 273.733379 
L 738.611112 273.986154 
L 750.32789 273.98169 
L 756.186279 273.813545 
L 762.044669 273.99006 
L 767.903058 273.99006 
L 773.761447 271.956142 
L 779.619836 273.99006 
L 785.478226 273.98913 
L 791.336615 273.436334 
L 797.195004 273.815219 
L 803.053393 273.99006 
L 808.911783 273.552958 
L 814.770172 273.972204 
L 861.637286 273.99006 
L 867.495675 273.690227 
L 873.354065 273.968298 
L 879.212454 273.554818 
L 885.070843 266.76189 
L 890.929232 273.912312 
L 896.787622 273.871392 
L 902.646011 273.979272 
L 937.796346 273.938724 
L 943.654736 273.61099 
L 949.513125 273.948768 
L 949.513125 273.948768 
" style="fill:none;stroke:#2b908f;stroke-linecap:square;"/>
   </g>
   <g id="line2d_15">
    <path clip-path="url(#p036bd44bd6)" d="M 32.968125 273.99006 
L 993.158125 273.99006 
" style="fill:none;stroke:#dedede;stroke-linecap:square;stroke-width:2;"/>
   </g>
   <g id="text_17">
    <!-- Fastp: Read N Content -->
    <defs>
     <path d="M 9.8125 72.90625 
L 51.703125 72.90625 
L 51.703125 64.59375 
L 19.671875 64.59375 
L 19.671875 43.109375 
L 48.578125 43.109375 
L 48.578125 34.8125 
L 19.671875 34.8125 
L 19.671875 0 
L 9.8125 0 
z
" id="DejaVuSans-70"/>
     <path d="M 18.109375 8.203125 
L 18.109375 -20.796875 
L 9.078125 -20.796875 
L 9.078125 54.6875 
L 18.109375 54.6875 
L 18.109375 46.390625 
Q 20.953125 51.265625 25.265625 53.625 
Q 29.59375 56 35.59375 56 
Q 45.5625 56 51.78125 48.09375 
Q 58.015625 40.1875 58.015625 27.296875 
Q 58.015625 14.40625 51.78125 6.484375 
Q 45.5625 -1.421875 35.59375 -1.421875 
Q 29.59375 -1.421875 25.265625 0.953125 
Q 20.953125 3.328125 18.109375 8.203125 
z
M 48.6875 27.296875 
Q 48.6875 37.203125 44.609375 42.84375 
Q 40.53125 48.484375 33.40625 48.484375 
Q 26.265625 48.484375 22.1875 42.84375 
Q 18.109375 37.203125 18.109375 27.296875 
Q 18.109375 17.390625 22.1875 11.75 
Q 26.265625 6.109375 33.40625 6.109375 
Q 40.53125 6.109375 44.609375 11.75 
Q 48.6875 17.390625 48.6875 27.296875 
z
" id="DejaVuSans-112"/>
     <path d="M 9.8125 72.90625 
L 23.09375 72.90625 
L 55.421875 11.921875 
L 55.421875 72.90625 
L 64.984375 72.90625 
L 64.984375 0 
L 51.703125 0 
L 19.390625 60.984375 
L 19.390625 0 
L 9.8125 0 
z
" id="DejaVuSans-78"/>
    </defs>
    <g transform="translate(422.606875 19.3575)scale(0.16 -0.16)">
     <use xlink:href="#DejaVuSans-70"/>
     <use x="57.378906" xlink:href="#DejaVuSans-97"/>
     <use x="118.658203" xlink:href="#DejaVuSans-115"/>
     <use x="170.757812" xlink:href="#DejaVuSans-116"/>
     <use x="209.966797" xlink:href="#DejaVuSans-112"/>
     <use x="273.443359" xlink:href="#DejaVuSans-58"/>
     <use x="307.134766" xlink:href="#DejaVuSans-32"/>
     <use x="338.921875" xlink:href="#DejaVuSans-82"/>
     <use x="408.341797" xlink:href="#DejaVuSans-101"/>
     <use x="469.865234" xlink:href="#DejaVuSans-97"/>
     <use x="531.144531" xlink:href="#DejaVuSans-100"/>
     <use x="594.621094" xlink:href="#DejaVuSans-32"/>
     <use x="626.408203" xlink:href="#DejaVuSans-78"/>
     <use x="701.212891" xlink:href="#DejaVuSans-32"/>
     <use x="733" xlink:href="#DejaVuSans-67"/>
     <use x="802.824219" xlink:href="#DejaVuSans-111"/>
     <use x="864.005859" xlink:href="#DejaVuSans-110"/>
     <use x="927.384766" xlink:href="#DejaVuSans-116"/>
     <use x="966.59375" xlink:href="#DejaVuSans-101"/>
     <use x="1028.117188" xlink:href="#DejaVuSans-110"/>
     <use x="1091.496094" xlink:href="#DejaVuSans-116"/>
    </g>
   </g>
   <g id="legend_1">
    <g id="line2d_16">
     <path d="M 40.168125 303.490394 
L 56.168125 303.490394 
" style="fill:none;stroke:#7cb5ec;stroke-linecap:square;"/>
    </g>
    <g id="line2d_17"/>
    <g id="text_18">
     <!-- Sfu-ABai_005-Ex1-1A-lcwgs-1-1 -->
     <defs>
      <path d="M 53.515625 70.515625 
L 53.515625 60.890625 
Q 47.90625 63.578125 42.921875 64.890625 
Q 37.9375 66.21875 33.296875 66.21875 
Q 25.25 66.21875 20.875 63.09375 
Q 16.5 59.96875 16.5 54.203125 
Q 16.5 49.359375 19.40625 46.890625 
Q 22.3125 44.4375 30.421875 42.921875 
L 36.375 41.703125 
Q 47.40625 39.59375 52.65625 34.296875 
Q 57.90625 29 57.90625 20.125 
Q 57.90625 9.515625 50.796875 4.046875 
Q 43.703125 -1.421875 29.984375 -1.421875 
Q 24.8125 -1.421875 18.96875 -0.25 
Q 13.140625 0.921875 6.890625 3.21875 
L 6.890625 13.375 
Q 12.890625 10.015625 18.65625 8.296875 
Q 24.421875 6.59375 29.984375 6.59375 
Q 38.421875 6.59375 43.015625 9.90625 
Q 47.609375 13.234375 47.609375 19.390625 
Q 47.609375 24.75 44.3125 27.78125 
Q 41.015625 30.8125 33.5 32.328125 
L 27.484375 33.5 
Q 16.453125 35.6875 11.515625 40.375 
Q 6.59375 45.0625 6.59375 53.421875 
Q 6.59375 63.09375 13.40625 68.65625 
Q 20.21875 74.21875 32.171875 74.21875 
Q 37.3125 74.21875 42.625 73.28125 
Q 47.953125 72.359375 53.515625 70.515625 
z
" id="DejaVuSans-83"/>
      <path d="M 8.5 21.578125 
L 8.5 54.6875 
L 17.484375 54.6875 
L 17.484375 21.921875 
Q 17.484375 14.15625 20.5 10.265625 
Q 23.53125 6.390625 29.59375 6.390625 
Q 36.859375 6.390625 41.078125 11.03125 
Q 45.3125 15.671875 45.3125 23.6875 
L 45.3125 54.6875 
L 54.296875 54.6875 
L 54.296875 0 
L 45.3125 0 
L 45.3125 8.40625 
Q 42.046875 3.421875 37.71875 1 
Q 33.40625 -1.421875 27.6875 -1.421875 
Q 18.265625 -1.421875 13.375 4.4375 
Q 8.5 10.296875 8.5 21.578125 
z
M 31.109375 56 
z
" id="DejaVuSans-117"/>
      <path d="M 4.890625 31.390625 
L 31.203125 31.390625 
L 31.203125 23.390625 
L 4.890625 23.390625 
z
" id="DejaVuSans-45"/>
      <path d="M 34.1875 63.1875 
L 20.796875 26.90625 
L 47.609375 26.90625 
z
M 28.609375 72.90625 
L 39.796875 72.90625 
L 67.578125 0 
L 57.328125 0 
L 50.6875 18.703125 
L 17.828125 18.703125 
L 11.1875 0 
L 0.78125 0 
z
" id="DejaVuSans-65"/>
      <path d="M 50.984375 -16.609375 
L 50.984375 -23.578125 
L -0.984375 -23.578125 
L -0.984375 -16.609375 
z
" id="DejaVuSans-95"/>
      <path d="M 9.8125 72.90625 
L 55.90625 72.90625 
L 55.90625 64.59375 
L 19.671875 64.59375 
L 19.671875 43.015625 
L 54.390625 43.015625 
L 54.390625 34.71875 
L 19.671875 34.71875 
L 19.671875 8.296875 
L 56.78125 8.296875 
L 56.78125 0 
L 9.8125 0 
z
" id="DejaVuSans-69"/>
      <path d="M 54.890625 54.6875 
L 35.109375 28.078125 
L 55.90625 0 
L 45.3125 0 
L 29.390625 21.484375 
L 13.484375 0 
L 2.875 0 
L 24.125 28.609375 
L 4.6875 54.6875 
L 15.28125 54.6875 
L 29.78125 35.203125 
L 44.28125 54.6875 
z
" id="DejaVuSans-120"/>
      <path d="M 4.203125 54.6875 
L 13.1875 54.6875 
L 24.421875 12.015625 
L 35.59375 54.6875 
L 46.1875 54.6875 
L 57.421875 12.015625 
L 68.609375 54.6875 
L 77.59375 54.6875 
L 63.28125 0 
L 52.6875 0 
L 40.921875 44.828125 
L 29.109375 0 
L 18.5 0 
z
" id="DejaVuSans-119"/>
     </defs>
     <g transform="translate(62.568125 306.290394)scale(0.08 -0.08)">
      <use xlink:href="#DejaVuSans-83"/>
      <use x="63.476562" xlink:href="#DejaVuSans-102"/>
      <use x="98.681641" xlink:href="#DejaVuSans-117"/>
      <use x="162.060547" xlink:href="#DejaVuSans-45"/>
      <use x="198.113281" xlink:href="#DejaVuSans-65"/>
      <use x="266.521484" xlink:href="#DejaVuSans-66"/>
      <use x="335.125" xlink:href="#DejaVuSans-97"/>
      <use x="396.404297" xlink:href="#DejaVuSans-105"/>
      <use x="424.1875" xlink:href="#DejaVuSans-95"/>
      <use x="474.1875" xlink:href="#DejaVuSans-48"/>
      <use x="537.810547" xlink:href="#DejaVuSans-48"/>
      <use x="601.433594" xlink:href="#DejaVuSans-53"/>
      <use x="665.056641" xlink:href="#DejaVuSans-45"/>
      <use x="701.140625" xlink:href="#DejaVuSans-69"/>
      <use x="764.324219" xlink:href="#DejaVuSans-120"/>
      <use x="823.503906" xlink:href="#DejaVuSans-49"/>
      <use x="887.126953" xlink:href="#DejaVuSans-45"/>
      <use x="923.210938" xlink:href="#DejaVuSans-49"/>
      <use x="986.833984" xlink:href="#DejaVuSans-65"/>
      <use x="1055.210938" xlink:href="#DejaVuSans-45"/>
      <use x="1091.294922" xlink:href="#DejaVuSans-108"/>
      <use x="1119.078125" xlink:href="#DejaVuSans-99"/>
      <use x="1174.058594" xlink:href="#DejaVuSans-119"/>
      <use x="1255.845703" xlink:href="#DejaVuSans-103"/>
      <use x="1319.322266" xlink:href="#DejaVuSans-115"/>
      <use x="1371.421875" xlink:href="#DejaVuSans-45"/>
      <use x="1407.505859" xlink:href="#DejaVuSans-49"/>
      <use x="1471.128906" xlink:href="#DejaVuSans-45"/>
      <use x="1507.212891" xlink:href="#DejaVuSans-49"/>
     </g>
    </g>
    <g id="line2d_18">
     <path d="M 40.168125 315.455394 
L 56.168125 315.455394 
" style="fill:none;stroke:#434348;stroke-linecap:square;"/>
    </g>
    <g id="line2d_19"/>
    <g id="text_19">
     <!-- Sfu-ABai_006-Ex1-1B-lcwgs-1-1 -->
     <g transform="translate(62.568125 318.255394)scale(0.08 -0.08)">
      <use xlink:href="#DejaVuSans-83"/>
      <use x="63.476562" xlink:href="#DejaVuSans-102"/>
      <use x="98.681641" xlink:href="#DejaVuSans-117"/>
      <use x="162.060547" xlink:href="#DejaVuSans-45"/>
      <use x="198.113281" xlink:href="#DejaVuSans-65"/>
      <use x="266.521484" xlink:href="#DejaVuSans-66"/>
      <use x="335.125" xlink:href="#DejaVuSans-97"/>
      <use x="396.404297" xlink:href="#DejaVuSans-105"/>
      <use x="424.1875" xlink:href="#DejaVuSans-95"/>
      <use x="474.1875" xlink:href="#DejaVuSans-48"/>
      <use x="537.810547" xlink:href="#DejaVuSans-48"/>
      <use x="601.433594" xlink:href="#DejaVuSans-54"/>
      <use x="665.056641" xlink:href="#DejaVuSans-45"/>
      <use x="701.140625" xlink:href="#DejaVuSans-69"/>
      <use x="764.324219" xlink:href="#DejaVuSans-120"/>
      <use x="823.503906" xlink:href="#DejaVuSans-49"/>
      <use x="887.126953" xlink:href="#DejaVuSans-45"/>
      <use x="923.210938" xlink:href="#DejaVuSans-49"/>
      <use x="986.833984" xlink:href="#DejaVuSans-66"/>
      <use x="1055.4375" xlink:href="#DejaVuSans-45"/>
      <use x="1091.521484" xlink:href="#DejaVuSans-108"/>
      <use x="1119.304688" xlink:href="#DejaVuSans-99"/>
      <use x="1174.285156" xlink:href="#DejaVuSans-119"/>
      <use x="1256.072266" xlink:href="#DejaVuSans-103"/>
      <use x="1319.548828" xlink:href="#DejaVuSans-115"/>
      <use x="1371.648438" xlink:href="#DejaVuSans-45"/>
      <use x="1407.732422" xlink:href="#DejaVuSans-49"/>
      <use x="1471.355469" xlink:href="#DejaVuSans-45"/>
      <use x="1507.439453" xlink:href="#DejaVuSans-49"/>
     </g>
    </g>
    <g id="line2d_20">
     <path d="M 239.225625 303.490394 
L 255.225625 303.490394 
" style="fill:none;stroke:#90ed7d;stroke-linecap:square;"/>
    </g>
    <g id="line2d_21"/>
    <g id="text_20">
     <!-- Sfu-ABai_007-Ex1-1C-lcwgs-1-1 -->
     <defs>
      <path d="M 8.203125 72.90625 
L 55.078125 72.90625 
L 55.078125 68.703125 
L 28.609375 0 
L 18.3125 0 
L 43.21875 64.59375 
L 8.203125 64.59375 
z
" id="DejaVuSans-55"/>
     </defs>
     <g transform="translate(261.625625 306.290394)scale(0.08 -0.08)">
      <use xlink:href="#DejaVuSans-83"/>
      <use x="63.476562" xlink:href="#DejaVuSans-102"/>
      <use x="98.681641" xlink:href="#DejaVuSans-117"/>
      <use x="162.060547" xlink:href="#DejaVuSans-45"/>
      <use x="198.113281" xlink:href="#DejaVuSans-65"/>
      <use x="266.521484" xlink:href="#DejaVuSans-66"/>
      <use x="335.125" xlink:href="#DejaVuSans-97"/>
      <use x="396.404297" xlink:href="#DejaVuSans-105"/>
      <use x="424.1875" xlink:href="#DejaVuSans-95"/>
      <use x="474.1875" xlink:href="#DejaVuSans-48"/>
      <use x="537.810547" xlink:href="#DejaVuSans-48"/>
      <use x="601.433594" xlink:href="#DejaVuSans-55"/>
      <use x="665.056641" xlink:href="#DejaVuSans-45"/>
      <use x="701.140625" xlink:href="#DejaVuSans-69"/>
      <use x="764.324219" xlink:href="#DejaVuSans-120"/>
      <use x="823.503906" xlink:href="#DejaVuSans-49"/>
      <use x="887.126953" xlink:href="#DejaVuSans-45"/>
      <use x="923.210938" xlink:href="#DejaVuSans-49"/>
      <use x="986.833984" xlink:href="#DejaVuSans-67"/>
      <use x="1056.658203" xlink:href="#DejaVuSans-45"/>
      <use x="1092.742188" xlink:href="#DejaVuSans-108"/>
      <use x="1120.525391" xlink:href="#DejaVuSans-99"/>
      <use x="1175.505859" xlink:href="#DejaVuSans-119"/>
      <use x="1257.292969" xlink:href="#DejaVuSans-103"/>
      <use x="1320.769531" xlink:href="#DejaVuSans-115"/>
      <use x="1372.869141" xlink:href="#DejaVuSans-45"/>
      <use x="1408.953125" xlink:href="#DejaVuSans-49"/>
      <use x="1472.576172" xlink:href="#DejaVuSans-45"/>
      <use x="1508.660156" xlink:href="#DejaVuSans-49"/>
     </g>
    </g>
    <g id="line2d_22">
     <path d="M 239.225625 315.455394 
L 255.225625 315.455394 
" style="fill:none;stroke:#f7a35c;stroke-linecap:square;"/>
    </g>
    <g id="line2d_23"/>
    <g id="text_21">
     <!-- Sfu-ABai_008-Ex1-1D-lcwgs-1-1 -->
     <defs>
      <path d="M 19.671875 64.796875 
L 19.671875 8.109375 
L 31.59375 8.109375 
Q 46.6875 8.109375 53.6875 14.9375 
Q 60.6875 21.78125 60.6875 36.53125 
Q 60.6875 51.171875 53.6875 57.984375 
Q 46.6875 64.796875 31.59375 64.796875 
z
M 9.8125 72.90625 
L 30.078125 72.90625 
Q 51.265625 72.90625 61.171875 64.09375 
Q 71.09375 55.28125 71.09375 36.53125 
Q 71.09375 17.671875 61.125 8.828125 
Q 51.171875 0 30.078125 0 
L 9.8125 0 
z
" id="DejaVuSans-68"/>
     </defs>
     <g transform="translate(261.625625 318.255394)scale(0.08 -0.08)">
      <use xlink:href="#DejaVuSans-83"/>
      <use x="63.476562" xlink:href="#DejaVuSans-102"/>
      <use x="98.681641" xlink:href="#DejaVuSans-117"/>
      <use x="162.060547" xlink:href="#DejaVuSans-45"/>
      <use x="198.113281" xlink:href="#DejaVuSans-65"/>
      <use x="266.521484" xlink:href="#DejaVuSans-66"/>
      <use x="335.125" xlink:href="#DejaVuSans-97"/>
      <use x="396.404297" xlink:href="#DejaVuSans-105"/>
      <use x="424.1875" xlink:href="#DejaVuSans-95"/>
      <use x="474.1875" xlink:href="#DejaVuSans-48"/>
      <use x="537.810547" xlink:href="#DejaVuSans-48"/>
      <use x="601.433594" xlink:href="#DejaVuSans-56"/>
      <use x="665.056641" xlink:href="#DejaVuSans-45"/>
      <use x="701.140625" xlink:href="#DejaVuSans-69"/>
      <use x="764.324219" xlink:href="#DejaVuSans-120"/>
      <use x="823.503906" xlink:href="#DejaVuSans-49"/>
      <use x="887.126953" xlink:href="#DejaVuSans-45"/>
      <use x="923.210938" xlink:href="#DejaVuSans-49"/>
      <use x="986.833984" xlink:href="#DejaVuSans-68"/>
      <use x="1063.835938" xlink:href="#DejaVuSans-45"/>
      <use x="1099.919922" xlink:href="#DejaVuSans-108"/>
      <use x="1127.703125" xlink:href="#DejaVuSans-99"/>
      <use x="1182.683594" xlink:href="#DejaVuSans-119"/>
      <use x="1264.470703" xlink:href="#DejaVuSans-103"/>
      <use x="1327.947266" xlink:href="#DejaVuSans-115"/>
      <use x="1380.046875" xlink:href="#DejaVuSans-45"/>
      <use x="1416.130859" xlink:href="#DejaVuSans-49"/>
      <use x="1479.753906" xlink:href="#DejaVuSans-45"/>
      <use x="1515.837891" xlink:href="#DejaVuSans-49"/>
     </g>
    </g>
    <g id="line2d_24">
     <path d="M 438.954375 303.490394 
L 454.954375 303.490394 
" style="fill:none;stroke:#8085e9;stroke-linecap:square;"/>
    </g>
    <g id="line2d_25"/>
    <g id="text_22">
     <!-- Sfu-ABai_009-Ex1-1E-lcwgs-1-1 -->
     <defs>
      <path d="M 10.984375 1.515625 
L 10.984375 10.5 
Q 14.703125 8.734375 18.5 7.8125 
Q 22.3125 6.890625 25.984375 6.890625 
Q 35.75 6.890625 40.890625 13.453125 
Q 46.046875 20.015625 46.78125 33.40625 
Q 43.953125 29.203125 39.59375 26.953125 
Q 35.25 24.703125 29.984375 24.703125 
Q 19.046875 24.703125 12.671875 31.3125 
Q 6.296875 37.9375 6.296875 49.421875 
Q 6.296875 60.640625 12.9375 67.421875 
Q 19.578125 74.21875 30.609375 74.21875 
Q 43.265625 74.21875 49.921875 64.515625 
Q 56.59375 54.828125 56.59375 36.375 
Q 56.59375 19.140625 48.40625 8.859375 
Q 40.234375 -1.421875 26.421875 -1.421875 
Q 22.703125 -1.421875 18.890625 -0.6875 
Q 15.09375 0.046875 10.984375 1.515625 
z
M 30.609375 32.421875 
Q 37.25 32.421875 41.125 36.953125 
Q 45.015625 41.5 45.015625 49.421875 
Q 45.015625 57.28125 41.125 61.84375 
Q 37.25 66.40625 30.609375 66.40625 
Q 23.96875 66.40625 20.09375 61.84375 
Q 16.21875 57.28125 16.21875 49.421875 
Q 16.21875 41.5 20.09375 36.953125 
Q 23.96875 32.421875 30.609375 32.421875 
z
" id="DejaVuSans-57"/>
     </defs>
     <g transform="translate(461.354375 306.290394)scale(0.08 -0.08)">
      <use xlink:href="#DejaVuSans-83"/>
      <use x="63.476562" xlink:href="#DejaVuSans-102"/>
      <use x="98.681641" xlink:href="#DejaVuSans-117"/>
      <use x="162.060547" xlink:href="#DejaVuSans-45"/>
      <use x="198.113281" xlink:href="#DejaVuSans-65"/>
      <use x="266.521484" xlink:href="#DejaVuSans-66"/>
      <use x="335.125" xlink:href="#DejaVuSans-97"/>
      <use x="396.404297" xlink:href="#DejaVuSans-105"/>
      <use x="424.1875" xlink:href="#DejaVuSans-95"/>
      <use x="474.1875" xlink:href="#DejaVuSans-48"/>
      <use x="537.810547" xlink:href="#DejaVuSans-48"/>
      <use x="601.433594" xlink:href="#DejaVuSans-57"/>
      <use x="665.056641" xlink:href="#DejaVuSans-45"/>
      <use x="701.140625" xlink:href="#DejaVuSans-69"/>
      <use x="764.324219" xlink:href="#DejaVuSans-120"/>
      <use x="823.503906" xlink:href="#DejaVuSans-49"/>
      <use x="887.126953" xlink:href="#DejaVuSans-45"/>
      <use x="923.210938" xlink:href="#DejaVuSans-49"/>
      <use x="986.833984" xlink:href="#DejaVuSans-69"/>
      <use x="1050.017578" xlink:href="#DejaVuSans-45"/>
      <use x="1086.101562" xlink:href="#DejaVuSans-108"/>
      <use x="1113.884766" xlink:href="#DejaVuSans-99"/>
      <use x="1168.865234" xlink:href="#DejaVuSans-119"/>
      <use x="1250.652344" xlink:href="#DejaVuSans-103"/>
      <use x="1314.128906" xlink:href="#DejaVuSans-115"/>
      <use x="1366.228516" xlink:href="#DejaVuSans-45"/>
      <use x="1402.3125" xlink:href="#DejaVuSans-49"/>
      <use x="1465.935547" xlink:href="#DejaVuSans-45"/>
      <use x="1502.019531" xlink:href="#DejaVuSans-49"/>
     </g>
    </g>
    <g id="line2d_26">
     <path d="M 438.954375 315.455394 
L 454.954375 315.455394 
" style="fill:none;stroke:#f15c80;stroke-linecap:square;"/>
    </g>
    <g id="line2d_27"/>
    <g id="text_23">
     <!-- Sfu-ABai_010-Ex1-1F-lcwgs-1-1 -->
     <g transform="translate(461.354375 318.255394)scale(0.08 -0.08)">
      <use xlink:href="#DejaVuSans-83"/>
      <use x="63.476562" xlink:href="#DejaVuSans-102"/>
      <use x="98.681641" xlink:href="#DejaVuSans-117"/>
      <use x="162.060547" xlink:href="#DejaVuSans-45"/>
      <use x="198.113281" xlink:href="#DejaVuSans-65"/>
      <use x="266.521484" xlink:href="#DejaVuSans-66"/>
      <use x="335.125" xlink:href="#DejaVuSans-97"/>
      <use x="396.404297" xlink:href="#DejaVuSans-105"/>
      <use x="424.1875" xlink:href="#DejaVuSans-95"/>
      <use x="474.1875" xlink:href="#DejaVuSans-48"/>
      <use x="537.810547" xlink:href="#DejaVuSans-49"/>
      <use x="601.433594" xlink:href="#DejaVuSans-48"/>
      <use x="665.056641" xlink:href="#DejaVuSans-45"/>
      <use x="701.140625" xlink:href="#DejaVuSans-69"/>
      <use x="764.324219" xlink:href="#DejaVuSans-120"/>
      <use x="823.503906" xlink:href="#DejaVuSans-49"/>
      <use x="887.126953" xlink:href="#DejaVuSans-45"/>
      <use x="923.210938" xlink:href="#DejaVuSans-49"/>
      <use x="986.833984" xlink:href="#DejaVuSans-70"/>
      <use x="1044.353516" xlink:href="#DejaVuSans-45"/>
      <use x="1080.4375" xlink:href="#DejaVuSans-108"/>
      <use x="1108.220703" xlink:href="#DejaVuSans-99"/>
      <use x="1163.201172" xlink:href="#DejaVuSans-119"/>
      <use x="1244.988281" xlink:href="#DejaVuSans-103"/>
      <use x="1308.464844" xlink:href="#DejaVuSans-115"/>
      <use x="1360.564453" xlink:href="#DejaVuSans-45"/>
      <use x="1396.648438" xlink:href="#DejaVuSans-49"/>
      <use x="1460.271484" xlink:href="#DejaVuSans-45"/>
      <use x="1496.355469" xlink:href="#DejaVuSans-49"/>
     </g>
    </g>
    <g id="line2d_28">
     <path d="M 637.578125 303.490394 
L 653.578125 303.490394 
" style="fill:none;stroke:#e4d354;stroke-linecap:square;"/>
    </g>
    <g id="line2d_29"/>
    <g id="text_24">
     <!-- Sfu-ABai_011-Ex1-1G-lcwgs-1-1 -->
     <defs>
      <path d="M 59.515625 10.40625 
L 59.515625 29.984375 
L 43.40625 29.984375 
L 43.40625 38.09375 
L 69.28125 38.09375 
L 69.28125 6.78125 
Q 63.578125 2.734375 56.6875 0.65625 
Q 49.8125 -1.421875 42 -1.421875 
Q 24.90625 -1.421875 15.25 8.5625 
Q 5.609375 18.5625 5.609375 36.375 
Q 5.609375 54.25 15.25 64.234375 
Q 24.90625 74.21875 42 74.21875 
Q 49.125 74.21875 55.546875 72.453125 
Q 61.96875 70.703125 67.390625 67.28125 
L 67.390625 56.78125 
Q 61.921875 61.421875 55.765625 63.765625 
Q 49.609375 66.109375 42.828125 66.109375 
Q 29.4375 66.109375 22.71875 58.640625 
Q 16.015625 51.171875 16.015625 36.375 
Q 16.015625 21.625 22.71875 14.15625 
Q 29.4375 6.6875 42.828125 6.6875 
Q 48.046875 6.6875 52.140625 7.59375 
Q 56.25 8.5 59.515625 10.40625 
z
" id="DejaVuSans-71"/>
     </defs>
     <g transform="translate(659.978125 306.290394)scale(0.08 -0.08)">
      <use xlink:href="#DejaVuSans-83"/>
      <use x="63.476562" xlink:href="#DejaVuSans-102"/>
      <use x="98.681641" xlink:href="#DejaVuSans-117"/>
      <use x="162.060547" xlink:href="#DejaVuSans-45"/>
      <use x="198.113281" xlink:href="#DejaVuSans-65"/>
      <use x="266.521484" xlink:href="#DejaVuSans-66"/>
      <use x="335.125" xlink:href="#DejaVuSans-97"/>
      <use x="396.404297" xlink:href="#DejaVuSans-105"/>
      <use x="424.1875" xlink:href="#DejaVuSans-95"/>
      <use x="474.1875" xlink:href="#DejaVuSans-48"/>
      <use x="537.810547" xlink:href="#DejaVuSans-49"/>
      <use x="601.433594" xlink:href="#DejaVuSans-49"/>
      <use x="665.056641" xlink:href="#DejaVuSans-45"/>
      <use x="701.140625" xlink:href="#DejaVuSans-69"/>
      <use x="764.324219" xlink:href="#DejaVuSans-120"/>
      <use x="823.503906" xlink:href="#DejaVuSans-49"/>
      <use x="887.126953" xlink:href="#DejaVuSans-45"/>
      <use x="923.210938" xlink:href="#DejaVuSans-49"/>
      <use x="986.833984" xlink:href="#DejaVuSans-71"/>
      <use x="1064.324219" xlink:href="#DejaVuSans-45"/>
      <use x="1100.408203" xlink:href="#DejaVuSans-108"/>
      <use x="1128.191406" xlink:href="#DejaVuSans-99"/>
      <use x="1183.171875" xlink:href="#DejaVuSans-119"/>
      <use x="1264.958984" xlink:href="#DejaVuSans-103"/>
      <use x="1328.435547" xlink:href="#DejaVuSans-115"/>
      <use x="1380.535156" xlink:href="#DejaVuSans-45"/>
      <use x="1416.619141" xlink:href="#DejaVuSans-49"/>
      <use x="1480.242188" xlink:href="#DejaVuSans-45"/>
      <use x="1516.326172" xlink:href="#DejaVuSans-49"/>
     </g>
    </g>
    <g id="line2d_30">
     <path d="M 837.345625 303.490394 
L 853.345625 303.490394 
" style="fill:none;stroke:#2b908f;stroke-linecap:square;"/>
    </g>
    <g id="line2d_31"/>
    <g id="text_25">
     <!-- Sfu-ABai_012-Ex1-1H-lcwgs-1-1 -->
     <defs>
      <path d="M 9.8125 72.90625 
L 19.671875 72.90625 
L 19.671875 43.015625 
L 55.515625 43.015625 
L 55.515625 72.90625 
L 65.375 72.90625 
L 65.375 0 
L 55.515625 0 
L 55.515625 34.71875 
L 19.671875 34.71875 
L 19.671875 0 
L 9.8125 0 
z
" id="DejaVuSans-72"/>
     </defs>
     <g transform="translate(859.745625 306.290394)scale(0.08 -0.08)">
      <use xlink:href="#DejaVuSans-83"/>
      <use x="63.476562" xlink:href="#DejaVuSans-102"/>
      <use x="98.681641" xlink:href="#DejaVuSans-117"/>
      <use x="162.060547" xlink:href="#DejaVuSans-45"/>
      <use x="198.113281" xlink:href="#DejaVuSans-65"/>
      <use x="266.521484" xlink:href="#DejaVuSans-66"/>
      <use x="335.125" xlink:href="#DejaVuSans-97"/>
      <use x="396.404297" xlink:href="#DejaVuSans-105"/>
      <use x="424.1875" xlink:href="#DejaVuSans-95"/>
      <use x="474.1875" xlink:href="#DejaVuSans-48"/>
      <use x="537.810547" xlink:href="#DejaVuSans-49"/>
      <use x="601.433594" xlink:href="#DejaVuSans-50"/>
      <use x="665.056641" xlink:href="#DejaVuSans-45"/>
      <use x="701.140625" xlink:href="#DejaVuSans-69"/>
      <use x="764.324219" xlink:href="#DejaVuSans-120"/>
      <use x="823.503906" xlink:href="#DejaVuSans-49"/>
      <use x="887.126953" xlink:href="#DejaVuSans-45"/>
      <use x="923.210938" xlink:href="#DejaVuSans-49"/>
      <use x="986.833984" xlink:href="#DejaVuSans-72"/>
      <use x="1062.029297" xlink:href="#DejaVuSans-45"/>
      <use x="1098.113281" xlink:href="#DejaVuSans-108"/>
      <use x="1125.896484" xlink:href="#DejaVuSans-99"/>
      <use x="1180.876953" xlink:href="#DejaVuSans-119"/>
      <use x="1262.664062" xlink:href="#DejaVuSans-103"/>
      <use x="1326.140625" xlink:href="#DejaVuSans-115"/>
      <use x="1378.240234" xlink:href="#DejaVuSans-45"/>
      <use x="1414.324219" xlink:href="#DejaVuSans-49"/>
      <use x="1477.947266" xlink:href="#DejaVuSans-45"/>
      <use x="1514.03125" xlink:href="#DejaVuSans-49"/>
     </g>
    </g>
   </g>
  </g>
 </g>
 <defs>
  <clipPath id="p036bd44bd6">
   <rect height="242.5072" width="960.19" x="32.968125" y="31.48286"/>
  </clipPath>
 </defs>
</svg>
