<?xml version="1.0" encoding="utf-8" standalone="no"?>
<!DOCTYPE svg PUBLIC "-//W3C//DTD SVG 1.1//EN"
  "http://www.w3.org/Graphics/SVG/1.1/DTD/svg11.dtd">
<!-- Created with matplotlib (https://matplotlib.org/) -->
<svg height="330.541644pt" version="1.1" viewBox="0 0 1000.278125 330.541644" width="1000.278125pt" xmlns="http://www.w3.org/2000/svg" xmlns:xlink="http://www.w3.org/1999/xlink">
 <defs>
  <style type="text/css">
*{stroke-linecap:butt;stroke-linejoin:round;}
  </style>
 </defs>
 <g id="figure_1">
  <g id="axes_1">
   <g id="patch_1">
    <path d="M 43.148125 273.99006 
L 993.078125 273.99006 
L 993.078125 31.48286 
L 43.148125 31.48286 
z
" style="fill:#ffffff;"/>
   </g>
   <g id="matplotlib.axis_1">
    <g id="xtick_1">
     <g id="text_1">
      <!-- 0 -->
      <defs>
       <path d="M 31.78125 66.40625 
Q 24.171875 66.40625 20.328125 58.90625 
Q 16.5 51.421875 16.5 36.375 
Q 16.5 21.390625 20.328125 13.890625 
Q 24.171875 6.390625 31.78125 6.390625 
Q 39.453125 6.390625 43.28125 13.890625 
Q 47.125 21.390625 47.125 36.375 
Q 47.125 51.421875 43.28125 58.90625 
Q 39.453125 66.40625 31.78125 66.40625 
z
M 31.78125 74.21875 
Q 44.046875 74.21875 50.515625 64.515625 
Q 56.984375 54.828125 56.984375 36.375 
Q 56.984375 17.96875 50.515625 8.265625 
Q 44.046875 -1.421875 31.78125 -1.421875 
Q 19.53125 -1.421875 13.0625 8.265625 
Q 6.59375 17.96875 6.59375 36.375 
Q 6.59375 54.828125 13.0625 64.515625 
Q 19.53125 74.21875 31.78125 74.21875 
z
" id="DejaVuSans-48"/>
      </defs>
      <g transform="translate(77.985971 287.06881)scale(0.08 -0.08)">
       <use xlink:href="#DejaVuSans-48"/>
      </g>
     </g>
    </g>
    <g id="xtick_2">
     <g id="text_2">
      <!-- 20 -->
      <defs>
       <path d="M 19.1875 8.296875 
L 53.609375 8.296875 
L 53.609375 0 
L 7.328125 0 
L 7.328125 8.296875 
Q 12.9375 14.109375 22.625 23.890625 
Q 32.328125 33.6875 34.8125 36.53125 
Q 39.546875 41.84375 41.421875 45.53125 
Q 43.3125 49.21875 43.3125 52.78125 
Q 43.3125 58.59375 39.234375 62.25 
Q 35.15625 65.921875 28.609375 65.921875 
Q 23.96875 65.921875 18.8125 64.3125 
Q 13.671875 62.703125 7.8125 59.421875 
L 7.8125 69.390625 
Q 13.765625 71.78125 18.9375 73 
Q 24.125 74.21875 28.421875 74.21875 
Q 39.75 74.21875 46.484375 68.546875 
Q 53.21875 62.890625 53.21875 53.421875 
Q 53.21875 48.921875 51.53125 44.890625 
Q 49.859375 40.875 45.40625 35.40625 
Q 44.1875 33.984375 37.640625 27.21875 
Q 31.109375 20.453125 19.1875 8.296875 
z
" id="DejaVuSans-50"/>
      </defs>
      <g transform="translate(191.356774 287.06881)scale(0.08 -0.08)">
       <use xlink:href="#DejaVuSans-50"/>
       <use x="63.623047" xlink:href="#DejaVuSans-48"/>
      </g>
     </g>
    </g>
    <g id="xtick_3">
     <g id="text_3">
      <!-- 40 -->
      <defs>
       <path d="M 37.796875 64.3125 
L 12.890625 25.390625 
L 37.796875 25.390625 
z
M 35.203125 72.90625 
L 47.609375 72.90625 
L 47.609375 25.390625 
L 58.015625 25.390625 
L 58.015625 17.1875 
L 47.609375 17.1875 
L 47.609375 0 
L 37.796875 0 
L 37.796875 17.1875 
L 4.890625 17.1875 
L 4.890625 26.703125 
z
" id="DejaVuSans-52"/>
      </defs>
      <g transform="translate(307.272576 287.06881)scale(0.08 -0.08)">
       <use xlink:href="#DejaVuSans-52"/>
       <use x="63.623047" xlink:href="#DejaVuSans-48"/>
      </g>
     </g>
    </g>
    <g id="xtick_4">
     <g id="text_4">
      <!-- 60 -->
      <defs>
       <path d="M 33.015625 40.375 
Q 26.375 40.375 22.484375 35.828125 
Q 18.609375 31.296875 18.609375 23.390625 
Q 18.609375 15.53125 22.484375 10.953125 
Q 26.375 6.390625 33.015625 6.390625 
Q 39.65625 6.390625 43.53125 10.953125 
Q 47.40625 15.53125 47.40625 23.390625 
Q 47.40625 31.296875 43.53125 35.828125 
Q 39.65625 40.375 33.015625 40.375 
z
M 52.59375 71.296875 
L 52.59375 62.3125 
Q 48.875 64.0625 45.09375 64.984375 
Q 41.3125 65.921875 37.59375 65.921875 
Q 27.828125 65.921875 22.671875 59.328125 
Q 17.53125 52.734375 16.796875 39.40625 
Q 19.671875 43.65625 24.015625 45.921875 
Q 28.375 48.1875 33.59375 48.1875 
Q 44.578125 48.1875 50.953125 41.515625 
Q 57.328125 34.859375 57.328125 23.390625 
Q 57.328125 12.15625 50.6875 5.359375 
Q 44.046875 -1.421875 33.015625 -1.421875 
Q 20.359375 -1.421875 13.671875 8.265625 
Q 6.984375 17.96875 6.984375 36.375 
Q 6.984375 53.65625 15.1875 63.9375 
Q 23.390625 74.21875 37.203125 74.21875 
Q 40.921875 74.21875 44.703125 73.484375 
Q 48.484375 72.75 52.59375 71.296875 
z
" id="DejaVuSans-54"/>
      </defs>
      <g transform="translate(423.188378 287.06881)scale(0.08 -0.08)">
       <use xlink:href="#DejaVuSans-54"/>
       <use x="63.623047" xlink:href="#DejaVuSans-48"/>
      </g>
     </g>
    </g>
    <g id="xtick_5">
     <g id="text_5">
      <!-- 80 -->
      <defs>
       <path d="M 31.78125 34.625 
Q 24.75 34.625 20.71875 30.859375 
Q 16.703125 27.09375 16.703125 20.515625 
Q 16.703125 13.921875 20.71875 10.15625 
Q 24.75 6.390625 31.78125 6.390625 
Q 38.8125 6.390625 42.859375 10.171875 
Q 46.921875 13.96875 46.921875 20.515625 
Q 46.921875 27.09375 42.890625 30.859375 
Q 38.875 34.625 31.78125 34.625 
z
M 21.921875 38.8125 
Q 15.578125 40.375 12.03125 44.71875 
Q 8.5 49.078125 8.5 55.328125 
Q 8.5 64.0625 14.71875 69.140625 
Q 20.953125 74.21875 31.78125 74.21875 
Q 42.671875 74.21875 48.875 69.140625 
Q 55.078125 64.0625 55.078125 55.328125 
Q 55.078125 49.078125 51.53125 44.71875 
Q 48 40.375 41.703125 38.8125 
Q 48.828125 37.15625 52.796875 32.3125 
Q 56.78125 27.484375 56.78125 20.515625 
Q 56.78125 9.90625 50.3125 4.234375 
Q 43.84375 -1.421875 31.78125 -1.421875 
Q 19.734375 -1.421875 13.25 4.234375 
Q 6.78125 9.90625 6.78125 20.515625 
Q 6.78125 27.484375 10.78125 32.3125 
Q 14.796875 37.15625 21.921875 38.8125 
z
M 18.3125 54.390625 
Q 18.3125 48.734375 21.84375 45.5625 
Q 25.390625 42.390625 31.78125 42.390625 
Q 38.140625 42.390625 41.71875 45.5625 
Q 45.3125 48.734375 45.3125 54.390625 
Q 45.3125 60.0625 41.71875 63.234375 
Q 38.140625 66.40625 31.78125 66.40625 
Q 25.390625 66.40625 21.84375 63.234375 
Q 18.3125 60.0625 18.3125 54.390625 
z
" id="DejaVuSans-56"/>
      </defs>
      <g transform="translate(539.104181 287.06881)scale(0.08 -0.08)">
       <use xlink:href="#DejaVuSans-56"/>
       <use x="63.623047" xlink:href="#DejaVuSans-48"/>
      </g>
     </g>
    </g>
    <g id="xtick_6">
     <g id="text_6">
      <!-- 100 -->
      <defs>
       <path d="M 12.40625 8.296875 
L 28.515625 8.296875 
L 28.515625 63.921875 
L 10.984375 60.40625 
L 10.984375 69.390625 
L 28.421875 72.90625 
L 38.28125 72.90625 
L 38.28125 8.296875 
L 54.390625 8.296875 
L 54.390625 0 
L 12.40625 0 
z
" id="DejaVuSans-49"/>
      </defs>
      <g transform="translate(652.474983 287.06881)scale(0.08 -0.08)">
       <use xlink:href="#DejaVuSans-49"/>
       <use x="63.623047" xlink:href="#DejaVuSans-48"/>
       <use x="127.246094" xlink:href="#DejaVuSans-48"/>
      </g>
     </g>
    </g>
    <g id="xtick_7">
     <g id="text_7">
      <!-- 120 -->
      <g transform="translate(768.390785 287.06881)scale(0.08 -0.08)">
       <use xlink:href="#DejaVuSans-49"/>
       <use x="63.623047" xlink:href="#DejaVuSans-50"/>
       <use x="127.246094" xlink:href="#DejaVuSans-48"/>
      </g>
     </g>
    </g>
    <g id="xtick_8">
     <g id="text_8">
      <!-- 140 -->
      <g transform="translate(884.306587 287.06881)scale(0.08 -0.08)">
       <use xlink:href="#DejaVuSans-49"/>
       <use x="63.623047" xlink:href="#DejaVuSans-52"/>
       <use x="127.246094" xlink:href="#DejaVuSans-48"/>
      </g>
     </g>
    </g>
    <g id="text_9">
     <!-- Read Position -->
     <defs>
      <path d="M 44.390625 34.1875 
Q 47.5625 33.109375 50.5625 29.59375 
Q 53.5625 26.078125 56.59375 19.921875 
L 66.609375 0 
L 56 0 
L 46.6875 18.703125 
Q 43.0625 26.03125 39.671875 28.421875 
Q 36.28125 30.8125 30.421875 30.8125 
L 19.671875 30.8125 
L 19.671875 0 
L 9.8125 0 
L 9.8125 72.90625 
L 32.078125 72.90625 
Q 44.578125 72.90625 50.734375 67.671875 
Q 56.890625 62.453125 56.890625 51.90625 
Q 56.890625 45.015625 53.6875 40.46875 
Q 50.484375 35.9375 44.390625 34.1875 
z
M 19.671875 64.796875 
L 19.671875 38.921875 
L 32.078125 38.921875 
Q 39.203125 38.921875 42.84375 42.21875 
Q 46.484375 45.515625 46.484375 51.90625 
Q 46.484375 58.296875 42.84375 61.546875 
Q 39.203125 64.796875 32.078125 64.796875 
z
" id="DejaVuSans-82"/>
      <path d="M 56.203125 29.59375 
L 56.203125 25.203125 
L 14.890625 25.203125 
Q 15.484375 15.921875 20.484375 11.0625 
Q 25.484375 6.203125 34.421875 6.203125 
Q 39.59375 6.203125 44.453125 7.46875 
Q 49.3125 8.734375 54.109375 11.28125 
L 54.109375 2.78125 
Q 49.265625 0.734375 44.1875 -0.34375 
Q 39.109375 -1.421875 33.890625 -1.421875 
Q 20.796875 -1.421875 13.15625 6.1875 
Q 5.515625 13.8125 5.515625 26.8125 
Q 5.515625 40.234375 12.765625 48.109375 
Q 20.015625 56 32.328125 56 
Q 43.359375 56 49.78125 48.890625 
Q 56.203125 41.796875 56.203125 29.59375 
z
M 47.21875 32.234375 
Q 47.125 39.59375 43.09375 43.984375 
Q 39.0625 48.390625 32.421875 48.390625 
Q 24.90625 48.390625 20.390625 44.140625 
Q 15.875 39.890625 15.1875 32.171875 
z
" id="DejaVuSans-101"/>
      <path d="M 34.28125 27.484375 
Q 23.390625 27.484375 19.1875 25 
Q 14.984375 22.515625 14.984375 16.5 
Q 14.984375 11.71875 18.140625 8.90625 
Q 21.296875 6.109375 26.703125 6.109375 
Q 34.1875 6.109375 38.703125 11.40625 
Q 43.21875 16.703125 43.21875 25.484375 
L 43.21875 27.484375 
z
M 52.203125 31.203125 
L 52.203125 0 
L 43.21875 0 
L 43.21875 8.296875 
Q 40.140625 3.328125 35.546875 0.953125 
Q 30.953125 -1.421875 24.3125 -1.421875 
Q 15.921875 -1.421875 10.953125 3.296875 
Q 6 8.015625 6 15.921875 
Q 6 25.140625 12.171875 29.828125 
Q 18.359375 34.515625 30.609375 34.515625 
L 43.21875 34.515625 
L 43.21875 35.40625 
Q 43.21875 41.609375 39.140625 45 
Q 35.0625 48.390625 27.6875 48.390625 
Q 23 48.390625 18.546875 47.265625 
Q 14.109375 46.140625 10.015625 43.890625 
L 10.015625 52.203125 
Q 14.9375 54.109375 19.578125 55.046875 
Q 24.21875 56 28.609375 56 
Q 40.484375 56 46.34375 49.84375 
Q 52.203125 43.703125 52.203125 31.203125 
z
" id="DejaVuSans-97"/>
      <path d="M 45.40625 46.390625 
L 45.40625 75.984375 
L 54.390625 75.984375 
L 54.390625 0 
L 45.40625 0 
L 45.40625 8.203125 
Q 42.578125 3.328125 38.25 0.953125 
Q 33.9375 -1.421875 27.875 -1.421875 
Q 17.96875 -1.421875 11.734375 6.484375 
Q 5.515625 14.40625 5.515625 27.296875 
Q 5.515625 40.1875 11.734375 48.09375 
Q 17.96875 56 27.875 56 
Q 33.9375 56 38.25 53.625 
Q 42.578125 51.265625 45.40625 46.390625 
z
M 14.796875 27.296875 
Q 14.796875 17.390625 18.875 11.75 
Q 22.953125 6.109375 30.078125 6.109375 
Q 37.203125 6.109375 41.296875 11.75 
Q 45.40625 17.390625 45.40625 27.296875 
Q 45.40625 37.203125 41.296875 42.84375 
Q 37.203125 48.484375 30.078125 48.484375 
Q 22.953125 48.484375 18.875 42.84375 
Q 14.796875 37.203125 14.796875 27.296875 
z
" id="DejaVuSans-100"/>
      <path id="DejaVuSans-32"/>
      <path d="M 19.671875 64.796875 
L 19.671875 37.40625 
L 32.078125 37.40625 
Q 38.96875 37.40625 42.71875 40.96875 
Q 46.484375 44.53125 46.484375 51.125 
Q 46.484375 57.671875 42.71875 61.234375 
Q 38.96875 64.796875 32.078125 64.796875 
z
M 9.8125 72.90625 
L 32.078125 72.90625 
Q 44.34375 72.90625 50.609375 67.359375 
Q 56.890625 61.8125 56.890625 51.125 
Q 56.890625 40.328125 50.609375 34.8125 
Q 44.34375 29.296875 32.078125 29.296875 
L 19.671875 29.296875 
L 19.671875 0 
L 9.8125 0 
z
" id="DejaVuSans-80"/>
      <path d="M 30.609375 48.390625 
Q 23.390625 48.390625 19.1875 42.75 
Q 14.984375 37.109375 14.984375 27.296875 
Q 14.984375 17.484375 19.15625 11.84375 
Q 23.34375 6.203125 30.609375 6.203125 
Q 37.796875 6.203125 41.984375 11.859375 
Q 46.1875 17.53125 46.1875 27.296875 
Q 46.1875 37.015625 41.984375 42.703125 
Q 37.796875 48.390625 30.609375 48.390625 
z
M 30.609375 56 
Q 42.328125 56 49.015625 48.375 
Q 55.71875 40.765625 55.71875 27.296875 
Q 55.71875 13.875 49.015625 6.21875 
Q 42.328125 -1.421875 30.609375 -1.421875 
Q 18.84375 -1.421875 12.171875 6.21875 
Q 5.515625 13.875 5.515625 27.296875 
Q 5.515625 40.765625 12.171875 48.375 
Q 18.84375 56 30.609375 56 
z
" id="DejaVuSans-111"/>
      <path d="M 44.28125 53.078125 
L 44.28125 44.578125 
Q 40.484375 46.53125 36.375 47.5 
Q 32.28125 48.484375 27.875 48.484375 
Q 21.1875 48.484375 17.84375 46.4375 
Q 14.5 44.390625 14.5 40.28125 
Q 14.5 37.15625 16.890625 35.375 
Q 19.28125 33.59375 26.515625 31.984375 
L 29.59375 31.296875 
Q 39.15625 29.25 43.1875 25.515625 
Q 47.21875 21.78125 47.21875 15.09375 
Q 47.21875 7.46875 41.1875 3.015625 
Q 35.15625 -1.421875 24.609375 -1.421875 
Q 20.21875 -1.421875 15.453125 -0.5625 
Q 10.6875 0.296875 5.421875 2 
L 5.421875 11.28125 
Q 10.40625 8.6875 15.234375 7.390625 
Q 20.0625 6.109375 24.8125 6.109375 
Q 31.15625 6.109375 34.5625 8.28125 
Q 37.984375 10.453125 37.984375 14.40625 
Q 37.984375 18.0625 35.515625 20.015625 
Q 33.0625 21.96875 24.703125 23.78125 
L 21.578125 24.515625 
Q 13.234375 26.265625 9.515625 29.90625 
Q 5.8125 33.546875 5.8125 39.890625 
Q 5.8125 47.609375 11.28125 51.796875 
Q 16.75 56 26.8125 56 
Q 31.78125 56 36.171875 55.265625 
Q 40.578125 54.546875 44.28125 53.078125 
z
" id="DejaVuSans-115"/>
      <path d="M 9.421875 54.6875 
L 18.40625 54.6875 
L 18.40625 0 
L 9.421875 0 
z
M 9.421875 75.984375 
L 18.40625 75.984375 
L 18.40625 64.59375 
L 9.421875 64.59375 
z
" id="DejaVuSans-105"/>
      <path d="M 18.3125 70.21875 
L 18.3125 54.6875 
L 36.8125 54.6875 
L 36.8125 47.703125 
L 18.3125 47.703125 
L 18.3125 18.015625 
Q 18.3125 11.328125 20.140625 9.421875 
Q 21.96875 7.515625 27.59375 7.515625 
L 36.8125 7.515625 
L 36.8125 0 
L 27.59375 0 
Q 17.1875 0 13.234375 3.875 
Q 9.28125 7.765625 9.28125 18.015625 
L 9.28125 47.703125 
L 2.6875 47.703125 
L 2.6875 54.6875 
L 9.28125 54.6875 
L 9.28125 70.21875 
z
" id="DejaVuSans-116"/>
      <path d="M 54.890625 33.015625 
L 54.890625 0 
L 45.90625 0 
L 45.90625 32.71875 
Q 45.90625 40.484375 42.875 44.328125 
Q 39.84375 48.1875 33.796875 48.1875 
Q 26.515625 48.1875 22.3125 43.546875 
Q 18.109375 38.921875 18.109375 30.90625 
L 18.109375 0 
L 9.078125 0 
L 9.078125 54.6875 
L 18.109375 54.6875 
L 18.109375 46.1875 
Q 21.34375 51.125 25.703125 53.5625 
Q 30.078125 56 35.796875 56 
Q 45.21875 56 50.046875 50.171875 
Q 54.890625 44.34375 54.890625 33.015625 
z
" id="DejaVuSans-110"/>
     </defs>
     <g transform="translate(484.095156 300.330997)scale(0.1 -0.1)">
      <use xlink:href="#DejaVuSans-82"/>
      <use x="69.419922" xlink:href="#DejaVuSans-101"/>
      <use x="130.943359" xlink:href="#DejaVuSans-97"/>
      <use x="192.222656" xlink:href="#DejaVuSans-100"/>
      <use x="255.699219" xlink:href="#DejaVuSans-32"/>
      <use x="287.486328" xlink:href="#DejaVuSans-80"/>
      <use x="347.742188" xlink:href="#DejaVuSans-111"/>
      <use x="408.923828" xlink:href="#DejaVuSans-115"/>
      <use x="461.023438" xlink:href="#DejaVuSans-105"/>
      <use x="488.806641" xlink:href="#DejaVuSans-116"/>
      <use x="528.015625" xlink:href="#DejaVuSans-105"/>
      <use x="555.798828" xlink:href="#DejaVuSans-111"/>
      <use x="616.980469" xlink:href="#DejaVuSans-110"/>
     </g>
    </g>
   </g>
   <g id="matplotlib.axis_2">
    <g id="ytick_1">
     <g id="line2d_1">
      <path clip-path="url(#p26c9b08a7a)" d="M 43.148125 273.99006 
L 993.078125 273.99006 
" style="fill:none;stroke:#dedede;stroke-linecap:square;"/>
     </g>
     <g id="text_10">
      <!-- 0 -->
      <g transform="translate(31.058125 277.029435)scale(0.08 -0.08)">
       <use xlink:href="#DejaVuSans-48"/>
      </g>
     </g>
    </g>
    <g id="ytick_2">
     <g id="line2d_2">
      <path clip-path="url(#p26c9b08a7a)" d="M 43.148125 225.48862 
L 993.078125 225.48862 
" style="fill:none;stroke:#dedede;stroke-linecap:square;"/>
     </g>
     <g id="text_11">
      <!-- 20 -->
      <g transform="translate(25.968125 228.527995)scale(0.08 -0.08)">
       <use xlink:href="#DejaVuSans-50"/>
       <use x="63.623047" xlink:href="#DejaVuSans-48"/>
      </g>
     </g>
    </g>
    <g id="ytick_3">
     <g id="line2d_3">
      <path clip-path="url(#p26c9b08a7a)" d="M 43.148125 176.98718 
L 993.078125 176.98718 
" style="fill:none;stroke:#dedede;stroke-linecap:square;"/>
     </g>
     <g id="text_12">
      <!-- 40 -->
      <g transform="translate(25.968125 180.026555)scale(0.08 -0.08)">
       <use xlink:href="#DejaVuSans-52"/>
       <use x="63.623047" xlink:href="#DejaVuSans-48"/>
      </g>
     </g>
    </g>
    <g id="ytick_4">
     <g id="line2d_4">
      <path clip-path="url(#p26c9b08a7a)" d="M 43.148125 128.48574 
L 993.078125 128.48574 
" style="fill:none;stroke:#dedede;stroke-linecap:square;"/>
     </g>
     <g id="text_13">
      <!-- 60 -->
      <g transform="translate(25.968125 131.525115)scale(0.08 -0.08)">
       <use xlink:href="#DejaVuSans-54"/>
       <use x="63.623047" xlink:href="#DejaVuSans-48"/>
      </g>
     </g>
    </g>
    <g id="ytick_5">
     <g id="line2d_5">
      <path clip-path="url(#p26c9b08a7a)" d="M 43.148125 79.9843 
L 993.078125 79.9843 
" style="fill:none;stroke:#dedede;stroke-linecap:square;"/>
     </g>
     <g id="text_14">
      <!-- 80 -->
      <g transform="translate(25.968125 83.023675)scale(0.08 -0.08)">
       <use xlink:href="#DejaVuSans-56"/>
       <use x="63.623047" xlink:href="#DejaVuSans-48"/>
      </g>
     </g>
    </g>
    <g id="ytick_6">
     <g id="line2d_6">
      <path clip-path="url(#p26c9b08a7a)" d="M 43.148125 31.48286 
L 993.078125 31.48286 
" style="fill:none;stroke:#dedede;stroke-linecap:square;"/>
     </g>
     <g id="text_15">
      <!-- 100 -->
      <g transform="translate(20.878125 34.522235)scale(0.08 -0.08)">
       <use xlink:href="#DejaVuSans-49"/>
       <use x="63.623047" xlink:href="#DejaVuSans-48"/>
       <use x="127.246094" xlink:href="#DejaVuSans-48"/>
      </g>
     </g>
    </g>
    <g id="text_16">
     <!-- R1 After filtering: Base Content Percent -->
     <defs>
      <path d="M 34.1875 63.1875 
L 20.796875 26.90625 
L 47.609375 26.90625 
z
M 28.609375 72.90625 
L 39.796875 72.90625 
L 67.578125 0 
L 57.328125 0 
L 50.6875 18.703125 
L 17.828125 18.703125 
L 11.1875 0 
L 0.78125 0 
z
" id="DejaVuSans-65"/>
      <path d="M 37.109375 75.984375 
L 37.109375 68.5 
L 28.515625 68.5 
Q 23.6875 68.5 21.796875 66.546875 
Q 19.921875 64.59375 19.921875 59.515625 
L 19.921875 54.6875 
L 34.71875 54.6875 
L 34.71875 47.703125 
L 19.921875 47.703125 
L 19.921875 0 
L 10.890625 0 
L 10.890625 47.703125 
L 2.296875 47.703125 
L 2.296875 54.6875 
L 10.890625 54.6875 
L 10.890625 58.5 
Q 10.890625 67.625 15.140625 71.796875 
Q 19.390625 75.984375 28.609375 75.984375 
z
" id="DejaVuSans-102"/>
      <path d="M 41.109375 46.296875 
Q 39.59375 47.171875 37.8125 47.578125 
Q 36.03125 48 33.890625 48 
Q 26.265625 48 22.1875 43.046875 
Q 18.109375 38.09375 18.109375 28.8125 
L 18.109375 0 
L 9.078125 0 
L 9.078125 54.6875 
L 18.109375 54.6875 
L 18.109375 46.1875 
Q 20.953125 51.171875 25.484375 53.578125 
Q 30.03125 56 36.53125 56 
Q 37.453125 56 38.578125 55.875 
Q 39.703125 55.765625 41.0625 55.515625 
z
" id="DejaVuSans-114"/>
      <path d="M 9.421875 75.984375 
L 18.40625 75.984375 
L 18.40625 0 
L 9.421875 0 
z
" id="DejaVuSans-108"/>
      <path d="M 45.40625 27.984375 
Q 45.40625 37.75 41.375 43.109375 
Q 37.359375 48.484375 30.078125 48.484375 
Q 22.859375 48.484375 18.828125 43.109375 
Q 14.796875 37.75 14.796875 27.984375 
Q 14.796875 18.265625 18.828125 12.890625 
Q 22.859375 7.515625 30.078125 7.515625 
Q 37.359375 7.515625 41.375 12.890625 
Q 45.40625 18.265625 45.40625 27.984375 
z
M 54.390625 6.78125 
Q 54.390625 -7.171875 48.1875 -13.984375 
Q 42 -20.796875 29.203125 -20.796875 
Q 24.46875 -20.796875 20.265625 -20.09375 
Q 16.0625 -19.390625 12.109375 -17.921875 
L 12.109375 -9.1875 
Q 16.0625 -11.328125 19.921875 -12.34375 
Q 23.78125 -13.375 27.78125 -13.375 
Q 36.625 -13.375 41.015625 -8.765625 
Q 45.40625 -4.15625 45.40625 5.171875 
L 45.40625 9.625 
Q 42.625 4.78125 38.28125 2.390625 
Q 33.9375 0 27.875 0 
Q 17.828125 0 11.671875 7.65625 
Q 5.515625 15.328125 5.515625 27.984375 
Q 5.515625 40.671875 11.671875 48.328125 
Q 17.828125 56 27.875 56 
Q 33.9375 56 38.28125 53.609375 
Q 42.625 51.21875 45.40625 46.390625 
L 45.40625 54.6875 
L 54.390625 54.6875 
z
" id="DejaVuSans-103"/>
      <path d="M 11.71875 12.40625 
L 22.015625 12.40625 
L 22.015625 0 
L 11.71875 0 
z
M 11.71875 51.703125 
L 22.015625 51.703125 
L 22.015625 39.3125 
L 11.71875 39.3125 
z
" id="DejaVuSans-58"/>
      <path d="M 19.671875 34.8125 
L 19.671875 8.109375 
L 35.5 8.109375 
Q 43.453125 8.109375 47.28125 11.40625 
Q 51.125 14.703125 51.125 21.484375 
Q 51.125 28.328125 47.28125 31.5625 
Q 43.453125 34.8125 35.5 34.8125 
z
M 19.671875 64.796875 
L 19.671875 42.828125 
L 34.28125 42.828125 
Q 41.5 42.828125 45.03125 45.53125 
Q 48.578125 48.25 48.578125 53.8125 
Q 48.578125 59.328125 45.03125 62.0625 
Q 41.5 64.796875 34.28125 64.796875 
z
M 9.8125 72.90625 
L 35.015625 72.90625 
Q 46.296875 72.90625 52.390625 68.21875 
Q 58.5 63.53125 58.5 54.890625 
Q 58.5 48.1875 55.375 44.234375 
Q 52.25 40.28125 46.1875 39.3125 
Q 53.46875 37.75 57.5 32.78125 
Q 61.53125 27.828125 61.53125 20.40625 
Q 61.53125 10.640625 54.890625 5.3125 
Q 48.25 0 35.984375 0 
L 9.8125 0 
z
" id="DejaVuSans-66"/>
      <path d="M 64.40625 67.28125 
L 64.40625 56.890625 
Q 59.421875 61.53125 53.78125 63.8125 
Q 48.140625 66.109375 41.796875 66.109375 
Q 29.296875 66.109375 22.65625 58.46875 
Q 16.015625 50.828125 16.015625 36.375 
Q 16.015625 21.96875 22.65625 14.328125 
Q 29.296875 6.6875 41.796875 6.6875 
Q 48.140625 6.6875 53.78125 8.984375 
Q 59.421875 11.28125 64.40625 15.921875 
L 64.40625 5.609375 
Q 59.234375 2.09375 53.4375 0.328125 
Q 47.65625 -1.421875 41.21875 -1.421875 
Q 24.65625 -1.421875 15.125 8.703125 
Q 5.609375 18.84375 5.609375 36.375 
Q 5.609375 53.953125 15.125 64.078125 
Q 24.65625 74.21875 41.21875 74.21875 
Q 47.75 74.21875 53.53125 72.484375 
Q 59.328125 70.75 64.40625 67.28125 
z
" id="DejaVuSans-67"/>
      <path d="M 48.78125 52.59375 
L 48.78125 44.1875 
Q 44.96875 46.296875 41.140625 47.34375 
Q 37.3125 48.390625 33.40625 48.390625 
Q 24.65625 48.390625 19.8125 42.84375 
Q 14.984375 37.3125 14.984375 27.296875 
Q 14.984375 17.28125 19.8125 11.734375 
Q 24.65625 6.203125 33.40625 6.203125 
Q 37.3125 6.203125 41.140625 7.25 
Q 44.96875 8.296875 48.78125 10.40625 
L 48.78125 2.09375 
Q 45.015625 0.34375 40.984375 -0.53125 
Q 36.96875 -1.421875 32.421875 -1.421875 
Q 20.0625 -1.421875 12.78125 6.34375 
Q 5.515625 14.109375 5.515625 27.296875 
Q 5.515625 40.671875 12.859375 48.328125 
Q 20.21875 56 33.015625 56 
Q 37.15625 56 41.109375 55.140625 
Q 45.0625 54.296875 48.78125 52.59375 
z
" id="DejaVuSans-99"/>
     </defs>
     <g transform="translate(14.798438 251.812241)rotate(-90)scale(0.1 -0.1)">
      <use xlink:href="#DejaVuSans-82"/>
      <use x="69.482422" xlink:href="#DejaVuSans-49"/>
      <use x="133.105469" xlink:href="#DejaVuSans-32"/>
      <use x="164.892578" xlink:href="#DejaVuSans-65"/>
      <use x="233.253906" xlink:href="#DejaVuSans-102"/>
      <use x="268.443359" xlink:href="#DejaVuSans-116"/>
      <use x="307.652344" xlink:href="#DejaVuSans-101"/>
      <use x="369.175781" xlink:href="#DejaVuSans-114"/>
      <use x="410.289062" xlink:href="#DejaVuSans-32"/>
      <use x="442.076172" xlink:href="#DejaVuSans-102"/>
      <use x="477.28125" xlink:href="#DejaVuSans-105"/>
      <use x="505.064453" xlink:href="#DejaVuSans-108"/>
      <use x="532.847656" xlink:href="#DejaVuSans-116"/>
      <use x="572.056641" xlink:href="#DejaVuSans-101"/>
      <use x="633.580078" xlink:href="#DejaVuSans-114"/>
      <use x="674.693359" xlink:href="#DejaVuSans-105"/>
      <use x="702.476562" xlink:href="#DejaVuSans-110"/>
      <use x="765.855469" xlink:href="#DejaVuSans-103"/>
      <use x="829.332031" xlink:href="#DejaVuSans-58"/>
      <use x="863.023438" xlink:href="#DejaVuSans-32"/>
      <use x="894.810547" xlink:href="#DejaVuSans-66"/>
      <use x="963.414062" xlink:href="#DejaVuSans-97"/>
      <use x="1024.693359" xlink:href="#DejaVuSans-115"/>
      <use x="1076.792969" xlink:href="#DejaVuSans-101"/>
      <use x="1138.316406" xlink:href="#DejaVuSans-32"/>
      <use x="1170.103516" xlink:href="#DejaVuSans-67"/>
      <use x="1239.927734" xlink:href="#DejaVuSans-111"/>
      <use x="1301.109375" xlink:href="#DejaVuSans-110"/>
      <use x="1364.488281" xlink:href="#DejaVuSans-116"/>
      <use x="1403.697266" xlink:href="#DejaVuSans-101"/>
      <use x="1465.220703" xlink:href="#DejaVuSans-110"/>
      <use x="1528.599609" xlink:href="#DejaVuSans-116"/>
      <use x="1567.808594" xlink:href="#DejaVuSans-32"/>
      <use x="1599.595703" xlink:href="#DejaVuSans-80"/>
      <use x="1659.851562" xlink:href="#DejaVuSans-101"/>
      <use x="1721.375" xlink:href="#DejaVuSans-114"/>
      <use x="1762.457031" xlink:href="#DejaVuSans-99"/>
      <use x="1817.4375" xlink:href="#DejaVuSans-101"/>
      <use x="1878.960938" xlink:href="#DejaVuSans-110"/>
      <use x="1942.339844" xlink:href="#DejaVuSans-116"/>
     </g>
    </g>
   </g>
   <g id="line2d_7">
    <path clip-path="url(#p26c9b08a7a)" d="M 86.326761 145.230135 
L 92.122551 164.647201 
L 97.918342 168.2317 
L 103.714132 170.142899 
L 109.509922 168.005683 
L 115.305712 170.069905 
L 121.101502 169.714632 
L 126.897292 166.98012 
L 132.693082 167.628342 
L 138.488872 168.81978 
L 144.284663 162.407405 
L 150.080453 164.099135 
L 155.876243 163.713063 
L 161.672033 165.36381 
L 167.467823 165.065526 
L 173.263613 165.209333 
L 179.059403 164.595062 
L 184.855193 165.46251 
L 190.650983 164.461198 
L 196.446774 165.375208 
L 202.242564 164.187892 
L 208.038354 166.335536 
L 213.834144 164.513337 
L 219.629934 166.87075 
L 225.425724 165.69362 
L 242.813094 167.152301 
L 248.608885 166.387918 
L 254.404675 167.480413 
L 260.200465 166.797512 
L 265.996255 166.664376 
L 271.792045 166.809153 
L 277.587835 166.573921 
L 283.383625 166.051075 
L 289.179415 166.008637 
L 294.975206 166.438602 
L 300.770996 165.979536 
L 306.566786 166.481283 
L 312.362576 166.405863 
L 318.158366 165.415706 
L 323.954156 167.525762 
L 329.749946 165.376663 
L 335.545736 166.717485 
L 341.341526 166.016154 
L 347.137317 167.759539 
L 352.933107 165.348289 
L 358.728897 166.815943 
L 364.524687 166.305708 
L 370.320477 166.694447 
L 376.116267 166.270787 
L 381.912057 167.321571 
L 387.707847 165.599527 
L 393.503638 167.20541 
L 399.299428 166.12989 
L 405.095218 166.935499 
L 410.891008 166.754104 
L 416.686798 167.428759 
L 422.482588 165.562423 
L 428.278378 166.5293 
L 434.074168 165.696287 
L 439.869958 164.28247 
L 445.665749 165.870892 
L 451.461539 165.400186 
L 457.257329 164.257735 
L 463.053119 166.601324 
L 468.848909 165.747456 
L 474.644699 165.407704 
L 480.440489 165.77389 
L 486.236279 166.8659 
L 492.032069 165.166894 
L 497.82786 166.366335 
L 509.41944 165.008537 
L 515.21523 165.626203 
L 521.01102 166.05641 
L 526.80681 165.025997 
L 532.6026 166.094484 
L 538.39839 165.409886 
L 544.194181 165.192357 
L 549.989971 166.388403 
L 555.785761 165.326949 
L 561.581551 165.897326 
L 567.377341 165.946555 
L 573.173131 165.065284 
L 578.968921 164.592152 
L 584.764711 164.258705 
L 590.560501 164.918082 
L 596.356292 164.302841 
L 602.152082 164.869338 
L 607.947872 165.953345 
L 613.743662 164.93627 
L 619.539452 165.767099 
L 625.335242 165.86871 
L 631.131032 164.472111 
L 636.926822 165.369145 
L 648.518403 164.134783 
L 654.314193 164.892618 
L 660.109983 164.724076 
L 665.905773 163.389801 
L 671.701563 164.868853 
L 677.497353 164.139149 
L 683.293143 163.906342 
L 689.088933 164.530313 
L 694.884724 164.192258 
L 700.680514 163.477831 
L 706.476304 164.009165 
L 712.272094 164.01159 
L 718.067884 163.039136 
L 723.863674 163.907797 
L 729.659464 163.667715 
L 735.455254 162.519685 
L 741.251044 163.621881 
L 747.046835 163.200646 
L 752.842625 161.914145 
L 758.638415 162.888539 
L 764.434205 163.200403 
L 770.229995 161.768156 
L 776.025785 162.74449 
L 781.821575 162.393339 
L 787.617365 161.069977 
L 793.413156 161.511098 
L 799.208946 161.796044 
L 805.004736 160.650682 
L 810.800526 161.414095 
L 816.596316 161.304239 
L 822.392106 160.284497 
L 828.187896 161.030934 
L 833.983686 160.890037 
L 839.779476 159.769169 
L 845.575267 160.922776 
L 851.371057 160.332998 
L 857.166847 158.874317 
L 862.962637 160.248606 
L 868.758427 160.009978 
L 874.554217 158.256894 
L 880.350007 159.980393 
L 886.145797 159.433781 
L 891.941587 158.242343 
L 897.737378 159.215525 
L 903.533168 159.053288 
L 909.328958 157.572296 
L 915.124748 159.025399 
L 926.716328 157.517489 
L 932.512118 158.563908 
L 938.307908 158.010507 
L 944.103699 156.709698 
L 949.899489 157.7971 
L 949.899489 157.7971 
" style="fill:none;stroke:#7cb5ec;stroke-linecap:square;"/>
   </g>
   <g id="line2d_8">
    <path clip-path="url(#p26c9b08a7a)" d="M 86.326761 148.980023 
L 92.122551 168.97644 
L 97.918342 172.811934 
L 103.714132 175.318488 
L 109.509922 173.409956 
L 115.305712 174.941389 
L 121.101502 174.969035 
L 126.897292 172.918152 
L 132.693082 172.840307 
L 138.488872 174.685302 
L 144.284663 167.946027 
L 150.080453 169.682621 
L 155.876243 169.74834 
L 161.672033 170.888124 
L 167.467823 170.863631 
L 173.263613 171.032658 
L 179.059403 170.333025 
L 184.855193 171.280016 
L 190.650983 170.180245 
L 196.446774 171.388174 
L 202.242564 170.235052 
L 208.038354 172.053129 
L 213.834144 170.966939 
L 219.629934 172.562636 
L 225.425724 171.831234 
L 231.221514 172.596102 
L 237.017304 172.174867 
L 242.813094 173.007879 
L 248.608885 172.248589 
L 254.404675 173.236806 
L 260.200465 172.388031 
L 265.996255 172.952345 
L 271.792045 172.761492 
L 277.587835 172.769252 
L 283.383625 172.631751 
L 289.179415 172.081744 
L 294.975206 172.775315 
L 300.770996 172.143826 
L 306.566786 172.441868 
L 312.362576 172.577429 
L 318.158366 172.060161 
L 323.954156 173.335264 
L 329.749946 172.100417 
L 335.545736 173.157506 
L 341.341526 172.480184 
L 347.137317 173.784872 
L 352.933107 172.265565 
L 358.728897 173.298645 
L 364.524687 172.993329 
L 370.320477 173.338174 
L 376.116267 172.821391 
L 381.912057 173.869992 
L 387.707847 172.362568 
L 393.503638 173.533877 
L 399.299428 172.850735 
L 405.095218 173.196065 
L 410.891008 173.156051 
L 416.686798 173.751891 
L 422.482588 172.462481 
L 428.278378 172.960833 
L 434.074168 172.397246 
L 439.869958 171.612735 
L 445.665749 172.320371 
L 451.461539 172.247377 
L 457.257329 171.386719 
L 463.053119 172.787198 
L 468.848909 172.215608 
L 474.644699 172.130973 
L 480.440489 172.330799 
L 486.236279 172.987994 
L 492.032069 171.93527 
L 497.82786 172.667884 
L 503.62365 172.050703 
L 509.41944 171.838752 
L 515.21523 171.945213 
L 521.01102 172.343652 
L 526.80681 171.691793 
L 532.6026 172.113513 
L 538.39839 171.741749 
L 544.194181 171.811834 
L 549.989971 172.145766 
L 561.581551 171.75824 
L 567.377341 172.103813 
L 573.173131 171.19247 
L 578.968921 170.956268 
L 584.764711 170.439001 
L 590.560501 170.991917 
L 596.356292 170.539156 
L 607.947872 171.256492 
L 613.743662 171.019078 
L 625.335242 171.417275 
L 631.131032 170.357761 
L 636.926822 170.961119 
L 642.722612 170.144354 
L 654.314193 170.033529 
L 660.109983 170.265365 
L 665.905773 169.17093 
L 671.701563 170.198676 
L 677.497353 169.461212 
L 689.088933 169.540511 
L 694.884724 169.334623 
L 700.680514 168.821963 
L 706.476304 169.075383 
L 712.272094 168.994385 
L 718.067884 168.543079 
L 729.659464 168.81396 
L 735.455254 167.790822 
L 741.251044 168.468387 
L 747.046835 168.05273 
L 752.842625 167.430699 
L 758.638415 167.620824 
L 764.434205 168.003986 
L 770.229995 167.110832 
L 776.025785 167.528187 
L 781.821575 167.183826 
L 787.617365 166.565918 
L 793.413156 166.512567 
L 799.208946 166.701965 
L 805.004736 165.912119 
L 810.800526 166.268119 
L 816.596316 166.034342 
L 822.392106 165.525077 
L 828.187896 165.885685 
L 833.983686 165.740424 
L 839.779476 165.036425 
L 845.575267 165.715688 
L 851.371057 165.236009 
L 857.166847 164.554806 
L 862.962637 165.022117 
L 868.758427 165.002232 
L 874.554217 164.049663 
L 880.350007 164.917839 
L 891.941587 163.858083 
L 897.737378 164.137694 
L 903.533168 164.153699 
L 909.328958 163.191915 
L 915.124748 164.049178 
L 920.920538 163.563679 
L 926.716328 163.287706 
L 932.512118 163.619213 
L 938.307908 163.283826 
L 944.103699 162.393824 
L 949.899489 163.316807 
L 949.899489 163.316807 
" style="fill:none;stroke:#434348;stroke-linecap:square;"/>
   </g>
   <g id="line2d_9">
    <path clip-path="url(#p26c9b08a7a)" d="M 86.326761 151.96262 
L 92.122551 171.399814 
L 97.918342 173.635003 
L 103.714132 176.523749 
L 109.509922 174.970005 
L 115.305712 176.40492 
L 121.101502 176.351811 
L 126.897292 174.529855 
L 132.693082 174.923929 
L 138.488872 175.022144 
L 144.284663 169.780836 
L 150.080453 171.396177 
L 155.876243 171.385749 
L 161.672033 172.316249 
L 167.467823 172.44987 
L 173.263613 172.347532 
L 179.059403 171.976739 
L 184.855193 172.495462 
L 190.650983 171.734474 
L 196.446774 172.632236 
L 202.242564 171.518158 
L 208.038354 173.229046 
L 213.834144 172.383666 
L 219.629934 173.851562 
L 225.425724 173.315621 
L 231.221514 173.923829 
L 237.017304 173.724973 
L 242.813094 174.180402 
L 248.608885 173.894486 
L 254.404675 174.476988 
L 260.200465 173.737099 
L 265.996255 174.308688 
L 277.587835 173.911946 
L 283.383625 174.069818 
L 289.179415 173.124525 
L 294.975206 174.244424 
L 300.770996 173.260329 
L 306.566786 173.829009 
L 318.158366 173.283368 
L 323.954156 174.512394 
L 329.749946 173.351027 
L 335.545736 174.423394 
L 341.341526 173.936197 
L 347.137317 175.188262 
L 352.933107 173.660224 
L 358.728897 174.45395 
L 370.320477 174.465833 
L 376.116267 174.184039 
L 381.912057 175.146308 
L 387.707847 173.697085 
L 393.503638 174.823046 
L 399.299428 174.206835 
L 405.095218 174.493478 
L 410.891008 174.581751 
L 416.686798 175.14849 
L 422.482588 173.863687 
L 428.278378 174.19762 
L 434.074168 173.699267 
L 439.869958 172.398459 
L 445.665749 173.496531 
L 451.461539 173.256207 
L 457.257329 172.407674 
L 463.053119 174.128505 
L 468.848909 173.444635 
L 474.644699 173.376248 
L 480.440489 173.63282 
L 486.236279 174.358887 
L 492.032069 173.391768 
L 497.82786 173.837254 
L 503.62365 173.556431 
L 509.41944 173.014185 
L 521.01102 173.663861 
L 526.80681 173.04183 
L 532.6026 173.477131 
L 538.39839 173.185637 
L 544.194181 173.164539 
L 549.989971 173.825129 
L 555.785761 173.229531 
L 567.377341 173.54285 
L 573.173131 172.426347 
L 578.968921 172.253197 
L 584.764711 171.392781 
L 590.560501 172.10163 
L 596.356292 171.922417 
L 602.152082 172.050946 
L 607.947872 172.973443 
L 613.743662 172.440413 
L 619.539452 172.829637 
L 625.335242 172.893901 
L 631.131032 171.697855 
L 636.926822 172.368388 
L 642.722612 171.366106 
L 648.518403 171.154397 
L 654.314193 171.409757 
L 660.109983 171.343067 
L 665.905773 170.096338 
L 671.701563 171.377746 
L 677.497353 170.654832 
L 683.293143 170.401897 
L 689.088933 170.843018 
L 700.680514 169.677285 
L 706.476304 169.992302 
L 712.272094 170.026981 
L 718.067884 169.192271 
L 723.863674 169.636544 
L 729.659464 169.370514 
L 735.455254 168.221272 
L 741.251044 168.994628 
L 747.046835 168.543807 
L 752.842625 167.493023 
L 764.434205 168.367262 
L 770.229995 167.13193 
L 776.025785 167.700852 
L 781.821575 167.244453 
L 787.617365 166.155111 
L 793.413156 166.235381 
L 799.208946 166.484193 
L 805.004736 165.233826 
L 810.800526 165.6279 
L 816.596316 165.486761 
L 822.392106 164.650839 
L 828.187896 164.968766 
L 833.983686 164.923174 
L 839.779476 163.727371 
L 845.575267 164.569599 
L 851.371057 164.099135 
L 857.166847 162.684105 
L 862.962637 163.642494 
L 868.758427 163.286736 
L 874.554217 161.809624 
L 880.350007 163.317777 
L 891.941587 161.658785 
L 897.737378 162.093843 
L 903.533168 162.053829 
L 909.328958 160.72392 
L 915.124748 161.851093 
L 920.920538 161.024629 
L 926.716328 160.426363 
L 932.512118 161.206509 
L 938.307908 160.610426 
L 944.103699 159.336778 
L 949.899489 160.311657 
L 949.899489 160.311657 
" style="fill:none;stroke:#90ed7d;stroke-linecap:square;"/>
   </g>
   <g id="line2d_10">
    <path clip-path="url(#p26c9b08a7a)" d="M 86.326761 148.440445 
L 92.122551 171.77279 
L 97.918342 173.444877 
L 103.714132 176.502166 
L 109.509922 174.044355 
L 115.305712 176.182056 
L 121.101502 176.051102 
L 126.897292 174.646743 
L 132.693082 174.067151 
L 138.488872 175.737055 
L 144.284663 168.721322 
L 150.080453 170.593235 
L 155.876243 170.353396 
L 161.672033 171.801406 
L 167.467823 171.43425 
L 173.263613 172.096537 
L 179.059403 170.882061 
L 184.855193 172.139704 
L 190.650983 170.915042 
L 196.446774 172.225309 
L 202.242564 170.838895 
L 208.038354 172.881533 
L 213.834144 171.670695 
L 219.629934 173.442452 
L 225.425724 172.549541 
L 231.221514 173.439785 
L 237.017304 172.927852 
L 242.813094 173.729823 
L 248.608885 172.921062 
L 254.404675 173.943472 
L 260.200465 172.841034 
L 265.996255 173.672592 
L 271.792045 173.272212 
L 277.587835 173.371883 
L 283.383625 173.255722 
L 289.179415 172.784045 
L 294.975206 173.372125 
L 300.770996 172.892203 
L 306.566786 172.944827 
L 312.362576 173.255722 
L 318.158366 172.567244 
L 323.954156 173.959963 
L 329.749946 172.615988 
L 335.545736 173.922859 
L 341.341526 172.990419 
L 347.137317 174.460255 
L 352.933107 172.857525 
L 358.728897 173.912189 
L 364.524687 173.501624 
L 370.320477 173.862475 
L 376.116267 173.248446 
L 381.912057 174.515547 
L 387.707847 172.896811 
L 393.503638 174.093827 
L 399.299428 173.405349 
L 405.095218 173.830706 
L 410.891008 173.727156 
L 416.686798 174.290015 
L 422.482588 172.995026 
L 428.278378 173.665074 
L 439.869958 172.326192 
L 445.665749 172.977323 
L 451.461539 172.947738 
L 457.257329 172.000989 
L 463.053119 173.540668 
L 468.848909 172.785015 
L 474.644699 172.711778 
L 480.440489 172.812661 
L 486.236279 173.615845 
L 492.032069 172.4295 
L 497.82786 173.195095 
L 503.62365 172.571124 
L 509.41944 172.486974 
L 515.21523 172.560211 
L 521.01102 172.896569 
L 526.80681 172.162499 
L 532.6026 172.688012 
L 538.39839 172.295636 
L 549.989971 172.671522 
L 555.785761 172.5379 
L 561.581551 172.28642 
L 567.377341 172.611865 
L 573.173131 171.676272 
L 578.968921 171.553079 
L 584.764711 170.947053 
L 590.560501 171.492937 
L 596.356292 171.002587 
L 602.152082 171.403209 
L 607.947872 171.618071 
L 613.743662 171.491967 
L 619.539452 171.579269 
L 625.335242 171.805044 
L 631.131032 170.641009 
L 636.926822 171.383566 
L 642.722612 170.586445 
L 648.518403 170.675445 
L 654.314193 170.533093 
L 660.109983 170.76493 
L 665.905773 169.719239 
L 671.701563 170.559284 
L 677.497353 170.026738 
L 683.293143 169.90112 
L 689.088933 170.029891 
L 694.884724 169.9244 
L 700.680514 169.297762 
L 706.476304 169.771378 
L 718.067884 169.107151 
L 729.659464 169.280059 
L 735.455254 168.393695 
L 741.251044 169.117821 
L 747.046835 168.756486 
L 752.842625 168.156038 
L 758.638415 168.38933 
L 764.434205 168.800622 
L 770.229995 167.939964 
L 776.025785 168.334038 
L 787.617365 167.506361 
L 793.413156 167.474108 
L 799.208946 167.705217 
L 805.004736 166.899608 
L 810.800526 167.419543 
L 816.596316 167.180674 
L 822.392106 166.791692 
L 828.187896 166.97721 
L 833.983686 166.985213 
L 839.779476 166.225923 
L 845.575267 166.814003 
L 851.371057 166.54385 
L 857.166847 165.85998 
L 862.962637 166.411684 
L 868.758427 166.333839 
L 874.554217 165.413039 
L 880.350007 166.19755 
L 891.941587 165.477303 
L 903.533168 165.577216 
L 909.328958 164.841207 
L 915.124748 165.593949 
L 926.716328 164.832477 
L 932.512118 165.374238 
L 938.307908 165.060191 
L 944.103699 164.224026 
L 949.899489 165.04467 
L 949.899489 165.04467 
" style="fill:none;stroke:#f7a35c;stroke-linecap:square;"/>
   </g>
   <g id="line2d_11">
    <path clip-path="url(#p26c9b08a7a)" d="M 86.326761 154.839482 
L 92.122551 174.732591 
L 97.918342 174.30311 
L 103.714132 177.75714 
L 109.509922 175.658241 
L 115.305712 177.014341 
L 121.101502 177.624731 
L 126.897292 176.584133 
L 132.693082 176.511623 
L 138.488872 175.489941 
L 144.284663 171.294566 
L 150.080453 172.333709 
L 155.876243 172.594647 
L 167.467823 173.385948 
L 173.263613 173.528542 
L 179.059403 173.390798 
L 184.855193 173.573164 
L 190.650983 173.503079 
L 196.446774 173.646643 
L 202.242564 173.099062 
L 208.038354 174.137963 
L 213.834144 173.557886 
L 219.629934 174.672206 
L 225.425724 174.347247 
L 237.017304 174.834929 
L 242.813094 174.755386 
L 248.608885 174.80413 
L 254.404675 175.077436 
L 260.200465 174.541252 
L 265.996255 174.983586 
L 277.587835 174.681907 
L 283.383625 174.866697 
L 289.179415 174.37271 
L 294.975206 175.246463 
L 300.770996 174.662263 
L 306.566786 174.985283 
L 318.158366 174.594119 
L 323.954156 175.394878 
L 329.749946 174.669539 
L 335.545736 175.297632 
L 341.341526 175.184139 
L 347.137317 176.065895 
L 352.933107 174.992558 
L 358.728897 175.408216 
L 376.116267 175.463992 
L 381.912057 175.935669 
L 387.707847 175.178076 
L 393.503638 175.682249 
L 399.299428 175.436104 
L 416.686798 176.13889 
L 422.482588 175.215422 
L 428.278378 175.634475 
L 434.074168 175.210572 
L 439.869958 174.412239 
L 445.665749 175.107022 
L 451.461539 175.013171 
L 457.257329 174.494448 
L 463.053119 175.658483 
L 468.848909 175.204752 
L 474.644699 175.100959 
L 480.440489 175.237006 
L 486.236279 175.771734 
L 492.032069 175.354137 
L 503.62365 175.546445 
L 509.41944 174.95497 
L 515.21523 175.385905 
L 521.01102 175.428829 
L 526.80681 174.999591 
L 532.6026 175.396575 
L 538.39839 175.387117 
L 544.194181 175.259801 
L 549.989971 175.822903 
L 555.785761 175.292782 
L 561.581551 175.775614 
L 567.377341 175.732205 
L 573.173131 175.035967 
L 578.968921 174.941147 
L 584.764711 174.282012 
L 590.560501 174.947694 
L 596.356292 174.918836 
L 602.152082 174.72289 
L 607.947872 175.691464 
L 613.743662 175.399728 
L 619.539452 175.753788 
L 625.335242 175.930576 
L 631.131032 174.920776 
L 636.926822 175.492851 
L 642.722612 174.979705 
L 648.518403 174.927809 
L 654.314193 175.221728 
L 660.109983 175.162798 
L 665.905773 174.44522 
L 671.701563 175.185109 
L 677.497353 174.668326 
L 683.293143 174.53616 
L 689.088933 175.171529 
L 694.884724 174.567686 
L 706.476304 174.424121 
L 712.272094 174.771877 
L 718.067884 174.196165 
L 723.863674 174.616672 
L 729.659464 174.429457 
L 735.455254 173.77396 
L 741.251044 174.125353 
L 747.046835 173.919464 
L 752.842625 173.344722 
L 758.638415 173.567101 
L 764.434205 174.120745 
L 770.229995 173.292583 
L 776.025785 173.403894 
L 781.821575 173.28458 
L 787.617365 172.304366 
L 799.208946 172.648726 
L 805.004736 171.993472 
L 810.800526 171.92557 
L 816.596316 172.054584 
L 822.392106 171.217206 
L 828.187896 171.308874 
L 833.983686 171.226179 
L 839.779476 170.577715 
L 845.575267 171.120688 
L 851.371057 170.720551 
L 857.166847 169.003358 
L 862.962637 169.859893 
L 868.758427 169.73185 
L 874.554217 168.407518 
L 880.350007 169.596288 
L 886.145797 169.075383 
L 891.941587 167.687029 
L 897.737378 168.246493 
L 903.533168 168.164041 
L 909.328958 166.636488 
L 915.124748 168.063643 
L 920.920538 166.529542 
L 926.716328 166.497046 
L 932.512118 166.855957 
L 938.307908 166.045255 
L 944.103699 164.855272 
L 949.899489 165.868952 
L 949.899489 165.868952 
" style="fill:none;stroke:#8085e9;stroke-linecap:square;"/>
   </g>
   <g id="line2d_12">
    <path clip-path="url(#p26c9b08a7a)" d="M 86.326761 151.075528 
L 92.122551 175.058278 
L 97.918342 174.211685 
L 103.714132 177.943386 
L 109.509922 175.635687 
L 115.305712 177.438971 
L 121.101502 178.130844 
L 126.897292 177.384649 
L 132.693082 177.218532 
L 138.488872 175.890805 
L 144.284663 171.492209 
L 150.080453 172.59392 
L 155.876243 172.705958 
L 167.467823 173.584076 
L 173.263613 173.749466 
L 179.059403 173.670894 
L 184.855193 173.920676 
L 190.650983 173.828524 
L 196.446774 174.012587 
L 202.242564 173.433722 
L 208.038354 174.408601 
L 213.834144 173.851562 
L 219.629934 174.982858 
L 225.425724 174.549255 
L 231.221514 174.945269 
L 237.017304 175.095381 
L 242.813094 175.041302 
L 248.608885 175.161343 
L 254.404675 175.454292 
L 260.200465 174.887068 
L 265.996255 175.337161 
L 277.587835 174.998621 
L 283.383625 175.173226 
L 289.179415 174.691607 
L 294.975206 175.531652 
L 300.770996 174.95982 
L 306.566786 175.379357 
L 312.362576 174.985041 
L 318.158366 174.831291 
L 323.954156 175.678126 
L 329.749946 174.883673 
L 335.545736 175.54402 
L 341.341526 175.583791 
L 347.137317 176.344778 
L 352.933107 175.358987 
L 358.728897 175.767854 
L 364.524687 175.796227 
L 370.320477 175.615317 
L 381.912057 176.080446 
L 387.707847 175.421554 
L 393.503638 176.064683 
L 399.299428 175.525589 
L 410.891008 176.011089 
L 416.686798 176.247048 
L 422.482588 175.387603 
L 428.278378 175.81878 
L 434.074168 175.446047 
L 439.869958 174.431397 
L 445.665749 175.156978 
L 451.461539 175.017294 
L 457.257329 174.387745 
L 463.053119 175.709652 
L 468.848909 175.145095 
L 474.644699 175.03912 
L 480.440489 175.303938 
L 486.236279 175.708925 
L 492.032069 175.303938 
L 497.82786 175.455262 
L 503.62365 175.39318 
L 509.41944 174.857967 
L 515.21523 175.193354 
L 521.01102 175.234823 
L 526.80681 174.803888 
L 532.6026 175.171771 
L 538.39839 175.183896 
L 544.194181 174.894585 
L 549.989971 175.639082 
L 555.785761 174.964185 
L 561.581551 175.261256 
L 567.377341 175.421554 
L 573.173131 174.594846 
L 578.968921 174.584176 
L 584.764711 173.819551 
L 590.560501 174.408601 
L 602.152082 174.099889 
L 607.947872 175.026752 
L 613.743662 174.535917 
L 619.539452 175.111629 
L 625.335242 174.995468 
L 631.131032 173.975726 
L 636.926822 174.850449 
L 642.722612 174.091159 
L 648.518403 173.923102 
L 654.314193 174.320571 
L 660.109983 174.035382 
L 665.905773 173.212313 
L 671.701563 174.061088 
L 677.497353 173.471796 
L 683.293143 173.119433 
L 689.088933 173.93935 
L 694.884724 173.173754 
L 700.680514 172.946283 
L 706.476304 173.10755 
L 712.272094 173.067051 
L 718.067884 172.362568 
L 723.863674 172.838124 
L 729.659464 172.495947 
L 735.455254 171.793403 
L 741.251044 172.195965 
L 747.046835 171.806014 
L 752.842625 171.120446 
L 758.638415 171.372896 
L 764.434205 171.846512 
L 770.229995 170.634461 
L 776.025785 171.185438 
L 781.821575 170.868723 
L 787.617365 169.58101 
L 793.413156 169.886084 
L 799.208946 170.028678 
L 805.004736 168.889137 
L 810.800526 169.328318 
L 816.596316 168.933031 
L 822.392106 167.891462 
L 828.187896 168.13009 
L 833.983686 168.045455 
L 839.779476 166.941319 
L 845.575267 167.607002 
L 851.371057 167.05748 
L 857.166847 165.144583 
L 862.962637 166.487103 
L 868.758427 165.993601 
L 874.554217 164.219903 
L 880.350007 165.773647 
L 886.145797 164.903774 
L 891.941587 163.435393 
L 897.737378 164.434522 
L 903.533168 163.66723 
L 909.328958 162.273298 
L 915.124748 163.806671 
L 920.920538 162.143314 
L 926.716328 161.57997 
L 932.512118 162.392369 
L 938.307908 161.291629 
L 944.103699 159.784204 
L 949.899489 161.313697 
L 949.899489 161.313697 
" style="fill:none;stroke:#f15c80;stroke-linecap:square;"/>
   </g>
   <g id="line2d_13">
    <path clip-path="url(#p26c9b08a7a)" d="M 86.326761 147.773065 
L 92.122551 175.077678 
L 97.918342 173.375763 
L 103.714132 174.662748 
L 109.509922 174.29729 
L 115.305712 175.780464 
L 121.101502 177.476802 
L 126.897292 175.245736 
L 132.693082 174.79443 
L 138.488872 173.770807 
L 144.284663 168.902717 
L 150.080453 170.133927 
L 155.876243 170.352668 
L 161.672033 171.144939 
L 167.467823 171.717741 
L 173.263613 171.869308 
L 184.855193 171.598913 
L 190.650983 171.449528 
L 196.446774 171.818382 
L 202.242564 170.6769 
L 208.038354 171.719196 
L 213.834144 171.241942 
L 219.629934 172.43338 
L 225.425724 172.006325 
L 231.221514 172.60847 
L 242.813094 172.407432 
L 248.608885 172.783803 
L 254.404675 172.945798 
L 260.200465 172.008992 
L 265.996255 173.080389 
L 271.792045 172.471211 
L 277.587835 172.486004 
L 283.383625 172.829152 
L 289.179415 171.899379 
L 294.975206 173.137621 
L 300.770996 172.28351 
L 306.566786 172.811934 
L 312.362576 172.263382 
L 318.158366 172.254894 
L 323.954156 172.829152 
L 329.749946 172.231129 
L 335.545736 173.020005 
L 341.341526 172.989934 
L 347.137317 174.060361 
L 352.933107 172.85025 
L 358.728897 172.876198 
L 364.524687 173.372368 
L 370.320477 172.881533 
L 376.116267 173.422082 
L 381.912057 173.589169 
L 387.707847 173.045953 
L 393.503638 173.716243 
L 399.299428 173.189275 
L 405.095218 173.535818 
L 410.891008 173.583349 
L 416.686798 174.117107 
L 422.482588 173.222498 
L 428.278378 173.420627 
L 434.074168 173.156779 
L 439.869958 172.063314 
L 451.461539 172.85898 
L 457.257329 171.968251 
L 463.053119 173.750436 
L 468.848909 173.059048 
L 474.644699 173.052986 
L 486.236279 173.755529 
L 515.21523 173.314893 
L 521.01102 173.790208 
L 526.80681 173.403166 
L 538.39839 173.982758 
L 544.194181 173.626758 
L 549.989971 174.342154 
L 555.785761 173.69466 
L 561.581551 174.353552 
L 567.377341 174.677784 
L 573.173131 173.498229 
L 578.968921 174.001431 
L 584.764711 172.76513 
L 590.560501 173.6966 
L 596.356292 173.849137 
L 602.152082 173.159931 
L 607.947872 174.800493 
L 613.743662 174.704702 
L 619.539452 174.948664 
L 625.335242 175.328673 
L 631.131032 173.996824 
L 636.926822 175.119147 
L 642.722612 174.253154 
L 654.314193 174.666144 
L 660.109983 174.4588 
L 665.905773 173.887938 
L 671.701563 174.736713 
L 677.497353 174.091887 
L 683.293143 174.076124 
L 689.088933 175.052215 
L 694.884724 174.389928 
L 700.680514 174.63583 
L 706.476304 174.437217 
L 712.272094 174.609154 
L 718.067884 174.4685 
L 723.863674 174.504149 
L 729.659464 174.218475 
L 735.455254 174.060361 
L 741.251044 174.270614 
L 747.046835 173.958023 
L 752.842625 173.889151 
L 758.638415 173.502837 
L 764.434205 174.684332 
L 770.229995 173.828039 
L 776.025785 173.640823 
L 781.821575 173.833859 
L 787.617365 172.802233 
L 793.413156 172.842974 
L 799.208946 173.197277 
L 805.004736 172.598285 
L 816.596316 172.42562 
L 822.392106 171.989349 
L 828.187896 171.201928 
L 833.983686 172.018207 
L 839.779476 171.410727 
L 845.575267 171.702706 
L 851.371057 171.403209 
L 857.166847 169.521353 
L 862.962637 170.307319 
L 868.758427 170.055597 
L 874.554217 169.304552 
L 880.350007 170.16715 
L 886.145797 169.875171 
L 891.941587 168.997295 
L 903.533168 169.133584 
L 909.328958 168.168648 
L 915.124748 169.101331 
L 920.920538 167.448644 
L 926.716328 168.101716 
L 932.512118 167.717585 
L 938.307908 167.027652 
L 944.103699 166.076296 
L 949.899489 167.202257 
L 949.899489 167.202257 
" style="fill:none;stroke:#e4d354;stroke-linecap:square;"/>
   </g>
   <g id="line2d_14">
    <path clip-path="url(#p26c9b08a7a)" d="M 86.326761 148.309976 
L 92.122551 178.991017 
L 97.918342 178.716499 
L 103.714132 178.039904 
L 109.509922 178.195351 
L 115.305712 180.377673 
L 121.101502 183.753858 
L 126.897292 181.002372 
L 132.693082 180.263695 
L 138.488872 177.866754 
L 144.284663 173.289915 
L 150.080453 174.541252 
L 155.876243 174.161001 
L 161.672033 174.845841 
L 167.467823 175.709652 
L 173.263613 176.256506 
L 179.059403 176.011816 
L 184.855193 176.135737 
L 190.650983 175.981988 
L 196.446774 176.333381 
L 202.242564 174.966125 
L 208.038354 175.697527 
L 213.834144 175.644418 
L 219.629934 176.660038 
L 225.425724 176.583648 
L 231.221514 176.939164 
L 237.017304 177.081515 
L 242.813094 176.681136 
L 248.608885 177.528699 
L 254.404675 177.466374 
L 260.200465 176.456332 
L 265.996255 177.534034 
L 271.792045 177.012158 
L 277.587835 176.823003 
L 283.383625 177.232597 
L 289.179415 176.344051 
L 294.975206 177.702576 
L 300.770996 176.701749 
L 306.566786 177.253938 
L 312.362576 176.660523 
L 318.158366 176.656643 
L 323.954156 177.002215 
L 329.749946 176.720907 
L 335.545736 177.545917 
L 341.341526 177.688026 
L 347.137317 178.982772 
L 352.933107 177.759808 
L 358.728897 177.3199 
L 364.524687 178.18177 
L 370.320477 177.162755 
L 376.116267 178.272953 
L 387.707847 177.942658 
L 393.503638 178.50091 
L 405.095218 177.99504 
L 416.686798 178.748267 
L 422.482588 177.9138 
L 434.074168 178.089133 
L 439.869958 176.503378 
L 445.665749 176.832703 
L 451.461539 177.342211 
L 457.257329 176.427958 
L 463.053119 178.547956 
L 468.848909 177.536216 
L 480.440489 178.105381 
L 486.236279 178.209901 
L 492.032069 178.563719 
L 497.82786 178.022928 
L 503.62365 178.239487 
L 509.41944 177.947751 
L 515.21523 177.83062 
L 521.01102 178.330427 
L 526.80681 177.956239 
L 532.6026 178.167948 
L 538.39839 178.714316 
L 544.194181 178.049847 
L 549.989971 178.884556 
L 555.785761 177.967152 
L 567.377341 179.047036 
L 573.173131 177.74356 
L 578.968921 178.303267 
L 584.764711 177.124682 
L 590.560501 178.128661 
L 596.356292 178.218632 
L 602.152082 177.399442 
L 607.947872 178.899834 
L 613.743662 179.09869 
L 619.539452 179.085595 
L 625.335242 179.68095 
L 631.131032 178.130116 
L 636.926822 179.289543 
L 642.722612 178.15073 
L 648.518403 178.463564 
L 654.314193 178.510125 
L 660.109983 178.415547 
L 665.905773 177.740407 
L 671.701563 178.470112 
L 677.497353 177.730707 
L 683.293143 177.726827 
L 689.088933 178.773731 
L 694.884724 177.8442 
L 700.680514 178.217662 
L 706.476304 178.094468 
L 712.272094 178.268588 
L 729.659464 177.871846 
L 735.455254 177.556102 
L 741.251044 177.90992 
L 747.046835 177.400897 
L 752.842625 177.590295 
L 758.638415 176.928493 
L 764.434205 177.862631 
L 770.229995 177.048292 
L 776.025785 176.91661 
L 781.821575 176.901332 
L 787.617365 176.107849 
L 793.413156 176.386732 
L 799.208946 176.262083 
L 805.004736 175.772946 
L 810.800526 175.521709 
L 816.596316 175.415248 
L 822.392106 174.816013 
L 828.187896 174.102314 
L 833.983686 174.894343 
L 839.779476 174.172884 
L 845.575267 174.585631 
L 851.371057 174.289772 
L 857.166847 172.68001 
L 862.962637 173.132043 
L 868.758427 173.114825 
L 874.554217 172.158377 
L 880.350007 172.843702 
L 886.145797 172.68971 
L 891.941587 171.852333 
L 897.737378 171.830749 
L 903.533168 171.924357 
L 909.328958 170.913587 
L 915.124748 171.725501 
L 920.920538 170.131986 
L 926.716328 170.772205 
L 932.512118 170.157935 
L 938.307908 170.097065 
L 944.103699 168.651723 
L 949.899489 169.851891 
L 949.899489 169.851891 
" style="fill:none;stroke:#2b908f;stroke-linecap:square;"/>
   </g>
   <g id="line2d_15">
    <path clip-path="url(#p26c9b08a7a)" d="M 43.148125 273.99006 
L 993.078125 273.99006 
" style="fill:none;stroke:#dedede;stroke-linecap:square;stroke-width:2;"/>
   </g>
   <g id="text_17">
    <!-- Fastp: Read GC Content -->
    <defs>
     <path d="M 9.8125 72.90625 
L 51.703125 72.90625 
L 51.703125 64.59375 
L 19.671875 64.59375 
L 19.671875 43.109375 
L 48.578125 43.109375 
L 48.578125 34.8125 
L 19.671875 34.8125 
L 19.671875 0 
L 9.8125 0 
z
" id="DejaVuSans-70"/>
     <path d="M 18.109375 8.203125 
L 18.109375 -20.796875 
L 9.078125 -20.796875 
L 9.078125 54.6875 
L 18.109375 54.6875 
L 18.109375 46.390625 
Q 20.953125 51.265625 25.265625 53.625 
Q 29.59375 56 35.59375 56 
Q 45.5625 56 51.78125 48.09375 
Q 58.015625 40.1875 58.015625 27.296875 
Q 58.015625 14.40625 51.78125 6.484375 
Q 45.5625 -1.421875 35.59375 -1.421875 
Q 29.59375 -1.421875 25.265625 0.953125 
Q 20.953125 3.328125 18.109375 8.203125 
z
M 48.6875 27.296875 
Q 48.6875 37.203125 44.609375 42.84375 
Q 40.53125 48.484375 33.40625 48.484375 
Q 26.265625 48.484375 22.1875 42.84375 
Q 18.109375 37.203125 18.109375 27.296875 
Q 18.109375 17.390625 22.1875 11.75 
Q 26.265625 6.109375 33.40625 6.109375 
Q 40.53125 6.109375 44.609375 11.75 
Q 48.6875 17.390625 48.6875 27.296875 
z
" id="DejaVuSans-112"/>
     <path d="M 59.515625 10.40625 
L 59.515625 29.984375 
L 43.40625 29.984375 
L 43.40625 38.09375 
L 69.28125 38.09375 
L 69.28125 6.78125 
Q 63.578125 2.734375 56.6875 0.65625 
Q 49.8125 -1.421875 42 -1.421875 
Q 24.90625 -1.421875 15.25 8.5625 
Q 5.609375 18.5625 5.609375 36.375 
Q 5.609375 54.25 15.25 64.234375 
Q 24.90625 74.21875 42 74.21875 
Q 49.125 74.21875 55.546875 72.453125 
Q 61.96875 70.703125 67.390625 67.28125 
L 67.390625 56.78125 
Q 61.921875 61.421875 55.765625 63.765625 
Q 49.609375 66.109375 42.828125 66.109375 
Q 29.4375 66.109375 22.71875 58.640625 
Q 16.015625 51.171875 16.015625 36.375 
Q 16.015625 21.625 22.71875 14.15625 
Q 29.4375 6.6875 42.828125 6.6875 
Q 48.046875 6.6875 52.140625 7.59375 
Q 56.25 8.5 59.515625 10.40625 
z
" id="DejaVuSans-71"/>
    </defs>
    <g transform="translate(421.856875 19.3575)scale(0.16 -0.16)">
     <use xlink:href="#DejaVuSans-70"/>
     <use x="57.378906" xlink:href="#DejaVuSans-97"/>
     <use x="118.658203" xlink:href="#DejaVuSans-115"/>
     <use x="170.757812" xlink:href="#DejaVuSans-116"/>
     <use x="209.966797" xlink:href="#DejaVuSans-112"/>
     <use x="273.443359" xlink:href="#DejaVuSans-58"/>
     <use x="307.134766" xlink:href="#DejaVuSans-32"/>
     <use x="338.921875" xlink:href="#DejaVuSans-82"/>
     <use x="408.341797" xlink:href="#DejaVuSans-101"/>
     <use x="469.865234" xlink:href="#DejaVuSans-97"/>
     <use x="531.144531" xlink:href="#DejaVuSans-100"/>
     <use x="594.621094" xlink:href="#DejaVuSans-32"/>
     <use x="626.408203" xlink:href="#DejaVuSans-71"/>
     <use x="703.898438" xlink:href="#DejaVuSans-67"/>
     <use x="773.722656" xlink:href="#DejaVuSans-32"/>
     <use x="805.509766" xlink:href="#DejaVuSans-67"/>
     <use x="875.333984" xlink:href="#DejaVuSans-111"/>
     <use x="936.515625" xlink:href="#DejaVuSans-110"/>
     <use x="999.894531" xlink:href="#DejaVuSans-116"/>
     <use x="1039.103516" xlink:href="#DejaVuSans-101"/>
     <use x="1100.626953" xlink:href="#DejaVuSans-110"/>
     <use x="1164.005859" xlink:href="#DejaVuSans-116"/>
    </g>
   </g>
   <g id="legend_1">
    <g id="line2d_16">
     <path d="M 50.348125 303.490394 
L 66.348125 303.490394 
" style="fill:none;stroke:#7cb5ec;stroke-linecap:square;"/>
    </g>
    <g id="line2d_17"/>
    <g id="text_18">
     <!-- Sfu-ABai_005-Ex1-1A-lcwgs-1-1 -->
     <defs>
      <path d="M 53.515625 70.515625 
L 53.515625 60.890625 
Q 47.90625 63.578125 42.921875 64.890625 
Q 37.9375 66.21875 33.296875 66.21875 
Q 25.25 66.21875 20.875 63.09375 
Q 16.5 59.96875 16.5 54.203125 
Q 16.5 49.359375 19.40625 46.890625 
Q 22.3125 44.4375 30.421875 42.921875 
L 36.375 41.703125 
Q 47.40625 39.59375 52.65625 34.296875 
Q 57.90625 29 57.90625 20.125 
Q 57.90625 9.515625 50.796875 4.046875 
Q 43.703125 -1.421875 29.984375 -1.421875 
Q 24.8125 -1.421875 18.96875 -0.25 
Q 13.140625 0.921875 6.890625 3.21875 
L 6.890625 13.375 
Q 12.890625 10.015625 18.65625 8.296875 
Q 24.421875 6.59375 29.984375 6.59375 
Q 38.421875 6.59375 43.015625 9.90625 
Q 47.609375 13.234375 47.609375 19.390625 
Q 47.609375 24.75 44.3125 27.78125 
Q 41.015625 30.8125 33.5 32.328125 
L 27.484375 33.5 
Q 16.453125 35.6875 11.515625 40.375 
Q 6.59375 45.0625 6.59375 53.421875 
Q 6.59375 63.09375 13.40625 68.65625 
Q 20.21875 74.21875 32.171875 74.21875 
Q 37.3125 74.21875 42.625 73.28125 
Q 47.953125 72.359375 53.515625 70.515625 
z
" id="DejaVuSans-83"/>
      <path d="M 8.5 21.578125 
L 8.5 54.6875 
L 17.484375 54.6875 
L 17.484375 21.921875 
Q 17.484375 14.15625 20.5 10.265625 
Q 23.53125 6.390625 29.59375 6.390625 
Q 36.859375 6.390625 41.078125 11.03125 
Q 45.3125 15.671875 45.3125 23.6875 
L 45.3125 54.6875 
L 54.296875 54.6875 
L 54.296875 0 
L 45.3125 0 
L 45.3125 8.40625 
Q 42.046875 3.421875 37.71875 1 
Q 33.40625 -1.421875 27.6875 -1.421875 
Q 18.265625 -1.421875 13.375 4.4375 
Q 8.5 10.296875 8.5 21.578125 
z
M 31.109375 56 
z
" id="DejaVuSans-117"/>
      <path d="M 4.890625 31.390625 
L 31.203125 31.390625 
L 31.203125 23.390625 
L 4.890625 23.390625 
z
" id="DejaVuSans-45"/>
      <path d="M 50.984375 -16.609375 
L 50.984375 -23.578125 
L -0.984375 -23.578125 
L -0.984375 -16.609375 
z
" id="DejaVuSans-95"/>
      <path d="M 10.796875 72.90625 
L 49.515625 72.90625 
L 49.515625 64.59375 
L 19.828125 64.59375 
L 19.828125 46.734375 
Q 21.96875 47.46875 24.109375 47.828125 
Q 26.265625 48.1875 28.421875 48.1875 
Q 40.625 48.1875 47.75 41.5 
Q 54.890625 34.8125 54.890625 23.390625 
Q 54.890625 11.625 47.5625 5.09375 
Q 40.234375 -1.421875 26.90625 -1.421875 
Q 22.3125 -1.421875 17.546875 -0.640625 
Q 12.796875 0.140625 7.71875 1.703125 
L 7.71875 11.625 
Q 12.109375 9.234375 16.796875 8.0625 
Q 21.484375 6.890625 26.703125 6.890625 
Q 35.15625 6.890625 40.078125 11.328125 
Q 45.015625 15.765625 45.015625 23.390625 
Q 45.015625 31 40.078125 35.4375 
Q 35.15625 39.890625 26.703125 39.890625 
Q 22.75 39.890625 18.8125 39.015625 
Q 14.890625 38.140625 10.796875 36.28125 
z
" id="DejaVuSans-53"/>
      <path d="M 9.8125 72.90625 
L 55.90625 72.90625 
L 55.90625 64.59375 
L 19.671875 64.59375 
L 19.671875 43.015625 
L 54.390625 43.015625 
L 54.390625 34.71875 
L 19.671875 34.71875 
L 19.671875 8.296875 
L 56.78125 8.296875 
L 56.78125 0 
L 9.8125 0 
z
" id="DejaVuSans-69"/>
      <path d="M 54.890625 54.6875 
L 35.109375 28.078125 
L 55.90625 0 
L 45.3125 0 
L 29.390625 21.484375 
L 13.484375 0 
L 2.875 0 
L 24.125 28.609375 
L 4.6875 54.6875 
L 15.28125 54.6875 
L 29.78125 35.203125 
L 44.28125 54.6875 
z
" id="DejaVuSans-120"/>
      <path d="M 4.203125 54.6875 
L 13.1875 54.6875 
L 24.421875 12.015625 
L 35.59375 54.6875 
L 46.1875 54.6875 
L 57.421875 12.015625 
L 68.609375 54.6875 
L 77.59375 54.6875 
L 63.28125 0 
L 52.6875 0 
L 40.921875 44.828125 
L 29.109375 0 
L 18.5 0 
z
" id="DejaVuSans-119"/>
     </defs>
     <g transform="translate(72.748125 306.290394)scale(0.08 -0.08)">
      <use xlink:href="#DejaVuSans-83"/>
      <use x="63.476562" xlink:href="#DejaVuSans-102"/>
      <use x="98.681641" xlink:href="#DejaVuSans-117"/>
      <use x="162.060547" xlink:href="#DejaVuSans-45"/>
      <use x="198.113281" xlink:href="#DejaVuSans-65"/>
      <use x="266.521484" xlink:href="#DejaVuSans-66"/>
      <use x="335.125" xlink:href="#DejaVuSans-97"/>
      <use x="396.404297" xlink:href="#DejaVuSans-105"/>
      <use x="424.1875" xlink:href="#DejaVuSans-95"/>
      <use x="474.1875" xlink:href="#DejaVuSans-48"/>
      <use x="537.810547" xlink:href="#DejaVuSans-48"/>
      <use x="601.433594" xlink:href="#DejaVuSans-53"/>
      <use x="665.056641" xlink:href="#DejaVuSans-45"/>
      <use x="701.140625" xlink:href="#DejaVuSans-69"/>
      <use x="764.324219" xlink:href="#DejaVuSans-120"/>
      <use x="823.503906" xlink:href="#DejaVuSans-49"/>
      <use x="887.126953" xlink:href="#DejaVuSans-45"/>
      <use x="923.210938" xlink:href="#DejaVuSans-49"/>
      <use x="986.833984" xlink:href="#DejaVuSans-65"/>
      <use x="1055.210938" xlink:href="#DejaVuSans-45"/>
      <use x="1091.294922" xlink:href="#DejaVuSans-108"/>
      <use x="1119.078125" xlink:href="#DejaVuSans-99"/>
      <use x="1174.058594" xlink:href="#DejaVuSans-119"/>
      <use x="1255.845703" xlink:href="#DejaVuSans-103"/>
      <use x="1319.322266" xlink:href="#DejaVuSans-115"/>
      <use x="1371.421875" xlink:href="#DejaVuSans-45"/>
      <use x="1407.505859" xlink:href="#DejaVuSans-49"/>
      <use x="1471.128906" xlink:href="#DejaVuSans-45"/>
      <use x="1507.212891" xlink:href="#DejaVuSans-49"/>
     </g>
    </g>
    <g id="line2d_18">
     <path d="M 50.348125 315.455394 
L 66.348125 315.455394 
" style="fill:none;stroke:#434348;stroke-linecap:square;"/>
    </g>
    <g id="line2d_19"/>
    <g id="text_19">
     <!-- Sfu-ABai_006-Ex1-1B-lcwgs-1-1 -->
     <g transform="translate(72.748125 318.255394)scale(0.08 -0.08)">
      <use xlink:href="#DejaVuSans-83"/>
      <use x="63.476562" xlink:href="#DejaVuSans-102"/>
      <use x="98.681641" xlink:href="#DejaVuSans-117"/>
      <use x="162.060547" xlink:href="#DejaVuSans-45"/>
      <use x="198.113281" xlink:href="#DejaVuSans-65"/>
      <use x="266.521484" xlink:href="#DejaVuSans-66"/>
      <use x="335.125" xlink:href="#DejaVuSans-97"/>
      <use x="396.404297" xlink:href="#DejaVuSans-105"/>
      <use x="424.1875" xlink:href="#DejaVuSans-95"/>
      <use x="474.1875" xlink:href="#DejaVuSans-48"/>
      <use x="537.810547" xlink:href="#DejaVuSans-48"/>
      <use x="601.433594" xlink:href="#DejaVuSans-54"/>
      <use x="665.056641" xlink:href="#DejaVuSans-45"/>
      <use x="701.140625" xlink:href="#DejaVuSans-69"/>
      <use x="764.324219" xlink:href="#DejaVuSans-120"/>
      <use x="823.503906" xlink:href="#DejaVuSans-49"/>
      <use x="887.126953" xlink:href="#DejaVuSans-45"/>
      <use x="923.210938" xlink:href="#DejaVuSans-49"/>
      <use x="986.833984" xlink:href="#DejaVuSans-66"/>
      <use x="1055.4375" xlink:href="#DejaVuSans-45"/>
      <use x="1091.521484" xlink:href="#DejaVuSans-108"/>
      <use x="1119.304688" xlink:href="#DejaVuSans-99"/>
      <use x="1174.285156" xlink:href="#DejaVuSans-119"/>
      <use x="1256.072266" xlink:href="#DejaVuSans-103"/>
      <use x="1319.548828" xlink:href="#DejaVuSans-115"/>
      <use x="1371.648438" xlink:href="#DejaVuSans-45"/>
      <use x="1407.732422" xlink:href="#DejaVuSans-49"/>
      <use x="1471.355469" xlink:href="#DejaVuSans-45"/>
      <use x="1507.439453" xlink:href="#DejaVuSans-49"/>
     </g>
    </g>
    <g id="line2d_20">
     <path d="M 246.840625 303.490394 
L 262.840625 303.490394 
" style="fill:none;stroke:#90ed7d;stroke-linecap:square;"/>
    </g>
    <g id="line2d_21"/>
    <g id="text_20">
     <!-- Sfu-ABai_007-Ex1-1C-lcwgs-1-1 -->
     <defs>
      <path d="M 8.203125 72.90625 
L 55.078125 72.90625 
L 55.078125 68.703125 
L 28.609375 0 
L 18.3125 0 
L 43.21875 64.59375 
L 8.203125 64.59375 
z
" id="DejaVuSans-55"/>
     </defs>
     <g transform="translate(269.240625 306.290394)scale(0.08 -0.08)">
      <use xlink:href="#DejaVuSans-83"/>
      <use x="63.476562" xlink:href="#DejaVuSans-102"/>
      <use x="98.681641" xlink:href="#DejaVuSans-117"/>
      <use x="162.060547" xlink:href="#DejaVuSans-45"/>
      <use x="198.113281" xlink:href="#DejaVuSans-65"/>
      <use x="266.521484" xlink:href="#DejaVuSans-66"/>
      <use x="335.125" xlink:href="#DejaVuSans-97"/>
      <use x="396.404297" xlink:href="#DejaVuSans-105"/>
      <use x="424.1875" xlink:href="#DejaVuSans-95"/>
      <use x="474.1875" xlink:href="#DejaVuSans-48"/>
      <use x="537.810547" xlink:href="#DejaVuSans-48"/>
      <use x="601.433594" xlink:href="#DejaVuSans-55"/>
      <use x="665.056641" xlink:href="#DejaVuSans-45"/>
      <use x="701.140625" xlink:href="#DejaVuSans-69"/>
      <use x="764.324219" xlink:href="#DejaVuSans-120"/>
      <use x="823.503906" xlink:href="#DejaVuSans-49"/>
      <use x="887.126953" xlink:href="#DejaVuSans-45"/>
      <use x="923.210938" xlink:href="#DejaVuSans-49"/>
      <use x="986.833984" xlink:href="#DejaVuSans-67"/>
      <use x="1056.658203" xlink:href="#DejaVuSans-45"/>
      <use x="1092.742188" xlink:href="#DejaVuSans-108"/>
      <use x="1120.525391" xlink:href="#DejaVuSans-99"/>
      <use x="1175.505859" xlink:href="#DejaVuSans-119"/>
      <use x="1257.292969" xlink:href="#DejaVuSans-103"/>
      <use x="1320.769531" xlink:href="#DejaVuSans-115"/>
      <use x="1372.869141" xlink:href="#DejaVuSans-45"/>
      <use x="1408.953125" xlink:href="#DejaVuSans-49"/>
      <use x="1472.576172" xlink:href="#DejaVuSans-45"/>
      <use x="1508.660156" xlink:href="#DejaVuSans-49"/>
     </g>
    </g>
    <g id="line2d_22">
     <path d="M 246.840625 315.455394 
L 262.840625 315.455394 
" style="fill:none;stroke:#f7a35c;stroke-linecap:square;"/>
    </g>
    <g id="line2d_23"/>
    <g id="text_21">
     <!-- Sfu-ABai_008-Ex1-1D-lcwgs-1-1 -->
     <defs>
      <path d="M 19.671875 64.796875 
L 19.671875 8.109375 
L 31.59375 8.109375 
Q 46.6875 8.109375 53.6875 14.9375 
Q 60.6875 21.78125 60.6875 36.53125 
Q 60.6875 51.171875 53.6875 57.984375 
Q 46.6875 64.796875 31.59375 64.796875 
z
M 9.8125 72.90625 
L 30.078125 72.90625 
Q 51.265625 72.90625 61.171875 64.09375 
Q 71.09375 55.28125 71.09375 36.53125 
Q 71.09375 17.671875 61.125 8.828125 
Q 51.171875 0 30.078125 0 
L 9.8125 0 
z
" id="DejaVuSans-68"/>
     </defs>
     <g transform="translate(269.240625 318.255394)scale(0.08 -0.08)">
      <use xlink:href="#DejaVuSans-83"/>
      <use x="63.476562" xlink:href="#DejaVuSans-102"/>
      <use x="98.681641" xlink:href="#DejaVuSans-117"/>
      <use x="162.060547" xlink:href="#DejaVuSans-45"/>
      <use x="198.113281" xlink:href="#DejaVuSans-65"/>
      <use x="266.521484" xlink:href="#DejaVuSans-66"/>
      <use x="335.125" xlink:href="#DejaVuSans-97"/>
      <use x="396.404297" xlink:href="#DejaVuSans-105"/>
      <use x="424.1875" xlink:href="#DejaVuSans-95"/>
      <use x="474.1875" xlink:href="#DejaVuSans-48"/>
      <use x="537.810547" xlink:href="#DejaVuSans-48"/>
      <use x="601.433594" xlink:href="#DejaVuSans-56"/>
      <use x="665.056641" xlink:href="#DejaVuSans-45"/>
      <use x="701.140625" xlink:href="#DejaVuSans-69"/>
      <use x="764.324219" xlink:href="#DejaVuSans-120"/>
      <use x="823.503906" xlink:href="#DejaVuSans-49"/>
      <use x="887.126953" xlink:href="#DejaVuSans-45"/>
      <use x="923.210938" xlink:href="#DejaVuSans-49"/>
      <use x="986.833984" xlink:href="#DejaVuSans-68"/>
      <use x="1063.835938" xlink:href="#DejaVuSans-45"/>
      <use x="1099.919922" xlink:href="#DejaVuSans-108"/>
      <use x="1127.703125" xlink:href="#DejaVuSans-99"/>
      <use x="1182.683594" xlink:href="#DejaVuSans-119"/>
      <use x="1264.470703" xlink:href="#DejaVuSans-103"/>
      <use x="1327.947266" xlink:href="#DejaVuSans-115"/>
      <use x="1380.046875" xlink:href="#DejaVuSans-45"/>
      <use x="1416.130859" xlink:href="#DejaVuSans-49"/>
      <use x="1479.753906" xlink:href="#DejaVuSans-45"/>
      <use x="1515.837891" xlink:href="#DejaVuSans-49"/>
     </g>
    </g>
    <g id="line2d_24">
     <path d="M 444.004375 303.490394 
L 460.004375 303.490394 
" style="fill:none;stroke:#8085e9;stroke-linecap:square;"/>
    </g>
    <g id="line2d_25"/>
    <g id="text_22">
     <!-- Sfu-ABai_009-Ex1-1E-lcwgs-1-1 -->
     <defs>
      <path d="M 10.984375 1.515625 
L 10.984375 10.5 
Q 14.703125 8.734375 18.5 7.8125 
Q 22.3125 6.890625 25.984375 6.890625 
Q 35.75 6.890625 40.890625 13.453125 
Q 46.046875 20.015625 46.78125 33.40625 
Q 43.953125 29.203125 39.59375 26.953125 
Q 35.25 24.703125 29.984375 24.703125 
Q 19.046875 24.703125 12.671875 31.3125 
Q 6.296875 37.9375 6.296875 49.421875 
Q 6.296875 60.640625 12.9375 67.421875 
Q 19.578125 74.21875 30.609375 74.21875 
Q 43.265625 74.21875 49.921875 64.515625 
Q 56.59375 54.828125 56.59375 36.375 
Q 56.59375 19.140625 48.40625 8.859375 
Q 40.234375 -1.421875 26.421875 -1.421875 
Q 22.703125 -1.421875 18.890625 -0.6875 
Q 15.09375 0.046875 10.984375 1.515625 
z
M 30.609375 32.421875 
Q 37.25 32.421875 41.125 36.953125 
Q 45.015625 41.5 45.015625 49.421875 
Q 45.015625 57.28125 41.125 61.84375 
Q 37.25 66.40625 30.609375 66.40625 
Q 23.96875 66.40625 20.09375 61.84375 
Q 16.21875 57.28125 16.21875 49.421875 
Q 16.21875 41.5 20.09375 36.953125 
Q 23.96875 32.421875 30.609375 32.421875 
z
" id="DejaVuSans-57"/>
     </defs>
     <g transform="translate(466.404375 306.290394)scale(0.08 -0.08)">
      <use xlink:href="#DejaVuSans-83"/>
      <use x="63.476562" xlink:href="#DejaVuSans-102"/>
      <use x="98.681641" xlink:href="#DejaVuSans-117"/>
      <use x="162.060547" xlink:href="#DejaVuSans-45"/>
      <use x="198.113281" xlink:href="#DejaVuSans-65"/>
      <use x="266.521484" xlink:href="#DejaVuSans-66"/>
      <use x="335.125" xlink:href="#DejaVuSans-97"/>
      <use x="396.404297" xlink:href="#DejaVuSans-105"/>
      <use x="424.1875" xlink:href="#DejaVuSans-95"/>
      <use x="474.1875" xlink:href="#DejaVuSans-48"/>
      <use x="537.810547" xlink:href="#DejaVuSans-48"/>
      <use x="601.433594" xlink:href="#DejaVuSans-57"/>
      <use x="665.056641" xlink:href="#DejaVuSans-45"/>
      <use x="701.140625" xlink:href="#DejaVuSans-69"/>
      <use x="764.324219" xlink:href="#DejaVuSans-120"/>
      <use x="823.503906" xlink:href="#DejaVuSans-49"/>
      <use x="887.126953" xlink:href="#DejaVuSans-45"/>
      <use x="923.210938" xlink:href="#DejaVuSans-49"/>
      <use x="986.833984" xlink:href="#DejaVuSans-69"/>
      <use x="1050.017578" xlink:href="#DejaVuSans-45"/>
      <use x="1086.101562" xlink:href="#DejaVuSans-108"/>
      <use x="1113.884766" xlink:href="#DejaVuSans-99"/>
      <use x="1168.865234" xlink:href="#DejaVuSans-119"/>
      <use x="1250.652344" xlink:href="#DejaVuSans-103"/>
      <use x="1314.128906" xlink:href="#DejaVuSans-115"/>
      <use x="1366.228516" xlink:href="#DejaVuSans-45"/>
      <use x="1402.3125" xlink:href="#DejaVuSans-49"/>
      <use x="1465.935547" xlink:href="#DejaVuSans-45"/>
      <use x="1502.019531" xlink:href="#DejaVuSans-49"/>
     </g>
    </g>
    <g id="line2d_26">
     <path d="M 444.004375 315.455394 
L 460.004375 315.455394 
" style="fill:none;stroke:#f15c80;stroke-linecap:square;"/>
    </g>
    <g id="line2d_27"/>
    <g id="text_23">
     <!-- Sfu-ABai_010-Ex1-1F-lcwgs-1-1 -->
     <g transform="translate(466.404375 318.255394)scale(0.08 -0.08)">
      <use xlink:href="#DejaVuSans-83"/>
      <use x="63.476562" xlink:href="#DejaVuSans-102"/>
      <use x="98.681641" xlink:href="#DejaVuSans-117"/>
      <use x="162.060547" xlink:href="#DejaVuSans-45"/>
      <use x="198.113281" xlink:href="#DejaVuSans-65"/>
      <use x="266.521484" xlink:href="#DejaVuSans-66"/>
      <use x="335.125" xlink:href="#DejaVuSans-97"/>
      <use x="396.404297" xlink:href="#DejaVuSans-105"/>
      <use x="424.1875" xlink:href="#DejaVuSans-95"/>
      <use x="474.1875" xlink:href="#DejaVuSans-48"/>
      <use x="537.810547" xlink:href="#DejaVuSans-49"/>
      <use x="601.433594" xlink:href="#DejaVuSans-48"/>
      <use x="665.056641" xlink:href="#DejaVuSans-45"/>
      <use x="701.140625" xlink:href="#DejaVuSans-69"/>
      <use x="764.324219" xlink:href="#DejaVuSans-120"/>
      <use x="823.503906" xlink:href="#DejaVuSans-49"/>
      <use x="887.126953" xlink:href="#DejaVuSans-45"/>
      <use x="923.210938" xlink:href="#DejaVuSans-49"/>
      <use x="986.833984" xlink:href="#DejaVuSans-70"/>
      <use x="1044.353516" xlink:href="#DejaVuSans-45"/>
      <use x="1080.4375" xlink:href="#DejaVuSans-108"/>
      <use x="1108.220703" xlink:href="#DejaVuSans-99"/>
      <use x="1163.201172" xlink:href="#DejaVuSans-119"/>
      <use x="1244.988281" xlink:href="#DejaVuSans-103"/>
      <use x="1308.464844" xlink:href="#DejaVuSans-115"/>
      <use x="1360.564453" xlink:href="#DejaVuSans-45"/>
      <use x="1396.648438" xlink:href="#DejaVuSans-49"/>
      <use x="1460.271484" xlink:href="#DejaVuSans-45"/>
      <use x="1496.355469" xlink:href="#DejaVuSans-49"/>
     </g>
    </g>
    <g id="line2d_28">
     <path d="M 640.063125 303.490394 
L 656.063125 303.490394 
" style="fill:none;stroke:#e4d354;stroke-linecap:square;"/>
    </g>
    <g id="line2d_29"/>
    <g id="text_24">
     <!-- Sfu-ABai_011-Ex1-1G-lcwgs-1-1 -->
     <g transform="translate(662.463125 306.290394)scale(0.08 -0.08)">
      <use xlink:href="#DejaVuSans-83"/>
      <use x="63.476562" xlink:href="#DejaVuSans-102"/>
      <use x="98.681641" xlink:href="#DejaVuSans-117"/>
      <use x="162.060547" xlink:href="#DejaVuSans-45"/>
      <use x="198.113281" xlink:href="#DejaVuSans-65"/>
      <use x="266.521484" xlink:href="#DejaVuSans-66"/>
      <use x="335.125" xlink:href="#DejaVuSans-97"/>
      <use x="396.404297" xlink:href="#DejaVuSans-105"/>
      <use x="424.1875" xlink:href="#DejaVuSans-95"/>
      <use x="474.1875" xlink:href="#DejaVuSans-48"/>
      <use x="537.810547" xlink:href="#DejaVuSans-49"/>
      <use x="601.433594" xlink:href="#DejaVuSans-49"/>
      <use x="665.056641" xlink:href="#DejaVuSans-45"/>
      <use x="701.140625" xlink:href="#DejaVuSans-69"/>
      <use x="764.324219" xlink:href="#DejaVuSans-120"/>
      <use x="823.503906" xlink:href="#DejaVuSans-49"/>
      <use x="887.126953" xlink:href="#DejaVuSans-45"/>
      <use x="923.210938" xlink:href="#DejaVuSans-49"/>
      <use x="986.833984" xlink:href="#DejaVuSans-71"/>
      <use x="1064.324219" xlink:href="#DejaVuSans-45"/>
      <use x="1100.408203" xlink:href="#DejaVuSans-108"/>
      <use x="1128.191406" xlink:href="#DejaVuSans-99"/>
      <use x="1183.171875" xlink:href="#DejaVuSans-119"/>
      <use x="1264.958984" xlink:href="#DejaVuSans-103"/>
      <use x="1328.435547" xlink:href="#DejaVuSans-115"/>
      <use x="1380.535156" xlink:href="#DejaVuSans-45"/>
      <use x="1416.619141" xlink:href="#DejaVuSans-49"/>
      <use x="1480.242188" xlink:href="#DejaVuSans-45"/>
      <use x="1516.326172" xlink:href="#DejaVuSans-49"/>
     </g>
    </g>
    <g id="line2d_30">
     <path d="M 837.265625 303.490394 
L 853.265625 303.490394 
" style="fill:none;stroke:#2b908f;stroke-linecap:square;"/>
    </g>
    <g id="line2d_31"/>
    <g id="text_25">
     <!-- Sfu-ABai_012-Ex1-1H-lcwgs-1-1 -->
     <defs>
      <path d="M 9.8125 72.90625 
L 19.671875 72.90625 
L 19.671875 43.015625 
L 55.515625 43.015625 
L 55.515625 72.90625 
L 65.375 72.90625 
L 65.375 0 
L 55.515625 0 
L 55.515625 34.71875 
L 19.671875 34.71875 
L 19.671875 0 
L 9.8125 0 
z
" id="DejaVuSans-72"/>
     </defs>
     <g transform="translate(859.665625 306.290394)scale(0.08 -0.08)">
      <use xlink:href="#DejaVuSans-83"/>
      <use x="63.476562" xlink:href="#DejaVuSans-102"/>
      <use x="98.681641" xlink:href="#DejaVuSans-117"/>
      <use x="162.060547" xlink:href="#DejaVuSans-45"/>
      <use x="198.113281" xlink:href="#DejaVuSans-65"/>
      <use x="266.521484" xlink:href="#DejaVuSans-66"/>
      <use x="335.125" xlink:href="#DejaVuSans-97"/>
      <use x="396.404297" xlink:href="#DejaVuSans-105"/>
      <use x="424.1875" xlink:href="#DejaVuSans-95"/>
      <use x="474.1875" xlink:href="#DejaVuSans-48"/>
      <use x="537.810547" xlink:href="#DejaVuSans-49"/>
      <use x="601.433594" xlink:href="#DejaVuSans-50"/>
      <use x="665.056641" xlink:href="#DejaVuSans-45"/>
      <use x="701.140625" xlink:href="#DejaVuSans-69"/>
      <use x="764.324219" xlink:href="#DejaVuSans-120"/>
      <use x="823.503906" xlink:href="#DejaVuSans-49"/>
      <use x="887.126953" xlink:href="#DejaVuSans-45"/>
      <use x="923.210938" xlink:href="#DejaVuSans-49"/>
      <use x="986.833984" xlink:href="#DejaVuSans-72"/>
      <use x="1062.029297" xlink:href="#DejaVuSans-45"/>
      <use x="1098.113281" xlink:href="#DejaVuSans-108"/>
      <use x="1125.896484" xlink:href="#DejaVuSans-99"/>
      <use x="1180.876953" xlink:href="#DejaVuSans-119"/>
      <use x="1262.664062" xlink:href="#DejaVuSans-103"/>
      <use x="1326.140625" xlink:href="#DejaVuSans-115"/>
      <use x="1378.240234" xlink:href="#DejaVuSans-45"/>
      <use x="1414.324219" xlink:href="#DejaVuSans-49"/>
      <use x="1477.947266" xlink:href="#DejaVuSans-45"/>
      <use x="1514.03125" xlink:href="#DejaVuSans-49"/>
     </g>
    </g>
   </g>
  </g>
 </g>
 <defs>
  <clipPath id="p26c9b08a7a">
   <rect height="242.5072" width="949.93" x="43.148125" y="31.48286"/>
  </clipPath>
 </defs>
</svg>
