<?xml version="1.0" encoding="utf-8" standalone="no"?>
<!DOCTYPE svg PUBLIC "-//W3C//DTD SVG 1.1//EN"
  "http://www.w3.org/Graphics/SVG/1.1/DTD/svg11.dtd">
<!-- Created with matplotlib (https://matplotlib.org/) -->
<svg height="388.844525pt" version="1.1" viewBox="0 0 1000.358125 388.844525" width="1000.358125pt" xmlns="http://www.w3.org/2000/svg" xmlns:xlink="http://www.w3.org/1999/xlink">
 <defs>
  <style type="text/css">
*{stroke-linecap:butt;stroke-linejoin:round;}
  </style>
 </defs>
 <g id="figure_1">
  <g id="axes_1">
   <g id="patch_1">
    <path d="M 32.968125 353.2239 
L 993.158125 353.2239 
L 993.158125 35.2559 
L 32.968125 35.2559 
z
" style="fill:#ffffff;"/>
   </g>
   <g id="matplotlib.axis_1">
    <g id="xtick_1">
     <g id="text_1">
      <!-- 0 -->
      <defs>
       <path d="M 31.78125 66.40625 
Q 24.171875 66.40625 20.328125 58.90625 
Q 16.5 51.421875 16.5 36.375 
Q 16.5 21.390625 20.328125 13.890625 
Q 24.171875 6.390625 31.78125 6.390625 
Q 39.453125 6.390625 43.28125 13.890625 
Q 47.125 21.390625 47.125 36.375 
Q 47.125 51.421875 43.28125 58.90625 
Q 39.453125 66.40625 31.78125 66.40625 
z
M 31.78125 74.21875 
Q 44.046875 74.21875 50.515625 64.515625 
Q 56.984375 54.828125 56.984375 36.375 
Q 56.984375 17.96875 50.515625 8.265625 
Q 44.046875 -1.421875 31.78125 -1.421875 
Q 19.53125 -1.421875 13.0625 8.265625 
Q 6.59375 17.96875 6.59375 36.375 
Q 6.59375 54.828125 13.0625 64.515625 
Q 19.53125 74.21875 31.78125 74.21875 
z
" id="DejaVuSans-48"/>
      </defs>
      <g transform="translate(68.209736 366.30265)scale(0.08 -0.08)">
       <use xlink:href="#DejaVuSans-48"/>
      </g>
     </g>
    </g>
    <g id="xtick_2">
     <g id="text_2">
      <!-- 20 -->
      <defs>
       <path d="M 19.1875 8.296875 
L 53.609375 8.296875 
L 53.609375 0 
L 7.328125 0 
L 7.328125 8.296875 
Q 12.9375 14.109375 22.625 23.890625 
Q 32.328125 33.6875 34.8125 36.53125 
Q 39.546875 41.84375 41.421875 45.53125 
Q 43.3125 49.21875 43.3125 52.78125 
Q 43.3125 58.59375 39.234375 62.25 
Q 35.15625 65.921875 28.609375 65.921875 
Q 23.96875 65.921875 18.8125 64.3125 
Q 13.671875 62.703125 7.8125 59.421875 
L 7.8125 69.390625 
Q 13.765625 71.78125 18.9375 73 
Q 24.125 74.21875 28.421875 74.21875 
Q 39.75 74.21875 46.484375 68.546875 
Q 53.21875 62.890625 53.21875 53.421875 
Q 53.21875 48.921875 51.53125 44.890625 
Q 49.859375 40.875 45.40625 35.40625 
Q 44.1875 33.984375 37.640625 27.21875 
Q 31.109375 20.453125 19.1875 8.296875 
z
" id="DejaVuSans-50"/>
      </defs>
      <g transform="translate(182.832521 366.30265)scale(0.08 -0.08)">
       <use xlink:href="#DejaVuSans-50"/>
       <use x="63.623047" xlink:href="#DejaVuSans-48"/>
      </g>
     </g>
    </g>
    <g id="xtick_3">
     <g id="text_3">
      <!-- 40 -->
      <defs>
       <path d="M 37.796875 64.3125 
L 12.890625 25.390625 
L 37.796875 25.390625 
z
M 35.203125 72.90625 
L 47.609375 72.90625 
L 47.609375 25.390625 
L 58.015625 25.390625 
L 58.015625 17.1875 
L 47.609375 17.1875 
L 47.609375 0 
L 37.796875 0 
L 37.796875 17.1875 
L 4.890625 17.1875 
L 4.890625 26.703125 
z
" id="DejaVuSans-52"/>
      </defs>
      <g transform="translate(300.000306 366.30265)scale(0.08 -0.08)">
       <use xlink:href="#DejaVuSans-52"/>
       <use x="63.623047" xlink:href="#DejaVuSans-48"/>
      </g>
     </g>
    </g>
    <g id="xtick_4">
     <g id="text_4">
      <!-- 60 -->
      <defs>
       <path d="M 33.015625 40.375 
Q 26.375 40.375 22.484375 35.828125 
Q 18.609375 31.296875 18.609375 23.390625 
Q 18.609375 15.53125 22.484375 10.953125 
Q 26.375 6.390625 33.015625 6.390625 
Q 39.65625 6.390625 43.53125 10.953125 
Q 47.40625 15.53125 47.40625 23.390625 
Q 47.40625 31.296875 43.53125 35.828125 
Q 39.65625 40.375 33.015625 40.375 
z
M 52.59375 71.296875 
L 52.59375 62.3125 
Q 48.875 64.0625 45.09375 64.984375 
Q 41.3125 65.921875 37.59375 65.921875 
Q 27.828125 65.921875 22.671875 59.328125 
Q 17.53125 52.734375 16.796875 39.40625 
Q 19.671875 43.65625 24.015625 45.921875 
Q 28.375 48.1875 33.59375 48.1875 
Q 44.578125 48.1875 50.953125 41.515625 
Q 57.328125 34.859375 57.328125 23.390625 
Q 57.328125 12.15625 50.6875 5.359375 
Q 44.046875 -1.421875 33.015625 -1.421875 
Q 20.359375 -1.421875 13.671875 8.265625 
Q 6.984375 17.96875 6.984375 36.375 
Q 6.984375 53.65625 15.1875 63.9375 
Q 23.390625 74.21875 37.203125 74.21875 
Q 40.921875 74.21875 44.703125 73.484375 
Q 48.484375 72.75 52.59375 71.296875 
z
" id="DejaVuSans-54"/>
      </defs>
      <g transform="translate(417.168091 366.30265)scale(0.08 -0.08)">
       <use xlink:href="#DejaVuSans-54"/>
       <use x="63.623047" xlink:href="#DejaVuSans-48"/>
      </g>
     </g>
    </g>
    <g id="xtick_5">
     <g id="text_5">
      <!-- 80 -->
      <defs>
       <path d="M 31.78125 34.625 
Q 24.75 34.625 20.71875 30.859375 
Q 16.703125 27.09375 16.703125 20.515625 
Q 16.703125 13.921875 20.71875 10.15625 
Q 24.75 6.390625 31.78125 6.390625 
Q 38.8125 6.390625 42.859375 10.171875 
Q 46.921875 13.96875 46.921875 20.515625 
Q 46.921875 27.09375 42.890625 30.859375 
Q 38.875 34.625 31.78125 34.625 
z
M 21.921875 38.8125 
Q 15.578125 40.375 12.03125 44.71875 
Q 8.5 49.078125 8.5 55.328125 
Q 8.5 64.0625 14.71875 69.140625 
Q 20.953125 74.21875 31.78125 74.21875 
Q 42.671875 74.21875 48.875 69.140625 
Q 55.078125 64.0625 55.078125 55.328125 
Q 55.078125 49.078125 51.53125 44.71875 
Q 48 40.375 41.703125 38.8125 
Q 48.828125 37.15625 52.796875 32.3125 
Q 56.78125 27.484375 56.78125 20.515625 
Q 56.78125 9.90625 50.3125 4.234375 
Q 43.84375 -1.421875 31.78125 -1.421875 
Q 19.734375 -1.421875 13.25 4.234375 
Q 6.78125 9.90625 6.78125 20.515625 
Q 6.78125 27.484375 10.78125 32.3125 
Q 14.796875 37.15625 21.921875 38.8125 
z
M 18.3125 54.390625 
Q 18.3125 48.734375 21.84375 45.5625 
Q 25.390625 42.390625 31.78125 42.390625 
Q 38.140625 42.390625 41.71875 45.5625 
Q 45.3125 48.734375 45.3125 54.390625 
Q 45.3125 60.0625 41.71875 63.234375 
Q 38.140625 66.40625 31.78125 66.40625 
Q 25.390625 66.40625 21.84375 63.234375 
Q 18.3125 60.0625 18.3125 54.390625 
z
" id="DejaVuSans-56"/>
      </defs>
      <g transform="translate(534.335877 366.30265)scale(0.08 -0.08)">
       <use xlink:href="#DejaVuSans-56"/>
       <use x="63.623047" xlink:href="#DejaVuSans-48"/>
      </g>
     </g>
    </g>
    <g id="xtick_6">
     <g id="text_6">
      <!-- 100 -->
      <defs>
       <path d="M 12.40625 8.296875 
L 28.515625 8.296875 
L 28.515625 63.921875 
L 10.984375 60.40625 
L 10.984375 69.390625 
L 28.421875 72.90625 
L 38.28125 72.90625 
L 38.28125 8.296875 
L 54.390625 8.296875 
L 54.390625 0 
L 12.40625 0 
z
" id="DejaVuSans-49"/>
      </defs>
      <g transform="translate(648.958662 366.30265)scale(0.08 -0.08)">
       <use xlink:href="#DejaVuSans-49"/>
       <use x="63.623047" xlink:href="#DejaVuSans-48"/>
       <use x="127.246094" xlink:href="#DejaVuSans-48"/>
      </g>
     </g>
    </g>
    <g id="xtick_7">
     <g id="text_7">
      <!-- 120 -->
      <g transform="translate(766.126447 366.30265)scale(0.08 -0.08)">
       <use xlink:href="#DejaVuSans-49"/>
       <use x="63.623047" xlink:href="#DejaVuSans-50"/>
       <use x="127.246094" xlink:href="#DejaVuSans-48"/>
      </g>
     </g>
    </g>
    <g id="xtick_8">
     <g id="text_8">
      <!-- 140 -->
      <g transform="translate(883.294232 366.30265)scale(0.08 -0.08)">
       <use xlink:href="#DejaVuSans-49"/>
       <use x="63.623047" xlink:href="#DejaVuSans-52"/>
       <use x="127.246094" xlink:href="#DejaVuSans-48"/>
      </g>
     </g>
    </g>
    <g id="text_9">
     <!-- Read Position -->
     <defs>
      <path d="M 44.390625 34.1875 
Q 47.5625 33.109375 50.5625 29.59375 
Q 53.5625 26.078125 56.59375 19.921875 
L 66.609375 0 
L 56 0 
L 46.6875 18.703125 
Q 43.0625 26.03125 39.671875 28.421875 
Q 36.28125 30.8125 30.421875 30.8125 
L 19.671875 30.8125 
L 19.671875 0 
L 9.8125 0 
L 9.8125 72.90625 
L 32.078125 72.90625 
Q 44.578125 72.90625 50.734375 67.671875 
Q 56.890625 62.453125 56.890625 51.90625 
Q 56.890625 45.015625 53.6875 40.46875 
Q 50.484375 35.9375 44.390625 34.1875 
z
M 19.671875 64.796875 
L 19.671875 38.921875 
L 32.078125 38.921875 
Q 39.203125 38.921875 42.84375 42.21875 
Q 46.484375 45.515625 46.484375 51.90625 
Q 46.484375 58.296875 42.84375 61.546875 
Q 39.203125 64.796875 32.078125 64.796875 
z
" id="DejaVuSans-82"/>
      <path d="M 56.203125 29.59375 
L 56.203125 25.203125 
L 14.890625 25.203125 
Q 15.484375 15.921875 20.484375 11.0625 
Q 25.484375 6.203125 34.421875 6.203125 
Q 39.59375 6.203125 44.453125 7.46875 
Q 49.3125 8.734375 54.109375 11.28125 
L 54.109375 2.78125 
Q 49.265625 0.734375 44.1875 -0.34375 
Q 39.109375 -1.421875 33.890625 -1.421875 
Q 20.796875 -1.421875 13.15625 6.1875 
Q 5.515625 13.8125 5.515625 26.8125 
Q 5.515625 40.234375 12.765625 48.109375 
Q 20.015625 56 32.328125 56 
Q 43.359375 56 49.78125 48.890625 
Q 56.203125 41.796875 56.203125 29.59375 
z
M 47.21875 32.234375 
Q 47.125 39.59375 43.09375 43.984375 
Q 39.0625 48.390625 32.421875 48.390625 
Q 24.90625 48.390625 20.390625 44.140625 
Q 15.875 39.890625 15.1875 32.171875 
z
" id="DejaVuSans-101"/>
      <path d="M 34.28125 27.484375 
Q 23.390625 27.484375 19.1875 25 
Q 14.984375 22.515625 14.984375 16.5 
Q 14.984375 11.71875 18.140625 8.90625 
Q 21.296875 6.109375 26.703125 6.109375 
Q 34.1875 6.109375 38.703125 11.40625 
Q 43.21875 16.703125 43.21875 25.484375 
L 43.21875 27.484375 
z
M 52.203125 31.203125 
L 52.203125 0 
L 43.21875 0 
L 43.21875 8.296875 
Q 40.140625 3.328125 35.546875 0.953125 
Q 30.953125 -1.421875 24.3125 -1.421875 
Q 15.921875 -1.421875 10.953125 3.296875 
Q 6 8.015625 6 15.921875 
Q 6 25.140625 12.171875 29.828125 
Q 18.359375 34.515625 30.609375 34.515625 
L 43.21875 34.515625 
L 43.21875 35.40625 
Q 43.21875 41.609375 39.140625 45 
Q 35.0625 48.390625 27.6875 48.390625 
Q 23 48.390625 18.546875 47.265625 
Q 14.109375 46.140625 10.015625 43.890625 
L 10.015625 52.203125 
Q 14.9375 54.109375 19.578125 55.046875 
Q 24.21875 56 28.609375 56 
Q 40.484375 56 46.34375 49.84375 
Q 52.203125 43.703125 52.203125 31.203125 
z
" id="DejaVuSans-97"/>
      <path d="M 45.40625 46.390625 
L 45.40625 75.984375 
L 54.390625 75.984375 
L 54.390625 0 
L 45.40625 0 
L 45.40625 8.203125 
Q 42.578125 3.328125 38.25 0.953125 
Q 33.9375 -1.421875 27.875 -1.421875 
Q 17.96875 -1.421875 11.734375 6.484375 
Q 5.515625 14.40625 5.515625 27.296875 
Q 5.515625 40.1875 11.734375 48.09375 
Q 17.96875 56 27.875 56 
Q 33.9375 56 38.25 53.625 
Q 42.578125 51.265625 45.40625 46.390625 
z
M 14.796875 27.296875 
Q 14.796875 17.390625 18.875 11.75 
Q 22.953125 6.109375 30.078125 6.109375 
Q 37.203125 6.109375 41.296875 11.75 
Q 45.40625 17.390625 45.40625 27.296875 
Q 45.40625 37.203125 41.296875 42.84375 
Q 37.203125 48.484375 30.078125 48.484375 
Q 22.953125 48.484375 18.875 42.84375 
Q 14.796875 37.203125 14.796875 27.296875 
z
" id="DejaVuSans-100"/>
      <path id="DejaVuSans-32"/>
      <path d="M 19.671875 64.796875 
L 19.671875 37.40625 
L 32.078125 37.40625 
Q 38.96875 37.40625 42.71875 40.96875 
Q 46.484375 44.53125 46.484375 51.125 
Q 46.484375 57.671875 42.71875 61.234375 
Q 38.96875 64.796875 32.078125 64.796875 
z
M 9.8125 72.90625 
L 32.078125 72.90625 
Q 44.34375 72.90625 50.609375 67.359375 
Q 56.890625 61.8125 56.890625 51.125 
Q 56.890625 40.328125 50.609375 34.8125 
Q 44.34375 29.296875 32.078125 29.296875 
L 19.671875 29.296875 
L 19.671875 0 
L 9.8125 0 
z
" id="DejaVuSans-80"/>
      <path d="M 30.609375 48.390625 
Q 23.390625 48.390625 19.1875 42.75 
Q 14.984375 37.109375 14.984375 27.296875 
Q 14.984375 17.484375 19.15625 11.84375 
Q 23.34375 6.203125 30.609375 6.203125 
Q 37.796875 6.203125 41.984375 11.859375 
Q 46.1875 17.53125 46.1875 27.296875 
Q 46.1875 37.015625 41.984375 42.703125 
Q 37.796875 48.390625 30.609375 48.390625 
z
M 30.609375 56 
Q 42.328125 56 49.015625 48.375 
Q 55.71875 40.765625 55.71875 27.296875 
Q 55.71875 13.875 49.015625 6.21875 
Q 42.328125 -1.421875 30.609375 -1.421875 
Q 18.84375 -1.421875 12.171875 6.21875 
Q 5.515625 13.875 5.515625 27.296875 
Q 5.515625 40.765625 12.171875 48.375 
Q 18.84375 56 30.609375 56 
z
" id="DejaVuSans-111"/>
      <path d="M 44.28125 53.078125 
L 44.28125 44.578125 
Q 40.484375 46.53125 36.375 47.5 
Q 32.28125 48.484375 27.875 48.484375 
Q 21.1875 48.484375 17.84375 46.4375 
Q 14.5 44.390625 14.5 40.28125 
Q 14.5 37.15625 16.890625 35.375 
Q 19.28125 33.59375 26.515625 31.984375 
L 29.59375 31.296875 
Q 39.15625 29.25 43.1875 25.515625 
Q 47.21875 21.78125 47.21875 15.09375 
Q 47.21875 7.46875 41.1875 3.015625 
Q 35.15625 -1.421875 24.609375 -1.421875 
Q 20.21875 -1.421875 15.453125 -0.5625 
Q 10.6875 0.296875 5.421875 2 
L 5.421875 11.28125 
Q 10.40625 8.6875 15.234375 7.390625 
Q 20.0625 6.109375 24.8125 6.109375 
Q 31.15625 6.109375 34.5625 8.28125 
Q 37.984375 10.453125 37.984375 14.40625 
Q 37.984375 18.0625 35.515625 20.015625 
Q 33.0625 21.96875 24.703125 23.78125 
L 21.578125 24.515625 
Q 13.234375 26.265625 9.515625 29.90625 
Q 5.8125 33.546875 5.8125 39.890625 
Q 5.8125 47.609375 11.28125 51.796875 
Q 16.75 56 26.8125 56 
Q 31.78125 56 36.171875 55.265625 
Q 40.578125 54.546875 44.28125 53.078125 
z
" id="DejaVuSans-115"/>
      <path d="M 9.421875 54.6875 
L 18.40625 54.6875 
L 18.40625 0 
L 9.421875 0 
z
M 9.421875 75.984375 
L 18.40625 75.984375 
L 18.40625 64.59375 
L 9.421875 64.59375 
z
" id="DejaVuSans-105"/>
      <path d="M 18.3125 70.21875 
L 18.3125 54.6875 
L 36.8125 54.6875 
L 36.8125 47.703125 
L 18.3125 47.703125 
L 18.3125 18.015625 
Q 18.3125 11.328125 20.140625 9.421875 
Q 21.96875 7.515625 27.59375 7.515625 
L 36.8125 7.515625 
L 36.8125 0 
L 27.59375 0 
Q 17.1875 0 13.234375 3.875 
Q 9.28125 7.765625 9.28125 18.015625 
L 9.28125 47.703125 
L 2.6875 47.703125 
L 2.6875 54.6875 
L 9.28125 54.6875 
L 9.28125 70.21875 
z
" id="DejaVuSans-116"/>
      <path d="M 54.890625 33.015625 
L 54.890625 0 
L 45.90625 0 
L 45.90625 32.71875 
Q 45.90625 40.484375 42.875 44.328125 
Q 39.84375 48.1875 33.796875 48.1875 
Q 26.515625 48.1875 22.3125 43.546875 
Q 18.109375 38.921875 18.109375 30.90625 
L 18.109375 0 
L 9.078125 0 
L 9.078125 54.6875 
L 18.109375 54.6875 
L 18.109375 46.1875 
Q 21.34375 51.125 25.703125 53.5625 
Q 30.078125 56 35.796875 56 
Q 45.21875 56 50.046875 50.171875 
Q 54.890625 44.34375 54.890625 33.015625 
z
" id="DejaVuSans-110"/>
     </defs>
     <g transform="translate(479.045156 379.564837)scale(0.1 -0.1)">
      <use xlink:href="#DejaVuSans-82"/>
      <use x="69.419922" xlink:href="#DejaVuSans-101"/>
      <use x="130.943359" xlink:href="#DejaVuSans-97"/>
      <use x="192.222656" xlink:href="#DejaVuSans-100"/>
      <use x="255.699219" xlink:href="#DejaVuSans-32"/>
      <use x="287.486328" xlink:href="#DejaVuSans-80"/>
      <use x="347.742188" xlink:href="#DejaVuSans-111"/>
      <use x="408.923828" xlink:href="#DejaVuSans-115"/>
      <use x="461.023438" xlink:href="#DejaVuSans-105"/>
      <use x="488.806641" xlink:href="#DejaVuSans-116"/>
      <use x="528.015625" xlink:href="#DejaVuSans-105"/>
      <use x="555.798828" xlink:href="#DejaVuSans-111"/>
      <use x="616.980469" xlink:href="#DejaVuSans-110"/>
     </g>
    </g>
   </g>
   <g id="matplotlib.axis_2">
    <g id="ytick_1">
     <g id="line2d_1">
      <path clip-path="url(#pf64b23d6a4)" d="M 32.968125 353.2239 
L 993.158125 353.2239 
" style="fill:none;stroke:#dedede;stroke-linecap:square;"/>
     </g>
     <g id="text_10">
      <!-- 0 -->
      <g transform="translate(20.878125 356.263275)scale(0.08 -0.08)">
       <use xlink:href="#DejaVuSans-48"/>
      </g>
     </g>
    </g>
    <g id="ytick_2">
     <g id="line2d_2">
      <path clip-path="url(#pf64b23d6a4)" d="M 32.968125 289.6303 
L 993.158125 289.6303 
" style="fill:none;stroke:#dedede;stroke-linecap:square;"/>
     </g>
     <g id="text_11">
      <!-- 1 -->
      <g transform="translate(20.878125 292.669675)scale(0.08 -0.08)">
       <use xlink:href="#DejaVuSans-49"/>
      </g>
     </g>
    </g>
    <g id="ytick_3">
     <g id="line2d_3">
      <path clip-path="url(#pf64b23d6a4)" d="M 32.968125 226.0367 
L 993.158125 226.0367 
" style="fill:none;stroke:#dedede;stroke-linecap:square;"/>
     </g>
     <g id="text_12">
      <!-- 2 -->
      <g transform="translate(20.878125 229.076075)scale(0.08 -0.08)">
       <use xlink:href="#DejaVuSans-50"/>
      </g>
     </g>
    </g>
    <g id="ytick_4">
     <g id="line2d_4">
      <path clip-path="url(#pf64b23d6a4)" d="M 32.968125 162.4431 
L 993.158125 162.4431 
" style="fill:none;stroke:#dedede;stroke-linecap:square;"/>
     </g>
     <g id="text_13">
      <!-- 3 -->
      <defs>
       <path d="M 40.578125 39.3125 
Q 47.65625 37.796875 51.625 33 
Q 55.609375 28.21875 55.609375 21.1875 
Q 55.609375 10.40625 48.1875 4.484375 
Q 40.765625 -1.421875 27.09375 -1.421875 
Q 22.515625 -1.421875 17.65625 -0.515625 
Q 12.796875 0.390625 7.625 2.203125 
L 7.625 11.71875 
Q 11.71875 9.328125 16.59375 8.109375 
Q 21.484375 6.890625 26.8125 6.890625 
Q 36.078125 6.890625 40.9375 10.546875 
Q 45.796875 14.203125 45.796875 21.1875 
Q 45.796875 27.640625 41.28125 31.265625 
Q 36.765625 34.90625 28.71875 34.90625 
L 20.21875 34.90625 
L 20.21875 43.015625 
L 29.109375 43.015625 
Q 36.375 43.015625 40.234375 45.921875 
Q 44.09375 48.828125 44.09375 54.296875 
Q 44.09375 59.90625 40.109375 62.90625 
Q 36.140625 65.921875 28.71875 65.921875 
Q 24.65625 65.921875 20.015625 65.03125 
Q 15.375 64.15625 9.8125 62.3125 
L 9.8125 71.09375 
Q 15.4375 72.65625 20.34375 73.4375 
Q 25.25 74.21875 29.59375 74.21875 
Q 40.828125 74.21875 47.359375 69.109375 
Q 53.90625 64.015625 53.90625 55.328125 
Q 53.90625 49.265625 50.4375 45.09375 
Q 46.96875 40.921875 40.578125 39.3125 
z
" id="DejaVuSans-51"/>
      </defs>
      <g transform="translate(20.878125 165.482475)scale(0.08 -0.08)">
       <use xlink:href="#DejaVuSans-51"/>
      </g>
     </g>
    </g>
    <g id="ytick_5">
     <g id="line2d_5">
      <path clip-path="url(#pf64b23d6a4)" d="M 32.968125 98.8495 
L 993.158125 98.8495 
" style="fill:none;stroke:#dedede;stroke-linecap:square;"/>
     </g>
     <g id="text_14">
      <!-- 4 -->
      <g transform="translate(20.878125 101.888875)scale(0.08 -0.08)">
       <use xlink:href="#DejaVuSans-52"/>
      </g>
     </g>
    </g>
    <g id="ytick_6">
     <g id="line2d_6">
      <path clip-path="url(#pf64b23d6a4)" d="M 32.968125 35.2559 
L 993.158125 35.2559 
" style="fill:none;stroke:#dedede;stroke-linecap:square;"/>
     </g>
     <g id="text_15">
      <!-- 5 -->
      <defs>
       <path d="M 10.796875 72.90625 
L 49.515625 72.90625 
L 49.515625 64.59375 
L 19.828125 64.59375 
L 19.828125 46.734375 
Q 21.96875 47.46875 24.109375 47.828125 
Q 26.265625 48.1875 28.421875 48.1875 
Q 40.625 48.1875 47.75 41.5 
Q 54.890625 34.8125 54.890625 23.390625 
Q 54.890625 11.625 47.5625 5.09375 
Q 40.234375 -1.421875 26.90625 -1.421875 
Q 22.3125 -1.421875 17.546875 -0.640625 
Q 12.796875 0.140625 7.71875 1.703125 
L 7.71875 11.625 
Q 12.109375 9.234375 16.796875 8.0625 
Q 21.484375 6.890625 26.703125 6.890625 
Q 35.15625 6.890625 40.078125 11.328125 
Q 45.015625 15.765625 45.015625 23.390625 
Q 45.015625 31 40.078125 35.4375 
Q 35.15625 39.890625 26.703125 39.890625 
Q 22.75 39.890625 18.8125 39.015625 
Q 14.890625 38.140625 10.796875 36.28125 
z
" id="DejaVuSans-53"/>
      </defs>
      <g transform="translate(20.878125 38.295275)scale(0.08 -0.08)">
       <use xlink:href="#DejaVuSans-53"/>
      </g>
     </g>
    </g>
    <g id="text_16">
     <!-- R2 Before filtering: Base Content Percent -->
     <defs>
      <path d="M 19.671875 34.8125 
L 19.671875 8.109375 
L 35.5 8.109375 
Q 43.453125 8.109375 47.28125 11.40625 
Q 51.125 14.703125 51.125 21.484375 
Q 51.125 28.328125 47.28125 31.5625 
Q 43.453125 34.8125 35.5 34.8125 
z
M 19.671875 64.796875 
L 19.671875 42.828125 
L 34.28125 42.828125 
Q 41.5 42.828125 45.03125 45.53125 
Q 48.578125 48.25 48.578125 53.8125 
Q 48.578125 59.328125 45.03125 62.0625 
Q 41.5 64.796875 34.28125 64.796875 
z
M 9.8125 72.90625 
L 35.015625 72.90625 
Q 46.296875 72.90625 52.390625 68.21875 
Q 58.5 63.53125 58.5 54.890625 
Q 58.5 48.1875 55.375 44.234375 
Q 52.25 40.28125 46.1875 39.3125 
Q 53.46875 37.75 57.5 32.78125 
Q 61.53125 27.828125 61.53125 20.40625 
Q 61.53125 10.640625 54.890625 5.3125 
Q 48.25 0 35.984375 0 
L 9.8125 0 
z
" id="DejaVuSans-66"/>
      <path d="M 37.109375 75.984375 
L 37.109375 68.5 
L 28.515625 68.5 
Q 23.6875 68.5 21.796875 66.546875 
Q 19.921875 64.59375 19.921875 59.515625 
L 19.921875 54.6875 
L 34.71875 54.6875 
L 34.71875 47.703125 
L 19.921875 47.703125 
L 19.921875 0 
L 10.890625 0 
L 10.890625 47.703125 
L 2.296875 47.703125 
L 2.296875 54.6875 
L 10.890625 54.6875 
L 10.890625 58.5 
Q 10.890625 67.625 15.140625 71.796875 
Q 19.390625 75.984375 28.609375 75.984375 
z
" id="DejaVuSans-102"/>
      <path d="M 41.109375 46.296875 
Q 39.59375 47.171875 37.8125 47.578125 
Q 36.03125 48 33.890625 48 
Q 26.265625 48 22.1875 43.046875 
Q 18.109375 38.09375 18.109375 28.8125 
L 18.109375 0 
L 9.078125 0 
L 9.078125 54.6875 
L 18.109375 54.6875 
L 18.109375 46.1875 
Q 20.953125 51.171875 25.484375 53.578125 
Q 30.03125 56 36.53125 56 
Q 37.453125 56 38.578125 55.875 
Q 39.703125 55.765625 41.0625 55.515625 
z
" id="DejaVuSans-114"/>
      <path d="M 9.421875 75.984375 
L 18.40625 75.984375 
L 18.40625 0 
L 9.421875 0 
z
" id="DejaVuSans-108"/>
      <path d="M 45.40625 27.984375 
Q 45.40625 37.75 41.375 43.109375 
Q 37.359375 48.484375 30.078125 48.484375 
Q 22.859375 48.484375 18.828125 43.109375 
Q 14.796875 37.75 14.796875 27.984375 
Q 14.796875 18.265625 18.828125 12.890625 
Q 22.859375 7.515625 30.078125 7.515625 
Q 37.359375 7.515625 41.375 12.890625 
Q 45.40625 18.265625 45.40625 27.984375 
z
M 54.390625 6.78125 
Q 54.390625 -7.171875 48.1875 -13.984375 
Q 42 -20.796875 29.203125 -20.796875 
Q 24.46875 -20.796875 20.265625 -20.09375 
Q 16.0625 -19.390625 12.109375 -17.921875 
L 12.109375 -9.1875 
Q 16.0625 -11.328125 19.921875 -12.34375 
Q 23.78125 -13.375 27.78125 -13.375 
Q 36.625 -13.375 41.015625 -8.765625 
Q 45.40625 -4.15625 45.40625 5.171875 
L 45.40625 9.625 
Q 42.625 4.78125 38.28125 2.390625 
Q 33.9375 0 27.875 0 
Q 17.828125 0 11.671875 7.65625 
Q 5.515625 15.328125 5.515625 27.984375 
Q 5.515625 40.671875 11.671875 48.328125 
Q 17.828125 56 27.875 56 
Q 33.9375 56 38.28125 53.609375 
Q 42.625 51.21875 45.40625 46.390625 
L 45.40625 54.6875 
L 54.390625 54.6875 
z
" id="DejaVuSans-103"/>
      <path d="M 11.71875 12.40625 
L 22.015625 12.40625 
L 22.015625 0 
L 11.71875 0 
z
M 11.71875 51.703125 
L 22.015625 51.703125 
L 22.015625 39.3125 
L 11.71875 39.3125 
z
" id="DejaVuSans-58"/>
      <path d="M 64.40625 67.28125 
L 64.40625 56.890625 
Q 59.421875 61.53125 53.78125 63.8125 
Q 48.140625 66.109375 41.796875 66.109375 
Q 29.296875 66.109375 22.65625 58.46875 
Q 16.015625 50.828125 16.015625 36.375 
Q 16.015625 21.96875 22.65625 14.328125 
Q 29.296875 6.6875 41.796875 6.6875 
Q 48.140625 6.6875 53.78125 8.984375 
Q 59.421875 11.28125 64.40625 15.921875 
L 64.40625 5.609375 
Q 59.234375 2.09375 53.4375 0.328125 
Q 47.65625 -1.421875 41.21875 -1.421875 
Q 24.65625 -1.421875 15.125 8.703125 
Q 5.609375 18.84375 5.609375 36.375 
Q 5.609375 53.953125 15.125 64.078125 
Q 24.65625 74.21875 41.21875 74.21875 
Q 47.75 74.21875 53.53125 72.484375 
Q 59.328125 70.75 64.40625 67.28125 
z
" id="DejaVuSans-67"/>
      <path d="M 48.78125 52.59375 
L 48.78125 44.1875 
Q 44.96875 46.296875 41.140625 47.34375 
Q 37.3125 48.390625 33.40625 48.390625 
Q 24.65625 48.390625 19.8125 42.84375 
Q 14.984375 37.3125 14.984375 27.296875 
Q 14.984375 17.28125 19.8125 11.734375 
Q 24.65625 6.203125 33.40625 6.203125 
Q 37.3125 6.203125 41.140625 7.25 
Q 44.96875 8.296875 48.78125 10.40625 
L 48.78125 2.09375 
Q 45.015625 0.34375 40.984375 -0.53125 
Q 36.96875 -1.421875 32.421875 -1.421875 
Q 20.0625 -1.421875 12.78125 6.34375 
Q 5.515625 14.109375 5.515625 27.296875 
Q 5.515625 40.671875 12.859375 48.328125 
Q 20.21875 56 33.015625 56 
Q 37.15625 56 41.109375 55.140625 
Q 45.0625 54.296875 48.78125 52.59375 
z
" id="DejaVuSans-99"/>
     </defs>
     <g transform="translate(14.798438 297.503181)rotate(-90)scale(0.1 -0.1)">
      <use xlink:href="#DejaVuSans-82"/>
      <use x="69.482422" xlink:href="#DejaVuSans-50"/>
      <use x="133.105469" xlink:href="#DejaVuSans-32"/>
      <use x="164.892578" xlink:href="#DejaVuSans-66"/>
      <use x="233.496094" xlink:href="#DejaVuSans-101"/>
      <use x="295.019531" xlink:href="#DejaVuSans-102"/>
      <use x="330.224609" xlink:href="#DejaVuSans-111"/>
      <use x="391.40625" xlink:href="#DejaVuSans-114"/>
      <use x="432.488281" xlink:href="#DejaVuSans-101"/>
      <use x="494.011719" xlink:href="#DejaVuSans-32"/>
      <use x="525.798828" xlink:href="#DejaVuSans-102"/>
      <use x="561.003906" xlink:href="#DejaVuSans-105"/>
      <use x="588.787109" xlink:href="#DejaVuSans-108"/>
      <use x="616.570312" xlink:href="#DejaVuSans-116"/>
      <use x="655.779297" xlink:href="#DejaVuSans-101"/>
      <use x="717.302734" xlink:href="#DejaVuSans-114"/>
      <use x="758.416016" xlink:href="#DejaVuSans-105"/>
      <use x="786.199219" xlink:href="#DejaVuSans-110"/>
      <use x="849.578125" xlink:href="#DejaVuSans-103"/>
      <use x="913.054688" xlink:href="#DejaVuSans-58"/>
      <use x="946.746094" xlink:href="#DejaVuSans-32"/>
      <use x="978.533203" xlink:href="#DejaVuSans-66"/>
      <use x="1047.136719" xlink:href="#DejaVuSans-97"/>
      <use x="1108.416016" xlink:href="#DejaVuSans-115"/>
      <use x="1160.515625" xlink:href="#DejaVuSans-101"/>
      <use x="1222.039062" xlink:href="#DejaVuSans-32"/>
      <use x="1253.826172" xlink:href="#DejaVuSans-67"/>
      <use x="1323.650391" xlink:href="#DejaVuSans-111"/>
      <use x="1384.832031" xlink:href="#DejaVuSans-110"/>
      <use x="1448.210938" xlink:href="#DejaVuSans-116"/>
      <use x="1487.419922" xlink:href="#DejaVuSans-101"/>
      <use x="1548.943359" xlink:href="#DejaVuSans-110"/>
      <use x="1612.322266" xlink:href="#DejaVuSans-116"/>
      <use x="1651.53125" xlink:href="#DejaVuSans-32"/>
      <use x="1683.318359" xlink:href="#DejaVuSans-80"/>
      <use x="1743.574219" xlink:href="#DejaVuSans-101"/>
      <use x="1805.097656" xlink:href="#DejaVuSans-114"/>
      <use x="1846.179688" xlink:href="#DejaVuSans-99"/>
      <use x="1901.160156" xlink:href="#DejaVuSans-101"/>
      <use x="1962.683594" xlink:href="#DejaVuSans-110"/>
      <use x="2026.0625" xlink:href="#DejaVuSans-116"/>
     </g>
    </g>
   </g>
   <g id="line2d_7">
    <path clip-path="url(#pf64b23d6a4)" d="M 76.613125 309.988138 
L 82.471514 353.2239 
L 949.513125 353.2239 
L 949.513125 353.2239 
" style="fill:none;stroke:#7cb5ec;stroke-linecap:square;"/>
   </g>
   <g id="line2d_8">
    <path clip-path="url(#pf64b23d6a4)" d="M 76.613125 295.673155 
L 82.471514 353.2239 
L 949.513125 353.2239 
L 949.513125 353.2239 
" style="fill:none;stroke:#434348;stroke-linecap:square;"/>
   </g>
   <g id="line2d_9">
    <path clip-path="url(#pf64b23d6a4)" d="M 76.613125 306.578249 
L 82.471514 353.2239 
L 949.513125 353.2239 
L 949.513125 353.2239 
" style="fill:none;stroke:#90ed7d;stroke-linecap:square;"/>
   </g>
   <g id="line2d_10">
    <path clip-path="url(#pf64b23d6a4)" d="M 76.613125 306.582192 
L 82.471514 353.2239 
L 949.513125 353.2239 
L 949.513125 353.2239 
" style="fill:none;stroke:#f7a35c;stroke-linecap:square;"/>
   </g>
   <g id="line2d_11">
    <path clip-path="url(#pf64b23d6a4)" d="M 76.613125 302.054264 
L 82.471514 353.2239 
L 949.513125 353.2239 
L 949.513125 353.2239 
" style="fill:none;stroke:#8085e9;stroke-linecap:square;"/>
   </g>
   <g id="line2d_12">
    <path clip-path="url(#pf64b23d6a4)" d="M 76.613125 303.535931 
L 82.471514 353.2239 
L 949.513125 353.2239 
L 949.513125 353.2239 
" style="fill:none;stroke:#f15c80;stroke-linecap:square;"/>
   </g>
   <g id="line2d_13">
    <path clip-path="url(#pf64b23d6a4)" d="M 76.613125 301.284272 
L 82.471514 353.2239 
L 949.513125 353.2239 
L 949.513125 353.2239 
" style="fill:none;stroke:#e4d354;stroke-linecap:square;"/>
   </g>
   <g id="line2d_14">
    <path clip-path="url(#pf64b23d6a4)" d="M 76.613125 315.925618 
L 82.471514 353.2239 
L 949.513125 353.2239 
L 949.513125 353.2239 
" style="fill:none;stroke:#2b908f;stroke-linecap:square;"/>
   </g>
   <g id="line2d_15">
    <path clip-path="url(#pf64b23d6a4)" d="M 76.613125 296.829922 
L 82.471514 353.2239 
L 949.513125 353.2239 
L 949.513125 353.2239 
" style="fill:none;stroke:#f45b5b;stroke-linecap:square;"/>
   </g>
   <g id="line2d_16">
    <path clip-path="url(#pf64b23d6a4)" d="M 76.613125 324.854986 
L 82.471514 353.2239 
L 949.513125 353.2239 
L 949.513125 353.2239 
" style="fill:none;stroke:#91e8e1;stroke-linecap:square;"/>
   </g>
   <g id="line2d_17">
    <path clip-path="url(#pf64b23d6a4)" d="M 76.613125 269.626933 
L 82.471514 353.2239 
L 164.488964 353.2239 
L 170.347353 347.252671 
L 176.205742 353.2239 
L 949.513125 353.2239 
L 949.513125 353.2239 
" style="fill:none;stroke:#7cb5ec;stroke-linecap:square;"/>
   </g>
   <g id="line2d_18">
    <path clip-path="url(#pf64b23d6a4)" d="M 76.613125 297.903255 
L 82.471514 353.2239 
L 949.513125 353.2239 
L 949.513125 353.2239 
" style="fill:none;stroke:#434348;stroke-linecap:square;"/>
   </g>
   <g id="line2d_19">
    <path clip-path="url(#pf64b23d6a4)" d="M 76.613125 298.607809 
L 82.471514 353.2239 
L 949.513125 353.2239 
L 949.513125 353.2239 
" style="fill:none;stroke:#90ed7d;stroke-linecap:square;"/>
   </g>
   <g id="line2d_20">
    <path clip-path="url(#pf64b23d6a4)" d="M 76.613125 305.079093 
L 82.471514 353.2239 
L 949.513125 353.2239 
L 949.513125 353.2239 
" style="fill:none;stroke:#f7a35c;stroke-linecap:square;"/>
   </g>
   <g id="line2d_21">
    <path clip-path="url(#pf64b23d6a4)" d="M 76.613125 323.548837 
L 82.471514 353.2239 
L 949.513125 353.2239 
L 949.513125 353.2239 
" style="fill:none;stroke:#8085e9;stroke-linecap:square;"/>
   </g>
   <g id="line2d_22">
    <path clip-path="url(#pf64b23d6a4)" d="M 76.613125 313.498568 
L 82.471514 353.2239 
L 949.513125 353.2239 
L 949.513125 353.2239 
" style="fill:none;stroke:#f15c80;stroke-linecap:square;"/>
   </g>
   <g id="line2d_23">
    <path clip-path="url(#pf64b23d6a4)" d="M 76.613125 305.349175 
L 82.471514 353.2239 
L 949.513125 353.2239 
L 949.513125 353.2239 
" style="fill:none;stroke:#e4d354;stroke-linecap:square;"/>
   </g>
   <g id="line2d_24">
    <path clip-path="url(#pf64b23d6a4)" d="M 76.613125 300.508812 
L 82.471514 353.2239 
L 949.513125 353.2239 
L 949.513125 353.2239 
" style="fill:none;stroke:#2b908f;stroke-linecap:square;"/>
   </g>
   <g id="line2d_25">
    <path clip-path="url(#pf64b23d6a4)" d="M 76.613125 317.125375 
L 82.471514 353.2239 
L 949.513125 353.2239 
L 949.513125 353.2239 
" style="fill:none;stroke:#f45b5b;stroke-linecap:square;"/>
   </g>
   <g id="line2d_26">
    <path clip-path="url(#pf64b23d6a4)" d="M 76.613125 317.280797 
L 82.471514 353.2239 
L 949.513125 353.2239 
L 949.513125 353.2239 
" style="fill:none;stroke:#91e8e1;stroke-linecap:square;"/>
   </g>
   <g id="line2d_27">
    <path clip-path="url(#pf64b23d6a4)" d="M 76.613125 284.990511 
L 82.471514 353.2239 
L 949.513125 353.2239 
L 949.513125 353.2239 
" style="fill:none;stroke:#7cb5ec;stroke-linecap:square;"/>
   </g>
   <g id="line2d_28">
    <path clip-path="url(#pf64b23d6a4)" d="M 76.613125 308.444339 
L 82.471514 353.2239 
L 949.513125 353.2239 
L 949.513125 353.2239 
" style="fill:none;stroke:#434348;stroke-linecap:square;"/>
   </g>
   <g id="line2d_29">
    <path clip-path="url(#pf64b23d6a4)" d="M 76.613125 314.525986 
L 82.471514 353.2239 
L 949.513125 353.2239 
L 949.513125 353.2239 
" style="fill:none;stroke:#90ed7d;stroke-linecap:square;"/>
   </g>
   <g id="line2d_30">
    <path clip-path="url(#pf64b23d6a4)" d="M 76.613125 312.063006 
L 82.471514 353.2239 
L 949.513125 353.2239 
L 949.513125 353.2239 
" style="fill:none;stroke:#f7a35c;stroke-linecap:square;"/>
   </g>
   <g id="line2d_31">
    <path clip-path="url(#pf64b23d6a4)" d="M 76.613125 298.870386 
L 82.471514 353.2239 
L 949.513125 353.2239 
L 949.513125 353.2239 
" style="fill:none;stroke:#8085e9;stroke-linecap:square;"/>
   </g>
   <g id="line2d_32">
    <path clip-path="url(#pf64b23d6a4)" d="M 76.613125 298.792866 
L 82.471514 353.2239 
L 949.513125 353.2239 
L 949.513125 353.2239 
" style="fill:none;stroke:#f15c80;stroke-linecap:square;"/>
   </g>
   <g id="line2d_33">
    <path clip-path="url(#pf64b23d6a4)" d="M 76.613125 296.946362 
L 82.471514 353.2239 
L 949.513125 353.2239 
L 949.513125 353.2239 
" style="fill:none;stroke:#e4d354;stroke-linecap:square;"/>
   </g>
   <g id="line2d_34">
    <path clip-path="url(#pf64b23d6a4)" d="M 76.613125 309.146731 
L 82.471514 353.2239 
L 949.513125 353.2239 
L 949.513125 353.2239 
" style="fill:none;stroke:#2b908f;stroke-linecap:square;"/>
   </g>
   <g id="line2d_35">
    <path clip-path="url(#pf64b23d6a4)" d="M 76.613125 321.363379 
L 82.471514 353.2239 
L 949.513125 353.2239 
L 949.513125 353.2239 
" style="fill:none;stroke:#f45b5b;stroke-linecap:square;"/>
   </g>
   <g id="line2d_36">
    <path clip-path="url(#pf64b23d6a4)" d="M 76.613125 309.989664 
L 82.471514 353.2239 
L 949.513125 353.2239 
L 949.513125 353.2239 
" style="fill:none;stroke:#91e8e1;stroke-linecap:square;"/>
   </g>
   <g id="line2d_37">
    <path clip-path="url(#pf64b23d6a4)" d="M 76.613125 326.526353 
L 82.471514 353.2239 
L 949.513125 353.2239 
L 949.513125 353.2239 
" style="fill:none;stroke:#7cb5ec;stroke-linecap:square;"/>
   </g>
   <g id="line2d_38">
    <path clip-path="url(#pf64b23d6a4)" d="M 76.613125 311.330853 
L 82.471514 353.2239 
L 949.513125 353.2239 
L 949.513125 353.2239 
" style="fill:none;stroke:#434348;stroke-linecap:square;"/>
   </g>
   <g id="line2d_39">
    <path clip-path="url(#pf64b23d6a4)" d="M 76.613125 335.848602 
L 82.471514 353.2239 
L 949.513125 353.2239 
L 949.513125 353.2239 
" style="fill:none;stroke:#90ed7d;stroke-linecap:square;"/>
   </g>
   <g id="line2d_40">
    <path clip-path="url(#pf64b23d6a4)" d="M 76.613125 315.44555 
L 82.471514 353.2239 
L 949.513125 353.2239 
L 949.513125 353.2239 
" style="fill:none;stroke:#f7a35c;stroke-linecap:square;"/>
   </g>
   <g id="line2d_41">
    <path clip-path="url(#pf64b23d6a4)" d="M 76.613125 321.186843 
L 82.471514 353.2239 
L 949.513125 353.2239 
L 949.513125 353.2239 
" style="fill:none;stroke:#8085e9;stroke-linecap:square;"/>
   </g>
   <g id="line2d_42">
    <path clip-path="url(#pf64b23d6a4)" d="M 76.613125 279.356118 
L 82.471514 353.2239 
L 949.513125 353.2239 
L 949.513125 353.2239 
" style="fill:none;stroke:#f15c80;stroke-linecap:square;"/>
   </g>
   <g id="line2d_43">
    <path clip-path="url(#pf64b23d6a4)" d="M 76.613125 307.208271 
L 82.471514 353.2239 
L 949.513125 353.2239 
L 949.513125 353.2239 
" style="fill:none;stroke:#e4d354;stroke-linecap:square;"/>
   </g>
   <g id="line2d_44">
    <path clip-path="url(#pf64b23d6a4)" d="M 76.613125 311.17225 
L 82.471514 353.2239 
L 949.513125 353.2239 
L 949.513125 353.2239 
" style="fill:none;stroke:#2b908f;stroke-linecap:square;"/>
   </g>
   <g id="line2d_45">
    <path clip-path="url(#pf64b23d6a4)" d="M 76.613125 340.376721 
L 82.471514 353.2239 
L 949.513125 353.2239 
L 949.513125 353.2239 
" style="fill:none;stroke:#f45b5b;stroke-linecap:square;"/>
   </g>
   <g id="line2d_46">
    <path clip-path="url(#pf64b23d6a4)" d="M 76.613125 294.340932 
L 82.471514 353.2239 
L 949.513125 353.2239 
L 949.513125 353.2239 
" style="fill:none;stroke:#91e8e1;stroke-linecap:square;"/>
   </g>
   <g id="line2d_47">
    <path clip-path="url(#pf64b23d6a4)" d="M 76.613125 305.119793 
L 82.471514 353.2239 
L 949.513125 353.2239 
L 949.513125 353.2239 
" style="fill:none;stroke:#7cb5ec;stroke-linecap:square;"/>
   </g>
   <g id="line2d_48">
    <path clip-path="url(#pf64b23d6a4)" d="M 76.613125 289.503113 
L 82.471514 353.2239 
L 949.513125 353.2239 
L 949.513125 353.2239 
" style="fill:none;stroke:#434348;stroke-linecap:square;"/>
   </g>
   <g id="line2d_49">
    <path clip-path="url(#pf64b23d6a4)" d="M 76.613125 336.220243 
L 82.471514 353.2239 
L 949.513125 353.2239 
L 949.513125 353.2239 
" style="fill:none;stroke:#90ed7d;stroke-linecap:square;"/>
   </g>
   <g id="line2d_50">
    <path clip-path="url(#pf64b23d6a4)" d="M 76.613125 273.7319 
L 82.471514 353.2239 
L 949.513125 353.2239 
L 949.513125 353.2239 
" style="fill:none;stroke:#f7a35c;stroke-linecap:square;"/>
   </g>
   <g id="line2d_51">
    <path clip-path="url(#pf64b23d6a4)" d="M 76.613125 319.262056 
L 82.471514 353.2239 
L 949.513125 353.2239 
L 949.513125 353.2239 
" style="fill:none;stroke:#8085e9;stroke-linecap:square;"/>
   </g>
   <g id="line2d_52">
    <path clip-path="url(#pf64b23d6a4)" d="M 76.613125 318.194892 
L 82.471514 353.2239 
L 949.513125 353.2239 
L 949.513125 353.2239 
" style="fill:none;stroke:#f15c80;stroke-linecap:square;"/>
   </g>
   <g id="line2d_53">
    <path clip-path="url(#pf64b23d6a4)" d="M 76.613125 308.01521 
L 82.471514 353.2239 
L 814.770172 353.2239 
L 820.628561 330.014525 
L 826.486951 353.2239 
L 949.513125 353.2239 
L 949.513125 353.2239 
" style="fill:none;stroke:#e4d354;stroke-linecap:square;"/>
   </g>
   <g id="line2d_54">
    <path clip-path="url(#pf64b23d6a4)" d="M 76.613125 326.601075 
L 82.471514 352.869369 
L 88.329904 353.2239 
L 94.188293 352.874865 
L 100.046682 353.2239 
L 146.913796 353.2239 
L 158.630575 352.839137 
L 164.488964 353.2239 
L 187.922521 353.2239 
L 193.78091 353.026022 
L 199.639299 353.2239 
L 228.931246 353.215655 
L 234.789635 352.808906 
L 240.648024 353.2239 
L 246.506414 352.951818 
L 252.364803 353.2239 
L 258.223192 353.080988 
L 264.081581 353.2239 
L 357.81581 353.209494 
L 363.674199 352.913928 
L 369.532588 353.2239 
L 469.125206 353.2239 
L 474.983595 353.096593 
L 480.841984 353.2239 
L 539.425877 353.2239 
L 592.15138 353.2239 
L 598.009769 352.997497 
L 603.868159 353.2239 
L 644.876883 353.214928 
L 650.735273 352.79306 
L 656.593662 353.219315 
L 662.452051 352.982841 
L 668.31044 353.195779 
L 691.743997 353.2239 
L 721.035944 353.172069 
L 726.894333 353.066622 
L 732.752722 353.2239 
L 814.770172 353.18636 
L 820.628561 352.926244 
L 826.486951 353.2239 
L 949.513125 353.2239 
L 949.513125 353.2239 
" style="fill:none;stroke:#2b908f;stroke-linecap:square;"/>
   </g>
   <g id="line2d_55">
    <path clip-path="url(#pf64b23d6a4)" d="M 76.613125 327.521656 
L 82.471514 352.962479 
L 88.329904 353.2239 
L 94.188293 352.95003 
L 100.046682 353.2239 
L 152.772185 353.128461 
L 158.630575 352.875338 
L 164.488964 353.2239 
L 193.78091 353.13261 
L 205.497689 353.21975 
L 228.931246 353.21975 
L 234.789635 352.846291 
L 240.648024 353.2239 
L 246.506414 353.095264 
L 252.364803 353.2239 
L 258.223192 353.157507 
L 269.939971 353.2239 
L 322.665474 353.215532 
L 357.81581 353.211202 
L 363.674199 352.969332 
L 369.532588 353.2239 
L 592.15138 353.2239 
L 598.009769 352.959232 
L 603.868159 353.2239 
L 644.876883 353.218051 
L 650.735273 352.709743 
L 656.593662 353.2239 
L 662.452051 352.982481 
L 668.31044 353.2178 
L 721.035944 353.190165 
L 726.894333 353.107836 
L 738.611112 353.2239 
L 744.469501 353.167304 
L 756.186279 353.2239 
L 814.770172 353.19933 
L 820.628561 352.892152 
L 826.486951 353.2239 
L 949.513125 353.2239 
L 949.513125 353.2239 
" style="fill:none;stroke:#f45b5b;stroke-linecap:square;"/>
   </g>
   <g id="line2d_56">
    <path clip-path="url(#pf64b23d6a4)" d="M 76.613125 329.027235 
L 82.471514 352.99081 
L 88.329904 353.2239 
L 94.188293 353.023772 
L 100.046682 353.2239 
L 152.772185 353.165039 
L 158.630575 352.976683 
L 164.488964 353.2239 
L 217.214467 353.219191 
L 228.931246 353.221546 
L 234.789635 352.964911 
L 240.648024 353.2239 
L 246.506414 353.146203 
L 252.364803 353.2239 
L 264.081581 353.2239 
L 357.81581 353.221517 
L 363.674199 353.042527 
L 369.532588 353.2239 
L 592.15138 353.2239 
L 598.009769 352.928599 
L 603.868159 353.221177 
L 644.876883 353.221077 
L 650.735273 352.744205 
L 656.593662 353.221046 
L 662.452051 352.962715 
L 668.31044 353.221014 
L 721.035944 353.19039 
L 726.894333 353.052225 
L 732.752722 353.2239 
L 814.770172 353.210317 
L 820.628561 352.909159 
L 826.486951 353.21356 
L 890.929232 353.2239 
L 931.937957 353.2239 
L 937.796346 353.033374 
L 943.654736 353.219427 
L 949.513125 353.2239 
L 949.513125 353.2239 
" style="fill:none;stroke:#91e8e1;stroke-linecap:square;"/>
   </g>
   <g id="line2d_57">
    <path clip-path="url(#pf64b23d6a4)" d="M 76.613125 327.4559 
L 82.471514 352.929382 
L 88.329904 353.221599 
L 94.188293 352.920178 
L 100.046682 353.2239 
L 146.913796 353.2239 
L 152.772185 353.111155 
L 158.630575 352.869558 
L 164.488964 353.2239 
L 205.497689 353.212395 
L 228.931246 353.212395 
L 234.789635 352.864956 
L 240.648024 353.2239 
L 246.506414 353.07434 
L 252.364803 353.2239 
L 258.223192 353.138766 
L 269.939971 353.2239 
L 340.240642 353.221546 
L 357.81581 353.209641 
L 363.674199 352.925816 
L 369.532588 353.2239 
L 592.15138 353.2239 
L 598.009769 352.96742 
L 603.868159 353.2239 
L 644.876883 353.2239 
L 650.735273 352.767832 
L 656.593662 353.2239 
L 662.452051 352.938908 
L 668.31044 353.217373 
L 721.035944 353.188789 
L 726.894333 353.039791 
L 732.752722 353.2239 
L 814.770172 353.203682 
L 820.628561 352.962668 
L 826.486951 353.2239 
L 931.937957 353.2239 
L 937.796346 353.097094 
L 943.654736 353.2239 
L 949.513125 353.2239 
L 949.513125 353.2239 
" style="fill:none;stroke:#7cb5ec;stroke-linecap:square;"/>
   </g>
   <g id="line2d_58">
    <path clip-path="url(#pf64b23d6a4)" d="M 76.613125 328.90469 
L 82.471514 353.033854 
L 88.329904 353.220566 
L 94.188293 353.057193 
L 100.046682 353.2239 
L 152.772185 353.160551 
L 158.630575 353.017183 
L 164.488964 353.2239 
L 211.356078 353.2239 
L 228.931246 353.217232 
L 234.789635 353.000513 
L 240.648024 353.2239 
L 246.506414 353.12721 
L 252.364803 353.2239 
L 269.939971 353.2239 
L 322.665474 353.210492 
L 357.81581 353.21377 
L 363.674199 353.081871 
L 369.532588 353.2239 
L 592.15138 353.2239 
L 598.009769 353.0068 
L 603.868159 353.2239 
L 644.876883 353.2239 
L 650.735273 352.859364 
L 656.593662 353.219919 
L 662.452051 352.983923 
L 668.31044 353.2239 
L 721.035944 353.194474 
L 726.894333 353.084443 
L 732.752722 353.2239 
L 814.770172 353.210106 
L 820.628561 352.960212 
L 826.486951 353.2239 
L 931.937957 353.2239 
L 937.796346 353.084711 
L 943.654736 353.21802 
L 949.513125 353.2239 
L 949.513125 353.2239 
" style="fill:none;stroke:#434348;stroke-linecap:square;"/>
   </g>
   <g id="line2d_59">
    <path clip-path="url(#pf64b23d6a4)" d="M 76.613125 330.8228 
L 82.471514 353.076718 
L 88.329904 353.2239 
L 94.188293 353.047281 
L 100.046682 353.2239 
L 152.772185 353.194464 
L 158.630575 353.047281 
L 164.488964 353.2239 
L 228.931246 353.2239 
L 234.789635 353.047281 
L 240.648024 353.2239 
L 258.223192 353.2239 
L 357.81581 353.2239 
L 363.674199 353.046534 
L 369.532588 353.2239 
L 469.125206 353.2239 
L 474.983595 353.103489 
L 480.841984 353.2239 
L 498.417152 353.2239 
L 562.859434 353.2239 
L 568.717823 353.03398 
L 574.576212 353.2239 
L 592.15138 353.2239 
L 598.009769 352.997109 
L 603.868159 353.2239 
L 644.876883 353.2239 
L 650.735273 352.849624 
L 656.593662 353.2239 
L 662.452051 352.914035 
L 668.31044 353.2239 
L 721.035944 353.2239 
L 726.894333 353.038913 
L 732.752722 353.2239 
L 738.611112 353.2239 
L 744.469501 353.0727 
L 750.32789 353.2239 
L 814.770172 353.140803 
L 820.628561 353.056325 
L 826.486951 353.2239 
L 931.937957 353.2239 
L 937.796346 353.066538 
L 943.654736 353.2239 
L 949.513125 353.2239 
L 949.513125 353.2239 
" style="fill:none;stroke:#90ed7d;stroke-linecap:square;"/>
   </g>
   <g id="line2d_60">
    <path clip-path="url(#pf64b23d6a4)" d="M 76.613125 329.934016 
L 82.471514 353.067902 
L 88.329904 353.2239 
L 94.188293 353.102568 
L 100.046682 353.2239 
L 152.772185 353.218122 
L 158.630575 353.07368 
L 164.488964 353.2239 
L 228.931246 353.2239 
L 234.789635 353.07368 
L 240.648024 353.2239 
L 258.223192 353.2239 
L 592.15138 353.2239 
L 598.009769 352.988111 
L 603.868159 353.2239 
L 644.876883 353.2239 
L 650.735273 352.845483 
L 656.593662 353.2239 
L 662.452051 353.004084 
L 668.31044 353.2239 
L 721.035944 353.1901 
L 726.894333 353.081255 
L 732.752722 353.2239 
L 814.770172 353.209197 
L 820.628561 352.94295 
L 826.486951 353.2239 
L 931.937957 353.2239 
L 937.796346 353.065067 
L 943.654736 353.2239 
L 949.513125 353.2239 
L 949.513125 353.2239 
" style="fill:none;stroke:#f7a35c;stroke-linecap:square;"/>
   </g>
   <g id="line2d_61">
    <path clip-path="url(#pf64b23d6a4)" d="M 76.613125 330.322255 
L 82.471514 353.064861 
L 88.329904 353.2239 
L 94.188293 353.14438 
L 105.905071 353.217273 
L 152.772185 353.190767 
L 158.630575 353.097994 
L 164.488964 353.2239 
L 211.356078 353.2239 
L 228.931246 353.2239 
L 234.789635 353.104621 
L 240.648024 353.2239 
L 246.506414 353.151007 
L 258.223192 353.197393 
L 287.515138 353.2239 
L 592.15138 353.2239 
L 598.009769 353.075738 
L 603.868159 353.2239 
L 644.876883 353.2239 
L 650.735273 352.86016 
L 656.593662 353.2239 
L 662.452051 353.004008 
L 668.31044 353.2239 
L 721.035944 353.208615 
L 726.894333 353.078027 
L 732.752722 353.2239 
L 814.770172 353.2239 
L 820.628561 353.024528 
L 826.486951 353.2239 
L 931.937957 353.2239 
L 937.796346 353.095567 
L 949.513125 353.2239 
L 949.513125 353.2239 
" style="fill:none;stroke:#8085e9;stroke-linecap:square;"/>
   </g>
   <g id="line2d_62">
    <path clip-path="url(#pf64b23d6a4)" d="M 76.613125 329.560658 
L 82.471514 353.032282 
L 88.329904 353.2239 
L 94.188293 353.119687 
L 105.905071 353.2239 
L 152.772185 353.180198 
L 158.630575 353.092792 
L 164.488964 353.2239 
L 258.223192 353.193644 
L 281.656749 353.2239 
L 592.15138 353.2239 
L 598.009769 352.978303 
L 603.868159 353.2239 
L 644.876883 353.2239 
L 650.735273 352.832617 
L 656.593662 353.2162 
L 662.452051 353.003656 
L 668.31044 353.2239 
L 721.035944 353.195797 
L 726.894333 353.078793 
L 732.752722 353.219853 
L 814.770172 353.21101 
L 820.628561 352.990793 
L 826.486951 353.219563 
L 931.937957 353.2239 
L 937.796346 353.107627 
L 943.654736 353.2239 
L 949.513125 353.2239 
L 949.513125 353.2239 
" style="fill:none;stroke:#f15c80;stroke-linecap:square;"/>
   </g>
   <g id="line2d_63">
    <path clip-path="url(#pf64b23d6a4)" d="M 76.613125 329.712074 
L 82.471514 353.043276 
L 88.329904 353.2239 
L 94.188293 353.03559 
L 100.046682 353.2239 
L 152.772185 353.162411 
L 158.630575 353.008688 
L 164.488964 353.2239 
L 228.931246 353.220057 
L 234.789635 352.98563 
L 240.648024 353.2239 
L 246.506414 353.127823 
L 252.364803 353.2239 
L 264.081581 353.2239 
L 357.81581 353.2239 
L 363.674199 353.071102 
L 369.532588 353.2239 
L 592.15138 353.2239 
L 598.009769 353.006471 
L 603.868159 353.2239 
L 644.876883 353.2239 
L 650.735273 352.804839 
L 656.593662 353.2239 
L 662.452051 353.000947 
L 668.31044 353.2239 
L 721.035944 353.185035 
L 726.894333 353.101878 
L 738.611112 353.2239 
L 762.044669 353.2239 
L 814.770172 353.213401 
L 820.628561 352.975893 
L 826.486951 353.213291 
L 890.929232 353.2239 
L 949.513125 353.2239 
L 949.513125 353.2239 
" style="fill:none;stroke:#e4d354;stroke-linecap:square;"/>
   </g>
   <g id="line2d_64">
    <path clip-path="url(#pf64b23d6a4)" d="M 76.613125 329.02291 
L 82.471514 353.018219 
L 88.329904 353.2239 
L 94.188293 353.006261 
L 100.046682 353.2239 
L 152.772185 353.176067 
L 158.630575 352.967994 
L 164.488964 353.2239 
L 228.931246 353.219117 
L 234.789635 352.948861 
L 240.648024 353.2239 
L 246.506414 353.13541 
L 252.364803 353.2239 
L 275.79836 353.221507 
L 357.81581 353.219036 
L 363.674199 353.033819 
L 369.532588 353.2239 
L 592.15138 353.2239 
L 598.009769 352.988476 
L 603.868159 353.218199 
L 644.876883 353.220944 
L 650.735273 352.834572 
L 656.593662 353.2239 
L 662.452051 353.004591 
L 668.31044 353.220879 
L 721.035944 353.185784 
L 726.894333 353.12167 
L 738.611112 353.2239 
L 750.32789 353.2239 
L 814.770172 353.213404 
L 820.628561 352.956313 
L 826.486951 353.2239 
L 931.937957 353.2239 
L 937.796346 353.091887 
L 943.654736 353.219403 
L 949.513125 353.2239 
L 949.513125 353.2239 
" style="fill:none;stroke:#2b908f;stroke-linecap:square;"/>
   </g>
   <g id="line2d_65">
    <path clip-path="url(#pf64b23d6a4)" d="M 76.613125 328.329804 
L 82.471514 353.049883 
L 88.329904 353.2239 
L 94.188293 353.001545 
L 100.046682 353.2239 
L 152.772185 353.136892 
L 158.630575 352.967709 
L 164.488964 353.2239 
L 205.497689 353.219066 
L 228.931246 353.219066 
L 234.789635 352.967709 
L 240.648024 353.2239 
L 246.506414 353.117556 
L 252.364803 353.2239 
L 264.081581 353.2239 
L 357.81581 353.2239 
L 363.674199 353.01762 
L 369.532588 353.2239 
L 592.15138 353.2239 
L 598.009769 353.02407 
L 603.868159 353.2239 
L 644.876883 353.211534 
L 650.735273 352.850466 
L 656.593662 353.205103 
L 662.452051 352.965339 
L 668.31044 353.2239 
L 721.035944 353.183393 
L 726.894333 353.060756 
L 732.752722 353.2239 
L 814.770172 353.20875 
L 820.628561 353.025471 
L 826.486951 353.216211 
L 914.362789 353.2239 
L 949.513125 353.2239 
L 949.513125 353.2239 
" style="fill:none;stroke:#f45b5b;stroke-linecap:square;"/>
   </g>
   <g id="line2d_66">
    <path clip-path="url(#pf64b23d6a4)" d="M 76.613125 327.156883 
L 82.471514 352.940406 
L 88.329904 353.2239 
L 94.188293 352.991764 
L 100.046682 353.2239 
L 152.772185 353.123239 
L 158.630575 352.940406 
L 164.488964 353.2239 
L 193.78091 353.127348 
L 205.497689 353.215683 
L 228.931246 353.215683 
L 234.789635 352.934243 
L 240.648024 353.2239 
L 246.506414 353.07599 
L 252.364803 353.219791 
L 264.081581 353.2239 
L 357.81581 353.215453 
L 363.674199 353.018456 
L 369.532588 353.2239 
L 592.15138 353.2239 
L 598.009769 352.969994 
L 603.868159 353.221319 
L 644.876883 353.221197 
L 650.735273 352.74761 
L 656.593662 353.22116 
L 662.452051 352.901035 
L 668.31044 353.210005 
L 709.319165 353.2239 
L 726.894333 353.047491 
L 732.752722 353.2239 
L 814.770172 353.217154 
L 820.628561 352.914275 
L 826.486951 353.2239 
L 931.937957 353.2239 
L 937.796346 353.055659 
L 943.654736 353.2239 
L 949.513125 353.2239 
L 949.513125 353.2239 
" style="fill:none;stroke:#91e8e1;stroke-linecap:square;"/>
   </g>
   <g id="line2d_67">
    <path clip-path="url(#pf64b23d6a4)" d="M 76.613125 327.836699 
L 82.471514 352.979361 
L 88.329904 353.2239 
L 94.188293 352.957656 
L 100.046682 353.2239 
L 152.772185 353.131294 
L 158.630575 352.901224 
L 164.488964 353.2239 
L 199.639299 353.2239 
L 228.931246 353.219559 
L 234.789635 352.888201 
L 240.648024 353.2239 
L 246.506414 353.109589 
L 252.364803 353.221006 
L 258.223192 353.164574 
L 269.939971 353.2239 
L 322.665474 353.213641 
L 357.81581 353.210504 
L 363.674199 352.995469 
L 369.532588 353.2239 
L 592.15138 353.2239 
L 598.009769 352.953754 
L 603.868159 353.2239 
L 644.876883 353.2239 
L 650.735273 352.74533 
L 656.593662 353.217949 
L 662.452051 352.988157 
L 668.31044 353.213838 
L 721.035944 353.198091 
L 726.894333 353.089543 
L 732.752722 353.2239 
L 814.770172 353.214147 
L 820.628561 352.946109 
L 826.486951 353.2239 
L 931.937957 353.2239 
L 937.796346 353.093742 
L 943.654736 353.217344 
L 949.513125 353.2239 
L 949.513125 353.2239 
" style="fill:none;stroke:#7cb5ec;stroke-linecap:square;"/>
   </g>
   <g id="line2d_68">
    <path clip-path="url(#pf64b23d6a4)" d="M 76.613125 328.752383 
L 82.471514 353.006684 
L 88.329904 353.2239 
L 94.188293 352.966137 
L 100.046682 353.2239 
L 152.772185 353.150047 
L 158.630575 352.919798 
L 164.488964 353.2239 
L 228.931246 353.219556 
L 234.789635 352.900972 
L 240.648024 353.222452 
L 246.506414 353.121084 
L 252.364803 353.2239 
L 264.081581 353.2239 
L 357.81581 353.216488 
L 363.674199 352.993484 
L 369.532588 353.2239 
L 592.15138 353.2239 
L 598.009769 352.969987 
L 603.868159 353.222075 
L 644.876883 353.22199 
L 650.735273 352.774059 
L 656.593662 353.216159 
L 662.452051 352.956994 
L 668.31044 353.214093 
L 715.177555 353.186585 
L 744.469501 353.178778 
L 762.044669 353.2239 
L 814.770172 353.207439 
L 820.628561 352.951371 
L 826.486951 353.221511 
L 931.937957 353.2239 
L 937.796346 353.11139 
L 943.654736 353.2239 
L 949.513125 353.2239 
L 949.513125 353.2239 
" style="fill:none;stroke:#434348;stroke-linecap:square;"/>
   </g>
   <g id="line2d_69">
    <path clip-path="url(#pf64b23d6a4)" d="M 76.613125 327.435678 
L 82.471514 352.95283 
L 88.329904 353.221189 
L 94.188293 352.950119 
L 100.046682 353.2239 
L 152.772185 353.114116 
L 158.630575 352.889129 
L 164.488964 353.2239 
L 193.78091 353.126315 
L 199.639299 353.2239 
L 228.931246 353.207636 
L 234.789635 352.876931 
L 240.648024 353.222545 
L 246.506414 353.081588 
L 252.364803 353.222545 
L 258.223192 353.149356 
L 269.939971 353.2239 
L 328.523863 353.2239 
L 357.81581 353.215513 
L 363.674199 352.978408 
L 369.532588 353.2239 
L 592.15138 353.2239 
L 598.009769 352.966283 
L 603.868159 353.2239 
L 644.876883 353.2239 
L 650.735273 352.726679 
L 656.593662 353.218138 
L 662.452051 352.947035 
L 668.31044 353.221948 
L 721.035944 353.192331 
L 726.894333 353.060449 
L 732.752722 353.2239 
L 814.770172 353.199646 
L 820.628561 352.908094 
L 826.486951 353.221429 
L 931.937957 353.2239 
L 937.796346 353.101017 
L 949.513125 353.2239 
L 949.513125 353.2239 
" style="fill:none;stroke:#90ed7d;stroke-linecap:square;"/>
   </g>
   <g id="line2d_70">
    <path clip-path="url(#pf64b23d6a4)" d="M 76.613125 328.510918 
L 82.471514 353.040097 
L 88.329904 353.2239 
L 94.188293 352.975425 
L 100.046682 353.2239 
L 152.772185 353.162632 
L 158.630575 352.941388 
L 164.488964 353.2239 
L 228.931246 353.222198 
L 234.789635 352.924369 
L 240.648024 353.2239 
L 246.506414 353.131998 
L 252.364803 353.2239 
L 269.939971 353.2239 
L 328.523863 353.2239 
L 357.81581 353.222174 
L 363.674199 352.990497 
L 369.532588 353.2239 
L 592.15138 353.2239 
L 598.009769 353.008949 
L 603.868159 353.221861 
L 644.876883 353.221776 
L 650.735273 352.813576 
L 656.593662 353.217449 
L 662.452051 353.003218 
L 668.31044 353.208661 
L 697.602387 353.2239 
L 715.177555 353.189541 
L 814.770172 353.208436 
L 820.628561 353.021396 
L 826.486951 353.221285 
L 931.937957 353.2239 
L 937.796346 353.120939 
L 949.513125 353.2239 
L 949.513125 353.2239 
" style="fill:none;stroke:#f7a35c;stroke-linecap:square;"/>
   </g>
   <g id="line2d_71">
    <path clip-path="url(#pf64b23d6a4)" d="M 76.613125 328.445099 
L 82.471514 353.005092 
L 88.329904 353.2239 
L 94.188293 353.02072 
L 100.046682 353.2239 
L 152.772185 353.140544 
L 158.630575 352.989462 
L 164.488964 353.2239 
L 217.214467 353.2239 
L 228.931246 353.222598 
L 234.789635 352.976438 
L 240.648024 353.222598 
L 246.506414 353.102774 
L 252.364803 353.222598 
L 264.081581 353.2239 
L 357.81581 353.217243 
L 363.674199 353.050389 
L 369.532588 353.2239 
L 592.15138 353.2239 
L 598.009769 353.004709 
L 603.868159 353.2239 
L 644.876883 353.219044 
L 650.735273 352.789457 
L 656.593662 353.220628 
L 662.452051 353.019986 
L 668.31044 353.217287 
L 721.035944 353.203046 
L 726.894333 353.096296 
L 732.752722 353.2239 
L 814.770172 353.218155 
L 820.628561 352.965637 
L 826.486951 353.2239 
L 931.937957 353.2239 
L 937.796346 353.089995 
L 943.654736 353.221414 
L 949.513125 353.2239 
L 949.513125 353.2239 
" style="fill:none;stroke:#8085e9;stroke-linecap:square;"/>
   </g>
   <g id="line2d_72">
    <path clip-path="url(#pf64b23d6a4)" d="M 76.613125 328.053871 
L 82.471514 352.993784 
L 88.329904 353.2239 
L 94.188293 352.988433 
L 100.046682 353.2239 
L 152.772185 353.129356 
L 158.630575 352.958107 
L 164.488964 353.2239 
L 205.497689 353.207845 
L 228.931246 353.211413 
L 234.789635 352.950972 
L 240.648024 353.2239 
L 246.506414 353.097247 
L 252.364803 353.2239 
L 258.223192 353.156114 
L 269.939971 353.2239 
L 340.240642 353.2239 
L 357.81581 353.216583 
L 363.674199 353.011093 
L 369.532588 353.2239 
L 592.15138 353.2239 
L 598.009769 352.99499 
L 603.868159 353.219429 
L 644.876883 353.219234 
L 650.735273 352.789638 
L 656.593662 353.214451 
L 662.452051 353.026601 
L 668.31044 353.219115 
L 721.035944 353.185841 
L 726.894333 353.101292 
L 732.752722 353.2239 
L 814.770172 353.215381 
L 820.628561 352.943532 
L 826.486951 353.2239 
L 931.937957 353.2239 
L 937.796346 353.099368 
L 943.654736 353.2239 
L 949.513125 353.2239 
L 949.513125 353.2239 
" style="fill:none;stroke:#f15c80;stroke-linecap:square;"/>
   </g>
   <g id="line2d_73">
    <path clip-path="url(#pf64b23d6a4)" d="M 76.613125 329.231179 
L 82.471514 353.03486 
L 88.329904 353.221702 
L 94.188293 353.07003 
L 100.046682 353.2239 
L 152.772185 353.16455 
L 158.630575 353.045851 
L 164.488964 353.2239 
L 228.931246 353.2239 
L 234.789635 353.043652 
L 240.648024 353.2239 
L 246.506414 353.14037 
L 252.364803 353.2239 
L 269.939971 353.2239 
L 416.399702 353.2239 
L 592.15138 353.2239 
L 598.009769 352.999686 
L 603.868159 353.2239 
L 644.876883 353.218708 
L 650.735273 352.747022 
L 656.593662 353.2239 
L 662.452051 352.982267 
L 668.31044 353.213353 
L 715.177555 353.193929 
L 767.903058 353.2239 
L 814.770172 353.21802 
L 820.628561 352.931401 
L 826.486951 353.220931 
L 931.937957 353.2239 
L 937.796346 353.118993 
L 949.513125 353.2239 
L 949.513125 353.2239 
" style="fill:none;stroke:#e4d354;stroke-linecap:square;"/>
   </g>
   <g id="line2d_74">
    <path clip-path="url(#pf64b23d6a4)" d="M 76.613125 329.572804 
L 82.471514 353.019515 
L 88.329904 353.2239 
L 94.188293 353.078972 
L 100.046682 353.2239 
L 152.772185 353.142146 
L 158.630575 353.039953 
L 164.488964 353.2239 
L 228.931246 353.216468 
L 234.789635 353.030663 
L 240.648024 353.2239 
L 246.506414 353.121708 
L 252.364803 353.2239 
L 258.223192 353.166301 
L 269.939971 353.2239 
L 381.249367 353.221991 
L 562.859434 353.2239 
L 574.576212 353.21126 
L 592.15138 353.2239 
L 598.009769 352.997264 
L 603.868159 353.2239 
L 644.876883 353.2239 
L 650.735273 352.823117 
L 656.593662 353.21723 
L 662.452051 353.027466 
L 668.31044 353.214933 
L 715.177555 353.19839 
L 744.469501 353.169352 
L 762.044669 353.2239 
L 814.770172 353.213855 
L 820.628561 352.968982 
L 826.486951 353.221363 
L 931.937957 353.2239 
L 937.796346 353.113 
L 949.513125 353.2239 
L 949.513125 353.2239 
" style="fill:none;stroke:#2b908f;stroke-linecap:square;"/>
   </g>
   <g id="line2d_75">
    <path clip-path="url(#pf64b23d6a4)" d="M 76.613125 328.827932 
L 82.471514 352.987899 
L 88.329904 353.2239 
L 94.188293 353.006848 
L 100.046682 353.2239 
L 152.772185 353.146381 
L 158.630575 352.960337 
L 164.488964 353.2239 
L 217.214467 353.218732 
L 228.931246 353.217009 
L 234.789635 352.956891 
L 240.648024 353.2239 
L 246.506414 353.115374 
L 252.364803 353.2239 
L 264.081581 353.2239 
L 357.81581 353.222137 
L 363.674199 353.02065 
L 369.532588 353.2239 
L 592.15138 353.2239 
L 598.009769 352.926983 
L 603.868159 353.2239 
L 644.876883 353.221718 
L 650.735273 352.725706 
L 656.593662 353.215072 
L 662.452051 352.964231 
L 668.31044 353.217204 
L 721.035944 353.200376 
L 726.894333 353.060604 
L 732.752722 353.2239 
L 814.770172 353.203075 
L 820.628561 352.891075 
L 826.486951 353.221261 
L 931.937957 353.2239 
L 937.796346 353.05703 
L 943.654736 353.2239 
L 949.513125 353.2239 
L 949.513125 353.2239 
" style="fill:none;stroke:#f45b5b;stroke-linecap:square;"/>
   </g>
   <g id="line2d_76">
    <path clip-path="url(#pf64b23d6a4)" d="M 76.613125 329.852298 
L 82.471514 353.017097 
L 88.329904 353.2239 
L 94.188293 353.048913 
L 100.046682 353.2239 
L 152.772185 353.166053 
L 158.630575 353.015651 
L 164.488964 353.2239 
L 228.931246 353.222454 
L 234.789635 353.009866 
L 240.648024 353.222454 
L 246.506414 353.13713 
L 252.364803 353.222454 
L 269.939971 353.2239 
L 328.523863 353.2239 
L 357.81581 353.219494 
L 363.674199 353.070882 
L 369.532588 353.2239 
L 592.15138 353.2239 
L 598.009769 353.010142 
L 603.868159 353.220573 
L 644.876883 353.220482 
L 650.735273 352.834385 
L 656.593662 353.215286 
L 662.452051 353.002486 
L 668.31044 353.211742 
L 715.177555 353.207737 
L 791.336615 353.2239 
L 814.770172 353.218078 
L 820.628561 352.970387 
L 826.486951 353.2239 
L 949.513125 353.2239 
L 949.513125 353.2239 
" style="fill:none;stroke:#91e8e1;stroke-linecap:square;"/>
   </g>
   <g id="line2d_77">
    <path clip-path="url(#pf64b23d6a4)" d="M 76.613125 327.534311 
L 82.471514 352.988506 
L 88.329904 353.2239 
L 94.188293 352.958364 
L 100.046682 353.2239 
L 152.772185 353.11625 
L 158.630575 352.912433 
L 164.488964 353.2239 
L 205.497689 353.213853 
L 228.931246 353.212417 
L 234.789635 352.90095 
L 240.648024 353.2239 
L 246.506414 353.097591 
L 252.364803 353.2239 
L 258.223192 353.150698 
L 269.939971 353.2239 
L 363.674199 353.002246 
L 369.532588 353.2239 
L 592.15138 353.2239 
L 598.009769 352.989324 
L 603.868159 353.22207 
L 644.876883 353.21815 
L 650.735273 352.80902 
L 656.593662 353.218071 
L 662.452051 352.957835 
L 668.31044 353.216021 
L 721.035944 353.181916 
L 726.894333 353.069535 
L 732.752722 353.2239 
L 814.770172 353.209676 
L 820.628561 352.989736 
L 826.486951 353.2239 
L 949.513125 353.2239 
L 949.513125 353.2239 
" style="fill:none;stroke:#7cb5ec;stroke-linecap:square;"/>
   </g>
   <g id="line2d_78">
    <path clip-path="url(#pf64b23d6a4)" d="M 76.613125 328.329359 
L 82.471514 352.909861 
L 88.329904 353.2239 
L 94.188293 352.956691 
L 100.046682 353.2239 
L 146.913796 353.2239 
L 158.630575 352.901596 
L 164.488964 353.2239 
L 182.064132 353.221145 
L 187.922521 353.2239 
L 193.78091 353.097182 
L 199.639299 353.2239 
L 228.931246 353.215636 
L 234.789635 352.885068 
L 240.648024 353.2239 
L 246.506414 353.044843 
L 252.364803 353.2239 
L 258.223192 353.12473 
L 269.939971 353.2239 
L 357.81581 353.209656 
L 363.674199 352.998066 
L 369.532588 353.2239 
L 592.15138 353.2239 
L 598.009769 352.970476 
L 603.868159 353.2239 
L 644.876883 353.2239 
L 650.735273 352.804961 
L 656.593662 353.220133 
L 662.452051 352.939335 
L 668.31044 353.204792 
L 697.602387 353.2239 
L 703.460776 353.160011 
L 709.319165 353.2239 
L 726.894333 353.059294 
L 732.752722 353.2239 
L 814.770172 353.214618 
L 820.628561 352.980555 
L 826.486951 353.2239 
L 931.937957 353.2239 
L 937.796346 353.075907 
L 943.654736 353.2239 
L 949.513125 353.2239 
L 949.513125 353.2239 
" style="fill:none;stroke:#434348;stroke-linecap:square;"/>
   </g>
   <g id="line2d_79">
    <path clip-path="url(#pf64b23d6a4)" d="M 76.613125 328.621635 
L 82.471514 352.96796 
L 88.329904 353.2239 
L 94.188293 352.992569 
L 100.046682 353.2239 
L 152.772185 353.113157 
L 158.630575 352.94335 
L 164.488964 353.2239 
L 228.931246 353.204212 
L 234.789635 352.913818 
L 240.648024 353.2239 
L 246.506414 353.071321 
L 252.364803 353.2239 
L 258.223192 353.14761 
L 269.939971 353.2239 
L 357.81581 353.216298 
L 363.674199 353.007863 
L 369.532588 353.2239 
L 592.15138 353.2239 
L 598.009769 352.983921 
L 603.868159 353.2239 
L 644.876883 353.220613 
L 650.735273 352.826757 
L 656.593662 353.220568 
L 662.452051 353.022596 
L 668.31044 353.217143 
L 721.035944 353.202267 
L 726.894333 353.104031 
L 732.752722 353.2239 
L 814.770172 353.211649 
L 820.628561 352.976853 
L 826.486951 353.2239 
L 949.513125 353.2239 
L 949.513125 353.2239 
" style="fill:none;stroke:#90ed7d;stroke-linecap:square;"/>
   </g>
   <g id="line2d_80">
    <path clip-path="url(#pf64b23d6a4)" d="M 76.613125 330.77078 
L 82.471514 353.008103 
L 88.329904 353.2239 
L 94.188293 353.07661 
L 100.046682 353.2239 
L 152.772185 353.151968 
L 158.630575 353.062909 
L 164.488964 353.2239 
L 258.223192 353.17252 
L 275.79836 353.217044 
L 357.81581 353.2239 
L 363.674199 353.108762 
L 369.532588 353.2239 
L 592.15138 353.2239 
L 598.009769 352.983329 
L 603.868159 353.2239 
L 644.876883 353.2239 
L 650.735273 352.814659 
L 656.593662 353.21568 
L 662.452051 353.021651 
L 668.31044 353.207317 
L 697.602387 353.2239 
L 715.177555 353.180903 
L 721.035944 353.185021 
L 726.894333 353.071983 
L 732.752722 353.2239 
L 814.770172 353.191129 
L 820.628561 352.960312 
L 826.486951 353.2239 
L 949.513125 353.2239 
L 949.513125 353.2239 
" style="fill:none;stroke:#f7a35c;stroke-linecap:square;"/>
   </g>
   <g id="line2d_81">
    <path clip-path="url(#pf64b23d6a4)" d="M 76.613125 328.763512 
L 82.471514 352.942622 
L 88.329904 353.2239 
L 94.188293 352.94477 
L 100.046682 353.2239 
L 146.913796 353.2239 
L 158.630575 352.884649 
L 164.488964 353.2239 
L 193.78091 353.103659 
L 199.639299 353.2239 
L 228.931246 353.221753 
L 234.789635 352.869619 
L 240.648024 353.221753 
L 246.506414 353.047833 
L 252.364803 353.219606 
L 258.223192 353.138014 
L 269.939971 353.2239 
L 357.81581 353.212807 
L 363.674199 352.965604 
L 369.532588 353.2239 
L 592.15138 353.2239 
L 598.009769 352.961878 
L 603.868159 353.2239 
L 644.876883 353.220947 
L 650.735273 352.813324 
L 656.593662 353.220902 
L 662.452051 352.946037 
L 668.31044 353.202597 
L 697.602387 353.2239 
L 726.894333 353.069256 
L 732.752722 353.2239 
L 814.770172 353.197758 
L 820.628561 352.960163 
L 826.486951 353.2239 
L 931.937957 353.2239 
L 937.796346 353.079833 
L 943.654736 353.2239 
L 949.513125 353.2239 
L 949.513125 353.2239 
" style="fill:none;stroke:#8085e9;stroke-linecap:square;"/>
   </g>
   <g id="line2d_82">
    <path clip-path="url(#pf64b23d6a4)" d="M 76.613125 329.44956 
L 82.471514 353.032485 
L 88.329904 353.2239 
L 94.188293 353.032485 
L 100.046682 353.2239 
L 152.772185 353.179926 
L 158.630575 352.998858 
L 164.488964 353.2239 
L 205.497689 353.2239 
L 228.931246 353.221313 
L 234.789635 352.980751 
L 240.648024 353.2239 
L 246.506414 353.146299 
L 258.223192 353.195446 
L 281.656749 353.2239 
L 357.81581 353.218613 
L 363.674199 353.056972 
L 369.532588 353.2239 
L 592.15138 353.2239 
L 598.009769 352.980017 
L 603.868159 353.2239 
L 644.876883 353.2239 
L 650.735273 352.762789 
L 656.593662 353.220659 
L 662.452051 352.966542 
L 668.31044 353.220626 
L 721.035944 353.189547 
L 726.894333 353.071906 
L 732.752722 353.2239 
L 814.770172 353.220128 
L 820.628561 352.923994 
L 826.486951 353.22008 
L 931.937957 353.2239 
L 937.796346 353.094923 
L 943.654736 353.2239 
L 949.513125 353.2239 
L 949.513125 353.2239 
" style="fill:none;stroke:#f15c80;stroke-linecap:square;"/>
   </g>
   <g id="line2d_83">
    <path clip-path="url(#pf64b23d6a4)" d="M 76.613125 330.398504 
L 82.471514 353.064775 
L 88.329904 353.2239 
L 94.188293 353.091022 
L 100.046682 353.2239 
L 152.772185 353.191091 
L 158.630575 353.058213 
L 164.488964 353.2239 
L 228.931246 353.22226 
L 234.789635 353.053292 
L 240.648024 353.22226 
L 252.364803 353.22226 
L 305.090306 353.209102 
L 351.95742 353.2239 
L 357.81581 353.220594 
L 363.674199 353.098182 
L 369.532588 353.2239 
L 592.15138 353.2239 
L 598.009769 353.040248 
L 603.868159 353.222111 
L 644.876883 353.222066 
L 650.735273 352.864934 
L 656.593662 353.220204 
L 662.452051 353.017998 
L 668.31044 353.222038 
L 721.035944 353.194898 
L 726.894333 353.099608 
L 732.752722 353.2239 
L 814.770172 353.213473 
L 820.628561 352.993319 
L 826.486951 353.2239 
L 931.937957 353.2239 
L 937.796346 353.109501 
L 949.513125 353.2239 
L 949.513125 353.2239 
" style="fill:none;stroke:#e4d354;stroke-linecap:square;"/>
   </g>
   <g id="line2d_84">
    <path clip-path="url(#pf64b23d6a4)" d="M 76.613125 327.748049 
L 82.471514 352.909847 
L 88.329904 353.2239 
L 94.188293 352.882538 
L 100.046682 353.2239 
L 146.913796 353.2239 
L 152.772185 353.087355 
L 158.630575 352.831334 
L 164.488964 353.2239 
L 199.639299 353.2239 
L 228.931246 353.220486 
L 234.789635 352.817679 
L 240.648024 353.2239 
L 246.506414 353.049805 
L 252.364803 353.2239 
L 258.223192 353.131732 
L 269.939971 353.2239 
L 357.81581 353.216824 
L 363.674199 352.921939 
L 369.532588 353.2239 
L 592.15138 353.2239 
L 598.009769 352.948699 
L 603.868159 353.2239 
L 644.876883 353.2239 
L 650.735273 352.805286 
L 656.593662 353.218935 
L 662.452051 352.948551 
L 668.31044 353.218853 
L 721.035944 353.185773 
L 726.894333 353.07006 
L 732.752722 353.2239 
L 814.770172 353.205035 
L 820.628561 352.912895 
L 826.486951 353.2239 
L 931.937957 353.2239 
L 937.796346 353.076098 
L 943.654736 353.2239 
L 949.513125 353.2239 
L 949.513125 353.2239 
" style="fill:none;stroke:#2b908f;stroke-linecap:square;"/>
   </g>
   <g id="line2d_85">
    <path clip-path="url(#pf64b23d6a4)" d="M 76.613125 331.815433 
L 82.471514 353.098705 
L 88.329904 353.2239 
L 94.188293 353.124106 
L 105.905071 353.2239 
L 152.772185 353.209385 
L 158.630575 353.105962 
L 164.488964 353.2239 
L 228.931246 353.2239 
L 234.789635 353.09689 
L 240.648024 353.2239 
L 252.364803 353.2239 
L 305.090306 353.220265 
L 357.81581 353.2239 
L 363.674199 353.141759 
L 375.390977 353.2239 
L 592.15138 353.2239 
L 598.009769 352.9975 
L 603.868159 353.2239 
L 644.876883 353.2239 
L 650.735273 352.818533 
L 656.593662 353.21801 
L 662.452051 353.013319 
L 668.31044 353.221927 
L 721.035944 353.187509 
L 726.894333 353.094144 
L 732.752722 353.2239 
L 814.770172 353.217529 
L 820.628561 352.95543 
L 826.486951 353.221762 
L 931.937957 353.2239 
L 937.796346 353.116106 
L 949.513125 353.2239 
L 949.513125 353.2239 
" style="fill:none;stroke:#f45b5b;stroke-linecap:square;"/>
   </g>
   <g id="line2d_86">
    <path clip-path="url(#pf64b23d6a4)" d="M 76.613125 330.4855 
L 82.471514 353.0003 
L 88.329904 353.2239 
L 94.188293 353.0949 
L 100.046682 353.2239 
L 152.772185 353.166567 
L 158.630575 353.0605 
L 164.488964 353.2239 
L 275.79836 353.218164 
L 357.81581 353.221006 
L 363.674199 353.107977 
L 369.532588 353.2239 
L 592.15138 353.2239 
L 598.009769 352.955862 
L 603.868159 353.2239 
L 644.876883 353.2239 
L 650.735273 352.772881 
L 656.593662 353.220596 
L 662.452051 353.064728 
L 668.31044 353.220572 
L 721.035944 353.19979 
L 726.894333 353.127079 
L 738.611112 353.2239 
L 744.469501 353.164403 
L 756.186279 353.2239 
L 814.770172 353.20549 
L 820.628561 352.931747 
L 826.486951 353.2239 
L 931.937957 353.2239 
L 937.796346 353.046448 
L 943.654736 353.219317 
L 949.513125 353.2239 
L 949.513125 353.2239 
" style="fill:none;stroke:#91e8e1;stroke-linecap:square;"/>
   </g>
   <g id="line2d_87">
    <path clip-path="url(#pf64b23d6a4)" d="M 76.613125 330.086259 
L 82.471514 353.00302 
L 88.329904 353.2239 
L 94.188293 353.044069 
L 100.046682 353.2239 
L 152.772185 353.13203 
L 158.630575 353.001065 
L 164.488964 353.2239 
L 234.789635 352.997156 
L 240.648024 353.2239 
L 246.506414 353.112483 
L 252.364803 353.2239 
L 258.223192 353.159395 
L 269.939971 353.2239 
L 445.691648 353.213488 
L 504.275541 353.2239 
L 574.576212 353.203332 
L 592.15138 353.2239 
L 598.009769 352.986269 
L 603.868159 353.2239 
L 644.876883 353.2239 
L 650.735273 352.790038 
L 656.593662 353.216549 
L 662.452051 352.967776 
L 668.31044 353.221424 
L 721.035944 353.195304 
L 726.894333 353.048744 
L 732.752722 353.2239 
L 814.770172 353.212484 
L 820.628561 352.939604 
L 826.486951 353.2239 
L 931.937957 353.2239 
L 937.796346 353.067382 
L 943.654736 353.2239 
L 949.513125 353.2239 
L 949.513125 353.2239 
" style="fill:none;stroke:#7cb5ec;stroke-linecap:square;"/>
   </g>
   <g id="line2d_88">
    <path clip-path="url(#pf64b23d6a4)" d="M 76.613125 331.205316 
L 82.471514 353.103285 
L 88.329904 353.2239 
L 94.188293 353.137747 
L 105.905071 353.221746 
L 152.772185 353.206669 
L 158.630575 353.116209 
L 170.347353 353.221746 
L 228.931246 353.2239 
L 234.789635 353.116209 
L 240.648024 353.2239 
L 246.506414 353.1679 
L 258.223192 353.215285 
L 334.382253 353.2239 
L 592.15138 353.2239 
L 598.009769 353.001804 
L 603.868159 353.2239 
L 644.876883 353.221565 
L 650.735273 352.85869 
L 656.593662 353.219206 
L 662.452051 353.023853 
L 668.31044 353.214461 
L 715.177555 353.190101 
L 773.761447 353.2239 
L 814.770172 353.208596 
L 820.628561 352.996088 
L 826.486951 353.221331 
L 931.937957 353.2239 
L 937.796346 353.111814 
L 943.654736 353.2239 
L 949.513125 353.2239 
L 949.513125 353.2239 
" style="fill:none;stroke:#434348;stroke-linecap:square;"/>
   </g>
   <g id="line2d_89">
    <path clip-path="url(#pf64b23d6a4)" d="M 76.613125 332.178298 
L 82.471514 353.034689 
L 88.329904 353.2239 
L 94.188293 353.164434 
L 105.905071 353.2239 
L 592.15138 353.2239 
L 598.009769 352.971632 
L 603.868159 353.2239 
L 644.876883 353.2239 
L 650.735273 352.791853 
L 656.593662 353.2239 
L 662.452051 353.036269 
L 668.31044 353.2239 
L 721.035944 353.187915 
L 726.894333 353.091655 
L 732.752722 353.2239 
L 814.770172 353.217658 
L 820.628561 352.967286 
L 826.486951 353.2239 
L 931.937957 353.2239 
L 937.796346 353.110371 
L 943.654736 353.2239 
L 949.513125 353.2239 
L 949.513125 353.2239 
" style="fill:none;stroke:#90ed7d;stroke-linecap:square;"/>
   </g>
   <g id="line2d_90">
    <path clip-path="url(#pf64b23d6a4)" d="M 76.613125 327.162734 
L 82.471514 352.965869 
L 88.329904 353.2239 
L 94.188293 352.831244 
L 100.046682 353.2239 
L 146.913796 353.2239 
L 152.772185 353.089275 
L 158.630575 352.786369 
L 164.488964 353.2239 
L 193.78091 353.100493 
L 199.639299 353.2239 
L 211.356078 353.2239 
L 228.931246 353.201463 
L 234.789635 352.752713 
L 240.648024 353.2239 
L 246.506414 353.066838 
L 252.364803 353.2239 
L 258.223192 353.13415 
L 269.939971 353.2239 
L 293.373528 353.2239 
L 357.81581 353.212447 
L 363.674199 352.867879 
L 369.532588 353.2239 
L 592.15138 353.2239 
L 598.009769 353.043792 
L 603.868159 353.208745 
L 644.876883 353.2239 
L 650.735273 352.944854 
L 656.593662 353.2239 
L 662.452051 352.922443 
L 668.31044 353.2239 
L 721.035944 353.186779 
L 726.894333 353.036331 
L 732.752722 353.2239 
L 814.770172 353.2239 
L 820.628561 353.001687 
L 826.486951 353.2239 
L 931.937957 353.2239 
L 937.796346 353.077219 
L 943.654736 353.2239 
L 949.513125 353.2239 
L 949.513125 353.2239 
" style="fill:none;stroke:#f7a35c;stroke-linecap:square;"/>
   </g>
   <g id="line2d_91">
    <path clip-path="url(#pf64b23d6a4)" d="M 76.613125 326.825561 
L 82.471514 352.990833 
L 88.329904 353.2239 
L 94.188293 352.933268 
L 100.046682 353.2239 
L 152.772185 353.134043 
L 158.630575 352.891148 
L 164.488964 353.2239 
L 205.497689 353.205648 
L 228.931246 353.212668 
L 234.789635 352.884128 
L 240.648024 353.2239 
L 246.506414 353.104558 
L 252.364803 353.2239 
L 264.081581 353.2239 
L 357.81581 353.215291 
L 363.674199 352.956251 
L 369.532588 353.2239 
L 592.15138 353.2239 
L 598.009769 352.961033 
L 603.868159 353.2239 
L 644.876883 353.21993 
L 650.735273 352.777262 
L 656.593662 353.215816 
L 662.452051 352.981241 
L 668.31044 353.217727 
L 721.035944 353.170223 
L 726.894333 353.101985 
L 732.752722 353.221621 
L 814.770172 353.202976 
L 820.628561 352.967597 
L 826.486951 353.22123 
L 931.937957 353.2239 
L 937.796346 353.072066 
L 943.654736 353.2239 
L 949.513125 353.2239 
L 949.513125 353.2239 
" style="fill:none;stroke:#8085e9;stroke-linecap:square;"/>
   </g>
   <g id="line2d_92">
    <path clip-path="url(#pf64b23d6a4)" d="M 76.613125 329.107744 
L 82.471514 352.990263 
L 88.329904 353.2239 
L 94.188293 353.038811 
L 100.046682 353.2239 
L 152.772185 353.143493 
L 158.630575 353.005435 
L 164.488964 353.2239 
L 211.356078 353.2239 
L 228.931246 353.220866 
L 234.789635 352.994815 
L 240.648024 353.2239 
L 246.506414 353.10253 
L 252.364803 353.2239 
L 258.223192 353.160181 
L 269.939971 353.2239 
L 340.240642 353.2239 
L 357.81581 353.216157 
L 363.674199 353.0547 
L 369.532588 353.2239 
L 592.15138 353.2239 
L 598.009769 353.009446 
L 603.868159 353.2239 
L 644.876883 353.218288 
L 650.735273 352.812266 
L 656.593662 353.2239 
L 662.452051 353.011338 
L 668.31044 353.220085 
L 721.035944 353.199947 
L 726.894333 353.075417 
L 732.752722 353.2239 
L 814.770172 353.215183 
L 820.628561 352.974024 
L 826.486951 353.21949 
L 931.937957 353.2239 
L 937.796346 353.10252 
L 943.654736 353.221105 
L 949.513125 353.2239 
L 949.513125 353.2239 
" style="fill:none;stroke:#f15c80;stroke-linecap:square;"/>
   </g>
   <g id="line2d_93">
    <path clip-path="url(#pf64b23d6a4)" d="M 76.613125 328.016096 
L 82.471514 353.005493 
L 88.329904 353.220591 
L 94.188293 353.020385 
L 100.046682 353.2239 
L 152.772185 353.131242 
L 158.630575 352.979019 
L 164.488964 353.2239 
L 211.356078 353.2239 
L 228.931246 353.210663 
L 234.789635 352.97571 
L 240.648024 353.222245 
L 246.506414 353.10146 
L 252.364803 353.222245 
L 258.223192 353.159371 
L 269.939971 353.2239 
L 398.824534 353.2239 
L 592.15138 353.2239 
L 598.009769 352.991803 
L 603.868159 353.2239 
L 644.876883 353.221813 
L 650.735273 352.812647 
L 656.593662 353.22179 
L 662.452051 352.990562 
L 668.31044 353.217501 
L 721.035944 353.187969 
L 726.894333 353.086112 
L 732.752722 353.2239 
L 814.770172 353.206533 
L 820.628561 352.95166 
L 826.486951 353.2239 
L 949.513125 353.2239 
L 949.513125 353.2239 
" style="fill:none;stroke:#e4d354;stroke-linecap:square;"/>
   </g>
   <g id="line2d_94">
    <path clip-path="url(#pf64b23d6a4)" d="M 76.613125 328.049928 
L 82.471514 353.010358 
L 88.329904 353.2239 
L 94.188293 352.994393 
L 100.046682 353.2239 
L 152.772185 353.152054 
L 158.630575 352.956474 
L 164.488964 353.2239 
L 205.497689 353.221904 
L 228.931246 353.219909 
L 234.789635 352.9445 
L 240.648024 353.221904 
L 246.506414 353.130101 
L 252.364803 353.221904 
L 264.081581 353.2239 
L 357.81581 353.211713 
L 363.674199 353.006048 
L 369.532588 353.2239 
L 592.15138 353.2239 
L 598.009769 352.98282 
L 603.868159 353.2239 
L 644.876883 353.221381 
L 650.735273 352.780534 
L 656.593662 353.221352 
L 662.452051 353.006069 
L 668.31044 353.221322 
L 721.035944 353.199426 
L 726.894333 353.067953 
L 732.752722 353.2239 
L 814.770172 353.211844 
L 820.628561 352.920428 
L 826.486951 353.220844 
L 931.937957 353.2239 
L 937.796346 353.064291 
L 943.654736 353.2239 
L 949.513125 353.2239 
L 949.513125 353.2239 
" style="fill:none;stroke:#2b908f;stroke-linecap:square;"/>
   </g>
   <g id="line2d_95">
    <path clip-path="url(#pf64b23d6a4)" d="M 76.613125 328.537818 
L 82.471514 353.044102 
L 88.329904 353.2239 
L 94.188293 353.051977 
L 100.046682 353.2239 
L 152.772185 353.167467 
L 158.630575 353.016542 
L 164.488964 353.2239 
L 211.356078 353.2239 
L 228.931246 353.222588 
L 234.789635 352.999481 
L 240.648024 353.222588 
L 246.506414 353.13597 
L 252.364803 353.222588 
L 264.081581 353.2239 
L 357.81581 353.218575 
L 363.674199 353.06119 
L 369.532588 353.2239 
L 592.15138 353.2239 
L 598.009769 353.008318 
L 603.868159 353.2239 
L 644.876883 353.22231 
L 650.735273 352.800261 
L 656.593662 353.220686 
L 662.452051 353.00908 
L 668.31044 353.219029 
L 721.035944 353.191508 
L 726.894333 353.107318 
L 732.752722 353.2239 
L 814.770172 353.210782 
L 820.628561 352.969302 
L 826.486951 353.218206 
L 931.937957 353.2239 
L 937.796346 353.100095 
L 943.654736 353.2239 
L 949.513125 353.2239 
L 949.513125 353.2239 
" style="fill:none;stroke:#f45b5b;stroke-linecap:square;"/>
   </g>
   <g id="line2d_96">
    <path clip-path="url(#pf64b23d6a4)" d="M 76.613125 328.695276 
L 82.471514 353.0343 
L 88.329904 353.2239 
L 94.188293 353.025522 
L 100.046682 353.2239 
L 152.772185 353.1765 
L 158.630575 352.981634 
L 164.488964 353.2239 
L 228.931246 353.216878 
L 234.789635 352.974611 
L 240.648024 353.2239 
L 246.506414 353.148411 
L 258.223192 353.195811 
L 281.656749 353.2239 
L 357.81581 353.216789 
L 363.674199 353.03689 
L 369.532588 353.2239 
L 592.15138 353.2239 
L 598.009769 352.989925 
L 603.868159 353.217656 
L 644.876883 353.221739 
L 650.735273 352.793754 
L 656.593662 353.2239 
L 662.452051 353.012995 
L 668.31044 353.217272 
L 721.035944 353.179655 
L 726.894333 353.088013 
L 732.752722 353.2239 
L 814.770172 353.213582 
L 820.628561 352.953784 
L 826.486951 353.221285 
L 931.937957 353.2239 
L 937.796346 353.096745 
L 943.654736 353.2239 
L 949.513125 353.2239 
L 949.513125 353.2239 
" style="fill:none;stroke:#91e8e1;stroke-linecap:square;"/>
   </g>
   <g id="line2d_97">
    <path clip-path="url(#pf64b23d6a4)" d="M 76.613125 330.633482 
L 82.471514 353.043391 
L 88.329904 353.2239 
L 94.188293 353.154769 
L 105.905071 353.2239 
L 592.15138 353.2239 
L 598.009769 353.035837 
L 603.868159 353.2239 
L 644.876883 353.2239 
L 650.735273 352.788162 
L 656.593662 353.215334 
L 662.452051 353.017792 
L 668.31044 353.219595 
L 721.035944 353.197444 
L 726.894333 353.095679 
L 732.752722 353.2239 
L 814.770172 353.191526 
L 820.628561 352.973364 
L 826.486951 353.2239 
L 931.937957 353.2239 
L 937.796346 353.085263 
L 943.654736 353.218229 
L 949.513125 353.2239 
L 949.513125 353.2239 
" style="fill:none;stroke:#7cb5ec;stroke-linecap:square;"/>
   </g>
   <g id="line2d_98">
    <path clip-path="url(#pf64b23d6a4)" d="M 76.613125 328.269072 
L 82.471514 353.063531 
L 88.329904 353.2239 
L 94.188293 353.033316 
L 100.046682 353.2239 
L 152.772185 353.182065 
L 158.630575 352.996129 
L 164.488964 353.2239 
L 228.931246 353.215765 
L 234.789635 352.981022 
L 240.648024 353.222738 
L 246.506414 353.142554 
L 258.223192 353.202982 
L 293.373528 353.218083 
L 357.81581 353.219212 
L 363.674199 353.053769 
L 369.532588 353.2239 
L 592.15138 353.2239 
L 598.009769 353.015019 
L 603.868159 353.222572 
L 644.876883 353.2239 
L 650.735273 352.833666 
L 656.593662 353.219726 
L 662.452051 352.979131 
L 668.31044 353.212649 
L 709.319165 353.2239 
L 726.894333 353.079451 
L 732.752722 353.2239 
L 814.770172 353.212455 
L 820.628561 352.973758 
L 826.486951 353.220587 
L 931.937957 353.2239 
L 937.796346 353.097587 
L 943.654736 353.221778 
L 949.513125 353.2239 
L 949.513125 353.2239 
" style="fill:none;stroke:#434348;stroke-linecap:square;"/>
   </g>
   <g id="line2d_99">
    <path clip-path="url(#pf64b23d6a4)" d="M 76.613125 328.226718 
L 82.471514 352.953136 
L 88.329904 353.2239 
L 94.188293 352.931408 
L 100.046682 353.2239 
L 146.913796 353.2239 
L 158.630575 352.889623 
L 164.488964 353.2239 
L 228.931246 353.218886 
L 234.789635 352.88461 
L 240.648024 353.2239 
L 246.506414 353.05509 
L 252.364803 353.2239 
L 258.223192 353.140331 
L 269.939971 353.2239 
L 322.665474 353.220515 
L 357.81581 353.218743 
L 363.674199 352.954924 
L 369.532588 353.2239 
L 592.15138 353.2239 
L 598.009769 353.003374 
L 603.868159 353.2239 
L 644.876883 353.221692 
L 650.735273 352.839388 
L 656.593662 353.221663 
L 662.452051 352.971685 
L 668.31044 353.221633 
L 721.035944 353.18777 
L 726.894333 353.080793 
L 732.752722 353.2239 
L 814.770172 353.202255 
L 820.628561 352.975789 
L 826.486951 353.2239 
L 931.937957 353.2239 
L 937.796346 353.108002 
L 943.654736 353.2239 
L 949.513125 353.2239 
L 949.513125 353.2239 
" style="fill:none;stroke:#90ed7d;stroke-linecap:square;"/>
   </g>
   <g id="line2d_100">
    <path clip-path="url(#pf64b23d6a4)" d="M 76.613125 330.237039 
L 82.471514 353.09075 
L 88.329904 353.2239 
L 94.188293 353.108595 
L 100.046682 353.2239 
L 152.772185 353.211546 
L 158.630575 353.078396 
L 164.488964 353.2239 
L 228.931246 353.221155 
L 234.789635 353.071533 
L 240.648024 353.2239 
L 252.364803 353.2239 
L 486.700373 353.221084 
L 562.859434 353.2239 
L 568.717823 353.141119 
L 586.292991 353.2239 
L 592.15138 353.2239 
L 598.009769 352.986686 
L 603.868159 353.2239 
L 644.876883 353.220877 
L 650.735273 352.791638 
L 656.593662 353.222378 
L 662.452051 353.031447 
L 668.31044 353.21317 
L 715.177555 353.193889 
L 814.770172 353.198452 
L 820.628561 352.966571 
L 826.486951 353.2239 
L 931.937957 353.2239 
L 937.796346 353.089852 
L 943.654736 353.22178 
L 949.513125 353.2239 
L 949.513125 353.2239 
" style="fill:none;stroke:#f7a35c;stroke-linecap:square;"/>
   </g>
   <g id="line2d_101">
    <path clip-path="url(#pf64b23d6a4)" d="M 76.613125 329.094708 
L 82.471514 353.04005 
L 88.329904 353.2239 
L 94.188293 353.044764 
L 100.046682 353.2239 
L 152.772185 353.155545 
L 158.630575 353.014122 
L 164.488964 353.2239 
L 193.78091 353.164974 
L 205.497689 353.212115 
L 228.931246 353.214472 
L 234.789635 353.002337 
L 240.648024 353.2239 
L 246.506414 353.124904 
L 252.364803 353.2239 
L 264.081581 353.2239 
L 357.81581 353.211895 
L 363.674199 353.062724 
L 369.532588 353.2239 
L 592.15138 353.2239 
L 598.009769 353.010642 
L 603.868159 353.2239 
L 644.876883 353.221067 
L 650.735273 352.83682 
L 656.593662 353.221041 
L 662.452051 353.034296 
L 668.31044 353.218128 
L 721.035944 353.187707 
L 726.894333 353.117799 
L 738.611112 353.2239 
L 756.186279 353.2239 
L 814.770172 353.210766 
L 820.628561 352.986144 
L 826.486951 353.220579 
L 931.937957 353.2239 
L 937.796346 353.113028 
L 949.513125 353.2239 
L 949.513125 353.2239 
" style="fill:none;stroke:#8085e9;stroke-linecap:square;"/>
   </g>
   <g id="line2d_102">
    <path clip-path="url(#pf64b23d6a4)" d="M 32.968125 353.2239 
L 993.158125 353.2239 
" style="fill:none;stroke:#dedede;stroke-linecap:square;stroke-width:2;"/>
   </g>
   <g id="text_17">
    <!-- Fastp: Read N Content -->
    <defs>
     <path d="M 9.8125 72.90625 
L 51.703125 72.90625 
L 51.703125 64.59375 
L 19.671875 64.59375 
L 19.671875 43.109375 
L 48.578125 43.109375 
L 48.578125 34.8125 
L 19.671875 34.8125 
L 19.671875 0 
L 9.8125 0 
z
" id="DejaVuSans-70"/>
     <path d="M 18.109375 8.203125 
L 18.109375 -20.796875 
L 9.078125 -20.796875 
L 9.078125 54.6875 
L 18.109375 54.6875 
L 18.109375 46.390625 
Q 20.953125 51.265625 25.265625 53.625 
Q 29.59375 56 35.59375 56 
Q 45.5625 56 51.78125 48.09375 
Q 58.015625 40.1875 58.015625 27.296875 
Q 58.015625 14.40625 51.78125 6.484375 
Q 45.5625 -1.421875 35.59375 -1.421875 
Q 29.59375 -1.421875 25.265625 0.953125 
Q 20.953125 3.328125 18.109375 8.203125 
z
M 48.6875 27.296875 
Q 48.6875 37.203125 44.609375 42.84375 
Q 40.53125 48.484375 33.40625 48.484375 
Q 26.265625 48.484375 22.1875 42.84375 
Q 18.109375 37.203125 18.109375 27.296875 
Q 18.109375 17.390625 22.1875 11.75 
Q 26.265625 6.109375 33.40625 6.109375 
Q 40.53125 6.109375 44.609375 11.75 
Q 48.6875 17.390625 48.6875 27.296875 
z
" id="DejaVuSans-112"/>
     <path d="M 9.8125 72.90625 
L 23.09375 72.90625 
L 55.421875 11.921875 
L 55.421875 72.90625 
L 64.984375 72.90625 
L 64.984375 0 
L 51.703125 0 
L 19.390625 60.984375 
L 19.390625 0 
L 9.8125 0 
z
" id="DejaVuSans-78"/>
    </defs>
    <g transform="translate(422.606875 19.3575)scale(0.16 -0.16)">
     <use xlink:href="#DejaVuSans-70"/>
     <use x="57.378906" xlink:href="#DejaVuSans-97"/>
     <use x="118.658203" xlink:href="#DejaVuSans-115"/>
     <use x="170.757812" xlink:href="#DejaVuSans-116"/>
     <use x="209.966797" xlink:href="#DejaVuSans-112"/>
     <use x="273.443359" xlink:href="#DejaVuSans-58"/>
     <use x="307.134766" xlink:href="#DejaVuSans-32"/>
     <use x="338.921875" xlink:href="#DejaVuSans-82"/>
     <use x="408.341797" xlink:href="#DejaVuSans-101"/>
     <use x="469.865234" xlink:href="#DejaVuSans-97"/>
     <use x="531.144531" xlink:href="#DejaVuSans-100"/>
     <use x="594.621094" xlink:href="#DejaVuSans-32"/>
     <use x="626.408203" xlink:href="#DejaVuSans-78"/>
     <use x="701.212891" xlink:href="#DejaVuSans-32"/>
     <use x="733" xlink:href="#DejaVuSans-67"/>
     <use x="802.824219" xlink:href="#DejaVuSans-111"/>
     <use x="864.005859" xlink:href="#DejaVuSans-110"/>
     <use x="927.384766" xlink:href="#DejaVuSans-116"/>
     <use x="966.59375" xlink:href="#DejaVuSans-101"/>
     <use x="1028.117188" xlink:href="#DejaVuSans-110"/>
     <use x="1091.496094" xlink:href="#DejaVuSans-116"/>
    </g>
   </g>
  </g>
 </g>
 <defs>
  <clipPath id="pf64b23d6a4">
   <rect height="317.968" width="960.19" x="32.968125" y="35.2559"/>
  </clipPath>
 </defs>
</svg>
