<?xml version="1.0" encoding="utf-8" standalone="no"?>
<!DOCTYPE svg PUBLIC "-//W3C//DTD SVG 1.1//EN"
  "http://www.w3.org/Graphics/SVG/1.1/DTD/svg11.dtd">
<!-- Created with matplotlib (https://matplotlib.org/) -->
<svg height="388.844525pt" version="1.1" viewBox="0 0 1000.358125 388.844525" width="1000.358125pt" xmlns="http://www.w3.org/2000/svg" xmlns:xlink="http://www.w3.org/1999/xlink">
 <defs>
  <style type="text/css">
*{stroke-linecap:butt;stroke-linejoin:round;}
  </style>
 </defs>
 <g id="figure_1">
  <g id="axes_1">
   <g id="patch_1">
    <path d="M 32.968125 353.2239 
L 993.158125 353.2239 
L 993.158125 35.2559 
L 32.968125 35.2559 
z
" style="fill:#ffffff;"/>
   </g>
   <g id="matplotlib.axis_1">
    <g id="xtick_1">
     <g id="text_1">
      <!-- 0 -->
      <defs>
       <path d="M 31.78125 66.40625 
Q 24.171875 66.40625 20.328125 58.90625 
Q 16.5 51.421875 16.5 36.375 
Q 16.5 21.390625 20.328125 13.890625 
Q 24.171875 6.390625 31.78125 6.390625 
Q 39.453125 6.390625 43.28125 13.890625 
Q 47.125 21.390625 47.125 36.375 
Q 47.125 51.421875 43.28125 58.90625 
Q 39.453125 66.40625 31.78125 66.40625 
z
M 31.78125 74.21875 
Q 44.046875 74.21875 50.515625 64.515625 
Q 56.984375 54.828125 56.984375 36.375 
Q 56.984375 17.96875 50.515625 8.265625 
Q 44.046875 -1.421875 31.78125 -1.421875 
Q 19.53125 -1.421875 13.0625 8.265625 
Q 6.59375 17.96875 6.59375 36.375 
Q 6.59375 54.828125 13.0625 64.515625 
Q 19.53125 74.21875 31.78125 74.21875 
z
" id="DejaVuSans-48"/>
      </defs>
      <g transform="translate(68.209736 366.30265)scale(0.08 -0.08)">
       <use xlink:href="#DejaVuSans-48"/>
      </g>
     </g>
    </g>
    <g id="xtick_2">
     <g id="text_2">
      <!-- 20 -->
      <defs>
       <path d="M 19.1875 8.296875 
L 53.609375 8.296875 
L 53.609375 0 
L 7.328125 0 
L 7.328125 8.296875 
Q 12.9375 14.109375 22.625 23.890625 
Q 32.328125 33.6875 34.8125 36.53125 
Q 39.546875 41.84375 41.421875 45.53125 
Q 43.3125 49.21875 43.3125 52.78125 
Q 43.3125 58.59375 39.234375 62.25 
Q 35.15625 65.921875 28.609375 65.921875 
Q 23.96875 65.921875 18.8125 64.3125 
Q 13.671875 62.703125 7.8125 59.421875 
L 7.8125 69.390625 
Q 13.765625 71.78125 18.9375 73 
Q 24.125 74.21875 28.421875 74.21875 
Q 39.75 74.21875 46.484375 68.546875 
Q 53.21875 62.890625 53.21875 53.421875 
Q 53.21875 48.921875 51.53125 44.890625 
Q 49.859375 40.875 45.40625 35.40625 
Q 44.1875 33.984375 37.640625 27.21875 
Q 31.109375 20.453125 19.1875 8.296875 
z
" id="DejaVuSans-50"/>
      </defs>
      <g transform="translate(182.832521 366.30265)scale(0.08 -0.08)">
       <use xlink:href="#DejaVuSans-50"/>
       <use x="63.623047" xlink:href="#DejaVuSans-48"/>
      </g>
     </g>
    </g>
    <g id="xtick_3">
     <g id="text_3">
      <!-- 40 -->
      <defs>
       <path d="M 37.796875 64.3125 
L 12.890625 25.390625 
L 37.796875 25.390625 
z
M 35.203125 72.90625 
L 47.609375 72.90625 
L 47.609375 25.390625 
L 58.015625 25.390625 
L 58.015625 17.1875 
L 47.609375 17.1875 
L 47.609375 0 
L 37.796875 0 
L 37.796875 17.1875 
L 4.890625 17.1875 
L 4.890625 26.703125 
z
" id="DejaVuSans-52"/>
      </defs>
      <g transform="translate(300.000306 366.30265)scale(0.08 -0.08)">
       <use xlink:href="#DejaVuSans-52"/>
       <use x="63.623047" xlink:href="#DejaVuSans-48"/>
      </g>
     </g>
    </g>
    <g id="xtick_4">
     <g id="text_4">
      <!-- 60 -->
      <defs>
       <path d="M 33.015625 40.375 
Q 26.375 40.375 22.484375 35.828125 
Q 18.609375 31.296875 18.609375 23.390625 
Q 18.609375 15.53125 22.484375 10.953125 
Q 26.375 6.390625 33.015625 6.390625 
Q 39.65625 6.390625 43.53125 10.953125 
Q 47.40625 15.53125 47.40625 23.390625 
Q 47.40625 31.296875 43.53125 35.828125 
Q 39.65625 40.375 33.015625 40.375 
z
M 52.59375 71.296875 
L 52.59375 62.3125 
Q 48.875 64.0625 45.09375 64.984375 
Q 41.3125 65.921875 37.59375 65.921875 
Q 27.828125 65.921875 22.671875 59.328125 
Q 17.53125 52.734375 16.796875 39.40625 
Q 19.671875 43.65625 24.015625 45.921875 
Q 28.375 48.1875 33.59375 48.1875 
Q 44.578125 48.1875 50.953125 41.515625 
Q 57.328125 34.859375 57.328125 23.390625 
Q 57.328125 12.15625 50.6875 5.359375 
Q 44.046875 -1.421875 33.015625 -1.421875 
Q 20.359375 -1.421875 13.671875 8.265625 
Q 6.984375 17.96875 6.984375 36.375 
Q 6.984375 53.65625 15.1875 63.9375 
Q 23.390625 74.21875 37.203125 74.21875 
Q 40.921875 74.21875 44.703125 73.484375 
Q 48.484375 72.75 52.59375 71.296875 
z
" id="DejaVuSans-54"/>
      </defs>
      <g transform="translate(417.168091 366.30265)scale(0.08 -0.08)">
       <use xlink:href="#DejaVuSans-54"/>
       <use x="63.623047" xlink:href="#DejaVuSans-48"/>
      </g>
     </g>
    </g>
    <g id="xtick_5">
     <g id="text_5">
      <!-- 80 -->
      <defs>
       <path d="M 31.78125 34.625 
Q 24.75 34.625 20.71875 30.859375 
Q 16.703125 27.09375 16.703125 20.515625 
Q 16.703125 13.921875 20.71875 10.15625 
Q 24.75 6.390625 31.78125 6.390625 
Q 38.8125 6.390625 42.859375 10.171875 
Q 46.921875 13.96875 46.921875 20.515625 
Q 46.921875 27.09375 42.890625 30.859375 
Q 38.875 34.625 31.78125 34.625 
z
M 21.921875 38.8125 
Q 15.578125 40.375 12.03125 44.71875 
Q 8.5 49.078125 8.5 55.328125 
Q 8.5 64.0625 14.71875 69.140625 
Q 20.953125 74.21875 31.78125 74.21875 
Q 42.671875 74.21875 48.875 69.140625 
Q 55.078125 64.0625 55.078125 55.328125 
Q 55.078125 49.078125 51.53125 44.71875 
Q 48 40.375 41.703125 38.8125 
Q 48.828125 37.15625 52.796875 32.3125 
Q 56.78125 27.484375 56.78125 20.515625 
Q 56.78125 9.90625 50.3125 4.234375 
Q 43.84375 -1.421875 31.78125 -1.421875 
Q 19.734375 -1.421875 13.25 4.234375 
Q 6.78125 9.90625 6.78125 20.515625 
Q 6.78125 27.484375 10.78125 32.3125 
Q 14.796875 37.15625 21.921875 38.8125 
z
M 18.3125 54.390625 
Q 18.3125 48.734375 21.84375 45.5625 
Q 25.390625 42.390625 31.78125 42.390625 
Q 38.140625 42.390625 41.71875 45.5625 
Q 45.3125 48.734375 45.3125 54.390625 
Q 45.3125 60.0625 41.71875 63.234375 
Q 38.140625 66.40625 31.78125 66.40625 
Q 25.390625 66.40625 21.84375 63.234375 
Q 18.3125 60.0625 18.3125 54.390625 
z
" id="DejaVuSans-56"/>
      </defs>
      <g transform="translate(534.335877 366.30265)scale(0.08 -0.08)">
       <use xlink:href="#DejaVuSans-56"/>
       <use x="63.623047" xlink:href="#DejaVuSans-48"/>
      </g>
     </g>
    </g>
    <g id="xtick_6">
     <g id="text_6">
      <!-- 100 -->
      <defs>
       <path d="M 12.40625 8.296875 
L 28.515625 8.296875 
L 28.515625 63.921875 
L 10.984375 60.40625 
L 10.984375 69.390625 
L 28.421875 72.90625 
L 38.28125 72.90625 
L 38.28125 8.296875 
L 54.390625 8.296875 
L 54.390625 0 
L 12.40625 0 
z
" id="DejaVuSans-49"/>
      </defs>
      <g transform="translate(648.958662 366.30265)scale(0.08 -0.08)">
       <use xlink:href="#DejaVuSans-49"/>
       <use x="63.623047" xlink:href="#DejaVuSans-48"/>
       <use x="127.246094" xlink:href="#DejaVuSans-48"/>
      </g>
     </g>
    </g>
    <g id="xtick_7">
     <g id="text_7">
      <!-- 120 -->
      <g transform="translate(766.126447 366.30265)scale(0.08 -0.08)">
       <use xlink:href="#DejaVuSans-49"/>
       <use x="63.623047" xlink:href="#DejaVuSans-50"/>
       <use x="127.246094" xlink:href="#DejaVuSans-48"/>
      </g>
     </g>
    </g>
    <g id="xtick_8">
     <g id="text_8">
      <!-- 140 -->
      <g transform="translate(883.294232 366.30265)scale(0.08 -0.08)">
       <use xlink:href="#DejaVuSans-49"/>
       <use x="63.623047" xlink:href="#DejaVuSans-52"/>
       <use x="127.246094" xlink:href="#DejaVuSans-48"/>
      </g>
     </g>
    </g>
    <g id="text_9">
     <!-- Read Position -->
     <defs>
      <path d="M 44.390625 34.1875 
Q 47.5625 33.109375 50.5625 29.59375 
Q 53.5625 26.078125 56.59375 19.921875 
L 66.609375 0 
L 56 0 
L 46.6875 18.703125 
Q 43.0625 26.03125 39.671875 28.421875 
Q 36.28125 30.8125 30.421875 30.8125 
L 19.671875 30.8125 
L 19.671875 0 
L 9.8125 0 
L 9.8125 72.90625 
L 32.078125 72.90625 
Q 44.578125 72.90625 50.734375 67.671875 
Q 56.890625 62.453125 56.890625 51.90625 
Q 56.890625 45.015625 53.6875 40.46875 
Q 50.484375 35.9375 44.390625 34.1875 
z
M 19.671875 64.796875 
L 19.671875 38.921875 
L 32.078125 38.921875 
Q 39.203125 38.921875 42.84375 42.21875 
Q 46.484375 45.515625 46.484375 51.90625 
Q 46.484375 58.296875 42.84375 61.546875 
Q 39.203125 64.796875 32.078125 64.796875 
z
" id="DejaVuSans-82"/>
      <path d="M 56.203125 29.59375 
L 56.203125 25.203125 
L 14.890625 25.203125 
Q 15.484375 15.921875 20.484375 11.0625 
Q 25.484375 6.203125 34.421875 6.203125 
Q 39.59375 6.203125 44.453125 7.46875 
Q 49.3125 8.734375 54.109375 11.28125 
L 54.109375 2.78125 
Q 49.265625 0.734375 44.1875 -0.34375 
Q 39.109375 -1.421875 33.890625 -1.421875 
Q 20.796875 -1.421875 13.15625 6.1875 
Q 5.515625 13.8125 5.515625 26.8125 
Q 5.515625 40.234375 12.765625 48.109375 
Q 20.015625 56 32.328125 56 
Q 43.359375 56 49.78125 48.890625 
Q 56.203125 41.796875 56.203125 29.59375 
z
M 47.21875 32.234375 
Q 47.125 39.59375 43.09375 43.984375 
Q 39.0625 48.390625 32.421875 48.390625 
Q 24.90625 48.390625 20.390625 44.140625 
Q 15.875 39.890625 15.1875 32.171875 
z
" id="DejaVuSans-101"/>
      <path d="M 34.28125 27.484375 
Q 23.390625 27.484375 19.1875 25 
Q 14.984375 22.515625 14.984375 16.5 
Q 14.984375 11.71875 18.140625 8.90625 
Q 21.296875 6.109375 26.703125 6.109375 
Q 34.1875 6.109375 38.703125 11.40625 
Q 43.21875 16.703125 43.21875 25.484375 
L 43.21875 27.484375 
z
M 52.203125 31.203125 
L 52.203125 0 
L 43.21875 0 
L 43.21875 8.296875 
Q 40.140625 3.328125 35.546875 0.953125 
Q 30.953125 -1.421875 24.3125 -1.421875 
Q 15.921875 -1.421875 10.953125 3.296875 
Q 6 8.015625 6 15.921875 
Q 6 25.140625 12.171875 29.828125 
Q 18.359375 34.515625 30.609375 34.515625 
L 43.21875 34.515625 
L 43.21875 35.40625 
Q 43.21875 41.609375 39.140625 45 
Q 35.0625 48.390625 27.6875 48.390625 
Q 23 48.390625 18.546875 47.265625 
Q 14.109375 46.140625 10.015625 43.890625 
L 10.015625 52.203125 
Q 14.9375 54.109375 19.578125 55.046875 
Q 24.21875 56 28.609375 56 
Q 40.484375 56 46.34375 49.84375 
Q 52.203125 43.703125 52.203125 31.203125 
z
" id="DejaVuSans-97"/>
      <path d="M 45.40625 46.390625 
L 45.40625 75.984375 
L 54.390625 75.984375 
L 54.390625 0 
L 45.40625 0 
L 45.40625 8.203125 
Q 42.578125 3.328125 38.25 0.953125 
Q 33.9375 -1.421875 27.875 -1.421875 
Q 17.96875 -1.421875 11.734375 6.484375 
Q 5.515625 14.40625 5.515625 27.296875 
Q 5.515625 40.1875 11.734375 48.09375 
Q 17.96875 56 27.875 56 
Q 33.9375 56 38.25 53.625 
Q 42.578125 51.265625 45.40625 46.390625 
z
M 14.796875 27.296875 
Q 14.796875 17.390625 18.875 11.75 
Q 22.953125 6.109375 30.078125 6.109375 
Q 37.203125 6.109375 41.296875 11.75 
Q 45.40625 17.390625 45.40625 27.296875 
Q 45.40625 37.203125 41.296875 42.84375 
Q 37.203125 48.484375 30.078125 48.484375 
Q 22.953125 48.484375 18.875 42.84375 
Q 14.796875 37.203125 14.796875 27.296875 
z
" id="DejaVuSans-100"/>
      <path id="DejaVuSans-32"/>
      <path d="M 19.671875 64.796875 
L 19.671875 37.40625 
L 32.078125 37.40625 
Q 38.96875 37.40625 42.71875 40.96875 
Q 46.484375 44.53125 46.484375 51.125 
Q 46.484375 57.671875 42.71875 61.234375 
Q 38.96875 64.796875 32.078125 64.796875 
z
M 9.8125 72.90625 
L 32.078125 72.90625 
Q 44.34375 72.90625 50.609375 67.359375 
Q 56.890625 61.8125 56.890625 51.125 
Q 56.890625 40.328125 50.609375 34.8125 
Q 44.34375 29.296875 32.078125 29.296875 
L 19.671875 29.296875 
L 19.671875 0 
L 9.8125 0 
z
" id="DejaVuSans-80"/>
      <path d="M 30.609375 48.390625 
Q 23.390625 48.390625 19.1875 42.75 
Q 14.984375 37.109375 14.984375 27.296875 
Q 14.984375 17.484375 19.15625 11.84375 
Q 23.34375 6.203125 30.609375 6.203125 
Q 37.796875 6.203125 41.984375 11.859375 
Q 46.1875 17.53125 46.1875 27.296875 
Q 46.1875 37.015625 41.984375 42.703125 
Q 37.796875 48.390625 30.609375 48.390625 
z
M 30.609375 56 
Q 42.328125 56 49.015625 48.375 
Q 55.71875 40.765625 55.71875 27.296875 
Q 55.71875 13.875 49.015625 6.21875 
Q 42.328125 -1.421875 30.609375 -1.421875 
Q 18.84375 -1.421875 12.171875 6.21875 
Q 5.515625 13.875 5.515625 27.296875 
Q 5.515625 40.765625 12.171875 48.375 
Q 18.84375 56 30.609375 56 
z
" id="DejaVuSans-111"/>
      <path d="M 44.28125 53.078125 
L 44.28125 44.578125 
Q 40.484375 46.53125 36.375 47.5 
Q 32.28125 48.484375 27.875 48.484375 
Q 21.1875 48.484375 17.84375 46.4375 
Q 14.5 44.390625 14.5 40.28125 
Q 14.5 37.15625 16.890625 35.375 
Q 19.28125 33.59375 26.515625 31.984375 
L 29.59375 31.296875 
Q 39.15625 29.25 43.1875 25.515625 
Q 47.21875 21.78125 47.21875 15.09375 
Q 47.21875 7.46875 41.1875 3.015625 
Q 35.15625 -1.421875 24.609375 -1.421875 
Q 20.21875 -1.421875 15.453125 -0.5625 
Q 10.6875 0.296875 5.421875 2 
L 5.421875 11.28125 
Q 10.40625 8.6875 15.234375 7.390625 
Q 20.0625 6.109375 24.8125 6.109375 
Q 31.15625 6.109375 34.5625 8.28125 
Q 37.984375 10.453125 37.984375 14.40625 
Q 37.984375 18.0625 35.515625 20.015625 
Q 33.0625 21.96875 24.703125 23.78125 
L 21.578125 24.515625 
Q 13.234375 26.265625 9.515625 29.90625 
Q 5.8125 33.546875 5.8125 39.890625 
Q 5.8125 47.609375 11.28125 51.796875 
Q 16.75 56 26.8125 56 
Q 31.78125 56 36.171875 55.265625 
Q 40.578125 54.546875 44.28125 53.078125 
z
" id="DejaVuSans-115"/>
      <path d="M 9.421875 54.6875 
L 18.40625 54.6875 
L 18.40625 0 
L 9.421875 0 
z
M 9.421875 75.984375 
L 18.40625 75.984375 
L 18.40625 64.59375 
L 9.421875 64.59375 
z
" id="DejaVuSans-105"/>
      <path d="M 18.3125 70.21875 
L 18.3125 54.6875 
L 36.8125 54.6875 
L 36.8125 47.703125 
L 18.3125 47.703125 
L 18.3125 18.015625 
Q 18.3125 11.328125 20.140625 9.421875 
Q 21.96875 7.515625 27.59375 7.515625 
L 36.8125 7.515625 
L 36.8125 0 
L 27.59375 0 
Q 17.1875 0 13.234375 3.875 
Q 9.28125 7.765625 9.28125 18.015625 
L 9.28125 47.703125 
L 2.6875 47.703125 
L 2.6875 54.6875 
L 9.28125 54.6875 
L 9.28125 70.21875 
z
" id="DejaVuSans-116"/>
      <path d="M 54.890625 33.015625 
L 54.890625 0 
L 45.90625 0 
L 45.90625 32.71875 
Q 45.90625 40.484375 42.875 44.328125 
Q 39.84375 48.1875 33.796875 48.1875 
Q 26.515625 48.1875 22.3125 43.546875 
Q 18.109375 38.921875 18.109375 30.90625 
L 18.109375 0 
L 9.078125 0 
L 9.078125 54.6875 
L 18.109375 54.6875 
L 18.109375 46.1875 
Q 21.34375 51.125 25.703125 53.5625 
Q 30.078125 56 35.796875 56 
Q 45.21875 56 50.046875 50.171875 
Q 54.890625 44.34375 54.890625 33.015625 
z
" id="DejaVuSans-110"/>
     </defs>
     <g transform="translate(479.045156 379.564837)scale(0.1 -0.1)">
      <use xlink:href="#DejaVuSans-82"/>
      <use x="69.419922" xlink:href="#DejaVuSans-101"/>
      <use x="130.943359" xlink:href="#DejaVuSans-97"/>
      <use x="192.222656" xlink:href="#DejaVuSans-100"/>
      <use x="255.699219" xlink:href="#DejaVuSans-32"/>
      <use x="287.486328" xlink:href="#DejaVuSans-80"/>
      <use x="347.742188" xlink:href="#DejaVuSans-111"/>
      <use x="408.923828" xlink:href="#DejaVuSans-115"/>
      <use x="461.023438" xlink:href="#DejaVuSans-105"/>
      <use x="488.806641" xlink:href="#DejaVuSans-116"/>
      <use x="528.015625" xlink:href="#DejaVuSans-105"/>
      <use x="555.798828" xlink:href="#DejaVuSans-111"/>
      <use x="616.980469" xlink:href="#DejaVuSans-110"/>
     </g>
    </g>
   </g>
   <g id="matplotlib.axis_2">
    <g id="ytick_1">
     <g id="line2d_1">
      <path clip-path="url(#pad50e79e6d)" d="M 32.968125 353.2239 
L 993.158125 353.2239 
" style="fill:none;stroke:#dedede;stroke-linecap:square;"/>
     </g>
     <g id="text_10">
      <!-- 0 -->
      <g transform="translate(20.878125 356.263275)scale(0.08 -0.08)">
       <use xlink:href="#DejaVuSans-48"/>
      </g>
     </g>
    </g>
    <g id="ytick_2">
     <g id="line2d_2">
      <path clip-path="url(#pad50e79e6d)" d="M 32.968125 289.6303 
L 993.158125 289.6303 
" style="fill:none;stroke:#dedede;stroke-linecap:square;"/>
     </g>
     <g id="text_11">
      <!-- 1 -->
      <g transform="translate(20.878125 292.669675)scale(0.08 -0.08)">
       <use xlink:href="#DejaVuSans-49"/>
      </g>
     </g>
    </g>
    <g id="ytick_3">
     <g id="line2d_3">
      <path clip-path="url(#pad50e79e6d)" d="M 32.968125 226.0367 
L 993.158125 226.0367 
" style="fill:none;stroke:#dedede;stroke-linecap:square;"/>
     </g>
     <g id="text_12">
      <!-- 2 -->
      <g transform="translate(20.878125 229.076075)scale(0.08 -0.08)">
       <use xlink:href="#DejaVuSans-50"/>
      </g>
     </g>
    </g>
    <g id="ytick_4">
     <g id="line2d_4">
      <path clip-path="url(#pad50e79e6d)" d="M 32.968125 162.4431 
L 993.158125 162.4431 
" style="fill:none;stroke:#dedede;stroke-linecap:square;"/>
     </g>
     <g id="text_13">
      <!-- 3 -->
      <defs>
       <path d="M 40.578125 39.3125 
Q 47.65625 37.796875 51.625 33 
Q 55.609375 28.21875 55.609375 21.1875 
Q 55.609375 10.40625 48.1875 4.484375 
Q 40.765625 -1.421875 27.09375 -1.421875 
Q 22.515625 -1.421875 17.65625 -0.515625 
Q 12.796875 0.390625 7.625 2.203125 
L 7.625 11.71875 
Q 11.71875 9.328125 16.59375 8.109375 
Q 21.484375 6.890625 26.8125 6.890625 
Q 36.078125 6.890625 40.9375 10.546875 
Q 45.796875 14.203125 45.796875 21.1875 
Q 45.796875 27.640625 41.28125 31.265625 
Q 36.765625 34.90625 28.71875 34.90625 
L 20.21875 34.90625 
L 20.21875 43.015625 
L 29.109375 43.015625 
Q 36.375 43.015625 40.234375 45.921875 
Q 44.09375 48.828125 44.09375 54.296875 
Q 44.09375 59.90625 40.109375 62.90625 
Q 36.140625 65.921875 28.71875 65.921875 
Q 24.65625 65.921875 20.015625 65.03125 
Q 15.375 64.15625 9.8125 62.3125 
L 9.8125 71.09375 
Q 15.4375 72.65625 20.34375 73.4375 
Q 25.25 74.21875 29.59375 74.21875 
Q 40.828125 74.21875 47.359375 69.109375 
Q 53.90625 64.015625 53.90625 55.328125 
Q 53.90625 49.265625 50.4375 45.09375 
Q 46.96875 40.921875 40.578125 39.3125 
z
" id="DejaVuSans-51"/>
      </defs>
      <g transform="translate(20.878125 165.482475)scale(0.08 -0.08)">
       <use xlink:href="#DejaVuSans-51"/>
      </g>
     </g>
    </g>
    <g id="ytick_5">
     <g id="line2d_5">
      <path clip-path="url(#pad50e79e6d)" d="M 32.968125 98.8495 
L 993.158125 98.8495 
" style="fill:none;stroke:#dedede;stroke-linecap:square;"/>
     </g>
     <g id="text_14">
      <!-- 4 -->
      <g transform="translate(20.878125 101.888875)scale(0.08 -0.08)">
       <use xlink:href="#DejaVuSans-52"/>
      </g>
     </g>
    </g>
    <g id="ytick_6">
     <g id="line2d_6">
      <path clip-path="url(#pad50e79e6d)" d="M 32.968125 35.2559 
L 993.158125 35.2559 
" style="fill:none;stroke:#dedede;stroke-linecap:square;"/>
     </g>
     <g id="text_15">
      <!-- 5 -->
      <defs>
       <path d="M 10.796875 72.90625 
L 49.515625 72.90625 
L 49.515625 64.59375 
L 19.828125 64.59375 
L 19.828125 46.734375 
Q 21.96875 47.46875 24.109375 47.828125 
Q 26.265625 48.1875 28.421875 48.1875 
Q 40.625 48.1875 47.75 41.5 
Q 54.890625 34.8125 54.890625 23.390625 
Q 54.890625 11.625 47.5625 5.09375 
Q 40.234375 -1.421875 26.90625 -1.421875 
Q 22.3125 -1.421875 17.546875 -0.640625 
Q 12.796875 0.140625 7.71875 1.703125 
L 7.71875 11.625 
Q 12.109375 9.234375 16.796875 8.0625 
Q 21.484375 6.890625 26.703125 6.890625 
Q 35.15625 6.890625 40.078125 11.328125 
Q 45.015625 15.765625 45.015625 23.390625 
Q 45.015625 31 40.078125 35.4375 
Q 35.15625 39.890625 26.703125 39.890625 
Q 22.75 39.890625 18.8125 39.015625 
Q 14.890625 38.140625 10.796875 36.28125 
z
" id="DejaVuSans-53"/>
      </defs>
      <g transform="translate(20.878125 38.295275)scale(0.08 -0.08)">
       <use xlink:href="#DejaVuSans-53"/>
      </g>
     </g>
    </g>
    <g id="text_16">
     <!-- R1 Before filtering: Base Content Percent -->
     <defs>
      <path d="M 19.671875 34.8125 
L 19.671875 8.109375 
L 35.5 8.109375 
Q 43.453125 8.109375 47.28125 11.40625 
Q 51.125 14.703125 51.125 21.484375 
Q 51.125 28.328125 47.28125 31.5625 
Q 43.453125 34.8125 35.5 34.8125 
z
M 19.671875 64.796875 
L 19.671875 42.828125 
L 34.28125 42.828125 
Q 41.5 42.828125 45.03125 45.53125 
Q 48.578125 48.25 48.578125 53.8125 
Q 48.578125 59.328125 45.03125 62.0625 
Q 41.5 64.796875 34.28125 64.796875 
z
M 9.8125 72.90625 
L 35.015625 72.90625 
Q 46.296875 72.90625 52.390625 68.21875 
Q 58.5 63.53125 58.5 54.890625 
Q 58.5 48.1875 55.375 44.234375 
Q 52.25 40.28125 46.1875 39.3125 
Q 53.46875 37.75 57.5 32.78125 
Q 61.53125 27.828125 61.53125 20.40625 
Q 61.53125 10.640625 54.890625 5.3125 
Q 48.25 0 35.984375 0 
L 9.8125 0 
z
" id="DejaVuSans-66"/>
      <path d="M 37.109375 75.984375 
L 37.109375 68.5 
L 28.515625 68.5 
Q 23.6875 68.5 21.796875 66.546875 
Q 19.921875 64.59375 19.921875 59.515625 
L 19.921875 54.6875 
L 34.71875 54.6875 
L 34.71875 47.703125 
L 19.921875 47.703125 
L 19.921875 0 
L 10.890625 0 
L 10.890625 47.703125 
L 2.296875 47.703125 
L 2.296875 54.6875 
L 10.890625 54.6875 
L 10.890625 58.5 
Q 10.890625 67.625 15.140625 71.796875 
Q 19.390625 75.984375 28.609375 75.984375 
z
" id="DejaVuSans-102"/>
      <path d="M 41.109375 46.296875 
Q 39.59375 47.171875 37.8125 47.578125 
Q 36.03125 48 33.890625 48 
Q 26.265625 48 22.1875 43.046875 
Q 18.109375 38.09375 18.109375 28.8125 
L 18.109375 0 
L 9.078125 0 
L 9.078125 54.6875 
L 18.109375 54.6875 
L 18.109375 46.1875 
Q 20.953125 51.171875 25.484375 53.578125 
Q 30.03125 56 36.53125 56 
Q 37.453125 56 38.578125 55.875 
Q 39.703125 55.765625 41.0625 55.515625 
z
" id="DejaVuSans-114"/>
      <path d="M 9.421875 75.984375 
L 18.40625 75.984375 
L 18.40625 0 
L 9.421875 0 
z
" id="DejaVuSans-108"/>
      <path d="M 45.40625 27.984375 
Q 45.40625 37.75 41.375 43.109375 
Q 37.359375 48.484375 30.078125 48.484375 
Q 22.859375 48.484375 18.828125 43.109375 
Q 14.796875 37.75 14.796875 27.984375 
Q 14.796875 18.265625 18.828125 12.890625 
Q 22.859375 7.515625 30.078125 7.515625 
Q 37.359375 7.515625 41.375 12.890625 
Q 45.40625 18.265625 45.40625 27.984375 
z
M 54.390625 6.78125 
Q 54.390625 -7.171875 48.1875 -13.984375 
Q 42 -20.796875 29.203125 -20.796875 
Q 24.46875 -20.796875 20.265625 -20.09375 
Q 16.0625 -19.390625 12.109375 -17.921875 
L 12.109375 -9.1875 
Q 16.0625 -11.328125 19.921875 -12.34375 
Q 23.78125 -13.375 27.78125 -13.375 
Q 36.625 -13.375 41.015625 -8.765625 
Q 45.40625 -4.15625 45.40625 5.171875 
L 45.40625 9.625 
Q 42.625 4.78125 38.28125 2.390625 
Q 33.9375 0 27.875 0 
Q 17.828125 0 11.671875 7.65625 
Q 5.515625 15.328125 5.515625 27.984375 
Q 5.515625 40.671875 11.671875 48.328125 
Q 17.828125 56 27.875 56 
Q 33.9375 56 38.28125 53.609375 
Q 42.625 51.21875 45.40625 46.390625 
L 45.40625 54.6875 
L 54.390625 54.6875 
z
" id="DejaVuSans-103"/>
      <path d="M 11.71875 12.40625 
L 22.015625 12.40625 
L 22.015625 0 
L 11.71875 0 
z
M 11.71875 51.703125 
L 22.015625 51.703125 
L 22.015625 39.3125 
L 11.71875 39.3125 
z
" id="DejaVuSans-58"/>
      <path d="M 64.40625 67.28125 
L 64.40625 56.890625 
Q 59.421875 61.53125 53.78125 63.8125 
Q 48.140625 66.109375 41.796875 66.109375 
Q 29.296875 66.109375 22.65625 58.46875 
Q 16.015625 50.828125 16.015625 36.375 
Q 16.015625 21.96875 22.65625 14.328125 
Q 29.296875 6.6875 41.796875 6.6875 
Q 48.140625 6.6875 53.78125 8.984375 
Q 59.421875 11.28125 64.40625 15.921875 
L 64.40625 5.609375 
Q 59.234375 2.09375 53.4375 0.328125 
Q 47.65625 -1.421875 41.21875 -1.421875 
Q 24.65625 -1.421875 15.125 8.703125 
Q 5.609375 18.84375 5.609375 36.375 
Q 5.609375 53.953125 15.125 64.078125 
Q 24.65625 74.21875 41.21875 74.21875 
Q 47.75 74.21875 53.53125 72.484375 
Q 59.328125 70.75 64.40625 67.28125 
z
" id="DejaVuSans-67"/>
      <path d="M 48.78125 52.59375 
L 48.78125 44.1875 
Q 44.96875 46.296875 41.140625 47.34375 
Q 37.3125 48.390625 33.40625 48.390625 
Q 24.65625 48.390625 19.8125 42.84375 
Q 14.984375 37.3125 14.984375 27.296875 
Q 14.984375 17.28125 19.8125 11.734375 
Q 24.65625 6.203125 33.40625 6.203125 
Q 37.3125 6.203125 41.140625 7.25 
Q 44.96875 8.296875 48.78125 10.40625 
L 48.78125 2.09375 
Q 45.015625 0.34375 40.984375 -0.53125 
Q 36.96875 -1.421875 32.421875 -1.421875 
Q 20.0625 -1.421875 12.78125 6.34375 
Q 5.515625 14.109375 5.515625 27.296875 
Q 5.515625 40.671875 12.859375 48.328125 
Q 20.21875 56 33.015625 56 
Q 37.15625 56 41.109375 55.140625 
Q 45.0625 54.296875 48.78125 52.59375 
z
" id="DejaVuSans-99"/>
     </defs>
     <g transform="translate(14.798438 297.503181)rotate(-90)scale(0.1 -0.1)">
      <use xlink:href="#DejaVuSans-82"/>
      <use x="69.482422" xlink:href="#DejaVuSans-49"/>
      <use x="133.105469" xlink:href="#DejaVuSans-32"/>
      <use x="164.892578" xlink:href="#DejaVuSans-66"/>
      <use x="233.496094" xlink:href="#DejaVuSans-101"/>
      <use x="295.019531" xlink:href="#DejaVuSans-102"/>
      <use x="330.224609" xlink:href="#DejaVuSans-111"/>
      <use x="391.40625" xlink:href="#DejaVuSans-114"/>
      <use x="432.488281" xlink:href="#DejaVuSans-101"/>
      <use x="494.011719" xlink:href="#DejaVuSans-32"/>
      <use x="525.798828" xlink:href="#DejaVuSans-102"/>
      <use x="561.003906" xlink:href="#DejaVuSans-105"/>
      <use x="588.787109" xlink:href="#DejaVuSans-108"/>
      <use x="616.570312" xlink:href="#DejaVuSans-116"/>
      <use x="655.779297" xlink:href="#DejaVuSans-101"/>
      <use x="717.302734" xlink:href="#DejaVuSans-114"/>
      <use x="758.416016" xlink:href="#DejaVuSans-105"/>
      <use x="786.199219" xlink:href="#DejaVuSans-110"/>
      <use x="849.578125" xlink:href="#DejaVuSans-103"/>
      <use x="913.054688" xlink:href="#DejaVuSans-58"/>
      <use x="946.746094" xlink:href="#DejaVuSans-32"/>
      <use x="978.533203" xlink:href="#DejaVuSans-66"/>
      <use x="1047.136719" xlink:href="#DejaVuSans-97"/>
      <use x="1108.416016" xlink:href="#DejaVuSans-115"/>
      <use x="1160.515625" xlink:href="#DejaVuSans-101"/>
      <use x="1222.039062" xlink:href="#DejaVuSans-32"/>
      <use x="1253.826172" xlink:href="#DejaVuSans-67"/>
      <use x="1323.650391" xlink:href="#DejaVuSans-111"/>
      <use x="1384.832031" xlink:href="#DejaVuSans-110"/>
      <use x="1448.210938" xlink:href="#DejaVuSans-116"/>
      <use x="1487.419922" xlink:href="#DejaVuSans-101"/>
      <use x="1548.943359" xlink:href="#DejaVuSans-110"/>
      <use x="1612.322266" xlink:href="#DejaVuSans-116"/>
      <use x="1651.53125" xlink:href="#DejaVuSans-32"/>
      <use x="1683.318359" xlink:href="#DejaVuSans-80"/>
      <use x="1743.574219" xlink:href="#DejaVuSans-101"/>
      <use x="1805.097656" xlink:href="#DejaVuSans-114"/>
      <use x="1846.179688" xlink:href="#DejaVuSans-99"/>
      <use x="1901.160156" xlink:href="#DejaVuSans-101"/>
      <use x="1962.683594" xlink:href="#DejaVuSans-110"/>
      <use x="2026.0625" xlink:href="#DejaVuSans-116"/>
     </g>
    </g>
   </g>
   <g id="line2d_7">
    <path clip-path="url(#pad50e79e6d)" d="M 76.613125 298.083861 
L 82.471514 353.2239 
L 146.913796 353.2239 
L 152.772185 353.039485 
L 158.630575 353.2239 
L 176.205742 353.2239 
L 182.064132 353.039485 
L 187.922521 353.2239 
L 598.009769 353.2239 
L 603.868159 352.969546 
L 609.726548 353.2239 
L 650.735273 353.2239 
L 656.593662 352.94791 
L 662.452051 353.2239 
L 668.31044 353.2239 
L 674.16883 352.939962 
L 680.027219 353.2239 
L 691.743997 353.2239 
L 697.602387 352.928198 
L 703.460776 353.2239 
L 715.177555 353.2239 
L 721.035944 352.916179 
L 726.894333 353.2239 
L 896.787622 353.2239 
L 902.646011 352.766392 
L 908.5044 353.2239 
L 949.513125 353.2239 
L 949.513125 353.2239 
" style="fill:none;stroke:#7cb5ec;stroke-linecap:square;"/>
   </g>
   <g id="line2d_8">
    <path clip-path="url(#pad50e79e6d)" d="M 76.613125 294.657565 
L 82.471514 353.097106 
L 88.329904 353.2239 
L 94.188293 353.135144 
L 105.905071 353.2239 
L 152.772185 353.160503 
L 164.488964 353.2239 
L 287.515138 353.2239 
L 293.373528 353.020342 
L 299.231917 353.2239 
L 762.044669 353.2239 
L 767.903058 353.031679 
L 773.761447 353.2239 
L 803.053393 353.2239 
L 808.911783 352.918866 
L 814.770172 353.2239 
L 820.628561 352.837094 
L 826.486951 353.2239 
L 949.513125 353.2239 
L 949.513125 353.2239 
" style="fill:none;stroke:#434348;stroke-linecap:square;"/>
   </g>
   <g id="line2d_9">
    <path clip-path="url(#pad50e79e6d)" d="M 76.613125 298.207868 
L 82.471514 353.002038 
L 88.329904 353.2239 
L 94.188293 353.118807 
L 105.905071 353.2239 
L 182.064132 353.160844 
L 193.78091 353.2239 
L 803.053393 353.2239 
L 808.911783 353.078779 
L 814.770172 353.2239 
L 820.628561 352.963569 
L 826.486951 353.2239 
L 861.637286 353.197349 
L 890.929232 353.2239 
L 949.513125 353.2239 
L 949.513125 353.2239 
" style="fill:none;stroke:#90ed7d;stroke-linecap:square;"/>
   </g>
   <g id="line2d_10">
    <path clip-path="url(#pad50e79e6d)" d="M 76.613125 296.538218 
L 82.471514 353.2239 
L 88.329904 353.2239 
L 94.188293 353.095069 
L 100.046682 353.2239 
L 258.223192 353.2239 
L 264.081581 353.095069 
L 269.939971 353.2239 
L 287.515138 353.2239 
L 293.373528 353.094605 
L 299.231917 353.2239 
L 814.770172 353.2239 
L 820.628561 352.713559 
L 826.486951 353.2239 
L 926.079568 353.2239 
L 931.937957 352.474551 
L 937.796346 353.2239 
L 949.513125 353.2239 
L 949.513125 353.2239 
" style="fill:none;stroke:#f7a35c;stroke-linecap:square;"/>
   </g>
   <g id="line2d_11">
    <path clip-path="url(#pad50e79e6d)" d="M 76.613125 293.133481 
L 82.471514 352.976041 
L 88.329904 353.2239 
L 94.188293 353.09997 
L 100.046682 353.2239 
L 803.053393 353.2239 
L 808.911783 353.097449 
L 814.770172 353.2239 
L 820.628561 352.995647 
L 826.486951 353.2239 
L 896.787622 353.2239 
L 902.646011 353.09555 
L 908.5044 353.2239 
L 949.513125 353.2239 
L 949.513125 353.2239 
" style="fill:none;stroke:#8085e9;stroke-linecap:square;"/>
   </g>
   <g id="line2d_12">
    <path clip-path="url(#pad50e79e6d)" d="M 76.613125 293.524581 
L 82.471514 352.998685 
L 88.329904 353.2239 
L 100.046682 353.2239 
L 176.205742 353.2239 
L 182.064132 353.067982 
L 187.922521 353.2239 
L 814.770172 353.179709 
L 820.628561 353.043675 
L 826.486951 353.2239 
L 832.34534 353.130031 
L 844.062118 353.2239 
L 849.920508 353.023938 
L 861.637286 353.2239 
L 896.787622 353.2239 
L 902.646011 353.099346 
L 908.5044 353.2239 
L 926.079568 353.2239 
L 931.937957 353.003293 
L 937.796346 353.2239 
L 949.513125 353.2239 
L 949.513125 353.2239 
" style="fill:none;stroke:#f15c80;stroke-linecap:square;"/>
   </g>
   <g id="line2d_13">
    <path clip-path="url(#pad50e79e6d)" d="M 76.613125 310.506235 
L 82.471514 353.2239 
L 949.513125 353.2239 
L 949.513125 353.2239 
" style="fill:none;stroke:#e4d354;stroke-linecap:square;"/>
   </g>
   <g id="line2d_14">
    <path clip-path="url(#pad50e79e6d)" d="M 76.613125 304.765958 
L 82.471514 352.729431 
L 88.329904 353.2239 
L 94.188293 352.729431 
L 100.046682 353.2239 
L 949.513125 353.2239 
L 949.513125 353.2239 
" style="fill:none;stroke:#2b908f;stroke-linecap:square;"/>
   </g>
   <g id="line2d_15">
    <path clip-path="url(#pad50e79e6d)" d="M 76.613125 295.513853 
L 82.471514 353.002364 
L 88.329904 353.2239 
L 94.188293 353.113132 
L 105.905071 353.2239 
L 170.347353 353.2239 
L 803.053393 353.2239 
L 808.911783 353.014322 
L 814.770172 353.2239 
L 820.628561 352.900297 
L 826.486951 353.2239 
L 849.920508 353.187693 
L 896.787622 353.2239 
L 914.362789 353.2239 
L 926.079568 353.2239 
L 931.937957 353.058301 
L 937.796346 353.2239 
L 949.513125 353.2239 
L 949.513125 353.2239 
" style="fill:none;stroke:#f45b5b;stroke-linecap:square;"/>
   </g>
   <g id="line2d_16">
    <path clip-path="url(#pad50e79e6d)" d="M 76.613125 300.962934 
L 82.471514 353.038796 
L 88.329904 353.2239 
L 94.188293 353.162199 
L 105.905071 353.2239 
L 111.763461 353.162199 
L 123.480239 353.2239 
L 176.205742 353.2239 
L 182.064132 353.038796 
L 187.922521 353.2239 
L 803.053393 353.2239 
L 808.911783 352.789369 
L 814.770172 353.2239 
L 820.628561 352.566399 
L 826.486951 353.2239 
L 926.079568 353.2239 
L 931.937957 352.78963 
L 937.796346 353.2239 
L 949.513125 353.2239 
L 949.513125 353.2239 
" style="fill:none;stroke:#91e8e1;stroke-linecap:square;"/>
   </g>
   <g id="line2d_17">
    <path clip-path="url(#pad50e79e6d)" d="M 76.613125 296.056624 
L 82.471514 353.074768 
L 88.329904 353.2239 
L 94.188293 353.099623 
L 100.046682 353.2239 
L 762.044669 353.2239 
L 767.903058 353.055023 
L 773.761447 353.2239 
L 803.053393 353.2239 
L 808.911783 352.968691 
L 814.770172 353.2239 
L 820.628561 352.825677 
L 826.486951 353.2239 
L 926.079568 353.2239 
L 931.937957 353.010021 
L 937.796346 353.2239 
L 949.513125 353.2239 
L 949.513125 353.2239 
" style="fill:none;stroke:#7cb5ec;stroke-linecap:square;"/>
   </g>
   <g id="line2d_18">
    <path clip-path="url(#pad50e79e6d)" d="M 76.613125 300.138125 
L 82.471514 352.963676 
L 88.329904 353.2239 
L 949.513125 353.2239 
L 949.513125 353.2239 
" style="fill:none;stroke:#434348;stroke-linecap:square;"/>
   </g>
   <g id="line2d_19">
    <path clip-path="url(#pad50e79e6d)" d="M 76.613125 293.812215 
L 82.471514 352.967434 
L 88.329904 353.2239 
L 94.188293 353.108932 
L 100.046682 353.2239 
L 287.515138 353.2239 
L 293.373528 353.090842 
L 299.231917 353.2239 
L 803.053393 353.2239 
L 808.911783 353.012304 
L 814.770172 353.2239 
L 820.628561 352.96044 
L 826.486951 353.2239 
L 838.203729 353.2239 
L 949.513125 353.2239 
L 949.513125 353.2239 
" style="fill:none;stroke:#90ed7d;stroke-linecap:square;"/>
   </g>
   <g id="line2d_20">
    <path clip-path="url(#pad50e79e6d)" d="M 76.613125 292.544668 
L 82.471514 353.03651 
L 88.329904 353.220397 
L 94.188293 353.07679 
L 100.046682 353.2239 
L 176.205742 353.2239 
L 182.064132 353.090801 
L 187.922521 353.2239 
L 252.364803 353.2239 
L 258.223192 353.090801 
L 269.939971 353.2239 
L 287.515138 353.2239 
L 293.373528 353.111458 
L 299.231917 353.2239 
L 762.044669 353.2239 
L 767.903058 353.100078 
L 773.761447 353.2239 
L 803.053393 353.2239 
L 808.911783 353.031514 
L 814.770172 353.2239 
L 820.628561 352.91982 
L 826.486951 353.2239 
L 873.354065 353.2239 
L 926.079568 353.2239 
L 931.937957 353.053275 
L 937.796346 353.2239 
L 949.513125 353.2239 
L 949.513125 353.2239 
" style="fill:none;stroke:#f7a35c;stroke-linecap:square;"/>
   </g>
   <g id="line2d_21">
    <path clip-path="url(#pad50e79e6d)" d="M 76.613125 293.496918 
L 82.471514 352.972946 
L 88.329904 353.196016 
L 762.044669 353.2239 
L 767.903058 352.94066 
L 773.761447 353.2239 
L 803.053393 353.2239 
L 808.911783 352.838978 
L 814.770172 353.2239 
L 820.628561 352.757442 
L 826.486951 353.2239 
L 832.34534 353.154651 
L 844.062118 353.2239 
L 849.920508 353.15025 
L 861.637286 353.2239 
L 926.079568 353.2239 
L 931.937957 352.90121 
L 937.796346 353.2239 
L 949.513125 353.2239 
L 949.513125 353.2239 
" style="fill:none;stroke:#8085e9;stroke-linecap:square;"/>
   </g>
   <g id="line2d_22">
    <path clip-path="url(#pad50e79e6d)" d="M 76.613125 295.838116 
L 82.471514 353.051484 
L 88.329904 353.2239 
L 94.188293 353.051484 
L 100.046682 353.2239 
L 146.913796 353.2239 
L 152.772185 353.08022 
L 158.630575 353.2239 
L 949.513125 353.2239 
L 949.513125 353.2239 
" style="fill:none;stroke:#f15c80;stroke-linecap:square;"/>
   </g>
   <g id="line2d_23">
    <path clip-path="url(#pad50e79e6d)" d="M 76.613125 293.130047 
L 82.471514 353.020766 
L 88.329904 353.221477 
L 94.188293 353.093458 
L 100.046682 353.2239 
L 803.053393 353.2239 
L 808.911783 353.021747 
L 814.770172 353.221755 
L 820.628561 352.90182 
L 826.486951 353.2239 
L 855.778897 353.208272 
L 949.513125 353.2239 
L 949.513125 353.2239 
" style="fill:none;stroke:#e4d354;stroke-linecap:square;"/>
   </g>
   <g id="line2d_24">
    <path clip-path="url(#pad50e79e6d)" d="M 76.613125 295.156584 
L 82.471514 352.997106 
L 88.329904 353.21985 
L 94.188293 353.122653 
L 105.905071 353.2239 
L 182.064132 353.130753 
L 193.78091 353.2239 
L 762.044669 353.2239 
L 767.903058 353.110407 
L 773.761447 353.2239 
L 803.053393 353.2239 
L 808.911783 353.018698 
L 814.770172 353.2239 
L 820.628561 352.891991 
L 826.486951 353.2239 
L 867.495675 353.2239 
L 926.079568 353.2239 
L 931.937957 353.112116 
L 937.796346 353.2239 
L 949.513125 353.2239 
L 949.513125 353.2239 
" style="fill:none;stroke:#2b908f;stroke-linecap:square;"/>
   </g>
   <g id="line2d_25">
    <path clip-path="url(#pad50e79e6d)" d="M 76.613125 291.88959 
L 82.471514 353.061771 
L 88.329904 353.2239 
L 94.188293 353.082918 
L 100.046682 353.2239 
L 287.515138 353.2239 
L 293.373528 353.082021 
L 299.231917 353.2239 
L 803.053393 353.2239 
L 808.911783 353.064463 
L 814.770172 353.2239 
L 820.628561 352.948 
L 826.486951 353.2239 
L 861.637286 353.202709 
L 896.787622 353.2239 
L 949.513125 353.2239 
L 949.513125 353.2239 
" style="fill:none;stroke:#f45b5b;stroke-linecap:square;"/>
   </g>
   <g id="line2d_26">
    <path clip-path="url(#pad50e79e6d)" d="M 76.613125 300.668432 
L 82.471514 353.072879 
L 88.329904 353.2239 
L 94.188293 353.072879 
L 100.046682 353.2239 
L 146.913796 353.2239 
L 152.772185 353.072879 
L 158.630575 353.2239 
L 855.778897 353.2239 
L 861.637286 352.945822 
L 867.495675 353.2239 
L 949.513125 353.2239 
L 949.513125 353.2239 
" style="fill:none;stroke:#91e8e1;stroke-linecap:square;"/>
   </g>
   <g id="line2d_27">
    <path clip-path="url(#pad50e79e6d)" d="M 76.613125 292.799423 
L 82.471514 352.96966 
L 88.329904 353.216196 
L 94.188293 353.139153 
L 105.905071 353.2239 
L 187.922521 353.2239 
L 252.364803 353.2239 
L 258.223192 353.108336 
L 269.939971 353.2239 
L 803.053393 353.2239 
L 808.911783 353.10421 
L 814.770172 353.2239 
L 820.628561 353.028867 
L 826.486951 353.2239 
L 849.920508 353.087114 
L 855.778897 353.203957 
L 879.212454 353.2239 
L 949.513125 353.2239 
L 949.513125 353.2239 
" style="fill:none;stroke:#7cb5ec;stroke-linecap:square;"/>
   </g>
   <g id="line2d_28">
    <path clip-path="url(#pad50e79e6d)" d="M 76.613125 292.623524 
L 82.471514 352.980623 
L 88.329904 353.219436 
L 94.188293 353.10561 
L 100.046682 353.2239 
L 803.053393 353.2239 
L 808.911783 353.034502 
L 814.770172 353.2239 
L 820.628561 352.926639 
L 826.486951 353.2239 
L 861.637286 353.217817 
L 926.079568 353.2239 
L 931.937957 353.073458 
L 937.796346 353.2239 
L 949.513125 353.2239 
L 949.513125 353.2239 
" style="fill:none;stroke:#434348;stroke-linecap:square;"/>
   </g>
   <g id="line2d_29">
    <path clip-path="url(#pad50e79e6d)" d="M 76.613125 293.491195 
L 82.471514 353.030778 
L 88.329904 353.2239 
L 94.188293 353.165963 
L 105.905071 353.2239 
L 135.197018 353.2239 
L 762.044669 353.2239 
L 767.903058 353.079406 
L 773.761447 353.2239 
L 803.053393 353.2239 
L 808.911783 353.05557 
L 814.770172 353.2239 
L 820.628561 352.989101 
L 826.486951 353.2239 
L 949.513125 353.2239 
L 949.513125 353.2239 
" style="fill:none;stroke:#90ed7d;stroke-linecap:square;"/>
   </g>
   <g id="line2d_30">
    <path clip-path="url(#pad50e79e6d)" d="M 76.613125 293.400701 
L 82.471514 352.950839 
L 88.329904 353.218843 
L 94.188293 353.102539 
L 100.046682 353.2239 
L 176.205742 353.2239 
L 182.064132 353.110125 
L 187.922521 353.2239 
L 803.053393 353.2239 
L 808.911783 353.037511 
L 814.770172 353.219045 
L 820.628561 352.927882 
L 826.486951 353.2239 
L 949.513125 353.2239 
L 949.513125 353.2239 
" style="fill:none;stroke:#f7a35c;stroke-linecap:square;"/>
   </g>
   <g id="line2d_31">
    <path clip-path="url(#pad50e79e6d)" d="M 76.613125 293.186327 
L 82.471514 352.968042 
L 88.329904 353.220192 
L 94.188293 353.097825 
L 100.046682 353.2239 
L 803.053393 353.2239 
L 808.911783 353.072912 
L 814.770172 353.2239 
L 820.628561 352.94617 
L 826.486951 353.2239 
L 838.203729 353.2239 
L 949.513125 353.2239 
L 949.513125 353.2239 
" style="fill:none;stroke:#8085e9;stroke-linecap:square;"/>
   </g>
   <g id="line2d_32">
    <path clip-path="url(#pad50e79e6d)" d="M 76.613125 291.695057 
L 82.471514 352.981023 
L 88.329904 353.2239 
L 94.188293 353.008009 
L 100.046682 353.2239 
L 176.205742 353.2239 
L 182.064132 353.088968 
L 187.922521 353.2239 
L 803.053393 353.2239 
L 808.911783 353.046078 
L 814.770172 353.2239 
L 820.628561 353.036504 
L 826.486951 353.2239 
L 832.34534 353.125063 
L 844.062118 353.2239 
L 849.920508 353.116038 
L 861.637286 353.2239 
L 896.787622 353.2239 
L 902.646011 353.079693 
L 908.5044 353.2239 
L 926.079568 353.2239 
L 931.937957 353.045946 
L 937.796346 353.2239 
L 949.513125 353.2239 
L 949.513125 353.2239 
" style="fill:none;stroke:#f15c80;stroke-linecap:square;"/>
   </g>
   <g id="line2d_33">
    <path clip-path="url(#pad50e79e6d)" d="M 76.613125 293.541688 
L 82.471514 352.950619 
L 88.329904 353.2239 
L 94.188293 353.069437 
L 100.046682 353.2239 
L 814.770172 353.2239 
L 820.628561 352.967049 
L 826.486951 353.2239 
L 949.513125 353.2239 
L 949.513125 353.2239 
" style="fill:none;stroke:#e4d354;stroke-linecap:square;"/>
   </g>
   <g id="line2d_34">
    <path clip-path="url(#pad50e79e6d)" d="M 76.613125 295.167013 
L 82.471514 353.044602 
L 88.329904 353.2239 
L 94.188293 353.116321 
L 105.905071 353.2239 
L 123.480239 353.2239 
L 146.913796 353.18804 
L 152.772185 353.008742 
L 158.630575 353.2239 
L 176.205742 353.2239 
L 182.064132 353.080461 
L 187.922521 353.2239 
L 814.770172 353.2239 
L 820.628561 352.893818 
L 826.486951 353.2239 
L 832.34534 353.108279 
L 838.203729 353.2239 
L 844.062118 353.2239 
L 849.920508 353.099385 
L 855.778897 353.2239 
L 926.079568 353.2239 
L 931.937957 353.030388 
L 937.796346 353.2239 
L 949.513125 353.2239 
L 949.513125 353.2239 
" style="fill:none;stroke:#2b908f;stroke-linecap:square;"/>
   </g>
   <g id="line2d_35">
    <path clip-path="url(#pad50e79e6d)" d="M 76.613125 291.315594 
L 82.471514 352.949006 
L 88.329904 353.2239 
L 94.188293 353.074999 
L 100.046682 353.2239 
L 146.913796 353.200992 
L 152.772185 353.086453 
L 158.630575 353.2239 
L 287.515138 353.2239 
L 293.373528 353.085783 
L 299.231917 353.2239 
L 762.044669 353.2239 
L 767.903058 353.019062 
L 773.761447 353.2239 
L 803.053393 353.2239 
L 808.911783 352.928215 
L 814.770172 353.2239 
L 820.628561 352.703596 
L 826.486951 353.2239 
L 926.079568 353.2239 
L 931.937957 352.935062 
L 937.796346 353.2239 
L 949.513125 353.2239 
L 949.513125 353.2239 
" style="fill:none;stroke:#f45b5b;stroke-linecap:square;"/>
   </g>
   <g id="line2d_36">
    <path clip-path="url(#pad50e79e6d)" d="M 76.613125 291.777093 
L 82.471514 352.999846 
L 88.329904 353.2239 
L 94.188293 353.077198 
L 100.046682 353.2239 
L 146.913796 353.202562 
L 152.772185 353.095869 
L 158.630575 353.2239 
L 176.205742 353.2239 
L 182.064132 353.082533 
L 187.922521 353.2239 
L 252.364803 353.2239 
L 258.223192 353.087867 
L 264.081581 353.218565 
L 287.515138 353.2239 
L 293.373528 353.132789 
L 305.090306 353.2239 
L 762.044669 353.2239 
L 767.903058 353.085976 
L 773.761447 353.2239 
L 803.053393 353.2239 
L 808.911783 353.018993 
L 814.770172 353.2239 
L 820.628561 352.902132 
L 826.486951 353.2239 
L 926.079568 353.2239 
L 931.937957 353.102048 
L 937.796346 353.2239 
L 949.513125 353.2239 
L 949.513125 353.2239 
" style="fill:none;stroke:#91e8e1;stroke-linecap:square;"/>
   </g>
   <g id="line2d_37">
    <path clip-path="url(#pad50e79e6d)" d="M 76.613125 292.819646 
L 82.471514 352.999349 
L 88.329904 353.2239 
L 94.188293 353.074199 
L 100.046682 353.2239 
L 176.205742 353.2239 
L 182.064132 352.999349 
L 187.922521 353.2239 
L 252.364803 353.2239 
L 258.223192 353.074199 
L 264.081581 353.2239 
L 949.513125 353.2239 
L 949.513125 353.2239 
" style="fill:none;stroke:#7cb5ec;stroke-linecap:square;"/>
   </g>
   <g id="line2d_38">
    <path clip-path="url(#pad50e79e6d)" d="M 76.613125 292.665177 
L 82.471514 352.995664 
L 88.329904 353.2239 
L 94.188293 353.059063 
L 100.046682 353.2239 
L 176.205742 353.2239 
L 182.064132 353.109782 
L 187.922521 353.2239 
L 252.364803 353.2239 
L 258.223192 353.097102 
L 264.081581 353.2239 
L 762.044669 353.2239 
L 767.903058 352.98071 
L 773.761447 353.2239 
L 803.053393 353.2239 
L 808.911783 352.974834 
L 814.770172 353.2239 
L 820.628561 352.917161 
L 826.486951 353.2239 
L 926.079568 353.2239 
L 931.937957 353.054292 
L 937.796346 353.2239 
L 949.513125 353.2239 
L 949.513125 353.2239 
" style="fill:none;stroke:#434348;stroke-linecap:square;"/>
   </g>
   <g id="line2d_39">
    <path clip-path="url(#pad50e79e6d)" d="M 76.613125 294.966693 
L 82.471514 352.95444 
L 88.329904 353.2239 
L 100.046682 353.2239 
L 176.205742 353.2239 
L 182.064132 353.062224 
L 187.922521 353.2239 
L 949.513125 353.2239 
L 949.513125 353.2239 
" style="fill:none;stroke:#90ed7d;stroke-linecap:square;"/>
   </g>
   <g id="line2d_40">
    <path clip-path="url(#pad50e79e6d)" d="M 76.613125 292.534238 
L 82.471514 353.012102 
L 88.329904 353.2239 
L 94.188293 353.08912 
L 100.046682 353.2239 
L 803.053393 353.2239 
L 808.911783 353.087969 
L 814.770172 353.2239 
L 820.628561 352.99754 
L 826.486951 353.2239 
L 849.920508 353.192412 
L 873.354065 353.2239 
L 949.513125 353.2239 
L 949.513125 353.2239 
" style="fill:none;stroke:#f7a35c;stroke-linecap:square;"/>
   </g>
   <g id="line2d_41">
    <path clip-path="url(#pad50e79e6d)" d="M 76.613125 293.299333 
L 82.471514 353.2239 
L 105.905071 353.2239 
L 111.763461 352.17259 
L 117.62185 353.2239 
L 949.513125 353.2239 
L 949.513125 353.2239 
" style="fill:none;stroke:#8085e9;stroke-linecap:square;"/>
   </g>
   <g id="line2d_42">
    <path clip-path="url(#pad50e79e6d)" d="M 76.613125 293.287568 
L 82.471514 353.058747 
L 88.329904 353.216719 
L 94.188293 353.09465 
L 100.046682 353.2239 
L 803.053393 353.2239 
L 808.911783 353.003357 
L 814.770172 353.2239 
L 820.628561 352.90923 
L 826.486951 353.2239 
L 832.34534 353.135975 
L 844.062118 353.2239 
L 849.920508 353.129269 
L 861.637286 353.2239 
L 926.079568 353.2239 
L 931.937957 353.039667 
L 937.796346 353.2239 
L 949.513125 353.2239 
L 949.513125 353.2239 
" style="fill:none;stroke:#f15c80;stroke-linecap:square;"/>
   </g>
   <g id="line2d_43">
    <path clip-path="url(#pad50e79e6d)" d="M 76.613125 294.575084 
L 82.471514 353.067743 
L 88.329904 353.2239 
L 94.188293 353.091767 
L 100.046682 353.2239 
L 176.205742 353.2239 
L 182.064132 353.079756 
L 187.922521 353.2239 
L 803.053393 353.2239 
L 808.911783 353.101284 
L 814.770172 353.2239 
L 820.628561 353.00091 
L 826.486951 353.2239 
L 949.513125 353.2239 
L 949.513125 353.2239 
" style="fill:none;stroke:#e4d354;stroke-linecap:square;"/>
   </g>
   <g id="line2d_44">
    <path clip-path="url(#pad50e79e6d)" d="M 76.613125 309.462282 
L 82.471514 353.2239 
L 949.513125 353.2239 
L 949.513125 353.2239 
" style="fill:none;stroke:#2b908f;stroke-linecap:square;"/>
   </g>
   <g id="line2d_45">
    <path clip-path="url(#pad50e79e6d)" d="M 76.613125 294.321155 
L 82.471514 352.903777 
L 88.329904 353.2239 
L 94.188293 352.797069 
L 100.046682 353.2239 
L 814.770172 353.2239 
L 820.628561 352.854556 
L 826.486951 353.2239 
L 949.513125 353.2239 
L 949.513125 353.2239 
" style="fill:none;stroke:#f45b5b;stroke-linecap:square;"/>
   </g>
   <g id="line2d_46">
    <path clip-path="url(#pad50e79e6d)" d="M 76.613125 299.259452 
L 82.471514 352.879079 
L 88.329904 353.2239 
L 94.188293 353.137695 
L 105.905071 353.2239 
L 287.515138 353.2239 
L 293.373528 353.050554 
L 299.231917 353.2239 
L 527.709098 353.2239 
L 533.567487 352.999299 
L 539.425877 353.2239 
L 545.284266 353.109073 
L 551.142655 353.2239 
L 562.859434 353.2239 
L 568.717823 353.10359 
L 574.576212 353.2239 
L 609.726548 353.2239 
L 615.584937 353.090993 
L 621.443326 353.2239 
L 803.053393 353.2239 
L 808.911783 352.999734 
L 814.770172 353.2239 
L 820.628561 352.991076 
L 826.486951 353.2239 
L 855.778897 353.2239 
L 861.637286 352.955267 
L 867.495675 353.2239 
L 926.079568 353.2239 
L 931.937957 352.851158 
L 937.796346 353.2239 
L 949.513125 353.2239 
L 949.513125 353.2239 
" style="fill:none;stroke:#91e8e1;stroke-linecap:square;"/>
   </g>
   <g id="line2d_47">
    <path clip-path="url(#pad50e79e6d)" d="M 76.613125 294.742907 
L 82.471514 353.110345 
L 88.329904 353.2239 
L 94.188293 353.072493 
L 100.046682 353.2239 
L 205.497689 353.2239 
L 211.356078 353.110345 
L 217.214467 353.2239 
L 252.364803 353.2239 
L 258.223192 353.110345 
L 264.081581 353.2239 
L 949.513125 353.2239 
L 949.513125 353.2239 
" style="fill:none;stroke:#7cb5ec;stroke-linecap:square;"/>
   </g>
   <g id="line2d_48">
    <path clip-path="url(#pad50e79e6d)" d="M 76.613125 293.637651 
L 82.471514 352.906107 
L 88.329904 353.2239 
L 111.763461 353.2239 
L 146.913796 353.197417 
L 152.772185 353.091486 
L 158.630575 353.2239 
L 592.15138 353.2239 
L 598.009769 353.094112 
L 609.726548 353.2239 
L 762.044669 353.2239 
L 767.903058 353.050847 
L 773.761447 353.2239 
L 803.053393 353.2239 
L 808.911783 352.901809 
L 814.770172 353.2239 
L 820.628561 352.879829 
L 826.486951 353.2239 
L 849.920508 353.2239 
L 855.778897 353.082549 
L 861.637286 353.2239 
L 926.079568 353.2239 
L 931.937957 352.979441 
L 937.796346 353.2239 
L 949.513125 353.2239 
L 949.513125 353.2239 
" style="fill:none;stroke:#434348;stroke-linecap:square;"/>
   </g>
   <g id="line2d_49">
    <path clip-path="url(#pad50e79e6d)" d="M 76.613125 295.093817 
L 82.471514 353.050894 
L 88.329904 353.2239 
L 94.188293 353.050894 
L 100.046682 353.2239 
L 176.205742 353.2239 
L 182.064132 353.050894 
L 187.922521 353.2239 
L 205.497689 353.2239 
L 211.356078 353.050894 
L 217.214467 353.2239 
L 223.072857 353.050894 
L 228.931246 353.2239 
L 252.364803 353.2239 
L 258.223192 352.877888 
L 264.081581 353.2239 
L 949.513125 353.2239 
L 949.513125 353.2239 
" style="fill:none;stroke:#90ed7d;stroke-linecap:square;"/>
   </g>
   <g id="line2d_50">
    <path clip-path="url(#pad50e79e6d)" d="M 76.613125 307.680898 
L 82.471514 353.2239 
L 949.513125 353.2239 
L 949.513125 353.2239 
" style="fill:none;stroke:#f7a35c;stroke-linecap:square;"/>
   </g>
   <g id="line2d_51">
    <path clip-path="url(#pad50e79e6d)" d="M 76.613125 298.427457 
L 82.471514 353.2239 
L 88.329904 353.2239 
L 94.188293 352.799121 
L 100.046682 353.2239 
L 949.513125 353.2239 
L 949.513125 353.2239 
" style="fill:none;stroke:#8085e9;stroke-linecap:square;"/>
   </g>
   <g id="line2d_52">
    <path clip-path="url(#pad50e79e6d)" d="M 76.613125 303.428458 
L 82.471514 353.2239 
L 252.364803 353.2239 
L 258.223192 351.617596 
L 264.081581 353.2239 
L 949.513125 353.2239 
L 949.513125 353.2239 
" style="fill:none;stroke:#f15c80;stroke-linecap:square;"/>
   </g>
   <g id="line2d_53">
    <path clip-path="url(#pad50e79e6d)" d="M 76.613125 296.088166 
L 82.471514 353.046322 
L 88.329904 353.2239 
L 94.188293 353.046322 
L 100.046682 353.2239 
L 176.205742 353.2239 
L 182.064132 353.024125 
L 187.922521 353.2239 
L 814.770172 353.2239 
L 820.628561 352.91034 
L 826.486951 353.2239 
L 949.513125 353.2239 
L 949.513125 353.2239 
" style="fill:none;stroke:#e4d354;stroke-linecap:square;"/>
   </g>
   <g id="line2d_54">
    <path clip-path="url(#pad50e79e6d)" d="M 76.613125 295.47328 
L 82.471514 353.050132 
L 88.329904 353.2239 
L 94.188293 353.115295 
L 105.905071 353.2239 
L 223.072857 353.202179 
L 252.364803 353.2239 
L 258.223192 353.164167 
L 275.79836 353.2239 
L 287.515138 353.2239 
L 293.373528 353.081852 
L 299.231917 353.2239 
L 803.053393 353.2239 
L 808.911783 353.029492 
L 814.770172 353.2239 
L 820.628561 352.878421 
L 826.486951 353.2239 
L 867.495675 353.2239 
L 949.513125 353.2239 
L 949.513125 353.2239 
" style="fill:none;stroke:#2b908f;stroke-linecap:square;"/>
   </g>
   <g id="line2d_55">
    <path clip-path="url(#pad50e79e6d)" d="M 76.613125 293.893742 
L 82.471514 352.243236 
L 88.329904 353.2239 
L 141.055407 353.2239 
L 146.913796 352.978734 
L 152.772185 353.2239 
L 217.214467 353.2239 
L 223.072857 352.978734 
L 228.931246 353.2239 
L 949.513125 353.2239 
L 949.513125 353.2239 
" style="fill:none;stroke:#f45b5b;stroke-linecap:square;"/>
   </g>
   <g id="line2d_56">
    <path clip-path="url(#pad50e79e6d)" d="M 76.613125 296.209122 
L 82.471514 353.093729 
L 88.329904 353.2239 
L 94.188293 353.158814 
L 105.905071 353.2239 
L 146.913796 353.2239 
L 152.772185 352.963559 
L 158.630575 353.2239 
L 803.053393 353.2239 
L 808.911783 353.051979 
L 814.770172 353.2239 
L 820.628561 353.044904 
L 826.486951 353.2239 
L 926.079568 353.2239 
L 931.937957 352.93232 
L 937.796346 353.2239 
L 949.513125 353.2239 
L 949.513125 353.2239 
" style="fill:none;stroke:#91e8e1;stroke-linecap:square;"/>
   </g>
   <g id="line2d_57">
    <path clip-path="url(#pad50e79e6d)" d="M 76.613125 295.410386 
L 82.471514 352.942797 
L 88.329904 353.2239 
L 94.188293 353.067732 
L 100.046682 353.2239 
L 146.913796 353.2239 
L 152.772185 353.036498 
L 158.630575 353.2239 
L 287.515138 353.2239 
L 293.373528 353.097972 
L 299.231917 353.2239 
L 762.044669 353.2239 
L 767.903058 352.99862 
L 773.761447 353.2239 
L 803.053393 353.2239 
L 808.911783 352.880578 
L 814.770172 353.2239 
L 820.628561 352.866261 
L 826.486951 353.2239 
L 926.079568 353.2239 
L 931.937957 352.926768 
L 937.796346 353.2239 
L 949.513125 353.2239 
L 949.513125 353.2239 
" style="fill:none;stroke:#7cb5ec;stroke-linecap:square;"/>
   </g>
   <g id="line2d_58">
    <path clip-path="url(#pad50e79e6d)" d="M 76.613125 297.073041 
L 82.471514 352.92434 
L 88.329904 353.2239 
L 94.188293 353.124047 
L 105.905071 353.2239 
L 287.515138 353.2239 
L 293.373528 353.022841 
L 299.231917 353.2239 
L 803.053393 353.2239 
L 808.911783 353.044409 
L 814.770172 353.2239 
L 820.628561 353.036797 
L 826.486951 353.2239 
L 896.787622 353.2239 
L 902.646011 353.093043 
L 908.5044 353.2239 
L 926.079568 353.2239 
L 931.937957 353.068884 
L 937.796346 353.2239 
L 949.513125 353.2239 
L 949.513125 353.2239 
" style="fill:none;stroke:#434348;stroke-linecap:square;"/>
   </g>
   <g id="line2d_59">
    <path clip-path="url(#pad50e79e6d)" d="M 76.613125 292.878216 
L 82.471514 353.135546 
L 94.188293 353.2239 
L 146.913796 353.2239 
L 152.772185 352.870484 
L 158.630575 353.2239 
L 205.497689 353.2239 
L 211.356078 353.047192 
L 217.214467 353.2239 
L 287.515138 353.2239 
L 293.373528 353.046205 
L 299.231917 353.2239 
L 762.044669 353.2239 
L 767.903058 352.900893 
L 773.761447 353.2239 
L 803.053393 353.2239 
L 808.911783 352.44126 
L 814.770172 353.2239 
L 820.628561 352.394614 
L 826.486951 353.2239 
L 949.513125 353.2239 
L 949.513125 353.2239 
" style="fill:none;stroke:#90ed7d;stroke-linecap:square;"/>
   </g>
   <g id="line2d_60">
    <path clip-path="url(#pad50e79e6d)" d="M 76.613125 293.651768 
L 82.471514 353.092394 
L 88.329904 353.2239 
L 105.905071 353.2239 
L 111.763461 353.092394 
L 117.62185 353.2239 
L 949.513125 353.2239 
L 949.513125 353.2239 
" style="fill:none;stroke:#f7a35c;stroke-linecap:square;"/>
   </g>
   <g id="line2d_61">
    <path clip-path="url(#pad50e79e6d)" d="M 76.613125 294.022646 
L 82.471514 353.2239 
L 949.513125 353.2239 
L 949.513125 353.2239 
" style="fill:none;stroke:#8085e9;stroke-linecap:square;"/>
   </g>
   <g id="line2d_62">
    <path clip-path="url(#pad50e79e6d)" d="M 76.613125 299.222949 
L 82.471514 352.975256 
L 88.329904 353.2239 
L 94.188293 353.11088 
L 100.046682 353.2239 
L 252.364803 353.2239 
L 258.223192 353.11088 
L 264.081581 353.2239 
L 814.770172 353.2239 
L 820.628561 352.995486 
L 826.486951 353.2239 
L 926.079568 353.2239 
L 931.937957 353.084589 
L 937.796346 353.2239 
L 949.513125 353.2239 
L 949.513125 353.2239 
" style="fill:none;stroke:#f15c80;stroke-linecap:square;"/>
   </g>
   <g id="line2d_63">
    <path clip-path="url(#pad50e79e6d)" d="M 76.613125 299.473317 
L 82.471514 353.161254 
L 88.329904 353.2239 
L 94.188293 353.161254 
L 105.905071 353.2239 
L 803.053393 353.2239 
L 808.911783 352.968541 
L 814.770172 353.2239 
L 820.628561 352.859884 
L 826.486951 353.2239 
L 926.079568 353.2239 
L 931.937957 353.024249 
L 937.796346 353.2239 
L 949.513125 353.2239 
L 949.513125 353.2239 
" style="fill:none;stroke:#e4d354;stroke-linecap:square;"/>
   </g>
   <g id="line2d_64">
    <path clip-path="url(#pad50e79e6d)" d="M 76.613125 301.830669 
L 82.471514 352.951798 
L 88.329904 353.2239 
L 94.188293 353.053836 
L 100.046682 353.2239 
L 252.364803 353.2239 
L 258.223192 353.087849 
L 264.081581 353.2239 
L 803.053393 353.2239 
L 808.911783 352.900015 
L 814.770172 353.2239 
L 820.628561 352.755153 
L 826.486951 353.2239 
L 926.079568 353.2239 
L 931.937957 353.020137 
L 937.796346 353.2239 
L 949.513125 353.2239 
L 949.513125 353.2239 
" style="fill:none;stroke:#2b908f;stroke-linecap:square;"/>
   </g>
   <g id="line2d_65">
    <path clip-path="url(#pad50e79e6d)" d="M 76.613125 298.993631 
L 82.471514 352.993199 
L 88.329904 353.220023 
L 94.188293 353.086255 
L 100.046682 353.2239 
L 803.053393 353.2239 
L 808.911783 353.023641 
L 814.770172 353.2239 
L 820.628561 352.913762 
L 826.486951 353.2239 
L 920.221179 353.2239 
L 926.079568 353.2239 
L 931.937957 353.048842 
L 937.796346 353.2239 
L 949.513125 353.2239 
L 949.513125 353.2239 
" style="fill:none;stroke:#f45b5b;stroke-linecap:square;"/>
   </g>
   <g id="line2d_66">
    <path clip-path="url(#pad50e79e6d)" d="M 76.613125 300.71511 
L 82.471514 352.976853 
L 88.329904 353.2239 
L 94.188293 353.02177 
L 100.046682 353.2239 
L 814.770172 353.191697 
L 820.628561 352.996759 
L 826.486951 353.2239 
L 949.513125 353.2239 
L 949.513125 353.2239 
" style="fill:none;stroke:#91e8e1;stroke-linecap:square;"/>
   </g>
   <g id="line2d_67">
    <path clip-path="url(#pad50e79e6d)" d="M 76.613125 297.971618 
L 82.471514 352.827826 
L 88.329904 353.2239 
L 94.188293 353.124882 
L 105.905071 353.2239 
L 803.053393 353.2239 
L 808.911783 353.111063 
L 814.770172 353.2239 
L 820.628561 352.994442 
L 826.486951 353.2239 
L 949.513125 353.2239 
L 949.513125 353.2239 
" style="fill:none;stroke:#7cb5ec;stroke-linecap:square;"/>
   </g>
   <g id="line2d_68">
    <path clip-path="url(#pad50e79e6d)" d="M 76.613125 302.185902 
L 82.471514 353.048412 
L 88.329904 353.2239 
L 176.205742 353.2239 
L 182.064132 353.019163 
L 187.922521 353.2239 
L 252.364803 353.2239 
L 258.223192 353.048412 
L 264.081581 353.2239 
L 803.053393 353.2239 
L 808.911783 352.947187 
L 814.770172 353.2239 
L 820.628561 352.884451 
L 826.486951 353.2239 
L 832.34534 353.166058 
L 844.062118 353.2239 
L 849.920508 353.164011 
L 861.637286 353.2239 
L 926.079568 353.2239 
L 931.937957 353.073199 
L 937.796346 353.2239 
L 949.513125 353.2239 
L 949.513125 353.2239 
" style="fill:none;stroke:#434348;stroke-linecap:square;"/>
   </g>
   <g id="line2d_69">
    <path clip-path="url(#pad50e79e6d)" d="M 76.613125 300.565983 
L 82.471514 353.015501 
L 88.329904 353.216457 
L 94.188293 353.03783 
L 100.046682 353.2239 
L 803.053393 353.2239 
L 808.911783 353.083023 
L 814.770172 353.2239 
L 820.628561 352.97441 
L 826.486951 353.2239 
L 849.920508 353.167871 
L 867.495675 353.2239 
L 949.513125 353.2239 
L 949.513125 353.2239 
" style="fill:none;stroke:#90ed7d;stroke-linecap:square;"/>
   </g>
   <g id="line2d_70">
    <path clip-path="url(#pad50e79e6d)" d="M 76.613125 301.812735 
L 82.471514 353.040382 
L 88.329904 353.2239 
L 94.188293 353.145249 
L 105.905071 353.2239 
L 252.364803 353.2239 
L 258.223192 353.092816 
L 264.081581 353.2239 
L 803.053393 353.2239 
L 808.911783 353.105035 
L 814.770172 353.2239 
L 820.628561 352.981663 
L 826.486951 353.2239 
L 949.513125 353.2239 
L 949.513125 353.2239 
" style="fill:none;stroke:#f7a35c;stroke-linecap:square;"/>
   </g>
   <g id="line2d_71">
    <path clip-path="url(#pad50e79e6d)" d="M 76.613125 296.478186 
L 82.471514 353.075351 
L 88.329904 353.2239 
L 94.188293 353.117793 
L 105.905071 353.2239 
L 762.044669 353.2239 
L 767.903058 352.891213 
L 773.761447 353.2239 
L 803.053393 353.2239 
L 808.911783 352.816371 
L 814.770172 353.2239 
L 820.628561 352.502043 
L 826.486951 353.2239 
L 926.079568 353.2239 
L 931.937957 352.930504 
L 937.796346 353.2239 
L 949.513125 353.2239 
L 949.513125 353.2239 
" style="fill:none;stroke:#8085e9;stroke-linecap:square;"/>
   </g>
   <g id="line2d_72">
    <path clip-path="url(#pad50e79e6d)" d="M 76.613125 301.137943 
L 82.471514 352.856627 
L 88.329904 353.2239 
L 94.188293 352.990181 
L 100.046682 353.2239 
L 287.515138 353.2239 
L 293.373528 353.088993 
L 299.231917 353.2239 
L 762.044669 353.2239 
L 767.903058 353.099854 
L 773.761447 353.2239 
L 803.053393 353.2239 
L 808.911783 352.888519 
L 814.770172 353.2239 
L 820.628561 352.67446 
L 826.486951 353.2239 
L 926.079568 353.2239 
L 931.937957 353.037981 
L 937.796346 353.2239 
L 949.513125 353.2239 
L 949.513125 353.2239 
" style="fill:none;stroke:#f15c80;stroke-linecap:square;"/>
   </g>
   <g id="line2d_73">
    <path clip-path="url(#pad50e79e6d)" d="M 76.613125 296.552336 
L 82.471514 352.975461 
L 88.329904 353.2239 
L 94.188293 353.113483 
L 105.905071 353.2239 
L 182.064132 353.122684 
L 193.78091 353.2239 
L 803.053393 353.2239 
L 808.911783 353.076992 
L 814.770172 353.2239 
L 820.628561 352.958127 
L 826.486951 353.2239 
L 838.203729 353.2239 
L 949.513125 353.2239 
L 949.513125 353.2239 
" style="fill:none;stroke:#e4d354;stroke-linecap:square;"/>
   </g>
   <g id="line2d_74">
    <path clip-path="url(#pad50e79e6d)" d="M 76.613125 296.674118 
L 82.471514 353.032299 
L 88.329904 353.2239 
L 94.188293 353.114413 
L 105.905071 353.2239 
L 762.044669 353.2239 
L 767.903058 353.087932 
L 773.761447 353.2239 
L 803.053393 353.2239 
L 808.911783 353.025757 
L 814.770172 353.2239 
L 820.628561 352.868109 
L 826.486951 353.2239 
L 896.787622 353.2239 
L 902.646011 353.036726 
L 908.5044 353.2239 
L 926.079568 353.2239 
L 931.937957 353.01424 
L 937.796346 353.2239 
L 949.513125 353.2239 
L 949.513125 353.2239 
" style="fill:none;stroke:#2b908f;stroke-linecap:square;"/>
   </g>
   <g id="line2d_75">
    <path clip-path="url(#pad50e79e6d)" d="M 76.613125 295.179859 
L 82.471514 352.984048 
L 88.329904 353.2239 
L 94.188293 353.112749 
L 100.046682 353.2239 
L 176.205742 353.2239 
L 182.064132 353.101049 
L 187.922521 353.2239 
L 803.053393 353.2239 
L 808.911783 353.066706 
L 814.770172 353.2239 
L 820.628561 352.984067 
L 826.486951 353.2239 
L 861.637286 353.201237 
L 890.929232 353.2239 
L 949.513125 353.2239 
L 949.513125 353.2239 
" style="fill:none;stroke:#f45b5b;stroke-linecap:square;"/>
   </g>
   <g id="line2d_76">
    <path clip-path="url(#pad50e79e6d)" d="M 76.613125 298.206024 
L 82.471514 352.916966 
L 88.329904 353.2239 
L 176.205742 353.2239 
L 182.064132 353.070433 
L 187.922521 353.2239 
L 252.364803 353.2239 
L 258.223192 353.070433 
L 264.081581 353.2239 
L 715.177555 353.2239 
L 721.035944 353.032359 
L 726.894333 353.2239 
L 762.044669 353.2239 
L 767.903058 353.021363 
L 773.761447 353.2239 
L 803.053393 353.2239 
L 808.911783 352.794844 
L 814.770172 353.2239 
L 820.628561 352.787363 
L 826.486951 353.2239 
L 926.079568 353.2239 
L 931.937957 352.802416 
L 937.796346 353.2239 
L 949.513125 353.2239 
L 949.513125 353.2239 
" style="fill:none;stroke:#91e8e1;stroke-linecap:square;"/>
   </g>
   <g id="line2d_77">
    <path clip-path="url(#pad50e79e6d)" d="M 76.613125 300.614505 
L 82.471514 352.99746 
L 88.329904 353.2239 
L 94.188293 352.921981 
L 100.046682 353.2239 
L 814.770172 353.2239 
L 820.628561 353.014666 
L 826.486951 353.2239 
L 949.513125 353.2239 
L 949.513125 353.2239 
" style="fill:none;stroke:#7cb5ec;stroke-linecap:square;"/>
   </g>
   <g id="line2d_78">
    <path clip-path="url(#pad50e79e6d)" d="M 76.613125 295.646636 
L 82.471514 352.982153 
L 88.329904 353.219016 
L 94.188293 353.09448 
L 100.046682 353.2239 
L 803.053393 353.2239 
L 808.911783 353.058697 
L 814.770172 353.2239 
L 820.628561 352.950509 
L 826.486951 353.2239 
L 873.354065 353.2239 
L 926.079568 353.2239 
L 931.937957 353.057858 
L 937.796346 353.2239 
L 949.513125 353.2239 
L 949.513125 353.2239 
" style="fill:none;stroke:#434348;stroke-linecap:square;"/>
   </g>
   <g id="line2d_79">
    <path clip-path="url(#pad50e79e6d)" d="M 76.613125 298.585296 
L 82.471514 352.959178 
L 88.329904 353.2239 
L 94.188293 353.038595 
L 100.046682 353.2239 
L 205.497689 353.2239 
L 211.356078 353.091539 
L 217.214467 353.2239 
L 926.079568 353.2239 
L 931.937957 353.087223 
L 937.796346 353.2239 
L 949.513125 353.2239 
L 949.513125 353.2239 
" style="fill:none;stroke:#90ed7d;stroke-linecap:square;"/>
   </g>
   <g id="line2d_80">
    <path clip-path="url(#pad50e79e6d)" d="M 76.613125 300.895715 
L 82.471514 353.042162 
L 88.329904 353.220767 
L 94.188293 353.101697 
L 100.046682 353.2239 
L 762.044669 353.2239 
L 767.903058 353.096405 
L 773.761447 353.2239 
L 803.053393 353.2239 
L 808.911783 353.060189 
L 814.770172 353.21918 
L 820.628561 352.933329 
L 826.486951 353.2239 
L 926.079568 353.2239 
L 931.937957 353.101488 
L 937.796346 353.2239 
L 949.513125 353.2239 
L 949.513125 353.2239 
" style="fill:none;stroke:#f7a35c;stroke-linecap:square;"/>
   </g>
   <g id="line2d_81">
    <path clip-path="url(#pad50e79e6d)" d="M 76.613125 298.531242 
L 82.471514 353.046758 
L 88.329904 353.2239 
L 94.188293 353.135329 
L 105.905071 353.2239 
L 803.053393 353.2239 
L 808.911783 353.071793 
L 814.770172 353.2239 
L 820.628561 352.894193 
L 826.486951 353.2239 
L 926.079568 353.2239 
L 931.937957 353.09792 
L 937.796346 353.2239 
L 949.513125 353.2239 
L 949.513125 353.2239 
" style="fill:none;stroke:#8085e9;stroke-linecap:square;"/>
   </g>
   <g id="line2d_82">
    <path clip-path="url(#pad50e79e6d)" d="M 76.613125 296.956156 
L 82.471514 352.995169 
L 88.329904 353.222385 
L 94.188293 353.12241 
L 105.905071 353.2239 
L 158.630575 353.2239 
L 803.053393 353.2239 
L 808.911783 353.044057 
L 814.770172 353.220967 
L 820.628561 352.974691 
L 826.486951 353.2239 
L 867.495675 353.2239 
L 949.513125 353.2239 
L 949.513125 353.2239 
" style="fill:none;stroke:#f15c80;stroke-linecap:square;"/>
   </g>
   <g id="line2d_83">
    <path clip-path="url(#pad50e79e6d)" d="M 76.613125 299.573795 
L 82.471514 353.023863 
L 88.329904 353.2239 
L 94.188293 353.06387 
L 100.046682 353.2239 
L 146.913796 353.2239 
L 152.772185 353.06387 
L 158.630575 353.2239 
L 205.497689 353.2239 
L 211.356078 353.103877 
L 217.214467 353.2239 
L 228.931246 353.2239 
L 803.053393 353.2239 
L 808.911783 353.094352 
L 814.770172 353.2239 
L 820.628561 353.02561 
L 826.486951 353.2239 
L 949.513125 353.2239 
L 949.513125 353.2239 
" style="fill:none;stroke:#e4d354;stroke-linecap:square;"/>
   </g>
   <g id="line2d_84">
    <path clip-path="url(#pad50e79e6d)" d="M 76.613125 296.52957 
L 82.471514 353.002377 
L 88.329904 353.2239 
L 94.188293 353.105366 
L 100.046682 353.2239 
L 762.044669 353.2239 
L 767.903058 353.099098 
L 773.761447 353.2239 
L 803.053393 353.2239 
L 808.911783 353.040326 
L 814.770172 353.2239 
L 820.628561 352.945327 
L 826.486951 353.2239 
L 879.212454 353.2239 
L 926.079568 353.2239 
L 931.937957 353.11012 
L 937.796346 353.2239 
L 949.513125 353.2239 
L 949.513125 353.2239 
" style="fill:none;stroke:#2b908f;stroke-linecap:square;"/>
   </g>
   <g id="line2d_85">
    <path clip-path="url(#pad50e79e6d)" d="M 76.613125 301.722241 
L 82.471514 353.055042 
L 88.329904 353.2239 
L 94.188293 353.111328 
L 100.046682 353.2239 
L 814.770172 353.2239 
L 820.628561 353.006812 
L 826.486951 353.2239 
L 849.920508 353.2239 
L 855.778897 353.106847 
L 861.637286 353.2239 
L 896.787622 353.2239 
L 902.646011 352.960709 
L 908.5044 353.2239 
L 949.513125 353.2239 
L 949.513125 353.2239 
" style="fill:none;stroke:#f45b5b;stroke-linecap:square;"/>
   </g>
   <g id="line2d_86">
    <path clip-path="url(#pad50e79e6d)" d="M 76.613125 299.075158 
L 82.471514 353.039596 
L 88.329904 353.2239 
L 94.188293 353.10103 
L 100.046682 353.2239 
L 803.053393 353.2239 
L 808.911783 353.048704 
L 814.770172 353.2239 
L 820.628561 353.022476 
L 826.486951 353.2239 
L 926.079568 353.2239 
L 931.937957 353.105105 
L 937.796346 353.2239 
L 949.513125 353.2239 
L 949.513125 353.2239 
" style="fill:none;stroke:#91e8e1;stroke-linecap:square;"/>
   </g>
   <g id="line2d_87">
    <path clip-path="url(#pad50e79e6d)" d="M 76.613125 294.682366 
L 82.471514 352.977804 
L 88.329904 353.221797 
L 94.188293 353.089283 
L 100.046682 353.2239 
L 803.053393 353.2239 
L 808.911783 353.025244 
L 814.770172 353.218731 
L 820.628561 352.882919 
L 826.486951 353.2239 
L 849.920508 353.189953 
L 879.212454 353.2239 
L 926.079568 353.2239 
L 931.937957 353.051152 
L 937.796346 353.2239 
L 949.513125 353.2239 
L 949.513125 353.2239 
" style="fill:none;stroke:#7cb5ec;stroke-linecap:square;"/>
   </g>
   <g id="line2d_88">
    <path clip-path="url(#pad50e79e6d)" d="M 76.613125 298.907907 
L 82.471514 352.926027 
L 88.329904 353.2239 
L 94.188293 353.12079 
L 105.905071 353.2239 
L 803.053393 353.2239 
L 808.911783 353.061229 
L 814.770172 353.2239 
L 820.628561 353.008888 
L 826.486951 353.2239 
L 949.513125 353.2239 
L 949.513125 353.2239 
" style="fill:none;stroke:#434348;stroke-linecap:square;"/>
   </g>
   <g id="line2d_89">
    <path clip-path="url(#pad50e79e6d)" d="M 76.613125 300.835365 
L 82.471514 352.933927 
L 88.329904 353.2239 
L 94.188293 353.078913 
L 100.046682 353.2239 
L 176.205742 353.2239 
L 182.064132 353.078913 
L 187.922521 353.2239 
L 252.364803 353.2239 
L 258.223192 353.078913 
L 264.081581 353.2239 
L 715.177555 353.2239 
L 721.035944 353.090231 
L 726.894333 353.2239 
L 762.044669 353.2239 
L 767.903058 353.082103 
L 773.761447 353.2239 
L 949.513125 353.2239 
L 949.513125 353.2239 
" style="fill:none;stroke:#90ed7d;stroke-linecap:square;"/>
   </g>
   <g id="line2d_90">
    <path clip-path="url(#pad50e79e6d)" d="M 76.613125 299.990015 
L 82.471514 353.011248 
L 88.329904 353.2239 
L 105.905071 353.2239 
L 803.053393 353.2239 
L 808.911783 353.027387 
L 814.770172 353.2239 
L 820.628561 352.954746 
L 826.486951 353.2239 
L 832.34534 353.154771 
L 844.062118 353.2239 
L 849.920508 353.151715 
L 861.637286 353.2239 
L 949.513125 353.2239 
L 949.513125 353.2239 
" style="fill:none;stroke:#f7a35c;stroke-linecap:square;"/>
   </g>
   <g id="line2d_91">
    <path clip-path="url(#pad50e79e6d)" d="M 76.613125 299.248832 
L 82.471514 352.978373 
L 88.329904 353.2239 
L 100.046682 353.2239 
L 252.364803 353.2239 
L 258.223192 353.060215 
L 264.081581 353.2239 
L 803.053393 353.2239 
L 808.911783 353.092357 
L 814.770172 353.2239 
L 820.628561 353.022476 
L 826.486951 353.2239 
L 855.778897 353.2239 
L 861.637286 353.07915 
L 867.495675 353.2239 
L 949.513125 353.2239 
L 949.513125 353.2239 
" style="fill:none;stroke:#8085e9;stroke-linecap:square;"/>
   </g>
   <g id="line2d_92">
    <path clip-path="url(#pad50e79e6d)" d="M 76.613125 302.449498 
L 82.471514 353.103344 
L 88.329904 353.2239 
L 94.188293 353.063158 
L 100.046682 353.2239 
L 803.053393 353.2239 
L 808.911783 353.048504 
L 814.770172 353.2239 
L 820.628561 352.986103 
L 826.486951 353.2239 
L 849.920508 353.192797 
L 949.513125 353.2239 
L 949.513125 353.2239 
" style="fill:none;stroke:#f15c80;stroke-linecap:square;"/>
   </g>
   <g id="line2d_93">
    <path clip-path="url(#pad50e79e6d)" d="M 76.613125 302.214011 
L 82.471514 353.147538 
L 88.329904 353.2239 
L 94.188293 353.147538 
L 105.905071 353.2239 
L 762.044669 353.2239 
L 767.903058 353.102348 
L 773.761447 353.2239 
L 803.053393 353.2239 
L 808.911783 353.094146 
L 814.770172 353.2239 
L 820.628561 353.091548 
L 826.486951 353.2239 
L 926.079568 353.2239 
L 931.937957 353.051751 
L 937.796346 353.2239 
L 949.513125 353.2239 
L 949.513125 353.2239 
" style="fill:none;stroke:#e4d354;stroke-linecap:square;"/>
   </g>
   <g id="line2d_94">
    <path clip-path="url(#pad50e79e6d)" d="M 76.613125 298.389746 
L 82.471514 352.997906 
L 88.329904 353.220313 
L 94.188293 353.105522 
L 100.046682 353.2239 
L 814.770172 353.2239 
L 820.628561 353.049269 
L 826.486951 353.2239 
L 849.920508 353.194924 
L 885.070843 353.2239 
L 949.513125 353.2239 
L 949.513125 353.2239 
" style="fill:none;stroke:#2b908f;stroke-linecap:square;"/>
   </g>
   <g id="line2d_95">
    <path clip-path="url(#pad50e79e6d)" d="M 76.613125 300.369033 
L 82.471514 353.043508 
L 88.329904 353.2239 
L 94.188293 353.133704 
L 105.905071 353.2239 
L 762.044669 353.2239 
L 767.903058 352.903311 
L 773.761447 353.2239 
L 803.053393 353.2239 
L 808.911783 352.707425 
L 814.770172 353.2239 
L 820.628561 352.696342 
L 826.486951 353.2239 
L 926.079568 353.2239 
L 931.937957 352.533865 
L 937.796346 353.2239 
L 949.513125 353.2239 
L 949.513125 353.2239 
" style="fill:none;stroke:#f45b5b;stroke-linecap:square;"/>
   </g>
   <g id="line2d_96">
    <path clip-path="url(#pad50e79e6d)" d="M 76.613125 300.14582 
L 82.471514 353.079862 
L 88.329904 353.2239 
L 146.913796 353.2239 
L 152.772185 353.079862 
L 158.630575 353.2239 
L 762.044669 353.2239 
L 767.903058 353.056751 
L 773.761447 353.2239 
L 803.053393 353.2239 
L 808.911783 353.036623 
L 814.770172 353.2239 
L 820.628561 352.643507 
L 826.486951 353.2239 
L 926.079568 353.2239 
L 931.937957 352.941249 
L 937.796346 353.2239 
L 949.513125 353.2239 
L 949.513125 353.2239 
" style="fill:none;stroke:#91e8e1;stroke-linecap:square;"/>
   </g>
   <g id="line2d_97">
    <path clip-path="url(#pad50e79e6d)" d="M 76.613125 302.504125 
L 82.471514 353.003553 
L 88.329904 353.2239 
L 94.188293 353.143774 
L 105.905071 353.2239 
L 117.62185 353.2239 
L 287.515138 353.2239 
L 293.373528 353.063153 
L 299.231917 353.2239 
L 814.770172 353.2239 
L 820.628561 352.91511 
L 826.486951 353.2239 
L 849.920508 353.194819 
L 873.354065 353.2239 
L 949.513125 353.2239 
L 949.513125 353.2239 
" style="fill:none;stroke:#7cb5ec;stroke-linecap:square;"/>
   </g>
   <g id="line2d_98">
    <path clip-path="url(#pad50e79e6d)" d="M 76.613125 301.313525 
L 82.471514 353.006398 
L 88.329904 353.2239 
L 94.188293 353.151399 
L 105.905071 353.2239 
L 803.053393 353.2239 
L 808.911783 353.041815 
L 814.770172 353.2239 
L 820.628561 352.978663 
L 826.486951 353.2239 
L 849.920508 353.192408 
L 926.079568 353.2239 
L 931.937957 353.005127 
L 937.796346 353.2239 
L 949.513125 353.2239 
L 949.513125 353.2239 
" style="fill:none;stroke:#434348;stroke-linecap:square;"/>
   </g>
   <g id="line2d_99">
    <path clip-path="url(#pad50e79e6d)" d="M 76.613125 299.055635 
L 82.471514 353.109573 
L 88.329904 353.2239 
L 94.188293 353.132438 
L 105.905071 353.2239 
L 287.515138 353.2239 
L 293.373528 353.086155 
L 299.231917 353.2239 
L 803.053393 353.2239 
L 808.911783 353.047185 
L 814.770172 353.2239 
L 820.628561 353.044122 
L 826.486951 353.2239 
L 949.513125 353.2239 
L 949.513125 353.2239 
" style="fill:none;stroke:#90ed7d;stroke-linecap:square;"/>
   </g>
   <g id="line2d_100">
    <path clip-path="url(#pad50e79e6d)" d="M 76.613125 301.235496 
L 82.471514 353.003142 
L 88.329904 353.2239 
L 94.188293 353.058332 
L 100.046682 353.2239 
L 803.053393 353.2239 
L 808.911783 353.105328 
L 814.770172 353.2239 
L 820.628561 352.858972 
L 826.486951 353.2239 
L 896.787622 353.2239 
L 902.646011 353.074468 
L 908.5044 353.2239 
L 949.513125 353.2239 
L 949.513125 353.2239 
" style="fill:none;stroke:#f7a35c;stroke-linecap:square;"/>
   </g>
   <g id="line2d_101">
    <path clip-path="url(#pad50e79e6d)" d="M 76.613125 300.265439 
L 82.471514 353.154944 
L 88.329904 353.2239 
L 94.188293 353.085987 
L 100.046682 353.2239 
L 814.770172 353.2239 
L 820.628561 353.038893 
L 826.486951 353.2239 
L 949.513125 353.2239 
L 949.513125 353.2239 
" style="fill:none;stroke:#8085e9;stroke-linecap:square;"/>
   </g>
   <g id="line2d_102">
    <path clip-path="url(#pad50e79e6d)" d="M 76.613125 300.921407 
L 82.471514 352.86369 
L 88.329904 353.2239 
L 287.515138 353.2239 
L 293.373528 353.079352 
L 299.231917 353.2239 
L 762.044669 353.2239 
L 767.903058 353.0325 
L 773.761447 353.2239 
L 803.053393 353.2239 
L 808.911783 352.924481 
L 814.770172 353.2239 
L 820.628561 352.718459 
L 826.486951 353.2239 
L 832.34534 353.121511 
L 844.062118 353.2239 
L 849.920508 353.119494 
L 861.637286 353.2239 
L 926.079568 353.2239 
L 931.937957 353.101489 
L 937.796346 353.2239 
L 949.513125 353.2239 
L 949.513125 353.2239 
" style="fill:none;stroke:#f15c80;stroke-linecap:square;"/>
   </g>
   <g id="line2d_103">
    <path clip-path="url(#pad50e79e6d)" d="M 76.613125 300.453231 
L 82.471514 353.105136 
L 88.329904 353.2239 
L 94.188293 353.105136 
L 100.046682 353.2239 
L 691.743997 353.2239 
L 697.602387 353.111186 
L 703.460776 353.2239 
L 715.177555 353.2239 
L 721.035944 353.107388 
L 726.894333 353.2239 
L 762.044669 353.2239 
L 767.903058 353.036638 
L 773.761447 353.2239 
L 803.053393 353.2239 
L 808.911783 352.891096 
L 814.770172 353.2239 
L 820.628561 352.749012 
L 826.486951 353.2239 
L 926.079568 353.2239 
L 931.937957 352.873073 
L 937.796346 353.2239 
L 949.513125 353.2239 
L 949.513125 353.2239 
" style="fill:none;stroke:#e4d354;stroke-linecap:square;"/>
   </g>
   <g id="line2d_104">
    <path clip-path="url(#pad50e79e6d)" d="M 76.613125 298.485582 
L 82.471514 353.127699 
L 88.329904 353.2239 
L 94.188293 353.127699 
L 105.905071 353.2239 
L 762.044669 353.2239 
L 767.903058 353.110015 
L 773.761447 353.2239 
L 803.053393 353.2239 
L 808.911783 353.034216 
L 814.770172 353.2239 
L 820.628561 352.897943 
L 826.486951 353.2239 
L 832.34534 353.156577 
L 844.062118 353.2239 
L 849.920508 353.153157 
L 861.637286 353.2239 
L 949.513125 353.2239 
L 949.513125 353.2239 
" style="fill:none;stroke:#2b908f;stroke-linecap:square;"/>
   </g>
   <g id="line2d_105">
    <path clip-path="url(#pad50e79e6d)" d="M 76.613125 295.237602 
L 82.471514 353.022723 
L 88.329904 353.2239 
L 94.188293 353.141062 
L 105.905071 353.2239 
L 158.630575 353.2239 
L 803.053393 353.2239 
L 808.911783 353.065044 
L 814.770172 353.2239 
L 820.628561 353.031279 
L 826.486951 353.2239 
L 849.920508 353.193454 
L 949.513125 353.2239 
L 949.513125 353.2239 
" style="fill:none;stroke:#f45b5b;stroke-linecap:square;"/>
   </g>
   <g id="line2d_106">
    <path clip-path="url(#pad50e79e6d)" d="M 76.613125 299.863655 
L 82.471514 352.83046 
L 88.329904 353.2239 
L 94.188293 353.12554 
L 105.905071 353.2239 
L 814.770172 353.2239 
L 820.628561 353.060618 
L 826.486951 353.2239 
L 949.513125 353.2239 
L 949.513125 353.2239 
" style="fill:none;stroke:#91e8e1;stroke-linecap:square;"/>
   </g>
   <g id="line2d_107">
    <path clip-path="url(#pad50e79e6d)" d="M 76.613125 297.460771 
L 82.471514 353.2239 
L 814.770172 353.2239 
L 820.628561 352.981348 
L 826.486951 353.2239 
L 949.513125 353.2239 
L 949.513125 353.2239 
" style="fill:none;stroke:#7cb5ec;stroke-linecap:square;"/>
   </g>
   <g id="line2d_108">
    <path clip-path="url(#pad50e79e6d)" d="M 76.613125 299.981621 
L 82.471514 352.967385 
L 88.329904 353.2239 
L 94.188293 353.090512 
L 100.046682 353.2239 
L 803.053393 353.2239 
L 808.911783 353.098191 
L 814.770172 353.2239 
L 820.628561 352.986014 
L 826.486951 353.2239 
L 949.513125 353.2239 
L 949.513125 353.2239 
" style="fill:none;stroke:#434348;stroke-linecap:square;"/>
   </g>
   <g id="line2d_109">
    <path clip-path="url(#pad50e79e6d)" d="M 76.613125 295.567271 
L 82.471514 353.015571 
L 88.329904 353.219844 
L 94.188293 353.104484 
L 100.046682 353.2239 
L 803.053393 353.2239 
L 808.911783 353.042045 
L 814.770172 353.222388 
L 820.628561 352.92955 
L 826.486951 353.2239 
L 861.637286 353.198016 
L 890.929232 353.2239 
L 926.079568 353.2239 
L 931.937957 353.106499 
L 937.796346 353.2239 
L 949.513125 353.2239 
L 949.513125 353.2239 
" style="fill:none;stroke:#90ed7d;stroke-linecap:square;"/>
   </g>
   <g id="line2d_110">
    <path clip-path="url(#pad50e79e6d)" d="M 76.613125 299.884895 
L 82.471514 353.032378 
L 88.329904 353.2239 
L 94.188293 353.128139 
L 105.905071 353.2239 
L 176.205742 353.2239 
L 182.064132 352.936617 
L 187.922521 353.2239 
L 252.364803 353.2239 
L 258.223192 353.080258 
L 264.081581 353.2239 
L 762.044669 353.2239 
L 767.903058 353.100657 
L 773.761447 353.2239 
L 803.053393 353.2239 
L 808.911783 353.076682 
L 814.770172 353.2239 
L 820.628561 353.068851 
L 826.486951 353.2239 
L 949.513125 353.2239 
L 949.513125 353.2239 
" style="fill:none;stroke:#f7a35c;stroke-linecap:square;"/>
   </g>
   <g id="line2d_111">
    <path clip-path="url(#pad50e79e6d)" d="M 76.613125 302.035122 
L 82.471514 353.008595 
L 88.329904 353.2239 
L 94.188293 353.089334 
L 100.046682 353.2239 
L 814.770172 353.2239 
L 820.628561 352.999881 
L 826.486951 353.2239 
L 832.34534 353.132666 
L 844.062118 353.2239 
L 849.920508 353.083155 
L 855.778897 353.2239 
L 867.495675 353.2239 
L 926.079568 353.2239 
L 931.937957 353.109295 
L 937.796346 353.2239 
L 949.513125 353.2239 
L 949.513125 353.2239 
" style="fill:none;stroke:#8085e9;stroke-linecap:square;"/>
   </g>
   <g id="line2d_112">
    <path clip-path="url(#pad50e79e6d)" d="M 76.613125 302.136427 
L 82.471514 353.036216 
L 88.329904 353.2239 
L 94.188293 353.148826 
L 105.905071 353.2239 
L 205.497689 353.2239 
L 211.356078 353.11129 
L 217.214467 353.2239 
L 252.364803 353.2239 
L 258.223192 353.11129 
L 264.081581 353.2239 
L 803.053393 353.2239 
L 808.911783 352.906993 
L 814.770172 353.2239 
L 820.628561 352.770871 
L 826.486951 353.2239 
L 855.778897 353.2239 
L 861.637286 352.944491 
L 867.495675 353.2239 
L 926.079568 353.2239 
L 931.937957 352.967997 
L 937.796346 353.2239 
L 949.513125 353.2239 
L 949.513125 353.2239 
" style="fill:none;stroke:#f15c80;stroke-linecap:square;"/>
   </g>
   <g id="line2d_113">
    <path clip-path="url(#pad50e79e6d)" d="M 76.613125 303.222287 
L 82.471514 352.695714 
L 88.329904 353.2239 
L 94.188293 353.047838 
L 100.046682 353.2239 
L 176.205742 353.2239 
L 182.064132 353.047838 
L 187.922521 353.2239 
L 205.497689 353.2239 
L 211.356078 352.871776 
L 217.214467 353.2239 
L 287.515138 353.2239 
L 293.373528 353.046655 
L 299.231917 353.2239 
L 668.31044 353.2239 
L 674.16883 352.945701 
L 680.027219 353.2239 
L 949.513125 353.2239 
L 949.513125 353.2239 
" style="fill:none;stroke:#e4d354;stroke-linecap:square;"/>
   </g>
   <g id="line2d_114">
    <path clip-path="url(#pad50e79e6d)" d="M 76.613125 300.886622 
L 82.471514 353.07862 
L 88.329904 353.2239 
L 94.188293 353.15126 
L 105.905071 353.2239 
L 803.053393 353.2239 
L 808.911783 353.032111 
L 814.770172 353.2239 
L 820.628561 352.963175 
L 826.486951 353.2239 
L 926.079568 353.2239 
L 931.937957 352.97237 
L 937.796346 353.2239 
L 949.513125 353.2239 
L 949.513125 353.2239 
" style="fill:none;stroke:#2b908f;stroke-linecap:square;"/>
   </g>
   <g id="line2d_115">
    <path clip-path="url(#pad50e79e6d)" d="M 76.613125 298.455311 
L 82.471514 352.986935 
L 88.329904 353.2239 
L 94.188293 353.149848 
L 105.905071 353.2239 
L 287.515138 353.2239 
L 293.373528 353.104882 
L 299.231917 353.2239 
L 814.770172 353.2239 
L 820.628561 352.939448 
L 826.486951 353.2239 
L 849.920508 353.193501 
L 949.513125 353.2239 
L 949.513125 353.2239 
" style="fill:none;stroke:#f45b5b;stroke-linecap:square;"/>
   </g>
   <g id="line2d_116">
    <path clip-path="url(#pad50e79e6d)" d="M 76.613125 300.465441 
L 82.471514 352.966228 
L 88.329904 353.2239 
L 94.188293 353.030645 
L 100.046682 353.2239 
L 287.515138 353.2239 
L 293.373528 353.09409 
L 299.231917 353.2239 
L 691.743997 353.2239 
L 697.602387 353.109389 
L 703.460776 353.2239 
L 803.053393 353.2239 
L 808.911783 353.075822 
L 814.770172 353.2239 
L 820.628561 352.918887 
L 826.486951 353.2239 
L 949.513125 353.2239 
L 949.513125 353.2239 
" style="fill:none;stroke:#91e8e1;stroke-linecap:square;"/>
   </g>
   <g id="line2d_117">
    <path clip-path="url(#pad50e79e6d)" d="M 76.613125 296.468711 
L 82.471514 353.025456 
L 88.329904 353.2239 
L 105.905071 353.2239 
L 111.763461 353.025456 
L 117.62185 353.2239 
L 803.053393 353.2239 
L 808.911783 352.838087 
L 814.770172 353.2239 
L 820.628561 352.829716 
L 826.486951 353.2239 
L 926.079568 353.2239 
L 931.937957 352.691602 
L 937.796346 353.2239 
L 949.513125 353.2239 
L 949.513125 353.2239 
" style="fill:none;stroke:#7cb5ec;stroke-linecap:square;"/>
   </g>
   <g id="line2d_118">
    <path clip-path="url(#pad50e79e6d)" d="M 76.613125 301.159057 
L 82.471514 353.10503 
L 88.329904 353.2239 
L 94.188293 353.065408 
L 100.046682 353.2239 
L 252.364803 353.2239 
L 258.223192 353.10503 
L 264.081581 353.2239 
L 803.053393 353.2239 
L 808.911783 353.075891 
L 814.770172 353.2239 
L 820.628561 353.072156 
L 826.486951 353.2239 
L 832.34534 353.146093 
L 844.062118 353.2239 
L 849.920508 353.143038 
L 861.637286 353.2239 
L 926.079568 353.2239 
L 931.937957 353.017565 
L 937.796346 353.2239 
L 949.513125 353.2239 
L 949.513125 353.2239 
" style="fill:none;stroke:#434348;stroke-linecap:square;"/>
   </g>
   <g id="line2d_119">
    <path clip-path="url(#pad50e79e6d)" d="M 76.613125 298.896015 
L 82.471514 353.044036 
L 88.329904 353.2239 
L 94.188293 353.124975 
L 105.905071 353.2239 
L 182.064132 353.115982 
L 193.78091 353.2239 
L 803.053393 353.2239 
L 808.911783 353.056847 
L 814.770172 353.2239 
L 820.628561 352.943136 
L 826.486951 353.2239 
L 949.513125 353.2239 
L 949.513125 353.2239 
" style="fill:none;stroke:#90ed7d;stroke-linecap:square;"/>
   </g>
   <g id="line2d_120">
    <path clip-path="url(#pad50e79e6d)" d="M 76.613125 301.998174 
L 82.471514 353.065958 
L 88.329904 353.2239 
L 94.188293 353.118606 
L 105.905071 353.2239 
L 803.053393 353.2239 
L 808.911783 353.00939 
L 814.770172 353.2239 
L 820.628561 352.895052 
L 826.486951 353.2239 
L 855.778897 353.2239 
L 861.637286 353.104913 
L 867.495675 353.2239 
L 896.787622 353.2239 
L 902.646011 352.96168 
L 908.5044 353.2239 
L 926.079568 353.2239 
L 931.937957 352.933173 
L 937.796346 353.2239 
L 949.513125 353.2239 
L 949.513125 353.2239 
" style="fill:none;stroke:#f7a35c;stroke-linecap:square;"/>
   </g>
   <g id="line2d_121">
    <path clip-path="url(#pad50e79e6d)" d="M 76.613125 304.054791 
L 82.471514 353.105278 
L 88.329904 353.2239 
L 94.188293 352.986655 
L 100.046682 353.2239 
L 146.913796 353.2239 
L 152.772185 353.105278 
L 158.630575 353.2239 
L 762.044669 353.2239 
L 767.903058 353.047977 
L 773.761447 353.2239 
L 803.053393 353.2239 
L 808.911783 352.948273 
L 814.770172 353.2239 
L 820.628561 352.944654 
L 826.486951 353.2239 
L 926.079568 353.2239 
L 931.937957 353.111615 
L 937.796346 353.2239 
L 949.513125 353.2239 
L 949.513125 353.2239 
" style="fill:none;stroke:#8085e9;stroke-linecap:square;"/>
   </g>
   <g id="line2d_122">
    <path clip-path="url(#pad50e79e6d)" d="M 76.613125 305.353818 
L 82.471514 352.448675 
L 88.329904 353.2239 
L 94.188293 353.030094 
L 100.046682 353.2239 
L 896.787622 353.2239 
L 902.646011 352.729508 
L 908.5044 353.2239 
L 949.513125 353.2239 
L 949.513125 353.2239 
" style="fill:none;stroke:#f15c80;stroke-linecap:square;"/>
   </g>
   <g id="line2d_123">
    <path clip-path="url(#pad50e79e6d)" d="M 76.613125 299.552491 
L 82.471514 353.048503 
L 88.329904 353.2239 
L 94.188293 352.873106 
L 100.046682 353.2239 
L 146.913796 353.2239 
L 152.772185 353.048503 
L 158.630575 353.2239 
L 176.205742 353.2239 
L 182.064132 353.048503 
L 187.922521 353.2239 
L 562.859434 353.2239 
L 568.717823 352.990503 
L 574.576212 353.2239 
L 814.770172 353.2239 
L 820.628561 352.870877 
L 826.486951 353.2239 
L 949.513125 353.2239 
L 949.513125 353.2239 
" style="fill:none;stroke:#e4d354;stroke-linecap:square;"/>
   </g>
   <g id="line2d_124">
    <path clip-path="url(#pad50e79e6d)" d="M 76.613125 298.920689 
L 82.471514 353.105075 
L 88.329904 353.2239 
L 94.188293 353.045662 
L 100.046682 353.2239 
L 252.364803 353.2239 
L 258.223192 353.105075 
L 264.081581 353.2239 
L 814.770172 353.2239 
L 820.628561 352.975619 
L 826.486951 353.2239 
L 949.513125 353.2239 
L 949.513125 353.2239 
" style="fill:none;stroke:#2b908f;stroke-linecap:square;"/>
   </g>
   <g id="line2d_125">
    <path clip-path="url(#pad50e79e6d)" d="M 76.613125 299.528771 
L 82.471514 353.116866 
L 88.329904 353.2239 
L 105.905071 353.2239 
L 803.053393 353.2239 
L 808.911783 352.97237 
L 814.770172 353.2239 
L 820.628561 352.902448 
L 826.486951 353.2239 
L 832.34534 353.158145 
L 844.062118 353.2239 
L 849.920508 353.01978 
L 861.637286 353.2239 
L 896.787622 353.2239 
L 902.646011 353.070056 
L 908.5044 353.2239 
L 926.079568 353.2239 
L 931.937957 353.052487 
L 937.796346 353.2239 
L 949.513125 353.2239 
L 949.513125 353.2239 
" style="fill:none;stroke:#f45b5b;stroke-linecap:square;"/>
   </g>
   <g id="line2d_126">
    <path clip-path="url(#pad50e79e6d)" d="M 32.968125 353.2239 
L 993.158125 353.2239 
" style="fill:none;stroke:#dedede;stroke-linecap:square;stroke-width:2;"/>
   </g>
   <g id="text_17">
    <!-- Fastp: Read N Content -->
    <defs>
     <path d="M 9.8125 72.90625 
L 51.703125 72.90625 
L 51.703125 64.59375 
L 19.671875 64.59375 
L 19.671875 43.109375 
L 48.578125 43.109375 
L 48.578125 34.8125 
L 19.671875 34.8125 
L 19.671875 0 
L 9.8125 0 
z
" id="DejaVuSans-70"/>
     <path d="M 18.109375 8.203125 
L 18.109375 -20.796875 
L 9.078125 -20.796875 
L 9.078125 54.6875 
L 18.109375 54.6875 
L 18.109375 46.390625 
Q 20.953125 51.265625 25.265625 53.625 
Q 29.59375 56 35.59375 56 
Q 45.5625 56 51.78125 48.09375 
Q 58.015625 40.1875 58.015625 27.296875 
Q 58.015625 14.40625 51.78125 6.484375 
Q 45.5625 -1.421875 35.59375 -1.421875 
Q 29.59375 -1.421875 25.265625 0.953125 
Q 20.953125 3.328125 18.109375 8.203125 
z
M 48.6875 27.296875 
Q 48.6875 37.203125 44.609375 42.84375 
Q 40.53125 48.484375 33.40625 48.484375 
Q 26.265625 48.484375 22.1875 42.84375 
Q 18.109375 37.203125 18.109375 27.296875 
Q 18.109375 17.390625 22.1875 11.75 
Q 26.265625 6.109375 33.40625 6.109375 
Q 40.53125 6.109375 44.609375 11.75 
Q 48.6875 17.390625 48.6875 27.296875 
z
" id="DejaVuSans-112"/>
     <path d="M 9.8125 72.90625 
L 23.09375 72.90625 
L 55.421875 11.921875 
L 55.421875 72.90625 
L 64.984375 72.90625 
L 64.984375 0 
L 51.703125 0 
L 19.390625 60.984375 
L 19.390625 0 
L 9.8125 0 
z
" id="DejaVuSans-78"/>
    </defs>
    <g transform="translate(422.606875 19.3575)scale(0.16 -0.16)">
     <use xlink:href="#DejaVuSans-70"/>
     <use x="57.378906" xlink:href="#DejaVuSans-97"/>
     <use x="118.658203" xlink:href="#DejaVuSans-115"/>
     <use x="170.757812" xlink:href="#DejaVuSans-116"/>
     <use x="209.966797" xlink:href="#DejaVuSans-112"/>
     <use x="273.443359" xlink:href="#DejaVuSans-58"/>
     <use x="307.134766" xlink:href="#DejaVuSans-32"/>
     <use x="338.921875" xlink:href="#DejaVuSans-82"/>
     <use x="408.341797" xlink:href="#DejaVuSans-101"/>
     <use x="469.865234" xlink:href="#DejaVuSans-97"/>
     <use x="531.144531" xlink:href="#DejaVuSans-100"/>
     <use x="594.621094" xlink:href="#DejaVuSans-32"/>
     <use x="626.408203" xlink:href="#DejaVuSans-78"/>
     <use x="701.212891" xlink:href="#DejaVuSans-32"/>
     <use x="733" xlink:href="#DejaVuSans-67"/>
     <use x="802.824219" xlink:href="#DejaVuSans-111"/>
     <use x="864.005859" xlink:href="#DejaVuSans-110"/>
     <use x="927.384766" xlink:href="#DejaVuSans-116"/>
     <use x="966.59375" xlink:href="#DejaVuSans-101"/>
     <use x="1028.117188" xlink:href="#DejaVuSans-110"/>
     <use x="1091.496094" xlink:href="#DejaVuSans-116"/>
    </g>
   </g>
  </g>
 </g>
 <defs>
  <clipPath id="pad50e79e6d">
   <rect height="317.968" width="960.19" x="32.968125" y="35.2559"/>
  </clipPath>
 </defs>
</svg>
