<?xml version="1.0" encoding="utf-8" standalone="no"?>
<!DOCTYPE svg PUBLIC "-//W3C//DTD SVG 1.1//EN"
  "http://www.w3.org/Graphics/SVG/1.1/DTD/svg11.dtd">
<!-- Created with matplotlib (https://matplotlib.org/) -->
<svg height="388.844525pt" version="1.1" viewBox="0 0 1000.278125 388.844525" width="1000.278125pt" xmlns="http://www.w3.org/2000/svg" xmlns:xlink="http://www.w3.org/1999/xlink">
 <defs>
  <style type="text/css">
*{stroke-linecap:butt;stroke-linejoin:round;}
  </style>
 </defs>
 <g id="figure_1">
  <g id="axes_1">
   <g id="patch_1">
    <path d="M 43.148125 353.2239 
L 993.078125 353.2239 
L 993.078125 35.2559 
L 43.148125 35.2559 
z
" style="fill:#ffffff;"/>
   </g>
   <g id="matplotlib.axis_1">
    <g id="xtick_1">
     <g id="text_1">
      <!-- 0 -->
      <defs>
       <path d="M 31.78125 66.40625 
Q 24.171875 66.40625 20.328125 58.90625 
Q 16.5 51.421875 16.5 36.375 
Q 16.5 21.390625 20.328125 13.890625 
Q 24.171875 6.390625 31.78125 6.390625 
Q 39.453125 6.390625 43.28125 13.890625 
Q 47.125 21.390625 47.125 36.375 
Q 47.125 51.421875 43.28125 58.90625 
Q 39.453125 66.40625 31.78125 66.40625 
z
M 31.78125 74.21875 
Q 44.046875 74.21875 50.515625 64.515625 
Q 56.984375 54.828125 56.984375 36.375 
Q 56.984375 17.96875 50.515625 8.265625 
Q 44.046875 -1.421875 31.78125 -1.421875 
Q 19.53125 -1.421875 13.0625 8.265625 
Q 6.59375 17.96875 6.59375 36.375 
Q 6.59375 54.828125 13.0625 64.515625 
Q 19.53125 74.21875 31.78125 74.21875 
z
" id="DejaVuSans-48"/>
      </defs>
      <g transform="translate(54.996004 366.30265)scale(0.08 -0.08)">
       <use xlink:href="#DejaVuSans-48"/>
      </g>
     </g>
    </g>
    <g id="xtick_2">
     <g id="text_2">
      <!-- 5 -->
      <defs>
       <path d="M 10.796875 72.90625 
L 49.515625 72.90625 
L 49.515625 64.59375 
L 19.828125 64.59375 
L 19.828125 46.734375 
Q 21.96875 47.46875 24.109375 47.828125 
Q 26.265625 48.1875 28.421875 48.1875 
Q 40.625 48.1875 47.75 41.5 
Q 54.890625 34.8125 54.890625 23.390625 
Q 54.890625 11.625 47.5625 5.09375 
Q 40.234375 -1.421875 26.90625 -1.421875 
Q 22.3125 -1.421875 17.546875 -0.640625 
Q 12.796875 0.140625 7.71875 1.703125 
L 7.71875 11.625 
Q 12.109375 9.234375 16.796875 8.0625 
Q 21.484375 6.890625 26.703125 6.890625 
Q 35.15625 6.890625 40.078125 11.328125 
Q 45.015625 15.765625 45.015625 23.390625 
Q 45.015625 31 40.078125 35.4375 
Q 35.15625 39.890625 26.703125 39.890625 
Q 22.75 39.890625 18.8125 39.015625 
Q 14.890625 38.140625 10.796875 36.28125 
z
" id="DejaVuSans-53"/>
      </defs>
      <g transform="translate(198.924792 366.30265)scale(0.08 -0.08)">
       <use xlink:href="#DejaVuSans-53"/>
      </g>
     </g>
    </g>
    <g id="xtick_3">
     <g id="text_3">
      <!-- 10 -->
      <defs>
       <path d="M 12.40625 8.296875 
L 28.515625 8.296875 
L 28.515625 63.921875 
L 10.984375 60.40625 
L 10.984375 69.390625 
L 28.421875 72.90625 
L 38.28125 72.90625 
L 38.28125 8.296875 
L 54.390625 8.296875 
L 54.390625 0 
L 12.40625 0 
z
" id="DejaVuSans-49"/>
      </defs>
      <g transform="translate(340.30858 366.30265)scale(0.08 -0.08)">
       <use xlink:href="#DejaVuSans-49"/>
       <use x="63.623047" xlink:href="#DejaVuSans-48"/>
      </g>
     </g>
    </g>
    <g id="xtick_4">
     <g id="text_4">
      <!-- 15 -->
      <g transform="translate(484.237367 366.30265)scale(0.08 -0.08)">
       <use xlink:href="#DejaVuSans-49"/>
       <use x="63.623047" xlink:href="#DejaVuSans-53"/>
      </g>
     </g>
    </g>
    <g id="xtick_5">
     <g id="text_5">
      <!-- 20 -->
      <defs>
       <path d="M 19.1875 8.296875 
L 53.609375 8.296875 
L 53.609375 0 
L 7.328125 0 
L 7.328125 8.296875 
Q 12.9375 14.109375 22.625 23.890625 
Q 32.328125 33.6875 34.8125 36.53125 
Q 39.546875 41.84375 41.421875 45.53125 
Q 43.3125 49.21875 43.3125 52.78125 
Q 43.3125 58.59375 39.234375 62.25 
Q 35.15625 65.921875 28.609375 65.921875 
Q 23.96875 65.921875 18.8125 64.3125 
Q 13.671875 62.703125 7.8125 59.421875 
L 7.8125 69.390625 
Q 13.765625 71.78125 18.9375 73 
Q 24.125 74.21875 28.421875 74.21875 
Q 39.75 74.21875 46.484375 68.546875 
Q 53.21875 62.890625 53.21875 53.421875 
Q 53.21875 48.921875 51.53125 44.890625 
Q 49.859375 40.875 45.40625 35.40625 
Q 44.1875 33.984375 37.640625 27.21875 
Q 31.109375 20.453125 19.1875 8.296875 
z
" id="DejaVuSans-50"/>
      </defs>
      <g transform="translate(628.166155 366.30265)scale(0.08 -0.08)">
       <use xlink:href="#DejaVuSans-50"/>
       <use x="63.623047" xlink:href="#DejaVuSans-48"/>
      </g>
     </g>
    </g>
    <g id="xtick_6">
     <g id="text_6">
      <!-- 25 -->
      <g transform="translate(772.094943 366.30265)scale(0.08 -0.08)">
       <use xlink:href="#DejaVuSans-50"/>
       <use x="63.623047" xlink:href="#DejaVuSans-53"/>
      </g>
     </g>
    </g>
    <g id="xtick_7">
     <g id="text_7">
      <!-- 30 -->
      <defs>
       <path d="M 40.578125 39.3125 
Q 47.65625 37.796875 51.625 33 
Q 55.609375 28.21875 55.609375 21.1875 
Q 55.609375 10.40625 48.1875 4.484375 
Q 40.765625 -1.421875 27.09375 -1.421875 
Q 22.515625 -1.421875 17.65625 -0.515625 
Q 12.796875 0.390625 7.625 2.203125 
L 7.625 11.71875 
Q 11.71875 9.328125 16.59375 8.109375 
Q 21.484375 6.890625 26.8125 6.890625 
Q 36.078125 6.890625 40.9375 10.546875 
Q 45.796875 14.203125 45.796875 21.1875 
Q 45.796875 27.640625 41.28125 31.265625 
Q 36.765625 34.90625 28.71875 34.90625 
L 20.21875 34.90625 
L 20.21875 43.015625 
L 29.109375 43.015625 
Q 36.375 43.015625 40.234375 45.921875 
Q 44.09375 48.828125 44.09375 54.296875 
Q 44.09375 59.90625 40.109375 62.90625 
Q 36.140625 65.921875 28.71875 65.921875 
Q 24.65625 65.921875 20.015625 65.03125 
Q 15.375 64.15625 9.8125 62.3125 
L 9.8125 71.09375 
Q 15.4375 72.65625 20.34375 73.4375 
Q 25.25 74.21875 29.59375 74.21875 
Q 40.828125 74.21875 47.359375 69.109375 
Q 53.90625 64.015625 53.90625 55.328125 
Q 53.90625 49.265625 50.4375 45.09375 
Q 46.96875 40.921875 40.578125 39.3125 
z
" id="DejaVuSans-51"/>
      </defs>
      <g transform="translate(916.023731 366.30265)scale(0.08 -0.08)">
       <use xlink:href="#DejaVuSans-51"/>
       <use x="63.623047" xlink:href="#DejaVuSans-48"/>
      </g>
     </g>
    </g>
    <g id="text_8">
     <!-- Duplication level -->
     <defs>
      <path d="M 19.671875 64.796875 
L 19.671875 8.109375 
L 31.59375 8.109375 
Q 46.6875 8.109375 53.6875 14.9375 
Q 60.6875 21.78125 60.6875 36.53125 
Q 60.6875 51.171875 53.6875 57.984375 
Q 46.6875 64.796875 31.59375 64.796875 
z
M 9.8125 72.90625 
L 30.078125 72.90625 
Q 51.265625 72.90625 61.171875 64.09375 
Q 71.09375 55.28125 71.09375 36.53125 
Q 71.09375 17.671875 61.125 8.828125 
Q 51.171875 0 30.078125 0 
L 9.8125 0 
z
" id="DejaVuSans-68"/>
      <path d="M 8.5 21.578125 
L 8.5 54.6875 
L 17.484375 54.6875 
L 17.484375 21.921875 
Q 17.484375 14.15625 20.5 10.265625 
Q 23.53125 6.390625 29.59375 6.390625 
Q 36.859375 6.390625 41.078125 11.03125 
Q 45.3125 15.671875 45.3125 23.6875 
L 45.3125 54.6875 
L 54.296875 54.6875 
L 54.296875 0 
L 45.3125 0 
L 45.3125 8.40625 
Q 42.046875 3.421875 37.71875 1 
Q 33.40625 -1.421875 27.6875 -1.421875 
Q 18.265625 -1.421875 13.375 4.4375 
Q 8.5 10.296875 8.5 21.578125 
z
M 31.109375 56 
z
" id="DejaVuSans-117"/>
      <path d="M 18.109375 8.203125 
L 18.109375 -20.796875 
L 9.078125 -20.796875 
L 9.078125 54.6875 
L 18.109375 54.6875 
L 18.109375 46.390625 
Q 20.953125 51.265625 25.265625 53.625 
Q 29.59375 56 35.59375 56 
Q 45.5625 56 51.78125 48.09375 
Q 58.015625 40.1875 58.015625 27.296875 
Q 58.015625 14.40625 51.78125 6.484375 
Q 45.5625 -1.421875 35.59375 -1.421875 
Q 29.59375 -1.421875 25.265625 0.953125 
Q 20.953125 3.328125 18.109375 8.203125 
z
M 48.6875 27.296875 
Q 48.6875 37.203125 44.609375 42.84375 
Q 40.53125 48.484375 33.40625 48.484375 
Q 26.265625 48.484375 22.1875 42.84375 
Q 18.109375 37.203125 18.109375 27.296875 
Q 18.109375 17.390625 22.1875 11.75 
Q 26.265625 6.109375 33.40625 6.109375 
Q 40.53125 6.109375 44.609375 11.75 
Q 48.6875 17.390625 48.6875 27.296875 
z
" id="DejaVuSans-112"/>
      <path d="M 9.421875 75.984375 
L 18.40625 75.984375 
L 18.40625 0 
L 9.421875 0 
z
" id="DejaVuSans-108"/>
      <path d="M 9.421875 54.6875 
L 18.40625 54.6875 
L 18.40625 0 
L 9.421875 0 
z
M 9.421875 75.984375 
L 18.40625 75.984375 
L 18.40625 64.59375 
L 9.421875 64.59375 
z
" id="DejaVuSans-105"/>
      <path d="M 48.78125 52.59375 
L 48.78125 44.1875 
Q 44.96875 46.296875 41.140625 47.34375 
Q 37.3125 48.390625 33.40625 48.390625 
Q 24.65625 48.390625 19.8125 42.84375 
Q 14.984375 37.3125 14.984375 27.296875 
Q 14.984375 17.28125 19.8125 11.734375 
Q 24.65625 6.203125 33.40625 6.203125 
Q 37.3125 6.203125 41.140625 7.25 
Q 44.96875 8.296875 48.78125 10.40625 
L 48.78125 2.09375 
Q 45.015625 0.34375 40.984375 -0.53125 
Q 36.96875 -1.421875 32.421875 -1.421875 
Q 20.0625 -1.421875 12.78125 6.34375 
Q 5.515625 14.109375 5.515625 27.296875 
Q 5.515625 40.671875 12.859375 48.328125 
Q 20.21875 56 33.015625 56 
Q 37.15625 56 41.109375 55.140625 
Q 45.0625 54.296875 48.78125 52.59375 
z
" id="DejaVuSans-99"/>
      <path d="M 34.28125 27.484375 
Q 23.390625 27.484375 19.1875 25 
Q 14.984375 22.515625 14.984375 16.5 
Q 14.984375 11.71875 18.140625 8.90625 
Q 21.296875 6.109375 26.703125 6.109375 
Q 34.1875 6.109375 38.703125 11.40625 
Q 43.21875 16.703125 43.21875 25.484375 
L 43.21875 27.484375 
z
M 52.203125 31.203125 
L 52.203125 0 
L 43.21875 0 
L 43.21875 8.296875 
Q 40.140625 3.328125 35.546875 0.953125 
Q 30.953125 -1.421875 24.3125 -1.421875 
Q 15.921875 -1.421875 10.953125 3.296875 
Q 6 8.015625 6 15.921875 
Q 6 25.140625 12.171875 29.828125 
Q 18.359375 34.515625 30.609375 34.515625 
L 43.21875 34.515625 
L 43.21875 35.40625 
Q 43.21875 41.609375 39.140625 45 
Q 35.0625 48.390625 27.6875 48.390625 
Q 23 48.390625 18.546875 47.265625 
Q 14.109375 46.140625 10.015625 43.890625 
L 10.015625 52.203125 
Q 14.9375 54.109375 19.578125 55.046875 
Q 24.21875 56 28.609375 56 
Q 40.484375 56 46.34375 49.84375 
Q 52.203125 43.703125 52.203125 31.203125 
z
" id="DejaVuSans-97"/>
      <path d="M 18.3125 70.21875 
L 18.3125 54.6875 
L 36.8125 54.6875 
L 36.8125 47.703125 
L 18.3125 47.703125 
L 18.3125 18.015625 
Q 18.3125 11.328125 20.140625 9.421875 
Q 21.96875 7.515625 27.59375 7.515625 
L 36.8125 7.515625 
L 36.8125 0 
L 27.59375 0 
Q 17.1875 0 13.234375 3.875 
Q 9.28125 7.765625 9.28125 18.015625 
L 9.28125 47.703125 
L 2.6875 47.703125 
L 2.6875 54.6875 
L 9.28125 54.6875 
L 9.28125 70.21875 
z
" id="DejaVuSans-116"/>
      <path d="M 30.609375 48.390625 
Q 23.390625 48.390625 19.1875 42.75 
Q 14.984375 37.109375 14.984375 27.296875 
Q 14.984375 17.484375 19.15625 11.84375 
Q 23.34375 6.203125 30.609375 6.203125 
Q 37.796875 6.203125 41.984375 11.859375 
Q 46.1875 17.53125 46.1875 27.296875 
Q 46.1875 37.015625 41.984375 42.703125 
Q 37.796875 48.390625 30.609375 48.390625 
z
M 30.609375 56 
Q 42.328125 56 49.015625 48.375 
Q 55.71875 40.765625 55.71875 27.296875 
Q 55.71875 13.875 49.015625 6.21875 
Q 42.328125 -1.421875 30.609375 -1.421875 
Q 18.84375 -1.421875 12.171875 6.21875 
Q 5.515625 13.875 5.515625 27.296875 
Q 5.515625 40.765625 12.171875 48.375 
Q 18.84375 56 30.609375 56 
z
" id="DejaVuSans-111"/>
      <path d="M 54.890625 33.015625 
L 54.890625 0 
L 45.90625 0 
L 45.90625 32.71875 
Q 45.90625 40.484375 42.875 44.328125 
Q 39.84375 48.1875 33.796875 48.1875 
Q 26.515625 48.1875 22.3125 43.546875 
Q 18.109375 38.921875 18.109375 30.90625 
L 18.109375 0 
L 9.078125 0 
L 9.078125 54.6875 
L 18.109375 54.6875 
L 18.109375 46.1875 
Q 21.34375 51.125 25.703125 53.5625 
Q 30.078125 56 35.796875 56 
Q 45.21875 56 50.046875 50.171875 
Q 54.890625 44.34375 54.890625 33.015625 
z
" id="DejaVuSans-110"/>
      <path id="DejaVuSans-32"/>
      <path d="M 56.203125 29.59375 
L 56.203125 25.203125 
L 14.890625 25.203125 
Q 15.484375 15.921875 20.484375 11.0625 
Q 25.484375 6.203125 34.421875 6.203125 
Q 39.59375 6.203125 44.453125 7.46875 
Q 49.3125 8.734375 54.109375 11.28125 
L 54.109375 2.78125 
Q 49.265625 0.734375 44.1875 -0.34375 
Q 39.109375 -1.421875 33.890625 -1.421875 
Q 20.796875 -1.421875 13.15625 6.1875 
Q 5.515625 13.8125 5.515625 26.8125 
Q 5.515625 40.234375 12.765625 48.109375 
Q 20.015625 56 32.328125 56 
Q 43.359375 56 49.78125 48.890625 
Q 56.203125 41.796875 56.203125 29.59375 
z
M 47.21875 32.234375 
Q 47.125 39.59375 43.09375 43.984375 
Q 39.0625 48.390625 32.421875 48.390625 
Q 24.90625 48.390625 20.390625 44.140625 
Q 15.875 39.890625 15.1875 32.171875 
z
" id="DejaVuSans-101"/>
      <path d="M 2.984375 54.6875 
L 12.5 54.6875 
L 29.59375 8.796875 
L 46.6875 54.6875 
L 56.203125 54.6875 
L 35.6875 0 
L 23.484375 0 
z
" id="DejaVuSans-118"/>
     </defs>
     <g transform="translate(476.271719 379.564837)scale(0.1 -0.1)">
      <use xlink:href="#DejaVuSans-68"/>
      <use x="77.001953" xlink:href="#DejaVuSans-117"/>
      <use x="140.380859" xlink:href="#DejaVuSans-112"/>
      <use x="203.857422" xlink:href="#DejaVuSans-108"/>
      <use x="231.640625" xlink:href="#DejaVuSans-105"/>
      <use x="259.423828" xlink:href="#DejaVuSans-99"/>
      <use x="314.404297" xlink:href="#DejaVuSans-97"/>
      <use x="375.683594" xlink:href="#DejaVuSans-116"/>
      <use x="414.892578" xlink:href="#DejaVuSans-105"/>
      <use x="442.675781" xlink:href="#DejaVuSans-111"/>
      <use x="503.857422" xlink:href="#DejaVuSans-110"/>
      <use x="567.236328" xlink:href="#DejaVuSans-32"/>
      <use x="599.023438" xlink:href="#DejaVuSans-108"/>
      <use x="626.806641" xlink:href="#DejaVuSans-101"/>
      <use x="688.330078" xlink:href="#DejaVuSans-118"/>
      <use x="747.509766" xlink:href="#DejaVuSans-101"/>
      <use x="809.033203" xlink:href="#DejaVuSans-108"/>
     </g>
    </g>
   </g>
   <g id="matplotlib.axis_2">
    <g id="ytick_1">
     <g id="line2d_1">
      <path clip-path="url(#p1efb745aad)" d="M 43.148125 353.2239 
L 993.078125 353.2239 
" style="fill:none;stroke:#dedede;stroke-linecap:square;"/>
     </g>
     <g id="text_9">
      <!-- 0 -->
      <g transform="translate(31.058125 356.263275)scale(0.08 -0.08)">
       <use xlink:href="#DejaVuSans-48"/>
      </g>
     </g>
    </g>
    <g id="ytick_2">
     <g id="line2d_2">
      <path clip-path="url(#p1efb745aad)" d="M 43.148125 289.6303 
L 993.078125 289.6303 
" style="fill:none;stroke:#dedede;stroke-linecap:square;"/>
     </g>
     <g id="text_10">
      <!-- 20 -->
      <g transform="translate(25.968125 292.669675)scale(0.08 -0.08)">
       <use xlink:href="#DejaVuSans-50"/>
       <use x="63.623047" xlink:href="#DejaVuSans-48"/>
      </g>
     </g>
    </g>
    <g id="ytick_3">
     <g id="line2d_3">
      <path clip-path="url(#p1efb745aad)" d="M 43.148125 226.0367 
L 993.078125 226.0367 
" style="fill:none;stroke:#dedede;stroke-linecap:square;"/>
     </g>
     <g id="text_11">
      <!-- 40 -->
      <defs>
       <path d="M 37.796875 64.3125 
L 12.890625 25.390625 
L 37.796875 25.390625 
z
M 35.203125 72.90625 
L 47.609375 72.90625 
L 47.609375 25.390625 
L 58.015625 25.390625 
L 58.015625 17.1875 
L 47.609375 17.1875 
L 47.609375 0 
L 37.796875 0 
L 37.796875 17.1875 
L 4.890625 17.1875 
L 4.890625 26.703125 
z
" id="DejaVuSans-52"/>
      </defs>
      <g transform="translate(25.968125 229.076075)scale(0.08 -0.08)">
       <use xlink:href="#DejaVuSans-52"/>
       <use x="63.623047" xlink:href="#DejaVuSans-48"/>
      </g>
     </g>
    </g>
    <g id="ytick_4">
     <g id="line2d_4">
      <path clip-path="url(#p1efb745aad)" d="M 43.148125 162.4431 
L 993.078125 162.4431 
" style="fill:none;stroke:#dedede;stroke-linecap:square;"/>
     </g>
     <g id="text_12">
      <!-- 60 -->
      <defs>
       <path d="M 33.015625 40.375 
Q 26.375 40.375 22.484375 35.828125 
Q 18.609375 31.296875 18.609375 23.390625 
Q 18.609375 15.53125 22.484375 10.953125 
Q 26.375 6.390625 33.015625 6.390625 
Q 39.65625 6.390625 43.53125 10.953125 
Q 47.40625 15.53125 47.40625 23.390625 
Q 47.40625 31.296875 43.53125 35.828125 
Q 39.65625 40.375 33.015625 40.375 
z
M 52.59375 71.296875 
L 52.59375 62.3125 
Q 48.875 64.0625 45.09375 64.984375 
Q 41.3125 65.921875 37.59375 65.921875 
Q 27.828125 65.921875 22.671875 59.328125 
Q 17.53125 52.734375 16.796875 39.40625 
Q 19.671875 43.65625 24.015625 45.921875 
Q 28.375 48.1875 33.59375 48.1875 
Q 44.578125 48.1875 50.953125 41.515625 
Q 57.328125 34.859375 57.328125 23.390625 
Q 57.328125 12.15625 50.6875 5.359375 
Q 44.046875 -1.421875 33.015625 -1.421875 
Q 20.359375 -1.421875 13.671875 8.265625 
Q 6.984375 17.96875 6.984375 36.375 
Q 6.984375 53.65625 15.1875 63.9375 
Q 23.390625 74.21875 37.203125 74.21875 
Q 40.921875 74.21875 44.703125 73.484375 
Q 48.484375 72.75 52.59375 71.296875 
z
" id="DejaVuSans-54"/>
      </defs>
      <g transform="translate(25.968125 165.482475)scale(0.08 -0.08)">
       <use xlink:href="#DejaVuSans-54"/>
       <use x="63.623047" xlink:href="#DejaVuSans-48"/>
      </g>
     </g>
    </g>
    <g id="ytick_5">
     <g id="line2d_5">
      <path clip-path="url(#p1efb745aad)" d="M 43.148125 98.8495 
L 993.078125 98.8495 
" style="fill:none;stroke:#dedede;stroke-linecap:square;"/>
     </g>
     <g id="text_13">
      <!-- 80 -->
      <defs>
       <path d="M 31.78125 34.625 
Q 24.75 34.625 20.71875 30.859375 
Q 16.703125 27.09375 16.703125 20.515625 
Q 16.703125 13.921875 20.71875 10.15625 
Q 24.75 6.390625 31.78125 6.390625 
Q 38.8125 6.390625 42.859375 10.171875 
Q 46.921875 13.96875 46.921875 20.515625 
Q 46.921875 27.09375 42.890625 30.859375 
Q 38.875 34.625 31.78125 34.625 
z
M 21.921875 38.8125 
Q 15.578125 40.375 12.03125 44.71875 
Q 8.5 49.078125 8.5 55.328125 
Q 8.5 64.0625 14.71875 69.140625 
Q 20.953125 74.21875 31.78125 74.21875 
Q 42.671875 74.21875 48.875 69.140625 
Q 55.078125 64.0625 55.078125 55.328125 
Q 55.078125 49.078125 51.53125 44.71875 
Q 48 40.375 41.703125 38.8125 
Q 48.828125 37.15625 52.796875 32.3125 
Q 56.78125 27.484375 56.78125 20.515625 
Q 56.78125 9.90625 50.3125 4.234375 
Q 43.84375 -1.421875 31.78125 -1.421875 
Q 19.734375 -1.421875 13.25 4.234375 
Q 6.78125 9.90625 6.78125 20.515625 
Q 6.78125 27.484375 10.78125 32.3125 
Q 14.796875 37.15625 21.921875 38.8125 
z
M 18.3125 54.390625 
Q 18.3125 48.734375 21.84375 45.5625 
Q 25.390625 42.390625 31.78125 42.390625 
Q 38.140625 42.390625 41.71875 45.5625 
Q 45.3125 48.734375 45.3125 54.390625 
Q 45.3125 60.0625 41.71875 63.234375 
Q 38.140625 66.40625 31.78125 66.40625 
Q 25.390625 66.40625 21.84375 63.234375 
Q 18.3125 60.0625 18.3125 54.390625 
z
" id="DejaVuSans-56"/>
      </defs>
      <g transform="translate(25.968125 101.888875)scale(0.08 -0.08)">
       <use xlink:href="#DejaVuSans-56"/>
       <use x="63.623047" xlink:href="#DejaVuSans-48"/>
      </g>
     </g>
    </g>
    <g id="ytick_6">
     <g id="line2d_6">
      <path clip-path="url(#p1efb745aad)" d="M 43.148125 35.2559 
L 993.078125 35.2559 
" style="fill:none;stroke:#dedede;stroke-linecap:square;"/>
     </g>
     <g id="text_14">
      <!-- 100 -->
      <g transform="translate(20.878125 38.295275)scale(0.08 -0.08)">
       <use xlink:href="#DejaVuSans-49"/>
       <use x="63.623047" xlink:href="#DejaVuSans-48"/>
       <use x="127.246094" xlink:href="#DejaVuSans-48"/>
      </g>
     </g>
    </g>
    <g id="text_15">
     <!-- Read percent -->
     <defs>
      <path d="M 44.390625 34.1875 
Q 47.5625 33.109375 50.5625 29.59375 
Q 53.5625 26.078125 56.59375 19.921875 
L 66.609375 0 
L 56 0 
L 46.6875 18.703125 
Q 43.0625 26.03125 39.671875 28.421875 
Q 36.28125 30.8125 30.421875 30.8125 
L 19.671875 30.8125 
L 19.671875 0 
L 9.8125 0 
L 9.8125 72.90625 
L 32.078125 72.90625 
Q 44.578125 72.90625 50.734375 67.671875 
Q 56.890625 62.453125 56.890625 51.90625 
Q 56.890625 45.015625 53.6875 40.46875 
Q 50.484375 35.9375 44.390625 34.1875 
z
M 19.671875 64.796875 
L 19.671875 38.921875 
L 32.078125 38.921875 
Q 39.203125 38.921875 42.84375 42.21875 
Q 46.484375 45.515625 46.484375 51.90625 
Q 46.484375 58.296875 42.84375 61.546875 
Q 39.203125 64.796875 32.078125 64.796875 
z
" id="DejaVuSans-82"/>
      <path d="M 45.40625 46.390625 
L 45.40625 75.984375 
L 54.390625 75.984375 
L 54.390625 0 
L 45.40625 0 
L 45.40625 8.203125 
Q 42.578125 3.328125 38.25 0.953125 
Q 33.9375 -1.421875 27.875 -1.421875 
Q 17.96875 -1.421875 11.734375 6.484375 
Q 5.515625 14.40625 5.515625 27.296875 
Q 5.515625 40.1875 11.734375 48.09375 
Q 17.96875 56 27.875 56 
Q 33.9375 56 38.25 53.625 
Q 42.578125 51.265625 45.40625 46.390625 
z
M 14.796875 27.296875 
Q 14.796875 17.390625 18.875 11.75 
Q 22.953125 6.109375 30.078125 6.109375 
Q 37.203125 6.109375 41.296875 11.75 
Q 45.40625 17.390625 45.40625 27.296875 
Q 45.40625 37.203125 41.296875 42.84375 
Q 37.203125 48.484375 30.078125 48.484375 
Q 22.953125 48.484375 18.875 42.84375 
Q 14.796875 37.203125 14.796875 27.296875 
z
" id="DejaVuSans-100"/>
      <path d="M 41.109375 46.296875 
Q 39.59375 47.171875 37.8125 47.578125 
Q 36.03125 48 33.890625 48 
Q 26.265625 48 22.1875 43.046875 
Q 18.109375 38.09375 18.109375 28.8125 
L 18.109375 0 
L 9.078125 0 
L 9.078125 54.6875 
L 18.109375 54.6875 
L 18.109375 46.1875 
Q 20.953125 51.171875 25.484375 53.578125 
Q 30.03125 56 36.53125 56 
Q 37.453125 56 38.578125 55.875 
Q 39.703125 55.765625 41.0625 55.515625 
z
" id="DejaVuSans-114"/>
     </defs>
     <g transform="translate(14.798437 227.874275)rotate(-90)scale(0.1 -0.1)">
      <use xlink:href="#DejaVuSans-82"/>
      <use x="69.419922" xlink:href="#DejaVuSans-101"/>
      <use x="130.943359" xlink:href="#DejaVuSans-97"/>
      <use x="192.222656" xlink:href="#DejaVuSans-100"/>
      <use x="255.699219" xlink:href="#DejaVuSans-32"/>
      <use x="287.486328" xlink:href="#DejaVuSans-112"/>
      <use x="350.962891" xlink:href="#DejaVuSans-101"/>
      <use x="412.486328" xlink:href="#DejaVuSans-114"/>
      <use x="453.568359" xlink:href="#DejaVuSans-99"/>
      <use x="508.548828" xlink:href="#DejaVuSans-101"/>
      <use x="570.072266" xlink:href="#DejaVuSans-110"/>
      <use x="633.451172" xlink:href="#DejaVuSans-116"/>
     </g>
    </g>
   </g>
   <g id="line2d_7">
    <path clip-path="url(#p1efb745aad)" d="M 86.326761 77.601461 
L 115.112519 316.591456 
L 143.898277 348.304063 
L 172.684034 352.559668 
L 201.469792 353.124539 
L 230.255549 353.206473 
L 259.041307 353.219884 
L 287.827064 353.222049 
L 316.612822 353.223027 
L 345.39858 353.222922 
L 374.184337 353.223132 
L 402.970095 353.223167 
L 431.755852 353.223551 
L 460.54161 353.223481 
L 489.327367 353.22369 
L 518.113125 353.223656 
L 546.898883 353.223656 
L 575.68464 353.223795 
L 604.470398 353.22383 
L 633.256155 353.223795 
L 662.041913 353.223795 
L 690.82767 353.223795 
L 719.613428 353.223795 
L 748.399186 353.22376 
L 777.184943 353.223865 
L 805.970701 353.223865 
L 834.756458 353.22383 
L 863.542216 353.22383 
L 892.327973 353.223865 
L 921.113731 353.223865 
L 949.899489 353.223341 
" style="fill:none;stroke:#7cb5ec;stroke-linecap:square;"/>
   </g>
   <g id="line2d_8">
    <path clip-path="url(#p1efb745aad)" d="M 86.326761 99.569489 
L 115.112519 304.292513 
L 143.898277 341.69026 
L 172.684034 350.365749 
L 201.469792 352.486313 
L 230.255549 353.04492 
L 259.041307 353.172883 
L 287.827064 353.209647 
L 316.612822 353.21985 
L 345.39858 353.222585 
L 374.184337 353.223216 
L 402.970095 353.223584 
L 431.755852 353.223532 
L 460.54161 353.223795 
L 489.327367 353.22369 
L 518.113125 353.223847 
L 546.898883 353.223742 
L 575.68464 353.223795 
L 604.470398 353.223847 
L 633.256155 353.223742 
L 662.041913 353.223742 
L 690.82767 353.223795 
L 719.613428 353.223742 
L 748.399186 353.2239 
L 777.184943 353.223847 
L 805.970701 353.223847 
L 834.756458 353.223795 
L 863.542216 353.223847 
L 892.327973 353.223795 
L 921.113731 353.2239 
L 949.899489 353.22369 
" style="fill:none;stroke:#434348;stroke-linecap:square;"/>
   </g>
   <g id="line2d_9">
    <path clip-path="url(#p1efb745aad)" d="M 86.326761 102.892219 
L 115.112519 302.700355 
L 143.898277 340.870058 
L 172.684034 349.89921 
L 201.469792 352.248635 
L 230.255549 352.920156 
L 259.041307 353.12382 
L 287.827064 353.190458 
L 316.612822 353.21168 
L 345.39858 353.219786 
L 374.184337 353.222271 
L 402.970095 353.222963 
L 431.755852 353.223289 
L 460.54161 353.223574 
L 489.327367 353.223656 
L 518.113125 353.223696 
L 546.898883 353.223656 
L 575.68464 353.223615 
L 604.470398 353.2239 
L 633.256155 353.223819 
L 662.041913 353.223859 
L 690.82767 353.2239 
L 719.613428 353.223859 
L 748.399186 353.2239 
L 777.184943 353.2239 
L 805.970701 353.223859 
L 834.756458 353.223737 
L 863.542216 353.2239 
L 892.327973 353.2239 
L 921.113731 353.2239 
L 949.899489 353.22337 
" style="fill:none;stroke:#90ed7d;stroke-linecap:square;"/>
   </g>
   <g id="line2d_10">
    <path clip-path="url(#p1efb745aad)" d="M 86.326761 93.334492 
L 115.112519 307.028474 
L 143.898277 343.998509 
L 172.684034 351.222928 
L 201.469792 352.74594 
L 230.255549 353.103833 
L 259.041307 353.189624 
L 287.827064 353.211939 
L 316.612822 353.220394 
L 345.39858 353.221466 
L 374.184337 353.222704 
L 402.970095 353.223075 
L 431.755852 353.223364 
L 460.54161 353.223446 
L 489.327367 353.223075 
L 518.113125 353.223694 
L 546.898883 353.223611 
L 575.68464 353.223611 
L 604.470398 353.223735 
L 633.256155 353.223653 
L 662.041913 353.223735 
L 690.82767 353.223694 
L 719.613428 353.223735 
L 748.399186 353.223735 
L 777.184943 353.223818 
L 805.970701 353.223859 
L 834.756458 353.223859 
L 863.542216 353.223859 
L 892.327973 353.223859 
L 921.113731 353.223776 
L 949.899489 353.223405 
" style="fill:none;stroke:#f7a35c;stroke-linecap:square;"/>
   </g>
   <g id="line2d_11">
    <path clip-path="url(#p1efb745aad)" d="M 86.326761 85.460103 
L 115.112519 311.482946 
L 143.898277 346.262282 
L 172.684034 352.030757 
L 201.469792 352.999256 
L 230.255549 353.178001 
L 259.041307 353.211133 
L 287.827064 353.217496 
L 316.612822 353.220917 
L 345.39858 353.221195 
L 374.184337 353.222229 
L 402.970095 353.221911 
L 431.755852 353.222309 
L 460.54161 353.222826 
L 489.327367 353.223105 
L 518.113125 353.223303 
L 546.898883 353.223303 
L 575.68464 353.223502 
L 604.470398 353.223184 
L 633.256155 353.223741 
L 662.041913 353.223622 
L 690.82767 353.223582 
L 719.613428 353.223502 
L 748.399186 353.223701 
L 777.184943 353.223582 
L 805.970701 353.223701 
L 834.756458 353.223661 
L 863.542216 353.223701 
L 892.327973 353.223781 
L 921.113731 353.2239 
L 949.899489 353.222667 
" style="fill:none;stroke:#8085e9;stroke-linecap:square;"/>
   </g>
   <g id="line2d_12">
    <path clip-path="url(#p1efb745aad)" d="M 86.326761 146.324201 
L 115.112519 291.191922 
L 143.898277 327.511474 
L 172.684034 341.266997 
L 201.469792 347.420332 
L 230.255549 350.359796 
L 259.041307 351.829355 
L 287.827064 352.543797 
L 316.612822 352.897001 
L 345.39858 353.068813 
L 374.184337 353.14908 
L 402.970095 353.190411 
L 431.755852 353.208295 
L 460.54161 353.216793 
L 489.327367 353.219303 
L 518.113125 353.222007 
L 546.898883 353.222316 
L 575.68464 353.223436 
L 604.470398 353.223514 
L 633.256155 353.223745 
L 662.041913 353.22363 
L 690.82767 353.223745 
L 719.613428 353.223784 
L 748.399186 353.223745 
L 777.184943 353.223475 
L 805.970701 353.223591 
L 834.756458 353.223784 
L 863.542216 353.223823 
L 892.327973 353.223745 
L 921.113731 353.223861 
L 949.899489 353.223127 
" style="fill:none;stroke:#f15c80;stroke-linecap:square;"/>
   </g>
   <g id="line2d_13">
    <path clip-path="url(#p1efb745aad)" d="M 86.326761 96.147428 
L 115.112519 304.900463 
L 143.898277 343.218606 
L 172.684034 351.182951 
L 201.469792 352.811152 
L 230.255549 353.137416 
L 259.041307 353.208207 
L 287.827064 353.220381 
L 316.612822 353.222919 
L 345.39858 353.223438 
L 374.184337 353.223438 
L 402.970095 353.223842 
L 431.755852 353.223669 
L 460.54161 353.223785 
L 489.327367 353.2239 
L 518.113125 353.223785 
L 546.898883 353.223727 
L 575.68464 353.2239 
L 604.470398 353.223785 
L 633.256155 353.223842 
L 662.041913 353.223727 
L 690.82767 353.2239 
L 719.613428 353.223842 
L 748.399186 353.223842 
L 777.184943 353.2239 
L 805.970701 353.223842 
L 834.756458 353.2239 
L 863.542216 353.2239 
L 892.327973 353.2239 
L 921.113731 353.2239 
L 949.899489 353.223612 
" style="fill:none;stroke:#e4d354;stroke-linecap:square;"/>
   </g>
   <g id="line2d_14">
    <path clip-path="url(#p1efb745aad)" d="M 86.326761 99.485857 
L 115.112519 304.024244 
L 143.898277 342.139871 
L 172.684034 350.427365 
L 201.469792 352.433497 
L 230.255549 352.985029 
L 259.041307 353.147316 
L 287.827064 353.197829 
L 316.612822 353.213619 
L 345.39858 353.220176 
L 374.184337 353.222852 
L 402.970095 353.223008 
L 431.755852 353.223706 
L 460.54161 353.223706 
L 489.327367 353.223667 
L 518.113125 353.223706 
L 546.898883 353.223706 
L 575.68464 353.223667 
L 604.470398 353.223784 
L 633.256155 353.223861 
L 662.041913 353.223784 
L 690.82767 353.223861 
L 719.613428 353.2239 
L 748.399186 353.2239 
L 777.184943 353.2239 
L 805.970701 353.2239 
L 834.756458 353.223861 
L 863.542216 353.2239 
L 892.327973 353.223861 
L 921.113731 353.2239 
L 949.899489 353.223667 
" style="fill:none;stroke:#2b908f;stroke-linecap:square;"/>
   </g>
   <g id="line2d_15">
    <path clip-path="url(#p1efb745aad)" d="M 86.326761 104.32873 
L 115.112519 301.442153 
L 143.898277 340.729031 
L 172.684034 349.897384 
L 201.469792 352.234088 
L 230.255549 352.913279 
L 259.041307 353.120029 
L 287.827064 353.184619 
L 316.612822 353.210463 
L 345.39858 353.218823 
L 374.184337 353.221877 
L 402.970095 353.222602 
L 431.755852 353.223327 
L 460.54161 353.223175 
L 489.327367 353.223595 
L 518.113125 353.223595 
L 546.898883 353.223633 
L 575.68464 353.223709 
L 604.470398 353.223824 
L 633.256155 353.223709 
L 662.041913 353.223709 
L 690.82767 353.223633 
L 719.613428 353.223747 
L 748.399186 353.223595 
L 777.184943 353.223824 
L 805.970701 353.223862 
L 834.756458 353.223824 
L 863.542216 353.223862 
L 892.327973 353.2239 
L 921.113731 353.223785 
L 949.899489 353.223518 
" style="fill:none;stroke:#f45b5b;stroke-linecap:square;"/>
   </g>
   <g id="line2d_16">
    <path clip-path="url(#p1efb745aad)" d="M 86.326761 89.408099 
L 115.112519 308.841144 
L 143.898277 345.278574 
L 172.684034 351.766575 
L 201.469792 352.939783 
L 230.255549 353.162859 
L 259.041307 353.210229 
L 287.827064 353.220346 
L 316.612822 353.222806 
L 345.39858 353.22349 
L 374.184337 353.223627 
L 402.970095 353.223456 
L 431.755852 353.223695 
L 460.54161 353.223695 
L 489.327367 353.223695 
L 518.113125 353.223797 
L 546.898883 353.223797 
L 575.68464 353.223729 
L 604.470398 353.223797 
L 633.256155 353.223832 
L 662.041913 353.223866 
L 690.82767 353.223763 
L 719.613428 353.223729 
L 748.399186 353.2239 
L 777.184943 353.223866 
L 805.970701 353.223866 
L 834.756458 353.223763 
L 863.542216 353.223832 
L 892.327973 353.223866 
L 921.113731 353.223832 
L 949.899489 353.223592 
" style="fill:none;stroke:#91e8e1;stroke-linecap:square;"/>
   </g>
   <g id="line2d_17">
    <path clip-path="url(#p1efb745aad)" d="M 86.326761 112.65255 
L 115.112519 295.965551 
L 143.898277 338.272176 
L 172.684034 349.367276 
L 201.469792 352.240068 
L 230.255549 352.973404 
L 259.041307 353.160108 
L 287.827064 353.207307 
L 316.612822 353.218697 
L 345.39858 353.221237 
L 374.184337 353.222794 
L 402.970095 353.223081 
L 431.755852 353.22304 
L 460.54161 353.223367 
L 489.327367 353.223367 
L 518.113125 353.223408 
L 546.898883 353.223613 
L 575.68464 353.223613 
L 604.470398 353.223572 
L 633.256155 353.223736 
L 662.041913 353.223695 
L 690.82767 353.223818 
L 719.613428 353.223736 
L 748.399186 353.223777 
L 777.184943 353.223777 
L 805.970701 353.2239 
L 834.756458 353.223777 
L 863.542216 353.223818 
L 892.327973 353.223818 
L 921.113731 353.223818 
L 949.899489 353.222999 
" style="fill:none;stroke:#7cb5ec;stroke-linecap:square;"/>
   </g>
   <g id="line2d_18">
    <path clip-path="url(#p1efb745aad)" d="M 86.326761 75.083897 
L 115.112519 318.248213 
L 143.898277 348.957159 
L 172.684034 352.719205 
L 201.469792 353.162469 
L 230.255549 353.21444 
L 259.041307 353.221525 
L 287.827064 353.222531 
L 316.612822 353.222894 
L 345.39858 353.222934 
L 374.184337 353.223095 
L 402.970095 353.223216 
L 431.755852 353.223739 
L 460.54161 353.223618 
L 489.327367 353.223538 
L 518.113125 353.223739 
L 546.898883 353.223739 
L 575.68464 353.223658 
L 604.470398 353.223819 
L 633.256155 353.223618 
L 662.041913 353.223739 
L 690.82767 353.223779 
L 719.613428 353.22386 
L 748.399186 353.2239 
L 777.184943 353.2239 
L 805.970701 353.223819 
L 834.756458 353.223819 
L 863.542216 353.2239 
L 892.327973 353.2239 
L 921.113731 353.22386 
L 949.899489 353.223377 
" style="fill:none;stroke:#434348;stroke-linecap:square;"/>
   </g>
   <g id="line2d_19">
    <path clip-path="url(#p1efb745aad)" d="M 86.326761 77.90272 
L 115.112519 316.252723 
L 143.898277 348.30584 
L 172.684034 352.593132 
L 201.469792 353.135996 
L 230.255549 353.207197 
L 259.041307 353.218506 
L 287.827064 353.220515 
L 316.612822 353.22137 
L 345.39858 353.221928 
L 374.184337 353.222524 
L 402.970095 353.222896 
L 431.755852 353.223007 
L 460.54161 353.223044 
L 489.327367 353.223193 
L 518.113125 353.223454 
L 546.898883 353.223714 
L 575.68464 353.223565 
L 604.470398 353.223491 
L 633.256155 353.223565 
L 662.041913 353.22364 
L 690.82767 353.223714 
L 719.613428 353.223751 
L 748.399186 353.223565 
L 777.184943 353.223751 
L 805.970701 353.223714 
L 834.756458 353.223826 
L 863.542216 353.223826 
L 892.327973 353.223788 
L 921.113731 353.223788 
L 949.899489 353.223156 
" style="fill:none;stroke:#90ed7d;stroke-linecap:square;"/>
   </g>
   <g id="line2d_20">
    <path clip-path="url(#p1efb745aad)" d="M 86.326761 134.322289 
L 115.112519 292.375519 
L 143.898277 330.700923 
L 172.684034 343.987265 
L 201.469792 349.401138 
L 230.255549 351.649122 
L 259.041307 352.584396 
L 287.827064 352.969805 
L 316.612822 353.12508 
L 345.39858 353.184424 
L 374.184337 353.209678 
L 402.970095 353.217392 
L 431.755852 353.221487 
L 460.54161 353.222736 
L 489.327367 353.223383 
L 518.113125 353.223254 
L 546.898883 353.223512 
L 575.68464 353.22334 
L 604.470398 353.223728 
L 633.256155 353.223641 
L 662.041913 353.223771 
L 690.82767 353.223771 
L 719.613428 353.223685 
L 748.399186 353.223814 
L 777.184943 353.223771 
L 805.970701 353.223641 
L 834.756458 353.223728 
L 863.542216 353.2239 
L 892.327973 353.223814 
L 921.113731 353.223857 
L 949.899489 353.223038 
" style="fill:none;stroke:#f7a35c;stroke-linecap:square;"/>
   </g>
   <g id="line2d_21">
    <path clip-path="url(#p1efb745aad)" d="M 86.326761 146.053106 
L 115.112519 296.575538 
L 143.898277 330.021898 
L 172.684034 341.34459 
L 201.469792 346.175517 
L 230.255549 348.855765 
L 259.041307 350.416029 
L 287.827064 351.410019 
L 316.612822 352.081637 
L 345.39858 352.50563 
L 374.184337 352.768961 
L 402.970095 352.941141 
L 431.755852 353.056432 
L 460.54161 353.120359 
L 489.327367 353.160205 
L 518.113125 353.185567 
L 546.898883 353.201272 
L 575.68464 353.208951 
L 604.470398 353.217443 
L 633.256155 353.218258 
L 662.041913 353.220992 
L 690.82767 353.222271 
L 719.613428 353.223202 
L 748.399186 353.22326 
L 777.184943 353.223144 
L 805.970701 353.223551 
L 834.756458 353.223551 
L 863.542216 353.223725 
L 892.327973 353.2239 
L 921.113731 353.223725 
L 949.899489 353.22326 
" style="fill:none;stroke:#8085e9;stroke-linecap:square;"/>
   </g>
   <g id="line2d_22">
    <path clip-path="url(#p1efb745aad)" d="M 86.326761 105.699384 
L 115.112519 301.594947 
L 143.898277 340.064817 
L 172.684034 349.422022 
L 201.469792 352.01372 
L 230.255549 352.818389 
L 259.041307 353.079522 
L 287.827064 353.171744 
L 316.612822 353.201661 
L 345.39858 353.216266 
L 374.184337 353.22037 
L 402.970095 353.2224 
L 431.755852 353.222664 
L 460.54161 353.223062 
L 489.327367 353.223326 
L 518.113125 353.223503 
L 546.898883 353.223591 
L 575.68464 353.223591 
L 604.470398 353.223459 
L 633.256155 353.223723 
L 662.041913 353.223768 
L 690.82767 353.223723 
L 719.613428 353.223723 
L 748.399186 353.223768 
L 777.184943 353.223679 
L 805.970701 353.223856 
L 834.756458 353.223812 
L 863.542216 353.2239 
L 892.327973 353.223723 
L 921.113731 353.223856 
L 949.899489 353.222929 
" style="fill:none;stroke:#f15c80;stroke-linecap:square;"/>
   </g>
   <g id="line2d_23">
    <path clip-path="url(#p1efb745aad)" d="M 86.326761 90.58575 
L 115.112519 307.882452 
L 143.898277 345.089185 
L 172.684034 351.737474 
L 201.469792 352.939254 
L 230.255549 353.163665 
L 259.041307 353.209615 
L 287.827064 353.21958 
L 316.612822 353.222676 
L 345.39858 353.223288 
L 374.184337 353.223696 
L 402.970095 353.223594 
L 431.755852 353.223798 
L 460.54161 353.223764 
L 489.327367 353.223764 
L 518.113125 353.223798 
L 546.898883 353.223832 
L 575.68464 353.2239 
L 604.470398 353.223798 
L 633.256155 353.223798 
L 662.041913 353.223832 
L 690.82767 353.2239 
L 719.613428 353.223866 
L 748.399186 353.223832 
L 777.184943 353.223866 
L 805.970701 353.223832 
L 834.756458 353.2239 
L 863.542216 353.223866 
L 892.327973 353.2239 
L 921.113731 353.223866 
L 949.899489 353.22356 
" style="fill:none;stroke:#e4d354;stroke-linecap:square;"/>
   </g>
   <g id="line2d_24">
    <path clip-path="url(#p1efb745aad)" d="M 86.326761 89.469547 
L 115.112519 308.756595 
L 143.898277 345.322406 
L 172.684034 351.767278 
L 201.469792 352.938468 
L 230.255549 353.162745 
L 259.041307 353.207276 
L 287.827064 353.218592 
L 316.612822 353.220118 
L 345.39858 353.22177 
L 374.184337 353.221675 
L 402.970095 353.222184 
L 431.755852 353.22266 
L 460.54161 353.222978 
L 489.327367 353.223169 
L 518.113125 353.223455 
L 546.898883 353.223391 
L 575.68464 353.223264 
L 604.470398 353.223455 
L 633.256155 353.223455 
L 662.041913 353.223487 
L 690.82767 353.223614 
L 719.613428 353.22355 
L 748.399186 353.223582 
L 777.184943 353.223678 
L 805.970701 353.223741 
L 834.756458 353.223709 
L 863.542216 353.223836 
L 892.327973 353.223836 
L 921.113731 353.223805 
L 949.899489 353.22158 
" style="fill:none;stroke:#2b908f;stroke-linecap:square;"/>
   </g>
   <g id="line2d_25">
    <path clip-path="url(#p1efb745aad)" d="M 86.326761 77.621528 
L 115.112519 316.627512 
L 143.898277 348.233243 
L 172.684034 352.557946 
L 201.469792 353.137201 
L 230.255549 353.210722 
L 259.041307 353.219952 
L 287.827064 353.222139 
L 316.612822 353.222726 
L 345.39858 353.223046 
L 374.184337 353.222886 
L 402.970095 353.22358 
L 431.755852 353.223527 
L 460.54161 353.22342 
L 489.327367 353.223633 
L 518.113125 353.22358 
L 546.898883 353.22374 
L 575.68464 353.223847 
L 604.470398 353.223793 
L 633.256155 353.223687 
L 662.041913 353.22374 
L 690.82767 353.223793 
L 719.613428 353.2239 
L 748.399186 353.223633 
L 777.184943 353.223793 
L 805.970701 353.22374 
L 834.756458 353.223793 
L 863.542216 353.223793 
L 892.327973 353.2239 
L 921.113731 353.223687 
L 949.899489 353.22342 
" style="fill:none;stroke:#f45b5b;stroke-linecap:square;"/>
   </g>
   <g id="line2d_26">
    <path clip-path="url(#p1efb745aad)" d="M 86.326761 106.998792 
L 115.112519 300.856974 
L 143.898277 339.937611 
L 172.684034 349.32202 
L 201.469792 351.892049 
L 230.255549 352.717462 
L 259.041307 353.021094 
L 287.827064 353.14007 
L 316.612822 353.189291 
L 345.39858 353.209672 
L 374.184337 353.218363 
L 402.970095 353.220747 
L 431.755852 353.222785 
L 460.54161 353.222669 
L 489.327367 353.2234 
L 518.113125 353.223708 
L 546.898883 353.223746 
L 575.68464 353.223669 
L 604.470398 353.223785 
L 633.256155 353.223631 
L 662.041913 353.223746 
L 690.82767 353.223708 
L 719.613428 353.223746 
L 748.399186 353.223823 
L 777.184943 353.223823 
L 805.970701 353.223785 
L 834.756458 353.223862 
L 863.542216 353.223823 
L 892.327973 353.223862 
L 921.113731 353.223823 
L 949.899489 353.223362 
" style="fill:none;stroke:#91e8e1;stroke-linecap:square;"/>
   </g>
   <g id="line2d_27">
    <path clip-path="url(#p1efb745aad)" d="M 86.326761 80.185466 
L 115.112519 314.500045 
L 143.898277 347.873547 
L 172.684034 352.504682 
L 201.469792 353.122789 
L 230.255549 353.205593 
L 259.041307 353.218866 
L 287.827064 353.2214 
L 316.612822 353.222457 
L 345.39858 353.222527 
L 374.184337 353.222914 
L 402.970095 353.223055 
L 431.755852 353.223161 
L 460.54161 353.223407 
L 489.327367 353.223337 
L 518.113125 353.223689 
L 546.898883 353.223618 
L 575.68464 353.223654 
L 604.470398 353.223759 
L 633.256155 353.223794 
L 662.041913 353.223689 
L 690.82767 353.22383 
L 719.613428 353.223724 
L 748.399186 353.223689 
L 777.184943 353.223865 
L 805.970701 353.223724 
L 834.756458 353.223865 
L 863.542216 353.22383 
L 892.327973 353.22383 
L 921.113731 353.223865 
L 949.899489 353.223231 
" style="fill:none;stroke:#7cb5ec;stroke-linecap:square;"/>
   </g>
   <g id="line2d_28">
    <path clip-path="url(#p1efb745aad)" d="M 86.326761 92.481541 
L 115.112519 305.888013 
L 143.898277 345.000793 
L 172.684034 351.85481 
L 201.469792 352.995245 
L 230.255549 353.179421 
L 259.041307 353.214922 
L 287.827064 353.22077 
L 316.612822 353.222047 
L 345.39858 353.222582 
L 374.184337 353.222788 
L 402.970095 353.222994 
L 431.755852 353.223076 
L 460.54161 353.2232 
L 489.327367 353.223159 
L 518.113125 353.223241 
L 546.898883 353.223406 
L 575.68464 353.223529 
L 604.470398 353.223612 
L 633.256155 353.223571 
L 662.041913 353.223653 
L 690.82767 353.223735 
L 719.613428 353.223735 
L 748.399186 353.223735 
L 777.184943 353.223694 
L 805.970701 353.223571 
L 834.756458 353.223776 
L 863.542216 353.223859 
L 892.327973 353.223776 
L 921.113731 353.223859 
L 949.899489 353.222788 
" style="fill:none;stroke:#434348;stroke-linecap:square;"/>
   </g>
   <g id="line2d_29">
    <path clip-path="url(#p1efb745aad)" d="M 86.326761 121.199252 
L 115.112519 293.778609 
L 143.898277 335.035702 
L 172.684034 347.494901 
L 201.469792 351.440747 
L 230.255549 352.678327 
L 259.041307 353.058636 
L 287.827064 353.172785 
L 316.612822 353.206606 
L 345.39858 353.217273 
L 374.184337 353.221233 
L 402.970095 353.222163 
L 431.755852 353.222769 
L 460.54161 353.223132 
L 489.327367 353.223213 
L 518.113125 353.223294 
L 546.898883 353.223456 
L 575.68464 353.223779 
L 604.470398 353.223375 
L 633.256155 353.223819 
L 662.041913 353.223617 
L 690.82767 353.223698 
L 719.613428 353.223577 
L 748.399186 353.223738 
L 777.184943 353.223658 
L 805.970701 353.223698 
L 834.756458 353.223819 
L 863.542216 353.223779 
L 892.327973 353.223738 
L 921.113731 353.223779 
L 949.899489 353.222728 
" style="fill:none;stroke:#90ed7d;stroke-linecap:square;"/>
   </g>
   <g id="line2d_30">
    <path clip-path="url(#p1efb745aad)" d="M 86.326761 101.758938 
L 115.112519 302.758378 
L 143.898277 341.493405 
L 172.684034 350.19623 
L 201.469792 352.35124 
L 230.255549 352.953985 
L 259.041307 353.134928 
L 287.827064 353.19413 
L 316.612822 353.214864 
L 345.39858 353.220151 
L 374.184337 353.2224 
L 402.970095 353.22315 
L 431.755852 353.223413 
L 460.54161 353.223488 
L 489.327367 353.223675 
L 518.113125 353.223563 
L 546.898883 353.223638 
L 575.68464 353.22375 
L 604.470398 353.223825 
L 633.256155 353.22375 
L 662.041913 353.223863 
L 690.82767 353.223863 
L 719.613428 353.223825 
L 748.399186 353.223788 
L 777.184943 353.223863 
L 805.970701 353.22375 
L 834.756458 353.2239 
L 863.542216 353.223825 
L 892.327973 353.223825 
L 921.113731 353.223863 
L 949.899489 353.223638 
" style="fill:none;stroke:#f7a35c;stroke-linecap:square;"/>
   </g>
   <g id="line2d_31">
    <path clip-path="url(#p1efb745aad)" d="M 86.326761 80.26033 
L 115.112519 314.191308 
L 143.898277 348.052036 
L 172.684034 352.559995 
L 201.469792 353.129591 
L 230.255549 353.206822 
L 259.041307 353.218366 
L 287.827064 353.220437 
L 316.612822 353.221273 
L 345.39858 353.22175 
L 374.184337 353.221949 
L 402.970095 353.222905 
L 431.755852 353.222905 
L 460.54161 353.223064 
L 489.327367 353.223183 
L 518.113125 353.223263 
L 546.898883 353.223343 
L 575.68464 353.223462 
L 604.470398 353.223621 
L 633.256155 353.223741 
L 662.041913 353.223741 
L 690.82767 353.223661 
L 719.613428 353.223582 
L 748.399186 353.223741 
L 777.184943 353.223781 
L 805.970701 353.223741 
L 834.756458 353.22382 
L 863.542216 353.223701 
L 892.327973 353.223741 
L 921.113731 353.223781 
L 949.899489 353.222268 
" style="fill:none;stroke:#8085e9;stroke-linecap:square;"/>
   </g>
   <g id="line2d_32">
    <path clip-path="url(#p1efb745aad)" d="M 86.326761 111.540346 
L 115.112519 297.64093 
L 143.898277 338.862349 
L 172.684034 349.04275 
L 201.469792 351.861203 
L 230.255549 352.73121 
L 259.041307 353.041116 
L 287.827064 353.152549 
L 316.612822 353.195675 
L 345.39858 353.212545 
L 374.184337 353.219423 
L 402.970095 353.2215 
L 431.755852 353.223005 
L 460.54161 353.223542 
L 489.327367 353.223721 
L 518.113125 353.223721 
L 546.898883 353.223649 
L 575.68464 353.223721 
L 604.470398 353.223828 
L 633.256155 353.223757 
L 662.041913 353.2239 
L 690.82767 353.223828 
L 719.613428 353.223828 
L 748.399186 353.223864 
L 777.184943 353.2239 
L 805.970701 353.2239 
L 834.756458 353.223793 
L 863.542216 353.223864 
L 892.327973 353.2239 
L 921.113731 353.2239 
L 949.899489 353.223685 
" style="fill:none;stroke:#f15c80;stroke-linecap:square;"/>
   </g>
   <g id="line2d_33">
    <path clip-path="url(#p1efb745aad)" d="M 86.326761 82.423434 
L 115.112519 312.889452 
L 143.898277 347.361257 
L 172.684034 352.409332 
L 201.469792 353.110305 
L 230.255549 353.202882 
L 259.041307 353.218914 
L 287.827064 353.22043 
L 316.612822 353.222238 
L 345.39858 353.222336 
L 374.184337 353.222825 
L 402.970095 353.222434 
L 431.755852 353.22302 
L 460.54161 353.223362 
L 489.327367 353.223265 
L 518.113125 353.223558 
L 546.898883 353.223558 
L 575.68464 353.223558 
L 604.470398 353.223607 
L 633.256155 353.223509 
L 662.041913 353.223656 
L 690.82767 353.223753 
L 719.613428 353.223656 
L 748.399186 353.223753 
L 777.184943 353.223753 
L 805.970701 353.223753 
L 834.756458 353.223656 
L 863.542216 353.223802 
L 892.327973 353.223802 
L 921.113731 353.223851 
L 949.899489 353.222189 
" style="fill:none;stroke:#e4d354;stroke-linecap:square;"/>
   </g>
   <g id="line2d_34">
    <path clip-path="url(#p1efb745aad)" d="M 86.326761 85.49105 
L 115.112519 312.754562 
L 143.898277 345.351231 
L 172.684034 351.681613 
L 201.469792 352.940854 
L 230.255549 353.170014 
L 259.041307 353.212945 
L 287.827064 353.221779 
L 316.612822 353.223437 
L 345.39858 353.223746 
L 374.184337 353.223861 
L 402.970095 353.223823 
L 431.755852 353.2239 
L 460.54161 353.223861 
L 489.327367 353.2239 
L 518.113125 353.223861 
L 546.898883 353.2239 
L 575.68464 353.223861 
L 604.470398 353.2239 
L 633.256155 353.2239 
L 662.041913 353.2239 
L 690.82767 353.2239 
L 719.613428 353.2239 
L 748.399186 353.2239 
L 777.184943 353.2239 
L 805.970701 353.2239 
L 834.756458 353.2239 
L 863.542216 353.2239 
L 892.327973 353.2239 
L 921.113731 353.2239 
L 949.899489 353.2239 
" style="fill:none;stroke:#2b908f;stroke-linecap:square;"/>
   </g>
   <g id="line2d_35">
    <path clip-path="url(#p1efb745aad)" d="M 86.326761 81.445565 
L 115.112519 314.371796 
L 143.898277 347.01537 
L 172.684034 352.265412 
L 201.469792 353.08031 
L 230.255549 353.200849 
L 259.041307 353.220718 
L 287.827064 353.22348 
L 316.612822 353.22372 
L 345.39858 353.22384 
L 374.184337 353.2239 
L 402.970095 353.2239 
L 431.755852 353.2239 
L 460.54161 353.22384 
L 489.327367 353.2239 
L 518.113125 353.2239 
L 546.898883 353.2239 
L 575.68464 353.2239 
L 604.470398 353.2239 
L 633.256155 353.2239 
L 662.041913 353.2239 
L 690.82767 353.2239 
L 719.613428 353.2239 
L 748.399186 353.2239 
L 777.184943 353.2239 
L 805.970701 353.2239 
L 834.756458 353.2239 
L 863.542216 353.2239 
L 892.327973 353.2239 
L 921.113731 353.2239 
L 949.899489 353.2239 
" style="fill:none;stroke:#f45b5b;stroke-linecap:square;"/>
   </g>
   <g id="line2d_36">
    <path clip-path="url(#p1efb745aad)" d="M 86.326761 238.540209 
L 115.112519 306.933873 
L 143.898277 313.900207 
L 172.684034 320.134125 
L 201.469792 326.914427 
L 230.255549 333.439362 
L 259.041307 339.114317 
L 287.827064 343.663526 
L 316.612822 347.088443 
L 345.39858 349.446925 
L 374.184337 351 
L 402.970095 351.978193 
L 431.755852 352.533815 
L 460.54161 352.859146 
L 489.327367 353.030635 
L 518.113125 353.13051 
L 546.898883 353.175947 
L 575.68464 353.199256 
L 604.470398 353.212501 
L 633.256155 353.219065 
L 662.041913 353.222053 
L 690.82767 353.222839 
L 719.613428 353.223271 
L 748.399186 353.223586 
L 777.184943 353.223703 
L 805.970701 353.223743 
L 834.756458 353.223821 
L 863.542216 353.223861 
L 892.327973 353.2239 
L 921.113731 353.2239 
L 949.899489 353.223743 
" style="fill:none;stroke:#91e8e1;stroke-linecap:square;"/>
   </g>
   <g id="line2d_37">
    <path clip-path="url(#p1efb745aad)" d="M 86.326761 67.868518 
L 115.112519 324.587962 
L 143.898277 349.695017 
L 172.684034 352.826889 
L 201.469792 353.17943 
L 230.255549 353.219002 
L 259.041307 353.223384 
L 287.827064 353.223642 
L 316.612822 353.2239 
L 345.39858 353.2239 
L 374.184337 353.223771 
L 402.970095 353.223771 
L 431.755852 353.2239 
L 460.54161 353.223771 
L 489.327367 353.2239 
L 518.113125 353.2239 
L 546.898883 353.2239 
L 575.68464 353.2239 
L 604.470398 353.2239 
L 633.256155 353.2239 
L 662.041913 353.2239 
L 690.82767 353.2239 
L 719.613428 353.2239 
L 748.399186 353.2239 
L 777.184943 353.2239 
L 805.970701 353.2239 
L 834.756458 353.2239 
L 863.542216 353.2239 
L 892.327973 353.2239 
L 921.113731 353.2239 
L 949.899489 353.223642 
" style="fill:none;stroke:#7cb5ec;stroke-linecap:square;"/>
   </g>
   <g id="line2d_38">
    <path clip-path="url(#p1efb745aad)" d="M 86.326761 98.328136 
L 115.112519 304.10318 
L 143.898277 342.362875 
L 172.684034 350.811926 
L 201.469792 352.689777 
L 230.255549 353.109653 
L 259.041307 353.200266 
L 287.827064 353.218998 
L 316.612822 353.22278 
L 345.39858 353.22369 
L 374.184337 353.22376 
L 402.970095 353.223865 
L 431.755852 353.2239 
L 460.54161 353.2239 
L 489.327367 353.2239 
L 518.113125 353.2239 
L 546.898883 353.223865 
L 575.68464 353.2239 
L 604.470398 353.2239 
L 633.256155 353.2239 
L 662.041913 353.2239 
L 690.82767 353.2239 
L 719.613428 353.2239 
L 748.399186 353.2239 
L 777.184943 353.2239 
L 805.970701 353.2239 
L 834.756458 353.2239 
L 863.542216 353.2239 
L 892.327973 353.223865 
L 921.113731 353.2239 
L 949.899489 353.223865 
" style="fill:none;stroke:#434348;stroke-linecap:square;"/>
   </g>
   <g id="line2d_39">
    <path clip-path="url(#p1efb745aad)" d="M 86.326761 86.41608 
L 115.112519 310.686312 
L 143.898277 346.026819 
L 172.684034 352.022407 
L 201.469792 353.03675 
L 230.255549 353.19313 
L 259.041307 353.219046 
L 287.827064 353.223017 
L 316.612822 353.22382 
L 345.39858 353.22386 
L 374.184337 353.22374 
L 402.970095 353.2239 
L 431.755852 353.22386 
L 460.54161 353.22386 
L 489.327367 353.2239 
L 518.113125 353.2239 
L 546.898883 353.2239 
L 575.68464 353.2239 
L 604.470398 353.2239 
L 633.256155 353.2239 
L 662.041913 353.2239 
L 690.82767 353.2239 
L 719.613428 353.2239 
L 748.399186 353.2239 
L 777.184943 353.2239 
L 805.970701 353.2239 
L 834.756458 353.2239 
L 863.542216 353.2239 
L 892.327973 353.2239 
L 921.113731 353.2239 
L 949.899489 353.2239 
" style="fill:none;stroke:#90ed7d;stroke-linecap:square;"/>
   </g>
   <g id="line2d_40">
    <path clip-path="url(#p1efb745aad)" d="M 86.326761 60.260054 
L 115.112519 330.680848 
L 143.898277 351.003337 
L 172.684034 353.004384 
L 201.469792 353.207082 
L 230.255549 353.221272 
L 259.041307 353.223725 
L 287.827064 353.2239 
L 316.612822 353.2239 
L 345.39858 353.22355 
L 374.184337 353.2239 
L 402.970095 353.2239 
L 431.755852 353.223725 
L 460.54161 353.2239 
L 489.327367 353.223725 
L 518.113125 353.2239 
L 546.898883 353.2239 
L 575.68464 353.2239 
L 604.470398 353.2239 
L 633.256155 353.2239 
L 662.041913 353.22355 
L 690.82767 353.2239 
L 719.613428 353.2239 
L 748.399186 353.2239 
L 777.184943 353.2239 
L 805.970701 353.2239 
L 834.756458 353.2239 
L 863.542216 353.2239 
L 892.327973 353.2239 
L 921.113731 353.2239 
L 949.899489 353.22355 
" style="fill:none;stroke:#f7a35c;stroke-linecap:square;"/>
   </g>
   <g id="line2d_41">
    <path clip-path="url(#p1efb745aad)" d="M 86.326761 57.020278 
L 115.112519 333.527561 
L 143.898277 351.338906 
L 172.684034 353.066482 
L 201.469792 353.209256 
L 230.255549 353.221337 
L 259.041307 353.222436 
L 287.827064 353.222436 
L 316.612822 353.223168 
L 345.39858 353.222802 
L 374.184337 353.223534 
L 402.970095 353.2239 
L 431.755852 353.223534 
L 460.54161 353.223168 
L 489.327367 353.2239 
L 518.113125 353.223534 
L 546.898883 353.2239 
L 575.68464 353.2239 
L 604.470398 353.2239 
L 633.256155 353.223534 
L 662.041913 353.2239 
L 690.82767 353.2239 
L 719.613428 353.2239 
L 748.399186 353.223168 
L 777.184943 353.2239 
L 805.970701 353.2239 
L 834.756458 353.2239 
L 863.542216 353.2239 
L 892.327973 353.2239 
L 921.113731 353.2239 
L 949.899489 353.223168 
" style="fill:none;stroke:#8085e9;stroke-linecap:square;"/>
   </g>
   <g id="line2d_42">
    <path clip-path="url(#p1efb745aad)" d="M 86.326761 120.949255 
L 115.112519 291.477025 
L 143.898277 335.608586 
L 172.684034 348.48072 
L 201.469792 352.021272 
L 230.255549 352.930624 
L 259.041307 353.154422 
L 287.827064 353.207033 
L 316.612822 353.220253 
L 345.39858 353.222613 
L 374.184337 353.223659 
L 402.970095 353.223712 
L 431.755852 353.223712 
L 460.54161 353.223846 
L 489.327367 353.223873 
L 518.113125 353.223846 
L 546.898883 353.2239 
L 575.68464 353.2239 
L 604.470398 353.2239 
L 633.256155 353.2239 
L 662.041913 353.2239 
L 690.82767 353.2239 
L 719.613428 353.2239 
L 748.399186 353.2239 
L 777.184943 353.2239 
L 805.970701 353.223846 
L 834.756458 353.2239 
L 863.542216 353.2239 
L 892.327973 353.2239 
L 921.113731 353.2239 
L 949.899489 353.2239 
" style="fill:none;stroke:#f15c80;stroke-linecap:square;"/>
   </g>
   <g id="line2d_43">
    <path clip-path="url(#p1efb745aad)" d="M 86.326761 96.733283 
L 115.112519 305.942175 
L 143.898277 342.200558 
L 172.684034 350.726378 
L 201.469792 352.692776 
L 230.255549 353.109729 
L 259.041307 353.200439 
L 287.827064 353.219567 
L 316.612822 353.222563 
L 345.39858 353.223716 
L 374.184337 353.223854 
L 402.970095 353.2239 
L 431.755852 353.223854 
L 460.54161 353.223808 
L 489.327367 353.2239 
L 518.113125 353.2239 
L 546.898883 353.2239 
L 575.68464 353.2239 
L 604.470398 353.2239 
L 633.256155 353.2239 
L 662.041913 353.2239 
L 690.82767 353.2239 
L 719.613428 353.2239 
L 748.399186 353.2239 
L 777.184943 353.2239 
L 805.970701 353.2239 
L 834.756458 353.2239 
L 863.542216 353.2239 
L 892.327973 353.2239 
L 921.113731 353.2239 
L 949.899489 353.2239 
" style="fill:none;stroke:#e4d354;stroke-linecap:square;"/>
   </g>
   <g id="line2d_44">
    <path clip-path="url(#p1efb745aad)" d="M 86.326761 119.216772 
L 115.112519 292.366802 
L 143.898277 336.187015 
L 172.684034 348.671451 
L 201.469792 352.07502 
L 230.255549 352.943976 
L 259.041307 353.159449 
L 287.827064 353.207475 
L 316.612822 353.220389 
L 345.39858 353.223237 
L 374.184337 353.223705 
L 402.970095 353.223783 
L 431.755852 353.223822 
L 460.54161 353.2239 
L 489.327367 353.223822 
L 518.113125 353.2239 
L 546.898883 353.223861 
L 575.68464 353.2239 
L 604.470398 353.2239 
L 633.256155 353.223861 
L 662.041913 353.2239 
L 690.82767 353.2239 
L 719.613428 353.2239 
L 748.399186 353.2239 
L 777.184943 353.2239 
L 805.970701 353.2239 
L 834.756458 353.2239 
L 863.542216 353.2239 
L 892.327973 353.223861 
L 921.113731 353.2239 
L 949.899489 353.2239 
" style="fill:none;stroke:#2b908f;stroke-linecap:square;"/>
   </g>
   <g id="line2d_45">
    <path clip-path="url(#p1efb745aad)" d="M 86.326761 89.485753 
L 115.112519 308.318996 
L 143.898277 345.452536 
L 172.684034 351.924095 
L 201.469792 353.011977 
L 230.255549 353.189252 
L 259.041307 353.218235 
L 287.827064 353.222956 
L 316.612822 353.223671 
L 345.39858 353.223843 
L 374.184337 353.223871 
L 402.970095 353.223814 
L 431.755852 353.2239 
L 460.54161 353.223843 
L 489.327367 353.2239 
L 518.113125 353.223871 
L 546.898883 353.2239 
L 575.68464 353.2239 
L 604.470398 353.2239 
L 633.256155 353.2239 
L 662.041913 353.2239 
L 690.82767 353.2239 
L 719.613428 353.2239 
L 748.399186 353.2239 
L 777.184943 353.2239 
L 805.970701 353.2239 
L 834.756458 353.2239 
L 863.542216 353.2239 
L 892.327973 353.2239 
L 921.113731 353.2239 
L 949.899489 353.223786 
" style="fill:none;stroke:#f45b5b;stroke-linecap:square;"/>
   </g>
   <g id="line2d_46">
    <path clip-path="url(#p1efb745aad)" d="M 86.326761 72.335789 
L 115.112519 320.902433 
L 143.898277 349.05838 
L 172.684034 352.705346 
L 201.469792 353.159007 
L 230.255549 353.215913 
L 259.041307 353.223019 
L 287.827064 353.223724 
L 316.612822 353.223783 
L 345.39858 353.2239 
L 374.184337 353.2239 
L 402.970095 353.223841 
L 431.755852 353.223841 
L 460.54161 353.2239 
L 489.327367 353.2239 
L 518.113125 353.223841 
L 546.898883 353.223841 
L 575.68464 353.2239 
L 604.470398 353.2239 
L 633.256155 353.2239 
L 662.041913 353.2239 
L 690.82767 353.2239 
L 719.613428 353.2239 
L 748.399186 353.2239 
L 777.184943 353.2239 
L 805.970701 353.2239 
L 834.756458 353.2239 
L 863.542216 353.2239 
L 892.327973 353.2239 
L 921.113731 353.2239 
L 949.899489 353.223841 
" style="fill:none;stroke:#91e8e1;stroke-linecap:square;"/>
   </g>
   <g id="line2d_47">
    <path clip-path="url(#p1efb745aad)" d="M 86.326761 119.510536 
L 115.112519 292.863335 
L 143.898277 335.836207 
L 172.684034 348.41442 
L 201.469792 351.949909 
L 230.255549 352.900559 
L 259.041307 353.147779 
L 287.827064 353.205902 
L 316.612822 353.22006 
L 345.39858 353.222467 
L 374.184337 353.2239 
L 402.970095 353.223843 
L 431.755852 353.2239 
L 460.54161 353.2239 
L 489.327367 353.2239 
L 518.113125 353.2239 
L 546.898883 353.2239 
L 575.68464 353.2239 
L 604.470398 353.2239 
L 633.256155 353.2239 
L 662.041913 353.2239 
L 690.82767 353.2239 
L 719.613428 353.223843 
L 748.399186 353.2239 
L 777.184943 353.2239 
L 805.970701 353.2239 
L 834.756458 353.223843 
L 863.542216 353.2239 
L 892.327973 353.2239 
L 921.113731 353.2239 
L 949.899489 353.2239 
" style="fill:none;stroke:#7cb5ec;stroke-linecap:square;"/>
   </g>
   <g id="line2d_48">
    <path clip-path="url(#p1efb745aad)" d="M 86.326761 42.878166 
L 115.112519 346.326745 
L 143.898277 352.571042 
L 172.684034 353.1667 
L 201.469792 353.214008 
L 230.255549 353.22261 
L 259.041307 353.22304 
L 287.827064 353.22304 
L 316.612822 353.22347 
L 345.39858 353.2239 
L 374.184337 353.2239 
L 402.970095 353.22304 
L 431.755852 353.2239 
L 460.54161 353.2239 
L 489.327367 353.22347 
L 518.113125 353.2239 
L 546.898883 353.2239 
L 575.68464 353.2239 
L 604.470398 353.2239 
L 633.256155 353.2239 
L 662.041913 353.2239 
L 690.82767 353.2239 
L 719.613428 353.2239 
L 748.399186 353.2239 
L 777.184943 353.2239 
L 805.970701 353.2239 
L 834.756458 353.2239 
L 863.542216 353.2239 
L 892.327973 353.2239 
L 921.113731 353.2239 
L 949.899489 353.22347 
" style="fill:none;stroke:#434348;stroke-linecap:square;"/>
   </g>
   <g id="line2d_49">
    <path clip-path="url(#p1efb745aad)" d="M 86.326761 68.505183 
L 115.112519 323.726203 
L 143.898277 349.884635 
L 172.684034 352.855741 
L 201.469792 353.185364 
L 230.255549 353.219212 
L 259.041307 353.223244 
L 287.827064 353.223853 
L 316.612822 353.223853 
L 345.39858 353.2239 
L 374.184337 353.223853 
L 402.970095 353.2239 
L 431.755852 353.2239 
L 460.54161 353.2239 
L 489.327367 353.223853 
L 518.113125 353.2239 
L 546.898883 353.2239 
L 575.68464 353.2239 
L 604.470398 353.2239 
L 633.256155 353.2239 
L 662.041913 353.2239 
L 690.82767 353.223853 
L 719.613428 353.2239 
L 748.399186 353.2239 
L 777.184943 353.223853 
L 805.970701 353.2239 
L 834.756458 353.2239 
L 863.542216 353.2239 
L 892.327973 353.2239 
L 921.113731 353.2239 
L 949.899489 353.2239 
" style="fill:none;stroke:#90ed7d;stroke-linecap:square;"/>
   </g>
   <g id="line2d_50">
    <path clip-path="url(#p1efb745aad)" d="M 86.326761 45.140454 
L 115.112519 344.330079 
L 143.898277 352.324967 
L 172.684034 353.142869 
L 201.469792 353.216132 
L 230.255549 353.222488 
L 259.041307 353.223723 
L 287.827064 353.22337 
L 316.612822 353.223723 
L 345.39858 353.2239 
L 374.184337 353.2239 
L 402.970095 353.223547 
L 431.755852 353.2239 
L 460.54161 353.223547 
L 489.327367 353.2239 
L 518.113125 353.2239 
L 546.898883 353.2239 
L 575.68464 353.2239 
L 604.470398 353.2239 
L 633.256155 353.2239 
L 662.041913 353.2239 
L 690.82767 353.2239 
L 719.613428 353.2239 
L 748.399186 353.2239 
L 777.184943 353.2239 
L 805.970701 353.2239 
L 834.756458 353.2239 
L 863.542216 353.2239 
L 892.327973 353.2239 
L 921.113731 353.2239 
L 949.899489 353.2239 
" style="fill:none;stroke:#f7a35c;stroke-linecap:square;"/>
   </g>
   <g id="line2d_51">
    <path clip-path="url(#p1efb745aad)" d="M 86.326761 61.63844 
L 115.112519 329.469312 
L 143.898277 350.852822 
L 172.684034 352.992401 
L 201.469792 353.202351 
L 230.255549 353.221081 
L 259.041307 353.223799 
L 287.827064 353.2239 
L 316.612822 353.223598 
L 345.39858 353.223799 
L 374.184337 353.223799 
L 402.970095 353.2239 
L 431.755852 353.2239 
L 460.54161 353.2239 
L 489.327367 353.2239 
L 518.113125 353.2239 
L 546.898883 353.2239 
L 575.68464 353.2239 
L 604.470398 353.2239 
L 633.256155 353.223799 
L 662.041913 353.223799 
L 690.82767 353.2239 
L 719.613428 353.2239 
L 748.399186 353.223799 
L 777.184943 353.2239 
L 805.970701 353.2239 
L 834.756458 353.2239 
L 863.542216 353.2239 
L 892.327973 353.2239 
L 921.113731 353.2239 
L 949.899489 353.223799 
" style="fill:none;stroke:#8085e9;stroke-linecap:square;"/>
   </g>
   <g id="line2d_52">
    <path clip-path="url(#p1efb745aad)" d="M 86.326761 41.157268 
L 115.112519 347.847215 
L 143.898277 352.756821 
L 172.684034 353.176136 
L 201.469792 353.2179 
L 230.255549 353.2227 
L 259.041307 353.22318 
L 287.827064 353.22342 
L 316.612822 353.2239 
L 345.39858 353.22342 
L 374.184337 353.2239 
L 402.970095 353.2239 
L 431.755852 353.22366 
L 460.54161 353.2239 
L 489.327367 353.22342 
L 518.113125 353.2239 
L 546.898883 353.2239 
L 575.68464 353.2239 
L 604.470398 353.2239 
L 633.256155 353.2239 
L 662.041913 353.2239 
L 690.82767 353.2239 
L 719.613428 353.2239 
L 748.399186 353.2239 
L 777.184943 353.2239 
L 805.970701 353.2239 
L 834.756458 353.2239 
L 863.542216 353.2239 
L 892.327973 353.2239 
L 921.113731 353.2239 
L 949.899489 353.22366 
" style="fill:none;stroke:#f15c80;stroke-linecap:square;"/>
   </g>
   <g id="line2d_53">
    <path clip-path="url(#p1efb745aad)" d="M 86.326761 87.367687 
L 115.112519 310.038557 
L 143.898277 345.762277 
L 172.684034 351.99554 
L 201.469792 353.028219 
L 230.255549 353.18991 
L 259.041307 353.218365 
L 287.827064 353.223208 
L 316.612822 353.22377 
L 345.39858 353.223727 
L 374.184337 353.2239 
L 402.970095 353.2239 
L 431.755852 353.2239 
L 460.54161 353.223857 
L 489.327367 353.2239 
L 518.113125 353.2239 
L 546.898883 353.223857 
L 575.68464 353.223857 
L 604.470398 353.2239 
L 633.256155 353.2239 
L 662.041913 353.2239 
L 690.82767 353.2239 
L 719.613428 353.2239 
L 748.399186 353.223857 
L 777.184943 353.2239 
L 805.970701 353.223814 
L 834.756458 353.2239 
L 863.542216 353.2239 
L 892.327973 353.2239 
L 921.113731 353.2239 
L 949.899489 353.2239 
" style="fill:none;stroke:#e4d354;stroke-linecap:square;"/>
   </g>
   <g id="line2d_54">
    <path clip-path="url(#p1efb745aad)" d="M 86.326761 77.748565 
L 115.112519 316.935677 
L 143.898277 347.906604 
L 172.684034 352.467204 
L 201.469792 353.112102 
L 230.255549 353.208074 
L 259.041307 353.221526 
L 287.827064 353.223674 
L 316.612822 353.223787 
L 345.39858 353.2239 
L 374.184337 353.2239 
L 402.970095 353.2239 
L 431.755852 353.2239 
L 460.54161 353.2239 
L 489.327367 353.2239 
L 518.113125 353.223862 
L 546.898883 353.2239 
L 575.68464 353.2239 
L 604.470398 353.2239 
L 633.256155 353.2239 
L 662.041913 353.2239 
L 690.82767 353.2239 
L 719.613428 353.2239 
L 748.399186 353.2239 
L 777.184943 353.2239 
L 805.970701 353.223862 
L 834.756458 353.2239 
L 863.542216 353.2239 
L 892.327973 353.2239 
L 921.113731 353.2239 
L 949.899489 353.223862 
" style="fill:none;stroke:#2b908f;stroke-linecap:square;"/>
   </g>
   <g id="line2d_55">
    <path clip-path="url(#p1efb745aad)" d="M 86.326761 79.087825 
L 115.112519 315.526187 
L 143.898277 347.923219 
L 172.684034 352.504519 
L 201.469792 353.124594 
L 230.255549 353.211158 
L 259.041307 353.222258 
L 287.827064 353.223637 
L 316.612822 353.2239 
L 345.39858 353.223834 
L 374.184337 353.223834 
L 402.970095 353.2239 
L 431.755852 353.2239 
L 460.54161 353.2239 
L 489.327367 353.2239 
L 518.113125 353.2239 
L 546.898883 353.2239 
L 575.68464 353.2239 
L 604.470398 353.2239 
L 633.256155 353.2239 
L 662.041913 353.2239 
L 690.82767 353.2239 
L 719.613428 353.2239 
L 748.399186 353.2239 
L 777.184943 353.2239 
L 805.970701 353.2239 
L 834.756458 353.2239 
L 863.542216 353.2239 
L 892.327973 353.2239 
L 921.113731 353.2239 
L 949.899489 353.223834 
" style="fill:none;stroke:#f45b5b;stroke-linecap:square;"/>
   </g>
   <g id="line2d_56">
    <path clip-path="url(#p1efb745aad)" d="M 86.326761 99.590901 
L 115.112519 302.395116 
L 143.898277 342.473919 
L 172.684034 351.015857 
L 201.469792 352.784452 
L 230.255549 353.13549 
L 259.041307 353.207165 
L 287.827064 353.221033 
L 316.612822 353.223567 
L 345.39858 353.223833 
L 374.184337 353.2237 
L 402.970095 353.223767 
L 431.755852 353.2239 
L 460.54161 353.2239 
L 489.327367 353.2239 
L 518.113125 353.2239 
L 546.898883 353.2239 
L 575.68464 353.2239 
L 604.470398 353.2239 
L 633.256155 353.2239 
L 662.041913 353.2239 
L 690.82767 353.2239 
L 719.613428 353.2239 
L 748.399186 353.2239 
L 777.184943 353.2239 
L 805.970701 353.2239 
L 834.756458 353.2239 
L 863.542216 353.2239 
L 892.327973 353.2239 
L 921.113731 353.2239 
L 949.899489 353.2239 
" style="fill:none;stroke:#91e8e1;stroke-linecap:square;"/>
   </g>
   <g id="line2d_57">
    <path clip-path="url(#p1efb745aad)" d="M 86.326761 67.696689 
L 115.112519 324.249486 
L 143.898277 350.120498 
L 172.684034 352.897953 
L 201.469792 353.19134 
L 230.255549 353.220236 
L 259.041307 353.223237 
L 287.827064 353.2239 
L 316.612822 353.223865 
L 345.39858 353.2239 
L 374.184337 353.2239 
L 402.970095 353.223865 
L 431.755852 353.2239 
L 460.54161 353.2239 
L 489.327367 353.2239 
L 518.113125 353.223865 
L 546.898883 353.2239 
L 575.68464 353.2239 
L 604.470398 353.2239 
L 633.256155 353.2239 
L 662.041913 353.2239 
L 690.82767 353.2239 
L 719.613428 353.2239 
L 748.399186 353.2239 
L 777.184943 353.2239 
L 805.970701 353.2239 
L 834.756458 353.223865 
L 863.542216 353.2239 
L 892.327973 353.2239 
L 921.113731 353.2239 
L 949.899489 353.2239 
" style="fill:none;stroke:#7cb5ec;stroke-linecap:square;"/>
   </g>
   <g id="line2d_58">
    <path clip-path="url(#p1efb745aad)" d="M 86.326761 65.775896 
L 115.112519 325.973611 
L 143.898277 350.28469 
L 172.684034 352.928402 
L 201.469792 353.193369 
L 230.255549 353.220483 
L 259.041307 353.223637 
L 287.827064 353.223593 
L 316.612822 353.223812 
L 345.39858 353.223812 
L 374.184337 353.223856 
L 402.970095 353.223769 
L 431.755852 353.2239 
L 460.54161 353.223856 
L 489.327367 353.2239 
L 518.113125 353.2239 
L 546.898883 353.2239 
L 575.68464 353.2239 
L 604.470398 353.2239 
L 633.256155 353.2239 
L 662.041913 353.2239 
L 690.82767 353.2239 
L 719.613428 353.223856 
L 748.399186 353.2239 
L 777.184943 353.2239 
L 805.970701 353.2239 
L 834.756458 353.223856 
L 863.542216 353.2239 
L 892.327973 353.2239 
L 921.113731 353.2239 
L 949.899489 353.2239 
" style="fill:none;stroke:#434348;stroke-linecap:square;"/>
   </g>
   <g id="line2d_59">
    <path clip-path="url(#p1efb745aad)" d="M 86.326761 53.923513 
L 115.112519 336.316748 
L 143.898277 351.615809 
L 172.684034 353.088628 
L 201.469792 353.208456 
L 230.255549 353.223073 
L 259.041307 353.223762 
L 287.827064 353.223762 
L 316.612822 353.223762 
L 345.39858 353.223762 
L 374.184337 353.2239 
L 402.970095 353.223762 
L 431.755852 353.2239 
L 460.54161 353.2239 
L 489.327367 353.2239 
L 518.113125 353.2239 
L 546.898883 353.223762 
L 575.68464 353.2239 
L 604.470398 353.2239 
L 633.256155 353.2239 
L 662.041913 353.2239 
L 690.82767 353.2239 
L 719.613428 353.2239 
L 748.399186 353.2239 
L 777.184943 353.2239 
L 805.970701 353.2239 
L 834.756458 353.2239 
L 863.542216 353.2239 
L 892.327973 353.2239 
L 921.113731 353.2239 
L 949.899489 353.2239 
" style="fill:none;stroke:#90ed7d;stroke-linecap:square;"/>
   </g>
   <g id="line2d_60">
    <path clip-path="url(#p1efb745aad)" d="M 86.326761 67.24578 
L 115.112519 324.937672 
L 143.898277 349.932708 
L 172.684034 352.859975 
L 201.469792 353.181489 
L 230.255549 353.219538 
L 259.041307 353.223065 
L 287.827064 353.223714 
L 316.612822 353.223714 
L 345.39858 353.223854 
L 374.184337 353.223854 
L 402.970095 353.223714 
L 431.755852 353.223854 
L 460.54161 353.223854 
L 489.327367 353.2239 
L 518.113125 353.2239 
L 546.898883 353.223854 
L 575.68464 353.2239 
L 604.470398 353.2239 
L 633.256155 353.2239 
L 662.041913 353.223854 
L 690.82767 353.2239 
L 719.613428 353.2239 
L 748.399186 353.223854 
L 777.184943 353.2239 
L 805.970701 353.2239 
L 834.756458 353.2239 
L 863.542216 353.223854 
L 892.327973 353.2239 
L 921.113731 353.2239 
L 949.899489 353.2239 
" style="fill:none;stroke:#f7a35c;stroke-linecap:square;"/>
   </g>
   <g id="line2d_61">
    <path clip-path="url(#p1efb745aad)" d="M 86.326761 70.758024 
L 115.112519 321.689422 
L 143.898277 349.68293 
L 172.684034 352.841454 
L 201.469792 353.184548 
L 230.255549 353.22018 
L 259.041307 353.223321 
L 287.827064 353.2239 
L 316.612822 353.223817 
L 345.39858 353.2239 
L 374.184337 353.2239 
L 402.970095 353.223735 
L 431.755852 353.223735 
L 460.54161 353.2239 
L 489.327367 353.2239 
L 518.113125 353.2239 
L 546.898883 353.2239 
L 575.68464 353.2239 
L 604.470398 353.2239 
L 633.256155 353.2239 
L 662.041913 353.223817 
L 690.82767 353.2239 
L 719.613428 353.2239 
L 748.399186 353.2239 
L 777.184943 353.2239 
L 805.970701 353.2239 
L 834.756458 353.2239 
L 863.542216 353.2239 
L 892.327973 353.223817 
L 921.113731 353.2239 
L 949.899489 353.2239 
" style="fill:none;stroke:#8085e9;stroke-linecap:square;"/>
   </g>
   <g id="line2d_62">
    <path clip-path="url(#p1efb745aad)" d="M 86.326761 63.196391 
L 115.112519 327.920774 
L 143.898277 350.814816 
L 172.684034 353.014782 
L 201.469792 353.207248 
L 230.255549 353.221975 
L 259.041307 353.223816 
L 287.827064 353.2239 
L 316.612822 353.223816 
L 345.39858 353.2239 
L 374.184337 353.2239 
L 402.970095 353.223816 
L 431.755852 353.2239 
L 460.54161 353.2239 
L 489.327367 353.223733 
L 518.113125 353.2239 
L 546.898883 353.2239 
L 575.68464 353.2239 
L 604.470398 353.2239 
L 633.256155 353.2239 
L 662.041913 353.2239 
L 690.82767 353.223816 
L 719.613428 353.2239 
L 748.399186 353.223816 
L 777.184943 353.2239 
L 805.970701 353.2239 
L 834.756458 353.2239 
L 863.542216 353.2239 
L 892.327973 353.2239 
L 921.113731 353.2239 
L 949.899489 353.2239 
" style="fill:none;stroke:#f15c80;stroke-linecap:square;"/>
   </g>
   <g id="line2d_63">
    <path clip-path="url(#p1efb745aad)" d="M 86.326761 57.121237 
L 115.112519 333.873174 
L 143.898277 350.981748 
L 172.684034 352.980672 
L 201.469792 353.198424 
L 230.255549 353.221486 
L 259.041307 353.223364 
L 287.827064 353.2239 
L 316.612822 353.223632 
L 345.39858 353.2239 
L 374.184337 353.2239 
L 402.970095 353.2239 
L 431.755852 353.2239 
L 460.54161 353.223632 
L 489.327367 353.2239 
L 518.113125 353.2239 
L 546.898883 353.2239 
L 575.68464 353.2239 
L 604.470398 353.2239 
L 633.256155 353.2239 
L 662.041913 353.2239 
L 690.82767 353.2239 
L 719.613428 353.2239 
L 748.399186 353.2239 
L 777.184943 353.2239 
L 805.970701 353.2239 
L 834.756458 353.2239 
L 863.542216 353.2239 
L 892.327973 353.2239 
L 921.113731 353.2239 
L 949.899489 353.223632 
" style="fill:none;stroke:#e4d354;stroke-linecap:square;"/>
   </g>
   <g id="line2d_64">
    <path clip-path="url(#p1efb745aad)" d="M 86.326761 74.983794 
L 115.112519 319.053274 
L 143.898277 348.445923 
L 172.684034 352.551042 
L 201.469792 353.132802 
L 230.255549 353.211652 
L 259.041307 353.221774 
L 287.827064 353.223647 
L 316.612822 353.223849 
L 345.39858 353.2239 
L 374.184337 353.223647 
L 402.970095 353.223849 
L 431.755852 353.2239 
L 460.54161 353.223849 
L 489.327367 353.223849 
L 518.113125 353.2239 
L 546.898883 353.223849 
L 575.68464 353.2239 
L 604.470398 353.2239 
L 633.256155 353.2239 
L 662.041913 353.2239 
L 690.82767 353.2239 
L 719.613428 353.2239 
L 748.399186 353.223849 
L 777.184943 353.2239 
L 805.970701 353.2239 
L 834.756458 353.223849 
L 863.542216 353.2239 
L 892.327973 353.2239 
L 921.113731 353.2239 
L 949.899489 353.223799 
" style="fill:none;stroke:#2b908f;stroke-linecap:square;"/>
   </g>
   <g id="line2d_65">
    <path clip-path="url(#p1efb745aad)" d="M 86.326761 61.763824 
L 115.112519 329.947311 
L 143.898277 350.361264 
L 172.684034 352.895335 
L 201.469792 353.188956 
L 230.255549 353.219979 
L 259.041307 353.223439 
L 287.827064 353.2239 
L 316.612822 353.223669 
L 345.39858 353.2239 
L 374.184337 353.223785 
L 402.970095 353.2239 
L 431.755852 353.223785 
L 460.54161 353.2239 
L 489.327367 353.2239 
L 518.113125 353.223785 
L 546.898883 353.2239 
L 575.68464 353.2239 
L 604.470398 353.2239 
L 633.256155 353.2239 
L 662.041913 353.223785 
L 690.82767 353.2239 
L 719.613428 353.2239 
L 748.399186 353.2239 
L 777.184943 353.2239 
L 805.970701 353.223785 
L 834.756458 353.2239 
L 863.542216 353.2239 
L 892.327973 353.2239 
L 921.113731 353.2239 
L 949.899489 353.2239 
" style="fill:none;stroke:#f45b5b;stroke-linecap:square;"/>
   </g>
   <g id="line2d_66">
    <path clip-path="url(#p1efb745aad)" d="M 86.326761 55.698514 
L 115.112519 334.861295 
L 143.898277 351.352939 
L 172.684034 353.036554 
L 201.469792 353.204442 
L 230.255549 353.222902 
L 259.041307 353.2239 
L 287.827064 353.2239 
L 316.612822 353.223401 
L 345.39858 353.223651 
L 374.184337 353.223651 
L 402.970095 353.223651 
L 431.755852 353.2239 
L 460.54161 353.2239 
L 489.327367 353.2239 
L 518.113125 353.2239 
L 546.898883 353.2239 
L 575.68464 353.2239 
L 604.470398 353.2239 
L 633.256155 353.2239 
L 662.041913 353.2239 
L 690.82767 353.2239 
L 719.613428 353.2239 
L 748.399186 353.2239 
L 777.184943 353.2239 
L 805.970701 353.2239 
L 834.756458 353.2239 
L 863.542216 353.2239 
L 892.327973 353.2239 
L 921.113731 353.2239 
L 949.899489 353.2239 
" style="fill:none;stroke:#91e8e1;stroke-linecap:square;"/>
   </g>
   <g id="line2d_67">
    <path clip-path="url(#p1efb745aad)" d="M 86.326761 44.867011 
L 115.112519 344.624253 
L 143.898277 352.321596 
L 172.684034 353.129253 
L 201.469792 353.213173 
L 230.255549 353.223269 
L 259.041307 353.2239 
L 287.827064 353.223269 
L 316.612822 353.223269 
L 345.39858 353.2239 
L 374.184337 353.2239 
L 402.970095 353.223269 
L 431.755852 353.223269 
L 460.54161 353.2239 
L 489.327367 353.2239 
L 518.113125 353.2239 
L 546.898883 353.2239 
L 575.68464 353.2239 
L 604.470398 353.2239 
L 633.256155 353.2239 
L 662.041913 353.2239 
L 690.82767 353.223269 
L 719.613428 353.2239 
L 748.399186 353.2239 
L 777.184943 353.2239 
L 805.970701 353.2239 
L 834.756458 353.2239 
L 863.542216 353.2239 
L 892.327973 353.2239 
L 921.113731 353.2239 
L 949.899489 353.2239 
" style="fill:none;stroke:#7cb5ec;stroke-linecap:square;"/>
   </g>
   <g id="line2d_68">
    <path clip-path="url(#p1efb745aad)" d="M 86.326761 81.525736 
L 115.112519 314.120782 
L 143.898277 347.132611 
L 172.684034 352.303433 
L 201.469792 353.092748 
L 230.255549 353.204378 
L 259.041307 353.220677 
L 287.827064 353.223231 
L 316.612822 353.223809 
L 345.39858 353.223809 
L 374.184337 353.223839 
L 402.970095 353.22387 
L 431.755852 353.2239 
L 460.54161 353.22387 
L 489.327367 353.22387 
L 518.113125 353.2239 
L 546.898883 353.2239 
L 575.68464 353.2239 
L 604.470398 353.2239 
L 633.256155 353.2239 
L 662.041913 353.2239 
L 690.82767 353.2239 
L 719.613428 353.2239 
L 748.399186 353.2239 
L 777.184943 353.2239 
L 805.970701 353.2239 
L 834.756458 353.22387 
L 863.542216 353.2239 
L 892.327973 353.2239 
L 921.113731 353.2239 
L 949.899489 353.22387 
" style="fill:none;stroke:#434348;stroke-linecap:square;"/>
   </g>
   <g id="line2d_69">
    <path clip-path="url(#p1efb745aad)" d="M 86.326761 51.495823 
L 115.112519 338.55438 
L 143.898277 351.802958 
L 172.684034 353.088995 
L 201.469792 353.21396 
L 230.255549 353.221237 
L 259.041307 353.223367 
L 287.827064 353.223545 
L 316.612822 353.223722 
L 345.39858 353.223722 
L 374.184337 353.2239 
L 402.970095 353.2239 
L 431.755852 353.2239 
L 460.54161 353.223722 
L 489.327367 353.223722 
L 518.113125 353.2239 
L 546.898883 353.2239 
L 575.68464 353.2239 
L 604.470398 353.2239 
L 633.256155 353.2239 
L 662.041913 353.223722 
L 690.82767 353.2239 
L 719.613428 353.2239 
L 748.399186 353.2239 
L 777.184943 353.2239 
L 805.970701 353.2239 
L 834.756458 353.2239 
L 863.542216 353.2239 
L 892.327973 353.2239 
L 921.113731 353.2239 
L 949.899489 353.223722 
" style="fill:none;stroke:#90ed7d;stroke-linecap:square;"/>
   </g>
   <g id="line2d_70">
    <path clip-path="url(#p1efb745aad)" d="M 86.326761 80.845561 
L 115.112519 314.986573 
L 143.898277 347.033183 
L 172.684034 352.246138 
L 201.469792 353.067482 
L 230.255549 353.200217 
L 259.041307 353.221027 
L 287.827064 353.223437 
L 316.612822 353.223854 
L 345.39858 353.223761 
L 374.184337 353.223761 
L 402.970095 353.2239 
L 431.755852 353.223854 
L 460.54161 353.2239 
L 489.327367 353.2239 
L 518.113125 353.2239 
L 546.898883 353.2239 
L 575.68464 353.2239 
L 604.470398 353.2239 
L 633.256155 353.2239 
L 662.041913 353.2239 
L 690.82767 353.223854 
L 719.613428 353.2239 
L 748.399186 353.2239 
L 777.184943 353.2239 
L 805.970701 353.2239 
L 834.756458 353.2239 
L 863.542216 353.2239 
L 892.327973 353.2239 
L 921.113731 353.2239 
L 949.899489 353.2239 
" style="fill:none;stroke:#f7a35c;stroke-linecap:square;"/>
   </g>
   <g id="line2d_71">
    <path clip-path="url(#p1efb745aad)" d="M 86.326761 62.396566 
L 115.112519 328.616961 
L 143.898277 350.9204 
L 172.684034 353.017018 
L 201.469792 353.203715 
L 230.255549 353.221745 
L 259.041307 353.223613 
L 287.827064 353.223756 
L 316.612822 353.2239 
L 345.39858 353.223828 
L 374.184337 353.223756 
L 402.970095 353.2239 
L 431.755852 353.223828 
L 460.54161 353.2239 
L 489.327367 353.2239 
L 518.113125 353.223828 
L 546.898883 353.2239 
L 575.68464 353.2239 
L 604.470398 353.2239 
L 633.256155 353.223828 
L 662.041913 353.2239 
L 690.82767 353.2239 
L 719.613428 353.223828 
L 748.399186 353.2239 
L 777.184943 353.2239 
L 805.970701 353.2239 
L 834.756458 353.2239 
L 863.542216 353.2239 
L 892.327973 353.2239 
L 921.113731 353.2239 
L 949.899489 353.223828 
" style="fill:none;stroke:#8085e9;stroke-linecap:square;"/>
   </g>
   <g id="line2d_72">
    <path clip-path="url(#p1efb745aad)" d="M 86.326761 129.560945 
L 115.112519 289.1999 
L 143.898277 332.241805 
L 172.684034 346.664269 
L 201.469792 351.25791 
L 230.255549 352.661106 
L 259.041307 353.06948 
L 287.827064 353.182018 
L 316.612822 353.213762 
L 345.39858 353.220572 
L 374.184337 353.223286 
L 402.970095 353.223849 
L 431.755852 353.2239 
L 460.54161 353.2239 
L 489.327367 353.2239 
L 518.113125 353.2239 
L 546.898883 353.2239 
L 575.68464 353.2239 
L 604.470398 353.2239 
L 633.256155 353.2239 
L 662.041913 353.2239 
L 690.82767 353.2239 
L 719.613428 353.2239 
L 748.399186 353.2239 
L 777.184943 353.2239 
L 805.970701 353.2239 
L 834.756458 353.223849 
L 863.542216 353.2239 
L 892.327973 353.2239 
L 921.113731 353.2239 
L 949.899489 353.223849 
" style="fill:none;stroke:#f15c80;stroke-linecap:square;"/>
   </g>
   <g id="line2d_73">
    <path clip-path="url(#p1efb745aad)" d="M 86.326761 87.82466 
L 115.112519 310.503375 
L 143.898277 345.146139 
L 172.684034 351.765239 
L 201.469792 352.966404 
L 230.255549 353.178834 
L 259.041307 353.216856 
L 287.827064 353.222372 
L 316.612822 353.223645 
L 345.39858 353.2239 
L 374.184337 353.2239 
L 402.970095 353.223815 
L 431.755852 353.22373 
L 460.54161 353.223815 
L 489.327367 353.2239 
L 518.113125 353.2239 
L 546.898883 353.2239 
L 575.68464 353.2239 
L 604.470398 353.2239 
L 633.256155 353.2239 
L 662.041913 353.2239 
L 690.82767 353.2239 
L 719.613428 353.2239 
L 748.399186 353.2239 
L 777.184943 353.2239 
L 805.970701 353.2239 
L 834.756458 353.2239 
L 863.542216 353.2239 
L 892.327973 353.2239 
L 921.113731 353.2239 
L 949.899489 353.223815 
" style="fill:none;stroke:#e4d354;stroke-linecap:square;"/>
   </g>
   <g id="line2d_74">
    <path clip-path="url(#p1efb745aad)" d="M 86.326761 81.55451 
L 115.112519 314.142838 
L 143.898277 347.122429 
L 172.684034 352.276989 
L 201.469792 353.080973 
L 230.255549 353.202258 
L 259.041307 353.220441 
L 287.827064 353.223183 
L 316.612822 353.223773 
L 345.39858 353.223858 
L 374.184337 353.2239 
L 402.970095 353.223858 
L 431.755852 353.223858 
L 460.54161 353.2239 
L 489.327367 353.2239 
L 518.113125 353.223858 
L 546.898883 353.2239 
L 575.68464 353.2239 
L 604.470398 353.2239 
L 633.256155 353.223858 
L 662.041913 353.2239 
L 690.82767 353.2239 
L 719.613428 353.2239 
L 748.399186 353.2239 
L 777.184943 353.223858 
L 805.970701 353.2239 
L 834.756458 353.2239 
L 863.542216 353.2239 
L 892.327973 353.2239 
L 921.113731 353.2239 
L 949.899489 353.223858 
" style="fill:none;stroke:#2b908f;stroke-linecap:square;"/>
   </g>
   <g id="line2d_75">
    <path clip-path="url(#p1efb745aad)" d="M 86.326761 54.717285 
L 115.112519 335.792145 
L 143.898277 351.403954 
L 172.684034 353.034121 
L 201.469792 353.207131 
L 230.255549 353.221855 
L 259.041307 353.223355 
L 287.827064 353.2239 
L 316.612822 353.2239 
L 345.39858 353.223627 
L 374.184337 353.2239 
L 402.970095 353.2239 
L 431.755852 353.2239 
L 460.54161 353.2239 
L 489.327367 353.2239 
L 518.113125 353.223764 
L 546.898883 353.223764 
L 575.68464 353.2239 
L 604.470398 353.2239 
L 633.256155 353.2239 
L 662.041913 353.2239 
L 690.82767 353.2239 
L 719.613428 353.2239 
L 748.399186 353.2239 
L 777.184943 353.2239 
L 805.970701 353.2239 
L 834.756458 353.2239 
L 863.542216 353.2239 
L 892.327973 353.2239 
L 921.113731 353.2239 
L 949.899489 353.2239 
" style="fill:none;stroke:#f45b5b;stroke-linecap:square;"/>
   </g>
   <g id="line2d_76">
    <path clip-path="url(#p1efb745aad)" d="M 86.326761 64.632378 
L 115.112519 326.647798 
L 143.898277 350.676824 
L 172.684034 352.991294 
L 201.469792 353.205171 
L 230.255549 353.222656 
L 259.041307 353.223704 
L 287.827064 353.223835 
L 316.612822 353.223835 
L 345.39858 353.223835 
L 374.184337 353.2239 
L 402.970095 353.223835 
L 431.755852 353.2239 
L 460.54161 353.2239 
L 489.327367 353.2239 
L 518.113125 353.2239 
L 546.898883 353.2239 
L 575.68464 353.2239 
L 604.470398 353.2239 
L 633.256155 353.223835 
L 662.041913 353.2239 
L 690.82767 353.2239 
L 719.613428 353.223835 
L 748.399186 353.2239 
L 777.184943 353.223835 
L 805.970701 353.2239 
L 834.756458 353.2239 
L 863.542216 353.2239 
L 892.327973 353.2239 
L 921.113731 353.2239 
L 949.899489 353.223835 
" style="fill:none;stroke:#91e8e1;stroke-linecap:square;"/>
   </g>
   <g id="line2d_77">
    <path clip-path="url(#p1efb745aad)" d="M 86.326761 47.856424 
L 115.112519 341.751982 
L 143.898277 352.198519 
L 172.684034 353.132971 
L 201.469792 353.215322 
L 230.255549 353.221898 
L 259.041307 353.223042 
L 287.827064 353.2239 
L 316.612822 353.2239 
L 345.39858 353.223614 
L 374.184337 353.2239 
L 402.970095 353.2239 
L 431.755852 353.2239 
L 460.54161 353.2239 
L 489.327367 353.2239 
L 518.113125 353.223614 
L 546.898883 353.2239 
L 575.68464 353.2239 
L 604.470398 353.2239 
L 633.256155 353.2239 
L 662.041913 353.2239 
L 690.82767 353.2239 
L 719.613428 353.2239 
L 748.399186 353.2239 
L 777.184943 353.2239 
L 805.970701 353.2239 
L 834.756458 353.2239 
L 863.542216 353.2239 
L 892.327973 353.2239 
L 921.113731 353.2239 
L 949.899489 353.223614 
" style="fill:none;stroke:#7cb5ec;stroke-linecap:square;"/>
   </g>
   <g id="line2d_78">
    <path clip-path="url(#p1efb745aad)" d="M 86.326761 92.177643 
L 115.112519 307.323236 
L 143.898277 344.278317 
L 172.684034 351.532697 
L 201.469792 352.909906 
L 230.255549 353.165964 
L 259.041307 353.213587 
L 287.827064 353.222418 
L 316.612822 353.223616 
L 345.39858 353.223805 
L 374.184337 353.223837 
L 402.970095 353.223837 
L 431.755852 353.223868 
L 460.54161 353.2239 
L 489.327367 353.2239 
L 518.113125 353.2239 
L 546.898883 353.223868 
L 575.68464 353.2239 
L 604.470398 353.2239 
L 633.256155 353.2239 
L 662.041913 353.2239 
L 690.82767 353.2239 
L 719.613428 353.2239 
L 748.399186 353.2239 
L 777.184943 353.2239 
L 805.970701 353.2239 
L 834.756458 353.2239 
L 863.542216 353.2239 
L 892.327973 353.2239 
L 921.113731 353.2239 
L 949.899489 353.2239 
" style="fill:none;stroke:#434348;stroke-linecap:square;"/>
   </g>
   <g id="line2d_79">
    <path clip-path="url(#p1efb745aad)" d="M 86.326761 97.837715 
L 115.112519 302.985544 
L 143.898277 343.221038 
L 172.684034 351.318794 
L 201.469792 352.863969 
L 230.255549 353.161986 
L 259.041307 353.212456 
L 287.827064 353.222203 
L 316.612822 353.223683 
L 345.39858 353.223828 
L 374.184337 353.223864 
L 402.970095 353.2239 
L 431.755852 353.2239 
L 460.54161 353.223864 
L 489.327367 353.2239 
L 518.113125 353.223864 
L 546.898883 353.223864 
L 575.68464 353.223864 
L 604.470398 353.2239 
L 633.256155 353.2239 
L 662.041913 353.2239 
L 690.82767 353.2239 
L 719.613428 353.223864 
L 748.399186 353.2239 
L 777.184943 353.2239 
L 805.970701 353.2239 
L 834.756458 353.2239 
L 863.542216 353.2239 
L 892.327973 353.2239 
L 921.113731 353.2239 
L 949.899489 353.2239 
" style="fill:none;stroke:#90ed7d;stroke-linecap:square;"/>
   </g>
   <g id="line2d_80">
    <path clip-path="url(#p1efb745aad)" d="M 86.326761 65.850728 
L 115.112519 325.944355 
L 143.898277 350.263116 
L 172.684034 352.906751 
L 201.469792 353.190636 
L 230.255549 353.220954 
L 259.041307 353.22333 
L 287.827064 353.2239 
L 316.612822 353.2239 
L 345.39858 353.223805 
L 374.184337 353.223805 
L 402.970095 353.2239 
L 431.755852 353.2239 
L 460.54161 353.2239 
L 489.327367 353.2239 
L 518.113125 353.2239 
L 546.898883 353.2239 
L 575.68464 353.2239 
L 604.470398 353.2239 
L 633.256155 353.223805 
L 662.041913 353.2239 
L 690.82767 353.2239 
L 719.613428 353.223805 
L 748.399186 353.2239 
L 777.184943 353.2239 
L 805.970701 353.2239 
L 834.756458 353.2239 
L 863.542216 353.2239 
L 892.327973 353.2239 
L 921.113731 353.2239 
L 949.899489 353.22371 
" style="fill:none;stroke:#f7a35c;stroke-linecap:square;"/>
   </g>
   <g id="line2d_81">
    <path clip-path="url(#p1efb745aad)" d="M 86.326761 63.767349 
L 115.112519 328.027902 
L 143.898277 350.273039 
L 172.684034 352.895915 
L 201.469792 353.191549 
L 230.255549 353.220654 
L 259.041307 353.223564 
L 287.827064 353.223564 
L 316.612822 353.2239 
L 345.39858 353.2239 
L 374.184337 353.223788 
L 402.970095 353.2239 
L 431.755852 353.2239 
L 460.54161 353.2239 
L 489.327367 353.223788 
L 518.113125 353.2239 
L 546.898883 353.2239 
L 575.68464 353.2239 
L 604.470398 353.2239 
L 633.256155 353.2239 
L 662.041913 353.2239 
L 690.82767 353.2239 
L 719.613428 353.2239 
L 748.399186 353.2239 
L 777.184943 353.223788 
L 805.970701 353.2239 
L 834.756458 353.2239 
L 863.542216 353.2239 
L 892.327973 353.2239 
L 921.113731 353.2239 
L 949.899489 353.2239 
" style="fill:none;stroke:#8085e9;stroke-linecap:square;"/>
   </g>
   <g id="line2d_82">
    <path clip-path="url(#p1efb745aad)" d="M 86.326761 64.707174 
L 115.112519 326.761656 
L 143.898277 350.53204 
L 172.684034 352.959186 
L 201.469792 353.195429 
L 230.255549 353.220612 
L 259.041307 353.223552 
L 287.827064 353.223823 
L 316.612822 353.2239 
L 345.39858 353.2239 
L 374.184337 353.2239 
L 402.970095 353.223861 
L 431.755852 353.223861 
L 460.54161 353.223861 
L 489.327367 353.2239 
L 518.113125 353.2239 
L 546.898883 353.2239 
L 575.68464 353.223861 
L 604.470398 353.2239 
L 633.256155 353.2239 
L 662.041913 353.2239 
L 690.82767 353.2239 
L 719.613428 353.2239 
L 748.399186 353.223861 
L 777.184943 353.2239 
L 805.970701 353.2239 
L 834.756458 353.2239 
L 863.542216 353.2239 
L 892.327973 353.2239 
L 921.113731 353.223861 
L 949.899489 353.223861 
" style="fill:none;stroke:#f15c80;stroke-linecap:square;"/>
   </g>
   <g id="line2d_83">
    <path clip-path="url(#p1efb745aad)" d="M 86.326761 108.637608 
L 115.112519 299.007865 
L 143.898277 338.916474 
L 172.684034 349.549145 
L 201.469792 352.312079 
L 230.255549 353.013945 
L 259.041307 353.17489 
L 287.827064 353.213977 
L 316.612822 353.221722 
L 345.39858 353.223658 
L 374.184337 353.223779 
L 402.970095 353.2239 
L 431.755852 353.2239 
L 460.54161 353.2239 
L 489.327367 353.2239 
L 518.113125 353.2239 
L 546.898883 353.2239 
L 575.68464 353.223779 
L 604.470398 353.2239 
L 633.256155 353.2239 
L 662.041913 353.2239 
L 690.82767 353.2239 
L 719.613428 353.2239 
L 748.399186 353.2239 
L 777.184943 353.2239 
L 805.970701 353.2239 
L 834.756458 353.2239 
L 863.542216 353.2239 
L 892.327973 353.2239 
L 921.113731 353.2239 
L 949.899489 353.223779 
" style="fill:none;stroke:#e4d354;stroke-linecap:square;"/>
   </g>
   <g id="line2d_84">
    <path clip-path="url(#p1efb745aad)" d="M 86.326761 67.541265 
L 115.112519 324.434998 
L 143.898277 350.088567 
L 172.684034 352.899292 
L 201.469792 353.191012 
L 230.255549 353.220766 
L 259.041307 353.223673 
L 287.827064 353.223855 
L 316.612822 353.223855 
L 345.39858 353.223855 
L 374.184337 353.223855 
L 402.970095 353.2239 
L 431.755852 353.223855 
L 460.54161 353.2239 
L 489.327367 353.2239 
L 518.113125 353.223855 
L 546.898883 353.2239 
L 575.68464 353.2239 
L 604.470398 353.2239 
L 633.256155 353.2239 
L 662.041913 353.2239 
L 690.82767 353.2239 
L 719.613428 353.2239 
L 748.399186 353.2239 
L 777.184943 353.2239 
L 805.970701 353.2239 
L 834.756458 353.2239 
L 863.542216 353.2239 
L 892.327973 353.2239 
L 921.113731 353.2239 
L 949.899489 353.2239 
" style="fill:none;stroke:#2b908f;stroke-linecap:square;"/>
   </g>
   <g id="line2d_85">
    <path clip-path="url(#p1efb745aad)" d="M 86.326761 55.878709 
L 115.112519 335.102172 
L 143.898277 351.01671 
L 172.684034 352.961877 
L 201.469792 353.195927 
L 230.255549 353.221244 
L 259.041307 353.223192 
L 287.827064 353.223546 
L 316.612822 353.2239 
L 345.39858 353.2239 
L 374.184337 353.2239 
L 402.970095 353.2239 
L 431.755852 353.2239 
L 460.54161 353.2239 
L 489.327367 353.2239 
L 518.113125 353.223723 
L 546.898883 353.2239 
L 575.68464 353.2239 
L 604.470398 353.2239 
L 633.256155 353.2239 
L 662.041913 353.2239 
L 690.82767 353.2239 
L 719.613428 353.2239 
L 748.399186 353.2239 
L 777.184943 353.2239 
L 805.970701 353.2239 
L 834.756458 353.2239 
L 863.542216 353.2239 
L 892.327973 353.2239 
L 921.113731 353.2239 
L 949.899489 353.2239 
" style="fill:none;stroke:#f45b5b;stroke-linecap:square;"/>
   </g>
   <g id="line2d_86">
    <path clip-path="url(#p1efb745aad)" d="M 86.326761 73.290839 
L 115.112519 319.672471 
L 143.898277 349.225303 
L 172.684034 352.790064 
L 201.469792 353.178163 
L 230.255549 353.218982 
L 259.041307 353.223689 
L 287.827064 353.223759 
L 316.612822 353.2239 
L 345.39858 353.2239 
L 374.184337 353.2239 
L 402.970095 353.2239 
L 431.755852 353.2239 
L 460.54161 353.2239 
L 489.327367 353.2239 
L 518.113125 353.2239 
L 546.898883 353.2239 
L 575.68464 353.2239 
L 604.470398 353.2239 
L 633.256155 353.2239 
L 662.041913 353.2239 
L 690.82767 353.2239 
L 719.613428 353.2239 
L 748.399186 353.2239 
L 777.184943 353.2239 
L 805.970701 353.22383 
L 834.756458 353.2239 
L 863.542216 353.2239 
L 892.327973 353.2239 
L 921.113731 353.2239 
L 949.899489 353.2239 
" style="fill:none;stroke:#91e8e1;stroke-linecap:square;"/>
   </g>
   <g id="line2d_87">
    <path clip-path="url(#p1efb745aad)" d="M 86.326761 76.0409 
L 115.112519 318.185376 
L 143.898277 348.273896 
L 172.684034 352.532718 
L 201.469792 353.133256 
L 230.255549 353.21172 
L 259.041307 353.222088 
L 287.827064 353.223598 
L 316.612822 353.22385 
L 345.39858 353.22385 
L 374.184337 353.2239 
L 402.970095 353.22385 
L 431.755852 353.2239 
L 460.54161 353.2239 
L 489.327367 353.2239 
L 518.113125 353.2239 
L 546.898883 353.2239 
L 575.68464 353.22385 
L 604.470398 353.22385 
L 633.256155 353.2239 
L 662.041913 353.2239 
L 690.82767 353.2239 
L 719.613428 353.2239 
L 748.399186 353.2239 
L 777.184943 353.2239 
L 805.970701 353.2239 
L 834.756458 353.2239 
L 863.542216 353.2239 
L 892.327973 353.2239 
L 921.113731 353.2239 
L 949.899489 353.223799 
" style="fill:none;stroke:#7cb5ec;stroke-linecap:square;"/>
   </g>
   <g id="line2d_88">
    <path clip-path="url(#p1efb745aad)" d="M 86.326761 65.751936 
L 115.112519 325.962264 
L 143.898277 350.329303 
L 172.684034 352.921289 
L 201.469792 353.191174 
L 230.255549 353.220352 
L 259.041307 353.223472 
L 287.827064 353.223716 
L 316.612822 353.2239 
L 345.39858 353.2239 
L 374.184337 353.223839 
L 402.970095 353.2239 
L 431.755852 353.2239 
L 460.54161 353.2239 
L 489.327367 353.223839 
L 518.113125 353.2239 
L 546.898883 353.2239 
L 575.68464 353.2239 
L 604.470398 353.223839 
L 633.256155 353.2239 
L 662.041913 353.2239 
L 690.82767 353.2239 
L 719.613428 353.2239 
L 748.399186 353.223839 
L 777.184943 353.2239 
L 805.970701 353.2239 
L 834.756458 353.2239 
L 863.542216 353.2239 
L 892.327973 353.2239 
L 921.113731 353.2239 
L 949.899489 353.223839 
" style="fill:none;stroke:#434348;stroke-linecap:square;"/>
   </g>
   <g id="line2d_89">
    <path clip-path="url(#p1efb745aad)" d="M 86.326761 64.912234 
L 115.112519 326.731261 
L 143.898277 350.388136 
L 172.684034 352.929603 
L 201.469792 353.195732 
L 230.255549 353.221798 
L 259.041307 353.222218 
L 287.827064 353.223059 
L 316.612822 353.2239 
L 345.39858 353.2239 
L 374.184337 353.2239 
L 402.970095 353.2239 
L 431.755852 353.2239 
L 460.54161 353.2239 
L 489.327367 353.2239 
L 518.113125 353.2239 
L 546.898883 353.2239 
L 575.68464 353.2239 
L 604.470398 353.2239 
L 633.256155 353.22348 
L 662.041913 353.2239 
L 690.82767 353.2239 
L 719.613428 353.2239 
L 748.399186 353.2239 
L 777.184943 353.2239 
L 805.970701 353.22348 
L 834.756458 353.2239 
L 863.542216 353.2239 
L 892.327973 353.2239 
L 921.113731 353.2239 
L 949.899489 353.2239 
" style="fill:none;stroke:#90ed7d;stroke-linecap:square;"/>
   </g>
   <g id="line2d_90">
    <path clip-path="url(#p1efb745aad)" d="M 43.148125 353.2239 
L 993.078125 353.2239 
" style="fill:none;stroke:#dedede;stroke-linecap:square;stroke-width:2;"/>
   </g>
   <g id="text_16">
    <!-- Fastp: Duplication Rate -->
    <defs>
     <path d="M 9.8125 72.90625 
L 51.703125 72.90625 
L 51.703125 64.59375 
L 19.671875 64.59375 
L 19.671875 43.109375 
L 48.578125 43.109375 
L 48.578125 34.8125 
L 19.671875 34.8125 
L 19.671875 0 
L 9.8125 0 
z
" id="DejaVuSans-70"/>
     <path d="M 44.28125 53.078125 
L 44.28125 44.578125 
Q 40.484375 46.53125 36.375 47.5 
Q 32.28125 48.484375 27.875 48.484375 
Q 21.1875 48.484375 17.84375 46.4375 
Q 14.5 44.390625 14.5 40.28125 
Q 14.5 37.15625 16.890625 35.375 
Q 19.28125 33.59375 26.515625 31.984375 
L 29.59375 31.296875 
Q 39.15625 29.25 43.1875 25.515625 
Q 47.21875 21.78125 47.21875 15.09375 
Q 47.21875 7.46875 41.1875 3.015625 
Q 35.15625 -1.421875 24.609375 -1.421875 
Q 20.21875 -1.421875 15.453125 -0.5625 
Q 10.6875 0.296875 5.421875 2 
L 5.421875 11.28125 
Q 10.40625 8.6875 15.234375 7.390625 
Q 20.0625 6.109375 24.8125 6.109375 
Q 31.15625 6.109375 34.5625 8.28125 
Q 37.984375 10.453125 37.984375 14.40625 
Q 37.984375 18.0625 35.515625 20.015625 
Q 33.0625 21.96875 24.703125 23.78125 
L 21.578125 24.515625 
Q 13.234375 26.265625 9.515625 29.90625 
Q 5.8125 33.546875 5.8125 39.890625 
Q 5.8125 47.609375 11.28125 51.796875 
Q 16.75 56 26.8125 56 
Q 31.78125 56 36.171875 55.265625 
Q 40.578125 54.546875 44.28125 53.078125 
z
" id="DejaVuSans-115"/>
     <path d="M 11.71875 12.40625 
L 22.015625 12.40625 
L 22.015625 0 
L 11.71875 0 
z
M 11.71875 51.703125 
L 22.015625 51.703125 
L 22.015625 39.3125 
L 11.71875 39.3125 
z
" id="DejaVuSans-58"/>
    </defs>
    <g transform="translate(424.561875 19.3575)scale(0.16 -0.16)">
     <use xlink:href="#DejaVuSans-70"/>
     <use x="57.378906" xlink:href="#DejaVuSans-97"/>
     <use x="118.658203" xlink:href="#DejaVuSans-115"/>
     <use x="170.757812" xlink:href="#DejaVuSans-116"/>
     <use x="209.966797" xlink:href="#DejaVuSans-112"/>
     <use x="273.443359" xlink:href="#DejaVuSans-58"/>
     <use x="307.134766" xlink:href="#DejaVuSans-32"/>
     <use x="338.921875" xlink:href="#DejaVuSans-68"/>
     <use x="415.923828" xlink:href="#DejaVuSans-117"/>
     <use x="479.302734" xlink:href="#DejaVuSans-112"/>
     <use x="542.779297" xlink:href="#DejaVuSans-108"/>
     <use x="570.5625" xlink:href="#DejaVuSans-105"/>
     <use x="598.345703" xlink:href="#DejaVuSans-99"/>
     <use x="653.326172" xlink:href="#DejaVuSans-97"/>
     <use x="714.605469" xlink:href="#DejaVuSans-116"/>
     <use x="753.814453" xlink:href="#DejaVuSans-105"/>
     <use x="781.597656" xlink:href="#DejaVuSans-111"/>
     <use x="842.779297" xlink:href="#DejaVuSans-110"/>
     <use x="906.158203" xlink:href="#DejaVuSans-32"/>
     <use x="937.945312" xlink:href="#DejaVuSans-82"/>
     <use x="1007.396484" xlink:href="#DejaVuSans-97"/>
     <use x="1068.675781" xlink:href="#DejaVuSans-116"/>
     <use x="1107.884766" xlink:href="#DejaVuSans-101"/>
    </g>
   </g>
  </g>
 </g>
 <defs>
  <clipPath id="p1efb745aad">
   <rect height="317.968" width="949.93" x="43.148125" y="35.2559"/>
  </clipPath>
 </defs>
</svg>
