<?xml version="1.0" encoding="utf-8" standalone="no"?>
<!DOCTYPE svg PUBLIC "-//W3C//DTD SVG 1.1//EN"
  "http://www.w3.org/Graphics/SVG/1.1/DTD/svg11.dtd">
<!-- Created with matplotlib (https://matplotlib.org/) -->
<svg height="388.844525pt" version="1.1" viewBox="0 0 1000.358125 388.844525" width="1000.358125pt" xmlns="http://www.w3.org/2000/svg" xmlns:xlink="http://www.w3.org/1999/xlink">
 <defs>
  <style type="text/css">
*{stroke-linecap:butt;stroke-linejoin:round;}
  </style>
 </defs>
 <g id="figure_1">
  <g id="axes_1">
   <g id="patch_1">
    <path d="M 32.968125 353.2239 
L 993.158125 353.2239 
L 993.158125 35.2559 
L 32.968125 35.2559 
z
" style="fill:#ffffff;"/>
   </g>
   <g id="matplotlib.axis_1">
    <g id="xtick_1">
     <g id="text_1">
      <!-- 0 -->
      <defs>
       <path d="M 31.78125 66.40625 
Q 24.171875 66.40625 20.328125 58.90625 
Q 16.5 51.421875 16.5 36.375 
Q 16.5 21.390625 20.328125 13.890625 
Q 24.171875 6.390625 31.78125 6.390625 
Q 39.453125 6.390625 43.28125 13.890625 
Q 47.125 21.390625 47.125 36.375 
Q 47.125 51.421875 43.28125 58.90625 
Q 39.453125 66.40625 31.78125 66.40625 
z
M 31.78125 74.21875 
Q 44.046875 74.21875 50.515625 64.515625 
Q 56.984375 54.828125 56.984375 36.375 
Q 56.984375 17.96875 50.515625 8.265625 
Q 44.046875 -1.421875 31.78125 -1.421875 
Q 19.53125 -1.421875 13.0625 8.265625 
Q 6.59375 17.96875 6.59375 36.375 
Q 6.59375 54.828125 13.0625 64.515625 
Q 19.53125 74.21875 31.78125 74.21875 
z
" id="DejaVuSans-48"/>
      </defs>
      <g transform="translate(68.209736 366.30265)scale(0.08 -0.08)">
       <use xlink:href="#DejaVuSans-48"/>
      </g>
     </g>
    </g>
    <g id="xtick_2">
     <g id="text_2">
      <!-- 20 -->
      <defs>
       <path d="M 19.1875 8.296875 
L 53.609375 8.296875 
L 53.609375 0 
L 7.328125 0 
L 7.328125 8.296875 
Q 12.9375 14.109375 22.625 23.890625 
Q 32.328125 33.6875 34.8125 36.53125 
Q 39.546875 41.84375 41.421875 45.53125 
Q 43.3125 49.21875 43.3125 52.78125 
Q 43.3125 58.59375 39.234375 62.25 
Q 35.15625 65.921875 28.609375 65.921875 
Q 23.96875 65.921875 18.8125 64.3125 
Q 13.671875 62.703125 7.8125 59.421875 
L 7.8125 69.390625 
Q 13.765625 71.78125 18.9375 73 
Q 24.125 74.21875 28.421875 74.21875 
Q 39.75 74.21875 46.484375 68.546875 
Q 53.21875 62.890625 53.21875 53.421875 
Q 53.21875 48.921875 51.53125 44.890625 
Q 49.859375 40.875 45.40625 35.40625 
Q 44.1875 33.984375 37.640625 27.21875 
Q 31.109375 20.453125 19.1875 8.296875 
z
" id="DejaVuSans-50"/>
      </defs>
      <g transform="translate(182.832521 366.30265)scale(0.08 -0.08)">
       <use xlink:href="#DejaVuSans-50"/>
       <use x="63.623047" xlink:href="#DejaVuSans-48"/>
      </g>
     </g>
    </g>
    <g id="xtick_3">
     <g id="text_3">
      <!-- 40 -->
      <defs>
       <path d="M 37.796875 64.3125 
L 12.890625 25.390625 
L 37.796875 25.390625 
z
M 35.203125 72.90625 
L 47.609375 72.90625 
L 47.609375 25.390625 
L 58.015625 25.390625 
L 58.015625 17.1875 
L 47.609375 17.1875 
L 47.609375 0 
L 37.796875 0 
L 37.796875 17.1875 
L 4.890625 17.1875 
L 4.890625 26.703125 
z
" id="DejaVuSans-52"/>
      </defs>
      <g transform="translate(300.000306 366.30265)scale(0.08 -0.08)">
       <use xlink:href="#DejaVuSans-52"/>
       <use x="63.623047" xlink:href="#DejaVuSans-48"/>
      </g>
     </g>
    </g>
    <g id="xtick_4">
     <g id="text_4">
      <!-- 60 -->
      <defs>
       <path d="M 33.015625 40.375 
Q 26.375 40.375 22.484375 35.828125 
Q 18.609375 31.296875 18.609375 23.390625 
Q 18.609375 15.53125 22.484375 10.953125 
Q 26.375 6.390625 33.015625 6.390625 
Q 39.65625 6.390625 43.53125 10.953125 
Q 47.40625 15.53125 47.40625 23.390625 
Q 47.40625 31.296875 43.53125 35.828125 
Q 39.65625 40.375 33.015625 40.375 
z
M 52.59375 71.296875 
L 52.59375 62.3125 
Q 48.875 64.0625 45.09375 64.984375 
Q 41.3125 65.921875 37.59375 65.921875 
Q 27.828125 65.921875 22.671875 59.328125 
Q 17.53125 52.734375 16.796875 39.40625 
Q 19.671875 43.65625 24.015625 45.921875 
Q 28.375 48.1875 33.59375 48.1875 
Q 44.578125 48.1875 50.953125 41.515625 
Q 57.328125 34.859375 57.328125 23.390625 
Q 57.328125 12.15625 50.6875 5.359375 
Q 44.046875 -1.421875 33.015625 -1.421875 
Q 20.359375 -1.421875 13.671875 8.265625 
Q 6.984375 17.96875 6.984375 36.375 
Q 6.984375 53.65625 15.1875 63.9375 
Q 23.390625 74.21875 37.203125 74.21875 
Q 40.921875 74.21875 44.703125 73.484375 
Q 48.484375 72.75 52.59375 71.296875 
z
" id="DejaVuSans-54"/>
      </defs>
      <g transform="translate(417.168091 366.30265)scale(0.08 -0.08)">
       <use xlink:href="#DejaVuSans-54"/>
       <use x="63.623047" xlink:href="#DejaVuSans-48"/>
      </g>
     </g>
    </g>
    <g id="xtick_5">
     <g id="text_5">
      <!-- 80 -->
      <defs>
       <path d="M 31.78125 34.625 
Q 24.75 34.625 20.71875 30.859375 
Q 16.703125 27.09375 16.703125 20.515625 
Q 16.703125 13.921875 20.71875 10.15625 
Q 24.75 6.390625 31.78125 6.390625 
Q 38.8125 6.390625 42.859375 10.171875 
Q 46.921875 13.96875 46.921875 20.515625 
Q 46.921875 27.09375 42.890625 30.859375 
Q 38.875 34.625 31.78125 34.625 
z
M 21.921875 38.8125 
Q 15.578125 40.375 12.03125 44.71875 
Q 8.5 49.078125 8.5 55.328125 
Q 8.5 64.0625 14.71875 69.140625 
Q 20.953125 74.21875 31.78125 74.21875 
Q 42.671875 74.21875 48.875 69.140625 
Q 55.078125 64.0625 55.078125 55.328125 
Q 55.078125 49.078125 51.53125 44.71875 
Q 48 40.375 41.703125 38.8125 
Q 48.828125 37.15625 52.796875 32.3125 
Q 56.78125 27.484375 56.78125 20.515625 
Q 56.78125 9.90625 50.3125 4.234375 
Q 43.84375 -1.421875 31.78125 -1.421875 
Q 19.734375 -1.421875 13.25 4.234375 
Q 6.78125 9.90625 6.78125 20.515625 
Q 6.78125 27.484375 10.78125 32.3125 
Q 14.796875 37.15625 21.921875 38.8125 
z
M 18.3125 54.390625 
Q 18.3125 48.734375 21.84375 45.5625 
Q 25.390625 42.390625 31.78125 42.390625 
Q 38.140625 42.390625 41.71875 45.5625 
Q 45.3125 48.734375 45.3125 54.390625 
Q 45.3125 60.0625 41.71875 63.234375 
Q 38.140625 66.40625 31.78125 66.40625 
Q 25.390625 66.40625 21.84375 63.234375 
Q 18.3125 60.0625 18.3125 54.390625 
z
" id="DejaVuSans-56"/>
      </defs>
      <g transform="translate(534.335877 366.30265)scale(0.08 -0.08)">
       <use xlink:href="#DejaVuSans-56"/>
       <use x="63.623047" xlink:href="#DejaVuSans-48"/>
      </g>
     </g>
    </g>
    <g id="xtick_6">
     <g id="text_6">
      <!-- 100 -->
      <defs>
       <path d="M 12.40625 8.296875 
L 28.515625 8.296875 
L 28.515625 63.921875 
L 10.984375 60.40625 
L 10.984375 69.390625 
L 28.421875 72.90625 
L 38.28125 72.90625 
L 38.28125 8.296875 
L 54.390625 8.296875 
L 54.390625 0 
L 12.40625 0 
z
" id="DejaVuSans-49"/>
      </defs>
      <g transform="translate(648.958662 366.30265)scale(0.08 -0.08)">
       <use xlink:href="#DejaVuSans-49"/>
       <use x="63.623047" xlink:href="#DejaVuSans-48"/>
       <use x="127.246094" xlink:href="#DejaVuSans-48"/>
      </g>
     </g>
    </g>
    <g id="xtick_7">
     <g id="text_7">
      <!-- 120 -->
      <g transform="translate(766.126447 366.30265)scale(0.08 -0.08)">
       <use xlink:href="#DejaVuSans-49"/>
       <use x="63.623047" xlink:href="#DejaVuSans-50"/>
       <use x="127.246094" xlink:href="#DejaVuSans-48"/>
      </g>
     </g>
    </g>
    <g id="xtick_8">
     <g id="text_8">
      <!-- 140 -->
      <g transform="translate(883.294232 366.30265)scale(0.08 -0.08)">
       <use xlink:href="#DejaVuSans-49"/>
       <use x="63.623047" xlink:href="#DejaVuSans-52"/>
       <use x="127.246094" xlink:href="#DejaVuSans-48"/>
      </g>
     </g>
    </g>
    <g id="text_9">
     <!-- Read Position -->
     <defs>
      <path d="M 44.390625 34.1875 
Q 47.5625 33.109375 50.5625 29.59375 
Q 53.5625 26.078125 56.59375 19.921875 
L 66.609375 0 
L 56 0 
L 46.6875 18.703125 
Q 43.0625 26.03125 39.671875 28.421875 
Q 36.28125 30.8125 30.421875 30.8125 
L 19.671875 30.8125 
L 19.671875 0 
L 9.8125 0 
L 9.8125 72.90625 
L 32.078125 72.90625 
Q 44.578125 72.90625 50.734375 67.671875 
Q 56.890625 62.453125 56.890625 51.90625 
Q 56.890625 45.015625 53.6875 40.46875 
Q 50.484375 35.9375 44.390625 34.1875 
z
M 19.671875 64.796875 
L 19.671875 38.921875 
L 32.078125 38.921875 
Q 39.203125 38.921875 42.84375 42.21875 
Q 46.484375 45.515625 46.484375 51.90625 
Q 46.484375 58.296875 42.84375 61.546875 
Q 39.203125 64.796875 32.078125 64.796875 
z
" id="DejaVuSans-82"/>
      <path d="M 56.203125 29.59375 
L 56.203125 25.203125 
L 14.890625 25.203125 
Q 15.484375 15.921875 20.484375 11.0625 
Q 25.484375 6.203125 34.421875 6.203125 
Q 39.59375 6.203125 44.453125 7.46875 
Q 49.3125 8.734375 54.109375 11.28125 
L 54.109375 2.78125 
Q 49.265625 0.734375 44.1875 -0.34375 
Q 39.109375 -1.421875 33.890625 -1.421875 
Q 20.796875 -1.421875 13.15625 6.1875 
Q 5.515625 13.8125 5.515625 26.8125 
Q 5.515625 40.234375 12.765625 48.109375 
Q 20.015625 56 32.328125 56 
Q 43.359375 56 49.78125 48.890625 
Q 56.203125 41.796875 56.203125 29.59375 
z
M 47.21875 32.234375 
Q 47.125 39.59375 43.09375 43.984375 
Q 39.0625 48.390625 32.421875 48.390625 
Q 24.90625 48.390625 20.390625 44.140625 
Q 15.875 39.890625 15.1875 32.171875 
z
" id="DejaVuSans-101"/>
      <path d="M 34.28125 27.484375 
Q 23.390625 27.484375 19.1875 25 
Q 14.984375 22.515625 14.984375 16.5 
Q 14.984375 11.71875 18.140625 8.90625 
Q 21.296875 6.109375 26.703125 6.109375 
Q 34.1875 6.109375 38.703125 11.40625 
Q 43.21875 16.703125 43.21875 25.484375 
L 43.21875 27.484375 
z
M 52.203125 31.203125 
L 52.203125 0 
L 43.21875 0 
L 43.21875 8.296875 
Q 40.140625 3.328125 35.546875 0.953125 
Q 30.953125 -1.421875 24.3125 -1.421875 
Q 15.921875 -1.421875 10.953125 3.296875 
Q 6 8.015625 6 15.921875 
Q 6 25.140625 12.171875 29.828125 
Q 18.359375 34.515625 30.609375 34.515625 
L 43.21875 34.515625 
L 43.21875 35.40625 
Q 43.21875 41.609375 39.140625 45 
Q 35.0625 48.390625 27.6875 48.390625 
Q 23 48.390625 18.546875 47.265625 
Q 14.109375 46.140625 10.015625 43.890625 
L 10.015625 52.203125 
Q 14.9375 54.109375 19.578125 55.046875 
Q 24.21875 56 28.609375 56 
Q 40.484375 56 46.34375 49.84375 
Q 52.203125 43.703125 52.203125 31.203125 
z
" id="DejaVuSans-97"/>
      <path d="M 45.40625 46.390625 
L 45.40625 75.984375 
L 54.390625 75.984375 
L 54.390625 0 
L 45.40625 0 
L 45.40625 8.203125 
Q 42.578125 3.328125 38.25 0.953125 
Q 33.9375 -1.421875 27.875 -1.421875 
Q 17.96875 -1.421875 11.734375 6.484375 
Q 5.515625 14.40625 5.515625 27.296875 
Q 5.515625 40.1875 11.734375 48.09375 
Q 17.96875 56 27.875 56 
Q 33.9375 56 38.25 53.625 
Q 42.578125 51.265625 45.40625 46.390625 
z
M 14.796875 27.296875 
Q 14.796875 17.390625 18.875 11.75 
Q 22.953125 6.109375 30.078125 6.109375 
Q 37.203125 6.109375 41.296875 11.75 
Q 45.40625 17.390625 45.40625 27.296875 
Q 45.40625 37.203125 41.296875 42.84375 
Q 37.203125 48.484375 30.078125 48.484375 
Q 22.953125 48.484375 18.875 42.84375 
Q 14.796875 37.203125 14.796875 27.296875 
z
" id="DejaVuSans-100"/>
      <path id="DejaVuSans-32"/>
      <path d="M 19.671875 64.796875 
L 19.671875 37.40625 
L 32.078125 37.40625 
Q 38.96875 37.40625 42.71875 40.96875 
Q 46.484375 44.53125 46.484375 51.125 
Q 46.484375 57.671875 42.71875 61.234375 
Q 38.96875 64.796875 32.078125 64.796875 
z
M 9.8125 72.90625 
L 32.078125 72.90625 
Q 44.34375 72.90625 50.609375 67.359375 
Q 56.890625 61.8125 56.890625 51.125 
Q 56.890625 40.328125 50.609375 34.8125 
Q 44.34375 29.296875 32.078125 29.296875 
L 19.671875 29.296875 
L 19.671875 0 
L 9.8125 0 
z
" id="DejaVuSans-80"/>
      <path d="M 30.609375 48.390625 
Q 23.390625 48.390625 19.1875 42.75 
Q 14.984375 37.109375 14.984375 27.296875 
Q 14.984375 17.484375 19.15625 11.84375 
Q 23.34375 6.203125 30.609375 6.203125 
Q 37.796875 6.203125 41.984375 11.859375 
Q 46.1875 17.53125 46.1875 27.296875 
Q 46.1875 37.015625 41.984375 42.703125 
Q 37.796875 48.390625 30.609375 48.390625 
z
M 30.609375 56 
Q 42.328125 56 49.015625 48.375 
Q 55.71875 40.765625 55.71875 27.296875 
Q 55.71875 13.875 49.015625 6.21875 
Q 42.328125 -1.421875 30.609375 -1.421875 
Q 18.84375 -1.421875 12.171875 6.21875 
Q 5.515625 13.875 5.515625 27.296875 
Q 5.515625 40.765625 12.171875 48.375 
Q 18.84375 56 30.609375 56 
z
" id="DejaVuSans-111"/>
      <path d="M 44.28125 53.078125 
L 44.28125 44.578125 
Q 40.484375 46.53125 36.375 47.5 
Q 32.28125 48.484375 27.875 48.484375 
Q 21.1875 48.484375 17.84375 46.4375 
Q 14.5 44.390625 14.5 40.28125 
Q 14.5 37.15625 16.890625 35.375 
Q 19.28125 33.59375 26.515625 31.984375 
L 29.59375 31.296875 
Q 39.15625 29.25 43.1875 25.515625 
Q 47.21875 21.78125 47.21875 15.09375 
Q 47.21875 7.46875 41.1875 3.015625 
Q 35.15625 -1.421875 24.609375 -1.421875 
Q 20.21875 -1.421875 15.453125 -0.5625 
Q 10.6875 0.296875 5.421875 2 
L 5.421875 11.28125 
Q 10.40625 8.6875 15.234375 7.390625 
Q 20.0625 6.109375 24.8125 6.109375 
Q 31.15625 6.109375 34.5625 8.28125 
Q 37.984375 10.453125 37.984375 14.40625 
Q 37.984375 18.0625 35.515625 20.015625 
Q 33.0625 21.96875 24.703125 23.78125 
L 21.578125 24.515625 
Q 13.234375 26.265625 9.515625 29.90625 
Q 5.8125 33.546875 5.8125 39.890625 
Q 5.8125 47.609375 11.28125 51.796875 
Q 16.75 56 26.8125 56 
Q 31.78125 56 36.171875 55.265625 
Q 40.578125 54.546875 44.28125 53.078125 
z
" id="DejaVuSans-115"/>
      <path d="M 9.421875 54.6875 
L 18.40625 54.6875 
L 18.40625 0 
L 9.421875 0 
z
M 9.421875 75.984375 
L 18.40625 75.984375 
L 18.40625 64.59375 
L 9.421875 64.59375 
z
" id="DejaVuSans-105"/>
      <path d="M 18.3125 70.21875 
L 18.3125 54.6875 
L 36.8125 54.6875 
L 36.8125 47.703125 
L 18.3125 47.703125 
L 18.3125 18.015625 
Q 18.3125 11.328125 20.140625 9.421875 
Q 21.96875 7.515625 27.59375 7.515625 
L 36.8125 7.515625 
L 36.8125 0 
L 27.59375 0 
Q 17.1875 0 13.234375 3.875 
Q 9.28125 7.765625 9.28125 18.015625 
L 9.28125 47.703125 
L 2.6875 47.703125 
L 2.6875 54.6875 
L 9.28125 54.6875 
L 9.28125 70.21875 
z
" id="DejaVuSans-116"/>
      <path d="M 54.890625 33.015625 
L 54.890625 0 
L 45.90625 0 
L 45.90625 32.71875 
Q 45.90625 40.484375 42.875 44.328125 
Q 39.84375 48.1875 33.796875 48.1875 
Q 26.515625 48.1875 22.3125 43.546875 
Q 18.109375 38.921875 18.109375 30.90625 
L 18.109375 0 
L 9.078125 0 
L 9.078125 54.6875 
L 18.109375 54.6875 
L 18.109375 46.1875 
Q 21.34375 51.125 25.703125 53.5625 
Q 30.078125 56 35.796875 56 
Q 45.21875 56 50.046875 50.171875 
Q 54.890625 44.34375 54.890625 33.015625 
z
" id="DejaVuSans-110"/>
     </defs>
     <g transform="translate(479.045156 379.564837)scale(0.1 -0.1)">
      <use xlink:href="#DejaVuSans-82"/>
      <use x="69.419922" xlink:href="#DejaVuSans-101"/>
      <use x="130.943359" xlink:href="#DejaVuSans-97"/>
      <use x="192.222656" xlink:href="#DejaVuSans-100"/>
      <use x="255.699219" xlink:href="#DejaVuSans-32"/>
      <use x="287.486328" xlink:href="#DejaVuSans-80"/>
      <use x="347.742188" xlink:href="#DejaVuSans-111"/>
      <use x="408.923828" xlink:href="#DejaVuSans-115"/>
      <use x="461.023438" xlink:href="#DejaVuSans-105"/>
      <use x="488.806641" xlink:href="#DejaVuSans-116"/>
      <use x="528.015625" xlink:href="#DejaVuSans-105"/>
      <use x="555.798828" xlink:href="#DejaVuSans-111"/>
      <use x="616.980469" xlink:href="#DejaVuSans-110"/>
     </g>
    </g>
   </g>
   <g id="matplotlib.axis_2">
    <g id="ytick_1">
     <g id="line2d_1">
      <path clip-path="url(#p61c502a92b)" d="M 32.968125 353.2239 
L 993.158125 353.2239 
" style="fill:none;stroke:#dedede;stroke-linecap:square;"/>
     </g>
     <g id="text_10">
      <!-- 0 -->
      <g transform="translate(20.878125 356.263275)scale(0.08 -0.08)">
       <use xlink:href="#DejaVuSans-48"/>
      </g>
     </g>
    </g>
    <g id="ytick_2">
     <g id="line2d_2">
      <path clip-path="url(#p61c502a92b)" d="M 32.968125 289.6303 
L 993.158125 289.6303 
" style="fill:none;stroke:#dedede;stroke-linecap:square;"/>
     </g>
     <g id="text_11">
      <!-- 1 -->
      <g transform="translate(20.878125 292.669675)scale(0.08 -0.08)">
       <use xlink:href="#DejaVuSans-49"/>
      </g>
     </g>
    </g>
    <g id="ytick_3">
     <g id="line2d_3">
      <path clip-path="url(#p61c502a92b)" d="M 32.968125 226.0367 
L 993.158125 226.0367 
" style="fill:none;stroke:#dedede;stroke-linecap:square;"/>
     </g>
     <g id="text_12">
      <!-- 2 -->
      <g transform="translate(20.878125 229.076075)scale(0.08 -0.08)">
       <use xlink:href="#DejaVuSans-50"/>
      </g>
     </g>
    </g>
    <g id="ytick_4">
     <g id="line2d_4">
      <path clip-path="url(#p61c502a92b)" d="M 32.968125 162.4431 
L 993.158125 162.4431 
" style="fill:none;stroke:#dedede;stroke-linecap:square;"/>
     </g>
     <g id="text_13">
      <!-- 3 -->
      <defs>
       <path d="M 40.578125 39.3125 
Q 47.65625 37.796875 51.625 33 
Q 55.609375 28.21875 55.609375 21.1875 
Q 55.609375 10.40625 48.1875 4.484375 
Q 40.765625 -1.421875 27.09375 -1.421875 
Q 22.515625 -1.421875 17.65625 -0.515625 
Q 12.796875 0.390625 7.625 2.203125 
L 7.625 11.71875 
Q 11.71875 9.328125 16.59375 8.109375 
Q 21.484375 6.890625 26.8125 6.890625 
Q 36.078125 6.890625 40.9375 10.546875 
Q 45.796875 14.203125 45.796875 21.1875 
Q 45.796875 27.640625 41.28125 31.265625 
Q 36.765625 34.90625 28.71875 34.90625 
L 20.21875 34.90625 
L 20.21875 43.015625 
L 29.109375 43.015625 
Q 36.375 43.015625 40.234375 45.921875 
Q 44.09375 48.828125 44.09375 54.296875 
Q 44.09375 59.90625 40.109375 62.90625 
Q 36.140625 65.921875 28.71875 65.921875 
Q 24.65625 65.921875 20.015625 65.03125 
Q 15.375 64.15625 9.8125 62.3125 
L 9.8125 71.09375 
Q 15.4375 72.65625 20.34375 73.4375 
Q 25.25 74.21875 29.59375 74.21875 
Q 40.828125 74.21875 47.359375 69.109375 
Q 53.90625 64.015625 53.90625 55.328125 
Q 53.90625 49.265625 50.4375 45.09375 
Q 46.96875 40.921875 40.578125 39.3125 
z
" id="DejaVuSans-51"/>
      </defs>
      <g transform="translate(20.878125 165.482475)scale(0.08 -0.08)">
       <use xlink:href="#DejaVuSans-51"/>
      </g>
     </g>
    </g>
    <g id="ytick_5">
     <g id="line2d_5">
      <path clip-path="url(#p61c502a92b)" d="M 32.968125 98.8495 
L 993.158125 98.8495 
" style="fill:none;stroke:#dedede;stroke-linecap:square;"/>
     </g>
     <g id="text_14">
      <!-- 4 -->
      <g transform="translate(20.878125 101.888875)scale(0.08 -0.08)">
       <use xlink:href="#DejaVuSans-52"/>
      </g>
     </g>
    </g>
    <g id="ytick_6">
     <g id="line2d_6">
      <path clip-path="url(#p61c502a92b)" d="M 32.968125 35.2559 
L 993.158125 35.2559 
" style="fill:none;stroke:#dedede;stroke-linecap:square;"/>
     </g>
     <g id="text_15">
      <!-- 5 -->
      <defs>
       <path d="M 10.796875 72.90625 
L 49.515625 72.90625 
L 49.515625 64.59375 
L 19.828125 64.59375 
L 19.828125 46.734375 
Q 21.96875 47.46875 24.109375 47.828125 
Q 26.265625 48.1875 28.421875 48.1875 
Q 40.625 48.1875 47.75 41.5 
Q 54.890625 34.8125 54.890625 23.390625 
Q 54.890625 11.625 47.5625 5.09375 
Q 40.234375 -1.421875 26.90625 -1.421875 
Q 22.3125 -1.421875 17.546875 -0.640625 
Q 12.796875 0.140625 7.71875 1.703125 
L 7.71875 11.625 
Q 12.109375 9.234375 16.796875 8.0625 
Q 21.484375 6.890625 26.703125 6.890625 
Q 35.15625 6.890625 40.078125 11.328125 
Q 45.015625 15.765625 45.015625 23.390625 
Q 45.015625 31 40.078125 35.4375 
Q 35.15625 39.890625 26.703125 39.890625 
Q 22.75 39.890625 18.8125 39.015625 
Q 14.890625 38.140625 10.796875 36.28125 
z
" id="DejaVuSans-53"/>
      </defs>
      <g transform="translate(20.878125 38.295275)scale(0.08 -0.08)">
       <use xlink:href="#DejaVuSans-53"/>
      </g>
     </g>
    </g>
    <g id="text_16">
     <!-- R2 Before filtering: Base Content Percent -->
     <defs>
      <path d="M 19.671875 34.8125 
L 19.671875 8.109375 
L 35.5 8.109375 
Q 43.453125 8.109375 47.28125 11.40625 
Q 51.125 14.703125 51.125 21.484375 
Q 51.125 28.328125 47.28125 31.5625 
Q 43.453125 34.8125 35.5 34.8125 
z
M 19.671875 64.796875 
L 19.671875 42.828125 
L 34.28125 42.828125 
Q 41.5 42.828125 45.03125 45.53125 
Q 48.578125 48.25 48.578125 53.8125 
Q 48.578125 59.328125 45.03125 62.0625 
Q 41.5 64.796875 34.28125 64.796875 
z
M 9.8125 72.90625 
L 35.015625 72.90625 
Q 46.296875 72.90625 52.390625 68.21875 
Q 58.5 63.53125 58.5 54.890625 
Q 58.5 48.1875 55.375 44.234375 
Q 52.25 40.28125 46.1875 39.3125 
Q 53.46875 37.75 57.5 32.78125 
Q 61.53125 27.828125 61.53125 20.40625 
Q 61.53125 10.640625 54.890625 5.3125 
Q 48.25 0 35.984375 0 
L 9.8125 0 
z
" id="DejaVuSans-66"/>
      <path d="M 37.109375 75.984375 
L 37.109375 68.5 
L 28.515625 68.5 
Q 23.6875 68.5 21.796875 66.546875 
Q 19.921875 64.59375 19.921875 59.515625 
L 19.921875 54.6875 
L 34.71875 54.6875 
L 34.71875 47.703125 
L 19.921875 47.703125 
L 19.921875 0 
L 10.890625 0 
L 10.890625 47.703125 
L 2.296875 47.703125 
L 2.296875 54.6875 
L 10.890625 54.6875 
L 10.890625 58.5 
Q 10.890625 67.625 15.140625 71.796875 
Q 19.390625 75.984375 28.609375 75.984375 
z
" id="DejaVuSans-102"/>
      <path d="M 41.109375 46.296875 
Q 39.59375 47.171875 37.8125 47.578125 
Q 36.03125 48 33.890625 48 
Q 26.265625 48 22.1875 43.046875 
Q 18.109375 38.09375 18.109375 28.8125 
L 18.109375 0 
L 9.078125 0 
L 9.078125 54.6875 
L 18.109375 54.6875 
L 18.109375 46.1875 
Q 20.953125 51.171875 25.484375 53.578125 
Q 30.03125 56 36.53125 56 
Q 37.453125 56 38.578125 55.875 
Q 39.703125 55.765625 41.0625 55.515625 
z
" id="DejaVuSans-114"/>
      <path d="M 9.421875 75.984375 
L 18.40625 75.984375 
L 18.40625 0 
L 9.421875 0 
z
" id="DejaVuSans-108"/>
      <path d="M 45.40625 27.984375 
Q 45.40625 37.75 41.375 43.109375 
Q 37.359375 48.484375 30.078125 48.484375 
Q 22.859375 48.484375 18.828125 43.109375 
Q 14.796875 37.75 14.796875 27.984375 
Q 14.796875 18.265625 18.828125 12.890625 
Q 22.859375 7.515625 30.078125 7.515625 
Q 37.359375 7.515625 41.375 12.890625 
Q 45.40625 18.265625 45.40625 27.984375 
z
M 54.390625 6.78125 
Q 54.390625 -7.171875 48.1875 -13.984375 
Q 42 -20.796875 29.203125 -20.796875 
Q 24.46875 -20.796875 20.265625 -20.09375 
Q 16.0625 -19.390625 12.109375 -17.921875 
L 12.109375 -9.1875 
Q 16.0625 -11.328125 19.921875 -12.34375 
Q 23.78125 -13.375 27.78125 -13.375 
Q 36.625 -13.375 41.015625 -8.765625 
Q 45.40625 -4.15625 45.40625 5.171875 
L 45.40625 9.625 
Q 42.625 4.78125 38.28125 2.390625 
Q 33.9375 0 27.875 0 
Q 17.828125 0 11.671875 7.65625 
Q 5.515625 15.328125 5.515625 27.984375 
Q 5.515625 40.671875 11.671875 48.328125 
Q 17.828125 56 27.875 56 
Q 33.9375 56 38.28125 53.609375 
Q 42.625 51.21875 45.40625 46.390625 
L 45.40625 54.6875 
L 54.390625 54.6875 
z
" id="DejaVuSans-103"/>
      <path d="M 11.71875 12.40625 
L 22.015625 12.40625 
L 22.015625 0 
L 11.71875 0 
z
M 11.71875 51.703125 
L 22.015625 51.703125 
L 22.015625 39.3125 
L 11.71875 39.3125 
z
" id="DejaVuSans-58"/>
      <path d="M 64.40625 67.28125 
L 64.40625 56.890625 
Q 59.421875 61.53125 53.78125 63.8125 
Q 48.140625 66.109375 41.796875 66.109375 
Q 29.296875 66.109375 22.65625 58.46875 
Q 16.015625 50.828125 16.015625 36.375 
Q 16.015625 21.96875 22.65625 14.328125 
Q 29.296875 6.6875 41.796875 6.6875 
Q 48.140625 6.6875 53.78125 8.984375 
Q 59.421875 11.28125 64.40625 15.921875 
L 64.40625 5.609375 
Q 59.234375 2.09375 53.4375 0.328125 
Q 47.65625 -1.421875 41.21875 -1.421875 
Q 24.65625 -1.421875 15.125 8.703125 
Q 5.609375 18.84375 5.609375 36.375 
Q 5.609375 53.953125 15.125 64.078125 
Q 24.65625 74.21875 41.21875 74.21875 
Q 47.75 74.21875 53.53125 72.484375 
Q 59.328125 70.75 64.40625 67.28125 
z
" id="DejaVuSans-67"/>
      <path d="M 48.78125 52.59375 
L 48.78125 44.1875 
Q 44.96875 46.296875 41.140625 47.34375 
Q 37.3125 48.390625 33.40625 48.390625 
Q 24.65625 48.390625 19.8125 42.84375 
Q 14.984375 37.3125 14.984375 27.296875 
Q 14.984375 17.28125 19.8125 11.734375 
Q 24.65625 6.203125 33.40625 6.203125 
Q 37.3125 6.203125 41.140625 7.25 
Q 44.96875 8.296875 48.78125 10.40625 
L 48.78125 2.09375 
Q 45.015625 0.34375 40.984375 -0.53125 
Q 36.96875 -1.421875 32.421875 -1.421875 
Q 20.0625 -1.421875 12.78125 6.34375 
Q 5.515625 14.109375 5.515625 27.296875 
Q 5.515625 40.671875 12.859375 48.328125 
Q 20.21875 56 33.015625 56 
Q 37.15625 56 41.109375 55.140625 
Q 45.0625 54.296875 48.78125 52.59375 
z
" id="DejaVuSans-99"/>
     </defs>
     <g transform="translate(14.798438 297.503181)rotate(-90)scale(0.1 -0.1)">
      <use xlink:href="#DejaVuSans-82"/>
      <use x="69.482422" xlink:href="#DejaVuSans-50"/>
      <use x="133.105469" xlink:href="#DejaVuSans-32"/>
      <use x="164.892578" xlink:href="#DejaVuSans-66"/>
      <use x="233.496094" xlink:href="#DejaVuSans-101"/>
      <use x="295.019531" xlink:href="#DejaVuSans-102"/>
      <use x="330.224609" xlink:href="#DejaVuSans-111"/>
      <use x="391.40625" xlink:href="#DejaVuSans-114"/>
      <use x="432.488281" xlink:href="#DejaVuSans-101"/>
      <use x="494.011719" xlink:href="#DejaVuSans-32"/>
      <use x="525.798828" xlink:href="#DejaVuSans-102"/>
      <use x="561.003906" xlink:href="#DejaVuSans-105"/>
      <use x="588.787109" xlink:href="#DejaVuSans-108"/>
      <use x="616.570312" xlink:href="#DejaVuSans-116"/>
      <use x="655.779297" xlink:href="#DejaVuSans-101"/>
      <use x="717.302734" xlink:href="#DejaVuSans-114"/>
      <use x="758.416016" xlink:href="#DejaVuSans-105"/>
      <use x="786.199219" xlink:href="#DejaVuSans-110"/>
      <use x="849.578125" xlink:href="#DejaVuSans-103"/>
      <use x="913.054688" xlink:href="#DejaVuSans-58"/>
      <use x="946.746094" xlink:href="#DejaVuSans-32"/>
      <use x="978.533203" xlink:href="#DejaVuSans-66"/>
      <use x="1047.136719" xlink:href="#DejaVuSans-97"/>
      <use x="1108.416016" xlink:href="#DejaVuSans-115"/>
      <use x="1160.515625" xlink:href="#DejaVuSans-101"/>
      <use x="1222.039062" xlink:href="#DejaVuSans-32"/>
      <use x="1253.826172" xlink:href="#DejaVuSans-67"/>
      <use x="1323.650391" xlink:href="#DejaVuSans-111"/>
      <use x="1384.832031" xlink:href="#DejaVuSans-110"/>
      <use x="1448.210938" xlink:href="#DejaVuSans-116"/>
      <use x="1487.419922" xlink:href="#DejaVuSans-101"/>
      <use x="1548.943359" xlink:href="#DejaVuSans-110"/>
      <use x="1612.322266" xlink:href="#DejaVuSans-116"/>
      <use x="1651.53125" xlink:href="#DejaVuSans-32"/>
      <use x="1683.318359" xlink:href="#DejaVuSans-80"/>
      <use x="1743.574219" xlink:href="#DejaVuSans-101"/>
      <use x="1805.097656" xlink:href="#DejaVuSans-114"/>
      <use x="1846.179688" xlink:href="#DejaVuSans-99"/>
      <use x="1901.160156" xlink:href="#DejaVuSans-101"/>
      <use x="1962.683594" xlink:href="#DejaVuSans-110"/>
      <use x="2026.0625" xlink:href="#DejaVuSans-116"/>
     </g>
    </g>
   </g>
   <g id="line2d_7">
    <path clip-path="url(#p61c502a92b)" d="M 76.613125 352.009205 
L 82.471514 353.215661 
L 146.913796 353.221673 
L 152.772185 353.153758 
L 164.488964 353.2239 
L 211.356078 353.222564 
L 217.214467 353.053776 
L 228.931246 353.2239 
L 275.79836 353.110619 
L 281.656749 352.946487 
L 287.515138 353.221443 
L 322.665474 353.14639 
L 328.523863 352.916163 
L 334.382253 353.221637 
L 439.833259 353.2239 
L 445.691648 353.121652 
L 457.408427 353.2239 
L 644.876883 353.19949 
L 650.735273 352.871735 
L 656.593662 353.184175 
L 691.743997 353.222736 
L 750.32789 353.178198 
L 767.903058 353.2239 
L 949.513125 353.2239 
L 949.513125 353.2239 
" style="fill:none;stroke:#7cb5ec;stroke-linecap:square;"/>
   </g>
   <g id="line2d_8">
    <path clip-path="url(#p61c502a92b)" d="M 76.613125 351.831664 
L 82.471514 353.217879 
L 182.064132 353.2239 
L 187.922521 353.163163 
L 205.497689 353.221806 
L 211.356078 353.222329 
L 217.214467 353.060801 
L 223.072857 353.203742 
L 258.223192 353.2239 
L 275.79836 353.126964 
L 281.656749 352.986441 
L 287.515138 353.223113 
L 322.665474 353.172605 
L 328.523863 352.997279 
L 334.382253 353.22153 
L 439.833259 353.2239 
L 445.691648 353.153924 
L 457.408427 353.2239 
L 644.876883 353.205199 
L 650.735273 352.897395 
L 656.593662 353.193618 
L 703.460776 353.2239 
L 949.513125 353.2239 
L 949.513125 353.2239 
" style="fill:none;stroke:#434348;stroke-linecap:square;"/>
   </g>
   <g id="line2d_9">
    <path clip-path="url(#p61c502a92b)" d="M 76.613125 351.829814 
L 82.471514 353.216984 
L 146.913796 353.223185 
L 158.630575 353.2239 
L 211.356078 353.223423 
L 217.214467 353.072592 
L 223.072857 353.211261 
L 269.939971 353.223781 
L 281.656749 352.977248 
L 287.515138 353.223064 
L 322.665474 353.180488 
L 328.523863 352.97769 
L 334.382253 353.223541 
L 574.576212 353.2239 
L 580.434602 353.117795 
L 592.15138 353.222146 
L 633.160105 353.193777 
L 644.876883 353.20079 
L 650.735273 352.872351 
L 656.593662 353.190161 
L 709.319165 353.2239 
L 949.513125 353.2239 
L 949.513125 353.2239 
" style="fill:none;stroke:#90ed7d;stroke-linecap:square;"/>
   </g>
   <g id="line2d_10">
    <path clip-path="url(#p61c502a92b)" d="M 76.613125 351.845451 
L 82.471514 353.216471 
L 146.913796 353.222249 
L 152.772185 353.152639 
L 164.488964 353.2239 
L 211.356078 353.221149 
L 217.214467 353.061292 
L 228.931246 353.2239 
L 275.79836 353.11009 
L 281.656749 352.957733 
L 287.515138 353.222243 
L 322.665474 353.14478 
L 328.523863 352.909285 
L 334.382253 353.220822 
L 439.833259 353.2239 
L 445.691648 353.124021 
L 457.408427 353.2239 
L 644.876883 353.203021 
L 650.735273 352.894111 
L 656.593662 353.189989 
L 691.743997 353.220868 
L 715.177555 353.2239 
L 949.513125 353.2239 
L 949.513125 353.2239 
" style="fill:none;stroke:#f7a35c;stroke-linecap:square;"/>
   </g>
   <g id="line2d_11">
    <path clip-path="url(#p61c502a92b)" d="M 76.613125 351.720242 
L 82.471514 353.213013 
L 141.055407 353.2239 
L 211.356078 353.221921 
L 217.214467 353.076429 
L 228.931246 353.223158 
L 275.79836 353.127148 
L 281.656749 352.972973 
L 287.515138 353.222905 
L 322.665474 353.146807 
L 328.523863 352.94479 
L 334.382253 353.220861 
L 439.833259 353.2239 
L 445.691648 353.136895 
L 457.408427 353.2239 
L 644.876883 353.204539 
L 650.735273 352.912952 
L 656.593662 353.185368 
L 685.885608 353.2239 
L 838.203729 353.16332 
L 849.920508 353.200211 
L 873.354065 353.222522 
L 879.212454 353.152283 
L 890.929232 353.2239 
L 949.513125 353.2239 
L 949.513125 353.2239 
" style="fill:none;stroke:#8085e9;stroke-linecap:square;"/>
   </g>
   <g id="line2d_12">
    <path clip-path="url(#p61c502a92b)" d="M 76.613125 351.788599 
L 82.471514 353.211112 
L 135.197018 353.2239 
L 211.356078 353.221676 
L 217.214467 353.032916 
L 228.931246 353.2239 
L 269.939971 353.223622 
L 281.656749 352.898953 
L 287.515138 353.220548 
L 322.665474 353.134983 
L 328.523863 352.865171 
L 334.382253 353.219363 
L 439.833259 353.2239 
L 445.691648 353.109202 
L 451.550038 353.2239 
L 539.425877 353.2239 
L 545.284266 353.095087 
L 557.001044 353.212659 
L 644.876883 353.19798 
L 650.735273 352.811152 
L 656.593662 353.186356 
L 715.177555 353.2239 
L 926.079568 353.2239 
L 931.937957 353.090321 
L 937.796346 353.208005 
L 949.513125 353.2239 
L 949.513125 353.2239 
" style="fill:none;stroke:#f15c80;stroke-linecap:square;"/>
   </g>
   <g id="line2d_13">
    <path clip-path="url(#p61c502a92b)" d="M 76.613125 352.032086 
L 82.471514 353.21898 
L 146.913796 353.22062 
L 152.772185 353.166503 
L 164.488964 353.2239 
L 211.356078 353.22185 
L 217.214467 353.064007 
L 223.072857 353.204221 
L 258.223192 353.2239 
L 275.79836 353.126254 
L 281.656749 352.966963 
L 287.515138 353.2239 
L 322.665474 353.181457 
L 328.523863 352.97071 
L 334.382253 353.223075 
L 539.425877 353.2239 
L 545.284266 353.119648 
L 557.001044 353.217171 
L 644.876883 353.201545 
L 650.735273 352.883808 
L 656.593662 353.186003 
L 691.743997 353.222915 
L 738.611112 353.2239 
L 949.513125 353.2239 
L 949.513125 353.2239 
" style="fill:none;stroke:#e4d354;stroke-linecap:square;"/>
   </g>
   <g id="line2d_14">
    <path clip-path="url(#p61c502a92b)" d="M 76.613125 351.852046 
L 82.471514 353.216307 
L 146.913796 353.221053 
L 152.772185 353.166634 
L 164.488964 353.2239 
L 211.356078 353.222634 
L 217.214467 353.066023 
L 228.931246 353.2239 
L 275.79836 353.104068 
L 281.656749 352.952526 
L 287.515138 353.222629 
L 322.665474 353.142206 
L 328.523863 352.933336 
L 334.382253 353.221636 
L 439.833259 353.2239 
L 445.691648 353.137781 
L 457.408427 353.2239 
L 574.576212 353.2239 
L 580.434602 353.110694 
L 592.15138 353.217441 
L 621.443326 353.2239 
L 644.876883 353.203887 
L 650.735273 352.906551 
L 656.593662 353.187459 
L 691.743997 353.222094 
L 726.894333 353.2239 
L 926.079568 353.2239 
L 931.937957 353.102312 
L 937.796346 353.208695 
L 949.513125 353.2239 
L 949.513125 353.2239 
" style="fill:none;stroke:#2b908f;stroke-linecap:square;"/>
   </g>
   <g id="line2d_15">
    <path clip-path="url(#p61c502a92b)" d="M 76.613125 351.941898 
L 82.471514 353.213352 
L 146.913796 353.222462 
L 152.772185 353.157259 
L 164.488964 353.2239 
L 211.356078 353.222222 
L 217.214467 353.065208 
L 228.931246 353.2239 
L 275.79836 353.108918 
L 281.656749 352.943308 
L 287.515138 353.221736 
L 322.665474 353.147342 
L 328.523863 352.894345 
L 334.382253 353.219767 
L 439.833259 353.2239 
L 445.691648 353.123892 
L 457.408427 353.2239 
L 574.576212 353.2239 
L 580.434602 353.108546 
L 592.15138 353.217456 
L 621.443326 353.2239 
L 644.876883 353.200117 
L 650.735273 352.855999 
L 656.593662 353.180181 
L 691.743997 353.222279 
L 721.035944 353.2239 
L 949.513125 353.2239 
L 949.513125 353.2239 
" style="fill:none;stroke:#f45b5b;stroke-linecap:square;"/>
   </g>
   <g id="line2d_16">
    <path clip-path="url(#p61c502a92b)" d="M 76.613125 351.769743 
L 82.471514 353.2104 
L 135.197018 353.2239 
L 211.356078 353.221532 
L 217.214467 353.066406 
L 228.931246 353.223426 
L 275.79836 353.129273 
L 281.656749 352.971606 
L 287.515138 353.222 
L 322.665474 353.160275 
L 328.523863 352.952496 
L 334.382253 353.221501 
L 439.833259 353.2239 
L 445.691648 353.137599 
L 457.408427 353.2239 
L 644.876883 353.201892 
L 650.735273 352.899669 
L 656.593662 353.187331 
L 691.743997 353.222159 
L 721.035944 353.2239 
L 949.513125 353.2239 
L 949.513125 353.2239 
" style="fill:none;stroke:#91e8e1;stroke-linecap:square;"/>
   </g>
   <g id="line2d_17">
    <path clip-path="url(#p61c502a92b)" d="M 76.613125 351.748681 
L 82.471514 353.213061 
L 146.913796 353.221308 
L 152.772185 353.148266 
L 164.488964 353.2239 
L 211.356078 353.221779 
L 217.214467 353.055432 
L 228.931246 353.2239 
L 275.79836 353.10451 
L 281.656749 352.945489 
L 287.515138 353.222718 
L 322.665474 353.126655 
L 328.523863 352.89002 
L 334.382253 353.219831 
L 439.833259 353.2239 
L 445.691648 353.118886 
L 457.408427 353.2239 
L 539.425877 353.2239 
L 545.284266 353.109378 
L 557.001044 353.211339 
L 644.876883 353.201064 
L 650.735273 352.872535 
L 656.593662 353.187513 
L 703.460776 353.2239 
L 926.079568 353.2239 
L 931.937957 353.09856 
L 937.796346 353.220978 
L 949.513125 353.2239 
L 949.513125 353.2239 
" style="fill:none;stroke:#7cb5ec;stroke-linecap:square;"/>
   </g>
   <g id="line2d_18">
    <path clip-path="url(#p61c502a92b)" d="M 76.613125 351.893287 
L 82.471514 353.214008 
L 146.913796 353.222563 
L 152.772185 353.151982 
L 164.488964 353.2239 
L 211.356078 353.221494 
L 217.214467 353.059746 
L 228.931246 353.223098 
L 275.79836 353.113812 
L 281.656749 352.960072 
L 287.515138 353.221484 
L 322.665474 353.150823 
L 328.523863 352.905861 
L 334.382253 353.219825 
L 439.833259 353.2239 
L 445.691648 353.127692 
L 457.408427 353.2239 
L 644.876883 353.206652 
L 650.735273 352.882594 
L 656.593662 353.190703 
L 691.743997 353.2239 
L 726.894333 353.2239 
L 949.513125 353.2239 
L 949.513125 353.2239 
" style="fill:none;stroke:#434348;stroke-linecap:square;"/>
   </g>
   <g id="line2d_19">
    <path clip-path="url(#p61c502a92b)" d="M 76.613125 351.714073 
L 82.471514 353.214741 
L 146.913796 353.219692 
L 152.772185 353.158051 
L 164.488964 353.2239 
L 211.356078 353.221177 
L 217.214467 353.061258 
L 228.931246 353.223652 
L 275.79836 353.102523 
L 281.656749 352.973587 
L 287.515138 353.220912 
L 322.665474 353.142712 
L 328.523863 352.933635 
L 334.382253 353.220349 
L 439.833259 353.2239 
L 445.691648 353.126616 
L 457.408427 353.2239 
L 644.876883 353.20815 
L 650.735273 352.918221 
L 656.593662 353.184927 
L 685.885608 353.2239 
L 949.513125 353.2239 
L 949.513125 353.2239 
" style="fill:none;stroke:#90ed7d;stroke-linecap:square;"/>
   </g>
   <g id="line2d_20">
    <path clip-path="url(#p61c502a92b)" d="M 76.613125 351.794907 
L 82.471514 353.21295 
L 141.055407 353.2239 
L 211.356078 353.221984 
L 217.214467 353.056363 
L 228.931246 353.222805 
L 269.939971 353.2239 
L 281.656749 352.940279 
L 287.515138 353.222251 
L 322.665474 353.147824 
L 328.523863 352.895562 
L 334.382253 353.221669 
L 439.833259 353.2239 
L 445.691648 353.104429 
L 451.550038 353.2239 
L 574.576212 353.2239 
L 580.434602 353.104877 
L 586.292991 353.217021 
L 644.876883 353.201272 
L 650.735273 352.847589 
L 656.593662 353.184559 
L 685.885608 353.2239 
L 949.513125 353.2239 
L 949.513125 353.2239 
" style="fill:none;stroke:#f7a35c;stroke-linecap:square;"/>
   </g>
   <g id="line2d_21">
    <path clip-path="url(#p61c502a92b)" d="M 76.613125 351.839105 
L 82.471514 353.215283 
L 146.913796 353.222886 
L 152.772185 353.148375 
L 164.488964 353.2239 
L 211.356078 353.222379 
L 217.214467 353.030272 
L 223.072857 353.188419 
L 240.648024 353.2239 
L 275.79836 353.107165 
L 281.656749 352.921185 
L 287.515138 353.222883 
L 322.665474 353.146652 
L 328.523863 352.891961 
L 334.382253 353.221335 
L 439.833259 353.2239 
L 445.691648 353.100182 
L 451.550038 353.2239 
L 539.425877 353.2239 
L 545.284266 353.101441 
L 557.001044 353.217118 
L 574.576212 353.2239 
L 580.434602 353.084574 
L 586.292991 353.216803 
L 644.876883 353.198893 
L 650.735273 352.847563 
L 656.593662 353.177153 
L 691.743997 353.222336 
L 726.894333 353.2239 
L 926.079568 353.2239 
L 931.937957 353.096097 
L 937.796346 353.207473 
L 949.513125 353.2239 
L 949.513125 353.2239 
" style="fill:none;stroke:#8085e9;stroke-linecap:square;"/>
   </g>
   <g id="line2d_22">
    <path clip-path="url(#p61c502a92b)" d="M 76.613125 351.736617 
L 82.471514 353.212273 
L 141.055407 353.2239 
L 211.356078 353.222903 
L 217.214467 353.047832 
L 228.931246 353.223236 
L 275.79836 353.09603 
L 281.656749 352.946479 
L 287.515138 353.221562 
L 322.665474 353.141744 
L 328.523863 352.912005 
L 334.382253 353.21982 
L 439.833259 353.2239 
L 445.691648 353.120457 
L 457.408427 353.2239 
L 539.425877 353.2239 
L 545.284266 353.112747 
L 557.001044 353.212674 
L 644.876883 353.204571 
L 650.735273 352.891601 
L 656.593662 353.197862 
L 709.319165 353.2239 
L 926.079568 353.2239 
L 931.937957 353.101222 
L 937.796346 353.217605 
L 949.513125 353.2239 
L 949.513125 353.2239 
" style="fill:none;stroke:#f15c80;stroke-linecap:square;"/>
   </g>
   <g id="line2d_23">
    <path clip-path="url(#p61c502a92b)" d="M 76.613125 352.013358 
L 82.471514 353.210047 
L 135.197018 353.2239 
L 211.356078 353.22227 
L 217.214467 353.074365 
L 228.931246 353.223696 
L 275.79836 353.111967 
L 281.656749 352.960974 
L 287.515138 353.223084 
L 322.665474 353.156042 
L 328.523863 352.913587 
L 334.382253 353.220818 
L 439.833259 353.2239 
L 445.691648 353.128812 
L 457.408427 353.2239 
L 644.876883 353.205711 
L 650.735273 352.862107 
L 656.593662 353.189908 
L 703.460776 353.2239 
L 949.513125 353.2239 
L 949.513125 353.2239 
" style="fill:none;stroke:#e4d354;stroke-linecap:square;"/>
   </g>
   <g id="line2d_24">
    <path clip-path="url(#p61c502a92b)" d="M 76.613125 351.771079 
L 82.471514 353.214967 
L 146.913796 353.221826 
L 158.630575 353.2239 
L 211.356078 353.222464 
L 217.214467 353.069813 
L 228.931246 353.22374 
L 275.79836 353.119027 
L 281.656749 352.976757 
L 287.515138 353.221977 
L 322.665474 353.153772 
L 328.523863 352.946993 
L 334.382253 353.220971 
L 439.833259 353.2239 
L 445.691648 353.142484 
L 457.408427 353.2239 
L 644.876883 353.202495 
L 650.735273 352.903929 
L 656.593662 353.189159 
L 691.743997 353.221344 
L 726.894333 353.2239 
L 949.513125 353.2239 
L 949.513125 353.2239 
" style="fill:none;stroke:#2b908f;stroke-linecap:square;"/>
   </g>
   <g id="line2d_25">
    <path clip-path="url(#p61c502a92b)" d="M 76.613125 351.818284 
L 82.471514 353.217979 
L 146.913796 353.22279 
L 158.630575 353.2239 
L 211.356078 353.22279 
L 217.214467 353.093997 
L 228.931246 353.2239 
L 275.79836 353.136068 
L 281.656749 352.993597 
L 287.515138 353.222787 
L 322.665474 353.179514 
L 328.523863 353.003625 
L 334.382253 353.222779 
L 539.425877 353.2239 
L 545.284266 353.149822 
L 557.001044 353.21901 
L 644.876883 353.208394 
L 650.735273 352.901288 
L 656.593662 353.19177 
L 721.035944 353.2239 
L 949.513125 353.2239 
L 949.513125 353.2239 
" style="fill:none;stroke:#f45b5b;stroke-linecap:square;"/>
   </g>
   <g id="line2d_26">
    <path clip-path="url(#p61c502a92b)" d="M 76.613125 351.913967 
L 82.471514 353.2157 
L 146.913796 353.222409 
L 152.772185 353.163025 
L 164.488964 353.2239 
L 211.356078 353.221664 
L 217.214467 353.059911 
L 228.931246 353.2239 
L 275.79836 353.121944 
L 281.656749 352.975357 
L 287.515138 353.223153 
L 322.665474 353.154381 
L 328.523863 352.945281 
L 334.382253 353.220642 
L 439.833259 353.2239 
L 445.691648 353.134926 
L 457.408427 353.2239 
L 644.876883 353.203364 
L 650.735273 352.88756 
L 656.593662 353.193962 
L 721.035944 353.2239 
L 926.079568 353.2239 
L 931.937957 353.10884 
L 943.654736 353.204209 
L 949.513125 353.2239 
L 949.513125 353.2239 
" style="fill:none;stroke:#91e8e1;stroke-linecap:square;"/>
   </g>
   <g id="line2d_27">
    <path clip-path="url(#p61c502a92b)" d="M 76.613125 351.75677 
L 82.471514 353.21747 
L 146.913796 353.221995 
L 158.630575 353.2239 
L 211.356078 353.221995 
L 217.214467 353.066495 
L 228.931246 353.223424 
L 275.79836 353.110597 
L 281.656749 352.970584 
L 287.515138 353.22151 
L 322.665474 353.153542 
L 328.523863 352.949916 
L 334.382253 353.220755 
L 439.833259 353.2239 
L 445.691648 353.13571 
L 457.408427 353.2239 
L 644.876883 353.206172 
L 650.735273 352.914934 
L 656.593662 353.196764 
L 715.177555 353.2239 
L 949.513125 353.2239 
L 949.513125 353.2239 
" style="fill:none;stroke:#7cb5ec;stroke-linecap:square;"/>
   </g>
   <g id="line2d_28">
    <path clip-path="url(#p61c502a92b)" d="M 76.613125 351.934196 
L 82.471514 353.210118 
L 135.197018 353.2239 
L 211.356078 353.221895 
L 217.214467 353.065538 
L 228.931246 353.223649 
L 275.79836 353.11226 
L 281.656749 352.954773 
L 287.515138 353.220383 
L 322.665474 353.141717 
L 328.523863 352.880498 
L 334.382253 353.220349 
L 439.833259 353.2239 
L 445.691648 353.107012 
L 451.550038 353.2239 
L 574.576212 353.2239 
L 580.434602 353.107095 
L 592.15138 353.216597 
L 621.443326 353.2239 
L 644.876883 353.198633 
L 650.735273 352.874348 
L 656.593662 353.183376 
L 691.743997 353.221276 
L 726.894333 353.2239 
L 926.079568 353.2239 
L 931.937957 353.090661 
L 937.796346 353.206811 
L 949.513125 353.2239 
L 949.513125 353.2239 
" style="fill:none;stroke:#434348;stroke-linecap:square;"/>
   </g>
   <g id="line2d_29">
    <path clip-path="url(#p61c502a92b)" d="M 76.613125 351.88046 
L 82.471514 353.216425 
L 146.913796 353.221764 
L 152.772185 353.162762 
L 164.488964 353.2239 
L 211.356078 353.222298 
L 217.214467 353.060509 
L 228.931246 353.2239 
L 275.79836 353.122579 
L 281.656749 352.967873 
L 287.515138 353.223365 
L 322.665474 353.150648 
L 328.523863 352.948062 
L 334.382253 353.22201 
L 439.833259 353.2239 
L 445.691648 353.130468 
L 457.408427 353.2239 
L 539.425877 353.2239 
L 545.284266 353.110326 
L 557.001044 353.215024 
L 574.576212 353.2239 
L 580.434602 353.098855 
L 586.292991 353.216612 
L 644.876883 353.199904 
L 650.735273 352.902127 
L 656.593662 353.185302 
L 691.743997 353.221438 
L 732.752722 353.2239 
L 926.079568 353.2239 
L 931.937957 353.102422 
L 937.796346 353.213809 
L 949.513125 353.2239 
L 949.513125 353.2239 
" style="fill:none;stroke:#90ed7d;stroke-linecap:square;"/>
   </g>
   <g id="line2d_30">
    <path clip-path="url(#p61c502a92b)" d="M 76.613125 351.774856 
L 82.471514 353.213187 
L 146.913796 353.221363 
L 152.772185 353.166107 
L 164.488964 353.2239 
L 211.356078 353.220799 
L 217.214467 353.057288 
L 228.931246 353.2239 
L 275.79836 353.101618 
L 281.656749 352.947985 
L 287.515138 353.220787 
L 322.665474 353.147867 
L 328.523863 352.908208 
L 334.382253 353.221028 
L 439.833259 353.2239 
L 445.691648 353.124739 
L 457.408427 353.2239 
L 574.576212 353.2239 
L 580.434602 353.112433 
L 592.15138 353.218616 
L 615.584937 353.180777 
L 627.301716 353.223455 
L 644.876883 353.200524 
L 650.735273 352.858192 
L 656.593662 353.189062 
L 685.885608 353.2239 
L 838.203729 353.159118 
L 849.920508 353.191941 
L 873.354065 353.22082 
L 879.212454 353.14935 
L 890.929232 353.2239 
L 926.079568 353.2239 
L 931.937957 353.099737 
L 943.654736 353.20473 
L 949.513125 353.2239 
L 949.513125 353.2239 
" style="fill:none;stroke:#f7a35c;stroke-linecap:square;"/>
   </g>
   <g id="line2d_31">
    <path clip-path="url(#p61c502a92b)" d="M 76.613125 351.917465 
L 82.471514 353.21415 
L 146.913796 353.220333 
L 152.772185 353.151611 
L 164.488964 353.2239 
L 211.356078 353.220571 
L 217.214467 353.058634 
L 228.931246 353.223187 
L 269.939971 353.2239 
L 281.656749 352.946343 
L 287.515138 353.222229 
L 322.665474 353.139976 
L 328.523863 352.901641 
L 334.382253 353.219294 
L 439.833259 353.2239 
L 445.691648 353.114455 
L 457.408427 353.2239 
L 574.576212 353.2239 
L 580.434602 353.104768 
L 592.15138 353.2164 
L 633.160105 353.191352 
L 644.876883 353.199786 
L 650.735273 352.88309 
L 656.593662 353.189307 
L 715.177555 353.2239 
L 949.513125 353.2239 
L 949.513125 353.2239 
" style="fill:none;stroke:#8085e9;stroke-linecap:square;"/>
   </g>
   <g id="line2d_32">
    <path clip-path="url(#p61c502a92b)" d="M 76.613125 351.714455 
L 82.471514 353.216771 
L 146.913796 353.222271 
L 158.630575 353.2239 
L 211.356078 353.222678 
L 217.214467 353.075624 
L 228.931246 353.2239 
L 275.79836 353.129346 
L 281.656749 352.99458 
L 287.515138 353.222677 
L 322.665474 353.161105 
L 328.523863 352.958615 
L 334.382253 353.221851 
L 439.833259 353.2239 
L 445.691648 353.138266 
L 457.408427 353.2239 
L 644.876883 353.202573 
L 650.735273 352.908011 
L 656.593662 353.186298 
L 685.885608 353.2239 
L 949.513125 353.2239 
L 949.513125 353.2239 
" style="fill:none;stroke:#f15c80;stroke-linecap:square;"/>
   </g>
   <g id="line2d_33">
    <path clip-path="url(#p61c502a92b)" d="M 76.613125 351.711479 
L 82.471514 353.216211 
L 146.913796 353.220557 
L 152.772185 353.154697 
L 164.488964 353.2239 
L 211.356078 353.22156 
L 217.214467 353.062763 
L 228.931246 353.223566 
L 275.79836 353.10637 
L 281.656749 352.969526 
L 287.515138 353.222894 
L 322.665474 353.130564 
L 328.523863 352.930175 
L 334.382253 353.220166 
L 439.833259 353.2239 
L 445.691648 353.122728 
L 457.408427 353.2239 
L 574.576212 353.2239 
L 580.434602 353.10688 
L 592.15138 353.216291 
L 621.443326 353.223342 
L 644.876883 353.209334 
L 650.735273 352.892077 
L 656.593662 353.184586 
L 691.743997 353.2239 
L 721.035944 353.2239 
L 949.513125 353.2239 
L 949.513125 353.2239 
" style="fill:none;stroke:#e4d354;stroke-linecap:square;"/>
   </g>
   <g id="line2d_34">
    <path clip-path="url(#p61c502a92b)" d="M 76.613125 351.811175 
L 82.471514 353.217165 
L 146.913796 353.222675 
L 164.488964 353.2239 
L 211.356078 353.223696 
L 217.214467 353.102465 
L 228.931246 353.2239 
L 275.79836 353.152641 
L 281.656749 353.024779 
L 287.515138 353.2239 
L 322.665474 353.178684 
L 328.523863 353.031522 
L 334.382253 353.223491 
L 644.876883 353.20654 
L 650.735273 352.916482 
L 656.593662 353.190254 
L 697.602387 353.211132 
L 744.469501 353.2239 
L 756.186279 353.2239 
L 949.513125 353.2239 
L 949.513125 353.2239 
" style="fill:none;stroke:#2b908f;stroke-linecap:square;"/>
   </g>
   <g id="line2d_35">
    <path clip-path="url(#p61c502a92b)" d="M 76.613125 351.866374 
L 82.471514 353.219855 
L 182.064132 353.2239 
L 193.78091 353.221473 
L 211.356078 353.223495 
L 217.214467 353.111851 
L 228.931246 353.2239 
L 275.79836 353.165632 
L 281.656749 353.0604 
L 287.515138 353.2239 
L 322.665474 353.191479 
L 328.523863 353.059731 
L 334.382253 353.223495 
L 644.876883 353.207982 
L 650.735273 352.947766 
L 656.593662 353.19231 
L 703.460776 353.2239 
L 949.513125 353.2239 
L 949.513125 353.2239 
" style="fill:none;stroke:#f45b5b;stroke-linecap:square;"/>
   </g>
   <g id="line2d_36">
    <path clip-path="url(#p61c502a92b)" d="M 76.613125 351.574263 
L 82.471514 353.212946 
L 146.913796 353.222671 
L 152.772185 353.15326 
L 164.488964 353.2239 
L 211.356078 353.223565 
L 217.214467 353.030535 
L 223.072857 353.198863 
L 252.364803 353.223006 
L 269.939971 353.223788 
L 275.79836 353.111505 
L 281.656749 352.887405 
L 287.515138 353.223564 
L 322.665474 353.156197 
L 328.523863 352.886071 
L 334.382253 353.223115 
L 439.833259 353.2239 
L 445.691648 353.115451 
L 457.408427 353.2239 
L 539.425877 353.2239 
L 545.284266 353.082648 
L 551.142655 353.216057 
L 574.576212 353.2239 
L 580.434602 353.072273 
L 586.292991 353.219227 
L 644.876883 353.1885 
L 650.735273 352.712679 
L 656.593662 353.172941 
L 691.743997 353.222668 
L 715.177555 353.2239 
L 785.478226 353.2239 
L 791.336615 353.072595 
L 797.195004 353.223767 
L 873.354065 353.219127 
L 879.212454 353.092275 
L 885.070843 353.220372 
L 926.079568 353.2239 
L 931.937957 353.054252 
L 937.796346 353.202494 
L 949.513125 353.2239 
L 949.513125 353.2239 
" style="fill:none;stroke:#91e8e1;stroke-linecap:square;"/>
   </g>
   <g id="line2d_37">
    <path clip-path="url(#p61c502a92b)" d="M 76.613125 351.808198 
L 82.471514 353.211669 
L 141.055407 353.2239 
L 275.79836 353.152 
L 281.656749 353.028009 
L 287.515138 353.222369 
L 322.665474 353.183946 
L 328.523863 353.036268 
L 334.382253 353.2239 
L 644.876883 353.20775 
L 650.735273 352.916992 
L 656.593662 353.191198 
L 691.743997 353.222008 
L 726.894333 353.2239 
L 949.513125 353.2239 
L 949.513125 353.2239 
" style="fill:none;stroke:#7cb5ec;stroke-linecap:square;"/>
   </g>
   <g id="line2d_38">
    <path clip-path="url(#p61c502a92b)" d="M 76.613125 351.7963 
L 82.471514 353.216615 
L 176.205742 353.2239 
L 211.356078 353.22359 
L 217.214467 353.102841 
L 228.931246 353.2239 
L 275.79836 353.163737 
L 281.656749 353.04028 
L 287.515138 353.2239 
L 322.665474 353.189891 
L 328.523863 353.031763 
L 334.382253 353.223434 
L 644.876883 353.210587 
L 650.735273 352.946967 
L 656.593662 353.193047 
L 691.743997 353.222696 
L 726.894333 353.2239 
L 949.513125 353.2239 
L 949.513125 353.2239 
" style="fill:none;stroke:#434348;stroke-linecap:square;"/>
   </g>
   <g id="line2d_39">
    <path clip-path="url(#p61c502a92b)" d="M 76.613125 351.782646 
L 82.471514 353.220084 
L 211.356078 353.223355 
L 217.214467 353.106703 
L 228.931246 353.2239 
L 275.79836 353.167736 
L 281.656749 353.045016 
L 287.515138 353.223718 
L 322.665474 353.190948 
L 328.523863 353.0398 
L 334.382253 353.223354 
L 644.876883 353.207182 
L 650.735273 352.936013 
L 656.593662 353.195912 
L 703.460776 353.2239 
L 949.513125 353.2239 
L 949.513125 353.2239 
" style="fill:none;stroke:#90ed7d;stroke-linecap:square;"/>
   </g>
   <g id="line2d_40">
    <path clip-path="url(#p61c502a92b)" d="M 76.613125 351.819995 
L 82.471514 353.216563 
L 146.913796 353.2239 
L 158.630575 353.2239 
L 275.79836 353.160263 
L 281.656749 353.005973 
L 287.515138 353.2239 
L 322.665474 353.179619 
L 328.523863 353.004765 
L 334.382253 353.2239 
L 644.876883 353.215302 
L 650.735273 352.938479 
L 656.593662 353.174589 
L 680.027219 353.2239 
L 949.513125 353.2239 
L 949.513125 353.2239 
" style="fill:none;stroke:#f7a35c;stroke-linecap:square;"/>
   </g>
   <g id="line2d_41">
    <path clip-path="url(#p61c502a92b)" d="M 76.613125 351.931481 
L 82.471514 353.2239 
L 275.79836 353.137558 
L 281.656749 353.044261 
L 287.515138 353.217676 
L 322.665474 353.165854 
L 328.523863 352.99663 
L 334.382253 353.2239 
L 644.876883 353.213341 
L 650.735273 353.021282 
L 656.593662 353.20235 
L 703.460776 353.2239 
L 949.513125 353.2239 
L 949.513125 353.2239 
" style="fill:none;stroke:#8085e9;stroke-linecap:square;"/>
   </g>
   <g id="line2d_42">
    <path clip-path="url(#p61c502a92b)" d="M 76.613125 351.824644 
L 82.471514 353.217421 
L 182.064132 353.2239 
L 193.78091 353.221862 
L 211.356078 353.223682 
L 217.214467 353.094239 
L 228.931246 353.223754 
L 275.79836 353.156019 
L 281.656749 353.015986 
L 287.515138 353.223609 
L 322.665474 353.184342 
L 328.523863 353.024299 
L 334.382253 353.223681 
L 644.876883 353.204266 
L 650.735273 352.902511 
L 656.593662 353.193361 
L 703.460776 353.2239 
L 949.513125 353.2239 
L 949.513125 353.2239 
" style="fill:none;stroke:#f15c80;stroke-linecap:square;"/>
   </g>
   <g id="line2d_43">
    <path clip-path="url(#p61c502a92b)" d="M 76.613125 351.876199 
L 82.471514 353.219543 
L 182.064132 353.2239 
L 193.78091 353.222362 
L 211.356078 353.223644 
L 217.214467 353.099355 
L 228.931246 353.2239 
L 275.79836 353.165708 
L 281.656749 353.040832 
L 287.515138 353.223387 
L 322.665474 353.190778 
L 328.523863 353.045155 
L 334.382253 353.2239 
L 644.876883 353.205187 
L 650.735273 352.930202 
L 656.593662 353.193901 
L 703.460776 353.2239 
L 949.513125 353.2239 
L 949.513125 353.2239 
" style="fill:none;stroke:#e4d354;stroke-linecap:square;"/>
   </g>
   <g id="line2d_44">
    <path clip-path="url(#p61c502a92b)" d="M 76.613125 351.827792 
L 82.471514 353.220595 
L 211.356078 353.223349 
L 217.214467 353.100499 
L 228.931246 353.2239 
L 275.79836 353.159422 
L 281.656749 353.037459 
L 287.515138 353.223624 
L 322.665474 353.183878 
L 328.523863 353.02871 
L 334.382253 353.223624 
L 644.876883 353.208818 
L 650.735273 352.926524 
L 656.593662 353.192084 
L 703.460776 353.2239 
L 949.513125 353.2239 
L 949.513125 353.2239 
" style="fill:none;stroke:#2b908f;stroke-linecap:square;"/>
   </g>
   <g id="line2d_45">
    <path clip-path="url(#p61c502a92b)" d="M 76.613125 351.874851 
L 82.471514 353.218205 
L 182.064132 353.2239 
L 193.78091 353.221009 
L 211.356078 353.223024 
L 217.214467 353.101586 
L 228.931246 353.2239 
L 275.79836 353.156584 
L 281.656749 353.031025 
L 287.515138 353.223549 
L 322.665474 353.187343 
L 328.523863 353.013252 
L 334.382253 353.22346 
L 644.876883 353.207771 
L 650.735273 352.923982 
L 656.593662 353.19151 
L 703.460776 353.2239 
L 949.513125 353.2239 
L 949.513125 353.2239 
" style="fill:none;stroke:#f45b5b;stroke-linecap:square;"/>
   </g>
   <g id="line2d_46">
    <path clip-path="url(#p61c502a92b)" d="M 76.613125 351.868968 
L 82.471514 353.220223 
L 182.064132 353.2239 
L 193.78091 353.220683 
L 211.356078 353.222981 
L 217.214467 353.103941 
L 228.931246 353.2239 
L 275.79836 353.169191 
L 281.656749 353.046873 
L 287.515138 353.2239 
L 322.665474 353.190739 
L 328.523863 353.038688 
L 334.382253 353.223439 
L 644.876883 353.214087 
L 650.735273 352.956016 
L 656.593662 353.193105 
L 691.743997 353.222819 
L 732.752722 353.223333 
L 949.513125 353.2239 
L 949.513125 353.2239 
" style="fill:none;stroke:#91e8e1;stroke-linecap:square;"/>
   </g>
   <g id="line2d_47">
    <path clip-path="url(#p61c502a92b)" d="M 76.613125 351.798208 
L 82.471514 353.217143 
L 182.064132 353.2239 
L 193.78091 353.222398 
L 211.356078 353.223525 
L 217.214467 353.09965 
L 228.931246 353.2239 
L 275.79836 353.166454 
L 281.656749 353.034647 
L 287.515138 353.2239 
L 322.665474 353.18557 
L 328.523863 353.040871 
L 334.382253 353.2239 
L 644.876883 353.208249 
L 650.735273 352.914801 
L 656.593662 353.193225 
L 709.319165 353.2239 
L 949.513125 353.2239 
L 949.513125 353.2239 
" style="fill:none;stroke:#7cb5ec;stroke-linecap:square;"/>
   </g>
   <g id="line2d_48">
    <path clip-path="url(#p61c502a92b)" d="M 76.613125 351.928104 
L 82.471514 353.216366 
L 146.913796 353.2239 
L 158.630575 353.2239 
L 275.79836 353.163578 
L 281.656749 353.020206 
L 287.515138 353.2239 
L 322.665474 353.155646 
L 328.523863 353.003738 
L 334.382253 353.2239 
L 644.876883 353.2239 
L 650.735273 352.912609 
L 656.593662 353.147913 
L 674.16883 353.2239 
L 949.513125 353.2239 
L 949.513125 353.2239 
" style="fill:none;stroke:#434348;stroke-linecap:square;"/>
   </g>
   <g id="line2d_49">
    <path clip-path="url(#p61c502a92b)" d="M 76.613125 351.775893 
L 82.471514 353.218936 
L 182.064132 353.2239 
L 193.78091 353.221418 
L 211.356078 353.22359 
L 217.214467 353.110033 
L 228.931246 353.2239 
L 275.79836 353.165556 
L 281.656749 353.064364 
L 287.515138 353.2239 
L 322.665474 353.190655 
L 328.523863 353.048945 
L 334.382253 353.223278 
L 574.576212 353.2239 
L 580.434602 353.135597 
L 592.15138 353.221957 
L 644.876883 353.207617 
L 650.735273 352.959166 
L 656.593662 353.193119 
L 691.743997 353.222873 
L 756.186279 353.2239 
L 949.513125 353.2239 
L 949.513125 353.2239 
" style="fill:none;stroke:#90ed7d;stroke-linecap:square;"/>
   </g>
   <g id="line2d_50">
    <path clip-path="url(#p61c502a92b)" d="M 76.613125 352.060099 
L 82.471514 353.221325 
L 211.356078 353.2239 
L 217.214467 353.108035 
L 228.931246 353.2239 
L 275.79836 353.159463 
L 281.656749 352.996926 
L 287.515138 353.2239 
L 322.665474 353.187523 
L 328.523863 353.028731 
L 334.382253 353.21608 
L 422.258091 353.2239 
L 498.417152 353.2239 
L 644.876883 353.19751 
L 650.735273 352.951431 
L 656.593662 353.210509 
L 680.027219 353.2239 
L 949.513125 353.2239 
L 949.513125 353.2239 
" style="fill:none;stroke:#f7a35c;stroke-linecap:square;"/>
   </g>
   <g id="line2d_51">
    <path clip-path="url(#p61c502a92b)" d="M 76.613125 351.93005 
L 82.471514 353.215718 
L 146.913796 353.221562 
L 158.630575 353.2239 
L 275.79836 353.171258 
L 281.656749 353.027257 
L 287.515138 353.222729 
L 322.665474 353.181495 
L 328.523863 353.012795 
L 334.382253 353.221538 
L 539.425877 353.2239 
L 545.284266 353.145946 
L 557.001044 353.222564 
L 633.160105 353.206407 
L 644.876883 353.209092 
L 650.735273 352.950708 
L 656.593662 353.201321 
L 926.079568 353.2239 
L 931.937957 353.126317 
L 943.654736 353.199139 
L 949.513125 353.2239 
L 949.513125 353.2239 
" style="fill:none;stroke:#8085e9;stroke-linecap:square;"/>
   </g>
   <g id="line2d_52">
    <path clip-path="url(#p61c502a92b)" d="M 76.613125 351.835016 
L 82.471514 353.2239 
L 275.79836 353.163318 
L 281.656749 353.009985 
L 287.515138 353.220333 
L 322.665474 353.184504 
L 328.523863 353.012405 
L 334.382253 353.2239 
L 644.876883 353.206295 
L 650.735273 352.931327 
L 656.593662 353.201573 
L 949.513125 353.2239 
L 949.513125 353.2239 
" style="fill:none;stroke:#f15c80;stroke-linecap:square;"/>
   </g>
   <g id="line2d_53">
    <path clip-path="url(#p61c502a92b)" d="M 76.613125 351.76823 
L 82.471514 353.218234 
L 182.064132 353.2239 
L 193.78091 353.221539 
L 211.356078 353.22272 
L 217.214467 353.112234 
L 228.931246 353.2239 
L 275.79836 353.158011 
L 281.656749 353.037059 
L 287.515138 353.223191 
L 322.665474 353.18271 
L 328.523863 353.022357 
L 334.382253 353.222715 
L 539.425877 353.2239 
L 545.284266 353.151696 
L 557.001044 353.219103 
L 644.876883 353.207992 
L 650.735273 352.935242 
L 656.593662 353.194745 
L 691.743997 353.222772 
L 732.752722 353.2239 
L 949.513125 353.2239 
L 949.513125 353.2239 
" style="fill:none;stroke:#e4d354;stroke-linecap:square;"/>
   </g>
   <g id="line2d_54">
    <path clip-path="url(#p61c502a92b)" d="M 76.613125 351.794119 
L 82.471514 353.218828 
L 182.064132 353.2239 
L 193.78091 353.222535 
L 211.356078 353.22312 
L 217.214467 353.103354 
L 228.931246 353.223705 
L 275.79836 353.148584 
L 281.656749 353.021329 
L 287.515138 353.22351 
L 322.665474 353.178534 
L 328.523863 353.008521 
L 334.382253 353.223313 
L 644.876883 353.206452 
L 650.735273 352.922903 
L 656.593662 353.193957 
L 709.319165 353.2239 
L 949.513125 353.2239 
L 949.513125 353.2239 
" style="fill:none;stroke:#2b908f;stroke-linecap:square;"/>
   </g>
   <g id="line2d_55">
    <path clip-path="url(#p61c502a92b)" d="M 76.613125 351.882406 
L 82.471514 353.217964 
L 182.064132 353.2239 
L 193.78091 353.222821 
L 211.356078 353.22336 
L 217.214467 353.115437 
L 228.931246 353.2239 
L 275.79836 353.170464 
L 281.656749 353.052234 
L 287.515138 353.2239 
L 322.665474 353.187689 
L 328.523863 353.027133 
L 334.382253 353.223359 
L 644.876883 353.206499 
L 650.735273 352.922363 
L 656.593662 353.189427 
L 685.885608 353.2239 
L 949.513125 353.2239 
L 949.513125 353.2239 
" style="fill:none;stroke:#f45b5b;stroke-linecap:square;"/>
   </g>
   <g id="line2d_56">
    <path clip-path="url(#p61c502a92b)" d="M 76.613125 351.814965 
L 82.471514 353.217757 
L 146.913796 353.222225 
L 158.630575 353.2239 
L 211.356078 353.223342 
L 217.214467 353.093226 
L 228.931246 353.2239 
L 275.79836 353.166368 
L 281.656749 353.055196 
L 287.515138 353.2239 
L 322.665474 353.184765 
L 328.523863 353.013102 
L 334.382253 353.2239 
L 644.876883 353.210985 
L 650.735273 352.917741 
L 656.593662 353.193781 
L 726.894333 353.2239 
L 949.513125 353.2239 
L 949.513125 353.2239 
" style="fill:none;stroke:#91e8e1;stroke-linecap:square;"/>
   </g>
   <g id="line2d_57">
    <path clip-path="url(#p61c502a92b)" d="M 76.613125 351.837222 
L 82.471514 353.21904 
L 182.064132 353.2239 
L 193.78091 353.220883 
L 211.356078 353.222894 
L 217.214467 353.109936 
L 228.931246 353.223732 
L 275.79836 353.168412 
L 281.656749 353.044333 
L 287.515138 353.223732 
L 322.665474 353.189817 
L 328.523863 353.03715 
L 334.382253 353.223564 
L 644.876883 353.208741 
L 650.735273 352.946192 
L 656.593662 353.194446 
L 703.460776 353.2239 
L 949.513125 353.2239 
L 949.513125 353.2239 
" style="fill:none;stroke:#7cb5ec;stroke-linecap:square;"/>
   </g>
   <g id="line2d_58">
    <path clip-path="url(#p61c502a92b)" d="M 76.613125 351.738175 
L 82.471514 353.217113 
L 146.913796 353.222543 
L 158.630575 353.2239 
L 211.356078 353.221457 
L 217.214467 353.110156 
L 228.931246 353.2239 
L 275.79836 353.158721 
L 281.656749 353.041627 
L 287.515138 353.223357 
L 322.665474 353.184956 
L 328.523863 353.022816 
L 334.382253 353.223082 
L 644.876883 353.212019 
L 650.735273 352.940388 
L 656.593662 353.191034 
L 691.743997 353.223246 
L 726.894333 353.2239 
L 949.513125 353.2239 
L 949.513125 353.2239 
" style="fill:none;stroke:#434348;stroke-linecap:square;"/>
   </g>
   <g id="line2d_59">
    <path clip-path="url(#p61c502a92b)" d="M 76.613125 351.806602 
L 82.471514 353.220294 
L 211.356078 353.2239 
L 217.214467 353.095875 
L 228.931246 353.2239 
L 275.79836 353.160746 
L 281.656749 352.985613 
L 287.515138 353.2239 
L 322.665474 353.178559 
L 328.523863 353.027838 
L 334.382253 353.220265 
L 439.833259 353.2239 
L 445.691648 353.154082 
L 457.408427 353.2239 
L 644.876883 353.205538 
L 650.735273 352.920598 
L 656.593662 353.1912 
L 691.743997 353.2239 
L 820.628561 353.186028 
L 832.34534 353.217426 
L 838.203729 353.164871 
L 849.920508 353.203703 
L 873.354065 353.220348 
L 885.070843 353.220245 
L 949.513125 353.2239 
L 949.513125 353.2239 
" style="fill:none;stroke:#90ed7d;stroke-linecap:square;"/>
   </g>
   <g id="line2d_60">
    <path clip-path="url(#p61c502a92b)" d="M 76.613125 351.770824 
L 82.471514 353.216677 
L 146.913796 353.222016 
L 158.630575 353.2239 
L 211.356078 353.22233 
L 217.214467 353.099854 
L 228.931246 353.223586 
L 275.79836 353.153517 
L 281.656749 353.029969 
L 287.515138 353.223271 
L 322.665474 353.182578 
L 328.523863 353.025347 
L 334.382253 353.221057 
L 439.833259 353.2239 
L 445.691648 353.152622 
L 457.408427 353.2239 
L 644.876883 353.207154 
L 650.735273 352.93667 
L 656.593662 353.198008 
L 697.602387 353.21079 
L 744.469501 353.2239 
L 762.044669 353.2239 
L 949.513125 353.2239 
L 949.513125 353.2239 
" style="fill:none;stroke:#f7a35c;stroke-linecap:square;"/>
   </g>
   <g id="line2d_61">
    <path clip-path="url(#p61c502a92b)" d="M 76.613125 351.812389 
L 82.471514 353.218542 
L 182.064132 353.2239 
L 193.78091 353.220073 
L 211.356078 353.222369 
L 217.214467 353.10908 
L 228.931246 353.2239 
L 275.79836 353.162651 
L 281.656749 353.034773 
L 287.515138 353.223134 
L 322.665474 353.189409 
L 328.523863 353.023815 
L 334.382253 353.223133 
L 574.576212 353.2239 
L 580.434602 353.122562 
L 592.15138 353.222281 
L 621.443326 353.2239 
L 644.876883 353.20882 
L 650.735273 352.937778 
L 656.593662 353.185011 
L 703.460776 353.2239 
L 949.513125 353.2239 
L 949.513125 353.2239 
" style="fill:none;stroke:#8085e9;stroke-linecap:square;"/>
   </g>
   <g id="line2d_62">
    <path clip-path="url(#p61c502a92b)" d="M 76.613125 351.70262 
L 82.471514 353.219024 
L 182.064132 353.2239 
L 193.78091 353.219837 
L 211.356078 353.2239 
L 217.214467 353.124757 
L 228.931246 353.2239 
L 275.79836 353.158871 
L 281.656749 353.046667 
L 287.515138 353.2239 
L 322.665474 353.185618 
L 328.523863 353.051975 
L 334.382253 353.220639 
L 439.833259 353.2239 
L 451.550038 353.2239 
L 644.876883 353.208132 
L 650.735273 352.939411 
L 656.593662 353.196693 
L 685.885608 353.2239 
L 949.513125 353.2239 
L 949.513125 353.2239 
" style="fill:none;stroke:#f15c80;stroke-linecap:square;"/>
   </g>
   <g id="line2d_63">
    <path clip-path="url(#p61c502a92b)" d="M 76.613125 351.843073 
L 82.471514 353.2239 
L 211.356078 353.2239 
L 217.214467 353.083079 
L 228.931246 353.2239 
L 275.79836 353.15738 
L 281.656749 353.047784 
L 287.515138 353.2239 
L 322.665474 353.172928 
L 328.523863 353.016016 
L 334.382253 353.2239 
L 574.576212 353.2239 
L 580.434602 353.107336 
L 592.15138 353.21971 
L 656.593662 353.180151 
L 674.16883 353.2239 
L 926.079568 353.2239 
L 931.937957 353.112508 
L 937.796346 353.211375 
L 949.513125 353.2239 
L 949.513125 353.2239 
" style="fill:none;stroke:#e4d354;stroke-linecap:square;"/>
   </g>
   <g id="line2d_64">
    <path clip-path="url(#p61c502a92b)" d="M 76.613125 351.837986 
L 82.471514 353.216133 
L 146.913796 353.22279 
L 158.630575 353.2239 
L 211.356078 353.22316 
L 217.214467 353.111828 
L 228.931246 353.2239 
L 275.79836 353.16137 
L 281.656749 353.031094 
L 287.515138 353.2239 
L 322.665474 353.183485 
L 328.523863 353.00098 
L 334.382253 353.223529 
L 644.876883 353.203635 
L 650.735273 352.927443 
L 656.593662 353.192542 
L 715.177555 353.2239 
L 949.513125 353.2239 
L 949.513125 353.2239 
" style="fill:none;stroke:#2b908f;stroke-linecap:square;"/>
   </g>
   <g id="line2d_65">
    <path clip-path="url(#p61c502a92b)" d="M 76.613125 351.891341 
L 82.471514 353.219727 
L 182.064132 353.2239 
L 193.78091 353.222509 
L 211.356078 353.2239 
L 217.214467 353.105667 
L 228.931246 353.2239 
L 275.79836 353.179373 
L 281.656749 353.070809 
L 287.515138 353.2239 
L 322.665474 353.168115 
L 328.523863 353.045314 
L 334.382253 353.222504 
L 539.425877 353.2239 
L 545.284266 353.138681 
L 557.001044 353.219465 
L 644.876883 353.212875 
L 650.735273 352.956303 
L 656.593662 353.196833 
L 744.469501 353.2239 
L 756.186279 353.2239 
L 949.513125 353.2239 
L 949.513125 353.2239 
" style="fill:none;stroke:#f45b5b;stroke-linecap:square;"/>
   </g>
   <g id="line2d_66">
    <path clip-path="url(#p61c502a92b)" d="M 76.613125 351.69284 
L 82.471514 353.208435 
L 129.338628 353.2239 
L 275.79836 353.158049 
L 281.656749 353.010585 
L 287.515138 353.220016 
L 322.665474 353.164949 
L 328.523863 352.963847 
L 334.382253 353.219949 
L 644.876883 353.208871 
L 650.735273 352.966679 
L 656.593662 353.208664 
L 709.319165 353.2239 
L 949.513125 353.2239 
L 949.513125 353.2239 
" style="fill:none;stroke:#91e8e1;stroke-linecap:square;"/>
   </g>
   <g id="line2d_67">
    <path clip-path="url(#p61c502a92b)" d="M 76.613125 351.7861 
L 82.471514 353.20178 
L 117.62185 353.2239 
L 275.79836 353.157515 
L 281.656749 353.024701 
L 287.515138 353.2239 
L 322.665474 353.179535 
L 328.523863 352.94651 
L 334.382253 353.2239 
L 644.876883 353.2239 
L 650.735273 352.849674 
L 656.593662 353.21136 
L 709.319165 353.2239 
L 926.079568 353.2239 
L 931.937957 353.035603 
L 937.796346 353.2239 
L 949.513125 353.2239 
L 949.513125 353.2239 
" style="fill:none;stroke:#7cb5ec;stroke-linecap:square;"/>
   </g>
   <g id="line2d_68">
    <path clip-path="url(#p61c502a92b)" d="M 76.613125 351.808256 
L 82.471514 353.219256 
L 182.064132 353.2239 
L 193.78091 353.220914 
L 211.356078 353.223347 
L 217.214467 353.108123 
L 228.931246 353.223789 
L 275.79836 353.160956 
L 281.656749 353.040559 
L 287.515138 353.223236 
L 322.665474 353.182758 
L 328.523863 353.035186 
L 334.382253 353.223123 
L 574.576212 353.2239 
L 580.434602 353.127645 
L 592.15138 353.221778 
L 633.160105 353.205689 
L 644.876883 353.207014 
L 650.735273 352.930269 
L 656.593662 353.192563 
L 697.602387 353.210029 
L 744.469501 353.2239 
L 762.044669 353.2239 
L 949.513125 353.2239 
L 949.513125 353.2239 
" style="fill:none;stroke:#434348;stroke-linecap:square;"/>
   </g>
   <g id="line2d_69">
    <path clip-path="url(#p61c502a92b)" d="M 76.613125 351.843073 
L 82.471514 353.213803 
L 146.913796 353.2239 
L 164.488964 353.2239 
L 275.79836 353.170849 
L 281.656749 353.039406 
L 287.515138 353.2239 
L 322.665474 353.1604 
L 328.523863 353.035746 
L 334.382253 353.2239 
L 644.876883 353.208203 
L 650.735273 352.94573 
L 656.593662 353.179327 
L 680.027219 353.2239 
L 949.513125 353.2239 
L 949.513125 353.2239 
" style="fill:none;stroke:#90ed7d;stroke-linecap:square;"/>
   </g>
   <g id="line2d_70">
    <path clip-path="url(#p61c502a92b)" d="M 76.613125 351.775594 
L 82.471514 353.216743 
L 146.913796 353.223005 
L 158.630575 353.2239 
L 211.356078 353.223304 
L 217.214467 353.096275 
L 228.931246 353.2239 
L 275.79836 353.151113 
L 281.656749 353.027275 
L 287.515138 353.223303 
L 322.665474 353.184734 
L 328.523863 353.00796 
L 334.382253 353.222105 
L 539.425877 353.2239 
L 545.284266 353.134503 
L 557.001044 353.218888 
L 644.876883 353.205303 
L 650.735273 352.901833 
L 656.593662 353.198071 
L 744.469501 353.2239 
L 756.186279 353.2239 
L 949.513125 353.2239 
L 949.513125 353.2239 
" style="fill:none;stroke:#f7a35c;stroke-linecap:square;"/>
   </g>
   <g id="line2d_71">
    <path clip-path="url(#p61c502a92b)" d="M 76.613125 351.804446 
L 82.471514 353.221871 
L 211.356078 353.223224 
L 217.214467 353.122462 
L 228.931246 353.2239 
L 275.79836 353.165718 
L 281.656749 353.070289 
L 287.515138 353.2239 
L 322.665474 353.18726 
L 328.523863 353.029061 
L 334.382253 353.2239 
L 644.876883 353.203595 
L 650.735273 352.969381 
L 656.593662 353.196243 
L 691.743997 353.221437 
L 732.752722 353.2239 
L 785.478226 353.2239 
L 791.336615 353.112151 
L 797.195004 353.2239 
L 949.513125 353.2239 
L 949.513125 353.2239 
" style="fill:none;stroke:#8085e9;stroke-linecap:square;"/>
   </g>
   <g id="line2d_72">
    <path clip-path="url(#p61c502a92b)" d="M 76.613125 351.822437 
L 82.471514 353.217654 
L 146.913796 353.221297 
L 158.630575 353.2239 
L 211.356078 353.222599 
L 217.214467 353.096116 
L 228.931246 353.2239 
L 275.79836 353.142412 
L 281.656749 353.002297 
L 287.515138 353.223379 
L 322.665474 353.172995 
L 328.523863 352.98779 
L 334.382253 353.222855 
L 539.425877 353.2239 
L 545.284266 353.133394 
L 557.001044 353.217772 
L 644.876883 353.204976 
L 650.735273 352.882255 
L 656.593662 353.187782 
L 685.885608 353.2239 
L 949.513125 353.2239 
L 949.513125 353.2239 
" style="fill:none;stroke:#f15c80;stroke-linecap:square;"/>
   </g>
   <g id="line2d_73">
    <path clip-path="url(#p61c502a92b)" d="M 76.613125 351.855391 
L 82.471514 353.220965 
L 211.356078 353.223166 
L 217.214467 353.100624 
L 228.931246 353.2239 
L 275.79836 353.162248 
L 281.656749 353.035253 
L 287.515138 353.2239 
L 322.665474 353.190103 
L 328.523863 353.024755 
L 334.382253 353.2239 
L 644.876883 353.202997 
L 650.735273 352.938225 
L 656.593662 353.198989 
L 703.460776 353.2239 
L 949.513125 353.2239 
L 949.513125 353.2239 
" style="fill:none;stroke:#e4d354;stroke-linecap:square;"/>
   </g>
   <g id="line2d_74">
    <path clip-path="url(#p61c502a92b)" d="M 76.613125 351.853572 
L 82.471514 353.218082 
L 182.064132 353.2239 
L 193.78091 353.222446 
L 211.356078 353.223415 
L 217.214467 353.099788 
L 228.931246 353.2239 
L 275.79836 353.153099 
L 281.656749 353.035231 
L 287.515138 353.22293 
L 322.665474 353.177993 
L 328.523863 353.014947 
L 334.382253 353.2239 
L 644.876883 353.208752 
L 650.735273 352.924096 
L 656.593662 353.192301 
L 691.743997 353.222406 
L 726.894333 353.2239 
L 949.513125 353.2239 
L 949.513125 353.2239 
" style="fill:none;stroke:#2b908f;stroke-linecap:square;"/>
   </g>
   <g id="line2d_75">
    <path clip-path="url(#p61c502a92b)" d="M 76.613125 351.877515 
L 82.471514 353.2239 
L 275.79836 353.154186 
L 281.656749 353.039187 
L 287.515138 353.2239 
L 322.665474 353.191745 
L 328.523863 353.053551 
L 334.382253 353.222006 
L 539.425877 353.2239 
L 545.284266 353.158727 
L 557.001044 353.221849 
L 633.160105 353.210892 
L 644.876883 353.206384 
L 650.735273 352.93341 
L 656.593662 353.206204 
L 744.469501 353.2239 
L 762.044669 353.2239 
L 949.513125 353.2239 
L 949.513125 353.2239 
" style="fill:none;stroke:#f45b5b;stroke-linecap:square;"/>
   </g>
   <g id="line2d_76">
    <path clip-path="url(#p61c502a92b)" d="M 76.613125 351.823785 
L 82.471514 353.2239 
L 275.79836 353.196639 
L 281.656749 353.107559 
L 287.515138 353.2239 
L 322.665474 353.181995 
L 328.523863 352.954738 
L 334.382253 353.223292 
L 574.576212 353.2239 
L 580.434602 353.136908 
L 592.15138 353.2239 
L 627.301716 353.2239 
L 926.079568 353.2239 
L 931.937957 353.1102 
L 949.513125 353.2239 
L 949.513125 353.2239 
" style="fill:none;stroke:#91e8e1;stroke-linecap:square;"/>
   </g>
   <g id="line2d_77">
    <path clip-path="url(#p61c502a92b)" d="M 76.613125 351.853522 
L 82.471514 353.219332 
L 182.064132 353.2239 
L 187.922521 353.159949 
L 199.639299 353.2239 
L 211.356078 353.2239 
L 217.214467 353.09143 
L 228.931246 353.2239 
L 275.79836 353.127905 
L 281.656749 353.008959 
L 287.515138 353.2239 
L 322.665474 353.182545 
L 328.523863 352.989333 
L 334.382253 353.214691 
L 410.541313 353.2239 
L 644.876883 353.195392 
L 650.735273 352.948174 
L 656.593662 353.19496 
L 691.743997 353.2239 
L 726.894333 353.2239 
L 949.513125 353.2239 
L 949.513125 353.2239 
" style="fill:none;stroke:#7cb5ec;stroke-linecap:square;"/>
   </g>
   <g id="line2d_78">
    <path clip-path="url(#p61c502a92b)" d="M 76.613125 351.934718 
L 82.471514 353.218649 
L 182.064132 353.2239 
L 193.78091 353.220959 
L 211.356078 353.223375 
L 217.214467 353.102911 
L 228.931246 353.2239 
L 275.79836 353.159501 
L 281.656749 353.032143 
L 287.515138 353.223585 
L 322.665474 353.186859 
L 328.523863 353.023801 
L 334.382253 353.223584 
L 644.876883 353.206117 
L 650.735273 352.928375 
L 656.593662 353.192524 
L 709.319165 353.2239 
L 949.513125 353.2239 
L 949.513125 353.2239 
" style="fill:none;stroke:#434348;stroke-linecap:square;"/>
   </g>
   <g id="line2d_79">
    <path clip-path="url(#p61c502a92b)" d="M 76.613125 351.786755 
L 82.471514 353.21901 
L 182.064132 353.2239 
L 193.78091 353.222484 
L 211.356078 353.223128 
L 217.214467 353.104341 
L 228.931246 353.2239 
L 275.79836 353.165971 
L 281.656749 353.040816 
L 287.515138 353.223385 
L 322.665474 353.190763 
L 328.523863 353.04308 
L 334.382253 353.223384 
L 644.876883 353.208007 
L 650.735273 352.928053 
L 656.593662 353.1965 
L 703.460776 353.2239 
L 949.513125 353.2239 
L 949.513125 353.2239 
" style="fill:none;stroke:#90ed7d;stroke-linecap:square;"/>
   </g>
   <g id="line2d_80">
    <path clip-path="url(#p61c502a92b)" d="M 76.613125 351.767378 
L 82.471514 353.219074 
L 182.064132 353.2239 
L 193.78091 353.218109 
L 211.356078 353.2239 
L 217.214467 353.098421 
L 228.931246 353.2239 
L 275.79836 353.161136 
L 281.656749 353.033629 
L 287.515138 353.222934 
L 322.665474 353.179356 
L 328.523863 353.009786 
L 334.382253 353.221961 
L 539.425877 353.2239 
L 545.284266 353.143984 
L 557.001044 353.218663 
L 644.876883 353.208962 
L 650.735273 352.948323 
L 656.593662 353.194725 
L 744.469501 353.2239 
L 762.044669 353.2239 
L 949.513125 353.2239 
L 949.513125 353.2239 
" style="fill:none;stroke:#f7a35c;stroke-linecap:square;"/>
   </g>
   <g id="line2d_81">
    <path clip-path="url(#p61c502a92b)" d="M 76.613125 351.939831 
L 82.471514 353.218482 
L 182.064132 353.2239 
L 187.922521 353.158884 
L 199.639299 353.2239 
L 211.356078 353.222545 
L 217.214467 353.10064 
L 228.931246 353.2239 
L 275.79836 353.154787 
L 281.656749 353.015141 
L 287.515138 353.221188 
L 322.665474 353.180364 
L 328.523863 353.012856 
L 334.382253 353.222537 
L 539.425877 353.2239 
L 545.284266 353.141888 
L 557.001044 353.217872 
L 644.876883 353.203866 
L 650.735273 352.91415 
L 656.593662 353.184853 
L 680.027219 353.2239 
L 949.513125 353.2239 
L 949.513125 353.2239 
" style="fill:none;stroke:#8085e9;stroke-linecap:square;"/>
   </g>
   <g id="line2d_82">
    <path clip-path="url(#p61c502a92b)" d="M 76.613125 351.850609 
L 82.471514 353.21577 
L 146.913796 353.222997 
L 158.630575 353.2239 
L 211.356078 353.223298 
L 217.214467 353.099548 
L 228.931246 353.2239 
L 275.79836 353.139245 
L 281.656749 353.019267 
L 287.515138 353.223598 
L 322.665474 353.179415 
L 328.523863 353.007956 
L 334.382253 353.222991 
L 574.576212 353.2239 
L 580.434602 353.132895 
L 592.15138 353.219051 
L 644.876883 353.204744 
L 650.735273 352.911368 
L 656.593662 353.19061 
L 703.460776 353.2239 
L 949.513125 353.2239 
L 949.513125 353.2239 
" style="fill:none;stroke:#f15c80;stroke-linecap:square;"/>
   </g>
   <g id="line2d_83">
    <path clip-path="url(#p61c502a92b)" d="M 76.613125 351.900988 
L 82.471514 353.217022 
L 146.913796 353.2239 
L 158.630575 353.2239 
L 211.356078 353.2239 
L 217.214467 353.103531 
L 228.931246 353.2239 
L 275.79836 353.170008 
L 281.656749 353.048445 
L 287.515138 353.2239 
L 322.665474 353.189462 
L 328.523863 353.026424 
L 334.382253 353.2239 
L 644.876883 353.20702 
L 650.735273 352.891467 
L 656.593662 353.192385 
L 685.885608 353.2239 
L 949.513125 353.2239 
L 949.513125 353.2239 
" style="fill:none;stroke:#e4d354;stroke-linecap:square;"/>
   </g>
   <g id="line2d_84">
    <path clip-path="url(#p61c502a92b)" d="M 76.613125 351.749145 
L 82.471514 353.21734 
L 182.064132 353.2239 
L 193.78091 353.22062 
L 211.356078 353.223005 
L 217.214467 353.104631 
L 228.931246 353.2239 
L 275.79836 353.15858 
L 281.656749 353.05714 
L 287.515138 353.2239 
L 322.665474 353.179376 
L 328.523863 353.034392 
L 334.382253 353.223302 
L 574.576212 353.2239 
L 580.434602 353.127348 
L 592.15138 353.221351 
L 644.876883 353.209695 
L 650.735273 352.93816 
L 656.593662 353.189889 
L 685.885608 353.2239 
L 949.513125 353.2239 
L 949.513125 353.2239 
" style="fill:none;stroke:#2b908f;stroke-linecap:square;"/>
   </g>
   <g id="line2d_85">
    <path clip-path="url(#p61c502a92b)" d="M 76.613125 351.763778 
L 82.471514 353.218874 
L 182.064132 353.2239 
L 193.78091 353.218874 
L 211.356078 353.221387 
L 217.214467 353.100757 
L 228.931246 353.2239 
L 275.79836 353.148435 
L 281.656749 353.017511 
L 287.515138 353.221381 
L 322.665474 353.183401 
L 328.523863 353.028787 
L 334.382253 353.2239 
L 644.876883 353.205485 
L 650.735273 352.930388 
L 656.593662 353.199017 
L 703.460776 353.2239 
L 926.079568 353.2239 
L 931.937957 353.107605 
L 943.654736 353.208809 
L 949.513125 353.2239 
L 949.513125 353.2239 
" style="fill:none;stroke:#f45b5b;stroke-linecap:square;"/>
   </g>
   <g id="line2d_86">
    <path clip-path="url(#p61c502a92b)" d="M 76.613125 351.865414 
L 82.471514 353.217498 
L 146.913796 353.22262 
L 158.630575 353.2239 
L 211.356078 353.22262 
L 217.214467 353.105465 
L 228.931246 353.2239 
L 275.79836 353.131036 
L 281.656749 353.008016 
L 287.515138 353.2239 
L 322.665474 353.166713 
L 328.523863 353.000785 
L 334.382253 353.219396 
L 439.833259 353.2239 
L 445.691648 353.144864 
L 457.408427 353.2239 
L 644.876883 353.20693 
L 650.735273 352.916556 
L 656.593662 353.192638 
L 691.743997 353.223028 
L 726.894333 353.2239 
L 949.513125 353.2239 
L 949.513125 353.2239 
" style="fill:none;stroke:#91e8e1;stroke-linecap:square;"/>
   </g>
   <g id="line2d_87">
    <path clip-path="url(#p61c502a92b)" d="M 76.613125 351.802748 
L 82.471514 353.217845 
L 182.064132 353.2239 
L 193.78091 353.219358 
L 211.356078 353.222765 
L 217.214467 353.103547 
L 228.931246 353.2239 
L 275.79836 353.153101 
L 281.656749 353.028121 
L 287.515138 353.2239 
L 322.665474 353.181407 
L 328.523863 353.010224 
L 334.382253 353.22352 
L 644.876883 353.209084 
L 650.735273 352.928989 
L 656.593662 353.195657 
L 715.177555 353.2239 
L 949.513125 353.2239 
L 949.513125 353.2239 
" style="fill:none;stroke:#7cb5ec;stroke-linecap:square;"/>
   </g>
   <g id="line2d_88">
    <path clip-path="url(#p61c502a92b)" d="M 76.613125 351.835881 
L 82.471514 353.219813 
L 182.064132 353.2239 
L 193.78091 353.220835 
L 211.356078 353.222878 
L 217.214467 353.102825 
L 228.931246 353.223389 
L 275.79836 353.154393 
L 281.656749 353.041912 
L 287.515138 353.222877 
L 322.665474 353.182914 
L 328.523863 353.04503 
L 334.382253 353.2239 
L 644.876883 353.2097 
L 650.735273 352.93574 
L 656.593662 353.190071 
L 691.743997 353.223309 
L 738.611112 353.2239 
L 949.513125 353.2239 
L 949.513125 353.2239 
" style="fill:none;stroke:#434348;stroke-linecap:square;"/>
   </g>
   <g id="line2d_89">
    <path clip-path="url(#p61c502a92b)" d="M 76.613125 351.978203 
L 82.471514 353.2239 
L 275.79836 353.149401 
L 281.656749 353.061327 
L 287.515138 353.2239 
L 322.665474 353.183184 
L 328.523863 353.00668 
L 334.382253 353.2239 
L 644.876883 353.208851 
L 650.735273 352.875905 
L 656.593662 353.193465 
L 709.319165 353.2239 
L 926.079568 353.2239 
L 931.937957 353.03357 
L 937.796346 353.2239 
L 949.513125 353.2239 
L 949.513125 353.2239 
" style="fill:none;stroke:#90ed7d;stroke-linecap:square;"/>
   </g>
   <g id="line2d_90">
    <path clip-path="url(#p61c502a92b)" d="M 32.968125 353.2239 
L 993.158125 353.2239 
" style="fill:none;stroke:#dedede;stroke-linecap:square;stroke-width:2;"/>
   </g>
   <g id="text_17">
    <!-- Fastp: Read N Content -->
    <defs>
     <path d="M 9.8125 72.90625 
L 51.703125 72.90625 
L 51.703125 64.59375 
L 19.671875 64.59375 
L 19.671875 43.109375 
L 48.578125 43.109375 
L 48.578125 34.8125 
L 19.671875 34.8125 
L 19.671875 0 
L 9.8125 0 
z
" id="DejaVuSans-70"/>
     <path d="M 18.109375 8.203125 
L 18.109375 -20.796875 
L 9.078125 -20.796875 
L 9.078125 54.6875 
L 18.109375 54.6875 
L 18.109375 46.390625 
Q 20.953125 51.265625 25.265625 53.625 
Q 29.59375 56 35.59375 56 
Q 45.5625 56 51.78125 48.09375 
Q 58.015625 40.1875 58.015625 27.296875 
Q 58.015625 14.40625 51.78125 6.484375 
Q 45.5625 -1.421875 35.59375 -1.421875 
Q 29.59375 -1.421875 25.265625 0.953125 
Q 20.953125 3.328125 18.109375 8.203125 
z
M 48.6875 27.296875 
Q 48.6875 37.203125 44.609375 42.84375 
Q 40.53125 48.484375 33.40625 48.484375 
Q 26.265625 48.484375 22.1875 42.84375 
Q 18.109375 37.203125 18.109375 27.296875 
Q 18.109375 17.390625 22.1875 11.75 
Q 26.265625 6.109375 33.40625 6.109375 
Q 40.53125 6.109375 44.609375 11.75 
Q 48.6875 17.390625 48.6875 27.296875 
z
" id="DejaVuSans-112"/>
     <path d="M 9.8125 72.90625 
L 23.09375 72.90625 
L 55.421875 11.921875 
L 55.421875 72.90625 
L 64.984375 72.90625 
L 64.984375 0 
L 51.703125 0 
L 19.390625 60.984375 
L 19.390625 0 
L 9.8125 0 
z
" id="DejaVuSans-78"/>
    </defs>
    <g transform="translate(422.606875 19.3575)scale(0.16 -0.16)">
     <use xlink:href="#DejaVuSans-70"/>
     <use x="57.378906" xlink:href="#DejaVuSans-97"/>
     <use x="118.658203" xlink:href="#DejaVuSans-115"/>
     <use x="170.757812" xlink:href="#DejaVuSans-116"/>
     <use x="209.966797" xlink:href="#DejaVuSans-112"/>
     <use x="273.443359" xlink:href="#DejaVuSans-58"/>
     <use x="307.134766" xlink:href="#DejaVuSans-32"/>
     <use x="338.921875" xlink:href="#DejaVuSans-82"/>
     <use x="408.341797" xlink:href="#DejaVuSans-101"/>
     <use x="469.865234" xlink:href="#DejaVuSans-97"/>
     <use x="531.144531" xlink:href="#DejaVuSans-100"/>
     <use x="594.621094" xlink:href="#DejaVuSans-32"/>
     <use x="626.408203" xlink:href="#DejaVuSans-78"/>
     <use x="701.212891" xlink:href="#DejaVuSans-32"/>
     <use x="733" xlink:href="#DejaVuSans-67"/>
     <use x="802.824219" xlink:href="#DejaVuSans-111"/>
     <use x="864.005859" xlink:href="#DejaVuSans-110"/>
     <use x="927.384766" xlink:href="#DejaVuSans-116"/>
     <use x="966.59375" xlink:href="#DejaVuSans-101"/>
     <use x="1028.117188" xlink:href="#DejaVuSans-110"/>
     <use x="1091.496094" xlink:href="#DejaVuSans-116"/>
    </g>
   </g>
  </g>
 </g>
 <defs>
  <clipPath id="p61c502a92b">
   <rect height="317.968" width="960.19" x="32.968125" y="35.2559"/>
  </clipPath>
 </defs>
</svg>
