<?xml version="1.0" encoding="utf-8" standalone="no"?>
<!DOCTYPE svg PUBLIC "-//W3C//DTD SVG 1.1//EN"
  "http://www.w3.org/Graphics/SVG/1.1/DTD/svg11.dtd">
<!-- Created with matplotlib (https://matplotlib.org/) -->
<svg height="330.541644pt" version="1.1" viewBox="0 0 1000.278125 330.541644" width="1000.278125pt" xmlns="http://www.w3.org/2000/svg" xmlns:xlink="http://www.w3.org/1999/xlink">
 <defs>
  <style type="text/css">
*{stroke-linecap:butt;stroke-linejoin:round;}
  </style>
 </defs>
 <g id="figure_1">
  <g id="axes_1">
   <g id="patch_1">
    <path d="M 43.148125 273.99006 
L 993.078125 273.99006 
L 993.078125 31.48286 
L 43.148125 31.48286 
z
" style="fill:#ffffff;"/>
   </g>
   <g id="matplotlib.axis_1">
    <g id="xtick_1">
     <g id="text_1">
      <!-- 0 -->
      <defs>
       <path d="M 31.78125 66.40625 
Q 24.171875 66.40625 20.328125 58.90625 
Q 16.5 51.421875 16.5 36.375 
Q 16.5 21.390625 20.328125 13.890625 
Q 24.171875 6.390625 31.78125 6.390625 
Q 39.453125 6.390625 43.28125 13.890625 
Q 47.125 21.390625 47.125 36.375 
Q 47.125 51.421875 43.28125 58.90625 
Q 39.453125 66.40625 31.78125 66.40625 
z
M 31.78125 74.21875 
Q 44.046875 74.21875 50.515625 64.515625 
Q 56.984375 54.828125 56.984375 36.375 
Q 56.984375 17.96875 50.515625 8.265625 
Q 44.046875 -1.421875 31.78125 -1.421875 
Q 19.53125 -1.421875 13.0625 8.265625 
Q 6.59375 17.96875 6.59375 36.375 
Q 6.59375 54.828125 13.0625 64.515625 
Q 19.53125 74.21875 31.78125 74.21875 
z
" id="DejaVuSans-48"/>
      </defs>
      <g transform="translate(77.985971 287.06881)scale(0.08 -0.08)">
       <use xlink:href="#DejaVuSans-48"/>
      </g>
     </g>
    </g>
    <g id="xtick_2">
     <g id="text_2">
      <!-- 20 -->
      <defs>
       <path d="M 19.1875 8.296875 
L 53.609375 8.296875 
L 53.609375 0 
L 7.328125 0 
L 7.328125 8.296875 
Q 12.9375 14.109375 22.625 23.890625 
Q 32.328125 33.6875 34.8125 36.53125 
Q 39.546875 41.84375 41.421875 45.53125 
Q 43.3125 49.21875 43.3125 52.78125 
Q 43.3125 58.59375 39.234375 62.25 
Q 35.15625 65.921875 28.609375 65.921875 
Q 23.96875 65.921875 18.8125 64.3125 
Q 13.671875 62.703125 7.8125 59.421875 
L 7.8125 69.390625 
Q 13.765625 71.78125 18.9375 73 
Q 24.125 74.21875 28.421875 74.21875 
Q 39.75 74.21875 46.484375 68.546875 
Q 53.21875 62.890625 53.21875 53.421875 
Q 53.21875 48.921875 51.53125 44.890625 
Q 49.859375 40.875 45.40625 35.40625 
Q 44.1875 33.984375 37.640625 27.21875 
Q 31.109375 20.453125 19.1875 8.296875 
z
" id="DejaVuSans-50"/>
      </defs>
      <g transform="translate(191.356774 287.06881)scale(0.08 -0.08)">
       <use xlink:href="#DejaVuSans-50"/>
       <use x="63.623047" xlink:href="#DejaVuSans-48"/>
      </g>
     </g>
    </g>
    <g id="xtick_3">
     <g id="text_3">
      <!-- 40 -->
      <defs>
       <path d="M 37.796875 64.3125 
L 12.890625 25.390625 
L 37.796875 25.390625 
z
M 35.203125 72.90625 
L 47.609375 72.90625 
L 47.609375 25.390625 
L 58.015625 25.390625 
L 58.015625 17.1875 
L 47.609375 17.1875 
L 47.609375 0 
L 37.796875 0 
L 37.796875 17.1875 
L 4.890625 17.1875 
L 4.890625 26.703125 
z
" id="DejaVuSans-52"/>
      </defs>
      <g transform="translate(307.272576 287.06881)scale(0.08 -0.08)">
       <use xlink:href="#DejaVuSans-52"/>
       <use x="63.623047" xlink:href="#DejaVuSans-48"/>
      </g>
     </g>
    </g>
    <g id="xtick_4">
     <g id="text_4">
      <!-- 60 -->
      <defs>
       <path d="M 33.015625 40.375 
Q 26.375 40.375 22.484375 35.828125 
Q 18.609375 31.296875 18.609375 23.390625 
Q 18.609375 15.53125 22.484375 10.953125 
Q 26.375 6.390625 33.015625 6.390625 
Q 39.65625 6.390625 43.53125 10.953125 
Q 47.40625 15.53125 47.40625 23.390625 
Q 47.40625 31.296875 43.53125 35.828125 
Q 39.65625 40.375 33.015625 40.375 
z
M 52.59375 71.296875 
L 52.59375 62.3125 
Q 48.875 64.0625 45.09375 64.984375 
Q 41.3125 65.921875 37.59375 65.921875 
Q 27.828125 65.921875 22.671875 59.328125 
Q 17.53125 52.734375 16.796875 39.40625 
Q 19.671875 43.65625 24.015625 45.921875 
Q 28.375 48.1875 33.59375 48.1875 
Q 44.578125 48.1875 50.953125 41.515625 
Q 57.328125 34.859375 57.328125 23.390625 
Q 57.328125 12.15625 50.6875 5.359375 
Q 44.046875 -1.421875 33.015625 -1.421875 
Q 20.359375 -1.421875 13.671875 8.265625 
Q 6.984375 17.96875 6.984375 36.375 
Q 6.984375 53.65625 15.1875 63.9375 
Q 23.390625 74.21875 37.203125 74.21875 
Q 40.921875 74.21875 44.703125 73.484375 
Q 48.484375 72.75 52.59375 71.296875 
z
" id="DejaVuSans-54"/>
      </defs>
      <g transform="translate(423.188378 287.06881)scale(0.08 -0.08)">
       <use xlink:href="#DejaVuSans-54"/>
       <use x="63.623047" xlink:href="#DejaVuSans-48"/>
      </g>
     </g>
    </g>
    <g id="xtick_5">
     <g id="text_5">
      <!-- 80 -->
      <defs>
       <path d="M 31.78125 34.625 
Q 24.75 34.625 20.71875 30.859375 
Q 16.703125 27.09375 16.703125 20.515625 
Q 16.703125 13.921875 20.71875 10.15625 
Q 24.75 6.390625 31.78125 6.390625 
Q 38.8125 6.390625 42.859375 10.171875 
Q 46.921875 13.96875 46.921875 20.515625 
Q 46.921875 27.09375 42.890625 30.859375 
Q 38.875 34.625 31.78125 34.625 
z
M 21.921875 38.8125 
Q 15.578125 40.375 12.03125 44.71875 
Q 8.5 49.078125 8.5 55.328125 
Q 8.5 64.0625 14.71875 69.140625 
Q 20.953125 74.21875 31.78125 74.21875 
Q 42.671875 74.21875 48.875 69.140625 
Q 55.078125 64.0625 55.078125 55.328125 
Q 55.078125 49.078125 51.53125 44.71875 
Q 48 40.375 41.703125 38.8125 
Q 48.828125 37.15625 52.796875 32.3125 
Q 56.78125 27.484375 56.78125 20.515625 
Q 56.78125 9.90625 50.3125 4.234375 
Q 43.84375 -1.421875 31.78125 -1.421875 
Q 19.734375 -1.421875 13.25 4.234375 
Q 6.78125 9.90625 6.78125 20.515625 
Q 6.78125 27.484375 10.78125 32.3125 
Q 14.796875 37.15625 21.921875 38.8125 
z
M 18.3125 54.390625 
Q 18.3125 48.734375 21.84375 45.5625 
Q 25.390625 42.390625 31.78125 42.390625 
Q 38.140625 42.390625 41.71875 45.5625 
Q 45.3125 48.734375 45.3125 54.390625 
Q 45.3125 60.0625 41.71875 63.234375 
Q 38.140625 66.40625 31.78125 66.40625 
Q 25.390625 66.40625 21.84375 63.234375 
Q 18.3125 60.0625 18.3125 54.390625 
z
" id="DejaVuSans-56"/>
      </defs>
      <g transform="translate(539.104181 287.06881)scale(0.08 -0.08)">
       <use xlink:href="#DejaVuSans-56"/>
       <use x="63.623047" xlink:href="#DejaVuSans-48"/>
      </g>
     </g>
    </g>
    <g id="xtick_6">
     <g id="text_6">
      <!-- 100 -->
      <defs>
       <path d="M 12.40625 8.296875 
L 28.515625 8.296875 
L 28.515625 63.921875 
L 10.984375 60.40625 
L 10.984375 69.390625 
L 28.421875 72.90625 
L 38.28125 72.90625 
L 38.28125 8.296875 
L 54.390625 8.296875 
L 54.390625 0 
L 12.40625 0 
z
" id="DejaVuSans-49"/>
      </defs>
      <g transform="translate(652.474983 287.06881)scale(0.08 -0.08)">
       <use xlink:href="#DejaVuSans-49"/>
       <use x="63.623047" xlink:href="#DejaVuSans-48"/>
       <use x="127.246094" xlink:href="#DejaVuSans-48"/>
      </g>
     </g>
    </g>
    <g id="xtick_7">
     <g id="text_7">
      <!-- 120 -->
      <g transform="translate(768.390785 287.06881)scale(0.08 -0.08)">
       <use xlink:href="#DejaVuSans-49"/>
       <use x="63.623047" xlink:href="#DejaVuSans-50"/>
       <use x="127.246094" xlink:href="#DejaVuSans-48"/>
      </g>
     </g>
    </g>
    <g id="xtick_8">
     <g id="text_8">
      <!-- 140 -->
      <g transform="translate(884.306587 287.06881)scale(0.08 -0.08)">
       <use xlink:href="#DejaVuSans-49"/>
       <use x="63.623047" xlink:href="#DejaVuSans-52"/>
       <use x="127.246094" xlink:href="#DejaVuSans-48"/>
      </g>
     </g>
    </g>
    <g id="text_9">
     <!-- Read Position -->
     <defs>
      <path d="M 44.390625 34.1875 
Q 47.5625 33.109375 50.5625 29.59375 
Q 53.5625 26.078125 56.59375 19.921875 
L 66.609375 0 
L 56 0 
L 46.6875 18.703125 
Q 43.0625 26.03125 39.671875 28.421875 
Q 36.28125 30.8125 30.421875 30.8125 
L 19.671875 30.8125 
L 19.671875 0 
L 9.8125 0 
L 9.8125 72.90625 
L 32.078125 72.90625 
Q 44.578125 72.90625 50.734375 67.671875 
Q 56.890625 62.453125 56.890625 51.90625 
Q 56.890625 45.015625 53.6875 40.46875 
Q 50.484375 35.9375 44.390625 34.1875 
z
M 19.671875 64.796875 
L 19.671875 38.921875 
L 32.078125 38.921875 
Q 39.203125 38.921875 42.84375 42.21875 
Q 46.484375 45.515625 46.484375 51.90625 
Q 46.484375 58.296875 42.84375 61.546875 
Q 39.203125 64.796875 32.078125 64.796875 
z
" id="DejaVuSans-82"/>
      <path d="M 56.203125 29.59375 
L 56.203125 25.203125 
L 14.890625 25.203125 
Q 15.484375 15.921875 20.484375 11.0625 
Q 25.484375 6.203125 34.421875 6.203125 
Q 39.59375 6.203125 44.453125 7.46875 
Q 49.3125 8.734375 54.109375 11.28125 
L 54.109375 2.78125 
Q 49.265625 0.734375 44.1875 -0.34375 
Q 39.109375 -1.421875 33.890625 -1.421875 
Q 20.796875 -1.421875 13.15625 6.1875 
Q 5.515625 13.8125 5.515625 26.8125 
Q 5.515625 40.234375 12.765625 48.109375 
Q 20.015625 56 32.328125 56 
Q 43.359375 56 49.78125 48.890625 
Q 56.203125 41.796875 56.203125 29.59375 
z
M 47.21875 32.234375 
Q 47.125 39.59375 43.09375 43.984375 
Q 39.0625 48.390625 32.421875 48.390625 
Q 24.90625 48.390625 20.390625 44.140625 
Q 15.875 39.890625 15.1875 32.171875 
z
" id="DejaVuSans-101"/>
      <path d="M 34.28125 27.484375 
Q 23.390625 27.484375 19.1875 25 
Q 14.984375 22.515625 14.984375 16.5 
Q 14.984375 11.71875 18.140625 8.90625 
Q 21.296875 6.109375 26.703125 6.109375 
Q 34.1875 6.109375 38.703125 11.40625 
Q 43.21875 16.703125 43.21875 25.484375 
L 43.21875 27.484375 
z
M 52.203125 31.203125 
L 52.203125 0 
L 43.21875 0 
L 43.21875 8.296875 
Q 40.140625 3.328125 35.546875 0.953125 
Q 30.953125 -1.421875 24.3125 -1.421875 
Q 15.921875 -1.421875 10.953125 3.296875 
Q 6 8.015625 6 15.921875 
Q 6 25.140625 12.171875 29.828125 
Q 18.359375 34.515625 30.609375 34.515625 
L 43.21875 34.515625 
L 43.21875 35.40625 
Q 43.21875 41.609375 39.140625 45 
Q 35.0625 48.390625 27.6875 48.390625 
Q 23 48.390625 18.546875 47.265625 
Q 14.109375 46.140625 10.015625 43.890625 
L 10.015625 52.203125 
Q 14.9375 54.109375 19.578125 55.046875 
Q 24.21875 56 28.609375 56 
Q 40.484375 56 46.34375 49.84375 
Q 52.203125 43.703125 52.203125 31.203125 
z
" id="DejaVuSans-97"/>
      <path d="M 45.40625 46.390625 
L 45.40625 75.984375 
L 54.390625 75.984375 
L 54.390625 0 
L 45.40625 0 
L 45.40625 8.203125 
Q 42.578125 3.328125 38.25 0.953125 
Q 33.9375 -1.421875 27.875 -1.421875 
Q 17.96875 -1.421875 11.734375 6.484375 
Q 5.515625 14.40625 5.515625 27.296875 
Q 5.515625 40.1875 11.734375 48.09375 
Q 17.96875 56 27.875 56 
Q 33.9375 56 38.25 53.625 
Q 42.578125 51.265625 45.40625 46.390625 
z
M 14.796875 27.296875 
Q 14.796875 17.390625 18.875 11.75 
Q 22.953125 6.109375 30.078125 6.109375 
Q 37.203125 6.109375 41.296875 11.75 
Q 45.40625 17.390625 45.40625 27.296875 
Q 45.40625 37.203125 41.296875 42.84375 
Q 37.203125 48.484375 30.078125 48.484375 
Q 22.953125 48.484375 18.875 42.84375 
Q 14.796875 37.203125 14.796875 27.296875 
z
" id="DejaVuSans-100"/>
      <path id="DejaVuSans-32"/>
      <path d="M 19.671875 64.796875 
L 19.671875 37.40625 
L 32.078125 37.40625 
Q 38.96875 37.40625 42.71875 40.96875 
Q 46.484375 44.53125 46.484375 51.125 
Q 46.484375 57.671875 42.71875 61.234375 
Q 38.96875 64.796875 32.078125 64.796875 
z
M 9.8125 72.90625 
L 32.078125 72.90625 
Q 44.34375 72.90625 50.609375 67.359375 
Q 56.890625 61.8125 56.890625 51.125 
Q 56.890625 40.328125 50.609375 34.8125 
Q 44.34375 29.296875 32.078125 29.296875 
L 19.671875 29.296875 
L 19.671875 0 
L 9.8125 0 
z
" id="DejaVuSans-80"/>
      <path d="M 30.609375 48.390625 
Q 23.390625 48.390625 19.1875 42.75 
Q 14.984375 37.109375 14.984375 27.296875 
Q 14.984375 17.484375 19.15625 11.84375 
Q 23.34375 6.203125 30.609375 6.203125 
Q 37.796875 6.203125 41.984375 11.859375 
Q 46.1875 17.53125 46.1875 27.296875 
Q 46.1875 37.015625 41.984375 42.703125 
Q 37.796875 48.390625 30.609375 48.390625 
z
M 30.609375 56 
Q 42.328125 56 49.015625 48.375 
Q 55.71875 40.765625 55.71875 27.296875 
Q 55.71875 13.875 49.015625 6.21875 
Q 42.328125 -1.421875 30.609375 -1.421875 
Q 18.84375 -1.421875 12.171875 6.21875 
Q 5.515625 13.875 5.515625 27.296875 
Q 5.515625 40.765625 12.171875 48.375 
Q 18.84375 56 30.609375 56 
z
" id="DejaVuSans-111"/>
      <path d="M 44.28125 53.078125 
L 44.28125 44.578125 
Q 40.484375 46.53125 36.375 47.5 
Q 32.28125 48.484375 27.875 48.484375 
Q 21.1875 48.484375 17.84375 46.4375 
Q 14.5 44.390625 14.5 40.28125 
Q 14.5 37.15625 16.890625 35.375 
Q 19.28125 33.59375 26.515625 31.984375 
L 29.59375 31.296875 
Q 39.15625 29.25 43.1875 25.515625 
Q 47.21875 21.78125 47.21875 15.09375 
Q 47.21875 7.46875 41.1875 3.015625 
Q 35.15625 -1.421875 24.609375 -1.421875 
Q 20.21875 -1.421875 15.453125 -0.5625 
Q 10.6875 0.296875 5.421875 2 
L 5.421875 11.28125 
Q 10.40625 8.6875 15.234375 7.390625 
Q 20.0625 6.109375 24.8125 6.109375 
Q 31.15625 6.109375 34.5625 8.28125 
Q 37.984375 10.453125 37.984375 14.40625 
Q 37.984375 18.0625 35.515625 20.015625 
Q 33.0625 21.96875 24.703125 23.78125 
L 21.578125 24.515625 
Q 13.234375 26.265625 9.515625 29.90625 
Q 5.8125 33.546875 5.8125 39.890625 
Q 5.8125 47.609375 11.28125 51.796875 
Q 16.75 56 26.8125 56 
Q 31.78125 56 36.171875 55.265625 
Q 40.578125 54.546875 44.28125 53.078125 
z
" id="DejaVuSans-115"/>
      <path d="M 9.421875 54.6875 
L 18.40625 54.6875 
L 18.40625 0 
L 9.421875 0 
z
M 9.421875 75.984375 
L 18.40625 75.984375 
L 18.40625 64.59375 
L 9.421875 64.59375 
z
" id="DejaVuSans-105"/>
      <path d="M 18.3125 70.21875 
L 18.3125 54.6875 
L 36.8125 54.6875 
L 36.8125 47.703125 
L 18.3125 47.703125 
L 18.3125 18.015625 
Q 18.3125 11.328125 20.140625 9.421875 
Q 21.96875 7.515625 27.59375 7.515625 
L 36.8125 7.515625 
L 36.8125 0 
L 27.59375 0 
Q 17.1875 0 13.234375 3.875 
Q 9.28125 7.765625 9.28125 18.015625 
L 9.28125 47.703125 
L 2.6875 47.703125 
L 2.6875 54.6875 
L 9.28125 54.6875 
L 9.28125 70.21875 
z
" id="DejaVuSans-116"/>
      <path d="M 54.890625 33.015625 
L 54.890625 0 
L 45.90625 0 
L 45.90625 32.71875 
Q 45.90625 40.484375 42.875 44.328125 
Q 39.84375 48.1875 33.796875 48.1875 
Q 26.515625 48.1875 22.3125 43.546875 
Q 18.109375 38.921875 18.109375 30.90625 
L 18.109375 0 
L 9.078125 0 
L 9.078125 54.6875 
L 18.109375 54.6875 
L 18.109375 46.1875 
Q 21.34375 51.125 25.703125 53.5625 
Q 30.078125 56 35.796875 56 
Q 45.21875 56 50.046875 50.171875 
Q 54.890625 44.34375 54.890625 33.015625 
z
" id="DejaVuSans-110"/>
     </defs>
     <g transform="translate(484.095156 300.330997)scale(0.1 -0.1)">
      <use xlink:href="#DejaVuSans-82"/>
      <use x="69.419922" xlink:href="#DejaVuSans-101"/>
      <use x="130.943359" xlink:href="#DejaVuSans-97"/>
      <use x="192.222656" xlink:href="#DejaVuSans-100"/>
      <use x="255.699219" xlink:href="#DejaVuSans-32"/>
      <use x="287.486328" xlink:href="#DejaVuSans-80"/>
      <use x="347.742188" xlink:href="#DejaVuSans-111"/>
      <use x="408.923828" xlink:href="#DejaVuSans-115"/>
      <use x="461.023438" xlink:href="#DejaVuSans-105"/>
      <use x="488.806641" xlink:href="#DejaVuSans-116"/>
      <use x="528.015625" xlink:href="#DejaVuSans-105"/>
      <use x="555.798828" xlink:href="#DejaVuSans-111"/>
      <use x="616.980469" xlink:href="#DejaVuSans-110"/>
     </g>
    </g>
   </g>
   <g id="matplotlib.axis_2">
    <g id="ytick_1">
     <g id="line2d_1">
      <path clip-path="url(#p39ae9e4b12)" d="M 43.148125 273.99006 
L 993.078125 273.99006 
" style="fill:none;stroke:#dedede;stroke-linecap:square;"/>
     </g>
     <g id="text_10">
      <!-- 0 -->
      <g transform="translate(31.058125 277.029435)scale(0.08 -0.08)">
       <use xlink:href="#DejaVuSans-48"/>
      </g>
     </g>
    </g>
    <g id="ytick_2">
     <g id="line2d_2">
      <path clip-path="url(#p39ae9e4b12)" d="M 43.148125 225.48862 
L 993.078125 225.48862 
" style="fill:none;stroke:#dedede;stroke-linecap:square;"/>
     </g>
     <g id="text_11">
      <!-- 20 -->
      <g transform="translate(25.968125 228.527995)scale(0.08 -0.08)">
       <use xlink:href="#DejaVuSans-50"/>
       <use x="63.623047" xlink:href="#DejaVuSans-48"/>
      </g>
     </g>
    </g>
    <g id="ytick_3">
     <g id="line2d_3">
      <path clip-path="url(#p39ae9e4b12)" d="M 43.148125 176.98718 
L 993.078125 176.98718 
" style="fill:none;stroke:#dedede;stroke-linecap:square;"/>
     </g>
     <g id="text_12">
      <!-- 40 -->
      <g transform="translate(25.968125 180.026555)scale(0.08 -0.08)">
       <use xlink:href="#DejaVuSans-52"/>
       <use x="63.623047" xlink:href="#DejaVuSans-48"/>
      </g>
     </g>
    </g>
    <g id="ytick_4">
     <g id="line2d_4">
      <path clip-path="url(#p39ae9e4b12)" d="M 43.148125 128.48574 
L 993.078125 128.48574 
" style="fill:none;stroke:#dedede;stroke-linecap:square;"/>
     </g>
     <g id="text_13">
      <!-- 60 -->
      <g transform="translate(25.968125 131.525115)scale(0.08 -0.08)">
       <use xlink:href="#DejaVuSans-54"/>
       <use x="63.623047" xlink:href="#DejaVuSans-48"/>
      </g>
     </g>
    </g>
    <g id="ytick_5">
     <g id="line2d_5">
      <path clip-path="url(#p39ae9e4b12)" d="M 43.148125 79.9843 
L 993.078125 79.9843 
" style="fill:none;stroke:#dedede;stroke-linecap:square;"/>
     </g>
     <g id="text_14">
      <!-- 80 -->
      <g transform="translate(25.968125 83.023675)scale(0.08 -0.08)">
       <use xlink:href="#DejaVuSans-56"/>
       <use x="63.623047" xlink:href="#DejaVuSans-48"/>
      </g>
     </g>
    </g>
    <g id="ytick_6">
     <g id="line2d_6">
      <path clip-path="url(#p39ae9e4b12)" d="M 43.148125 31.48286 
L 993.078125 31.48286 
" style="fill:none;stroke:#dedede;stroke-linecap:square;"/>
     </g>
     <g id="text_15">
      <!-- 100 -->
      <g transform="translate(20.878125 34.522235)scale(0.08 -0.08)">
       <use xlink:href="#DejaVuSans-49"/>
       <use x="63.623047" xlink:href="#DejaVuSans-48"/>
       <use x="127.246094" xlink:href="#DejaVuSans-48"/>
      </g>
     </g>
    </g>
    <g id="text_16">
     <!-- R1 After filtering: Base Content Percent -->
     <defs>
      <path d="M 34.1875 63.1875 
L 20.796875 26.90625 
L 47.609375 26.90625 
z
M 28.609375 72.90625 
L 39.796875 72.90625 
L 67.578125 0 
L 57.328125 0 
L 50.6875 18.703125 
L 17.828125 18.703125 
L 11.1875 0 
L 0.78125 0 
z
" id="DejaVuSans-65"/>
      <path d="M 37.109375 75.984375 
L 37.109375 68.5 
L 28.515625 68.5 
Q 23.6875 68.5 21.796875 66.546875 
Q 19.921875 64.59375 19.921875 59.515625 
L 19.921875 54.6875 
L 34.71875 54.6875 
L 34.71875 47.703125 
L 19.921875 47.703125 
L 19.921875 0 
L 10.890625 0 
L 10.890625 47.703125 
L 2.296875 47.703125 
L 2.296875 54.6875 
L 10.890625 54.6875 
L 10.890625 58.5 
Q 10.890625 67.625 15.140625 71.796875 
Q 19.390625 75.984375 28.609375 75.984375 
z
" id="DejaVuSans-102"/>
      <path d="M 41.109375 46.296875 
Q 39.59375 47.171875 37.8125 47.578125 
Q 36.03125 48 33.890625 48 
Q 26.265625 48 22.1875 43.046875 
Q 18.109375 38.09375 18.109375 28.8125 
L 18.109375 0 
L 9.078125 0 
L 9.078125 54.6875 
L 18.109375 54.6875 
L 18.109375 46.1875 
Q 20.953125 51.171875 25.484375 53.578125 
Q 30.03125 56 36.53125 56 
Q 37.453125 56 38.578125 55.875 
Q 39.703125 55.765625 41.0625 55.515625 
z
" id="DejaVuSans-114"/>
      <path d="M 9.421875 75.984375 
L 18.40625 75.984375 
L 18.40625 0 
L 9.421875 0 
z
" id="DejaVuSans-108"/>
      <path d="M 45.40625 27.984375 
Q 45.40625 37.75 41.375 43.109375 
Q 37.359375 48.484375 30.078125 48.484375 
Q 22.859375 48.484375 18.828125 43.109375 
Q 14.796875 37.75 14.796875 27.984375 
Q 14.796875 18.265625 18.828125 12.890625 
Q 22.859375 7.515625 30.078125 7.515625 
Q 37.359375 7.515625 41.375 12.890625 
Q 45.40625 18.265625 45.40625 27.984375 
z
M 54.390625 6.78125 
Q 54.390625 -7.171875 48.1875 -13.984375 
Q 42 -20.796875 29.203125 -20.796875 
Q 24.46875 -20.796875 20.265625 -20.09375 
Q 16.0625 -19.390625 12.109375 -17.921875 
L 12.109375 -9.1875 
Q 16.0625 -11.328125 19.921875 -12.34375 
Q 23.78125 -13.375 27.78125 -13.375 
Q 36.625 -13.375 41.015625 -8.765625 
Q 45.40625 -4.15625 45.40625 5.171875 
L 45.40625 9.625 
Q 42.625 4.78125 38.28125 2.390625 
Q 33.9375 0 27.875 0 
Q 17.828125 0 11.671875 7.65625 
Q 5.515625 15.328125 5.515625 27.984375 
Q 5.515625 40.671875 11.671875 48.328125 
Q 17.828125 56 27.875 56 
Q 33.9375 56 38.28125 53.609375 
Q 42.625 51.21875 45.40625 46.390625 
L 45.40625 54.6875 
L 54.390625 54.6875 
z
" id="DejaVuSans-103"/>
      <path d="M 11.71875 12.40625 
L 22.015625 12.40625 
L 22.015625 0 
L 11.71875 0 
z
M 11.71875 51.703125 
L 22.015625 51.703125 
L 22.015625 39.3125 
L 11.71875 39.3125 
z
" id="DejaVuSans-58"/>
      <path d="M 19.671875 34.8125 
L 19.671875 8.109375 
L 35.5 8.109375 
Q 43.453125 8.109375 47.28125 11.40625 
Q 51.125 14.703125 51.125 21.484375 
Q 51.125 28.328125 47.28125 31.5625 
Q 43.453125 34.8125 35.5 34.8125 
z
M 19.671875 64.796875 
L 19.671875 42.828125 
L 34.28125 42.828125 
Q 41.5 42.828125 45.03125 45.53125 
Q 48.578125 48.25 48.578125 53.8125 
Q 48.578125 59.328125 45.03125 62.0625 
Q 41.5 64.796875 34.28125 64.796875 
z
M 9.8125 72.90625 
L 35.015625 72.90625 
Q 46.296875 72.90625 52.390625 68.21875 
Q 58.5 63.53125 58.5 54.890625 
Q 58.5 48.1875 55.375 44.234375 
Q 52.25 40.28125 46.1875 39.3125 
Q 53.46875 37.75 57.5 32.78125 
Q 61.53125 27.828125 61.53125 20.40625 
Q 61.53125 10.640625 54.890625 5.3125 
Q 48.25 0 35.984375 0 
L 9.8125 0 
z
" id="DejaVuSans-66"/>
      <path d="M 64.40625 67.28125 
L 64.40625 56.890625 
Q 59.421875 61.53125 53.78125 63.8125 
Q 48.140625 66.109375 41.796875 66.109375 
Q 29.296875 66.109375 22.65625 58.46875 
Q 16.015625 50.828125 16.015625 36.375 
Q 16.015625 21.96875 22.65625 14.328125 
Q 29.296875 6.6875 41.796875 6.6875 
Q 48.140625 6.6875 53.78125 8.984375 
Q 59.421875 11.28125 64.40625 15.921875 
L 64.40625 5.609375 
Q 59.234375 2.09375 53.4375 0.328125 
Q 47.65625 -1.421875 41.21875 -1.421875 
Q 24.65625 -1.421875 15.125 8.703125 
Q 5.609375 18.84375 5.609375 36.375 
Q 5.609375 53.953125 15.125 64.078125 
Q 24.65625 74.21875 41.21875 74.21875 
Q 47.75 74.21875 53.53125 72.484375 
Q 59.328125 70.75 64.40625 67.28125 
z
" id="DejaVuSans-67"/>
      <path d="M 48.78125 52.59375 
L 48.78125 44.1875 
Q 44.96875 46.296875 41.140625 47.34375 
Q 37.3125 48.390625 33.40625 48.390625 
Q 24.65625 48.390625 19.8125 42.84375 
Q 14.984375 37.3125 14.984375 27.296875 
Q 14.984375 17.28125 19.8125 11.734375 
Q 24.65625 6.203125 33.40625 6.203125 
Q 37.3125 6.203125 41.140625 7.25 
Q 44.96875 8.296875 48.78125 10.40625 
L 48.78125 2.09375 
Q 45.015625 0.34375 40.984375 -0.53125 
Q 36.96875 -1.421875 32.421875 -1.421875 
Q 20.0625 -1.421875 12.78125 6.34375 
Q 5.515625 14.109375 5.515625 27.296875 
Q 5.515625 40.671875 12.859375 48.328125 
Q 20.21875 56 33.015625 56 
Q 37.15625 56 41.109375 55.140625 
Q 45.0625 54.296875 48.78125 52.59375 
z
" id="DejaVuSans-99"/>
     </defs>
     <g transform="translate(14.798438 251.812241)rotate(-90)scale(0.1 -0.1)">
      <use xlink:href="#DejaVuSans-82"/>
      <use x="69.482422" xlink:href="#DejaVuSans-49"/>
      <use x="133.105469" xlink:href="#DejaVuSans-32"/>
      <use x="164.892578" xlink:href="#DejaVuSans-65"/>
      <use x="233.253906" xlink:href="#DejaVuSans-102"/>
      <use x="268.443359" xlink:href="#DejaVuSans-116"/>
      <use x="307.652344" xlink:href="#DejaVuSans-101"/>
      <use x="369.175781" xlink:href="#DejaVuSans-114"/>
      <use x="410.289062" xlink:href="#DejaVuSans-32"/>
      <use x="442.076172" xlink:href="#DejaVuSans-102"/>
      <use x="477.28125" xlink:href="#DejaVuSans-105"/>
      <use x="505.064453" xlink:href="#DejaVuSans-108"/>
      <use x="532.847656" xlink:href="#DejaVuSans-116"/>
      <use x="572.056641" xlink:href="#DejaVuSans-101"/>
      <use x="633.580078" xlink:href="#DejaVuSans-114"/>
      <use x="674.693359" xlink:href="#DejaVuSans-105"/>
      <use x="702.476562" xlink:href="#DejaVuSans-110"/>
      <use x="765.855469" xlink:href="#DejaVuSans-103"/>
      <use x="829.332031" xlink:href="#DejaVuSans-58"/>
      <use x="863.023438" xlink:href="#DejaVuSans-32"/>
      <use x="894.810547" xlink:href="#DejaVuSans-66"/>
      <use x="963.414062" xlink:href="#DejaVuSans-97"/>
      <use x="1024.693359" xlink:href="#DejaVuSans-115"/>
      <use x="1076.792969" xlink:href="#DejaVuSans-101"/>
      <use x="1138.316406" xlink:href="#DejaVuSans-32"/>
      <use x="1170.103516" xlink:href="#DejaVuSans-67"/>
      <use x="1239.927734" xlink:href="#DejaVuSans-111"/>
      <use x="1301.109375" xlink:href="#DejaVuSans-110"/>
      <use x="1364.488281" xlink:href="#DejaVuSans-116"/>
      <use x="1403.697266" xlink:href="#DejaVuSans-101"/>
      <use x="1465.220703" xlink:href="#DejaVuSans-110"/>
      <use x="1528.599609" xlink:href="#DejaVuSans-116"/>
      <use x="1567.808594" xlink:href="#DejaVuSans-32"/>
      <use x="1599.595703" xlink:href="#DejaVuSans-80"/>
      <use x="1659.851562" xlink:href="#DejaVuSans-101"/>
      <use x="1721.375" xlink:href="#DejaVuSans-114"/>
      <use x="1762.457031" xlink:href="#DejaVuSans-99"/>
      <use x="1817.4375" xlink:href="#DejaVuSans-101"/>
      <use x="1878.960938" xlink:href="#DejaVuSans-110"/>
      <use x="1942.339844" xlink:href="#DejaVuSans-116"/>
     </g>
    </g>
   </g>
   <g id="line2d_7">
    <path clip-path="url(#p39ae9e4b12)" d="M 86.326761 143.867729 
L 92.122551 164.541953 
L 103.714132 169.25217 
L 109.509922 166.423566 
L 115.305712 168.578 
L 121.101502 168.407033 
L 126.897292 166.398831 
L 132.693082 165.893688 
L 138.488872 168.695616 
L 144.284663 160.777756 
L 150.080453 162.570612 
L 155.876243 162.502952 
L 161.672033 163.658742 
L 167.467823 163.425935 
L 173.263613 164.072944 
L 179.059403 162.802449 
L 184.855193 164.108108 
L 190.650983 163.10243 
L 196.446774 163.735617 
L 202.242564 163.135169 
L 208.038354 164.686245 
L 213.834144 163.098308 
L 219.629934 165.111845 
L 225.425724 164.166794 
L 231.221514 164.551168 
L 237.017304 164.733049 
L 242.813094 165.308276 
L 248.608885 164.227906 
L 254.404675 165.509072 
L 260.200465 164.630468 
L 271.792045 164.635561 
L 277.587835 164.964158 
L 283.383625 164.003102 
L 289.179415 164.905956 
L 294.975206 164.60452 
L 300.770996 164.6084 
L 306.566786 164.78349 
L 312.362576 165.146766 
L 318.158366 163.976426 
L 323.954156 165.657486 
L 329.749946 164.320301 
L 335.545736 164.876128 
L 341.341526 164.770637 
L 347.137317 165.78165 
L 352.933107 164.149819 
L 358.728897 165.429772 
L 364.524687 164.927054 
L 370.320477 165.096324 
L 376.116267 164.985741 
L 381.912057 165.630568 
L 387.707847 164.374138 
L 393.503638 165.762492 
L 399.299428 164.882191 
L 405.095218 165.29809 
L 410.891008 165.307791 
L 416.686798 165.875743 
L 422.482588 164.455135 
L 428.278378 165.614805 
L 434.074168 164.843389 
L 439.869958 164.211658 
L 445.665749 165.032303 
L 451.461539 164.918567 
L 457.257329 163.929137 
L 463.053119 165.598314 
L 468.848909 164.929237 
L 474.644699 164.706858 
L 480.440489 165.021875 
L 486.236279 165.760067 
L 492.032069 164.410757 
L 497.82786 165.577459 
L 503.62365 164.945727 
L 509.41944 164.555776 
L 521.01102 165.305608 
L 526.80681 164.272042 
L 532.6026 165.391213 
L 538.39839 164.794646 
L 544.194181 164.566446 
L 549.989971 165.422497 
L 555.785761 164.882191 
L 561.581551 164.801921 
L 567.377341 165.265352 
L 573.173131 164.580269 
L 578.968921 164.17698 
L 584.764711 164.164854 
L 590.560501 164.62198 
L 596.356292 163.85008 
L 602.152082 164.664662 
L 607.947872 165.10457 
L 613.743662 164.318846 
L 619.539452 165.028665 
L 625.335242 165.180232 
L 631.131032 163.927197 
L 636.926822 164.896014 
L 642.722612 164.317391 
L 648.518403 163.851292 
L 654.314193 164.489571 
L 660.109983 164.440342 
L 665.905773 163.200888 
L 671.701563 164.612523 
L 677.497353 163.900521 
L 683.293143 163.666745 
L 689.088933 164.25822 
L 694.884724 164.063001 
L 700.680514 163.252542 
L 706.476304 163.982974 
L 712.272094 163.822919 
L 718.067884 163.003002 
L 723.863674 163.777085 
L 729.659464 163.638614 
L 735.455254 162.547574 
L 741.251044 163.690025 
L 747.046835 163.210831 
L 752.842625 162.180418 
L 758.638415 163.042531 
L 764.434205 163.337905 
L 770.229995 161.950036 
L 776.025785 163.003972 
L 781.821575 162.59171 
L 787.617365 161.423795 
L 793.413156 161.978894 
L 799.208946 162.106211 
L 805.004736 161.120419 
L 810.800526 161.911962 
L 816.596316 161.720382 
L 822.392106 160.764903 
L 828.187896 161.456049 
L 833.983686 161.374566 
L 839.779476 160.347548 
L 845.575267 161.423553 
L 851.371057 160.860451 
L 857.166847 159.482525 
L 862.962637 160.769996 
L 868.758427 160.557802 
L 874.554217 158.843761 
L 880.350007 160.572595 
L 886.145797 159.98791 
L 891.941587 158.877712 
L 897.737378 159.79342 
L 903.533168 159.637487 
L 909.328958 158.194327 
L 915.124748 159.596746 
L 926.716328 158.160134 
L 932.512118 159.188607 
L 938.307908 158.537717 
L 944.103699 157.406906 
L 949.899489 158.53505 
L 949.899489 158.53505 
" style="fill:none;stroke:#7cb5ec;stroke-linecap:square;"/>
   </g>
   <g id="line2d_8">
    <path clip-path="url(#p39ae9e4b12)" d="M 86.326761 148.78335 
L 92.122551 169.118549 
L 103.714132 174.792247 
L 109.509922 172.180687 
L 115.305712 173.978878 
L 121.101502 174.136508 
L 126.897292 172.724631 
L 132.693082 171.723804 
L 138.488872 174.822318 
L 144.284663 166.997581 
L 150.080453 168.736358 
L 155.876243 168.941761 
L 161.672033 169.850678 
L 167.467823 169.717784 
L 173.263613 170.438273 
L 179.059403 169.217492 
L 184.855193 170.392682 
L 190.650983 169.490555 
L 196.446774 170.233112 
L 202.242564 169.652065 
L 208.038354 170.910435 
L 213.834144 169.884144 
L 219.629934 171.310571 
L 225.425724 170.747955 
L 231.221514 171.287048 
L 237.017304 170.977124 
L 242.813094 171.726956 
L 248.608885 170.725887 
L 254.404675 171.802619 
L 260.200465 171.018835 
L 265.996255 171.328274 
L 271.792045 171.125538 
L 277.587835 171.664147 
L 283.383625 170.921105 
L 289.179415 171.577572 
L 294.975206 171.414122 
L 306.566786 171.429157 
L 312.362576 171.949093 
L 318.158366 171.126266 
L 323.954156 172.226036 
L 329.749946 171.387204 
L 335.545736 171.920235 
L 341.341526 171.661722 
L 347.137317 172.515347 
L 352.933107 171.494634 
L 358.728897 172.400156 
L 364.524687 172.042458 
L 370.320477 172.271142 
L 376.116267 172.059434 
L 381.912057 172.586887 
L 387.707847 171.700281 
L 393.503638 172.639753 
L 399.299428 172.062586 
L 405.095218 172.300728 
L 410.891008 172.264837 
L 416.686798 172.780165 
L 422.482588 171.795101 
L 428.278378 172.598527 
L 434.074168 171.984984 
L 439.869958 171.831719 
L 451.461539 172.189418 
L 457.257329 171.459956 
L 463.053119 172.384878 
L 468.848909 171.9343 
L 480.440489 171.949578 
L 486.236279 172.485276 
L 492.032069 171.578299 
L 497.82786 172.326677 
L 503.62365 171.755087 
L 515.21523 171.670695 
L 521.01102 172.009235 
L 526.80681 171.290686 
L 532.6026 171.911019 
L 538.39839 171.455833 
L 555.785761 171.640139 
L 561.581551 171.195138 
L 567.377341 171.708283 
L 573.173131 170.979792 
L 578.968921 170.8549 
L 584.764711 170.565832 
L 590.560501 170.977124 
L 596.356292 170.357033 
L 602.152082 170.935655 
L 613.743662 170.720066 
L 619.539452 170.758625 
L 625.335242 171.0232 
L 631.131032 170.045411 
L 636.926822 170.767598 
L 642.722612 169.977994 
L 654.314193 169.916883 
L 660.109983 170.160117 
L 665.905773 169.124369 
L 671.701563 170.093428 
L 677.497353 169.386762 
L 683.293143 169.356448 
L 689.088933 169.459999 
L 694.884724 169.341413 
L 700.680514 168.718412 
L 706.476304 169.125824 
L 712.272094 168.941276 
L 718.067884 168.509856 
L 729.659464 168.791407 
L 735.455254 167.787669 
L 741.251044 168.569513 
L 752.842625 167.598271 
L 758.638415 167.742321 
L 764.434205 168.121359 
L 770.229995 167.139448 
L 776.025785 167.704974 
L 781.821575 167.327633 
L 787.617365 166.760166 
L 793.413156 166.761379 
L 799.208946 166.960235 
L 805.004736 166.127223 
L 810.800526 166.574406 
L 816.596316 166.256236 
L 822.392106 165.791835 
L 828.187896 166.12504 
L 833.983686 166.001119 
L 839.779476 165.303668 
L 845.575267 165.983173 
L 851.371057 165.465663 
L 857.166847 164.770152 
L 862.962637 165.256622 
L 868.758427 165.228006 
L 874.554217 164.321756 
L 880.350007 165.143371 
L 891.941587 164.058636 
L 897.737378 164.37244 
L 903.533168 164.327092 
L 909.328958 163.359245 
L 915.124748 164.255552 
L 920.920538 163.731979 
L 926.716328 163.435635 
L 932.512118 163.772963 
L 938.307908 163.453823 
L 944.103699 162.584435 
L 949.899489 163.59084 
L 949.899489 163.59084 
" style="fill:none;stroke:#434348;stroke-linecap:square;"/>
   </g>
   <g id="line2d_9">
    <path clip-path="url(#p39ae9e4b12)" d="M 86.326761 151.759398 
L 92.122551 171.376533 
L 97.918342 172.500554 
L 103.714132 175.779009 
L 109.509922 173.390556 
L 115.305712 175.017052 
L 121.101502 175.229488 
L 126.897292 174.209503 
L 132.693082 173.414806 
L 138.488872 175.082043 
L 144.284663 168.623349 
L 150.080453 170.090275 
L 155.876243 170.41281 
L 161.672033 170.934928 
L 167.467823 170.979064 
L 173.263613 171.440798 
L 179.059403 170.520483 
L 184.855193 171.324879 
L 190.650983 170.733647 
L 196.446774 171.156337 
L 202.242564 170.772205 
L 208.038354 171.713376 
L 213.834144 171.01059 
L 219.629934 172.187235 
L 225.425724 171.899136 
L 231.221514 172.148919 
L 237.017304 172.122971 
L 242.813094 172.560211 
L 248.608885 171.902047 
L 254.404675 172.574276 
L 260.200465 172.065254 
L 277.587835 172.420284 
L 283.383625 171.978436 
L 289.179415 172.36669 
L 294.975206 172.474121 
L 300.770996 172.316734 
L 306.566786 172.569184 
L 312.362576 172.697713 
L 318.158366 172.154012 
L 323.954156 173.124525 
L 329.749946 172.423194 
L 335.545736 172.860192 
L 341.341526 172.802233 
L 347.137317 173.461853 
L 352.933107 172.62302 
L 358.728897 173.355877 
L 364.524687 173.193155 
L 376.116267 173.158234 
L 381.912057 173.524662 
L 387.707847 172.820664 
L 393.503638 173.628213 
L 399.299428 173.202855 
L 410.891008 173.416989 
L 416.686798 173.825129 
L 422.482588 172.963258 
L 428.278378 173.574619 
L 439.869958 172.684617 
L 445.665749 173.034555 
L 451.461539 173.107792 
L 457.257329 172.458358 
L 463.053119 173.414079 
L 468.848909 172.999149 
L 480.440489 173.030675 
L 486.236279 173.575346 
L 492.032069 172.729966 
L 497.82786 173.303496 
L 509.41944 172.666429 
L 521.01102 173.070204 
L 526.80681 172.455933 
L 532.6026 172.970048 
L 538.39839 172.643634 
L 544.194181 172.582522 
L 549.989971 172.943615 
L 561.581551 172.495219 
L 567.377341 172.805143 
L 573.173131 172.062101 
L 578.968921 171.825657 
L 584.764711 171.460926 
L 590.560501 171.880463 
L 596.356292 171.430855 
L 602.152082 171.818867 
L 607.947872 172.084897 
L 613.743662 171.729139 
L 619.539452 172.053129 
L 625.335242 172.093142 
L 631.131032 171.09474 
L 636.926822 171.764787 
L 642.722612 170.943173 
L 648.518403 170.726372 
L 654.314193 170.949963 
L 660.109983 170.906312 
L 665.905773 169.860863 
L 671.701563 170.960149 
L 677.497353 170.263425 
L 683.293143 169.976782 
L 689.088933 170.374979 
L 694.884724 170.026011 
L 700.680514 169.252413 
L 706.476304 169.804602 
L 712.272094 169.621751 
L 718.067884 168.915328 
L 723.863674 169.270601 
L 729.659464 169.071987 
L 735.455254 168.019264 
L 741.251044 168.828025 
L 747.046835 168.311485 
L 752.842625 167.556075 
L 764.434205 168.223455 
L 770.229995 167.091916 
L 776.025785 167.690666 
L 781.821575 167.21123 
L 787.617365 166.242171 
L 799.208946 166.5487 
L 805.004736 165.407946 
L 810.800526 165.877198 
L 816.596316 165.613835 
L 822.392106 164.833932 
L 828.187896 165.199148 
L 833.983686 165.107722 
L 839.779476 163.998979 
L 845.575267 164.815744 
L 851.371057 164.35401 
L 857.166847 162.986512 
L 862.962637 163.903674 
L 868.758427 163.520513 
L 874.554217 162.077837 
L 880.350007 163.595205 
L 891.941587 161.932091 
L 897.737378 162.392854 
L 903.533168 162.298034 
L 909.328958 160.994558 
L 915.124748 162.091175 
L 920.920538 161.263013 
L 926.716328 160.693849 
L 932.512118 161.431071 
L 938.307908 160.872334 
L 944.103699 159.676046 
L 949.899489 160.673236 
L 949.899489 160.673236 
" style="fill:none;stroke:#90ed7d;stroke-linecap:square;"/>
   </g>
   <g id="line2d_10">
    <path clip-path="url(#p39ae9e4b12)" d="M 86.326761 148.075472 
L 92.122551 172.050703 
L 97.918342 172.551966 
L 103.714132 176.048192 
L 109.509922 172.908694 
L 115.305712 175.379115 
L 121.101502 175.349044 
L 126.897292 174.601637 
L 132.693082 172.988721 
L 138.488872 176.022244 
L 144.284663 167.834958 
L 150.080453 169.694503 
L 155.876243 169.629754 
L 161.672033 170.888366 
L 167.467823 170.449186 
L 173.263613 171.52519 
L 179.059403 169.892874 
L 184.855193 171.356163 
L 190.650983 170.286221 
L 196.446774 171.172827 
L 202.242564 170.31896 
L 208.038354 171.859123 
L 213.834144 170.647314 
L 219.629934 172.326192 
L 225.425724 171.569084 
L 231.221514 172.249559 
L 237.017304 171.831962 
L 242.813094 172.6075 
L 248.608885 171.487117 
L 254.404675 172.70232 
L 260.200465 171.695915 
L 265.996255 172.202755 
L 271.792045 171.822019 
L 277.587835 172.45278 
L 283.383625 171.662934 
L 289.179415 172.421739 
L 294.975206 172.123456 
L 300.770996 172.300971 
L 306.566786 172.0929 
L 312.362576 172.737241 
L 318.158366 171.76697 
L 323.954156 172.989206 
L 329.749946 172.034698 
L 335.545736 172.715658 
L 341.341526 172.318189 
L 347.137317 173.216193 
L 352.933107 172.19742 
L 358.728897 173.1917 
L 364.524687 172.595375 
L 370.320477 172.996482 
L 376.116267 172.616715 
L 381.912057 173.291855 
L 387.707847 172.308974 
L 393.503638 173.297918 
L 399.299428 172.624233 
L 405.095218 173.029705 
L 410.891008 172.834002 
L 416.686798 173.385948 
L 422.482588 172.405249 
L 428.278378 173.254024 
L 434.074168 172.552936 
L 445.665749 172.635873 
L 451.461539 172.847582 
L 457.257329 172.022815 
L 463.053119 173.037708 
L 468.848909 172.468786 
L 480.440489 172.424165 
L 486.236279 173.080147 
L 492.032069 172.054826 
L 497.82786 172.837154 
L 503.62365 172.203725 
L 509.41944 172.324252 
L 515.21523 172.191843 
L 521.01102 172.532808 
L 526.80681 171.711193 
L 532.6026 172.399186 
L 538.39839 171.934542 
L 555.785761 172.169047 
L 561.581551 171.615161 
L 567.377341 172.137036 
L 573.173131 171.396177 
L 578.968921 171.384051 
L 584.764711 171.028293 
L 590.560501 171.402724 
L 596.356292 170.717884 
L 602.152082 171.353495 
L 607.947872 171.126994 
L 613.743662 171.17598 
L 619.539452 171.07728 
L 625.335242 171.393994 
L 631.131032 170.343695 
L 636.926822 171.098135 
L 642.722612 170.388074 
L 648.518403 170.449186 
L 654.314193 170.315079 
L 660.109983 170.580625 
L 665.905773 169.570582 
L 671.701563 170.384194 
L 677.497353 169.873231 
L 683.293143 169.733547 
L 694.884724 169.866684 
L 700.680514 169.130674 
L 706.476304 169.717299 
L 712.272094 169.293882 
L 718.067884 169.061802 
L 729.659464 169.193241 
L 735.455254 168.334038 
L 741.251044 169.131159 
L 752.842625 168.250373 
L 758.638415 168.391997 
L 764.434205 168.762063 
L 770.229995 167.922503 
L 776.025785 168.390057 
L 787.617365 167.596816 
L 793.413156 167.585176 
L 799.208946 167.771664 
L 805.004736 167.007524 
L 810.800526 167.559955 
L 822.392106 166.925556 
L 828.187896 167.074213 
L 833.983686 167.06136 
L 839.779476 166.367305 
L 845.575267 166.925799 
L 851.371057 166.655161 
L 857.166847 166.017852 
L 862.962637 166.537787 
L 868.758427 166.409501 
L 874.554217 165.565576 
L 880.350007 166.319288 
L 886.145797 165.888838 
L 891.941587 165.584976 
L 897.737378 165.674704 
L 903.533168 165.645846 
L 909.328958 164.929965 
L 915.124748 165.705988 
L 920.920538 165.254197 
L 926.716328 164.95761 
L 932.512118 165.45572 
L 938.307908 165.09972 
L 944.103699 164.310116 
L 949.899489 165.192842 
L 949.899489 165.192842 
" style="fill:none;stroke:#f7a35c;stroke-linecap:square;"/>
   </g>
   <g id="line2d_11">
    <path clip-path="url(#p39ae9e4b12)" d="M 86.326761 155.150619 
L 92.122551 174.681664 
L 97.918342 173.570496 
L 103.714132 177.24448 
L 109.509922 174.725073 
L 115.305712 176.145438 
L 121.101502 176.957594 
L 126.897292 176.40298 
L 132.693082 175.701649 
L 138.488872 175.553477 
L 144.284663 170.766385 
L 150.080453 171.660267 
L 155.876243 172.126366 
L 167.467823 172.610895 
L 173.263613 172.931005 
L 179.059403 172.619625 
L 184.855193 172.95283 
L 202.242564 172.736514 
L 208.038354 173.332596 
L 213.834144 172.914999 
L 219.629934 173.709938 
L 225.425724 173.606145 
L 231.221514 173.639853 
L 237.017304 173.910734 
L 242.813094 174.002401 
L 248.608885 173.70242 
L 254.404675 174.058178 
L 260.200465 173.766442 
L 271.792045 173.87557 
L 277.587835 173.95778 
L 283.383625 173.764987 
L 294.975206 174.285165 
L 300.770996 174.108377 
L 306.566786 174.317661 
L 312.362576 174.36495 
L 318.158366 174.073456 
L 323.954156 174.64359 
L 329.749946 174.268432 
L 341.341526 174.527672 
L 347.137317 175.053185 
L 352.933107 174.513122 
L 358.728897 174.880035 
L 370.320477 174.819651 
L 381.912057 175.099989 
L 387.707847 174.772119 
L 393.503638 175.049547 
L 405.095218 174.967338 
L 416.686798 175.339829 
L 422.482588 174.861119 
L 428.278378 175.245008 
L 439.869958 174.598242 
L 445.665749 174.922474 
L 451.461539 174.900406 
L 457.257329 174.574476 
L 463.053119 175.210087 
L 468.848909 174.970005 
L 474.644699 174.88537 
L 480.440489 174.937267 
L 486.236279 175.279929 
L 492.032069 174.976795 
L 497.82786 175.187534 
L 503.62365 175.201357 
L 509.41944 174.810435 
L 515.21523 175.113084 
L 521.01102 175.14073 
L 526.80681 174.707127 
L 532.6026 175.110659 
L 544.194181 174.928294 
L 549.989971 175.23167 
L 555.785761 175.001531 
L 567.377341 175.216392 
L 573.173131 174.849722 
L 578.968921 174.686999 
L 584.764711 174.409571 
L 590.560501 174.784245 
L 596.356292 174.607214 
L 602.152082 174.686029 
L 607.947872 175.158191 
L 613.743662 174.928051 
L 625.335242 175.385662 
L 631.131032 174.549498 
L 636.926822 175.100959 
L 642.722612 174.695002 
L 648.518403 174.612792 
L 654.314193 174.931931 
L 660.109983 174.847054 
L 665.905773 174.240543 
L 671.701563 174.836141 
L 677.497353 174.415634 
L 683.293143 174.283952 
L 689.088933 174.80607 
L 694.884724 174.37077 
L 700.680514 174.084369 
L 712.272094 174.485476 
L 718.067884 173.923102 
L 723.863674 174.309901 
L 729.659464 174.197377 
L 735.455254 173.553521 
L 741.251044 174.055753 
L 752.842625 173.334537 
L 764.434205 173.935954 
L 770.229995 173.271485 
L 776.025785 173.401711 
L 781.821575 173.219588 
L 787.617365 172.387061 
L 799.208946 172.722691 
L 805.004736 172.139946 
L 816.596316 172.259987 
L 822.392106 171.452923 
L 828.187896 171.578784 
L 833.983686 171.451226 
L 839.779476 170.899037 
L 845.575267 171.323182 
L 851.371057 171.003315 
L 857.166847 169.434536 
L 862.962637 170.238447 
L 868.758427 170.138292 
L 874.554217 168.909265 
L 880.350007 170.01243 
L 886.145797 169.500983 
L 891.941587 168.214725 
L 897.737378 168.774431 
L 903.533168 168.591096 
L 909.328958 167.173156 
L 915.124748 168.574363 
L 920.920538 167.183584 
L 926.716328 167.059663 
L 932.512118 167.437731 
L 938.307908 166.606902 
L 944.103699 165.536233 
L 949.899489 166.571738 
L 949.899489 166.571738 
" style="fill:none;stroke:#8085e9;stroke-linecap:square;"/>
   </g>
   <g id="line2d_12">
    <path clip-path="url(#p39ae9e4b12)" d="M 86.326761 151.441229 
L 92.122551 175.026994 
L 97.918342 173.569041 
L 103.714132 177.49693 
L 109.509922 174.704945 
L 115.305712 176.579283 
L 121.101502 177.449884 
L 126.897292 177.260971 
L 132.693082 176.336291 
L 138.488872 175.982715 
L 144.284663 170.957238 
L 150.080453 171.895499 
L 173.263613 173.185637 
L 179.059403 172.919122 
L 184.855193 173.294523 
L 190.650983 173.215708 
L 196.446774 173.258389 
L 202.242564 173.053713 
L 208.038354 173.616572 
L 213.834144 173.178604 
L 219.629934 174.009434 
L 225.425724 173.811548 
L 242.813094 174.27886 
L 248.608885 173.997066 
L 254.404675 174.417331 
L 260.200465 174.033442 
L 277.587835 174.173126 
L 283.383625 174.02932 
L 289.179415 174.354037 
L 294.975206 174.476988 
L 300.770996 174.411996 
L 306.566786 174.676086 
L 312.362576 174.573991 
L 318.158366 174.328089 
L 323.954156 174.964427 
L 329.749946 174.491053 
L 341.341526 174.88828 
L 347.137317 175.248888 
L 352.933107 174.760236 
L 358.728897 175.226335 
L 364.524687 175.176136 
L 370.320477 175.007836 
L 376.116267 175.243311 
L 381.912057 175.267561 
L 387.707847 174.952545 
L 393.503638 175.359472 
L 399.299428 175.030874 
L 405.095218 175.092229 
L 410.891008 175.333038 
L 416.686798 175.45599 
L 422.482588 174.971703 
L 428.278378 175.411853 
L 434.074168 175.102172 
L 439.869958 174.629768 
L 445.665749 175.044212 
L 451.461539 174.911076 
L 457.257329 174.492993 
L 463.053119 175.270714 
L 468.848909 174.935327 
L 474.644699 174.802675 
L 486.236279 175.247676 
L 492.032069 174.892645 
L 497.82786 175.187777 
L 503.62365 175.018992 
L 509.41944 174.696457 
L 515.21523 174.923929 
L 521.01102 174.967823 
L 526.80681 174.56138 
L 532.6026 174.902831 
L 538.39839 174.884885 
L 544.194181 174.577386 
L 549.989971 175.052215 
L 555.785761 174.743988 
L 561.581551 174.669296 
L 567.377341 174.938722 
L 573.173131 174.410784 
L 578.968921 174.296078 
L 584.764711 173.982758 
L 590.560501 174.2905 
L 596.356292 174.04872 
L 602.152082 174.123412 
L 607.947872 174.508029 
L 613.743662 174.155666 
L 619.539452 174.589754 
L 625.335242 174.530582 
L 631.131032 173.690295 
L 636.926822 174.431882 
L 642.722612 173.8649 
L 648.518403 173.651493 
L 654.314193 174.017679 
L 660.109983 173.806941 
L 665.905773 173.074084 
L 671.701563 173.764502 
L 677.497353 173.275122 
L 683.293143 172.922032 
L 689.088933 173.585046 
L 700.680514 172.644604 
L 706.476304 173.03407 
L 712.272094 172.790593 
L 718.067884 172.168562 
L 723.863674 172.660852 
L 729.659464 172.34147 
L 735.455254 171.678455 
L 741.251044 172.130488 
L 752.842625 171.184225 
L 758.638415 171.416305 
L 764.434205 171.765757 
L 770.229995 170.643192 
L 776.025785 171.215509 
L 781.821575 170.873331 
L 787.617365 169.693533 
L 793.413156 170.061902 
L 799.208946 170.181943 
L 805.004736 169.095268 
L 810.800526 169.615446 
L 816.596316 169.148862 
L 822.392106 168.257891 
L 828.187896 168.458929 
L 833.983686 168.301785 
L 839.779476 167.362554 
L 845.575267 167.966882 
L 851.371057 167.46077 
L 857.166847 165.687072 
L 862.962637 166.913673 
L 868.758427 166.457517 
L 874.554217 164.823989 
L 880.350007 166.291885 
L 886.145797 165.429529 
L 891.941587 163.999464 
L 897.737378 164.958823 
L 903.533168 164.231301 
L 909.328958 162.847555 
L 915.124748 164.410514 
L 920.920538 162.703021 
L 926.716328 162.287606 
L 932.512118 163.036953 
L 938.307908 161.906142 
L 944.103699 160.519971 
L 949.899489 162.094085 
L 949.899489 162.094085 
" style="fill:none;stroke:#f15c80;stroke-linecap:square;"/>
   </g>
   <g id="line2d_13">
    <path clip-path="url(#p39ae9e4b12)" d="M 86.326761 148.296881 
L 92.122551 174.834201 
L 97.918342 172.663762 
L 103.714132 174.087036 
L 109.509922 173.058078 
L 115.305712 174.643348 
L 121.101502 176.480582 
L 132.693082 173.6869 
L 138.488872 173.612935 
L 144.284663 168.15337 
L 150.080453 169.14571 
L 173.263613 170.985612 
L 179.059403 170.557587 
L 184.855193 170.712306 
L 190.650983 170.573592 
L 196.446774 170.814159 
L 202.242564 170.116709 
L 208.038354 170.568984 
L 213.834144 170.292284 
L 219.629934 171.10735 
L 225.425724 170.860721 
L 231.221514 171.085282 
L 242.813094 171.199261 
L 248.608885 171.08795 
L 254.404675 171.361255 
L 260.200465 170.863146 
L 265.996255 171.193198 
L 271.792045 171.026353 
L 277.587835 171.167977 
L 283.383625 171.130631 
L 289.179415 171.242912 
L 294.975206 171.52616 
L 300.770996 171.443223 
L 306.566786 171.673362 
L 312.362576 171.645959 
L 318.158366 171.402967 
L 323.954156 171.876583 
L 329.749946 171.5184 
L 335.545736 171.826384 
L 341.341526 171.931875 
L 347.137317 172.542508 
L 352.933107 171.943515 
L 364.524687 172.373481 
L 370.320477 172.168077 
L 376.116267 172.464178 
L 381.912057 172.531595 
L 387.707847 172.286663 
L 393.503638 172.604105 
L 399.299428 172.417859 
L 405.095218 172.592707 
L 410.891008 172.645089 
L 416.686798 172.973443 
L 422.482588 172.584947 
L 428.278378 172.8454 
L 434.074168 172.664732 
L 439.869958 172.229916 
L 445.665749 172.381483 
L 451.461539 172.661094 
L 457.257329 172.191843 
L 463.053119 173.026067 
L 468.848909 172.716386 
L 480.440489 172.822361 
L 486.236279 173.238019 
L 492.032069 172.943372 
L 497.82786 173.120645 
L 515.21523 173.011759 
L 521.01102 173.2807 
L 526.80681 172.991631 
L 538.39839 173.435905 
L 544.194181 173.189032 
L 549.989971 173.616572 
L 555.785761 173.276577 
L 567.377341 173.85908 
L 573.173131 173.225166 
L 578.968921 173.432509 
L 584.764711 172.858737 
L 590.560501 173.43445 
L 596.356292 173.392981 
L 602.152082 173.080632 
L 607.947872 174.000461 
L 613.743662 173.997794 
L 619.539452 174.131173 
L 625.335242 174.405691 
L 631.131032 173.492166 
L 636.926822 174.350884 
L 642.722612 173.803545 
L 648.518403 173.879208 
L 654.314193 174.086309 
L 660.109983 173.96748 
L 665.905773 173.46452 
L 671.701563 174.193012 
L 677.497353 173.698055 
L 683.293143 173.627 
L 689.088933 174.311356 
L 694.884724 173.924314 
L 700.680514 174.059148 
L 723.863674 173.968935 
L 735.455254 173.666529 
L 741.251044 173.86587 
L 747.046835 173.535818 
L 752.842625 173.578499 
L 758.638415 173.278517 
L 764.434205 174.29147 
L 770.229995 173.538 
L 776.025785 173.445362 
L 781.821575 173.635973 
L 787.617365 172.69165 
L 793.413156 172.781863 
L 799.208946 173.054926 
L 805.004736 172.464421 
L 816.596316 172.451568 
L 822.392106 172.021845 
L 828.187896 171.363438 
L 833.983686 172.054341 
L 839.779476 171.601338 
L 845.575267 171.829052 
L 851.371057 171.565447 
L 857.166847 169.858438 
L 862.962637 170.622579 
L 868.758427 170.238932 
L 874.554217 169.636787 
L 880.350007 170.431483 
L 886.145797 170.186308 
L 891.941587 169.306249 
L 897.737378 169.430171 
L 903.533168 169.436718 
L 909.328958 168.585276 
L 915.124748 169.40592 
L 920.920538 167.791549 
L 926.716328 168.538229 
L 938.307908 167.604334 
L 944.103699 166.576103 
L 949.899489 167.650895 
L 949.899489 167.650895 
" style="fill:none;stroke:#e4d354;stroke-linecap:square;"/>
   </g>
   <g id="line2d_14">
    <path clip-path="url(#p39ae9e4b12)" d="M 86.326761 149.149293 
L 92.122551 178.687883 
L 97.918342 178.248702 
L 103.714132 177.674688 
L 109.509922 176.985725 
L 115.305712 179.318644 
L 121.101502 182.785527 
L 132.693082 179.201998 
L 138.488872 177.881304 
L 144.284663 172.863345 
L 150.080453 173.547458 
L 161.672033 174.063756 
L 167.467823 174.865727 
L 173.263613 175.39997 
L 179.059403 175.130545 
L 184.855193 175.296662 
L 190.650983 175.330371 
L 196.446774 175.504733 
L 202.242564 174.641408 
L 208.038354 174.936297 
L 213.834144 174.875185 
L 219.629934 175.56245 
L 225.425724 175.446532 
L 231.221514 175.47054 
L 237.017304 175.6563 
L 248.608885 175.707955 
L 254.404675 175.957252 
L 260.200465 175.483635 
L 265.996255 175.663333 
L 283.383625 175.636657 
L 294.975206 176.201214 
L 300.770996 176.04504 
L 306.566786 176.344778 
L 312.362576 176.293367 
L 318.158366 176.120944 
L 323.954156 176.48131 
L 329.749946 176.281969 
L 341.341526 176.766256 
L 347.137317 177.400897 
L 352.933107 176.889207 
L 358.728897 176.988878 
L 364.524687 177.221927 
L 370.320477 176.933101 
L 376.116267 177.352881 
L 387.707847 177.221684 
L 393.503638 177.554889 
L 405.095218 177.349243 
L 416.686798 177.898522 
L 422.482588 177.394835 
L 428.278378 177.720279 
L 434.074168 177.640009 
L 439.869958 177.007308 
L 451.461539 177.340755 
L 457.257329 176.965354 
L 463.053119 177.883487 
L 468.848909 177.457644 
L 492.032069 177.875726 
L 509.41944 177.700879 
L 515.21523 177.605573 
L 521.01102 177.982187 
L 526.80681 177.641949 
L 538.39839 178.085495 
L 544.194181 177.701606 
L 549.989971 178.213296 
L 555.785761 177.788424 
L 561.581551 177.926168 
L 567.377341 178.309814 
L 573.173131 177.582293 
L 578.968921 177.820677 
L 584.764711 177.286919 
L 590.560501 177.808552 
L 596.356292 177.760535 
L 602.152082 177.4186 
L 607.947872 178.232697 
L 619.539452 178.355406 
L 625.335242 178.754087 
L 631.131032 177.646072 
L 636.926822 178.530496 
L 642.722612 177.781876 
L 660.109983 177.933201 
L 665.905773 177.441638 
L 671.701563 178.041359 
L 677.497353 177.415448 
L 683.293143 177.40696 
L 689.088933 178.062457 
L 694.884724 177.601693 
L 712.272094 177.746228 
L 718.067884 177.555617 
L 729.659464 177.403565 
L 735.455254 177.14966 
L 741.251044 177.498143 
L 747.046835 177.065752 
L 752.842625 177.197191 
L 758.638415 176.762861 
L 764.434205 177.41278 
L 770.229995 176.766983 
L 781.821575 176.723332 
L 787.617365 175.9638 
L 793.413156 176.256506 
L 799.208946 176.133797 
L 805.004736 175.693889 
L 816.596316 175.405791 
L 822.392106 174.901133 
L 828.187896 174.258974 
L 833.983686 174.876882 
L 839.779476 174.257519 
L 845.575267 174.604789 
L 851.371057 174.412724 
L 857.166847 172.844915 
L 862.962637 173.28846 
L 868.758427 173.364365 
L 874.554217 172.379301 
L 880.350007 173.057593 
L 886.145797 172.910634 
L 891.941587 172.053371 
L 903.533168 172.082714 
L 909.328958 171.225936 
L 915.124748 171.971404 
L 920.920538 170.447731 
L 926.716328 171.080917 
L 932.512118 170.503508 
L 938.307908 170.368431 
L 944.103699 169.035611 
L 949.899489 170.322355 
L 949.899489 170.322355 
" style="fill:none;stroke:#2b908f;stroke-linecap:square;"/>
   </g>
   <g id="line2d_15">
    <path clip-path="url(#p39ae9e4b12)" d="M 43.148125 273.99006 
L 993.078125 273.99006 
" style="fill:none;stroke:#dedede;stroke-linecap:square;stroke-width:2;"/>
   </g>
   <g id="text_17">
    <!-- Fastp: Read GC Content -->
    <defs>
     <path d="M 9.8125 72.90625 
L 51.703125 72.90625 
L 51.703125 64.59375 
L 19.671875 64.59375 
L 19.671875 43.109375 
L 48.578125 43.109375 
L 48.578125 34.8125 
L 19.671875 34.8125 
L 19.671875 0 
L 9.8125 0 
z
" id="DejaVuSans-70"/>
     <path d="M 18.109375 8.203125 
L 18.109375 -20.796875 
L 9.078125 -20.796875 
L 9.078125 54.6875 
L 18.109375 54.6875 
L 18.109375 46.390625 
Q 20.953125 51.265625 25.265625 53.625 
Q 29.59375 56 35.59375 56 
Q 45.5625 56 51.78125 48.09375 
Q 58.015625 40.1875 58.015625 27.296875 
Q 58.015625 14.40625 51.78125 6.484375 
Q 45.5625 -1.421875 35.59375 -1.421875 
Q 29.59375 -1.421875 25.265625 0.953125 
Q 20.953125 3.328125 18.109375 8.203125 
z
M 48.6875 27.296875 
Q 48.6875 37.203125 44.609375 42.84375 
Q 40.53125 48.484375 33.40625 48.484375 
Q 26.265625 48.484375 22.1875 42.84375 
Q 18.109375 37.203125 18.109375 27.296875 
Q 18.109375 17.390625 22.1875 11.75 
Q 26.265625 6.109375 33.40625 6.109375 
Q 40.53125 6.109375 44.609375 11.75 
Q 48.6875 17.390625 48.6875 27.296875 
z
" id="DejaVuSans-112"/>
     <path d="M 59.515625 10.40625 
L 59.515625 29.984375 
L 43.40625 29.984375 
L 43.40625 38.09375 
L 69.28125 38.09375 
L 69.28125 6.78125 
Q 63.578125 2.734375 56.6875 0.65625 
Q 49.8125 -1.421875 42 -1.421875 
Q 24.90625 -1.421875 15.25 8.5625 
Q 5.609375 18.5625 5.609375 36.375 
Q 5.609375 54.25 15.25 64.234375 
Q 24.90625 74.21875 42 74.21875 
Q 49.125 74.21875 55.546875 72.453125 
Q 61.96875 70.703125 67.390625 67.28125 
L 67.390625 56.78125 
Q 61.921875 61.421875 55.765625 63.765625 
Q 49.609375 66.109375 42.828125 66.109375 
Q 29.4375 66.109375 22.71875 58.640625 
Q 16.015625 51.171875 16.015625 36.375 
Q 16.015625 21.625 22.71875 14.15625 
Q 29.4375 6.6875 42.828125 6.6875 
Q 48.046875 6.6875 52.140625 7.59375 
Q 56.25 8.5 59.515625 10.40625 
z
" id="DejaVuSans-71"/>
    </defs>
    <g transform="translate(421.856875 19.3575)scale(0.16 -0.16)">
     <use xlink:href="#DejaVuSans-70"/>
     <use x="57.378906" xlink:href="#DejaVuSans-97"/>
     <use x="118.658203" xlink:href="#DejaVuSans-115"/>
     <use x="170.757812" xlink:href="#DejaVuSans-116"/>
     <use x="209.966797" xlink:href="#DejaVuSans-112"/>
     <use x="273.443359" xlink:href="#DejaVuSans-58"/>
     <use x="307.134766" xlink:href="#DejaVuSans-32"/>
     <use x="338.921875" xlink:href="#DejaVuSans-82"/>
     <use x="408.341797" xlink:href="#DejaVuSans-101"/>
     <use x="469.865234" xlink:href="#DejaVuSans-97"/>
     <use x="531.144531" xlink:href="#DejaVuSans-100"/>
     <use x="594.621094" xlink:href="#DejaVuSans-32"/>
     <use x="626.408203" xlink:href="#DejaVuSans-71"/>
     <use x="703.898438" xlink:href="#DejaVuSans-67"/>
     <use x="773.722656" xlink:href="#DejaVuSans-32"/>
     <use x="805.509766" xlink:href="#DejaVuSans-67"/>
     <use x="875.333984" xlink:href="#DejaVuSans-111"/>
     <use x="936.515625" xlink:href="#DejaVuSans-110"/>
     <use x="999.894531" xlink:href="#DejaVuSans-116"/>
     <use x="1039.103516" xlink:href="#DejaVuSans-101"/>
     <use x="1100.626953" xlink:href="#DejaVuSans-110"/>
     <use x="1164.005859" xlink:href="#DejaVuSans-116"/>
    </g>
   </g>
   <g id="legend_1">
    <g id="line2d_16">
     <path d="M 50.348125 303.490394 
L 66.348125 303.490394 
" style="fill:none;stroke:#7cb5ec;stroke-linecap:square;"/>
    </g>
    <g id="line2d_17"/>
    <g id="text_18">
     <!-- Sfu-ABai_005-Ex1-1A-lcwgs-1-1.clmp.r1r2_fastp -->
     <defs>
      <path d="M 53.515625 70.515625 
L 53.515625 60.890625 
Q 47.90625 63.578125 42.921875 64.890625 
Q 37.9375 66.21875 33.296875 66.21875 
Q 25.25 66.21875 20.875 63.09375 
Q 16.5 59.96875 16.5 54.203125 
Q 16.5 49.359375 19.40625 46.890625 
Q 22.3125 44.4375 30.421875 42.921875 
L 36.375 41.703125 
Q 47.40625 39.59375 52.65625 34.296875 
Q 57.90625 29 57.90625 20.125 
Q 57.90625 9.515625 50.796875 4.046875 
Q 43.703125 -1.421875 29.984375 -1.421875 
Q 24.8125 -1.421875 18.96875 -0.25 
Q 13.140625 0.921875 6.890625 3.21875 
L 6.890625 13.375 
Q 12.890625 10.015625 18.65625 8.296875 
Q 24.421875 6.59375 29.984375 6.59375 
Q 38.421875 6.59375 43.015625 9.90625 
Q 47.609375 13.234375 47.609375 19.390625 
Q 47.609375 24.75 44.3125 27.78125 
Q 41.015625 30.8125 33.5 32.328125 
L 27.484375 33.5 
Q 16.453125 35.6875 11.515625 40.375 
Q 6.59375 45.0625 6.59375 53.421875 
Q 6.59375 63.09375 13.40625 68.65625 
Q 20.21875 74.21875 32.171875 74.21875 
Q 37.3125 74.21875 42.625 73.28125 
Q 47.953125 72.359375 53.515625 70.515625 
z
" id="DejaVuSans-83"/>
      <path d="M 8.5 21.578125 
L 8.5 54.6875 
L 17.484375 54.6875 
L 17.484375 21.921875 
Q 17.484375 14.15625 20.5 10.265625 
Q 23.53125 6.390625 29.59375 6.390625 
Q 36.859375 6.390625 41.078125 11.03125 
Q 45.3125 15.671875 45.3125 23.6875 
L 45.3125 54.6875 
L 54.296875 54.6875 
L 54.296875 0 
L 45.3125 0 
L 45.3125 8.40625 
Q 42.046875 3.421875 37.71875 1 
Q 33.40625 -1.421875 27.6875 -1.421875 
Q 18.265625 -1.421875 13.375 4.4375 
Q 8.5 10.296875 8.5 21.578125 
z
M 31.109375 56 
z
" id="DejaVuSans-117"/>
      <path d="M 4.890625 31.390625 
L 31.203125 31.390625 
L 31.203125 23.390625 
L 4.890625 23.390625 
z
" id="DejaVuSans-45"/>
      <path d="M 50.984375 -16.609375 
L 50.984375 -23.578125 
L -0.984375 -23.578125 
L -0.984375 -16.609375 
z
" id="DejaVuSans-95"/>
      <path d="M 10.796875 72.90625 
L 49.515625 72.90625 
L 49.515625 64.59375 
L 19.828125 64.59375 
L 19.828125 46.734375 
Q 21.96875 47.46875 24.109375 47.828125 
Q 26.265625 48.1875 28.421875 48.1875 
Q 40.625 48.1875 47.75 41.5 
Q 54.890625 34.8125 54.890625 23.390625 
Q 54.890625 11.625 47.5625 5.09375 
Q 40.234375 -1.421875 26.90625 -1.421875 
Q 22.3125 -1.421875 17.546875 -0.640625 
Q 12.796875 0.140625 7.71875 1.703125 
L 7.71875 11.625 
Q 12.109375 9.234375 16.796875 8.0625 
Q 21.484375 6.890625 26.703125 6.890625 
Q 35.15625 6.890625 40.078125 11.328125 
Q 45.015625 15.765625 45.015625 23.390625 
Q 45.015625 31 40.078125 35.4375 
Q 35.15625 39.890625 26.703125 39.890625 
Q 22.75 39.890625 18.8125 39.015625 
Q 14.890625 38.140625 10.796875 36.28125 
z
" id="DejaVuSans-53"/>
      <path d="M 9.8125 72.90625 
L 55.90625 72.90625 
L 55.90625 64.59375 
L 19.671875 64.59375 
L 19.671875 43.015625 
L 54.390625 43.015625 
L 54.390625 34.71875 
L 19.671875 34.71875 
L 19.671875 8.296875 
L 56.78125 8.296875 
L 56.78125 0 
L 9.8125 0 
z
" id="DejaVuSans-69"/>
      <path d="M 54.890625 54.6875 
L 35.109375 28.078125 
L 55.90625 0 
L 45.3125 0 
L 29.390625 21.484375 
L 13.484375 0 
L 2.875 0 
L 24.125 28.609375 
L 4.6875 54.6875 
L 15.28125 54.6875 
L 29.78125 35.203125 
L 44.28125 54.6875 
z
" id="DejaVuSans-120"/>
      <path d="M 4.203125 54.6875 
L 13.1875 54.6875 
L 24.421875 12.015625 
L 35.59375 54.6875 
L 46.1875 54.6875 
L 57.421875 12.015625 
L 68.609375 54.6875 
L 77.59375 54.6875 
L 63.28125 0 
L 52.6875 0 
L 40.921875 44.828125 
L 29.109375 0 
L 18.5 0 
z
" id="DejaVuSans-119"/>
      <path d="M 10.6875 12.40625 
L 21 12.40625 
L 21 0 
L 10.6875 0 
z
" id="DejaVuSans-46"/>
      <path d="M 52 44.1875 
Q 55.375 50.25 60.0625 53.125 
Q 64.75 56 71.09375 56 
Q 79.640625 56 84.28125 50.015625 
Q 88.921875 44.046875 88.921875 33.015625 
L 88.921875 0 
L 79.890625 0 
L 79.890625 32.71875 
Q 79.890625 40.578125 77.09375 44.375 
Q 74.3125 48.1875 68.609375 48.1875 
Q 61.625 48.1875 57.5625 43.546875 
Q 53.515625 38.921875 53.515625 30.90625 
L 53.515625 0 
L 44.484375 0 
L 44.484375 32.71875 
Q 44.484375 40.625 41.703125 44.40625 
Q 38.921875 48.1875 33.109375 48.1875 
Q 26.21875 48.1875 22.15625 43.53125 
Q 18.109375 38.875 18.109375 30.90625 
L 18.109375 0 
L 9.078125 0 
L 9.078125 54.6875 
L 18.109375 54.6875 
L 18.109375 46.1875 
Q 21.1875 51.21875 25.484375 53.609375 
Q 29.78125 56 35.6875 56 
Q 41.65625 56 45.828125 52.96875 
Q 50 49.953125 52 44.1875 
z
" id="DejaVuSans-109"/>
     </defs>
     <g transform="translate(72.748125 306.290394)scale(0.08 -0.08)">
      <use xlink:href="#DejaVuSans-83"/>
      <use x="63.476562" xlink:href="#DejaVuSans-102"/>
      <use x="98.681641" xlink:href="#DejaVuSans-117"/>
      <use x="162.060547" xlink:href="#DejaVuSans-45"/>
      <use x="198.113281" xlink:href="#DejaVuSans-65"/>
      <use x="266.521484" xlink:href="#DejaVuSans-66"/>
      <use x="335.125" xlink:href="#DejaVuSans-97"/>
      <use x="396.404297" xlink:href="#DejaVuSans-105"/>
      <use x="424.1875" xlink:href="#DejaVuSans-95"/>
      <use x="474.1875" xlink:href="#DejaVuSans-48"/>
      <use x="537.810547" xlink:href="#DejaVuSans-48"/>
      <use x="601.433594" xlink:href="#DejaVuSans-53"/>
      <use x="665.056641" xlink:href="#DejaVuSans-45"/>
      <use x="701.140625" xlink:href="#DejaVuSans-69"/>
      <use x="764.324219" xlink:href="#DejaVuSans-120"/>
      <use x="823.503906" xlink:href="#DejaVuSans-49"/>
      <use x="887.126953" xlink:href="#DejaVuSans-45"/>
      <use x="923.210938" xlink:href="#DejaVuSans-49"/>
      <use x="986.833984" xlink:href="#DejaVuSans-65"/>
      <use x="1055.210938" xlink:href="#DejaVuSans-45"/>
      <use x="1091.294922" xlink:href="#DejaVuSans-108"/>
      <use x="1119.078125" xlink:href="#DejaVuSans-99"/>
      <use x="1174.058594" xlink:href="#DejaVuSans-119"/>
      <use x="1255.845703" xlink:href="#DejaVuSans-103"/>
      <use x="1319.322266" xlink:href="#DejaVuSans-115"/>
      <use x="1371.421875" xlink:href="#DejaVuSans-45"/>
      <use x="1407.505859" xlink:href="#DejaVuSans-49"/>
      <use x="1471.128906" xlink:href="#DejaVuSans-45"/>
      <use x="1507.212891" xlink:href="#DejaVuSans-49"/>
      <use x="1570.835938" xlink:href="#DejaVuSans-46"/>
      <use x="1602.623047" xlink:href="#DejaVuSans-99"/>
      <use x="1657.603516" xlink:href="#DejaVuSans-108"/>
      <use x="1685.386719" xlink:href="#DejaVuSans-109"/>
      <use x="1782.798828" xlink:href="#DejaVuSans-112"/>
      <use x="1846.275391" xlink:href="#DejaVuSans-46"/>
      <use x="1878.0625" xlink:href="#DejaVuSans-114"/>
      <use x="1919.175781" xlink:href="#DejaVuSans-49"/>
      <use x="1982.798828" xlink:href="#DejaVuSans-114"/>
      <use x="2023.912109" xlink:href="#DejaVuSans-50"/>
      <use x="2087.535156" xlink:href="#DejaVuSans-95"/>
      <use x="2137.535156" xlink:href="#DejaVuSans-102"/>
      <use x="2172.740234" xlink:href="#DejaVuSans-97"/>
      <use x="2234.019531" xlink:href="#DejaVuSans-115"/>
      <use x="2286.119141" xlink:href="#DejaVuSans-116"/>
      <use x="2325.328125" xlink:href="#DejaVuSans-112"/>
     </g>
    </g>
    <g id="line2d_18">
     <path d="M 50.348125 315.455394 
L 66.348125 315.455394 
" style="fill:none;stroke:#434348;stroke-linecap:square;"/>
    </g>
    <g id="line2d_19"/>
    <g id="text_19">
     <!-- Sfu-ABai_006-Ex1-1B-lcwgs-1-1.clmp.r1r2_fastp -->
     <g transform="translate(72.748125 318.255394)scale(0.08 -0.08)">
      <use xlink:href="#DejaVuSans-83"/>
      <use x="63.476562" xlink:href="#DejaVuSans-102"/>
      <use x="98.681641" xlink:href="#DejaVuSans-117"/>
      <use x="162.060547" xlink:href="#DejaVuSans-45"/>
      <use x="198.113281" xlink:href="#DejaVuSans-65"/>
      <use x="266.521484" xlink:href="#DejaVuSans-66"/>
      <use x="335.125" xlink:href="#DejaVuSans-97"/>
      <use x="396.404297" xlink:href="#DejaVuSans-105"/>
      <use x="424.1875" xlink:href="#DejaVuSans-95"/>
      <use x="474.1875" xlink:href="#DejaVuSans-48"/>
      <use x="537.810547" xlink:href="#DejaVuSans-48"/>
      <use x="601.433594" xlink:href="#DejaVuSans-54"/>
      <use x="665.056641" xlink:href="#DejaVuSans-45"/>
      <use x="701.140625" xlink:href="#DejaVuSans-69"/>
      <use x="764.324219" xlink:href="#DejaVuSans-120"/>
      <use x="823.503906" xlink:href="#DejaVuSans-49"/>
      <use x="887.126953" xlink:href="#DejaVuSans-45"/>
      <use x="923.210938" xlink:href="#DejaVuSans-49"/>
      <use x="986.833984" xlink:href="#DejaVuSans-66"/>
      <use x="1055.4375" xlink:href="#DejaVuSans-45"/>
      <use x="1091.521484" xlink:href="#DejaVuSans-108"/>
      <use x="1119.304688" xlink:href="#DejaVuSans-99"/>
      <use x="1174.285156" xlink:href="#DejaVuSans-119"/>
      <use x="1256.072266" xlink:href="#DejaVuSans-103"/>
      <use x="1319.548828" xlink:href="#DejaVuSans-115"/>
      <use x="1371.648438" xlink:href="#DejaVuSans-45"/>
      <use x="1407.732422" xlink:href="#DejaVuSans-49"/>
      <use x="1471.355469" xlink:href="#DejaVuSans-45"/>
      <use x="1507.439453" xlink:href="#DejaVuSans-49"/>
      <use x="1571.0625" xlink:href="#DejaVuSans-46"/>
      <use x="1602.849609" xlink:href="#DejaVuSans-99"/>
      <use x="1657.830078" xlink:href="#DejaVuSans-108"/>
      <use x="1685.613281" xlink:href="#DejaVuSans-109"/>
      <use x="1783.025391" xlink:href="#DejaVuSans-112"/>
      <use x="1846.501953" xlink:href="#DejaVuSans-46"/>
      <use x="1878.289062" xlink:href="#DejaVuSans-114"/>
      <use x="1919.402344" xlink:href="#DejaVuSans-49"/>
      <use x="1983.025391" xlink:href="#DejaVuSans-114"/>
      <use x="2024.138672" xlink:href="#DejaVuSans-50"/>
      <use x="2087.761719" xlink:href="#DejaVuSans-95"/>
      <use x="2137.761719" xlink:href="#DejaVuSans-102"/>
      <use x="2172.966797" xlink:href="#DejaVuSans-97"/>
      <use x="2234.246094" xlink:href="#DejaVuSans-115"/>
      <use x="2286.345703" xlink:href="#DejaVuSans-116"/>
      <use x="2325.554688" xlink:href="#DejaVuSans-112"/>
     </g>
    </g>
    <g id="line2d_20">
     <path d="M 230.481563 303.490394 
L 246.481563 303.490394 
" style="fill:none;stroke:#90ed7d;stroke-linecap:square;"/>
    </g>
    <g id="line2d_21"/>
    <g id="text_20">
     <!-- Sfu-ABai_007-Ex1-1C-lcwgs-1-1.clmp.r1r2_fastp -->
     <defs>
      <path d="M 8.203125 72.90625 
L 55.078125 72.90625 
L 55.078125 68.703125 
L 28.609375 0 
L 18.3125 0 
L 43.21875 64.59375 
L 8.203125 64.59375 
z
" id="DejaVuSans-55"/>
     </defs>
     <g transform="translate(252.881563 306.290394)scale(0.08 -0.08)">
      <use xlink:href="#DejaVuSans-83"/>
      <use x="63.476562" xlink:href="#DejaVuSans-102"/>
      <use x="98.681641" xlink:href="#DejaVuSans-117"/>
      <use x="162.060547" xlink:href="#DejaVuSans-45"/>
      <use x="198.113281" xlink:href="#DejaVuSans-65"/>
      <use x="266.521484" xlink:href="#DejaVuSans-66"/>
      <use x="335.125" xlink:href="#DejaVuSans-97"/>
      <use x="396.404297" xlink:href="#DejaVuSans-105"/>
      <use x="424.1875" xlink:href="#DejaVuSans-95"/>
      <use x="474.1875" xlink:href="#DejaVuSans-48"/>
      <use x="537.810547" xlink:href="#DejaVuSans-48"/>
      <use x="601.433594" xlink:href="#DejaVuSans-55"/>
      <use x="665.056641" xlink:href="#DejaVuSans-45"/>
      <use x="701.140625" xlink:href="#DejaVuSans-69"/>
      <use x="764.324219" xlink:href="#DejaVuSans-120"/>
      <use x="823.503906" xlink:href="#DejaVuSans-49"/>
      <use x="887.126953" xlink:href="#DejaVuSans-45"/>
      <use x="923.210938" xlink:href="#DejaVuSans-49"/>
      <use x="986.833984" xlink:href="#DejaVuSans-67"/>
      <use x="1056.658203" xlink:href="#DejaVuSans-45"/>
      <use x="1092.742188" xlink:href="#DejaVuSans-108"/>
      <use x="1120.525391" xlink:href="#DejaVuSans-99"/>
      <use x="1175.505859" xlink:href="#DejaVuSans-119"/>
      <use x="1257.292969" xlink:href="#DejaVuSans-103"/>
      <use x="1320.769531" xlink:href="#DejaVuSans-115"/>
      <use x="1372.869141" xlink:href="#DejaVuSans-45"/>
      <use x="1408.953125" xlink:href="#DejaVuSans-49"/>
      <use x="1472.576172" xlink:href="#DejaVuSans-45"/>
      <use x="1508.660156" xlink:href="#DejaVuSans-49"/>
      <use x="1572.283203" xlink:href="#DejaVuSans-46"/>
      <use x="1604.070312" xlink:href="#DejaVuSans-99"/>
      <use x="1659.050781" xlink:href="#DejaVuSans-108"/>
      <use x="1686.833984" xlink:href="#DejaVuSans-109"/>
      <use x="1784.246094" xlink:href="#DejaVuSans-112"/>
      <use x="1847.722656" xlink:href="#DejaVuSans-46"/>
      <use x="1879.509766" xlink:href="#DejaVuSans-114"/>
      <use x="1920.623047" xlink:href="#DejaVuSans-49"/>
      <use x="1984.246094" xlink:href="#DejaVuSans-114"/>
      <use x="2025.359375" xlink:href="#DejaVuSans-50"/>
      <use x="2088.982422" xlink:href="#DejaVuSans-95"/>
      <use x="2138.982422" xlink:href="#DejaVuSans-102"/>
      <use x="2174.1875" xlink:href="#DejaVuSans-97"/>
      <use x="2235.466797" xlink:href="#DejaVuSans-115"/>
      <use x="2287.566406" xlink:href="#DejaVuSans-116"/>
      <use x="2326.775391" xlink:href="#DejaVuSans-112"/>
     </g>
    </g>
    <g id="line2d_22">
     <path d="M 230.481563 315.455394 
L 246.481563 315.455394 
" style="fill:none;stroke:#f7a35c;stroke-linecap:square;"/>
    </g>
    <g id="line2d_23"/>
    <g id="text_21">
     <!-- Sfu-ABai_008-Ex1-1D-lcwgs-1-1.clmp.r1r2_fastp -->
     <defs>
      <path d="M 19.671875 64.796875 
L 19.671875 8.109375 
L 31.59375 8.109375 
Q 46.6875 8.109375 53.6875 14.9375 
Q 60.6875 21.78125 60.6875 36.53125 
Q 60.6875 51.171875 53.6875 57.984375 
Q 46.6875 64.796875 31.59375 64.796875 
z
M 9.8125 72.90625 
L 30.078125 72.90625 
Q 51.265625 72.90625 61.171875 64.09375 
Q 71.09375 55.28125 71.09375 36.53125 
Q 71.09375 17.671875 61.125 8.828125 
Q 51.171875 0 30.078125 0 
L 9.8125 0 
z
" id="DejaVuSans-68"/>
     </defs>
     <g transform="translate(252.881563 318.255394)scale(0.08 -0.08)">
      <use xlink:href="#DejaVuSans-83"/>
      <use x="63.476562" xlink:href="#DejaVuSans-102"/>
      <use x="98.681641" xlink:href="#DejaVuSans-117"/>
      <use x="162.060547" xlink:href="#DejaVuSans-45"/>
      <use x="198.113281" xlink:href="#DejaVuSans-65"/>
      <use x="266.521484" xlink:href="#DejaVuSans-66"/>
      <use x="335.125" xlink:href="#DejaVuSans-97"/>
      <use x="396.404297" xlink:href="#DejaVuSans-105"/>
      <use x="424.1875" xlink:href="#DejaVuSans-95"/>
      <use x="474.1875" xlink:href="#DejaVuSans-48"/>
      <use x="537.810547" xlink:href="#DejaVuSans-48"/>
      <use x="601.433594" xlink:href="#DejaVuSans-56"/>
      <use x="665.056641" xlink:href="#DejaVuSans-45"/>
      <use x="701.140625" xlink:href="#DejaVuSans-69"/>
      <use x="764.324219" xlink:href="#DejaVuSans-120"/>
      <use x="823.503906" xlink:href="#DejaVuSans-49"/>
      <use x="887.126953" xlink:href="#DejaVuSans-45"/>
      <use x="923.210938" xlink:href="#DejaVuSans-49"/>
      <use x="986.833984" xlink:href="#DejaVuSans-68"/>
      <use x="1063.835938" xlink:href="#DejaVuSans-45"/>
      <use x="1099.919922" xlink:href="#DejaVuSans-108"/>
      <use x="1127.703125" xlink:href="#DejaVuSans-99"/>
      <use x="1182.683594" xlink:href="#DejaVuSans-119"/>
      <use x="1264.470703" xlink:href="#DejaVuSans-103"/>
      <use x="1327.947266" xlink:href="#DejaVuSans-115"/>
      <use x="1380.046875" xlink:href="#DejaVuSans-45"/>
      <use x="1416.130859" xlink:href="#DejaVuSans-49"/>
      <use x="1479.753906" xlink:href="#DejaVuSans-45"/>
      <use x="1515.837891" xlink:href="#DejaVuSans-49"/>
      <use x="1579.460938" xlink:href="#DejaVuSans-46"/>
      <use x="1611.248047" xlink:href="#DejaVuSans-99"/>
      <use x="1666.228516" xlink:href="#DejaVuSans-108"/>
      <use x="1694.011719" xlink:href="#DejaVuSans-109"/>
      <use x="1791.423828" xlink:href="#DejaVuSans-112"/>
      <use x="1854.900391" xlink:href="#DejaVuSans-46"/>
      <use x="1886.6875" xlink:href="#DejaVuSans-114"/>
      <use x="1927.800781" xlink:href="#DejaVuSans-49"/>
      <use x="1991.423828" xlink:href="#DejaVuSans-114"/>
      <use x="2032.537109" xlink:href="#DejaVuSans-50"/>
      <use x="2096.160156" xlink:href="#DejaVuSans-95"/>
      <use x="2146.160156" xlink:href="#DejaVuSans-102"/>
      <use x="2181.365234" xlink:href="#DejaVuSans-97"/>
      <use x="2242.644531" xlink:href="#DejaVuSans-115"/>
      <use x="2294.744141" xlink:href="#DejaVuSans-116"/>
      <use x="2333.953125" xlink:href="#DejaVuSans-112"/>
     </g>
    </g>
    <g id="line2d_24">
     <path d="M 411.28625 303.490394 
L 427.28625 303.490394 
" style="fill:none;stroke:#8085e9;stroke-linecap:square;"/>
    </g>
    <g id="line2d_25"/>
    <g id="text_22">
     <!-- Sfu-ABai_009-Ex1-1E-lcwgs-1-1.clmp.r1r2_fastp -->
     <defs>
      <path d="M 10.984375 1.515625 
L 10.984375 10.5 
Q 14.703125 8.734375 18.5 7.8125 
Q 22.3125 6.890625 25.984375 6.890625 
Q 35.75 6.890625 40.890625 13.453125 
Q 46.046875 20.015625 46.78125 33.40625 
Q 43.953125 29.203125 39.59375 26.953125 
Q 35.25 24.703125 29.984375 24.703125 
Q 19.046875 24.703125 12.671875 31.3125 
Q 6.296875 37.9375 6.296875 49.421875 
Q 6.296875 60.640625 12.9375 67.421875 
Q 19.578125 74.21875 30.609375 74.21875 
Q 43.265625 74.21875 49.921875 64.515625 
Q 56.59375 54.828125 56.59375 36.375 
Q 56.59375 19.140625 48.40625 8.859375 
Q 40.234375 -1.421875 26.421875 -1.421875 
Q 22.703125 -1.421875 18.890625 -0.6875 
Q 15.09375 0.046875 10.984375 1.515625 
z
M 30.609375 32.421875 
Q 37.25 32.421875 41.125 36.953125 
Q 45.015625 41.5 45.015625 49.421875 
Q 45.015625 57.28125 41.125 61.84375 
Q 37.25 66.40625 30.609375 66.40625 
Q 23.96875 66.40625 20.09375 61.84375 
Q 16.21875 57.28125 16.21875 49.421875 
Q 16.21875 41.5 20.09375 36.953125 
Q 23.96875 32.421875 30.609375 32.421875 
z
" id="DejaVuSans-57"/>
     </defs>
     <g transform="translate(433.68625 306.290394)scale(0.08 -0.08)">
      <use xlink:href="#DejaVuSans-83"/>
      <use x="63.476562" xlink:href="#DejaVuSans-102"/>
      <use x="98.681641" xlink:href="#DejaVuSans-117"/>
      <use x="162.060547" xlink:href="#DejaVuSans-45"/>
      <use x="198.113281" xlink:href="#DejaVuSans-65"/>
      <use x="266.521484" xlink:href="#DejaVuSans-66"/>
      <use x="335.125" xlink:href="#DejaVuSans-97"/>
      <use x="396.404297" xlink:href="#DejaVuSans-105"/>
      <use x="424.1875" xlink:href="#DejaVuSans-95"/>
      <use x="474.1875" xlink:href="#DejaVuSans-48"/>
      <use x="537.810547" xlink:href="#DejaVuSans-48"/>
      <use x="601.433594" xlink:href="#DejaVuSans-57"/>
      <use x="665.056641" xlink:href="#DejaVuSans-45"/>
      <use x="701.140625" xlink:href="#DejaVuSans-69"/>
      <use x="764.324219" xlink:href="#DejaVuSans-120"/>
      <use x="823.503906" xlink:href="#DejaVuSans-49"/>
      <use x="887.126953" xlink:href="#DejaVuSans-45"/>
      <use x="923.210938" xlink:href="#DejaVuSans-49"/>
      <use x="986.833984" xlink:href="#DejaVuSans-69"/>
      <use x="1050.017578" xlink:href="#DejaVuSans-45"/>
      <use x="1086.101562" xlink:href="#DejaVuSans-108"/>
      <use x="1113.884766" xlink:href="#DejaVuSans-99"/>
      <use x="1168.865234" xlink:href="#DejaVuSans-119"/>
      <use x="1250.652344" xlink:href="#DejaVuSans-103"/>
      <use x="1314.128906" xlink:href="#DejaVuSans-115"/>
      <use x="1366.228516" xlink:href="#DejaVuSans-45"/>
      <use x="1402.3125" xlink:href="#DejaVuSans-49"/>
      <use x="1465.935547" xlink:href="#DejaVuSans-45"/>
      <use x="1502.019531" xlink:href="#DejaVuSans-49"/>
      <use x="1565.642578" xlink:href="#DejaVuSans-46"/>
      <use x="1597.429688" xlink:href="#DejaVuSans-99"/>
      <use x="1652.410156" xlink:href="#DejaVuSans-108"/>
      <use x="1680.193359" xlink:href="#DejaVuSans-109"/>
      <use x="1777.605469" xlink:href="#DejaVuSans-112"/>
      <use x="1841.082031" xlink:href="#DejaVuSans-46"/>
      <use x="1872.869141" xlink:href="#DejaVuSans-114"/>
      <use x="1913.982422" xlink:href="#DejaVuSans-49"/>
      <use x="1977.605469" xlink:href="#DejaVuSans-114"/>
      <use x="2018.71875" xlink:href="#DejaVuSans-50"/>
      <use x="2082.341797" xlink:href="#DejaVuSans-95"/>
      <use x="2132.341797" xlink:href="#DejaVuSans-102"/>
      <use x="2167.546875" xlink:href="#DejaVuSans-97"/>
      <use x="2228.826172" xlink:href="#DejaVuSans-115"/>
      <use x="2280.925781" xlink:href="#DejaVuSans-116"/>
      <use x="2320.134766" xlink:href="#DejaVuSans-112"/>
     </g>
    </g>
    <g id="line2d_26">
     <path d="M 411.28625 315.455394 
L 427.28625 315.455394 
" style="fill:none;stroke:#f15c80;stroke-linecap:square;"/>
    </g>
    <g id="line2d_27"/>
    <g id="text_23">
     <!-- Sfu-ABai_010-Ex1-1F-lcwgs-1-1.clmp.r1r2_fastp -->
     <g transform="translate(433.68625 318.255394)scale(0.08 -0.08)">
      <use xlink:href="#DejaVuSans-83"/>
      <use x="63.476562" xlink:href="#DejaVuSans-102"/>
      <use x="98.681641" xlink:href="#DejaVuSans-117"/>
      <use x="162.060547" xlink:href="#DejaVuSans-45"/>
      <use x="198.113281" xlink:href="#DejaVuSans-65"/>
      <use x="266.521484" xlink:href="#DejaVuSans-66"/>
      <use x="335.125" xlink:href="#DejaVuSans-97"/>
      <use x="396.404297" xlink:href="#DejaVuSans-105"/>
      <use x="424.1875" xlink:href="#DejaVuSans-95"/>
      <use x="474.1875" xlink:href="#DejaVuSans-48"/>
      <use x="537.810547" xlink:href="#DejaVuSans-49"/>
      <use x="601.433594" xlink:href="#DejaVuSans-48"/>
      <use x="665.056641" xlink:href="#DejaVuSans-45"/>
      <use x="701.140625" xlink:href="#DejaVuSans-69"/>
      <use x="764.324219" xlink:href="#DejaVuSans-120"/>
      <use x="823.503906" xlink:href="#DejaVuSans-49"/>
      <use x="887.126953" xlink:href="#DejaVuSans-45"/>
      <use x="923.210938" xlink:href="#DejaVuSans-49"/>
      <use x="986.833984" xlink:href="#DejaVuSans-70"/>
      <use x="1044.353516" xlink:href="#DejaVuSans-45"/>
      <use x="1080.4375" xlink:href="#DejaVuSans-108"/>
      <use x="1108.220703" xlink:href="#DejaVuSans-99"/>
      <use x="1163.201172" xlink:href="#DejaVuSans-119"/>
      <use x="1244.988281" xlink:href="#DejaVuSans-103"/>
      <use x="1308.464844" xlink:href="#DejaVuSans-115"/>
      <use x="1360.564453" xlink:href="#DejaVuSans-45"/>
      <use x="1396.648438" xlink:href="#DejaVuSans-49"/>
      <use x="1460.271484" xlink:href="#DejaVuSans-45"/>
      <use x="1496.355469" xlink:href="#DejaVuSans-49"/>
      <use x="1559.978516" xlink:href="#DejaVuSans-46"/>
      <use x="1591.765625" xlink:href="#DejaVuSans-99"/>
      <use x="1646.746094" xlink:href="#DejaVuSans-108"/>
      <use x="1674.529297" xlink:href="#DejaVuSans-109"/>
      <use x="1771.941406" xlink:href="#DejaVuSans-112"/>
      <use x="1835.417969" xlink:href="#DejaVuSans-46"/>
      <use x="1867.205078" xlink:href="#DejaVuSans-114"/>
      <use x="1908.318359" xlink:href="#DejaVuSans-49"/>
      <use x="1971.941406" xlink:href="#DejaVuSans-114"/>
      <use x="2013.054688" xlink:href="#DejaVuSans-50"/>
      <use x="2076.677734" xlink:href="#DejaVuSans-95"/>
      <use x="2126.677734" xlink:href="#DejaVuSans-102"/>
      <use x="2161.882812" xlink:href="#DejaVuSans-97"/>
      <use x="2223.162109" xlink:href="#DejaVuSans-115"/>
      <use x="2275.261719" xlink:href="#DejaVuSans-116"/>
      <use x="2314.470703" xlink:href="#DejaVuSans-112"/>
     </g>
    </g>
    <g id="line2d_28">
     <path d="M 590.985937 303.490394 
L 606.985937 303.490394 
" style="fill:none;stroke:#e4d354;stroke-linecap:square;"/>
    </g>
    <g id="line2d_29"/>
    <g id="text_24">
     <!-- Sfu-ABai_011-Ex1-1G-lcwgs-1-1.clmp.r1r2_fastp -->
     <g transform="translate(613.385937 306.290394)scale(0.08 -0.08)">
      <use xlink:href="#DejaVuSans-83"/>
      <use x="63.476562" xlink:href="#DejaVuSans-102"/>
      <use x="98.681641" xlink:href="#DejaVuSans-117"/>
      <use x="162.060547" xlink:href="#DejaVuSans-45"/>
      <use x="198.113281" xlink:href="#DejaVuSans-65"/>
      <use x="266.521484" xlink:href="#DejaVuSans-66"/>
      <use x="335.125" xlink:href="#DejaVuSans-97"/>
      <use x="396.404297" xlink:href="#DejaVuSans-105"/>
      <use x="424.1875" xlink:href="#DejaVuSans-95"/>
      <use x="474.1875" xlink:href="#DejaVuSans-48"/>
      <use x="537.810547" xlink:href="#DejaVuSans-49"/>
      <use x="601.433594" xlink:href="#DejaVuSans-49"/>
      <use x="665.056641" xlink:href="#DejaVuSans-45"/>
      <use x="701.140625" xlink:href="#DejaVuSans-69"/>
      <use x="764.324219" xlink:href="#DejaVuSans-120"/>
      <use x="823.503906" xlink:href="#DejaVuSans-49"/>
      <use x="887.126953" xlink:href="#DejaVuSans-45"/>
      <use x="923.210938" xlink:href="#DejaVuSans-49"/>
      <use x="986.833984" xlink:href="#DejaVuSans-71"/>
      <use x="1064.324219" xlink:href="#DejaVuSans-45"/>
      <use x="1100.408203" xlink:href="#DejaVuSans-108"/>
      <use x="1128.191406" xlink:href="#DejaVuSans-99"/>
      <use x="1183.171875" xlink:href="#DejaVuSans-119"/>
      <use x="1264.958984" xlink:href="#DejaVuSans-103"/>
      <use x="1328.435547" xlink:href="#DejaVuSans-115"/>
      <use x="1380.535156" xlink:href="#DejaVuSans-45"/>
      <use x="1416.619141" xlink:href="#DejaVuSans-49"/>
      <use x="1480.242188" xlink:href="#DejaVuSans-45"/>
      <use x="1516.326172" xlink:href="#DejaVuSans-49"/>
      <use x="1579.949219" xlink:href="#DejaVuSans-46"/>
      <use x="1611.736328" xlink:href="#DejaVuSans-99"/>
      <use x="1666.716797" xlink:href="#DejaVuSans-108"/>
      <use x="1694.5" xlink:href="#DejaVuSans-109"/>
      <use x="1791.912109" xlink:href="#DejaVuSans-112"/>
      <use x="1855.388672" xlink:href="#DejaVuSans-46"/>
      <use x="1887.175781" xlink:href="#DejaVuSans-114"/>
      <use x="1928.289062" xlink:href="#DejaVuSans-49"/>
      <use x="1991.912109" xlink:href="#DejaVuSans-114"/>
      <use x="2033.025391" xlink:href="#DejaVuSans-50"/>
      <use x="2096.648438" xlink:href="#DejaVuSans-95"/>
      <use x="2146.648438" xlink:href="#DejaVuSans-102"/>
      <use x="2181.853516" xlink:href="#DejaVuSans-97"/>
      <use x="2243.132812" xlink:href="#DejaVuSans-115"/>
      <use x="2295.232422" xlink:href="#DejaVuSans-116"/>
      <use x="2334.441406" xlink:href="#DejaVuSans-112"/>
     </g>
    </g>
    <g id="line2d_30">
     <path d="M 771.829375 303.490394 
L 787.829375 303.490394 
" style="fill:none;stroke:#2b908f;stroke-linecap:square;"/>
    </g>
    <g id="line2d_31"/>
    <g id="text_25">
     <!-- Sfu-ABai_012-Ex1-1H-lcwgs-1-1.clmp.r1r2_fastp -->
     <defs>
      <path d="M 9.8125 72.90625 
L 19.671875 72.90625 
L 19.671875 43.015625 
L 55.515625 43.015625 
L 55.515625 72.90625 
L 65.375 72.90625 
L 65.375 0 
L 55.515625 0 
L 55.515625 34.71875 
L 19.671875 34.71875 
L 19.671875 0 
L 9.8125 0 
z
" id="DejaVuSans-72"/>
     </defs>
     <g transform="translate(794.229375 306.290394)scale(0.08 -0.08)">
      <use xlink:href="#DejaVuSans-83"/>
      <use x="63.476562" xlink:href="#DejaVuSans-102"/>
      <use x="98.681641" xlink:href="#DejaVuSans-117"/>
      <use x="162.060547" xlink:href="#DejaVuSans-45"/>
      <use x="198.113281" xlink:href="#DejaVuSans-65"/>
      <use x="266.521484" xlink:href="#DejaVuSans-66"/>
      <use x="335.125" xlink:href="#DejaVuSans-97"/>
      <use x="396.404297" xlink:href="#DejaVuSans-105"/>
      <use x="424.1875" xlink:href="#DejaVuSans-95"/>
      <use x="474.1875" xlink:href="#DejaVuSans-48"/>
      <use x="537.810547" xlink:href="#DejaVuSans-49"/>
      <use x="601.433594" xlink:href="#DejaVuSans-50"/>
      <use x="665.056641" xlink:href="#DejaVuSans-45"/>
      <use x="701.140625" xlink:href="#DejaVuSans-69"/>
      <use x="764.324219" xlink:href="#DejaVuSans-120"/>
      <use x="823.503906" xlink:href="#DejaVuSans-49"/>
      <use x="887.126953" xlink:href="#DejaVuSans-45"/>
      <use x="923.210938" xlink:href="#DejaVuSans-49"/>
      <use x="986.833984" xlink:href="#DejaVuSans-72"/>
      <use x="1062.029297" xlink:href="#DejaVuSans-45"/>
      <use x="1098.113281" xlink:href="#DejaVuSans-108"/>
      <use x="1125.896484" xlink:href="#DejaVuSans-99"/>
      <use x="1180.876953" xlink:href="#DejaVuSans-119"/>
      <use x="1262.664062" xlink:href="#DejaVuSans-103"/>
      <use x="1326.140625" xlink:href="#DejaVuSans-115"/>
      <use x="1378.240234" xlink:href="#DejaVuSans-45"/>
      <use x="1414.324219" xlink:href="#DejaVuSans-49"/>
      <use x="1477.947266" xlink:href="#DejaVuSans-45"/>
      <use x="1514.03125" xlink:href="#DejaVuSans-49"/>
      <use x="1577.654297" xlink:href="#DejaVuSans-46"/>
      <use x="1609.441406" xlink:href="#DejaVuSans-99"/>
      <use x="1664.421875" xlink:href="#DejaVuSans-108"/>
      <use x="1692.205078" xlink:href="#DejaVuSans-109"/>
      <use x="1789.617188" xlink:href="#DejaVuSans-112"/>
      <use x="1853.09375" xlink:href="#DejaVuSans-46"/>
      <use x="1884.880859" xlink:href="#DejaVuSans-114"/>
      <use x="1925.994141" xlink:href="#DejaVuSans-49"/>
      <use x="1989.617188" xlink:href="#DejaVuSans-114"/>
      <use x="2030.730469" xlink:href="#DejaVuSans-50"/>
      <use x="2094.353516" xlink:href="#DejaVuSans-95"/>
      <use x="2144.353516" xlink:href="#DejaVuSans-102"/>
      <use x="2179.558594" xlink:href="#DejaVuSans-97"/>
      <use x="2240.837891" xlink:href="#DejaVuSans-115"/>
      <use x="2292.9375" xlink:href="#DejaVuSans-116"/>
      <use x="2332.146484" xlink:href="#DejaVuSans-112"/>
     </g>
    </g>
   </g>
  </g>
 </g>
 <defs>
  <clipPath id="p39ae9e4b12">
   <rect height="242.5072" width="949.93" x="43.148125" y="31.48286"/>
  </clipPath>
 </defs>
</svg>
