<?xml version="1.0" encoding="utf-8" standalone="no"?>
<!DOCTYPE svg PUBLIC "-//W3C//DTD SVG 1.1//EN"
  "http://www.w3.org/Graphics/SVG/1.1/DTD/svg11.dtd">
<!-- Created with matplotlib (https://matplotlib.org/) -->
<svg height="330.541644pt" version="1.1" viewBox="0 0 1000.278125 330.541644" width="1000.278125pt" xmlns="http://www.w3.org/2000/svg" xmlns:xlink="http://www.w3.org/1999/xlink">
 <defs>
  <style type="text/css">
*{stroke-linecap:butt;stroke-linejoin:round;}
  </style>
 </defs>
 <g id="figure_1">
  <g id="axes_1">
   <g id="patch_1">
    <path d="M 43.148125 273.99006 
L 993.078125 273.99006 
L 993.078125 31.48286 
L 43.148125 31.48286 
z
" style="fill:#ffffff;"/>
   </g>
   <g id="matplotlib.axis_1">
    <g id="xtick_1">
     <g id="text_1">
      <!-- 0 -->
      <defs>
       <path d="M 31.78125 66.40625 
Q 24.171875 66.40625 20.328125 58.90625 
Q 16.5 51.421875 16.5 36.375 
Q 16.5 21.390625 20.328125 13.890625 
Q 24.171875 6.390625 31.78125 6.390625 
Q 39.453125 6.390625 43.28125 13.890625 
Q 47.125 21.390625 47.125 36.375 
Q 47.125 51.421875 43.28125 58.90625 
Q 39.453125 66.40625 31.78125 66.40625 
z
M 31.78125 74.21875 
Q 44.046875 74.21875 50.515625 64.515625 
Q 56.984375 54.828125 56.984375 36.375 
Q 56.984375 17.96875 50.515625 8.265625 
Q 44.046875 -1.421875 31.78125 -1.421875 
Q 19.53125 -1.421875 13.0625 8.265625 
Q 6.59375 17.96875 6.59375 36.375 
Q 6.59375 54.828125 13.0625 64.515625 
Q 19.53125 74.21875 31.78125 74.21875 
z
" id="DejaVuSans-48"/>
      </defs>
      <g transform="translate(77.985971 287.06881)scale(0.08 -0.08)">
       <use xlink:href="#DejaVuSans-48"/>
      </g>
     </g>
    </g>
    <g id="xtick_2">
     <g id="text_2">
      <!-- 20 -->
      <defs>
       <path d="M 19.1875 8.296875 
L 53.609375 8.296875 
L 53.609375 0 
L 7.328125 0 
L 7.328125 8.296875 
Q 12.9375 14.109375 22.625 23.890625 
Q 32.328125 33.6875 34.8125 36.53125 
Q 39.546875 41.84375 41.421875 45.53125 
Q 43.3125 49.21875 43.3125 52.78125 
Q 43.3125 58.59375 39.234375 62.25 
Q 35.15625 65.921875 28.609375 65.921875 
Q 23.96875 65.921875 18.8125 64.3125 
Q 13.671875 62.703125 7.8125 59.421875 
L 7.8125 69.390625 
Q 13.765625 71.78125 18.9375 73 
Q 24.125 74.21875 28.421875 74.21875 
Q 39.75 74.21875 46.484375 68.546875 
Q 53.21875 62.890625 53.21875 53.421875 
Q 53.21875 48.921875 51.53125 44.890625 
Q 49.859375 40.875 45.40625 35.40625 
Q 44.1875 33.984375 37.640625 27.21875 
Q 31.109375 20.453125 19.1875 8.296875 
z
" id="DejaVuSans-50"/>
      </defs>
      <g transform="translate(191.356774 287.06881)scale(0.08 -0.08)">
       <use xlink:href="#DejaVuSans-50"/>
       <use x="63.623047" xlink:href="#DejaVuSans-48"/>
      </g>
     </g>
    </g>
    <g id="xtick_3">
     <g id="text_3">
      <!-- 40 -->
      <defs>
       <path d="M 37.796875 64.3125 
L 12.890625 25.390625 
L 37.796875 25.390625 
z
M 35.203125 72.90625 
L 47.609375 72.90625 
L 47.609375 25.390625 
L 58.015625 25.390625 
L 58.015625 17.1875 
L 47.609375 17.1875 
L 47.609375 0 
L 37.796875 0 
L 37.796875 17.1875 
L 4.890625 17.1875 
L 4.890625 26.703125 
z
" id="DejaVuSans-52"/>
      </defs>
      <g transform="translate(307.272576 287.06881)scale(0.08 -0.08)">
       <use xlink:href="#DejaVuSans-52"/>
       <use x="63.623047" xlink:href="#DejaVuSans-48"/>
      </g>
     </g>
    </g>
    <g id="xtick_4">
     <g id="text_4">
      <!-- 60 -->
      <defs>
       <path d="M 33.015625 40.375 
Q 26.375 40.375 22.484375 35.828125 
Q 18.609375 31.296875 18.609375 23.390625 
Q 18.609375 15.53125 22.484375 10.953125 
Q 26.375 6.390625 33.015625 6.390625 
Q 39.65625 6.390625 43.53125 10.953125 
Q 47.40625 15.53125 47.40625 23.390625 
Q 47.40625 31.296875 43.53125 35.828125 
Q 39.65625 40.375 33.015625 40.375 
z
M 52.59375 71.296875 
L 52.59375 62.3125 
Q 48.875 64.0625 45.09375 64.984375 
Q 41.3125 65.921875 37.59375 65.921875 
Q 27.828125 65.921875 22.671875 59.328125 
Q 17.53125 52.734375 16.796875 39.40625 
Q 19.671875 43.65625 24.015625 45.921875 
Q 28.375 48.1875 33.59375 48.1875 
Q 44.578125 48.1875 50.953125 41.515625 
Q 57.328125 34.859375 57.328125 23.390625 
Q 57.328125 12.15625 50.6875 5.359375 
Q 44.046875 -1.421875 33.015625 -1.421875 
Q 20.359375 -1.421875 13.671875 8.265625 
Q 6.984375 17.96875 6.984375 36.375 
Q 6.984375 53.65625 15.1875 63.9375 
Q 23.390625 74.21875 37.203125 74.21875 
Q 40.921875 74.21875 44.703125 73.484375 
Q 48.484375 72.75 52.59375 71.296875 
z
" id="DejaVuSans-54"/>
      </defs>
      <g transform="translate(423.188378 287.06881)scale(0.08 -0.08)">
       <use xlink:href="#DejaVuSans-54"/>
       <use x="63.623047" xlink:href="#DejaVuSans-48"/>
      </g>
     </g>
    </g>
    <g id="xtick_5">
     <g id="text_5">
      <!-- 80 -->
      <defs>
       <path d="M 31.78125 34.625 
Q 24.75 34.625 20.71875 30.859375 
Q 16.703125 27.09375 16.703125 20.515625 
Q 16.703125 13.921875 20.71875 10.15625 
Q 24.75 6.390625 31.78125 6.390625 
Q 38.8125 6.390625 42.859375 10.171875 
Q 46.921875 13.96875 46.921875 20.515625 
Q 46.921875 27.09375 42.890625 30.859375 
Q 38.875 34.625 31.78125 34.625 
z
M 21.921875 38.8125 
Q 15.578125 40.375 12.03125 44.71875 
Q 8.5 49.078125 8.5 55.328125 
Q 8.5 64.0625 14.71875 69.140625 
Q 20.953125 74.21875 31.78125 74.21875 
Q 42.671875 74.21875 48.875 69.140625 
Q 55.078125 64.0625 55.078125 55.328125 
Q 55.078125 49.078125 51.53125 44.71875 
Q 48 40.375 41.703125 38.8125 
Q 48.828125 37.15625 52.796875 32.3125 
Q 56.78125 27.484375 56.78125 20.515625 
Q 56.78125 9.90625 50.3125 4.234375 
Q 43.84375 -1.421875 31.78125 -1.421875 
Q 19.734375 -1.421875 13.25 4.234375 
Q 6.78125 9.90625 6.78125 20.515625 
Q 6.78125 27.484375 10.78125 32.3125 
Q 14.796875 37.15625 21.921875 38.8125 
z
M 18.3125 54.390625 
Q 18.3125 48.734375 21.84375 45.5625 
Q 25.390625 42.390625 31.78125 42.390625 
Q 38.140625 42.390625 41.71875 45.5625 
Q 45.3125 48.734375 45.3125 54.390625 
Q 45.3125 60.0625 41.71875 63.234375 
Q 38.140625 66.40625 31.78125 66.40625 
Q 25.390625 66.40625 21.84375 63.234375 
Q 18.3125 60.0625 18.3125 54.390625 
z
" id="DejaVuSans-56"/>
      </defs>
      <g transform="translate(539.104181 287.06881)scale(0.08 -0.08)">
       <use xlink:href="#DejaVuSans-56"/>
       <use x="63.623047" xlink:href="#DejaVuSans-48"/>
      </g>
     </g>
    </g>
    <g id="xtick_6">
     <g id="text_6">
      <!-- 100 -->
      <defs>
       <path d="M 12.40625 8.296875 
L 28.515625 8.296875 
L 28.515625 63.921875 
L 10.984375 60.40625 
L 10.984375 69.390625 
L 28.421875 72.90625 
L 38.28125 72.90625 
L 38.28125 8.296875 
L 54.390625 8.296875 
L 54.390625 0 
L 12.40625 0 
z
" id="DejaVuSans-49"/>
      </defs>
      <g transform="translate(652.474983 287.06881)scale(0.08 -0.08)">
       <use xlink:href="#DejaVuSans-49"/>
       <use x="63.623047" xlink:href="#DejaVuSans-48"/>
       <use x="127.246094" xlink:href="#DejaVuSans-48"/>
      </g>
     </g>
    </g>
    <g id="xtick_7">
     <g id="text_7">
      <!-- 120 -->
      <g transform="translate(768.390785 287.06881)scale(0.08 -0.08)">
       <use xlink:href="#DejaVuSans-49"/>
       <use x="63.623047" xlink:href="#DejaVuSans-50"/>
       <use x="127.246094" xlink:href="#DejaVuSans-48"/>
      </g>
     </g>
    </g>
    <g id="xtick_8">
     <g id="text_8">
      <!-- 140 -->
      <g transform="translate(884.306587 287.06881)scale(0.08 -0.08)">
       <use xlink:href="#DejaVuSans-49"/>
       <use x="63.623047" xlink:href="#DejaVuSans-52"/>
       <use x="127.246094" xlink:href="#DejaVuSans-48"/>
      </g>
     </g>
    </g>
    <g id="text_9">
     <!-- Read Position -->
     <defs>
      <path d="M 44.390625 34.1875 
Q 47.5625 33.109375 50.5625 29.59375 
Q 53.5625 26.078125 56.59375 19.921875 
L 66.609375 0 
L 56 0 
L 46.6875 18.703125 
Q 43.0625 26.03125 39.671875 28.421875 
Q 36.28125 30.8125 30.421875 30.8125 
L 19.671875 30.8125 
L 19.671875 0 
L 9.8125 0 
L 9.8125 72.90625 
L 32.078125 72.90625 
Q 44.578125 72.90625 50.734375 67.671875 
Q 56.890625 62.453125 56.890625 51.90625 
Q 56.890625 45.015625 53.6875 40.46875 
Q 50.484375 35.9375 44.390625 34.1875 
z
M 19.671875 64.796875 
L 19.671875 38.921875 
L 32.078125 38.921875 
Q 39.203125 38.921875 42.84375 42.21875 
Q 46.484375 45.515625 46.484375 51.90625 
Q 46.484375 58.296875 42.84375 61.546875 
Q 39.203125 64.796875 32.078125 64.796875 
z
" id="DejaVuSans-82"/>
      <path d="M 56.203125 29.59375 
L 56.203125 25.203125 
L 14.890625 25.203125 
Q 15.484375 15.921875 20.484375 11.0625 
Q 25.484375 6.203125 34.421875 6.203125 
Q 39.59375 6.203125 44.453125 7.46875 
Q 49.3125 8.734375 54.109375 11.28125 
L 54.109375 2.78125 
Q 49.265625 0.734375 44.1875 -0.34375 
Q 39.109375 -1.421875 33.890625 -1.421875 
Q 20.796875 -1.421875 13.15625 6.1875 
Q 5.515625 13.8125 5.515625 26.8125 
Q 5.515625 40.234375 12.765625 48.109375 
Q 20.015625 56 32.328125 56 
Q 43.359375 56 49.78125 48.890625 
Q 56.203125 41.796875 56.203125 29.59375 
z
M 47.21875 32.234375 
Q 47.125 39.59375 43.09375 43.984375 
Q 39.0625 48.390625 32.421875 48.390625 
Q 24.90625 48.390625 20.390625 44.140625 
Q 15.875 39.890625 15.1875 32.171875 
z
" id="DejaVuSans-101"/>
      <path d="M 34.28125 27.484375 
Q 23.390625 27.484375 19.1875 25 
Q 14.984375 22.515625 14.984375 16.5 
Q 14.984375 11.71875 18.140625 8.90625 
Q 21.296875 6.109375 26.703125 6.109375 
Q 34.1875 6.109375 38.703125 11.40625 
Q 43.21875 16.703125 43.21875 25.484375 
L 43.21875 27.484375 
z
M 52.203125 31.203125 
L 52.203125 0 
L 43.21875 0 
L 43.21875 8.296875 
Q 40.140625 3.328125 35.546875 0.953125 
Q 30.953125 -1.421875 24.3125 -1.421875 
Q 15.921875 -1.421875 10.953125 3.296875 
Q 6 8.015625 6 15.921875 
Q 6 25.140625 12.171875 29.828125 
Q 18.359375 34.515625 30.609375 34.515625 
L 43.21875 34.515625 
L 43.21875 35.40625 
Q 43.21875 41.609375 39.140625 45 
Q 35.0625 48.390625 27.6875 48.390625 
Q 23 48.390625 18.546875 47.265625 
Q 14.109375 46.140625 10.015625 43.890625 
L 10.015625 52.203125 
Q 14.9375 54.109375 19.578125 55.046875 
Q 24.21875 56 28.609375 56 
Q 40.484375 56 46.34375 49.84375 
Q 52.203125 43.703125 52.203125 31.203125 
z
" id="DejaVuSans-97"/>
      <path d="M 45.40625 46.390625 
L 45.40625 75.984375 
L 54.390625 75.984375 
L 54.390625 0 
L 45.40625 0 
L 45.40625 8.203125 
Q 42.578125 3.328125 38.25 0.953125 
Q 33.9375 -1.421875 27.875 -1.421875 
Q 17.96875 -1.421875 11.734375 6.484375 
Q 5.515625 14.40625 5.515625 27.296875 
Q 5.515625 40.1875 11.734375 48.09375 
Q 17.96875 56 27.875 56 
Q 33.9375 56 38.25 53.625 
Q 42.578125 51.265625 45.40625 46.390625 
z
M 14.796875 27.296875 
Q 14.796875 17.390625 18.875 11.75 
Q 22.953125 6.109375 30.078125 6.109375 
Q 37.203125 6.109375 41.296875 11.75 
Q 45.40625 17.390625 45.40625 27.296875 
Q 45.40625 37.203125 41.296875 42.84375 
Q 37.203125 48.484375 30.078125 48.484375 
Q 22.953125 48.484375 18.875 42.84375 
Q 14.796875 37.203125 14.796875 27.296875 
z
" id="DejaVuSans-100"/>
      <path id="DejaVuSans-32"/>
      <path d="M 19.671875 64.796875 
L 19.671875 37.40625 
L 32.078125 37.40625 
Q 38.96875 37.40625 42.71875 40.96875 
Q 46.484375 44.53125 46.484375 51.125 
Q 46.484375 57.671875 42.71875 61.234375 
Q 38.96875 64.796875 32.078125 64.796875 
z
M 9.8125 72.90625 
L 32.078125 72.90625 
Q 44.34375 72.90625 50.609375 67.359375 
Q 56.890625 61.8125 56.890625 51.125 
Q 56.890625 40.328125 50.609375 34.8125 
Q 44.34375 29.296875 32.078125 29.296875 
L 19.671875 29.296875 
L 19.671875 0 
L 9.8125 0 
z
" id="DejaVuSans-80"/>
      <path d="M 30.609375 48.390625 
Q 23.390625 48.390625 19.1875 42.75 
Q 14.984375 37.109375 14.984375 27.296875 
Q 14.984375 17.484375 19.15625 11.84375 
Q 23.34375 6.203125 30.609375 6.203125 
Q 37.796875 6.203125 41.984375 11.859375 
Q 46.1875 17.53125 46.1875 27.296875 
Q 46.1875 37.015625 41.984375 42.703125 
Q 37.796875 48.390625 30.609375 48.390625 
z
M 30.609375 56 
Q 42.328125 56 49.015625 48.375 
Q 55.71875 40.765625 55.71875 27.296875 
Q 55.71875 13.875 49.015625 6.21875 
Q 42.328125 -1.421875 30.609375 -1.421875 
Q 18.84375 -1.421875 12.171875 6.21875 
Q 5.515625 13.875 5.515625 27.296875 
Q 5.515625 40.765625 12.171875 48.375 
Q 18.84375 56 30.609375 56 
z
" id="DejaVuSans-111"/>
      <path d="M 44.28125 53.078125 
L 44.28125 44.578125 
Q 40.484375 46.53125 36.375 47.5 
Q 32.28125 48.484375 27.875 48.484375 
Q 21.1875 48.484375 17.84375 46.4375 
Q 14.5 44.390625 14.5 40.28125 
Q 14.5 37.15625 16.890625 35.375 
Q 19.28125 33.59375 26.515625 31.984375 
L 29.59375 31.296875 
Q 39.15625 29.25 43.1875 25.515625 
Q 47.21875 21.78125 47.21875 15.09375 
Q 47.21875 7.46875 41.1875 3.015625 
Q 35.15625 -1.421875 24.609375 -1.421875 
Q 20.21875 -1.421875 15.453125 -0.5625 
Q 10.6875 0.296875 5.421875 2 
L 5.421875 11.28125 
Q 10.40625 8.6875 15.234375 7.390625 
Q 20.0625 6.109375 24.8125 6.109375 
Q 31.15625 6.109375 34.5625 8.28125 
Q 37.984375 10.453125 37.984375 14.40625 
Q 37.984375 18.0625 35.515625 20.015625 
Q 33.0625 21.96875 24.703125 23.78125 
L 21.578125 24.515625 
Q 13.234375 26.265625 9.515625 29.90625 
Q 5.8125 33.546875 5.8125 39.890625 
Q 5.8125 47.609375 11.28125 51.796875 
Q 16.75 56 26.8125 56 
Q 31.78125 56 36.171875 55.265625 
Q 40.578125 54.546875 44.28125 53.078125 
z
" id="DejaVuSans-115"/>
      <path d="M 9.421875 54.6875 
L 18.40625 54.6875 
L 18.40625 0 
L 9.421875 0 
z
M 9.421875 75.984375 
L 18.40625 75.984375 
L 18.40625 64.59375 
L 9.421875 64.59375 
z
" id="DejaVuSans-105"/>
      <path d="M 18.3125 70.21875 
L 18.3125 54.6875 
L 36.8125 54.6875 
L 36.8125 47.703125 
L 18.3125 47.703125 
L 18.3125 18.015625 
Q 18.3125 11.328125 20.140625 9.421875 
Q 21.96875 7.515625 27.59375 7.515625 
L 36.8125 7.515625 
L 36.8125 0 
L 27.59375 0 
Q 17.1875 0 13.234375 3.875 
Q 9.28125 7.765625 9.28125 18.015625 
L 9.28125 47.703125 
L 2.6875 47.703125 
L 2.6875 54.6875 
L 9.28125 54.6875 
L 9.28125 70.21875 
z
" id="DejaVuSans-116"/>
      <path d="M 54.890625 33.015625 
L 54.890625 0 
L 45.90625 0 
L 45.90625 32.71875 
Q 45.90625 40.484375 42.875 44.328125 
Q 39.84375 48.1875 33.796875 48.1875 
Q 26.515625 48.1875 22.3125 43.546875 
Q 18.109375 38.921875 18.109375 30.90625 
L 18.109375 0 
L 9.078125 0 
L 9.078125 54.6875 
L 18.109375 54.6875 
L 18.109375 46.1875 
Q 21.34375 51.125 25.703125 53.5625 
Q 30.078125 56 35.796875 56 
Q 45.21875 56 50.046875 50.171875 
Q 54.890625 44.34375 54.890625 33.015625 
z
" id="DejaVuSans-110"/>
     </defs>
     <g transform="translate(484.095156 300.330997)scale(0.1 -0.1)">
      <use xlink:href="#DejaVuSans-82"/>
      <use x="69.419922" xlink:href="#DejaVuSans-101"/>
      <use x="130.943359" xlink:href="#DejaVuSans-97"/>
      <use x="192.222656" xlink:href="#DejaVuSans-100"/>
      <use x="255.699219" xlink:href="#DejaVuSans-32"/>
      <use x="287.486328" xlink:href="#DejaVuSans-80"/>
      <use x="347.742188" xlink:href="#DejaVuSans-111"/>
      <use x="408.923828" xlink:href="#DejaVuSans-115"/>
      <use x="461.023438" xlink:href="#DejaVuSans-105"/>
      <use x="488.806641" xlink:href="#DejaVuSans-116"/>
      <use x="528.015625" xlink:href="#DejaVuSans-105"/>
      <use x="555.798828" xlink:href="#DejaVuSans-111"/>
      <use x="616.980469" xlink:href="#DejaVuSans-110"/>
     </g>
    </g>
   </g>
   <g id="matplotlib.axis_2">
    <g id="ytick_1">
     <g id="line2d_1">
      <path clip-path="url(#p9299a8736f)" d="M 43.148125 273.99006 
L 993.078125 273.99006 
" style="fill:none;stroke:#dedede;stroke-linecap:square;"/>
     </g>
     <g id="text_10">
      <!-- 0 -->
      <g transform="translate(31.058125 277.029435)scale(0.08 -0.08)">
       <use xlink:href="#DejaVuSans-48"/>
      </g>
     </g>
    </g>
    <g id="ytick_2">
     <g id="line2d_2">
      <path clip-path="url(#p9299a8736f)" d="M 43.148125 225.48862 
L 993.078125 225.48862 
" style="fill:none;stroke:#dedede;stroke-linecap:square;"/>
     </g>
     <g id="text_11">
      <!-- 20 -->
      <g transform="translate(25.968125 228.527995)scale(0.08 -0.08)">
       <use xlink:href="#DejaVuSans-50"/>
       <use x="63.623047" xlink:href="#DejaVuSans-48"/>
      </g>
     </g>
    </g>
    <g id="ytick_3">
     <g id="line2d_3">
      <path clip-path="url(#p9299a8736f)" d="M 43.148125 176.98718 
L 993.078125 176.98718 
" style="fill:none;stroke:#dedede;stroke-linecap:square;"/>
     </g>
     <g id="text_12">
      <!-- 40 -->
      <g transform="translate(25.968125 180.026555)scale(0.08 -0.08)">
       <use xlink:href="#DejaVuSans-52"/>
       <use x="63.623047" xlink:href="#DejaVuSans-48"/>
      </g>
     </g>
    </g>
    <g id="ytick_4">
     <g id="line2d_4">
      <path clip-path="url(#p9299a8736f)" d="M 43.148125 128.48574 
L 993.078125 128.48574 
" style="fill:none;stroke:#dedede;stroke-linecap:square;"/>
     </g>
     <g id="text_13">
      <!-- 60 -->
      <g transform="translate(25.968125 131.525115)scale(0.08 -0.08)">
       <use xlink:href="#DejaVuSans-54"/>
       <use x="63.623047" xlink:href="#DejaVuSans-48"/>
      </g>
     </g>
    </g>
    <g id="ytick_5">
     <g id="line2d_5">
      <path clip-path="url(#p9299a8736f)" d="M 43.148125 79.9843 
L 993.078125 79.9843 
" style="fill:none;stroke:#dedede;stroke-linecap:square;"/>
     </g>
     <g id="text_14">
      <!-- 80 -->
      <g transform="translate(25.968125 83.023675)scale(0.08 -0.08)">
       <use xlink:href="#DejaVuSans-56"/>
       <use x="63.623047" xlink:href="#DejaVuSans-48"/>
      </g>
     </g>
    </g>
    <g id="ytick_6">
     <g id="line2d_6">
      <path clip-path="url(#p9299a8736f)" d="M 43.148125 31.48286 
L 993.078125 31.48286 
" style="fill:none;stroke:#dedede;stroke-linecap:square;"/>
     </g>
     <g id="text_15">
      <!-- 100 -->
      <g transform="translate(20.878125 34.522235)scale(0.08 -0.08)">
       <use xlink:href="#DejaVuSans-49"/>
       <use x="63.623047" xlink:href="#DejaVuSans-48"/>
       <use x="127.246094" xlink:href="#DejaVuSans-48"/>
      </g>
     </g>
    </g>
    <g id="text_16">
     <!-- R1 Before filtering: Base Content Percent -->
     <defs>
      <path d="M 19.671875 34.8125 
L 19.671875 8.109375 
L 35.5 8.109375 
Q 43.453125 8.109375 47.28125 11.40625 
Q 51.125 14.703125 51.125 21.484375 
Q 51.125 28.328125 47.28125 31.5625 
Q 43.453125 34.8125 35.5 34.8125 
z
M 19.671875 64.796875 
L 19.671875 42.828125 
L 34.28125 42.828125 
Q 41.5 42.828125 45.03125 45.53125 
Q 48.578125 48.25 48.578125 53.8125 
Q 48.578125 59.328125 45.03125 62.0625 
Q 41.5 64.796875 34.28125 64.796875 
z
M 9.8125 72.90625 
L 35.015625 72.90625 
Q 46.296875 72.90625 52.390625 68.21875 
Q 58.5 63.53125 58.5 54.890625 
Q 58.5 48.1875 55.375 44.234375 
Q 52.25 40.28125 46.1875 39.3125 
Q 53.46875 37.75 57.5 32.78125 
Q 61.53125 27.828125 61.53125 20.40625 
Q 61.53125 10.640625 54.890625 5.3125 
Q 48.25 0 35.984375 0 
L 9.8125 0 
z
" id="DejaVuSans-66"/>
      <path d="M 37.109375 75.984375 
L 37.109375 68.5 
L 28.515625 68.5 
Q 23.6875 68.5 21.796875 66.546875 
Q 19.921875 64.59375 19.921875 59.515625 
L 19.921875 54.6875 
L 34.71875 54.6875 
L 34.71875 47.703125 
L 19.921875 47.703125 
L 19.921875 0 
L 10.890625 0 
L 10.890625 47.703125 
L 2.296875 47.703125 
L 2.296875 54.6875 
L 10.890625 54.6875 
L 10.890625 58.5 
Q 10.890625 67.625 15.140625 71.796875 
Q 19.390625 75.984375 28.609375 75.984375 
z
" id="DejaVuSans-102"/>
      <path d="M 41.109375 46.296875 
Q 39.59375 47.171875 37.8125 47.578125 
Q 36.03125 48 33.890625 48 
Q 26.265625 48 22.1875 43.046875 
Q 18.109375 38.09375 18.109375 28.8125 
L 18.109375 0 
L 9.078125 0 
L 9.078125 54.6875 
L 18.109375 54.6875 
L 18.109375 46.1875 
Q 20.953125 51.171875 25.484375 53.578125 
Q 30.03125 56 36.53125 56 
Q 37.453125 56 38.578125 55.875 
Q 39.703125 55.765625 41.0625 55.515625 
z
" id="DejaVuSans-114"/>
      <path d="M 9.421875 75.984375 
L 18.40625 75.984375 
L 18.40625 0 
L 9.421875 0 
z
" id="DejaVuSans-108"/>
      <path d="M 45.40625 27.984375 
Q 45.40625 37.75 41.375 43.109375 
Q 37.359375 48.484375 30.078125 48.484375 
Q 22.859375 48.484375 18.828125 43.109375 
Q 14.796875 37.75 14.796875 27.984375 
Q 14.796875 18.265625 18.828125 12.890625 
Q 22.859375 7.515625 30.078125 7.515625 
Q 37.359375 7.515625 41.375 12.890625 
Q 45.40625 18.265625 45.40625 27.984375 
z
M 54.390625 6.78125 
Q 54.390625 -7.171875 48.1875 -13.984375 
Q 42 -20.796875 29.203125 -20.796875 
Q 24.46875 -20.796875 20.265625 -20.09375 
Q 16.0625 -19.390625 12.109375 -17.921875 
L 12.109375 -9.1875 
Q 16.0625 -11.328125 19.921875 -12.34375 
Q 23.78125 -13.375 27.78125 -13.375 
Q 36.625 -13.375 41.015625 -8.765625 
Q 45.40625 -4.15625 45.40625 5.171875 
L 45.40625 9.625 
Q 42.625 4.78125 38.28125 2.390625 
Q 33.9375 0 27.875 0 
Q 17.828125 0 11.671875 7.65625 
Q 5.515625 15.328125 5.515625 27.984375 
Q 5.515625 40.671875 11.671875 48.328125 
Q 17.828125 56 27.875 56 
Q 33.9375 56 38.28125 53.609375 
Q 42.625 51.21875 45.40625 46.390625 
L 45.40625 54.6875 
L 54.390625 54.6875 
z
" id="DejaVuSans-103"/>
      <path d="M 11.71875 12.40625 
L 22.015625 12.40625 
L 22.015625 0 
L 11.71875 0 
z
M 11.71875 51.703125 
L 22.015625 51.703125 
L 22.015625 39.3125 
L 11.71875 39.3125 
z
" id="DejaVuSans-58"/>
      <path d="M 64.40625 67.28125 
L 64.40625 56.890625 
Q 59.421875 61.53125 53.78125 63.8125 
Q 48.140625 66.109375 41.796875 66.109375 
Q 29.296875 66.109375 22.65625 58.46875 
Q 16.015625 50.828125 16.015625 36.375 
Q 16.015625 21.96875 22.65625 14.328125 
Q 29.296875 6.6875 41.796875 6.6875 
Q 48.140625 6.6875 53.78125 8.984375 
Q 59.421875 11.28125 64.40625 15.921875 
L 64.40625 5.609375 
Q 59.234375 2.09375 53.4375 0.328125 
Q 47.65625 -1.421875 41.21875 -1.421875 
Q 24.65625 -1.421875 15.125 8.703125 
Q 5.609375 18.84375 5.609375 36.375 
Q 5.609375 53.953125 15.125 64.078125 
Q 24.65625 74.21875 41.21875 74.21875 
Q 47.75 74.21875 53.53125 72.484375 
Q 59.328125 70.75 64.40625 67.28125 
z
" id="DejaVuSans-67"/>
      <path d="M 48.78125 52.59375 
L 48.78125 44.1875 
Q 44.96875 46.296875 41.140625 47.34375 
Q 37.3125 48.390625 33.40625 48.390625 
Q 24.65625 48.390625 19.8125 42.84375 
Q 14.984375 37.3125 14.984375 27.296875 
Q 14.984375 17.28125 19.8125 11.734375 
Q 24.65625 6.203125 33.40625 6.203125 
Q 37.3125 6.203125 41.140625 7.25 
Q 44.96875 8.296875 48.78125 10.40625 
L 48.78125 2.09375 
Q 45.015625 0.34375 40.984375 -0.53125 
Q 36.96875 -1.421875 32.421875 -1.421875 
Q 20.0625 -1.421875 12.78125 6.34375 
Q 5.515625 14.109375 5.515625 27.296875 
Q 5.515625 40.671875 12.859375 48.328125 
Q 20.21875 56 33.015625 56 
Q 37.15625 56 41.109375 55.140625 
Q 45.0625 54.296875 48.78125 52.59375 
z
" id="DejaVuSans-99"/>
     </defs>
     <g transform="translate(14.798438 255.999741)rotate(-90)scale(0.1 -0.1)">
      <use xlink:href="#DejaVuSans-82"/>
      <use x="69.482422" xlink:href="#DejaVuSans-49"/>
      <use x="133.105469" xlink:href="#DejaVuSans-32"/>
      <use x="164.892578" xlink:href="#DejaVuSans-66"/>
      <use x="233.496094" xlink:href="#DejaVuSans-101"/>
      <use x="295.019531" xlink:href="#DejaVuSans-102"/>
      <use x="330.224609" xlink:href="#DejaVuSans-111"/>
      <use x="391.40625" xlink:href="#DejaVuSans-114"/>
      <use x="432.488281" xlink:href="#DejaVuSans-101"/>
      <use x="494.011719" xlink:href="#DejaVuSans-32"/>
      <use x="525.798828" xlink:href="#DejaVuSans-102"/>
      <use x="561.003906" xlink:href="#DejaVuSans-105"/>
      <use x="588.787109" xlink:href="#DejaVuSans-108"/>
      <use x="616.570312" xlink:href="#DejaVuSans-116"/>
      <use x="655.779297" xlink:href="#DejaVuSans-101"/>
      <use x="717.302734" xlink:href="#DejaVuSans-114"/>
      <use x="758.416016" xlink:href="#DejaVuSans-105"/>
      <use x="786.199219" xlink:href="#DejaVuSans-110"/>
      <use x="849.578125" xlink:href="#DejaVuSans-103"/>
      <use x="913.054688" xlink:href="#DejaVuSans-58"/>
      <use x="946.746094" xlink:href="#DejaVuSans-32"/>
      <use x="978.533203" xlink:href="#DejaVuSans-66"/>
      <use x="1047.136719" xlink:href="#DejaVuSans-97"/>
      <use x="1108.416016" xlink:href="#DejaVuSans-115"/>
      <use x="1160.515625" xlink:href="#DejaVuSans-101"/>
      <use x="1222.039062" xlink:href="#DejaVuSans-32"/>
      <use x="1253.826172" xlink:href="#DejaVuSans-67"/>
      <use x="1323.650391" xlink:href="#DejaVuSans-111"/>
      <use x="1384.832031" xlink:href="#DejaVuSans-110"/>
      <use x="1448.210938" xlink:href="#DejaVuSans-116"/>
      <use x="1487.419922" xlink:href="#DejaVuSans-101"/>
      <use x="1548.943359" xlink:href="#DejaVuSans-110"/>
      <use x="1612.322266" xlink:href="#DejaVuSans-116"/>
      <use x="1651.53125" xlink:href="#DejaVuSans-32"/>
      <use x="1683.318359" xlink:href="#DejaVuSans-80"/>
      <use x="1743.574219" xlink:href="#DejaVuSans-101"/>
      <use x="1805.097656" xlink:href="#DejaVuSans-114"/>
      <use x="1846.179688" xlink:href="#DejaVuSans-99"/>
      <use x="1901.160156" xlink:href="#DejaVuSans-101"/>
      <use x="1962.683594" xlink:href="#DejaVuSans-110"/>
      <use x="2026.0625" xlink:href="#DejaVuSans-116"/>
     </g>
    </g>
   </g>
   <g id="line2d_7">
    <path clip-path="url(#p9299a8736f)" d="M 86.326761 143.54762 
L 92.122551 164.532738 
L 103.714132 169.318375 
L 109.509922 166.37361 
L 115.305712 168.606131 
L 121.101502 168.414065 
L 126.897292 166.438117 
L 132.693082 165.85901 
L 138.488872 168.804745 
L 144.284663 160.753021 
L 150.080453 162.590498 
L 155.876243 162.481127 
L 161.672033 163.686873 
L 167.467823 163.42157 
L 173.263613 164.110533 
L 179.059403 162.778926 
L 184.855193 164.145696 
L 190.650983 163.097338 
L 196.446774 163.773205 
L 202.242564 163.109705 
L 208.038354 164.722863 
L 213.834144 163.076725 
L 219.629934 165.160104 
L 225.425724 164.160732 
L 231.221514 164.597487 
L 237.017304 164.750752 
L 242.813094 165.35314 
L 248.608885 164.211173 
L 254.404675 165.558543 
L 260.200465 164.629741 
L 271.792045 164.651324 
L 277.587835 165.0146 
L 283.383625 163.993159 
L 289.179415 164.945727 
L 294.975206 164.619313 
L 300.770996 164.636288 
L 306.566786 164.804588 
L 312.362576 165.191145 
L 318.158366 163.969151 
L 323.954156 165.723448 
L 329.749946 164.333882 
L 335.545736 164.924629 
L 341.341526 164.798283 
L 347.137317 165.840579 
L 352.933107 164.164612 
L 358.728897 165.475363 
L 364.524687 164.945 
L 370.320477 165.146766 
L 376.116267 164.999322 
L 381.912057 165.683192 
L 387.707847 164.388931 
L 393.503638 165.819481 
L 399.299428 164.915657 
L 405.095218 165.342954 
L 410.891008 165.349017 
L 416.686798 165.94316 
L 422.482588 164.480356 
L 428.278378 165.676887 
L 434.074168 164.872975 
L 439.869958 164.249489 
L 445.665749 165.078864 
L 451.461539 164.989136 
L 457.257329 163.940535 
L 463.053119 165.658699 
L 468.848909 164.972161 
L 474.644699 164.758997 
L 480.440489 165.055098 
L 486.236279 165.831121 
L 492.032069 164.421184 
L 497.82786 165.599042 
L 503.62365 164.988651 
L 509.41944 164.575904 
L 521.01102 165.350472 
L 526.80681 164.298961 
L 532.6026 165.440927 
L 538.39839 164.826171 
L 544.194181 164.599912 
L 549.989971 165.457175 
L 555.785761 164.923174 
L 561.581551 164.821321 
L 567.377341 165.316278 
L 573.173131 164.61907 
L 578.968921 164.205596 
L 584.764711 164.191045 
L 590.560501 164.669754 
L 596.356292 163.870693 
L 602.152082 164.68867 
L 607.947872 165.129305 
L 613.743662 164.349887 
L 619.539452 165.040305 
L 625.335242 165.223398 
L 631.131032 163.95072 
L 636.926822 164.925599 
L 642.722612 164.343825 
L 648.518403 163.877483 
L 654.314193 164.507032 
L 660.109983 164.478416 
L 665.905773 163.213984 
L 671.701563 164.653506 
L 677.497353 163.942718 
L 683.293143 163.691723 
L 689.088933 164.269375 
L 694.884724 164.076824 
L 700.680514 163.284068 
L 706.476304 164.008437 
L 712.272094 163.8559 
L 718.067884 163.014885 
L 723.863674 163.800851 
L 729.659464 163.656802 
L 735.455254 162.562852 
L 741.251044 163.717671 
L 747.046835 163.247207 
L 752.842625 162.194968 
L 758.638415 163.044229 
L 764.434205 163.371128 
L 770.229995 161.975499 
L 776.025785 163.02119 
L 781.821575 162.630754 
L 787.617365 161.466962 
L 793.413156 161.98908 
L 799.208946 162.165382 
L 805.004736 161.142487 
L 810.800526 161.932818 
L 816.596316 161.759183 
L 822.392106 160.800309 
L 828.187896 161.48515 
L 833.983686 161.429858 
L 839.779476 160.376407 
L 845.575267 161.471327 
L 851.371057 160.917683 
L 857.166847 159.55455 
L 862.962637 160.833775 
L 868.758427 160.64268 
L 874.554217 158.923061 
L 880.350007 160.64074 
L 886.145797 160.082003 
L 891.941587 158.975443 
L 897.737378 159.850894 
L 903.533168 159.771836 
L 909.328958 158.272657 
L 915.124748 159.723335 
L 926.716328 158.285267 
L 932.512118 159.284154 
L 938.307908 158.690012 
L 944.103699 157.491784 
L 949.899489 158.6386 
L 949.899489 158.6386 
" style="fill:none;stroke:#7cb5ec;stroke-linecap:square;"/>
   </g>
   <g id="line2d_8">
    <path clip-path="url(#p9299a8736f)" d="M 86.326761 148.444083 
L 92.122551 169.091146 
L 97.918342 171.868096 
L 103.714132 174.858694 
L 109.509922 172.145766 
L 115.305712 174.007494 
L 121.101502 174.137963 
L 126.897292 172.7855 
L 132.693082 171.701736 
L 138.488872 174.934357 
L 144.284663 166.980605 
L 150.080453 168.777099 
L 155.876243 168.931091 
L 161.672033 169.891419 
L 167.467823 169.725302 
L 173.263613 170.484107 
L 179.059403 169.218462 
L 184.855193 170.456219 
L 190.650983 169.476247 
L 196.446774 170.291556 
L 202.242564 169.642364 
L 208.038354 170.957723 
L 213.834144 169.873474 
L 219.629934 171.364893 
L 225.425724 170.752562 
L 231.221514 171.353495 
L 237.017304 171.00283 
L 242.813094 171.785886 
L 248.608885 170.719339 
L 254.404675 171.865185 
L 260.200465 171.0232 
L 265.996255 171.380171 
L 271.792045 171.140331 
L 277.587835 171.716771 
L 283.383625 170.943173 
L 289.179415 171.623891 
L 294.975206 171.437888 
L 300.770996 171.52422 
L 306.566786 171.454136 
L 312.362576 172.0136 
L 318.158366 171.145909 
L 323.954156 172.299758 
L 329.749946 171.4294 
L 335.545736 171.980861 
L 341.341526 171.708283 
L 347.137317 172.588827 
L 352.933107 171.546046 
L 358.728897 172.478486 
L 364.524687 172.082229 
L 370.320477 172.341712 
L 376.116267 172.09678 
L 381.912057 172.673462 
L 387.707847 171.752177 
L 393.503638 172.727784 
L 399.299428 172.122728 
L 405.095218 172.385848 
L 410.891008 172.33953 
L 416.686798 172.882746 
L 422.482588 171.855728 
L 428.278378 172.706443 
L 434.074168 172.052643 
L 439.869958 171.916839 
L 451.461539 172.305579 
L 457.257329 171.528585 
L 463.053119 172.470726 
L 468.848909 172.019905 
L 480.440489 172.013842 
L 486.236279 172.592222 
L 492.032069 171.623163 
L 497.82786 172.405249 
L 503.62365 171.814016 
L 515.21523 171.744659 
L 521.01102 172.10551 
L 526.80681 171.362468 
L 532.6026 172.00293 
L 538.39839 171.525675 
L 555.785761 171.733019 
L 561.581551 171.256735 
L 567.377341 171.812319 
L 573.173131 171.063457 
L 578.968921 170.942931 
L 584.764711 170.629854 
L 590.560501 171.08116 
L 596.356292 170.435605 
L 602.152082 171.011318 
L 613.743662 170.790879 
L 619.539452 170.819009 
L 625.335242 171.097165 
L 631.131032 170.107493 
L 636.926822 170.838895 
L 642.722612 170.048079 
L 654.314193 169.969749 
L 660.109983 170.251543 
L 665.905773 169.170688 
L 671.701563 170.163027 
L 677.497353 169.446661 
L 694.884724 169.42338 
L 700.680514 168.761093 
L 706.476304 169.207792 
L 712.272094 168.982502 
L 718.067884 168.566845 
L 729.659464 168.866341 
L 735.455254 167.81677 
L 741.251044 168.632322 
L 752.842625 167.65623 
L 758.638415 167.763419 
L 764.434205 168.176651 
L 770.229995 167.185524 
L 776.025785 167.73456 
L 781.821575 167.347761 
L 787.617365 166.820308 
L 793.413156 166.790965 
L 799.208946 166.999521 
L 805.004736 166.181787 
L 810.800526 166.630183 
L 816.596316 166.305223 
L 822.392106 165.858767 
L 828.187896 166.142986 
L 833.983686 166.064413 
L 839.779476 165.328646 
L 845.575267 166.04477 
L 857.166847 164.872975 
L 862.962637 165.274567 
L 868.758427 165.312398 
L 874.554217 164.350615 
L 880.350007 165.219033 
L 891.941587 164.142544 
L 897.737378 164.410514 
L 903.533168 164.433552 
L 909.328958 163.416962 
L 915.124748 164.349645 
L 920.920538 163.811521 
L 926.716328 163.542338 
L 932.512118 163.84232 
L 938.307908 163.555434 
L 944.103699 162.67295 
L 949.899489 163.702151 
L 949.899489 163.702151 
" style="fill:none;stroke:#434348;stroke-linecap:square;"/>
   </g>
   <g id="line2d_9">
    <path clip-path="url(#p9299a8736f)" d="M 86.326761 151.447534 
L 92.122551 171.34816 
L 97.918342 172.477274 
L 103.714132 175.82266 
L 109.509922 173.367033 
L 115.305712 175.033299 
L 121.101502 175.235308 
L 126.897292 174.245636 
L 132.693082 173.422324 
L 138.488872 175.167648 
L 144.284663 168.623349 
L 150.080453 170.115738 
L 155.876243 170.415962 
L 161.672033 170.962574 
L 167.467823 171.005982 
L 173.263613 171.468686 
L 179.059403 170.528728 
L 184.855193 171.369016 
L 190.650983 170.746742 
L 196.446774 171.198776 
L 202.242564 170.779481 
L 208.038354 171.749024 
L 213.834144 171.014228 
L 219.629934 172.217306 
L 225.425724 171.914657 
L 231.221514 172.216336 
L 237.017304 172.156437 
L 242.813094 172.598285 
L 248.608885 171.916597 
L 254.404675 172.624233 
L 260.200465 172.073742 
L 265.996255 172.19645 
L 271.792045 172.20227 
L 277.587835 172.465633 
L 283.383625 172.003172 
L 289.179415 172.410827 
L 294.975206 172.507344 
L 300.770996 172.356505 
L 312.362576 172.746457 
L 318.158366 172.17123 
L 323.954156 173.189517 
L 329.749946 172.457388 
L 335.545736 172.904571 
L 341.341526 172.849522 
L 347.137317 173.523935 
L 352.933107 172.665702 
L 358.728897 173.417717 
L 364.524687 173.231956 
L 376.116267 173.198248 
L 381.912057 173.584561 
L 387.707847 172.867468 
L 393.503638 173.699267 
L 399.299428 173.264694 
L 410.891008 173.485134 
L 416.686798 173.907096 
L 422.482588 173.010304 
L 428.278378 173.668226 
L 434.074168 173.150474 
L 439.869958 172.751549 
L 445.665749 173.101487 
L 451.461539 173.200915 
L 457.257329 172.498129 
L 463.053119 173.491439 
L 468.848909 173.070446 
L 480.440489 173.085967 
L 486.236279 173.663861 
L 492.032069 172.755672 
L 497.82786 173.356362 
L 509.41944 172.713718 
L 521.01102 173.136893 
L 526.80681 172.510497 
L 532.6026 173.044013 
L 538.39839 172.699895 
L 544.194181 172.631508 
L 549.989971 172.993814 
L 561.581551 172.53208 
L 567.377341 172.878381 
L 573.173131 172.133156 
L 578.968921 171.897681 
L 584.764711 171.549684 
L 590.560501 171.93333 
L 596.356292 171.520825 
L 607.947872 172.151101 
L 613.743662 171.802619 
L 619.539452 172.100417 
L 625.335242 172.175352 
L 631.131032 171.165795 
L 636.926822 171.823959 
L 642.722612 171.004285 
L 648.518403 170.794759 
L 654.314193 171.005255 
L 660.109983 170.998465 
L 665.905773 169.920278 
L 671.701563 171.044541 
L 677.497353 170.342968 
L 683.293143 170.047109 
L 689.088933 170.454521 
L 694.884724 170.104098 
L 700.680514 169.3305 
L 706.476304 169.871049 
L 712.272094 169.694261 
L 718.067884 168.953401 
L 723.863674 169.354023 
L 729.659464 169.160745 
L 735.455254 168.079891 
L 741.251044 168.932303 
L 747.046835 168.392967 
L 752.842625 167.619369 
L 764.434205 168.342526 
L 770.229995 167.152058 
L 776.025785 167.766571 
L 781.821575 167.284467 
L 787.617365 166.331171 
L 799.208946 166.662436 
L 805.004736 165.485064 
L 810.800526 165.989478 
L 816.596316 165.70526 
L 822.392106 164.938937 
L 828.187896 165.319431 
L 833.983686 165.216851 
L 839.779476 164.087009 
L 845.575267 164.937725 
L 851.371057 164.459016 
L 857.166847 163.147294 
L 862.962637 163.979336 
L 868.758427 163.68081 
L 874.554217 162.210004 
L 880.350007 163.744832 
L 891.941587 162.128521 
L 897.737378 162.502467 
L 903.533168 162.469001 
L 909.328958 161.184926 
L 915.124748 162.283241 
L 920.920538 161.439558 
L 926.716328 160.893917 
L 932.512118 161.594763 
L 938.307908 161.077495 
L 944.103699 159.807485 
L 949.899489 160.858996 
L 949.899489 160.858996 
" style="fill:none;stroke:#90ed7d;stroke-linecap:square;"/>
   </g>
   <g id="line2d_10">
    <path clip-path="url(#p9299a8736f)" d="M 86.326761 147.708558 
L 92.122551 172.063314 
L 97.918342 172.505404 
L 103.714132 176.125309 
L 109.509922 172.855342 
L 115.305712 175.412096 
L 121.101502 175.350014 
L 126.897292 174.675359 
L 132.693082 172.963743 
L 138.488872 176.144952 
L 144.284663 167.812648 
L 150.080453 169.73864 
L 155.876243 169.622721 
L 161.672033 170.925955 
L 167.467823 170.460099 
L 173.263613 171.585817 
L 179.059403 169.880507 
L 184.855193 171.417032 
L 190.650983 170.283796 
L 196.446774 171.238547 
L 202.242564 170.306107 
L 208.038354 171.916597 
L 213.834144 170.629611 
L 219.629934 172.381241 
L 225.425724 171.577087 
L 231.221514 172.317946 
L 237.017304 171.845542 
L 242.813094 172.682435 
L 248.608885 171.483964 
L 254.404675 172.765372 
L 260.200465 171.697128 
L 265.996255 172.266535 
L 271.792045 171.827597 
L 277.587835 172.515347 
L 283.383625 171.685245 
L 289.179415 172.476546 
L 294.975206 172.147464 
L 300.770996 172.35893 
L 306.566786 172.124183 
L 312.362576 172.813874 
L 318.158366 171.775215 
L 323.954156 173.070689 
L 329.749946 172.066709 
L 335.545736 172.795686 
L 341.341526 172.363538 
L 347.137317 173.306648 
L 352.933107 172.239859 
L 358.728897 173.273667 
L 364.524687 172.650666 
L 370.320477 173.074811 
L 376.116267 172.655516 
L 381.912057 173.395648 
L 387.707847 172.35602 
L 393.503638 173.405106 
L 399.299428 172.688497 
L 405.095218 173.130345 
L 410.891008 172.912332 
L 416.686798 173.492651 
L 422.482588 172.477031 
L 428.278378 173.371398 
L 434.074168 172.62108 
L 445.665749 172.722691 
L 451.461539 172.969321 
L 457.257329 172.090475 
L 463.053119 173.140531 
L 468.848909 172.565546 
L 480.440489 172.506132 
L 486.236279 173.202128 
L 492.032069 172.100417 
L 497.82786 172.921789 
L 503.62365 172.282055 
L 509.41944 172.406219 
L 515.21523 172.27769 
L 521.01102 172.639996 
L 526.80681 171.803104 
L 532.6026 172.505162 
L 538.39839 172.02233 
L 544.194181 172.142129 
L 549.989971 172.134611 
L 555.785761 172.277933 
L 561.581551 171.6964 
L 567.377341 172.243254 
L 573.173131 171.492694 
L 578.968921 171.477901 
L 584.764711 171.102985 
L 590.560501 171.513065 
L 596.356292 170.791364 
L 602.152082 171.456803 
L 607.947872 171.214296 
L 613.743662 171.2514 
L 619.539452 171.148577 
L 625.335242 171.481054 
L 631.131032 170.409172 
L 636.926822 171.18762 
L 642.722612 170.456219 
L 648.518403 170.540126 
L 654.314193 170.376919 
L 660.109983 170.68175 
L 665.905773 169.632907 
L 671.701563 170.476589 
L 677.497353 169.929493 
L 683.293143 169.81794 
L 694.884724 169.939436 
L 700.680514 169.179418 
L 706.476304 169.807027 
L 712.272094 169.354266 
L 718.067884 169.128492 
L 729.659464 169.271571 
L 735.455254 168.385935 
L 741.251044 169.195181 
L 752.842625 168.321428 
L 758.638415 168.435164 
L 764.434205 168.850821 
L 770.229995 167.973915 
L 776.025785 168.441954 
L 787.617365 167.666173 
L 793.413156 167.640225 
L 799.208946 167.847569 
L 805.004736 167.073728 
L 810.800526 167.598999 
L 822.392106 166.984971 
L 828.187896 167.12417 
L 833.983686 167.14745 
L 839.779476 166.418231 
L 845.575267 167.003886 
L 851.371057 166.694689 
L 857.166847 166.102729 
L 862.962637 166.575861 
L 868.758427 166.526632 
L 874.554217 165.619412 
L 880.350007 166.416049 
L 886.145797 165.977111 
L 891.941587 165.677857 
L 903.533168 165.786985 
L 909.328958 164.996654 
L 915.124748 165.824574 
L 920.920538 165.331071 
L 926.716328 165.068436 
L 932.512118 165.542538 
L 938.307908 165.212243 
L 944.103699 164.401541 
L 949.899489 165.321856 
L 949.899489 165.321856 
" style="fill:none;stroke:#f7a35c;stroke-linecap:square;"/>
   </g>
   <g id="line2d_11">
    <path clip-path="url(#p9299a8736f)" d="M 86.326761 154.85379 
L 92.122551 174.680694 
L 97.918342 173.54576 
L 103.714132 177.295407 
L 109.509922 174.707127 
L 115.305712 176.155865 
L 121.101502 176.963657 
L 126.897292 176.445419 
L 132.693082 175.727113 
L 138.488872 175.613377 
L 144.284663 170.777298 
L 150.080453 171.681607 
L 155.876243 172.130973 
L 167.467823 172.642421 
L 173.263613 172.95186 
L 179.059403 172.634661 
L 184.855193 172.987751 
L 202.242564 172.741849 
L 208.038354 173.361697 
L 213.834144 172.920577 
L 219.629934 173.747526 
L 225.425724 173.62118 
L 231.221514 173.701692 
L 237.017304 173.94711 
L 242.813094 174.03708 
L 248.608885 173.718425 
L 254.404675 174.096252 
L 260.200465 173.791663 
L 277.587835 174.000219 
L 283.383625 173.797483 
L 294.975206 174.319116 
L 300.770996 174.151786 
L 306.566786 174.360827 
L 312.362576 174.417089 
L 318.158366 174.103042 
L 323.954156 174.704702 
L 329.749946 174.317418 
L 341.341526 174.583691 
L 347.137317 175.122057 
L 352.933107 174.567201 
L 358.728897 174.945997 
L 370.320477 174.880035 
L 381.912057 175.174681 
L 387.707847 174.827896 
L 393.503638 175.127635 
L 405.095218 175.045182 
L 416.686798 175.445562 
L 422.482588 174.930234 
L 428.278378 175.348801 
L 439.869958 174.682392 
L 445.665749 175.026024 
L 451.461539 175.006866 
L 457.257329 174.654988 
L 463.053119 175.306848 
L 468.848909 175.063128 
L 474.644699 174.996196 
L 480.440489 175.043485 
L 486.236279 175.383965 
L 492.032069 175.052943 
L 497.82786 175.278474 
L 503.62365 175.295692 
L 509.41944 174.89507 
L 515.21523 175.232883 
L 521.01102 175.250586 
L 526.80681 174.825471 
L 532.6026 175.226335 
L 544.194181 175.047122 
L 549.989971 175.342981 
L 555.785761 175.112599 
L 567.377341 175.362382 
L 573.173131 174.97631 
L 584.764711 174.548528 
L 590.560501 174.914713 
L 596.356292 174.751506 
L 602.152082 174.820378 
L 607.947872 175.276777 
L 613.743662 175.077193 
L 625.335242 175.521951 
L 631.131032 174.71028 
L 636.926822 175.221243 
L 642.722612 174.858209 
L 648.518403 174.752961 
L 654.314193 175.063613 
L 660.109983 175.010746 
L 665.905773 174.390898 
L 671.701563 175.006866 
L 677.497353 174.567928 
L 683.293143 174.444492 
L 689.088933 174.9637 
L 694.884724 174.536402 
L 700.680514 174.258004 
L 712.272094 174.649653 
L 718.067884 174.074426 
L 723.863674 174.498571 
L 729.659464 174.36786 
L 735.455254 173.736856 
L 741.251044 174.221385 
L 752.842625 173.525632 
L 758.638415 173.761592 
L 764.434205 174.117107 
L 770.229995 173.471553 
L 776.025785 173.565888 
L 781.821575 173.399528 
L 787.617365 172.579127 
L 799.208946 172.94992 
L 805.004736 172.34341 
L 816.596316 172.419557 
L 822.392106 171.673847 
L 828.187896 171.770608 
L 833.983686 171.643049 
L 839.779476 171.073157 
L 845.575267 171.561081 
L 851.371057 171.194896 
L 857.166847 169.674618 
L 862.962637 170.441668 
L 868.758427 170.355821 
L 874.554217 169.114426 
L 880.350007 170.258818 
L 886.145797 169.735487 
L 891.941587 168.450927 
L 897.737378 168.951704 
L 903.533168 168.868281 
L 909.328958 167.404508 
L 915.124748 168.778554 
L 920.920538 167.365222 
L 926.716328 167.302412 
L 932.512118 167.64556 
L 938.307908 166.862019 
L 944.103699 165.701865 
L 949.899489 166.778839 
L 949.899489 166.778839 
" style="fill:none;stroke:#8085e9;stroke-linecap:square;"/>
   </g>
   <g id="line2d_12">
    <path clip-path="url(#p9299a8736f)" d="M 86.326761 151.086926 
L 92.122551 175.024812 
L 97.918342 173.533635 
L 103.714132 177.552464 
L 109.509922 174.670024 
L 115.305712 176.587043 
L 121.101502 177.457159 
L 126.897292 177.300984 
L 132.693082 176.366119 
L 138.488872 176.050132 
L 144.284663 170.968879 
L 150.080453 171.911262 
L 173.263613 173.223226 
L 179.059403 172.929307 
L 184.855193 173.340114 
L 190.650983 173.228561 
L 196.446774 173.302041 
L 202.242564 173.069234 
L 208.038354 173.647856 
L 213.834144 173.195822 
L 219.629934 174.041688 
L 225.425724 173.829251 
L 237.017304 174.160759 
L 242.813094 174.327119 
L 248.608885 174.002886 
L 254.404675 174.46074 
L 260.200465 174.065211 
L 277.587835 174.213625 
L 283.383625 174.061573 
L 289.179415 174.39114 
L 294.975206 174.525732 
L 300.770996 174.454192 
L 306.566786 174.716343 
L 312.362576 174.633648 
L 318.158366 174.357189 
L 323.954156 175.029904 
L 329.749946 174.556045 
L 341.341526 174.957152 
L 347.137317 175.327946 
L 352.933107 174.819166 
L 358.728897 175.301512 
L 370.320477 175.081558 
L 376.116267 175.302967 
L 381.912057 175.349529 
L 387.707847 175.022629 
L 393.503638 175.45793 
L 399.299428 175.12327 
L 405.095218 175.169589 
L 410.891008 175.429071 
L 416.686798 175.559298 
L 422.482588 175.0624 
L 428.278378 175.530197 
L 434.074168 175.193839 
L 439.869958 174.730651 
L 445.665749 175.155523 
L 451.461539 175.035482 
L 457.257329 174.583934 
L 463.053119 175.374507 
L 468.848909 175.053428 
L 474.644699 174.913986 
L 486.236279 175.370627 
L 492.032069 174.986981 
L 497.82786 175.29351 
L 503.62365 175.145338 
L 509.41944 174.796612 
L 515.21523 175.041545 
L 521.01102 175.093926 
L 526.80681 174.677541 
L 532.6026 175.052215 
L 538.39839 175.008564 
L 544.194181 174.723133 
L 549.989971 175.194082 
L 555.785761 174.877367 
L 561.581551 174.814315 
L 567.377341 175.096109 
L 573.173131 174.563563 
L 578.968921 174.451525 
L 584.764711 174.11444 
L 590.560501 174.454435 
L 596.356292 174.199075 
L 602.152082 174.282012 
L 607.947872 174.671964 
L 613.743662 174.308445 
L 619.539452 174.753689 
L 625.335242 174.707612 
L 631.131032 173.861262 
L 636.926822 174.605517 
L 642.722612 174.031745 
L 648.518403 173.843074 
L 654.314193 174.186464 
L 660.109983 174.011374 
L 665.905773 173.243111 
L 671.701563 173.95875 
L 677.497353 173.474463 
L 683.293143 173.120645 
L 689.088933 173.788995 
L 700.680514 172.841034 
L 706.476304 173.233411 
L 712.272094 173.000362 
L 718.067884 172.370813 
L 723.863674 172.866013 
L 729.659464 172.578642 
L 735.455254 171.893074 
L 741.251044 172.352867 
L 752.842625 171.401997 
L 758.638415 171.616616 
L 764.434205 172.000504 
L 770.229995 170.867511 
L 776.025785 171.458986 
L 781.821575 171.118021 
L 787.617365 169.939193 
L 793.413156 170.316534 
L 799.208946 170.42542 
L 805.004736 169.342383 
L 810.800526 169.875171 
L 816.596316 169.434293 
L 822.392106 168.510583 
L 828.187896 168.731992 
L 833.983686 168.598128 
L 839.779476 167.623007 
L 845.575267 168.24237 
L 851.371057 167.755901 
L 857.166847 165.960378 
L 862.962637 167.176309 
L 868.758427 166.771807 
L 874.554217 165.107722 
L 880.350007 166.554278 
L 886.145797 165.727086 
L 891.941587 164.34916 
L 897.737378 165.248619 
L 903.533168 164.611553 
L 909.328958 163.196281 
L 915.124748 164.710253 
L 920.920538 163.048109 
L 926.716328 162.607473 
L 932.512118 163.312684 
L 938.307908 162.264568 
L 944.103699 160.81389 
L 949.899489 162.358176 
L 949.899489 162.358176 
" style="fill:none;stroke:#f15c80;stroke-linecap:square;"/>
   </g>
   <g id="line2d_13">
    <path clip-path="url(#p9299a8736f)" d="M 86.326761 147.909112 
L 92.122551 174.833959 
L 97.918342 172.676372 
L 103.714132 174.115652 
L 109.509922 173.023157 
L 115.305712 174.658868 
L 121.101502 176.490525 
L 132.693082 173.715515 
L 138.488872 173.682534 
L 144.284663 168.148035 
L 150.080453 169.16511 
L 173.263613 171.005012 
L 179.059403 170.567044 
L 184.855193 170.754745 
L 190.650983 170.585232 
L 196.446774 170.856598 
L 202.242564 170.120589 
L 208.038354 170.600268 
L 213.834144 170.292041 
L 219.629934 171.131844 
L 225.425724 170.883516 
L 231.221514 171.144454 
L 242.813094 171.238789 
L 248.608885 171.101773 
L 254.404675 171.414365 
L 260.200465 170.872361 
L 265.996255 171.242427 
L 271.792045 171.059819 
L 277.587835 171.196108 
L 283.383625 171.161187 
L 289.179415 171.292626 
L 294.975206 171.560596 
L 300.770996 171.486632 
L 306.566786 171.722834 
L 312.362576 171.693975 
L 318.158366 171.432068 
L 323.954156 171.942788 
L 329.749946 171.558414 
L 335.545736 171.876341 
L 341.341526 171.998079 
L 347.137317 172.612108 
L 352.933107 171.998079 
L 364.524687 172.413979 
L 370.320477 172.232826 
L 376.116267 172.520925 
L 381.912057 172.593677 
L 387.707847 172.35311 
L 393.503638 172.68001 
L 399.299428 172.488914 
L 416.686798 173.060261 
L 422.482588 172.658911 
L 428.278378 172.944827 
L 434.074168 172.727299 
L 439.869958 172.313581 
L 451.461539 172.748397 
L 457.257329 172.259502 
L 463.053119 173.111915 
L 468.848909 172.808296 
L 480.440489 172.919607 
L 486.236279 173.322654 
L 492.032069 173.014185 
L 497.82786 173.211828 
L 515.21523 173.108277 
L 521.01102 173.393708 
L 526.80681 173.080389 
L 538.39839 173.52733 
L 544.194181 173.288218 
L 549.989971 173.725216 
L 555.785761 173.398316 
L 567.377341 173.989791 
L 573.173131 173.336234 
L 578.968921 173.554248 
L 584.764711 172.966653 
L 590.560501 173.558613 
L 596.356292 173.493864 
L 602.152082 173.2014 
L 607.947872 174.137478 
L 613.743662 174.10862 
L 619.539452 174.250001 
L 625.335242 174.537615 
L 631.131032 173.625303 
L 636.926822 174.476745 
L 642.722612 173.943715 
L 648.518403 174.010889 
L 654.314193 174.220415 
L 660.109983 174.090189 
L 665.905773 173.604205 
L 671.701563 174.348217 
L 677.497353 173.812761 
L 683.293143 173.776385 
L 689.088933 174.445462 
L 694.884724 174.096494 
L 706.476304 174.164154 
L 712.272094 174.161486 
L 718.067884 174.012102 
L 723.863674 174.13481 
L 735.455254 173.792875 
L 741.251044 174.038535 
L 747.046835 173.678169 
L 752.842625 173.737341 
L 758.638415 173.404136 
L 764.434205 174.408601 
L 770.229995 173.68981 
L 776.025785 173.587714 
L 781.821575 173.755044 
L 787.617365 172.850492 
L 793.413156 172.904571 
L 799.208946 173.191942 
L 805.004736 172.59489 
L 816.596316 172.578642 
L 822.392106 172.150374 
L 828.187896 171.509185 
L 833.983686 172.206636 
L 839.779476 171.693975 
L 845.575267 172.007537 
L 851.371057 171.726229 
L 857.166847 169.999578 
L 862.962637 170.708911 
L 868.758427 170.396562 
L 874.554217 169.751735 
L 880.350007 170.608513 
L 886.145797 170.328902 
L 891.941587 169.471639 
L 903.533168 169.567672 
L 909.328958 168.725445 
L 915.124748 169.571795 
L 920.920538 167.931234 
L 926.716328 168.700709 
L 938.307908 167.71322 
L 944.103699 166.678441 
L 949.899489 167.80028 
L 949.899489 167.80028 
" style="fill:none;stroke:#e4d354;stroke-linecap:square;"/>
   </g>
   <g id="line2d_14">
    <path clip-path="url(#p9299a8736f)" d="M 86.326761 148.685377 
L 92.122551 178.693461 
L 97.918342 178.268831 
L 103.714132 177.718339 
L 109.509922 176.939649 
L 115.305712 179.334407 
L 121.101502 182.791105 
L 126.897292 181.133811 
L 132.693082 179.239587 
L 138.488872 177.975882 
L 144.284663 172.86868 
L 150.080453 173.614875 
L 155.876243 173.769352 
L 161.672033 174.120987 
L 167.467823 174.895798 
L 173.263613 175.45599 
L 179.059403 175.154311 
L 184.855193 175.366262 
L 190.650983 175.346134 
L 196.446774 175.582821 
L 202.242564 174.662021 
L 208.038354 174.985526 
L 213.834144 174.893373 
L 219.629934 175.6272 
L 225.425724 175.463265 
L 248.608885 175.721535 
L 254.404675 176.037764 
L 260.200465 175.502066 
L 265.996255 175.73075 
L 271.792045 175.681036 
L 277.587835 175.779009 
L 283.383625 175.675944 
L 294.975206 176.249716 
L 300.770996 176.111972 
L 306.566786 176.40104 
L 312.362576 176.377032 
L 318.158366 176.162413 
L 323.954156 176.577343 
L 329.749946 176.344778 
L 341.341526 176.857196 
L 347.137317 177.50178 
L 352.933107 176.968507 
L 364.524687 177.300984 
L 370.320477 177.033741 
L 376.116267 177.444306 
L 387.707847 177.322325 
L 393.503638 177.685116 
L 405.095218 177.472679 
L 416.686798 178.032629 
L 422.482588 177.522151 
L 428.278378 177.874514 
L 434.074168 177.767568 
L 439.869958 177.157905 
L 451.461539 177.49984 
L 457.257329 177.084668 
L 463.053119 178.040631 
L 468.848909 177.612364 
L 492.032069 178.00668 
L 503.62365 178.012985 
L 515.21523 177.782119 
L 521.01102 178.148062 
L 526.80681 177.792061 
L 538.39839 178.245792 
L 544.194181 177.886882 
L 549.989971 178.397117 
L 555.785761 177.973457 
L 561.581551 178.103683 
L 567.377341 178.520311 
L 573.173131 177.772903 
L 578.968921 178.044511 
L 584.764711 177.480682 
L 590.560501 178.022928 
L 596.356292 177.979034 
L 602.152082 177.653832 
L 607.947872 178.435918 
L 619.539452 178.573905 
L 625.335242 178.968221 
L 631.131032 177.878879 
L 636.926822 178.766213 
L 642.722612 178.000375 
L 654.314193 178.270043 
L 660.109983 178.1711 
L 665.905773 177.679781 
L 671.701563 178.283138 
L 677.497353 177.656742 
L 683.293143 177.675658 
L 689.088933 178.303267 
L 694.884724 177.842745 
L 712.272094 177.969334 
L 723.863674 177.771691 
L 729.659464 177.693118 
L 735.455254 177.39144 
L 741.251044 177.770721 
L 747.046835 177.310927 
L 752.842625 177.454249 
L 758.638415 177.007308 
L 764.434205 177.672263 
L 770.229995 177.035681 
L 776.025785 176.932858 
L 781.821575 176.987908 
L 787.617365 176.253353 
L 793.413156 176.482765 
L 799.208946 176.393765 
L 805.004736 175.942459 
L 816.596316 175.657998 
L 822.392106 175.157463 
L 828.187896 174.520397 
L 833.983686 175.142428 
L 839.779476 174.495661 
L 845.575267 174.919806 
L 851.371057 174.655958 
L 857.166847 173.178119 
L 862.962637 173.554248 
L 868.758427 173.645916 
L 874.554217 172.628113 
L 880.350007 173.343752 
L 886.145797 173.156536 
L 891.941587 172.316491 
L 903.533168 172.369358 
L 909.328958 171.460441 
L 915.124748 172.221671 
L 920.920538 170.679325 
L 926.716328 171.270558 
L 932.512118 170.708911 
L 938.307908 170.589355 
L 944.103699 169.189846 
L 949.899489 170.506418 
L 949.899489 170.506418 
" style="fill:none;stroke:#2b908f;stroke-linecap:square;"/>
   </g>
   <g id="line2d_15">
    <path clip-path="url(#p9299a8736f)" d="M 43.148125 273.99006 
L 993.078125 273.99006 
" style="fill:none;stroke:#dedede;stroke-linecap:square;stroke-width:2;"/>
   </g>
   <g id="text_17">
    <!-- Fastp: Read GC Content -->
    <defs>
     <path d="M 9.8125 72.90625 
L 51.703125 72.90625 
L 51.703125 64.59375 
L 19.671875 64.59375 
L 19.671875 43.109375 
L 48.578125 43.109375 
L 48.578125 34.8125 
L 19.671875 34.8125 
L 19.671875 0 
L 9.8125 0 
z
" id="DejaVuSans-70"/>
     <path d="M 18.109375 8.203125 
L 18.109375 -20.796875 
L 9.078125 -20.796875 
L 9.078125 54.6875 
L 18.109375 54.6875 
L 18.109375 46.390625 
Q 20.953125 51.265625 25.265625 53.625 
Q 29.59375 56 35.59375 56 
Q 45.5625 56 51.78125 48.09375 
Q 58.015625 40.1875 58.015625 27.296875 
Q 58.015625 14.40625 51.78125 6.484375 
Q 45.5625 -1.421875 35.59375 -1.421875 
Q 29.59375 -1.421875 25.265625 0.953125 
Q 20.953125 3.328125 18.109375 8.203125 
z
M 48.6875 27.296875 
Q 48.6875 37.203125 44.609375 42.84375 
Q 40.53125 48.484375 33.40625 48.484375 
Q 26.265625 48.484375 22.1875 42.84375 
Q 18.109375 37.203125 18.109375 27.296875 
Q 18.109375 17.390625 22.1875 11.75 
Q 26.265625 6.109375 33.40625 6.109375 
Q 40.53125 6.109375 44.609375 11.75 
Q 48.6875 17.390625 48.6875 27.296875 
z
" id="DejaVuSans-112"/>
     <path d="M 59.515625 10.40625 
L 59.515625 29.984375 
L 43.40625 29.984375 
L 43.40625 38.09375 
L 69.28125 38.09375 
L 69.28125 6.78125 
Q 63.578125 2.734375 56.6875 0.65625 
Q 49.8125 -1.421875 42 -1.421875 
Q 24.90625 -1.421875 15.25 8.5625 
Q 5.609375 18.5625 5.609375 36.375 
Q 5.609375 54.25 15.25 64.234375 
Q 24.90625 74.21875 42 74.21875 
Q 49.125 74.21875 55.546875 72.453125 
Q 61.96875 70.703125 67.390625 67.28125 
L 67.390625 56.78125 
Q 61.921875 61.421875 55.765625 63.765625 
Q 49.609375 66.109375 42.828125 66.109375 
Q 29.4375 66.109375 22.71875 58.640625 
Q 16.015625 51.171875 16.015625 36.375 
Q 16.015625 21.625 22.71875 14.15625 
Q 29.4375 6.6875 42.828125 6.6875 
Q 48.046875 6.6875 52.140625 7.59375 
Q 56.25 8.5 59.515625 10.40625 
z
" id="DejaVuSans-71"/>
    </defs>
    <g transform="translate(421.856875 19.3575)scale(0.16 -0.16)">
     <use xlink:href="#DejaVuSans-70"/>
     <use x="57.378906" xlink:href="#DejaVuSans-97"/>
     <use x="118.658203" xlink:href="#DejaVuSans-115"/>
     <use x="170.757812" xlink:href="#DejaVuSans-116"/>
     <use x="209.966797" xlink:href="#DejaVuSans-112"/>
     <use x="273.443359" xlink:href="#DejaVuSans-58"/>
     <use x="307.134766" xlink:href="#DejaVuSans-32"/>
     <use x="338.921875" xlink:href="#DejaVuSans-82"/>
     <use x="408.341797" xlink:href="#DejaVuSans-101"/>
     <use x="469.865234" xlink:href="#DejaVuSans-97"/>
     <use x="531.144531" xlink:href="#DejaVuSans-100"/>
     <use x="594.621094" xlink:href="#DejaVuSans-32"/>
     <use x="626.408203" xlink:href="#DejaVuSans-71"/>
     <use x="703.898438" xlink:href="#DejaVuSans-67"/>
     <use x="773.722656" xlink:href="#DejaVuSans-32"/>
     <use x="805.509766" xlink:href="#DejaVuSans-67"/>
     <use x="875.333984" xlink:href="#DejaVuSans-111"/>
     <use x="936.515625" xlink:href="#DejaVuSans-110"/>
     <use x="999.894531" xlink:href="#DejaVuSans-116"/>
     <use x="1039.103516" xlink:href="#DejaVuSans-101"/>
     <use x="1100.626953" xlink:href="#DejaVuSans-110"/>
     <use x="1164.005859" xlink:href="#DejaVuSans-116"/>
    </g>
   </g>
   <g id="legend_1">
    <g id="line2d_16">
     <path d="M 50.348125 303.490394 
L 66.348125 303.490394 
" style="fill:none;stroke:#7cb5ec;stroke-linecap:square;"/>
    </g>
    <g id="line2d_17"/>
    <g id="text_18">
     <!-- Sfu-ABai_005-Ex1-1A-lcwgs-1-1.clmp.r1r2_fastp -->
     <defs>
      <path d="M 53.515625 70.515625 
L 53.515625 60.890625 
Q 47.90625 63.578125 42.921875 64.890625 
Q 37.9375 66.21875 33.296875 66.21875 
Q 25.25 66.21875 20.875 63.09375 
Q 16.5 59.96875 16.5 54.203125 
Q 16.5 49.359375 19.40625 46.890625 
Q 22.3125 44.4375 30.421875 42.921875 
L 36.375 41.703125 
Q 47.40625 39.59375 52.65625 34.296875 
Q 57.90625 29 57.90625 20.125 
Q 57.90625 9.515625 50.796875 4.046875 
Q 43.703125 -1.421875 29.984375 -1.421875 
Q 24.8125 -1.421875 18.96875 -0.25 
Q 13.140625 0.921875 6.890625 3.21875 
L 6.890625 13.375 
Q 12.890625 10.015625 18.65625 8.296875 
Q 24.421875 6.59375 29.984375 6.59375 
Q 38.421875 6.59375 43.015625 9.90625 
Q 47.609375 13.234375 47.609375 19.390625 
Q 47.609375 24.75 44.3125 27.78125 
Q 41.015625 30.8125 33.5 32.328125 
L 27.484375 33.5 
Q 16.453125 35.6875 11.515625 40.375 
Q 6.59375 45.0625 6.59375 53.421875 
Q 6.59375 63.09375 13.40625 68.65625 
Q 20.21875 74.21875 32.171875 74.21875 
Q 37.3125 74.21875 42.625 73.28125 
Q 47.953125 72.359375 53.515625 70.515625 
z
" id="DejaVuSans-83"/>
      <path d="M 8.5 21.578125 
L 8.5 54.6875 
L 17.484375 54.6875 
L 17.484375 21.921875 
Q 17.484375 14.15625 20.5 10.265625 
Q 23.53125 6.390625 29.59375 6.390625 
Q 36.859375 6.390625 41.078125 11.03125 
Q 45.3125 15.671875 45.3125 23.6875 
L 45.3125 54.6875 
L 54.296875 54.6875 
L 54.296875 0 
L 45.3125 0 
L 45.3125 8.40625 
Q 42.046875 3.421875 37.71875 1 
Q 33.40625 -1.421875 27.6875 -1.421875 
Q 18.265625 -1.421875 13.375 4.4375 
Q 8.5 10.296875 8.5 21.578125 
z
M 31.109375 56 
z
" id="DejaVuSans-117"/>
      <path d="M 4.890625 31.390625 
L 31.203125 31.390625 
L 31.203125 23.390625 
L 4.890625 23.390625 
z
" id="DejaVuSans-45"/>
      <path d="M 34.1875 63.1875 
L 20.796875 26.90625 
L 47.609375 26.90625 
z
M 28.609375 72.90625 
L 39.796875 72.90625 
L 67.578125 0 
L 57.328125 0 
L 50.6875 18.703125 
L 17.828125 18.703125 
L 11.1875 0 
L 0.78125 0 
z
" id="DejaVuSans-65"/>
      <path d="M 50.984375 -16.609375 
L 50.984375 -23.578125 
L -0.984375 -23.578125 
L -0.984375 -16.609375 
z
" id="DejaVuSans-95"/>
      <path d="M 10.796875 72.90625 
L 49.515625 72.90625 
L 49.515625 64.59375 
L 19.828125 64.59375 
L 19.828125 46.734375 
Q 21.96875 47.46875 24.109375 47.828125 
Q 26.265625 48.1875 28.421875 48.1875 
Q 40.625 48.1875 47.75 41.5 
Q 54.890625 34.8125 54.890625 23.390625 
Q 54.890625 11.625 47.5625 5.09375 
Q 40.234375 -1.421875 26.90625 -1.421875 
Q 22.3125 -1.421875 17.546875 -0.640625 
Q 12.796875 0.140625 7.71875 1.703125 
L 7.71875 11.625 
Q 12.109375 9.234375 16.796875 8.0625 
Q 21.484375 6.890625 26.703125 6.890625 
Q 35.15625 6.890625 40.078125 11.328125 
Q 45.015625 15.765625 45.015625 23.390625 
Q 45.015625 31 40.078125 35.4375 
Q 35.15625 39.890625 26.703125 39.890625 
Q 22.75 39.890625 18.8125 39.015625 
Q 14.890625 38.140625 10.796875 36.28125 
z
" id="DejaVuSans-53"/>
      <path d="M 9.8125 72.90625 
L 55.90625 72.90625 
L 55.90625 64.59375 
L 19.671875 64.59375 
L 19.671875 43.015625 
L 54.390625 43.015625 
L 54.390625 34.71875 
L 19.671875 34.71875 
L 19.671875 8.296875 
L 56.78125 8.296875 
L 56.78125 0 
L 9.8125 0 
z
" id="DejaVuSans-69"/>
      <path d="M 54.890625 54.6875 
L 35.109375 28.078125 
L 55.90625 0 
L 45.3125 0 
L 29.390625 21.484375 
L 13.484375 0 
L 2.875 0 
L 24.125 28.609375 
L 4.6875 54.6875 
L 15.28125 54.6875 
L 29.78125 35.203125 
L 44.28125 54.6875 
z
" id="DejaVuSans-120"/>
      <path d="M 4.203125 54.6875 
L 13.1875 54.6875 
L 24.421875 12.015625 
L 35.59375 54.6875 
L 46.1875 54.6875 
L 57.421875 12.015625 
L 68.609375 54.6875 
L 77.59375 54.6875 
L 63.28125 0 
L 52.6875 0 
L 40.921875 44.828125 
L 29.109375 0 
L 18.5 0 
z
" id="DejaVuSans-119"/>
      <path d="M 10.6875 12.40625 
L 21 12.40625 
L 21 0 
L 10.6875 0 
z
" id="DejaVuSans-46"/>
      <path d="M 52 44.1875 
Q 55.375 50.25 60.0625 53.125 
Q 64.75 56 71.09375 56 
Q 79.640625 56 84.28125 50.015625 
Q 88.921875 44.046875 88.921875 33.015625 
L 88.921875 0 
L 79.890625 0 
L 79.890625 32.71875 
Q 79.890625 40.578125 77.09375 44.375 
Q 74.3125 48.1875 68.609375 48.1875 
Q 61.625 48.1875 57.5625 43.546875 
Q 53.515625 38.921875 53.515625 30.90625 
L 53.515625 0 
L 44.484375 0 
L 44.484375 32.71875 
Q 44.484375 40.625 41.703125 44.40625 
Q 38.921875 48.1875 33.109375 48.1875 
Q 26.21875 48.1875 22.15625 43.53125 
Q 18.109375 38.875 18.109375 30.90625 
L 18.109375 0 
L 9.078125 0 
L 9.078125 54.6875 
L 18.109375 54.6875 
L 18.109375 46.1875 
Q 21.1875 51.21875 25.484375 53.609375 
Q 29.78125 56 35.6875 56 
Q 41.65625 56 45.828125 52.96875 
Q 50 49.953125 52 44.1875 
z
" id="DejaVuSans-109"/>
     </defs>
     <g transform="translate(72.748125 306.290394)scale(0.08 -0.08)">
      <use xlink:href="#DejaVuSans-83"/>
      <use x="63.476562" xlink:href="#DejaVuSans-102"/>
      <use x="98.681641" xlink:href="#DejaVuSans-117"/>
      <use x="162.060547" xlink:href="#DejaVuSans-45"/>
      <use x="198.113281" xlink:href="#DejaVuSans-65"/>
      <use x="266.521484" xlink:href="#DejaVuSans-66"/>
      <use x="335.125" xlink:href="#DejaVuSans-97"/>
      <use x="396.404297" xlink:href="#DejaVuSans-105"/>
      <use x="424.1875" xlink:href="#DejaVuSans-95"/>
      <use x="474.1875" xlink:href="#DejaVuSans-48"/>
      <use x="537.810547" xlink:href="#DejaVuSans-48"/>
      <use x="601.433594" xlink:href="#DejaVuSans-53"/>
      <use x="665.056641" xlink:href="#DejaVuSans-45"/>
      <use x="701.140625" xlink:href="#DejaVuSans-69"/>
      <use x="764.324219" xlink:href="#DejaVuSans-120"/>
      <use x="823.503906" xlink:href="#DejaVuSans-49"/>
      <use x="887.126953" xlink:href="#DejaVuSans-45"/>
      <use x="923.210938" xlink:href="#DejaVuSans-49"/>
      <use x="986.833984" xlink:href="#DejaVuSans-65"/>
      <use x="1055.210938" xlink:href="#DejaVuSans-45"/>
      <use x="1091.294922" xlink:href="#DejaVuSans-108"/>
      <use x="1119.078125" xlink:href="#DejaVuSans-99"/>
      <use x="1174.058594" xlink:href="#DejaVuSans-119"/>
      <use x="1255.845703" xlink:href="#DejaVuSans-103"/>
      <use x="1319.322266" xlink:href="#DejaVuSans-115"/>
      <use x="1371.421875" xlink:href="#DejaVuSans-45"/>
      <use x="1407.505859" xlink:href="#DejaVuSans-49"/>
      <use x="1471.128906" xlink:href="#DejaVuSans-45"/>
      <use x="1507.212891" xlink:href="#DejaVuSans-49"/>
      <use x="1570.835938" xlink:href="#DejaVuSans-46"/>
      <use x="1602.623047" xlink:href="#DejaVuSans-99"/>
      <use x="1657.603516" xlink:href="#DejaVuSans-108"/>
      <use x="1685.386719" xlink:href="#DejaVuSans-109"/>
      <use x="1782.798828" xlink:href="#DejaVuSans-112"/>
      <use x="1846.275391" xlink:href="#DejaVuSans-46"/>
      <use x="1878.0625" xlink:href="#DejaVuSans-114"/>
      <use x="1919.175781" xlink:href="#DejaVuSans-49"/>
      <use x="1982.798828" xlink:href="#DejaVuSans-114"/>
      <use x="2023.912109" xlink:href="#DejaVuSans-50"/>
      <use x="2087.535156" xlink:href="#DejaVuSans-95"/>
      <use x="2137.535156" xlink:href="#DejaVuSans-102"/>
      <use x="2172.740234" xlink:href="#DejaVuSans-97"/>
      <use x="2234.019531" xlink:href="#DejaVuSans-115"/>
      <use x="2286.119141" xlink:href="#DejaVuSans-116"/>
      <use x="2325.328125" xlink:href="#DejaVuSans-112"/>
     </g>
    </g>
    <g id="line2d_18">
     <path d="M 50.348125 315.455394 
L 66.348125 315.455394 
" style="fill:none;stroke:#434348;stroke-linecap:square;"/>
    </g>
    <g id="line2d_19"/>
    <g id="text_19">
     <!-- Sfu-ABai_006-Ex1-1B-lcwgs-1-1.clmp.r1r2_fastp -->
     <g transform="translate(72.748125 318.255394)scale(0.08 -0.08)">
      <use xlink:href="#DejaVuSans-83"/>
      <use x="63.476562" xlink:href="#DejaVuSans-102"/>
      <use x="98.681641" xlink:href="#DejaVuSans-117"/>
      <use x="162.060547" xlink:href="#DejaVuSans-45"/>
      <use x="198.113281" xlink:href="#DejaVuSans-65"/>
      <use x="266.521484" xlink:href="#DejaVuSans-66"/>
      <use x="335.125" xlink:href="#DejaVuSans-97"/>
      <use x="396.404297" xlink:href="#DejaVuSans-105"/>
      <use x="424.1875" xlink:href="#DejaVuSans-95"/>
      <use x="474.1875" xlink:href="#DejaVuSans-48"/>
      <use x="537.810547" xlink:href="#DejaVuSans-48"/>
      <use x="601.433594" xlink:href="#DejaVuSans-54"/>
      <use x="665.056641" xlink:href="#DejaVuSans-45"/>
      <use x="701.140625" xlink:href="#DejaVuSans-69"/>
      <use x="764.324219" xlink:href="#DejaVuSans-120"/>
      <use x="823.503906" xlink:href="#DejaVuSans-49"/>
      <use x="887.126953" xlink:href="#DejaVuSans-45"/>
      <use x="923.210938" xlink:href="#DejaVuSans-49"/>
      <use x="986.833984" xlink:href="#DejaVuSans-66"/>
      <use x="1055.4375" xlink:href="#DejaVuSans-45"/>
      <use x="1091.521484" xlink:href="#DejaVuSans-108"/>
      <use x="1119.304688" xlink:href="#DejaVuSans-99"/>
      <use x="1174.285156" xlink:href="#DejaVuSans-119"/>
      <use x="1256.072266" xlink:href="#DejaVuSans-103"/>
      <use x="1319.548828" xlink:href="#DejaVuSans-115"/>
      <use x="1371.648438" xlink:href="#DejaVuSans-45"/>
      <use x="1407.732422" xlink:href="#DejaVuSans-49"/>
      <use x="1471.355469" xlink:href="#DejaVuSans-45"/>
      <use x="1507.439453" xlink:href="#DejaVuSans-49"/>
      <use x="1571.0625" xlink:href="#DejaVuSans-46"/>
      <use x="1602.849609" xlink:href="#DejaVuSans-99"/>
      <use x="1657.830078" xlink:href="#DejaVuSans-108"/>
      <use x="1685.613281" xlink:href="#DejaVuSans-109"/>
      <use x="1783.025391" xlink:href="#DejaVuSans-112"/>
      <use x="1846.501953" xlink:href="#DejaVuSans-46"/>
      <use x="1878.289062" xlink:href="#DejaVuSans-114"/>
      <use x="1919.402344" xlink:href="#DejaVuSans-49"/>
      <use x="1983.025391" xlink:href="#DejaVuSans-114"/>
      <use x="2024.138672" xlink:href="#DejaVuSans-50"/>
      <use x="2087.761719" xlink:href="#DejaVuSans-95"/>
      <use x="2137.761719" xlink:href="#DejaVuSans-102"/>
      <use x="2172.966797" xlink:href="#DejaVuSans-97"/>
      <use x="2234.246094" xlink:href="#DejaVuSans-115"/>
      <use x="2286.345703" xlink:href="#DejaVuSans-116"/>
      <use x="2325.554688" xlink:href="#DejaVuSans-112"/>
     </g>
    </g>
    <g id="line2d_20">
     <path d="M 230.481563 303.490394 
L 246.481563 303.490394 
" style="fill:none;stroke:#90ed7d;stroke-linecap:square;"/>
    </g>
    <g id="line2d_21"/>
    <g id="text_20">
     <!-- Sfu-ABai_007-Ex1-1C-lcwgs-1-1.clmp.r1r2_fastp -->
     <defs>
      <path d="M 8.203125 72.90625 
L 55.078125 72.90625 
L 55.078125 68.703125 
L 28.609375 0 
L 18.3125 0 
L 43.21875 64.59375 
L 8.203125 64.59375 
z
" id="DejaVuSans-55"/>
     </defs>
     <g transform="translate(252.881563 306.290394)scale(0.08 -0.08)">
      <use xlink:href="#DejaVuSans-83"/>
      <use x="63.476562" xlink:href="#DejaVuSans-102"/>
      <use x="98.681641" xlink:href="#DejaVuSans-117"/>
      <use x="162.060547" xlink:href="#DejaVuSans-45"/>
      <use x="198.113281" xlink:href="#DejaVuSans-65"/>
      <use x="266.521484" xlink:href="#DejaVuSans-66"/>
      <use x="335.125" xlink:href="#DejaVuSans-97"/>
      <use x="396.404297" xlink:href="#DejaVuSans-105"/>
      <use x="424.1875" xlink:href="#DejaVuSans-95"/>
      <use x="474.1875" xlink:href="#DejaVuSans-48"/>
      <use x="537.810547" xlink:href="#DejaVuSans-48"/>
      <use x="601.433594" xlink:href="#DejaVuSans-55"/>
      <use x="665.056641" xlink:href="#DejaVuSans-45"/>
      <use x="701.140625" xlink:href="#DejaVuSans-69"/>
      <use x="764.324219" xlink:href="#DejaVuSans-120"/>
      <use x="823.503906" xlink:href="#DejaVuSans-49"/>
      <use x="887.126953" xlink:href="#DejaVuSans-45"/>
      <use x="923.210938" xlink:href="#DejaVuSans-49"/>
      <use x="986.833984" xlink:href="#DejaVuSans-67"/>
      <use x="1056.658203" xlink:href="#DejaVuSans-45"/>
      <use x="1092.742188" xlink:href="#DejaVuSans-108"/>
      <use x="1120.525391" xlink:href="#DejaVuSans-99"/>
      <use x="1175.505859" xlink:href="#DejaVuSans-119"/>
      <use x="1257.292969" xlink:href="#DejaVuSans-103"/>
      <use x="1320.769531" xlink:href="#DejaVuSans-115"/>
      <use x="1372.869141" xlink:href="#DejaVuSans-45"/>
      <use x="1408.953125" xlink:href="#DejaVuSans-49"/>
      <use x="1472.576172" xlink:href="#DejaVuSans-45"/>
      <use x="1508.660156" xlink:href="#DejaVuSans-49"/>
      <use x="1572.283203" xlink:href="#DejaVuSans-46"/>
      <use x="1604.070312" xlink:href="#DejaVuSans-99"/>
      <use x="1659.050781" xlink:href="#DejaVuSans-108"/>
      <use x="1686.833984" xlink:href="#DejaVuSans-109"/>
      <use x="1784.246094" xlink:href="#DejaVuSans-112"/>
      <use x="1847.722656" xlink:href="#DejaVuSans-46"/>
      <use x="1879.509766" xlink:href="#DejaVuSans-114"/>
      <use x="1920.623047" xlink:href="#DejaVuSans-49"/>
      <use x="1984.246094" xlink:href="#DejaVuSans-114"/>
      <use x="2025.359375" xlink:href="#DejaVuSans-50"/>
      <use x="2088.982422" xlink:href="#DejaVuSans-95"/>
      <use x="2138.982422" xlink:href="#DejaVuSans-102"/>
      <use x="2174.1875" xlink:href="#DejaVuSans-97"/>
      <use x="2235.466797" xlink:href="#DejaVuSans-115"/>
      <use x="2287.566406" xlink:href="#DejaVuSans-116"/>
      <use x="2326.775391" xlink:href="#DejaVuSans-112"/>
     </g>
    </g>
    <g id="line2d_22">
     <path d="M 230.481563 315.455394 
L 246.481563 315.455394 
" style="fill:none;stroke:#f7a35c;stroke-linecap:square;"/>
    </g>
    <g id="line2d_23"/>
    <g id="text_21">
     <!-- Sfu-ABai_008-Ex1-1D-lcwgs-1-1.clmp.r1r2_fastp -->
     <defs>
      <path d="M 19.671875 64.796875 
L 19.671875 8.109375 
L 31.59375 8.109375 
Q 46.6875 8.109375 53.6875 14.9375 
Q 60.6875 21.78125 60.6875 36.53125 
Q 60.6875 51.171875 53.6875 57.984375 
Q 46.6875 64.796875 31.59375 64.796875 
z
M 9.8125 72.90625 
L 30.078125 72.90625 
Q 51.265625 72.90625 61.171875 64.09375 
Q 71.09375 55.28125 71.09375 36.53125 
Q 71.09375 17.671875 61.125 8.828125 
Q 51.171875 0 30.078125 0 
L 9.8125 0 
z
" id="DejaVuSans-68"/>
     </defs>
     <g transform="translate(252.881563 318.255394)scale(0.08 -0.08)">
      <use xlink:href="#DejaVuSans-83"/>
      <use x="63.476562" xlink:href="#DejaVuSans-102"/>
      <use x="98.681641" xlink:href="#DejaVuSans-117"/>
      <use x="162.060547" xlink:href="#DejaVuSans-45"/>
      <use x="198.113281" xlink:href="#DejaVuSans-65"/>
      <use x="266.521484" xlink:href="#DejaVuSans-66"/>
      <use x="335.125" xlink:href="#DejaVuSans-97"/>
      <use x="396.404297" xlink:href="#DejaVuSans-105"/>
      <use x="424.1875" xlink:href="#DejaVuSans-95"/>
      <use x="474.1875" xlink:href="#DejaVuSans-48"/>
      <use x="537.810547" xlink:href="#DejaVuSans-48"/>
      <use x="601.433594" xlink:href="#DejaVuSans-56"/>
      <use x="665.056641" xlink:href="#DejaVuSans-45"/>
      <use x="701.140625" xlink:href="#DejaVuSans-69"/>
      <use x="764.324219" xlink:href="#DejaVuSans-120"/>
      <use x="823.503906" xlink:href="#DejaVuSans-49"/>
      <use x="887.126953" xlink:href="#DejaVuSans-45"/>
      <use x="923.210938" xlink:href="#DejaVuSans-49"/>
      <use x="986.833984" xlink:href="#DejaVuSans-68"/>
      <use x="1063.835938" xlink:href="#DejaVuSans-45"/>
      <use x="1099.919922" xlink:href="#DejaVuSans-108"/>
      <use x="1127.703125" xlink:href="#DejaVuSans-99"/>
      <use x="1182.683594" xlink:href="#DejaVuSans-119"/>
      <use x="1264.470703" xlink:href="#DejaVuSans-103"/>
      <use x="1327.947266" xlink:href="#DejaVuSans-115"/>
      <use x="1380.046875" xlink:href="#DejaVuSans-45"/>
      <use x="1416.130859" xlink:href="#DejaVuSans-49"/>
      <use x="1479.753906" xlink:href="#DejaVuSans-45"/>
      <use x="1515.837891" xlink:href="#DejaVuSans-49"/>
      <use x="1579.460938" xlink:href="#DejaVuSans-46"/>
      <use x="1611.248047" xlink:href="#DejaVuSans-99"/>
      <use x="1666.228516" xlink:href="#DejaVuSans-108"/>
      <use x="1694.011719" xlink:href="#DejaVuSans-109"/>
      <use x="1791.423828" xlink:href="#DejaVuSans-112"/>
      <use x="1854.900391" xlink:href="#DejaVuSans-46"/>
      <use x="1886.6875" xlink:href="#DejaVuSans-114"/>
      <use x="1927.800781" xlink:href="#DejaVuSans-49"/>
      <use x="1991.423828" xlink:href="#DejaVuSans-114"/>
      <use x="2032.537109" xlink:href="#DejaVuSans-50"/>
      <use x="2096.160156" xlink:href="#DejaVuSans-95"/>
      <use x="2146.160156" xlink:href="#DejaVuSans-102"/>
      <use x="2181.365234" xlink:href="#DejaVuSans-97"/>
      <use x="2242.644531" xlink:href="#DejaVuSans-115"/>
      <use x="2294.744141" xlink:href="#DejaVuSans-116"/>
      <use x="2333.953125" xlink:href="#DejaVuSans-112"/>
     </g>
    </g>
    <g id="line2d_24">
     <path d="M 411.28625 303.490394 
L 427.28625 303.490394 
" style="fill:none;stroke:#8085e9;stroke-linecap:square;"/>
    </g>
    <g id="line2d_25"/>
    <g id="text_22">
     <!-- Sfu-ABai_009-Ex1-1E-lcwgs-1-1.clmp.r1r2_fastp -->
     <defs>
      <path d="M 10.984375 1.515625 
L 10.984375 10.5 
Q 14.703125 8.734375 18.5 7.8125 
Q 22.3125 6.890625 25.984375 6.890625 
Q 35.75 6.890625 40.890625 13.453125 
Q 46.046875 20.015625 46.78125 33.40625 
Q 43.953125 29.203125 39.59375 26.953125 
Q 35.25 24.703125 29.984375 24.703125 
Q 19.046875 24.703125 12.671875 31.3125 
Q 6.296875 37.9375 6.296875 49.421875 
Q 6.296875 60.640625 12.9375 67.421875 
Q 19.578125 74.21875 30.609375 74.21875 
Q 43.265625 74.21875 49.921875 64.515625 
Q 56.59375 54.828125 56.59375 36.375 
Q 56.59375 19.140625 48.40625 8.859375 
Q 40.234375 -1.421875 26.421875 -1.421875 
Q 22.703125 -1.421875 18.890625 -0.6875 
Q 15.09375 0.046875 10.984375 1.515625 
z
M 30.609375 32.421875 
Q 37.25 32.421875 41.125 36.953125 
Q 45.015625 41.5 45.015625 49.421875 
Q 45.015625 57.28125 41.125 61.84375 
Q 37.25 66.40625 30.609375 66.40625 
Q 23.96875 66.40625 20.09375 61.84375 
Q 16.21875 57.28125 16.21875 49.421875 
Q 16.21875 41.5 20.09375 36.953125 
Q 23.96875 32.421875 30.609375 32.421875 
z
" id="DejaVuSans-57"/>
     </defs>
     <g transform="translate(433.68625 306.290394)scale(0.08 -0.08)">
      <use xlink:href="#DejaVuSans-83"/>
      <use x="63.476562" xlink:href="#DejaVuSans-102"/>
      <use x="98.681641" xlink:href="#DejaVuSans-117"/>
      <use x="162.060547" xlink:href="#DejaVuSans-45"/>
      <use x="198.113281" xlink:href="#DejaVuSans-65"/>
      <use x="266.521484" xlink:href="#DejaVuSans-66"/>
      <use x="335.125" xlink:href="#DejaVuSans-97"/>
      <use x="396.404297" xlink:href="#DejaVuSans-105"/>
      <use x="424.1875" xlink:href="#DejaVuSans-95"/>
      <use x="474.1875" xlink:href="#DejaVuSans-48"/>
      <use x="537.810547" xlink:href="#DejaVuSans-48"/>
      <use x="601.433594" xlink:href="#DejaVuSans-57"/>
      <use x="665.056641" xlink:href="#DejaVuSans-45"/>
      <use x="701.140625" xlink:href="#DejaVuSans-69"/>
      <use x="764.324219" xlink:href="#DejaVuSans-120"/>
      <use x="823.503906" xlink:href="#DejaVuSans-49"/>
      <use x="887.126953" xlink:href="#DejaVuSans-45"/>
      <use x="923.210938" xlink:href="#DejaVuSans-49"/>
      <use x="986.833984" xlink:href="#DejaVuSans-69"/>
      <use x="1050.017578" xlink:href="#DejaVuSans-45"/>
      <use x="1086.101562" xlink:href="#DejaVuSans-108"/>
      <use x="1113.884766" xlink:href="#DejaVuSans-99"/>
      <use x="1168.865234" xlink:href="#DejaVuSans-119"/>
      <use x="1250.652344" xlink:href="#DejaVuSans-103"/>
      <use x="1314.128906" xlink:href="#DejaVuSans-115"/>
      <use x="1366.228516" xlink:href="#DejaVuSans-45"/>
      <use x="1402.3125" xlink:href="#DejaVuSans-49"/>
      <use x="1465.935547" xlink:href="#DejaVuSans-45"/>
      <use x="1502.019531" xlink:href="#DejaVuSans-49"/>
      <use x="1565.642578" xlink:href="#DejaVuSans-46"/>
      <use x="1597.429688" xlink:href="#DejaVuSans-99"/>
      <use x="1652.410156" xlink:href="#DejaVuSans-108"/>
      <use x="1680.193359" xlink:href="#DejaVuSans-109"/>
      <use x="1777.605469" xlink:href="#DejaVuSans-112"/>
      <use x="1841.082031" xlink:href="#DejaVuSans-46"/>
      <use x="1872.869141" xlink:href="#DejaVuSans-114"/>
      <use x="1913.982422" xlink:href="#DejaVuSans-49"/>
      <use x="1977.605469" xlink:href="#DejaVuSans-114"/>
      <use x="2018.71875" xlink:href="#DejaVuSans-50"/>
      <use x="2082.341797" xlink:href="#DejaVuSans-95"/>
      <use x="2132.341797" xlink:href="#DejaVuSans-102"/>
      <use x="2167.546875" xlink:href="#DejaVuSans-97"/>
      <use x="2228.826172" xlink:href="#DejaVuSans-115"/>
      <use x="2280.925781" xlink:href="#DejaVuSans-116"/>
      <use x="2320.134766" xlink:href="#DejaVuSans-112"/>
     </g>
    </g>
    <g id="line2d_26">
     <path d="M 411.28625 315.455394 
L 427.28625 315.455394 
" style="fill:none;stroke:#f15c80;stroke-linecap:square;"/>
    </g>
    <g id="line2d_27"/>
    <g id="text_23">
     <!-- Sfu-ABai_010-Ex1-1F-lcwgs-1-1.clmp.r1r2_fastp -->
     <g transform="translate(433.68625 318.255394)scale(0.08 -0.08)">
      <use xlink:href="#DejaVuSans-83"/>
      <use x="63.476562" xlink:href="#DejaVuSans-102"/>
      <use x="98.681641" xlink:href="#DejaVuSans-117"/>
      <use x="162.060547" xlink:href="#DejaVuSans-45"/>
      <use x="198.113281" xlink:href="#DejaVuSans-65"/>
      <use x="266.521484" xlink:href="#DejaVuSans-66"/>
      <use x="335.125" xlink:href="#DejaVuSans-97"/>
      <use x="396.404297" xlink:href="#DejaVuSans-105"/>
      <use x="424.1875" xlink:href="#DejaVuSans-95"/>
      <use x="474.1875" xlink:href="#DejaVuSans-48"/>
      <use x="537.810547" xlink:href="#DejaVuSans-49"/>
      <use x="601.433594" xlink:href="#DejaVuSans-48"/>
      <use x="665.056641" xlink:href="#DejaVuSans-45"/>
      <use x="701.140625" xlink:href="#DejaVuSans-69"/>
      <use x="764.324219" xlink:href="#DejaVuSans-120"/>
      <use x="823.503906" xlink:href="#DejaVuSans-49"/>
      <use x="887.126953" xlink:href="#DejaVuSans-45"/>
      <use x="923.210938" xlink:href="#DejaVuSans-49"/>
      <use x="986.833984" xlink:href="#DejaVuSans-70"/>
      <use x="1044.353516" xlink:href="#DejaVuSans-45"/>
      <use x="1080.4375" xlink:href="#DejaVuSans-108"/>
      <use x="1108.220703" xlink:href="#DejaVuSans-99"/>
      <use x="1163.201172" xlink:href="#DejaVuSans-119"/>
      <use x="1244.988281" xlink:href="#DejaVuSans-103"/>
      <use x="1308.464844" xlink:href="#DejaVuSans-115"/>
      <use x="1360.564453" xlink:href="#DejaVuSans-45"/>
      <use x="1396.648438" xlink:href="#DejaVuSans-49"/>
      <use x="1460.271484" xlink:href="#DejaVuSans-45"/>
      <use x="1496.355469" xlink:href="#DejaVuSans-49"/>
      <use x="1559.978516" xlink:href="#DejaVuSans-46"/>
      <use x="1591.765625" xlink:href="#DejaVuSans-99"/>
      <use x="1646.746094" xlink:href="#DejaVuSans-108"/>
      <use x="1674.529297" xlink:href="#DejaVuSans-109"/>
      <use x="1771.941406" xlink:href="#DejaVuSans-112"/>
      <use x="1835.417969" xlink:href="#DejaVuSans-46"/>
      <use x="1867.205078" xlink:href="#DejaVuSans-114"/>
      <use x="1908.318359" xlink:href="#DejaVuSans-49"/>
      <use x="1971.941406" xlink:href="#DejaVuSans-114"/>
      <use x="2013.054688" xlink:href="#DejaVuSans-50"/>
      <use x="2076.677734" xlink:href="#DejaVuSans-95"/>
      <use x="2126.677734" xlink:href="#DejaVuSans-102"/>
      <use x="2161.882812" xlink:href="#DejaVuSans-97"/>
      <use x="2223.162109" xlink:href="#DejaVuSans-115"/>
      <use x="2275.261719" xlink:href="#DejaVuSans-116"/>
      <use x="2314.470703" xlink:href="#DejaVuSans-112"/>
     </g>
    </g>
    <g id="line2d_28">
     <path d="M 590.985937 303.490394 
L 606.985937 303.490394 
" style="fill:none;stroke:#e4d354;stroke-linecap:square;"/>
    </g>
    <g id="line2d_29"/>
    <g id="text_24">
     <!-- Sfu-ABai_011-Ex1-1G-lcwgs-1-1.clmp.r1r2_fastp -->
     <g transform="translate(613.385937 306.290394)scale(0.08 -0.08)">
      <use xlink:href="#DejaVuSans-83"/>
      <use x="63.476562" xlink:href="#DejaVuSans-102"/>
      <use x="98.681641" xlink:href="#DejaVuSans-117"/>
      <use x="162.060547" xlink:href="#DejaVuSans-45"/>
      <use x="198.113281" xlink:href="#DejaVuSans-65"/>
      <use x="266.521484" xlink:href="#DejaVuSans-66"/>
      <use x="335.125" xlink:href="#DejaVuSans-97"/>
      <use x="396.404297" xlink:href="#DejaVuSans-105"/>
      <use x="424.1875" xlink:href="#DejaVuSans-95"/>
      <use x="474.1875" xlink:href="#DejaVuSans-48"/>
      <use x="537.810547" xlink:href="#DejaVuSans-49"/>
      <use x="601.433594" xlink:href="#DejaVuSans-49"/>
      <use x="665.056641" xlink:href="#DejaVuSans-45"/>
      <use x="701.140625" xlink:href="#DejaVuSans-69"/>
      <use x="764.324219" xlink:href="#DejaVuSans-120"/>
      <use x="823.503906" xlink:href="#DejaVuSans-49"/>
      <use x="887.126953" xlink:href="#DejaVuSans-45"/>
      <use x="923.210938" xlink:href="#DejaVuSans-49"/>
      <use x="986.833984" xlink:href="#DejaVuSans-71"/>
      <use x="1064.324219" xlink:href="#DejaVuSans-45"/>
      <use x="1100.408203" xlink:href="#DejaVuSans-108"/>
      <use x="1128.191406" xlink:href="#DejaVuSans-99"/>
      <use x="1183.171875" xlink:href="#DejaVuSans-119"/>
      <use x="1264.958984" xlink:href="#DejaVuSans-103"/>
      <use x="1328.435547" xlink:href="#DejaVuSans-115"/>
      <use x="1380.535156" xlink:href="#DejaVuSans-45"/>
      <use x="1416.619141" xlink:href="#DejaVuSans-49"/>
      <use x="1480.242188" xlink:href="#DejaVuSans-45"/>
      <use x="1516.326172" xlink:href="#DejaVuSans-49"/>
      <use x="1579.949219" xlink:href="#DejaVuSans-46"/>
      <use x="1611.736328" xlink:href="#DejaVuSans-99"/>
      <use x="1666.716797" xlink:href="#DejaVuSans-108"/>
      <use x="1694.5" xlink:href="#DejaVuSans-109"/>
      <use x="1791.912109" xlink:href="#DejaVuSans-112"/>
      <use x="1855.388672" xlink:href="#DejaVuSans-46"/>
      <use x="1887.175781" xlink:href="#DejaVuSans-114"/>
      <use x="1928.289062" xlink:href="#DejaVuSans-49"/>
      <use x="1991.912109" xlink:href="#DejaVuSans-114"/>
      <use x="2033.025391" xlink:href="#DejaVuSans-50"/>
      <use x="2096.648438" xlink:href="#DejaVuSans-95"/>
      <use x="2146.648438" xlink:href="#DejaVuSans-102"/>
      <use x="2181.853516" xlink:href="#DejaVuSans-97"/>
      <use x="2243.132812" xlink:href="#DejaVuSans-115"/>
      <use x="2295.232422" xlink:href="#DejaVuSans-116"/>
      <use x="2334.441406" xlink:href="#DejaVuSans-112"/>
     </g>
    </g>
    <g id="line2d_30">
     <path d="M 771.829375 303.490394 
L 787.829375 303.490394 
" style="fill:none;stroke:#2b908f;stroke-linecap:square;"/>
    </g>
    <g id="line2d_31"/>
    <g id="text_25">
     <!-- Sfu-ABai_012-Ex1-1H-lcwgs-1-1.clmp.r1r2_fastp -->
     <defs>
      <path d="M 9.8125 72.90625 
L 19.671875 72.90625 
L 19.671875 43.015625 
L 55.515625 43.015625 
L 55.515625 72.90625 
L 65.375 72.90625 
L 65.375 0 
L 55.515625 0 
L 55.515625 34.71875 
L 19.671875 34.71875 
L 19.671875 0 
L 9.8125 0 
z
" id="DejaVuSans-72"/>
     </defs>
     <g transform="translate(794.229375 306.290394)scale(0.08 -0.08)">
      <use xlink:href="#DejaVuSans-83"/>
      <use x="63.476562" xlink:href="#DejaVuSans-102"/>
      <use x="98.681641" xlink:href="#DejaVuSans-117"/>
      <use x="162.060547" xlink:href="#DejaVuSans-45"/>
      <use x="198.113281" xlink:href="#DejaVuSans-65"/>
      <use x="266.521484" xlink:href="#DejaVuSans-66"/>
      <use x="335.125" xlink:href="#DejaVuSans-97"/>
      <use x="396.404297" xlink:href="#DejaVuSans-105"/>
      <use x="424.1875" xlink:href="#DejaVuSans-95"/>
      <use x="474.1875" xlink:href="#DejaVuSans-48"/>
      <use x="537.810547" xlink:href="#DejaVuSans-49"/>
      <use x="601.433594" xlink:href="#DejaVuSans-50"/>
      <use x="665.056641" xlink:href="#DejaVuSans-45"/>
      <use x="701.140625" xlink:href="#DejaVuSans-69"/>
      <use x="764.324219" xlink:href="#DejaVuSans-120"/>
      <use x="823.503906" xlink:href="#DejaVuSans-49"/>
      <use x="887.126953" xlink:href="#DejaVuSans-45"/>
      <use x="923.210938" xlink:href="#DejaVuSans-49"/>
      <use x="986.833984" xlink:href="#DejaVuSans-72"/>
      <use x="1062.029297" xlink:href="#DejaVuSans-45"/>
      <use x="1098.113281" xlink:href="#DejaVuSans-108"/>
      <use x="1125.896484" xlink:href="#DejaVuSans-99"/>
      <use x="1180.876953" xlink:href="#DejaVuSans-119"/>
      <use x="1262.664062" xlink:href="#DejaVuSans-103"/>
      <use x="1326.140625" xlink:href="#DejaVuSans-115"/>
      <use x="1378.240234" xlink:href="#DejaVuSans-45"/>
      <use x="1414.324219" xlink:href="#DejaVuSans-49"/>
      <use x="1477.947266" xlink:href="#DejaVuSans-45"/>
      <use x="1514.03125" xlink:href="#DejaVuSans-49"/>
      <use x="1577.654297" xlink:href="#DejaVuSans-46"/>
      <use x="1609.441406" xlink:href="#DejaVuSans-99"/>
      <use x="1664.421875" xlink:href="#DejaVuSans-108"/>
      <use x="1692.205078" xlink:href="#DejaVuSans-109"/>
      <use x="1789.617188" xlink:href="#DejaVuSans-112"/>
      <use x="1853.09375" xlink:href="#DejaVuSans-46"/>
      <use x="1884.880859" xlink:href="#DejaVuSans-114"/>
      <use x="1925.994141" xlink:href="#DejaVuSans-49"/>
      <use x="1989.617188" xlink:href="#DejaVuSans-114"/>
      <use x="2030.730469" xlink:href="#DejaVuSans-50"/>
      <use x="2094.353516" xlink:href="#DejaVuSans-95"/>
      <use x="2144.353516" xlink:href="#DejaVuSans-102"/>
      <use x="2179.558594" xlink:href="#DejaVuSans-97"/>
      <use x="2240.837891" xlink:href="#DejaVuSans-115"/>
      <use x="2292.9375" xlink:href="#DejaVuSans-116"/>
      <use x="2332.146484" xlink:href="#DejaVuSans-112"/>
     </g>
    </g>
   </g>
  </g>
 </g>
 <defs>
  <clipPath id="p9299a8736f">
   <rect height="242.5072" width="949.93" x="43.148125" y="31.48286"/>
  </clipPath>
 </defs>
</svg>
