<?xml version="1.0" encoding="utf-8" standalone="no"?>
<!DOCTYPE svg PUBLIC "-//W3C//DTD SVG 1.1//EN"
  "http://www.w3.org/Graphics/SVG/1.1/DTD/svg11.dtd">
<!-- Created with matplotlib (https://matplotlib.org/) -->
<svg height="388.844525pt" version="1.1" viewBox="0 0 1000.358125 388.844525" width="1000.358125pt" xmlns="http://www.w3.org/2000/svg" xmlns:xlink="http://www.w3.org/1999/xlink">
 <defs>
  <style type="text/css">
*{stroke-linecap:butt;stroke-linejoin:round;}
  </style>
 </defs>
 <g id="figure_1">
  <g id="axes_1">
   <g id="patch_1">
    <path d="M 32.968125 353.2239 
L 993.158125 353.2239 
L 993.158125 35.2559 
L 32.968125 35.2559 
z
" style="fill:#ffffff;"/>
   </g>
   <g id="matplotlib.axis_1">
    <g id="xtick_1">
     <g id="text_1">
      <!-- 0 -->
      <defs>
       <path d="M 31.78125 66.40625 
Q 24.171875 66.40625 20.328125 58.90625 
Q 16.5 51.421875 16.5 36.375 
Q 16.5 21.390625 20.328125 13.890625 
Q 24.171875 6.390625 31.78125 6.390625 
Q 39.453125 6.390625 43.28125 13.890625 
Q 47.125 21.390625 47.125 36.375 
Q 47.125 51.421875 43.28125 58.90625 
Q 39.453125 66.40625 31.78125 66.40625 
z
M 31.78125 74.21875 
Q 44.046875 74.21875 50.515625 64.515625 
Q 56.984375 54.828125 56.984375 36.375 
Q 56.984375 17.96875 50.515625 8.265625 
Q 44.046875 -1.421875 31.78125 -1.421875 
Q 19.53125 -1.421875 13.0625 8.265625 
Q 6.59375 17.96875 6.59375 36.375 
Q 6.59375 54.828125 13.0625 64.515625 
Q 19.53125 74.21875 31.78125 74.21875 
z
" id="DejaVuSans-48"/>
      </defs>
      <g transform="translate(68.209736 366.30265)scale(0.08 -0.08)">
       <use xlink:href="#DejaVuSans-48"/>
      </g>
     </g>
    </g>
    <g id="xtick_2">
     <g id="text_2">
      <!-- 20 -->
      <defs>
       <path d="M 19.1875 8.296875 
L 53.609375 8.296875 
L 53.609375 0 
L 7.328125 0 
L 7.328125 8.296875 
Q 12.9375 14.109375 22.625 23.890625 
Q 32.328125 33.6875 34.8125 36.53125 
Q 39.546875 41.84375 41.421875 45.53125 
Q 43.3125 49.21875 43.3125 52.78125 
Q 43.3125 58.59375 39.234375 62.25 
Q 35.15625 65.921875 28.609375 65.921875 
Q 23.96875 65.921875 18.8125 64.3125 
Q 13.671875 62.703125 7.8125 59.421875 
L 7.8125 69.390625 
Q 13.765625 71.78125 18.9375 73 
Q 24.125 74.21875 28.421875 74.21875 
Q 39.75 74.21875 46.484375 68.546875 
Q 53.21875 62.890625 53.21875 53.421875 
Q 53.21875 48.921875 51.53125 44.890625 
Q 49.859375 40.875 45.40625 35.40625 
Q 44.1875 33.984375 37.640625 27.21875 
Q 31.109375 20.453125 19.1875 8.296875 
z
" id="DejaVuSans-50"/>
      </defs>
      <g transform="translate(182.832521 366.30265)scale(0.08 -0.08)">
       <use xlink:href="#DejaVuSans-50"/>
       <use x="63.623047" xlink:href="#DejaVuSans-48"/>
      </g>
     </g>
    </g>
    <g id="xtick_3">
     <g id="text_3">
      <!-- 40 -->
      <defs>
       <path d="M 37.796875 64.3125 
L 12.890625 25.390625 
L 37.796875 25.390625 
z
M 35.203125 72.90625 
L 47.609375 72.90625 
L 47.609375 25.390625 
L 58.015625 25.390625 
L 58.015625 17.1875 
L 47.609375 17.1875 
L 47.609375 0 
L 37.796875 0 
L 37.796875 17.1875 
L 4.890625 17.1875 
L 4.890625 26.703125 
z
" id="DejaVuSans-52"/>
      </defs>
      <g transform="translate(300.000306 366.30265)scale(0.08 -0.08)">
       <use xlink:href="#DejaVuSans-52"/>
       <use x="63.623047" xlink:href="#DejaVuSans-48"/>
      </g>
     </g>
    </g>
    <g id="xtick_4">
     <g id="text_4">
      <!-- 60 -->
      <defs>
       <path d="M 33.015625 40.375 
Q 26.375 40.375 22.484375 35.828125 
Q 18.609375 31.296875 18.609375 23.390625 
Q 18.609375 15.53125 22.484375 10.953125 
Q 26.375 6.390625 33.015625 6.390625 
Q 39.65625 6.390625 43.53125 10.953125 
Q 47.40625 15.53125 47.40625 23.390625 
Q 47.40625 31.296875 43.53125 35.828125 
Q 39.65625 40.375 33.015625 40.375 
z
M 52.59375 71.296875 
L 52.59375 62.3125 
Q 48.875 64.0625 45.09375 64.984375 
Q 41.3125 65.921875 37.59375 65.921875 
Q 27.828125 65.921875 22.671875 59.328125 
Q 17.53125 52.734375 16.796875 39.40625 
Q 19.671875 43.65625 24.015625 45.921875 
Q 28.375 48.1875 33.59375 48.1875 
Q 44.578125 48.1875 50.953125 41.515625 
Q 57.328125 34.859375 57.328125 23.390625 
Q 57.328125 12.15625 50.6875 5.359375 
Q 44.046875 -1.421875 33.015625 -1.421875 
Q 20.359375 -1.421875 13.671875 8.265625 
Q 6.984375 17.96875 6.984375 36.375 
Q 6.984375 53.65625 15.1875 63.9375 
Q 23.390625 74.21875 37.203125 74.21875 
Q 40.921875 74.21875 44.703125 73.484375 
Q 48.484375 72.75 52.59375 71.296875 
z
" id="DejaVuSans-54"/>
      </defs>
      <g transform="translate(417.168091 366.30265)scale(0.08 -0.08)">
       <use xlink:href="#DejaVuSans-54"/>
       <use x="63.623047" xlink:href="#DejaVuSans-48"/>
      </g>
     </g>
    </g>
    <g id="xtick_5">
     <g id="text_5">
      <!-- 80 -->
      <defs>
       <path d="M 31.78125 34.625 
Q 24.75 34.625 20.71875 30.859375 
Q 16.703125 27.09375 16.703125 20.515625 
Q 16.703125 13.921875 20.71875 10.15625 
Q 24.75 6.390625 31.78125 6.390625 
Q 38.8125 6.390625 42.859375 10.171875 
Q 46.921875 13.96875 46.921875 20.515625 
Q 46.921875 27.09375 42.890625 30.859375 
Q 38.875 34.625 31.78125 34.625 
z
M 21.921875 38.8125 
Q 15.578125 40.375 12.03125 44.71875 
Q 8.5 49.078125 8.5 55.328125 
Q 8.5 64.0625 14.71875 69.140625 
Q 20.953125 74.21875 31.78125 74.21875 
Q 42.671875 74.21875 48.875 69.140625 
Q 55.078125 64.0625 55.078125 55.328125 
Q 55.078125 49.078125 51.53125 44.71875 
Q 48 40.375 41.703125 38.8125 
Q 48.828125 37.15625 52.796875 32.3125 
Q 56.78125 27.484375 56.78125 20.515625 
Q 56.78125 9.90625 50.3125 4.234375 
Q 43.84375 -1.421875 31.78125 -1.421875 
Q 19.734375 -1.421875 13.25 4.234375 
Q 6.78125 9.90625 6.78125 20.515625 
Q 6.78125 27.484375 10.78125 32.3125 
Q 14.796875 37.15625 21.921875 38.8125 
z
M 18.3125 54.390625 
Q 18.3125 48.734375 21.84375 45.5625 
Q 25.390625 42.390625 31.78125 42.390625 
Q 38.140625 42.390625 41.71875 45.5625 
Q 45.3125 48.734375 45.3125 54.390625 
Q 45.3125 60.0625 41.71875 63.234375 
Q 38.140625 66.40625 31.78125 66.40625 
Q 25.390625 66.40625 21.84375 63.234375 
Q 18.3125 60.0625 18.3125 54.390625 
z
" id="DejaVuSans-56"/>
      </defs>
      <g transform="translate(534.335877 366.30265)scale(0.08 -0.08)">
       <use xlink:href="#DejaVuSans-56"/>
       <use x="63.623047" xlink:href="#DejaVuSans-48"/>
      </g>
     </g>
    </g>
    <g id="xtick_6">
     <g id="text_6">
      <!-- 100 -->
      <defs>
       <path d="M 12.40625 8.296875 
L 28.515625 8.296875 
L 28.515625 63.921875 
L 10.984375 60.40625 
L 10.984375 69.390625 
L 28.421875 72.90625 
L 38.28125 72.90625 
L 38.28125 8.296875 
L 54.390625 8.296875 
L 54.390625 0 
L 12.40625 0 
z
" id="DejaVuSans-49"/>
      </defs>
      <g transform="translate(648.958662 366.30265)scale(0.08 -0.08)">
       <use xlink:href="#DejaVuSans-49"/>
       <use x="63.623047" xlink:href="#DejaVuSans-48"/>
       <use x="127.246094" xlink:href="#DejaVuSans-48"/>
      </g>
     </g>
    </g>
    <g id="xtick_7">
     <g id="text_7">
      <!-- 120 -->
      <g transform="translate(766.126447 366.30265)scale(0.08 -0.08)">
       <use xlink:href="#DejaVuSans-49"/>
       <use x="63.623047" xlink:href="#DejaVuSans-50"/>
       <use x="127.246094" xlink:href="#DejaVuSans-48"/>
      </g>
     </g>
    </g>
    <g id="xtick_8">
     <g id="text_8">
      <!-- 140 -->
      <g transform="translate(883.294232 366.30265)scale(0.08 -0.08)">
       <use xlink:href="#DejaVuSans-49"/>
       <use x="63.623047" xlink:href="#DejaVuSans-52"/>
       <use x="127.246094" xlink:href="#DejaVuSans-48"/>
      </g>
     </g>
    </g>
    <g id="text_9">
     <!-- Read Position -->
     <defs>
      <path d="M 44.390625 34.1875 
Q 47.5625 33.109375 50.5625 29.59375 
Q 53.5625 26.078125 56.59375 19.921875 
L 66.609375 0 
L 56 0 
L 46.6875 18.703125 
Q 43.0625 26.03125 39.671875 28.421875 
Q 36.28125 30.8125 30.421875 30.8125 
L 19.671875 30.8125 
L 19.671875 0 
L 9.8125 0 
L 9.8125 72.90625 
L 32.078125 72.90625 
Q 44.578125 72.90625 50.734375 67.671875 
Q 56.890625 62.453125 56.890625 51.90625 
Q 56.890625 45.015625 53.6875 40.46875 
Q 50.484375 35.9375 44.390625 34.1875 
z
M 19.671875 64.796875 
L 19.671875 38.921875 
L 32.078125 38.921875 
Q 39.203125 38.921875 42.84375 42.21875 
Q 46.484375 45.515625 46.484375 51.90625 
Q 46.484375 58.296875 42.84375 61.546875 
Q 39.203125 64.796875 32.078125 64.796875 
z
" id="DejaVuSans-82"/>
      <path d="M 56.203125 29.59375 
L 56.203125 25.203125 
L 14.890625 25.203125 
Q 15.484375 15.921875 20.484375 11.0625 
Q 25.484375 6.203125 34.421875 6.203125 
Q 39.59375 6.203125 44.453125 7.46875 
Q 49.3125 8.734375 54.109375 11.28125 
L 54.109375 2.78125 
Q 49.265625 0.734375 44.1875 -0.34375 
Q 39.109375 -1.421875 33.890625 -1.421875 
Q 20.796875 -1.421875 13.15625 6.1875 
Q 5.515625 13.8125 5.515625 26.8125 
Q 5.515625 40.234375 12.765625 48.109375 
Q 20.015625 56 32.328125 56 
Q 43.359375 56 49.78125 48.890625 
Q 56.203125 41.796875 56.203125 29.59375 
z
M 47.21875 32.234375 
Q 47.125 39.59375 43.09375 43.984375 
Q 39.0625 48.390625 32.421875 48.390625 
Q 24.90625 48.390625 20.390625 44.140625 
Q 15.875 39.890625 15.1875 32.171875 
z
" id="DejaVuSans-101"/>
      <path d="M 34.28125 27.484375 
Q 23.390625 27.484375 19.1875 25 
Q 14.984375 22.515625 14.984375 16.5 
Q 14.984375 11.71875 18.140625 8.90625 
Q 21.296875 6.109375 26.703125 6.109375 
Q 34.1875 6.109375 38.703125 11.40625 
Q 43.21875 16.703125 43.21875 25.484375 
L 43.21875 27.484375 
z
M 52.203125 31.203125 
L 52.203125 0 
L 43.21875 0 
L 43.21875 8.296875 
Q 40.140625 3.328125 35.546875 0.953125 
Q 30.953125 -1.421875 24.3125 -1.421875 
Q 15.921875 -1.421875 10.953125 3.296875 
Q 6 8.015625 6 15.921875 
Q 6 25.140625 12.171875 29.828125 
Q 18.359375 34.515625 30.609375 34.515625 
L 43.21875 34.515625 
L 43.21875 35.40625 
Q 43.21875 41.609375 39.140625 45 
Q 35.0625 48.390625 27.6875 48.390625 
Q 23 48.390625 18.546875 47.265625 
Q 14.109375 46.140625 10.015625 43.890625 
L 10.015625 52.203125 
Q 14.9375 54.109375 19.578125 55.046875 
Q 24.21875 56 28.609375 56 
Q 40.484375 56 46.34375 49.84375 
Q 52.203125 43.703125 52.203125 31.203125 
z
" id="DejaVuSans-97"/>
      <path d="M 45.40625 46.390625 
L 45.40625 75.984375 
L 54.390625 75.984375 
L 54.390625 0 
L 45.40625 0 
L 45.40625 8.203125 
Q 42.578125 3.328125 38.25 0.953125 
Q 33.9375 -1.421875 27.875 -1.421875 
Q 17.96875 -1.421875 11.734375 6.484375 
Q 5.515625 14.40625 5.515625 27.296875 
Q 5.515625 40.1875 11.734375 48.09375 
Q 17.96875 56 27.875 56 
Q 33.9375 56 38.25 53.625 
Q 42.578125 51.265625 45.40625 46.390625 
z
M 14.796875 27.296875 
Q 14.796875 17.390625 18.875 11.75 
Q 22.953125 6.109375 30.078125 6.109375 
Q 37.203125 6.109375 41.296875 11.75 
Q 45.40625 17.390625 45.40625 27.296875 
Q 45.40625 37.203125 41.296875 42.84375 
Q 37.203125 48.484375 30.078125 48.484375 
Q 22.953125 48.484375 18.875 42.84375 
Q 14.796875 37.203125 14.796875 27.296875 
z
" id="DejaVuSans-100"/>
      <path id="DejaVuSans-32"/>
      <path d="M 19.671875 64.796875 
L 19.671875 37.40625 
L 32.078125 37.40625 
Q 38.96875 37.40625 42.71875 40.96875 
Q 46.484375 44.53125 46.484375 51.125 
Q 46.484375 57.671875 42.71875 61.234375 
Q 38.96875 64.796875 32.078125 64.796875 
z
M 9.8125 72.90625 
L 32.078125 72.90625 
Q 44.34375 72.90625 50.609375 67.359375 
Q 56.890625 61.8125 56.890625 51.125 
Q 56.890625 40.328125 50.609375 34.8125 
Q 44.34375 29.296875 32.078125 29.296875 
L 19.671875 29.296875 
L 19.671875 0 
L 9.8125 0 
z
" id="DejaVuSans-80"/>
      <path d="M 30.609375 48.390625 
Q 23.390625 48.390625 19.1875 42.75 
Q 14.984375 37.109375 14.984375 27.296875 
Q 14.984375 17.484375 19.15625 11.84375 
Q 23.34375 6.203125 30.609375 6.203125 
Q 37.796875 6.203125 41.984375 11.859375 
Q 46.1875 17.53125 46.1875 27.296875 
Q 46.1875 37.015625 41.984375 42.703125 
Q 37.796875 48.390625 30.609375 48.390625 
z
M 30.609375 56 
Q 42.328125 56 49.015625 48.375 
Q 55.71875 40.765625 55.71875 27.296875 
Q 55.71875 13.875 49.015625 6.21875 
Q 42.328125 -1.421875 30.609375 -1.421875 
Q 18.84375 -1.421875 12.171875 6.21875 
Q 5.515625 13.875 5.515625 27.296875 
Q 5.515625 40.765625 12.171875 48.375 
Q 18.84375 56 30.609375 56 
z
" id="DejaVuSans-111"/>
      <path d="M 44.28125 53.078125 
L 44.28125 44.578125 
Q 40.484375 46.53125 36.375 47.5 
Q 32.28125 48.484375 27.875 48.484375 
Q 21.1875 48.484375 17.84375 46.4375 
Q 14.5 44.390625 14.5 40.28125 
Q 14.5 37.15625 16.890625 35.375 
Q 19.28125 33.59375 26.515625 31.984375 
L 29.59375 31.296875 
Q 39.15625 29.25 43.1875 25.515625 
Q 47.21875 21.78125 47.21875 15.09375 
Q 47.21875 7.46875 41.1875 3.015625 
Q 35.15625 -1.421875 24.609375 -1.421875 
Q 20.21875 -1.421875 15.453125 -0.5625 
Q 10.6875 0.296875 5.421875 2 
L 5.421875 11.28125 
Q 10.40625 8.6875 15.234375 7.390625 
Q 20.0625 6.109375 24.8125 6.109375 
Q 31.15625 6.109375 34.5625 8.28125 
Q 37.984375 10.453125 37.984375 14.40625 
Q 37.984375 18.0625 35.515625 20.015625 
Q 33.0625 21.96875 24.703125 23.78125 
L 21.578125 24.515625 
Q 13.234375 26.265625 9.515625 29.90625 
Q 5.8125 33.546875 5.8125 39.890625 
Q 5.8125 47.609375 11.28125 51.796875 
Q 16.75 56 26.8125 56 
Q 31.78125 56 36.171875 55.265625 
Q 40.578125 54.546875 44.28125 53.078125 
z
" id="DejaVuSans-115"/>
      <path d="M 9.421875 54.6875 
L 18.40625 54.6875 
L 18.40625 0 
L 9.421875 0 
z
M 9.421875 75.984375 
L 18.40625 75.984375 
L 18.40625 64.59375 
L 9.421875 64.59375 
z
" id="DejaVuSans-105"/>
      <path d="M 18.3125 70.21875 
L 18.3125 54.6875 
L 36.8125 54.6875 
L 36.8125 47.703125 
L 18.3125 47.703125 
L 18.3125 18.015625 
Q 18.3125 11.328125 20.140625 9.421875 
Q 21.96875 7.515625 27.59375 7.515625 
L 36.8125 7.515625 
L 36.8125 0 
L 27.59375 0 
Q 17.1875 0 13.234375 3.875 
Q 9.28125 7.765625 9.28125 18.015625 
L 9.28125 47.703125 
L 2.6875 47.703125 
L 2.6875 54.6875 
L 9.28125 54.6875 
L 9.28125 70.21875 
z
" id="DejaVuSans-116"/>
      <path d="M 54.890625 33.015625 
L 54.890625 0 
L 45.90625 0 
L 45.90625 32.71875 
Q 45.90625 40.484375 42.875 44.328125 
Q 39.84375 48.1875 33.796875 48.1875 
Q 26.515625 48.1875 22.3125 43.546875 
Q 18.109375 38.921875 18.109375 30.90625 
L 18.109375 0 
L 9.078125 0 
L 9.078125 54.6875 
L 18.109375 54.6875 
L 18.109375 46.1875 
Q 21.34375 51.125 25.703125 53.5625 
Q 30.078125 56 35.796875 56 
Q 45.21875 56 50.046875 50.171875 
Q 54.890625 44.34375 54.890625 33.015625 
z
" id="DejaVuSans-110"/>
     </defs>
     <g transform="translate(479.045156 379.564837)scale(0.1 -0.1)">
      <use xlink:href="#DejaVuSans-82"/>
      <use x="69.419922" xlink:href="#DejaVuSans-101"/>
      <use x="130.943359" xlink:href="#DejaVuSans-97"/>
      <use x="192.222656" xlink:href="#DejaVuSans-100"/>
      <use x="255.699219" xlink:href="#DejaVuSans-32"/>
      <use x="287.486328" xlink:href="#DejaVuSans-80"/>
      <use x="347.742188" xlink:href="#DejaVuSans-111"/>
      <use x="408.923828" xlink:href="#DejaVuSans-115"/>
      <use x="461.023438" xlink:href="#DejaVuSans-105"/>
      <use x="488.806641" xlink:href="#DejaVuSans-116"/>
      <use x="528.015625" xlink:href="#DejaVuSans-105"/>
      <use x="555.798828" xlink:href="#DejaVuSans-111"/>
      <use x="616.980469" xlink:href="#DejaVuSans-110"/>
     </g>
    </g>
   </g>
   <g id="matplotlib.axis_2">
    <g id="ytick_1">
     <g id="line2d_1">
      <path clip-path="url(#p0f8f92b17f)" d="M 32.968125 353.2239 
L 993.158125 353.2239 
" style="fill:none;stroke:#dedede;stroke-linecap:square;"/>
     </g>
     <g id="text_10">
      <!-- 0 -->
      <g transform="translate(20.878125 356.263275)scale(0.08 -0.08)">
       <use xlink:href="#DejaVuSans-48"/>
      </g>
     </g>
    </g>
    <g id="ytick_2">
     <g id="line2d_2">
      <path clip-path="url(#p0f8f92b17f)" d="M 32.968125 289.6303 
L 993.158125 289.6303 
" style="fill:none;stroke:#dedede;stroke-linecap:square;"/>
     </g>
     <g id="text_11">
      <!-- 1 -->
      <g transform="translate(20.878125 292.669675)scale(0.08 -0.08)">
       <use xlink:href="#DejaVuSans-49"/>
      </g>
     </g>
    </g>
    <g id="ytick_3">
     <g id="line2d_3">
      <path clip-path="url(#p0f8f92b17f)" d="M 32.968125 226.0367 
L 993.158125 226.0367 
" style="fill:none;stroke:#dedede;stroke-linecap:square;"/>
     </g>
     <g id="text_12">
      <!-- 2 -->
      <g transform="translate(20.878125 229.076075)scale(0.08 -0.08)">
       <use xlink:href="#DejaVuSans-50"/>
      </g>
     </g>
    </g>
    <g id="ytick_4">
     <g id="line2d_4">
      <path clip-path="url(#p0f8f92b17f)" d="M 32.968125 162.4431 
L 993.158125 162.4431 
" style="fill:none;stroke:#dedede;stroke-linecap:square;"/>
     </g>
     <g id="text_13">
      <!-- 3 -->
      <defs>
       <path d="M 40.578125 39.3125 
Q 47.65625 37.796875 51.625 33 
Q 55.609375 28.21875 55.609375 21.1875 
Q 55.609375 10.40625 48.1875 4.484375 
Q 40.765625 -1.421875 27.09375 -1.421875 
Q 22.515625 -1.421875 17.65625 -0.515625 
Q 12.796875 0.390625 7.625 2.203125 
L 7.625 11.71875 
Q 11.71875 9.328125 16.59375 8.109375 
Q 21.484375 6.890625 26.8125 6.890625 
Q 36.078125 6.890625 40.9375 10.546875 
Q 45.796875 14.203125 45.796875 21.1875 
Q 45.796875 27.640625 41.28125 31.265625 
Q 36.765625 34.90625 28.71875 34.90625 
L 20.21875 34.90625 
L 20.21875 43.015625 
L 29.109375 43.015625 
Q 36.375 43.015625 40.234375 45.921875 
Q 44.09375 48.828125 44.09375 54.296875 
Q 44.09375 59.90625 40.109375 62.90625 
Q 36.140625 65.921875 28.71875 65.921875 
Q 24.65625 65.921875 20.015625 65.03125 
Q 15.375 64.15625 9.8125 62.3125 
L 9.8125 71.09375 
Q 15.4375 72.65625 20.34375 73.4375 
Q 25.25 74.21875 29.59375 74.21875 
Q 40.828125 74.21875 47.359375 69.109375 
Q 53.90625 64.015625 53.90625 55.328125 
Q 53.90625 49.265625 50.4375 45.09375 
Q 46.96875 40.921875 40.578125 39.3125 
z
" id="DejaVuSans-51"/>
      </defs>
      <g transform="translate(20.878125 165.482475)scale(0.08 -0.08)">
       <use xlink:href="#DejaVuSans-51"/>
      </g>
     </g>
    </g>
    <g id="ytick_5">
     <g id="line2d_5">
      <path clip-path="url(#p0f8f92b17f)" d="M 32.968125 98.8495 
L 993.158125 98.8495 
" style="fill:none;stroke:#dedede;stroke-linecap:square;"/>
     </g>
     <g id="text_14">
      <!-- 4 -->
      <g transform="translate(20.878125 101.888875)scale(0.08 -0.08)">
       <use xlink:href="#DejaVuSans-52"/>
      </g>
     </g>
    </g>
    <g id="ytick_6">
     <g id="line2d_6">
      <path clip-path="url(#p0f8f92b17f)" d="M 32.968125 35.2559 
L 993.158125 35.2559 
" style="fill:none;stroke:#dedede;stroke-linecap:square;"/>
     </g>
     <g id="text_15">
      <!-- 5 -->
      <defs>
       <path d="M 10.796875 72.90625 
L 49.515625 72.90625 
L 49.515625 64.59375 
L 19.828125 64.59375 
L 19.828125 46.734375 
Q 21.96875 47.46875 24.109375 47.828125 
Q 26.265625 48.1875 28.421875 48.1875 
Q 40.625 48.1875 47.75 41.5 
Q 54.890625 34.8125 54.890625 23.390625 
Q 54.890625 11.625 47.5625 5.09375 
Q 40.234375 -1.421875 26.90625 -1.421875 
Q 22.3125 -1.421875 17.546875 -0.640625 
Q 12.796875 0.140625 7.71875 1.703125 
L 7.71875 11.625 
Q 12.109375 9.234375 16.796875 8.0625 
Q 21.484375 6.890625 26.703125 6.890625 
Q 35.15625 6.890625 40.078125 11.328125 
Q 45.015625 15.765625 45.015625 23.390625 
Q 45.015625 31 40.078125 35.4375 
Q 35.15625 39.890625 26.703125 39.890625 
Q 22.75 39.890625 18.8125 39.015625 
Q 14.890625 38.140625 10.796875 36.28125 
z
" id="DejaVuSans-53"/>
      </defs>
      <g transform="translate(20.878125 38.295275)scale(0.08 -0.08)">
       <use xlink:href="#DejaVuSans-53"/>
      </g>
     </g>
    </g>
    <g id="text_16">
     <!-- R2 After filtering: Base Content Percent -->
     <defs>
      <path d="M 34.1875 63.1875 
L 20.796875 26.90625 
L 47.609375 26.90625 
z
M 28.609375 72.90625 
L 39.796875 72.90625 
L 67.578125 0 
L 57.328125 0 
L 50.6875 18.703125 
L 17.828125 18.703125 
L 11.1875 0 
L 0.78125 0 
z
" id="DejaVuSans-65"/>
      <path d="M 37.109375 75.984375 
L 37.109375 68.5 
L 28.515625 68.5 
Q 23.6875 68.5 21.796875 66.546875 
Q 19.921875 64.59375 19.921875 59.515625 
L 19.921875 54.6875 
L 34.71875 54.6875 
L 34.71875 47.703125 
L 19.921875 47.703125 
L 19.921875 0 
L 10.890625 0 
L 10.890625 47.703125 
L 2.296875 47.703125 
L 2.296875 54.6875 
L 10.890625 54.6875 
L 10.890625 58.5 
Q 10.890625 67.625 15.140625 71.796875 
Q 19.390625 75.984375 28.609375 75.984375 
z
" id="DejaVuSans-102"/>
      <path d="M 41.109375 46.296875 
Q 39.59375 47.171875 37.8125 47.578125 
Q 36.03125 48 33.890625 48 
Q 26.265625 48 22.1875 43.046875 
Q 18.109375 38.09375 18.109375 28.8125 
L 18.109375 0 
L 9.078125 0 
L 9.078125 54.6875 
L 18.109375 54.6875 
L 18.109375 46.1875 
Q 20.953125 51.171875 25.484375 53.578125 
Q 30.03125 56 36.53125 56 
Q 37.453125 56 38.578125 55.875 
Q 39.703125 55.765625 41.0625 55.515625 
z
" id="DejaVuSans-114"/>
      <path d="M 9.421875 75.984375 
L 18.40625 75.984375 
L 18.40625 0 
L 9.421875 0 
z
" id="DejaVuSans-108"/>
      <path d="M 45.40625 27.984375 
Q 45.40625 37.75 41.375 43.109375 
Q 37.359375 48.484375 30.078125 48.484375 
Q 22.859375 48.484375 18.828125 43.109375 
Q 14.796875 37.75 14.796875 27.984375 
Q 14.796875 18.265625 18.828125 12.890625 
Q 22.859375 7.515625 30.078125 7.515625 
Q 37.359375 7.515625 41.375 12.890625 
Q 45.40625 18.265625 45.40625 27.984375 
z
M 54.390625 6.78125 
Q 54.390625 -7.171875 48.1875 -13.984375 
Q 42 -20.796875 29.203125 -20.796875 
Q 24.46875 -20.796875 20.265625 -20.09375 
Q 16.0625 -19.390625 12.109375 -17.921875 
L 12.109375 -9.1875 
Q 16.0625 -11.328125 19.921875 -12.34375 
Q 23.78125 -13.375 27.78125 -13.375 
Q 36.625 -13.375 41.015625 -8.765625 
Q 45.40625 -4.15625 45.40625 5.171875 
L 45.40625 9.625 
Q 42.625 4.78125 38.28125 2.390625 
Q 33.9375 0 27.875 0 
Q 17.828125 0 11.671875 7.65625 
Q 5.515625 15.328125 5.515625 27.984375 
Q 5.515625 40.671875 11.671875 48.328125 
Q 17.828125 56 27.875 56 
Q 33.9375 56 38.28125 53.609375 
Q 42.625 51.21875 45.40625 46.390625 
L 45.40625 54.6875 
L 54.390625 54.6875 
z
" id="DejaVuSans-103"/>
      <path d="M 11.71875 12.40625 
L 22.015625 12.40625 
L 22.015625 0 
L 11.71875 0 
z
M 11.71875 51.703125 
L 22.015625 51.703125 
L 22.015625 39.3125 
L 11.71875 39.3125 
z
" id="DejaVuSans-58"/>
      <path d="M 19.671875 34.8125 
L 19.671875 8.109375 
L 35.5 8.109375 
Q 43.453125 8.109375 47.28125 11.40625 
Q 51.125 14.703125 51.125 21.484375 
Q 51.125 28.328125 47.28125 31.5625 
Q 43.453125 34.8125 35.5 34.8125 
z
M 19.671875 64.796875 
L 19.671875 42.828125 
L 34.28125 42.828125 
Q 41.5 42.828125 45.03125 45.53125 
Q 48.578125 48.25 48.578125 53.8125 
Q 48.578125 59.328125 45.03125 62.0625 
Q 41.5 64.796875 34.28125 64.796875 
z
M 9.8125 72.90625 
L 35.015625 72.90625 
Q 46.296875 72.90625 52.390625 68.21875 
Q 58.5 63.53125 58.5 54.890625 
Q 58.5 48.1875 55.375 44.234375 
Q 52.25 40.28125 46.1875 39.3125 
Q 53.46875 37.75 57.5 32.78125 
Q 61.53125 27.828125 61.53125 20.40625 
Q 61.53125 10.640625 54.890625 5.3125 
Q 48.25 0 35.984375 0 
L 9.8125 0 
z
" id="DejaVuSans-66"/>
      <path d="M 64.40625 67.28125 
L 64.40625 56.890625 
Q 59.421875 61.53125 53.78125 63.8125 
Q 48.140625 66.109375 41.796875 66.109375 
Q 29.296875 66.109375 22.65625 58.46875 
Q 16.015625 50.828125 16.015625 36.375 
Q 16.015625 21.96875 22.65625 14.328125 
Q 29.296875 6.6875 41.796875 6.6875 
Q 48.140625 6.6875 53.78125 8.984375 
Q 59.421875 11.28125 64.40625 15.921875 
L 64.40625 5.609375 
Q 59.234375 2.09375 53.4375 0.328125 
Q 47.65625 -1.421875 41.21875 -1.421875 
Q 24.65625 -1.421875 15.125 8.703125 
Q 5.609375 18.84375 5.609375 36.375 
Q 5.609375 53.953125 15.125 64.078125 
Q 24.65625 74.21875 41.21875 74.21875 
Q 47.75 74.21875 53.53125 72.484375 
Q 59.328125 70.75 64.40625 67.28125 
z
" id="DejaVuSans-67"/>
      <path d="M 48.78125 52.59375 
L 48.78125 44.1875 
Q 44.96875 46.296875 41.140625 47.34375 
Q 37.3125 48.390625 33.40625 48.390625 
Q 24.65625 48.390625 19.8125 42.84375 
Q 14.984375 37.3125 14.984375 27.296875 
Q 14.984375 17.28125 19.8125 11.734375 
Q 24.65625 6.203125 33.40625 6.203125 
Q 37.3125 6.203125 41.140625 7.25 
Q 44.96875 8.296875 48.78125 10.40625 
L 48.78125 2.09375 
Q 45.015625 0.34375 40.984375 -0.53125 
Q 36.96875 -1.421875 32.421875 -1.421875 
Q 20.0625 -1.421875 12.78125 6.34375 
Q 5.515625 14.109375 5.515625 27.296875 
Q 5.515625 40.671875 12.859375 48.328125 
Q 20.21875 56 33.015625 56 
Q 37.15625 56 41.109375 55.140625 
Q 45.0625 54.296875 48.78125 52.59375 
z
" id="DejaVuSans-99"/>
     </defs>
     <g transform="translate(14.798438 293.315681)rotate(-90)scale(0.1 -0.1)">
      <use xlink:href="#DejaVuSans-82"/>
      <use x="69.482422" xlink:href="#DejaVuSans-50"/>
      <use x="133.105469" xlink:href="#DejaVuSans-32"/>
      <use x="164.892578" xlink:href="#DejaVuSans-65"/>
      <use x="233.253906" xlink:href="#DejaVuSans-102"/>
      <use x="268.443359" xlink:href="#DejaVuSans-116"/>
      <use x="307.652344" xlink:href="#DejaVuSans-101"/>
      <use x="369.175781" xlink:href="#DejaVuSans-114"/>
      <use x="410.289062" xlink:href="#DejaVuSans-32"/>
      <use x="442.076172" xlink:href="#DejaVuSans-102"/>
      <use x="477.28125" xlink:href="#DejaVuSans-105"/>
      <use x="505.064453" xlink:href="#DejaVuSans-108"/>
      <use x="532.847656" xlink:href="#DejaVuSans-116"/>
      <use x="572.056641" xlink:href="#DejaVuSans-101"/>
      <use x="633.580078" xlink:href="#DejaVuSans-114"/>
      <use x="674.693359" xlink:href="#DejaVuSans-105"/>
      <use x="702.476562" xlink:href="#DejaVuSans-110"/>
      <use x="765.855469" xlink:href="#DejaVuSans-103"/>
      <use x="829.332031" xlink:href="#DejaVuSans-58"/>
      <use x="863.023438" xlink:href="#DejaVuSans-32"/>
      <use x="894.810547" xlink:href="#DejaVuSans-66"/>
      <use x="963.414062" xlink:href="#DejaVuSans-97"/>
      <use x="1024.693359" xlink:href="#DejaVuSans-115"/>
      <use x="1076.792969" xlink:href="#DejaVuSans-101"/>
      <use x="1138.316406" xlink:href="#DejaVuSans-32"/>
      <use x="1170.103516" xlink:href="#DejaVuSans-67"/>
      <use x="1239.927734" xlink:href="#DejaVuSans-111"/>
      <use x="1301.109375" xlink:href="#DejaVuSans-110"/>
      <use x="1364.488281" xlink:href="#DejaVuSans-116"/>
      <use x="1403.697266" xlink:href="#DejaVuSans-101"/>
      <use x="1465.220703" xlink:href="#DejaVuSans-110"/>
      <use x="1528.599609" xlink:href="#DejaVuSans-116"/>
      <use x="1567.808594" xlink:href="#DejaVuSans-32"/>
      <use x="1599.595703" xlink:href="#DejaVuSans-80"/>
      <use x="1659.851562" xlink:href="#DejaVuSans-101"/>
      <use x="1721.375" xlink:href="#DejaVuSans-114"/>
      <use x="1762.457031" xlink:href="#DejaVuSans-99"/>
      <use x="1817.4375" xlink:href="#DejaVuSans-101"/>
      <use x="1878.960938" xlink:href="#DejaVuSans-110"/>
      <use x="1942.339844" xlink:href="#DejaVuSans-116"/>
     </g>
    </g>
   </g>
   <g id="line2d_7">
    <path clip-path="url(#p0f8f92b17f)" d="M 76.613125 352.926911 
L 88.329904 353.146979 
L 94.188293 353.077462 
L 100.046682 353.189759 
L 105.905071 352.991491 
L 111.763461 353.221021 
L 141.055407 353.2239 
L 146.913796 352.967222 
L 152.772185 353.181943 
L 158.630575 352.922797 
L 170.347353 353.195517 
L 182.064132 353.222255 
L 187.922521 353.150681 
L 199.639299 353.2239 
L 246.506414 353.2239 
L 949.513125 353.2239 
L 949.513125 353.2239 
" style="fill:none;stroke:#7cb5ec;stroke-linecap:square;"/>
   </g>
   <g id="line2d_8">
    <path clip-path="url(#p0f8f92b17f)" d="M 76.613125 352.928753 
L 88.329904 353.160184 
L 94.188293 353.078157 
L 100.046682 353.188014 
L 105.905071 352.985879 
L 111.763461 353.219506 
L 141.055407 353.2239 
L 146.913796 352.956584 
L 152.772185 353.17776 
L 158.630575 352.928021 
L 170.347353 353.190211 
L 182.064132 353.223168 
L 187.922521 353.148465 
L 199.639299 353.222435 
L 375.390977 353.222356 
L 691.743997 353.2239 
L 697.602387 353.154142 
L 709.319165 353.20429 
L 750.32789 353.215377 
L 762.044669 353.20547 
L 844.062118 353.2239 
L 920.221179 353.2239 
L 949.513125 353.2239 
L 949.513125 353.2239 
" style="fill:none;stroke:#434348;stroke-linecap:square;"/>
   </g>
   <g id="line2d_9">
    <path clip-path="url(#p0f8f92b17f)" d="M 76.613125 352.973783 
L 88.329904 353.172114 
L 94.188293 353.117022 
L 100.046682 353.193049 
L 105.905071 353.001329 
L 111.763461 353.216187 
L 141.055407 353.2239 
L 146.913796 352.981496 
L 152.772185 353.190845 
L 158.630575 352.947339 
L 170.347353 353.195252 
L 182.064132 353.222798 
L 187.922521 353.142364 
L 199.639299 353.2239 
L 392.966145 353.2239 
L 949.513125 353.2239 
L 949.513125 353.2239 
" style="fill:none;stroke:#90ed7d;stroke-linecap:square;"/>
   </g>
   <g id="line2d_10">
    <path clip-path="url(#p0f8f92b17f)" d="M 76.613125 352.990423 
L 88.329904 353.15256 
L 94.188293 353.107161 
L 100.046682 353.217415 
L 105.905071 352.977452 
L 111.763461 353.2239 
L 141.055407 353.2239 
L 146.913796 352.945025 
L 152.772185 353.204444 
L 158.630575 352.919083 
L 164.488964 353.120132 
L 176.205742 353.217415 
L 264.081581 353.2239 
L 293.373528 353.217371 
L 398.824534 353.2239 
L 773.761447 353.2239 
L 779.619836 353.090519 
L 785.478226 353.2239 
L 949.513125 353.2239 
L 949.513125 353.2239 
" style="fill:none;stroke:#f7a35c;stroke-linecap:square;"/>
   </g>
   <g id="line2d_11">
    <path clip-path="url(#p0f8f92b17f)" d="M 76.613125 352.944148 
L 88.329904 353.165796 
L 94.188293 353.081219 
L 100.046682 353.191146 
L 105.905071 352.993278 
L 111.763461 353.221881 
L 141.055407 353.2239 
L 146.913796 352.964114 
L 152.772185 353.179705 
L 158.630575 352.938091 
L 170.347353 353.199671 
L 182.064132 353.222554 
L 187.922521 353.149868 
L 199.639299 353.2239 
L 275.79836 353.223226 
L 949.513125 353.2239 
L 949.513125 353.2239 
" style="fill:none;stroke:#8085e9;stroke-linecap:square;"/>
   </g>
   <g id="line2d_12">
    <path clip-path="url(#p0f8f92b17f)" d="M 76.613125 352.933631 
L 88.329904 353.154825 
L 94.188293 353.072169 
L 100.046682 353.190915 
L 105.905071 352.989512 
L 111.763461 353.221184 
L 141.055407 353.2239 
L 146.913796 352.954199 
L 152.772185 353.17384 
L 158.630575 352.90996 
L 170.347353 353.196736 
L 182.064132 353.221572 
L 187.922521 353.137362 
L 199.639299 353.223512 
L 269.939971 353.216522 
L 363.674199 353.2239 
L 381.249367 353.2239 
L 598.009769 353.187767 
L 615.584937 353.217947 
L 949.513125 353.2239 
L 949.513125 353.2239 
" style="fill:none;stroke:#f15c80;stroke-linecap:square;"/>
   </g>
   <g id="line2d_13">
    <path clip-path="url(#p0f8f92b17f)" d="M 76.613125 352.934808 
L 88.329904 353.163672 
L 94.188293 353.09359 
L 100.046682 353.185573 
L 105.905071 353.028982 
L 111.763461 353.21952 
L 141.055407 353.2239 
L 146.913796 352.956709 
L 152.772185 353.185573 
L 158.630575 352.962184 
L 170.347353 353.201452 
L 199.639299 353.223352 
L 322.665474 353.21893 
L 463.266816 353.220756 
L 750.32789 353.209131 
L 762.044669 353.222173 
L 949.513125 353.2239 
L 949.513125 353.2239 
" style="fill:none;stroke:#e4d354;stroke-linecap:square;"/>
   </g>
   <g id="line2d_14">
    <path clip-path="url(#p0f8f92b17f)" d="M 76.613125 352.951666 
L 88.329904 353.175751 
L 94.188293 353.101995 
L 100.046682 353.193271 
L 105.905071 353.012802 
L 111.763461 353.222062 
L 141.055407 353.2239 
L 146.913796 352.979845 
L 152.772185 353.181386 
L 158.630575 352.962815 
L 170.347353 353.201602 
L 205.497689 353.218632 
L 363.674199 353.2239 
L 387.107756 353.222781 
L 750.32789 353.211641 
L 762.044669 353.220351 
L 949.513125 353.2239 
L 949.513125 353.2239 
" style="fill:none;stroke:#2b908f;stroke-linecap:square;"/>
   </g>
   <g id="line2d_15">
    <path clip-path="url(#p0f8f92b17f)" d="M 76.613125 352.912445 
L 88.329904 353.178597 
L 94.188293 353.087992 
L 100.046682 353.180485 
L 105.905071 353.00305 
L 111.763461 353.222012 
L 141.055407 353.2239 
L 146.913796 352.940759 
L 152.772185 353.188035 
L 158.630575 352.957747 
L 176.205742 353.222012 
L 433.97487 353.214511 
L 445.691648 353.153707 
L 457.408427 353.218895 
L 574.576212 353.2239 
L 615.584937 353.214228 
L 750.32789 353.2239 
L 762.044669 353.212794 
L 949.513125 353.2239 
L 949.513125 353.2239 
" style="fill:none;stroke:#f45b5b;stroke-linecap:square;"/>
   </g>
   <g id="line2d_16">
    <path clip-path="url(#p0f8f92b17f)" d="M 76.613125 352.929837 
L 88.329904 353.163419 
L 94.188293 353.07739 
L 100.046682 353.187403 
L 105.905071 352.979369 
L 111.763461 353.220772 
L 141.055407 353.2239 
L 146.913796 352.953821 
L 152.772185 353.165504 
L 158.630575 352.931401 
L 170.347353 353.200959 
L 182.064132 353.2239 
L 187.922521 353.146734 
L 199.639299 353.2239 
L 275.79836 353.2239 
L 445.691648 353.170758 
L 463.266816 353.220186 
L 750.32789 353.201381 
L 762.044669 353.21578 
L 920.221179 353.2239 
L 949.513125 353.2239 
L 949.513125 353.2239 
" style="fill:none;stroke:#91e8e1;stroke-linecap:square;"/>
   </g>
   <g id="line2d_17">
    <path clip-path="url(#p0f8f92b17f)" d="M 76.613125 352.933394 
L 88.329904 353.175317 
L 94.188293 353.086083 
L 100.046682 353.182257 
L 105.905071 353.011721 
L 111.763461 353.222909 
L 141.055407 353.2239 
L 146.913796 352.95719 
L 152.772185 353.188206 
L 158.630575 352.959173 
L 170.347353 353.193164 
L 182.064132 353.2239 
L 187.922521 353.155487 
L 199.639299 353.2239 
L 416.399702 353.221728 
L 750.32789 353.218812 
L 762.044669 353.2239 
L 949.513125 353.2239 
L 949.513125 353.2239 
" style="fill:none;stroke:#7cb5ec;stroke-linecap:square;"/>
   </g>
   <g id="line2d_18">
    <path clip-path="url(#p0f8f92b17f)" d="M 76.613125 352.951448 
L 88.329904 353.160023 
L 94.188293 353.078549 
L 100.046682 353.188051 
L 105.905071 353.022494 
L 111.763461 353.221293 
L 141.055407 353.2239 
L 146.913796 352.986645 
L 152.772185 353.171104 
L 158.630575 352.948189 
L 170.347353 353.195873 
L 182.064132 353.223248 
L 187.922521 353.148943 
L 199.639299 353.222596 
L 293.373528 353.2239 
L 949.513125 353.2239 
L 949.513125 353.2239 
" style="fill:none;stroke:#434348;stroke-linecap:square;"/>
   </g>
   <g id="line2d_19">
    <path clip-path="url(#p0f8f92b17f)" d="M 76.613125 352.96187 
L 88.329904 353.164301 
L 94.188293 353.087234 
L 100.046682 353.196669 
L 105.905071 353.015303 
L 111.763461 353.222872 
L 141.055407 353.2239 
L 146.913796 352.974715 
L 152.772185 353.176118 
L 158.630575 352.949539 
L 170.347353 353.191018 
L 182.064132 353.2239 
L 187.922521 353.149915 
L 199.639299 353.223386 
L 351.95742 353.22285 
L 750.32789 353.210393 
L 756.186279 353.148188 
L 767.903058 353.214829 
L 844.062118 353.2239 
L 949.513125 353.2239 
L 949.513125 353.2239 
" style="fill:none;stroke:#90ed7d;stroke-linecap:square;"/>
   </g>
   <g id="line2d_20">
    <path clip-path="url(#p0f8f92b17f)" d="M 76.613125 352.935148 
L 88.329904 353.167881 
L 94.188293 353.083344 
L 100.046682 353.194872 
L 105.905071 353.018158 
L 111.763461 353.220844 
L 141.055407 353.2239 
L 146.913796 352.969777 
L 152.772185 353.181122 
L 158.630575 352.963666 
L 170.347353 353.1964 
L 182.064132 353.222372 
L 187.922521 353.141399 
L 199.639299 353.222881 
L 246.506414 353.2239 
L 949.513125 353.2239 
L 949.513125 353.2239 
" style="fill:none;stroke:#f7a35c;stroke-linecap:square;"/>
   </g>
   <g id="line2d_21">
    <path clip-path="url(#p0f8f92b17f)" d="M 76.613125 352.941427 
L 88.329904 353.158774 
L 94.188293 353.078787 
L 100.046682 353.189399 
L 105.905071 352.9988 
L 111.763461 353.221897 
L 141.055407 353.2239 
L 146.913796 352.967594 
L 152.772185 353.176606 
L 158.630575 352.925469 
L 170.347353 353.196118 
L 182.064132 353.223125 
L 187.922521 353.149663 
L 199.639299 353.223319 
L 269.939971 353.215098 
L 357.81581 353.2239 
L 949.513125 353.2239 
L 949.513125 353.2239 
" style="fill:none;stroke:#8085e9;stroke-linecap:square;"/>
   </g>
   <g id="line2d_22">
    <path clip-path="url(#p0f8f92b17f)" d="M 76.613125 352.939149 
L 88.329904 353.15902 
L 94.188293 353.083327 
L 100.046682 353.186053 
L 105.905071 353.015744 
L 111.763461 353.222098 
L 141.055407 353.2239 
L 146.913796 352.968886 
L 152.772185 353.177943 
L 158.630575 352.926534 
L 164.488964 353.113964 
L 182.064132 353.221197 
L 187.922521 353.148207 
L 199.639299 353.222098 
L 340.240642 353.2239 
L 949.513125 353.2239 
L 949.513125 353.2239 
" style="fill:none;stroke:#f15c80;stroke-linecap:square;"/>
   </g>
   <g id="line2d_23">
    <path clip-path="url(#p0f8f92b17f)" d="M 76.613125 352.951206 
L 88.329904 353.166076 
L 94.188293 353.079339 
L 100.046682 353.18316 
L 105.905071 352.988003 
L 111.763461 353.2239 
L 141.055407 353.2239 
L 146.913796 352.951206 
L 152.772185 353.174618 
L 158.630575 352.928864 
L 170.347353 353.196302 
L 182.064132 353.223243 
L 187.922521 353.143735 
L 199.639299 353.223243 
L 281.656749 353.222582 
L 609.726548 353.21149 
L 662.452051 353.2239 
L 674.16883 353.2239 
L 949.513125 353.2239 
L 949.513125 353.2239 
" style="fill:none;stroke:#e4d354;stroke-linecap:square;"/>
   </g>
   <g id="line2d_24">
    <path clip-path="url(#p0f8f92b17f)" d="M 76.613125 352.900775 
L 88.329904 353.147092 
L 94.188293 353.054391 
L 100.046682 353.197414 
L 105.905071 352.980232 
L 111.763461 353.2239 
L 141.055407 353.2239 
L 146.913796 352.96434 
L 152.772185 353.165631 
L 158.630575 352.898126 
L 164.488964 353.110011 
L 182.064132 353.2239 
L 187.922521 353.160334 
L 199.639299 353.2239 
L 258.223192 353.221251 
L 433.97487 353.217033 
L 445.691648 353.188201 
L 474.983595 353.219907 
L 633.160105 353.2239 
L 668.31044 353.187643 
L 691.743997 353.2239 
L 709.319165 353.2239 
L 949.513125 353.2239 
L 949.513125 353.2239 
" style="fill:none;stroke:#2b908f;stroke-linecap:square;"/>
   </g>
   <g id="line2d_25">
    <path clip-path="url(#p0f8f92b17f)" d="M 76.613125 352.946381 
L 88.329904 353.188439 
L 94.188293 353.109809 
L 100.046682 353.185356 
L 105.905071 353.02347 
L 111.763461 353.220816 
L 141.055407 353.2239 
L 146.913796 352.978759 
L 152.772185 353.183814 
L 158.630575 352.967966 
L 170.347353 353.202315 
L 205.497689 353.219275 
L 351.95742 353.2239 
L 949.513125 353.2239 
L 949.513125 353.2239 
" style="fill:none;stroke:#f45b5b;stroke-linecap:square;"/>
   </g>
   <g id="line2d_26">
    <path clip-path="url(#p0f8f92b17f)" d="M 76.613125 352.943362 
L 88.329904 353.158925 
L 94.188293 353.075605 
L 100.046682 353.194598 
L 105.905071 352.996106 
L 111.763461 353.221352 
L 141.055407 353.2239 
L 146.913796 352.964511 
L 152.772185 353.1788 
L 158.630575 352.918391 
L 170.347353 353.198165 
L 182.064132 353.223136 
L 187.922521 353.151281 
L 199.639299 353.22339 
L 299.231917 353.223643 
L 949.513125 353.2239 
L 949.513125 353.2239 
" style="fill:none;stroke:#91e8e1;stroke-linecap:square;"/>
   </g>
   <g id="line2d_27">
    <path clip-path="url(#p0f8f92b17f)" d="M 76.613125 352.938045 
L 88.329904 353.172793 
L 94.188293 353.08617 
L 100.046682 353.18492 
L 105.905071 353.011674 
L 111.763461 353.223034 
L 141.055407 353.2239 
L 146.913796 352.966631 
L 152.772185 353.17799 
L 158.630575 352.945841 
L 170.347353 353.203977 
L 182.064132 353.2239 
L 187.922521 353.149405 
L 199.639299 353.2239 
L 252.364803 353.2239 
L 949.513125 353.2239 
L 949.513125 353.2239 
" style="fill:none;stroke:#7cb5ec;stroke-linecap:square;"/>
   </g>
   <g id="line2d_28">
    <path clip-path="url(#p0f8f92b17f)" d="M 76.613125 352.955417 
L 88.329904 353.161982 
L 94.188293 353.082299 
L 100.046682 353.190657 
L 105.905071 353.002364 
L 111.763461 353.22187 
L 141.055407 353.2239 
L 146.913796 352.961761 
L 152.772185 353.17264 
L 158.630575 352.939176 
L 170.347353 353.200554 
L 182.064132 353.222631 
L 187.922521 353.139651 
L 199.639299 353.223392 
L 287.515138 353.218557 
L 410.541313 353.220034 
L 662.452051 353.2239 
L 674.16883 353.2239 
L 949.513125 353.2239 
L 949.513125 353.2239 
" style="fill:none;stroke:#434348;stroke-linecap:square;"/>
   </g>
   <g id="line2d_29">
    <path clip-path="url(#p0f8f92b17f)" d="M 76.613125 352.946985 
L 88.329904 353.156714 
L 94.188293 353.070462 
L 100.046682 353.187583 
L 105.905071 352.987842 
L 111.763461 353.221176 
L 141.055407 353.2239 
L 146.913796 352.959697 
L 152.772185 353.166701 
L 158.630575 352.930643 
L 170.347353 353.200294 
L 182.064132 353.222084 
L 187.922521 353.156714 
L 199.639299 353.2239 
L 264.081581 353.220268 
L 445.691648 353.169433 
L 463.266816 353.217791 
L 592.15138 353.2239 
L 621.443326 353.209029 
L 662.452051 353.2239 
L 680.027219 353.2239 
L 949.513125 353.2239 
L 949.513125 353.2239 
" style="fill:none;stroke:#90ed7d;stroke-linecap:square;"/>
   </g>
   <g id="line2d_30">
    <path clip-path="url(#p0f8f92b17f)" d="M 76.613125 352.966263 
L 88.329904 353.16487 
L 94.188293 353.087082 
L 100.046682 353.198523 
L 105.905071 352.991641 
L 111.763461 353.221142 
L 141.055407 353.2239 
L 146.913796 352.977297 
L 152.772185 353.179765 
L 158.630575 352.925991 
L 170.347353 353.191902 
L 182.064132 353.223348 
L 187.922521 353.149974 
L 199.639299 353.223348 
L 258.223192 353.221693 
L 639.018494 353.212527 
L 691.743997 353.2239 
L 709.319165 353.220681 
L 949.513125 353.2239 
L 949.513125 353.2239 
" style="fill:none;stroke:#f7a35c;stroke-linecap:square;"/>
   </g>
   <g id="line2d_31">
    <path clip-path="url(#p0f8f92b17f)" d="M 76.613125 352.937254 
L 88.329904 353.150022 
L 94.188293 353.052503 
L 100.046682 353.186961 
L 105.905071 352.991923 
L 111.763461 353.222422 
L 141.055407 353.2239 
L 146.913796 352.96385 
L 152.772185 353.185483 
L 158.630575 352.928388 
L 164.488964 353.124904 
L 176.205742 353.2239 
L 949.513125 353.2239 
L 949.513125 353.2239 
" style="fill:none;stroke:#8085e9;stroke-linecap:square;"/>
   </g>
   <g id="line2d_32">
    <path clip-path="url(#p0f8f92b17f)" d="M 76.613125 352.931266 
L 88.329904 353.159571 
L 94.188293 353.076743 
L 100.046682 353.183957 
L 105.905071 352.99013 
L 111.763461 353.220116 
L 141.055407 353.2239 
L 146.913796 352.956914 
L 152.772185 353.17681 
L 158.630575 352.927062 
L 170.347353 353.194889 
L 182.064132 353.221798 
L 187.922521 353.14864 
L 199.639299 353.2239 
L 258.223192 353.221377 
L 457.408427 353.210954 
L 539.425877 353.222266 
L 644.876883 353.2239 
L 949.513125 353.2239 
L 949.513125 353.2239 
" style="fill:none;stroke:#f15c80;stroke-linecap:square;"/>
   </g>
   <g id="line2d_33">
    <path clip-path="url(#p0f8f92b17f)" d="M 76.613125 352.938094 
L 88.329904 353.162848 
L 94.188293 353.076881 
L 100.046682 353.191639 
L 105.905071 352.998592 
L 111.763461 353.221575 
L 141.055407 353.2239 
L 146.913796 352.963932 
L 152.772185 353.176173 
L 158.630575 352.930047 
L 170.347353 353.196475 
L 182.064132 353.222645 
L 187.922521 353.145057 
L 199.639299 353.223457 
L 275.79836 353.223272 
L 949.513125 353.2239 
L 949.513125 353.2239 
" style="fill:none;stroke:#e4d354;stroke-linecap:square;"/>
   </g>
   <g id="line2d_34">
    <path clip-path="url(#p0f8f92b17f)" d="M 76.613125 352.939076 
L 88.329904 353.163134 
L 94.188293 353.083648 
L 100.046682 353.191357 
L 105.905071 353.00181 
L 111.763461 353.221788 
L 141.055407 353.2239 
L 146.913796 352.961396 
L 152.772185 353.175901 
L 158.630575 352.937588 
L 170.347353 353.197453 
L 182.064132 353.223036 
L 187.922521 353.149886 
L 199.639299 353.223708 
L 293.373528 353.223035 
L 750.32789 353.207746 
L 762.044669 353.219212 
L 949.513125 353.2239 
L 949.513125 353.2239 
" style="fill:none;stroke:#2b908f;stroke-linecap:square;"/>
   </g>
   <g id="line2d_35">
    <path clip-path="url(#p0f8f92b17f)" d="M 76.613125 352.942967 
L 88.329904 353.17452 
L 94.188293 353.111126 
L 100.046682 353.187199 
L 105.905071 353.025045 
L 111.763461 353.219896 
L 141.055407 353.2239 
L 146.913796 352.985007 
L 152.772185 353.172518 
L 158.630575 352.966989 
L 170.347353 353.205883 
L 211.356078 353.223233 
L 750.32789 353.22068 
L 762.044669 353.2239 
L 849.920508 353.2239 
L 949.513125 353.2239 
L 949.513125 353.2239 
" style="fill:none;stroke:#f45b5b;stroke-linecap:square;"/>
   </g>
   <g id="line2d_36">
    <path clip-path="url(#p0f8f92b17f)" d="M 76.613125 352.939647 
L 88.329904 353.159868 
L 94.188293 353.07716 
L 100.046682 353.18866 
L 105.905071 353.016241 
L 111.763461 353.221566 
L 141.055407 353.2239 
L 146.913796 352.969551 
L 152.772185 353.170762 
L 158.630575 352.946428 
L 170.347353 353.195441 
L 182.064132 353.222788 
L 187.922521 353.149974 
L 199.639299 353.223344 
L 287.515138 353.216764 
L 404.682924 353.222058 
L 668.31044 353.193755 
L 691.743997 353.2239 
L 715.177555 353.2239 
L 738.611112 353.222166 
L 949.513125 353.2239 
L 949.513125 353.2239 
" style="fill:none;stroke:#91e8e1;stroke-linecap:square;"/>
   </g>
   <g id="line2d_37">
    <path clip-path="url(#p0f8f92b17f)" d="M 76.613125 352.926364 
L 88.329904 353.141251 
L 94.188293 353.062276 
L 100.046682 353.194514 
L 105.905071 352.99432 
L 111.763461 353.222063 
L 141.055407 353.2239 
L 146.913796 352.96126 
L 152.772185 353.159618 
L 158.630575 352.906161 
L 164.488964 353.111865 
L 176.205742 353.220227 
L 433.97487 353.214497 
L 445.691648 353.155362 
L 457.408427 353.208548 
L 515.99232 353.2239 
L 551.142655 353.195081 
L 574.576212 353.21435 
L 586.292991 353.2239 
L 949.513125 353.2239 
L 949.513125 353.2239 
" style="fill:none;stroke:#7cb5ec;stroke-linecap:square;"/>
   </g>
   <g id="line2d_38">
    <path clip-path="url(#p0f8f92b17f)" d="M 76.613125 352.942489 
L 88.329904 353.156219 
L 94.188293 353.076189 
L 100.046682 353.19279 
L 105.905071 352.994497 
L 111.763461 353.219625 
L 141.055407 353.2239 
L 146.913796 352.978824 
L 152.772185 353.176642 
L 158.630575 352.926816 
L 170.347353 353.197303 
L 182.064132 353.22295 
L 187.922521 353.143633 
L 199.639299 353.223188 
L 264.081581 353.218201 
L 416.399702 353.220886 
L 949.513125 353.2239 
L 949.513125 353.2239 
" style="fill:none;stroke:#434348;stroke-linecap:square;"/>
   </g>
   <g id="line2d_39">
    <path clip-path="url(#p0f8f92b17f)" d="M 76.613125 352.938388 
L 88.329904 353.159402 
L 94.188293 353.097484 
L 100.046682 353.191221 
L 105.905071 353.016646 
L 111.763461 353.2239 
L 141.055407 353.2239 
L 146.913796 352.984827 
L 152.772185 353.188641 
L 158.630575 352.969348 
L 170.347353 353.196381 
L 182.064132 353.22218 
L 187.922521 353.148222 
L 199.639299 353.2239 
L 246.506414 353.2239 
L 949.513125 353.2239 
L 949.513125 353.2239 
" style="fill:none;stroke:#90ed7d;stroke-linecap:square;"/>
   </g>
   <g id="line2d_40">
    <path clip-path="url(#p0f8f92b17f)" d="M 76.613125 352.934922 
L 88.329904 353.158761 
L 94.188293 353.072985 
L 100.046682 353.192851 
L 105.905071 352.988544 
L 111.763461 353.221827 
L 141.055407 353.2239 
L 146.913796 352.967767 
L 152.772185 353.174424 
L 158.630575 352.923175 
L 170.347353 353.196767 
L 182.064132 353.222518 
L 187.922521 353.151575 
L 199.639299 353.223393 
L 269.939971 353.215277 
L 357.81581 353.2239 
L 949.513125 353.2239 
L 949.513125 353.2239 
" style="fill:none;stroke:#f7a35c;stroke-linecap:square;"/>
   </g>
   <g id="line2d_41">
    <path clip-path="url(#p0f8f92b17f)" d="M 76.613125 352.935607 
L 88.329904 353.159922 
L 94.188293 353.077693 
L 100.046682 353.189752 
L 105.905071 352.99095 
L 111.763461 353.220956 
L 141.055407 353.2239 
L 146.913796 352.967007 
L 152.772185 353.180332 
L 158.630575 352.912646 
L 170.347353 353.196817 
L 182.064132 353.222134 
L 187.922521 353.145204 
L 199.639299 353.223704 
L 269.939971 353.214867 
L 351.95742 353.222073 
L 662.452051 353.2239 
L 680.027219 353.2239 
L 949.513125 353.2239 
L 949.513125 353.2239 
" style="fill:none;stroke:#8085e9;stroke-linecap:square;"/>
   </g>
   <g id="line2d_42">
    <path clip-path="url(#p0f8f92b17f)" d="M 76.613125 352.929409 
L 88.329904 353.16711 
L 94.188293 353.082266 
L 100.046682 353.188194 
L 105.905071 353.004562 
L 111.763461 353.22135 
L 141.055407 353.2239 
L 146.913796 352.962225 
L 152.772185 353.177822 
L 158.630575 352.93723 
L 170.347353 353.203156 
L 211.356078 353.22339 
L 949.513125 353.2239 
L 949.513125 353.2239 
" style="fill:none;stroke:#f15c80;stroke-linecap:square;"/>
   </g>
   <g id="line2d_43">
    <path clip-path="url(#p0f8f92b17f)" d="M 76.613125 352.912816 
L 88.329904 353.148426 
L 94.188293 353.061467 
L 100.046682 353.184522 
L 105.905071 352.980414 
L 111.763461 353.221931 
L 141.055407 353.2239 
L 146.913796 352.963351 
L 152.772185 353.17435 
L 158.630575 352.897393 
L 164.488964 353.108392 
L 176.205742 353.221603 
L 433.97487 353.216398 
L 445.691648 353.170809 
L 463.266816 353.220418 
L 662.452051 353.2239 
L 680.027219 353.2239 
L 949.513125 353.2239 
L 949.513125 353.2239 
" style="fill:none;stroke:#e4d354;stroke-linecap:square;"/>
   </g>
   <g id="line2d_44">
    <path clip-path="url(#p0f8f92b17f)" d="M 76.613125 352.934557 
L 88.329904 353.161554 
L 94.188293 353.091974 
L 100.046682 353.190488 
L 105.905071 353.004482 
L 111.763461 353.221489 
L 141.055407 353.2239 
L 146.913796 352.960047 
L 152.772185 353.174643 
L 158.630575 352.92629 
L 170.347353 353.200133 
L 182.064132 353.221489 
L 187.922521 353.140886 
L 199.639299 353.223556 
L 275.79836 353.222865 
L 949.513125 353.2239 
L 949.513125 353.2239 
" style="fill:none;stroke:#2b908f;stroke-linecap:square;"/>
   </g>
   <g id="line2d_45">
    <path clip-path="url(#p0f8f92b17f)" d="M 76.613125 352.924774 
L 88.329904 353.154871 
L 94.188293 353.067434 
L 100.046682 353.191686 
L 105.905071 352.972327 
L 111.763461 353.222366 
L 141.055407 353.2239 
L 146.913796 352.986133 
L 152.772185 353.171745 
L 158.630575 352.904832 
L 170.347353 353.203958 
L 182.064132 353.222366 
L 187.922521 353.130327 
L 199.639299 353.2239 
L 269.939971 353.216218 
L 357.81581 353.2239 
L 949.513125 353.2239 
L 949.513125 353.2239 
" style="fill:none;stroke:#f45b5b;stroke-linecap:square;"/>
   </g>
   <g id="line2d_46">
    <path clip-path="url(#p0f8f92b17f)" d="M 76.613125 352.963695 
L 88.329904 353.158011 
L 94.188293 353.089889 
L 100.046682 353.190397 
L 105.905071 353.018416 
L 111.763461 353.22055 
L 141.055407 353.2239 
L 146.913796 352.993848 
L 152.772185 353.190397 
L 158.630575 352.963695 
L 170.347353 353.191514 
L 182.064132 353.2239 
L 187.922521 353.149077 
L 199.639299 353.221666 
L 387.107756 353.222575 
L 691.743997 353.2239 
L 703.460776 353.211325 
L 756.186279 353.164333 
L 767.903058 353.2239 
L 791.336615 353.197191 
L 820.628561 353.2239 
L 949.513125 353.2239 
L 949.513125 353.2239 
" style="fill:none;stroke:#91e8e1;stroke-linecap:square;"/>
   </g>
   <g id="line2d_47">
    <path clip-path="url(#p0f8f92b17f)" d="M 76.613125 352.957008 
L 88.329904 353.163849 
L 94.188293 353.079969 
L 100.046682 353.198164 
L 105.905071 352.992276 
L 111.763461 353.217228 
L 141.055407 353.2239 
L 146.913796 352.986557 
L 152.772185 353.169568 
L 158.630575 352.957008 
L 170.347353 353.203883 
L 182.064132 353.222947 
L 187.922521 353.151458 
L 199.639299 353.2239 
L 287.515138 353.213342 
L 351.95742 353.222892 
L 773.761447 353.2239 
L 779.619836 353.167917 
L 791.336615 353.213141 
L 855.778897 353.2239 
L 949.513125 353.2239 
L 949.513125 353.2239 
" style="fill:none;stroke:#7cb5ec;stroke-linecap:square;"/>
   </g>
   <g id="line2d_48">
    <path clip-path="url(#p0f8f92b17f)" d="M 76.613125 352.973638 
L 82.471514 353.14317 
L 94.188293 353.151243 
L 141.055407 353.2239 
L 146.913796 352.933272 
L 152.772185 353.159316 
L 158.630575 353.06244 
L 205.497689 353.2239 
L 949.513125 353.2239 
L 949.513125 353.2239 
" style="fill:none;stroke:#434348;stroke-linecap:square;"/>
   </g>
   <g id="line2d_49">
    <path clip-path="url(#p0f8f92b17f)" d="M 76.613125 352.944476 
L 88.329904 353.157029 
L 94.188293 353.094935 
L 100.046682 353.188076 
L 105.905071 353.001794 
L 111.763461 353.221512 
L 141.055407 353.2239 
L 146.913796 352.937311 
L 152.772185 353.185688 
L 158.630575 352.946864 
L 170.347353 353.207182 
L 182.064132 353.2239 
L 187.922521 353.140311 
L 199.639299 353.2239 
L 223.072857 353.200018 
L 252.364803 353.2239 
L 949.513125 353.2239 
L 949.513125 353.2239 
" style="fill:none;stroke:#90ed7d;stroke-linecap:square;"/>
   </g>
   <g id="line2d_50">
    <path clip-path="url(#p0f8f92b17f)" d="M 76.613125 352.934674 
L 88.329904 353.159969 
L 94.188293 353.07858 
L 100.046682 353.189376 
L 105.905071 353.001645 
L 111.763461 353.221251 
L 141.055407 353.2239 
L 146.913796 352.961763 
L 152.772185 353.17237 
L 158.630575 352.932506 
L 170.347353 353.196419 
L 182.064132 353.223027 
L 187.922521 353.14823 
L 199.639299 353.223148 
L 275.79836 353.222631 
L 949.513125 353.2239 
L 949.513125 353.2239 
" style="fill:none;stroke:#f7a35c;stroke-linecap:square;"/>
   </g>
   <g id="line2d_51">
    <path clip-path="url(#p0f8f92b17f)" d="M 76.613125 352.929598 
L 88.329904 353.165776 
L 94.188293 353.080228 
L 100.046682 353.178875 
L 105.905071 353.018421 
L 111.763461 353.221853 
L 141.055407 353.2239 
L 146.913796 352.979126 
L 152.772185 353.173963 
L 158.630575 352.949655 
L 170.347353 353.204253 
L 211.356078 353.223081 
L 750.32789 353.20592 
L 779.619836 353.187959 
L 803.053393 353.2239 
L 914.362789 353.2239 
L 949.513125 353.2239 
L 949.513125 353.2239 
" style="fill:none;stroke:#8085e9;stroke-linecap:square;"/>
   </g>
   <g id="line2d_52">
    <path clip-path="url(#p0f8f92b17f)" d="M 76.613125 352.941855 
L 88.329904 353.157796 
L 94.188293 353.069657 
L 100.046682 353.184237 
L 105.905071 352.999146 
L 111.763461 353.2239 
L 141.055407 353.2239 
L 146.913796 352.972704 
L 152.772185 353.197458 
L 158.630575 352.933041 
L 170.347353 353.215086 
L 246.506414 353.2239 
L 773.761447 353.202747 
L 779.619836 353.049401 
L 785.478226 353.2239 
L 949.513125 353.2239 
L 949.513125 353.2239 
" style="fill:none;stroke:#f15c80;stroke-linecap:square;"/>
   </g>
   <g id="line2d_53">
    <path clip-path="url(#p0f8f92b17f)" d="M 76.613125 352.930419 
L 88.329904 353.161233 
L 94.188293 353.072507 
L 100.046682 353.188533 
L 105.905071 353.003014 
L 111.763461 353.22328 
L 141.055407 353.2239 
L 146.913796 352.97075 
L 152.772185 353.17116 
L 158.630575 352.921112 
L 170.347353 353.191015 
L 182.064132 353.222659 
L 187.922521 353.145721 
L 199.639299 353.2239 
L 269.939971 353.215206 
L 346.099031 353.2239 
L 598.009769 353.195039 
L 621.443326 353.211196 
L 662.452051 353.2239 
L 680.027219 353.2239 
L 949.513125 353.2239 
L 949.513125 353.2239 
" style="fill:none;stroke:#e4d354;stroke-linecap:square;"/>
   </g>
   <g id="line2d_54">
    <path clip-path="url(#p0f8f92b17f)" d="M 76.613125 352.936882 
L 88.329904 353.15701 
L 94.188293 353.068229 
L 100.046682 353.186198 
L 105.905071 352.979448 
L 111.763461 353.221468 
L 141.055407 353.2239 
L 146.913796 352.961206 
L 152.772185 353.170388 
L 158.630575 352.917423 
L 170.347353 353.188631 
L 182.064132 353.2239 
L 187.922521 353.15701 
L 199.639299 353.2239 
L 275.79836 353.22268 
L 949.513125 353.2239 
L 949.513125 353.2239 
" style="fill:none;stroke:#2b908f;stroke-linecap:square;"/>
   </g>
   <g id="line2d_55">
    <path clip-path="url(#p0f8f92b17f)" d="M 76.613125 352.951833 
L 88.329904 353.178764 
L 94.188293 353.102703 
L 100.046682 353.192138 
L 105.905071 353.025387 
L 111.763461 353.222646 
L 141.055407 353.2239 
L 146.913796 352.990699 
L 152.772185 353.184197 
L 158.630575 352.987356 
L 170.347353 353.205093 
L 205.497689 353.220975 
L 428.116481 353.223471 
L 674.16883 353.2239 
L 949.513125 353.2239 
L 949.513125 353.2239 
" style="fill:none;stroke:#f45b5b;stroke-linecap:square;"/>
   </g>
   <g id="line2d_56">
    <path clip-path="url(#p0f8f92b17f)" d="M 76.613125 352.960042 
L 88.329904 353.180674 
L 94.188293 353.093321 
L 100.046682 353.211292 
L 105.905071 353.009571 
L 111.763461 353.221198 
L 141.055407 353.2239 
L 146.913796 352.993362 
L 152.772185 353.187878 
L 158.630575 352.972649 
L 170.347353 353.205889 
L 211.356078 353.222999 
L 750.32789 353.216018 
L 762.044669 353.2239 
L 867.495675 353.215917 
L 949.513125 353.2239 
L 949.513125 353.2239 
" style="fill:none;stroke:#91e8e1;stroke-linecap:square;"/>
   </g>
   <g id="line2d_57">
    <path clip-path="url(#p0f8f92b17f)" d="M 76.613125 352.96439 
L 88.329904 353.1844 
L 94.188293 353.106343 
L 100.046682 353.195945 
L 105.905071 353.021389 
L 111.763461 353.222303 
L 141.055407 353.2239 
L 146.913796 352.983051 
L 152.772185 353.184255 
L 158.630575 352.979058 
L 170.347353 353.205094 
L 211.356078 353.223755 
L 949.513125 353.2239 
L 949.513125 353.2239 
" style="fill:none;stroke:#7cb5ec;stroke-linecap:square;"/>
   </g>
   <g id="line2d_58">
    <path clip-path="url(#p0f8f92b17f)" d="M 76.613125 352.993222 
L 88.329904 353.175842 
L 94.188293 353.108561 
L 100.046682 353.175842 
L 105.905071 352.973998 
L 111.763461 353.2239 
L 141.055407 353.2239 
L 146.913796 353.022056 
L 152.772185 353.185454 
L 158.630575 352.973998 
L 170.347353 353.214288 
L 240.648024 353.2239 
L 949.513125 353.2239 
L 949.513125 353.2239 
" style="fill:none;stroke:#434348;stroke-linecap:square;"/>
   </g>
   <g id="line2d_59">
    <path clip-path="url(#p0f8f92b17f)" d="M 76.613125 352.948223 
L 88.329904 353.177446 
L 94.188293 353.100531 
L 100.046682 353.191154 
L 105.905071 353.046462 
L 111.763461 353.223138 
L 141.055407 353.2239 
L 146.913796 352.974877 
L 152.772185 353.176685 
L 158.630575 352.993154 
L 170.347353 353.204862 
L 211.356078 353.2239 
L 949.513125 353.2239 
L 949.513125 353.2239 
" style="fill:none;stroke:#90ed7d;stroke-linecap:square;"/>
   </g>
   <g id="line2d_60">
    <path clip-path="url(#p0f8f92b17f)" d="M 76.613125 352.989051 
L 88.329904 353.182105 
L 94.188293 353.108466 
L 100.046682 353.202007 
L 105.905071 353.030847 
L 111.763461 353.21992 
L 141.055407 353.2239 
L 146.913796 352.983081 
L 152.772185 353.178125 
L 158.630575 353.000993 
L 170.347353 353.209968 
L 217.214467 353.2239 
L 269.939971 353.221907 
L 574.576212 353.2239 
L 627.301716 353.218614 
L 744.469501 353.220634 
L 808.911783 353.201186 
L 838.203729 353.2239 
L 949.513125 353.2239 
L 949.513125 353.2239 
" style="fill:none;stroke:#f7a35c;stroke-linecap:square;"/>
   </g>
   <g id="line2d_61">
    <path clip-path="url(#p0f8f92b17f)" d="M 76.613125 352.96614 
L 88.329904 353.184195 
L 94.188293 353.1165 
L 100.046682 353.1881 
L 105.905071 353.041646 
L 111.763461 353.220645 
L 141.055407 353.2239 
L 146.913796 352.971348 
L 152.772185 353.179638 
L 158.630575 352.993478 
L 170.347353 353.205024 
L 211.356078 353.223249 
L 949.513125 353.2239 
L 949.513125 353.2239 
" style="fill:none;stroke:#8085e9;stroke-linecap:square;"/>
   </g>
   <g id="line2d_62">
    <path clip-path="url(#p0f8f92b17f)" d="M 76.613125 352.954828 
L 88.329904 353.184493 
L 94.188293 353.104926 
L 100.046682 353.195286 
L 105.905071 353.012307 
L 111.763461 353.222143 
L 141.055407 353.2239 
L 146.913796 352.980932 
L 152.772185 353.183238 
L 158.630575 352.975912 
L 170.347353 353.200306 
L 199.639299 353.223649 
L 334.382253 353.223394 
L 949.513125 353.2239 
L 949.513125 353.2239 
" style="fill:none;stroke:#f15c80;stroke-linecap:square;"/>
   </g>
   <g id="line2d_63">
    <path clip-path="url(#p0f8f92b17f)" d="M 76.613125 352.958555 
L 88.329904 353.180641 
L 94.188293 353.10687 
L 100.046682 353.196863 
L 105.905071 353.024987 
L 111.763461 353.221583 
L 141.055407 353.2239 
L 146.913796 353.002586 
L 152.772185 353.190684 
L 158.630575 352.989454 
L 170.347353 353.207292 
L 217.214467 353.2239 
L 258.223192 353.223128 
L 598.009769 353.212798 
L 662.452051 353.2239 
L 685.885608 353.2239 
L 949.513125 353.2239 
L 949.513125 353.2239 
" style="fill:none;stroke:#e4d354;stroke-linecap:square;"/>
   </g>
   <g id="line2d_64">
    <path clip-path="url(#p0f8f92b17f)" d="M 76.613125 352.951913 
L 88.329904 353.177907 
L 94.188293 353.096827 
L 100.046682 353.193819 
L 105.905071 353.012928 
L 111.763461 353.221934 
L 141.055407 353.2239 
L 146.913796 352.97517 
L 152.772185 353.18247 
L 158.630575 352.959777 
L 170.347353 353.201163 
L 199.639299 353.223789 
L 351.95742 353.222889 
L 750.32789 353.210399 
L 762.044669 353.219745 
L 949.513125 353.2239 
L 949.513125 353.2239 
" style="fill:none;stroke:#2b908f;stroke-linecap:square;"/>
   </g>
   <g id="line2d_65">
    <path clip-path="url(#p0f8f92b17f)" d="M 76.613125 352.916686 
L 88.329904 353.17405 
L 94.188293 353.099855 
L 100.046682 353.19144 
L 105.905071 353.016386 
L 111.763461 353.219263 
L 141.055407 353.2239 
L 146.913796 352.958421 
L 152.772185 353.183325 
L 158.630575 352.970014 
L 170.347353 353.189121 
L 182.064132 353.221581 
L 187.922521 353.162457 
L 199.639299 353.2239 
L 293.373528 353.222727 
L 691.743997 353.2239 
L 709.319165 353.219191 
L 773.761447 353.212534 
L 779.619836 353.160262 
L 791.336615 353.214903 
L 861.637286 353.2239 
L 914.362789 353.219391 
L 949.513125 353.2239 
L 949.513125 353.2239 
" style="fill:none;stroke:#f45b5b;stroke-linecap:square;"/>
   </g>
   <g id="line2d_66">
    <path clip-path="url(#p0f8f92b17f)" d="M 76.613125 352.940533 
L 88.329904 353.181885 
L 94.188293 353.102523 
L 100.046682 353.195423 
L 105.905071 353.025963 
L 111.763461 353.221566 
L 141.055407 353.2239 
L 146.913796 352.976168 
L 152.772185 353.181574 
L 158.630575 352.978346 
L 170.347353 353.203204 
L 205.497689 353.218609 
L 334.382253 353.222804 
L 750.32789 353.215699 
L 762.044669 353.218986 
L 949.513125 353.2239 
L 949.513125 353.2239 
" style="fill:none;stroke:#91e8e1;stroke-linecap:square;"/>
   </g>
   <g id="line2d_67">
    <path clip-path="url(#p0f8f92b17f)" d="M 76.613125 352.949124 
L 88.329904 353.177631 
L 94.188293 353.100844 
L 100.046682 353.194813 
L 105.905071 353.01886 
L 111.763461 353.221825 
L 141.055407 353.2239 
L 146.913796 352.975129 
L 152.772185 353.183432 
L 158.630575 352.975512 
L 170.347353 353.204341 
L 211.356078 353.223558 
L 949.513125 353.2239 
L 949.513125 353.2239 
" style="fill:none;stroke:#7cb5ec;stroke-linecap:square;"/>
   </g>
   <g id="line2d_68">
    <path clip-path="url(#p0f8f92b17f)" d="M 76.613125 352.968318 
L 88.329904 353.16609 
L 94.188293 353.090024 
L 100.046682 353.193854 
L 105.905071 353.009394 
L 111.763461 353.222379 
L 141.055407 353.2239 
L 146.913796 352.985053 
L 152.772185 353.184346 
L 158.630575 352.948541 
L 170.347353 353.204123 
L 211.356078 353.22352 
L 949.513125 353.2239 
L 949.513125 353.2239 
" style="fill:none;stroke:#434348;stroke-linecap:square;"/>
   </g>
   <g id="line2d_69">
    <path clip-path="url(#p0f8f92b17f)" d="M 76.613125 352.959968 
L 88.329904 353.168335 
L 94.188293 353.119717 
L 100.046682 353.193141 
L 105.905071 353.032401 
L 111.763461 353.2239 
L 141.055407 353.2239 
L 146.913796 352.992712 
L 152.772185 353.196118 
L 158.630575 352.993704 
L 170.347353 353.207032 
L 217.214467 353.2239 
L 264.081581 353.215962 
L 346.099031 353.2239 
L 949.513125 353.2239 
L 949.513125 353.2239 
" style="fill:none;stroke:#90ed7d;stroke-linecap:square;"/>
   </g>
   <g id="line2d_70">
    <path clip-path="url(#p0f8f92b17f)" d="M 76.613125 352.900906 
L 88.329904 353.189901 
L 105.905071 353.087903 
L 111.763461 353.2239 
L 141.055407 353.2239 
L 146.913796 352.926405 
L 152.772185 353.189901 
L 158.630575 353.011404 
L 182.064132 353.2239 
L 187.922521 353.147401 
L 199.639299 353.2239 
L 275.79836 353.2239 
L 949.513125 353.2239 
L 949.513125 353.2239 
" style="fill:none;stroke:#f7a35c;stroke-linecap:square;"/>
   </g>
   <g id="line2d_71">
    <path clip-path="url(#p0f8f92b17f)" d="M 76.613125 352.94597 
L 88.329904 353.171584 
L 94.188293 353.088905 
L 100.046682 353.189334 
L 105.905071 353.016971 
L 111.763461 353.222966 
L 141.055407 353.2239 
L 146.913796 352.978668 
L 152.772185 353.184196 
L 158.630575 352.959983 
L 170.347353 353.192604 
L 182.064132 353.2239 
L 187.922521 353.157103 
L 199.639299 353.2239 
L 305.090306 353.223426 
L 949.513125 353.2239 
L 949.513125 353.2239 
" style="fill:none;stroke:#8085e9;stroke-linecap:square;"/>
   </g>
   <g id="line2d_72">
    <path clip-path="url(#p0f8f92b17f)" d="M 76.613125 352.970379 
L 88.329904 353.176633 
L 94.188293 353.107882 
L 100.046682 353.211009 
L 105.905071 353.052021 
L 111.763461 353.219603 
L 141.055407 353.2239 
L 146.913796 352.991863 
L 152.772185 353.189524 
L 158.630575 352.966082 
L 170.347353 353.206712 
L 211.356078 353.2239 
L 949.513125 353.2239 
L 949.513125 353.2239 
" style="fill:none;stroke:#f15c80;stroke-linecap:square;"/>
   </g>
   <g id="line2d_73">
    <path clip-path="url(#p0f8f92b17f)" d="M 76.613125 352.944757 
L 88.329904 353.168071 
L 94.188293 353.101299 
L 100.046682 353.192925 
L 105.905071 353.009674 
L 111.763461 353.222602 
L 141.055407 353.2239 
L 146.913796 352.97536 
L 152.772185 353.178829 
L 158.630575 352.957369 
L 170.347353 353.203127 
L 205.497689 353.217594 
L 310.948695 353.223331 
L 445.691648 353.185356 
L 469.125206 353.22258 
L 627.301716 353.222517 
L 949.513125 353.2239 
L 949.513125 353.2239 
" style="fill:none;stroke:#e4d354;stroke-linecap:square;"/>
   </g>
   <g id="line2d_74">
    <path clip-path="url(#p0f8f92b17f)" d="M 76.613125 352.971362 
L 88.329904 353.18181 
L 94.188293 353.127695 
L 100.046682 353.205862 
L 105.905071 353.055542 
L 111.763461 353.2239 
L 141.055407 353.2239 
L 146.913796 353.013452 
L 152.772185 353.205862 
L 158.630575 353.031491 
L 182.064132 353.2239 
L 193.78091 353.211874 
L 252.364803 353.2239 
L 949.513125 353.2239 
L 949.513125 353.2239 
" style="fill:none;stroke:#2b908f;stroke-linecap:square;"/>
   </g>
   <g id="line2d_75">
    <path clip-path="url(#p0f8f92b17f)" d="M 76.613125 352.966878 
L 88.329904 353.173923 
L 94.188293 353.096341 
L 100.046682 353.197246 
L 105.905071 353.040177 
L 111.763461 353.222948 
L 141.055407 353.2239 
L 146.913796 352.996388 
L 152.772185 353.183919 
L 158.630575 352.99258 
L 170.347353 353.202481 
L 205.497689 353.21676 
L 299.231917 353.223419 
L 949.513125 353.2239 
L 949.513125 353.2239 
" style="fill:none;stroke:#f45b5b;stroke-linecap:square;"/>
   </g>
   <g id="line2d_76">
    <path clip-path="url(#p0f8f92b17f)" d="M 76.613125 352.97064 
L 88.329904 353.175295 
L 94.188293 353.104945 
L 100.046682 353.202156 
L 105.905071 353.04099 
L 111.763461 353.2239 
L 141.055407 353.2239 
L 146.913796 352.97064 
L 152.772185 353.177853 
L 158.630575 352.98471 
L 170.347353 353.197039 
L 182.064132 353.220063 
L 187.922521 353.152271 
L 199.639299 353.2239 
L 369.532588 353.210747 
L 428.116481 353.221184 
L 551.142655 353.213132 
L 609.726548 353.215504 
L 949.513125 353.2239 
L 949.513125 353.2239 
" style="fill:none;stroke:#91e8e1;stroke-linecap:square;"/>
   </g>
   <g id="line2d_77">
    <path clip-path="url(#p0f8f92b17f)" d="M 76.613125 352.973359 
L 88.329904 353.17412 
L 94.188293 353.114494 
L 100.046682 353.198189 
L 105.905071 353.050491 
L 111.763461 353.222259 
L 141.055407 353.2239 
L 146.913796 352.981018 
L 152.772185 353.183967 
L 158.630575 352.997975 
L 170.347353 353.20366 
L 211.356078 353.2239 
L 949.513125 353.2239 
L 949.513125 353.2239 
" style="fill:none;stroke:#7cb5ec;stroke-linecap:square;"/>
   </g>
   <g id="line2d_78">
    <path clip-path="url(#p0f8f92b17f)" d="M 76.613125 352.913069 
L 88.329904 353.173945 
L 94.188293 353.12399 
L 100.046682 353.212799 
L 105.905071 353.062934 
L 111.763461 353.2239 
L 141.055407 353.2239 
L 146.913796 352.990777 
L 152.772185 353.162844 
L 158.630575 353.01853 
L 182.064132 353.212799 
L 187.922521 353.140642 
L 199.639299 353.2239 
L 322.665474 353.218233 
L 433.97487 353.2239 
L 463.266816 353.2239 
L 949.513125 353.2239 
L 949.513125 353.2239 
" style="fill:none;stroke:#434348;stroke-linecap:square;"/>
   </g>
   <g id="line2d_79">
    <path clip-path="url(#p0f8f92b17f)" d="M 76.613125 352.964774 
L 88.329904 353.161989 
L 94.188293 353.075115 
L 100.046682 353.189949 
L 105.905071 353.003717 
L 111.763461 353.222402 
L 141.055407 353.2239 
L 146.913796 352.973761 
L 152.772185 353.183458 
L 158.630575 352.945801 
L 170.347353 353.205427 
L 211.356078 353.223401 
L 949.513125 353.2239 
L 949.513125 353.2239 
" style="fill:none;stroke:#90ed7d;stroke-linecap:square;"/>
   </g>
   <g id="line2d_80">
    <path clip-path="url(#p0f8f92b17f)" d="M 76.613125 352.935034 
L 82.471514 353.103994 
L 100.046682 353.202099 
L 105.905071 353.004071 
L 111.763461 353.220266 
L 141.055407 353.2239 
L 146.913796 353.005888 
L 152.772185 353.180298 
L 158.630575 352.962285 
L 170.347353 353.211183 
L 234.789635 353.2239 
L 949.513125 353.2239 
L 949.513125 353.2239 
" style="fill:none;stroke:#f7a35c;stroke-linecap:square;"/>
   </g>
   <g id="line2d_81">
    <path clip-path="url(#p0f8f92b17f)" d="M 76.613125 352.991031 
L 88.329904 353.164249 
L 94.188293 353.101156 
L 100.046682 353.198663 
L 105.905071 353.005944 
L 111.763461 353.2239 
L 141.055407 353.2239 
L 146.913796 352.983001 
L 152.772185 353.188339 
L 158.630575 352.946292 
L 164.488964 353.126393 
L 182.064132 353.2239 
L 187.922521 353.157366 
L 199.639299 353.2239 
L 316.807085 353.214654 
L 592.15138 353.2239 
L 615.584937 353.215298 
L 750.32789 353.210898 
L 762.044669 353.215771 
L 873.354065 353.215647 
L 902.646011 353.209889 
L 949.513125 353.2239 
L 949.513125 353.2239 
" style="fill:none;stroke:#8085e9;stroke-linecap:square;"/>
   </g>
   <g id="line2d_82">
    <path clip-path="url(#p0f8f92b17f)" d="M 76.613125 352.957292 
L 88.329904 353.175823 
L 94.188293 353.12629 
L 100.046682 353.194763 
L 105.905071 353.03305 
L 111.763461 353.2239 
L 141.055407 353.2239 
L 146.913796 352.984973 
L 152.772185 353.190392 
L 158.630575 352.998085 
L 170.347353 353.209331 
L 182.064132 353.2239 
L 187.922521 353.13503 
L 199.639299 353.2239 
L 644.876883 353.2239 
L 949.513125 353.2239 
L 949.513125 353.2239 
" style="fill:none;stroke:#f15c80;stroke-linecap:square;"/>
   </g>
   <g id="line2d_83">
    <path clip-path="url(#p0f8f92b17f)" d="M 76.613125 352.964247 
L 88.329904 353.176845 
L 94.188293 353.096341 
L 100.046682 353.198388 
L 105.905071 353.005066 
L 111.763461 353.222199 
L 141.055407 353.2239 
L 146.913796 352.995995 
L 152.772185 353.178546 
L 158.630575 352.970484 
L 170.347353 353.204624 
L 205.497689 353.218798 
L 351.95742 353.223323 
L 949.513125 353.2239 
L 949.513125 353.2239 
" style="fill:none;stroke:#e4d354;stroke-linecap:square;"/>
   </g>
   <g id="line2d_84">
    <path clip-path="url(#p0f8f92b17f)" d="M 76.613125 352.964432 
L 88.329904 353.19309 
L 94.188293 353.119756 
L 100.046682 353.190034 
L 105.905071 353.0617 
L 111.763461 353.222627 
L 141.055407 353.2239 
L 146.913796 352.973344 
L 152.772185 353.183923 
L 158.630575 353.026306 
L 176.205742 353.223136 
L 949.513125 353.2239 
L 949.513125 353.2239 
" style="fill:none;stroke:#2b908f;stroke-linecap:square;"/>
   </g>
   <g id="line2d_85">
    <path clip-path="url(#p0f8f92b17f)" d="M 76.613125 352.955909 
L 88.329904 353.181016 
L 94.188293 353.110395 
L 100.046682 353.193684 
L 105.905071 353.029459 
L 111.763461 353.222298 
L 141.055407 353.2239 
L 146.913796 352.981744 
L 152.772185 353.185523 
L 158.630575 352.991307 
L 170.347353 353.20535 
L 211.356078 353.223725 
L 949.513125 353.2239 
L 949.513125 353.2239 
" style="fill:none;stroke:#f45b5b;stroke-linecap:square;"/>
   </g>
   <g id="line2d_86">
    <path clip-path="url(#p0f8f92b17f)" d="M 76.613125 352.951511 
L 88.329904 353.183114 
L 94.188293 353.112104 
L 100.046682 353.19586 
L 105.905071 353.029804 
L 111.763461 353.22299 
L 141.055407 353.2239 
L 146.913796 352.977365 
L 152.772185 353.189305 
L 158.630575 352.996484 
L 170.347353 353.206238 
L 211.356078 353.223718 
L 949.513125 353.2239 
L 949.513125 353.2239 
" style="fill:none;stroke:#91e8e1;stroke-linecap:square;"/>
   </g>
   <g id="line2d_87">
    <path clip-path="url(#p0f8f92b17f)" d="M 76.613125 352.954377 
L 88.329904 353.173785 
L 94.188293 353.101056 
L 100.046682 353.201898 
L 105.905071 353.034439 
L 111.763461 353.222678 
L 141.055407 353.2239 
L 146.913796 352.983102 
L 152.772185 353.18173 
L 158.630575 352.978824 
L 170.347353 353.20801 
L 217.214467 353.2239 
L 258.223192 353.221455 
L 521.850709 353.212032 
L 574.576212 353.222285 
L 598.009769 353.204518 
L 633.160105 353.2239 
L 756.186279 353.170943 
L 773.761447 353.221381 
L 779.619836 353.163791 
L 791.336615 353.219943 
L 949.513125 353.2239 
L 949.513125 353.2239 
" style="fill:none;stroke:#7cb5ec;stroke-linecap:square;"/>
   </g>
   <g id="line2d_88">
    <path clip-path="url(#p0f8f92b17f)" d="M 76.613125 352.968193 
L 88.329904 353.185544 
L 94.188293 353.113702 
L 100.046682 353.198329 
L 105.905071 353.043688 
L 111.763461 353.222074 
L 141.055407 353.2239 
L 146.913796 352.962105 
L 152.772185 353.178847 
L 158.630575 352.988284 
L 170.347353 353.203809 
L 211.356078 353.2239 
L 949.513125 353.2239 
L 949.513125 353.2239 
" style="fill:none;stroke:#434348;stroke-linecap:square;"/>
   </g>
   <g id="line2d_89">
    <path clip-path="url(#p0f8f92b17f)" d="M 76.613125 352.943903 
L 88.329904 353.173391 
L 94.188293 353.080058 
L 100.046682 353.192057 
L 105.905071 352.987824 
L 111.763461 353.222802 
L 141.055407 353.2239 
L 146.913796 352.97355 
L 152.772185 353.184371 
L 158.630575 352.946099 
L 170.347353 353.203037 
L 182.064132 353.222802 
L 187.922521 353.153626 
L 199.639299 353.2239 
L 258.223192 353.222802 
L 340.240642 353.2239 
L 949.513125 353.2239 
L 949.513125 353.2239 
" style="fill:none;stroke:#90ed7d;stroke-linecap:square;"/>
   </g>
   <g id="line2d_90">
    <path clip-path="url(#p0f8f92b17f)" d="M 76.613125 352.945408 
L 88.329904 353.167758 
L 94.188293 353.10423 
L 100.046682 353.194352 
L 105.905071 353.00081 
L 111.763461 353.221684 
L 141.055407 353.2239 
L 146.913796 352.952056 
L 152.772185 353.172929 
L 158.630575 352.953533 
L 170.347353 353.198784 
L 182.064132 353.223161 
L 187.922521 353.158894 
L 199.639299 353.223161 
L 305.090306 353.2239 
L 949.513125 353.2239 
L 949.513125 353.2239 
" style="fill:none;stroke:#f7a35c;stroke-linecap:square;"/>
   </g>
   <g id="line2d_91">
    <path clip-path="url(#p0f8f92b17f)" d="M 76.613125 352.994662 
L 82.471514 353.037962 
L 88.329904 353.195882 
L 94.188293 353.078716 
L 100.046682 353.185694 
L 105.905071 352.994662 
L 111.763461 353.216259 
L 141.055407 353.2239 
L 146.913796 352.974286 
L 152.772185 353.185694 
L 158.630575 352.959003 
L 170.347353 353.198429 
L 182.064132 353.2239 
L 187.922521 353.147487 
L 199.639299 353.2239 
L 463.266816 353.215797 
L 545.284266 353.220972 
L 949.513125 353.2239 
L 949.513125 353.2239 
" style="fill:none;stroke:#8085e9;stroke-linecap:square;"/>
   </g>
   <g id="line2d_92">
    <path clip-path="url(#p0f8f92b17f)" d="M 76.613125 352.966932 
L 88.329904 353.186381 
L 94.188293 353.097893 
L 100.046682 353.19169 
L 105.905071 353.010821 
L 111.763461 353.221776 
L 141.055407 353.2239 
L 146.913796 352.982859 
L 152.772185 353.18178 
L 158.630575 352.96587 
L 170.347353 353.209388 
L 217.214467 353.2239 
L 275.79836 353.223546 
L 949.513125 353.2239 
L 949.513125 353.2239 
" style="fill:none;stroke:#f15c80;stroke-linecap:square;"/>
   </g>
   <g id="line2d_93">
    <path clip-path="url(#p0f8f92b17f)" d="M 76.613125 352.949516 
L 88.329904 353.163076 
L 94.188293 353.095494 
L 100.046682 353.183351 
L 105.905071 353.01845 
L 111.763461 353.2239 
L 141.055407 353.2239 
L 146.913796 352.995472 
L 152.772185 353.171186 
L 158.630575 352.954923 
L 170.347353 353.195515 
L 182.064132 353.2239 
L 187.922521 353.164428 
L 205.497689 353.21579 
L 287.515138 353.222543 
L 949.513125 353.2239 
L 949.513125 353.2239 
" style="fill:none;stroke:#e4d354;stroke-linecap:square;"/>
   </g>
   <g id="line2d_94">
    <path clip-path="url(#p0f8f92b17f)" d="M 76.613125 352.95395 
L 88.329904 353.173386 
L 94.188293 353.089391 
L 100.046682 353.195085 
L 105.905071 353.012629 
L 111.763461 353.2218 
L 141.055407 353.2239 
L 146.913796 352.980782 
L 152.772185 353.177703 
L 158.630575 352.953716 
L 170.347353 353.198118 
L 182.064132 353.22355 
L 187.922521 353.157171 
L 199.639299 353.22355 
L 293.373528 353.223081 
L 949.513125 353.2239 
L 949.513125 353.2239 
" style="fill:none;stroke:#2b908f;stroke-linecap:square;"/>
   </g>
   <g id="line2d_95">
    <path clip-path="url(#p0f8f92b17f)" d="M 76.613125 352.958978 
L 88.329904 353.172749 
L 94.188293 353.106881 
L 100.046682 353.192051 
L 105.905071 353.026294 
L 111.763461 353.220522 
L 141.055407 353.2239 
L 146.913796 352.970559 
L 152.772185 353.171784 
L 158.630575 352.977556 
L 170.347353 353.200737 
L 182.064132 353.222452 
L 187.922521 353.152723 
L 199.639299 353.223659 
L 328.523863 353.218725 
L 439.833259 353.188404 
L 545.284266 353.217582 
L 949.513125 353.2239 
L 949.513125 353.2239 
" style="fill:none;stroke:#f45b5b;stroke-linecap:square;"/>
   </g>
   <g id="line2d_96">
    <path clip-path="url(#p0f8f92b17f)" d="M 76.613125 352.94204 
L 88.329904 353.172785 
L 94.188293 353.098304 
L 100.046682 353.19031 
L 105.905071 353.01433 
L 111.763461 353.220614 
L 141.055407 353.2239 
L 146.913796 352.986947 
L 152.772185 353.176436 
L 158.630575 352.962485 
L 170.347353 353.201994 
L 205.497689 353.219154 
L 346.099031 353.2239 
L 914.362789 353.216183 
L 949.513125 353.2239 
L 949.513125 353.2239 
" style="fill:none;stroke:#91e8e1;stroke-linecap:square;"/>
   </g>
   <g id="line2d_97">
    <path clip-path="url(#p0f8f92b17f)" d="M 76.613125 352.946652 
L 88.329904 353.179772 
L 94.188293 353.101099 
L 100.046682 353.195596 
L 105.905071 353.023987 
L 111.763461 353.22234 
L 141.055407 353.2239 
L 146.913796 352.995237 
L 152.772185 353.181332 
L 158.630575 352.981865 
L 170.347353 353.202505 
L 205.497689 353.217437 
L 310.948695 353.2239 
L 457.408427 353.219926 
L 691.743997 353.2239 
L 703.460776 353.2239 
L 814.770172 353.223083 
L 949.513125 353.2239 
L 949.513125 353.2239 
" style="fill:none;stroke:#7cb5ec;stroke-linecap:square;"/>
   </g>
   <g id="line2d_98">
    <path clip-path="url(#p0f8f92b17f)" d="M 76.613125 352.951611 
L 88.329904 353.17989 
L 94.188293 353.104245 
L 100.046682 353.194504 
L 105.905071 353.023505 
L 111.763461 353.222052 
L 141.055407 353.2239 
L 146.913796 352.972665 
L 152.772185 353.18269 
L 158.630575 352.9772 
L 170.347353 353.204359 
L 205.497689 353.218805 
L 351.95742 353.22327 
L 949.513125 353.2239 
L 949.513125 353.2239 
" style="fill:none;stroke:#434348;stroke-linecap:square;"/>
   </g>
   <g id="line2d_99">
    <path clip-path="url(#p0f8f92b17f)" d="M 76.613125 352.957346 
L 88.329904 353.180737 
L 94.188293 353.110275 
L 100.046682 353.19603 
L 105.905071 353.036097 
L 111.763461 353.222471 
L 141.055407 353.2239 
L 146.913796 352.975783 
L 152.772185 353.186954 
L 158.630575 352.997079 
L 170.347353 353.207178 
L 217.214467 353.2239 
L 264.081581 353.219041 
L 715.177555 353.223802 
L 732.752722 353.2239 
L 949.513125 353.2239 
L 949.513125 353.2239 
" style="fill:none;stroke:#90ed7d;stroke-linecap:square;"/>
   </g>
   <g id="line2d_100">
    <path clip-path="url(#p0f8f92b17f)" d="M 76.613125 352.960849 
L 88.329904 353.168621 
L 94.188293 353.090468 
L 100.046682 353.189589 
L 105.905071 353.01994 
L 111.763461 353.221994 
L 141.055407 353.2239 
L 146.913796 352.951318 
L 152.772185 353.189589 
L 158.630575 352.966567 
L 170.347353 353.187683 
L 182.064132 353.2239 
L 187.922521 353.15909 
L 199.639299 353.2239 
L 551.142655 353.215069 
L 627.301716 353.2239 
L 949.513125 353.2239 
L 949.513125 353.2239 
" style="fill:none;stroke:#f7a35c;stroke-linecap:square;"/>
   </g>
   <g id="line2d_101">
    <path clip-path="url(#p0f8f92b17f)" d="M 76.613125 352.92142 
L 88.329904 353.16059 
L 94.188293 353.097281 
L 100.046682 353.181694 
L 105.905071 353.104315 
L 111.763461 353.2239 
L 141.055407 353.2239 
L 146.913796 353.033971 
L 152.772185 353.195762 
L 158.630575 353.04804 
L 170.347353 353.216866 
L 264.081581 353.2239 
L 949.513125 353.2239 
L 949.513125 353.2239 
" style="fill:none;stroke:#8085e9;stroke-linecap:square;"/>
   </g>
   <g id="line2d_102">
    <path clip-path="url(#p0f8f92b17f)" d="M 76.613125 352.95052 
L 88.329904 353.177367 
L 94.188293 353.120946 
L 100.046682 353.19249 
L 105.905071 353.052892 
L 111.763461 353.223028 
L 141.055407 353.2239 
L 146.913796 352.961281 
L 152.772185 353.187255 
L 158.630575 353.011594 
L 176.205742 353.223609 
L 949.513125 353.2239 
L 949.513125 353.2239 
" style="fill:none;stroke:#f15c80;stroke-linecap:square;"/>
   </g>
   <g id="line2d_103">
    <path clip-path="url(#p0f8f92b17f)" d="M 32.968125 353.2239 
L 993.158125 353.2239 
" style="fill:none;stroke:#dedede;stroke-linecap:square;stroke-width:2;"/>
   </g>
   <g id="text_17">
    <!-- Fastp: Read N Content -->
    <defs>
     <path d="M 9.8125 72.90625 
L 51.703125 72.90625 
L 51.703125 64.59375 
L 19.671875 64.59375 
L 19.671875 43.109375 
L 48.578125 43.109375 
L 48.578125 34.8125 
L 19.671875 34.8125 
L 19.671875 0 
L 9.8125 0 
z
" id="DejaVuSans-70"/>
     <path d="M 18.109375 8.203125 
L 18.109375 -20.796875 
L 9.078125 -20.796875 
L 9.078125 54.6875 
L 18.109375 54.6875 
L 18.109375 46.390625 
Q 20.953125 51.265625 25.265625 53.625 
Q 29.59375 56 35.59375 56 
Q 45.5625 56 51.78125 48.09375 
Q 58.015625 40.1875 58.015625 27.296875 
Q 58.015625 14.40625 51.78125 6.484375 
Q 45.5625 -1.421875 35.59375 -1.421875 
Q 29.59375 -1.421875 25.265625 0.953125 
Q 20.953125 3.328125 18.109375 8.203125 
z
M 48.6875 27.296875 
Q 48.6875 37.203125 44.609375 42.84375 
Q 40.53125 48.484375 33.40625 48.484375 
Q 26.265625 48.484375 22.1875 42.84375 
Q 18.109375 37.203125 18.109375 27.296875 
Q 18.109375 17.390625 22.1875 11.75 
Q 26.265625 6.109375 33.40625 6.109375 
Q 40.53125 6.109375 44.609375 11.75 
Q 48.6875 17.390625 48.6875 27.296875 
z
" id="DejaVuSans-112"/>
     <path d="M 9.8125 72.90625 
L 23.09375 72.90625 
L 55.421875 11.921875 
L 55.421875 72.90625 
L 64.984375 72.90625 
L 64.984375 0 
L 51.703125 0 
L 19.390625 60.984375 
L 19.390625 0 
L 9.8125 0 
z
" id="DejaVuSans-78"/>
    </defs>
    <g transform="translate(422.606875 19.3575)scale(0.16 -0.16)">
     <use xlink:href="#DejaVuSans-70"/>
     <use x="57.378906" xlink:href="#DejaVuSans-97"/>
     <use x="118.658203" xlink:href="#DejaVuSans-115"/>
     <use x="170.757812" xlink:href="#DejaVuSans-116"/>
     <use x="209.966797" xlink:href="#DejaVuSans-112"/>
     <use x="273.443359" xlink:href="#DejaVuSans-58"/>
     <use x="307.134766" xlink:href="#DejaVuSans-32"/>
     <use x="338.921875" xlink:href="#DejaVuSans-82"/>
     <use x="408.341797" xlink:href="#DejaVuSans-101"/>
     <use x="469.865234" xlink:href="#DejaVuSans-97"/>
     <use x="531.144531" xlink:href="#DejaVuSans-100"/>
     <use x="594.621094" xlink:href="#DejaVuSans-32"/>
     <use x="626.408203" xlink:href="#DejaVuSans-78"/>
     <use x="701.212891" xlink:href="#DejaVuSans-32"/>
     <use x="733" xlink:href="#DejaVuSans-67"/>
     <use x="802.824219" xlink:href="#DejaVuSans-111"/>
     <use x="864.005859" xlink:href="#DejaVuSans-110"/>
     <use x="927.384766" xlink:href="#DejaVuSans-116"/>
     <use x="966.59375" xlink:href="#DejaVuSans-101"/>
     <use x="1028.117188" xlink:href="#DejaVuSans-110"/>
     <use x="1091.496094" xlink:href="#DejaVuSans-116"/>
    </g>
   </g>
  </g>
 </g>
 <defs>
  <clipPath id="p0f8f92b17f">
   <rect height="317.968" width="960.19" x="32.968125" y="35.2559"/>
  </clipPath>
 </defs>
</svg>
