<?xml version="1.0" encoding="utf-8" standalone="no"?>
<!DOCTYPE svg PUBLIC "-//W3C//DTD SVG 1.1//EN"
  "http://www.w3.org/Graphics/SVG/1.1/DTD/svg11.dtd">
<!-- Created with matplotlib (https://matplotlib.org/) -->
<svg height="388.844525pt" version="1.1" viewBox="0 0 1000.358125 388.844525" width="1000.358125pt" xmlns="http://www.w3.org/2000/svg" xmlns:xlink="http://www.w3.org/1999/xlink">
 <defs>
  <style type="text/css">
*{stroke-linecap:butt;stroke-linejoin:round;}
  </style>
 </defs>
 <g id="figure_1">
  <g id="axes_1">
   <g id="patch_1">
    <path d="M 32.968125 353.2239 
L 993.158125 353.2239 
L 993.158125 35.2559 
L 32.968125 35.2559 
z
" style="fill:#ffffff;"/>
   </g>
   <g id="matplotlib.axis_1">
    <g id="xtick_1">
     <g id="text_1">
      <!-- 0 -->
      <defs>
       <path d="M 31.78125 66.40625 
Q 24.171875 66.40625 20.328125 58.90625 
Q 16.5 51.421875 16.5 36.375 
Q 16.5 21.390625 20.328125 13.890625 
Q 24.171875 6.390625 31.78125 6.390625 
Q 39.453125 6.390625 43.28125 13.890625 
Q 47.125 21.390625 47.125 36.375 
Q 47.125 51.421875 43.28125 58.90625 
Q 39.453125 66.40625 31.78125 66.40625 
z
M 31.78125 74.21875 
Q 44.046875 74.21875 50.515625 64.515625 
Q 56.984375 54.828125 56.984375 36.375 
Q 56.984375 17.96875 50.515625 8.265625 
Q 44.046875 -1.421875 31.78125 -1.421875 
Q 19.53125 -1.421875 13.0625 8.265625 
Q 6.59375 17.96875 6.59375 36.375 
Q 6.59375 54.828125 13.0625 64.515625 
Q 19.53125 74.21875 31.78125 74.21875 
z
" id="DejaVuSans-48"/>
      </defs>
      <g transform="translate(68.209736 366.30265)scale(0.08 -0.08)">
       <use xlink:href="#DejaVuSans-48"/>
      </g>
     </g>
    </g>
    <g id="xtick_2">
     <g id="text_2">
      <!-- 20 -->
      <defs>
       <path d="M 19.1875 8.296875 
L 53.609375 8.296875 
L 53.609375 0 
L 7.328125 0 
L 7.328125 8.296875 
Q 12.9375 14.109375 22.625 23.890625 
Q 32.328125 33.6875 34.8125 36.53125 
Q 39.546875 41.84375 41.421875 45.53125 
Q 43.3125 49.21875 43.3125 52.78125 
Q 43.3125 58.59375 39.234375 62.25 
Q 35.15625 65.921875 28.609375 65.921875 
Q 23.96875 65.921875 18.8125 64.3125 
Q 13.671875 62.703125 7.8125 59.421875 
L 7.8125 69.390625 
Q 13.765625 71.78125 18.9375 73 
Q 24.125 74.21875 28.421875 74.21875 
Q 39.75 74.21875 46.484375 68.546875 
Q 53.21875 62.890625 53.21875 53.421875 
Q 53.21875 48.921875 51.53125 44.890625 
Q 49.859375 40.875 45.40625 35.40625 
Q 44.1875 33.984375 37.640625 27.21875 
Q 31.109375 20.453125 19.1875 8.296875 
z
" id="DejaVuSans-50"/>
      </defs>
      <g transform="translate(182.832521 366.30265)scale(0.08 -0.08)">
       <use xlink:href="#DejaVuSans-50"/>
       <use x="63.623047" xlink:href="#DejaVuSans-48"/>
      </g>
     </g>
    </g>
    <g id="xtick_3">
     <g id="text_3">
      <!-- 40 -->
      <defs>
       <path d="M 37.796875 64.3125 
L 12.890625 25.390625 
L 37.796875 25.390625 
z
M 35.203125 72.90625 
L 47.609375 72.90625 
L 47.609375 25.390625 
L 58.015625 25.390625 
L 58.015625 17.1875 
L 47.609375 17.1875 
L 47.609375 0 
L 37.796875 0 
L 37.796875 17.1875 
L 4.890625 17.1875 
L 4.890625 26.703125 
z
" id="DejaVuSans-52"/>
      </defs>
      <g transform="translate(300.000306 366.30265)scale(0.08 -0.08)">
       <use xlink:href="#DejaVuSans-52"/>
       <use x="63.623047" xlink:href="#DejaVuSans-48"/>
      </g>
     </g>
    </g>
    <g id="xtick_4">
     <g id="text_4">
      <!-- 60 -->
      <defs>
       <path d="M 33.015625 40.375 
Q 26.375 40.375 22.484375 35.828125 
Q 18.609375 31.296875 18.609375 23.390625 
Q 18.609375 15.53125 22.484375 10.953125 
Q 26.375 6.390625 33.015625 6.390625 
Q 39.65625 6.390625 43.53125 10.953125 
Q 47.40625 15.53125 47.40625 23.390625 
Q 47.40625 31.296875 43.53125 35.828125 
Q 39.65625 40.375 33.015625 40.375 
z
M 52.59375 71.296875 
L 52.59375 62.3125 
Q 48.875 64.0625 45.09375 64.984375 
Q 41.3125 65.921875 37.59375 65.921875 
Q 27.828125 65.921875 22.671875 59.328125 
Q 17.53125 52.734375 16.796875 39.40625 
Q 19.671875 43.65625 24.015625 45.921875 
Q 28.375 48.1875 33.59375 48.1875 
Q 44.578125 48.1875 50.953125 41.515625 
Q 57.328125 34.859375 57.328125 23.390625 
Q 57.328125 12.15625 50.6875 5.359375 
Q 44.046875 -1.421875 33.015625 -1.421875 
Q 20.359375 -1.421875 13.671875 8.265625 
Q 6.984375 17.96875 6.984375 36.375 
Q 6.984375 53.65625 15.1875 63.9375 
Q 23.390625 74.21875 37.203125 74.21875 
Q 40.921875 74.21875 44.703125 73.484375 
Q 48.484375 72.75 52.59375 71.296875 
z
" id="DejaVuSans-54"/>
      </defs>
      <g transform="translate(417.168091 366.30265)scale(0.08 -0.08)">
       <use xlink:href="#DejaVuSans-54"/>
       <use x="63.623047" xlink:href="#DejaVuSans-48"/>
      </g>
     </g>
    </g>
    <g id="xtick_5">
     <g id="text_5">
      <!-- 80 -->
      <defs>
       <path d="M 31.78125 34.625 
Q 24.75 34.625 20.71875 30.859375 
Q 16.703125 27.09375 16.703125 20.515625 
Q 16.703125 13.921875 20.71875 10.15625 
Q 24.75 6.390625 31.78125 6.390625 
Q 38.8125 6.390625 42.859375 10.171875 
Q 46.921875 13.96875 46.921875 20.515625 
Q 46.921875 27.09375 42.890625 30.859375 
Q 38.875 34.625 31.78125 34.625 
z
M 21.921875 38.8125 
Q 15.578125 40.375 12.03125 44.71875 
Q 8.5 49.078125 8.5 55.328125 
Q 8.5 64.0625 14.71875 69.140625 
Q 20.953125 74.21875 31.78125 74.21875 
Q 42.671875 74.21875 48.875 69.140625 
Q 55.078125 64.0625 55.078125 55.328125 
Q 55.078125 49.078125 51.53125 44.71875 
Q 48 40.375 41.703125 38.8125 
Q 48.828125 37.15625 52.796875 32.3125 
Q 56.78125 27.484375 56.78125 20.515625 
Q 56.78125 9.90625 50.3125 4.234375 
Q 43.84375 -1.421875 31.78125 -1.421875 
Q 19.734375 -1.421875 13.25 4.234375 
Q 6.78125 9.90625 6.78125 20.515625 
Q 6.78125 27.484375 10.78125 32.3125 
Q 14.796875 37.15625 21.921875 38.8125 
z
M 18.3125 54.390625 
Q 18.3125 48.734375 21.84375 45.5625 
Q 25.390625 42.390625 31.78125 42.390625 
Q 38.140625 42.390625 41.71875 45.5625 
Q 45.3125 48.734375 45.3125 54.390625 
Q 45.3125 60.0625 41.71875 63.234375 
Q 38.140625 66.40625 31.78125 66.40625 
Q 25.390625 66.40625 21.84375 63.234375 
Q 18.3125 60.0625 18.3125 54.390625 
z
" id="DejaVuSans-56"/>
      </defs>
      <g transform="translate(534.335877 366.30265)scale(0.08 -0.08)">
       <use xlink:href="#DejaVuSans-56"/>
       <use x="63.623047" xlink:href="#DejaVuSans-48"/>
      </g>
     </g>
    </g>
    <g id="xtick_6">
     <g id="text_6">
      <!-- 100 -->
      <defs>
       <path d="M 12.40625 8.296875 
L 28.515625 8.296875 
L 28.515625 63.921875 
L 10.984375 60.40625 
L 10.984375 69.390625 
L 28.421875 72.90625 
L 38.28125 72.90625 
L 38.28125 8.296875 
L 54.390625 8.296875 
L 54.390625 0 
L 12.40625 0 
z
" id="DejaVuSans-49"/>
      </defs>
      <g transform="translate(648.958662 366.30265)scale(0.08 -0.08)">
       <use xlink:href="#DejaVuSans-49"/>
       <use x="63.623047" xlink:href="#DejaVuSans-48"/>
       <use x="127.246094" xlink:href="#DejaVuSans-48"/>
      </g>
     </g>
    </g>
    <g id="xtick_7">
     <g id="text_7">
      <!-- 120 -->
      <g transform="translate(766.126447 366.30265)scale(0.08 -0.08)">
       <use xlink:href="#DejaVuSans-49"/>
       <use x="63.623047" xlink:href="#DejaVuSans-50"/>
       <use x="127.246094" xlink:href="#DejaVuSans-48"/>
      </g>
     </g>
    </g>
    <g id="xtick_8">
     <g id="text_8">
      <!-- 140 -->
      <g transform="translate(883.294232 366.30265)scale(0.08 -0.08)">
       <use xlink:href="#DejaVuSans-49"/>
       <use x="63.623047" xlink:href="#DejaVuSans-52"/>
       <use x="127.246094" xlink:href="#DejaVuSans-48"/>
      </g>
     </g>
    </g>
    <g id="text_9">
     <!-- Read Position -->
     <defs>
      <path d="M 44.390625 34.1875 
Q 47.5625 33.109375 50.5625 29.59375 
Q 53.5625 26.078125 56.59375 19.921875 
L 66.609375 0 
L 56 0 
L 46.6875 18.703125 
Q 43.0625 26.03125 39.671875 28.421875 
Q 36.28125 30.8125 30.421875 30.8125 
L 19.671875 30.8125 
L 19.671875 0 
L 9.8125 0 
L 9.8125 72.90625 
L 32.078125 72.90625 
Q 44.578125 72.90625 50.734375 67.671875 
Q 56.890625 62.453125 56.890625 51.90625 
Q 56.890625 45.015625 53.6875 40.46875 
Q 50.484375 35.9375 44.390625 34.1875 
z
M 19.671875 64.796875 
L 19.671875 38.921875 
L 32.078125 38.921875 
Q 39.203125 38.921875 42.84375 42.21875 
Q 46.484375 45.515625 46.484375 51.90625 
Q 46.484375 58.296875 42.84375 61.546875 
Q 39.203125 64.796875 32.078125 64.796875 
z
" id="DejaVuSans-82"/>
      <path d="M 56.203125 29.59375 
L 56.203125 25.203125 
L 14.890625 25.203125 
Q 15.484375 15.921875 20.484375 11.0625 
Q 25.484375 6.203125 34.421875 6.203125 
Q 39.59375 6.203125 44.453125 7.46875 
Q 49.3125 8.734375 54.109375 11.28125 
L 54.109375 2.78125 
Q 49.265625 0.734375 44.1875 -0.34375 
Q 39.109375 -1.421875 33.890625 -1.421875 
Q 20.796875 -1.421875 13.15625 6.1875 
Q 5.515625 13.8125 5.515625 26.8125 
Q 5.515625 40.234375 12.765625 48.109375 
Q 20.015625 56 32.328125 56 
Q 43.359375 56 49.78125 48.890625 
Q 56.203125 41.796875 56.203125 29.59375 
z
M 47.21875 32.234375 
Q 47.125 39.59375 43.09375 43.984375 
Q 39.0625 48.390625 32.421875 48.390625 
Q 24.90625 48.390625 20.390625 44.140625 
Q 15.875 39.890625 15.1875 32.171875 
z
" id="DejaVuSans-101"/>
      <path d="M 34.28125 27.484375 
Q 23.390625 27.484375 19.1875 25 
Q 14.984375 22.515625 14.984375 16.5 
Q 14.984375 11.71875 18.140625 8.90625 
Q 21.296875 6.109375 26.703125 6.109375 
Q 34.1875 6.109375 38.703125 11.40625 
Q 43.21875 16.703125 43.21875 25.484375 
L 43.21875 27.484375 
z
M 52.203125 31.203125 
L 52.203125 0 
L 43.21875 0 
L 43.21875 8.296875 
Q 40.140625 3.328125 35.546875 0.953125 
Q 30.953125 -1.421875 24.3125 -1.421875 
Q 15.921875 -1.421875 10.953125 3.296875 
Q 6 8.015625 6 15.921875 
Q 6 25.140625 12.171875 29.828125 
Q 18.359375 34.515625 30.609375 34.515625 
L 43.21875 34.515625 
L 43.21875 35.40625 
Q 43.21875 41.609375 39.140625 45 
Q 35.0625 48.390625 27.6875 48.390625 
Q 23 48.390625 18.546875 47.265625 
Q 14.109375 46.140625 10.015625 43.890625 
L 10.015625 52.203125 
Q 14.9375 54.109375 19.578125 55.046875 
Q 24.21875 56 28.609375 56 
Q 40.484375 56 46.34375 49.84375 
Q 52.203125 43.703125 52.203125 31.203125 
z
" id="DejaVuSans-97"/>
      <path d="M 45.40625 46.390625 
L 45.40625 75.984375 
L 54.390625 75.984375 
L 54.390625 0 
L 45.40625 0 
L 45.40625 8.203125 
Q 42.578125 3.328125 38.25 0.953125 
Q 33.9375 -1.421875 27.875 -1.421875 
Q 17.96875 -1.421875 11.734375 6.484375 
Q 5.515625 14.40625 5.515625 27.296875 
Q 5.515625 40.1875 11.734375 48.09375 
Q 17.96875 56 27.875 56 
Q 33.9375 56 38.25 53.625 
Q 42.578125 51.265625 45.40625 46.390625 
z
M 14.796875 27.296875 
Q 14.796875 17.390625 18.875 11.75 
Q 22.953125 6.109375 30.078125 6.109375 
Q 37.203125 6.109375 41.296875 11.75 
Q 45.40625 17.390625 45.40625 27.296875 
Q 45.40625 37.203125 41.296875 42.84375 
Q 37.203125 48.484375 30.078125 48.484375 
Q 22.953125 48.484375 18.875 42.84375 
Q 14.796875 37.203125 14.796875 27.296875 
z
" id="DejaVuSans-100"/>
      <path id="DejaVuSans-32"/>
      <path d="M 19.671875 64.796875 
L 19.671875 37.40625 
L 32.078125 37.40625 
Q 38.96875 37.40625 42.71875 40.96875 
Q 46.484375 44.53125 46.484375 51.125 
Q 46.484375 57.671875 42.71875 61.234375 
Q 38.96875 64.796875 32.078125 64.796875 
z
M 9.8125 72.90625 
L 32.078125 72.90625 
Q 44.34375 72.90625 50.609375 67.359375 
Q 56.890625 61.8125 56.890625 51.125 
Q 56.890625 40.328125 50.609375 34.8125 
Q 44.34375 29.296875 32.078125 29.296875 
L 19.671875 29.296875 
L 19.671875 0 
L 9.8125 0 
z
" id="DejaVuSans-80"/>
      <path d="M 30.609375 48.390625 
Q 23.390625 48.390625 19.1875 42.75 
Q 14.984375 37.109375 14.984375 27.296875 
Q 14.984375 17.484375 19.15625 11.84375 
Q 23.34375 6.203125 30.609375 6.203125 
Q 37.796875 6.203125 41.984375 11.859375 
Q 46.1875 17.53125 46.1875 27.296875 
Q 46.1875 37.015625 41.984375 42.703125 
Q 37.796875 48.390625 30.609375 48.390625 
z
M 30.609375 56 
Q 42.328125 56 49.015625 48.375 
Q 55.71875 40.765625 55.71875 27.296875 
Q 55.71875 13.875 49.015625 6.21875 
Q 42.328125 -1.421875 30.609375 -1.421875 
Q 18.84375 -1.421875 12.171875 6.21875 
Q 5.515625 13.875 5.515625 27.296875 
Q 5.515625 40.765625 12.171875 48.375 
Q 18.84375 56 30.609375 56 
z
" id="DejaVuSans-111"/>
      <path d="M 44.28125 53.078125 
L 44.28125 44.578125 
Q 40.484375 46.53125 36.375 47.5 
Q 32.28125 48.484375 27.875 48.484375 
Q 21.1875 48.484375 17.84375 46.4375 
Q 14.5 44.390625 14.5 40.28125 
Q 14.5 37.15625 16.890625 35.375 
Q 19.28125 33.59375 26.515625 31.984375 
L 29.59375 31.296875 
Q 39.15625 29.25 43.1875 25.515625 
Q 47.21875 21.78125 47.21875 15.09375 
Q 47.21875 7.46875 41.1875 3.015625 
Q 35.15625 -1.421875 24.609375 -1.421875 
Q 20.21875 -1.421875 15.453125 -0.5625 
Q 10.6875 0.296875 5.421875 2 
L 5.421875 11.28125 
Q 10.40625 8.6875 15.234375 7.390625 
Q 20.0625 6.109375 24.8125 6.109375 
Q 31.15625 6.109375 34.5625 8.28125 
Q 37.984375 10.453125 37.984375 14.40625 
Q 37.984375 18.0625 35.515625 20.015625 
Q 33.0625 21.96875 24.703125 23.78125 
L 21.578125 24.515625 
Q 13.234375 26.265625 9.515625 29.90625 
Q 5.8125 33.546875 5.8125 39.890625 
Q 5.8125 47.609375 11.28125 51.796875 
Q 16.75 56 26.8125 56 
Q 31.78125 56 36.171875 55.265625 
Q 40.578125 54.546875 44.28125 53.078125 
z
" id="DejaVuSans-115"/>
      <path d="M 9.421875 54.6875 
L 18.40625 54.6875 
L 18.40625 0 
L 9.421875 0 
z
M 9.421875 75.984375 
L 18.40625 75.984375 
L 18.40625 64.59375 
L 9.421875 64.59375 
z
" id="DejaVuSans-105"/>
      <path d="M 18.3125 70.21875 
L 18.3125 54.6875 
L 36.8125 54.6875 
L 36.8125 47.703125 
L 18.3125 47.703125 
L 18.3125 18.015625 
Q 18.3125 11.328125 20.140625 9.421875 
Q 21.96875 7.515625 27.59375 7.515625 
L 36.8125 7.515625 
L 36.8125 0 
L 27.59375 0 
Q 17.1875 0 13.234375 3.875 
Q 9.28125 7.765625 9.28125 18.015625 
L 9.28125 47.703125 
L 2.6875 47.703125 
L 2.6875 54.6875 
L 9.28125 54.6875 
L 9.28125 70.21875 
z
" id="DejaVuSans-116"/>
      <path d="M 54.890625 33.015625 
L 54.890625 0 
L 45.90625 0 
L 45.90625 32.71875 
Q 45.90625 40.484375 42.875 44.328125 
Q 39.84375 48.1875 33.796875 48.1875 
Q 26.515625 48.1875 22.3125 43.546875 
Q 18.109375 38.921875 18.109375 30.90625 
L 18.109375 0 
L 9.078125 0 
L 9.078125 54.6875 
L 18.109375 54.6875 
L 18.109375 46.1875 
Q 21.34375 51.125 25.703125 53.5625 
Q 30.078125 56 35.796875 56 
Q 45.21875 56 50.046875 50.171875 
Q 54.890625 44.34375 54.890625 33.015625 
z
" id="DejaVuSans-110"/>
     </defs>
     <g transform="translate(479.045156 379.564837)scale(0.1 -0.1)">
      <use xlink:href="#DejaVuSans-82"/>
      <use x="69.419922" xlink:href="#DejaVuSans-101"/>
      <use x="130.943359" xlink:href="#DejaVuSans-97"/>
      <use x="192.222656" xlink:href="#DejaVuSans-100"/>
      <use x="255.699219" xlink:href="#DejaVuSans-32"/>
      <use x="287.486328" xlink:href="#DejaVuSans-80"/>
      <use x="347.742188" xlink:href="#DejaVuSans-111"/>
      <use x="408.923828" xlink:href="#DejaVuSans-115"/>
      <use x="461.023438" xlink:href="#DejaVuSans-105"/>
      <use x="488.806641" xlink:href="#DejaVuSans-116"/>
      <use x="528.015625" xlink:href="#DejaVuSans-105"/>
      <use x="555.798828" xlink:href="#DejaVuSans-111"/>
      <use x="616.980469" xlink:href="#DejaVuSans-110"/>
     </g>
    </g>
   </g>
   <g id="matplotlib.axis_2">
    <g id="ytick_1">
     <g id="line2d_1">
      <path clip-path="url(#p1dc2a99a06)" d="M 32.968125 353.2239 
L 993.158125 353.2239 
" style="fill:none;stroke:#dedede;stroke-linecap:square;"/>
     </g>
     <g id="text_10">
      <!-- 0 -->
      <g transform="translate(20.878125 356.263275)scale(0.08 -0.08)">
       <use xlink:href="#DejaVuSans-48"/>
      </g>
     </g>
    </g>
    <g id="ytick_2">
     <g id="line2d_2">
      <path clip-path="url(#p1dc2a99a06)" d="M 32.968125 289.6303 
L 993.158125 289.6303 
" style="fill:none;stroke:#dedede;stroke-linecap:square;"/>
     </g>
     <g id="text_11">
      <!-- 1 -->
      <g transform="translate(20.878125 292.669675)scale(0.08 -0.08)">
       <use xlink:href="#DejaVuSans-49"/>
      </g>
     </g>
    </g>
    <g id="ytick_3">
     <g id="line2d_3">
      <path clip-path="url(#p1dc2a99a06)" d="M 32.968125 226.0367 
L 993.158125 226.0367 
" style="fill:none;stroke:#dedede;stroke-linecap:square;"/>
     </g>
     <g id="text_12">
      <!-- 2 -->
      <g transform="translate(20.878125 229.076075)scale(0.08 -0.08)">
       <use xlink:href="#DejaVuSans-50"/>
      </g>
     </g>
    </g>
    <g id="ytick_4">
     <g id="line2d_4">
      <path clip-path="url(#p1dc2a99a06)" d="M 32.968125 162.4431 
L 993.158125 162.4431 
" style="fill:none;stroke:#dedede;stroke-linecap:square;"/>
     </g>
     <g id="text_13">
      <!-- 3 -->
      <defs>
       <path d="M 40.578125 39.3125 
Q 47.65625 37.796875 51.625 33 
Q 55.609375 28.21875 55.609375 21.1875 
Q 55.609375 10.40625 48.1875 4.484375 
Q 40.765625 -1.421875 27.09375 -1.421875 
Q 22.515625 -1.421875 17.65625 -0.515625 
Q 12.796875 0.390625 7.625 2.203125 
L 7.625 11.71875 
Q 11.71875 9.328125 16.59375 8.109375 
Q 21.484375 6.890625 26.8125 6.890625 
Q 36.078125 6.890625 40.9375 10.546875 
Q 45.796875 14.203125 45.796875 21.1875 
Q 45.796875 27.640625 41.28125 31.265625 
Q 36.765625 34.90625 28.71875 34.90625 
L 20.21875 34.90625 
L 20.21875 43.015625 
L 29.109375 43.015625 
Q 36.375 43.015625 40.234375 45.921875 
Q 44.09375 48.828125 44.09375 54.296875 
Q 44.09375 59.90625 40.109375 62.90625 
Q 36.140625 65.921875 28.71875 65.921875 
Q 24.65625 65.921875 20.015625 65.03125 
Q 15.375 64.15625 9.8125 62.3125 
L 9.8125 71.09375 
Q 15.4375 72.65625 20.34375 73.4375 
Q 25.25 74.21875 29.59375 74.21875 
Q 40.828125 74.21875 47.359375 69.109375 
Q 53.90625 64.015625 53.90625 55.328125 
Q 53.90625 49.265625 50.4375 45.09375 
Q 46.96875 40.921875 40.578125 39.3125 
z
" id="DejaVuSans-51"/>
      </defs>
      <g transform="translate(20.878125 165.482475)scale(0.08 -0.08)">
       <use xlink:href="#DejaVuSans-51"/>
      </g>
     </g>
    </g>
    <g id="ytick_5">
     <g id="line2d_5">
      <path clip-path="url(#p1dc2a99a06)" d="M 32.968125 98.8495 
L 993.158125 98.8495 
" style="fill:none;stroke:#dedede;stroke-linecap:square;"/>
     </g>
     <g id="text_14">
      <!-- 4 -->
      <g transform="translate(20.878125 101.888875)scale(0.08 -0.08)">
       <use xlink:href="#DejaVuSans-52"/>
      </g>
     </g>
    </g>
    <g id="ytick_6">
     <g id="line2d_6">
      <path clip-path="url(#p1dc2a99a06)" d="M 32.968125 35.2559 
L 993.158125 35.2559 
" style="fill:none;stroke:#dedede;stroke-linecap:square;"/>
     </g>
     <g id="text_15">
      <!-- 5 -->
      <defs>
       <path d="M 10.796875 72.90625 
L 49.515625 72.90625 
L 49.515625 64.59375 
L 19.828125 64.59375 
L 19.828125 46.734375 
Q 21.96875 47.46875 24.109375 47.828125 
Q 26.265625 48.1875 28.421875 48.1875 
Q 40.625 48.1875 47.75 41.5 
Q 54.890625 34.8125 54.890625 23.390625 
Q 54.890625 11.625 47.5625 5.09375 
Q 40.234375 -1.421875 26.90625 -1.421875 
Q 22.3125 -1.421875 17.546875 -0.640625 
Q 12.796875 0.140625 7.71875 1.703125 
L 7.71875 11.625 
Q 12.109375 9.234375 16.796875 8.0625 
Q 21.484375 6.890625 26.703125 6.890625 
Q 35.15625 6.890625 40.078125 11.328125 
Q 45.015625 15.765625 45.015625 23.390625 
Q 45.015625 31 40.078125 35.4375 
Q 35.15625 39.890625 26.703125 39.890625 
Q 22.75 39.890625 18.8125 39.015625 
Q 14.890625 38.140625 10.796875 36.28125 
z
" id="DejaVuSans-53"/>
      </defs>
      <g transform="translate(20.878125 38.295275)scale(0.08 -0.08)">
       <use xlink:href="#DejaVuSans-53"/>
      </g>
     </g>
    </g>
    <g id="text_16">
     <!-- R2 After filtering: Base Content Percent -->
     <defs>
      <path d="M 34.1875 63.1875 
L 20.796875 26.90625 
L 47.609375 26.90625 
z
M 28.609375 72.90625 
L 39.796875 72.90625 
L 67.578125 0 
L 57.328125 0 
L 50.6875 18.703125 
L 17.828125 18.703125 
L 11.1875 0 
L 0.78125 0 
z
" id="DejaVuSans-65"/>
      <path d="M 37.109375 75.984375 
L 37.109375 68.5 
L 28.515625 68.5 
Q 23.6875 68.5 21.796875 66.546875 
Q 19.921875 64.59375 19.921875 59.515625 
L 19.921875 54.6875 
L 34.71875 54.6875 
L 34.71875 47.703125 
L 19.921875 47.703125 
L 19.921875 0 
L 10.890625 0 
L 10.890625 47.703125 
L 2.296875 47.703125 
L 2.296875 54.6875 
L 10.890625 54.6875 
L 10.890625 58.5 
Q 10.890625 67.625 15.140625 71.796875 
Q 19.390625 75.984375 28.609375 75.984375 
z
" id="DejaVuSans-102"/>
      <path d="M 41.109375 46.296875 
Q 39.59375 47.171875 37.8125 47.578125 
Q 36.03125 48 33.890625 48 
Q 26.265625 48 22.1875 43.046875 
Q 18.109375 38.09375 18.109375 28.8125 
L 18.109375 0 
L 9.078125 0 
L 9.078125 54.6875 
L 18.109375 54.6875 
L 18.109375 46.1875 
Q 20.953125 51.171875 25.484375 53.578125 
Q 30.03125 56 36.53125 56 
Q 37.453125 56 38.578125 55.875 
Q 39.703125 55.765625 41.0625 55.515625 
z
" id="DejaVuSans-114"/>
      <path d="M 9.421875 75.984375 
L 18.40625 75.984375 
L 18.40625 0 
L 9.421875 0 
z
" id="DejaVuSans-108"/>
      <path d="M 45.40625 27.984375 
Q 45.40625 37.75 41.375 43.109375 
Q 37.359375 48.484375 30.078125 48.484375 
Q 22.859375 48.484375 18.828125 43.109375 
Q 14.796875 37.75 14.796875 27.984375 
Q 14.796875 18.265625 18.828125 12.890625 
Q 22.859375 7.515625 30.078125 7.515625 
Q 37.359375 7.515625 41.375 12.890625 
Q 45.40625 18.265625 45.40625 27.984375 
z
M 54.390625 6.78125 
Q 54.390625 -7.171875 48.1875 -13.984375 
Q 42 -20.796875 29.203125 -20.796875 
Q 24.46875 -20.796875 20.265625 -20.09375 
Q 16.0625 -19.390625 12.109375 -17.921875 
L 12.109375 -9.1875 
Q 16.0625 -11.328125 19.921875 -12.34375 
Q 23.78125 -13.375 27.78125 -13.375 
Q 36.625 -13.375 41.015625 -8.765625 
Q 45.40625 -4.15625 45.40625 5.171875 
L 45.40625 9.625 
Q 42.625 4.78125 38.28125 2.390625 
Q 33.9375 0 27.875 0 
Q 17.828125 0 11.671875 7.65625 
Q 5.515625 15.328125 5.515625 27.984375 
Q 5.515625 40.671875 11.671875 48.328125 
Q 17.828125 56 27.875 56 
Q 33.9375 56 38.28125 53.609375 
Q 42.625 51.21875 45.40625 46.390625 
L 45.40625 54.6875 
L 54.390625 54.6875 
z
" id="DejaVuSans-103"/>
      <path d="M 11.71875 12.40625 
L 22.015625 12.40625 
L 22.015625 0 
L 11.71875 0 
z
M 11.71875 51.703125 
L 22.015625 51.703125 
L 22.015625 39.3125 
L 11.71875 39.3125 
z
" id="DejaVuSans-58"/>
      <path d="M 19.671875 34.8125 
L 19.671875 8.109375 
L 35.5 8.109375 
Q 43.453125 8.109375 47.28125 11.40625 
Q 51.125 14.703125 51.125 21.484375 
Q 51.125 28.328125 47.28125 31.5625 
Q 43.453125 34.8125 35.5 34.8125 
z
M 19.671875 64.796875 
L 19.671875 42.828125 
L 34.28125 42.828125 
Q 41.5 42.828125 45.03125 45.53125 
Q 48.578125 48.25 48.578125 53.8125 
Q 48.578125 59.328125 45.03125 62.0625 
Q 41.5 64.796875 34.28125 64.796875 
z
M 9.8125 72.90625 
L 35.015625 72.90625 
Q 46.296875 72.90625 52.390625 68.21875 
Q 58.5 63.53125 58.5 54.890625 
Q 58.5 48.1875 55.375 44.234375 
Q 52.25 40.28125 46.1875 39.3125 
Q 53.46875 37.75 57.5 32.78125 
Q 61.53125 27.828125 61.53125 20.40625 
Q 61.53125 10.640625 54.890625 5.3125 
Q 48.25 0 35.984375 0 
L 9.8125 0 
z
" id="DejaVuSans-66"/>
      <path d="M 64.40625 67.28125 
L 64.40625 56.890625 
Q 59.421875 61.53125 53.78125 63.8125 
Q 48.140625 66.109375 41.796875 66.109375 
Q 29.296875 66.109375 22.65625 58.46875 
Q 16.015625 50.828125 16.015625 36.375 
Q 16.015625 21.96875 22.65625 14.328125 
Q 29.296875 6.6875 41.796875 6.6875 
Q 48.140625 6.6875 53.78125 8.984375 
Q 59.421875 11.28125 64.40625 15.921875 
L 64.40625 5.609375 
Q 59.234375 2.09375 53.4375 0.328125 
Q 47.65625 -1.421875 41.21875 -1.421875 
Q 24.65625 -1.421875 15.125 8.703125 
Q 5.609375 18.84375 5.609375 36.375 
Q 5.609375 53.953125 15.125 64.078125 
Q 24.65625 74.21875 41.21875 74.21875 
Q 47.75 74.21875 53.53125 72.484375 
Q 59.328125 70.75 64.40625 67.28125 
z
" id="DejaVuSans-67"/>
      <path d="M 48.78125 52.59375 
L 48.78125 44.1875 
Q 44.96875 46.296875 41.140625 47.34375 
Q 37.3125 48.390625 33.40625 48.390625 
Q 24.65625 48.390625 19.8125 42.84375 
Q 14.984375 37.3125 14.984375 27.296875 
Q 14.984375 17.28125 19.8125 11.734375 
Q 24.65625 6.203125 33.40625 6.203125 
Q 37.3125 6.203125 41.140625 7.25 
Q 44.96875 8.296875 48.78125 10.40625 
L 48.78125 2.09375 
Q 45.015625 0.34375 40.984375 -0.53125 
Q 36.96875 -1.421875 32.421875 -1.421875 
Q 20.0625 -1.421875 12.78125 6.34375 
Q 5.515625 14.109375 5.515625 27.296875 
Q 5.515625 40.671875 12.859375 48.328125 
Q 20.21875 56 33.015625 56 
Q 37.15625 56 41.109375 55.140625 
Q 45.0625 54.296875 48.78125 52.59375 
z
" id="DejaVuSans-99"/>
     </defs>
     <g transform="translate(14.798438 293.315681)rotate(-90)scale(0.1 -0.1)">
      <use xlink:href="#DejaVuSans-82"/>
      <use x="69.482422" xlink:href="#DejaVuSans-50"/>
      <use x="133.105469" xlink:href="#DejaVuSans-32"/>
      <use x="164.892578" xlink:href="#DejaVuSans-65"/>
      <use x="233.253906" xlink:href="#DejaVuSans-102"/>
      <use x="268.443359" xlink:href="#DejaVuSans-116"/>
      <use x="307.652344" xlink:href="#DejaVuSans-101"/>
      <use x="369.175781" xlink:href="#DejaVuSans-114"/>
      <use x="410.289062" xlink:href="#DejaVuSans-32"/>
      <use x="442.076172" xlink:href="#DejaVuSans-102"/>
      <use x="477.28125" xlink:href="#DejaVuSans-105"/>
      <use x="505.064453" xlink:href="#DejaVuSans-108"/>
      <use x="532.847656" xlink:href="#DejaVuSans-116"/>
      <use x="572.056641" xlink:href="#DejaVuSans-101"/>
      <use x="633.580078" xlink:href="#DejaVuSans-114"/>
      <use x="674.693359" xlink:href="#DejaVuSans-105"/>
      <use x="702.476562" xlink:href="#DejaVuSans-110"/>
      <use x="765.855469" xlink:href="#DejaVuSans-103"/>
      <use x="829.332031" xlink:href="#DejaVuSans-58"/>
      <use x="863.023438" xlink:href="#DejaVuSans-32"/>
      <use x="894.810547" xlink:href="#DejaVuSans-66"/>
      <use x="963.414062" xlink:href="#DejaVuSans-97"/>
      <use x="1024.693359" xlink:href="#DejaVuSans-115"/>
      <use x="1076.792969" xlink:href="#DejaVuSans-101"/>
      <use x="1138.316406" xlink:href="#DejaVuSans-32"/>
      <use x="1170.103516" xlink:href="#DejaVuSans-67"/>
      <use x="1239.927734" xlink:href="#DejaVuSans-111"/>
      <use x="1301.109375" xlink:href="#DejaVuSans-110"/>
      <use x="1364.488281" xlink:href="#DejaVuSans-116"/>
      <use x="1403.697266" xlink:href="#DejaVuSans-101"/>
      <use x="1465.220703" xlink:href="#DejaVuSans-110"/>
      <use x="1528.599609" xlink:href="#DejaVuSans-116"/>
      <use x="1567.808594" xlink:href="#DejaVuSans-32"/>
      <use x="1599.595703" xlink:href="#DejaVuSans-80"/>
      <use x="1659.851562" xlink:href="#DejaVuSans-101"/>
      <use x="1721.375" xlink:href="#DejaVuSans-114"/>
      <use x="1762.457031" xlink:href="#DejaVuSans-99"/>
      <use x="1817.4375" xlink:href="#DejaVuSans-101"/>
      <use x="1878.960938" xlink:href="#DejaVuSans-110"/>
      <use x="1942.339844" xlink:href="#DejaVuSans-116"/>
     </g>
    </g>
   </g>
   <g id="line2d_7">
    <path clip-path="url(#p1dc2a99a06)" d="M 76.613125 353.2239 
L 82.471514 352.937275 
L 88.329904 353.2239 
L 117.62185 353.2239 
L 146.913796 353.2239 
L 152.772185 353.060114 
L 187.922521 353.2239 
L 193.78091 353.019167 
L 199.639299 353.2239 
L 234.789635 353.142007 
L 240.648024 353.203427 
L 246.506414 353.060114 
L 252.364803 353.2239 
L 258.223192 353.060114 
L 264.081581 353.2239 
L 609.726548 353.149809 
L 615.584937 353.073544 
L 621.443326 353.2239 
L 656.593662 353.2239 
L 662.452051 353.058177 
L 668.31044 353.2239 
L 949.513125 353.2239 
L 949.513125 353.2239 
" style="fill:none;stroke:#7cb5ec;stroke-linecap:square;"/>
   </g>
   <g id="line2d_8">
    <path clip-path="url(#p1dc2a99a06)" d="M 76.613125 353.2239 
L 949.513125 353.2239 
L 949.513125 353.2239 
" style="fill:none;stroke:#434348;stroke-linecap:square;"/>
   </g>
   <g id="line2d_9">
    <path clip-path="url(#p1dc2a99a06)" d="M 76.613125 353.2239 
L 949.513125 353.2239 
L 949.513125 353.2239 
" style="fill:none;stroke:#90ed7d;stroke-linecap:square;"/>
   </g>
   <g id="line2d_10">
    <path clip-path="url(#p1dc2a99a06)" d="M 76.613125 353.2239 
L 82.471514 352.954179 
L 88.329904 353.2239 
L 94.188293 352.819318 
L 100.046682 353.2239 
L 146.913796 353.2239 
L 152.772185 353.021609 
L 164.488964 353.2239 
L 187.922521 353.2239 
L 193.78091 353.021609 
L 199.639299 353.2239 
L 228.931246 353.2239 
L 234.789635 353.021609 
L 240.648024 353.2239 
L 246.506414 353.021609 
L 252.364803 353.2239 
L 258.223192 353.021609 
L 264.081581 353.2239 
L 357.81581 353.2239 
L 363.674199 352.967098 
L 369.532588 353.2239 
L 562.859434 353.2239 
L 568.717823 352.907592 
L 574.576212 353.2239 
L 656.593662 353.2239 
L 662.452051 352.48133 
L 668.31044 353.2239 
L 949.513125 353.2239 
L 949.513125 353.2239 
" style="fill:none;stroke:#f7a35c;stroke-linecap:square;"/>
   </g>
   <g id="line2d_11">
    <path clip-path="url(#p1dc2a99a06)" d="M 76.613125 353.2239 
L 82.471514 353.004896 
L 88.329904 353.2239 
L 94.188293 353.136299 
L 105.905071 353.2239 
L 592.15138 353.2239 
L 598.009769 353.005328 
L 603.868159 353.2239 
L 644.876883 353.2239 
L 650.735273 353.065483 
L 656.593662 353.2239 
L 949.513125 353.2239 
L 949.513125 353.2239 
" style="fill:none;stroke:#8085e9;stroke-linecap:square;"/>
   </g>
   <g id="line2d_12">
    <path clip-path="url(#p1dc2a99a06)" d="M 76.613125 353.2239 
L 949.513125 353.2239 
L 949.513125 353.2239 
" style="fill:none;stroke:#f15c80;stroke-linecap:square;"/>
   </g>
   <g id="line2d_13">
    <path clip-path="url(#p1dc2a99a06)" d="M 76.613125 353.2239 
L 82.471514 353.011569 
L 88.329904 353.2239 
L 94.188293 353.123979 
L 105.905071 353.2239 
L 152.772185 353.123979 
L 158.630575 353.111489 
L 164.488964 353.2239 
L 182.064132 353.2239 
L 644.876883 353.2239 
L 650.735273 353.021429 
L 656.593662 353.2239 
L 668.31044 353.2239 
L 949.513125 353.2239 
L 949.513125 353.2239 
" style="fill:none;stroke:#e4d354;stroke-linecap:square;"/>
   </g>
   <g id="line2d_14">
    <path clip-path="url(#p1dc2a99a06)" d="M 76.613125 353.2239 
L 82.471514 353.081431 
L 88.329904 353.215266 
L 94.188293 353.14619 
L 105.905071 353.2239 
L 146.913796 353.219583 
L 152.772185 353.094383 
L 187.922521 353.2239 
L 193.78091 353.11597 
L 205.497689 353.2239 
L 240.648024 353.2239 
L 246.506414 353.098701 
L 252.364803 353.2239 
L 258.223192 353.133238 
L 269.939971 353.2239 
L 949.513125 353.2239 
L 949.513125 353.2239 
" style="fill:none;stroke:#2b908f;stroke-linecap:square;"/>
   </g>
   <g id="line2d_15">
    <path clip-path="url(#p1dc2a99a06)" d="M 76.613125 353.2239 
L 82.471514 353.023105 
L 88.329904 353.2239 
L 94.188293 353.148602 
L 105.905071 353.2239 
L 146.913796 353.215534 
L 152.772185 353.090037 
L 176.205742 353.2239 
L 211.356078 353.2239 
L 240.648024 353.215534 
L 246.506414 353.098403 
L 252.364803 353.2239 
L 258.223192 353.148602 
L 269.939971 353.215499 
L 351.95742 353.2239 
L 592.15138 353.2239 
L 598.009769 353.070765 
L 603.868159 353.2239 
L 644.876883 353.2239 
L 650.735273 353.003436 
L 656.593662 353.19172 
L 662.452051 353.125348 
L 674.16883 353.2239 
L 949.513125 353.2239 
L 949.513125 353.2239 
" style="fill:none;stroke:#f45b5b;stroke-linecap:square;"/>
   </g>
   <g id="line2d_16">
    <path clip-path="url(#p1dc2a99a06)" d="M 76.613125 353.2239 
L 82.471514 353.147913 
L 88.329904 353.2239 
L 94.188293 353.071926 
L 100.046682 353.2239 
L 146.913796 353.2239 
L 152.772185 353.097255 
L 158.630575 353.097255 
L 164.488964 353.2239 
L 193.78091 353.122584 
L 205.497689 353.2239 
L 240.648024 353.2239 
L 246.506414 353.097255 
L 252.364803 353.2239 
L 258.223192 353.147913 
L 269.939971 353.2239 
L 656.593662 353.2239 
L 662.452051 353.011539 
L 668.31044 353.2239 
L 949.513125 353.2239 
L 949.513125 353.2239 
" style="fill:none;stroke:#91e8e1;stroke-linecap:square;"/>
   </g>
   <g id="line2d_17">
    <path clip-path="url(#p1dc2a99a06)" d="M 76.613125 353.2239 
L 82.471514 352.913475 
L 88.329904 353.2239 
L 100.046682 353.2239 
L 146.913796 353.2239 
L 152.772185 353.029885 
L 170.347353 353.185097 
L 187.922521 353.2239 
L 193.78091 353.068688 
L 199.639299 353.2239 
L 240.648024 353.2239 
L 246.506414 353.029885 
L 252.364803 353.2239 
L 258.223192 353.107491 
L 264.081581 353.2239 
L 275.79836 353.2239 
L 562.859434 353.2239 
L 568.717823 353.083891 
L 574.576212 353.2239 
L 592.15138 353.2239 
L 598.009769 353.058838 
L 603.868159 353.2239 
L 644.876883 353.2239 
L 650.735273 352.578062 
L 656.593662 353.2239 
L 662.452051 352.997023 
L 668.31044 353.2239 
L 814.770172 353.2239 
L 820.628561 352.840228 
L 826.486951 353.2239 
L 949.513125 353.2239 
L 949.513125 353.2239 
" style="fill:none;stroke:#7cb5ec;stroke-linecap:square;"/>
   </g>
   <g id="line2d_18">
    <path clip-path="url(#p1dc2a99a06)" d="M 76.613125 353.2239 
L 949.513125 353.2239 
L 949.513125 353.2239 
" style="fill:none;stroke:#434348;stroke-linecap:square;"/>
   </g>
   <g id="line2d_19">
    <path clip-path="url(#p1dc2a99a06)" d="M 76.613125 353.2239 
L 82.471514 352.928509 
L 88.329904 353.2239 
L 94.188293 353.105744 
L 100.046682 353.2239 
L 146.913796 353.2239 
L 152.772185 352.987587 
L 158.630575 353.2239 
L 187.922521 353.2239 
L 193.78091 353.046665 
L 199.639299 353.2239 
L 240.648024 353.2239 
L 246.506414 353.046665 
L 252.364803 353.2239 
L 258.223192 353.046665 
L 264.081581 353.2239 
L 949.513125 353.2239 
L 949.513125 353.2239 
" style="fill:none;stroke:#90ed7d;stroke-linecap:square;"/>
   </g>
   <g id="line2d_20">
    <path clip-path="url(#p1dc2a99a06)" d="M 76.613125 353.2239 
L 82.471514 353.006979 
L 88.329904 353.2239 
L 94.188293 353.11544 
L 105.905071 353.2239 
L 152.772185 353.2239 
L 158.630575 353.006979 
L 164.488964 353.2239 
L 357.81581 353.2239 
L 363.674199 353.076903 
L 369.532588 353.2239 
L 949.513125 353.2239 
L 949.513125 353.2239 
" style="fill:none;stroke:#f7a35c;stroke-linecap:square;"/>
   </g>
   <g id="line2d_21">
    <path clip-path="url(#p1dc2a99a06)" d="M 76.613125 353.2239 
L 82.471514 353.060898 
L 88.329904 353.2239 
L 94.188293 353.060898 
L 100.046682 353.2239 
L 146.913796 353.2239 
L 152.772185 353.060898 
L 158.630575 353.2239 
L 187.922521 353.2239 
L 193.78091 353.060898 
L 199.639299 353.2239 
L 228.931246 353.2239 
L 234.789635 353.060898 
L 240.648024 353.2239 
L 246.506414 353.060898 
L 252.364803 353.2239 
L 258.223192 353.060898 
L 264.081581 353.2239 
L 949.513125 353.2239 
L 949.513125 353.2239 
" style="fill:none;stroke:#8085e9;stroke-linecap:square;"/>
   </g>
   <g id="line2d_22">
    <path clip-path="url(#p1dc2a99a06)" d="M 76.613125 353.2239 
L 88.329904 353.2239 
L 94.188293 352.924157 
L 100.046682 353.2239 
L 117.62185 353.2239 
L 123.480239 352.924157 
L 129.338628 353.2239 
L 949.513125 353.2239 
L 949.513125 353.2239 
" style="fill:none;stroke:#f15c80;stroke-linecap:square;"/>
   </g>
   <g id="line2d_23">
    <path clip-path="url(#p1dc2a99a06)" d="M 76.613125 353.2239 
L 82.471514 352.745104 
L 88.329904 353.2239 
L 146.913796 353.2239 
L 152.772185 352.745104 
L 158.630575 353.2239 
L 187.922521 353.2239 
L 193.78091 352.745104 
L 199.639299 353.2239 
L 240.648024 353.2239 
L 246.506414 352.745104 
L 252.364803 353.2239 
L 258.223192 352.745104 
L 264.081581 353.2239 
L 949.513125 353.2239 
L 949.513125 353.2239 
" style="fill:none;stroke:#e4d354;stroke-linecap:square;"/>
   </g>
   <g id="line2d_24">
    <path clip-path="url(#p1dc2a99a06)" d="M 76.613125 353.2239 
L 82.471514 352.875558 
L 88.329904 353.2239 
L 94.188293 353.143513 
L 105.905071 353.2239 
L 146.913796 353.2239 
L 152.772185 352.98274 
L 164.488964 353.2239 
L 187.922521 353.2239 
L 193.78091 352.955945 
L 199.639299 353.2239 
L 240.648024 353.2239 
L 246.506414 352.98274 
L 252.364803 353.2239 
L 258.223192 352.929149 
L 264.081581 353.2239 
L 592.15138 353.2239 
L 598.009769 352.772337 
L 603.868159 353.2239 
L 644.876883 353.2239 
L 650.735273 352.374175 
L 656.593662 353.2239 
L 949.513125 353.2239 
L 949.513125 353.2239 
" style="fill:none;stroke:#2b908f;stroke-linecap:square;"/>
   </g>
   <g id="line2d_25">
    <path clip-path="url(#p1dc2a99a06)" d="M 76.613125 353.2239 
L 82.471514 353.06633 
L 88.329904 353.2239 
L 94.188293 353.155858 
L 105.905071 353.2239 
L 644.876883 353.213179 
L 650.735273 353.072596 
L 656.593662 353.218453 
L 662.452051 353.1635 
L 674.16883 353.2239 
L 949.513125 353.2239 
L 949.513125 353.2239 
" style="fill:none;stroke:#f45b5b;stroke-linecap:square;"/>
   </g>
   <g id="line2d_26">
    <path clip-path="url(#p1dc2a99a06)" d="M 76.613125 353.2239 
L 82.471514 353.028837 
L 88.329904 353.2239 
L 100.046682 353.2239 
L 146.913796 353.2239 
L 152.772185 353.093858 
L 182.064132 353.2239 
L 240.648024 353.213063 
L 246.506414 353.072185 
L 252.364803 353.2239 
L 258.223192 353.115532 
L 269.939971 353.2239 
L 949.513125 353.2239 
L 949.513125 353.2239 
" style="fill:none;stroke:#91e8e1;stroke-linecap:square;"/>
   </g>
   <g id="line2d_27">
    <path clip-path="url(#p1dc2a99a06)" d="M 76.613125 353.2239 
L 82.471514 353.048949 
L 88.329904 353.2239 
L 94.188293 353.130957 
L 105.905071 353.2239 
L 949.513125 353.2239 
L 949.513125 353.2239 
" style="fill:none;stroke:#7cb5ec;stroke-linecap:square;"/>
   </g>
   <g id="line2d_28">
    <path clip-path="url(#p1dc2a99a06)" d="M 76.613125 353.2239 
L 82.471514 353.100611 
L 88.329904 353.2239 
L 94.188293 352.915678 
L 100.046682 353.2239 
L 152.772185 353.162256 
L 158.630575 353.100611 
L 164.488964 353.2239 
L 949.513125 353.2239 
L 949.513125 353.2239 
" style="fill:none;stroke:#434348;stroke-linecap:square;"/>
   </g>
   <g id="line2d_29">
    <path clip-path="url(#p1dc2a99a06)" d="M 76.613125 353.2239 
L 82.471514 352.977184 
L 88.329904 353.220928 
L 94.188293 353.099056 
L 100.046682 353.2239 
L 146.913796 353.2239 
L 152.772185 353.048523 
L 182.064132 353.220928 
L 187.922521 353.2239 
L 193.78091 353.04555 
L 199.639299 353.2239 
L 258.223192 353.090138 
L 264.081581 353.2239 
L 949.513125 353.2239 
L 949.513125 353.2239 
" style="fill:none;stroke:#90ed7d;stroke-linecap:square;"/>
   </g>
   <g id="line2d_30">
    <path clip-path="url(#p1dc2a99a06)" d="M 76.613125 353.2239 
L 949.513125 353.2239 
L 949.513125 353.2239 
" style="fill:none;stroke:#f7a35c;stroke-linecap:square;"/>
   </g>
   <g id="line2d_31">
    <path clip-path="url(#p1dc2a99a06)" d="M 76.613125 353.2239 
L 949.513125 353.2239 
L 949.513125 353.2239 
" style="fill:none;stroke:#8085e9;stroke-linecap:square;"/>
   </g>
   <g id="line2d_32">
    <path clip-path="url(#p1dc2a99a06)" d="M 76.613125 353.2239 
L 82.471514 353.037669 
L 88.329904 353.2239 
L 94.188293 353.116082 
L 105.905071 353.2239 
L 146.913796 353.214098 
L 152.772185 353.076875 
L 176.205742 353.2239 
L 187.922521 353.2239 
L 193.78091 353.076875 
L 199.639299 353.2239 
L 240.648024 353.214098 
L 246.506414 353.067074 
L 252.364803 353.2239 
L 258.223192 353.10628 
L 264.081581 353.2239 
L 644.876883 353.2239 
L 650.735273 352.998395 
L 656.593662 353.2239 
L 949.513125 353.2239 
L 949.513125 353.2239 
" style="fill:none;stroke:#f15c80;stroke-linecap:square;"/>
   </g>
   <g id="line2d_33">
    <path clip-path="url(#p1dc2a99a06)" d="M 76.613125 353.2239 
L 82.471514 353.071082 
L 88.329904 353.2239 
L 94.188293 353.122022 
L 105.905071 353.2239 
L 187.922521 353.2239 
L 193.78091 353.071082 
L 199.639299 353.2239 
L 252.364803 353.2239 
L 258.223192 353.020143 
L 264.081581 353.2239 
L 357.81581 353.2239 
L 363.674199 353.072276 
L 369.532588 353.2239 
L 949.513125 353.2239 
L 949.513125 353.2239 
" style="fill:none;stroke:#e4d354;stroke-linecap:square;"/>
   </g>
   <g id="line2d_34">
    <path clip-path="url(#p1dc2a99a06)" d="M 76.613125 353.2239 
L 123.480239 353.2239 
L 129.338628 352.210778 
L 135.197018 353.2239 
L 949.513125 353.2239 
L 949.513125 353.2239 
" style="fill:none;stroke:#2b908f;stroke-linecap:square;"/>
   </g>
   <g id="line2d_35">
    <path clip-path="url(#p1dc2a99a06)" d="M 76.613125 353.2239 
L 82.471514 353.057938 
L 88.329904 353.2239 
L 94.188293 353.110347 
L 100.046682 353.2239 
L 240.648024 353.20643 
L 246.506414 353.101612 
L 252.364803 353.2239 
L 258.223192 353.092877 
L 264.081581 353.2239 
L 334.382253 353.2239 
L 656.593662 353.2239 
L 662.452051 353.044617 
L 668.31044 353.2239 
L 721.035944 353.2239 
L 726.894333 353.092508 
L 732.752722 353.2239 
L 949.513125 353.2239 
L 949.513125 353.2239 
" style="fill:none;stroke:#f45b5b;stroke-linecap:square;"/>
   </g>
   <g id="line2d_36">
    <path clip-path="url(#p1dc2a99a06)" d="M 76.613125 353.2239 
L 82.471514 352.965861 
L 88.329904 353.210998 
L 94.188293 353.133586 
L 105.905071 353.217449 
L 146.913796 353.2239 
L 152.772185 352.991665 
L 176.205742 353.2239 
L 187.922521 353.2239 
L 193.78091 352.991665 
L 199.639299 353.2239 
L 240.648024 353.2239 
L 246.506414 353.036822 
L 252.364803 353.2239 
L 258.223192 353.069076 
L 264.081581 353.2239 
L 656.593662 353.2239 
L 662.452051 353.034799 
L 668.31044 353.2239 
L 721.035944 353.2239 
L 726.894333 353.051639 
L 732.752722 353.2239 
L 949.513125 353.2239 
L 949.513125 353.2239 
" style="fill:none;stroke:#91e8e1;stroke-linecap:square;"/>
   </g>
   <g id="line2d_37">
    <path clip-path="url(#p1dc2a99a06)" d="M 76.613125 353.2239 
L 82.471514 351.932136 
L 88.329904 353.2239 
L 146.913796 353.2239 
L 152.772185 351.932136 
L 158.630575 353.2239 
L 187.922521 353.2239 
L 193.78091 351.932136 
L 199.639299 353.2239 
L 228.931246 353.2239 
L 234.789635 351.932136 
L 240.648024 353.2239 
L 246.506414 351.932136 
L 252.364803 353.2239 
L 258.223192 351.932136 
L 264.081581 353.2239 
L 949.513125 353.2239 
L 949.513125 353.2239 
" style="fill:none;stroke:#7cb5ec;stroke-linecap:square;"/>
   </g>
   <g id="line2d_38">
    <path clip-path="url(#p1dc2a99a06)" d="M 76.613125 353.2239 
L 117.62185 353.2239 
L 123.480239 352.919216 
L 129.338628 353.2239 
L 152.772185 353.2239 
L 158.630575 352.614532 
L 164.488964 353.2239 
L 949.513125 353.2239 
L 949.513125 353.2239 
" style="fill:none;stroke:#434348;stroke-linecap:square;"/>
   </g>
   <g id="line2d_39">
    <path clip-path="url(#p1dc2a99a06)" d="M 76.613125 353.2239 
L 82.471514 353.070455 
L 88.329904 353.221385 
L 94.188293 353.14592 
L 105.905071 353.2239 
L 644.876883 353.215913 
L 650.735273 353.055275 
L 656.593662 353.219864 
L 662.452051 353.15897 
L 674.16883 353.2239 
L 949.513125 353.2239 
L 949.513125 353.2239 
" style="fill:none;stroke:#90ed7d;stroke-linecap:square;"/>
   </g>
   <g id="line2d_40">
    <path clip-path="url(#p1dc2a99a06)" d="M 76.613125 353.2239 
L 82.471514 353.029272 
L 88.329904 353.2239 
L 94.188293 353.14428 
L 105.905071 353.2239 
L 146.913796 353.2239 
L 152.772185 353.082353 
L 187.922521 353.2239 
L 193.78091 353.082353 
L 199.639299 353.2239 
L 234.789635 353.179666 
L 240.648024 353.215053 
L 246.506414 353.100046 
L 252.364803 353.2239 
L 258.223192 353.100046 
L 264.081581 353.2239 
L 334.382253 353.2239 
L 949.513125 353.2239 
L 949.513125 353.2239 
" style="fill:none;stroke:#f7a35c;stroke-linecap:square;"/>
   </g>
   <g id="line2d_41">
    <path clip-path="url(#p1dc2a99a06)" d="M 76.613125 353.2239 
L 82.471514 352.853229 
L 88.329904 353.203307 
L 94.188293 353.038564 
L 100.046682 353.2239 
L 146.913796 353.2239 
L 152.772185 352.894415 
L 170.347353 353.2239 
L 187.922521 353.2239 
L 193.78091 352.976786 
L 199.639299 353.2239 
L 228.931246 353.203307 
L 234.789635 353.07975 
L 240.648024 353.2239 
L 246.506414 352.956193 
L 252.364803 353.2239 
L 258.223192 352.956193 
L 264.081581 353.2239 
L 949.513125 353.2239 
L 949.513125 353.2239 
" style="fill:none;stroke:#8085e9;stroke-linecap:square;"/>
   </g>
   <g id="line2d_42">
    <path clip-path="url(#p1dc2a99a06)" d="M 76.613125 353.2239 
L 88.329904 353.2239 
L 562.859434 353.2239 
L 568.717823 353.072898 
L 574.576212 353.2239 
L 592.15138 353.202127 
L 598.009769 353.09293 
L 603.868159 353.2239 
L 644.876883 353.201605 
L 650.735273 353.045002 
L 656.593662 353.2239 
L 662.452051 353.088926 
L 668.31044 353.2239 
L 721.035944 353.2239 
L 726.894333 353.106475 
L 732.752722 353.2239 
L 949.513125 353.2239 
L 949.513125 353.2239 
" style="fill:none;stroke:#f15c80;stroke-linecap:square;"/>
   </g>
   <g id="line2d_43">
    <path clip-path="url(#p1dc2a99a06)" d="M 76.613125 353.2239 
L 82.471514 353.074716 
L 88.329904 353.210737 
L 94.188293 353.140533 
L 105.905071 353.2239 
L 146.913796 353.2239 
L 152.772185 353.096655 
L 176.205742 353.2239 
L 240.648024 353.219512 
L 246.506414 353.096655 
L 252.364803 353.2239 
L 258.223192 353.118593 
L 269.939971 353.2239 
L 644.876883 353.2239 
L 650.735273 353.103214 
L 656.593662 353.2239 
L 674.16883 353.2239 
L 949.513125 353.2239 
L 949.513125 353.2239 
" style="fill:none;stroke:#e4d354;stroke-linecap:square;"/>
   </g>
   <g id="line2d_44">
    <path clip-path="url(#p1dc2a99a06)" d="M 76.613125 353.2239 
L 82.471514 353.014998 
L 88.329904 353.220828 
L 94.188293 353.0918 
L 100.046682 353.2239 
L 146.913796 353.2239 
L 152.772185 353.061079 
L 187.922521 353.2239 
L 193.78091 353.101017 
L 199.639299 353.2239 
L 410.541313 353.2239 
L 949.513125 353.2239 
L 949.513125 353.2239 
" style="fill:none;stroke:#2b908f;stroke-linecap:square;"/>
   </g>
   <g id="line2d_45">
    <path clip-path="url(#p1dc2a99a06)" d="M 76.613125 353.2239 
L 949.513125 353.2239 
L 949.513125 353.2239 
" style="fill:none;stroke:#f45b5b;stroke-linecap:square;"/>
   </g>
   <g id="line2d_46">
    <path clip-path="url(#p1dc2a99a06)" d="M 76.613125 353.2239 
L 82.471514 352.969054 
L 88.329904 353.2239 
L 94.188293 353.133954 
L 105.905071 353.2239 
L 146.913796 353.2239 
L 152.772185 353.10897 
L 187.922521 353.2239 
L 193.78091 353.118964 
L 199.639299 353.2239 
L 269.939971 353.213875 
L 340.240642 353.2239 
L 592.15138 353.2239 
L 598.009769 353.060884 
L 603.868159 353.2239 
L 644.876883 353.2239 
L 650.735273 353.079898 
L 656.593662 353.2239 
L 662.452051 353.150023 
L 674.16883 353.2239 
L 949.513125 353.2239 
L 949.513125 353.2239 
" style="fill:none;stroke:#91e8e1;stroke-linecap:square;"/>
   </g>
   <g id="line2d_47">
    <path clip-path="url(#p1dc2a99a06)" d="M 76.613125 353.2239 
L 82.471514 352.884231 
L 88.329904 353.2239 
L 94.188293 353.138983 
L 105.905071 353.2239 
L 146.913796 353.2239 
L 152.772185 352.884231 
L 158.630575 352.969148 
L 164.488964 353.2239 
L 187.922521 353.2239 
L 193.78091 352.884231 
L 199.639299 353.2239 
L 240.648024 353.2239 
L 246.506414 352.884231 
L 252.364803 353.2239 
L 258.223192 352.969148 
L 264.081581 353.2239 
L 469.125206 353.2239 
L 474.983595 352.891558 
L 480.841984 353.2239 
L 949.513125 353.2239 
L 949.513125 353.2239 
" style="fill:none;stroke:#7cb5ec;stroke-linecap:square;"/>
   </g>
   <g id="line2d_48">
    <path clip-path="url(#p1dc2a99a06)" d="M 76.613125 353.2239 
L 82.471514 352.933412 
L 88.329904 353.2239 
L 146.913796 353.2239 
L 152.772185 352.933412 
L 158.630575 353.2239 
L 187.922521 353.2239 
L 193.78091 352.933412 
L 199.639299 353.2239 
L 240.648024 353.2239 
L 246.506414 352.933412 
L 252.364803 353.2239 
L 258.223192 352.933412 
L 264.081581 353.2239 
L 949.513125 353.2239 
L 949.513125 353.2239 
" style="fill:none;stroke:#434348;stroke-linecap:square;"/>
   </g>
   <g id="line2d_49">
    <path clip-path="url(#p1dc2a99a06)" d="M 76.613125 353.2239 
L 82.471514 352.983731 
L 88.329904 353.207889 
L 949.513125 353.2239 
L 949.513125 353.2239 
" style="fill:none;stroke:#90ed7d;stroke-linecap:square;"/>
   </g>
   <g id="line2d_50">
    <path clip-path="url(#p1dc2a99a06)" d="M 76.613125 353.2239 
L 82.471514 352.901551 
L 88.329904 353.2239 
L 94.188293 353.094961 
L 100.046682 353.2239 
L 146.913796 353.2239 
L 152.772185 352.966021 
L 158.630575 353.030491 
L 164.488964 353.2239 
L 187.922521 353.2239 
L 193.78091 352.966021 
L 199.639299 353.2239 
L 228.931246 353.2239 
L 234.789635 353.094961 
L 240.648024 353.2239 
L 246.506414 352.966021 
L 252.364803 353.2239 
L 258.223192 353.030491 
L 264.081581 353.2239 
L 949.513125 353.2239 
L 949.513125 353.2239 
" style="fill:none;stroke:#f7a35c;stroke-linecap:square;"/>
   </g>
   <g id="line2d_51">
    <path clip-path="url(#p1dc2a99a06)" d="M 76.613125 353.2239 
L 152.772185 353.2239 
L 158.630575 352.067234 
L 164.488964 353.2239 
L 228.931246 353.2239 
L 234.789635 352.067234 
L 240.648024 353.2239 
L 357.81581 353.2239 
L 363.674199 351.635249 
L 369.532588 353.2239 
L 949.513125 353.2239 
L 949.513125 353.2239 
" style="fill:none;stroke:#8085e9;stroke-linecap:square;"/>
   </g>
   <g id="line2d_52">
    <path clip-path="url(#p1dc2a99a06)" d="M 76.613125 353.2239 
L 949.513125 353.2239 
L 949.513125 353.2239 
" style="fill:none;stroke:#f15c80;stroke-linecap:square;"/>
   </g>
   <g id="line2d_53">
    <path clip-path="url(#p1dc2a99a06)" d="M 76.613125 353.2239 
L 152.772185 353.2239 
L 158.630575 350.056888 
L 164.488964 353.2239 
L 949.513125 353.2239 
L 949.513125 353.2239 
" style="fill:none;stroke:#e4d354;stroke-linecap:square;"/>
   </g>
   <g id="line2d_54">
    <path clip-path="url(#p1dc2a99a06)" d="M 76.613125 353.2239 
L 949.513125 353.2239 
L 949.513125 353.2239 
" style="fill:none;stroke:#2b908f;stroke-linecap:square;"/>
   </g>
   <g id="line2d_55">
    <path clip-path="url(#p1dc2a99a06)" d="M 76.613125 353.2239 
L 82.471514 352.9605 
L 88.329904 353.2239 
L 94.188293 353.0922 
L 100.046682 353.2239 
L 146.913796 353.2239 
L 152.772185 352.927575 
L 158.630575 353.141588 
L 170.347353 353.2239 
L 187.922521 353.2239 
L 193.78091 352.9605 
L 199.639299 353.2239 
L 228.931246 353.2239 
L 234.789635 353.0922 
L 240.648024 353.2239 
L 246.506414 352.976963 
L 252.364803 353.2239 
L 258.223192 353.02635 
L 264.081581 353.2239 
L 592.15138 353.2239 
L 598.009769 353.102132 
L 603.868159 353.2239 
L 644.876883 353.2239 
L 650.735273 353.025461 
L 656.593662 353.2239 
L 662.452051 353.001917 
L 668.31044 353.2239 
L 949.513125 353.2239 
L 949.513125 353.2239 
" style="fill:none;stroke:#f45b5b;stroke-linecap:square;"/>
   </g>
   <g id="line2d_56">
    <path clip-path="url(#p1dc2a99a06)" d="M 76.613125 353.2239 
L 949.513125 353.2239 
L 949.513125 353.2239 
" style="fill:none;stroke:#91e8e1;stroke-linecap:square;"/>
   </g>
   <g id="line2d_57">
    <path clip-path="url(#p1dc2a99a06)" d="M 76.613125 353.2239 
L 82.471514 353.083813 
L 88.329904 353.2239 
L 146.913796 353.2239 
L 158.630575 352.943728 
L 164.488964 353.2239 
L 252.364803 353.2239 
L 258.223192 353.083813 
L 264.081581 353.2239 
L 949.513125 353.2239 
L 949.513125 353.2239 
" style="fill:none;stroke:#7cb5ec;stroke-linecap:square;"/>
   </g>
   <g id="line2d_58">
    <path clip-path="url(#p1dc2a99a06)" d="M 76.613125 353.2239 
L 82.471514 353.037611 
L 88.329904 353.2239 
L 94.188293 353.161804 
L 105.905071 353.2239 
L 146.913796 353.2239 
L 152.772185 353.099707 
L 170.347353 353.2239 
L 187.922521 353.2239 
L 193.78091 353.099707 
L 199.639299 353.2239 
L 228.931246 353.2239 
L 234.789635 353.037611 
L 240.648024 353.2239 
L 246.506414 353.099707 
L 252.364803 353.2239 
L 258.223192 353.099707 
L 264.081581 353.2239 
L 469.125206 353.2239 
L 474.983595 352.998646 
L 480.841984 353.2239 
L 949.513125 353.2239 
L 949.513125 353.2239 
" style="fill:none;stroke:#434348;stroke-linecap:square;"/>
   </g>
   <g id="line2d_59">
    <path clip-path="url(#p1dc2a99a06)" d="M 76.613125 353.2239 
L 252.364803 353.2239 
L 258.223192 352.266454 
L 264.081581 353.2239 
L 949.513125 353.2239 
L 949.513125 353.2239 
" style="fill:none;stroke:#90ed7d;stroke-linecap:square;"/>
   </g>
   <g id="line2d_60">
    <path clip-path="url(#p1dc2a99a06)" d="M 76.613125 353.2239 
L 949.513125 353.2239 
L 949.513125 353.2239 
" style="fill:none;stroke:#f7a35c;stroke-linecap:square;"/>
   </g>
   <g id="line2d_61">
    <path clip-path="url(#p1dc2a99a06)" d="M 76.613125 353.2239 
L 82.471514 353.131341 
L 94.188293 353.21678 
L 187.922521 353.2239 
L 644.876883 353.2239 
L 650.735273 353.084558 
L 656.593662 353.2239 
L 662.452051 353.14967 
L 674.16883 353.2239 
L 949.513125 353.2239 
L 949.513125 353.2239 
" style="fill:none;stroke:#8085e9;stroke-linecap:square;"/>
   </g>
   <g id="line2d_62">
    <path clip-path="url(#p1dc2a99a06)" d="M 76.613125 353.2239 
L 949.513125 353.2239 
L 949.513125 353.2239 
" style="fill:none;stroke:#f15c80;stroke-linecap:square;"/>
   </g>
   <g id="line2d_63">
    <path clip-path="url(#p1dc2a99a06)" d="M 76.613125 353.2239 
L 949.513125 353.2239 
L 949.513125 353.2239 
" style="fill:none;stroke:#e4d354;stroke-linecap:square;"/>
   </g>
   <g id="line2d_64">
    <path clip-path="url(#p1dc2a99a06)" d="M 76.613125 353.2239 
L 949.513125 353.2239 
L 949.513125 353.2239 
" style="fill:none;stroke:#2b908f;stroke-linecap:square;"/>
   </g>
   <g id="line2d_65">
    <path clip-path="url(#p1dc2a99a06)" d="M 76.613125 353.2239 
L 949.513125 353.2239 
L 949.513125 353.2239 
" style="fill:none;stroke:#f45b5b;stroke-linecap:square;"/>
   </g>
   <g id="line2d_66">
    <path clip-path="url(#p1dc2a99a06)" d="M 76.613125 353.2239 
L 187.922521 353.2239 
L 193.78091 352.506946 
L 199.639299 353.2239 
L 252.364803 353.2239 
L 258.223192 352.506946 
L 264.081581 353.2239 
L 949.513125 353.2239 
L 949.513125 353.2239 
" style="fill:none;stroke:#91e8e1;stroke-linecap:square;"/>
   </g>
   <g id="line2d_67">
    <path clip-path="url(#p1dc2a99a06)" d="M 76.613125 353.2239 
L 82.471514 352.978118 
L 88.329904 353.2239 
L 94.188293 352.916673 
L 100.046682 353.2239 
L 146.913796 353.2239 
L 152.772185 352.978118 
L 164.488964 353.2239 
L 170.347353 353.162455 
L 182.064132 353.2239 
L 187.922521 353.2239 
L 193.78091 353.039564 
L 199.639299 353.2239 
L 228.931246 353.162455 
L 234.789635 352.978118 
L 240.648024 353.2239 
L 246.506414 353.039564 
L 252.364803 353.2239 
L 258.223192 353.162455 
L 269.939971 353.2239 
L 949.513125 353.2239 
L 949.513125 353.2239 
" style="fill:none;stroke:#7cb5ec;stroke-linecap:square;"/>
   </g>
   <g id="line2d_68">
    <path clip-path="url(#p1dc2a99a06)" d="M 76.613125 353.2239 
L 82.471514 352.908961 
L 88.329904 353.2239 
L 94.188293 353.11892 
L 105.905071 353.2239 
L 146.913796 353.2239 
L 152.772185 352.908961 
L 164.488964 353.2239 
L 170.347353 353.11892 
L 182.064132 353.2239 
L 187.922521 353.2239 
L 193.78091 353.013941 
L 199.639299 353.2239 
L 240.648024 353.2239 
L 246.506414 353.013941 
L 252.364803 353.2239 
L 258.223192 353.013941 
L 264.081581 353.2239 
L 949.513125 353.2239 
L 949.513125 353.2239 
" style="fill:none;stroke:#434348;stroke-linecap:square;"/>
   </g>
   <g id="line2d_69">
    <path clip-path="url(#p1dc2a99a06)" d="M 76.613125 353.2239 
L 949.513125 353.2239 
L 949.513125 353.2239 
" style="fill:none;stroke:#90ed7d;stroke-linecap:square;"/>
   </g>
   <g id="line2d_70">
    <path clip-path="url(#p1dc2a99a06)" d="M 76.613125 353.2239 
L 88.329904 353.2239 
L 94.188293 352.964863 
L 100.046682 353.2239 
L 123.480239 353.2239 
L 129.338628 352.964863 
L 135.197018 353.2239 
L 152.772185 353.2239 
L 158.630575 352.964863 
L 164.488964 353.2239 
L 240.648024 353.2239 
L 246.506414 352.964863 
L 252.364803 353.2239 
L 949.513125 353.2239 
L 949.513125 353.2239 
" style="fill:none;stroke:#f7a35c;stroke-linecap:square;"/>
   </g>
   <g id="line2d_71">
    <path clip-path="url(#p1dc2a99a06)" d="M 76.613125 353.2239 
L 949.513125 353.2239 
L 949.513125 353.2239 
" style="fill:none;stroke:#8085e9;stroke-linecap:square;"/>
   </g>
   <g id="line2d_72">
    <path clip-path="url(#p1dc2a99a06)" d="M 76.613125 353.2239 
L 82.471514 353.137101 
L 94.188293 353.2115 
L 146.913796 353.2239 
L 644.876883 353.210107 
L 650.735273 353.07182 
L 656.593662 353.2239 
L 668.31044 353.2239 
L 949.513125 353.2239 
L 949.513125 353.2239 
" style="fill:none;stroke:#f15c80;stroke-linecap:square;"/>
   </g>
   <g id="line2d_73">
    <path clip-path="url(#p1dc2a99a06)" d="M 76.613125 353.2239 
L 82.471514 353.154168 
L 94.188293 353.214602 
L 152.772185 353.219251 
L 182.064132 353.2239 
L 644.876883 353.213163 
L 650.735273 353.073099 
L 656.593662 353.218497 
L 662.452051 353.104643 
L 668.31044 353.2239 
L 949.513125 353.2239 
L 949.513125 353.2239 
" style="fill:none;stroke:#e4d354;stroke-linecap:square;"/>
   </g>
   <g id="line2d_74">
    <path clip-path="url(#p1dc2a99a06)" d="M 76.613125 353.2239 
L 82.471514 353.123528 
L 94.188293 353.2239 
L 592.15138 353.2239 
L 598.009769 353.058099 
L 603.868159 353.2239 
L 644.876883 353.205754 
L 650.735273 352.987303 
L 656.593662 353.211731 
L 662.452051 353.120141 
L 674.16883 353.2239 
L 949.513125 353.2239 
L 949.513125 353.2239 
" style="fill:none;stroke:#2b908f;stroke-linecap:square;"/>
   </g>
   <g id="line2d_75">
    <path clip-path="url(#p1dc2a99a06)" d="M 76.613125 353.2239 
L 240.648024 353.2239 
L 246.506414 352.333481 
L 252.364803 353.2239 
L 949.513125 353.2239 
L 949.513125 353.2239 
" style="fill:none;stroke:#f45b5b;stroke-linecap:square;"/>
   </g>
   <g id="line2d_76">
    <path clip-path="url(#p1dc2a99a06)" d="M 76.613125 353.2239 
L 82.471514 352.481934 
L 88.329904 353.2239 
L 146.913796 353.2239 
L 152.772185 352.481934 
L 158.630575 353.2239 
L 187.922521 353.2239 
L 193.78091 352.481934 
L 199.639299 353.2239 
L 240.648024 353.2239 
L 246.506414 352.481934 
L 252.364803 353.2239 
L 258.223192 352.481934 
L 264.081581 353.2239 
L 949.513125 353.2239 
L 949.513125 353.2239 
" style="fill:none;stroke:#91e8e1;stroke-linecap:square;"/>
   </g>
   <g id="line2d_77">
    <path clip-path="url(#p1dc2a99a06)" d="M 76.613125 353.2239 
L 949.513125 353.2239 
L 949.513125 353.2239 
" style="fill:none;stroke:#7cb5ec;stroke-linecap:square;"/>
   </g>
   <g id="line2d_78">
    <path clip-path="url(#p1dc2a99a06)" d="M 76.613125 353.2239 
L 82.471514 353.053034 
L 88.329904 353.2239 
L 94.188293 353.095751 
L 100.046682 353.2239 
L 152.772185 353.138467 
L 158.630575 353.109989 
L 164.488964 353.2239 
L 182.064132 353.209661 
L 187.922521 353.2239 
L 193.78091 353.124228 
L 205.497689 353.2239 
L 246.506414 353.138467 
L 252.364803 353.2239 
L 258.223192 353.138467 
L 269.939971 353.2239 
L 949.513125 353.2239 
L 949.513125 353.2239 
" style="fill:none;stroke:#434348;stroke-linecap:square;"/>
   </g>
   <g id="line2d_79">
    <path clip-path="url(#p1dc2a99a06)" d="M 76.613125 353.2239 
L 82.471514 353.064213 
L 88.329904 353.2239 
L 146.913796 353.2239 
L 152.772185 353.064213 
L 158.630575 353.2239 
L 164.488964 353.2239 
L 170.347353 353.064213 
L 176.205742 353.2239 
L 223.072857 353.2239 
L 228.931246 353.064213 
L 234.789635 353.2239 
L 252.364803 353.2239 
L 258.223192 353.064213 
L 264.081581 353.2239 
L 949.513125 353.2239 
L 949.513125 353.2239 
" style="fill:none;stroke:#90ed7d;stroke-linecap:square;"/>
   </g>
   <g id="line2d_80">
    <path clip-path="url(#p1dc2a99a06)" d="M 76.613125 353.2239 
L 146.913796 353.2239 
L 152.772185 351.452984 
L 158.630575 353.2239 
L 949.513125 353.2239 
L 949.513125 353.2239 
" style="fill:none;stroke:#f7a35c;stroke-linecap:square;"/>
   </g>
   <g id="line2d_81">
    <path clip-path="url(#p1dc2a99a06)" d="M 76.613125 353.2239 
L 949.513125 353.2239 
L 949.513125 353.2239 
" style="fill:none;stroke:#8085e9;stroke-linecap:square;"/>
   </g>
   <g id="line2d_82">
    <path clip-path="url(#p1dc2a99a06)" d="M 76.613125 353.2239 
L 949.513125 353.2239 
L 949.513125 353.2239 
" style="fill:none;stroke:#f15c80;stroke-linecap:square;"/>
   </g>
   <g id="line2d_83">
    <path clip-path="url(#p1dc2a99a06)" d="M 76.613125 353.2239 
L 949.513125 353.2239 
L 949.513125 353.2239 
" style="fill:none;stroke:#e4d354;stroke-linecap:square;"/>
   </g>
   <g id="line2d_84">
    <path clip-path="url(#p1dc2a99a06)" d="M 76.613125 353.2239 
L 82.471514 353.138443 
L 88.329904 353.2239 
L 105.905071 353.2239 
L 644.876883 353.2239 
L 650.735273 353.064941 
L 656.593662 353.2239 
L 674.16883 353.2239 
L 949.513125 353.2239 
L 949.513125 353.2239 
" style="fill:none;stroke:#2b908f;stroke-linecap:square;"/>
   </g>
   <g id="line2d_85">
    <path clip-path="url(#p1dc2a99a06)" d="M 76.613125 353.2239 
L 82.471514 352.878436 
L 88.329904 353.211562 
L 94.188293 353.103604 
L 100.046682 353.2239 
L 146.913796 353.2239 
L 152.772185 352.94938 
L 164.488964 353.2239 
L 187.922521 353.2239 
L 193.78091 352.986394 
L 199.639299 353.2239 
L 240.648024 353.220816 
L 246.506414 352.97714 
L 252.364803 353.2239 
L 258.223192 353.017239 
L 264.081581 353.2239 
L 469.125206 353.2239 
L 592.15138 353.2239 
L 598.009769 353.087698 
L 603.868159 353.2239 
L 644.876883 353.2239 
L 650.735273 353.106215 
L 656.593662 353.2239 
L 685.885608 353.2239 
L 814.770172 353.190002 
L 820.628561 353.086123 
L 826.486951 353.2239 
L 949.513125 353.2239 
L 949.513125 353.2239 
" style="fill:none;stroke:#f45b5b;stroke-linecap:square;"/>
   </g>
   <g id="line2d_86">
    <path clip-path="url(#p1dc2a99a06)" d="M 76.613125 353.2239 
L 82.471514 352.883076 
L 88.329904 353.215587 
L 94.188293 353.16294 
L 105.905071 353.2239 
L 146.913796 353.2239 
L 152.772185 352.949578 
L 164.488964 353.2239 
L 187.922521 353.2239 
L 193.78091 352.952349 
L 199.639299 353.2239 
L 240.648024 353.218358 
L 246.506414 352.968974 
L 252.364803 353.2239 
L 258.223192 352.968974 
L 264.081581 353.2239 
L 492.558763 353.2239 
L 949.513125 353.2239 
L 949.513125 353.2239 
" style="fill:none;stroke:#91e8e1;stroke-linecap:square;"/>
   </g>
   <g id="line2d_87">
    <path clip-path="url(#p1dc2a99a06)" d="M 76.613125 353.2239 
L 82.471514 352.94698 
L 88.329904 353.2239 
L 94.188293 353.056793 
L 100.046682 353.2239 
L 146.913796 353.2239 
L 152.772185 353.023372 
L 176.205742 353.219126 
L 187.922521 353.2239 
L 193.78091 353.047245 
L 199.639299 353.2239 
L 234.789635 353.061568 
L 240.648024 353.219126 
L 246.506414 353.066342 
L 252.364803 353.2239 
L 258.223192 353.094989 
L 264.081581 353.2239 
L 592.15138 353.2239 
L 598.009769 353.097154 
L 603.868159 353.2239 
L 644.876883 353.2239 
L 650.735273 353.031886 
L 656.593662 353.2239 
L 674.16883 353.2239 
L 949.513125 353.2239 
L 949.513125 353.2239 
" style="fill:none;stroke:#7cb5ec;stroke-linecap:square;"/>
   </g>
   <g id="line2d_88">
    <path clip-path="url(#p1dc2a99a06)" d="M 76.613125 353.2239 
L 82.471514 352.916478 
L 88.329904 353.209261 
L 94.188293 353.04823 
L 100.046682 353.2239 
L 146.913796 353.2239 
L 152.772185 352.960395 
L 164.488964 353.2239 
L 187.922521 353.2239 
L 193.78091 352.960395 
L 199.639299 353.2239 
L 240.648024 353.2239 
L 246.506414 352.931117 
L 252.364803 353.2239 
L 258.223192 352.975035 
L 264.081581 353.2239 
L 305.090306 353.2239 
L 644.876883 353.2239 
L 650.735273 352.780646 
L 656.593662 353.2239 
L 949.513125 353.2239 
L 949.513125 353.2239 
" style="fill:none;stroke:#434348;stroke-linecap:square;"/>
   </g>
   <g id="line2d_89">
    <path clip-path="url(#p1dc2a99a06)" d="M 76.613125 353.2239 
L 82.471514 352.976909 
L 88.329904 353.2239 
L 94.188293 353.109905 
L 100.046682 353.2239 
L 146.913796 353.2239 
L 152.772185 353.04024 
L 164.488964 353.2239 
L 211.356078 353.2239 
L 240.648024 353.2239 
L 246.506414 353.04024 
L 252.364803 353.2239 
L 258.223192 353.05924 
L 264.081581 353.2239 
L 363.674199 353.18385 
L 381.249367 353.2239 
L 644.876883 353.2239 
L 650.735273 353.070656 
L 656.593662 353.2239 
L 668.31044 353.2239 
L 949.513125 353.2239 
L 949.513125 353.2239 
" style="fill:none;stroke:#90ed7d;stroke-linecap:square;"/>
   </g>
   <g id="line2d_90">
    <path clip-path="url(#p1dc2a99a06)" d="M 76.613125 353.2239 
L 82.471514 352.997229 
L 88.329904 353.216084 
L 94.188293 353.106656 
L 100.046682 353.2239 
L 146.913796 353.2239 
L 152.772185 353.083207 
L 170.347353 353.2239 
L 187.922521 353.2239 
L 193.78091 353.106656 
L 199.639299 353.2239 
L 281.656749 353.2239 
L 644.876883 353.2239 
L 650.735273 353.096689 
L 662.452051 353.197697 
L 691.743997 353.2239 
L 949.513125 353.2239 
L 949.513125 353.2239 
" style="fill:none;stroke:#f7a35c;stroke-linecap:square;"/>
   </g>
   <g id="line2d_91">
    <path clip-path="url(#p1dc2a99a06)" d="M 76.613125 353.2239 
L 82.471514 353.1117 
L 88.329904 353.2239 
L 94.188293 353.13975 
L 105.905071 353.2239 
L 146.913796 353.2239 
L 152.772185 353.10235 
L 164.488964 353.2239 
L 193.78091 353.1491 
L 205.497689 353.2052 
L 228.931246 353.2052 
L 258.223192 353.15845 
L 269.939971 353.214515 
L 340.240642 353.2239 
L 644.876883 353.195852 
L 650.735273 352.995726 
L 656.593662 353.2239 
L 662.452051 353.164975 
L 674.16883 353.2239 
L 949.513125 353.2239 
L 949.513125 353.2239 
" style="fill:none;stroke:#8085e9;stroke-linecap:square;"/>
   </g>
   <g id="line2d_92">
    <path clip-path="url(#p1dc2a99a06)" d="M 76.613125 353.2239 
L 88.329904 353.2239 
L 94.188293 351.239703 
L 100.046682 353.2239 
L 949.513125 353.2239 
L 949.513125 353.2239 
" style="fill:none;stroke:#f15c80;stroke-linecap:square;"/>
   </g>
   <g id="line2d_93">
    <path clip-path="url(#p1dc2a99a06)" d="M 76.613125 353.2239 
L 949.513125 353.2239 
L 949.513125 353.2239 
" style="fill:none;stroke:#e4d354;stroke-linecap:square;"/>
   </g>
   <g id="line2d_94">
    <path clip-path="url(#p1dc2a99a06)" d="M 76.613125 353.2239 
L 82.471514 351.527166 
L 88.329904 353.2239 
L 592.15138 353.2239 
L 598.009769 349.017972 
L 603.868159 353.2239 
L 949.513125 353.2239 
L 949.513125 353.2239 
" style="fill:none;stroke:#2b908f;stroke-linecap:square;"/>
   </g>
   <g id="line2d_95">
    <path clip-path="url(#p1dc2a99a06)" d="M 76.613125 353.2239 
L 88.329904 353.2239 
L 94.188293 351.997408 
L 100.046682 353.2239 
L 152.772185 353.2239 
L 158.630575 351.997408 
L 164.488964 353.2239 
L 228.931246 353.2239 
L 234.789635 351.997408 
L 240.648024 353.2239 
L 357.81581 353.2239 
L 363.674199 351.651745 
L 369.532588 353.2239 
L 949.513125 353.2239 
L 949.513125 353.2239 
" style="fill:none;stroke:#f45b5b;stroke-linecap:square;"/>
   </g>
   <g id="line2d_96">
    <path clip-path="url(#p1dc2a99a06)" d="M 76.613125 353.2239 
L 82.471514 353.109515 
L 88.329904 353.2239 
L 562.859434 353.20828 
L 568.717823 353.098691 
L 574.576212 353.2239 
L 644.876883 353.191684 
L 650.735273 353.04626 
L 656.593662 353.175325 
L 674.16883 353.2239 
L 949.513125 353.2239 
L 949.513125 353.2239 
" style="fill:none;stroke:#91e8e1;stroke-linecap:square;"/>
   </g>
   <g id="line2d_97">
    <path clip-path="url(#p1dc2a99a06)" d="M 76.613125 353.2239 
L 82.471514 352.935016 
L 88.329904 353.2239 
L 94.188293 353.098298 
L 100.046682 353.2239 
L 146.913796 353.2239 
L 152.772185 352.985257 
L 170.347353 353.19878 
L 187.922521 353.2239 
L 193.78091 353.010377 
L 199.639299 353.2239 
L 240.648024 353.2239 
L 246.506414 352.985257 
L 252.364803 353.2239 
L 258.223192 353.010377 
L 264.081581 353.2239 
L 357.81581 353.2239 
L 363.674199 353.094437 
L 369.532588 353.2239 
L 656.593662 353.2239 
L 662.452051 352.926526 
L 668.31044 353.2239 
L 949.513125 353.2239 
L 949.513125 353.2239 
" style="fill:none;stroke:#7cb5ec;stroke-linecap:square;"/>
   </g>
   <g id="line2d_98">
    <path clip-path="url(#p1dc2a99a06)" d="M 76.613125 353.2239 
L 82.471514 352.886015 
L 88.329904 353.197909 
L 94.188293 353.145927 
L 105.905071 353.2239 
L 146.913796 353.2239 
L 152.772185 353.015971 
L 187.922521 353.2239 
L 193.78091 352.912006 
L 199.639299 353.2239 
L 240.648024 353.2239 
L 246.506414 353.015971 
L 252.364803 353.2239 
L 258.223192 352.963989 
L 264.081581 353.2239 
L 949.513125 353.2239 
L 949.513125 353.2239 
" style="fill:none;stroke:#434348;stroke-linecap:square;"/>
   </g>
   <g id="line2d_99">
    <path clip-path="url(#p1dc2a99a06)" d="M 76.613125 353.2239 
L 146.913796 353.2239 
L 152.772185 352.1372 
L 158.630575 353.2239 
L 949.513125 353.2239 
L 949.513125 353.2239 
" style="fill:none;stroke:#90ed7d;stroke-linecap:square;"/>
   </g>
   <g id="line2d_100">
    <path clip-path="url(#p1dc2a99a06)" d="M 76.613125 353.2239 
L 176.205742 353.2239 
L 182.064132 352.396719 
L 187.922521 353.2239 
L 949.513125 353.2239 
L 949.513125 353.2239 
" style="fill:none;stroke:#f7a35c;stroke-linecap:square;"/>
   </g>
   <g id="line2d_101">
    <path clip-path="url(#p1dc2a99a06)" d="M 76.613125 353.2239 
L 949.513125 353.2239 
L 949.513125 353.2239 
" style="fill:none;stroke:#8085e9;stroke-linecap:square;"/>
   </g>
   <g id="line2d_102">
    <path clip-path="url(#p1dc2a99a06)" d="M 76.613125 353.2239 
L 82.471514 353.160535 
L 94.188293 353.2239 
L 644.876883 353.2239 
L 650.735273 353.028058 
L 656.593662 353.2239 
L 662.452051 353.100687 
L 674.16883 353.2239 
L 949.513125 353.2239 
L 949.513125 353.2239 
" style="fill:none;stroke:#f15c80;stroke-linecap:square;"/>
   </g>
   <g id="line2d_103">
    <path clip-path="url(#p1dc2a99a06)" d="M 76.613125 353.2239 
L 82.471514 353.139909 
L 94.188293 353.207748 
L 135.197018 353.2239 
L 533.567487 353.2239 
L 644.876883 353.2165 
L 650.735273 353.090271 
L 656.593662 353.216451 
L 662.452051 353.143555 
L 674.16883 353.2239 
L 949.513125 353.2239 
L 949.513125 353.2239 
" style="fill:none;stroke:#e4d354;stroke-linecap:square;"/>
   </g>
   <g id="line2d_104">
    <path clip-path="url(#p1dc2a99a06)" d="M 76.613125 353.2239 
L 82.471514 353.142222 
L 94.188293 353.216798 
L 187.922521 353.2239 
L 299.231917 353.220323 
L 469.125206 353.2239 
L 504.275541 353.220029 
L 592.15138 353.217132 
L 598.009769 353.135609 
L 609.726548 353.2239 
L 662.452051 353.155819 
L 674.16883 353.2239 
L 949.513125 353.2239 
L 949.513125 353.2239 
" style="fill:none;stroke:#2b908f;stroke-linecap:square;"/>
   </g>
   <g id="line2d_105">
    <path clip-path="url(#p1dc2a99a06)" d="M 76.613125 353.2239 
L 82.471514 353.154655 
L 94.188293 353.200818 
L 123.480239 353.212359 
L 182.064132 353.2239 
L 644.876883 353.209505 
L 650.735273 353.093589 
L 656.593662 353.2239 
L 674.16883 353.2239 
L 949.513125 353.2239 
L 949.513125 353.2239 
" style="fill:none;stroke:#f45b5b;stroke-linecap:square;"/>
   </g>
   <g id="line2d_106">
    <path clip-path="url(#p1dc2a99a06)" d="M 76.613125 353.2239 
L 82.471514 353.135069 
L 94.188293 353.21403 
L 152.772185 353.220199 
L 199.639299 353.2239 
L 644.876883 353.213862 
L 650.735273 353.111613 
L 656.593662 353.218119 
L 662.452051 353.158606 
L 674.16883 353.2239 
L 949.513125 353.2239 
L 949.513125 353.2239 
" style="fill:none;stroke:#91e8e1;stroke-linecap:square;"/>
   </g>
   <g id="line2d_107">
    <path clip-path="url(#p1dc2a99a06)" d="M 76.613125 353.2239 
L 82.471514 352.987097 
L 88.329904 353.2239 
L 609.726548 353.2239 
L 615.584937 352.878451 
L 621.443326 353.2239 
L 644.876883 353.2239 
L 650.735273 352.862983 
L 656.593662 353.2239 
L 949.513125 353.2239 
L 949.513125 353.2239 
" style="fill:none;stroke:#7cb5ec;stroke-linecap:square;"/>
   </g>
   <g id="line2d_108">
    <path clip-path="url(#p1dc2a99a06)" d="M 76.613125 353.2239 
L 82.471514 353.01314 
L 88.329904 353.2239 
L 94.188293 353.11852 
L 105.905071 353.2239 
L 463.266816 353.2239 
L 469.125206 353.096761 
L 474.983595 353.2239 
L 586.292991 353.2239 
L 592.15138 353.079297 
L 598.009769 353.2239 
L 639.018494 353.2239 
L 644.876883 353.07106 
L 650.735273 353.2239 
L 949.513125 353.2239 
L 949.513125 353.2239 
" style="fill:none;stroke:#434348;stroke-linecap:square;"/>
   </g>
   <g id="line2d_109">
    <path clip-path="url(#p1dc2a99a06)" d="M 76.613125 353.2239 
L 82.471514 353.131511 
L 88.329904 353.2239 
L 111.763461 353.2239 
L 644.876883 353.220994 
L 650.735273 353.072016 
L 656.593662 353.2239 
L 668.31044 353.2239 
L 949.513125 353.2239 
L 949.513125 353.2239 
" style="fill:none;stroke:#90ed7d;stroke-linecap:square;"/>
   </g>
   <g id="line2d_110">
    <path clip-path="url(#p1dc2a99a06)" d="M 76.613125 353.2239 
L 82.471514 353.163375 
L 94.188293 353.2239 
L 644.876883 353.22093 
L 650.735273 353.074999 
L 656.593662 353.217927 
L 662.452051 353.152023 
L 674.16883 353.2239 
L 779.619836 353.2239 
L 949.513125 353.2239 
L 949.513125 353.2239 
" style="fill:none;stroke:#f7a35c;stroke-linecap:square;"/>
   </g>
   <g id="line2d_111">
    <path clip-path="url(#p1dc2a99a06)" d="M 76.613125 353.2239 
L 88.329904 353.2239 
L 94.188293 353.046635 
L 100.046682 353.2239 
L 152.772185 353.2239 
L 158.630575 353.046635 
L 164.488964 353.2239 
L 228.931246 353.2239 
L 234.789635 352.869371 
L 246.506414 353.2239 
L 357.81581 353.2239 
L 363.674199 353.036794 
L 369.532588 353.2239 
L 586.292991 353.2239 
L 592.15138 352.987984 
L 598.009769 353.2239 
L 609.726548 353.2239 
L 615.584937 352.981472 
L 621.443326 353.2239 
L 639.018494 353.2239 
L 644.876883 352.972988 
L 650.735273 353.2239 
L 709.319165 353.2239 
L 715.177555 352.950297 
L 721.035944 353.2239 
L 949.513125 353.2239 
L 949.513125 353.2239 
" style="fill:none;stroke:#8085e9;stroke-linecap:square;"/>
   </g>
   <g id="line2d_112">
    <path clip-path="url(#p1dc2a99a06)" d="M 76.613125 353.2239 
L 82.471514 353.135659 
L 94.188293 353.210827 
L 146.913796 353.2239 
L 246.506414 353.220632 
L 445.691648 353.2239 
L 644.876883 353.212382 
L 650.735273 353.069744 
L 656.593662 353.2239 
L 662.452051 353.115159 
L 674.16883 353.2239 
L 949.513125 353.2239 
L 949.513125 353.2239 
" style="fill:none;stroke:#f15c80;stroke-linecap:square;"/>
   </g>
   <g id="line2d_113">
    <path clip-path="url(#p1dc2a99a06)" d="M 76.613125 353.2239 
L 82.471514 353.119786 
L 88.329904 353.2239 
L 146.913796 353.2239 
L 281.656749 353.2239 
L 644.876883 353.218325 
L 650.735273 353.098884 
L 656.593662 353.21453 
L 662.452051 353.156157 
L 674.16883 353.2239 
L 949.513125 353.2239 
L 949.513125 353.2239 
" style="fill:none;stroke:#e4d354;stroke-linecap:square;"/>
   </g>
   <g id="line2d_114">
    <path clip-path="url(#p1dc2a99a06)" d="M 76.613125 353.2239 
L 82.471514 353.127617 
L 94.188293 353.215876 
L 176.205742 353.2239 
L 949.513125 353.2239 
L 949.513125 353.2239 
" style="fill:none;stroke:#2b908f;stroke-linecap:square;"/>
   </g>
   <g id="line2d_115">
    <path clip-path="url(#p1dc2a99a06)" d="M 76.613125 353.2239 
L 82.471514 353.119547 
L 94.188293 353.2239 
L 562.859434 353.2239 
L 568.717823 353.099094 
L 574.576212 353.2239 
L 949.513125 353.2239 
L 949.513125 353.2239 
" style="fill:none;stroke:#f45b5b;stroke-linecap:square;"/>
   </g>
   <g id="line2d_116">
    <path clip-path="url(#p1dc2a99a06)" d="M 76.613125 353.2239 
L 82.471514 353.140273 
L 94.188293 353.190449 
L 117.62185 353.2239 
L 949.513125 353.2239 
L 949.513125 353.2239 
" style="fill:none;stroke:#91e8e1;stroke-linecap:square;"/>
   </g>
   <g id="line2d_117">
    <path clip-path="url(#p1dc2a99a06)" d="M 76.613125 353.2239 
L 82.471514 353.164458 
L 88.329904 353.2239 
L 94.188293 353.164458 
L 105.905071 353.2239 
L 592.15138 353.2239 
L 598.009769 353.079197 
L 603.868159 353.2239 
L 656.593662 353.2239 
L 662.452051 353.071121 
L 668.31044 353.2239 
L 949.513125 353.2239 
L 949.513125 353.2239 
" style="fill:none;stroke:#7cb5ec;stroke-linecap:square;"/>
   </g>
   <g id="line2d_118">
    <path clip-path="url(#p1dc2a99a06)" d="M 76.613125 353.2239 
L 82.471514 353.156652 
L 94.188293 353.212692 
L 152.772185 353.221658 
L 205.497689 353.2239 
L 492.558763 353.2239 
L 644.876883 353.221351 
L 650.735273 353.078105 
L 656.593662 353.218767 
L 662.452051 353.14406 
L 674.16883 353.2239 
L 949.513125 353.2239 
L 949.513125 353.2239 
" style="fill:none;stroke:#434348;stroke-linecap:square;"/>
   </g>
   <g id="line2d_119">
    <path clip-path="url(#p1dc2a99a06)" d="M 76.613125 353.2239 
L 82.471514 353.013374 
L 88.329904 353.2239 
L 592.15138 353.2239 
L 598.009769 352.94661 
L 603.868159 353.2239 
L 738.611112 353.2239 
L 744.469501 352.892061 
L 750.32789 353.2239 
L 949.513125 353.2239 
L 949.513125 353.2239 
" style="fill:none;stroke:#90ed7d;stroke-linecap:square;"/>
   </g>
   <g id="line2d_120">
    <path clip-path="url(#p1dc2a99a06)" d="M 76.613125 353.2239 
L 82.471514 353.122939 
L 88.329904 353.2239 
L 111.763461 353.2239 
L 949.513125 353.2239 
L 949.513125 353.2239 
" style="fill:none;stroke:#f7a35c;stroke-linecap:square;"/>
   </g>
   <g id="line2d_121">
    <path clip-path="url(#p1dc2a99a06)" d="M 76.613125 353.2239 
L 949.513125 353.2239 
L 949.513125 353.2239 
" style="fill:none;stroke:#8085e9;stroke-linecap:square;"/>
   </g>
   <g id="line2d_122">
    <path clip-path="url(#p1dc2a99a06)" d="M 76.613125 353.2239 
L 82.471514 353.140691 
L 94.188293 353.216336 
L 182.064132 353.2239 
L 644.876883 353.218194 
L 650.735273 353.089428 
L 656.593662 353.221031 
L 662.452051 353.128936 
L 674.16883 353.2239 
L 896.787622 353.2239 
L 949.513125 353.2239 
L 949.513125 353.2239 
" style="fill:none;stroke:#f15c80;stroke-linecap:square;"/>
   </g>
   <g id="line2d_123">
    <path clip-path="url(#p1dc2a99a06)" d="M 76.613125 353.2239 
L 82.471514 353.165789 
L 94.188293 353.2239 
L 949.513125 353.2239 
L 949.513125 353.2239 
" style="fill:none;stroke:#e4d354;stroke-linecap:square;"/>
   </g>
   <g id="line2d_124">
    <path clip-path="url(#p1dc2a99a06)" d="M 76.613125 353.2239 
L 82.471514 353.162376 
L 94.188293 353.206596 
L 135.197018 353.2239 
L 474.983595 353.219773 
L 592.15138 353.219551 
L 603.868159 353.2239 
L 644.876883 353.217187 
L 650.735273 353.104894 
L 656.593662 353.214886 
L 662.452051 353.133441 
L 674.16883 353.2239 
L 949.513125 353.2239 
L 949.513125 353.2239 
" style="fill:none;stroke:#2b908f;stroke-linecap:square;"/>
   </g>
   <g id="line2d_125">
    <path clip-path="url(#p1dc2a99a06)" d="M 76.613125 353.2239 
L 82.471514 353.14651 
L 94.188293 353.214226 
L 152.772185 353.219063 
L 193.78091 353.220675 
L 398.824534 353.2239 
L 644.876883 353.220141 
L 650.735273 353.088066 
L 656.593662 353.218219 
L 668.31044 353.220083 
L 814.770172 353.215046 
L 844.062118 353.2239 
L 949.513125 353.2239 
L 949.513125 353.2239 
" style="fill:none;stroke:#f45b5b;stroke-linecap:square;"/>
   </g>
   <g id="line2d_126">
    <path clip-path="url(#p1dc2a99a06)" d="M 76.613125 353.2239 
L 82.471514 353.146564 
L 94.188293 353.213109 
L 152.772185 353.213109 
L 182.064132 353.2239 
L 644.876883 353.219674 
L 650.735273 353.098739 
L 656.593662 353.21538 
L 662.452051 353.146912 
L 674.16883 353.2239 
L 949.513125 353.2239 
L 949.513125 353.2239 
" style="fill:none;stroke:#91e8e1;stroke-linecap:square;"/>
   </g>
   <g id="line2d_127">
    <path clip-path="url(#p1dc2a99a06)" d="M 76.613125 353.2239 
L 82.471514 353.141626 
L 94.188293 353.218322 
L 211.356078 353.2239 
L 644.876883 353.215976 
L 650.735273 353.061759 
L 656.593662 353.220711 
L 662.452051 353.14713 
L 674.16883 353.2239 
L 949.513125 353.2239 
L 949.513125 353.2239 
" style="fill:none;stroke:#7cb5ec;stroke-linecap:square;"/>
   </g>
   <g id="line2d_128">
    <path clip-path="url(#p1dc2a99a06)" d="M 76.613125 353.2239 
L 82.471514 353.167809 
L 94.188293 353.202866 
L 129.338628 353.2239 
L 949.513125 353.2239 
L 949.513125 353.2239 
" style="fill:none;stroke:#434348;stroke-linecap:square;"/>
   </g>
   <g id="line2d_129">
    <path clip-path="url(#p1dc2a99a06)" d="M 76.613125 353.2239 
L 82.471514 353.147528 
L 94.188293 353.211361 
L 146.913796 353.2239 
L 240.648024 353.205662 
L 281.656749 353.2239 
L 644.876883 353.217438 
L 650.735273 353.109797 
L 656.593662 353.214793 
L 662.452051 353.144269 
L 674.16883 353.2239 
L 949.513125 353.2239 
L 949.513125 353.2239 
" style="fill:none;stroke:#90ed7d;stroke-linecap:square;"/>
   </g>
   <g id="line2d_130">
    <path clip-path="url(#p1dc2a99a06)" d="M 76.613125 353.2239 
L 82.471514 353.131446 
L 94.188293 353.216504 
L 187.922521 353.2239 
L 328.523863 353.2239 
L 644.876883 353.216416 
L 650.735273 353.075836 
L 656.593662 353.216362 
L 662.452051 353.142847 
L 674.16883 353.2239 
L 949.513125 353.2239 
L 949.513125 353.2239 
" style="fill:none;stroke:#f7a35c;stroke-linecap:square;"/>
   </g>
   <g id="line2d_131">
    <path clip-path="url(#p1dc2a99a06)" d="M 76.613125 353.2239 
L 100.046682 353.2239 
L 949.513125 353.2239 
L 949.513125 353.2239 
" style="fill:none;stroke:#8085e9;stroke-linecap:square;"/>
   </g>
   <g id="line2d_132">
    <path clip-path="url(#p1dc2a99a06)" d="M 76.613125 353.2239 
L 82.471514 353.112174 
L 88.329904 353.2239 
L 117.62185 353.2239 
L 644.876883 353.221061 
L 650.735273 353.084233 
L 656.593662 353.215313 
L 662.452051 353.152041 
L 674.16883 353.2239 
L 949.513125 353.2239 
L 949.513125 353.2239 
" style="fill:none;stroke:#f15c80;stroke-linecap:square;"/>
   </g>
   <g id="line2d_133">
    <path clip-path="url(#p1dc2a99a06)" d="M 76.613125 353.2239 
L 82.471514 353.151369 
L 94.188293 353.207782 
L 135.197018 353.2239 
L 375.390977 353.2239 
L 644.876883 353.2239 
L 650.735273 353.104092 
L 656.593662 353.214402 
L 662.452051 353.150785 
L 674.16883 353.2239 
L 873.354065 353.2239 
L 949.513125 353.2239 
L 949.513125 353.2239 
" style="fill:none;stroke:#e4d354;stroke-linecap:square;"/>
   </g>
   <g id="line2d_134">
    <path clip-path="url(#p1dc2a99a06)" d="M 76.613125 353.2239 
L 82.471514 353.151538 
L 94.188293 353.2239 
L 562.859434 353.2239 
L 568.717823 353.062906 
L 574.576212 353.2239 
L 949.513125 353.2239 
L 949.513125 353.2239 
" style="fill:none;stroke:#2b908f;stroke-linecap:square;"/>
   </g>
   <g id="line2d_135">
    <path clip-path="url(#p1dc2a99a06)" d="M 76.613125 353.2239 
L 82.471514 353.136764 
L 94.188293 353.202738 
L 129.338628 353.2239 
L 644.876883 353.216399 
L 650.735273 353.106371 
L 656.593662 353.216332 
L 662.452051 353.150919 
L 674.16883 353.2239 
L 949.513125 353.2239 
L 949.513125 353.2239 
" style="fill:none;stroke:#f45b5b;stroke-linecap:square;"/>
   </g>
   <g id="line2d_136">
    <path clip-path="url(#p1dc2a99a06)" d="M 76.613125 353.2239 
L 82.471514 353.142117 
L 94.188293 353.214813 
L 152.772185 353.214813 
L 182.064132 353.2239 
L 644.876883 353.219745 
L 650.735273 353.10301 
L 656.593662 353.213445 
L 662.452051 353.146274 
L 674.16883 353.2239 
L 949.513125 353.2239 
L 949.513125 353.2239 
" style="fill:none;stroke:#91e8e1;stroke-linecap:square;"/>
   </g>
   <g id="line2d_137">
    <path clip-path="url(#p1dc2a99a06)" d="M 76.613125 353.2239 
L 82.471514 353.149632 
L 94.188293 353.219921 
L 258.223192 353.222574 
L 592.15138 353.220964 
L 598.009769 353.125318 
L 609.726548 353.222422 
L 633.160105 353.222407 
L 644.876883 353.217893 
L 650.735273 353.041685 
L 656.593662 353.211818 
L 662.452051 353.146649 
L 674.16883 353.222375 
L 949.513125 353.2239 
L 949.513125 353.2239 
" style="fill:none;stroke:#7cb5ec;stroke-linecap:square;"/>
   </g>
   <g id="line2d_138">
    <path clip-path="url(#p1dc2a99a06)" d="M 76.613125 353.2239 
L 100.046682 353.2239 
L 721.035944 353.2239 
L 726.894333 353.111954 
L 732.752722 353.2239 
L 949.513125 353.2239 
L 949.513125 353.2239 
" style="fill:none;stroke:#434348;stroke-linecap:square;"/>
   </g>
   <g id="line2d_139">
    <path clip-path="url(#p1dc2a99a06)" d="M 76.613125 353.2239 
L 82.471514 353.129863 
L 94.188293 353.212727 
L 152.772185 353.218314 
L 193.78091 353.221107 
L 428.116481 353.222932 
L 474.983595 353.209139 
L 521.850709 353.2239 
L 644.876883 353.220735 
L 650.735273 353.076809 
L 656.593662 353.220715 
L 662.452051 353.140826 
L 674.16883 353.2239 
L 949.513125 353.2239 
L 949.513125 353.2239 
" style="fill:none;stroke:#90ed7d;stroke-linecap:square;"/>
   </g>
   <g id="line2d_140">
    <path clip-path="url(#p1dc2a99a06)" d="M 76.613125 353.2239 
L 82.471514 353.116142 
L 94.188293 353.2239 
L 469.125206 353.2239 
L 474.983595 353.102997 
L 480.841984 353.2239 
L 656.593662 353.2239 
L 662.452051 352.928987 
L 668.31044 353.2239 
L 721.035944 353.2239 
L 726.894333 353.062875 
L 732.752722 353.2239 
L 949.513125 353.2239 
L 949.513125 353.2239 
" style="fill:none;stroke:#f7a35c;stroke-linecap:square;"/>
   </g>
   <g id="line2d_141">
    <path clip-path="url(#p1dc2a99a06)" d="M 76.613125 353.2239 
L 82.471514 352.940721 
L 88.329904 353.2239 
L 146.913796 353.2239 
L 152.772185 352.940721 
L 158.630575 352.940721 
L 164.488964 353.2239 
L 170.347353 352.940721 
L 176.205742 353.2239 
L 187.922521 353.2239 
L 193.78091 352.940721 
L 199.639299 353.2239 
L 240.648024 353.2239 
L 246.506414 352.940721 
L 252.364803 353.2239 
L 258.223192 352.940721 
L 264.081581 353.2239 
L 949.513125 353.2239 
L 949.513125 353.2239 
" style="fill:none;stroke:#8085e9;stroke-linecap:square;"/>
   </g>
   <g id="line2d_142">
    <path clip-path="url(#p1dc2a99a06)" d="M 76.613125 353.2239 
L 82.471514 353.117718 
L 88.329904 353.2239 
L 141.055407 353.2239 
L 644.876883 353.210255 
L 650.735273 353.07323 
L 656.593662 353.2239 
L 662.452051 353.113469 
L 674.16883 353.2239 
L 949.513125 353.2239 
L 949.513125 353.2239 
" style="fill:none;stroke:#f15c80;stroke-linecap:square;"/>
   </g>
   <g id="line2d_143">
    <path clip-path="url(#p1dc2a99a06)" d="M 76.613125 353.2239 
L 82.471514 353.146584 
L 94.188293 353.209699 
L 141.055407 353.2239 
L 949.513125 353.2239 
L 949.513125 353.2239 
" style="fill:none;stroke:#e4d354;stroke-linecap:square;"/>
   </g>
   <g id="line2d_144">
    <path clip-path="url(#p1dc2a99a06)" d="M 76.613125 353.2239 
L 88.329904 353.2239 
L 592.15138 353.132131 
L 598.009769 353.039512 
L 603.868159 353.2239 
L 644.876883 353.176088 
L 650.735273 352.935651 
L 656.593662 353.175619 
L 662.452051 353.07835 
L 668.31044 353.2239 
L 721.035944 353.2239 
L 726.894333 353.068594 
L 732.752722 353.2239 
L 949.513125 353.2239 
L 949.513125 353.2239 
" style="fill:none;stroke:#2b908f;stroke-linecap:square;"/>
   </g>
   <g id="line2d_145">
    <path clip-path="url(#p1dc2a99a06)" d="M 76.613125 353.2239 
L 644.876883 353.2239 
L 650.735273 353.072024 
L 656.593662 353.2239 
L 662.452051 353.162303 
L 674.16883 353.2239 
L 949.513125 353.2239 
L 949.513125 353.2239 
" style="fill:none;stroke:#f45b5b;stroke-linecap:square;"/>
   </g>
   <g id="line2d_146">
    <path clip-path="url(#p1dc2a99a06)" d="M 76.613125 353.2239 
L 82.471514 353.028618 
L 88.329904 353.2239 
L 146.913796 353.2239 
L 152.772185 353.028618 
L 158.630575 353.028618 
L 164.488964 353.2239 
L 428.116481 353.2239 
L 433.97487 352.791408 
L 439.833259 353.2239 
L 592.15138 353.2239 
L 598.009769 352.970852 
L 603.868159 353.2239 
L 609.726548 353.2239 
L 615.584937 352.707697 
L 621.443326 353.2239 
L 644.876883 353.2239 
L 650.735273 352.688307 
L 656.593662 353.2239 
L 709.319165 353.2239 
L 715.177555 352.93468 
L 721.035944 353.2239 
L 949.513125 353.2239 
L 949.513125 353.2239 
" style="fill:none;stroke:#91e8e1;stroke-linecap:square;"/>
   </g>
   <g id="line2d_147">
    <path clip-path="url(#p1dc2a99a06)" d="M 76.613125 353.2239 
L 82.471514 352.952115 
L 88.329904 353.2239 
L 463.266816 353.2239 
L 474.983595 352.924361 
L 480.841984 353.2239 
L 586.292991 353.2239 
L 592.15138 353.059825 
L 598.009769 353.2239 
L 639.018494 353.2239 
L 644.876883 353.051372 
L 650.735273 353.2239 
L 808.911783 353.2239 
L 814.770172 353.006701 
L 820.628561 353.2239 
L 949.513125 353.2239 
L 949.513125 353.2239 
" style="fill:none;stroke:#7cb5ec;stroke-linecap:square;"/>
   </g>
   <g id="line2d_148">
    <path clip-path="url(#p1dc2a99a06)" d="M 76.613125 353.2239 
L 82.471514 353.078028 
L 88.329904 353.2239 
L 644.876883 353.2239 
L 650.735273 353.037592 
L 656.593662 353.2239 
L 949.513125 353.2239 
L 949.513125 353.2239 
" style="fill:none;stroke:#434348;stroke-linecap:square;"/>
   </g>
   <g id="line2d_149">
    <path clip-path="url(#p1dc2a99a06)" d="M 76.613125 353.2239 
L 592.15138 353.2239 
L 598.009769 352.999987 
L 603.868159 353.2239 
L 644.876883 353.2239 
L 650.735273 352.760102 
L 656.593662 353.2239 
L 949.513125 353.2239 
L 949.513125 353.2239 
" style="fill:none;stroke:#90ed7d;stroke-linecap:square;"/>
   </g>
   <g id="line2d_150">
    <path clip-path="url(#p1dc2a99a06)" d="M 76.613125 353.2239 
L 82.471514 353.158862 
L 100.046682 353.2239 
L 592.15138 353.2239 
L 598.009769 353.098411 
L 603.868159 353.2239 
L 644.876883 353.200015 
L 650.735273 353.103763 
L 656.593662 353.199725 
L 668.31044 353.211658 
L 726.894333 353.2239 
L 949.513125 353.2239 
L 949.513125 353.2239 
" style="fill:none;stroke:#f7a35c;stroke-linecap:square;"/>
   </g>
   <g id="line2d_151">
    <path clip-path="url(#p1dc2a99a06)" d="M 76.613125 353.2239 
L 82.471514 353.135584 
L 94.188293 353.210046 
L 141.055407 353.2239 
L 515.99232 353.2239 
L 644.876883 353.219867 
L 650.735273 353.096409 
L 656.593662 353.213745 
L 662.452051 353.152551 
L 674.16883 353.2239 
L 949.513125 353.2239 
L 949.513125 353.2239 
" style="fill:none;stroke:#8085e9;stroke-linecap:square;"/>
   </g>
   <g id="line2d_152">
    <path clip-path="url(#p1dc2a99a06)" d="M 76.613125 353.2239 
L 82.471514 353.147254 
L 94.188293 353.210274 
L 146.913796 353.2239 
L 269.939971 353.22049 
L 463.266816 353.2239 
L 826.486951 353.221618 
L 949.513125 353.2239 
L 949.513125 353.2239 
" style="fill:none;stroke:#f15c80;stroke-linecap:square;"/>
   </g>
   <g id="line2d_153">
    <path clip-path="url(#p1dc2a99a06)" d="M 76.613125 353.2239 
L 82.471514 353.133834 
L 94.188293 353.220199 
L 275.79836 353.2239 
L 644.876883 353.20987 
L 650.735273 353.094462 
L 656.593662 353.215433 
L 662.452051 353.137562 
L 674.16883 353.2239 
L 949.513125 353.2239 
L 949.513125 353.2239 
" style="fill:none;stroke:#e4d354;stroke-linecap:square;"/>
   </g>
   <g id="line2d_154">
    <path clip-path="url(#p1dc2a99a06)" d="M 76.613125 353.2239 
L 82.471514 353.138742 
L 94.188293 353.211735 
L 146.913796 353.2239 
L 252.364803 353.2239 
L 644.876883 353.220376 
L 650.735273 353.09308 
L 656.593662 353.213257 
L 662.452051 353.142006 
L 674.16883 353.2239 
L 949.513125 353.2239 
L 949.513125 353.2239 
" style="fill:none;stroke:#2b908f;stroke-linecap:square;"/>
   </g>
   <g id="line2d_155">
    <path clip-path="url(#p1dc2a99a06)" d="M 76.613125 353.2239 
L 463.266816 353.2239 
L 469.125206 352.980815 
L 474.983595 353.2239 
L 586.292991 353.2239 
L 592.15138 352.939301 
L 598.009769 353.2239 
L 639.018494 353.2239 
L 644.876883 352.919041 
L 650.735273 352.916684 
L 656.593662 353.2239 
L 949.513125 353.2239 
L 949.513125 353.2239 
" style="fill:none;stroke:#f45b5b;stroke-linecap:square;"/>
   </g>
   <g id="line2d_156">
    <path clip-path="url(#p1dc2a99a06)" d="M 76.613125 353.2239 
L 644.876883 353.2239 
L 650.735273 352.410888 
L 656.593662 353.2239 
L 949.513125 353.2239 
L 949.513125 353.2239 
" style="fill:none;stroke:#91e8e1;stroke-linecap:square;"/>
   </g>
   <g id="line2d_157">
    <path clip-path="url(#p1dc2a99a06)" d="M 32.968125 353.2239 
L 993.158125 353.2239 
" style="fill:none;stroke:#dedede;stroke-linecap:square;stroke-width:2;"/>
   </g>
   <g id="text_17">
    <!-- Fastp: Read N Content -->
    <defs>
     <path d="M 9.8125 72.90625 
L 51.703125 72.90625 
L 51.703125 64.59375 
L 19.671875 64.59375 
L 19.671875 43.109375 
L 48.578125 43.109375 
L 48.578125 34.8125 
L 19.671875 34.8125 
L 19.671875 0 
L 9.8125 0 
z
" id="DejaVuSans-70"/>
     <path d="M 18.109375 8.203125 
L 18.109375 -20.796875 
L 9.078125 -20.796875 
L 9.078125 54.6875 
L 18.109375 54.6875 
L 18.109375 46.390625 
Q 20.953125 51.265625 25.265625 53.625 
Q 29.59375 56 35.59375 56 
Q 45.5625 56 51.78125 48.09375 
Q 58.015625 40.1875 58.015625 27.296875 
Q 58.015625 14.40625 51.78125 6.484375 
Q 45.5625 -1.421875 35.59375 -1.421875 
Q 29.59375 -1.421875 25.265625 0.953125 
Q 20.953125 3.328125 18.109375 8.203125 
z
M 48.6875 27.296875 
Q 48.6875 37.203125 44.609375 42.84375 
Q 40.53125 48.484375 33.40625 48.484375 
Q 26.265625 48.484375 22.1875 42.84375 
Q 18.109375 37.203125 18.109375 27.296875 
Q 18.109375 17.390625 22.1875 11.75 
Q 26.265625 6.109375 33.40625 6.109375 
Q 40.53125 6.109375 44.609375 11.75 
Q 48.6875 17.390625 48.6875 27.296875 
z
" id="DejaVuSans-112"/>
     <path d="M 9.8125 72.90625 
L 23.09375 72.90625 
L 55.421875 11.921875 
L 55.421875 72.90625 
L 64.984375 72.90625 
L 64.984375 0 
L 51.703125 0 
L 19.390625 60.984375 
L 19.390625 0 
L 9.8125 0 
z
" id="DejaVuSans-78"/>
    </defs>
    <g transform="translate(422.606875 19.3575)scale(0.16 -0.16)">
     <use xlink:href="#DejaVuSans-70"/>
     <use x="57.378906" xlink:href="#DejaVuSans-97"/>
     <use x="118.658203" xlink:href="#DejaVuSans-115"/>
     <use x="170.757812" xlink:href="#DejaVuSans-116"/>
     <use x="209.966797" xlink:href="#DejaVuSans-112"/>
     <use x="273.443359" xlink:href="#DejaVuSans-58"/>
     <use x="307.134766" xlink:href="#DejaVuSans-32"/>
     <use x="338.921875" xlink:href="#DejaVuSans-82"/>
     <use x="408.341797" xlink:href="#DejaVuSans-101"/>
     <use x="469.865234" xlink:href="#DejaVuSans-97"/>
     <use x="531.144531" xlink:href="#DejaVuSans-100"/>
     <use x="594.621094" xlink:href="#DejaVuSans-32"/>
     <use x="626.408203" xlink:href="#DejaVuSans-78"/>
     <use x="701.212891" xlink:href="#DejaVuSans-32"/>
     <use x="733" xlink:href="#DejaVuSans-67"/>
     <use x="802.824219" xlink:href="#DejaVuSans-111"/>
     <use x="864.005859" xlink:href="#DejaVuSans-110"/>
     <use x="927.384766" xlink:href="#DejaVuSans-116"/>
     <use x="966.59375" xlink:href="#DejaVuSans-101"/>
     <use x="1028.117188" xlink:href="#DejaVuSans-110"/>
     <use x="1091.496094" xlink:href="#DejaVuSans-116"/>
    </g>
   </g>
  </g>
 </g>
 <defs>
  <clipPath id="p1dc2a99a06">
   <rect height="317.968" width="960.19" x="32.968125" y="35.2559"/>
  </clipPath>
 </defs>
</svg>
