<?xml version="1.0" encoding="utf-8" standalone="no"?>
<!DOCTYPE svg PUBLIC "-//W3C//DTD SVG 1.1//EN"
  "http://www.w3.org/Graphics/SVG/1.1/DTD/svg11.dtd">
<!-- Created with matplotlib (https://matplotlib.org/) -->
<svg height="388.844525pt" version="1.1" viewBox="0 0 1000.358125 388.844525" width="1000.358125pt" xmlns="http://www.w3.org/2000/svg" xmlns:xlink="http://www.w3.org/1999/xlink">
 <defs>
  <style type="text/css">
*{stroke-linecap:butt;stroke-linejoin:round;}
  </style>
 </defs>
 <g id="figure_1">
  <g id="axes_1">
   <g id="patch_1">
    <path d="M 32.968125 353.2239 
L 993.158125 353.2239 
L 993.158125 35.2559 
L 32.968125 35.2559 
z
" style="fill:#ffffff;"/>
   </g>
   <g id="patch_2">
    <path clip-path="url(#p43e535f329)" d="M 32.968125 -918.6481 
L 955.884658 -918.6481 
L 955.884658 -6006.1361 
L 32.968125 -6006.1361 
z
" style="fill:#e6c3c3;"/>
   </g>
   <g id="patch_3">
    <path clip-path="url(#p43e535f329)" d="M 32.968125 35.2559 
L 955.884658 35.2559 
L 955.884658 -918.6481 
L 32.968125 -918.6481 
z
" style="fill:#e6dcc3;"/>
   </g>
   <g id="patch_4">
    <path clip-path="url(#p43e535f329)" d="M 32.968125 353.2239 
L 955.884658 353.2239 
L 955.884658 35.2559 
L 32.968125 35.2559 
z
" style="fill:#c3e6c3;"/>
   </g>
   <g id="matplotlib.axis_1">
    <g id="xtick_1">
     <g id="text_1">
      <!-- 0 -->
      <defs>
       <path d="M 31.78125 66.40625 
Q 24.171875 66.40625 20.328125 58.90625 
Q 16.5 51.421875 16.5 36.375 
Q 16.5 21.390625 20.328125 13.890625 
Q 24.171875 6.390625 31.78125 6.390625 
Q 39.453125 6.390625 43.28125 13.890625 
Q 47.125 21.390625 47.125 36.375 
Q 47.125 51.421875 43.28125 58.90625 
Q 39.453125 66.40625 31.78125 66.40625 
z
M 31.78125 74.21875 
Q 44.046875 74.21875 50.515625 64.515625 
Q 56.984375 54.828125 56.984375 36.375 
Q 56.984375 17.96875 50.515625 8.265625 
Q 44.046875 -1.421875 31.78125 -1.421875 
Q 19.53125 -1.421875 13.0625 8.265625 
Q 6.59375 17.96875 6.59375 36.375 
Q 6.59375 54.828125 13.0625 64.515625 
Q 19.53125 74.21875 31.78125 74.21875 
z
" id="DejaVuSans-48"/>
      </defs>
      <g transform="translate(67.696592 366.30265)scale(0.08 -0.08)">
       <use xlink:href="#DejaVuSans-48"/>
      </g>
     </g>
    </g>
    <g id="xtick_2">
     <g id="text_2">
      <!-- 20 -->
      <defs>
       <path d="M 19.1875 8.296875 
L 53.609375 8.296875 
L 53.609375 0 
L 7.328125 0 
L 7.328125 8.296875 
Q 12.9375 14.109375 22.625 23.890625 
Q 32.328125 33.6875 34.8125 36.53125 
Q 39.546875 41.84375 41.421875 45.53125 
Q 43.3125 49.21875 43.3125 52.78125 
Q 43.3125 58.59375 39.234375 62.25 
Q 35.15625 65.921875 28.609375 65.921875 
Q 23.96875 65.921875 18.8125 64.3125 
Q 13.671875 62.703125 7.8125 59.421875 
L 7.8125 69.390625 
Q 13.765625 71.78125 18.9375 73 
Q 24.125 74.21875 28.421875 74.21875 
Q 39.75 74.21875 46.484375 68.546875 
Q 53.21875 62.890625 53.21875 53.421875 
Q 53.21875 48.921875 51.53125 44.890625 
Q 49.859375 40.875 45.40625 35.40625 
Q 44.1875 33.984375 37.640625 27.21875 
Q 31.109375 20.453125 19.1875 8.296875 
z
" id="DejaVuSans-50"/>
      </defs>
      <g transform="translate(192.582249 366.30265)scale(0.08 -0.08)">
       <use xlink:href="#DejaVuSans-50"/>
       <use x="63.623047" xlink:href="#DejaVuSans-48"/>
      </g>
     </g>
    </g>
    <g id="xtick_3">
     <g id="text_3">
      <!-- 40 -->
      <defs>
       <path d="M 37.796875 64.3125 
L 12.890625 25.390625 
L 37.796875 25.390625 
z
M 35.203125 72.90625 
L 47.609375 72.90625 
L 47.609375 25.390625 
L 58.015625 25.390625 
L 58.015625 17.1875 
L 47.609375 17.1875 
L 47.609375 0 
L 37.796875 0 
L 37.796875 17.1875 
L 4.890625 17.1875 
L 4.890625 26.703125 
z
" id="DejaVuSans-52"/>
      </defs>
      <g transform="translate(320.012906 366.30265)scale(0.08 -0.08)">
       <use xlink:href="#DejaVuSans-52"/>
       <use x="63.623047" xlink:href="#DejaVuSans-48"/>
      </g>
     </g>
    </g>
    <g id="xtick_4">
     <g id="text_4">
      <!-- 60 -->
      <defs>
       <path d="M 33.015625 40.375 
Q 26.375 40.375 22.484375 35.828125 
Q 18.609375 31.296875 18.609375 23.390625 
Q 18.609375 15.53125 22.484375 10.953125 
Q 26.375 6.390625 33.015625 6.390625 
Q 39.65625 6.390625 43.53125 10.953125 
Q 47.40625 15.53125 47.40625 23.390625 
Q 47.40625 31.296875 43.53125 35.828125 
Q 39.65625 40.375 33.015625 40.375 
z
M 52.59375 71.296875 
L 52.59375 62.3125 
Q 48.875 64.0625 45.09375 64.984375 
Q 41.3125 65.921875 37.59375 65.921875 
Q 27.828125 65.921875 22.671875 59.328125 
Q 17.53125 52.734375 16.796875 39.40625 
Q 19.671875 43.65625 24.015625 45.921875 
Q 28.375 48.1875 33.59375 48.1875 
Q 44.578125 48.1875 50.953125 41.515625 
Q 57.328125 34.859375 57.328125 23.390625 
Q 57.328125 12.15625 50.6875 5.359375 
Q 44.046875 -1.421875 33.015625 -1.421875 
Q 20.359375 -1.421875 13.671875 8.265625 
Q 6.984375 17.96875 6.984375 36.375 
Q 6.984375 53.65625 15.1875 63.9375 
Q 23.390625 74.21875 37.203125 74.21875 
Q 40.921875 74.21875 44.703125 73.484375 
Q 48.484375 72.75 52.59375 71.296875 
z
" id="DejaVuSans-54"/>
      </defs>
      <g transform="translate(447.443563 366.30265)scale(0.08 -0.08)">
       <use xlink:href="#DejaVuSans-54"/>
       <use x="63.623047" xlink:href="#DejaVuSans-48"/>
      </g>
     </g>
    </g>
    <g id="xtick_5">
     <g id="text_5">
      <!-- 80 -->
      <defs>
       <path d="M 31.78125 34.625 
Q 24.75 34.625 20.71875 30.859375 
Q 16.703125 27.09375 16.703125 20.515625 
Q 16.703125 13.921875 20.71875 10.15625 
Q 24.75 6.390625 31.78125 6.390625 
Q 38.8125 6.390625 42.859375 10.171875 
Q 46.921875 13.96875 46.921875 20.515625 
Q 46.921875 27.09375 42.890625 30.859375 
Q 38.875 34.625 31.78125 34.625 
z
M 21.921875 38.8125 
Q 15.578125 40.375 12.03125 44.71875 
Q 8.5 49.078125 8.5 55.328125 
Q 8.5 64.0625 14.71875 69.140625 
Q 20.953125 74.21875 31.78125 74.21875 
Q 42.671875 74.21875 48.875 69.140625 
Q 55.078125 64.0625 55.078125 55.328125 
Q 55.078125 49.078125 51.53125 44.71875 
Q 48 40.375 41.703125 38.8125 
Q 48.828125 37.15625 52.796875 32.3125 
Q 56.78125 27.484375 56.78125 20.515625 
Q 56.78125 9.90625 50.3125 4.234375 
Q 43.84375 -1.421875 31.78125 -1.421875 
Q 19.734375 -1.421875 13.25 4.234375 
Q 6.78125 9.90625 6.78125 20.515625 
Q 6.78125 27.484375 10.78125 32.3125 
Q 14.796875 37.15625 21.921875 38.8125 
z
M 18.3125 54.390625 
Q 18.3125 48.734375 21.84375 45.5625 
Q 25.390625 42.390625 31.78125 42.390625 
Q 38.140625 42.390625 41.71875 45.5625 
Q 45.3125 48.734375 45.3125 54.390625 
Q 45.3125 60.0625 41.71875 63.234375 
Q 38.140625 66.40625 31.78125 66.40625 
Q 25.390625 66.40625 21.84375 63.234375 
Q 18.3125 60.0625 18.3125 54.390625 
z
" id="DejaVuSans-56"/>
      </defs>
      <g transform="translate(574.87422 366.30265)scale(0.08 -0.08)">
       <use xlink:href="#DejaVuSans-56"/>
       <use x="63.623047" xlink:href="#DejaVuSans-48"/>
      </g>
     </g>
    </g>
    <g id="xtick_6">
     <g id="text_6">
      <!-- 100 -->
      <defs>
       <path d="M 12.40625 8.296875 
L 28.515625 8.296875 
L 28.515625 63.921875 
L 10.984375 60.40625 
L 10.984375 69.390625 
L 28.421875 72.90625 
L 38.28125 72.90625 
L 38.28125 8.296875 
L 54.390625 8.296875 
L 54.390625 0 
L 12.40625 0 
z
" id="DejaVuSans-49"/>
      </defs>
      <g transform="translate(699.759877 366.30265)scale(0.08 -0.08)">
       <use xlink:href="#DejaVuSans-49"/>
       <use x="63.623047" xlink:href="#DejaVuSans-48"/>
       <use x="127.246094" xlink:href="#DejaVuSans-48"/>
      </g>
     </g>
    </g>
    <g id="xtick_7">
     <g id="text_7">
      <!-- 120 -->
      <g transform="translate(827.190534 366.30265)scale(0.08 -0.08)">
       <use xlink:href="#DejaVuSans-49"/>
       <use x="63.623047" xlink:href="#DejaVuSans-50"/>
       <use x="127.246094" xlink:href="#DejaVuSans-48"/>
      </g>
     </g>
    </g>
    <g id="xtick_8">
     <g id="text_8">
      <!-- 140 -->
      <g transform="translate(954.621191 366.30265)scale(0.08 -0.08)">
       <use xlink:href="#DejaVuSans-49"/>
       <use x="63.623047" xlink:href="#DejaVuSans-52"/>
       <use x="127.246094" xlink:href="#DejaVuSans-48"/>
      </g>
     </g>
    </g>
    <g id="text_9">
     <!-- Position (bp) -->
     <defs>
      <path d="M 19.671875 64.796875 
L 19.671875 37.40625 
L 32.078125 37.40625 
Q 38.96875 37.40625 42.71875 40.96875 
Q 46.484375 44.53125 46.484375 51.125 
Q 46.484375 57.671875 42.71875 61.234375 
Q 38.96875 64.796875 32.078125 64.796875 
z
M 9.8125 72.90625 
L 32.078125 72.90625 
Q 44.34375 72.90625 50.609375 67.359375 
Q 56.890625 61.8125 56.890625 51.125 
Q 56.890625 40.328125 50.609375 34.8125 
Q 44.34375 29.296875 32.078125 29.296875 
L 19.671875 29.296875 
L 19.671875 0 
L 9.8125 0 
z
" id="DejaVuSans-80"/>
      <path d="M 30.609375 48.390625 
Q 23.390625 48.390625 19.1875 42.75 
Q 14.984375 37.109375 14.984375 27.296875 
Q 14.984375 17.484375 19.15625 11.84375 
Q 23.34375 6.203125 30.609375 6.203125 
Q 37.796875 6.203125 41.984375 11.859375 
Q 46.1875 17.53125 46.1875 27.296875 
Q 46.1875 37.015625 41.984375 42.703125 
Q 37.796875 48.390625 30.609375 48.390625 
z
M 30.609375 56 
Q 42.328125 56 49.015625 48.375 
Q 55.71875 40.765625 55.71875 27.296875 
Q 55.71875 13.875 49.015625 6.21875 
Q 42.328125 -1.421875 30.609375 -1.421875 
Q 18.84375 -1.421875 12.171875 6.21875 
Q 5.515625 13.875 5.515625 27.296875 
Q 5.515625 40.765625 12.171875 48.375 
Q 18.84375 56 30.609375 56 
z
" id="DejaVuSans-111"/>
      <path d="M 44.28125 53.078125 
L 44.28125 44.578125 
Q 40.484375 46.53125 36.375 47.5 
Q 32.28125 48.484375 27.875 48.484375 
Q 21.1875 48.484375 17.84375 46.4375 
Q 14.5 44.390625 14.5 40.28125 
Q 14.5 37.15625 16.890625 35.375 
Q 19.28125 33.59375 26.515625 31.984375 
L 29.59375 31.296875 
Q 39.15625 29.25 43.1875 25.515625 
Q 47.21875 21.78125 47.21875 15.09375 
Q 47.21875 7.46875 41.1875 3.015625 
Q 35.15625 -1.421875 24.609375 -1.421875 
Q 20.21875 -1.421875 15.453125 -0.5625 
Q 10.6875 0.296875 5.421875 2 
L 5.421875 11.28125 
Q 10.40625 8.6875 15.234375 7.390625 
Q 20.0625 6.109375 24.8125 6.109375 
Q 31.15625 6.109375 34.5625 8.28125 
Q 37.984375 10.453125 37.984375 14.40625 
Q 37.984375 18.0625 35.515625 20.015625 
Q 33.0625 21.96875 24.703125 23.78125 
L 21.578125 24.515625 
Q 13.234375 26.265625 9.515625 29.90625 
Q 5.8125 33.546875 5.8125 39.890625 
Q 5.8125 47.609375 11.28125 51.796875 
Q 16.75 56 26.8125 56 
Q 31.78125 56 36.171875 55.265625 
Q 40.578125 54.546875 44.28125 53.078125 
z
" id="DejaVuSans-115"/>
      <path d="M 9.421875 54.6875 
L 18.40625 54.6875 
L 18.40625 0 
L 9.421875 0 
z
M 9.421875 75.984375 
L 18.40625 75.984375 
L 18.40625 64.59375 
L 9.421875 64.59375 
z
" id="DejaVuSans-105"/>
      <path d="M 18.3125 70.21875 
L 18.3125 54.6875 
L 36.8125 54.6875 
L 36.8125 47.703125 
L 18.3125 47.703125 
L 18.3125 18.015625 
Q 18.3125 11.328125 20.140625 9.421875 
Q 21.96875 7.515625 27.59375 7.515625 
L 36.8125 7.515625 
L 36.8125 0 
L 27.59375 0 
Q 17.1875 0 13.234375 3.875 
Q 9.28125 7.765625 9.28125 18.015625 
L 9.28125 47.703125 
L 2.6875 47.703125 
L 2.6875 54.6875 
L 9.28125 54.6875 
L 9.28125 70.21875 
z
" id="DejaVuSans-116"/>
      <path d="M 54.890625 33.015625 
L 54.890625 0 
L 45.90625 0 
L 45.90625 32.71875 
Q 45.90625 40.484375 42.875 44.328125 
Q 39.84375 48.1875 33.796875 48.1875 
Q 26.515625 48.1875 22.3125 43.546875 
Q 18.109375 38.921875 18.109375 30.90625 
L 18.109375 0 
L 9.078125 0 
L 9.078125 54.6875 
L 18.109375 54.6875 
L 18.109375 46.1875 
Q 21.34375 51.125 25.703125 53.5625 
Q 30.078125 56 35.796875 56 
Q 45.21875 56 50.046875 50.171875 
Q 54.890625 44.34375 54.890625 33.015625 
z
" id="DejaVuSans-110"/>
      <path id="DejaVuSans-32"/>
      <path d="M 31 75.875 
Q 24.46875 64.65625 21.28125 53.65625 
Q 18.109375 42.671875 18.109375 31.390625 
Q 18.109375 20.125 21.3125 9.0625 
Q 24.515625 -2 31 -13.1875 
L 23.1875 -13.1875 
Q 15.875 -1.703125 12.234375 9.375 
Q 8.59375 20.453125 8.59375 31.390625 
Q 8.59375 42.28125 12.203125 53.3125 
Q 15.828125 64.359375 23.1875 75.875 
z
" id="DejaVuSans-40"/>
      <path d="M 48.6875 27.296875 
Q 48.6875 37.203125 44.609375 42.84375 
Q 40.53125 48.484375 33.40625 48.484375 
Q 26.265625 48.484375 22.1875 42.84375 
Q 18.109375 37.203125 18.109375 27.296875 
Q 18.109375 17.390625 22.1875 11.75 
Q 26.265625 6.109375 33.40625 6.109375 
Q 40.53125 6.109375 44.609375 11.75 
Q 48.6875 17.390625 48.6875 27.296875 
z
M 18.109375 46.390625 
Q 20.953125 51.265625 25.265625 53.625 
Q 29.59375 56 35.59375 56 
Q 45.5625 56 51.78125 48.09375 
Q 58.015625 40.1875 58.015625 27.296875 
Q 58.015625 14.40625 51.78125 6.484375 
Q 45.5625 -1.421875 35.59375 -1.421875 
Q 29.59375 -1.421875 25.265625 0.953125 
Q 20.953125 3.328125 18.109375 8.203125 
L 18.109375 0 
L 9.078125 0 
L 9.078125 75.984375 
L 18.109375 75.984375 
z
" id="DejaVuSans-98"/>
      <path d="M 18.109375 8.203125 
L 18.109375 -20.796875 
L 9.078125 -20.796875 
L 9.078125 54.6875 
L 18.109375 54.6875 
L 18.109375 46.390625 
Q 20.953125 51.265625 25.265625 53.625 
Q 29.59375 56 35.59375 56 
Q 45.5625 56 51.78125 48.09375 
Q 58.015625 40.1875 58.015625 27.296875 
Q 58.015625 14.40625 51.78125 6.484375 
Q 45.5625 -1.421875 35.59375 -1.421875 
Q 29.59375 -1.421875 25.265625 0.953125 
Q 20.953125 3.328125 18.109375 8.203125 
z
M 48.6875 27.296875 
Q 48.6875 37.203125 44.609375 42.84375 
Q 40.53125 48.484375 33.40625 48.484375 
Q 26.265625 48.484375 22.1875 42.84375 
Q 18.109375 37.203125 18.109375 27.296875 
Q 18.109375 17.390625 22.1875 11.75 
Q 26.265625 6.109375 33.40625 6.109375 
Q 40.53125 6.109375 44.609375 11.75 
Q 48.6875 17.390625 48.6875 27.296875 
z
" id="DejaVuSans-112"/>
      <path d="M 8.015625 75.875 
L 15.828125 75.875 
Q 23.140625 64.359375 26.78125 53.3125 
Q 30.421875 42.28125 30.421875 31.390625 
Q 30.421875 20.453125 26.78125 9.375 
Q 23.140625 -1.703125 15.828125 -13.1875 
L 8.015625 -13.1875 
Q 14.5 -2 17.703125 9.0625 
Q 20.90625 20.125 20.90625 31.390625 
Q 20.90625 42.671875 17.703125 53.65625 
Q 14.5 64.65625 8.015625 75.875 
z
" id="DejaVuSans-41"/>
     </defs>
     <g transform="translate(481.581094 379.564837)scale(0.1 -0.1)">
      <use xlink:href="#DejaVuSans-80"/>
      <use x="60.255859" xlink:href="#DejaVuSans-111"/>
      <use x="121.4375" xlink:href="#DejaVuSans-115"/>
      <use x="173.537109" xlink:href="#DejaVuSans-105"/>
      <use x="201.320312" xlink:href="#DejaVuSans-116"/>
      <use x="240.529297" xlink:href="#DejaVuSans-105"/>
      <use x="268.3125" xlink:href="#DejaVuSans-111"/>
      <use x="329.494141" xlink:href="#DejaVuSans-110"/>
      <use x="392.873047" xlink:href="#DejaVuSans-32"/>
      <use x="424.660156" xlink:href="#DejaVuSans-40"/>
      <use x="463.673828" xlink:href="#DejaVuSans-98"/>
      <use x="527.150391" xlink:href="#DejaVuSans-112"/>
      <use x="590.626953" xlink:href="#DejaVuSans-41"/>
     </g>
    </g>
   </g>
   <g id="matplotlib.axis_2">
    <g id="ytick_1">
     <g id="line2d_1">
      <path clip-path="url(#p43e535f329)" d="M 32.968125 353.2239 
L 993.158125 353.2239 
" style="fill:none;stroke:#dedede;stroke-linecap:square;"/>
     </g>
     <g id="text_10">
      <!-- 0 -->
      <g transform="translate(20.878125 356.263275)scale(0.08 -0.08)">
       <use xlink:href="#DejaVuSans-48"/>
      </g>
     </g>
    </g>
    <g id="ytick_2">
     <g id="line2d_2">
      <path clip-path="url(#p43e535f329)" d="M 32.968125 289.6303 
L 993.158125 289.6303 
" style="fill:none;stroke:#dedede;stroke-linecap:square;"/>
     </g>
     <g id="text_11">
      <!-- 1 -->
      <g transform="translate(20.878125 292.669675)scale(0.08 -0.08)">
       <use xlink:href="#DejaVuSans-49"/>
      </g>
     </g>
    </g>
    <g id="ytick_3">
     <g id="line2d_3">
      <path clip-path="url(#p43e535f329)" d="M 32.968125 226.0367 
L 993.158125 226.0367 
" style="fill:none;stroke:#dedede;stroke-linecap:square;"/>
     </g>
     <g id="text_12">
      <!-- 2 -->
      <g transform="translate(20.878125 229.076075)scale(0.08 -0.08)">
       <use xlink:href="#DejaVuSans-50"/>
      </g>
     </g>
    </g>
    <g id="ytick_4">
     <g id="line2d_4">
      <path clip-path="url(#p43e535f329)" d="M 32.968125 162.4431 
L 993.158125 162.4431 
" style="fill:none;stroke:#dedede;stroke-linecap:square;"/>
     </g>
     <g id="text_13">
      <!-- 3 -->
      <defs>
       <path d="M 40.578125 39.3125 
Q 47.65625 37.796875 51.625 33 
Q 55.609375 28.21875 55.609375 21.1875 
Q 55.609375 10.40625 48.1875 4.484375 
Q 40.765625 -1.421875 27.09375 -1.421875 
Q 22.515625 -1.421875 17.65625 -0.515625 
Q 12.796875 0.390625 7.625 2.203125 
L 7.625 11.71875 
Q 11.71875 9.328125 16.59375 8.109375 
Q 21.484375 6.890625 26.8125 6.890625 
Q 36.078125 6.890625 40.9375 10.546875 
Q 45.796875 14.203125 45.796875 21.1875 
Q 45.796875 27.640625 41.28125 31.265625 
Q 36.765625 34.90625 28.71875 34.90625 
L 20.21875 34.90625 
L 20.21875 43.015625 
L 29.109375 43.015625 
Q 36.375 43.015625 40.234375 45.921875 
Q 44.09375 48.828125 44.09375 54.296875 
Q 44.09375 59.90625 40.109375 62.90625 
Q 36.140625 65.921875 28.71875 65.921875 
Q 24.65625 65.921875 20.015625 65.03125 
Q 15.375 64.15625 9.8125 62.3125 
L 9.8125 71.09375 
Q 15.4375 72.65625 20.34375 73.4375 
Q 25.25 74.21875 29.59375 74.21875 
Q 40.828125 74.21875 47.359375 69.109375 
Q 53.90625 64.015625 53.90625 55.328125 
Q 53.90625 49.265625 50.4375 45.09375 
Q 46.96875 40.921875 40.578125 39.3125 
z
" id="DejaVuSans-51"/>
      </defs>
      <g transform="translate(20.878125 165.482475)scale(0.08 -0.08)">
       <use xlink:href="#DejaVuSans-51"/>
      </g>
     </g>
    </g>
    <g id="ytick_5">
     <g id="line2d_5">
      <path clip-path="url(#p43e535f329)" d="M 32.968125 98.8495 
L 993.158125 98.8495 
" style="fill:none;stroke:#dedede;stroke-linecap:square;"/>
     </g>
     <g id="text_14">
      <!-- 4 -->
      <g transform="translate(20.878125 101.888875)scale(0.08 -0.08)">
       <use xlink:href="#DejaVuSans-52"/>
      </g>
     </g>
    </g>
    <g id="ytick_6">
     <g id="line2d_6">
      <path clip-path="url(#p43e535f329)" d="M 32.968125 35.2559 
L 993.158125 35.2559 
" style="fill:none;stroke:#dedede;stroke-linecap:square;"/>
     </g>
     <g id="text_15">
      <!-- 5 -->
      <defs>
       <path d="M 10.796875 72.90625 
L 49.515625 72.90625 
L 49.515625 64.59375 
L 19.828125 64.59375 
L 19.828125 46.734375 
Q 21.96875 47.46875 24.109375 47.828125 
Q 26.265625 48.1875 28.421875 48.1875 
Q 40.625 48.1875 47.75 41.5 
Q 54.890625 34.8125 54.890625 23.390625 
Q 54.890625 11.625 47.5625 5.09375 
Q 40.234375 -1.421875 26.90625 -1.421875 
Q 22.3125 -1.421875 17.546875 -0.640625 
Q 12.796875 0.140625 7.71875 1.703125 
L 7.71875 11.625 
Q 12.109375 9.234375 16.796875 8.0625 
Q 21.484375 6.890625 26.703125 6.890625 
Q 35.15625 6.890625 40.078125 11.328125 
Q 45.015625 15.765625 45.015625 23.390625 
Q 45.015625 31 40.078125 35.4375 
Q 35.15625 39.890625 26.703125 39.890625 
Q 22.75 39.890625 18.8125 39.015625 
Q 14.890625 38.140625 10.796875 36.28125 
z
" id="DejaVuSans-53"/>
      </defs>
      <g transform="translate(20.878125 38.295275)scale(0.08 -0.08)">
       <use xlink:href="#DejaVuSans-53"/>
      </g>
     </g>
    </g>
    <g id="text_16">
     <!-- % of Sequences -->
     <defs>
      <path d="M 72.703125 32.078125 
Q 68.453125 32.078125 66.03125 28.46875 
Q 63.625 24.859375 63.625 18.40625 
Q 63.625 12.0625 66.03125 8.421875 
Q 68.453125 4.78125 72.703125 4.78125 
Q 76.859375 4.78125 79.265625 8.421875 
Q 81.6875 12.0625 81.6875 18.40625 
Q 81.6875 24.8125 79.265625 28.4375 
Q 76.859375 32.078125 72.703125 32.078125 
z
M 72.703125 38.28125 
Q 80.421875 38.28125 84.953125 32.90625 
Q 89.5 27.546875 89.5 18.40625 
Q 89.5 9.28125 84.9375 3.921875 
Q 80.375 -1.421875 72.703125 -1.421875 
Q 64.890625 -1.421875 60.34375 3.921875 
Q 55.8125 9.28125 55.8125 18.40625 
Q 55.8125 27.59375 60.375 32.9375 
Q 64.9375 38.28125 72.703125 38.28125 
z
M 22.3125 68.015625 
Q 18.109375 68.015625 15.6875 64.375 
Q 13.28125 60.75 13.28125 54.390625 
Q 13.28125 47.953125 15.671875 44.328125 
Q 18.0625 40.71875 22.3125 40.71875 
Q 26.5625 40.71875 28.96875 44.328125 
Q 31.390625 47.953125 31.390625 54.390625 
Q 31.390625 60.6875 28.953125 64.34375 
Q 26.515625 68.015625 22.3125 68.015625 
z
M 66.40625 74.21875 
L 74.21875 74.21875 
L 28.609375 -1.421875 
L 20.796875 -1.421875 
z
M 22.3125 74.21875 
Q 30.03125 74.21875 34.609375 68.875 
Q 39.203125 63.53125 39.203125 54.390625 
Q 39.203125 45.171875 34.640625 39.84375 
Q 30.078125 34.515625 22.3125 34.515625 
Q 14.546875 34.515625 10.03125 39.859375 
Q 5.515625 45.21875 5.515625 54.390625 
Q 5.515625 63.484375 10.046875 68.84375 
Q 14.59375 74.21875 22.3125 74.21875 
z
" id="DejaVuSans-37"/>
      <path d="M 37.109375 75.984375 
L 37.109375 68.5 
L 28.515625 68.5 
Q 23.6875 68.5 21.796875 66.546875 
Q 19.921875 64.59375 19.921875 59.515625 
L 19.921875 54.6875 
L 34.71875 54.6875 
L 34.71875 47.703125 
L 19.921875 47.703125 
L 19.921875 0 
L 10.890625 0 
L 10.890625 47.703125 
L 2.296875 47.703125 
L 2.296875 54.6875 
L 10.890625 54.6875 
L 10.890625 58.5 
Q 10.890625 67.625 15.140625 71.796875 
Q 19.390625 75.984375 28.609375 75.984375 
z
" id="DejaVuSans-102"/>
      <path d="M 53.515625 70.515625 
L 53.515625 60.890625 
Q 47.90625 63.578125 42.921875 64.890625 
Q 37.9375 66.21875 33.296875 66.21875 
Q 25.25 66.21875 20.875 63.09375 
Q 16.5 59.96875 16.5 54.203125 
Q 16.5 49.359375 19.40625 46.890625 
Q 22.3125 44.4375 30.421875 42.921875 
L 36.375 41.703125 
Q 47.40625 39.59375 52.65625 34.296875 
Q 57.90625 29 57.90625 20.125 
Q 57.90625 9.515625 50.796875 4.046875 
Q 43.703125 -1.421875 29.984375 -1.421875 
Q 24.8125 -1.421875 18.96875 -0.25 
Q 13.140625 0.921875 6.890625 3.21875 
L 6.890625 13.375 
Q 12.890625 10.015625 18.65625 8.296875 
Q 24.421875 6.59375 29.984375 6.59375 
Q 38.421875 6.59375 43.015625 9.90625 
Q 47.609375 13.234375 47.609375 19.390625 
Q 47.609375 24.75 44.3125 27.78125 
Q 41.015625 30.8125 33.5 32.328125 
L 27.484375 33.5 
Q 16.453125 35.6875 11.515625 40.375 
Q 6.59375 45.0625 6.59375 53.421875 
Q 6.59375 63.09375 13.40625 68.65625 
Q 20.21875 74.21875 32.171875 74.21875 
Q 37.3125 74.21875 42.625 73.28125 
Q 47.953125 72.359375 53.515625 70.515625 
z
" id="DejaVuSans-83"/>
      <path d="M 56.203125 29.59375 
L 56.203125 25.203125 
L 14.890625 25.203125 
Q 15.484375 15.921875 20.484375 11.0625 
Q 25.484375 6.203125 34.421875 6.203125 
Q 39.59375 6.203125 44.453125 7.46875 
Q 49.3125 8.734375 54.109375 11.28125 
L 54.109375 2.78125 
Q 49.265625 0.734375 44.1875 -0.34375 
Q 39.109375 -1.421875 33.890625 -1.421875 
Q 20.796875 -1.421875 13.15625 6.1875 
Q 5.515625 13.8125 5.515625 26.8125 
Q 5.515625 40.234375 12.765625 48.109375 
Q 20.015625 56 32.328125 56 
Q 43.359375 56 49.78125 48.890625 
Q 56.203125 41.796875 56.203125 29.59375 
z
M 47.21875 32.234375 
Q 47.125 39.59375 43.09375 43.984375 
Q 39.0625 48.390625 32.421875 48.390625 
Q 24.90625 48.390625 20.390625 44.140625 
Q 15.875 39.890625 15.1875 32.171875 
z
" id="DejaVuSans-101"/>
      <path d="M 14.796875 27.296875 
Q 14.796875 17.390625 18.875 11.75 
Q 22.953125 6.109375 30.078125 6.109375 
Q 37.203125 6.109375 41.296875 11.75 
Q 45.40625 17.390625 45.40625 27.296875 
Q 45.40625 37.203125 41.296875 42.84375 
Q 37.203125 48.484375 30.078125 48.484375 
Q 22.953125 48.484375 18.875 42.84375 
Q 14.796875 37.203125 14.796875 27.296875 
z
M 45.40625 8.203125 
Q 42.578125 3.328125 38.25 0.953125 
Q 33.9375 -1.421875 27.875 -1.421875 
Q 17.96875 -1.421875 11.734375 6.484375 
Q 5.515625 14.40625 5.515625 27.296875 
Q 5.515625 40.1875 11.734375 48.09375 
Q 17.96875 56 27.875 56 
Q 33.9375 56 38.25 53.625 
Q 42.578125 51.265625 45.40625 46.390625 
L 45.40625 54.6875 
L 54.390625 54.6875 
L 54.390625 -20.796875 
L 45.40625 -20.796875 
z
" id="DejaVuSans-113"/>
      <path d="M 8.5 21.578125 
L 8.5 54.6875 
L 17.484375 54.6875 
L 17.484375 21.921875 
Q 17.484375 14.15625 20.5 10.265625 
Q 23.53125 6.390625 29.59375 6.390625 
Q 36.859375 6.390625 41.078125 11.03125 
Q 45.3125 15.671875 45.3125 23.6875 
L 45.3125 54.6875 
L 54.296875 54.6875 
L 54.296875 0 
L 45.3125 0 
L 45.3125 8.40625 
Q 42.046875 3.421875 37.71875 1 
Q 33.40625 -1.421875 27.6875 -1.421875 
Q 18.265625 -1.421875 13.375 4.4375 
Q 8.5 10.296875 8.5 21.578125 
z
M 31.109375 56 
z
" id="DejaVuSans-117"/>
      <path d="M 48.78125 52.59375 
L 48.78125 44.1875 
Q 44.96875 46.296875 41.140625 47.34375 
Q 37.3125 48.390625 33.40625 48.390625 
Q 24.65625 48.390625 19.8125 42.84375 
Q 14.984375 37.3125 14.984375 27.296875 
Q 14.984375 17.28125 19.8125 11.734375 
Q 24.65625 6.203125 33.40625 6.203125 
Q 37.3125 6.203125 41.140625 7.25 
Q 44.96875 8.296875 48.78125 10.40625 
L 48.78125 2.09375 
Q 45.015625 0.34375 40.984375 -0.53125 
Q 36.96875 -1.421875 32.421875 -1.421875 
Q 20.0625 -1.421875 12.78125 6.34375 
Q 5.515625 14.109375 5.515625 27.296875 
Q 5.515625 40.671875 12.859375 48.328125 
Q 20.21875 56 33.015625 56 
Q 37.15625 56 41.109375 55.140625 
Q 45.0625 54.296875 48.78125 52.59375 
z
" id="DejaVuSans-99"/>
     </defs>
     <g transform="translate(14.798437 234.257869)rotate(-90)scale(0.1 -0.1)">
      <use xlink:href="#DejaVuSans-37"/>
      <use x="95.019531" xlink:href="#DejaVuSans-32"/>
      <use x="126.806641" xlink:href="#DejaVuSans-111"/>
      <use x="187.988281" xlink:href="#DejaVuSans-102"/>
      <use x="223.193359" xlink:href="#DejaVuSans-32"/>
      <use x="254.980469" xlink:href="#DejaVuSans-83"/>
      <use x="318.457031" xlink:href="#DejaVuSans-101"/>
      <use x="379.980469" xlink:href="#DejaVuSans-113"/>
      <use x="443.457031" xlink:href="#DejaVuSans-117"/>
      <use x="506.835938" xlink:href="#DejaVuSans-101"/>
      <use x="568.359375" xlink:href="#DejaVuSans-110"/>
      <use x="631.738281" xlink:href="#DejaVuSans-99"/>
      <use x="686.71875" xlink:href="#DejaVuSans-101"/>
      <use x="748.242188" xlink:href="#DejaVuSans-115"/>
     </g>
    </g>
   </g>
   <g id="line2d_7">
    <path clip-path="url(#p43e535f329)" d="M 76.613125 353.2239 
L 82.984658 353.2239 
L 89.356191 353.2239 
L 95.727724 353.2239 
L 102.099256 353.2239 
L 108.470789 353.2239 
L 114.842322 353.2239 
L 121.213855 353.2239 
L 127.585388 353.2239 
L 133.956921 353.2239 
L 146.699986 353.2239 
L 159.443052 353.2239 
L 172.186118 353.2239 
L 184.929183 353.2239 
L 197.672249 353.2239 
L 210.415315 353.2239 
L 223.15838 353.2239 
L 235.901446 353.2239 
L 248.644512 353.2239 
L 261.387578 353.2239 
L 274.130643 353.2239 
L 286.873709 353.2239 
L 299.616775 353.2239 
L 312.35984 353.2239 
L 325.102906 353.2239 
L 337.845972 353.2239 
L 350.589037 353.2239 
L 363.332103 353.210787 
L 376.075169 353.18456 
L 388.818234 353.092767 
L 401.5613 352.974747 
L 414.304366 352.843614 
L 427.047432 352.71248 
L 439.790497 352.4371 
L 452.533563 352.135494 
L 465.276629 351.860114 
L 478.019694 351.702754 
L 490.76276 351.361808 
L 503.505826 351.060201 
L 516.248891 350.588121 
L 528.991957 350.194722 
L 541.735023 349.945568 
L 554.478089 349.552169 
L 567.221154 349.237449 
L 579.96422 348.870276 
L 592.707286 348.542443 
L 605.450351 347.991683 
L 618.193417 347.480263 
L 630.936483 346.890163 
L 643.679548 346.48365 
L 656.422614 346.037797 
L 669.16568 345.552604 
L 681.908745 345.224771 
L 694.651811 344.910051 
L 707.394877 344.621558 
L 720.137943 344.346178 
L 732.881008 344.018345 
L 745.624074 343.677399 
L 758.36714 343.375792 
L 771.110205 343.061072 
L 783.853271 342.746352 
L 796.596337 342.418519 
L 809.339402 342.143139 
L 822.082468 341.762853 
L 834.825534 341.566153 
L 847.568599 341.212093 
L 860.311665 340.949827 
L 873.054731 340.661333 
L 885.797797 340.517087 
L 898.540862 340.399067 
L 911.283928 340.281047 
L 924.026994 340.189254 
L 936.770059 340.149914 
L 949.513125 340.1368 
" style="fill:none;stroke:#7cb5ec;stroke-linecap:square;"/>
   </g>
   <g id="line2d_8">
    <path clip-path="url(#p43e535f329)" d="M 76.613125 353.2239 
L 82.984658 353.2239 
L 89.356191 353.2239 
L 95.727724 353.2239 
L 102.099256 353.2239 
L 108.470789 353.2239 
L 114.842322 353.2239 
L 121.213855 353.2239 
L 127.585388 353.2239 
L 133.956921 353.2239 
L 146.699986 353.2239 
L 159.443052 353.2239 
L 172.186118 353.2239 
L 184.929183 353.2239 
L 197.672249 353.2239 
L 210.415315 353.2239 
L 223.15838 353.2239 
L 235.901446 353.2239 
L 248.644512 353.2239 
L 261.387578 353.2239 
L 274.130643 353.2239 
L 286.873709 353.2239 
L 299.616775 353.197673 
L 312.35984 353.197673 
L 325.102906 353.197673 
L 337.845972 353.197673 
L 350.589037 353.197673 
L 363.332103 353.197673 
L 376.075169 353.197673 
L 388.818234 353.197673 
L 401.5613 353.18456 
L 414.304366 353.171447 
L 427.047432 353.118993 
L 439.790497 353.014087 
L 452.533563 352.86984 
L 465.276629 352.764934 
L 478.019694 352.660027 
L 490.76276 352.463327 
L 503.505826 352.161721 
L 516.248891 351.781434 
L 528.991957 351.466714 
L 541.735023 351.296241 
L 554.478089 351.047088 
L 567.221154 350.811048 
L 579.96422 350.483215 
L 592.707286 350.142268 
L 605.450351 349.657075 
L 618.193417 349.224336 
L 630.936483 348.752256 
L 643.679548 348.332629 
L 656.422614 348.004796 
L 669.16568 347.729416 
L 681.908745 347.454036 
L 694.651811 347.15243 
L 707.394877 346.87705 
L 720.137943 346.549217 
L 732.881008 346.050911 
L 745.624074 345.775531 
L 758.36714 345.526378 
L 771.110205 345.277224 
L 783.853271 344.949391 
L 796.596337 344.634671 
L 809.339402 344.346178 
L 822.082468 344.018345 
L 834.825534 343.847872 
L 847.568599 343.624945 
L 860.311665 343.375792 
L 873.054731 343.100412 
L 885.797797 342.890599 
L 898.540862 342.680786 
L 911.283928 342.562766 
L 924.026994 342.484086 
L 936.770059 342.418519 
L 949.513125 342.418519 
" style="fill:none;stroke:#434348;stroke-linecap:square;"/>
   </g>
   <g id="line2d_9">
    <path clip-path="url(#p43e535f329)" d="M 76.613125 353.2239 
L 82.984658 353.2239 
L 89.356191 353.2239 
L 95.727724 353.2239 
L 102.099256 353.2239 
L 108.470789 353.2239 
L 114.842322 353.2239 
L 121.213855 353.2239 
L 127.585388 353.2239 
L 133.956921 353.2239 
L 146.699986 353.2239 
L 159.443052 353.2239 
L 172.186118 353.2239 
L 184.929183 353.2239 
L 197.672249 353.2239 
L 210.415315 353.2239 
L 223.15838 353.2239 
L 235.901446 353.2239 
L 248.644512 353.2239 
L 261.387578 353.2239 
L 274.130643 353.2239 
L 286.873709 353.2239 
L 299.616775 353.2239 
L 312.35984 353.2239 
L 325.102906 353.2239 
L 337.845972 353.2239 
L 350.589037 353.215508 
L 363.332103 353.198725 
L 376.075169 353.181942 
L 388.818234 353.156767 
L 401.5613 353.072852 
L 414.304366 352.988936 
L 427.047432 352.863062 
L 439.790497 352.670056 
L 452.533563 352.502224 
L 465.276629 352.367959 
L 478.019694 352.208518 
L 490.76276 352.082645 
L 503.505826 351.856072 
L 516.248891 351.713415 
L 528.991957 351.478451 
L 541.735023 351.151179 
L 554.478089 350.865865 
L 567.221154 350.630901 
L 579.96422 350.194538 
L 592.707286 349.967966 
L 605.450351 349.72461 
L 618.193417 349.372163 
L 630.936483 349.019717 
L 643.679548 348.809927 
L 656.422614 348.55818 
L 669.16568 348.289649 
L 681.908745 348.037902 
L 694.651811 347.853287 
L 707.394877 347.66028 
L 720.137943 347.333009 
L 732.881008 347.098044 
L 745.624074 346.896646 
L 758.36714 346.636507 
L 771.110205 346.451892 
L 783.853271 346.208536 
L 796.596337 346.040705 
L 809.339402 345.814132 
L 822.082468 345.570776 
L 834.825534 345.352595 
L 847.568599 345.285462 
L 860.311665 345.260287 
L 873.054731 345.134414 
L 885.797797 345.050498 
L 898.540862 344.966582 
L 911.283928 344.916233 
L 924.026994 344.840708 
L 936.770059 344.781967 
L 949.513125 344.781967 
" style="fill:none;stroke:#90ed7d;stroke-linecap:square;"/>
   </g>
   <g id="line2d_10">
    <path clip-path="url(#p43e535f329)" d="M 76.613125 353.2239 
L 82.984658 353.2239 
L 89.356191 353.2239 
L 95.727724 353.2239 
L 102.099256 353.2239 
L 108.470789 353.2239 
L 114.842322 353.2239 
L 121.213855 353.2239 
L 127.585388 353.2239 
L 133.956921 353.2239 
L 146.699986 353.2239 
L 159.443052 353.2239 
L 172.186118 353.2239 
L 184.929183 353.2239 
L 197.672249 353.2239 
L 210.415315 353.2239 
L 223.15838 353.2239 
L 235.901446 353.2239 
L 248.644512 353.2239 
L 261.387578 353.2239 
L 274.130643 353.2239 
L 286.873709 353.2239 
L 299.616775 353.2239 
L 312.35984 353.2239 
L 325.102906 353.2239 
L 337.845972 353.2239 
L 350.589037 353.2239 
L 363.332103 353.2239 
L 376.075169 353.2239 
L 388.818234 353.103508 
L 401.5613 353.103508 
L 414.304366 353.103508 
L 427.047432 352.922919 
L 439.790497 352.742331 
L 452.533563 352.682135 
L 465.276629 352.621939 
L 478.019694 352.44135 
L 490.76276 352.019977 
L 503.505826 351.658801 
L 516.248891 351.237428 
L 528.991957 350.816055 
L 541.735023 350.093701 
L 554.478089 349.311152 
L 567.221154 348.348013 
L 579.96422 347.986837 
L 592.707286 347.866444 
L 605.450351 347.806248 
L 618.193417 347.685856 
L 630.936483 347.445071 
L 643.679548 346.963502 
L 656.422614 346.722718 
L 669.16568 346.421737 
L 681.908745 345.940168 
L 694.651811 345.699384 
L 707.394877 345.639188 
L 720.137943 345.518795 
L 732.881008 345.157619 
L 745.624074 344.555657 
L 758.36714 344.435265 
L 771.110205 344.19448 
L 783.853271 343.773108 
L 796.596337 343.652715 
L 809.339402 343.472127 
L 822.082468 343.411931 
L 834.825534 343.351735 
L 847.568599 343.231342 
L 860.311665 343.231342 
L 873.054731 343.171146 
L 885.797797 343.050754 
L 898.540862 342.990558 
L 911.283928 342.930362 
L 924.026994 342.870166 
L 936.770059 342.870166 
L 949.513125 342.870166 
" style="fill:none;stroke:#f7a35c;stroke-linecap:square;"/>
   </g>
   <g id="line2d_11">
    <path clip-path="url(#p43e535f329)" d="M 76.613125 353.2239 
L 82.984658 353.2239 
L 89.356191 353.2239 
L 95.727724 353.2239 
L 102.099256 353.2239 
L 108.470789 353.2239 
L 114.842322 353.2239 
L 121.213855 353.2239 
L 127.585388 353.2239 
L 133.956921 353.2239 
L 146.699986 353.2239 
L 159.443052 353.2239 
L 172.186118 353.2239 
L 184.929183 353.2239 
L 197.672249 353.2239 
L 210.415315 353.2239 
L 223.15838 353.2239 
L 235.901446 353.2239 
L 248.644512 353.2239 
L 261.387578 353.2239 
L 274.130643 353.2239 
L 286.873709 353.2239 
L 299.616775 353.2239 
L 312.35984 353.2239 
L 325.102906 353.2239 
L 337.845972 353.2239 
L 350.589037 353.2239 
L 363.332103 353.2239 
L 376.075169 353.2239 
L 388.818234 353.2239 
L 401.5613 353.2239 
L 414.304366 353.2239 
L 427.047432 353.2239 
L 439.790497 353.103508 
L 452.533563 353.043312 
L 465.276629 352.983115 
L 478.019694 352.983115 
L 490.76276 352.742331 
L 503.505826 352.44135 
L 516.248891 351.718997 
L 528.991957 351.35782 
L 541.735023 350.996643 
L 554.478089 350.57527 
L 567.221154 350.214093 
L 579.96422 350.214093 
L 592.707286 350.093701 
L 605.450351 349.852917 
L 618.193417 349.672328 
L 630.936483 349.612132 
L 643.679548 349.130563 
L 656.422614 348.829582 
L 669.16568 348.648994 
L 681.908745 347.986837 
L 694.651811 347.685856 
L 707.394877 347.565464 
L 720.137943 347.264483 
L 732.881008 347.083895 
L 745.624074 346.84311 
L 758.36714 346.84311 
L 771.110205 346.602326 
L 783.853271 346.361541 
L 796.596337 346.180953 
L 809.339402 346.120757 
L 822.082468 346.06056 
L 834.825534 346.000364 
L 847.568599 346.000364 
L 860.311665 346.000364 
L 873.054731 345.879972 
L 885.797797 345.879972 
L 898.540862 345.879972 
L 911.283928 345.75958 
L 924.026994 345.75958 
L 936.770059 345.75958 
L 949.513125 345.75958 
" style="fill:none;stroke:#8085e9;stroke-linecap:square;"/>
   </g>
   <g id="line2d_12">
    <path clip-path="url(#p43e535f329)" d="M 76.613125 353.2239 
L 82.984658 353.2239 
L 89.356191 353.2239 
L 95.727724 353.2239 
L 102.099256 353.2239 
L 108.470789 353.2239 
L 114.842322 353.2239 
L 121.213855 353.2239 
L 127.585388 353.2239 
L 133.956921 353.2239 
L 146.699986 353.2239 
L 159.443052 353.2239 
L 172.186118 353.2239 
L 184.929183 353.2239 
L 197.672249 353.2239 
L 210.415315 353.2239 
L 223.15838 353.2239 
L 235.901446 353.2239 
L 248.644512 353.2239 
L 261.387578 353.2239 
L 274.130643 353.2239 
L 286.873709 353.2239 
L 299.616775 353.2239 
L 312.35984 353.2239 
L 325.102906 353.2239 
L 337.845972 353.2239 
L 350.589037 353.2239 
L 363.332103 353.2239 
L 376.075169 353.2239 
L 388.818234 353.2239 
L 401.5613 353.2239 
L 414.304366 353.2239 
L 427.047432 353.2239 
L 439.790497 353.2239 
L 452.533563 350.191301 
L 465.276629 350.191301 
L 478.019694 350.191301 
L 490.76276 350.191301 
L 503.505826 350.191301 
L 516.248891 350.191301 
L 528.991957 350.191301 
L 541.735023 350.191301 
L 554.478089 350.191301 
L 567.221154 350.191301 
L 579.96422 350.191301 
L 592.707286 350.191301 
L 605.450351 350.191301 
L 618.193417 350.191301 
L 630.936483 350.191301 
L 643.679548 350.191301 
L 656.422614 350.191301 
L 669.16568 350.191301 
L 681.908745 350.191301 
L 694.651811 347.158702 
L 707.394877 347.158702 
L 720.137943 347.158702 
L 732.881008 347.158702 
L 745.624074 347.158702 
L 758.36714 345.642403 
L 771.110205 344.126103 
L 783.853271 344.126103 
L 796.596337 344.126103 
L 809.339402 344.126103 
L 822.082468 344.126103 
L 834.825534 344.126103 
L 847.568599 344.126103 
L 860.311665 341.093504 
L 873.054731 341.093504 
L 885.797797 341.093504 
L 898.540862 339.577205 
L 911.283928 338.060905 
L 924.026994 338.060905 
L 936.770059 338.060905 
L 949.513125 338.060905 
" style="fill:none;stroke:#f15c80;stroke-linecap:square;"/>
   </g>
   <g id="line2d_13">
    <path clip-path="url(#p43e535f329)" d="M 76.613125 353.2239 
L 82.984658 353.2239 
L 89.356191 353.2239 
L 95.727724 353.2239 
L 102.099256 353.2239 
L 108.470789 353.2239 
L 114.842322 353.2239 
L 121.213855 353.2239 
L 127.585388 353.2239 
L 133.956921 353.2239 
L 146.699986 353.2239 
L 159.443052 353.2239 
L 172.186118 353.2239 
L 184.929183 353.2239 
L 197.672249 353.2239 
L 210.415315 353.2239 
L 223.15838 353.2239 
L 235.901446 353.2239 
L 248.644512 353.2239 
L 261.387578 353.2239 
L 274.130643 353.2239 
L 286.873709 353.2239 
L 299.616775 353.2239 
L 312.35984 353.2239 
L 325.102906 353.2239 
L 337.845972 353.2239 
L 350.589037 353.2239 
L 363.332103 353.2239 
L 376.075169 353.2239 
L 388.818234 353.2239 
L 401.5613 353.2239 
L 414.304366 353.2239 
L 427.047432 352.464301 
L 439.790497 351.704703 
L 452.533563 351.704703 
L 465.276629 351.704703 
L 478.019694 351.704703 
L 490.76276 351.704703 
L 503.505826 351.704703 
L 516.248891 351.704703 
L 528.991957 351.704703 
L 541.735023 351.704703 
L 554.478089 351.704703 
L 567.221154 350.945104 
L 579.96422 350.185505 
L 592.707286 350.185505 
L 605.450351 349.425907 
L 618.193417 348.666308 
L 630.936483 348.666308 
L 643.679548 348.666308 
L 656.422614 348.666308 
L 669.16568 348.666308 
L 681.908745 348.666308 
L 694.651811 347.906709 
L 707.394877 347.147111 
L 720.137943 347.147111 
L 732.881008 347.147111 
L 745.624074 347.147111 
L 758.36714 347.147111 
L 771.110205 347.147111 
L 783.853271 345.627913 
L 796.596337 344.108716 
L 809.339402 344.108716 
L 822.082468 344.108716 
L 834.825534 344.108716 
L 847.568599 344.108716 
L 860.311665 344.108716 
L 873.054731 344.108716 
L 885.797797 344.108716 
L 898.540862 344.108716 
L 911.283928 344.108716 
L 924.026994 344.108716 
L 936.770059 344.108716 
L 949.513125 344.108716 
" style="fill:none;stroke:#e4d354;stroke-linecap:square;"/>
   </g>
   <g id="line2d_14">
    <path clip-path="url(#p43e535f329)" d="M 76.613125 353.2239 
L 82.984658 353.2239 
L 89.356191 353.2239 
L 95.727724 353.2239 
L 102.099256 353.2239 
L 108.470789 353.2239 
L 114.842322 353.2239 
L 121.213855 353.2239 
L 127.585388 353.2239 
L 133.956921 353.2239 
L 146.699986 353.2239 
L 159.443052 353.2239 
L 172.186118 353.2239 
L 184.929183 353.2239 
L 197.672249 353.2239 
L 210.415315 353.2239 
L 223.15838 353.2239 
L 235.901446 353.2239 
L 248.644512 353.2239 
L 261.387578 353.2239 
L 274.130643 353.2239 
L 286.873709 353.2239 
L 299.616775 353.2239 
L 312.35984 353.214879 
L 325.102906 353.214879 
L 337.845972 353.214879 
L 350.589037 353.214879 
L 363.332103 353.210368 
L 376.075169 353.196836 
L 388.818234 353.124665 
L 401.5613 352.966792 
L 414.304366 352.835982 
L 427.047432 352.723216 
L 439.790497 352.556321 
L 452.533563 352.326277 
L 465.276629 352.14585 
L 478.019694 351.938359 
L 490.76276 351.708315 
L 503.505826 351.451206 
L 516.248891 351.194098 
L 528.991957 350.977586 
L 541.735023 350.724988 
L 554.478089 350.544562 
L 567.221154 350.341581 
L 579.96422 350.088984 
L 592.707286 349.881493 
L 605.450351 349.597321 
L 618.193417 349.425915 
L 630.936483 349.240978 
L 643.679548 349.024466 
L 656.422614 348.821485 
L 669.16568 348.681655 
L 681.908745 348.492206 
L 694.651811 348.329822 
L 707.394877 348.167438 
L 720.137943 348.041139 
L 732.881008 347.950926 
L 745.624074 347.784031 
L 758.36714 347.666754 
L 771.110205 347.549476 
L 783.853271 347.472795 
L 796.596337 347.387092 
L 809.339402 347.265304 
L 822.082468 347.202155 
L 834.825534 347.111941 
L 847.568599 347.030749 
L 860.311665 346.958578 
L 873.054731 346.863854 
L 885.797797 346.805216 
L 898.540862 346.724024 
L 911.283928 346.660874 
L 924.026994 346.6293 
L 936.770059 346.597725 
L 949.513125 346.593214 
" style="fill:none;stroke:#2b908f;stroke-linecap:square;"/>
   </g>
   <g id="line2d_15">
    <path clip-path="url(#p43e535f329)" d="M 76.613125 353.2239 
L 82.984658 353.2239 
L 89.356191 353.2239 
L 95.727724 353.2239 
L 102.099256 353.2239 
L 108.470789 353.2239 
L 114.842322 353.2239 
L 121.213855 353.2239 
L 127.585388 353.2239 
L 133.956921 353.2239 
L 146.699986 353.2239 
L 159.443052 353.2239 
L 172.186118 353.2239 
L 184.929183 353.2239 
L 197.672249 353.2239 
L 210.415315 353.2239 
L 223.15838 353.215845 
L 235.901446 353.215845 
L 248.644512 353.211818 
L 261.387578 353.207791 
L 274.130643 353.207791 
L 286.873709 353.207791 
L 299.616775 353.207791 
L 312.35984 353.207791 
L 325.102906 353.203763 
L 337.845972 353.199736 
L 350.589037 353.199736 
L 363.332103 353.195709 
L 376.075169 353.175572 
L 388.818234 353.095025 
L 401.5613 352.941985 
L 414.304366 352.728536 
L 427.047432 352.547305 
L 439.790497 352.358019 
L 452.533563 352.055968 
L 465.276629 351.818354 
L 478.019694 351.576713 
L 490.76276 351.339099 
L 503.505826 351.105512 
L 516.248891 350.803461 
L 528.991957 350.481272 
L 541.735023 350.191303 
L 554.478089 349.881197 
L 567.221154 349.583173 
L 579.96422 349.365696 
L 592.707286 349.140164 
L 605.450351 348.834085 
L 618.193417 348.523979 
L 630.936483 348.27831 
L 643.679548 348.016532 
L 656.422614 347.706426 
L 669.16568 347.38021 
L 681.908745 347.170788 
L 694.651811 346.929147 
L 707.394877 346.703615 
L 720.137943 346.542521 
L 732.881008 346.349208 
L 745.624074 346.139786 
L 758.36714 345.958555 
L 771.110205 345.825652 
L 783.853271 345.712886 
L 796.596337 345.53971 
L 809.339402 345.430971 
L 822.082468 345.366534 
L 834.825534 345.241686 
L 847.568599 345.116838 
L 860.311665 345.0524 
L 873.054731 344.97588 
L 885.797797 344.85506 
L 898.540862 344.750349 
L 911.283928 344.710075 
L 924.026994 344.681884 
L 936.770059 344.661747 
L 949.513125 344.661747 
" style="fill:none;stroke:#f45b5b;stroke-linecap:square;"/>
   </g>
   <g id="line2d_16">
    <path clip-path="url(#p43e535f329)" d="M 76.613125 353.2239 
L 82.984658 353.2239 
L 89.356191 353.2239 
L 95.727724 353.2239 
L 102.099256 353.2239 
L 108.470789 353.2239 
L 114.842322 353.2239 
L 121.213855 353.2239 
L 127.585388 353.2239 
L 133.956921 353.2239 
L 146.699986 353.2239 
L 159.443052 353.2239 
L 172.186118 353.2239 
L 184.929183 353.2239 
L 197.672249 353.2239 
L 210.415315 353.2239 
L 223.15838 353.2239 
L 235.901446 353.2239 
L 248.644512 353.2239 
L 261.387578 353.2239 
L 274.130643 353.204339 
L 286.873709 353.204339 
L 299.616775 353.204339 
L 312.35984 353.204339 
L 325.102906 353.204339 
L 337.845972 353.204339 
L 350.589037 353.194559 
L 363.332103 353.174998 
L 376.075169 353.165218 
L 388.818234 353.155438 
L 401.5613 353.077195 
L 414.304366 352.93049 
L 427.047432 352.754445 
L 439.790497 352.597959 
L 452.533563 352.421914 
L 465.276629 352.099163 
L 478.019694 351.795973 
L 490.76276 351.483003 
L 503.505826 351.140692 
L 516.248891 350.739699 
L 528.991957 350.328925 
L 541.735023 349.85947 
L 554.478089 349.478037 
L 567.221154 349.125946 
L 579.96422 348.685831 
L 592.707286 348.255497 
L 605.450351 347.844724 
L 618.193417 347.375268 
L 630.936483 347.101419 
L 643.679548 346.80801 
L 656.422614 346.495039 
L 669.16568 346.142948 
L 681.908745 345.790856 
L 694.651811 345.536568 
L 707.394877 345.125795 
L 720.137943 344.617218 
L 732.881008 344.177104 
L 745.624074 343.854353 
L 758.36714 343.521822 
L 771.110205 343.228412 
L 783.853271 342.974124 
L 796.596337 342.710055 
L 809.339402 342.514449 
L 822.082468 342.318843 
L 834.825534 342.133017 
L 847.568599 341.92763 
L 860.311665 341.800486 
L 873.054731 341.702682 
L 885.797797 341.555978 
L 898.540862 341.409273 
L 911.283928 341.31147 
L 924.026994 341.282129 
L 936.770059 341.272348 
L 949.513125 341.272348 
" style="fill:none;stroke:#91e8e1;stroke-linecap:square;"/>
   </g>
   <g id="line2d_17">
    <path clip-path="url(#p43e535f329)" d="M 76.613125 353.2239 
L 82.984658 353.2239 
L 89.356191 353.2239 
L 95.727724 353.2239 
L 102.099256 353.2239 
L 108.470789 353.2239 
L 114.842322 353.204339 
L 121.213855 353.204339 
L 127.585388 353.204339 
L 133.956921 353.204339 
L 146.699986 353.204339 
L 159.443052 353.204339 
L 172.186118 353.204339 
L 184.929183 353.204339 
L 197.672249 353.204339 
L 210.415315 353.204339 
L 223.15838 353.204339 
L 235.901446 353.204339 
L 248.644512 353.204339 
L 261.387578 353.204339 
L 274.130643 353.204339 
L 286.873709 353.204339 
L 299.616775 353.204339 
L 312.35984 353.204339 
L 325.102906 353.204339 
L 337.845972 353.204339 
L 350.589037 353.184779 
L 363.332103 353.184779 
L 376.075169 353.174998 
L 388.818234 353.155438 
L 401.5613 353.126097 
L 414.304366 353.057635 
L 427.047432 352.950051 
L 439.790497 352.891369 
L 452.533563 352.813127 
L 465.276629 352.705543 
L 478.019694 352.597959 
L 490.76276 352.402353 
L 503.505826 352.148065 
L 516.248891 351.844875 
L 528.991957 351.619927 
L 541.735023 351.297177 
L 554.478089 351.013548 
L 567.221154 350.729918 
L 579.96422 350.368046 
L 592.707286 350.055076 
L 605.450351 349.702985 
L 618.193417 349.350893 
L 630.936483 349.116165 
L 643.679548 348.773854 
L 656.422614 348.431543 
L 669.16568 348.147914 
L 681.908745 347.864284 
L 694.651811 347.619776 
L 707.394877 347.218783 
L 720.137943 346.778669 
L 732.881008 346.397236 
L 745.624074 345.957122 
L 758.36714 345.468106 
L 771.110205 345.155136 
L 783.853271 344.97909 
L 796.596337 344.754142 
L 809.339402 344.37271 
L 822.082468 344.0793 
L 834.825534 343.873914 
L 847.568599 343.658747 
L 860.311665 343.551163 
L 873.054731 343.404458 
L 885.797797 343.199071 
L 898.540862 343.023026 
L 911.283928 342.827419 
L 924.026994 342.788298 
L 936.770059 342.719836 
L 949.513125 342.719836 
" style="fill:none;stroke:#7cb5ec;stroke-linecap:square;"/>
   </g>
   <g id="line2d_18">
    <path clip-path="url(#p43e535f329)" d="M 76.613125 353.2239 
L 82.984658 353.2239 
L 89.356191 353.2239 
L 95.727724 353.2239 
L 102.099256 353.2239 
L 108.470789 353.2239 
L 114.842322 353.2239 
L 121.213855 353.2239 
L 127.585388 353.2239 
L 133.956921 353.2239 
L 146.699986 353.2239 
L 159.443052 353.2239 
L 172.186118 353.2239 
L 184.929183 353.2239 
L 197.672249 353.2239 
L 210.415315 353.2239 
L 223.15838 353.2239 
L 235.901446 353.2239 
L 248.644512 353.2239 
L 261.387578 353.2239 
L 274.130643 353.2239 
L 286.873709 353.2239 
L 299.616775 353.2239 
L 312.35984 353.2239 
L 325.102906 353.2239 
L 337.845972 353.2239 
L 350.589037 353.2239 
L 363.332103 353.2239 
L 376.075169 353.2239 
L 388.818234 353.2239 
L 401.5613 353.2239 
L 414.304366 353.2239 
L 427.047432 353.2239 
L 439.790497 353.2239 
L 452.533563 353.2239 
L 465.276629 353.2239 
L 478.019694 353.2239 
L 490.76276 348.897805 
L 503.505826 344.57171 
L 516.248891 344.57171 
L 528.991957 344.57171 
L 541.735023 344.57171 
L 554.478089 344.57171 
L 567.221154 344.57171 
L 579.96422 344.57171 
L 592.707286 344.57171 
L 605.450351 344.57171 
L 618.193417 344.57171 
L 630.936483 344.57171 
L 643.679548 344.57171 
L 656.422614 344.57171 
L 669.16568 344.57171 
L 681.908745 344.57171 
L 694.651811 344.57171 
L 707.394877 344.57171 
L 720.137943 344.57171 
L 732.881008 344.57171 
L 745.624074 344.57171 
L 758.36714 344.57171 
L 771.110205 344.57171 
L 783.853271 344.57171 
L 796.596337 344.57171 
L 809.339402 344.57171 
L 822.082468 344.57171 
L 834.825534 344.57171 
L 847.568599 344.57171 
L 860.311665 344.57171 
L 873.054731 344.57171 
L 885.797797 344.57171 
L 898.540862 344.57171 
L 911.283928 344.57171 
L 924.026994 344.57171 
L 936.770059 344.57171 
L 949.513125 344.57171 
" style="fill:none;stroke:#434348;stroke-linecap:square;"/>
   </g>
   <g id="line2d_19">
    <path clip-path="url(#p43e535f329)" d="M 76.613125 353.2239 
L 82.984658 353.2239 
L 89.356191 353.2239 
L 95.727724 353.2239 
L 102.099256 353.2239 
L 108.470789 353.2239 
L 114.842322 353.2239 
L 121.213855 353.2239 
L 127.585388 353.2239 
L 133.956921 353.2239 
L 146.699986 353.2239 
L 159.443052 353.2239 
L 172.186118 353.2239 
L 184.929183 353.2239 
L 197.672249 353.2239 
L 210.415315 353.2239 
L 223.15838 353.2239 
L 235.901446 353.2239 
L 248.644512 353.2239 
L 261.387578 353.2239 
L 274.130643 353.2239 
L 286.873709 353.2239 
L 299.616775 353.2239 
L 312.35984 353.2239 
L 325.102906 353.2239 
L 337.845972 353.2239 
L 350.589037 353.2239 
L 363.332103 353.2239 
L 376.075169 353.2239 
L 388.818234 353.2239 
L 401.5613 353.2239 
L 414.304366 353.2239 
L 427.047432 353.2239 
L 439.790497 353.2239 
L 452.533563 353.2239 
L 465.276629 348.897805 
L 478.019694 344.57171 
L 490.76276 344.57171 
L 503.505826 344.57171 
L 516.248891 344.57171 
L 528.991957 344.57171 
L 541.735023 344.57171 
L 554.478089 344.57171 
L 567.221154 344.57171 
L 579.96422 344.57171 
L 592.707286 344.57171 
L 605.450351 344.57171 
L 618.193417 344.57171 
L 630.936483 344.57171 
L 643.679548 344.57171 
L 656.422614 344.57171 
L 669.16568 344.57171 
L 681.908745 344.57171 
L 694.651811 344.57171 
L 707.394877 344.57171 
L 720.137943 344.57171 
L 732.881008 344.57171 
L 745.624074 344.57171 
L 758.36714 344.57171 
L 771.110205 344.57171 
L 783.853271 344.57171 
L 796.596337 344.57171 
L 809.339402 344.57171 
L 822.082468 344.57171 
L 834.825534 344.57171 
L 847.568599 344.57171 
L 860.311665 344.57171 
L 873.054731 335.919519 
L 885.797797 335.919519 
L 898.540862 335.919519 
L 911.283928 335.919519 
L 924.026994 335.919519 
L 936.770059 335.919519 
L 949.513125 335.919519 
" style="fill:none;stroke:#90ed7d;stroke-linecap:square;"/>
   </g>
   <g id="line2d_20">
    <path clip-path="url(#p43e535f329)" d="M 76.613125 353.2239 
L 82.984658 353.2239 
L 89.356191 353.2239 
L 95.727724 353.2239 
L 102.099256 353.2239 
L 108.470789 353.2239 
L 114.842322 353.2239 
L 121.213855 353.2239 
L 127.585388 353.2239 
L 133.956921 353.2239 
L 146.699986 353.2239 
L 159.443052 353.2239 
L 172.186118 353.2239 
L 184.929183 353.2239 
L 197.672249 353.2239 
L 210.415315 353.2239 
L 223.15838 353.2239 
L 235.901446 353.2239 
L 248.644512 353.2239 
L 261.387578 353.2239 
L 274.130643 353.2239 
L 286.873709 353.2239 
L 299.616775 353.2239 
L 312.35984 353.2239 
L 325.102906 353.2239 
L 337.845972 353.2239 
L 350.589037 353.2239 
L 363.332103 353.2239 
L 376.075169 353.2239 
L 388.818234 353.2239 
L 401.5613 353.2239 
L 414.304366 353.2239 
L 427.047432 353.2239 
L 439.790497 353.2239 
L 452.533563 353.2239 
L 465.276629 353.2239 
L 478.019694 353.2239 
L 490.76276 353.2239 
L 503.505826 353.2239 
L 516.248891 353.2239 
L 528.991957 353.2239 
L 541.735023 353.2239 
L 554.478089 353.2239 
L 567.221154 353.2239 
L 579.96422 353.2239 
L 592.707286 353.2239 
L 605.450351 353.2239 
L 618.193417 353.2239 
L 630.936483 353.2239 
L 643.679548 353.2239 
L 656.422614 353.2239 
L 669.16568 353.2239 
L 681.908745 353.2239 
L 694.651811 353.2239 
L 707.394877 353.2239 
L 720.137943 353.2239 
L 732.881008 353.2239 
L 745.624074 353.2239 
L 758.36714 353.2239 
L 771.110205 353.2239 
L 783.853271 353.2239 
L 796.596337 353.2239 
L 809.339402 353.2239 
L 822.082468 353.2239 
L 834.825534 336.706082 
L 847.568599 336.706082 
L 860.311665 336.706082 
L 873.054731 336.706082 
L 885.797797 336.706082 
L 898.540862 336.706082 
L 911.283928 336.706082 
L 924.026994 336.706082 
L 936.770059 336.706082 
L 949.513125 336.706082 
" style="fill:none;stroke:#f7a35c;stroke-linecap:square;"/>
   </g>
   <g id="line2d_21">
    <path clip-path="url(#p43e535f329)" d="M 76.613125 353.2239 
L 82.984658 353.2239 
L 89.356191 353.2239 
L 95.727724 353.2239 
L 102.099256 353.2239 
L 108.470789 353.2239 
L 114.842322 353.2239 
L 121.213855 353.2239 
L 127.585388 353.2239 
L 133.956921 353.2239 
L 146.699986 353.2239 
L 159.443052 353.2239 
L 172.186118 353.2239 
L 184.929183 353.2239 
L 197.672249 353.2239 
L 210.415315 353.2239 
L 223.15838 353.2239 
L 235.901446 353.2239 
L 248.644512 353.2239 
L 261.387578 353.2239 
L 274.130643 353.2239 
L 286.873709 353.2239 
L 299.616775 353.2239 
L 312.35984 353.2239 
L 325.102906 353.2239 
L 337.845972 353.2239 
L 350.589037 353.2239 
L 363.332103 353.2239 
L 376.075169 353.2239 
L 388.818234 353.120087 
L 401.5613 353.050879 
L 414.304366 352.877858 
L 427.047432 352.808649 
L 439.790497 352.670232 
L 452.533563 352.670232 
L 465.276629 352.32419 
L 478.019694 351.908939 
L 490.76276 351.666709 
L 503.505826 351.459084 
L 516.248891 351.424479 
L 528.991957 351.078437 
L 541.735023 350.628582 
L 554.478089 350.005705 
L 567.221154 349.521246 
L 579.96422 349.382829 
L 592.707286 349.002182 
L 605.450351 348.65614 
L 618.193417 348.344702 
L 630.936483 348.102472 
L 643.679548 347.964055 
L 656.422614 347.791034 
L 669.16568 347.548804 
L 681.908745 347.27197 
L 694.651811 346.891324 
L 707.394877 346.476073 
L 720.137943 346.37226 
L 732.881008 346.199239 
L 745.624074 345.887801 
L 758.36714 345.610967 
L 771.110205 345.541758 
L 783.853271 345.264924 
L 796.596337 345.022695 
L 809.339402 344.745861 
L 822.082468 344.503631 
L 834.825534 344.296006 
L 847.568599 344.053776 
L 860.311665 343.880755 
L 873.054731 343.811546 
L 885.797797 343.811546 
L 898.540862 343.811546 
L 911.283928 343.811546 
L 924.026994 343.742338 
L 936.770059 343.742338 
L 949.513125 343.742338 
" style="fill:none;stroke:#8085e9;stroke-linecap:square;"/>
   </g>
   <g id="line2d_22">
    <path clip-path="url(#p43e535f329)" d="M 76.613125 353.2239 
L 82.984658 353.2239 
L 89.356191 353.2239 
L 95.727724 353.2239 
L 102.099256 353.2239 
L 108.470789 353.2239 
L 114.842322 353.2239 
L 121.213855 353.2239 
L 127.585388 353.2239 
L 133.956921 353.2239 
L 146.699986 353.2239 
L 159.443052 353.2239 
L 172.186118 353.2239 
L 184.929183 353.2239 
L 197.672249 353.2239 
L 210.415315 353.2239 
L 223.15838 353.2239 
L 235.901446 353.2239 
L 248.644512 353.2239 
L 261.387578 353.2239 
L 274.130643 353.2239 
L 286.873709 353.212802 
L 299.616775 353.201705 
L 312.35984 353.196156 
L 325.102906 353.190607 
L 337.845972 353.173961 
L 350.589037 353.157314 
L 363.332103 353.151766 
L 376.075169 353.135119 
L 388.818234 353.035241 
L 401.5613 352.774447 
L 414.304366 352.469263 
L 427.047432 352.119688 
L 439.790497 351.670235 
L 452.533563 351.242978 
L 465.276629 350.776878 
L 478.019694 350.332974 
L 490.76276 349.966753 
L 503.505826 349.556142 
L 516.248891 349.078945 
L 528.991957 348.662785 
L 541.735023 348.124551 
L 554.478089 347.558573 
L 567.221154 347.114669 
L 579.96422 346.726253 
L 592.707286 346.271251 
L 605.450351 345.838444 
L 618.193417 345.53326 
L 630.936483 345.089356 
L 643.679548 344.712038 
L 656.422614 344.401305 
L 669.16568 344.101669 
L 681.908745 343.740997 
L 694.651811 343.330386 
L 707.394877 342.980811 
L 720.137943 342.66453 
L 732.881008 342.459224 
L 745.624074 342.248369 
L 758.36714 342.054161 
L 771.110205 341.871051 
L 783.853271 341.649099 
L 796.596337 341.427147 
L 809.339402 341.27178 
L 822.082468 341.121963 
L 834.825534 340.966596 
L 847.568599 340.833425 
L 860.311665 340.711351 
L 873.054731 340.628119 
L 885.797797 340.539338 
L 898.540862 340.500497 
L 911.283928 340.433911 
L 924.026994 340.372874 
L 936.770059 340.322935 
L 949.513125 340.295191 
" style="fill:none;stroke:#f15c80;stroke-linecap:square;"/>
   </g>
   <g id="line2d_23">
    <path clip-path="url(#p43e535f329)" d="M 76.613125 353.2239 
L 82.984658 353.2239 
L 89.356191 353.2239 
L 95.727724 353.2239 
L 102.099256 353.2239 
L 108.470789 353.2239 
L 114.842322 353.2239 
L 121.213855 353.2239 
L 127.585388 353.2239 
L 133.956921 353.2239 
L 146.699986 353.2239 
L 159.443052 353.2239 
L 172.186118 353.2239 
L 184.929183 353.2239 
L 197.672249 353.2239 
L 210.415315 353.2239 
L 223.15838 353.2239 
L 235.901446 353.2239 
L 248.644512 353.2239 
L 261.387578 353.2239 
L 274.130643 353.2239 
L 286.873709 353.2239 
L 299.616775 353.2239 
L 312.35984 353.2239 
L 325.102906 353.2239 
L 337.845972 353.2239 
L 350.589037 353.2239 
L 363.332103 353.2239 
L 376.075169 353.2239 
L 388.818234 353.190607 
L 401.5613 353.08518 
L 414.304366 352.957557 
L 427.047432 352.829935 
L 439.790497 352.652373 
L 452.533563 352.502556 
L 465.276629 352.291701 
L 478.019694 352.058652 
L 490.76276 351.869992 
L 503.505826 351.653589 
L 516.248891 351.3706 
L 528.991957 351.154197 
L 541.735023 350.86011 
L 554.478089 350.527182 
L 567.221154 350.299681 
L 579.96422 350.099924 
L 592.707286 349.79474 
L 605.450351 349.422971 
L 618.193417 349.189921 
L 630.936483 348.873639 
L 643.679548 348.496321 
L 656.422614 348.257722 
L 669.16568 348.096807 
L 681.908745 347.824916 
L 694.651811 347.636256 
L 707.394877 347.403207 
L 720.137943 347.208999 
L 732.881008 347.036986 
L 745.624074 346.820582 
L 758.36714 346.581984 
L 771.110205 346.448813 
L 783.853271 346.310093 
L 796.596337 346.132531 
L 809.339402 346.016006 
L 822.082468 345.899481 
L 834.825534 345.699724 
L 847.568599 345.588748 
L 860.311665 345.477772 
L 873.054731 345.377894 
L 885.797797 345.272467 
L 898.540862 345.189235 
L 911.283928 345.111551 
L 924.026994 345.028319 
L 936.770059 344.989478 
L 949.513125 344.989478 
" style="fill:none;stroke:#e4d354;stroke-linecap:square;"/>
   </g>
   <g id="line2d_24">
    <path clip-path="url(#p43e535f329)" d="M 76.613125 353.2239 
L 82.984658 353.2239 
L 89.356191 353.2239 
L 95.727724 353.2239 
L 102.099256 353.2239 
L 108.470789 353.2239 
L 114.842322 353.2239 
L 121.213855 353.2239 
L 127.585388 353.2239 
L 133.956921 353.2239 
L 146.699986 353.2239 
L 159.443052 353.212057 
L 172.186118 353.212057 
L 184.929183 353.212057 
L 197.672249 353.212057 
L 210.415315 353.212057 
L 223.15838 353.212057 
L 235.901446 353.212057 
L 248.644512 353.212057 
L 261.387578 353.212057 
L 274.130643 353.212057 
L 286.873709 353.212057 
L 299.616775 353.212057 
L 312.35984 353.212057 
L 325.102906 353.212057 
L 337.845972 353.206135 
L 350.589037 353.200214 
L 363.332103 353.194292 
L 376.075169 353.164684 
L 388.818234 353.04033 
L 401.5613 352.762015 
L 414.304366 352.394876 
L 427.047432 351.938913 
L 439.790497 351.607303 
L 452.533563 351.133575 
L 465.276629 350.499964 
L 478.019694 349.919647 
L 490.76276 349.280115 
L 503.505826 348.711641 
L 516.248891 348.143167 
L 528.991957 347.59838 
L 541.735023 346.935161 
L 554.478089 346.26602 
L 567.221154 345.590958 
L 579.96422 344.874444 
L 592.707286 344.246755 
L 605.450351 343.660516 
L 618.193417 343.127572 
L 630.936483 342.511726 
L 643.679548 341.961017 
L 656.422614 341.56427 
L 669.16568 341.197131 
L 681.908745 340.818148 
L 694.651811 340.456931 
L 707.394877 340.018732 
L 720.137943 339.704888 
L 732.881008 339.391043 
L 745.624074 339.059433 
L 758.36714 338.810726 
L 771.110205 338.627156 
L 783.853271 338.325155 
L 796.596337 338.19488 
L 809.339402 338.034996 
L 822.082468 337.86327 
L 834.825534 337.650092 
L 847.568599 337.472444 
L 860.311665 337.354013 
L 873.054731 337.217816 
L 885.797797 337.12307 
L 898.540862 337.063854 
L 911.283928 337.01056 
L 924.026994 336.986873 
L 936.770059 336.963187 
L 949.513125 336.963187 
" style="fill:none;stroke:#2b908f;stroke-linecap:square;"/>
   </g>
   <g id="line2d_25">
    <path clip-path="url(#p43e535f329)" d="M 76.613125 353.2239 
L 82.984658 353.2239 
L 89.356191 353.2239 
L 95.727724 353.2239 
L 102.099256 353.2239 
L 108.470789 353.2239 
L 114.842322 353.2239 
L 121.213855 353.2239 
L 127.585388 353.2239 
L 133.956921 353.2239 
L 146.699986 353.2239 
L 159.443052 353.2239 
L 172.186118 353.2239 
L 184.929183 353.2239 
L 197.672249 353.2239 
L 210.415315 353.2239 
L 223.15838 353.217978 
L 235.901446 353.212057 
L 248.644512 353.212057 
L 261.387578 353.212057 
L 274.130643 353.212057 
L 286.873709 353.212057 
L 299.616775 353.212057 
L 312.35984 353.212057 
L 325.102906 353.212057 
L 337.845972 353.212057 
L 350.589037 353.212057 
L 363.332103 353.194292 
L 376.075169 353.182449 
L 388.818234 353.117311 
L 401.5613 353.016644 
L 414.304366 352.838996 
L 427.047432 352.66727 
L 439.790497 352.525151 
L 452.533563 352.276444 
L 465.276629 351.950756 
L 478.019694 351.59546 
L 490.76276 351.287537 
L 503.505826 350.908554 
L 516.248891 350.553258 
L 528.991957 350.22757 
L 541.735023 349.783451 
L 554.478089 349.315644 
L 567.221154 348.830073 
L 579.96422 348.332659 
L 592.707286 347.811558 
L 605.450351 347.33783 
L 618.193417 346.852259 
L 630.936483 346.325236 
L 643.679548 345.887038 
L 656.422614 345.567271 
L 669.16568 345.194211 
L 681.908745 344.856679 
L 694.651811 344.459932 
L 707.394877 344.021734 
L 720.137943 343.654595 
L 732.881008 343.281534 
L 745.624074 342.961768 
L 758.36714 342.683452 
L 771.110205 342.470275 
L 783.853271 342.174195 
L 796.596337 341.866272 
L 809.339402 341.653094 
L 822.082468 341.374779 
L 834.825534 341.114228 
L 847.568599 340.906972 
L 860.311665 340.646422 
L 873.054731 340.480617 
L 885.797797 340.314812 
L 898.540862 340.214145 
L 911.283928 340.125321 
L 924.026994 340.066105 
L 936.770059 340.042419 
L 949.513125 340.030576 
" style="fill:none;stroke:#f45b5b;stroke-linecap:square;"/>
   </g>
   <g id="line2d_26">
    <path clip-path="url(#p43e535f329)" d="M 76.613125 353.2239 
L 82.984658 353.2239 
L 89.356191 353.2239 
L 95.727724 353.2239 
L 102.099256 353.2239 
L 108.470789 353.2239 
L 114.842322 353.2239 
L 121.213855 353.2239 
L 127.585388 353.2239 
L 133.956921 353.2239 
L 146.699986 353.2239 
L 159.443052 353.2239 
L 172.186118 353.2239 
L 184.929183 353.2239 
L 197.672249 353.2239 
L 210.415315 353.2239 
L 223.15838 353.2239 
L 235.901446 353.2239 
L 248.644512 353.2239 
L 261.387578 353.2239 
L 274.130643 353.2239 
L 286.873709 353.2239 
L 299.616775 353.2239 
L 312.35984 353.2239 
L 325.102906 353.2239 
L 337.845972 353.2239 
L 350.589037 353.2239 
L 363.332103 353.2239 
L 376.075169 353.2239 
L 388.818234 353.092058 
L 401.5613 352.960216 
L 414.304366 352.696532 
L 427.047432 352.432847 
L 439.790497 352.213111 
L 452.533563 351.993374 
L 465.276629 351.949426 
L 478.019694 351.466005 
L 490.76276 351.246268 
L 503.505826 351.070479 
L 516.248891 350.762847 
L 528.991957 350.674953 
L 541.735023 350.411268 
L 554.478089 349.8839 
L 567.221154 349.752058 
L 579.96422 349.576268 
L 592.707286 349.180742 
L 605.450351 348.873111 
L 618.193417 348.521532 
L 630.936483 348.389689 
L 643.679548 348.2139 
L 656.422614 348.082058 
L 669.16568 347.774426 
L 681.908745 347.422847 
L 694.651811 347.159163 
L 707.394877 346.983374 
L 720.137943 346.631795 
L 732.881008 346.499953 
L 745.624074 346.324163 
L 758.36714 346.148374 
L 771.110205 346.104426 
L 783.853271 345.972584 
L 796.596337 345.796795 
L 809.339402 345.7089 
L 822.082468 345.621005 
L 834.825534 345.533111 
L 847.568599 345.357321 
L 860.311665 345.313374 
L 873.054731 345.269426 
L 885.797797 345.137584 
L 898.540862 345.049689 
L 911.283928 345.049689 
L 924.026994 345.049689 
L 936.770059 345.049689 
L 949.513125 345.049689 
" style="fill:none;stroke:#91e8e1;stroke-linecap:square;"/>
   </g>
   <g id="line2d_27">
    <path clip-path="url(#p43e535f329)" d="M 76.613125 353.2239 
L 82.984658 353.2239 
L 89.356191 353.2239 
L 95.727724 353.2239 
L 102.099256 353.2239 
L 108.470789 353.2239 
L 114.842322 353.2239 
L 121.213855 353.2239 
L 127.585388 353.2239 
L 133.956921 353.2239 
L 146.699986 353.2239 
L 159.443052 353.2239 
L 172.186118 353.2239 
L 184.929183 353.2239 
L 197.672249 353.2239 
L 210.415315 353.2239 
L 223.15838 353.2239 
L 235.901446 353.2239 
L 248.644512 353.2239 
L 261.387578 353.2239 
L 274.130643 353.2239 
L 286.873709 353.2239 
L 299.616775 353.2239 
L 312.35984 353.207649 
L 325.102906 353.199524 
L 337.845972 353.191398 
L 350.589037 353.191398 
L 363.332103 353.183273 
L 376.075169 353.175147 
L 388.818234 353.150771 
L 401.5613 353.069516 
L 414.304366 352.980136 
L 427.047432 352.833878 
L 439.790497 352.606365 
L 452.533563 352.289472 
L 465.276629 352.053834 
L 478.019694 351.818195 
L 490.76276 351.566306 
L 503.505826 351.322542 
L 516.248891 351.030025 
L 528.991957 350.680631 
L 541.735023 350.371863 
L 554.478089 350.176852 
L 567.221154 349.900586 
L 579.96422 349.60807 
L 592.707286 349.364306 
L 605.450351 349.031162 
L 618.193417 348.811774 
L 630.936483 348.503007 
L 643.679548 348.177988 
L 656.422614 347.909848 
L 669.16568 347.657959 
L 681.908745 347.365442 
L 694.651811 347.137929 
L 707.394877 346.918542 
L 720.137943 346.804785 
L 732.881008 346.650402 
L 745.624074 346.479767 
L 758.36714 346.244129 
L 771.110205 346.032867 
L 783.853271 345.927236 
L 796.596337 345.789103 
L 809.339402 345.659095 
L 822.082468 345.577841 
L 834.825534 345.47221 
L 847.568599 345.455959 
L 860.311665 345.390955 
L 873.054731 345.366579 
L 885.797797 345.244697 
L 898.540862 345.163442 
L 911.283928 345.098438 
L 924.026994 345.033435 
L 936.770059 345.017184 
L 949.513125 345.000933 
" style="fill:none;stroke:#7cb5ec;stroke-linecap:square;"/>
   </g>
   <g id="line2d_28">
    <path clip-path="url(#p43e535f329)" d="M 76.613125 353.2239 
L 82.984658 353.2239 
L 89.356191 353.2239 
L 95.727724 353.2239 
L 102.099256 353.2239 
L 108.470789 353.2239 
L 114.842322 353.2239 
L 121.213855 353.2239 
L 127.585388 353.2239 
L 133.956921 353.2239 
L 146.699986 353.2239 
L 159.443052 353.2239 
L 172.186118 353.2239 
L 184.929183 353.2239 
L 197.672249 353.207649 
L 210.415315 353.207649 
L 223.15838 353.207649 
L 235.901446 353.207649 
L 248.644512 353.207649 
L 261.387578 353.207649 
L 274.130643 353.207649 
L 286.873709 353.207649 
L 299.616775 353.207649 
L 312.35984 353.207649 
L 325.102906 353.207649 
L 337.845972 353.191398 
L 350.589037 353.191398 
L 363.332103 353.191398 
L 376.075169 353.191398 
L 388.818234 353.183273 
L 401.5613 353.118269 
L 414.304366 353.077642 
L 427.047432 353.028889 
L 439.790497 352.931383 
L 452.533563 352.777 
L 465.276629 352.671369 
L 478.019694 352.533236 
L 490.76276 352.370727 
L 503.505826 352.216343 
L 516.248891 352.037583 
L 528.991957 351.801944 
L 541.735023 351.63131 
L 554.478089 351.476926 
L 567.221154 351.241287 
L 579.96422 350.997524 
L 592.707286 350.794387 
L 605.450351 350.509996 
L 618.193417 350.347487 
L 630.936483 350.05497 
L 643.679548 349.770579 
L 656.422614 349.543066 
L 669.16568 349.291177 
L 681.908745 348.99866 
L 694.651811 348.8199 
L 707.394877 348.616763 
L 720.137943 348.486756 
L 732.881008 348.324247 
L 745.624074 348.218616 
L 758.36714 348.088608 
L 771.110205 347.885472 
L 783.853271 347.804217 
L 796.596337 347.698586 
L 809.339402 347.511701 
L 822.082468 347.300439 
L 834.825534 347.137929 
L 847.568599 347.129804 
L 860.311665 347.097302 
L 873.054731 347.056675 
L 885.797797 346.926667 
L 898.540862 346.845413 
L 911.283928 346.79666 
L 924.026994 346.772284 
L 936.770059 346.739782 
L 949.513125 346.723531 
" style="fill:none;stroke:#434348;stroke-linecap:square;"/>
   </g>
   <g id="line2d_29">
    <path clip-path="url(#p43e535f329)" d="M 76.613125 353.2239 
L 82.984658 353.2239 
L 89.356191 353.2239 
L 95.727724 353.2239 
L 102.099256 353.2239 
L 108.470789 353.2239 
L 114.842322 353.2239 
L 121.213855 353.2239 
L 127.585388 353.2239 
L 133.956921 353.2239 
L 146.699986 353.2239 
L 159.443052 353.2239 
L 172.186118 353.2239 
L 184.929183 353.2239 
L 197.672249 353.2239 
L 210.415315 353.2239 
L 223.15838 353.2239 
L 235.901446 353.2239 
L 248.644512 353.2239 
L 261.387578 353.2239 
L 274.130643 353.2239 
L 286.873709 353.2239 
L 299.616775 353.2239 
L 312.35984 353.2239 
L 325.102906 353.213684 
L 337.845972 353.213684 
L 350.589037 353.203468 
L 363.332103 353.188143 
L 376.075169 353.167711 
L 388.818234 353.126847 
L 401.5613 353.019577 
L 414.304366 352.937848 
L 427.047432 352.835686 
L 439.790497 352.707984 
L 452.533563 352.55985 
L 465.276629 352.365743 
L 478.019694 352.197177 
L 490.76276 351.941773 
L 503.505826 351.686369 
L 516.248891 351.522911 
L 528.991957 351.262399 
L 541.735023 350.996779 
L 554.478089 350.700511 
L 567.221154 350.455323 
L 579.96422 350.251 
L 592.707286 349.939407 
L 605.450351 349.663571 
L 618.193417 349.403059 
L 630.936483 349.214061 
L 643.679548 348.989305 
L 656.422614 348.784982 
L 669.16568 348.539795 
L 681.908745 348.325256 
L 694.651811 348.120932 
L 707.394877 347.947258 
L 720.137943 347.748043 
L 732.881008 347.620341 
L 745.624074 347.421126 
L 758.36714 347.283208 
L 771.110205 347.196371 
L 783.853271 347.099317 
L 796.596337 346.997156 
L 809.339402 346.90521 
L 822.082468 346.787725 
L 834.825534 346.690671 
L 847.568599 346.624266 
L 860.311665 346.527213 
L 873.054731 346.511889 
L 885.797797 346.471024 
L 898.540862 346.379079 
L 911.283928 346.282025 
L 924.026994 346.241161 
L 936.770059 346.236053 
L 949.513125 346.236053 
" style="fill:none;stroke:#90ed7d;stroke-linecap:square;"/>
   </g>
   <g id="line2d_30">
    <path clip-path="url(#p43e535f329)" d="M 76.613125 353.2239 
L 82.984658 353.2239 
L 89.356191 353.2239 
L 95.727724 353.2239 
L 102.099256 353.2239 
L 108.470789 353.2239 
L 114.842322 353.2239 
L 121.213855 353.213684 
L 127.585388 353.213684 
L 133.956921 353.213684 
L 146.699986 353.213684 
L 159.443052 353.213684 
L 172.186118 353.213684 
L 184.929183 353.213684 
L 197.672249 353.213684 
L 210.415315 353.213684 
L 223.15838 353.213684 
L 235.901446 353.213684 
L 248.644512 353.213684 
L 261.387578 353.213684 
L 274.130643 353.203468 
L 286.873709 353.203468 
L 299.616775 353.203468 
L 312.35984 353.203468 
L 325.102906 353.203468 
L 337.845972 353.203468 
L 350.589037 353.193252 
L 363.332103 353.183035 
L 376.075169 353.152387 
L 388.818234 353.11663 
L 401.5613 353.019577 
L 414.304366 352.907199 
L 427.047432 352.820362 
L 439.790497 352.723309 
L 452.533563 352.656904 
L 465.276629 352.55985 
L 478.019694 352.478121 
L 490.76276 352.319771 
L 503.505826 352.166528 
L 516.248891 352.049043 
L 528.991957 351.829395 
L 541.735023 351.619964 
L 554.478089 351.384993 
L 567.221154 351.195994 
L 579.96422 351.006995 
L 592.707286 350.787348 
L 605.450351 350.598349 
L 618.193417 350.353162 
L 630.936483 350.174379 
L 643.679548 349.934299 
L 656.422614 349.735084 
L 669.16568 349.546086 
L 681.908745 349.336654 
L 694.651811 349.13744 
L 707.394877 348.984197 
L 720.137943 348.733902 
L 732.881008 348.575551 
L 745.624074 348.396769 
L 758.36714 348.20777 
L 771.110205 348.07496 
L 783.853271 347.947258 
L 796.596337 347.845096 
L 809.339402 347.707178 
L 822.082468 347.579476 
L 834.825534 347.431342 
L 847.568599 347.262776 
L 860.311665 347.114642 
L 873.054731 347.032912 
L 885.797797 346.981832 
L 898.540862 346.90521 
L 911.283928 346.813265 
L 924.026994 346.782617 
L 936.770059 346.777509 
L 949.513125 346.777509 
" style="fill:none;stroke:#f7a35c;stroke-linecap:square;"/>
   </g>
   <g id="line2d_31">
    <path clip-path="url(#p43e535f329)" d="M 76.613125 353.2239 
L 82.984658 353.2239 
L 89.356191 353.2239 
L 95.727724 353.2239 
L 102.099256 353.202275 
L 108.470789 353.202275 
L 114.842322 353.202275 
L 121.213855 353.202275 
L 127.585388 353.202275 
L 133.956921 353.202275 
L 146.699986 353.202275 
L 159.443052 353.202275 
L 172.186118 353.202275 
L 184.929183 353.202275 
L 197.672249 353.202275 
L 210.415315 353.202275 
L 223.15838 353.202275 
L 235.901446 353.202275 
L 248.644512 353.180649 
L 261.387578 353.180649 
L 274.130643 353.180649 
L 286.873709 353.180649 
L 299.616775 353.180649 
L 312.35984 353.180649 
L 325.102906 353.180649 
L 337.845972 353.180649 
L 350.589037 353.169837 
L 363.332103 353.159024 
L 376.075169 353.126586 
L 388.818234 353.104961 
L 401.5613 353.040085 
L 414.304366 352.877895 
L 427.047432 352.715705 
L 439.790497 352.53189 
L 452.533563 352.337262 
L 465.276629 352.08857 
L 478.019694 351.904755 
L 490.76276 351.731752 
L 503.505826 351.450623 
L 516.248891 351.104618 
L 528.991957 350.899177 
L 541.735023 350.682924 
L 554.478089 350.412607 
L 567.221154 350.120666 
L 579.96422 349.763848 
L 592.707286 349.536782 
L 605.450351 349.28809 
L 618.193417 349.08265 
L 630.936483 348.866397 
L 643.679548 348.671769 
L 656.422614 348.498766 
L 669.16568 348.293325 
L 681.908745 348.033821 
L 694.651811 347.871631 
L 707.394877 347.720254 
L 720.137943 347.471563 
L 732.881008 347.244497 
L 745.624074 347.071494 
L 758.36714 346.779552 
L 771.110205 346.552487 
L 783.853271 346.433547 
L 796.596337 346.336233 
L 809.339402 346.174043 
L 822.082468 346.130793 
L 834.825534 346.098355 
L 847.568599 346.065917 
L 860.311665 345.968603 
L 873.054731 345.892914 
L 885.797797 345.828038 
L 898.540862 345.763162 
L 911.283928 345.719911 
L 924.026994 345.698286 
L 936.770059 345.698286 
L 949.513125 345.698286 
" style="fill:none;stroke:#8085e9;stroke-linecap:square;"/>
   </g>
   <g id="line2d_32">
    <path clip-path="url(#p43e535f329)" d="M 76.613125 353.2239 
L 82.984658 353.2239 
L 89.356191 353.2239 
L 95.727724 353.2239 
L 102.099256 353.2239 
L 108.470789 353.2239 
L 114.842322 353.2239 
L 121.213855 353.2239 
L 127.585388 353.2239 
L 133.956921 353.2239 
L 146.699986 353.2239 
L 159.443052 353.2239 
L 172.186118 353.2239 
L 184.929183 353.2239 
L 197.672249 353.2239 
L 210.415315 353.2239 
L 223.15838 353.2239 
L 235.901446 353.2239 
L 248.644512 353.2239 
L 261.387578 353.2239 
L 274.130643 353.2239 
L 286.873709 353.2239 
L 299.616775 353.2239 
L 312.35984 353.2239 
L 325.102906 353.2239 
L 337.845972 353.2239 
L 350.589037 353.2239 
L 363.332103 353.2239 
L 376.075169 353.2239 
L 388.818234 353.2239 
L 401.5613 353.2239 
L 414.304366 350.514907 
L 427.047432 350.514907 
L 439.790497 350.514907 
L 452.533563 350.514907 
L 465.276629 350.514907 
L 478.019694 350.514907 
L 490.76276 350.514907 
L 503.505826 350.514907 
L 516.248891 350.514907 
L 528.991957 350.514907 
L 541.735023 350.514907 
L 554.478089 350.514907 
L 567.221154 350.514907 
L 579.96422 349.837659 
L 592.707286 349.160411 
L 605.450351 349.160411 
L 618.193417 349.160411 
L 630.936483 349.160411 
L 643.679548 349.160411 
L 656.422614 349.160411 
L 669.16568 349.160411 
L 681.908745 347.805915 
L 694.651811 347.805915 
L 707.394877 347.805915 
L 720.137943 347.128667 
L 732.881008 346.451419 
L 745.624074 346.451419 
L 758.36714 346.451419 
L 771.110205 346.451419 
L 783.853271 346.451419 
L 796.596337 346.451419 
L 809.339402 346.451419 
L 822.082468 346.451419 
L 834.825534 346.451419 
L 847.568599 346.451419 
L 860.311665 346.451419 
L 873.054731 346.451419 
L 885.797797 346.451419 
L 898.540862 346.451419 
L 911.283928 346.451419 
L 924.026994 346.451419 
L 936.770059 346.451419 
L 949.513125 346.451419 
" style="fill:none;stroke:#f15c80;stroke-linecap:square;"/>
   </g>
   <g id="line2d_33">
    <path clip-path="url(#p43e535f329)" d="M 76.613125 353.2239 
L 82.984658 353.2239 
L 89.356191 353.2239 
L 95.727724 353.2239 
L 102.099256 353.2239 
L 108.470789 353.2239 
L 114.842322 353.2239 
L 121.213855 353.2239 
L 127.585388 353.2239 
L 133.956921 353.2239 
L 146.699986 353.2239 
L 159.443052 353.2239 
L 172.186118 353.2239 
L 184.929183 353.2239 
L 197.672249 353.2239 
L 210.415315 353.2239 
L 223.15838 353.2239 
L 235.901446 353.2239 
L 248.644512 353.2239 
L 261.387578 353.2239 
L 274.130643 353.2239 
L 286.873709 353.2239 
L 299.616775 353.2239 
L 312.35984 353.2239 
L 325.102906 353.2239 
L 337.845972 353.2239 
L 350.589037 353.2239 
L 363.332103 353.2239 
L 376.075169 353.2239 
L 388.818234 353.2239 
L 401.5613 353.2239 
L 414.304366 353.2239 
L 427.047432 353.2239 
L 439.790497 352.601775 
L 452.533563 351.97965 
L 465.276629 351.97965 
L 478.019694 351.97965 
L 490.76276 351.97965 
L 503.505826 351.97965 
L 516.248891 351.97965 
L 528.991957 350.735401 
L 541.735023 350.735401 
L 554.478089 350.113276 
L 567.221154 349.491151 
L 579.96422 349.491151 
L 592.707286 349.491151 
L 605.450351 349.491151 
L 618.193417 349.491151 
L 630.936483 349.491151 
L 643.679548 349.491151 
L 656.422614 349.491151 
L 669.16568 349.491151 
L 681.908745 348.869026 
L 694.651811 348.246901 
L 707.394877 348.246901 
L 720.137943 348.246901 
L 732.881008 348.246901 
L 745.624074 347.624777 
L 758.36714 347.002652 
L 771.110205 347.002652 
L 783.853271 347.002652 
L 796.596337 347.002652 
L 809.339402 347.002652 
L 822.082468 347.002652 
L 834.825534 347.002652 
L 847.568599 347.002652 
L 860.311665 347.002652 
L 873.054731 346.380527 
L 885.797797 345.758402 
L 898.540862 345.758402 
L 911.283928 345.758402 
L 924.026994 345.758402 
L 936.770059 345.758402 
L 949.513125 345.758402 
" style="fill:none;stroke:#e4d354;stroke-linecap:square;"/>
   </g>
   <g id="line2d_34">
    <path clip-path="url(#p43e535f329)" d="M 32.968125 353.2239 
L 993.158125 353.2239 
" style="fill:none;stroke:#dedede;stroke-linecap:square;stroke-width:2;"/>
   </g>
   <g id="text_17">
    <!-- FastQC: Adapter Content -->
    <defs>
     <path d="M 9.8125 72.90625 
L 51.703125 72.90625 
L 51.703125 64.59375 
L 19.671875 64.59375 
L 19.671875 43.109375 
L 48.578125 43.109375 
L 48.578125 34.8125 
L 19.671875 34.8125 
L 19.671875 0 
L 9.8125 0 
z
" id="DejaVuSans-70"/>
     <path d="M 34.28125 27.484375 
Q 23.390625 27.484375 19.1875 25 
Q 14.984375 22.515625 14.984375 16.5 
Q 14.984375 11.71875 18.140625 8.90625 
Q 21.296875 6.109375 26.703125 6.109375 
Q 34.1875 6.109375 38.703125 11.40625 
Q 43.21875 16.703125 43.21875 25.484375 
L 43.21875 27.484375 
z
M 52.203125 31.203125 
L 52.203125 0 
L 43.21875 0 
L 43.21875 8.296875 
Q 40.140625 3.328125 35.546875 0.953125 
Q 30.953125 -1.421875 24.3125 -1.421875 
Q 15.921875 -1.421875 10.953125 3.296875 
Q 6 8.015625 6 15.921875 
Q 6 25.140625 12.171875 29.828125 
Q 18.359375 34.515625 30.609375 34.515625 
L 43.21875 34.515625 
L 43.21875 35.40625 
Q 43.21875 41.609375 39.140625 45 
Q 35.0625 48.390625 27.6875 48.390625 
Q 23 48.390625 18.546875 47.265625 
Q 14.109375 46.140625 10.015625 43.890625 
L 10.015625 52.203125 
Q 14.9375 54.109375 19.578125 55.046875 
Q 24.21875 56 28.609375 56 
Q 40.484375 56 46.34375 49.84375 
Q 52.203125 43.703125 52.203125 31.203125 
z
" id="DejaVuSans-97"/>
     <path d="M 39.40625 66.21875 
Q 28.65625 66.21875 22.328125 58.203125 
Q 16.015625 50.203125 16.015625 36.375 
Q 16.015625 22.609375 22.328125 14.59375 
Q 28.65625 6.59375 39.40625 6.59375 
Q 50.140625 6.59375 56.421875 14.59375 
Q 62.703125 22.609375 62.703125 36.375 
Q 62.703125 50.203125 56.421875 58.203125 
Q 50.140625 66.21875 39.40625 66.21875 
z
M 53.21875 1.3125 
L 66.21875 -12.890625 
L 54.296875 -12.890625 
L 43.5 -1.21875 
Q 41.890625 -1.3125 41.03125 -1.359375 
Q 40.1875 -1.421875 39.40625 -1.421875 
Q 24.03125 -1.421875 14.8125 8.859375 
Q 5.609375 19.140625 5.609375 36.375 
Q 5.609375 53.65625 14.8125 63.9375 
Q 24.03125 74.21875 39.40625 74.21875 
Q 54.734375 74.21875 63.90625 63.9375 
Q 73.09375 53.65625 73.09375 36.375 
Q 73.09375 23.6875 67.984375 14.640625 
Q 62.890625 5.609375 53.21875 1.3125 
z
" id="DejaVuSans-81"/>
     <path d="M 64.40625 67.28125 
L 64.40625 56.890625 
Q 59.421875 61.53125 53.78125 63.8125 
Q 48.140625 66.109375 41.796875 66.109375 
Q 29.296875 66.109375 22.65625 58.46875 
Q 16.015625 50.828125 16.015625 36.375 
Q 16.015625 21.96875 22.65625 14.328125 
Q 29.296875 6.6875 41.796875 6.6875 
Q 48.140625 6.6875 53.78125 8.984375 
Q 59.421875 11.28125 64.40625 15.921875 
L 64.40625 5.609375 
Q 59.234375 2.09375 53.4375 0.328125 
Q 47.65625 -1.421875 41.21875 -1.421875 
Q 24.65625 -1.421875 15.125 8.703125 
Q 5.609375 18.84375 5.609375 36.375 
Q 5.609375 53.953125 15.125 64.078125 
Q 24.65625 74.21875 41.21875 74.21875 
Q 47.75 74.21875 53.53125 72.484375 
Q 59.328125 70.75 64.40625 67.28125 
z
" id="DejaVuSans-67"/>
     <path d="M 11.71875 12.40625 
L 22.015625 12.40625 
L 22.015625 0 
L 11.71875 0 
z
M 11.71875 51.703125 
L 22.015625 51.703125 
L 22.015625 39.3125 
L 11.71875 39.3125 
z
" id="DejaVuSans-58"/>
     <path d="M 34.1875 63.1875 
L 20.796875 26.90625 
L 47.609375 26.90625 
z
M 28.609375 72.90625 
L 39.796875 72.90625 
L 67.578125 0 
L 57.328125 0 
L 50.6875 18.703125 
L 17.828125 18.703125 
L 11.1875 0 
L 0.78125 0 
z
" id="DejaVuSans-65"/>
     <path d="M 45.40625 46.390625 
L 45.40625 75.984375 
L 54.390625 75.984375 
L 54.390625 0 
L 45.40625 0 
L 45.40625 8.203125 
Q 42.578125 3.328125 38.25 0.953125 
Q 33.9375 -1.421875 27.875 -1.421875 
Q 17.96875 -1.421875 11.734375 6.484375 
Q 5.515625 14.40625 5.515625 27.296875 
Q 5.515625 40.1875 11.734375 48.09375 
Q 17.96875 56 27.875 56 
Q 33.9375 56 38.25 53.625 
Q 42.578125 51.265625 45.40625 46.390625 
z
M 14.796875 27.296875 
Q 14.796875 17.390625 18.875 11.75 
Q 22.953125 6.109375 30.078125 6.109375 
Q 37.203125 6.109375 41.296875 11.75 
Q 45.40625 17.390625 45.40625 27.296875 
Q 45.40625 37.203125 41.296875 42.84375 
Q 37.203125 48.484375 30.078125 48.484375 
Q 22.953125 48.484375 18.875 42.84375 
Q 14.796875 37.203125 14.796875 27.296875 
z
" id="DejaVuSans-100"/>
     <path d="M 41.109375 46.296875 
Q 39.59375 47.171875 37.8125 47.578125 
Q 36.03125 48 33.890625 48 
Q 26.265625 48 22.1875 43.046875 
Q 18.109375 38.09375 18.109375 28.8125 
L 18.109375 0 
L 9.078125 0 
L 9.078125 54.6875 
L 18.109375 54.6875 
L 18.109375 46.1875 
Q 20.953125 51.171875 25.484375 53.578125 
Q 30.03125 56 36.53125 56 
Q 37.453125 56 38.578125 55.875 
Q 39.703125 55.765625 41.0625 55.515625 
z
" id="DejaVuSans-114"/>
    </defs>
    <g transform="translate(412.908125 19.3575)scale(0.16 -0.16)">
     <use xlink:href="#DejaVuSans-70"/>
     <use x="57.378906" xlink:href="#DejaVuSans-97"/>
     <use x="118.658203" xlink:href="#DejaVuSans-115"/>
     <use x="170.757812" xlink:href="#DejaVuSans-116"/>
     <use x="209.966797" xlink:href="#DejaVuSans-81"/>
     <use x="288.677734" xlink:href="#DejaVuSans-67"/>
     <use x="358.501953" xlink:href="#DejaVuSans-58"/>
     <use x="392.193359" xlink:href="#DejaVuSans-32"/>
     <use x="423.980469" xlink:href="#DejaVuSans-65"/>
     <use x="492.373047" xlink:href="#DejaVuSans-100"/>
     <use x="555.849609" xlink:href="#DejaVuSans-97"/>
     <use x="617.128906" xlink:href="#DejaVuSans-112"/>
     <use x="680.605469" xlink:href="#DejaVuSans-116"/>
     <use x="719.814453" xlink:href="#DejaVuSans-101"/>
     <use x="781.337891" xlink:href="#DejaVuSans-114"/>
     <use x="822.451172" xlink:href="#DejaVuSans-32"/>
     <use x="854.238281" xlink:href="#DejaVuSans-67"/>
     <use x="924.0625" xlink:href="#DejaVuSans-111"/>
     <use x="985.244141" xlink:href="#DejaVuSans-110"/>
     <use x="1048.623047" xlink:href="#DejaVuSans-116"/>
     <use x="1087.832031" xlink:href="#DejaVuSans-101"/>
     <use x="1149.355469" xlink:href="#DejaVuSans-110"/>
     <use x="1212.734375" xlink:href="#DejaVuSans-116"/>
    </g>
   </g>
  </g>
 </g>
 <defs>
  <clipPath id="p43e535f329">
   <rect height="317.968" width="960.19" x="32.968125" y="35.2559"/>
  </clipPath>
 </defs>
</svg>
