<?xml version="1.0" encoding="utf-8" standalone="no"?>
<!DOCTYPE svg PUBLIC "-//W3C//DTD SVG 1.1//EN"
  "http://www.w3.org/Graphics/SVG/1.1/DTD/svg11.dtd">
<!-- Created with matplotlib (https://matplotlib.org/) -->
<svg height="388.844525pt" version="1.1" viewBox="0 0 1000.300625 388.844525" width="1000.300625pt" xmlns="http://www.w3.org/2000/svg" xmlns:xlink="http://www.w3.org/1999/xlink">
 <defs>
  <style type="text/css">
*{stroke-linecap:butt;stroke-linejoin:round;}
  </style>
 </defs>
 <g id="figure_1">
  <g id="axes_1">
   <g id="patch_1">
    <path d="M 45.690625 353.2239 
L 993.100625 353.2239 
L 993.100625 35.2559 
L 45.690625 35.2559 
z
" style="fill:#ffffff;"/>
   </g>
   <g id="patch_2">
    <path clip-path="url(#p6704c12754)" d="M 737.411094 353.2239 
L 2516.120873 353.2239 
L 2516.120873 35.2559 
L 737.411094 35.2559 
z
" style="fill:#c3e6c3;"/>
   </g>
   <g id="patch_3">
    <path clip-path="url(#p6704c12754)" d="M 539.776675 353.2239 
L 737.411094 353.2239 
L 737.411094 35.2559 
L 539.776675 35.2559 
z
" style="fill:#e6dcc3;"/>
   </g>
   <g id="patch_4">
    <path clip-path="url(#p6704c12754)" d="M 45.690625 353.2239 
L 539.776675 353.2239 
L 539.776675 35.2559 
L 45.690625 35.2559 
z
" style="fill:#e6c3c3;"/>
   </g>
   <g id="matplotlib.axis_1">
    <g id="xtick_1">
     <g id="text_1">
      <!-- 0 -->
      <defs>
       <path d="M 31.78125 66.40625 
Q 24.171875 66.40625 20.328125 58.90625 
Q 16.5 51.421875 16.5 36.375 
Q 16.5 21.390625 20.328125 13.890625 
Q 24.171875 6.390625 31.78125 6.390625 
Q 39.453125 6.390625 43.28125 13.890625 
Q 47.125 21.390625 47.125 36.375 
Q 47.125 51.421875 43.28125 58.90625 
Q 39.453125 66.40625 31.78125 66.40625 
z
M 31.78125 74.21875 
Q 44.046875 74.21875 50.515625 64.515625 
Q 56.984375 54.828125 56.984375 36.375 
Q 56.984375 17.96875 50.515625 8.265625 
Q 44.046875 -1.421875 31.78125 -1.421875 
Q 19.53125 -1.421875 13.0625 8.265625 
Q 6.59375 17.96875 6.59375 36.375 
Q 6.59375 54.828125 13.0625 64.515625 
Q 19.53125 74.21875 31.78125 74.21875 
z
" id="DejaVuSans-48"/>
      </defs>
      <g transform="translate(43.145625 366.30265)scale(0.08 -0.08)">
       <use xlink:href="#DejaVuSans-48"/>
      </g>
     </g>
    </g>
    <g id="xtick_2">
     <g id="text_2">
      <!-- 5 -->
      <defs>
       <path d="M 10.796875 72.90625 
L 49.515625 72.90625 
L 49.515625 64.59375 
L 19.828125 64.59375 
L 19.828125 46.734375 
Q 21.96875 47.46875 24.109375 47.828125 
Q 26.265625 48.1875 28.421875 48.1875 
Q 40.625 48.1875 47.75 41.5 
Q 54.890625 34.8125 54.890625 23.390625 
Q 54.890625 11.625 47.5625 5.09375 
Q 40.234375 -1.421875 26.90625 -1.421875 
Q 22.3125 -1.421875 17.546875 -0.640625 
Q 12.796875 0.140625 7.71875 1.703125 
L 7.71875 11.625 
Q 12.109375 9.234375 16.796875 8.0625 
Q 21.484375 6.890625 26.703125 6.890625 
Q 35.15625 6.890625 40.078125 11.328125 
Q 45.015625 15.765625 45.015625 23.390625 
Q 45.015625 31 40.078125 35.4375 
Q 35.15625 39.890625 26.703125 39.890625 
Q 22.75 39.890625 18.8125 39.015625 
Q 14.890625 38.140625 10.796875 36.28125 
z
" id="DejaVuSans-53"/>
      </defs>
      <g transform="translate(166.667137 366.30265)scale(0.08 -0.08)">
       <use xlink:href="#DejaVuSans-53"/>
      </g>
     </g>
    </g>
    <g id="xtick_3">
     <g id="text_3">
      <!-- 10 -->
      <defs>
       <path d="M 12.40625 8.296875 
L 28.515625 8.296875 
L 28.515625 63.921875 
L 10.984375 60.40625 
L 10.984375 69.390625 
L 28.421875 72.90625 
L 38.28125 72.90625 
L 38.28125 8.296875 
L 54.390625 8.296875 
L 54.390625 0 
L 12.40625 0 
z
" id="DejaVuSans-49"/>
      </defs>
      <g transform="translate(287.64365 366.30265)scale(0.08 -0.08)">
       <use xlink:href="#DejaVuSans-49"/>
       <use x="63.623047" xlink:href="#DejaVuSans-48"/>
      </g>
     </g>
    </g>
    <g id="xtick_4">
     <g id="text_4">
      <!-- 15 -->
      <g transform="translate(411.165162 366.30265)scale(0.08 -0.08)">
       <use xlink:href="#DejaVuSans-49"/>
       <use x="63.623047" xlink:href="#DejaVuSans-53"/>
      </g>
     </g>
    </g>
    <g id="xtick_5">
     <g id="text_5">
      <!-- 20 -->
      <defs>
       <path d="M 19.1875 8.296875 
L 53.609375 8.296875 
L 53.609375 0 
L 7.328125 0 
L 7.328125 8.296875 
Q 12.9375 14.109375 22.625 23.890625 
Q 32.328125 33.6875 34.8125 36.53125 
Q 39.546875 41.84375 41.421875 45.53125 
Q 43.3125 49.21875 43.3125 52.78125 
Q 43.3125 58.59375 39.234375 62.25 
Q 35.15625 65.921875 28.609375 65.921875 
Q 23.96875 65.921875 18.8125 64.3125 
Q 13.671875 62.703125 7.8125 59.421875 
L 7.8125 69.390625 
Q 13.765625 71.78125 18.9375 73 
Q 24.125 74.21875 28.421875 74.21875 
Q 39.75 74.21875 46.484375 68.546875 
Q 53.21875 62.890625 53.21875 53.421875 
Q 53.21875 48.921875 51.53125 44.890625 
Q 49.859375 40.875 45.40625 35.40625 
Q 44.1875 33.984375 37.640625 27.21875 
Q 31.109375 20.453125 19.1875 8.296875 
z
" id="DejaVuSans-50"/>
      </defs>
      <g transform="translate(534.686675 366.30265)scale(0.08 -0.08)">
       <use xlink:href="#DejaVuSans-50"/>
       <use x="63.623047" xlink:href="#DejaVuSans-48"/>
      </g>
     </g>
    </g>
    <g id="xtick_6">
     <g id="text_6">
      <!-- 25 -->
      <g transform="translate(658.208187 366.30265)scale(0.08 -0.08)">
       <use xlink:href="#DejaVuSans-50"/>
       <use x="63.623047" xlink:href="#DejaVuSans-53"/>
      </g>
     </g>
    </g>
    <g id="xtick_7">
     <g id="text_7">
      <!-- 30 -->
      <defs>
       <path d="M 40.578125 39.3125 
Q 47.65625 37.796875 51.625 33 
Q 55.609375 28.21875 55.609375 21.1875 
Q 55.609375 10.40625 48.1875 4.484375 
Q 40.765625 -1.421875 27.09375 -1.421875 
Q 22.515625 -1.421875 17.65625 -0.515625 
Q 12.796875 0.390625 7.625 2.203125 
L 7.625 11.71875 
Q 11.71875 9.328125 16.59375 8.109375 
Q 21.484375 6.890625 26.8125 6.890625 
Q 36.078125 6.890625 40.9375 10.546875 
Q 45.796875 14.203125 45.796875 21.1875 
Q 45.796875 27.640625 41.28125 31.265625 
Q 36.765625 34.90625 28.71875 34.90625 
L 20.21875 34.90625 
L 20.21875 43.015625 
L 29.109375 43.015625 
Q 36.375 43.015625 40.234375 45.921875 
Q 44.09375 48.828125 44.09375 54.296875 
Q 44.09375 59.90625 40.109375 62.90625 
Q 36.140625 65.921875 28.71875 65.921875 
Q 24.65625 65.921875 20.015625 65.03125 
Q 15.375 64.15625 9.8125 62.3125 
L 9.8125 71.09375 
Q 15.4375 72.65625 20.34375 73.4375 
Q 25.25 74.21875 29.59375 74.21875 
Q 40.828125 74.21875 47.359375 69.109375 
Q 53.90625 64.015625 53.90625 55.328125 
Q 53.90625 49.265625 50.4375 45.09375 
Q 46.96875 40.921875 40.578125 39.3125 
z
" id="DejaVuSans-51"/>
      </defs>
      <g transform="translate(781.729699 366.30265)scale(0.08 -0.08)">
       <use xlink:href="#DejaVuSans-51"/>
       <use x="63.623047" xlink:href="#DejaVuSans-48"/>
      </g>
     </g>
    </g>
    <g id="xtick_8">
     <g id="text_8">
      <!-- 35 -->
      <g transform="translate(905.251212 366.30265)scale(0.08 -0.08)">
       <use xlink:href="#DejaVuSans-51"/>
       <use x="63.623047" xlink:href="#DejaVuSans-53"/>
      </g>
     </g>
    </g>
    <g id="text_9">
     <!-- Mean Sequence Quality (Phred Score) -->
     <defs>
      <path d="M 9.8125 72.90625 
L 24.515625 72.90625 
L 43.109375 23.296875 
L 61.8125 72.90625 
L 76.515625 72.90625 
L 76.515625 0 
L 66.890625 0 
L 66.890625 64.015625 
L 48.09375 14.015625 
L 38.1875 14.015625 
L 19.390625 64.015625 
L 19.390625 0 
L 9.8125 0 
z
" id="DejaVuSans-77"/>
      <path d="M 56.203125 29.59375 
L 56.203125 25.203125 
L 14.890625 25.203125 
Q 15.484375 15.921875 20.484375 11.0625 
Q 25.484375 6.203125 34.421875 6.203125 
Q 39.59375 6.203125 44.453125 7.46875 
Q 49.3125 8.734375 54.109375 11.28125 
L 54.109375 2.78125 
Q 49.265625 0.734375 44.1875 -0.34375 
Q 39.109375 -1.421875 33.890625 -1.421875 
Q 20.796875 -1.421875 13.15625 6.1875 
Q 5.515625 13.8125 5.515625 26.8125 
Q 5.515625 40.234375 12.765625 48.109375 
Q 20.015625 56 32.328125 56 
Q 43.359375 56 49.78125 48.890625 
Q 56.203125 41.796875 56.203125 29.59375 
z
M 47.21875 32.234375 
Q 47.125 39.59375 43.09375 43.984375 
Q 39.0625 48.390625 32.421875 48.390625 
Q 24.90625 48.390625 20.390625 44.140625 
Q 15.875 39.890625 15.1875 32.171875 
z
" id="DejaVuSans-101"/>
      <path d="M 34.28125 27.484375 
Q 23.390625 27.484375 19.1875 25 
Q 14.984375 22.515625 14.984375 16.5 
Q 14.984375 11.71875 18.140625 8.90625 
Q 21.296875 6.109375 26.703125 6.109375 
Q 34.1875 6.109375 38.703125 11.40625 
Q 43.21875 16.703125 43.21875 25.484375 
L 43.21875 27.484375 
z
M 52.203125 31.203125 
L 52.203125 0 
L 43.21875 0 
L 43.21875 8.296875 
Q 40.140625 3.328125 35.546875 0.953125 
Q 30.953125 -1.421875 24.3125 -1.421875 
Q 15.921875 -1.421875 10.953125 3.296875 
Q 6 8.015625 6 15.921875 
Q 6 25.140625 12.171875 29.828125 
Q 18.359375 34.515625 30.609375 34.515625 
L 43.21875 34.515625 
L 43.21875 35.40625 
Q 43.21875 41.609375 39.140625 45 
Q 35.0625 48.390625 27.6875 48.390625 
Q 23 48.390625 18.546875 47.265625 
Q 14.109375 46.140625 10.015625 43.890625 
L 10.015625 52.203125 
Q 14.9375 54.109375 19.578125 55.046875 
Q 24.21875 56 28.609375 56 
Q 40.484375 56 46.34375 49.84375 
Q 52.203125 43.703125 52.203125 31.203125 
z
" id="DejaVuSans-97"/>
      <path d="M 54.890625 33.015625 
L 54.890625 0 
L 45.90625 0 
L 45.90625 32.71875 
Q 45.90625 40.484375 42.875 44.328125 
Q 39.84375 48.1875 33.796875 48.1875 
Q 26.515625 48.1875 22.3125 43.546875 
Q 18.109375 38.921875 18.109375 30.90625 
L 18.109375 0 
L 9.078125 0 
L 9.078125 54.6875 
L 18.109375 54.6875 
L 18.109375 46.1875 
Q 21.34375 51.125 25.703125 53.5625 
Q 30.078125 56 35.796875 56 
Q 45.21875 56 50.046875 50.171875 
Q 54.890625 44.34375 54.890625 33.015625 
z
" id="DejaVuSans-110"/>
      <path id="DejaVuSans-32"/>
      <path d="M 53.515625 70.515625 
L 53.515625 60.890625 
Q 47.90625 63.578125 42.921875 64.890625 
Q 37.9375 66.21875 33.296875 66.21875 
Q 25.25 66.21875 20.875 63.09375 
Q 16.5 59.96875 16.5 54.203125 
Q 16.5 49.359375 19.40625 46.890625 
Q 22.3125 44.4375 30.421875 42.921875 
L 36.375 41.703125 
Q 47.40625 39.59375 52.65625 34.296875 
Q 57.90625 29 57.90625 20.125 
Q 57.90625 9.515625 50.796875 4.046875 
Q 43.703125 -1.421875 29.984375 -1.421875 
Q 24.8125 -1.421875 18.96875 -0.25 
Q 13.140625 0.921875 6.890625 3.21875 
L 6.890625 13.375 
Q 12.890625 10.015625 18.65625 8.296875 
Q 24.421875 6.59375 29.984375 6.59375 
Q 38.421875 6.59375 43.015625 9.90625 
Q 47.609375 13.234375 47.609375 19.390625 
Q 47.609375 24.75 44.3125 27.78125 
Q 41.015625 30.8125 33.5 32.328125 
L 27.484375 33.5 
Q 16.453125 35.6875 11.515625 40.375 
Q 6.59375 45.0625 6.59375 53.421875 
Q 6.59375 63.09375 13.40625 68.65625 
Q 20.21875 74.21875 32.171875 74.21875 
Q 37.3125 74.21875 42.625 73.28125 
Q 47.953125 72.359375 53.515625 70.515625 
z
" id="DejaVuSans-83"/>
      <path d="M 14.796875 27.296875 
Q 14.796875 17.390625 18.875 11.75 
Q 22.953125 6.109375 30.078125 6.109375 
Q 37.203125 6.109375 41.296875 11.75 
Q 45.40625 17.390625 45.40625 27.296875 
Q 45.40625 37.203125 41.296875 42.84375 
Q 37.203125 48.484375 30.078125 48.484375 
Q 22.953125 48.484375 18.875 42.84375 
Q 14.796875 37.203125 14.796875 27.296875 
z
M 45.40625 8.203125 
Q 42.578125 3.328125 38.25 0.953125 
Q 33.9375 -1.421875 27.875 -1.421875 
Q 17.96875 -1.421875 11.734375 6.484375 
Q 5.515625 14.40625 5.515625 27.296875 
Q 5.515625 40.1875 11.734375 48.09375 
Q 17.96875 56 27.875 56 
Q 33.9375 56 38.25 53.625 
Q 42.578125 51.265625 45.40625 46.390625 
L 45.40625 54.6875 
L 54.390625 54.6875 
L 54.390625 -20.796875 
L 45.40625 -20.796875 
z
" id="DejaVuSans-113"/>
      <path d="M 8.5 21.578125 
L 8.5 54.6875 
L 17.484375 54.6875 
L 17.484375 21.921875 
Q 17.484375 14.15625 20.5 10.265625 
Q 23.53125 6.390625 29.59375 6.390625 
Q 36.859375 6.390625 41.078125 11.03125 
Q 45.3125 15.671875 45.3125 23.6875 
L 45.3125 54.6875 
L 54.296875 54.6875 
L 54.296875 0 
L 45.3125 0 
L 45.3125 8.40625 
Q 42.046875 3.421875 37.71875 1 
Q 33.40625 -1.421875 27.6875 -1.421875 
Q 18.265625 -1.421875 13.375 4.4375 
Q 8.5 10.296875 8.5 21.578125 
z
M 31.109375 56 
z
" id="DejaVuSans-117"/>
      <path d="M 48.78125 52.59375 
L 48.78125 44.1875 
Q 44.96875 46.296875 41.140625 47.34375 
Q 37.3125 48.390625 33.40625 48.390625 
Q 24.65625 48.390625 19.8125 42.84375 
Q 14.984375 37.3125 14.984375 27.296875 
Q 14.984375 17.28125 19.8125 11.734375 
Q 24.65625 6.203125 33.40625 6.203125 
Q 37.3125 6.203125 41.140625 7.25 
Q 44.96875 8.296875 48.78125 10.40625 
L 48.78125 2.09375 
Q 45.015625 0.34375 40.984375 -0.53125 
Q 36.96875 -1.421875 32.421875 -1.421875 
Q 20.0625 -1.421875 12.78125 6.34375 
Q 5.515625 14.109375 5.515625 27.296875 
Q 5.515625 40.671875 12.859375 48.328125 
Q 20.21875 56 33.015625 56 
Q 37.15625 56 41.109375 55.140625 
Q 45.0625 54.296875 48.78125 52.59375 
z
" id="DejaVuSans-99"/>
      <path d="M 39.40625 66.21875 
Q 28.65625 66.21875 22.328125 58.203125 
Q 16.015625 50.203125 16.015625 36.375 
Q 16.015625 22.609375 22.328125 14.59375 
Q 28.65625 6.59375 39.40625 6.59375 
Q 50.140625 6.59375 56.421875 14.59375 
Q 62.703125 22.609375 62.703125 36.375 
Q 62.703125 50.203125 56.421875 58.203125 
Q 50.140625 66.21875 39.40625 66.21875 
z
M 53.21875 1.3125 
L 66.21875 -12.890625 
L 54.296875 -12.890625 
L 43.5 -1.21875 
Q 41.890625 -1.3125 41.03125 -1.359375 
Q 40.1875 -1.421875 39.40625 -1.421875 
Q 24.03125 -1.421875 14.8125 8.859375 
Q 5.609375 19.140625 5.609375 36.375 
Q 5.609375 53.65625 14.8125 63.9375 
Q 24.03125 74.21875 39.40625 74.21875 
Q 54.734375 74.21875 63.90625 63.9375 
Q 73.09375 53.65625 73.09375 36.375 
Q 73.09375 23.6875 67.984375 14.640625 
Q 62.890625 5.609375 53.21875 1.3125 
z
" id="DejaVuSans-81"/>
      <path d="M 9.421875 75.984375 
L 18.40625 75.984375 
L 18.40625 0 
L 9.421875 0 
z
" id="DejaVuSans-108"/>
      <path d="M 9.421875 54.6875 
L 18.40625 54.6875 
L 18.40625 0 
L 9.421875 0 
z
M 9.421875 75.984375 
L 18.40625 75.984375 
L 18.40625 64.59375 
L 9.421875 64.59375 
z
" id="DejaVuSans-105"/>
      <path d="M 18.3125 70.21875 
L 18.3125 54.6875 
L 36.8125 54.6875 
L 36.8125 47.703125 
L 18.3125 47.703125 
L 18.3125 18.015625 
Q 18.3125 11.328125 20.140625 9.421875 
Q 21.96875 7.515625 27.59375 7.515625 
L 36.8125 7.515625 
L 36.8125 0 
L 27.59375 0 
Q 17.1875 0 13.234375 3.875 
Q 9.28125 7.765625 9.28125 18.015625 
L 9.28125 47.703125 
L 2.6875 47.703125 
L 2.6875 54.6875 
L 9.28125 54.6875 
L 9.28125 70.21875 
z
" id="DejaVuSans-116"/>
      <path d="M 32.171875 -5.078125 
Q 28.375 -14.84375 24.75 -17.8125 
Q 21.140625 -20.796875 15.09375 -20.796875 
L 7.90625 -20.796875 
L 7.90625 -13.28125 
L 13.1875 -13.28125 
Q 16.890625 -13.28125 18.9375 -11.515625 
Q 21 -9.765625 23.484375 -3.21875 
L 25.09375 0.875 
L 2.984375 54.6875 
L 12.5 54.6875 
L 29.59375 11.921875 
L 46.6875 54.6875 
L 56.203125 54.6875 
z
" id="DejaVuSans-121"/>
      <path d="M 31 75.875 
Q 24.46875 64.65625 21.28125 53.65625 
Q 18.109375 42.671875 18.109375 31.390625 
Q 18.109375 20.125 21.3125 9.0625 
Q 24.515625 -2 31 -13.1875 
L 23.1875 -13.1875 
Q 15.875 -1.703125 12.234375 9.375 
Q 8.59375 20.453125 8.59375 31.390625 
Q 8.59375 42.28125 12.203125 53.3125 
Q 15.828125 64.359375 23.1875 75.875 
z
" id="DejaVuSans-40"/>
      <path d="M 19.671875 64.796875 
L 19.671875 37.40625 
L 32.078125 37.40625 
Q 38.96875 37.40625 42.71875 40.96875 
Q 46.484375 44.53125 46.484375 51.125 
Q 46.484375 57.671875 42.71875 61.234375 
Q 38.96875 64.796875 32.078125 64.796875 
z
M 9.8125 72.90625 
L 32.078125 72.90625 
Q 44.34375 72.90625 50.609375 67.359375 
Q 56.890625 61.8125 56.890625 51.125 
Q 56.890625 40.328125 50.609375 34.8125 
Q 44.34375 29.296875 32.078125 29.296875 
L 19.671875 29.296875 
L 19.671875 0 
L 9.8125 0 
z
" id="DejaVuSans-80"/>
      <path d="M 54.890625 33.015625 
L 54.890625 0 
L 45.90625 0 
L 45.90625 32.71875 
Q 45.90625 40.484375 42.875 44.328125 
Q 39.84375 48.1875 33.796875 48.1875 
Q 26.515625 48.1875 22.3125 43.546875 
Q 18.109375 38.921875 18.109375 30.90625 
L 18.109375 0 
L 9.078125 0 
L 9.078125 75.984375 
L 18.109375 75.984375 
L 18.109375 46.1875 
Q 21.34375 51.125 25.703125 53.5625 
Q 30.078125 56 35.796875 56 
Q 45.21875 56 50.046875 50.171875 
Q 54.890625 44.34375 54.890625 33.015625 
z
" id="DejaVuSans-104"/>
      <path d="M 41.109375 46.296875 
Q 39.59375 47.171875 37.8125 47.578125 
Q 36.03125 48 33.890625 48 
Q 26.265625 48 22.1875 43.046875 
Q 18.109375 38.09375 18.109375 28.8125 
L 18.109375 0 
L 9.078125 0 
L 9.078125 54.6875 
L 18.109375 54.6875 
L 18.109375 46.1875 
Q 20.953125 51.171875 25.484375 53.578125 
Q 30.03125 56 36.53125 56 
Q 37.453125 56 38.578125 55.875 
Q 39.703125 55.765625 41.0625 55.515625 
z
" id="DejaVuSans-114"/>
      <path d="M 45.40625 46.390625 
L 45.40625 75.984375 
L 54.390625 75.984375 
L 54.390625 0 
L 45.40625 0 
L 45.40625 8.203125 
Q 42.578125 3.328125 38.25 0.953125 
Q 33.9375 -1.421875 27.875 -1.421875 
Q 17.96875 -1.421875 11.734375 6.484375 
Q 5.515625 14.40625 5.515625 27.296875 
Q 5.515625 40.1875 11.734375 48.09375 
Q 17.96875 56 27.875 56 
Q 33.9375 56 38.25 53.625 
Q 42.578125 51.265625 45.40625 46.390625 
z
M 14.796875 27.296875 
Q 14.796875 17.390625 18.875 11.75 
Q 22.953125 6.109375 30.078125 6.109375 
Q 37.203125 6.109375 41.296875 11.75 
Q 45.40625 17.390625 45.40625 27.296875 
Q 45.40625 37.203125 41.296875 42.84375 
Q 37.203125 48.484375 30.078125 48.484375 
Q 22.953125 48.484375 18.875 42.84375 
Q 14.796875 37.203125 14.796875 27.296875 
z
" id="DejaVuSans-100"/>
      <path d="M 30.609375 48.390625 
Q 23.390625 48.390625 19.1875 42.75 
Q 14.984375 37.109375 14.984375 27.296875 
Q 14.984375 17.484375 19.15625 11.84375 
Q 23.34375 6.203125 30.609375 6.203125 
Q 37.796875 6.203125 41.984375 11.859375 
Q 46.1875 17.53125 46.1875 27.296875 
Q 46.1875 37.015625 41.984375 42.703125 
Q 37.796875 48.390625 30.609375 48.390625 
z
M 30.609375 56 
Q 42.328125 56 49.015625 48.375 
Q 55.71875 40.765625 55.71875 27.296875 
Q 55.71875 13.875 49.015625 6.21875 
Q 42.328125 -1.421875 30.609375 -1.421875 
Q 18.84375 -1.421875 12.171875 6.21875 
Q 5.515625 13.875 5.515625 27.296875 
Q 5.515625 40.765625 12.171875 48.375 
Q 18.84375 56 30.609375 56 
z
" id="DejaVuSans-111"/>
      <path d="M 8.015625 75.875 
L 15.828125 75.875 
Q 23.140625 64.359375 26.78125 53.3125 
Q 30.421875 42.28125 30.421875 31.390625 
Q 30.421875 20.453125 26.78125 9.375 
Q 23.140625 -1.703125 15.828125 -13.1875 
L 8.015625 -13.1875 
Q 14.5 -2 17.703125 9.0625 
Q 20.90625 20.125 20.90625 31.390625 
Q 20.90625 42.671875 17.703125 53.65625 
Q 14.5 64.65625 8.015625 75.875 
z
" id="DejaVuSans-41"/>
     </defs>
     <g transform="translate(424.381562 379.564837)scale(0.1 -0.1)">
      <use xlink:href="#DejaVuSans-77"/>
      <use x="86.279297" xlink:href="#DejaVuSans-101"/>
      <use x="147.802734" xlink:href="#DejaVuSans-97"/>
      <use x="209.082031" xlink:href="#DejaVuSans-110"/>
      <use x="272.460938" xlink:href="#DejaVuSans-32"/>
      <use x="304.248047" xlink:href="#DejaVuSans-83"/>
      <use x="367.724609" xlink:href="#DejaVuSans-101"/>
      <use x="429.248047" xlink:href="#DejaVuSans-113"/>
      <use x="492.724609" xlink:href="#DejaVuSans-117"/>
      <use x="556.103516" xlink:href="#DejaVuSans-101"/>
      <use x="617.626953" xlink:href="#DejaVuSans-110"/>
      <use x="681.005859" xlink:href="#DejaVuSans-99"/>
      <use x="735.986328" xlink:href="#DejaVuSans-101"/>
      <use x="797.509766" xlink:href="#DejaVuSans-32"/>
      <use x="829.296875" xlink:href="#DejaVuSans-81"/>
      <use x="908.007812" xlink:href="#DejaVuSans-117"/>
      <use x="971.386719" xlink:href="#DejaVuSans-97"/>
      <use x="1032.666016" xlink:href="#DejaVuSans-108"/>
      <use x="1060.449219" xlink:href="#DejaVuSans-105"/>
      <use x="1088.232422" xlink:href="#DejaVuSans-116"/>
      <use x="1127.441406" xlink:href="#DejaVuSans-121"/>
      <use x="1186.621094" xlink:href="#DejaVuSans-32"/>
      <use x="1218.408203" xlink:href="#DejaVuSans-40"/>
      <use x="1257.421875" xlink:href="#DejaVuSans-80"/>
      <use x="1317.724609" xlink:href="#DejaVuSans-104"/>
      <use x="1381.103516" xlink:href="#DejaVuSans-114"/>
      <use x="1422.185547" xlink:href="#DejaVuSans-101"/>
      <use x="1483.708984" xlink:href="#DejaVuSans-100"/>
      <use x="1547.185547" xlink:href="#DejaVuSans-32"/>
      <use x="1578.972656" xlink:href="#DejaVuSans-83"/>
      <use x="1642.449219" xlink:href="#DejaVuSans-99"/>
      <use x="1697.429688" xlink:href="#DejaVuSans-111"/>
      <use x="1758.611328" xlink:href="#DejaVuSans-114"/>
      <use x="1799.693359" xlink:href="#DejaVuSans-101"/>
      <use x="1861.216797" xlink:href="#DejaVuSans-41"/>
     </g>
    </g>
   </g>
   <g id="matplotlib.axis_2">
    <g id="ytick_1">
     <g id="line2d_1">
      <path clip-path="url(#p6704c12754)" d="M 45.690625 353.2239 
L 993.100625 353.2239 
" style="fill:none;stroke:#dedede;stroke-linecap:square;"/>
     </g>
     <g id="text_10">
      <!-- 0.00 -->
      <defs>
       <path d="M 10.6875 12.40625 
L 21 12.40625 
L 21 0 
L 10.6875 0 
z
" id="DejaVuSans-46"/>
      </defs>
      <g transform="translate(20.878125 356.263275)scale(0.08 -0.08)">
       <use xlink:href="#DejaVuSans-48"/>
       <use x="63.623047" xlink:href="#DejaVuSans-46"/>
       <use x="95.410156" xlink:href="#DejaVuSans-48"/>
       <use x="159.033203" xlink:href="#DejaVuSans-48"/>
      </g>
     </g>
    </g>
    <g id="ytick_2">
     <g id="line2d_2">
      <path clip-path="url(#p6704c12754)" d="M 45.690625 313.68406 
L 993.100625 313.68406 
" style="fill:none;stroke:#dedede;stroke-linecap:square;"/>
     </g>
     <g id="text_11">
      <!-- 0.25 -->
      <g transform="translate(20.878125 316.723435)scale(0.08 -0.08)">
       <use xlink:href="#DejaVuSans-48"/>
       <use x="63.623047" xlink:href="#DejaVuSans-46"/>
       <use x="95.410156" xlink:href="#DejaVuSans-50"/>
       <use x="159.033203" xlink:href="#DejaVuSans-53"/>
      </g>
     </g>
    </g>
    <g id="ytick_3">
     <g id="line2d_3">
      <path clip-path="url(#p6704c12754)" d="M 45.690625 274.14422 
L 993.100625 274.14422 
" style="fill:none;stroke:#dedede;stroke-linecap:square;"/>
     </g>
     <g id="text_12">
      <!-- 0.50 -->
      <g transform="translate(20.878125 277.183595)scale(0.08 -0.08)">
       <use xlink:href="#DejaVuSans-48"/>
       <use x="63.623047" xlink:href="#DejaVuSans-46"/>
       <use x="95.410156" xlink:href="#DejaVuSans-53"/>
       <use x="159.033203" xlink:href="#DejaVuSans-48"/>
      </g>
     </g>
    </g>
    <g id="ytick_4">
     <g id="line2d_4">
      <path clip-path="url(#p6704c12754)" d="M 45.690625 234.60438 
L 993.100625 234.60438 
" style="fill:none;stroke:#dedede;stroke-linecap:square;"/>
     </g>
     <g id="text_13">
      <!-- 0.75 -->
      <defs>
       <path d="M 8.203125 72.90625 
L 55.078125 72.90625 
L 55.078125 68.703125 
L 28.609375 0 
L 18.3125 0 
L 43.21875 64.59375 
L 8.203125 64.59375 
z
" id="DejaVuSans-55"/>
      </defs>
      <g transform="translate(20.878125 237.643755)scale(0.08 -0.08)">
       <use xlink:href="#DejaVuSans-48"/>
       <use x="63.623047" xlink:href="#DejaVuSans-46"/>
       <use x="95.410156" xlink:href="#DejaVuSans-55"/>
       <use x="159.033203" xlink:href="#DejaVuSans-53"/>
      </g>
     </g>
    </g>
    <g id="ytick_5">
     <g id="line2d_5">
      <path clip-path="url(#p6704c12754)" d="M 45.690625 195.06454 
L 993.100625 195.06454 
" style="fill:none;stroke:#dedede;stroke-linecap:square;"/>
     </g>
     <g id="text_14">
      <!-- 1.00 -->
      <g transform="translate(20.878125 198.103915)scale(0.08 -0.08)">
       <use xlink:href="#DejaVuSans-49"/>
       <use x="63.623047" xlink:href="#DejaVuSans-46"/>
       <use x="95.410156" xlink:href="#DejaVuSans-48"/>
       <use x="159.033203" xlink:href="#DejaVuSans-48"/>
      </g>
     </g>
    </g>
    <g id="ytick_6">
     <g id="line2d_6">
      <path clip-path="url(#p6704c12754)" d="M 45.690625 155.5247 
L 993.100625 155.5247 
" style="fill:none;stroke:#dedede;stroke-linecap:square;"/>
     </g>
     <g id="text_15">
      <!-- 1.25 -->
      <g transform="translate(20.878125 158.564075)scale(0.08 -0.08)">
       <use xlink:href="#DejaVuSans-49"/>
       <use x="63.623047" xlink:href="#DejaVuSans-46"/>
       <use x="95.410156" xlink:href="#DejaVuSans-50"/>
       <use x="159.033203" xlink:href="#DejaVuSans-53"/>
      </g>
     </g>
    </g>
    <g id="ytick_7">
     <g id="line2d_7">
      <path clip-path="url(#p6704c12754)" d="M 45.690625 115.98486 
L 993.100625 115.98486 
" style="fill:none;stroke:#dedede;stroke-linecap:square;"/>
     </g>
     <g id="text_16">
      <!-- 1.50 -->
      <g transform="translate(20.878125 119.024235)scale(0.08 -0.08)">
       <use xlink:href="#DejaVuSans-49"/>
       <use x="63.623047" xlink:href="#DejaVuSans-46"/>
       <use x="95.410156" xlink:href="#DejaVuSans-53"/>
       <use x="159.033203" xlink:href="#DejaVuSans-48"/>
      </g>
     </g>
    </g>
    <g id="ytick_8">
     <g id="line2d_8">
      <path clip-path="url(#p6704c12754)" d="M 45.690625 76.44502 
L 993.100625 76.44502 
" style="fill:none;stroke:#dedede;stroke-linecap:square;"/>
     </g>
     <g id="text_17">
      <!-- 1.75 -->
      <g transform="translate(20.878125 79.484395)scale(0.08 -0.08)">
       <use xlink:href="#DejaVuSans-49"/>
       <use x="63.623047" xlink:href="#DejaVuSans-46"/>
       <use x="95.410156" xlink:href="#DejaVuSans-55"/>
       <use x="159.033203" xlink:href="#DejaVuSans-53"/>
      </g>
     </g>
    </g>
    <g id="ytick_9">
     <g id="line2d_9">
      <path clip-path="url(#p6704c12754)" d="M 45.690625 36.905179 
L 993.100625 36.905179 
" style="fill:none;stroke:#dedede;stroke-linecap:square;"/>
     </g>
     <g id="text_18">
      <!-- 2.00 -->
      <g transform="translate(20.878125 39.944554)scale(0.08 -0.08)">
       <use xlink:href="#DejaVuSans-50"/>
       <use x="63.623047" xlink:href="#DejaVuSans-46"/>
       <use x="95.410156" xlink:href="#DejaVuSans-48"/>
       <use x="159.033203" xlink:href="#DejaVuSans-48"/>
      </g>
     </g>
    </g>
    <g id="text_19">
     <!-- Count -->
     <defs>
      <path d="M 64.40625 67.28125 
L 64.40625 56.890625 
Q 59.421875 61.53125 53.78125 63.8125 
Q 48.140625 66.109375 41.796875 66.109375 
Q 29.296875 66.109375 22.65625 58.46875 
Q 16.015625 50.828125 16.015625 36.375 
Q 16.015625 21.96875 22.65625 14.328125 
Q 29.296875 6.6875 41.796875 6.6875 
Q 48.140625 6.6875 53.78125 8.984375 
Q 59.421875 11.28125 64.40625 15.921875 
L 64.40625 5.609375 
Q 59.234375 2.09375 53.4375 0.328125 
Q 47.65625 -1.421875 41.21875 -1.421875 
Q 24.65625 -1.421875 15.125 8.703125 
Q 5.609375 18.84375 5.609375 36.375 
Q 5.609375 53.953125 15.125 64.078125 
Q 24.65625 74.21875 41.21875 74.21875 
Q 47.75 74.21875 53.53125 72.484375 
Q 59.328125 70.75 64.40625 67.28125 
z
" id="DejaVuSans-67"/>
     </defs>
     <g transform="translate(14.798438 209.088338)rotate(-90)scale(0.1 -0.1)">
      <use xlink:href="#DejaVuSans-67"/>
      <use x="69.824219" xlink:href="#DejaVuSans-111"/>
      <use x="131.005859" xlink:href="#DejaVuSans-117"/>
      <use x="194.384766" xlink:href="#DejaVuSans-110"/>
      <use x="257.763672" xlink:href="#DejaVuSans-116"/>
     </g>
    </g>
    <g id="text_20">
     <!-- 1e7 -->
     <g transform="translate(45.690625 32.2559)scale(0.1 -0.1)">
      <use xlink:href="#DejaVuSans-49"/>
      <use x="63.623047" xlink:href="#DejaVuSans-101"/>
      <use x="125.146484" xlink:href="#DejaVuSans-55"/>
     </g>
    </g>
   </g>
   <g id="line2d_10">
    <path clip-path="url(#p6704c12754)" d="M 366.846557 353.223884 
L 391.55086 353.223663 
L 416.255162 353.221006 
L 440.959465 353.212497 
L 465.663767 353.19918 
L 490.36807 353.184471 
L 515.072372 353.166773 
L 539.776675 353.146465 
L 564.480977 353.113679 
L 589.185279 353.06253 
L 613.889582 352.979212 
L 638.593884 352.845377 
L 663.298187 352.655728 
L 688.002489 352.383615 
L 712.706792 352.004128 
L 737.411094 351.544216 
L 762.115397 350.966776 
L 786.819699 350.301242 
L 811.524002 349.468469 
L 836.228304 348.261682 
L 860.932607 346.165121 
L 885.636909 340.223042 
L 910.341212 289.200864 
L 935.045514 124.869003 
L 959.749817 342.487726 
" style="fill:none;stroke:#5cb85c;stroke-linecap:square;"/>
   </g>
   <g id="line2d_11">
    <path clip-path="url(#p6704c12754)" d="M 317.437952 353.223821 
L 342.142255 353.220674 
L 366.846557 353.201947 
L 391.55086 353.175709 
L 416.255162 353.156224 
L 440.959465 353.141515 
L 465.663767 353.123058 
L 490.36807 353.097056 
L 515.072372 353.057833 
L 539.776675 352.995376 
L 564.480977 352.908578 
L 589.185279 352.785925 
L 613.889582 352.577882 
L 638.593884 351.973049 
L 663.298187 351.884243 
L 688.002489 352.264094 
L 712.706792 352.153572 
L 737.411094 351.839531 
L 762.115397 351.391829 
L 786.819699 350.745954 
L 811.524002 349.681747 
L 836.228304 347.687943 
L 860.932607 343.295636 
L 885.636909 329.601787 
L 910.341212 266.867355 
L 935.045514 157.716124 
L 959.749817 347.789687 
" style="fill:none;stroke:#5cb85c;stroke-linecap:square;"/>
   </g>
   <g id="line2d_12">
    <path clip-path="url(#p6704c12754)" d="M 391.55086 353.223615 
L 416.255162 353.221021 
L 440.959465 353.210314 
L 465.663767 353.196586 
L 490.36807 353.17941 
L 515.072372 353.154531 
L 539.776675 353.114517 
L 564.480977 353.044152 
L 589.185279 352.916454 
L 613.889582 352.728181 
L 638.593884 352.455862 
L 663.298187 352.092934 
L 688.002489 351.629227 
L 712.706792 351.036002 
L 737.411094 350.323827 
L 762.115397 349.457604 
L 786.819699 348.478313 
L 811.524002 347.212437 
L 836.228304 345.383751 
L 860.932607 341.985207 
L 885.636909 331.468606 
L 910.341212 230.167804 
L 935.045514 50.397233 
L 959.749817 343.167337 
" style="fill:none;stroke:#5cb85c;stroke-linecap:square;"/>
   </g>
   <g id="line2d_13">
    <path clip-path="url(#p6704c12754)" d="M 317.437952 353.223868 
L 342.142255 353.220278 
L 366.846557 353.195922 
L 391.55086 353.16372 
L 416.255162 353.138225 
L 440.959465 353.11496 
L 465.663767 353.096218 
L 490.36807 353.062815 
L 515.072372 353.013912 
L 539.776675 352.92626 
L 564.480977 352.777717 
L 589.185279 352.58035 
L 613.889582 352.325507 
L 638.593884 351.863745 
L 663.298187 351.640472 
L 688.002489 351.607448 
L 712.706792 351.307293 
L 737.411094 350.817363 
L 762.115397 350.126887 
L 786.819699 349.125311 
L 811.524002 347.447651 
L 836.228304 344.221343 
L 860.932607 336.821209 
L 885.636909 312.792373 
L 910.341212 206.792547 
L 935.045514 94.927301 
L 959.749817 347.58593 
" style="fill:none;stroke:#5cb85c;stroke-linecap:square;"/>
   </g>
   <g id="line2d_14">
    <path clip-path="url(#p6704c12754)" d="M 391.55086 353.223742 
L 416.255162 353.222445 
L 440.959465 353.217795 
L 465.663767 353.211674 
L 490.36807 353.202454 
L 515.072372 353.190307 
L 539.776675 353.163736 
L 564.480977 353.111417 
L 589.185279 353.014924 
L 613.889582 352.861778 
L 638.593884 352.630881 
L 663.298187 352.291234 
L 688.002489 351.864821 
L 712.706792 351.328408 
L 737.411094 350.695406 
L 762.115397 349.939737 
L 786.819699 349.066586 
L 811.524002 347.870269 
L 836.228304 345.80417 
L 860.932607 340.223074 
L 885.636909 306.17837 
L 910.341212 211.569465 
L 935.045514 193.640884 
L 959.749817 347.892664 
" style="fill:none;stroke:#5cb85c;stroke-linecap:square;"/>
   </g>
   <g id="line2d_15">
    <path clip-path="url(#p6704c12754)" d="M 317.437952 353.223868 
L 342.142255 353.221796 
L 366.846557 353.208938 
L 391.55086 353.188899 
L 416.255162 353.173052 
L 440.959465 353.165697 
L 465.663767 353.151447 
L 490.36807 353.13386 
L 515.072372 353.106182 
L 539.776675 353.048691 
L 564.480977 352.954175 
L 589.185279 352.818095 
L 613.889582 352.643629 
L 638.593884 352.31907 
L 663.298187 352.163726 
L 688.002489 352.137851 
L 712.706792 351.914625 
L 737.411094 351.561107 
L 762.115397 351.055899 
L 786.819699 350.299502 
L 811.524002 349.019518 
L 836.228304 346.473057 
L 860.932607 340.469898 
L 885.636909 320.093721 
L 910.341212 231.393318 
L 935.045514 153.890518 
L 959.749817 349.257801 
" style="fill:none;stroke:#5cb85c;stroke-linecap:square;"/>
   </g>
   <g id="line2d_16">
    <path clip-path="url(#p6704c12754)" d="M 391.55086 353.223568 
L 416.255162 353.220626 
L 440.959465 353.211279 
L 465.663767 353.196997 
L 490.36807 353.179457 
L 515.072372 353.157093 
L 539.776675 353.123785 
L 564.480977 353.054464 
L 589.185279 352.933946 
L 613.889582 352.731281 
L 638.593884 352.407292 
L 663.298187 351.957787 
L 688.002489 351.415095 
L 712.706792 350.738615 
L 737.411094 349.957941 
L 762.115397 348.960082 
L 786.819699 347.776559 
L 811.524002 345.976089 
L 836.228304 342.11447 
L 860.932607 320.754701 
L 885.636909 245.95902 
L 910.341212 257.782049 
L 935.045514 177.298815 
L 959.749817 344.711067 
" style="fill:none;stroke:#5cb85c;stroke-linecap:square;"/>
   </g>
   <g id="line2d_17">
    <path clip-path="url(#p6704c12754)" d="M 317.437952 353.223853 
L 342.142255 353.221417 
L 366.846557 353.20568 
L 391.55086 353.179331 
L 416.255162 353.156761 
L 440.959465 353.138273 
L 465.663767 353.118329 
L 490.36807 353.086349 
L 515.072372 353.040688 
L 539.776675 352.962985 
L 564.480977 352.825876 
L 589.185279 352.649987 
L 613.889582 352.434827 
L 638.593884 352.122368 
L 663.298187 351.908837 
L 688.002489 351.762365 
L 712.706792 351.458146 
L 737.411094 351.006964 
L 762.115397 350.378281 
L 786.819699 349.433769 
L 811.524002 347.92156 
L 836.228304 344.978372 
L 860.932607 338.201734 
L 885.636909 316.318758 
L 910.341212 221.444635 
L 935.045514 114.661382 
L 959.749817 347.672253 
" style="fill:none;stroke:#5cb85c;stroke-linecap:square;"/>
   </g>
   <g id="line2d_18">
    <path clip-path="url(#p6704c12754)" d="M 391.55086 353.223853 
L 416.255162 353.223441 
L 440.959465 353.222097 
L 465.663767 353.220357 
L 490.36807 353.216308 
L 515.072372 353.211137 
L 539.776675 353.197456 
L 564.480977 353.170047 
L 589.185279 353.109108 
L 613.889582 353.003189 
L 638.593884 352.835176 
L 663.298187 352.586455 
L 688.002489 352.264316 
L 712.706792 351.862607 
L 737.411094 351.360767 
L 762.115397 350.761549 
L 786.819699 350.078253 
L 811.524002 349.152166 
L 836.228304 347.637711 
L 860.932607 343.973191 
L 885.636909 323.052313 
L 910.341212 239.48339 
L 935.045514 200.031392 
L 959.749817 347.264961 
" style="fill:none;stroke:#5cb85c;stroke-linecap:square;"/>
   </g>
   <g id="line2d_19">
    <path clip-path="url(#p6704c12754)" d="M 317.437952 353.223837 
L 342.142255 353.222556 
L 366.846557 353.213303 
L 391.55086 353.20073 
L 416.255162 353.192047 
L 440.959465 353.186353 
L 465.663767 353.182336 
L 490.36807 353.176974 
L 515.072372 353.159324 
L 539.776675 353.12097 
L 564.480977 353.056299 
L 589.185279 352.958509 
L 613.889582 352.841724 
L 638.593884 352.658607 
L 663.298187 352.541869 
L 688.002489 352.476755 
L 712.706792 352.314879 
L 737.411094 352.052777 
L 762.115397 351.680027 
L 786.819699 351.104786 
L 811.524002 350.118061 
L 836.228304 348.113534 
L 860.932607 343.3183 
L 885.636909 326.963468 
L 910.341212 253.849796 
L 935.045514 176.672646 
L 959.749817 349.212473 
" style="fill:none;stroke:#5cb85c;stroke-linecap:square;"/>
   </g>
   <g id="line2d_20">
    <path clip-path="url(#p6704c12754)" d="M 391.55086 353.223805 
L 416.255162 353.223267 
L 440.959465 353.222113 
L 465.663767 353.219646 
L 490.36807 353.216261 
L 515.072372 353.209761 
L 539.776675 353.19472 
L 564.480977 353.159276 
L 589.185279 353.095601 
L 613.889582 352.981711 
L 638.593884 352.814615 
L 663.298187 352.565862 
L 688.002489 352.232715 
L 712.706792 351.824411 
L 737.411094 351.315692 
L 762.115397 350.729316 
L 786.819699 350.045925 
L 811.524002 349.165278 
L 836.228304 347.873306 
L 860.932607 345.341317 
L 885.636909 337.086995 
L 910.341212 257.72062 
L 935.045514 152.680789 
L 959.749817 347.059845 
" style="fill:none;stroke:#5cb85c;stroke-linecap:square;"/>
   </g>
   <g id="line2d_21">
    <path clip-path="url(#p6704c12754)" d="M 317.437952 353.223868 
L 342.142255 353.22216 
L 366.846557 353.212607 
L 391.55086 353.196254 
L 416.255162 353.184329 
L 440.959465 353.177575 
L 465.663767 353.169857 
L 490.36807 353.160067 
L 515.072372 353.141372 
L 539.776675 353.099081 
L 564.480977 353.01834 
L 589.185279 352.907486 
L 613.889582 352.767152 
L 638.593884 352.553399 
L 663.298187 352.426176 
L 688.002489 352.332941 
L 712.706792 352.110695 
L 737.411094 351.791783 
L 762.115397 351.316846 
L 786.819699 350.621514 
L 811.524002 349.404952 
L 836.228304 346.959793 
L 860.932607 341.124677 
L 885.636909 321.546415 
L 910.341212 240.671057 
L 935.045514 186.455862 
L 959.749817 350.078284 
" style="fill:none;stroke:#5cb85c;stroke-linecap:square;"/>
   </g>
   <g id="line2d_22">
    <path clip-path="url(#p6704c12754)" d="M 391.55086 353.223853 
L 416.255162 353.223473 
L 440.959465 353.222445 
L 465.663767 353.22031 
L 490.36807 353.217906 
L 515.072372 353.213794 
L 539.776675 353.202802 
L 564.480977 353.179426 
L 589.185279 353.130159 
L 613.889582 353.03898 
L 638.593884 352.879951 
L 663.298187 352.633934 
L 688.002489 352.304773 
L 712.706792 351.891091 
L 737.411094 351.417752 
L 762.115397 350.81401 
L 786.819699 350.078348 
L 811.524002 348.936548 
L 836.228304 346.189541 
L 860.932607 326.651989 
L 885.636909 269.73004 
L 910.341212 291.585069 
L 935.045514 266.94974 
L 959.749817 348.920036 
" style="fill:none;stroke:#5cb85c;stroke-linecap:square;"/>
   </g>
   <g id="line2d_23">
    <path clip-path="url(#p6704c12754)" d="M 317.437952 353.223884 
L 342.142255 353.222287 
L 366.846557 353.212544 
L 391.55086 353.200018 
L 416.255162 353.191003 
L 440.959465 353.187776 
L 465.663767 353.185436 
L 490.36807 353.180564 
L 515.072372 353.165856 
L 539.776675 353.132958 
L 564.480977 353.074218 
L 589.185279 353.002762 
L 613.889582 352.911931 
L 638.593884 352.813018 
L 663.298187 352.713456 
L 688.002489 352.61437 
L 712.706792 352.46105 
L 737.411094 352.2268 
L 762.115397 351.891281 
L 786.819699 351.379841 
L 811.524002 350.485908 
L 836.228304 348.596553 
L 860.932607 344.165813 
L 885.636909 329.105863 
L 910.341212 263.018753 
L 935.045514 209.858924 
L 959.749817 350.3048 
" style="fill:none;stroke:#5cb85c;stroke-linecap:square;"/>
   </g>
   <g id="line2d_24">
    <path clip-path="url(#p6704c12754)" d="M 391.55086 353.223821 
L 416.255162 353.223315 
L 440.959465 353.221369 
L 465.663767 353.21944 
L 490.36807 353.215122 
L 515.072372 353.205712 
L 539.776675 353.179568 
L 564.480977 353.123168 
L 589.185279 353.020808 
L 613.889582 352.859706 
L 638.593884 352.614022 
L 663.298187 352.281049 
L 688.002489 351.882993 
L 712.706792 351.382656 
L 737.411094 350.790523 
L 762.115397 350.094053 
L 786.819699 349.293798 
L 811.524002 348.274287 
L 836.228304 346.774019 
L 860.932607 343.998812 
L 885.636909 334.762258 
L 910.341212 234.824126 
L 935.045514 119.15896 
L 959.749817 347.334979 
" style="fill:none;stroke:#5cb85c;stroke-linecap:square;"/>
   </g>
   <g id="line2d_25">
    <path clip-path="url(#p6704c12754)" d="M 292.73365 353.223884 
L 317.437952 353.223853 
L 342.142255 353.220768 
L 366.846557 353.204541 
L 391.55086 353.183917 
L 416.255162 353.168813 
L 440.959465 353.165349 
L 465.663767 353.157963 
L 490.36807 353.148853 
L 515.072372 353.122979 
L 539.776675 353.066357 
L 564.480977 352.950569 
L 589.185279 352.794387 
L 613.889582 352.610669 
L 638.593884 352.410423 
L 663.298187 352.213009 
L 688.002489 351.994891 
L 712.706792 351.727459 
L 737.411094 351.351277 
L 762.115397 350.828102 
L 786.819699 350.051492 
L 811.524002 348.696066 
L 836.228304 345.961681 
L 860.932607 339.663111 
L 885.636909 318.723049 
L 910.341212 225.458419 
L 935.045514 146.210505 
L 959.749817 349.321776 
" style="fill:none;stroke:#5cb85c;stroke-linecap:square;"/>
   </g>
   <g id="line2d_26">
    <path clip-path="url(#p6704c12754)" d="M 45.690625 353.2239 
L 993.100625 353.2239 
" style="fill:none;stroke:#dedede;stroke-linecap:square;stroke-width:2;"/>
   </g>
   <g id="text_21">
    <!-- FastQC: Per Sequence Quality Scores -->
    <defs>
     <path d="M 9.8125 72.90625 
L 51.703125 72.90625 
L 51.703125 64.59375 
L 19.671875 64.59375 
L 19.671875 43.109375 
L 48.578125 43.109375 
L 48.578125 34.8125 
L 19.671875 34.8125 
L 19.671875 0 
L 9.8125 0 
z
" id="DejaVuSans-70"/>
     <path d="M 44.28125 53.078125 
L 44.28125 44.578125 
Q 40.484375 46.53125 36.375 47.5 
Q 32.28125 48.484375 27.875 48.484375 
Q 21.1875 48.484375 17.84375 46.4375 
Q 14.5 44.390625 14.5 40.28125 
Q 14.5 37.15625 16.890625 35.375 
Q 19.28125 33.59375 26.515625 31.984375 
L 29.59375 31.296875 
Q 39.15625 29.25 43.1875 25.515625 
Q 47.21875 21.78125 47.21875 15.09375 
Q 47.21875 7.46875 41.1875 3.015625 
Q 35.15625 -1.421875 24.609375 -1.421875 
Q 20.21875 -1.421875 15.453125 -0.5625 
Q 10.6875 0.296875 5.421875 2 
L 5.421875 11.28125 
Q 10.40625 8.6875 15.234375 7.390625 
Q 20.0625 6.109375 24.8125 6.109375 
Q 31.15625 6.109375 34.5625 8.28125 
Q 37.984375 10.453125 37.984375 14.40625 
Q 37.984375 18.0625 35.515625 20.015625 
Q 33.0625 21.96875 24.703125 23.78125 
L 21.578125 24.515625 
Q 13.234375 26.265625 9.515625 29.90625 
Q 5.8125 33.546875 5.8125 39.890625 
Q 5.8125 47.609375 11.28125 51.796875 
Q 16.75 56 26.8125 56 
Q 31.78125 56 36.171875 55.265625 
Q 40.578125 54.546875 44.28125 53.078125 
z
" id="DejaVuSans-115"/>
     <path d="M 11.71875 12.40625 
L 22.015625 12.40625 
L 22.015625 0 
L 11.71875 0 
z
M 11.71875 51.703125 
L 22.015625 51.703125 
L 22.015625 39.3125 
L 11.71875 39.3125 
z
" id="DejaVuSans-58"/>
    </defs>
    <g transform="translate(370.020625 19.3575)scale(0.16 -0.16)">
     <use xlink:href="#DejaVuSans-70"/>
     <use x="57.378906" xlink:href="#DejaVuSans-97"/>
     <use x="118.658203" xlink:href="#DejaVuSans-115"/>
     <use x="170.757812" xlink:href="#DejaVuSans-116"/>
     <use x="209.966797" xlink:href="#DejaVuSans-81"/>
     <use x="288.677734" xlink:href="#DejaVuSans-67"/>
     <use x="358.501953" xlink:href="#DejaVuSans-58"/>
     <use x="392.193359" xlink:href="#DejaVuSans-32"/>
     <use x="423.980469" xlink:href="#DejaVuSans-80"/>
     <use x="484.236328" xlink:href="#DejaVuSans-101"/>
     <use x="545.759766" xlink:href="#DejaVuSans-114"/>
     <use x="586.873047" xlink:href="#DejaVuSans-32"/>
     <use x="618.660156" xlink:href="#DejaVuSans-83"/>
     <use x="682.136719" xlink:href="#DejaVuSans-101"/>
     <use x="743.660156" xlink:href="#DejaVuSans-113"/>
     <use x="807.136719" xlink:href="#DejaVuSans-117"/>
     <use x="870.515625" xlink:href="#DejaVuSans-101"/>
     <use x="932.039062" xlink:href="#DejaVuSans-110"/>
     <use x="995.417969" xlink:href="#DejaVuSans-99"/>
     <use x="1050.398438" xlink:href="#DejaVuSans-101"/>
     <use x="1111.921875" xlink:href="#DejaVuSans-32"/>
     <use x="1143.708984" xlink:href="#DejaVuSans-81"/>
     <use x="1222.419922" xlink:href="#DejaVuSans-117"/>
     <use x="1285.798828" xlink:href="#DejaVuSans-97"/>
     <use x="1347.078125" xlink:href="#DejaVuSans-108"/>
     <use x="1374.861328" xlink:href="#DejaVuSans-105"/>
     <use x="1402.644531" xlink:href="#DejaVuSans-116"/>
     <use x="1441.853516" xlink:href="#DejaVuSans-121"/>
     <use x="1501.033203" xlink:href="#DejaVuSans-32"/>
     <use x="1532.820312" xlink:href="#DejaVuSans-83"/>
     <use x="1596.296875" xlink:href="#DejaVuSans-99"/>
     <use x="1651.277344" xlink:href="#DejaVuSans-111"/>
     <use x="1712.458984" xlink:href="#DejaVuSans-114"/>
     <use x="1753.541016" xlink:href="#DejaVuSans-101"/>
     <use x="1815.064453" xlink:href="#DejaVuSans-115"/>
    </g>
   </g>
  </g>
 </g>
 <defs>
  <clipPath id="p6704c12754">
   <rect height="317.968" width="947.41" x="45.690625" y="35.2559"/>
  </clipPath>
 </defs>
</svg>
