<?xml version="1.0" encoding="utf-8" standalone="no"?>
<!DOCTYPE svg PUBLIC "-//W3C//DTD SVG 1.1//EN"
  "http://www.w3.org/Graphics/SVG/1.1/DTD/svg11.dtd">
<!-- Created with matplotlib (https://matplotlib.org/) -->
<svg height="388.844525pt" version="1.1" viewBox="0 0 1000.058125 388.844525" width="1000.058125pt" xmlns="http://www.w3.org/2000/svg" xmlns:xlink="http://www.w3.org/1999/xlink">
 <defs>
  <style type="text/css">
*{stroke-linecap:butt;stroke-linejoin:round;}
  </style>
 </defs>
 <g id="figure_1">
  <g id="axes_1">
   <g id="patch_1">
    <path d="M 63.508125 353.2239 
L 985.223125 353.2239 
L 985.223125 35.2559 
L 63.508125 35.2559 
z
" style="fill:#ffffff;"/>
   </g>
   <g id="matplotlib.axis_1">
    <g id="xtick_1">
     <g id="text_1">
      <!-- 0 -->
      <defs>
       <path d="M 31.78125 66.40625 
Q 24.171875 66.40625 20.328125 58.90625 
Q 16.5 51.421875 16.5 36.375 
Q 16.5 21.390625 20.328125 13.890625 
Q 24.171875 6.390625 31.78125 6.390625 
Q 39.453125 6.390625 43.28125 13.890625 
Q 47.125 21.390625 47.125 36.375 
Q 47.125 51.421875 43.28125 58.90625 
Q 39.453125 66.40625 31.78125 66.40625 
z
M 31.78125 74.21875 
Q 44.046875 74.21875 50.515625 64.515625 
Q 56.984375 54.828125 56.984375 36.375 
Q 56.984375 17.96875 50.515625 8.265625 
Q 44.046875 -1.421875 31.78125 -1.421875 
Q 19.53125 -1.421875 13.0625 8.265625 
Q 6.59375 17.96875 6.59375 36.375 
Q 6.59375 54.828125 13.0625 64.515625 
Q 19.53125 74.21875 31.78125 74.21875 
z
" id="DejaVuSans-48"/>
      </defs>
      <g transform="translate(60.963125 366.30265)scale(0.08 -0.08)">
       <use xlink:href="#DejaVuSans-48"/>
      </g>
     </g>
    </g>
    <g id="xtick_2">
     <g id="text_2">
      <!-- 20 -->
      <defs>
       <path d="M 19.1875 8.296875 
L 53.609375 8.296875 
L 53.609375 0 
L 7.328125 0 
L 7.328125 8.296875 
Q 12.9375 14.109375 22.625 23.890625 
Q 32.328125 33.6875 34.8125 36.53125 
Q 39.546875 41.84375 41.421875 45.53125 
Q 43.3125 49.21875 43.3125 52.78125 
Q 43.3125 58.59375 39.234375 62.25 
Q 35.15625 65.921875 28.609375 65.921875 
Q 23.96875 65.921875 18.8125 64.3125 
Q 13.671875 62.703125 7.8125 59.421875 
L 7.8125 69.390625 
Q 13.765625 71.78125 18.9375 73 
Q 24.125 74.21875 28.421875 74.21875 
Q 39.75 74.21875 46.484375 68.546875 
Q 53.21875 62.890625 53.21875 53.421875 
Q 53.21875 48.921875 51.53125 44.890625 
Q 49.859375 40.875 45.40625 35.40625 
Q 44.1875 33.984375 37.640625 27.21875 
Q 31.109375 20.453125 19.1875 8.296875 
z
" id="DejaVuSans-50"/>
      </defs>
      <g transform="translate(242.761125 366.30265)scale(0.08 -0.08)">
       <use xlink:href="#DejaVuSans-50"/>
       <use x="63.623047" xlink:href="#DejaVuSans-48"/>
      </g>
     </g>
    </g>
    <g id="xtick_3">
     <g id="text_3">
      <!-- 40 -->
      <defs>
       <path d="M 37.796875 64.3125 
L 12.890625 25.390625 
L 37.796875 25.390625 
z
M 35.203125 72.90625 
L 47.609375 72.90625 
L 47.609375 25.390625 
L 58.015625 25.390625 
L 58.015625 17.1875 
L 47.609375 17.1875 
L 47.609375 0 
L 37.796875 0 
L 37.796875 17.1875 
L 4.890625 17.1875 
L 4.890625 26.703125 
z
" id="DejaVuSans-52"/>
      </defs>
      <g transform="translate(427.104125 366.30265)scale(0.08 -0.08)">
       <use xlink:href="#DejaVuSans-52"/>
       <use x="63.623047" xlink:href="#DejaVuSans-48"/>
      </g>
     </g>
    </g>
    <g id="xtick_4">
     <g id="text_4">
      <!-- 60 -->
      <defs>
       <path d="M 33.015625 40.375 
Q 26.375 40.375 22.484375 35.828125 
Q 18.609375 31.296875 18.609375 23.390625 
Q 18.609375 15.53125 22.484375 10.953125 
Q 26.375 6.390625 33.015625 6.390625 
Q 39.65625 6.390625 43.53125 10.953125 
Q 47.40625 15.53125 47.40625 23.390625 
Q 47.40625 31.296875 43.53125 35.828125 
Q 39.65625 40.375 33.015625 40.375 
z
M 52.59375 71.296875 
L 52.59375 62.3125 
Q 48.875 64.0625 45.09375 64.984375 
Q 41.3125 65.921875 37.59375 65.921875 
Q 27.828125 65.921875 22.671875 59.328125 
Q 17.53125 52.734375 16.796875 39.40625 
Q 19.671875 43.65625 24.015625 45.921875 
Q 28.375 48.1875 33.59375 48.1875 
Q 44.578125 48.1875 50.953125 41.515625 
Q 57.328125 34.859375 57.328125 23.390625 
Q 57.328125 12.15625 50.6875 5.359375 
Q 44.046875 -1.421875 33.015625 -1.421875 
Q 20.359375 -1.421875 13.671875 8.265625 
Q 6.984375 17.96875 6.984375 36.375 
Q 6.984375 53.65625 15.1875 63.9375 
Q 23.390625 74.21875 37.203125 74.21875 
Q 40.921875 74.21875 44.703125 73.484375 
Q 48.484375 72.75 52.59375 71.296875 
z
" id="DejaVuSans-54"/>
      </defs>
      <g transform="translate(611.447125 366.30265)scale(0.08 -0.08)">
       <use xlink:href="#DejaVuSans-54"/>
       <use x="63.623047" xlink:href="#DejaVuSans-48"/>
      </g>
     </g>
    </g>
    <g id="xtick_5">
     <g id="text_5">
      <!-- 80 -->
      <defs>
       <path d="M 31.78125 34.625 
Q 24.75 34.625 20.71875 30.859375 
Q 16.703125 27.09375 16.703125 20.515625 
Q 16.703125 13.921875 20.71875 10.15625 
Q 24.75 6.390625 31.78125 6.390625 
Q 38.8125 6.390625 42.859375 10.171875 
Q 46.921875 13.96875 46.921875 20.515625 
Q 46.921875 27.09375 42.890625 30.859375 
Q 38.875 34.625 31.78125 34.625 
z
M 21.921875 38.8125 
Q 15.578125 40.375 12.03125 44.71875 
Q 8.5 49.078125 8.5 55.328125 
Q 8.5 64.0625 14.71875 69.140625 
Q 20.953125 74.21875 31.78125 74.21875 
Q 42.671875 74.21875 48.875 69.140625 
Q 55.078125 64.0625 55.078125 55.328125 
Q 55.078125 49.078125 51.53125 44.71875 
Q 48 40.375 41.703125 38.8125 
Q 48.828125 37.15625 52.796875 32.3125 
Q 56.78125 27.484375 56.78125 20.515625 
Q 56.78125 9.90625 50.3125 4.234375 
Q 43.84375 -1.421875 31.78125 -1.421875 
Q 19.734375 -1.421875 13.25 4.234375 
Q 6.78125 9.90625 6.78125 20.515625 
Q 6.78125 27.484375 10.78125 32.3125 
Q 14.796875 37.15625 21.921875 38.8125 
z
M 18.3125 54.390625 
Q 18.3125 48.734375 21.84375 45.5625 
Q 25.390625 42.390625 31.78125 42.390625 
Q 38.140625 42.390625 41.71875 45.5625 
Q 45.3125 48.734375 45.3125 54.390625 
Q 45.3125 60.0625 41.71875 63.234375 
Q 38.140625 66.40625 31.78125 66.40625 
Q 25.390625 66.40625 21.84375 63.234375 
Q 18.3125 60.0625 18.3125 54.390625 
z
" id="DejaVuSans-56"/>
      </defs>
      <g transform="translate(795.790125 366.30265)scale(0.08 -0.08)">
       <use xlink:href="#DejaVuSans-56"/>
       <use x="63.623047" xlink:href="#DejaVuSans-48"/>
      </g>
     </g>
    </g>
    <g id="xtick_6">
     <g id="text_6">
      <!-- 100 -->
      <defs>
       <path d="M 12.40625 8.296875 
L 28.515625 8.296875 
L 28.515625 63.921875 
L 10.984375 60.40625 
L 10.984375 69.390625 
L 28.421875 72.90625 
L 38.28125 72.90625 
L 38.28125 8.296875 
L 54.390625 8.296875 
L 54.390625 0 
L 12.40625 0 
z
" id="DejaVuSans-49"/>
      </defs>
      <g transform="translate(977.588125 366.30265)scale(0.08 -0.08)">
       <use xlink:href="#DejaVuSans-49"/>
       <use x="63.623047" xlink:href="#DejaVuSans-48"/>
       <use x="127.246094" xlink:href="#DejaVuSans-48"/>
      </g>
     </g>
    </g>
    <g id="text_7">
     <!-- % GC -->
     <defs>
      <path d="M 72.703125 32.078125 
Q 68.453125 32.078125 66.03125 28.46875 
Q 63.625 24.859375 63.625 18.40625 
Q 63.625 12.0625 66.03125 8.421875 
Q 68.453125 4.78125 72.703125 4.78125 
Q 76.859375 4.78125 79.265625 8.421875 
Q 81.6875 12.0625 81.6875 18.40625 
Q 81.6875 24.8125 79.265625 28.4375 
Q 76.859375 32.078125 72.703125 32.078125 
z
M 72.703125 38.28125 
Q 80.421875 38.28125 84.953125 32.90625 
Q 89.5 27.546875 89.5 18.40625 
Q 89.5 9.28125 84.9375 3.921875 
Q 80.375 -1.421875 72.703125 -1.421875 
Q 64.890625 -1.421875 60.34375 3.921875 
Q 55.8125 9.28125 55.8125 18.40625 
Q 55.8125 27.59375 60.375 32.9375 
Q 64.9375 38.28125 72.703125 38.28125 
z
M 22.3125 68.015625 
Q 18.109375 68.015625 15.6875 64.375 
Q 13.28125 60.75 13.28125 54.390625 
Q 13.28125 47.953125 15.671875 44.328125 
Q 18.0625 40.71875 22.3125 40.71875 
Q 26.5625 40.71875 28.96875 44.328125 
Q 31.390625 47.953125 31.390625 54.390625 
Q 31.390625 60.6875 28.953125 64.34375 
Q 26.515625 68.015625 22.3125 68.015625 
z
M 66.40625 74.21875 
L 74.21875 74.21875 
L 28.609375 -1.421875 
L 20.796875 -1.421875 
z
M 22.3125 74.21875 
Q 30.03125 74.21875 34.609375 68.875 
Q 39.203125 63.53125 39.203125 54.390625 
Q 39.203125 45.171875 34.640625 39.84375 
Q 30.078125 34.515625 22.3125 34.515625 
Q 14.546875 34.515625 10.03125 39.859375 
Q 5.515625 45.21875 5.515625 54.390625 
Q 5.515625 63.484375 10.046875 68.84375 
Q 14.59375 74.21875 22.3125 74.21875 
z
" id="DejaVuSans-37"/>
      <path id="DejaVuSans-32"/>
      <path d="M 59.515625 10.40625 
L 59.515625 29.984375 
L 43.40625 29.984375 
L 43.40625 38.09375 
L 69.28125 38.09375 
L 69.28125 6.78125 
Q 63.578125 2.734375 56.6875 0.65625 
Q 49.8125 -1.421875 42 -1.421875 
Q 24.90625 -1.421875 15.25 8.5625 
Q 5.609375 18.5625 5.609375 36.375 
Q 5.609375 54.25 15.25 64.234375 
Q 24.90625 74.21875 42 74.21875 
Q 49.125 74.21875 55.546875 72.453125 
Q 61.96875 70.703125 67.390625 67.28125 
L 67.390625 56.78125 
Q 61.921875 61.421875 55.765625 63.765625 
Q 49.609375 66.109375 42.828125 66.109375 
Q 29.4375 66.109375 22.71875 58.640625 
Q 16.015625 51.171875 16.015625 36.375 
Q 16.015625 21.625 22.71875 14.15625 
Q 29.4375 6.6875 42.828125 6.6875 
Q 48.046875 6.6875 52.140625 7.59375 
Q 56.25 8.5 59.515625 10.40625 
z
" id="DejaVuSans-71"/>
      <path d="M 64.40625 67.28125 
L 64.40625 56.890625 
Q 59.421875 61.53125 53.78125 63.8125 
Q 48.140625 66.109375 41.796875 66.109375 
Q 29.296875 66.109375 22.65625 58.46875 
Q 16.015625 50.828125 16.015625 36.375 
Q 16.015625 21.96875 22.65625 14.328125 
Q 29.296875 6.6875 41.796875 6.6875 
Q 48.140625 6.6875 53.78125 8.984375 
Q 59.421875 11.28125 64.40625 15.921875 
L 64.40625 5.609375 
Q 59.234375 2.09375 53.4375 0.328125 
Q 47.65625 -1.421875 41.21875 -1.421875 
Q 24.65625 -1.421875 15.125 8.703125 
Q 5.609375 18.84375 5.609375 36.375 
Q 5.609375 53.953125 15.125 64.078125 
Q 24.65625 74.21875 41.21875 74.21875 
Q 47.75 74.21875 53.53125 72.484375 
Q 59.328125 70.75 64.40625 67.28125 
z
" id="DejaVuSans-67"/>
     </defs>
     <g transform="translate(510.660156 379.564837)scale(0.1 -0.1)">
      <use xlink:href="#DejaVuSans-37"/>
      <use x="95.019531" xlink:href="#DejaVuSans-32"/>
      <use x="126.806641" xlink:href="#DejaVuSans-71"/>
      <use x="204.296875" xlink:href="#DejaVuSans-67"/>
     </g>
    </g>
   </g>
   <g id="matplotlib.axis_2">
    <g id="ytick_1">
     <g id="line2d_1">
      <path clip-path="url(#p70c586dbe7)" d="M 63.508125 353.2239 
L 985.223125 353.2239 
" style="fill:none;stroke:#dedede;stroke-linecap:square;"/>
     </g>
     <g id="text_8">
      <!-- 0 -->
      <g transform="translate(51.418125 356.263275)scale(0.08 -0.08)">
       <use xlink:href="#DejaVuSans-48"/>
      </g>
     </g>
    </g>
    <g id="ytick_2">
     <g id="line2d_2">
      <path clip-path="url(#p70c586dbe7)" d="M 63.508125 306.834212 
L 985.223125 306.834212 
" style="fill:none;stroke:#dedede;stroke-linecap:square;"/>
     </g>
     <g id="text_9">
      <!-- 200000 -->
      <g transform="translate(25.968125 309.873587)scale(0.08 -0.08)">
       <use xlink:href="#DejaVuSans-50"/>
       <use x="63.623047" xlink:href="#DejaVuSans-48"/>
       <use x="127.246094" xlink:href="#DejaVuSans-48"/>
       <use x="190.869141" xlink:href="#DejaVuSans-48"/>
       <use x="254.492188" xlink:href="#DejaVuSans-48"/>
       <use x="318.115234" xlink:href="#DejaVuSans-48"/>
      </g>
     </g>
    </g>
    <g id="ytick_3">
     <g id="line2d_3">
      <path clip-path="url(#p70c586dbe7)" d="M 63.508125 260.444523 
L 985.223125 260.444523 
" style="fill:none;stroke:#dedede;stroke-linecap:square;"/>
     </g>
     <g id="text_10">
      <!-- 400000 -->
      <g transform="translate(25.968125 263.483898)scale(0.08 -0.08)">
       <use xlink:href="#DejaVuSans-52"/>
       <use x="63.623047" xlink:href="#DejaVuSans-48"/>
       <use x="127.246094" xlink:href="#DejaVuSans-48"/>
       <use x="190.869141" xlink:href="#DejaVuSans-48"/>
       <use x="254.492188" xlink:href="#DejaVuSans-48"/>
       <use x="318.115234" xlink:href="#DejaVuSans-48"/>
      </g>
     </g>
    </g>
    <g id="ytick_4">
     <g id="line2d_4">
      <path clip-path="url(#p70c586dbe7)" d="M 63.508125 214.054835 
L 985.223125 214.054835 
" style="fill:none;stroke:#dedede;stroke-linecap:square;"/>
     </g>
     <g id="text_11">
      <!-- 600000 -->
      <g transform="translate(25.968125 217.09421)scale(0.08 -0.08)">
       <use xlink:href="#DejaVuSans-54"/>
       <use x="63.623047" xlink:href="#DejaVuSans-48"/>
       <use x="127.246094" xlink:href="#DejaVuSans-48"/>
       <use x="190.869141" xlink:href="#DejaVuSans-48"/>
       <use x="254.492188" xlink:href="#DejaVuSans-48"/>
       <use x="318.115234" xlink:href="#DejaVuSans-48"/>
      </g>
     </g>
    </g>
    <g id="ytick_5">
     <g id="line2d_5">
      <path clip-path="url(#p70c586dbe7)" d="M 63.508125 167.665147 
L 985.223125 167.665147 
" style="fill:none;stroke:#dedede;stroke-linecap:square;"/>
     </g>
     <g id="text_12">
      <!-- 800000 -->
      <g transform="translate(25.968125 170.704522)scale(0.08 -0.08)">
       <use xlink:href="#DejaVuSans-56"/>
       <use x="63.623047" xlink:href="#DejaVuSans-48"/>
       <use x="127.246094" xlink:href="#DejaVuSans-48"/>
       <use x="190.869141" xlink:href="#DejaVuSans-48"/>
       <use x="254.492188" xlink:href="#DejaVuSans-48"/>
       <use x="318.115234" xlink:href="#DejaVuSans-48"/>
      </g>
     </g>
    </g>
    <g id="ytick_6">
     <g id="line2d_6">
      <path clip-path="url(#p70c586dbe7)" d="M 63.508125 121.275458 
L 985.223125 121.275458 
" style="fill:none;stroke:#dedede;stroke-linecap:square;"/>
     </g>
     <g id="text_13">
      <!-- 1000000 -->
      <g transform="translate(20.878125 124.314833)scale(0.08 -0.08)">
       <use xlink:href="#DejaVuSans-49"/>
       <use x="63.623047" xlink:href="#DejaVuSans-48"/>
       <use x="127.246094" xlink:href="#DejaVuSans-48"/>
       <use x="190.869141" xlink:href="#DejaVuSans-48"/>
       <use x="254.492188" xlink:href="#DejaVuSans-48"/>
       <use x="318.115234" xlink:href="#DejaVuSans-48"/>
       <use x="381.738281" xlink:href="#DejaVuSans-48"/>
      </g>
     </g>
    </g>
    <g id="ytick_7">
     <g id="line2d_7">
      <path clip-path="url(#p70c586dbe7)" d="M 63.508125 74.88577 
L 985.223125 74.88577 
" style="fill:none;stroke:#dedede;stroke-linecap:square;"/>
     </g>
     <g id="text_14">
      <!-- 1200000 -->
      <g transform="translate(20.878125 77.925145)scale(0.08 -0.08)">
       <use xlink:href="#DejaVuSans-49"/>
       <use x="63.623047" xlink:href="#DejaVuSans-50"/>
       <use x="127.246094" xlink:href="#DejaVuSans-48"/>
       <use x="190.869141" xlink:href="#DejaVuSans-48"/>
       <use x="254.492188" xlink:href="#DejaVuSans-48"/>
       <use x="318.115234" xlink:href="#DejaVuSans-48"/>
       <use x="381.738281" xlink:href="#DejaVuSans-48"/>
      </g>
     </g>
    </g>
    <g id="text_15">
     <!-- Count -->
     <defs>
      <path d="M 30.609375 48.390625 
Q 23.390625 48.390625 19.1875 42.75 
Q 14.984375 37.109375 14.984375 27.296875 
Q 14.984375 17.484375 19.15625 11.84375 
Q 23.34375 6.203125 30.609375 6.203125 
Q 37.796875 6.203125 41.984375 11.859375 
Q 46.1875 17.53125 46.1875 27.296875 
Q 46.1875 37.015625 41.984375 42.703125 
Q 37.796875 48.390625 30.609375 48.390625 
z
M 30.609375 56 
Q 42.328125 56 49.015625 48.375 
Q 55.71875 40.765625 55.71875 27.296875 
Q 55.71875 13.875 49.015625 6.21875 
Q 42.328125 -1.421875 30.609375 -1.421875 
Q 18.84375 -1.421875 12.171875 6.21875 
Q 5.515625 13.875 5.515625 27.296875 
Q 5.515625 40.765625 12.171875 48.375 
Q 18.84375 56 30.609375 56 
z
" id="DejaVuSans-111"/>
      <path d="M 8.5 21.578125 
L 8.5 54.6875 
L 17.484375 54.6875 
L 17.484375 21.921875 
Q 17.484375 14.15625 20.5 10.265625 
Q 23.53125 6.390625 29.59375 6.390625 
Q 36.859375 6.390625 41.078125 11.03125 
Q 45.3125 15.671875 45.3125 23.6875 
L 45.3125 54.6875 
L 54.296875 54.6875 
L 54.296875 0 
L 45.3125 0 
L 45.3125 8.40625 
Q 42.046875 3.421875 37.71875 1 
Q 33.40625 -1.421875 27.6875 -1.421875 
Q 18.265625 -1.421875 13.375 4.4375 
Q 8.5 10.296875 8.5 21.578125 
z
M 31.109375 56 
z
" id="DejaVuSans-117"/>
      <path d="M 54.890625 33.015625 
L 54.890625 0 
L 45.90625 0 
L 45.90625 32.71875 
Q 45.90625 40.484375 42.875 44.328125 
Q 39.84375 48.1875 33.796875 48.1875 
Q 26.515625 48.1875 22.3125 43.546875 
Q 18.109375 38.921875 18.109375 30.90625 
L 18.109375 0 
L 9.078125 0 
L 9.078125 54.6875 
L 18.109375 54.6875 
L 18.109375 46.1875 
Q 21.34375 51.125 25.703125 53.5625 
Q 30.078125 56 35.796875 56 
Q 45.21875 56 50.046875 50.171875 
Q 54.890625 44.34375 54.890625 33.015625 
z
" id="DejaVuSans-110"/>
      <path d="M 18.3125 70.21875 
L 18.3125 54.6875 
L 36.8125 54.6875 
L 36.8125 47.703125 
L 18.3125 47.703125 
L 18.3125 18.015625 
Q 18.3125 11.328125 20.140625 9.421875 
Q 21.96875 7.515625 27.59375 7.515625 
L 36.8125 7.515625 
L 36.8125 0 
L 27.59375 0 
Q 17.1875 0 13.234375 3.875 
Q 9.28125 7.765625 9.28125 18.015625 
L 9.28125 47.703125 
L 2.6875 47.703125 
L 2.6875 54.6875 
L 9.28125 54.6875 
L 9.28125 70.21875 
z
" id="DejaVuSans-116"/>
     </defs>
     <g transform="translate(14.798438 209.088338)rotate(-90)scale(0.1 -0.1)">
      <use xlink:href="#DejaVuSans-67"/>
      <use x="69.824219" xlink:href="#DejaVuSans-111"/>
      <use x="131.005859" xlink:href="#DejaVuSans-117"/>
      <use x="194.384766" xlink:href="#DejaVuSans-110"/>
      <use x="257.763672" xlink:href="#DejaVuSans-116"/>
     </g>
    </g>
   </g>
   <g id="line2d_8">
    <path clip-path="url(#p70c586dbe7)" d="M 63.508125 353.223668 
L 72.725275 353.223436 
L 81.942425 353.223552 
L 91.159575 353.2239 
L 100.376725 353.22332 
L 109.593875 353.22216 
L 118.811025 353.220885 
L 128.028175 353.220305 
L 137.245325 353.216246 
L 146.462475 353.210563 
L 155.679625 353.204764 
L 164.896775 353.195718 
L 174.113925 353.179018 
L 183.331075 353.148749 
L 192.548225 353.102591 
L 201.765375 353.036718 
L 210.982525 352.915756 
L 220.199675 352.68404 
L 229.416825 352.269316 
L 238.633975 351.529981 
L 247.851125 350.326748 
L 257.068275 348.696846 
L 266.285425 346.757293 
L 275.502575 344.259789 
L 284.719725 340.956495 
L 293.936875 336.719145 
L 303.154025 331.82596 
L 312.371175 326.557831 
L 321.588325 320.431261 
L 330.805475 313.734678 
L 340.022625 306.433985 
L 349.239775 298.036175 
L 358.456925 288.592742 
L 367.674075 278.554014 
L 376.891225 266.845025 
L 386.108375 253.317212 
L 395.325525 238.995903 
L 404.542675 224.775144 
L 413.759825 212.729366 
L 422.976975 203.863484 
L 432.194125 197.326945 
L 441.411275 190.580145 
L 450.628425 182.796535 
L 459.845575 175.647536 
L 469.062725 171.928243 
L 478.279875 172.738323 
L 487.497025 177.750265 
L 496.714175 185.984319 
L 505.931325 195.153472 
L 515.148475 205.054656 
L 524.365625 214.653378 
L 533.582775 225.964576 
L 542.799925 239.037306 
L 552.017075 250.796164 
L 561.234225 262.286542 
L 570.451375 273.30734 
L 579.668525 283.276252 
L 588.885675 292.132392 
L 598.102825 299.87054 
L 607.319975 306.513311 
L 616.537125 311.856243 
L 625.754275 316.299796 
L 634.971425 320.010507 
L 644.188575 323.052395 
L 653.405725 325.697767 
L 662.622875 327.799451 
L 671.840025 329.665825 
L 681.057175 331.2527 
L 690.274325 332.727544 
L 699.491475 334.391658 
L 708.708625 336.081171 
L 717.925775 337.856968 
L 727.142925 339.785851 
L 736.360075 341.68922 
L 745.577225 343.536921 
L 754.794375 345.339045 
L 764.011525 346.981124 
L 773.228675 348.34672 
L 782.445825 349.47283 
L 791.662975 350.35493 
L 800.880125 351.115721 
L 810.097275 351.831629 
L 819.314425 352.345859 
L 828.531575 352.6852 
L 837.748725 352.897085 
L 846.965875 353.031383 
L 856.183025 353.120915 
L 865.400175 353.170552 
L 874.617325 353.19479 
L 883.834475 353.207896 
L 893.051625 353.216362 
L 902.268775 353.220189 
L 911.485925 353.220885 
L 920.703075 353.221928 
L 929.920225 353.223204 
L 939.137375 353.223552 
L 948.354525 353.223552 
L 957.571675 353.223784 
L 966.788825 353.2239 
L 976.005975 353.223784 
L 985.223125 353.223668 
" style="fill:none;stroke:#5cb85c;stroke-linecap:square;"/>
   </g>
   <g id="line2d_9">
    <path clip-path="url(#p70c586dbe7)" d="M 63.508125 353.2239 
L 72.725275 353.223436 
L 81.942425 353.222624 
L 91.159575 353.221581 
L 100.376725 353.218797 
L 109.593875 353.215202 
L 118.811025 353.212651 
L 128.028175 353.209287 
L 137.245325 353.202909 
L 146.462475 353.193863 
L 155.679625 353.184469 
L 164.896775 353.169392 
L 174.113925 353.15304 
L 183.331075 353.123582 
L 192.548225 353.068495 
L 201.765375 352.995547 
L 210.982525 352.874702 
L 220.199675 352.651567 
L 229.416825 352.219679 
L 238.633975 351.460512 
L 247.851125 350.260063 
L 257.068275 348.664374 
L 266.285425 346.716355 
L 275.502575 344.142075 
L 284.719725 340.876473 
L 293.936875 336.800443 
L 303.154025 331.955388 
L 312.371175 326.667891 
L 321.588325 320.728851 
L 330.805475 314.069379 
L 340.022625 306.623139 
L 349.239775 298.121532 
L 358.456925 288.535335 
L 367.674075 278.38214 
L 376.891225 266.688227 
L 386.108375 253.201121 
L 395.325525 238.863228 
L 404.542675 224.651747 
L 413.759825 212.739223 
L 422.976975 204.005089 
L 432.194125 197.21503 
L 441.411275 190.194067 
L 450.628425 182.295063 
L 459.845575 175.582939 
L 469.062725 172.413247 
L 478.279875 173.520337 
L 487.497025 178.80621 
L 496.714175 186.597474 
L 505.931325 195.311893 
L 515.148475 204.862254 
L 524.365625 214.529633 
L 533.582775 226.023491 
L 542.799925 238.769289 
L 552.017075 250.605038 
L 561.234225 262.283179 
L 570.451375 273.17397 
L 579.668525 283.06286 
L 588.885675 292.073013 
L 598.102825 299.891183 
L 607.319975 306.445466 
L 616.537125 311.745024 
L 625.754275 316.199246 
L 634.971425 319.944749 
L 644.188575 323.054018 
L 653.405725 325.702638 
L 662.622875 327.833084 
L 671.840025 329.680321 
L 681.057175 331.217908 
L 690.274325 332.758857 
L 699.491475 334.410562 
L 708.708625 336.084418 
L 717.925775 337.892108 
L 727.142925 339.72079 
L 736.360075 341.632625 
L 745.577225 343.547475 
L 754.794375 345.313994 
L 764.011525 346.940417 
L 773.228675 348.320046 
L 782.445825 349.425048 
L 791.662975 350.327676 
L 800.880125 351.096585 
L 810.097275 351.759494 
L 819.314425 352.283117 
L 828.531575 352.646696 
L 837.748725 352.87215 
L 846.965875 353.013639 
L 856.183025 353.107114 
L 865.400175 353.159186 
L 874.617325 353.183773 
L 883.834475 353.200589 
L 893.051625 353.210331 
L 902.268775 353.21555 
L 911.485925 353.217869 
L 920.703075 353.219725 
L 929.920225 353.220885 
L 939.137375 353.222044 
L 948.354525 353.222972 
L 957.571675 353.223552 
L 966.788825 353.223552 
L 976.005975 353.223436 
L 985.223125 353.223436 
" style="fill:none;stroke:#5cb85c;stroke-linecap:square;"/>
   </g>
   <g id="line2d_10">
    <path clip-path="url(#p70c586dbe7)" d="M 63.508125 353.223668 
L 72.725275 353.223784 
L 81.942425 353.223784 
L 91.159575 353.222972 
L 100.376725 353.221812 
L 109.593875 353.220653 
L 118.811025 353.21613 
L 128.028175 353.205344 
L 137.245325 353.190152 
L 146.462475 353.172291 
L 155.679625 353.143182 
L 164.896775 353.094705 
L 174.113925 353.018974 
L 183.331075 352.901376 
L 192.548225 352.734141 
L 201.765375 352.494306 
L 210.982525 352.076915 
L 220.199675 351.425372 
L 229.416825 350.361772 
L 238.633975 348.697426 
L 247.851125 346.363909 
L 257.068275 343.29987 
L 266.285425 339.476896 
L 275.502575 334.483394 
L 284.719725 327.960656 
L 293.936875 319.719064 
L 303.154025 309.918314 
L 312.371175 298.616046 
L 321.588325 284.649503 
L 330.805475 268.838621 
L 340.022625 251.36293 
L 349.239775 231.418495 
L 358.456925 209.458545 
L 367.674075 187.38088 
L 376.891225 163.112811 
L 386.108375 137.378363 
L 395.325525 113.702342 
L 404.542675 92.628086 
L 413.759825 75.63102 
L 422.976975 63.227113 
L 432.194125 55.952399 
L 441.411275 51.858161 
L 450.628425 50.397233 
L 459.845575 52.64377 
L 469.062725 59.530203 
L 478.279875 71.403528 
L 487.497025 87.453896 
L 496.714175 105.770981 
L 505.931325 125.395211 
L 515.148475 146.058801 
L 524.365625 164.391426 
L 533.582775 184.380395 
L 542.799925 205.898252 
L 552.017075 224.014701 
L 561.234225 241.036817 
L 570.451375 256.79064 
L 579.668525 270.692817 
L 588.885675 282.885535 
L 598.102825 293.451714 
L 607.319975 302.409911 
L 616.537125 309.682886 
L 625.754275 315.803774 
L 634.971425 320.968222 
L 644.188575 325.571935 
L 653.405725 329.701545 
L 662.622875 332.778457 
L 671.840025 335.211016 
L 681.057175 337.249263 
L 690.274325 339.04466 
L 699.491475 340.676185 
L 708.708625 342.0862 
L 717.925775 343.414221 
L 727.142925 344.747808 
L 736.360075 346.098444 
L 745.577225 347.288107 
L 754.794375 348.355766 
L 764.011525 349.319048 
L 773.228675 350.10199 
L 782.445825 350.727439 
L 791.662975 351.211979 
L 800.880125 351.665322 
L 810.097275 352.127712 
L 819.314425 352.495118 
L 828.531575 352.756176 
L 837.748725 352.935936 
L 846.965875 353.038689 
L 856.183025 353.109433 
L 865.400175 353.154663 
L 874.617325 353.181569 
L 883.834475 353.200937 
L 893.051625 353.212882 
L 902.268775 353.217405 
L 911.485925 353.219377 
L 920.703075 353.220653 
L 929.920225 353.221812 
L 939.137375 353.222392 
L 948.354525 353.223088 
L 957.571675 353.223784 
L 966.788825 353.2239 
L 976.005975 353.2239 
L 985.223125 353.2239 
" style="fill:none;stroke:#5cb85c;stroke-linecap:square;"/>
   </g>
   <g id="line2d_11">
    <path clip-path="url(#p70c586dbe7)" d="M 63.508125 353.223204 
L 72.725275 353.222856 
L 81.942425 353.220885 
L 91.159575 353.218797 
L 100.376725 353.215318 
L 109.593875 353.206156 
L 118.811025 353.193399 
L 128.028175 353.179018 
L 137.245325 353.160346 
L 146.462475 353.135644 
L 155.679625 353.097604 
L 164.896775 353.040313 
L 174.113925 352.961566 
L 183.331075 352.832835 
L 192.548225 352.641709 
L 201.765375 352.366387 
L 210.982525 351.930903 
L 220.199675 351.24248 
L 229.416825 350.161833 
L 238.633975 348.537614 
L 247.851125 346.184961 
L 257.068275 343.121386 
L 266.285425 339.283335 
L 275.502575 334.22164 
L 284.719725 327.736825 
L 293.936875 319.68949 
L 303.154025 310.060267 
L 312.371175 298.834542 
L 321.588325 285.041032 
L 330.805475 269.415129 
L 340.022625 252.120706 
L 349.239775 232.207932 
L 358.456925 210.208434 
L 367.674075 188.181798 
L 376.891225 164.093025 
L 386.108375 138.464577 
L 395.325525 114.922622 
L 404.542675 93.851382 
L 413.759825 76.351684 
L 422.976975 63.579443 
L 432.194125 55.991598 
L 441.411275 51.875209 
L 450.628425 50.400017 
L 459.845575 52.514111 
L 469.062725 59.392426 
L 478.279875 71.337771 
L 487.497025 87.528352 
L 496.714175 105.569881 
L 505.931325 124.930386 
L 515.148475 145.667156 
L 524.365625 164.175946 
L 533.582775 183.930879 
L 542.799925 205.16831 
L 552.017075 223.413491 
L 561.234225 240.626848 
L 570.451375 256.37464 
L 579.668525 270.276586 
L 588.885675 282.632827 
L 598.102825 293.159459 
L 607.319975 302.098984 
L 616.537125 309.432498 
L 625.754275 315.615896 
L 634.971425 320.78104 
L 644.188575 325.387304 
L 653.405725 329.582903 
L 662.622875 332.729516 
L 671.840025 335.209624 
L 681.057175 337.133521 
L 690.274325 338.887747 
L 699.491475 340.594887 
L 708.708625 342.054307 
L 717.925775 343.358089 
L 727.142925 344.700723 
L 736.360075 346.030483 
L 745.577225 347.22293 
L 754.794375 348.324453 
L 764.011525 349.242853 
L 773.228675 350.050497 
L 782.445825 350.737761 
L 791.662975 351.235638 
L 800.880125 351.66799 
L 810.097275 352.090252 
L 819.314425 352.451048 
L 828.531575 352.728922 
L 837.748725 352.91796 
L 846.965875 353.027672 
L 856.183025 353.096212 
L 865.400175 353.140862 
L 874.617325 353.172639 
L 883.834475 353.194443 
L 893.051625 353.204996 
L 902.268775 353.211839 
L 911.485925 353.216362 
L 920.703075 353.218217 
L 929.920225 353.219841 
L 939.137375 353.221349 
L 948.354525 353.222508 
L 957.571675 353.223668 
L 966.788825 353.2239 
L 976.005975 353.2239 
L 985.223125 353.2239 
" style="fill:none;stroke:#5cb85c;stroke-linecap:square;"/>
   </g>
   <g id="line2d_12">
    <path clip-path="url(#p70c586dbe7)" d="M 63.508125 353.223436 
L 72.725275 353.223668 
L 81.942425 353.2239 
L 91.159575 353.223088 
L 100.376725 353.22216 
L 109.593875 353.221001 
L 118.811025 353.218217 
L 128.028175 353.212651 
L 137.245325 353.20372 
L 146.462475 353.191079 
L 155.679625 353.170784 
L 164.896775 353.140051 
L 174.113925 353.091921 
L 183.331075 353.006564 
L 192.548225 352.882588 
L 201.765375 352.683112 
L 210.982525 352.318837 
L 220.199675 351.727485 
L 229.416825 350.746227 
L 238.633975 349.222094 
L 247.851125 347.04143 
L 257.068275 344.114473 
L 266.285425 340.430784 
L 275.502575 335.599298 
L 284.719725 329.522133 
L 293.936875 321.853221 
L 303.154025 312.560207 
L 312.371175 302.09075 
L 321.588325 289.509751 
L 330.805475 275.54773 
L 340.022625 260.555627 
L 349.239775 243.98697 
L 358.456925 226.21508 
L 367.674075 208.744143 
L 376.891225 189.694682 
L 386.108375 169.499743 
L 395.325525 150.892259 
L 404.542675 135.195496 
L 413.759825 123.306283 
L 422.976975 115.03419 
L 432.194125 111.267463 
L 441.411275 109.964261 
L 450.628425 110.326332 
L 459.845575 113.409855 
L 469.062725 119.786697 
L 478.279875 130.250703 
L 487.497025 144.183846 
L 496.714175 159.269309 
L 505.931325 175.02058 
L 515.148475 191.559663 
L 524.365625 205.883291 
L 533.582775 221.217751 
L 542.799925 237.846714 
L 552.017075 251.788323 
L 561.234225 265.068415 
L 570.451375 277.389285 
L 579.668525 288.213971 
L 588.885675 297.590718 
L 598.102825 305.58111 
L 607.319975 312.660641 
L 616.537125 318.609306 
L 625.754275 323.411915 
L 634.971425 327.341817 
L 644.188575 330.814665 
L 653.405725 333.899811 
L 662.622875 336.3638 
L 671.840025 338.397292 
L 681.057175 339.889184 
L 690.274325 341.315087 
L 699.491475 342.747833 
L 708.708625 343.949442 
L 717.925775 345.115562 
L 727.142925 346.301979 
L 736.360075 347.447688 
L 745.577225 348.463158 
L 754.794375 349.336908 
L 764.011525 350.095727 
L 773.228675 350.779395 
L 782.445825 351.360658 
L 791.662975 351.801012 
L 800.880125 352.191729 
L 810.097275 352.540232 
L 819.314425 352.768353 
L 828.531575 352.914713 
L 837.748725 353.030571 
L 846.965875 353.114536 
L 856.183025 353.158491 
L 865.400175 353.183193 
L 874.617325 353.200241 
L 883.834475 353.208243 
L 893.051625 353.214622 
L 902.268775 353.219029 
L 911.485925 353.221349 
L 920.703075 353.222624 
L 929.920225 353.22332 
L 939.137375 353.223668 
L 948.354525 353.223668 
L 957.571675 353.223668 
L 966.788825 353.223668 
L 976.005975 353.223784 
L 985.223125 353.2239 
" style="fill:none;stroke:#5cb85c;stroke-linecap:square;"/>
   </g>
   <g id="line2d_13">
    <path clip-path="url(#p70c586dbe7)" d="M 63.508125 353.223204 
L 72.725275 353.222624 
L 81.942425 353.221812 
L 91.159575 353.219841 
L 100.376725 353.216362 
L 109.593875 353.212535 
L 118.811025 353.208128 
L 128.028175 353.19827 
L 137.245325 353.185629 
L 146.462475 353.168928 
L 155.679625 353.139587 
L 164.896775 353.102707 
L 174.113925 353.055853 
L 183.331075 352.974208 
L 192.548225 352.828776 
L 201.765375 352.604366 
L 210.982525 352.231393 
L 220.199675 351.634241 
L 229.416825 350.629441 
L 238.633975 349.053583 
L 247.851125 346.849957 
L 257.068275 343.964054 
L 266.285425 340.318521 
L 275.502575 335.488426 
L 284.719725 329.457535 
L 293.936875 321.934751 
L 303.154025 312.783921 
L 312.371175 302.447951 
L 321.588325 289.892002 
L 330.805475 275.894145 
L 340.022625 261.012333 
L 349.239775 244.359827 
L 358.456925 226.584806 
L 367.674075 209.072119 
L 376.891225 189.864468 
L 386.108375 169.833633 
L 395.325525 151.550413 
L 404.542675 135.894937 
L 413.759825 123.725298 
L 422.976975 115.370631 
L 432.194125 111.445483 
L 441.411275 109.850606 
L 450.628425 109.925409 
L 459.845575 113.089534 
L 469.062725 120.010643 
L 478.279875 130.382102 
L 487.497025 143.882777 
L 496.714175 158.905266 
L 505.931325 174.800808 
L 515.148475 191.378396 
L 524.365625 205.805705 
L 533.582775 221.060838 
L 542.799925 237.412739 
L 552.017075 251.426136 
L 561.234225 264.795296 
L 570.451375 277.23214 
L 579.668525 288.067263 
L 588.885675 297.354595 
L 598.102825 305.435679 
L 607.319975 312.614599 
L 616.537125 318.551783 
L 625.754275 323.394866 
L 634.971425 327.38264 
L 644.188575 330.829626 
L 653.405725 333.898188 
L 662.622875 336.345244 
L 671.840025 338.391609 
L 681.057175 339.901361 
L 690.274325 341.271713 
L 699.491475 342.689382 
L 708.708625 343.892498 
L 717.925775 345.117998 
L 727.142925 346.317055 
L 736.360075 347.389701 
L 745.577225 348.407607 
L 754.794375 349.313365 
L 764.011525 350.105933 
L 773.228675 350.780787 
L 782.445825 351.322387 
L 791.662975 351.785588 
L 800.880125 352.196484 
L 810.097275 352.508455 
L 819.314425 352.722196 
L 828.531575 352.892678 
L 837.748725 353.024656 
L 846.965875 353.103751 
L 856.183025 353.15304 
L 865.400175 353.185513 
L 874.617325 353.197342 
L 883.834475 353.204764 
L 893.051625 353.211259 
L 902.268775 353.216014 
L 911.485925 353.219145 
L 920.703075 353.221233 
L 929.920225 353.22274 
L 939.137375 353.22332 
L 948.354525 353.22332 
L 957.571675 353.22332 
L 966.788825 353.223552 
L 976.005975 353.223784 
L 985.223125 353.2239 
" style="fill:none;stroke:#5cb85c;stroke-linecap:square;"/>
   </g>
   <g id="line2d_14">
    <path clip-path="url(#p70c586dbe7)" d="M 63.508125 353.223668 
L 72.725275 353.223784 
L 81.942425 353.223668 
L 91.159575 353.222972 
L 100.376725 353.22216 
L 109.593875 353.217753 
L 118.811025 353.212766 
L 128.028175 353.207084 
L 137.245325 353.193051 
L 146.462475 353.174495 
L 155.679625 353.145154 
L 164.896775 353.098764 
L 174.113925 353.034166 
L 183.331075 352.920859 
L 192.548225 352.751537 
L 201.765375 352.505324 
L 210.982525 352.10904 
L 220.199675 351.47756 
L 229.416825 350.489112 
L 238.633975 348.885884 
L 247.851125 346.506905 
L 257.068275 343.389054 
L 266.285425 339.321838 
L 275.502575 333.964757 
L 284.719725 327.131092 
L 293.936875 318.415861 
L 303.154025 307.850494 
L 312.371175 295.619852 
L 321.588325 281.057317 
L 330.805475 265.142291 
L 340.022625 248.076684 
L 349.239775 228.977702 
L 358.456925 208.600683 
L 367.674075 188.519747 
L 376.891225 167.007689 
L 386.108375 144.838869 
L 395.325525 124.357821 
L 404.542675 106.138503 
L 413.759825 91.830068 
L 422.976975 81.863011 
L 432.194125 76.504422 
L 441.411275 74.254986 
L 450.628425 74.140056 
L 459.845575 77.096355 
L 469.062725 84.615659 
L 478.279875 96.809073 
L 487.497025 112.613924 
L 496.714175 130.044965 
L 505.931325 148.50377 
L 515.148475 167.793878 
L 524.365625 184.979634 
L 533.582775 203.340093 
L 542.799925 223.122627 
L 552.017075 240.036192 
L 561.234225 255.342817 
L 570.451375 269.354127 
L 579.668525 281.590799 
L 588.885675 292.26785 
L 598.102825 301.361968 
L 607.319975 309.047232 
L 616.537125 315.444834 
L 625.754275 320.709483 
L 634.971425 325.041816 
L 644.188575 328.659632 
L 653.405725 331.989368 
L 662.622875 334.674867 
L 671.840025 336.818883 
L 681.057175 338.439274 
L 690.274325 339.914582 
L 699.491475 341.46539 
L 708.708625 342.829247 
L 717.925775 344.155296 
L 727.142925 345.417443 
L 736.360075 346.614877 
L 745.577225 347.769516 
L 754.794375 348.735814 
L 764.011525 349.535804 
L 773.228675 350.291376 
L 782.445825 350.903372 
L 791.662975 351.371096 
L 800.880125 351.842183 
L 810.097275 352.316866 
L 819.314425 352.634751 
L 828.531575 352.81683 
L 837.748725 352.965741 
L 846.965875 353.067451 
L 856.183025 353.127873 
L 865.400175 353.169276 
L 874.617325 353.193167 
L 883.834475 353.206504 
L 893.051625 353.214042 
L 902.268775 353.217753 
L 911.485925 353.219841 
L 920.703075 353.221928 
L 929.920225 353.222856 
L 939.137375 353.22332 
L 948.354525 353.223668 
L 957.571675 353.223784 
L 966.788825 353.223784 
L 976.005975 353.223668 
L 985.223125 353.223668 
" style="fill:none;stroke:#5cb85c;stroke-linecap:square;"/>
   </g>
   <g id="line2d_15">
    <path clip-path="url(#p70c586dbe7)" d="M 63.508125 353.223204 
L 72.725275 353.222508 
L 81.942425 353.221349 
L 91.159575 353.218797 
L 100.376725 353.214158 
L 109.593875 353.204184 
L 118.811025 353.196066 
L 128.028175 353.185629 
L 137.245325 353.165681 
L 146.462475 353.139007 
L 155.679625 353.099692 
L 164.896775 353.052606 
L 174.113925 352.987429 
L 183.331075 352.861828 
L 192.548225 352.682648 
L 201.765375 352.421126 
L 210.982525 351.984136 
L 220.199675 351.355787 
L 229.416825 350.355162 
L 238.633975 348.711343 
L 247.851125 346.355095 
L 257.068275 343.268325 
L 266.285425 339.257588 
L 275.502575 333.910017 
L 284.719725 327.091313 
L 293.936875 318.511772 
L 303.154025 308.091372 
L 312.371175 295.935882 
L 321.588325 281.544293 
L 330.805475 265.92129 
L 340.022625 248.919469 
L 349.239775 229.663573 
L 358.456925 209.344658 
L 367.674075 189.574185 
L 376.891225 168.408773 
L 386.108375 146.041753 
L 395.325525 125.240037 
L 404.542675 107.124284 
L 413.759825 92.540294 
L 422.976975 82.373298 
L 432.194125 76.769887 
L 441.411275 73.962847 
L 450.628425 73.988129 
L 459.845575 77.020855 
L 469.062725 84.528215 
L 478.279875 96.663177 
L 487.497025 112.225874 
L 496.714175 129.670948 
L 505.931325 147.796327 
L 515.148475 167.00363 
L 524.365625 184.620926 
L 533.582775 203.112551 
L 542.799925 222.547279 
L 552.017075 239.290478 
L 561.234225 254.758655 
L 570.451375 268.842681 
L 579.668525 281.101736 
L 588.885675 291.796414 
L 598.102825 301.084906 
L 607.319975 308.926735 
L 616.537125 315.286297 
L 625.754275 320.494351 
L 634.971425 324.776699 
L 644.188575 328.517564 
L 653.405725 331.867247 
L 662.622875 334.540685 
L 671.840025 336.723436 
L 681.057175 338.325388 
L 690.274325 339.815193 
L 699.491475 341.40949 
L 708.708625 342.83145 
L 717.925775 344.121199 
L 727.142925 345.32188 
L 736.360075 346.542625 
L 745.577225 347.670358 
L 754.794375 348.63538 
L 764.011525 349.518408 
L 773.228675 350.282446 
L 782.445825 350.882265 
L 791.662975 351.358223 
L 800.880125 351.81029 
L 810.097275 352.242874 
L 819.314425 352.562267 
L 828.531575 352.790852 
L 837.748725 352.960407 
L 846.965875 353.054346 
L 856.183025 353.114884 
L 865.400175 353.157795 
L 874.617325 353.183193 
L 883.834475 353.200009 
L 893.051625 353.211027 
L 902.268775 353.215202 
L 911.485925 353.21671 
L 920.703075 353.218913 
L 929.920225 353.221001 
L 939.137375 353.222044 
L 948.354525 353.22274 
L 957.571675 353.22332 
L 966.788825 353.223436 
L 976.005975 353.223436 
L 985.223125 353.223552 
" style="fill:none;stroke:#5cb85c;stroke-linecap:square;"/>
   </g>
   <g id="line2d_16">
    <path clip-path="url(#p70c586dbe7)" d="M 63.508125 353.2239 
L 72.725275 353.2239 
L 81.942425 353.223552 
L 91.159575 353.223436 
L 100.376725 353.223552 
L 109.593875 353.222856 
L 118.811025 353.221349 
L 128.028175 353.218913 
L 137.245325 353.213578 
L 146.462475 353.206736 
L 155.679625 353.19711 
L 164.896775 353.17983 
L 174.113925 353.151532 
L 183.331075 353.113609 
L 192.548225 353.053882 
L 201.765375 352.94707 
L 210.982525 352.752465 
L 220.199675 352.417183 
L 229.416825 351.827686 
L 238.633975 350.837035 
L 247.851125 349.260365 
L 257.068275 346.992489 
L 266.285425 343.877769 
L 275.502575 339.568979 
L 284.719725 333.863627 
L 293.936875 326.410428 
L 303.154025 317.172734 
L 312.371175 306.306645 
L 321.588325 293.426664 
L 330.805475 279.377547 
L 340.022625 264.353087 
L 349.239775 248.237773 
L 358.456925 231.169267 
L 367.674075 214.767381 
L 376.891225 198.110931 
L 386.108375 181.238074 
L 395.325525 166.497866 
L 404.542675 154.352002 
L 413.759825 145.216944 
L 422.976975 139.972358 
L 432.194125 138.809949 
L 441.411275 139.534788 
L 450.628425 141.927336 
L 459.845575 146.388168 
L 469.062725 153.603388 
L 478.279875 163.911873 
L 487.497025 177.277902 
L 496.714175 191.897612 
L 505.931325 206.467685 
L 515.148475 221.442509 
L 524.365625 234.34151 
L 533.582775 247.350338 
L 542.799925 260.999924 
L 552.017075 272.623556 
L 561.234225 283.790018 
L 570.451375 293.922686 
L 579.668525 302.436585 
L 588.885675 309.966791 
L 598.102825 316.669174 
L 607.319975 322.460346 
L 616.537125 327.29392 
L 625.754275 331.392101 
L 634.971425 334.595773 
L 644.188575 337.246248 
L 653.405725 339.641115 
L 662.622875 341.475016 
L 671.840025 343.003208 
L 681.057175 344.241697 
L 690.274325 345.310747 
L 699.491475 346.366692 
L 708.708625 347.351777 
L 717.925775 348.203608 
L 727.142925 348.991073 
L 736.360075 349.753951 
L 745.577225 350.456407 
L 754.794375 351.075246 
L 764.011525 351.58414 
L 773.228675 351.997125 
L 782.445825 352.333798 
L 791.662975 352.589869 
L 800.880125 352.774964 
L 810.097275 352.928746 
L 819.314425 353.03405 
L 828.531575 353.103635 
L 837.748725 353.15246 
L 846.965875 353.181917 
L 856.183025 353.196646 
L 865.400175 353.205924 
L 874.617325 353.214042 
L 883.834475 353.218217 
L 893.051625 353.220073 
L 902.268775 353.221696 
L 911.485925 353.222856 
L 920.703075 353.223436 
L 929.920225 353.22332 
L 939.137375 353.223552 
L 948.354525 353.223784 
L 957.571675 353.2239 
L 966.788825 353.2239 
L 976.005975 353.2239 
L 985.223125 353.2239 
" style="fill:none;stroke:#5cb85c;stroke-linecap:square;"/>
   </g>
   <g id="line2d_17">
    <path clip-path="url(#p70c586dbe7)" d="M 63.508125 353.223668 
L 72.725275 353.223436 
L 81.942425 353.222972 
L 91.159575 353.222276 
L 100.376725 353.218797 
L 109.593875 353.214274 
L 118.811025 353.210911 
L 128.028175 353.204648 
L 137.245325 353.194674 
L 146.462475 353.184353 
L 155.679625 353.172523 
L 164.896775 353.149676 
L 174.113925 353.115812 
L 183.331075 353.071394 
L 192.548225 353.003781 
L 201.765375 352.876325 
L 210.982525 352.661541 
L 220.199675 352.33403 
L 229.416825 351.72876 
L 238.633975 350.70378 
L 247.851125 349.134301 
L 257.068275 346.867701 
L 266.285425 343.806677 
L 275.502575 339.495452 
L 284.719725 333.792883 
L 293.936875 326.443829 
L 303.154025 317.228169 
L 312.371175 306.485245 
L 321.588325 293.733532 
L 330.805475 279.55 
L 340.022625 264.679902 
L 349.239775 248.609818 
L 358.456925 231.372801 
L 367.674075 215.042587 
L 376.891225 198.274455 
L 386.108375 181.414934 
L 395.325525 166.755213 
L 404.542675 154.617699 
L 413.759825 145.723288 
L 422.976975 140.382559 
L 432.194125 138.799511 
L 441.411275 139.580597 
L 450.628425 141.864478 
L 459.845575 146.198318 
L 469.062725 153.534732 
L 478.279875 163.930429 
L 487.497025 177.379147 
L 496.714175 191.776883 
L 505.931325 206.31402 
L 515.148475 221.389741 
L 524.365625 234.343017 
L 533.582775 247.231464 
L 542.799925 260.759625 
L 552.017075 272.481372 
L 561.234225 283.575466 
L 570.451375 293.689114 
L 579.668525 302.328845 
L 588.885675 309.868909 
L 598.102825 316.530352 
L 607.319975 322.393429 
L 616.537125 327.260287 
L 625.754275 331.328199 
L 634.971425 334.559357 
L 644.188575 337.269094 
L 653.405725 339.663846 
L 662.622875 341.463186 
L 671.840025 343.011094 
L 681.057175 344.20041 
L 690.274325 345.257167 
L 699.491475 346.3515 
L 708.708625 347.287296 
L 717.925775 348.164061 
L 727.142925 348.998611 
L 736.360075 349.753719 
L 745.577225 350.465453 
L 754.794375 351.091018 
L 764.011525 351.58646 
L 773.228675 351.995733 
L 782.445825 352.327419 
L 791.662975 352.579315 
L 800.880125 352.770905 
L 810.097275 352.923875 
L 819.314425 353.030107 
L 828.531575 353.102823 
L 837.748725 353.149329 
L 846.965875 353.177162 
L 856.183025 353.195022 
L 865.400175 353.20488 
L 874.617325 353.212419 
L 883.834475 353.216362 
L 893.051625 353.219145 
L 902.268775 353.221581 
L 911.485925 353.222624 
L 920.703075 353.222624 
L 929.920225 353.22274 
L 939.137375 353.223204 
L 948.354525 353.223668 
L 957.571675 353.2239 
L 966.788825 353.2239 
L 976.005975 353.2239 
L 985.223125 353.2239 
" style="fill:none;stroke:#5cb85c;stroke-linecap:square;"/>
   </g>
   <g id="line2d_18">
    <path clip-path="url(#p70c586dbe7)" d="M 63.508125 353.2239 
L 72.725275 353.2239 
L 81.942425 353.223784 
L 91.159575 353.223436 
L 100.376725 353.223204 
L 109.593875 353.222392 
L 118.811025 353.219029 
L 128.028175 353.215202 
L 137.245325 353.207432 
L 146.462475 353.193167 
L 155.679625 353.173567 
L 164.896775 353.141442 
L 174.113925 353.092037 
L 183.331075 353.007608 
L 192.548225 352.863916 
L 201.765375 352.635679 
L 210.982525 352.246121 
L 220.199675 351.619861 
L 229.416825 350.583631 
L 238.633975 348.974141 
L 247.851125 346.60873 
L 257.068275 343.403435 
L 266.285425 339.25005 
L 275.502575 333.586797 
L 284.719725 326.409964 
L 293.936875 317.496534 
L 303.154025 306.881181 
L 312.371175 295.009828 
L 321.588325 281.14337 
L 330.805475 266.477154 
L 340.022625 251.150233 
L 349.239775 234.840895 
L 358.456925 217.979287 
L 367.674075 202.085716 
L 376.891225 185.886436 
L 386.108375 169.442568 
L 395.325525 155.119867 
L 404.542675 143.08789 
L 413.759825 134.54836 
L 422.976975 129.437028 
L 432.194125 128.240522 
L 441.411275 129.545232 
L 450.628425 132.27225 
L 459.845575 137.010957 
L 469.062725 144.468447 
L 478.279875 155.651029 
L 487.497025 169.574198 
L 496.714175 184.294574 
L 505.931325 199.541009 
L 515.148475 215.029598 
L 524.365625 228.616094 
L 533.582775 242.407401 
L 542.799925 256.574696 
L 552.017075 268.980806 
L 561.234225 280.778747 
L 570.451375 291.405117 
L 579.668525 300.414807 
L 588.885675 308.123381 
L 598.102825 314.92956 
L 607.319975 320.935517 
L 616.537125 325.973205 
L 625.754275 330.024185 
L 634.971425 333.135425 
L 644.188575 335.658908 
L 653.405725 337.825887 
L 662.622875 339.42923 
L 671.840025 340.762122 
L 681.057175 341.807862 
L 690.274325 342.721159 
L 699.491475 343.628077 
L 708.708625 344.493477 
L 717.925775 345.489579 
L 727.142925 346.488001 
L 736.360075 347.471579 
L 745.577225 348.424307 
L 754.794375 349.305247 
L 764.011525 350.098163 
L 773.228675 350.805026 
L 782.445825 351.419225 
L 791.662975 351.872336 
L 800.880125 352.238815 
L 810.097275 352.562615 
L 819.314425 352.789924 
L 828.531575 352.940227 
L 837.748725 353.046343 
L 846.965875 353.119987 
L 856.183025 353.162666 
L 865.400175 353.190036 
L 874.617325 353.208243 
L 883.834475 353.215318 
L 893.051625 353.219493 
L 902.268775 353.221812 
L 911.485925 353.222856 
L 920.703075 353.22332 
L 929.920225 353.22332 
L 939.137375 353.222972 
L 948.354525 353.223204 
L 957.571675 353.223668 
L 966.788825 353.2239 
L 976.005975 353.2239 
L 985.223125 353.2239 
" style="fill:none;stroke:#5cb85c;stroke-linecap:square;"/>
   </g>
   <g id="line2d_19">
    <path clip-path="url(#p70c586dbe7)" d="M 63.508125 353.223436 
L 72.725275 353.223088 
L 81.942425 353.222044 
L 91.159575 353.220305 
L 100.376725 353.21613 
L 109.593875 353.210795 
L 118.811025 353.20662 
L 128.028175 353.199893 
L 137.245325 353.189224 
L 146.462475 353.173103 
L 155.679625 353.15072 
L 164.896775 353.11442 
L 174.113925 353.056433 
L 183.331075 352.959015 
L 192.548225 352.811844 
L 201.765375 352.566674 
L 210.982525 352.152646 
L 220.199675 351.540766 
L 229.416825 350.501057 
L 238.633975 348.849468 
L 247.851125 346.459936 
L 257.068275 343.325848 
L 266.285425 339.181045 
L 275.502575 333.500628 
L 284.719725 326.408109 
L 293.936875 317.592908 
L 303.154025 307.090863 
L 312.371175 295.229251 
L 321.588325 281.413822 
L 330.805475 266.855578 
L 340.022625 251.688122 
L 349.239775 235.348398 
L 358.456925 218.480643 
L 367.674075 202.684838 
L 376.891225 186.449723 
L 386.108375 169.793274 
L 395.325525 155.549552 
L 404.542675 143.739665 
L 413.759825 135.038815 
L 422.976975 129.885732 
L 432.194125 128.282041 
L 441.411275 129.137815 
L 450.628425 131.877706 
L 459.845575 136.705017 
L 469.062725 144.364302 
L 478.279875 155.559178 
L 487.497025 169.481071 
L 496.714175 184.226729 
L 505.931325 199.243187 
L 515.148475 214.812842 
L 524.365625 228.50012 
L 533.582775 242.15678 
L 542.799925 256.284992 
L 552.017075 268.73726 
L 561.234225 280.549698 
L 570.451375 291.096974 
L 579.668525 300.128118 
L 588.885675 307.942693 
L 598.102825 314.803728 
L 607.319975 320.86744 
L 616.537125 325.913595 
L 625.754275 329.964922 
L 634.971425 333.120581 
L 644.188575 335.672361 
L 653.405725 337.836672 
L 662.622875 339.439668 
L 671.840025 340.748437 
L 681.057175 341.753702 
L 690.274325 342.665955 
L 699.491475 343.591313 
L 708.708625 344.473645 
L 717.925775 345.454091 
L 727.142925 346.475476 
L 736.360075 347.450355 
L 745.577225 348.392298 
L 754.794375 349.250391 
L 764.011525 350.025331 
L 773.228675 350.777424 
L 782.445825 351.396378 
L 791.662975 351.872452 
L 800.880125 352.247281 
L 810.097275 352.547422 
L 819.314425 352.779255 
L 828.531575 352.946374 
L 837.748725 353.05191 
L 846.965875 353.116392 
L 856.183025 353.16139 
L 865.400175 353.190152 
L 874.617325 353.206852 
L 883.834475 353.214738 
L 893.051625 353.219029 
L 902.268775 353.221465 
L 911.485925 353.222972 
L 920.703075 353.22332 
L 929.920225 353.223204 
L 939.137375 353.222856 
L 948.354525 353.223088 
L 957.571675 353.223552 
L 966.788825 353.2239 
L 976.005975 353.2239 
L 985.223125 353.2239 
" style="fill:none;stroke:#5cb85c;stroke-linecap:square;"/>
   </g>
   <g id="line2d_20">
    <path clip-path="url(#p70c586dbe7)" d="M 63.508125 353.2239 
L 72.725275 353.223784 
L 81.942425 353.223668 
L 91.159575 353.22332 
L 100.376725 353.222972 
L 109.593875 353.222508 
L 118.811025 353.221349 
L 128.028175 353.219609 
L 137.245325 353.218913 
L 146.462475 353.214506 
L 155.679625 353.205576 
L 164.896775 353.191543 
L 174.113925 353.171016 
L 183.331075 353.138775 
L 192.548225 353.086007 
L 201.765375 352.98163 
L 210.982525 352.787605 
L 220.199675 352.472271 
L 229.416825 351.943661 
L 238.633975 351.081044 
L 247.851125 349.783061 
L 257.068275 348.08601 
L 266.285425 345.997314 
L 275.502575 343.250929 
L 284.719725 339.741781 
L 293.936875 335.283616 
L 303.154025 329.695398 
L 312.371175 323.195739 
L 321.588325 315.307868 
L 330.805475 306.405803 
L 340.022625 296.404882 
L 349.239775 284.521351 
L 358.456925 271.044567 
L 367.674075 257.262771 
L 376.891225 241.845622 
L 386.108375 224.797063 
L 395.325525 208.083554 
L 404.542675 192.833988 
L 413.759825 180.180389 
L 422.976975 170.697988 
L 432.194125 165.043201 
L 441.411275 161.733529 
L 450.628425 159.85985 
L 459.845575 160.459784 
L 469.062725 164.319406 
L 478.279875 171.908759 
L 487.497025 183.006912 
L 496.714175 195.394815 
L 505.931325 208.195933 
L 515.148475 221.582954 
L 524.365625 233.374632 
L 533.582775 245.695386 
L 542.799925 258.881655 
L 552.017075 270.403926 
L 561.234225 281.633593 
L 570.451375 291.877364 
L 579.668525 300.653829 
L 588.885675 308.401487 
L 598.102825 315.329903 
L 607.319975 321.583117 
L 616.537125 326.904478 
L 625.754275 331.405322 
L 634.971425 335.042737 
L 644.188575 338.075115 
L 653.405725 340.776503 
L 662.622875 342.877028 
L 671.840025 344.690633 
L 681.057175 346.080468 
L 690.274325 347.171089 
L 699.491475 348.230398 
L 708.708625 349.053583 
L 717.925775 349.741774 
L 727.142925 350.395289 
L 736.360075 350.949993 
L 745.577225 351.397654 
L 754.794375 351.782224 
L 764.011525 352.100342 
L 773.228675 352.35073 
L 782.445825 352.56679 
L 791.662975 352.758959 
L 800.880125 352.905435 
L 810.097275 353.011667 
L 819.314425 353.082527 
L 828.531575 353.133092 
L 837.748725 353.168696 
L 846.965875 353.187368 
L 856.183025 353.202561 
L 865.400175 353.212766 
L 874.617325 353.217753 
L 883.834475 353.220073 
L 893.051625 353.221233 
L 902.268775 353.221812 
L 911.485925 353.221812 
L 920.703075 353.222624 
L 929.920225 353.223436 
L 939.137375 353.223668 
L 948.354525 353.223668 
L 957.571675 353.223784 
L 966.788825 353.2239 
L 976.005975 353.2239 
L 985.223125 353.2239 
" style="fill:none;stroke:#5cb85c;stroke-linecap:square;"/>
   </g>
   <g id="line2d_21">
    <path clip-path="url(#p70c586dbe7)" d="M 63.508125 353.223668 
L 72.725275 353.223436 
L 81.942425 353.222276 
L 91.159575 353.221001 
L 100.376725 353.219841 
L 109.593875 353.217985 
L 118.811025 353.213926 
L 128.028175 353.210679 
L 137.245325 353.207664 
L 146.462475 353.198966 
L 155.679625 353.189456 
L 164.896775 353.17809 
L 174.113925 353.155243 
L 183.331075 353.110477 
L 192.548225 353.045184 
L 201.765375 352.937328 
L 210.982525 352.742375 
L 220.199675 352.419503 
L 229.416825 351.870017 
L 238.633975 351.002298 
L 247.851125 349.69724 
L 257.068275 347.989983 
L 266.285425 345.939327 
L 275.502575 343.235272 
L 284.719725 339.748507 
L 293.936875 335.204521 
L 303.154025 329.578728 
L 312.371175 323.173356 
L 321.588325 315.246866 
L 330.805475 306.263618 
L 340.022625 296.310015 
L 349.239775 284.475658 
L 358.456925 270.921634 
L 367.674075 257.012962 
L 376.891225 241.757597 
L 386.108375 224.909558 
L 395.325525 208.254036 
L 404.542675 193.134245 
L 413.759825 180.646489 
L 422.976975 171.225323 
L 432.194125 165.260073 
L 441.411275 161.692126 
L 450.628425 160.064544 
L 459.845575 160.659608 
L 469.062725 164.493716 
L 478.279875 172.290778 
L 487.497025 183.331292 
L 496.714175 195.622472 
L 505.931325 208.331739 
L 515.148475 221.596407 
L 524.365625 233.489099 
L 533.582775 245.761491 
L 542.799925 258.773451 
L 552.017075 270.292822 
L 561.234225 281.441656 
L 570.451375 291.682992 
L 579.668525 300.512457 
L 588.885675 308.368783 
L 598.102825 315.268437 
L 607.319975 321.457401 
L 616.537125 326.854957 
L 625.754275 331.38723 
L 634.971425 335.043317 
L 644.188575 338.057719 
L 653.405725 340.706222 
L 662.622875 342.820896 
L 671.840025 344.663031 
L 681.057175 346.067943 
L 690.274325 347.157057 
L 699.491475 348.192938 
L 708.708625 349.018559 
L 717.925775 349.747689 
L 727.142925 350.386359 
L 736.360075 350.916477 
L 745.577225 351.38826 
L 754.794375 351.764596 
L 764.011525 352.093847 
L 773.228675 352.375317 
L 782.445825 352.594044 
L 791.662975 352.775892 
L 800.880125 352.910074 
L 810.097275 353.013407 
L 819.314425 353.087514 
L 828.531575 353.133672 
L 837.748725 353.162898 
L 846.965875 353.18644 
L 856.183025 353.202561 
L 865.400175 353.211955 
L 874.617325 353.217521 
L 883.834475 353.219377 
L 893.051625 353.221117 
L 902.268775 353.222392 
L 911.485925 353.22216 
L 920.703075 353.22274 
L 929.920225 353.223436 
L 939.137375 353.223552 
L 948.354525 353.223552 
L 957.571675 353.223784 
L 966.788825 353.2239 
L 976.005975 353.2239 
L 985.223125 353.223784 
" style="fill:none;stroke:#5cb85c;stroke-linecap:square;"/>
   </g>
   <g id="line2d_22">
    <path clip-path="url(#p70c586dbe7)" d="M 63.508125 353.223668 
L 72.725275 353.223784 
L 81.942425 353.223784 
L 91.159575 353.223204 
L 100.376725 353.222044 
L 109.593875 353.219493 
L 118.811025 353.214622 
L 128.028175 353.206272 
L 137.245325 353.190847 
L 146.462475 353.16255 
L 155.679625 353.120219 
L 164.896775 353.067799 
L 174.113925 352.986501 
L 183.331075 352.839445 
L 192.548225 352.628256 
L 201.765375 352.305384 
L 210.982525 351.767728 
L 220.199675 350.903836 
L 229.416825 349.550533 
L 238.633975 347.520984 
L 247.851125 344.620352 
L 257.068275 340.923442 
L 266.285425 336.418308 
L 275.502575 330.470222 
L 284.719725 322.984782 
L 293.936875 313.594697 
L 303.154025 302.386368 
L 312.371175 289.739032 
L 321.588325 274.486102 
L 330.805475 257.745223 
L 340.022625 239.845182 
L 349.239775 220.055689 
L 358.456925 198.936899 
L 367.674075 178.927751 
L 376.891225 158.336876 
L 386.108375 136.878862 
L 395.325525 118.115625 
L 404.542675 102.982612 
L 413.759825 92.146677 
L 422.976975 86.22283 
L 432.194125 85.382481 
L 441.411275 87.207567 
L 450.628425 91.077511 
L 459.845575 97.594566 
L 469.062725 107.475106 
L 478.279875 121.656434 
L 487.497025 139.414638 
L 496.714175 157.887592 
L 505.931325 176.607803 
L 515.148475 195.840156 
L 524.365625 212.274631 
L 533.582775 228.910205 
L 542.799925 246.066967 
L 552.017075 260.594942 
L 561.234225 274.422316 
L 570.451375 286.774267 
L 579.668525 297.117775 
L 588.885675 306.196006 
L 598.102825 314.109159 
L 607.319975 321.081181 
L 616.537125 326.973483 
L 625.754275 331.770061 
L 634.971425 335.550936 
L 644.188575 338.617643 
L 653.405725 341.447414 
L 662.622875 343.675278 
L 671.840025 345.407238 
L 681.057175 346.693276 
L 690.274325 347.733332 
L 699.491475 348.70914 
L 708.708625 349.467147 
L 717.925775 350.119734 
L 727.142925 350.727439 
L 736.360075 351.234826 
L 745.577225 351.647694 
L 754.794375 351.991906 
L 764.011525 352.265605 
L 773.228675 352.506715 
L 782.445825 352.698769 
L 791.662975 352.839793 
L 800.880125 352.958319 
L 810.097275 353.044604 
L 819.314425 353.104563 
L 828.531575 353.145733 
L 837.748725 353.174727 
L 846.965875 353.194906 
L 856.183025 353.206272 
L 865.400175 353.21323 
L 874.617325 353.217637 
L 883.834475 353.220189 
L 893.051625 353.221928 
L 902.268775 353.222972 
L 911.485925 353.223436 
L 920.703075 353.223552 
L 929.920225 353.223436 
L 939.137375 353.223552 
L 948.354525 353.223784 
L 957.571675 353.2239 
L 966.788825 353.2239 
L 976.005975 353.223784 
L 985.223125 353.223668 
" style="fill:none;stroke:#5cb85c;stroke-linecap:square;"/>
   </g>
   <g id="line2d_23">
    <path clip-path="url(#p70c586dbe7)" d="M 63.508125 353.2239 
L 72.725275 353.223436 
L 81.942425 353.221117 
L 91.159575 353.217173 
L 100.376725 353.212419 
L 109.593875 353.204996 
L 118.811025 353.195834 
L 128.028175 353.182033 
L 137.245325 353.160926 
L 146.462475 353.125438 
L 155.679625 353.076265 
L 164.896775 353.006796 
L 174.113925 352.904391 
L 183.331075 352.745506 
L 192.548225 352.517037 
L 201.765375 352.175493 
L 210.982525 351.590287 
L 220.199675 350.700881 
L 229.416825 349.352449 
L 238.633975 347.291471 
L 247.851125 344.47063 
L 257.068275 340.890853 
L 266.285425 336.283546 
L 275.502575 330.291158 
L 284.719725 322.963326 
L 293.936875 313.73433 
L 303.154025 302.674216 
L 312.371175 290.105162 
L 321.588325 274.964844 
L 330.805475 258.292042 
L 340.022625 240.23416 
L 349.239775 220.509032 
L 358.456925 199.634948 
L 367.674075 179.575583 
L 376.891225 158.841248 
L 386.108375 137.400282 
L 395.325525 118.696656 
L 404.542675 103.621978 
L 413.759825 92.868269 
L 422.976975 86.623173 
L 432.194125 85.37587 
L 441.411275 87.118383 
L 450.628425 90.893692 
L 459.845575 97.448091 
L 469.062725 107.478933 
L 478.279875 121.742602 
L 487.497025 139.402925 
L 496.714175 157.709224 
L 505.931325 176.262895 
L 515.148475 195.363386 
L 524.365625 211.924041 
L 533.582775 228.593015 
L 542.799925 245.637515 
L 552.017075 260.145078 
L 561.234225 274.060593 
L 570.451375 286.580126 
L 579.668525 297.040653 
L 588.885675 306.058344 
L 598.102825 313.947259 
L 607.319975 320.979239 
L 616.537125 326.863887 
L 625.754275 331.670323 
L 634.971425 335.473814 
L 644.188575 338.587605 
L 653.405725 341.408794 
L 662.622875 343.635035 
L 671.840025 345.393785 
L 681.057175 346.666138 
L 690.274325 347.689842 
L 699.491475 348.675043 
L 708.708625 349.440937 
L 717.925775 350.103498 
L 727.142925 350.715494 
L 736.360075 351.200614 
L 745.577225 351.629138 
L 754.794375 351.992602 
L 764.011525 352.268736 
L 773.228675 352.503816 
L 782.445825 352.69471 
L 791.662975 352.843505 
L 800.880125 352.960523 
L 810.097275 353.045068 
L 819.314425 353.101083 
L 828.531575 353.14237 
L 837.748725 353.175191 
L 846.965875 353.196646 
L 856.183025 353.206388 
L 865.400175 353.211839 
L 874.617325 353.21613 
L 883.834475 353.219029 
L 893.051625 353.221349 
L 902.268775 353.22274 
L 911.485925 353.223204 
L 920.703075 353.223552 
L 929.920225 353.223552 
L 939.137375 353.223436 
L 948.354525 353.223552 
L 957.571675 353.223668 
L 966.788825 353.223784 
L 976.005975 353.223668 
L 985.223125 353.223436 
" style="fill:none;stroke:#5cb85c;stroke-linecap:square;"/>
   </g>
   <g id="line2d_24">
    <path clip-path="url(#p70c586dbe7)" d="M 63.508125 353.2239 
L 985.223125 353.2239 
" style="fill:none;stroke:#dedede;stroke-linecap:square;stroke-width:2;"/>
   </g>
   <g id="text_16">
    <!-- FastQC: Per Sequence GC Content -->
    <defs>
     <path d="M 9.8125 72.90625 
L 51.703125 72.90625 
L 51.703125 64.59375 
L 19.671875 64.59375 
L 19.671875 43.109375 
L 48.578125 43.109375 
L 48.578125 34.8125 
L 19.671875 34.8125 
L 19.671875 0 
L 9.8125 0 
z
" id="DejaVuSans-70"/>
     <path d="M 34.28125 27.484375 
Q 23.390625 27.484375 19.1875 25 
Q 14.984375 22.515625 14.984375 16.5 
Q 14.984375 11.71875 18.140625 8.90625 
Q 21.296875 6.109375 26.703125 6.109375 
Q 34.1875 6.109375 38.703125 11.40625 
Q 43.21875 16.703125 43.21875 25.484375 
L 43.21875 27.484375 
z
M 52.203125 31.203125 
L 52.203125 0 
L 43.21875 0 
L 43.21875 8.296875 
Q 40.140625 3.328125 35.546875 0.953125 
Q 30.953125 -1.421875 24.3125 -1.421875 
Q 15.921875 -1.421875 10.953125 3.296875 
Q 6 8.015625 6 15.921875 
Q 6 25.140625 12.171875 29.828125 
Q 18.359375 34.515625 30.609375 34.515625 
L 43.21875 34.515625 
L 43.21875 35.40625 
Q 43.21875 41.609375 39.140625 45 
Q 35.0625 48.390625 27.6875 48.390625 
Q 23 48.390625 18.546875 47.265625 
Q 14.109375 46.140625 10.015625 43.890625 
L 10.015625 52.203125 
Q 14.9375 54.109375 19.578125 55.046875 
Q 24.21875 56 28.609375 56 
Q 40.484375 56 46.34375 49.84375 
Q 52.203125 43.703125 52.203125 31.203125 
z
" id="DejaVuSans-97"/>
     <path d="M 44.28125 53.078125 
L 44.28125 44.578125 
Q 40.484375 46.53125 36.375 47.5 
Q 32.28125 48.484375 27.875 48.484375 
Q 21.1875 48.484375 17.84375 46.4375 
Q 14.5 44.390625 14.5 40.28125 
Q 14.5 37.15625 16.890625 35.375 
Q 19.28125 33.59375 26.515625 31.984375 
L 29.59375 31.296875 
Q 39.15625 29.25 43.1875 25.515625 
Q 47.21875 21.78125 47.21875 15.09375 
Q 47.21875 7.46875 41.1875 3.015625 
Q 35.15625 -1.421875 24.609375 -1.421875 
Q 20.21875 -1.421875 15.453125 -0.5625 
Q 10.6875 0.296875 5.421875 2 
L 5.421875 11.28125 
Q 10.40625 8.6875 15.234375 7.390625 
Q 20.0625 6.109375 24.8125 6.109375 
Q 31.15625 6.109375 34.5625 8.28125 
Q 37.984375 10.453125 37.984375 14.40625 
Q 37.984375 18.0625 35.515625 20.015625 
Q 33.0625 21.96875 24.703125 23.78125 
L 21.578125 24.515625 
Q 13.234375 26.265625 9.515625 29.90625 
Q 5.8125 33.546875 5.8125 39.890625 
Q 5.8125 47.609375 11.28125 51.796875 
Q 16.75 56 26.8125 56 
Q 31.78125 56 36.171875 55.265625 
Q 40.578125 54.546875 44.28125 53.078125 
z
" id="DejaVuSans-115"/>
     <path d="M 39.40625 66.21875 
Q 28.65625 66.21875 22.328125 58.203125 
Q 16.015625 50.203125 16.015625 36.375 
Q 16.015625 22.609375 22.328125 14.59375 
Q 28.65625 6.59375 39.40625 6.59375 
Q 50.140625 6.59375 56.421875 14.59375 
Q 62.703125 22.609375 62.703125 36.375 
Q 62.703125 50.203125 56.421875 58.203125 
Q 50.140625 66.21875 39.40625 66.21875 
z
M 53.21875 1.3125 
L 66.21875 -12.890625 
L 54.296875 -12.890625 
L 43.5 -1.21875 
Q 41.890625 -1.3125 41.03125 -1.359375 
Q 40.1875 -1.421875 39.40625 -1.421875 
Q 24.03125 -1.421875 14.8125 8.859375 
Q 5.609375 19.140625 5.609375 36.375 
Q 5.609375 53.65625 14.8125 63.9375 
Q 24.03125 74.21875 39.40625 74.21875 
Q 54.734375 74.21875 63.90625 63.9375 
Q 73.09375 53.65625 73.09375 36.375 
Q 73.09375 23.6875 67.984375 14.640625 
Q 62.890625 5.609375 53.21875 1.3125 
z
" id="DejaVuSans-81"/>
     <path d="M 11.71875 12.40625 
L 22.015625 12.40625 
L 22.015625 0 
L 11.71875 0 
z
M 11.71875 51.703125 
L 22.015625 51.703125 
L 22.015625 39.3125 
L 11.71875 39.3125 
z
" id="DejaVuSans-58"/>
     <path d="M 19.671875 64.796875 
L 19.671875 37.40625 
L 32.078125 37.40625 
Q 38.96875 37.40625 42.71875 40.96875 
Q 46.484375 44.53125 46.484375 51.125 
Q 46.484375 57.671875 42.71875 61.234375 
Q 38.96875 64.796875 32.078125 64.796875 
z
M 9.8125 72.90625 
L 32.078125 72.90625 
Q 44.34375 72.90625 50.609375 67.359375 
Q 56.890625 61.8125 56.890625 51.125 
Q 56.890625 40.328125 50.609375 34.8125 
Q 44.34375 29.296875 32.078125 29.296875 
L 19.671875 29.296875 
L 19.671875 0 
L 9.8125 0 
z
" id="DejaVuSans-80"/>
     <path d="M 56.203125 29.59375 
L 56.203125 25.203125 
L 14.890625 25.203125 
Q 15.484375 15.921875 20.484375 11.0625 
Q 25.484375 6.203125 34.421875 6.203125 
Q 39.59375 6.203125 44.453125 7.46875 
Q 49.3125 8.734375 54.109375 11.28125 
L 54.109375 2.78125 
Q 49.265625 0.734375 44.1875 -0.34375 
Q 39.109375 -1.421875 33.890625 -1.421875 
Q 20.796875 -1.421875 13.15625 6.1875 
Q 5.515625 13.8125 5.515625 26.8125 
Q 5.515625 40.234375 12.765625 48.109375 
Q 20.015625 56 32.328125 56 
Q 43.359375 56 49.78125 48.890625 
Q 56.203125 41.796875 56.203125 29.59375 
z
M 47.21875 32.234375 
Q 47.125 39.59375 43.09375 43.984375 
Q 39.0625 48.390625 32.421875 48.390625 
Q 24.90625 48.390625 20.390625 44.140625 
Q 15.875 39.890625 15.1875 32.171875 
z
" id="DejaVuSans-101"/>
     <path d="M 41.109375 46.296875 
Q 39.59375 47.171875 37.8125 47.578125 
Q 36.03125 48 33.890625 48 
Q 26.265625 48 22.1875 43.046875 
Q 18.109375 38.09375 18.109375 28.8125 
L 18.109375 0 
L 9.078125 0 
L 9.078125 54.6875 
L 18.109375 54.6875 
L 18.109375 46.1875 
Q 20.953125 51.171875 25.484375 53.578125 
Q 30.03125 56 36.53125 56 
Q 37.453125 56 38.578125 55.875 
Q 39.703125 55.765625 41.0625 55.515625 
z
" id="DejaVuSans-114"/>
     <path d="M 53.515625 70.515625 
L 53.515625 60.890625 
Q 47.90625 63.578125 42.921875 64.890625 
Q 37.9375 66.21875 33.296875 66.21875 
Q 25.25 66.21875 20.875 63.09375 
Q 16.5 59.96875 16.5 54.203125 
Q 16.5 49.359375 19.40625 46.890625 
Q 22.3125 44.4375 30.421875 42.921875 
L 36.375 41.703125 
Q 47.40625 39.59375 52.65625 34.296875 
Q 57.90625 29 57.90625 20.125 
Q 57.90625 9.515625 50.796875 4.046875 
Q 43.703125 -1.421875 29.984375 -1.421875 
Q 24.8125 -1.421875 18.96875 -0.25 
Q 13.140625 0.921875 6.890625 3.21875 
L 6.890625 13.375 
Q 12.890625 10.015625 18.65625 8.296875 
Q 24.421875 6.59375 29.984375 6.59375 
Q 38.421875 6.59375 43.015625 9.90625 
Q 47.609375 13.234375 47.609375 19.390625 
Q 47.609375 24.75 44.3125 27.78125 
Q 41.015625 30.8125 33.5 32.328125 
L 27.484375 33.5 
Q 16.453125 35.6875 11.515625 40.375 
Q 6.59375 45.0625 6.59375 53.421875 
Q 6.59375 63.09375 13.40625 68.65625 
Q 20.21875 74.21875 32.171875 74.21875 
Q 37.3125 74.21875 42.625 73.28125 
Q 47.953125 72.359375 53.515625 70.515625 
z
" id="DejaVuSans-83"/>
     <path d="M 14.796875 27.296875 
Q 14.796875 17.390625 18.875 11.75 
Q 22.953125 6.109375 30.078125 6.109375 
Q 37.203125 6.109375 41.296875 11.75 
Q 45.40625 17.390625 45.40625 27.296875 
Q 45.40625 37.203125 41.296875 42.84375 
Q 37.203125 48.484375 30.078125 48.484375 
Q 22.953125 48.484375 18.875 42.84375 
Q 14.796875 37.203125 14.796875 27.296875 
z
M 45.40625 8.203125 
Q 42.578125 3.328125 38.25 0.953125 
Q 33.9375 -1.421875 27.875 -1.421875 
Q 17.96875 -1.421875 11.734375 6.484375 
Q 5.515625 14.40625 5.515625 27.296875 
Q 5.515625 40.1875 11.734375 48.09375 
Q 17.96875 56 27.875 56 
Q 33.9375 56 38.25 53.625 
Q 42.578125 51.265625 45.40625 46.390625 
L 45.40625 54.6875 
L 54.390625 54.6875 
L 54.390625 -20.796875 
L 45.40625 -20.796875 
z
" id="DejaVuSans-113"/>
     <path d="M 48.78125 52.59375 
L 48.78125 44.1875 
Q 44.96875 46.296875 41.140625 47.34375 
Q 37.3125 48.390625 33.40625 48.390625 
Q 24.65625 48.390625 19.8125 42.84375 
Q 14.984375 37.3125 14.984375 27.296875 
Q 14.984375 17.28125 19.8125 11.734375 
Q 24.65625 6.203125 33.40625 6.203125 
Q 37.3125 6.203125 41.140625 7.25 
Q 44.96875 8.296875 48.78125 10.40625 
L 48.78125 2.09375 
Q 45.015625 0.34375 40.984375 -0.53125 
Q 36.96875 -1.421875 32.421875 -1.421875 
Q 20.0625 -1.421875 12.78125 6.34375 
Q 5.515625 14.109375 5.515625 27.296875 
Q 5.515625 40.671875 12.859375 48.328125 
Q 20.21875 56 33.015625 56 
Q 37.15625 56 41.109375 55.140625 
Q 45.0625 54.296875 48.78125 52.59375 
z
" id="DejaVuSans-99"/>
    </defs>
    <g transform="translate(386.724375 19.3575)scale(0.16 -0.16)">
     <use xlink:href="#DejaVuSans-70"/>
     <use x="57.378906" xlink:href="#DejaVuSans-97"/>
     <use x="118.658203" xlink:href="#DejaVuSans-115"/>
     <use x="170.757812" xlink:href="#DejaVuSans-116"/>
     <use x="209.966797" xlink:href="#DejaVuSans-81"/>
     <use x="288.677734" xlink:href="#DejaVuSans-67"/>
     <use x="358.501953" xlink:href="#DejaVuSans-58"/>
     <use x="392.193359" xlink:href="#DejaVuSans-32"/>
     <use x="423.980469" xlink:href="#DejaVuSans-80"/>
     <use x="484.236328" xlink:href="#DejaVuSans-101"/>
     <use x="545.759766" xlink:href="#DejaVuSans-114"/>
     <use x="586.873047" xlink:href="#DejaVuSans-32"/>
     <use x="618.660156" xlink:href="#DejaVuSans-83"/>
     <use x="682.136719" xlink:href="#DejaVuSans-101"/>
     <use x="743.660156" xlink:href="#DejaVuSans-113"/>
     <use x="807.136719" xlink:href="#DejaVuSans-117"/>
     <use x="870.515625" xlink:href="#DejaVuSans-101"/>
     <use x="932.039062" xlink:href="#DejaVuSans-110"/>
     <use x="995.417969" xlink:href="#DejaVuSans-99"/>
     <use x="1050.398438" xlink:href="#DejaVuSans-101"/>
     <use x="1111.921875" xlink:href="#DejaVuSans-32"/>
     <use x="1143.708984" xlink:href="#DejaVuSans-71"/>
     <use x="1221.199219" xlink:href="#DejaVuSans-67"/>
     <use x="1291.023438" xlink:href="#DejaVuSans-32"/>
     <use x="1322.810547" xlink:href="#DejaVuSans-67"/>
     <use x="1392.634766" xlink:href="#DejaVuSans-111"/>
     <use x="1453.816406" xlink:href="#DejaVuSans-110"/>
     <use x="1517.195312" xlink:href="#DejaVuSans-116"/>
     <use x="1556.404297" xlink:href="#DejaVuSans-101"/>
     <use x="1617.927734" xlink:href="#DejaVuSans-110"/>
     <use x="1681.306641" xlink:href="#DejaVuSans-116"/>
    </g>
   </g>
  </g>
 </g>
 <defs>
  <clipPath id="p70c586dbe7">
   <rect height="317.968" width="921.715" x="63.508125" y="35.2559"/>
  </clipPath>
 </defs>
</svg>
