<?xml version="1.0" encoding="utf-8" standalone="no"?>
<!DOCTYPE svg PUBLIC "-//W3C//DTD SVG 1.1//EN"
  "http://www.w3.org/Graphics/SVG/1.1/DTD/svg11.dtd">
<!-- Created with matplotlib (https://matplotlib.org/) -->
<svg height="388.844525pt" version="1.1" viewBox="0 0 1000.278125 388.844525" width="1000.278125pt" xmlns="http://www.w3.org/2000/svg" xmlns:xlink="http://www.w3.org/1999/xlink">
 <defs>
  <style type="text/css">
*{stroke-linecap:butt;stroke-linejoin:round;}
  </style>
 </defs>
 <g id="figure_1">
  <g id="axes_1">
   <g id="patch_1">
    <path d="M 43.148125 353.2239 
L 993.078125 353.2239 
L 993.078125 35.2559 
L 43.148125 35.2559 
z
" style="fill:#ffffff;"/>
   </g>
   <g id="matplotlib.axis_1">
    <g id="xtick_1">
     <g id="text_1">
      <!-- 0 -->
      <defs>
       <path d="M 31.78125 66.40625 
Q 24.171875 66.40625 20.328125 58.90625 
Q 16.5 51.421875 16.5 36.375 
Q 16.5 21.390625 20.328125 13.890625 
Q 24.171875 6.390625 31.78125 6.390625 
Q 39.453125 6.390625 43.28125 13.890625 
Q 47.125 21.390625 47.125 36.375 
Q 47.125 51.421875 43.28125 58.90625 
Q 39.453125 66.40625 31.78125 66.40625 
z
M 31.78125 74.21875 
Q 44.046875 74.21875 50.515625 64.515625 
Q 56.984375 54.828125 56.984375 36.375 
Q 56.984375 17.96875 50.515625 8.265625 
Q 44.046875 -1.421875 31.78125 -1.421875 
Q 19.53125 -1.421875 13.0625 8.265625 
Q 6.59375 17.96875 6.59375 36.375 
Q 6.59375 54.828125 13.0625 64.515625 
Q 19.53125 74.21875 31.78125 74.21875 
z
" id="DejaVuSans-48"/>
      </defs>
      <g transform="translate(54.996004 366.30265)scale(0.08 -0.08)">
       <use xlink:href="#DejaVuSans-48"/>
      </g>
     </g>
    </g>
    <g id="xtick_2">
     <g id="text_2">
      <!-- 5 -->
      <defs>
       <path d="M 10.796875 72.90625 
L 49.515625 72.90625 
L 49.515625 64.59375 
L 19.828125 64.59375 
L 19.828125 46.734375 
Q 21.96875 47.46875 24.109375 47.828125 
Q 26.265625 48.1875 28.421875 48.1875 
Q 40.625 48.1875 47.75 41.5 
Q 54.890625 34.8125 54.890625 23.390625 
Q 54.890625 11.625 47.5625 5.09375 
Q 40.234375 -1.421875 26.90625 -1.421875 
Q 22.3125 -1.421875 17.546875 -0.640625 
Q 12.796875 0.140625 7.71875 1.703125 
L 7.71875 11.625 
Q 12.109375 9.234375 16.796875 8.0625 
Q 21.484375 6.890625 26.703125 6.890625 
Q 35.15625 6.890625 40.078125 11.328125 
Q 45.015625 15.765625 45.015625 23.390625 
Q 45.015625 31 40.078125 35.4375 
Q 35.15625 39.890625 26.703125 39.890625 
Q 22.75 39.890625 18.8125 39.015625 
Q 14.890625 38.140625 10.796875 36.28125 
z
" id="DejaVuSans-53"/>
      </defs>
      <g transform="translate(198.924792 366.30265)scale(0.08 -0.08)">
       <use xlink:href="#DejaVuSans-53"/>
      </g>
     </g>
    </g>
    <g id="xtick_3">
     <g id="text_3">
      <!-- 10 -->
      <defs>
       <path d="M 12.40625 8.296875 
L 28.515625 8.296875 
L 28.515625 63.921875 
L 10.984375 60.40625 
L 10.984375 69.390625 
L 28.421875 72.90625 
L 38.28125 72.90625 
L 38.28125 8.296875 
L 54.390625 8.296875 
L 54.390625 0 
L 12.40625 0 
z
" id="DejaVuSans-49"/>
      </defs>
      <g transform="translate(340.30858 366.30265)scale(0.08 -0.08)">
       <use xlink:href="#DejaVuSans-49"/>
       <use x="63.623047" xlink:href="#DejaVuSans-48"/>
      </g>
     </g>
    </g>
    <g id="xtick_4">
     <g id="text_4">
      <!-- 15 -->
      <g transform="translate(484.237367 366.30265)scale(0.08 -0.08)">
       <use xlink:href="#DejaVuSans-49"/>
       <use x="63.623047" xlink:href="#DejaVuSans-53"/>
      </g>
     </g>
    </g>
    <g id="xtick_5">
     <g id="text_5">
      <!-- 20 -->
      <defs>
       <path d="M 19.1875 8.296875 
L 53.609375 8.296875 
L 53.609375 0 
L 7.328125 0 
L 7.328125 8.296875 
Q 12.9375 14.109375 22.625 23.890625 
Q 32.328125 33.6875 34.8125 36.53125 
Q 39.546875 41.84375 41.421875 45.53125 
Q 43.3125 49.21875 43.3125 52.78125 
Q 43.3125 58.59375 39.234375 62.25 
Q 35.15625 65.921875 28.609375 65.921875 
Q 23.96875 65.921875 18.8125 64.3125 
Q 13.671875 62.703125 7.8125 59.421875 
L 7.8125 69.390625 
Q 13.765625 71.78125 18.9375 73 
Q 24.125 74.21875 28.421875 74.21875 
Q 39.75 74.21875 46.484375 68.546875 
Q 53.21875 62.890625 53.21875 53.421875 
Q 53.21875 48.921875 51.53125 44.890625 
Q 49.859375 40.875 45.40625 35.40625 
Q 44.1875 33.984375 37.640625 27.21875 
Q 31.109375 20.453125 19.1875 8.296875 
z
" id="DejaVuSans-50"/>
      </defs>
      <g transform="translate(628.166155 366.30265)scale(0.08 -0.08)">
       <use xlink:href="#DejaVuSans-50"/>
       <use x="63.623047" xlink:href="#DejaVuSans-48"/>
      </g>
     </g>
    </g>
    <g id="xtick_6">
     <g id="text_6">
      <!-- 25 -->
      <g transform="translate(772.094943 366.30265)scale(0.08 -0.08)">
       <use xlink:href="#DejaVuSans-50"/>
       <use x="63.623047" xlink:href="#DejaVuSans-53"/>
      </g>
     </g>
    </g>
    <g id="xtick_7">
     <g id="text_7">
      <!-- 30 -->
      <defs>
       <path d="M 40.578125 39.3125 
Q 47.65625 37.796875 51.625 33 
Q 55.609375 28.21875 55.609375 21.1875 
Q 55.609375 10.40625 48.1875 4.484375 
Q 40.765625 -1.421875 27.09375 -1.421875 
Q 22.515625 -1.421875 17.65625 -0.515625 
Q 12.796875 0.390625 7.625 2.203125 
L 7.625 11.71875 
Q 11.71875 9.328125 16.59375 8.109375 
Q 21.484375 6.890625 26.8125 6.890625 
Q 36.078125 6.890625 40.9375 10.546875 
Q 45.796875 14.203125 45.796875 21.1875 
Q 45.796875 27.640625 41.28125 31.265625 
Q 36.765625 34.90625 28.71875 34.90625 
L 20.21875 34.90625 
L 20.21875 43.015625 
L 29.109375 43.015625 
Q 36.375 43.015625 40.234375 45.921875 
Q 44.09375 48.828125 44.09375 54.296875 
Q 44.09375 59.90625 40.109375 62.90625 
Q 36.140625 65.921875 28.71875 65.921875 
Q 24.65625 65.921875 20.015625 65.03125 
Q 15.375 64.15625 9.8125 62.3125 
L 9.8125 71.09375 
Q 15.4375 72.65625 20.34375 73.4375 
Q 25.25 74.21875 29.59375 74.21875 
Q 40.828125 74.21875 47.359375 69.109375 
Q 53.90625 64.015625 53.90625 55.328125 
Q 53.90625 49.265625 50.4375 45.09375 
Q 46.96875 40.921875 40.578125 39.3125 
z
" id="DejaVuSans-51"/>
      </defs>
      <g transform="translate(916.023731 366.30265)scale(0.08 -0.08)">
       <use xlink:href="#DejaVuSans-51"/>
       <use x="63.623047" xlink:href="#DejaVuSans-48"/>
      </g>
     </g>
    </g>
    <g id="text_8">
     <!-- Duplication level -->
     <defs>
      <path d="M 19.671875 64.796875 
L 19.671875 8.109375 
L 31.59375 8.109375 
Q 46.6875 8.109375 53.6875 14.9375 
Q 60.6875 21.78125 60.6875 36.53125 
Q 60.6875 51.171875 53.6875 57.984375 
Q 46.6875 64.796875 31.59375 64.796875 
z
M 9.8125 72.90625 
L 30.078125 72.90625 
Q 51.265625 72.90625 61.171875 64.09375 
Q 71.09375 55.28125 71.09375 36.53125 
Q 71.09375 17.671875 61.125 8.828125 
Q 51.171875 0 30.078125 0 
L 9.8125 0 
z
" id="DejaVuSans-68"/>
      <path d="M 8.5 21.578125 
L 8.5 54.6875 
L 17.484375 54.6875 
L 17.484375 21.921875 
Q 17.484375 14.15625 20.5 10.265625 
Q 23.53125 6.390625 29.59375 6.390625 
Q 36.859375 6.390625 41.078125 11.03125 
Q 45.3125 15.671875 45.3125 23.6875 
L 45.3125 54.6875 
L 54.296875 54.6875 
L 54.296875 0 
L 45.3125 0 
L 45.3125 8.40625 
Q 42.046875 3.421875 37.71875 1 
Q 33.40625 -1.421875 27.6875 -1.421875 
Q 18.265625 -1.421875 13.375 4.4375 
Q 8.5 10.296875 8.5 21.578125 
z
M 31.109375 56 
z
" id="DejaVuSans-117"/>
      <path d="M 18.109375 8.203125 
L 18.109375 -20.796875 
L 9.078125 -20.796875 
L 9.078125 54.6875 
L 18.109375 54.6875 
L 18.109375 46.390625 
Q 20.953125 51.265625 25.265625 53.625 
Q 29.59375 56 35.59375 56 
Q 45.5625 56 51.78125 48.09375 
Q 58.015625 40.1875 58.015625 27.296875 
Q 58.015625 14.40625 51.78125 6.484375 
Q 45.5625 -1.421875 35.59375 -1.421875 
Q 29.59375 -1.421875 25.265625 0.953125 
Q 20.953125 3.328125 18.109375 8.203125 
z
M 48.6875 27.296875 
Q 48.6875 37.203125 44.609375 42.84375 
Q 40.53125 48.484375 33.40625 48.484375 
Q 26.265625 48.484375 22.1875 42.84375 
Q 18.109375 37.203125 18.109375 27.296875 
Q 18.109375 17.390625 22.1875 11.75 
Q 26.265625 6.109375 33.40625 6.109375 
Q 40.53125 6.109375 44.609375 11.75 
Q 48.6875 17.390625 48.6875 27.296875 
z
" id="DejaVuSans-112"/>
      <path d="M 9.421875 75.984375 
L 18.40625 75.984375 
L 18.40625 0 
L 9.421875 0 
z
" id="DejaVuSans-108"/>
      <path d="M 9.421875 54.6875 
L 18.40625 54.6875 
L 18.40625 0 
L 9.421875 0 
z
M 9.421875 75.984375 
L 18.40625 75.984375 
L 18.40625 64.59375 
L 9.421875 64.59375 
z
" id="DejaVuSans-105"/>
      <path d="M 48.78125 52.59375 
L 48.78125 44.1875 
Q 44.96875 46.296875 41.140625 47.34375 
Q 37.3125 48.390625 33.40625 48.390625 
Q 24.65625 48.390625 19.8125 42.84375 
Q 14.984375 37.3125 14.984375 27.296875 
Q 14.984375 17.28125 19.8125 11.734375 
Q 24.65625 6.203125 33.40625 6.203125 
Q 37.3125 6.203125 41.140625 7.25 
Q 44.96875 8.296875 48.78125 10.40625 
L 48.78125 2.09375 
Q 45.015625 0.34375 40.984375 -0.53125 
Q 36.96875 -1.421875 32.421875 -1.421875 
Q 20.0625 -1.421875 12.78125 6.34375 
Q 5.515625 14.109375 5.515625 27.296875 
Q 5.515625 40.671875 12.859375 48.328125 
Q 20.21875 56 33.015625 56 
Q 37.15625 56 41.109375 55.140625 
Q 45.0625 54.296875 48.78125 52.59375 
z
" id="DejaVuSans-99"/>
      <path d="M 34.28125 27.484375 
Q 23.390625 27.484375 19.1875 25 
Q 14.984375 22.515625 14.984375 16.5 
Q 14.984375 11.71875 18.140625 8.90625 
Q 21.296875 6.109375 26.703125 6.109375 
Q 34.1875 6.109375 38.703125 11.40625 
Q 43.21875 16.703125 43.21875 25.484375 
L 43.21875 27.484375 
z
M 52.203125 31.203125 
L 52.203125 0 
L 43.21875 0 
L 43.21875 8.296875 
Q 40.140625 3.328125 35.546875 0.953125 
Q 30.953125 -1.421875 24.3125 -1.421875 
Q 15.921875 -1.421875 10.953125 3.296875 
Q 6 8.015625 6 15.921875 
Q 6 25.140625 12.171875 29.828125 
Q 18.359375 34.515625 30.609375 34.515625 
L 43.21875 34.515625 
L 43.21875 35.40625 
Q 43.21875 41.609375 39.140625 45 
Q 35.0625 48.390625 27.6875 48.390625 
Q 23 48.390625 18.546875 47.265625 
Q 14.109375 46.140625 10.015625 43.890625 
L 10.015625 52.203125 
Q 14.9375 54.109375 19.578125 55.046875 
Q 24.21875 56 28.609375 56 
Q 40.484375 56 46.34375 49.84375 
Q 52.203125 43.703125 52.203125 31.203125 
z
" id="DejaVuSans-97"/>
      <path d="M 18.3125 70.21875 
L 18.3125 54.6875 
L 36.8125 54.6875 
L 36.8125 47.703125 
L 18.3125 47.703125 
L 18.3125 18.015625 
Q 18.3125 11.328125 20.140625 9.421875 
Q 21.96875 7.515625 27.59375 7.515625 
L 36.8125 7.515625 
L 36.8125 0 
L 27.59375 0 
Q 17.1875 0 13.234375 3.875 
Q 9.28125 7.765625 9.28125 18.015625 
L 9.28125 47.703125 
L 2.6875 47.703125 
L 2.6875 54.6875 
L 9.28125 54.6875 
L 9.28125 70.21875 
z
" id="DejaVuSans-116"/>
      <path d="M 30.609375 48.390625 
Q 23.390625 48.390625 19.1875 42.75 
Q 14.984375 37.109375 14.984375 27.296875 
Q 14.984375 17.484375 19.15625 11.84375 
Q 23.34375 6.203125 30.609375 6.203125 
Q 37.796875 6.203125 41.984375 11.859375 
Q 46.1875 17.53125 46.1875 27.296875 
Q 46.1875 37.015625 41.984375 42.703125 
Q 37.796875 48.390625 30.609375 48.390625 
z
M 30.609375 56 
Q 42.328125 56 49.015625 48.375 
Q 55.71875 40.765625 55.71875 27.296875 
Q 55.71875 13.875 49.015625 6.21875 
Q 42.328125 -1.421875 30.609375 -1.421875 
Q 18.84375 -1.421875 12.171875 6.21875 
Q 5.515625 13.875 5.515625 27.296875 
Q 5.515625 40.765625 12.171875 48.375 
Q 18.84375 56 30.609375 56 
z
" id="DejaVuSans-111"/>
      <path d="M 54.890625 33.015625 
L 54.890625 0 
L 45.90625 0 
L 45.90625 32.71875 
Q 45.90625 40.484375 42.875 44.328125 
Q 39.84375 48.1875 33.796875 48.1875 
Q 26.515625 48.1875 22.3125 43.546875 
Q 18.109375 38.921875 18.109375 30.90625 
L 18.109375 0 
L 9.078125 0 
L 9.078125 54.6875 
L 18.109375 54.6875 
L 18.109375 46.1875 
Q 21.34375 51.125 25.703125 53.5625 
Q 30.078125 56 35.796875 56 
Q 45.21875 56 50.046875 50.171875 
Q 54.890625 44.34375 54.890625 33.015625 
z
" id="DejaVuSans-110"/>
      <path id="DejaVuSans-32"/>
      <path d="M 56.203125 29.59375 
L 56.203125 25.203125 
L 14.890625 25.203125 
Q 15.484375 15.921875 20.484375 11.0625 
Q 25.484375 6.203125 34.421875 6.203125 
Q 39.59375 6.203125 44.453125 7.46875 
Q 49.3125 8.734375 54.109375 11.28125 
L 54.109375 2.78125 
Q 49.265625 0.734375 44.1875 -0.34375 
Q 39.109375 -1.421875 33.890625 -1.421875 
Q 20.796875 -1.421875 13.15625 6.1875 
Q 5.515625 13.8125 5.515625 26.8125 
Q 5.515625 40.234375 12.765625 48.109375 
Q 20.015625 56 32.328125 56 
Q 43.359375 56 49.78125 48.890625 
Q 56.203125 41.796875 56.203125 29.59375 
z
M 47.21875 32.234375 
Q 47.125 39.59375 43.09375 43.984375 
Q 39.0625 48.390625 32.421875 48.390625 
Q 24.90625 48.390625 20.390625 44.140625 
Q 15.875 39.890625 15.1875 32.171875 
z
" id="DejaVuSans-101"/>
      <path d="M 2.984375 54.6875 
L 12.5 54.6875 
L 29.59375 8.796875 
L 46.6875 54.6875 
L 56.203125 54.6875 
L 35.6875 0 
L 23.484375 0 
z
" id="DejaVuSans-118"/>
     </defs>
     <g transform="translate(476.271719 379.564837)scale(0.1 -0.1)">
      <use xlink:href="#DejaVuSans-68"/>
      <use x="77.001953" xlink:href="#DejaVuSans-117"/>
      <use x="140.380859" xlink:href="#DejaVuSans-112"/>
      <use x="203.857422" xlink:href="#DejaVuSans-108"/>
      <use x="231.640625" xlink:href="#DejaVuSans-105"/>
      <use x="259.423828" xlink:href="#DejaVuSans-99"/>
      <use x="314.404297" xlink:href="#DejaVuSans-97"/>
      <use x="375.683594" xlink:href="#DejaVuSans-116"/>
      <use x="414.892578" xlink:href="#DejaVuSans-105"/>
      <use x="442.675781" xlink:href="#DejaVuSans-111"/>
      <use x="503.857422" xlink:href="#DejaVuSans-110"/>
      <use x="567.236328" xlink:href="#DejaVuSans-32"/>
      <use x="599.023438" xlink:href="#DejaVuSans-108"/>
      <use x="626.806641" xlink:href="#DejaVuSans-101"/>
      <use x="688.330078" xlink:href="#DejaVuSans-118"/>
      <use x="747.509766" xlink:href="#DejaVuSans-101"/>
      <use x="809.033203" xlink:href="#DejaVuSans-108"/>
     </g>
    </g>
   </g>
   <g id="matplotlib.axis_2">
    <g id="ytick_1">
     <g id="line2d_1">
      <path clip-path="url(#pf43d2309e0)" d="M 43.148125 353.2239 
L 993.078125 353.2239 
" style="fill:none;stroke:#dedede;stroke-linecap:square;"/>
     </g>
     <g id="text_9">
      <!-- 0 -->
      <g transform="translate(31.058125 356.263275)scale(0.08 -0.08)">
       <use xlink:href="#DejaVuSans-48"/>
      </g>
     </g>
    </g>
    <g id="ytick_2">
     <g id="line2d_2">
      <path clip-path="url(#pf43d2309e0)" d="M 43.148125 289.6303 
L 993.078125 289.6303 
" style="fill:none;stroke:#dedede;stroke-linecap:square;"/>
     </g>
     <g id="text_10">
      <!-- 20 -->
      <g transform="translate(25.968125 292.669675)scale(0.08 -0.08)">
       <use xlink:href="#DejaVuSans-50"/>
       <use x="63.623047" xlink:href="#DejaVuSans-48"/>
      </g>
     </g>
    </g>
    <g id="ytick_3">
     <g id="line2d_3">
      <path clip-path="url(#pf43d2309e0)" d="M 43.148125 226.0367 
L 993.078125 226.0367 
" style="fill:none;stroke:#dedede;stroke-linecap:square;"/>
     </g>
     <g id="text_11">
      <!-- 40 -->
      <defs>
       <path d="M 37.796875 64.3125 
L 12.890625 25.390625 
L 37.796875 25.390625 
z
M 35.203125 72.90625 
L 47.609375 72.90625 
L 47.609375 25.390625 
L 58.015625 25.390625 
L 58.015625 17.1875 
L 47.609375 17.1875 
L 47.609375 0 
L 37.796875 0 
L 37.796875 17.1875 
L 4.890625 17.1875 
L 4.890625 26.703125 
z
" id="DejaVuSans-52"/>
      </defs>
      <g transform="translate(25.968125 229.076075)scale(0.08 -0.08)">
       <use xlink:href="#DejaVuSans-52"/>
       <use x="63.623047" xlink:href="#DejaVuSans-48"/>
      </g>
     </g>
    </g>
    <g id="ytick_4">
     <g id="line2d_4">
      <path clip-path="url(#pf43d2309e0)" d="M 43.148125 162.4431 
L 993.078125 162.4431 
" style="fill:none;stroke:#dedede;stroke-linecap:square;"/>
     </g>
     <g id="text_12">
      <!-- 60 -->
      <defs>
       <path d="M 33.015625 40.375 
Q 26.375 40.375 22.484375 35.828125 
Q 18.609375 31.296875 18.609375 23.390625 
Q 18.609375 15.53125 22.484375 10.953125 
Q 26.375 6.390625 33.015625 6.390625 
Q 39.65625 6.390625 43.53125 10.953125 
Q 47.40625 15.53125 47.40625 23.390625 
Q 47.40625 31.296875 43.53125 35.828125 
Q 39.65625 40.375 33.015625 40.375 
z
M 52.59375 71.296875 
L 52.59375 62.3125 
Q 48.875 64.0625 45.09375 64.984375 
Q 41.3125 65.921875 37.59375 65.921875 
Q 27.828125 65.921875 22.671875 59.328125 
Q 17.53125 52.734375 16.796875 39.40625 
Q 19.671875 43.65625 24.015625 45.921875 
Q 28.375 48.1875 33.59375 48.1875 
Q 44.578125 48.1875 50.953125 41.515625 
Q 57.328125 34.859375 57.328125 23.390625 
Q 57.328125 12.15625 50.6875 5.359375 
Q 44.046875 -1.421875 33.015625 -1.421875 
Q 20.359375 -1.421875 13.671875 8.265625 
Q 6.984375 17.96875 6.984375 36.375 
Q 6.984375 53.65625 15.1875 63.9375 
Q 23.390625 74.21875 37.203125 74.21875 
Q 40.921875 74.21875 44.703125 73.484375 
Q 48.484375 72.75 52.59375 71.296875 
z
" id="DejaVuSans-54"/>
      </defs>
      <g transform="translate(25.968125 165.482475)scale(0.08 -0.08)">
       <use xlink:href="#DejaVuSans-54"/>
       <use x="63.623047" xlink:href="#DejaVuSans-48"/>
      </g>
     </g>
    </g>
    <g id="ytick_5">
     <g id="line2d_5">
      <path clip-path="url(#pf43d2309e0)" d="M 43.148125 98.8495 
L 993.078125 98.8495 
" style="fill:none;stroke:#dedede;stroke-linecap:square;"/>
     </g>
     <g id="text_13">
      <!-- 80 -->
      <defs>
       <path d="M 31.78125 34.625 
Q 24.75 34.625 20.71875 30.859375 
Q 16.703125 27.09375 16.703125 20.515625 
Q 16.703125 13.921875 20.71875 10.15625 
Q 24.75 6.390625 31.78125 6.390625 
Q 38.8125 6.390625 42.859375 10.171875 
Q 46.921875 13.96875 46.921875 20.515625 
Q 46.921875 27.09375 42.890625 30.859375 
Q 38.875 34.625 31.78125 34.625 
z
M 21.921875 38.8125 
Q 15.578125 40.375 12.03125 44.71875 
Q 8.5 49.078125 8.5 55.328125 
Q 8.5 64.0625 14.71875 69.140625 
Q 20.953125 74.21875 31.78125 74.21875 
Q 42.671875 74.21875 48.875 69.140625 
Q 55.078125 64.0625 55.078125 55.328125 
Q 55.078125 49.078125 51.53125 44.71875 
Q 48 40.375 41.703125 38.8125 
Q 48.828125 37.15625 52.796875 32.3125 
Q 56.78125 27.484375 56.78125 20.515625 
Q 56.78125 9.90625 50.3125 4.234375 
Q 43.84375 -1.421875 31.78125 -1.421875 
Q 19.734375 -1.421875 13.25 4.234375 
Q 6.78125 9.90625 6.78125 20.515625 
Q 6.78125 27.484375 10.78125 32.3125 
Q 14.796875 37.15625 21.921875 38.8125 
z
M 18.3125 54.390625 
Q 18.3125 48.734375 21.84375 45.5625 
Q 25.390625 42.390625 31.78125 42.390625 
Q 38.140625 42.390625 41.71875 45.5625 
Q 45.3125 48.734375 45.3125 54.390625 
Q 45.3125 60.0625 41.71875 63.234375 
Q 38.140625 66.40625 31.78125 66.40625 
Q 25.390625 66.40625 21.84375 63.234375 
Q 18.3125 60.0625 18.3125 54.390625 
z
" id="DejaVuSans-56"/>
      </defs>
      <g transform="translate(25.968125 101.888875)scale(0.08 -0.08)">
       <use xlink:href="#DejaVuSans-56"/>
       <use x="63.623047" xlink:href="#DejaVuSans-48"/>
      </g>
     </g>
    </g>
    <g id="ytick_6">
     <g id="line2d_6">
      <path clip-path="url(#pf43d2309e0)" d="M 43.148125 35.2559 
L 993.078125 35.2559 
" style="fill:none;stroke:#dedede;stroke-linecap:square;"/>
     </g>
     <g id="text_14">
      <!-- 100 -->
      <g transform="translate(20.878125 38.295275)scale(0.08 -0.08)">
       <use xlink:href="#DejaVuSans-49"/>
       <use x="63.623047" xlink:href="#DejaVuSans-48"/>
       <use x="127.246094" xlink:href="#DejaVuSans-48"/>
      </g>
     </g>
    </g>
    <g id="text_15">
     <!-- Read percent -->
     <defs>
      <path d="M 44.390625 34.1875 
Q 47.5625 33.109375 50.5625 29.59375 
Q 53.5625 26.078125 56.59375 19.921875 
L 66.609375 0 
L 56 0 
L 46.6875 18.703125 
Q 43.0625 26.03125 39.671875 28.421875 
Q 36.28125 30.8125 30.421875 30.8125 
L 19.671875 30.8125 
L 19.671875 0 
L 9.8125 0 
L 9.8125 72.90625 
L 32.078125 72.90625 
Q 44.578125 72.90625 50.734375 67.671875 
Q 56.890625 62.453125 56.890625 51.90625 
Q 56.890625 45.015625 53.6875 40.46875 
Q 50.484375 35.9375 44.390625 34.1875 
z
M 19.671875 64.796875 
L 19.671875 38.921875 
L 32.078125 38.921875 
Q 39.203125 38.921875 42.84375 42.21875 
Q 46.484375 45.515625 46.484375 51.90625 
Q 46.484375 58.296875 42.84375 61.546875 
Q 39.203125 64.796875 32.078125 64.796875 
z
" id="DejaVuSans-82"/>
      <path d="M 45.40625 46.390625 
L 45.40625 75.984375 
L 54.390625 75.984375 
L 54.390625 0 
L 45.40625 0 
L 45.40625 8.203125 
Q 42.578125 3.328125 38.25 0.953125 
Q 33.9375 -1.421875 27.875 -1.421875 
Q 17.96875 -1.421875 11.734375 6.484375 
Q 5.515625 14.40625 5.515625 27.296875 
Q 5.515625 40.1875 11.734375 48.09375 
Q 17.96875 56 27.875 56 
Q 33.9375 56 38.25 53.625 
Q 42.578125 51.265625 45.40625 46.390625 
z
M 14.796875 27.296875 
Q 14.796875 17.390625 18.875 11.75 
Q 22.953125 6.109375 30.078125 6.109375 
Q 37.203125 6.109375 41.296875 11.75 
Q 45.40625 17.390625 45.40625 27.296875 
Q 45.40625 37.203125 41.296875 42.84375 
Q 37.203125 48.484375 30.078125 48.484375 
Q 22.953125 48.484375 18.875 42.84375 
Q 14.796875 37.203125 14.796875 27.296875 
z
" id="DejaVuSans-100"/>
      <path d="M 41.109375 46.296875 
Q 39.59375 47.171875 37.8125 47.578125 
Q 36.03125 48 33.890625 48 
Q 26.265625 48 22.1875 43.046875 
Q 18.109375 38.09375 18.109375 28.8125 
L 18.109375 0 
L 9.078125 0 
L 9.078125 54.6875 
L 18.109375 54.6875 
L 18.109375 46.1875 
Q 20.953125 51.171875 25.484375 53.578125 
Q 30.03125 56 36.53125 56 
Q 37.453125 56 38.578125 55.875 
Q 39.703125 55.765625 41.0625 55.515625 
z
" id="DejaVuSans-114"/>
     </defs>
     <g transform="translate(14.798437 227.874275)rotate(-90)scale(0.1 -0.1)">
      <use xlink:href="#DejaVuSans-82"/>
      <use x="69.419922" xlink:href="#DejaVuSans-101"/>
      <use x="130.943359" xlink:href="#DejaVuSans-97"/>
      <use x="192.222656" xlink:href="#DejaVuSans-100"/>
      <use x="255.699219" xlink:href="#DejaVuSans-32"/>
      <use x="287.486328" xlink:href="#DejaVuSans-112"/>
      <use x="350.962891" xlink:href="#DejaVuSans-101"/>
      <use x="412.486328" xlink:href="#DejaVuSans-114"/>
      <use x="453.568359" xlink:href="#DejaVuSans-99"/>
      <use x="508.548828" xlink:href="#DejaVuSans-101"/>
      <use x="570.072266" xlink:href="#DejaVuSans-110"/>
      <use x="633.451172" xlink:href="#DejaVuSans-116"/>
     </g>
    </g>
   </g>
   <g id="line2d_7">
    <path clip-path="url(#pf43d2309e0)" d="M 86.326761 43.128207 
L 115.112519 345.812059 
L 143.898277 352.801389 
L 172.684034 353.1906 
L 201.469792 353.219603 
L 230.255549 353.2239 
L 259.041307 353.2239 
L 287.827064 353.223542 
L 316.612822 353.2239 
L 345.39858 353.2239 
L 374.184337 353.2239 
L 402.970095 353.2239 
L 431.755852 353.2239 
L 460.54161 353.2239 
L 489.327367 353.2239 
L 518.113125 353.2239 
L 546.898883 353.2239 
L 575.68464 353.2239 
L 604.470398 353.2239 
L 633.256155 353.2239 
L 662.041913 353.2239 
L 690.82767 353.2239 
L 719.613428 353.2239 
L 748.399186 353.2239 
L 777.184943 353.2239 
L 805.970701 353.2239 
L 834.756458 353.2239 
L 863.542216 353.2239 
L 892.327973 353.2239 
L 921.113731 353.2239 
L 949.899489 353.2239 
" style="fill:none;stroke:#7cb5ec;stroke-linecap:square;"/>
   </g>
   <g id="line2d_8">
    <path clip-path="url(#pf43d2309e0)" d="M 86.326761 44.233805 
L 115.112519 344.778509 
L 143.898277 352.741541 
L 172.684034 353.177663 
L 201.469792 353.220765 
L 230.255549 353.223116 
L 259.041307 353.2239 
L 287.827064 353.2239 
L 316.612822 353.2239 
L 345.39858 353.2239 
L 374.184337 353.2239 
L 402.970095 353.2239 
L 431.755852 353.2239 
L 460.54161 353.2239 
L 489.327367 353.2239 
L 518.113125 353.2239 
L 546.898883 353.2239 
L 575.68464 353.2239 
L 604.470398 353.2239 
L 633.256155 353.2239 
L 662.041913 353.2239 
L 690.82767 353.2239 
L 719.613428 353.2239 
L 748.399186 353.2239 
L 777.184943 353.2239 
L 805.970701 353.2239 
L 834.756458 353.2239 
L 863.542216 353.2239 
L 892.327973 353.2239 
L 921.113731 353.2239 
L 949.899489 353.2239 
" style="fill:none;stroke:#434348;stroke-linecap:square;"/>
   </g>
   <g id="line2d_9">
    <path clip-path="url(#pf43d2309e0)" d="M 86.326761 42.458841 
L 115.112519 346.422472 
L 143.898277 352.852449 
L 172.684034 353.197544 
L 201.469792 353.220194 
L 230.255549 353.2239 
L 259.041307 353.2239 
L 287.827064 353.2239 
L 316.612822 353.2239 
L 345.39858 353.2239 
L 374.184337 353.2239 
L 402.970095 353.2239 
L 431.755852 353.2239 
L 460.54161 353.2239 
L 489.327367 353.2239 
L 518.113125 353.2239 
L 546.898883 353.2239 
L 575.68464 353.2239 
L 604.470398 353.2239 
L 633.256155 353.2239 
L 662.041913 353.2239 
L 690.82767 353.2239 
L 719.613428 353.2239 
L 748.399186 353.2239 
L 777.184943 353.2239 
L 805.970701 353.2239 
L 834.756458 353.2239 
L 863.542216 353.2239 
L 892.327973 353.2239 
L 921.113731 353.2239 
L 949.899489 353.2239 
" style="fill:none;stroke:#90ed7d;stroke-linecap:square;"/>
   </g>
   <g id="line2d_10">
    <path clip-path="url(#pf43d2309e0)" d="M 86.326761 36.339451 
L 115.112519 352.194527 
L 143.898277 353.169722 
L 172.684034 353.2239 
L 201.469792 353.2239 
L 230.255549 353.2239 
L 259.041307 353.2239 
L 287.827064 353.2239 
L 316.612822 353.2239 
L 345.39858 353.2239 
L 374.184337 353.2239 
L 402.970095 353.2239 
L 431.755852 353.2239 
L 460.54161 353.2239 
L 489.327367 353.2239 
L 518.113125 353.2239 
L 546.898883 353.2239 
L 575.68464 353.2239 
L 604.470398 353.2239 
L 633.256155 353.2239 
L 662.041913 353.2239 
L 690.82767 353.2239 
L 719.613428 353.2239 
L 748.399186 353.2239 
L 777.184943 353.2239 
L 805.970701 353.2239 
L 834.756458 353.2239 
L 863.542216 353.2239 
L 892.327973 353.2239 
L 921.113731 353.2239 
L 949.899489 353.2239 
" style="fill:none;stroke:#f7a35c;stroke-linecap:square;"/>
   </g>
   <g id="line2d_11">
    <path clip-path="url(#pf43d2309e0)" d="M 86.326761 36.243378 
L 115.112519 352.236422 
L 143.898277 353.2239 
L 172.684034 353.2239 
L 201.469792 353.2239 
L 230.255549 353.2239 
L 259.041307 353.2239 
L 287.827064 353.2239 
L 316.612822 353.2239 
L 345.39858 353.2239 
L 374.184337 353.2239 
L 402.970095 353.2239 
L 431.755852 353.2239 
L 460.54161 353.2239 
L 489.327367 353.2239 
L 518.113125 353.2239 
L 546.898883 353.2239 
L 575.68464 353.2239 
L 604.470398 353.2239 
L 633.256155 353.2239 
L 662.041913 353.2239 
L 690.82767 353.2239 
L 719.613428 353.2239 
L 748.399186 353.2239 
L 777.184943 353.2239 
L 805.970701 353.2239 
L 834.756458 353.2239 
L 863.542216 353.2239 
L 892.327973 353.2239 
L 921.113731 353.2239 
L 949.899489 353.2239 
" style="fill:none;stroke:#8085e9;stroke-linecap:square;"/>
   </g>
   <g id="line2d_12">
    <path clip-path="url(#pf43d2309e0)" d="M 86.326761 42.218664 
L 115.112519 346.621402 
L 143.898277 352.892308 
L 172.684034 353.199275 
L 201.469792 353.220864 
L 230.255549 353.222888 
L 259.041307 353.2239 
L 287.827064 353.2239 
L 316.612822 353.2239 
L 345.39858 353.2239 
L 374.184337 353.2239 
L 402.970095 353.2239 
L 431.755852 353.2239 
L 460.54161 353.2239 
L 489.327367 353.2239 
L 518.113125 353.2239 
L 546.898883 353.2239 
L 575.68464 353.2239 
L 604.470398 353.2239 
L 633.256155 353.2239 
L 662.041913 353.2239 
L 690.82767 353.2239 
L 719.613428 353.2239 
L 748.399186 353.2239 
L 777.184943 353.2239 
L 805.970701 353.2239 
L 834.756458 353.2239 
L 863.542216 353.2239 
L 892.327973 353.2239 
L 921.113731 353.2239 
L 949.899489 353.2239 
" style="fill:none;stroke:#f15c80;stroke-linecap:square;"/>
   </g>
   <g id="line2d_13">
    <path clip-path="url(#pf43d2309e0)" d="M 86.326761 36.027955 
L 115.112519 352.511234 
L 143.898277 353.164511 
L 172.684034 353.2239 
L 201.469792 353.2239 
L 230.255549 353.2239 
L 259.041307 353.2239 
L 287.827064 353.2239 
L 316.612822 353.2239 
L 345.39858 353.2239 
L 374.184337 353.2239 
L 402.970095 353.2239 
L 431.755852 353.2239 
L 460.54161 353.2239 
L 489.327367 353.2239 
L 518.113125 353.2239 
L 546.898883 353.2239 
L 575.68464 353.2239 
L 604.470398 353.2239 
L 633.256155 353.2239 
L 662.041913 353.2239 
L 690.82767 353.2239 
L 719.613428 353.2239 
L 748.399186 353.2239 
L 777.184943 353.2239 
L 805.970701 353.2239 
L 834.756458 353.2239 
L 863.542216 353.2239 
L 892.327973 353.2239 
L 921.113731 353.2239 
L 949.899489 353.2239 
" style="fill:none;stroke:#e4d354;stroke-linecap:square;"/>
   </g>
   <g id="line2d_14">
    <path clip-path="url(#pf43d2309e0)" d="M 86.326761 36.333149 
L 115.112519 352.146651 
L 143.898277 353.2239 
L 172.684034 353.2239 
L 201.469792 353.2239 
L 230.255549 353.2239 
L 259.041307 353.2239 
L 287.827064 353.2239 
L 316.612822 353.2239 
L 345.39858 353.2239 
L 374.184337 353.2239 
L 402.970095 353.2239 
L 431.755852 353.2239 
L 460.54161 353.2239 
L 489.327367 353.2239 
L 518.113125 353.2239 
L 546.898883 353.2239 
L 575.68464 353.2239 
L 604.470398 353.2239 
L 633.256155 353.2239 
L 662.041913 353.2239 
L 690.82767 353.2239 
L 719.613428 353.2239 
L 748.399186 353.2239 
L 777.184943 353.2239 
L 805.970701 353.2239 
L 834.756458 353.2239 
L 863.542216 353.2239 
L 892.327973 353.2239 
L 921.113731 353.2239 
L 949.899489 353.2239 
" style="fill:none;stroke:#2b908f;stroke-linecap:square;"/>
   </g>
   <g id="line2d_15">
    <path clip-path="url(#pf43d2309e0)" d="M 86.326761 36.275495 
L 115.112519 352.204305 
L 143.898277 353.2239 
L 172.684034 353.2239 
L 201.469792 353.2239 
L 230.255549 353.2239 
L 259.041307 353.2239 
L 287.827064 353.2239 
L 316.612822 353.2239 
L 345.39858 353.2239 
L 374.184337 353.2239 
L 402.970095 353.2239 
L 431.755852 353.2239 
L 460.54161 353.2239 
L 489.327367 353.2239 
L 518.113125 353.2239 
L 546.898883 353.2239 
L 575.68464 353.2239 
L 604.470398 353.2239 
L 633.256155 353.2239 
L 662.041913 353.2239 
L 690.82767 353.2239 
L 719.613428 353.2239 
L 748.399186 353.2239 
L 777.184943 353.2239 
L 805.970701 353.2239 
L 834.756458 353.2239 
L 863.542216 353.2239 
L 892.327973 353.2239 
L 921.113731 353.2239 
L 949.899489 353.2239 
" style="fill:none;stroke:#f45b5b;stroke-linecap:square;"/>
   </g>
   <g id="line2d_16">
    <path clip-path="url(#pf43d2309e0)" d="M 86.326761 36.788804 
L 115.112519 351.909983 
L 143.898277 353.004914 
L 172.684034 353.2239 
L 201.469792 353.2239 
L 230.255549 353.2239 
L 259.041307 353.2239 
L 287.827064 353.2239 
L 316.612822 353.2239 
L 345.39858 353.2239 
L 374.184337 353.2239 
L 402.970095 353.2239 
L 431.755852 353.2239 
L 460.54161 353.2239 
L 489.327367 353.2239 
L 518.113125 353.2239 
L 546.898883 353.2239 
L 575.68464 353.2239 
L 604.470398 353.2239 
L 633.256155 353.2239 
L 662.041913 353.2239 
L 690.82767 353.2239 
L 719.613428 353.2239 
L 748.399186 353.2239 
L 777.184943 353.2239 
L 805.970701 353.2239 
L 834.756458 353.2239 
L 863.542216 353.2239 
L 892.327973 353.2239 
L 921.113731 353.2239 
L 949.899489 353.2239 
" style="fill:none;stroke:#91e8e1;stroke-linecap:square;"/>
   </g>
   <g id="line2d_17">
    <path clip-path="url(#pf43d2309e0)" d="M 86.326761 36.772441 
L 115.112519 351.707359 
L 143.898277 353.2239 
L 172.684034 353.2239 
L 201.469792 353.2239 
L 230.255549 353.2239 
L 259.041307 353.2239 
L 287.827064 353.2239 
L 316.612822 353.2239 
L 345.39858 353.2239 
L 374.184337 353.2239 
L 402.970095 353.2239 
L 431.755852 353.2239 
L 460.54161 353.2239 
L 489.327367 353.2239 
L 518.113125 353.2239 
L 546.898883 353.2239 
L 575.68464 353.2239 
L 604.470398 353.2239 
L 633.256155 353.2239 
L 662.041913 353.2239 
L 690.82767 353.2239 
L 719.613428 353.2239 
L 748.399186 353.2239 
L 777.184943 353.2239 
L 805.970701 353.2239 
L 834.756458 353.2239 
L 863.542216 353.2239 
L 892.327973 353.2239 
L 921.113731 353.2239 
L 949.899489 353.2239 
" style="fill:none;stroke:#7cb5ec;stroke-linecap:square;"/>
   </g>
   <g id="line2d_18">
    <path clip-path="url(#pf43d2309e0)" d="M 86.326761 35.2559 
L 115.112519 353.2239 
L 143.898277 353.2239 
L 172.684034 353.2239 
L 201.469792 353.2239 
L 230.255549 353.2239 
L 259.041307 353.2239 
L 287.827064 353.2239 
L 316.612822 353.2239 
L 345.39858 353.2239 
L 374.184337 353.2239 
L 402.970095 353.2239 
L 431.755852 353.2239 
L 460.54161 353.2239 
L 489.327367 353.2239 
L 518.113125 353.2239 
L 546.898883 353.2239 
L 575.68464 353.2239 
L 604.470398 353.2239 
L 633.256155 353.2239 
L 662.041913 353.2239 
L 690.82767 353.2239 
L 719.613428 353.2239 
L 748.399186 353.2239 
L 777.184943 353.2239 
L 805.970701 353.2239 
L 834.756458 353.2239 
L 863.542216 353.2239 
L 892.327973 353.2239 
L 921.113731 353.2239 
L 949.899489 353.2239 
" style="fill:none;stroke:#434348;stroke-linecap:square;"/>
   </g>
   <g id="line2d_19">
    <path clip-path="url(#pf43d2309e0)" d="M 86.326761 36.351083 
L 115.112519 352.128717 
L 143.898277 353.2239 
L 172.684034 353.2239 
L 201.469792 353.2239 
L 230.255549 353.2239 
L 259.041307 353.2239 
L 287.827064 353.2239 
L 316.612822 353.2239 
L 345.39858 353.2239 
L 374.184337 353.2239 
L 402.970095 353.2239 
L 431.755852 353.2239 
L 460.54161 353.2239 
L 489.327367 353.2239 
L 518.113125 353.2239 
L 546.898883 353.2239 
L 575.68464 353.2239 
L 604.470398 353.2239 
L 633.256155 353.2239 
L 662.041913 353.2239 
L 690.82767 353.2239 
L 719.613428 353.2239 
L 748.399186 353.2239 
L 777.184943 353.2239 
L 805.970701 353.2239 
L 834.756458 353.2239 
L 863.542216 353.2239 
L 892.327973 353.2239 
L 921.113731 353.2239 
L 949.899489 353.2239 
" style="fill:none;stroke:#90ed7d;stroke-linecap:square;"/>
   </g>
   <g id="line2d_20">
    <path clip-path="url(#pf43d2309e0)" d="M 86.326761 43.208471 
L 115.112519 345.741242 
L 143.898277 352.794849 
L 172.684034 353.187941 
L 201.469792 353.219814 
L 230.255549 353.223083 
L 259.041307 353.2239 
L 287.827064 353.2239 
L 316.612822 353.2239 
L 345.39858 353.2239 
L 374.184337 353.2239 
L 402.970095 353.2239 
L 431.755852 353.2239 
L 460.54161 353.2239 
L 489.327367 353.2239 
L 518.113125 353.2239 
L 546.898883 353.2239 
L 575.68464 353.2239 
L 604.470398 353.2239 
L 633.256155 353.2239 
L 662.041913 353.2239 
L 690.82767 353.2239 
L 719.613428 353.2239 
L 748.399186 353.2239 
L 777.184943 353.2239 
L 805.970701 353.2239 
L 834.756458 353.2239 
L 863.542216 353.2239 
L 892.327973 353.2239 
L 921.113731 353.2239 
L 949.899489 353.2239 
" style="fill:none;stroke:#f7a35c;stroke-linecap:square;"/>
   </g>
   <g id="line2d_21">
    <path clip-path="url(#pf43d2309e0)" d="M 86.326761 37.960563 
L 115.112519 350.632606 
L 143.898277 353.110531 
L 172.684034 353.2239 
L 201.469792 353.2239 
L 230.255549 353.2239 
L 259.041307 353.2239 
L 287.827064 353.2239 
L 316.612822 353.2239 
L 345.39858 353.2239 
L 374.184337 353.2239 
L 402.970095 353.2239 
L 431.755852 353.2239 
L 460.54161 353.2239 
L 489.327367 353.2239 
L 518.113125 353.2239 
L 546.898883 353.2239 
L 575.68464 353.2239 
L 604.470398 353.2239 
L 633.256155 353.2239 
L 662.041913 353.2239 
L 690.82767 353.2239 
L 719.613428 353.2239 
L 748.399186 353.2239 
L 777.184943 353.2239 
L 805.970701 353.2239 
L 834.756458 353.2239 
L 863.542216 353.2239 
L 892.327973 353.2239 
L 921.113731 353.2239 
L 949.899489 353.2239 
" style="fill:none;stroke:#8085e9;stroke-linecap:square;"/>
   </g>
   <g id="line2d_22">
    <path clip-path="url(#pf43d2309e0)" d="M 86.326761 44.041658 
L 115.112519 344.995128 
L 143.898277 352.72122 
L 172.684034 353.173771 
L 201.469792 353.220419 
L 230.255549 353.223204 
L 259.041307 353.2239 
L 287.827064 353.2239 
L 316.612822 353.2239 
L 345.39858 353.2239 
L 374.184337 353.2239 
L 402.970095 353.2239 
L 431.755852 353.2239 
L 460.54161 353.2239 
L 489.327367 353.2239 
L 518.113125 353.2239 
L 546.898883 353.2239 
L 575.68464 353.2239 
L 604.470398 353.2239 
L 633.256155 353.2239 
L 662.041913 353.2239 
L 690.82767 353.2239 
L 719.613428 353.2239 
L 748.399186 353.2239 
L 777.184943 353.2239 
L 805.970701 353.2239 
L 834.756458 353.2239 
L 863.542216 353.2239 
L 892.327973 353.2239 
L 921.113731 353.2239 
L 949.899489 353.2239 
" style="fill:none;stroke:#f15c80;stroke-linecap:square;"/>
   </g>
   <g id="line2d_23">
    <path clip-path="url(#pf43d2309e0)" d="M 86.326761 36.54652 
L 115.112519 351.93328 
L 143.898277 353.2239 
L 172.684034 353.2239 
L 201.469792 353.2239 
L 230.255549 353.2239 
L 259.041307 353.2239 
L 287.827064 353.2239 
L 316.612822 353.2239 
L 345.39858 353.2239 
L 374.184337 353.2239 
L 402.970095 353.2239 
L 431.755852 353.2239 
L 460.54161 353.2239 
L 489.327367 353.2239 
L 518.113125 353.2239 
L 546.898883 353.2239 
L 575.68464 353.2239 
L 604.470398 353.2239 
L 633.256155 353.2239 
L 662.041913 353.2239 
L 690.82767 353.2239 
L 719.613428 353.2239 
L 748.399186 353.2239 
L 777.184943 353.2239 
L 805.970701 353.2239 
L 834.756458 353.2239 
L 863.542216 353.2239 
L 892.327973 353.2239 
L 921.113731 353.2239 
L 949.899489 353.2239 
" style="fill:none;stroke:#e4d354;stroke-linecap:square;"/>
   </g>
   <g id="line2d_24">
    <path clip-path="url(#pf43d2309e0)" d="M 86.326761 36.210005 
L 115.112519 352.320011 
L 143.898277 353.173684 
L 172.684034 353.2239 
L 201.469792 353.2239 
L 230.255549 353.2239 
L 259.041307 353.2239 
L 287.827064 353.2239 
L 316.612822 353.2239 
L 345.39858 353.2239 
L 374.184337 353.2239 
L 402.970095 353.2239 
L 431.755852 353.2239 
L 460.54161 353.2239 
L 489.327367 353.2239 
L 518.113125 353.2239 
L 546.898883 353.2239 
L 575.68464 353.2239 
L 604.470398 353.2239 
L 633.256155 353.2239 
L 662.041913 353.2239 
L 690.82767 353.2239 
L 719.613428 353.2239 
L 748.399186 353.2239 
L 777.184943 353.2239 
L 805.970701 353.2239 
L 834.756458 353.2239 
L 863.542216 353.2239 
L 892.327973 353.2239 
L 921.113731 353.2239 
L 949.899489 353.2239 
" style="fill:none;stroke:#2b908f;stroke-linecap:square;"/>
   </g>
   <g id="line2d_25">
    <path clip-path="url(#pf43d2309e0)" d="M 86.326761 37.514425 
L 115.112519 351.072924 
L 143.898277 353.116351 
L 172.684034 353.2239 
L 201.469792 353.2239 
L 230.255549 353.2239 
L 259.041307 353.2239 
L 287.827064 353.2239 
L 316.612822 353.2239 
L 345.39858 353.2239 
L 374.184337 353.2239 
L 402.970095 353.2239 
L 431.755852 353.2239 
L 460.54161 353.2239 
L 489.327367 353.2239 
L 518.113125 353.2239 
L 546.898883 353.2239 
L 575.68464 353.2239 
L 604.470398 353.2239 
L 633.256155 353.2239 
L 662.041913 353.2239 
L 690.82767 353.2239 
L 719.613428 353.2239 
L 748.399186 353.2239 
L 777.184943 353.2239 
L 805.970701 353.2239 
L 834.756458 353.2239 
L 863.542216 353.2239 
L 892.327973 353.2239 
L 921.113731 353.2239 
L 949.899489 353.2239 
" style="fill:none;stroke:#f45b5b;stroke-linecap:square;"/>
   </g>
   <g id="line2d_26">
    <path clip-path="url(#pf43d2309e0)" d="M 86.326761 45.540731 
L 115.112519 343.547429 
L 143.898277 352.666149 
L 172.684034 353.179969 
L 201.469792 353.217925 
L 230.255549 353.223197 
L 259.041307 353.2239 
L 287.827064 353.2239 
L 316.612822 353.2239 
L 345.39858 353.2239 
L 374.184337 353.2239 
L 402.970095 353.2239 
L 431.755852 353.2239 
L 460.54161 353.2239 
L 489.327367 353.2239 
L 518.113125 353.2239 
L 546.898883 353.2239 
L 575.68464 353.2239 
L 604.470398 353.2239 
L 633.256155 353.2239 
L 662.041913 353.2239 
L 690.82767 353.2239 
L 719.613428 353.2239 
L 748.399186 353.2239 
L 777.184943 353.2239 
L 805.970701 353.2239 
L 834.756458 353.2239 
L 863.542216 353.2239 
L 892.327973 353.2239 
L 921.113731 353.2239 
L 949.899489 353.2239 
" style="fill:none;stroke:#91e8e1;stroke-linecap:square;"/>
   </g>
   <g id="line2d_27">
    <path clip-path="url(#pf43d2309e0)" d="M 86.326761 43.912439 
L 115.112519 345.065225 
L 143.898277 352.771106 
L 172.684034 353.184304 
L 201.469792 353.219125 
L 230.255549 353.223201 
L 259.041307 353.2239 
L 287.827064 353.2239 
L 316.612822 353.2239 
L 345.39858 353.2239 
L 374.184337 353.2239 
L 402.970095 353.2239 
L 431.755852 353.2239 
L 460.54161 353.2239 
L 489.327367 353.2239 
L 518.113125 353.2239 
L 546.898883 353.2239 
L 575.68464 353.2239 
L 604.470398 353.2239 
L 633.256155 353.2239 
L 662.041913 353.2239 
L 690.82767 353.2239 
L 719.613428 353.2239 
L 748.399186 353.2239 
L 777.184943 353.2239 
L 805.970701 353.2239 
L 834.756458 353.2239 
L 863.542216 353.2239 
L 892.327973 353.2239 
L 921.113731 353.2239 
L 949.899489 353.2239 
" style="fill:none;stroke:#7cb5ec;stroke-linecap:square;"/>
   </g>
   <g id="line2d_28">
    <path clip-path="url(#pf43d2309e0)" d="M 86.326761 35.2559 
L 115.112519 353.2239 
L 143.898277 353.2239 
L 172.684034 353.2239 
L 201.469792 353.2239 
L 230.255549 353.2239 
L 259.041307 353.2239 
L 287.827064 353.2239 
L 316.612822 353.2239 
L 345.39858 353.2239 
L 374.184337 353.2239 
L 402.970095 353.2239 
L 431.755852 353.2239 
L 460.54161 353.2239 
L 489.327367 353.2239 
L 518.113125 353.2239 
L 546.898883 353.2239 
L 575.68464 353.2239 
L 604.470398 353.2239 
L 633.256155 353.2239 
L 662.041913 353.2239 
L 690.82767 353.2239 
L 719.613428 353.2239 
L 748.399186 353.2239 
L 777.184943 353.2239 
L 805.970701 353.2239 
L 834.756458 353.2239 
L 863.542216 353.2239 
L 892.327973 353.2239 
L 921.113731 353.2239 
L 949.899489 353.2239 
" style="fill:none;stroke:#434348;stroke-linecap:square;"/>
   </g>
   <g id="line2d_29">
    <path clip-path="url(#pf43d2309e0)" d="M 86.326761 36.093393 
L 115.112519 352.386407 
L 143.898277 353.2239 
L 172.684034 353.2239 
L 201.469792 353.2239 
L 230.255549 353.2239 
L 259.041307 353.2239 
L 287.827064 353.2239 
L 316.612822 353.2239 
L 345.39858 353.2239 
L 374.184337 353.2239 
L 402.970095 353.2239 
L 431.755852 353.2239 
L 460.54161 353.2239 
L 489.327367 353.2239 
L 518.113125 353.2239 
L 546.898883 353.2239 
L 575.68464 353.2239 
L 604.470398 353.2239 
L 633.256155 353.2239 
L 662.041913 353.2239 
L 690.82767 353.2239 
L 719.613428 353.2239 
L 748.399186 353.2239 
L 777.184943 353.2239 
L 805.970701 353.2239 
L 834.756458 353.2239 
L 863.542216 353.2239 
L 892.327973 353.2239 
L 921.113731 353.2239 
L 949.899489 353.2239 
" style="fill:none;stroke:#90ed7d;stroke-linecap:square;"/>
   </g>
   <g id="line2d_30">
    <path clip-path="url(#pf43d2309e0)" d="M 86.326761 43.142963 
L 115.112519 345.740685 
L 143.898277 352.84858 
L 172.684034 353.198047 
L 201.469792 353.221226 
L 230.255549 353.2239 
L 259.041307 353.2239 
L 287.827064 353.2239 
L 316.612822 353.2239 
L 345.39858 353.2239 
L 374.184337 353.2239 
L 402.970095 353.2239 
L 431.755852 353.2239 
L 460.54161 353.2239 
L 489.327367 353.2239 
L 518.113125 353.2239 
L 546.898883 353.2239 
L 575.68464 353.2239 
L 604.470398 353.2239 
L 633.256155 353.2239 
L 662.041913 353.2239 
L 690.82767 353.2239 
L 719.613428 353.2239 
L 748.399186 353.2239 
L 777.184943 353.2239 
L 805.970701 353.2239 
L 834.756458 353.2239 
L 863.542216 353.2239 
L 892.327973 353.2239 
L 921.113731 353.2239 
L 949.899489 353.2239 
" style="fill:none;stroke:#f7a35c;stroke-linecap:square;"/>
   </g>
   <g id="line2d_31">
    <path clip-path="url(#pf43d2309e0)" d="M 86.326761 40.716075 
L 115.112519 348.010915 
L 143.898277 352.989279 
L 172.684034 353.213426 
L 201.469792 353.221805 
L 230.255549 353.2239 
L 259.041307 353.2239 
L 287.827064 353.2239 
L 316.612822 353.2239 
L 345.39858 353.2239 
L 374.184337 353.2239 
L 402.970095 353.2239 
L 431.755852 353.2239 
L 460.54161 353.2239 
L 489.327367 353.2239 
L 518.113125 353.2239 
L 546.898883 353.2239 
L 575.68464 353.2239 
L 604.470398 353.2239 
L 633.256155 353.2239 
L 662.041913 353.2239 
L 690.82767 353.2239 
L 719.613428 353.2239 
L 748.399186 353.2239 
L 777.184943 353.2239 
L 805.970701 353.2239 
L 834.756458 353.2239 
L 863.542216 353.2239 
L 892.327973 353.2239 
L 921.113731 353.2239 
L 949.899489 353.2239 
" style="fill:none;stroke:#8085e9;stroke-linecap:square;"/>
   </g>
   <g id="line2d_32">
    <path clip-path="url(#pf43d2309e0)" d="M 86.326761 36.692022 
L 115.112519 351.894158 
L 143.898277 353.117521 
L 172.684034 353.2239 
L 201.469792 353.2239 
L 230.255549 353.2239 
L 259.041307 353.2239 
L 287.827064 353.2239 
L 316.612822 353.2239 
L 345.39858 353.2239 
L 374.184337 353.2239 
L 402.970095 353.2239 
L 431.755852 353.2239 
L 460.54161 353.2239 
L 489.327367 353.2239 
L 518.113125 353.2239 
L 546.898883 353.2239 
L 575.68464 353.2239 
L 604.470398 353.2239 
L 633.256155 353.2239 
L 662.041913 353.2239 
L 690.82767 353.2239 
L 719.613428 353.2239 
L 748.399186 353.2239 
L 777.184943 353.2239 
L 805.970701 353.2239 
L 834.756458 353.2239 
L 863.542216 353.2239 
L 892.327973 353.2239 
L 921.113731 353.2239 
L 949.899489 353.2239 
" style="fill:none;stroke:#f15c80;stroke-linecap:square;"/>
   </g>
   <g id="line2d_33">
    <path clip-path="url(#pf43d2309e0)" d="M 86.326761 36.67386 
L 115.112519 351.882586 
L 143.898277 353.147254 
L 172.684034 353.2239 
L 201.469792 353.2239 
L 230.255549 353.2239 
L 259.041307 353.2239 
L 287.827064 353.2239 
L 316.612822 353.2239 
L 345.39858 353.2239 
L 374.184337 353.2239 
L 402.970095 353.2239 
L 431.755852 353.2239 
L 460.54161 353.2239 
L 489.327367 353.2239 
L 518.113125 353.2239 
L 546.898883 353.2239 
L 575.68464 353.2239 
L 604.470398 353.2239 
L 633.256155 353.2239 
L 662.041913 353.2239 
L 690.82767 353.2239 
L 719.613428 353.2239 
L 748.399186 353.2239 
L 777.184943 353.2239 
L 805.970701 353.2239 
L 834.756458 353.2239 
L 863.542216 353.2239 
L 892.327973 353.2239 
L 921.113731 353.2239 
L 949.899489 353.2239 
" style="fill:none;stroke:#e4d354;stroke-linecap:square;"/>
   </g>
   <g id="line2d_34">
    <path clip-path="url(#pf43d2309e0)" d="M 86.326761 44.972554 
L 115.112519 344.104367 
L 143.898277 352.686934 
L 172.684034 353.171818 
L 201.469792 353.217037 
L 230.255549 353.222689 
L 259.041307 353.2239 
L 287.827064 353.2239 
L 316.612822 353.2239 
L 345.39858 353.2239 
L 374.184337 353.2239 
L 402.970095 353.2239 
L 431.755852 353.2239 
L 460.54161 353.2239 
L 489.327367 353.2239 
L 518.113125 353.2239 
L 546.898883 353.2239 
L 575.68464 353.2239 
L 604.470398 353.2239 
L 633.256155 353.2239 
L 662.041913 353.2239 
L 690.82767 353.2239 
L 719.613428 353.2239 
L 748.399186 353.2239 
L 777.184943 353.2239 
L 805.970701 353.2239 
L 834.756458 353.2239 
L 863.542216 353.2239 
L 892.327973 353.2239 
L 921.113731 353.2239 
L 949.899489 353.2239 
" style="fill:none;stroke:#2b908f;stroke-linecap:square;"/>
   </g>
   <g id="line2d_35">
    <path clip-path="url(#pf43d2309e0)" d="M 86.326761 36.372949 
L 115.112519 352.106851 
L 143.898277 353.2239 
L 172.684034 353.2239 
L 201.469792 353.2239 
L 230.255549 353.2239 
L 259.041307 353.2239 
L 287.827064 353.2239 
L 316.612822 353.2239 
L 345.39858 353.2239 
L 374.184337 353.2239 
L 402.970095 353.2239 
L 431.755852 353.2239 
L 460.54161 353.2239 
L 489.327367 353.2239 
L 518.113125 353.2239 
L 546.898883 353.2239 
L 575.68464 353.2239 
L 604.470398 353.2239 
L 633.256155 353.2239 
L 662.041913 353.2239 
L 690.82767 353.2239 
L 719.613428 353.2239 
L 748.399186 353.2239 
L 777.184943 353.2239 
L 805.970701 353.2239 
L 834.756458 353.2239 
L 863.542216 353.2239 
L 892.327973 353.2239 
L 921.113731 353.2239 
L 949.899489 353.2239 
" style="fill:none;stroke:#f45b5b;stroke-linecap:square;"/>
   </g>
   <g id="line2d_36">
    <path clip-path="url(#pf43d2309e0)" d="M 86.326761 36.244323 
L 115.112519 352.235477 
L 143.898277 353.2239 
L 172.684034 353.2239 
L 201.469792 353.2239 
L 230.255549 353.2239 
L 259.041307 353.2239 
L 287.827064 353.2239 
L 316.612822 353.2239 
L 345.39858 353.2239 
L 374.184337 353.2239 
L 402.970095 353.2239 
L 431.755852 353.2239 
L 460.54161 353.2239 
L 489.327367 353.2239 
L 518.113125 353.2239 
L 546.898883 353.2239 
L 575.68464 353.2239 
L 604.470398 353.2239 
L 633.256155 353.2239 
L 662.041913 353.2239 
L 690.82767 353.2239 
L 719.613428 353.2239 
L 748.399186 353.2239 
L 777.184943 353.2239 
L 805.970701 353.2239 
L 834.756458 353.2239 
L 863.542216 353.2239 
L 892.327973 353.2239 
L 921.113731 353.2239 
L 949.899489 353.2239 
" style="fill:none;stroke:#91e8e1;stroke-linecap:square;"/>
   </g>
   <g id="line2d_37">
    <path clip-path="url(#pf43d2309e0)" d="M 86.326761 36.405644 
L 115.112519 352.074156 
L 143.898277 353.2239 
L 172.684034 353.2239 
L 201.469792 353.2239 
L 230.255549 353.2239 
L 259.041307 353.2239 
L 287.827064 353.2239 
L 316.612822 353.2239 
L 345.39858 353.2239 
L 374.184337 353.2239 
L 402.970095 353.2239 
L 431.755852 353.2239 
L 460.54161 353.2239 
L 489.327367 353.2239 
L 518.113125 353.2239 
L 546.898883 353.2239 
L 575.68464 353.2239 
L 604.470398 353.2239 
L 633.256155 353.2239 
L 662.041913 353.2239 
L 690.82767 353.2239 
L 719.613428 353.2239 
L 748.399186 353.2239 
L 777.184943 353.2239 
L 805.970701 353.2239 
L 834.756458 353.2239 
L 863.542216 353.2239 
L 892.327973 353.2239 
L 921.113731 353.2239 
L 949.899489 353.2239 
" style="fill:none;stroke:#7cb5ec;stroke-linecap:square;"/>
   </g>
   <g id="line2d_38">
    <path clip-path="url(#pf43d2309e0)" d="M 86.326761 36.219174 
L 115.112519 352.260626 
L 143.898277 353.2239 
L 172.684034 353.2239 
L 201.469792 353.2239 
L 230.255549 353.2239 
L 259.041307 353.2239 
L 287.827064 353.2239 
L 316.612822 353.2239 
L 345.39858 353.2239 
L 374.184337 353.2239 
L 402.970095 353.2239 
L 431.755852 353.2239 
L 460.54161 353.2239 
L 489.327367 353.2239 
L 518.113125 353.2239 
L 546.898883 353.2239 
L 575.68464 353.2239 
L 604.470398 353.2239 
L 633.256155 353.2239 
L 662.041913 353.2239 
L 690.82767 353.2239 
L 719.613428 353.2239 
L 748.399186 353.2239 
L 777.184943 353.2239 
L 805.970701 353.2239 
L 834.756458 353.2239 
L 863.542216 353.2239 
L 892.327973 353.2239 
L 921.113731 353.2239 
L 949.899489 353.2239 
" style="fill:none;stroke:#434348;stroke-linecap:square;"/>
   </g>
   <g id="line2d_39">
    <path clip-path="url(#pf43d2309e0)" d="M 86.326761 37.449864 
L 115.112519 351.500072 
L 143.898277 352.753765 
L 172.684034 353.2239 
L 201.469792 353.2239 
L 230.255549 353.2239 
L 259.041307 353.2239 
L 287.827064 353.2239 
L 316.612822 353.2239 
L 345.39858 353.2239 
L 374.184337 353.2239 
L 402.970095 353.2239 
L 431.755852 353.2239 
L 460.54161 353.2239 
L 489.327367 353.2239 
L 518.113125 353.2239 
L 546.898883 353.2239 
L 575.68464 353.2239 
L 604.470398 353.2239 
L 633.256155 353.2239 
L 662.041913 353.2239 
L 690.82767 353.2239 
L 719.613428 353.2239 
L 748.399186 353.2239 
L 777.184943 353.2239 
L 805.970701 353.2239 
L 834.756458 353.2239 
L 863.542216 353.2239 
L 892.327973 353.2239 
L 921.113731 353.2239 
L 949.899489 353.2239 
" style="fill:none;stroke:#90ed7d;stroke-linecap:square;"/>
   </g>
   <g id="line2d_40">
    <path clip-path="url(#pf43d2309e0)" d="M 86.326761 36.37847 
L 115.112519 352.10133 
L 143.898277 353.2239 
L 172.684034 353.2239 
L 201.469792 353.2239 
L 230.255549 353.2239 
L 259.041307 353.2239 
L 287.827064 353.2239 
L 316.612822 353.2239 
L 345.39858 353.2239 
L 374.184337 353.2239 
L 402.970095 353.2239 
L 431.755852 353.2239 
L 460.54161 353.2239 
L 489.327367 353.2239 
L 518.113125 353.2239 
L 546.898883 353.2239 
L 575.68464 353.2239 
L 604.470398 353.2239 
L 633.256155 353.2239 
L 662.041913 353.2239 
L 690.82767 353.2239 
L 719.613428 353.2239 
L 748.399186 353.2239 
L 777.184943 353.2239 
L 805.970701 353.2239 
L 834.756458 353.2239 
L 863.542216 353.2239 
L 892.327973 353.2239 
L 921.113731 353.2239 
L 949.899489 353.2239 
" style="fill:none;stroke:#f7a35c;stroke-linecap:square;"/>
   </g>
   <g id="line2d_41">
    <path clip-path="url(#pf43d2309e0)" d="M 86.326761 42.391271 
L 115.112519 346.465834 
L 143.898277 352.881674 
L 172.684034 353.191307 
L 201.469792 353.222243 
L 230.255549 353.223624 
L 259.041307 353.223624 
L 287.827064 353.223624 
L 316.612822 353.2239 
L 345.39858 353.2239 
L 374.184337 353.2239 
L 402.970095 353.2239 
L 431.755852 353.2239 
L 460.54161 353.2239 
L 489.327367 353.2239 
L 518.113125 353.2239 
L 546.898883 353.2239 
L 575.68464 353.2239 
L 604.470398 353.2239 
L 633.256155 353.2239 
L 662.041913 353.2239 
L 690.82767 353.2239 
L 719.613428 353.2239 
L 748.399186 353.2239 
L 777.184943 353.2239 
L 805.970701 353.2239 
L 834.756458 353.2239 
L 863.542216 353.2239 
L 892.327973 353.2239 
L 921.113731 353.2239 
L 949.899489 353.2239 
" style="fill:none;stroke:#8085e9;stroke-linecap:square;"/>
   </g>
   <g id="line2d_42">
    <path clip-path="url(#pf43d2309e0)" d="M 86.326761 54.306204 
L 115.112519 335.670745 
L 143.898277 351.875215 
L 172.684034 353.094291 
L 201.469792 353.206831 
L 230.255549 353.222312 
L 259.041307 353.2239 
L 287.827064 353.223702 
L 316.612822 353.2239 
L 345.39858 353.2239 
L 374.184337 353.2239 
L 402.970095 353.2239 
L 431.755852 353.2239 
L 460.54161 353.2239 
L 489.327367 353.2239 
L 518.113125 353.2239 
L 546.898883 353.2239 
L 575.68464 353.2239 
L 604.470398 353.2239 
L 633.256155 353.2239 
L 662.041913 353.2239 
L 690.82767 353.2239 
L 719.613428 353.2239 
L 748.399186 353.2239 
L 777.184943 353.2239 
L 805.970701 353.2239 
L 834.756458 353.2239 
L 863.542216 353.2239 
L 892.327973 353.2239 
L 921.113731 353.2239 
L 949.899489 353.2239 
" style="fill:none;stroke:#f15c80;stroke-linecap:square;"/>
   </g>
   <g id="line2d_43">
    <path clip-path="url(#pf43d2309e0)" d="M 86.326761 36.951826 
L 115.112519 351.636225 
L 143.898277 353.115649 
L 172.684034 353.2239 
L 201.469792 353.2239 
L 230.255549 353.2239 
L 259.041307 353.2239 
L 287.827064 353.2239 
L 316.612822 353.2239 
L 345.39858 353.2239 
L 374.184337 353.2239 
L 402.970095 353.2239 
L 431.755852 353.2239 
L 460.54161 353.2239 
L 489.327367 353.2239 
L 518.113125 353.2239 
L 546.898883 353.2239 
L 575.68464 353.2239 
L 604.470398 353.2239 
L 633.256155 353.2239 
L 662.041913 353.2239 
L 690.82767 353.2239 
L 719.613428 353.2239 
L 748.399186 353.2239 
L 777.184943 353.2239 
L 805.970701 353.2239 
L 834.756458 353.2239 
L 863.542216 353.2239 
L 892.327973 353.2239 
L 921.113731 353.2239 
L 949.899489 353.2239 
" style="fill:none;stroke:#e4d354;stroke-linecap:square;"/>
   </g>
   <g id="line2d_44">
    <path clip-path="url(#pf43d2309e0)" d="M 86.326761 37.14346 
L 115.112519 351.33634 
L 143.898277 353.2239 
L 172.684034 353.2239 
L 201.469792 353.2239 
L 230.255549 353.2239 
L 259.041307 353.2239 
L 287.827064 353.2239 
L 316.612822 353.2239 
L 345.39858 353.2239 
L 374.184337 353.2239 
L 402.970095 353.2239 
L 431.755852 353.2239 
L 460.54161 353.2239 
L 489.327367 353.2239 
L 518.113125 353.2239 
L 546.898883 353.2239 
L 575.68464 353.2239 
L 604.470398 353.2239 
L 633.256155 353.2239 
L 662.041913 353.2239 
L 690.82767 353.2239 
L 719.613428 353.2239 
L 748.399186 353.2239 
L 777.184943 353.2239 
L 805.970701 353.2239 
L 834.756458 353.2239 
L 863.542216 353.2239 
L 892.327973 353.2239 
L 921.113731 353.2239 
L 949.899489 353.2239 
" style="fill:none;stroke:#2b908f;stroke-linecap:square;"/>
   </g>
   <g id="line2d_45">
    <path clip-path="url(#pf43d2309e0)" d="M 86.326761 37.033826 
L 115.112519 351.445974 
L 143.898277 353.2239 
L 172.684034 353.2239 
L 201.469792 353.2239 
L 230.255549 353.2239 
L 259.041307 353.2239 
L 287.827064 353.2239 
L 316.612822 353.2239 
L 345.39858 353.2239 
L 374.184337 353.2239 
L 402.970095 353.2239 
L 431.755852 353.2239 
L 460.54161 353.2239 
L 489.327367 353.2239 
L 518.113125 353.2239 
L 546.898883 353.2239 
L 575.68464 353.2239 
L 604.470398 353.2239 
L 633.256155 353.2239 
L 662.041913 353.2239 
L 690.82767 353.2239 
L 719.613428 353.2239 
L 748.399186 353.2239 
L 777.184943 353.2239 
L 805.970701 353.2239 
L 834.756458 353.2239 
L 863.542216 353.2239 
L 892.327973 353.2239 
L 921.113731 353.2239 
L 949.899489 353.2239 
" style="fill:none;stroke:#f45b5b;stroke-linecap:square;"/>
   </g>
   <g id="line2d_46">
    <path clip-path="url(#pf43d2309e0)" d="M 86.326761 47.924991 
L 115.112519 341.383067 
L 143.898277 352.476454 
L 172.684034 353.152833 
L 201.469792 353.215363 
L 230.255549 353.222975 
L 259.041307 353.223758 
L 287.827064 353.223758 
L 316.612822 353.2239 
L 345.39858 353.2239 
L 374.184337 353.2239 
L 402.970095 353.2239 
L 431.755852 353.2239 
L 460.54161 353.2239 
L 489.327367 353.2239 
L 518.113125 353.2239 
L 546.898883 353.2239 
L 575.68464 353.2239 
L 604.470398 353.2239 
L 633.256155 353.2239 
L 662.041913 353.2239 
L 690.82767 353.2239 
L 719.613428 353.2239 
L 748.399186 353.2239 
L 777.184943 353.2239 
L 805.970701 353.2239 
L 834.756458 353.2239 
L 863.542216 353.2239 
L 892.327973 353.2239 
L 921.113731 353.2239 
L 949.899489 353.2239 
" style="fill:none;stroke:#91e8e1;stroke-linecap:square;"/>
   </g>
   <g id="line2d_47">
    <path clip-path="url(#pf43d2309e0)" d="M 86.326761 36.785144 
L 115.112519 351.732887 
L 143.898277 353.185669 
L 172.684034 353.2239 
L 201.469792 353.2239 
L 230.255549 353.2239 
L 259.041307 353.2239 
L 287.827064 353.2239 
L 316.612822 353.2239 
L 345.39858 353.2239 
L 374.184337 353.2239 
L 402.970095 353.2239 
L 431.755852 353.2239 
L 460.54161 353.2239 
L 489.327367 353.2239 
L 518.113125 353.2239 
L 546.898883 353.2239 
L 575.68464 353.2239 
L 604.470398 353.2239 
L 633.256155 353.2239 
L 662.041913 353.2239 
L 690.82767 353.2239 
L 719.613428 353.2239 
L 748.399186 353.2239 
L 777.184943 353.2239 
L 805.970701 353.2239 
L 834.756458 353.2239 
L 863.542216 353.2239 
L 892.327973 353.2239 
L 921.113731 353.2239 
L 949.899489 353.2239 
" style="fill:none;stroke:#7cb5ec;stroke-linecap:square;"/>
   </g>
   <g id="line2d_48">
    <path clip-path="url(#pf43d2309e0)" d="M 86.326761 36.852575 
L 115.112519 351.658532 
L 143.898277 353.192593 
L 172.684034 353.2239 
L 201.469792 353.2239 
L 230.255549 353.2239 
L 259.041307 353.2239 
L 287.827064 353.2239 
L 316.612822 353.2239 
L 345.39858 353.2239 
L 374.184337 353.2239 
L 402.970095 353.2239 
L 431.755852 353.2239 
L 460.54161 353.2239 
L 489.327367 353.2239 
L 518.113125 353.2239 
L 546.898883 353.2239 
L 575.68464 353.2239 
L 604.470398 353.2239 
L 633.256155 353.2239 
L 662.041913 353.2239 
L 690.82767 353.2239 
L 719.613428 353.2239 
L 748.399186 353.2239 
L 777.184943 353.2239 
L 805.970701 353.2239 
L 834.756458 353.2239 
L 863.542216 353.2239 
L 892.327973 353.2239 
L 921.113731 353.2239 
L 949.899489 353.2239 
" style="fill:none;stroke:#434348;stroke-linecap:square;"/>
   </g>
   <g id="line2d_49">
    <path clip-path="url(#pf43d2309e0)" d="M 86.326761 36.547771 
L 115.112519 351.982362 
L 143.898277 353.173567 
L 172.684034 353.2239 
L 201.469792 353.2239 
L 230.255549 353.2239 
L 259.041307 353.2239 
L 287.827064 353.2239 
L 316.612822 353.2239 
L 345.39858 353.2239 
L 374.184337 353.2239 
L 402.970095 353.2239 
L 431.755852 353.2239 
L 460.54161 353.2239 
L 489.327367 353.2239 
L 518.113125 353.2239 
L 546.898883 353.2239 
L 575.68464 353.2239 
L 604.470398 353.2239 
L 633.256155 353.2239 
L 662.041913 353.2239 
L 690.82767 353.2239 
L 719.613428 353.2239 
L 748.399186 353.2239 
L 777.184943 353.2239 
L 805.970701 353.2239 
L 834.756458 353.2239 
L 863.542216 353.2239 
L 892.327973 353.2239 
L 921.113731 353.2239 
L 949.899489 353.2239 
" style="fill:none;stroke:#90ed7d;stroke-linecap:square;"/>
   </g>
   <g id="line2d_50">
    <path clip-path="url(#pf43d2309e0)" d="M 86.326761 36.868027 
L 115.112519 351.645713 
L 143.898277 353.18996 
L 172.684034 353.2239 
L 201.469792 353.2239 
L 230.255549 353.2239 
L 259.041307 353.2239 
L 287.827064 353.2239 
L 316.612822 353.2239 
L 345.39858 353.2239 
L 374.184337 353.2239 
L 402.970095 353.2239 
L 431.755852 353.2239 
L 460.54161 353.2239 
L 489.327367 353.2239 
L 518.113125 353.2239 
L 546.898883 353.2239 
L 575.68464 353.2239 
L 604.470398 353.2239 
L 633.256155 353.2239 
L 662.041913 353.2239 
L 690.82767 353.2239 
L 719.613428 353.2239 
L 748.399186 353.2239 
L 777.184943 353.2239 
L 805.970701 353.2239 
L 834.756458 353.2239 
L 863.542216 353.2239 
L 892.327973 353.2239 
L 921.113731 353.2239 
L 949.899489 353.2239 
" style="fill:none;stroke:#f7a35c;stroke-linecap:square;"/>
   </g>
   <g id="line2d_51">
    <path clip-path="url(#pf43d2309e0)" d="M 86.326761 50.429387 
L 115.112519 339.155122 
L 143.898277 352.229697 
L 172.684034 353.125403 
L 201.469792 353.213593 
L 230.255549 353.222735 
L 259.041307 353.223542 
L 287.827064 353.22381 
L 316.612822 353.2239 
L 345.39858 353.2239 
L 374.184337 353.2239 
L 402.970095 353.2239 
L 431.755852 353.2239 
L 460.54161 353.2239 
L 489.327367 353.2239 
L 518.113125 353.2239 
L 546.898883 353.2239 
L 575.68464 353.2239 
L 604.470398 353.2239 
L 633.256155 353.2239 
L 662.041913 353.2239 
L 690.82767 353.2239 
L 719.613428 353.2239 
L 748.399186 353.2239 
L 777.184943 353.2239 
L 805.970701 353.2239 
L 834.756458 353.22381 
L 863.542216 353.2239 
L 892.327973 353.2239 
L 921.113731 353.2239 
L 949.899489 353.2239 
" style="fill:none;stroke:#8085e9;stroke-linecap:square;"/>
   </g>
   <g id="line2d_52">
    <path clip-path="url(#pf43d2309e0)" d="M 86.326761 47.710004 
L 115.112519 341.584503 
L 143.898277 352.491137 
L 172.684034 353.150643 
L 201.469792 353.216792 
L 230.255549 353.222518 
L 259.041307 353.223801 
L 287.827064 353.223801 
L 316.612822 353.2239 
L 345.39858 353.2239 
L 374.184337 353.2239 
L 402.970095 353.2239 
L 431.755852 353.2239 
L 460.54161 353.2239 
L 489.327367 353.2239 
L 518.113125 353.2239 
L 546.898883 353.2239 
L 575.68464 353.2239 
L 604.470398 353.2239 
L 633.256155 353.2239 
L 662.041913 353.2239 
L 690.82767 353.2239 
L 719.613428 353.2239 
L 748.399186 353.2239 
L 777.184943 353.2239 
L 805.970701 353.2239 
L 834.756458 353.2239 
L 863.542216 353.2239 
L 892.327973 353.2239 
L 921.113731 353.2239 
L 949.899489 353.2239 
" style="fill:none;stroke:#f15c80;stroke-linecap:square;"/>
   </g>
   <g id="line2d_53">
    <path clip-path="url(#pf43d2309e0)" d="M 86.326761 51.601361 
L 115.112519 338.125877 
L 143.898277 352.108143 
L 172.684034 353.109417 
L 201.469792 353.208597 
L 230.255549 353.222297 
L 259.041307 353.223681 
L 287.827064 353.223827 
L 316.612822 353.2239 
L 345.39858 353.2239 
L 374.184337 353.2239 
L 402.970095 353.2239 
L 431.755852 353.2239 
L 460.54161 353.2239 
L 489.327367 353.2239 
L 518.113125 353.2239 
L 546.898883 353.2239 
L 575.68464 353.2239 
L 604.470398 353.2239 
L 633.256155 353.2239 
L 662.041913 353.2239 
L 690.82767 353.2239 
L 719.613428 353.2239 
L 748.399186 353.2239 
L 777.184943 353.2239 
L 805.970701 353.2239 
L 834.756458 353.2239 
L 863.542216 353.2239 
L 892.327973 353.2239 
L 921.113731 353.2239 
L 949.899489 353.2239 
" style="fill:none;stroke:#e4d354;stroke-linecap:square;"/>
   </g>
   <g id="line2d_54">
    <path clip-path="url(#pf43d2309e0)" d="M 86.326761 53.520911 
L 115.112519 336.335515 
L 143.898277 351.977107 
L 172.684034 353.109993 
L 201.469792 353.209989 
L 230.255549 353.22222 
L 259.041307 353.223631 
L 287.827064 353.223833 
L 316.612822 353.2239 
L 345.39858 353.2239 
L 374.184337 353.2239 
L 402.970095 353.2239 
L 431.755852 353.2239 
L 460.54161 353.2239 
L 489.327367 353.2239 
L 518.113125 353.2239 
L 546.898883 353.2239 
L 575.68464 353.2239 
L 604.470398 353.2239 
L 633.256155 353.2239 
L 662.041913 353.2239 
L 690.82767 353.2239 
L 719.613428 353.2239 
L 748.399186 353.2239 
L 777.184943 353.2239 
L 805.970701 353.2239 
L 834.756458 353.2239 
L 863.542216 353.2239 
L 892.327973 353.2239 
L 921.113731 353.2239 
L 949.899489 353.2239 
" style="fill:none;stroke:#2b908f;stroke-linecap:square;"/>
   </g>
   <g id="line2d_55">
    <path clip-path="url(#pf43d2309e0)" d="M 86.326761 36.608855 
L 115.112519 351.906239 
L 143.898277 353.188606 
L 172.684034 353.2239 
L 201.469792 353.2239 
L 230.255549 353.2239 
L 259.041307 353.2239 
L 287.827064 353.2239 
L 316.612822 353.2239 
L 345.39858 353.2239 
L 374.184337 353.2239 
L 402.970095 353.2239 
L 431.755852 353.2239 
L 460.54161 353.2239 
L 489.327367 353.2239 
L 518.113125 353.2239 
L 546.898883 353.2239 
L 575.68464 353.2239 
L 604.470398 353.2239 
L 633.256155 353.2239 
L 662.041913 353.2239 
L 690.82767 353.2239 
L 719.613428 353.2239 
L 748.399186 353.2239 
L 777.184943 353.2239 
L 805.970701 353.2239 
L 834.756458 353.2239 
L 863.542216 353.2239 
L 892.327973 353.2239 
L 921.113731 353.2239 
L 949.899489 353.2239 
" style="fill:none;stroke:#f45b5b;stroke-linecap:square;"/>
   </g>
   <g id="line2d_56">
    <path clip-path="url(#pf43d2309e0)" d="M 86.326761 47.431649 
L 115.112519 341.808781 
L 143.898277 352.535595 
L 172.684034 353.159827 
L 201.469792 353.216423 
L 230.255549 353.223255 
L 259.041307 353.223771 
L 287.827064 353.2239 
L 316.612822 353.2239 
L 345.39858 353.2239 
L 374.184337 353.2239 
L 402.970095 353.2239 
L 431.755852 353.2239 
L 460.54161 353.2239 
L 489.327367 353.2239 
L 518.113125 353.2239 
L 546.898883 353.2239 
L 575.68464 353.2239 
L 604.470398 353.2239 
L 633.256155 353.2239 
L 662.041913 353.2239 
L 690.82767 353.2239 
L 719.613428 353.2239 
L 748.399186 353.2239 
L 777.184943 353.2239 
L 805.970701 353.2239 
L 834.756458 353.2239 
L 863.542216 353.2239 
L 892.327973 353.2239 
L 921.113731 353.2239 
L 949.899489 353.2239 
" style="fill:none;stroke:#91e8e1;stroke-linecap:square;"/>
   </g>
   <g id="line2d_57">
    <path clip-path="url(#pf43d2309e0)" d="M 86.326761 50.34632 
L 115.112519 339.250323 
L 143.898277 352.228017 
L 172.684034 353.116213 
L 201.469792 353.213041 
L 230.255549 353.22209 
L 259.041307 353.223448 
L 287.827064 353.2239 
L 316.612822 353.2239 
L 345.39858 353.2239 
L 374.184337 353.2239 
L 402.970095 353.2239 
L 431.755852 353.2239 
L 460.54161 353.2239 
L 489.327367 353.223749 
L 518.113125 353.2239 
L 546.898883 353.2239 
L 575.68464 353.2239 
L 604.470398 353.2239 
L 633.256155 353.2239 
L 662.041913 353.2239 
L 690.82767 353.2239 
L 719.613428 353.2239 
L 748.399186 353.2239 
L 777.184943 353.2239 
L 805.970701 353.2239 
L 834.756458 353.2239 
L 863.542216 353.2239 
L 892.327973 353.2239 
L 921.113731 353.2239 
L 949.899489 353.2239 
" style="fill:none;stroke:#7cb5ec;stroke-linecap:square;"/>
   </g>
   <g id="line2d_58">
    <path clip-path="url(#pf43d2309e0)" d="M 86.326761 36.787248 
L 115.112519 351.717657 
L 143.898277 353.198796 
L 172.684034 353.2239 
L 201.469792 353.2239 
L 230.255549 353.2239 
L 259.041307 353.2239 
L 287.827064 353.2239 
L 316.612822 353.2239 
L 345.39858 353.2239 
L 374.184337 353.2239 
L 402.970095 353.2239 
L 431.755852 353.2239 
L 460.54161 353.2239 
L 489.327367 353.2239 
L 518.113125 353.2239 
L 546.898883 353.2239 
L 575.68464 353.2239 
L 604.470398 353.2239 
L 633.256155 353.2239 
L 662.041913 353.2239 
L 690.82767 353.2239 
L 719.613428 353.2239 
L 748.399186 353.2239 
L 777.184943 353.2239 
L 805.970701 353.2239 
L 834.756458 353.2239 
L 863.542216 353.2239 
L 892.327973 353.2239 
L 921.113731 353.2239 
L 949.899489 353.2239 
" style="fill:none;stroke:#434348;stroke-linecap:square;"/>
   </g>
   <g id="line2d_59">
    <path clip-path="url(#pf43d2309e0)" d="M 86.326761 36.880776 
L 115.112519 351.632875 
L 143.898277 353.190048 
L 172.684034 353.2239 
L 201.469792 353.2239 
L 230.255549 353.2239 
L 259.041307 353.2239 
L 287.827064 353.2239 
L 316.612822 353.2239 
L 345.39858 353.2239 
L 374.184337 353.2239 
L 402.970095 353.2239 
L 431.755852 353.2239 
L 460.54161 353.2239 
L 489.327367 353.2239 
L 518.113125 353.2239 
L 546.898883 353.2239 
L 575.68464 353.2239 
L 604.470398 353.2239 
L 633.256155 353.2239 
L 662.041913 353.2239 
L 690.82767 353.2239 
L 719.613428 353.2239 
L 748.399186 353.2239 
L 777.184943 353.2239 
L 805.970701 353.2239 
L 834.756458 353.2239 
L 863.542216 353.2239 
L 892.327973 353.2239 
L 921.113731 353.2239 
L 949.899489 353.2239 
" style="fill:none;stroke:#90ed7d;stroke-linecap:square;"/>
   </g>
   <g id="line2d_60">
    <path clip-path="url(#pf43d2309e0)" d="M 86.326761 49.80942 
L 115.112519 339.756316 
L 143.898277 352.249432 
L 172.684034 353.126453 
L 201.469792 353.211611 
L 230.255549 353.222482 
L 259.041307 353.223664 
L 287.827064 353.223821 
L 316.612822 353.2239 
L 345.39858 353.2239 
L 374.184337 353.2239 
L 402.970095 353.2239 
L 431.755852 353.2239 
L 460.54161 353.2239 
L 489.327367 353.2239 
L 518.113125 353.2239 
L 546.898883 353.2239 
L 575.68464 353.2239 
L 604.470398 353.2239 
L 633.256155 353.2239 
L 662.041913 353.2239 
L 690.82767 353.2239 
L 719.613428 353.2239 
L 748.399186 353.2239 
L 777.184943 353.2239 
L 805.970701 353.2239 
L 834.756458 353.2239 
L 863.542216 353.2239 
L 892.327973 353.2239 
L 921.113731 353.2239 
L 949.899489 353.2239 
" style="fill:none;stroke:#f7a35c;stroke-linecap:square;"/>
   </g>
   <g id="line2d_61">
    <path clip-path="url(#pf43d2309e0)" d="M 86.326761 36.602753 
L 115.112519 351.913947 
L 143.898277 353.187 
L 172.684034 353.2239 
L 201.469792 353.2239 
L 230.255549 353.2239 
L 259.041307 353.2239 
L 287.827064 353.2239 
L 316.612822 353.2239 
L 345.39858 353.2239 
L 374.184337 353.2239 
L 402.970095 353.2239 
L 431.755852 353.2239 
L 460.54161 353.2239 
L 489.327367 353.2239 
L 518.113125 353.2239 
L 546.898883 353.2239 
L 575.68464 353.2239 
L 604.470398 353.2239 
L 633.256155 353.2239 
L 662.041913 353.2239 
L 690.82767 353.2239 
L 719.613428 353.2239 
L 748.399186 353.2239 
L 777.184943 353.2239 
L 805.970701 353.2239 
L 834.756458 353.2239 
L 863.542216 353.2239 
L 892.327973 353.2239 
L 921.113731 353.2239 
L 949.899489 353.2239 
" style="fill:none;stroke:#8085e9;stroke-linecap:square;"/>
   </g>
   <g id="line2d_62">
    <path clip-path="url(#pf43d2309e0)" d="M 86.326761 50.723495 
L 115.112519 338.85524 
L 143.898277 352.227033 
L 172.684034 353.132889 
L 201.469792 353.213863 
L 230.255549 353.222879 
L 259.041307 353.2239 
L 287.827064 353.2239 
L 316.612822 353.2239 
L 345.39858 353.2239 
L 374.184337 353.2239 
L 402.970095 353.2239 
L 431.755852 353.2239 
L 460.54161 353.2239 
L 489.327367 353.2239 
L 518.113125 353.2239 
L 546.898883 353.2239 
L 575.68464 353.2239 
L 604.470398 353.2239 
L 633.256155 353.2239 
L 662.041913 353.2239 
L 690.82767 353.2239 
L 719.613428 353.2239 
L 748.399186 353.2239 
L 777.184943 353.2239 
L 805.970701 353.2239 
L 834.756458 353.2239 
L 863.542216 353.2239 
L 892.327973 353.2239 
L 921.113731 353.2239 
L 949.899489 353.2239 
" style="fill:none;stroke:#f15c80;stroke-linecap:square;"/>
   </g>
   <g id="line2d_63">
    <path clip-path="url(#pf43d2309e0)" d="M 86.326761 52.021581 
L 115.112519 337.749666 
L 143.898277 352.062545 
L 172.684034 353.110645 
L 201.469792 353.209701 
L 230.255549 353.221669 
L 259.041307 353.223494 
L 287.827064 353.2239 
L 316.612822 353.2239 
L 345.39858 353.2239 
L 374.184337 353.2239 
L 402.970095 353.2239 
L 431.755852 353.2239 
L 460.54161 353.2239 
L 489.327367 353.2239 
L 518.113125 353.2239 
L 546.898883 353.2239 
L 575.68464 353.2239 
L 604.470398 353.2239 
L 633.256155 353.2239 
L 662.041913 353.2239 
L 690.82767 353.2239 
L 719.613428 353.2239 
L 748.399186 353.2239 
L 777.184943 353.2239 
L 805.970701 353.2239 
L 834.756458 353.2239 
L 863.542216 353.2239 
L 892.327973 353.2239 
L 921.113731 353.2239 
L 949.899489 353.2239 
" style="fill:none;stroke:#e4d354;stroke-linecap:square;"/>
   </g>
   <g id="line2d_64">
    <path clip-path="url(#pf43d2309e0)" d="M 86.326761 53.886312 
L 115.112519 336.054946 
L 143.898277 351.906946 
L 172.684034 353.094637 
L 201.469792 353.210574 
L 230.255549 353.222401 
L 259.041307 353.223484 
L 287.827064 353.2239 
L 316.612822 353.2239 
L 345.39858 353.2239 
L 374.184337 353.2239 
L 402.970095 353.2239 
L 431.755852 353.2239 
L 460.54161 353.2239 
L 489.327367 353.2239 
L 518.113125 353.2239 
L 546.898883 353.2239 
L 575.68464 353.2239 
L 604.470398 353.2239 
L 633.256155 353.2239 
L 662.041913 353.2239 
L 690.82767 353.2239 
L 719.613428 353.2239 
L 748.399186 353.2239 
L 777.184943 353.2239 
L 805.970701 353.2239 
L 834.756458 353.2239 
L 863.542216 353.2239 
L 892.327973 353.2239 
L 921.113731 353.2239 
L 949.899489 353.2239 
" style="fill:none;stroke:#2b908f;stroke-linecap:square;"/>
   </g>
   <g id="line2d_65">
    <path clip-path="url(#pf43d2309e0)" d="M 86.326761 52.413403 
L 115.112519 337.327966 
L 143.898277 352.081146 
L 172.684034 353.117601 
L 201.469792 353.213554 
L 230.255549 353.221981 
L 259.041307 353.22365 
L 287.827064 353.2239 
L 316.612822 353.2239 
L 345.39858 353.2239 
L 374.184337 353.2239 
L 402.970095 353.2239 
L 431.755852 353.2239 
L 460.54161 353.2239 
L 489.327367 353.2239 
L 518.113125 353.2239 
L 546.898883 353.2239 
L 575.68464 353.2239 
L 604.470398 353.2239 
L 633.256155 353.2239 
L 662.041913 353.2239 
L 690.82767 353.2239 
L 719.613428 353.2239 
L 748.399186 353.2239 
L 777.184943 353.2239 
L 805.970701 353.2239 
L 834.756458 353.2239 
L 863.542216 353.2239 
L 892.327973 353.2239 
L 921.113731 353.2239 
L 949.899489 353.2239 
" style="fill:none;stroke:#f45b5b;stroke-linecap:square;"/>
   </g>
   <g id="line2d_66">
    <path clip-path="url(#pf43d2309e0)" d="M 86.326761 47.957418 
L 115.112519 341.399144 
L 143.898277 352.434932 
L 172.684034 353.147634 
L 201.469792 353.214521 
L 230.255549 353.222272 
L 259.041307 353.223574 
L 287.827064 353.223835 
L 316.612822 353.22377 
L 345.39858 353.2239 
L 374.184337 353.2239 
L 402.970095 353.2239 
L 431.755852 353.2239 
L 460.54161 353.2239 
L 489.327367 353.2239 
L 518.113125 353.2239 
L 546.898883 353.2239 
L 575.68464 353.2239 
L 604.470398 353.2239 
L 633.256155 353.2239 
L 662.041913 353.2239 
L 690.82767 353.2239 
L 719.613428 353.2239 
L 748.399186 353.2239 
L 777.184943 353.2239 
L 805.970701 353.2239 
L 834.756458 353.2239 
L 863.542216 353.2239 
L 892.327973 353.2239 
L 921.113731 353.2239 
L 949.899489 353.2239 
" style="fill:none;stroke:#91e8e1;stroke-linecap:square;"/>
   </g>
   <g id="line2d_67">
    <path clip-path="url(#pf43d2309e0)" d="M 86.326761 53.743961 
L 115.112519 336.125846 
L 143.898277 351.967846 
L 172.684034 353.104125 
L 201.469792 353.21097 
L 230.255549 353.222879 
L 259.041307 353.223673 
L 287.827064 353.2239 
L 316.612822 353.2239 
L 345.39858 353.2239 
L 374.184337 353.2239 
L 402.970095 353.2239 
L 431.755852 353.2239 
L 460.54161 353.2239 
L 489.327367 353.2239 
L 518.113125 353.2239 
L 546.898883 353.2239 
L 575.68464 353.2239 
L 604.470398 353.2239 
L 633.256155 353.2239 
L 662.041913 353.2239 
L 690.82767 353.2239 
L 719.613428 353.2239 
L 748.399186 353.2239 
L 777.184943 353.2239 
L 805.970701 353.2239 
L 834.756458 353.2239 
L 863.542216 353.2239 
L 892.327973 353.2239 
L 921.113731 353.2239 
L 949.899489 353.2239 
" style="fill:none;stroke:#7cb5ec;stroke-linecap:square;"/>
   </g>
   <g id="line2d_68">
    <path clip-path="url(#pf43d2309e0)" d="M 86.326761 55.290255 
L 115.112519 334.811855 
L 143.898277 351.768494 
L 172.684034 353.077331 
L 201.469792 353.206481 
L 230.255549 353.221291 
L 259.041307 353.22367 
L 287.827064 353.2239 
L 316.612822 353.2239 
L 345.39858 353.2239 
L 374.184337 353.223823 
L 402.970095 353.2239 
L 431.755852 353.2239 
L 460.54161 353.2239 
L 489.327367 353.2239 
L 518.113125 353.2239 
L 546.898883 353.2239 
L 575.68464 353.2239 
L 604.470398 353.2239 
L 633.256155 353.2239 
L 662.041913 353.2239 
L 690.82767 353.2239 
L 719.613428 353.2239 
L 748.399186 353.2239 
L 777.184943 353.2239 
L 805.970701 353.2239 
L 834.756458 353.2239 
L 863.542216 353.2239 
L 892.327973 353.2239 
L 921.113731 353.2239 
L 949.899489 353.2239 
" style="fill:none;stroke:#434348;stroke-linecap:square;"/>
   </g>
   <g id="line2d_69">
    <path clip-path="url(#pf43d2309e0)" d="M 86.326761 37.108492 
L 115.112519 351.371308 
L 143.898277 353.2239 
L 172.684034 353.2239 
L 201.469792 353.2239 
L 230.255549 353.2239 
L 259.041307 353.2239 
L 287.827064 353.2239 
L 316.612822 353.2239 
L 345.39858 353.2239 
L 374.184337 353.2239 
L 402.970095 353.2239 
L 431.755852 353.2239 
L 460.54161 353.2239 
L 489.327367 353.2239 
L 518.113125 353.2239 
L 546.898883 353.2239 
L 575.68464 353.2239 
L 604.470398 353.2239 
L 633.256155 353.2239 
L 662.041913 353.2239 
L 690.82767 353.2239 
L 719.613428 353.2239 
L 748.399186 353.2239 
L 777.184943 353.2239 
L 805.970701 353.2239 
L 834.756458 353.2239 
L 863.542216 353.2239 
L 892.327973 353.2239 
L 921.113731 353.2239 
L 949.899489 353.2239 
" style="fill:none;stroke:#90ed7d;stroke-linecap:square;"/>
   </g>
   <g id="line2d_70">
    <path clip-path="url(#pf43d2309e0)" d="M 86.326761 37.062422 
L 115.112519 351.477595 
L 143.898277 353.183755 
L 172.684034 353.203828 
L 201.469792 353.2239 
L 230.255549 353.2239 
L 259.041307 353.2239 
L 287.827064 353.2239 
L 316.612822 353.2239 
L 345.39858 353.2239 
L 374.184337 353.2239 
L 402.970095 353.2239 
L 431.755852 353.2239 
L 460.54161 353.2239 
L 489.327367 353.2239 
L 518.113125 353.2239 
L 546.898883 353.2239 
L 575.68464 353.2239 
L 604.470398 353.2239 
L 633.256155 353.2239 
L 662.041913 353.2239 
L 690.82767 353.2239 
L 719.613428 353.2239 
L 748.399186 353.2239 
L 777.184943 353.2239 
L 805.970701 353.2239 
L 834.756458 353.2239 
L 863.542216 353.2239 
L 892.327973 353.2239 
L 921.113731 353.2239 
L 949.899489 353.2239 
" style="fill:none;stroke:#f7a35c;stroke-linecap:square;"/>
   </g>
   <g id="line2d_71">
    <path clip-path="url(#pf43d2309e0)" d="M 86.326761 37.290244 
L 115.112519 351.27093 
L 143.898277 353.142526 
L 172.684034 353.2239 
L 201.469792 353.2239 
L 230.255549 353.2239 
L 259.041307 353.2239 
L 287.827064 353.2239 
L 316.612822 353.2239 
L 345.39858 353.2239 
L 374.184337 353.2239 
L 402.970095 353.2239 
L 431.755852 353.2239 
L 460.54161 353.2239 
L 489.327367 353.2239 
L 518.113125 353.2239 
L 546.898883 353.2239 
L 575.68464 353.2239 
L 604.470398 353.2239 
L 633.256155 353.2239 
L 662.041913 353.2239 
L 690.82767 353.2239 
L 719.613428 353.2239 
L 748.399186 353.2239 
L 777.184943 353.2239 
L 805.970701 353.2239 
L 834.756458 353.2239 
L 863.542216 353.2239 
L 892.327973 353.2239 
L 921.113731 353.2239 
L 949.899489 353.2239 
" style="fill:none;stroke:#8085e9;stroke-linecap:square;"/>
   </g>
   <g id="line2d_72">
    <path clip-path="url(#pf43d2309e0)" d="M 86.326761 36.444516 
L 115.112519 352.035284 
L 143.898277 353.2239 
L 172.684034 353.2239 
L 201.469792 353.2239 
L 230.255549 353.2239 
L 259.041307 353.2239 
L 287.827064 353.2239 
L 316.612822 353.2239 
L 345.39858 353.2239 
L 374.184337 353.2239 
L 402.970095 353.2239 
L 431.755852 353.2239 
L 460.54161 353.2239 
L 489.327367 353.2239 
L 518.113125 353.2239 
L 546.898883 353.2239 
L 575.68464 353.2239 
L 604.470398 353.2239 
L 633.256155 353.2239 
L 662.041913 353.2239 
L 690.82767 353.2239 
L 719.613428 353.2239 
L 748.399186 353.2239 
L 777.184943 353.2239 
L 805.970701 353.2239 
L 834.756458 353.2239 
L 863.542216 353.2239 
L 892.327973 353.2239 
L 921.113731 353.2239 
L 949.899489 353.2239 
" style="fill:none;stroke:#f15c80;stroke-linecap:square;"/>
   </g>
   <g id="line2d_73">
    <path clip-path="url(#pf43d2309e0)" d="M 86.326761 51.082653 
L 115.112519 338.547966 
L 143.898277 352.178937 
L 172.684034 353.130344 
L 201.469792 353.213553 
L 230.255549 353.222525 
L 259.041307 353.223394 
L 287.827064 353.223828 
L 316.612822 353.2239 
L 345.39858 353.2239 
L 374.184337 353.2239 
L 402.970095 353.2239 
L 431.755852 353.2239 
L 460.54161 353.2239 
L 489.327367 353.2239 
L 518.113125 353.2239 
L 546.898883 353.2239 
L 575.68464 353.2239 
L 604.470398 353.2239 
L 633.256155 353.2239 
L 662.041913 353.2239 
L 690.82767 353.2239 
L 719.613428 353.2239 
L 748.399186 353.2239 
L 777.184943 353.2239 
L 805.970701 353.2239 
L 834.756458 353.2239 
L 863.542216 353.2239 
L 892.327973 353.2239 
L 921.113731 353.2239 
L 949.899489 353.2239 
" style="fill:none;stroke:#e4d354;stroke-linecap:square;"/>
   </g>
   <g id="line2d_74">
    <path clip-path="url(#pf43d2309e0)" d="M 86.326761 51.726851 
L 115.112519 338.060103 
L 143.898277 352.065885 
L 172.684034 353.094632 
L 201.469792 353.206692 
L 230.255549 353.221647 
L 259.041307 353.223627 
L 287.827064 353.223832 
L 316.612822 353.223832 
L 345.39858 353.2239 
L 374.184337 353.2239 
L 402.970095 353.2239 
L 431.755852 353.2239 
L 460.54161 353.2239 
L 489.327367 353.2239 
L 518.113125 353.2239 
L 546.898883 353.2239 
L 575.68464 353.2239 
L 604.470398 353.2239 
L 633.256155 353.2239 
L 662.041913 353.2239 
L 690.82767 353.2239 
L 719.613428 353.2239 
L 748.399186 353.2239 
L 777.184943 353.2239 
L 805.970701 353.2239 
L 834.756458 353.2239 
L 863.542216 353.2239 
L 892.327973 353.2239 
L 921.113731 353.2239 
L 949.899489 353.2239 
" style="fill:none;stroke:#2b908f;stroke-linecap:square;"/>
   </g>
   <g id="line2d_75">
    <path clip-path="url(#pf43d2309e0)" d="M 86.326761 37.045022 
L 115.112519 351.521 
L 143.898277 353.137677 
L 172.684034 353.2239 
L 201.469792 353.2239 
L 230.255549 353.2239 
L 259.041307 353.2239 
L 287.827064 353.2239 
L 316.612822 353.2239 
L 345.39858 353.2239 
L 374.184337 353.2239 
L 402.970095 353.2239 
L 431.755852 353.2239 
L 460.54161 353.2239 
L 489.327367 353.2239 
L 518.113125 353.2239 
L 546.898883 353.2239 
L 575.68464 353.2239 
L 604.470398 353.2239 
L 633.256155 353.2239 
L 662.041913 353.2239 
L 690.82767 353.2239 
L 719.613428 353.2239 
L 748.399186 353.2239 
L 777.184943 353.2239 
L 805.970701 353.2239 
L 834.756458 353.2239 
L 863.542216 353.2239 
L 892.327973 353.2239 
L 921.113731 353.2239 
L 949.899489 353.2239 
" style="fill:none;stroke:#f45b5b;stroke-linecap:square;"/>
   </g>
   <g id="line2d_76">
    <path clip-path="url(#pf43d2309e0)" d="M 86.326761 54.974944 
L 115.112519 335.183569 
L 143.898277 351.737741 
L 172.684034 353.055968 
L 201.469792 353.202293 
L 230.255549 353.221187 
L 259.041307 353.223599 
L 287.827064 353.2239 
L 316.612822 353.2239 
L 345.39858 353.2239 
L 374.184337 353.2239 
L 402.970095 353.2239 
L 431.755852 353.2239 
L 460.54161 353.2239 
L 489.327367 353.2239 
L 518.113125 353.2239 
L 546.898883 353.2239 
L 575.68464 353.2239 
L 604.470398 353.2239 
L 633.256155 353.2239 
L 662.041913 353.2239 
L 690.82767 353.2239 
L 719.613428 353.2239 
L 748.399186 353.2239 
L 777.184943 353.2239 
L 805.970701 353.2239 
L 834.756458 353.2239 
L 863.542216 353.2239 
L 892.327973 353.2239 
L 921.113731 353.2239 
L 949.899489 353.2239 
" style="fill:none;stroke:#91e8e1;stroke-linecap:square;"/>
   </g>
   <g id="line2d_77">
    <path clip-path="url(#pf43d2309e0)" d="M 86.326761 36.746375 
L 115.112519 351.83279 
L 143.898277 353.124535 
L 172.684034 353.2239 
L 201.469792 353.2239 
L 230.255549 353.2239 
L 259.041307 353.2239 
L 287.827064 353.2239 
L 316.612822 353.2239 
L 345.39858 353.2239 
L 374.184337 353.2239 
L 402.970095 353.2239 
L 431.755852 353.2239 
L 460.54161 353.2239 
L 489.327367 353.2239 
L 518.113125 353.2239 
L 546.898883 353.2239 
L 575.68464 353.2239 
L 604.470398 353.2239 
L 633.256155 353.2239 
L 662.041913 353.2239 
L 690.82767 353.2239 
L 719.613428 353.2239 
L 748.399186 353.2239 
L 777.184943 353.2239 
L 805.970701 353.2239 
L 834.756458 353.2239 
L 863.542216 353.2239 
L 892.327973 353.2239 
L 921.113731 353.2239 
L 949.899489 353.2239 
" style="fill:none;stroke:#7cb5ec;stroke-linecap:square;"/>
   </g>
   <g id="line2d_78">
    <path clip-path="url(#pf43d2309e0)" d="M 86.326761 36.106082 
L 115.112519 352.373718 
L 143.898277 353.2239 
L 172.684034 353.2239 
L 201.469792 353.2239 
L 230.255549 353.2239 
L 259.041307 353.2239 
L 287.827064 353.2239 
L 316.612822 353.2239 
L 345.39858 353.2239 
L 374.184337 353.2239 
L 402.970095 353.2239 
L 431.755852 353.2239 
L 460.54161 353.2239 
L 489.327367 353.2239 
L 518.113125 353.2239 
L 546.898883 353.2239 
L 575.68464 353.2239 
L 604.470398 353.2239 
L 633.256155 353.2239 
L 662.041913 353.2239 
L 690.82767 353.2239 
L 719.613428 353.2239 
L 748.399186 353.2239 
L 777.184943 353.2239 
L 805.970701 353.2239 
L 834.756458 353.2239 
L 863.542216 353.2239 
L 892.327973 353.2239 
L 921.113731 353.2239 
L 949.899489 353.2239 
" style="fill:none;stroke:#434348;stroke-linecap:square;"/>
   </g>
   <g id="line2d_79">
    <path clip-path="url(#pf43d2309e0)" d="M 86.326761 36.708361 
L 115.112519 351.771439 
L 143.898277 353.2239 
L 172.684034 353.2239 
L 201.469792 353.2239 
L 230.255549 353.2239 
L 259.041307 353.2239 
L 287.827064 353.2239 
L 316.612822 353.2239 
L 345.39858 353.2239 
L 374.184337 353.2239 
L 402.970095 353.2239 
L 431.755852 353.2239 
L 460.54161 353.2239 
L 489.327367 353.2239 
L 518.113125 353.2239 
L 546.898883 353.2239 
L 575.68464 353.2239 
L 604.470398 353.2239 
L 633.256155 353.2239 
L 662.041913 353.2239 
L 690.82767 353.2239 
L 719.613428 353.2239 
L 748.399186 353.2239 
L 777.184943 353.2239 
L 805.970701 353.2239 
L 834.756458 353.2239 
L 863.542216 353.2239 
L 892.327973 353.2239 
L 921.113731 353.2239 
L 949.899489 353.2239 
" style="fill:none;stroke:#90ed7d;stroke-linecap:square;"/>
   </g>
   <g id="line2d_80">
    <path clip-path="url(#pf43d2309e0)" d="M 86.326761 36.641493 
L 115.112519 351.838307 
L 143.898277 353.2239 
L 172.684034 353.2239 
L 201.469792 353.2239 
L 230.255549 353.2239 
L 259.041307 353.2239 
L 287.827064 353.2239 
L 316.612822 353.2239 
L 345.39858 353.2239 
L 374.184337 353.2239 
L 402.970095 353.2239 
L 431.755852 353.2239 
L 460.54161 353.2239 
L 489.327367 353.2239 
L 518.113125 353.2239 
L 546.898883 353.2239 
L 575.68464 353.2239 
L 604.470398 353.2239 
L 633.256155 353.2239 
L 662.041913 353.2239 
L 690.82767 353.2239 
L 719.613428 353.2239 
L 748.399186 353.2239 
L 777.184943 353.2239 
L 805.970701 353.2239 
L 834.756458 353.2239 
L 863.542216 353.2239 
L 892.327973 353.2239 
L 921.113731 353.2239 
L 949.899489 353.2239 
" style="fill:none;stroke:#f7a35c;stroke-linecap:square;"/>
   </g>
   <g id="line2d_81">
    <path clip-path="url(#pf43d2309e0)" d="M 86.326761 53.013172 
L 115.112519 336.764776 
L 143.898277 352.044482 
L 172.684034 353.117196 
L 201.469792 353.213701 
L 230.255549 353.222361 
L 259.041307 353.223611 
L 287.827064 353.2239 
L 316.612822 353.2239 
L 345.39858 353.2239 
L 374.184337 353.2239 
L 402.970095 353.2239 
L 431.755852 353.2239 
L 460.54161 353.2239 
L 489.327367 353.2239 
L 518.113125 353.2239 
L 546.898883 353.2239 
L 575.68464 353.2239 
L 604.470398 353.2239 
L 633.256155 353.2239 
L 662.041913 353.2239 
L 690.82767 353.2239 
L 719.613428 353.2239 
L 748.399186 353.2239 
L 777.184943 353.2239 
L 805.970701 353.2239 
L 834.756458 353.2239 
L 863.542216 353.2239 
L 892.327973 353.2239 
L 921.113731 353.2239 
L 949.899489 353.2239 
" style="fill:none;stroke:#8085e9;stroke-linecap:square;"/>
   </g>
   <g id="line2d_82">
    <path clip-path="url(#pf43d2309e0)" d="M 86.326761 53.138495 
L 115.112519 336.678466 
L 143.898277 352.014486 
L 172.684034 353.109232 
L 201.469792 353.213254 
L 230.255549 353.221771 
L 259.041307 353.223596 
L 287.827064 353.2239 
L 316.612822 353.2239 
L 345.39858 353.2239 
L 374.184337 353.2239 
L 402.970095 353.2239 
L 431.755852 353.2239 
L 460.54161 353.2239 
L 489.327367 353.2239 
L 518.113125 353.2239 
L 546.898883 353.2239 
L 575.68464 353.2239 
L 604.470398 353.2239 
L 633.256155 353.2239 
L 662.041913 353.2239 
L 690.82767 353.2239 
L 719.613428 353.2239 
L 748.399186 353.2239 
L 777.184943 353.2239 
L 805.970701 353.2239 
L 834.756458 353.2239 
L 863.542216 353.2239 
L 892.327973 353.2239 
L 921.113731 353.2239 
L 949.899489 353.2239 
" style="fill:none;stroke:#f15c80;stroke-linecap:square;"/>
   </g>
   <g id="line2d_83">
    <path clip-path="url(#pf43d2309e0)" d="M 86.326761 56.662228 
L 115.112519 333.629479 
L 143.898277 351.604293 
L 172.684034 353.056445 
L 201.469792 353.20212 
L 230.255549 353.22193 
L 259.041307 353.223024 
L 287.827064 353.2239 
L 316.612822 353.223791 
L 345.39858 353.223791 
L 374.184337 353.2239 
L 402.970095 353.2239 
L 431.755852 353.2239 
L 460.54161 353.2239 
L 489.327367 353.2239 
L 518.113125 353.2239 
L 546.898883 353.2239 
L 575.68464 353.2239 
L 604.470398 353.2239 
L 633.256155 353.2239 
L 662.041913 353.2239 
L 690.82767 353.2239 
L 719.613428 353.2239 
L 748.399186 353.2239 
L 777.184943 353.2239 
L 805.970701 353.2239 
L 834.756458 353.2239 
L 863.542216 353.2239 
L 892.327973 353.2239 
L 921.113731 353.2239 
L 949.899489 353.2239 
" style="fill:none;stroke:#e4d354;stroke-linecap:square;"/>
   </g>
   <g id="line2d_84">
    <path clip-path="url(#pf43d2309e0)" d="M 86.326761 36.442032 
L 115.112519 352.037768 
L 143.898277 353.2239 
L 172.684034 353.2239 
L 201.469792 353.2239 
L 230.255549 353.2239 
L 259.041307 353.2239 
L 287.827064 353.2239 
L 316.612822 353.2239 
L 345.39858 353.2239 
L 374.184337 353.2239 
L 402.970095 353.2239 
L 431.755852 353.2239 
L 460.54161 353.2239 
L 489.327367 353.2239 
L 518.113125 353.2239 
L 546.898883 353.2239 
L 575.68464 353.2239 
L 604.470398 353.2239 
L 633.256155 353.2239 
L 662.041913 353.2239 
L 690.82767 353.2239 
L 719.613428 353.2239 
L 748.399186 353.2239 
L 777.184943 353.2239 
L 805.970701 353.2239 
L 834.756458 353.2239 
L 863.542216 353.2239 
L 892.327973 353.2239 
L 921.113731 353.2239 
L 949.899489 353.2239 
" style="fill:none;stroke:#2b908f;stroke-linecap:square;"/>
   </g>
   <g id="line2d_85">
    <path clip-path="url(#pf43d2309e0)" d="M 86.326761 36.60347 
L 115.112519 351.87633 
L 143.898277 353.2239 
L 172.684034 353.2239 
L 201.469792 353.2239 
L 230.255549 353.2239 
L 259.041307 353.2239 
L 287.827064 353.2239 
L 316.612822 353.2239 
L 345.39858 353.2239 
L 374.184337 353.2239 
L 402.970095 353.2239 
L 431.755852 353.2239 
L 460.54161 353.2239 
L 489.327367 353.2239 
L 518.113125 353.2239 
L 546.898883 353.2239 
L 575.68464 353.2239 
L 604.470398 353.2239 
L 633.256155 353.2239 
L 662.041913 353.2239 
L 690.82767 353.2239 
L 719.613428 353.2239 
L 748.399186 353.2239 
L 777.184943 353.2239 
L 805.970701 353.2239 
L 834.756458 353.2239 
L 863.542216 353.2239 
L 892.327973 353.2239 
L 921.113731 353.2239 
L 949.899489 353.2239 
" style="fill:none;stroke:#f45b5b;stroke-linecap:square;"/>
   </g>
   <g id="line2d_86">
    <path clip-path="url(#pf43d2309e0)" d="M 86.326761 54.158619 
L 115.112519 335.827819 
L 143.898277 351.863712 
L 172.684034 353.094894 
L 201.469792 353.208025 
L 230.255549 353.222592 
L 259.041307 353.223638 
L 287.827064 353.2239 
L 316.612822 353.2239 
L 345.39858 353.2239 
L 374.184337 353.2239 
L 402.970095 353.2239 
L 431.755852 353.2239 
L 460.54161 353.2239 
L 489.327367 353.2239 
L 518.113125 353.2239 
L 546.898883 353.2239 
L 575.68464 353.2239 
L 604.470398 353.2239 
L 633.256155 353.2239 
L 662.041913 353.2239 
L 690.82767 353.2239 
L 719.613428 353.2239 
L 748.399186 353.2239 
L 777.184943 353.2239 
L 805.970701 353.2239 
L 834.756458 353.2239 
L 863.542216 353.2239 
L 892.327973 353.2239 
L 921.113731 353.2239 
L 949.899489 353.2239 
" style="fill:none;stroke:#91e8e1;stroke-linecap:square;"/>
   </g>
   <g id="line2d_87">
    <path clip-path="url(#pf43d2309e0)" d="M 86.326761 36.630502 
L 115.112519 351.863324 
L 143.898277 353.209873 
L 172.684034 353.2239 
L 201.469792 353.2239 
L 230.255549 353.2239 
L 259.041307 353.2239 
L 287.827064 353.2239 
L 316.612822 353.2239 
L 345.39858 353.2239 
L 374.184337 353.2239 
L 402.970095 353.2239 
L 431.755852 353.2239 
L 460.54161 353.2239 
L 489.327367 353.2239 
L 518.113125 353.2239 
L 546.898883 353.2239 
L 575.68464 353.2239 
L 604.470398 353.2239 
L 633.256155 353.2239 
L 662.041913 353.2239 
L 690.82767 353.2239 
L 719.613428 353.2239 
L 748.399186 353.2239 
L 777.184943 353.2239 
L 805.970701 353.2239 
L 834.756458 353.2239 
L 863.542216 353.2239 
L 892.327973 353.2239 
L 921.113731 353.2239 
L 949.899489 353.2239 
" style="fill:none;stroke:#7cb5ec;stroke-linecap:square;"/>
   </g>
   <g id="line2d_88">
    <path clip-path="url(#pf43d2309e0)" d="M 86.326761 38.341728 
L 115.112519 350.223198 
L 143.898277 353.138774 
L 172.684034 353.2239 
L 201.469792 353.2239 
L 230.255549 353.2239 
L 259.041307 353.2239 
L 287.827064 353.2239 
L 316.612822 353.2239 
L 345.39858 353.2239 
L 374.184337 353.2239 
L 402.970095 353.2239 
L 431.755852 353.2239 
L 460.54161 353.2239 
L 489.327367 353.2239 
L 518.113125 353.2239 
L 546.898883 353.2239 
L 575.68464 353.2239 
L 604.470398 353.2239 
L 633.256155 353.2239 
L 662.041913 353.2239 
L 690.82767 353.2239 
L 719.613428 353.2239 
L 748.399186 353.2239 
L 777.184943 353.2239 
L 805.970701 353.2239 
L 834.756458 353.2239 
L 863.542216 353.2239 
L 892.327973 353.2239 
L 921.113731 353.2239 
L 949.899489 353.2239 
" style="fill:none;stroke:#434348;stroke-linecap:square;"/>
   </g>
   <g id="line2d_89">
    <path clip-path="url(#pf43d2309e0)" d="M 86.326761 37.137199 
L 115.112519 351.456619 
L 143.898277 353.138386 
L 172.684034 353.195395 
L 201.469792 353.2239 
L 230.255549 353.2239 
L 259.041307 353.2239 
L 287.827064 353.2239 
L 316.612822 353.2239 
L 345.39858 353.2239 
L 374.184337 353.2239 
L 402.970095 353.2239 
L 431.755852 353.2239 
L 460.54161 353.2239 
L 489.327367 353.2239 
L 518.113125 353.2239 
L 546.898883 353.2239 
L 575.68464 353.2239 
L 604.470398 353.2239 
L 633.256155 353.2239 
L 662.041913 353.2239 
L 690.82767 353.2239 
L 719.613428 353.2239 
L 748.399186 353.2239 
L 777.184943 353.2239 
L 805.970701 353.2239 
L 834.756458 353.2239 
L 863.542216 353.2239 
L 892.327973 353.2239 
L 921.113731 353.2239 
L 949.899489 353.2239 
" style="fill:none;stroke:#90ed7d;stroke-linecap:square;"/>
   </g>
   <g id="line2d_90">
    <path clip-path="url(#pf43d2309e0)" d="M 43.148125 353.2239 
L 993.078125 353.2239 
" style="fill:none;stroke:#dedede;stroke-linecap:square;stroke-width:2;"/>
   </g>
   <g id="text_16">
    <!-- Fastp: Duplication Rate -->
    <defs>
     <path d="M 9.8125 72.90625 
L 51.703125 72.90625 
L 51.703125 64.59375 
L 19.671875 64.59375 
L 19.671875 43.109375 
L 48.578125 43.109375 
L 48.578125 34.8125 
L 19.671875 34.8125 
L 19.671875 0 
L 9.8125 0 
z
" id="DejaVuSans-70"/>
     <path d="M 44.28125 53.078125 
L 44.28125 44.578125 
Q 40.484375 46.53125 36.375 47.5 
Q 32.28125 48.484375 27.875 48.484375 
Q 21.1875 48.484375 17.84375 46.4375 
Q 14.5 44.390625 14.5 40.28125 
Q 14.5 37.15625 16.890625 35.375 
Q 19.28125 33.59375 26.515625 31.984375 
L 29.59375 31.296875 
Q 39.15625 29.25 43.1875 25.515625 
Q 47.21875 21.78125 47.21875 15.09375 
Q 47.21875 7.46875 41.1875 3.015625 
Q 35.15625 -1.421875 24.609375 -1.421875 
Q 20.21875 -1.421875 15.453125 -0.5625 
Q 10.6875 0.296875 5.421875 2 
L 5.421875 11.28125 
Q 10.40625 8.6875 15.234375 7.390625 
Q 20.0625 6.109375 24.8125 6.109375 
Q 31.15625 6.109375 34.5625 8.28125 
Q 37.984375 10.453125 37.984375 14.40625 
Q 37.984375 18.0625 35.515625 20.015625 
Q 33.0625 21.96875 24.703125 23.78125 
L 21.578125 24.515625 
Q 13.234375 26.265625 9.515625 29.90625 
Q 5.8125 33.546875 5.8125 39.890625 
Q 5.8125 47.609375 11.28125 51.796875 
Q 16.75 56 26.8125 56 
Q 31.78125 56 36.171875 55.265625 
Q 40.578125 54.546875 44.28125 53.078125 
z
" id="DejaVuSans-115"/>
     <path d="M 11.71875 12.40625 
L 22.015625 12.40625 
L 22.015625 0 
L 11.71875 0 
z
M 11.71875 51.703125 
L 22.015625 51.703125 
L 22.015625 39.3125 
L 11.71875 39.3125 
z
" id="DejaVuSans-58"/>
    </defs>
    <g transform="translate(424.561875 19.3575)scale(0.16 -0.16)">
     <use xlink:href="#DejaVuSans-70"/>
     <use x="57.378906" xlink:href="#DejaVuSans-97"/>
     <use x="118.658203" xlink:href="#DejaVuSans-115"/>
     <use x="170.757812" xlink:href="#DejaVuSans-116"/>
     <use x="209.966797" xlink:href="#DejaVuSans-112"/>
     <use x="273.443359" xlink:href="#DejaVuSans-58"/>
     <use x="307.134766" xlink:href="#DejaVuSans-32"/>
     <use x="338.921875" xlink:href="#DejaVuSans-68"/>
     <use x="415.923828" xlink:href="#DejaVuSans-117"/>
     <use x="479.302734" xlink:href="#DejaVuSans-112"/>
     <use x="542.779297" xlink:href="#DejaVuSans-108"/>
     <use x="570.5625" xlink:href="#DejaVuSans-105"/>
     <use x="598.345703" xlink:href="#DejaVuSans-99"/>
     <use x="653.326172" xlink:href="#DejaVuSans-97"/>
     <use x="714.605469" xlink:href="#DejaVuSans-116"/>
     <use x="753.814453" xlink:href="#DejaVuSans-105"/>
     <use x="781.597656" xlink:href="#DejaVuSans-111"/>
     <use x="842.779297" xlink:href="#DejaVuSans-110"/>
     <use x="906.158203" xlink:href="#DejaVuSans-32"/>
     <use x="937.945312" xlink:href="#DejaVuSans-82"/>
     <use x="1007.396484" xlink:href="#DejaVuSans-97"/>
     <use x="1068.675781" xlink:href="#DejaVuSans-116"/>
     <use x="1107.884766" xlink:href="#DejaVuSans-101"/>
    </g>
   </g>
  </g>
 </g>
 <defs>
  <clipPath id="pf43d2309e0">
   <rect height="317.968" width="949.93" x="43.148125" y="35.2559"/>
  </clipPath>
 </defs>
</svg>
