<?xml version="1.0" encoding="utf-8" standalone="no"?>
<!DOCTYPE svg PUBLIC "-//W3C//DTD SVG 1.1//EN"
  "http://www.w3.org/Graphics/SVG/1.1/DTD/svg11.dtd">
<!-- Created with matplotlib (https://matplotlib.org/) -->
<svg height="388.844525pt" version="1.1" viewBox="0 0 1000.358125 388.844525" width="1000.358125pt" xmlns="http://www.w3.org/2000/svg" xmlns:xlink="http://www.w3.org/1999/xlink">
 <defs>
  <style type="text/css">
*{stroke-linecap:butt;stroke-linejoin:round;}
  </style>
 </defs>
 <g id="figure_1">
  <g id="axes_1">
   <g id="patch_1">
    <path d="M 32.968125 353.2239 
L 993.158125 353.2239 
L 993.158125 35.2559 
L 32.968125 35.2559 
z
" style="fill:#ffffff;"/>
   </g>
   <g id="matplotlib.axis_1">
    <g id="xtick_1">
     <g id="text_1">
      <!-- 0 -->
      <defs>
       <path d="M 31.78125 66.40625 
Q 24.171875 66.40625 20.328125 58.90625 
Q 16.5 51.421875 16.5 36.375 
Q 16.5 21.390625 20.328125 13.890625 
Q 24.171875 6.390625 31.78125 6.390625 
Q 39.453125 6.390625 43.28125 13.890625 
Q 47.125 21.390625 47.125 36.375 
Q 47.125 51.421875 43.28125 58.90625 
Q 39.453125 66.40625 31.78125 66.40625 
z
M 31.78125 74.21875 
Q 44.046875 74.21875 50.515625 64.515625 
Q 56.984375 54.828125 56.984375 36.375 
Q 56.984375 17.96875 50.515625 8.265625 
Q 44.046875 -1.421875 31.78125 -1.421875 
Q 19.53125 -1.421875 13.0625 8.265625 
Q 6.59375 17.96875 6.59375 36.375 
Q 6.59375 54.828125 13.0625 64.515625 
Q 19.53125 74.21875 31.78125 74.21875 
z
" id="DejaVuSans-48"/>
      </defs>
      <g transform="translate(68.209736 366.30265)scale(0.08 -0.08)">
       <use xlink:href="#DejaVuSans-48"/>
      </g>
     </g>
    </g>
    <g id="xtick_2">
     <g id="text_2">
      <!-- 20 -->
      <defs>
       <path d="M 19.1875 8.296875 
L 53.609375 8.296875 
L 53.609375 0 
L 7.328125 0 
L 7.328125 8.296875 
Q 12.9375 14.109375 22.625 23.890625 
Q 32.328125 33.6875 34.8125 36.53125 
Q 39.546875 41.84375 41.421875 45.53125 
Q 43.3125 49.21875 43.3125 52.78125 
Q 43.3125 58.59375 39.234375 62.25 
Q 35.15625 65.921875 28.609375 65.921875 
Q 23.96875 65.921875 18.8125 64.3125 
Q 13.671875 62.703125 7.8125 59.421875 
L 7.8125 69.390625 
Q 13.765625 71.78125 18.9375 73 
Q 24.125 74.21875 28.421875 74.21875 
Q 39.75 74.21875 46.484375 68.546875 
Q 53.21875 62.890625 53.21875 53.421875 
Q 53.21875 48.921875 51.53125 44.890625 
Q 49.859375 40.875 45.40625 35.40625 
Q 44.1875 33.984375 37.640625 27.21875 
Q 31.109375 20.453125 19.1875 8.296875 
z
" id="DejaVuSans-50"/>
      </defs>
      <g transform="translate(182.832521 366.30265)scale(0.08 -0.08)">
       <use xlink:href="#DejaVuSans-50"/>
       <use x="63.623047" xlink:href="#DejaVuSans-48"/>
      </g>
     </g>
    </g>
    <g id="xtick_3">
     <g id="text_3">
      <!-- 40 -->
      <defs>
       <path d="M 37.796875 64.3125 
L 12.890625 25.390625 
L 37.796875 25.390625 
z
M 35.203125 72.90625 
L 47.609375 72.90625 
L 47.609375 25.390625 
L 58.015625 25.390625 
L 58.015625 17.1875 
L 47.609375 17.1875 
L 47.609375 0 
L 37.796875 0 
L 37.796875 17.1875 
L 4.890625 17.1875 
L 4.890625 26.703125 
z
" id="DejaVuSans-52"/>
      </defs>
      <g transform="translate(300.000306 366.30265)scale(0.08 -0.08)">
       <use xlink:href="#DejaVuSans-52"/>
       <use x="63.623047" xlink:href="#DejaVuSans-48"/>
      </g>
     </g>
    </g>
    <g id="xtick_4">
     <g id="text_4">
      <!-- 60 -->
      <defs>
       <path d="M 33.015625 40.375 
Q 26.375 40.375 22.484375 35.828125 
Q 18.609375 31.296875 18.609375 23.390625 
Q 18.609375 15.53125 22.484375 10.953125 
Q 26.375 6.390625 33.015625 6.390625 
Q 39.65625 6.390625 43.53125 10.953125 
Q 47.40625 15.53125 47.40625 23.390625 
Q 47.40625 31.296875 43.53125 35.828125 
Q 39.65625 40.375 33.015625 40.375 
z
M 52.59375 71.296875 
L 52.59375 62.3125 
Q 48.875 64.0625 45.09375 64.984375 
Q 41.3125 65.921875 37.59375 65.921875 
Q 27.828125 65.921875 22.671875 59.328125 
Q 17.53125 52.734375 16.796875 39.40625 
Q 19.671875 43.65625 24.015625 45.921875 
Q 28.375 48.1875 33.59375 48.1875 
Q 44.578125 48.1875 50.953125 41.515625 
Q 57.328125 34.859375 57.328125 23.390625 
Q 57.328125 12.15625 50.6875 5.359375 
Q 44.046875 -1.421875 33.015625 -1.421875 
Q 20.359375 -1.421875 13.671875 8.265625 
Q 6.984375 17.96875 6.984375 36.375 
Q 6.984375 53.65625 15.1875 63.9375 
Q 23.390625 74.21875 37.203125 74.21875 
Q 40.921875 74.21875 44.703125 73.484375 
Q 48.484375 72.75 52.59375 71.296875 
z
" id="DejaVuSans-54"/>
      </defs>
      <g transform="translate(417.168091 366.30265)scale(0.08 -0.08)">
       <use xlink:href="#DejaVuSans-54"/>
       <use x="63.623047" xlink:href="#DejaVuSans-48"/>
      </g>
     </g>
    </g>
    <g id="xtick_5">
     <g id="text_5">
      <!-- 80 -->
      <defs>
       <path d="M 31.78125 34.625 
Q 24.75 34.625 20.71875 30.859375 
Q 16.703125 27.09375 16.703125 20.515625 
Q 16.703125 13.921875 20.71875 10.15625 
Q 24.75 6.390625 31.78125 6.390625 
Q 38.8125 6.390625 42.859375 10.171875 
Q 46.921875 13.96875 46.921875 20.515625 
Q 46.921875 27.09375 42.890625 30.859375 
Q 38.875 34.625 31.78125 34.625 
z
M 21.921875 38.8125 
Q 15.578125 40.375 12.03125 44.71875 
Q 8.5 49.078125 8.5 55.328125 
Q 8.5 64.0625 14.71875 69.140625 
Q 20.953125 74.21875 31.78125 74.21875 
Q 42.671875 74.21875 48.875 69.140625 
Q 55.078125 64.0625 55.078125 55.328125 
Q 55.078125 49.078125 51.53125 44.71875 
Q 48 40.375 41.703125 38.8125 
Q 48.828125 37.15625 52.796875 32.3125 
Q 56.78125 27.484375 56.78125 20.515625 
Q 56.78125 9.90625 50.3125 4.234375 
Q 43.84375 -1.421875 31.78125 -1.421875 
Q 19.734375 -1.421875 13.25 4.234375 
Q 6.78125 9.90625 6.78125 20.515625 
Q 6.78125 27.484375 10.78125 32.3125 
Q 14.796875 37.15625 21.921875 38.8125 
z
M 18.3125 54.390625 
Q 18.3125 48.734375 21.84375 45.5625 
Q 25.390625 42.390625 31.78125 42.390625 
Q 38.140625 42.390625 41.71875 45.5625 
Q 45.3125 48.734375 45.3125 54.390625 
Q 45.3125 60.0625 41.71875 63.234375 
Q 38.140625 66.40625 31.78125 66.40625 
Q 25.390625 66.40625 21.84375 63.234375 
Q 18.3125 60.0625 18.3125 54.390625 
z
" id="DejaVuSans-56"/>
      </defs>
      <g transform="translate(534.335877 366.30265)scale(0.08 -0.08)">
       <use xlink:href="#DejaVuSans-56"/>
       <use x="63.623047" xlink:href="#DejaVuSans-48"/>
      </g>
     </g>
    </g>
    <g id="xtick_6">
     <g id="text_6">
      <!-- 100 -->
      <defs>
       <path d="M 12.40625 8.296875 
L 28.515625 8.296875 
L 28.515625 63.921875 
L 10.984375 60.40625 
L 10.984375 69.390625 
L 28.421875 72.90625 
L 38.28125 72.90625 
L 38.28125 8.296875 
L 54.390625 8.296875 
L 54.390625 0 
L 12.40625 0 
z
" id="DejaVuSans-49"/>
      </defs>
      <g transform="translate(648.958662 366.30265)scale(0.08 -0.08)">
       <use xlink:href="#DejaVuSans-49"/>
       <use x="63.623047" xlink:href="#DejaVuSans-48"/>
       <use x="127.246094" xlink:href="#DejaVuSans-48"/>
      </g>
     </g>
    </g>
    <g id="xtick_7">
     <g id="text_7">
      <!-- 120 -->
      <g transform="translate(766.126447 366.30265)scale(0.08 -0.08)">
       <use xlink:href="#DejaVuSans-49"/>
       <use x="63.623047" xlink:href="#DejaVuSans-50"/>
       <use x="127.246094" xlink:href="#DejaVuSans-48"/>
      </g>
     </g>
    </g>
    <g id="xtick_8">
     <g id="text_8">
      <!-- 140 -->
      <g transform="translate(883.294232 366.30265)scale(0.08 -0.08)">
       <use xlink:href="#DejaVuSans-49"/>
       <use x="63.623047" xlink:href="#DejaVuSans-52"/>
       <use x="127.246094" xlink:href="#DejaVuSans-48"/>
      </g>
     </g>
    </g>
    <g id="text_9">
     <!-- Read Position -->
     <defs>
      <path d="M 44.390625 34.1875 
Q 47.5625 33.109375 50.5625 29.59375 
Q 53.5625 26.078125 56.59375 19.921875 
L 66.609375 0 
L 56 0 
L 46.6875 18.703125 
Q 43.0625 26.03125 39.671875 28.421875 
Q 36.28125 30.8125 30.421875 30.8125 
L 19.671875 30.8125 
L 19.671875 0 
L 9.8125 0 
L 9.8125 72.90625 
L 32.078125 72.90625 
Q 44.578125 72.90625 50.734375 67.671875 
Q 56.890625 62.453125 56.890625 51.90625 
Q 56.890625 45.015625 53.6875 40.46875 
Q 50.484375 35.9375 44.390625 34.1875 
z
M 19.671875 64.796875 
L 19.671875 38.921875 
L 32.078125 38.921875 
Q 39.203125 38.921875 42.84375 42.21875 
Q 46.484375 45.515625 46.484375 51.90625 
Q 46.484375 58.296875 42.84375 61.546875 
Q 39.203125 64.796875 32.078125 64.796875 
z
" id="DejaVuSans-82"/>
      <path d="M 56.203125 29.59375 
L 56.203125 25.203125 
L 14.890625 25.203125 
Q 15.484375 15.921875 20.484375 11.0625 
Q 25.484375 6.203125 34.421875 6.203125 
Q 39.59375 6.203125 44.453125 7.46875 
Q 49.3125 8.734375 54.109375 11.28125 
L 54.109375 2.78125 
Q 49.265625 0.734375 44.1875 -0.34375 
Q 39.109375 -1.421875 33.890625 -1.421875 
Q 20.796875 -1.421875 13.15625 6.1875 
Q 5.515625 13.8125 5.515625 26.8125 
Q 5.515625 40.234375 12.765625 48.109375 
Q 20.015625 56 32.328125 56 
Q 43.359375 56 49.78125 48.890625 
Q 56.203125 41.796875 56.203125 29.59375 
z
M 47.21875 32.234375 
Q 47.125 39.59375 43.09375 43.984375 
Q 39.0625 48.390625 32.421875 48.390625 
Q 24.90625 48.390625 20.390625 44.140625 
Q 15.875 39.890625 15.1875 32.171875 
z
" id="DejaVuSans-101"/>
      <path d="M 34.28125 27.484375 
Q 23.390625 27.484375 19.1875 25 
Q 14.984375 22.515625 14.984375 16.5 
Q 14.984375 11.71875 18.140625 8.90625 
Q 21.296875 6.109375 26.703125 6.109375 
Q 34.1875 6.109375 38.703125 11.40625 
Q 43.21875 16.703125 43.21875 25.484375 
L 43.21875 27.484375 
z
M 52.203125 31.203125 
L 52.203125 0 
L 43.21875 0 
L 43.21875 8.296875 
Q 40.140625 3.328125 35.546875 0.953125 
Q 30.953125 -1.421875 24.3125 -1.421875 
Q 15.921875 -1.421875 10.953125 3.296875 
Q 6 8.015625 6 15.921875 
Q 6 25.140625 12.171875 29.828125 
Q 18.359375 34.515625 30.609375 34.515625 
L 43.21875 34.515625 
L 43.21875 35.40625 
Q 43.21875 41.609375 39.140625 45 
Q 35.0625 48.390625 27.6875 48.390625 
Q 23 48.390625 18.546875 47.265625 
Q 14.109375 46.140625 10.015625 43.890625 
L 10.015625 52.203125 
Q 14.9375 54.109375 19.578125 55.046875 
Q 24.21875 56 28.609375 56 
Q 40.484375 56 46.34375 49.84375 
Q 52.203125 43.703125 52.203125 31.203125 
z
" id="DejaVuSans-97"/>
      <path d="M 45.40625 46.390625 
L 45.40625 75.984375 
L 54.390625 75.984375 
L 54.390625 0 
L 45.40625 0 
L 45.40625 8.203125 
Q 42.578125 3.328125 38.25 0.953125 
Q 33.9375 -1.421875 27.875 -1.421875 
Q 17.96875 -1.421875 11.734375 6.484375 
Q 5.515625 14.40625 5.515625 27.296875 
Q 5.515625 40.1875 11.734375 48.09375 
Q 17.96875 56 27.875 56 
Q 33.9375 56 38.25 53.625 
Q 42.578125 51.265625 45.40625 46.390625 
z
M 14.796875 27.296875 
Q 14.796875 17.390625 18.875 11.75 
Q 22.953125 6.109375 30.078125 6.109375 
Q 37.203125 6.109375 41.296875 11.75 
Q 45.40625 17.390625 45.40625 27.296875 
Q 45.40625 37.203125 41.296875 42.84375 
Q 37.203125 48.484375 30.078125 48.484375 
Q 22.953125 48.484375 18.875 42.84375 
Q 14.796875 37.203125 14.796875 27.296875 
z
" id="DejaVuSans-100"/>
      <path id="DejaVuSans-32"/>
      <path d="M 19.671875 64.796875 
L 19.671875 37.40625 
L 32.078125 37.40625 
Q 38.96875 37.40625 42.71875 40.96875 
Q 46.484375 44.53125 46.484375 51.125 
Q 46.484375 57.671875 42.71875 61.234375 
Q 38.96875 64.796875 32.078125 64.796875 
z
M 9.8125 72.90625 
L 32.078125 72.90625 
Q 44.34375 72.90625 50.609375 67.359375 
Q 56.890625 61.8125 56.890625 51.125 
Q 56.890625 40.328125 50.609375 34.8125 
Q 44.34375 29.296875 32.078125 29.296875 
L 19.671875 29.296875 
L 19.671875 0 
L 9.8125 0 
z
" id="DejaVuSans-80"/>
      <path d="M 30.609375 48.390625 
Q 23.390625 48.390625 19.1875 42.75 
Q 14.984375 37.109375 14.984375 27.296875 
Q 14.984375 17.484375 19.15625 11.84375 
Q 23.34375 6.203125 30.609375 6.203125 
Q 37.796875 6.203125 41.984375 11.859375 
Q 46.1875 17.53125 46.1875 27.296875 
Q 46.1875 37.015625 41.984375 42.703125 
Q 37.796875 48.390625 30.609375 48.390625 
z
M 30.609375 56 
Q 42.328125 56 49.015625 48.375 
Q 55.71875 40.765625 55.71875 27.296875 
Q 55.71875 13.875 49.015625 6.21875 
Q 42.328125 -1.421875 30.609375 -1.421875 
Q 18.84375 -1.421875 12.171875 6.21875 
Q 5.515625 13.875 5.515625 27.296875 
Q 5.515625 40.765625 12.171875 48.375 
Q 18.84375 56 30.609375 56 
z
" id="DejaVuSans-111"/>
      <path d="M 44.28125 53.078125 
L 44.28125 44.578125 
Q 40.484375 46.53125 36.375 47.5 
Q 32.28125 48.484375 27.875 48.484375 
Q 21.1875 48.484375 17.84375 46.4375 
Q 14.5 44.390625 14.5 40.28125 
Q 14.5 37.15625 16.890625 35.375 
Q 19.28125 33.59375 26.515625 31.984375 
L 29.59375 31.296875 
Q 39.15625 29.25 43.1875 25.515625 
Q 47.21875 21.78125 47.21875 15.09375 
Q 47.21875 7.46875 41.1875 3.015625 
Q 35.15625 -1.421875 24.609375 -1.421875 
Q 20.21875 -1.421875 15.453125 -0.5625 
Q 10.6875 0.296875 5.421875 2 
L 5.421875 11.28125 
Q 10.40625 8.6875 15.234375 7.390625 
Q 20.0625 6.109375 24.8125 6.109375 
Q 31.15625 6.109375 34.5625 8.28125 
Q 37.984375 10.453125 37.984375 14.40625 
Q 37.984375 18.0625 35.515625 20.015625 
Q 33.0625 21.96875 24.703125 23.78125 
L 21.578125 24.515625 
Q 13.234375 26.265625 9.515625 29.90625 
Q 5.8125 33.546875 5.8125 39.890625 
Q 5.8125 47.609375 11.28125 51.796875 
Q 16.75 56 26.8125 56 
Q 31.78125 56 36.171875 55.265625 
Q 40.578125 54.546875 44.28125 53.078125 
z
" id="DejaVuSans-115"/>
      <path d="M 9.421875 54.6875 
L 18.40625 54.6875 
L 18.40625 0 
L 9.421875 0 
z
M 9.421875 75.984375 
L 18.40625 75.984375 
L 18.40625 64.59375 
L 9.421875 64.59375 
z
" id="DejaVuSans-105"/>
      <path d="M 18.3125 70.21875 
L 18.3125 54.6875 
L 36.8125 54.6875 
L 36.8125 47.703125 
L 18.3125 47.703125 
L 18.3125 18.015625 
Q 18.3125 11.328125 20.140625 9.421875 
Q 21.96875 7.515625 27.59375 7.515625 
L 36.8125 7.515625 
L 36.8125 0 
L 27.59375 0 
Q 17.1875 0 13.234375 3.875 
Q 9.28125 7.765625 9.28125 18.015625 
L 9.28125 47.703125 
L 2.6875 47.703125 
L 2.6875 54.6875 
L 9.28125 54.6875 
L 9.28125 70.21875 
z
" id="DejaVuSans-116"/>
      <path d="M 54.890625 33.015625 
L 54.890625 0 
L 45.90625 0 
L 45.90625 32.71875 
Q 45.90625 40.484375 42.875 44.328125 
Q 39.84375 48.1875 33.796875 48.1875 
Q 26.515625 48.1875 22.3125 43.546875 
Q 18.109375 38.921875 18.109375 30.90625 
L 18.109375 0 
L 9.078125 0 
L 9.078125 54.6875 
L 18.109375 54.6875 
L 18.109375 46.1875 
Q 21.34375 51.125 25.703125 53.5625 
Q 30.078125 56 35.796875 56 
Q 45.21875 56 50.046875 50.171875 
Q 54.890625 44.34375 54.890625 33.015625 
z
" id="DejaVuSans-110"/>
     </defs>
     <g transform="translate(479.045156 379.564837)scale(0.1 -0.1)">
      <use xlink:href="#DejaVuSans-82"/>
      <use x="69.419922" xlink:href="#DejaVuSans-101"/>
      <use x="130.943359" xlink:href="#DejaVuSans-97"/>
      <use x="192.222656" xlink:href="#DejaVuSans-100"/>
      <use x="255.699219" xlink:href="#DejaVuSans-32"/>
      <use x="287.486328" xlink:href="#DejaVuSans-80"/>
      <use x="347.742188" xlink:href="#DejaVuSans-111"/>
      <use x="408.923828" xlink:href="#DejaVuSans-115"/>
      <use x="461.023438" xlink:href="#DejaVuSans-105"/>
      <use x="488.806641" xlink:href="#DejaVuSans-116"/>
      <use x="528.015625" xlink:href="#DejaVuSans-105"/>
      <use x="555.798828" xlink:href="#DejaVuSans-111"/>
      <use x="616.980469" xlink:href="#DejaVuSans-110"/>
     </g>
    </g>
   </g>
   <g id="matplotlib.axis_2">
    <g id="ytick_1">
     <g id="line2d_1">
      <path clip-path="url(#p4df4a8d894)" d="M 32.968125 353.2239 
L 993.158125 353.2239 
" style="fill:none;stroke:#dedede;stroke-linecap:square;"/>
     </g>
     <g id="text_10">
      <!-- 0 -->
      <g transform="translate(20.878125 356.263275)scale(0.08 -0.08)">
       <use xlink:href="#DejaVuSans-48"/>
      </g>
     </g>
    </g>
    <g id="ytick_2">
     <g id="line2d_2">
      <path clip-path="url(#p4df4a8d894)" d="M 32.968125 289.6303 
L 993.158125 289.6303 
" style="fill:none;stroke:#dedede;stroke-linecap:square;"/>
     </g>
     <g id="text_11">
      <!-- 1 -->
      <g transform="translate(20.878125 292.669675)scale(0.08 -0.08)">
       <use xlink:href="#DejaVuSans-49"/>
      </g>
     </g>
    </g>
    <g id="ytick_3">
     <g id="line2d_3">
      <path clip-path="url(#p4df4a8d894)" d="M 32.968125 226.0367 
L 993.158125 226.0367 
" style="fill:none;stroke:#dedede;stroke-linecap:square;"/>
     </g>
     <g id="text_12">
      <!-- 2 -->
      <g transform="translate(20.878125 229.076075)scale(0.08 -0.08)">
       <use xlink:href="#DejaVuSans-50"/>
      </g>
     </g>
    </g>
    <g id="ytick_4">
     <g id="line2d_4">
      <path clip-path="url(#p4df4a8d894)" d="M 32.968125 162.4431 
L 993.158125 162.4431 
" style="fill:none;stroke:#dedede;stroke-linecap:square;"/>
     </g>
     <g id="text_13">
      <!-- 3 -->
      <defs>
       <path d="M 40.578125 39.3125 
Q 47.65625 37.796875 51.625 33 
Q 55.609375 28.21875 55.609375 21.1875 
Q 55.609375 10.40625 48.1875 4.484375 
Q 40.765625 -1.421875 27.09375 -1.421875 
Q 22.515625 -1.421875 17.65625 -0.515625 
Q 12.796875 0.390625 7.625 2.203125 
L 7.625 11.71875 
Q 11.71875 9.328125 16.59375 8.109375 
Q 21.484375 6.890625 26.8125 6.890625 
Q 36.078125 6.890625 40.9375 10.546875 
Q 45.796875 14.203125 45.796875 21.1875 
Q 45.796875 27.640625 41.28125 31.265625 
Q 36.765625 34.90625 28.71875 34.90625 
L 20.21875 34.90625 
L 20.21875 43.015625 
L 29.109375 43.015625 
Q 36.375 43.015625 40.234375 45.921875 
Q 44.09375 48.828125 44.09375 54.296875 
Q 44.09375 59.90625 40.109375 62.90625 
Q 36.140625 65.921875 28.71875 65.921875 
Q 24.65625 65.921875 20.015625 65.03125 
Q 15.375 64.15625 9.8125 62.3125 
L 9.8125 71.09375 
Q 15.4375 72.65625 20.34375 73.4375 
Q 25.25 74.21875 29.59375 74.21875 
Q 40.828125 74.21875 47.359375 69.109375 
Q 53.90625 64.015625 53.90625 55.328125 
Q 53.90625 49.265625 50.4375 45.09375 
Q 46.96875 40.921875 40.578125 39.3125 
z
" id="DejaVuSans-51"/>
      </defs>
      <g transform="translate(20.878125 165.482475)scale(0.08 -0.08)">
       <use xlink:href="#DejaVuSans-51"/>
      </g>
     </g>
    </g>
    <g id="ytick_5">
     <g id="line2d_5">
      <path clip-path="url(#p4df4a8d894)" d="M 32.968125 98.8495 
L 993.158125 98.8495 
" style="fill:none;stroke:#dedede;stroke-linecap:square;"/>
     </g>
     <g id="text_14">
      <!-- 4 -->
      <g transform="translate(20.878125 101.888875)scale(0.08 -0.08)">
       <use xlink:href="#DejaVuSans-52"/>
      </g>
     </g>
    </g>
    <g id="ytick_6">
     <g id="line2d_6">
      <path clip-path="url(#p4df4a8d894)" d="M 32.968125 35.2559 
L 993.158125 35.2559 
" style="fill:none;stroke:#dedede;stroke-linecap:square;"/>
     </g>
     <g id="text_15">
      <!-- 5 -->
      <defs>
       <path d="M 10.796875 72.90625 
L 49.515625 72.90625 
L 49.515625 64.59375 
L 19.828125 64.59375 
L 19.828125 46.734375 
Q 21.96875 47.46875 24.109375 47.828125 
Q 26.265625 48.1875 28.421875 48.1875 
Q 40.625 48.1875 47.75 41.5 
Q 54.890625 34.8125 54.890625 23.390625 
Q 54.890625 11.625 47.5625 5.09375 
Q 40.234375 -1.421875 26.90625 -1.421875 
Q 22.3125 -1.421875 17.546875 -0.640625 
Q 12.796875 0.140625 7.71875 1.703125 
L 7.71875 11.625 
Q 12.109375 9.234375 16.796875 8.0625 
Q 21.484375 6.890625 26.703125 6.890625 
Q 35.15625 6.890625 40.078125 11.328125 
Q 45.015625 15.765625 45.015625 23.390625 
Q 45.015625 31 40.078125 35.4375 
Q 35.15625 39.890625 26.703125 39.890625 
Q 22.75 39.890625 18.8125 39.015625 
Q 14.890625 38.140625 10.796875 36.28125 
z
" id="DejaVuSans-53"/>
      </defs>
      <g transform="translate(20.878125 38.295275)scale(0.08 -0.08)">
       <use xlink:href="#DejaVuSans-53"/>
      </g>
     </g>
    </g>
    <g id="text_16">
     <!-- R2 After filtering: Base Content Percent -->
     <defs>
      <path d="M 34.1875 63.1875 
L 20.796875 26.90625 
L 47.609375 26.90625 
z
M 28.609375 72.90625 
L 39.796875 72.90625 
L 67.578125 0 
L 57.328125 0 
L 50.6875 18.703125 
L 17.828125 18.703125 
L 11.1875 0 
L 0.78125 0 
z
" id="DejaVuSans-65"/>
      <path d="M 37.109375 75.984375 
L 37.109375 68.5 
L 28.515625 68.5 
Q 23.6875 68.5 21.796875 66.546875 
Q 19.921875 64.59375 19.921875 59.515625 
L 19.921875 54.6875 
L 34.71875 54.6875 
L 34.71875 47.703125 
L 19.921875 47.703125 
L 19.921875 0 
L 10.890625 0 
L 10.890625 47.703125 
L 2.296875 47.703125 
L 2.296875 54.6875 
L 10.890625 54.6875 
L 10.890625 58.5 
Q 10.890625 67.625 15.140625 71.796875 
Q 19.390625 75.984375 28.609375 75.984375 
z
" id="DejaVuSans-102"/>
      <path d="M 41.109375 46.296875 
Q 39.59375 47.171875 37.8125 47.578125 
Q 36.03125 48 33.890625 48 
Q 26.265625 48 22.1875 43.046875 
Q 18.109375 38.09375 18.109375 28.8125 
L 18.109375 0 
L 9.078125 0 
L 9.078125 54.6875 
L 18.109375 54.6875 
L 18.109375 46.1875 
Q 20.953125 51.171875 25.484375 53.578125 
Q 30.03125 56 36.53125 56 
Q 37.453125 56 38.578125 55.875 
Q 39.703125 55.765625 41.0625 55.515625 
z
" id="DejaVuSans-114"/>
      <path d="M 9.421875 75.984375 
L 18.40625 75.984375 
L 18.40625 0 
L 9.421875 0 
z
" id="DejaVuSans-108"/>
      <path d="M 45.40625 27.984375 
Q 45.40625 37.75 41.375 43.109375 
Q 37.359375 48.484375 30.078125 48.484375 
Q 22.859375 48.484375 18.828125 43.109375 
Q 14.796875 37.75 14.796875 27.984375 
Q 14.796875 18.265625 18.828125 12.890625 
Q 22.859375 7.515625 30.078125 7.515625 
Q 37.359375 7.515625 41.375 12.890625 
Q 45.40625 18.265625 45.40625 27.984375 
z
M 54.390625 6.78125 
Q 54.390625 -7.171875 48.1875 -13.984375 
Q 42 -20.796875 29.203125 -20.796875 
Q 24.46875 -20.796875 20.265625 -20.09375 
Q 16.0625 -19.390625 12.109375 -17.921875 
L 12.109375 -9.1875 
Q 16.0625 -11.328125 19.921875 -12.34375 
Q 23.78125 -13.375 27.78125 -13.375 
Q 36.625 -13.375 41.015625 -8.765625 
Q 45.40625 -4.15625 45.40625 5.171875 
L 45.40625 9.625 
Q 42.625 4.78125 38.28125 2.390625 
Q 33.9375 0 27.875 0 
Q 17.828125 0 11.671875 7.65625 
Q 5.515625 15.328125 5.515625 27.984375 
Q 5.515625 40.671875 11.671875 48.328125 
Q 17.828125 56 27.875 56 
Q 33.9375 56 38.28125 53.609375 
Q 42.625 51.21875 45.40625 46.390625 
L 45.40625 54.6875 
L 54.390625 54.6875 
z
" id="DejaVuSans-103"/>
      <path d="M 11.71875 12.40625 
L 22.015625 12.40625 
L 22.015625 0 
L 11.71875 0 
z
M 11.71875 51.703125 
L 22.015625 51.703125 
L 22.015625 39.3125 
L 11.71875 39.3125 
z
" id="DejaVuSans-58"/>
      <path d="M 19.671875 34.8125 
L 19.671875 8.109375 
L 35.5 8.109375 
Q 43.453125 8.109375 47.28125 11.40625 
Q 51.125 14.703125 51.125 21.484375 
Q 51.125 28.328125 47.28125 31.5625 
Q 43.453125 34.8125 35.5 34.8125 
z
M 19.671875 64.796875 
L 19.671875 42.828125 
L 34.28125 42.828125 
Q 41.5 42.828125 45.03125 45.53125 
Q 48.578125 48.25 48.578125 53.8125 
Q 48.578125 59.328125 45.03125 62.0625 
Q 41.5 64.796875 34.28125 64.796875 
z
M 9.8125 72.90625 
L 35.015625 72.90625 
Q 46.296875 72.90625 52.390625 68.21875 
Q 58.5 63.53125 58.5 54.890625 
Q 58.5 48.1875 55.375 44.234375 
Q 52.25 40.28125 46.1875 39.3125 
Q 53.46875 37.75 57.5 32.78125 
Q 61.53125 27.828125 61.53125 20.40625 
Q 61.53125 10.640625 54.890625 5.3125 
Q 48.25 0 35.984375 0 
L 9.8125 0 
z
" id="DejaVuSans-66"/>
      <path d="M 64.40625 67.28125 
L 64.40625 56.890625 
Q 59.421875 61.53125 53.78125 63.8125 
Q 48.140625 66.109375 41.796875 66.109375 
Q 29.296875 66.109375 22.65625 58.46875 
Q 16.015625 50.828125 16.015625 36.375 
Q 16.015625 21.96875 22.65625 14.328125 
Q 29.296875 6.6875 41.796875 6.6875 
Q 48.140625 6.6875 53.78125 8.984375 
Q 59.421875 11.28125 64.40625 15.921875 
L 64.40625 5.609375 
Q 59.234375 2.09375 53.4375 0.328125 
Q 47.65625 -1.421875 41.21875 -1.421875 
Q 24.65625 -1.421875 15.125 8.703125 
Q 5.609375 18.84375 5.609375 36.375 
Q 5.609375 53.953125 15.125 64.078125 
Q 24.65625 74.21875 41.21875 74.21875 
Q 47.75 74.21875 53.53125 72.484375 
Q 59.328125 70.75 64.40625 67.28125 
z
" id="DejaVuSans-67"/>
      <path d="M 48.78125 52.59375 
L 48.78125 44.1875 
Q 44.96875 46.296875 41.140625 47.34375 
Q 37.3125 48.390625 33.40625 48.390625 
Q 24.65625 48.390625 19.8125 42.84375 
Q 14.984375 37.3125 14.984375 27.296875 
Q 14.984375 17.28125 19.8125 11.734375 
Q 24.65625 6.203125 33.40625 6.203125 
Q 37.3125 6.203125 41.140625 7.25 
Q 44.96875 8.296875 48.78125 10.40625 
L 48.78125 2.09375 
Q 45.015625 0.34375 40.984375 -0.53125 
Q 36.96875 -1.421875 32.421875 -1.421875 
Q 20.0625 -1.421875 12.78125 6.34375 
Q 5.515625 14.109375 5.515625 27.296875 
Q 5.515625 40.671875 12.859375 48.328125 
Q 20.21875 56 33.015625 56 
Q 37.15625 56 41.109375 55.140625 
Q 45.0625 54.296875 48.78125 52.59375 
z
" id="DejaVuSans-99"/>
     </defs>
     <g transform="translate(14.798438 293.315681)rotate(-90)scale(0.1 -0.1)">
      <use xlink:href="#DejaVuSans-82"/>
      <use x="69.482422" xlink:href="#DejaVuSans-50"/>
      <use x="133.105469" xlink:href="#DejaVuSans-32"/>
      <use x="164.892578" xlink:href="#DejaVuSans-65"/>
      <use x="233.253906" xlink:href="#DejaVuSans-102"/>
      <use x="268.443359" xlink:href="#DejaVuSans-116"/>
      <use x="307.652344" xlink:href="#DejaVuSans-101"/>
      <use x="369.175781" xlink:href="#DejaVuSans-114"/>
      <use x="410.289062" xlink:href="#DejaVuSans-32"/>
      <use x="442.076172" xlink:href="#DejaVuSans-102"/>
      <use x="477.28125" xlink:href="#DejaVuSans-105"/>
      <use x="505.064453" xlink:href="#DejaVuSans-108"/>
      <use x="532.847656" xlink:href="#DejaVuSans-116"/>
      <use x="572.056641" xlink:href="#DejaVuSans-101"/>
      <use x="633.580078" xlink:href="#DejaVuSans-114"/>
      <use x="674.693359" xlink:href="#DejaVuSans-105"/>
      <use x="702.476562" xlink:href="#DejaVuSans-110"/>
      <use x="765.855469" xlink:href="#DejaVuSans-103"/>
      <use x="829.332031" xlink:href="#DejaVuSans-58"/>
      <use x="863.023438" xlink:href="#DejaVuSans-32"/>
      <use x="894.810547" xlink:href="#DejaVuSans-66"/>
      <use x="963.414062" xlink:href="#DejaVuSans-97"/>
      <use x="1024.693359" xlink:href="#DejaVuSans-115"/>
      <use x="1076.792969" xlink:href="#DejaVuSans-101"/>
      <use x="1138.316406" xlink:href="#DejaVuSans-32"/>
      <use x="1170.103516" xlink:href="#DejaVuSans-67"/>
      <use x="1239.927734" xlink:href="#DejaVuSans-111"/>
      <use x="1301.109375" xlink:href="#DejaVuSans-110"/>
      <use x="1364.488281" xlink:href="#DejaVuSans-116"/>
      <use x="1403.697266" xlink:href="#DejaVuSans-101"/>
      <use x="1465.220703" xlink:href="#DejaVuSans-110"/>
      <use x="1528.599609" xlink:href="#DejaVuSans-116"/>
      <use x="1567.808594" xlink:href="#DejaVuSans-32"/>
      <use x="1599.595703" xlink:href="#DejaVuSans-80"/>
      <use x="1659.851562" xlink:href="#DejaVuSans-101"/>
      <use x="1721.375" xlink:href="#DejaVuSans-114"/>
      <use x="1762.457031" xlink:href="#DejaVuSans-99"/>
      <use x="1817.4375" xlink:href="#DejaVuSans-101"/>
      <use x="1878.960938" xlink:href="#DejaVuSans-110"/>
      <use x="1942.339844" xlink:href="#DejaVuSans-116"/>
     </g>
    </g>
   </g>
   <g id="line2d_7">
    <path clip-path="url(#p4df4a8d894)" d="M 76.613125 353.2239 
L 176.205742 353.215781 
L 182.064132 352.817935 
L 187.922521 353.2239 
L 199.639299 353.2239 
L 205.497689 352.939724 
L 211.356078 353.2239 
L 240.648024 353.126468 
L 246.506414 352.858531 
L 252.364803 353.215781 
L 258.223192 353.093991 
L 264.081581 353.2239 
L 949.513125 353.2239 
L 949.513125 353.2239 
" style="fill:none;stroke:#7cb5ec;stroke-linecap:square;"/>
   </g>
   <g id="line2d_8">
    <path clip-path="url(#p4df4a8d894)" d="M 76.613125 353.2239 
L 949.513125 353.2239 
L 949.513125 353.2239 
" style="fill:none;stroke:#434348;stroke-linecap:square;"/>
   </g>
   <g id="line2d_9">
    <path clip-path="url(#p4df4a8d894)" d="M 76.613125 353.2239 
L 176.205742 353.197449 
L 182.064132 352.694875 
L 187.922521 353.2239 
L 199.639299 353.2239 
L 205.497689 352.827131 
L 211.356078 353.2239 
L 240.648024 353.144546 
L 246.506414 352.747777 
L 252.364803 353.2239 
L 258.223192 352.985839 
L 264.081581 353.2239 
L 949.513125 353.2239 
L 949.513125 353.2239 
" style="fill:none;stroke:#90ed7d;stroke-linecap:square;"/>
   </g>
   <g id="line2d_10">
    <path clip-path="url(#p4df4a8d894)" d="M 76.613125 353.2239 
L 176.205742 353.2239 
L 182.064132 352.645138 
L 187.922521 353.2239 
L 199.639299 353.2239 
L 205.497689 352.880261 
L 211.356078 353.2239 
L 240.648024 353.151555 
L 246.506414 352.717484 
L 252.364803 353.2239 
L 258.223192 353.115382 
L 269.939971 353.2239 
L 949.513125 353.2239 
L 949.513125 353.2239 
" style="fill:none;stroke:#f7a35c;stroke-linecap:square;"/>
   </g>
   <g id="line2d_11">
    <path clip-path="url(#p4df4a8d894)" d="M 76.613125 353.2239 
L 176.205742 353.204351 
L 182.064132 352.891561 
L 187.922521 353.2239 
L 199.639299 353.204351 
L 205.497689 353.008858 
L 211.356078 353.2239 
L 240.648024 353.165252 
L 246.506414 352.950209 
L 252.364803 353.2239 
L 258.223192 353.047956 
L 264.081581 353.2239 
L 949.513125 353.2239 
L 949.513125 353.2239 
" style="fill:none;stroke:#8085e9;stroke-linecap:square;"/>
   </g>
   <g id="line2d_12">
    <path clip-path="url(#p4df4a8d894)" d="M 76.613125 353.2239 
L 176.205742 353.2239 
L 182.064132 352.736723 
L 187.922521 353.2239 
L 199.639299 353.2239 
L 205.497689 352.736723 
L 211.356078 353.2239 
L 228.931246 353.2239 
L 234.789635 353.102106 
L 240.648024 353.2239 
L 246.506414 352.493133 
L 252.364803 353.2239 
L 258.223192 352.980312 
L 264.081581 353.2239 
L 949.513125 353.2239 
L 949.513125 353.2239 
" style="fill:none;stroke:#f15c80;stroke-linecap:square;"/>
   </g>
   <g id="line2d_13">
    <path clip-path="url(#p4df4a8d894)" d="M 76.613125 353.2239 
L 176.205742 353.2239 
L 182.064132 352.999513 
L 187.922521 353.2239 
L 199.639299 353.2239 
L 205.497689 352.775126 
L 211.356078 353.2239 
L 240.648024 353.2239 
L 246.506414 352.550736 
L 252.364803 353.2239 
L 949.513125 353.2239 
L 949.513125 353.2239 
" style="fill:none;stroke:#e4d354;stroke-linecap:square;"/>
   </g>
   <g id="line2d_14">
    <path clip-path="url(#p4df4a8d894)" d="M 76.613125 353.2239 
L 176.205742 353.20719 
L 182.064132 352.926456 
L 187.922521 353.217216 
L 199.639299 353.217216 
L 205.497689 352.94985 
L 211.356078 353.2239 
L 240.648024 353.140348 
L 246.506414 352.86964 
L 252.364803 353.220558 
L 258.223192 353.073507 
L 264.081581 353.2239 
L 949.513125 353.2239 
L 949.513125 353.2239 
" style="fill:none;stroke:#2b908f;stroke-linecap:square;"/>
   </g>
   <g id="line2d_15">
    <path clip-path="url(#p4df4a8d894)" d="M 76.613125 353.2239 
L 949.513125 353.2239 
L 949.513125 353.2239 
" style="fill:none;stroke:#f45b5b;stroke-linecap:square;"/>
   </g>
   <g id="line2d_16">
    <path clip-path="url(#p4df4a8d894)" d="M 76.613125 353.2239 
L 176.205742 353.2239 
L 182.064132 352.545884 
L 187.922521 353.2239 
L 199.639299 353.2239 
L 205.497689 352.771888 
L 211.356078 353.2239 
L 240.648024 353.2239 
L 246.506414 352.771888 
L 252.364803 353.2239 
L 949.513125 353.2239 
L 949.513125 353.2239 
" style="fill:none;stroke:#91e8e1;stroke-linecap:square;"/>
   </g>
   <g id="line2d_17">
    <path clip-path="url(#p4df4a8d894)" d="M 76.613125 353.2239 
L 176.205742 353.2239 
L 182.064132 352.948424 
L 187.922521 353.2239 
L 240.648024 353.2239 
L 246.506414 352.581121 
L 252.364803 353.2239 
L 258.223192 353.132075 
L 269.939971 353.2239 
L 949.513125 353.2239 
L 949.513125 353.2239 
" style="fill:none;stroke:#7cb5ec;stroke-linecap:square;"/>
   </g>
   <g id="line2d_18">
    <path clip-path="url(#p4df4a8d894)" d="M 76.613125 353.2239 
L 949.513125 353.2239 
L 949.513125 353.2239 
" style="fill:none;stroke:#434348;stroke-linecap:square;"/>
   </g>
   <g id="line2d_19">
    <path clip-path="url(#p4df4a8d894)" d="M 76.613125 353.2239 
L 176.205742 353.2239 
L 182.064132 352.677472 
L 187.922521 353.2239 
L 199.639299 353.195141 
L 205.497689 352.965066 
L 211.356078 353.2239 
L 234.789635 353.2239 
L 240.648024 353.080103 
L 246.506414 352.821269 
L 252.364803 353.2239 
L 258.223192 353.108862 
L 264.081581 353.2239 
L 949.513125 353.2239 
L 949.513125 353.2239 
" style="fill:none;stroke:#90ed7d;stroke-linecap:square;"/>
   </g>
   <g id="line2d_20">
    <path clip-path="url(#p4df4a8d894)" d="M 76.613125 353.2239 
L 105.905071 353.2239 
L 176.205742 353.2239 
L 182.064132 352.831146 
L 187.922521 353.2239 
L 199.639299 353.2239 
L 205.497689 353.005703 
L 211.356078 353.2239 
L 240.648024 353.158441 
L 246.506414 352.852966 
L 252.364803 353.2239 
L 258.223192 353.071162 
L 264.081581 353.2239 
L 949.513125 353.2239 
L 949.513125 353.2239 
" style="fill:none;stroke:#f7a35c;stroke-linecap:square;"/>
   </g>
   <g id="line2d_21">
    <path clip-path="url(#p4df4a8d894)" d="M 76.613125 353.2239 
L 176.205742 353.217921 
L 182.064132 352.835274 
L 187.922521 353.2239 
L 199.639299 353.217921 
L 205.497689 352.817338 
L 211.356078 353.2239 
L 240.648024 353.158133 
L 246.506414 352.901042 
L 252.364803 353.2239 
L 258.223192 353.06845 
L 264.081581 353.2239 
L 949.513125 353.2239 
L 949.513125 353.2239 
" style="fill:none;stroke:#8085e9;stroke-linecap:square;"/>
   </g>
   <g id="line2d_22">
    <path clip-path="url(#p4df4a8d894)" d="M 76.613125 353.2239 
L 949.513125 353.2239 
L 949.513125 353.2239 
" style="fill:none;stroke:#f15c80;stroke-linecap:square;"/>
   </g>
   <g id="line2d_23">
    <path clip-path="url(#p4df4a8d894)" d="M 76.613125 353.2239 
L 176.205742 353.2239 
L 182.064132 352.747989 
L 187.922521 353.2239 
L 199.639299 353.210861 
L 205.497689 352.780585 
L 211.356078 353.2239 
L 240.648024 353.171745 
L 246.506414 352.741469 
L 252.364803 353.217381 
L 258.223192 353.12611 
L 269.939971 353.2239 
L 949.513125 353.2239 
L 949.513125 353.2239 
" style="fill:none;stroke:#e4d354;stroke-linecap:square;"/>
   </g>
   <g id="line2d_24">
    <path clip-path="url(#p4df4a8d894)" d="M 76.613125 353.2239 
L 176.205742 353.2239 
L 182.064132 353.059789 
L 187.922521 353.2239 
L 199.639299 353.2239 
L 205.497689 352.895678 
L 211.356078 353.2239 
L 252.364803 353.2239 
L 258.223192 353.059789 
L 264.081581 353.2239 
L 949.513125 353.2239 
L 949.513125 353.2239 
" style="fill:none;stroke:#2b908f;stroke-linecap:square;"/>
   </g>
   <g id="line2d_25">
    <path clip-path="url(#p4df4a8d894)" d="M 76.613125 353.2239 
L 88.329904 353.190437 
L 94.188293 353.090046 
L 100.046682 353.2239 
L 176.205742 353.2239 
L 182.064132 352.956193 
L 187.922521 353.2239 
L 199.639299 353.2239 
L 205.497689 352.956193 
L 211.356078 353.2239 
L 234.789635 353.2239 
L 240.648024 353.090046 
L 246.506414 352.788875 
L 252.364803 353.2239 
L 258.223192 353.156973 
L 269.939971 353.2239 
L 949.513125 353.2239 
L 949.513125 353.2239 
" style="fill:none;stroke:#f45b5b;stroke-linecap:square;"/>
   </g>
   <g id="line2d_26">
    <path clip-path="url(#p4df4a8d894)" d="M 76.613125 353.2239 
L 176.205742 353.207936 
L 182.064132 352.802194 
L 187.922521 353.223235 
L 199.639299 353.211262 
L 205.497689 352.876026 
L 211.356078 353.2239 
L 240.648024 353.162041 
L 246.506414 352.836117 
L 252.364803 353.219244 
L 258.223192 353.101512 
L 264.081581 353.220574 
L 463.266816 353.2239 
L 949.513125 353.2239 
L 949.513125 353.2239 
" style="fill:none;stroke:#91e8e1;stroke-linecap:square;"/>
   </g>
   <g id="line2d_27">
    <path clip-path="url(#p4df4a8d894)" d="M 76.613125 353.2239 
L 82.471514 353.2239 
L 88.329904 351.227869 
L 94.188293 353.2239 
L 228.931246 353.2239 
L 234.789635 351.227869 
L 240.648024 353.2239 
L 246.506414 351.227869 
L 252.364803 353.2239 
L 949.513125 353.2239 
L 949.513125 353.2239 
" style="fill:none;stroke:#7cb5ec;stroke-linecap:square;"/>
   </g>
   <g id="line2d_28">
    <path clip-path="url(#p4df4a8d894)" d="M 76.613125 353.2239 
L 949.513125 353.2239 
L 949.513125 353.2239 
" style="fill:none;stroke:#434348;stroke-linecap:square;"/>
   </g>
   <g id="line2d_29">
    <path clip-path="url(#p4df4a8d894)" d="M 76.613125 353.2239 
L 176.205742 353.2239 
L 182.064132 352.508294 
L 187.922521 353.2239 
L 199.639299 353.194083 
L 205.497689 352.687197 
L 211.356078 353.2239 
L 240.648024 353.164266 
L 246.506414 352.65738 
L 252.364803 353.194083 
L 258.223192 353.134449 
L 269.939971 353.2239 
L 949.513125 353.2239 
L 949.513125 353.2239 
" style="fill:none;stroke:#90ed7d;stroke-linecap:square;"/>
   </g>
   <g id="line2d_30">
    <path clip-path="url(#p4df4a8d894)" d="M 76.613125 353.2239 
L 949.513125 353.2239 
L 949.513125 353.2239 
" style="fill:none;stroke:#f7a35c;stroke-linecap:square;"/>
   </g>
   <g id="line2d_31">
    <path clip-path="url(#p4df4a8d894)" d="M 76.613125 353.2239 
L 176.205742 353.2239 
L 182.064132 352.808591 
L 187.922521 353.2239 
L 199.639299 353.2239 
L 205.497689 352.953047 
L 211.356078 353.2239 
L 240.648024 353.178758 
L 246.506414 352.880819 
L 252.364803 353.205843 
L 258.223192 353.115559 
L 269.939971 353.2239 
L 949.513125 353.2239 
L 949.513125 353.2239 
" style="fill:none;stroke:#8085e9;stroke-linecap:square;"/>
   </g>
   <g id="line2d_32">
    <path clip-path="url(#p4df4a8d894)" d="M 76.613125 353.2239 
L 176.205742 353.2239 
L 182.064132 352.621422 
L 187.922521 353.2239 
L 199.639299 353.2239 
L 205.497689 352.822248 
L 211.356078 353.2239 
L 240.648024 353.123487 
L 246.506414 352.922661 
L 252.364803 353.2239 
L 949.513125 353.2239 
L 949.513125 353.2239 
" style="fill:none;stroke:#f15c80;stroke-linecap:square;"/>
   </g>
   <g id="line2d_33">
    <path clip-path="url(#p4df4a8d894)" d="M 76.613125 353.2239 
L 949.513125 353.2239 
L 949.513125 353.2239 
" style="fill:none;stroke:#e4d354;stroke-linecap:square;"/>
   </g>
   <g id="line2d_34">
    <path clip-path="url(#p4df4a8d894)" d="M 76.613125 353.2239 
L 176.205742 353.198804 
L 182.064132 352.758486 
L 187.922521 353.2239 
L 199.639299 353.205648 
L 205.497689 352.831492 
L 211.356078 353.2239 
L 240.648024 353.17599 
L 246.506414 352.763049 
L 252.364803 353.219337 
L 258.223192 353.130361 
L 269.939971 353.2239 
L 949.513125 353.2239 
L 949.513125 353.2239 
" style="fill:none;stroke:#2b908f;stroke-linecap:square;"/>
   </g>
   <g id="line2d_35">
    <path clip-path="url(#p4df4a8d894)" d="M 76.613125 353.2239 
L 176.205742 353.209214 
L 182.064132 352.76292 
L 187.922521 353.223084 
L 199.639299 353.213701 
L 205.497689 352.851037 
L 211.356078 353.2239 
L 240.648024 353.159445 
L 246.506414 352.769039 
L 252.364803 353.221044 
L 258.223192 353.105187 
L 264.081581 353.22186 
L 498.417152 353.214448 
L 521.850709 353.221773 
L 937.796346 353.2239 
L 949.513125 353.2239 
L 949.513125 353.2239 
" style="fill:none;stroke:#f45b5b;stroke-linecap:square;"/>
   </g>
   <g id="line2d_36">
    <path clip-path="url(#p4df4a8d894)" d="M 76.613125 353.2239 
L 146.913796 353.2239 
L 176.205742 353.205719 
L 182.064132 352.787553 
L 187.922521 353.2239 
L 199.639299 353.214809 
L 205.497689 352.796643 
L 211.356078 353.2239 
L 240.648024 353.151176 
L 246.506414 352.833005 
L 252.364803 353.214809 
L 258.223192 353.087541 
L 264.081581 353.2239 
L 949.513125 353.2239 
L 949.513125 353.2239 
" style="fill:none;stroke:#91e8e1;stroke-linecap:square;"/>
   </g>
   <g id="line2d_37">
    <path clip-path="url(#p4df4a8d894)" d="M 76.613125 353.2239 
L 152.772185 353.2239 
L 176.205742 353.199541 
L 182.064132 352.752958 
L 187.922521 353.2239 
L 199.639299 353.21578 
L 205.497689 352.915351 
L 211.356078 353.2239 
L 240.648024 353.175182 
L 246.506414 352.70424 
L 252.364803 353.21578 
L 258.223192 353.126464 
L 269.939971 353.2239 
L 346.099031 353.2239 
L 949.513125 353.2239 
L 949.513125 353.2239 
" style="fill:none;stroke:#7cb5ec;stroke-linecap:square;"/>
   </g>
   <g id="line2d_38">
    <path clip-path="url(#p4df4a8d894)" d="M 76.613125 353.2239 
L 88.329904 353.203254 
L 94.188293 353.100024 
L 100.046682 353.2239 
L 176.205742 353.203254 
L 182.064132 352.583875 
L 187.922521 353.2239 
L 199.639299 353.203254 
L 205.497689 352.604522 
L 211.356078 353.2239 
L 234.789635 353.203254 
L 240.648024 353.100024 
L 246.506414 352.521941 
L 252.364803 353.2239 
L 258.223192 353.161962 
L 269.939971 353.2239 
L 322.665474 353.203082 
L 328.523863 353.057154 
L 334.382253 353.2239 
L 949.513125 353.2239 
L 949.513125 353.2239 
" style="fill:none;stroke:#434348;stroke-linecap:square;"/>
   </g>
   <g id="line2d_39">
    <path clip-path="url(#p4df4a8d894)" d="M 76.613125 353.2239 
L 949.513125 353.2239 
L 949.513125 353.2239 
" style="fill:none;stroke:#90ed7d;stroke-linecap:square;"/>
   </g>
   <g id="line2d_40">
    <path clip-path="url(#p4df4a8d894)" d="M 76.613125 353.2239 
L 949.513125 353.2239 
L 949.513125 353.2239 
" style="fill:none;stroke:#f7a35c;stroke-linecap:square;"/>
   </g>
   <g id="line2d_41">
    <path clip-path="url(#p4df4a8d894)" d="M 76.613125 353.2239 
L 176.205742 353.2239 
L 182.064132 352.853687 
L 187.922521 353.2239 
L 199.639299 353.2239 
L 205.497689 352.853687 
L 211.356078 353.2239 
L 240.648024 353.2239 
L 246.506414 352.63156 
L 252.364803 353.2239 
L 258.223192 353.149857 
L 269.939971 353.2239 
L 691.743997 353.2239 
L 697.602387 353.003472 
L 703.460776 353.2239 
L 949.513125 353.2239 
L 949.513125 353.2239 
" style="fill:none;stroke:#8085e9;stroke-linecap:square;"/>
   </g>
   <g id="line2d_42">
    <path clip-path="url(#p4df4a8d894)" d="M 76.613125 353.2239 
L 176.205742 353.21268 
L 182.064132 352.842425 
L 187.922521 353.2239 
L 199.639299 353.20146 
L 205.497689 352.932183 
L 211.356078 353.2239 
L 240.648024 353.179021 
L 246.506414 352.876084 
L 252.364803 353.21268 
L 258.223192 353.134141 
L 269.939971 353.2239 
L 949.513125 353.2239 
L 949.513125 353.2239 
" style="fill:none;stroke:#f15c80;stroke-linecap:square;"/>
   </g>
   <g id="line2d_43">
    <path clip-path="url(#p4df4a8d894)" d="M 76.613125 353.2239 
L 176.205742 353.2239 
L 182.064132 352.924566 
L 187.922521 353.2239 
L 199.639299 353.2239 
L 205.497689 352.97246 
L 211.356078 353.2239 
L 240.648024 353.199953 
L 246.506414 352.900619 
L 252.364803 353.2239 
L 258.223192 353.020353 
L 264.081581 353.2239 
L 949.513125 353.2239 
L 949.513125 353.2239 
" style="fill:none;stroke:#e4d354;stroke-linecap:square;"/>
   </g>
   <g id="line2d_44">
    <path clip-path="url(#p4df4a8d894)" d="M 76.613125 353.2239 
L 82.471514 353.124114 
L 88.329904 353.2239 
L 94.188293 353.124114 
L 105.905071 353.2239 
L 176.205742 353.2239 
L 182.064132 352.824756 
L 187.922521 353.2239 
L 234.789635 353.2239 
L 240.648024 353.024328 
L 246.506414 353.024328 
L 252.364803 353.2239 
L 258.223192 353.124114 
L 269.939971 353.2239 
L 949.513125 353.2239 
L 949.513125 353.2239 
" style="fill:none;stroke:#2b908f;stroke-linecap:square;"/>
   </g>
   <g id="line2d_45">
    <path clip-path="url(#p4df4a8d894)" d="M 76.613125 353.2239 
L 176.205742 353.2239 
L 182.064132 352.832129 
L 187.922521 353.2239 
L 199.639299 353.2239 
L 205.497689 352.930071 
L 211.356078 353.2239 
L 234.789635 353.2239 
L 246.506414 352.930071 
L 252.364803 353.2239 
L 258.223192 353.028015 
L 264.081581 353.2239 
L 949.513125 353.2239 
L 949.513125 353.2239 
" style="fill:none;stroke:#f45b5b;stroke-linecap:square;"/>
   </g>
   <g id="line2d_46">
    <path clip-path="url(#p4df4a8d894)" d="M 76.613125 353.2239 
L 176.205742 353.212124 
L 182.064132 352.83528 
L 187.922521 353.2239 
L 199.639299 353.200347 
L 205.497689 352.90005 
L 211.356078 353.2239 
L 240.648024 353.123801 
L 246.506414 352.823504 
L 252.364803 353.2239 
L 258.223192 353.100249 
L 264.081581 353.2239 
L 949.513125 353.2239 
L 949.513125 353.2239 
" style="fill:none;stroke:#91e8e1;stroke-linecap:square;"/>
   </g>
   <g id="line2d_47">
    <path clip-path="url(#p4df4a8d894)" d="M 76.613125 353.2239 
L 176.205742 353.173956 
L 182.064132 352.924234 
L 187.922521 353.2239 
L 199.639299 353.190604 
L 205.497689 352.857641 
L 211.356078 353.2239 
L 240.648024 353.140659 
L 246.506414 352.824345 
L 252.364803 353.2239 
L 258.223192 353.157307 
L 269.939971 353.2239 
L 949.513125 353.2239 
L 949.513125 353.2239 
" style="fill:none;stroke:#7cb5ec;stroke-linecap:square;"/>
   </g>
   <g id="line2d_48">
    <path clip-path="url(#p4df4a8d894)" d="M 76.613125 353.2239 
L 176.205742 353.2239 
L 182.064132 353.035611 
L 187.922521 353.2239 
L 199.639299 353.2239 
L 205.497689 353.082683 
L 211.356078 353.2239 
L 240.648024 353.129755 
L 246.506414 352.941467 
L 252.364803 353.2239 
L 264.081581 353.2239 
L 949.513125 353.2239 
L 949.513125 353.2239 
" style="fill:none;stroke:#434348;stroke-linecap:square;"/>
   </g>
   <g id="line2d_49">
    <path clip-path="url(#p4df4a8d894)" d="M 76.613125 353.2239 
L 176.205742 353.193811 
L 182.064132 352.862828 
L 187.922521 353.2239 
L 199.639299 353.2239 
L 205.497689 352.983185 
L 211.356078 353.2239 
L 240.648024 353.193811 
L 246.506414 352.622112 
L 252.364803 353.2239 
L 258.223192 353.133632 
L 269.939971 353.2239 
L 949.513125 353.2239 
L 949.513125 353.2239 
" style="fill:none;stroke:#90ed7d;stroke-linecap:square;"/>
   </g>
   <g id="line2d_50">
    <path clip-path="url(#p4df4a8d894)" d="M 76.613125 353.2239 
L 176.205742 353.2239 
L 182.064132 352.311879 
L 187.922521 353.2239 
L 199.639299 353.2239 
L 205.497689 352.85909 
L 211.356078 353.2239 
L 240.648024 353.132698 
L 246.506414 352.85909 
L 252.364803 353.2239 
L 949.513125 353.2239 
L 949.513125 353.2239 
" style="fill:none;stroke:#f7a35c;stroke-linecap:square;"/>
   </g>
   <g id="line2d_51">
    <path clip-path="url(#p4df4a8d894)" d="M 76.613125 353.2239 
L 176.205742 353.200989 
L 182.064132 352.971875 
L 187.922521 353.2239 
L 199.639299 353.2239 
L 205.497689 352.994786 
L 211.356078 353.2239 
L 240.648024 353.155165 
L 246.506414 352.811495 
L 252.364803 353.2239 
L 949.513125 353.2239 
L 949.513125 353.2239 
" style="fill:none;stroke:#8085e9;stroke-linecap:square;"/>
   </g>
   <g id="line2d_52">
    <path clip-path="url(#p4df4a8d894)" d="M 76.613125 353.2239 
L 176.205742 353.189822 
L 182.064132 352.81496 
L 187.922521 353.2239 
L 199.639299 353.2239 
L 205.497689 353.002391 
L 211.356078 353.2239 
L 240.648024 353.155744 
L 246.506414 352.900156 
L 252.364803 353.2239 
L 258.223192 353.138704 
L 275.79836 353.206847 
L 316.807085 353.2239 
L 949.513125 353.2239 
L 949.513125 353.2239 
" style="fill:none;stroke:#f15c80;stroke-linecap:square;"/>
   </g>
   <g id="line2d_53">
    <path clip-path="url(#p4df4a8d894)" d="M 76.613125 353.2239 
L 176.205742 353.210215 
L 182.064132 352.870818 
L 187.922521 353.2239 
L 199.639299 353.210215 
L 205.497689 352.914611 
L 211.356078 353.2239 
L 240.648024 353.17737 
L 246.506414 352.824287 
L 252.364803 353.218426 
L 258.223192 353.076098 
L 264.081581 353.2239 
L 949.513125 353.2239 
L 949.513125 353.2239 
" style="fill:none;stroke:#e4d354;stroke-linecap:square;"/>
   </g>
   <g id="line2d_54">
    <path clip-path="url(#p4df4a8d894)" d="M 76.613125 353.2239 
L 176.205742 353.2239 
L 182.064132 352.932404 
L 187.922521 353.2239 
L 199.639299 353.2239 
L 205.497689 353.015689 
L 211.356078 353.2239 
L 240.648024 353.2239 
L 246.506414 352.807477 
L 252.364803 353.182258 
L 258.223192 353.140615 
L 269.939971 353.2239 
L 949.513125 353.2239 
L 949.513125 353.2239 
" style="fill:none;stroke:#2b908f;stroke-linecap:square;"/>
   </g>
   <g id="line2d_55">
    <path clip-path="url(#p4df4a8d894)" d="M 76.613125 353.2239 
L 176.205742 353.209269 
L 182.064132 352.938594 
L 187.922521 353.2239 
L 199.639299 353.2239 
L 205.497689 353.019065 
L 211.356078 353.2239 
L 240.648024 353.194638 
L 246.506414 352.945909 
L 252.364803 353.2239 
L 258.223192 353.106852 
L 269.939971 353.2239 
L 357.81581 353.2239 
L 949.513125 353.2239 
L 949.513125 353.2239 
" style="fill:none;stroke:#f45b5b;stroke-linecap:square;"/>
   </g>
   <g id="line2d_56">
    <path clip-path="url(#p4df4a8d894)" d="M 76.613125 353.2239 
L 176.205742 353.20603 
L 182.064132 352.77615 
L 187.922521 353.222907 
L 199.639299 353.209008 
L 205.497689 352.835718 
L 211.356078 353.2239 
L 240.648024 353.157383 
L 246.506414 352.753316 
L 252.364803 353.220922 
L 258.223192 353.100794 
L 264.081581 353.2239 
L 949.513125 353.2239 
L 949.513125 353.2239 
" style="fill:none;stroke:#91e8e1;stroke-linecap:square;"/>
   </g>
   <g id="line2d_57">
    <path clip-path="url(#p4df4a8d894)" d="M 76.613125 353.2239 
L 176.205742 353.210266 
L 182.064132 352.910329 
L 187.922521 353.2239 
L 199.639299 353.210266 
L 205.497689 353.046664 
L 211.356078 353.2239 
L 240.648024 353.155732 
L 246.506414 352.910329 
L 252.364803 353.2239 
L 258.223192 353.114832 
L 269.939971 353.2239 
L 316.807085 353.2239 
L 949.513125 353.2239 
L 949.513125 353.2239 
" style="fill:none;stroke:#7cb5ec;stroke-linecap:square;"/>
   </g>
   <g id="line2d_58">
    <path clip-path="url(#p4df4a8d894)" d="M 76.613125 353.2239 
L 176.205742 353.202926 
L 182.064132 352.804411 
L 187.922521 353.2239 
L 199.639299 353.202926 
L 205.497689 352.888309 
L 211.356078 353.2239 
L 240.648024 353.176708 
L 246.506414 352.825386 
L 252.364803 353.218656 
L 258.223192 353.077079 
L 264.081581 353.2239 
L 949.513125 353.2239 
L 949.513125 353.2239 
" style="fill:none;stroke:#434348;stroke-linecap:square;"/>
   </g>
   <g id="line2d_59">
    <path clip-path="url(#p4df4a8d894)" d="M 76.613125 353.2239 
L 176.205742 353.200307 
L 182.064132 352.822823 
L 187.922521 353.2239 
L 199.639299 353.200307 
L 205.497689 352.870009 
L 211.356078 353.2239 
L 240.648024 353.176714 
L 246.506414 352.822823 
L 252.364803 353.2239 
L 275.79836 353.2239 
L 949.513125 353.2239 
L 949.513125 353.2239 
" style="fill:none;stroke:#90ed7d;stroke-linecap:square;"/>
   </g>
   <g id="line2d_60">
    <path clip-path="url(#p4df4a8d894)" d="M 76.613125 353.2239 
L 176.205742 353.196306 
L 182.064132 352.934159 
L 187.922521 353.2239 
L 199.639299 353.196306 
L 205.497689 352.809985 
L 211.356078 353.2239 
L 240.648024 353.182508 
L 246.506414 352.920362 
L 252.364803 353.2239 
L 258.223192 353.085928 
L 264.081581 353.2239 
L 949.513125 353.2239 
L 949.513125 353.2239 
" style="fill:none;stroke:#f7a35c;stroke-linecap:square;"/>
   </g>
   <g id="line2d_61">
    <path clip-path="url(#p4df4a8d894)" d="M 76.613125 353.2239 
L 949.513125 353.2239 
L 949.513125 353.2239 
" style="fill:none;stroke:#8085e9;stroke-linecap:square;"/>
   </g>
   <g id="line2d_62">
    <path clip-path="url(#p4df4a8d894)" d="M 76.613125 353.2239 
L 176.205742 353.2239 
L 182.064132 352.86394 
L 187.922521 353.2239 
L 199.639299 353.2239 
L 205.497689 352.894794 
L 211.356078 353.2239 
L 240.648024 353.151908 
L 246.506414 352.853656 
L 252.364803 353.2239 
L 258.223192 353.100485 
L 264.081581 353.2239 
L 949.513125 353.2239 
L 949.513125 353.2239 
" style="fill:none;stroke:#f15c80;stroke-linecap:square;"/>
   </g>
   <g id="line2d_63">
    <path clip-path="url(#p4df4a8d894)" d="M 76.613125 353.2239 
L 176.205742 353.2239 
L 182.064132 352.794426 
L 187.922521 353.2239 
L 199.639299 353.2239 
L 205.497689 352.749218 
L 211.356078 353.2239 
L 240.648024 353.133485 
L 246.506414 352.636198 
L 252.364803 353.2239 
L 258.223192 353.156088 
L 269.939971 353.2239 
L 949.513125 353.2239 
L 949.513125 353.2239 
" style="fill:none;stroke:#e4d354;stroke-linecap:square;"/>
   </g>
   <g id="line2d_64">
    <path clip-path="url(#p4df4a8d894)" d="M 76.613125 353.2239 
L 176.205742 353.206958 
L 182.064132 352.862141 
L 187.922521 353.2239 
L 199.639299 353.210944 
L 205.497689 352.912967 
L 211.356078 353.2239 
L 240.648024 353.174071 
L 246.506414 352.886059 
L 252.364803 353.22091 
L 258.223192 353.099327 
L 264.081581 353.22091 
L 480.841984 353.2239 
L 650.735273 353.2239 
L 949.513125 353.2239 
L 949.513125 353.2239 
" style="fill:none;stroke:#2b908f;stroke-linecap:square;"/>
   </g>
   <g id="line2d_65">
    <path clip-path="url(#p4df4a8d894)" d="M 76.613125 353.2239 
L 135.197018 353.212635 
L 176.205742 353.2239 
L 182.064132 352.840902 
L 187.922521 353.2239 
L 199.639299 353.2239 
L 205.497689 352.88596 
L 211.356078 353.2239 
L 240.648024 353.190106 
L 246.506414 352.829637 
L 252.364803 353.212635 
L 258.223192 353.122518 
L 269.939971 353.2239 
L 949.513125 353.2239 
L 949.513125 353.2239 
" style="fill:none;stroke:#f45b5b;stroke-linecap:square;"/>
   </g>
   <g id="line2d_66">
    <path clip-path="url(#p4df4a8d894)" d="M 76.613125 353.2239 
L 176.205742 353.199534 
L 182.064132 352.841661 
L 187.922521 353.2239 
L 199.639299 353.208671 
L 205.497689 352.925418 
L 211.356078 353.2239 
L 240.648024 353.156894 
L 246.506414 352.898007 
L 252.364803 353.2239 
L 258.223192 353.094456 
L 264.081581 353.217809 
L 375.390977 353.2239 
L 949.513125 353.2239 
L 949.513125 353.2239 
" style="fill:none;stroke:#91e8e1;stroke-linecap:square;"/>
   </g>
   <g id="line2d_67">
    <path clip-path="url(#p4df4a8d894)" d="M 76.613125 353.2239 
L 146.913796 353.2239 
L 176.205742 353.215259 
L 182.064132 352.912807 
L 187.922521 353.2239 
L 199.639299 353.206617 
L 205.497689 352.938732 
L 211.356078 353.2239 
L 234.789635 353.215259 
L 240.648024 353.10292 
L 246.506414 352.800468 
L 252.364803 353.2239 
L 258.223192 353.128844 
L 269.939971 353.2239 
L 949.513125 353.2239 
L 949.513125 353.2239 
" style="fill:none;stroke:#7cb5ec;stroke-linecap:square;"/>
   </g>
   <g id="line2d_68">
    <path clip-path="url(#p4df4a8d894)" d="M 76.613125 353.2239 
L 176.205742 353.2239 
L 182.064132 352.913589 
L 187.922521 353.2239 
L 199.639299 353.2239 
L 205.497689 352.680856 
L 211.356078 353.2239 
L 240.648024 353.2239 
L 246.506414 352.680856 
L 252.364803 353.2239 
L 949.513125 353.2239 
L 949.513125 353.2239 
" style="fill:none;stroke:#434348;stroke-linecap:square;"/>
   </g>
   <g id="line2d_69">
    <path clip-path="url(#p4df4a8d894)" d="M 76.613125 353.2239 
L 176.205742 353.206521 
L 182.064132 352.841552 
L 187.922521 353.2239 
L 199.639299 353.2239 
L 205.497689 352.911069 
L 211.356078 353.2239 
L 240.648024 353.171762 
L 246.506414 352.850241 
L 252.364803 353.21521 
L 258.223192 353.102244 
L 269.939971 353.2239 
L 340.240642 353.2239 
L 949.513125 353.2239 
L 949.513125 353.2239 
" style="fill:none;stroke:#90ed7d;stroke-linecap:square;"/>
   </g>
   <g id="line2d_70">
    <path clip-path="url(#p4df4a8d894)" d="M 76.613125 353.2239 
L 176.205742 353.203457 
L 182.064132 352.771239 
L 187.922521 353.2239 
L 199.639299 353.209298 
L 205.497689 352.835487 
L 211.356078 353.2239 
L 240.648024 353.154784 
L 246.506414 352.772212 
L 252.364803 353.217086 
L 258.223192 353.084694 
L 264.081581 353.222927 
L 937.796346 353.2239 
L 949.513125 353.2239 
L 949.513125 353.2239 
" style="fill:none;stroke:#f7a35c;stroke-linecap:square;"/>
   </g>
   <g id="line2d_71">
    <path clip-path="url(#p4df4a8d894)" d="M 76.613125 353.2239 
L 176.205742 353.214469 
L 182.064132 352.777493 
L 187.922521 353.2239 
L 199.639299 353.218241 
L 205.497689 352.867403 
L 211.356078 353.2239 
L 240.648024 353.155996 
L 246.506414 352.810187 
L 252.364803 353.221385 
L 258.223192 353.081176 
L 264.081581 353.222014 
L 609.726548 353.2239 
L 949.513125 353.2239 
L 949.513125 353.2239 
" style="fill:none;stroke:#8085e9;stroke-linecap:square;"/>
   </g>
   <g id="line2d_72">
    <path clip-path="url(#p4df4a8d894)" d="M 76.613125 353.2239 
L 176.205742 353.217679 
L 182.064132 352.819515 
L 187.922521 353.2239 
L 199.639299 353.217679 
L 205.497689 352.900392 
L 211.356078 353.2239 
L 240.648024 353.146133 
L 246.506414 352.785297 
L 252.364803 353.2239 
L 258.223192 353.08392 
L 264.081581 353.214568 
L 322.665474 353.217618 
L 334.382253 353.2239 
L 949.513125 353.2239 
L 949.513125 353.2239 
" style="fill:none;stroke:#f15c80;stroke-linecap:square;"/>
   </g>
   <g id="line2d_73">
    <path clip-path="url(#p4df4a8d894)" d="M 76.613125 353.2239 
L 176.205742 353.205991 
L 182.064132 352.822229 
L 187.922521 353.2239 
L 199.639299 353.211108 
L 205.497689 352.890027 
L 211.356078 353.2239 
L 240.648024 353.157381 
L 246.506414 352.823509 
L 252.364803 353.216225 
L 258.223192 353.080629 
L 264.081581 353.220062 
L 433.97487 353.2239 
L 949.513125 353.2239 
L 949.513125 353.2239 
" style="fill:none;stroke:#e4d354;stroke-linecap:square;"/>
   </g>
   <g id="line2d_74">
    <path clip-path="url(#p4df4a8d894)" d="M 76.613125 353.2239 
L 176.205742 353.208273 
L 182.064132 352.856661 
L 187.922521 353.2239 
L 199.639299 353.210505 
L 205.497689 352.923635 
L 211.356078 353.2239 
L 240.648024 353.154136 
L 246.506414 352.838801 
L 252.364803 353.215528 
L 258.223192 353.071535 
L 264.081581 353.222226 
L 855.778897 353.2239 
L 949.513125 353.2239 
L 949.513125 353.2239 
" style="fill:none;stroke:#2b908f;stroke-linecap:square;"/>
   </g>
   <g id="line2d_75">
    <path clip-path="url(#p4df4a8d894)" d="M 76.613125 353.2239 
L 176.205742 353.210893 
L 182.064132 352.879225 
L 187.922521 353.2239 
L 199.639299 353.217397 
L 205.497689 352.950761 
L 211.356078 353.2239 
L 240.648024 353.152364 
L 246.506414 352.918245 
L 252.364803 353.217397 
L 258.223192 353.119847 
L 269.939971 353.2239 
L 949.513125 353.2239 
L 949.513125 353.2239 
" style="fill:none;stroke:#f45b5b;stroke-linecap:square;"/>
   </g>
   <g id="line2d_76">
    <path clip-path="url(#p4df4a8d894)" d="M 76.613125 353.2239 
L 176.205742 353.201704 
L 182.064132 352.852904 
L 187.922521 353.2239 
L 199.639299 353.211216 
L 205.497689 352.90998 
L 211.356078 353.2239 
L 240.648024 353.166824 
L 246.506414 352.894126 
L 252.364803 353.217558 
L 258.223192 353.138285 
L 269.939971 353.2239 
L 369.532588 353.220671 
L 498.417152 353.212656 
L 510.13393 353.2239 
L 949.513125 353.2239 
L 949.513125 353.2239 
" style="fill:none;stroke:#91e8e1;stroke-linecap:square;"/>
   </g>
   <g id="line2d_77">
    <path clip-path="url(#p4df4a8d894)" d="M 76.613125 353.2239 
L 88.329904 353.2239 
L 94.188293 353.050649 
L 100.046682 353.2239 
L 176.205742 353.2239 
L 182.064132 352.877398 
L 187.922521 353.2239 
L 199.639299 353.2239 
L 205.497689 352.877398 
L 211.356078 353.2239 
L 234.789635 353.2239 
L 240.648024 352.877398 
L 246.506414 353.2239 
L 322.665474 353.2239 
L 328.523863 353.047109 
L 334.382253 353.2239 
L 498.417152 353.2239 
L 504.275541 352.987264 
L 510.13393 353.2239 
L 949.513125 353.2239 
L 949.513125 353.2239 
" style="fill:none;stroke:#7cb5ec;stroke-linecap:square;"/>
   </g>
   <g id="line2d_78">
    <path clip-path="url(#p4df4a8d894)" d="M 76.613125 353.2239 
L 176.205742 353.2239 
L 182.064132 352.936246 
L 187.922521 353.2239 
L 199.639299 353.2239 
L 205.497689 352.936246 
L 211.356078 353.2239 
L 234.789635 353.2239 
L 246.506414 352.936246 
L 252.364803 353.2239 
L 258.223192 353.128015 
L 269.939971 353.2239 
L 498.417152 353.2239 
L 504.275541 353.096486 
L 510.13393 353.2239 
L 779.619836 353.2239 
L 785.478226 352.907514 
L 791.336615 353.2239 
L 949.513125 353.2239 
L 949.513125 353.2239 
" style="fill:none;stroke:#434348;stroke-linecap:square;"/>
   </g>
   <g id="line2d_79">
    <path clip-path="url(#p4df4a8d894)" d="M 76.613125 353.2239 
L 176.205742 353.2239 
L 182.064132 351.809922 
L 187.922521 353.2239 
L 199.639299 353.2239 
L 205.497689 351.809922 
L 211.356078 353.2239 
L 949.513125 353.2239 
L 949.513125 353.2239 
" style="fill:none;stroke:#90ed7d;stroke-linecap:square;"/>
   </g>
   <g id="line2d_80">
    <path clip-path="url(#p4df4a8d894)" d="M 76.613125 353.2239 
L 176.205742 353.2239 
L 182.064132 352.699741 
L 187.922521 353.2239 
L 199.639299 353.2239 
L 205.497689 352.699741 
L 211.356078 353.2239 
L 240.648024 353.2239 
L 246.506414 352.437661 
L 252.364803 353.2239 
L 322.665474 353.2239 
L 328.523863 352.956149 
L 334.382253 353.2239 
L 949.513125 353.2239 
L 949.513125 353.2239 
" style="fill:none;stroke:#f7a35c;stroke-linecap:square;"/>
   </g>
   <g id="line2d_81">
    <path clip-path="url(#p4df4a8d894)" d="M 76.613125 353.2239 
L 199.639299 353.2239 
L 205.497689 351.749094 
L 211.356078 353.2239 
L 240.648024 353.2239 
L 246.506414 350.274289 
L 252.364803 353.2239 
L 949.513125 353.2239 
L 949.513125 353.2239 
" style="fill:none;stroke:#8085e9;stroke-linecap:square;"/>
   </g>
   <g id="line2d_82">
    <path clip-path="url(#p4df4a8d894)" d="M 76.613125 353.2239 
L 88.329904 353.2239 
L 94.188293 353.109246 
L 100.046682 353.2239 
L 176.205742 353.2239 
L 182.064132 352.87994 
L 187.922521 353.2239 
L 199.639299 353.2239 
L 205.497689 352.87994 
L 211.356078 353.2239 
L 240.648024 353.2239 
L 246.506414 352.765286 
L 252.364803 353.2239 
L 258.223192 353.109246 
L 264.081581 353.2239 
L 949.513125 353.2239 
L 949.513125 353.2239 
" style="fill:none;stroke:#f15c80;stroke-linecap:square;"/>
   </g>
   <g id="line2d_83">
    <path clip-path="url(#p4df4a8d894)" d="M 76.613125 353.2239 
L 176.205742 353.2239 
L 182.064132 353.090906 
L 187.922521 353.2239 
L 199.639299 353.2239 
L 205.497689 353.090906 
L 211.356078 353.2239 
L 240.648024 353.2239 
L 246.506414 352.957913 
L 258.223192 353.2239 
L 949.513125 353.2239 
L 949.513125 353.2239 
" style="fill:none;stroke:#e4d354;stroke-linecap:square;"/>
   </g>
   <g id="line2d_84">
    <path clip-path="url(#p4df4a8d894)" d="M 76.613125 353.2239 
L 199.639299 353.2239 
L 205.497689 353.045005 
L 211.356078 353.2239 
L 240.648024 353.2239 
L 246.506414 352.508319 
L 252.364803 353.2239 
L 949.513125 353.2239 
L 949.513125 353.2239 
" style="fill:none;stroke:#2b908f;stroke-linecap:square;"/>
   </g>
   <g id="line2d_85">
    <path clip-path="url(#p4df4a8d894)" d="M 76.613125 353.2239 
L 170.347353 353.2239 
L 182.064132 352.849831 
L 187.922521 353.2239 
L 193.78091 353.2239 
L 199.639299 353.036865 
L 205.497689 353.036865 
L 211.356078 353.2239 
L 228.931246 353.2239 
L 234.789635 353.036865 
L 240.648024 353.036865 
L 246.506414 352.849831 
L 252.364803 353.2239 
L 258.223192 353.036865 
L 264.081581 353.2239 
L 949.513125 353.2239 
L 949.513125 353.2239 
" style="fill:none;stroke:#f45b5b;stroke-linecap:square;"/>
   </g>
   <g id="line2d_86">
    <path clip-path="url(#p4df4a8d894)" d="M 76.613125 353.2239 
L 199.639299 353.2239 
L 205.497689 352.403339 
L 211.356078 353.2239 
L 480.841984 353.2239 
L 486.700373 352.180011 
L 492.558763 353.2239 
L 498.417152 353.2239 
L 504.275541 352.137384 
L 510.13393 353.2239 
L 691.743997 353.2239 
L 697.602387 351.217795 
L 703.460776 353.2239 
L 949.513125 353.2239 
L 949.513125 353.2239 
" style="fill:none;stroke:#91e8e1;stroke-linecap:square;"/>
   </g>
   <g id="line2d_87">
    <path clip-path="url(#p4df4a8d894)" d="M 76.613125 353.2239 
L 949.513125 353.2239 
L 949.513125 353.2239 
" style="fill:none;stroke:#7cb5ec;stroke-linecap:square;"/>
   </g>
   <g id="line2d_88">
    <path clip-path="url(#p4df4a8d894)" d="M 76.613125 353.2239 
L 176.205742 353.2239 
L 182.064132 352.98061 
L 187.922521 353.2239 
L 199.639299 353.2239 
L 205.497689 352.98061 
L 211.356078 353.2239 
L 240.648024 353.2239 
L 246.506414 352.73732 
L 252.364803 353.2239 
L 668.31044 353.2239 
L 674.16883 352.719189 
L 680.027219 353.2239 
L 949.513125 353.2239 
L 949.513125 353.2239 
" style="fill:none;stroke:#434348;stroke-linecap:square;"/>
   </g>
   <g id="line2d_89">
    <path clip-path="url(#p4df4a8d894)" d="M 76.613125 353.2239 
L 88.329904 353.2239 
L 94.188293 353.064606 
L 100.046682 353.2239 
L 170.347353 353.2239 
L 176.205742 353.064606 
L 182.064132 352.108837 
L 187.922521 353.2239 
L 193.78091 353.2239 
L 199.639299 353.064606 
L 205.497689 352.586724 
L 211.356078 353.2239 
L 234.789635 353.2239 
L 240.648024 352.905311 
L 246.506414 352.427428 
L 252.364803 353.2239 
L 258.223192 352.905311 
L 264.081581 353.2239 
L 316.807085 353.2239 
L 322.665474 353.061102 
L 328.523863 353.060576 
L 334.382253 353.2239 
L 480.841984 353.2239 
L 486.700373 353.025579 
L 492.558763 353.2239 
L 949.513125 353.2239 
L 949.513125 353.2239 
" style="fill:none;stroke:#90ed7d;stroke-linecap:square;"/>
   </g>
   <g id="line2d_90">
    <path clip-path="url(#p4df4a8d894)" d="M 76.613125 353.2239 
L 949.513125 353.2239 
L 949.513125 353.2239 
" style="fill:none;stroke:#f7a35c;stroke-linecap:square;"/>
   </g>
   <g id="line2d_91">
    <path clip-path="url(#p4df4a8d894)" d="M 76.613125 353.2239 
L 82.471514 353.2239 
L 94.188293 352.752155 
L 100.046682 353.2239 
L 176.205742 353.2239 
L 182.064132 352.752155 
L 187.922521 353.2239 
L 199.639299 353.2239 
L 205.497689 352.988028 
L 211.356078 353.2239 
L 234.789635 353.2239 
L 240.648024 352.752155 
L 246.506414 352.516281 
L 252.364803 353.2239 
L 316.807085 353.2239 
L 328.523863 352.736611 
L 334.382253 353.2239 
L 498.417152 353.2239 
L 504.275541 352.90922 
L 510.13393 353.2239 
L 949.513125 353.2239 
L 949.513125 353.2239 
" style="fill:none;stroke:#8085e9;stroke-linecap:square;"/>
   </g>
   <g id="line2d_92">
    <path clip-path="url(#p4df4a8d894)" d="M 76.613125 353.2239 
L 949.513125 353.2239 
L 949.513125 353.2239 
" style="fill:none;stroke:#f15c80;stroke-linecap:square;"/>
   </g>
   <g id="line2d_93">
    <path clip-path="url(#p4df4a8d894)" d="M 76.613125 353.2239 
L 82.471514 353.2239 
L 88.329904 353.034153 
L 94.188293 353.2239 
L 129.338628 353.2239 
L 135.197018 353.034153 
L 141.055407 353.2239 
L 176.205742 353.2239 
L 182.064132 352.46491 
L 187.922521 353.2239 
L 199.639299 353.2239 
L 205.497689 352.46491 
L 211.356078 353.2239 
L 228.931246 353.2239 
L 234.789635 353.034153 
L 240.648024 353.2239 
L 246.506414 352.275166 
L 252.364803 353.2239 
L 346.099031 353.2239 
L 351.95742 353.026888 
L 357.81581 353.2239 
L 398.824534 353.2239 
L 404.682924 353.016889 
L 410.541313 353.2239 
L 498.417152 353.2239 
L 504.275541 352.97768 
L 510.13393 353.2239 
L 949.513125 353.2239 
L 949.513125 353.2239 
" style="fill:none;stroke:#e4d354;stroke-linecap:square;"/>
   </g>
   <g id="line2d_94">
    <path clip-path="url(#p4df4a8d894)" d="M 76.613125 353.2239 
L 176.205742 353.2239 
L 182.064132 352.082185 
L 187.922521 353.2239 
L 240.648024 353.2239 
L 246.506414 352.082185 
L 252.364803 353.2239 
L 949.513125 353.2239 
L 949.513125 353.2239 
" style="fill:none;stroke:#2b908f;stroke-linecap:square;"/>
   </g>
   <g id="line2d_95">
    <path clip-path="url(#p4df4a8d894)" d="M 76.613125 353.2239 
L 82.471514 353.2239 
L 88.329904 352.350843 
L 94.188293 352.350843 
L 100.046682 353.2239 
L 164.488964 353.2239 
L 170.347353 352.787371 
L 176.205742 353.2239 
L 182.064132 352.787371 
L 187.922521 353.2239 
L 199.639299 353.2239 
L 205.497689 352.787371 
L 211.356078 353.2239 
L 228.931246 353.2239 
L 234.789635 351.914311 
L 252.364803 353.2239 
L 316.807085 353.2239 
L 322.665474 352.32613 
L 328.523863 353.2239 
L 492.558763 353.2239 
L 498.417152 352.665572 
L 504.275541 353.2239 
L 949.513125 353.2239 
L 949.513125 353.2239 
" style="fill:none;stroke:#f45b5b;stroke-linecap:square;"/>
   </g>
   <g id="line2d_96">
    <path clip-path="url(#p4df4a8d894)" d="M 76.613125 353.2239 
L 88.329904 353.2239 
L 94.188293 352.710696 
L 100.046682 353.2239 
L 176.205742 353.2239 
L 182.064132 352.967299 
L 187.922521 353.2239 
L 234.789635 353.2239 
L 240.648024 352.967299 
L 246.506414 352.967299 
L 252.364803 353.2239 
L 322.665474 353.2239 
L 328.523863 352.958196 
L 334.382253 353.2239 
L 949.513125 353.2239 
L 949.513125 353.2239 
" style="fill:none;stroke:#91e8e1;stroke-linecap:square;"/>
   </g>
   <g id="line2d_97">
    <path clip-path="url(#p4df4a8d894)" d="M 76.613125 353.2239 
L 240.648024 353.2239 
L 246.506414 351.836001 
L 252.364803 353.2239 
L 949.513125 353.2239 
L 949.513125 353.2239 
" style="fill:none;stroke:#7cb5ec;stroke-linecap:square;"/>
   </g>
   <g id="line2d_98">
    <path clip-path="url(#p4df4a8d894)" d="M 76.613125 353.2239 
L 176.205742 353.2239 
L 182.064132 352.777206 
L 187.922521 353.2239 
L 199.639299 353.2239 
L 205.497689 352.777206 
L 211.356078 353.2239 
L 240.648024 353.2239 
L 246.506414 352.777206 
L 252.364803 353.2239 
L 949.513125 353.2239 
L 949.513125 353.2239 
" style="fill:none;stroke:#434348;stroke-linecap:square;"/>
   </g>
   <g id="line2d_99">
    <path clip-path="url(#p4df4a8d894)" d="M 76.613125 353.2239 
L 176.205742 353.2239 
L 182.064132 352.278867 
L 187.922521 353.2239 
L 199.639299 353.2239 
L 205.497689 352.278867 
L 211.356078 353.2239 
L 240.648024 353.2239 
L 246.506414 352.042611 
L 252.364803 353.2239 
L 668.31044 353.2239 
L 674.16883 352.731194 
L 680.027219 353.2239 
L 949.513125 353.2239 
L 949.513125 353.2239 
" style="fill:none;stroke:#90ed7d;stroke-linecap:square;"/>
   </g>
   <g id="line2d_100">
    <path clip-path="url(#p4df4a8d894)" d="M 76.613125 353.2239 
L 176.205742 353.2239 
L 182.064132 352.323904 
L 187.922521 353.2239 
L 199.639299 353.2239 
L 205.497689 352.773903 
L 211.356078 353.2239 
L 240.648024 353.2239 
L 246.506414 352.773903 
L 252.364803 353.2239 
L 381.249367 353.2239 
L 387.107756 352.745213 
L 392.966145 353.2239 
L 949.513125 353.2239 
L 949.513125 353.2239 
" style="fill:none;stroke:#f7a35c;stroke-linecap:square;"/>
   </g>
   <g id="line2d_101">
    <path clip-path="url(#p4df4a8d894)" d="M 76.613125 353.2239 
L 176.205742 353.2239 
L 182.064132 352.653196 
L 187.922521 353.2239 
L 949.513125 353.2239 
L 949.513125 353.2239 
" style="fill:none;stroke:#8085e9;stroke-linecap:square;"/>
   </g>
   <g id="line2d_102">
    <path clip-path="url(#p4df4a8d894)" d="M 76.613125 353.2239 
L 176.205742 353.2239 
L 182.064132 352.244228 
L 187.922521 353.2239 
L 199.639299 353.2239 
L 205.497689 352.897344 
L 211.356078 353.2239 
L 234.789635 353.2239 
L 240.648024 352.897344 
L 246.506414 352.244228 
L 252.364803 353.2239 
L 258.223192 352.897344 
L 264.081581 353.2239 
L 322.665474 353.2239 
L 328.523863 352.889654 
L 334.382253 353.2239 
L 949.513125 353.2239 
L 949.513125 353.2239 
" style="fill:none;stroke:#f15c80;stroke-linecap:square;"/>
   </g>
   <g id="line2d_103">
    <path clip-path="url(#p4df4a8d894)" d="M 76.613125 353.2239 
L 88.329904 353.2239 
L 94.188293 352.890792 
L 100.046682 353.2239 
L 234.789635 353.2239 
L 240.648024 352.890792 
L 246.506414 353.2239 
L 322.665474 353.2239 
L 328.523863 352.881022 
L 334.382253 353.2239 
L 480.841984 353.2239 
L 486.700373 352.811677 
L 492.558763 353.2239 
L 498.417152 353.2239 
L 504.275541 352.796351 
L 510.13393 353.2239 
L 668.31044 353.2239 
L 674.16883 352.583029 
L 680.027219 353.2239 
L 949.513125 353.2239 
L 949.513125 353.2239 
" style="fill:none;stroke:#e4d354;stroke-linecap:square;"/>
   </g>
   <g id="line2d_104">
    <path clip-path="url(#p4df4a8d894)" d="M 76.613125 353.2239 
L 88.329904 353.2239 
L 94.188293 351.710487 
L 100.046682 353.2239 
L 234.789635 353.2239 
L 240.648024 351.710487 
L 246.506414 353.2239 
L 252.364803 351.710487 
L 258.223192 353.2239 
L 322.665474 353.2239 
L 328.523863 351.669424 
L 334.382253 353.2239 
L 498.417152 353.2239 
L 504.275541 351.273777 
L 510.13393 353.2239 
L 949.513125 353.2239 
L 949.513125 353.2239 
" style="fill:none;stroke:#2b908f;stroke-linecap:square;"/>
   </g>
   <g id="line2d_105">
    <path clip-path="url(#p4df4a8d894)" d="M 76.613125 353.2239 
L 949.513125 353.2239 
L 949.513125 353.2239 
" style="fill:none;stroke:#f45b5b;stroke-linecap:square;"/>
   </g>
   <g id="line2d_106">
    <path clip-path="url(#p4df4a8d894)" d="M 76.613125 353.2239 
L 949.513125 353.2239 
L 949.513125 353.2239 
" style="fill:none;stroke:#91e8e1;stroke-linecap:square;"/>
   </g>
   <g id="line2d_107">
    <path clip-path="url(#p4df4a8d894)" d="M 76.613125 353.2239 
L 176.205742 353.2239 
L 182.064132 352.895895 
L 187.922521 353.2239 
L 199.639299 353.2239 
L 205.497689 352.895895 
L 211.356078 353.2239 
L 240.648024 353.2239 
L 246.506414 352.567888 
L 252.364803 353.2239 
L 322.665474 353.2239 
L 328.523863 352.888437 
L 334.382253 353.2239 
L 949.513125 353.2239 
L 949.513125 353.2239 
" style="fill:none;stroke:#7cb5ec;stroke-linecap:square;"/>
   </g>
   <g id="line2d_108">
    <path clip-path="url(#p4df4a8d894)" d="M 76.613125 353.2239 
L 88.329904 353.2239 
L 94.188293 353.08998 
L 100.046682 353.2239 
L 176.205742 353.2239 
L 182.064132 352.688217 
L 187.922521 353.2239 
L 199.639299 353.2239 
L 205.497689 352.688217 
L 211.356078 353.2239 
L 240.648024 353.2239 
L 246.506414 352.822138 
L 252.364803 353.2239 
L 258.223192 353.08998 
L 264.081581 353.2239 
L 949.513125 353.2239 
L 949.513125 353.2239 
" style="fill:none;stroke:#434348;stroke-linecap:square;"/>
   </g>
   <g id="line2d_109">
    <path clip-path="url(#p4df4a8d894)" d="M 76.613125 353.2239 
L 176.205742 353.2239 
L 182.064132 352.763533 
L 187.922521 353.2239 
L 199.639299 353.2239 
L 205.497689 352.763533 
L 211.356078 353.2239 
L 240.648024 353.2239 
L 246.506414 352.456624 
L 252.364803 353.2239 
L 949.513125 353.2239 
L 949.513125 353.2239 
" style="fill:none;stroke:#90ed7d;stroke-linecap:square;"/>
   </g>
   <g id="line2d_110">
    <path clip-path="url(#p4df4a8d894)" d="M 76.613125 353.2239 
L 82.471514 353.2239 
L 88.329904 352.809393 
L 94.188293 352.809393 
L 100.046682 353.2239 
L 164.488964 353.2239 
L 170.347353 352.809393 
L 176.205742 353.2239 
L 182.064132 352.394887 
L 187.922521 353.2239 
L 199.639299 353.2239 
L 205.497689 352.394887 
L 211.356078 353.2239 
L 240.648024 353.2239 
L 246.506414 352.394887 
L 252.364803 353.2239 
L 316.807085 353.2239 
L 322.665474 352.801127 
L 328.523863 353.2239 
L 949.513125 353.2239 
L 949.513125 353.2239 
" style="fill:none;stroke:#f7a35c;stroke-linecap:square;"/>
   </g>
   <g id="line2d_111">
    <path clip-path="url(#p4df4a8d894)" d="M 76.613125 353.2239 
L 240.648024 353.2239 
L 246.506414 352.205588 
L 252.364803 353.2239 
L 949.513125 353.2239 
L 949.513125 353.2239 
" style="fill:none;stroke:#8085e9;stroke-linecap:square;"/>
   </g>
   <g id="line2d_112">
    <path clip-path="url(#p4df4a8d894)" d="M 76.613125 353.2239 
L 88.329904 353.2239 
L 94.188293 352.973453 
L 100.046682 353.2239 
L 176.205742 353.2239 
L 182.064132 352.973453 
L 187.922521 353.2239 
L 199.639299 353.2239 
L 205.497689 352.973453 
L 211.356078 353.2239 
L 234.789635 353.2239 
L 246.506414 352.723005 
L 252.364803 353.2239 
L 498.417152 353.2239 
L 504.275541 352.894177 
L 510.13393 353.2239 
L 949.513125 353.2239 
L 949.513125 353.2239 
" style="fill:none;stroke:#f15c80;stroke-linecap:square;"/>
   </g>
   <g id="line2d_113">
    <path clip-path="url(#p4df4a8d894)" d="M 76.613125 353.2239 
L 949.513125 353.2239 
L 949.513125 353.2239 
" style="fill:none;stroke:#e4d354;stroke-linecap:square;"/>
   </g>
   <g id="line2d_114">
    <path clip-path="url(#p4df4a8d894)" d="M 76.613125 353.2239 
L 88.329904 353.2239 
L 94.188293 352.545426 
L 100.046682 353.2239 
L 234.789635 353.2239 
L 240.648024 352.545426 
L 246.506414 353.2239 
L 322.665474 353.2239 
L 328.523863 352.525375 
L 334.382253 353.2239 
L 949.513125 353.2239 
L 949.513125 353.2239 
" style="fill:none;stroke:#2b908f;stroke-linecap:square;"/>
   </g>
   <g id="line2d_115">
    <path clip-path="url(#p4df4a8d894)" d="M 76.613125 353.2239 
L 176.205742 353.2239 
L 182.064132 352.77048 
L 187.922521 353.2239 
L 199.639299 353.2239 
L 205.497689 353.07276 
L 211.356078 353.2239 
L 240.648024 353.2239 
L 246.506414 352.77048 
L 252.364803 353.2239 
L 258.223192 353.07276 
L 264.081581 353.2239 
L 474.983595 353.2239 
L 480.841984 353.03797 
L 486.700373 353.2239 
L 949.513125 353.2239 
L 949.513125 353.2239 
" style="fill:none;stroke:#f45b5b;stroke-linecap:square;"/>
   </g>
   <g id="line2d_116">
    <path clip-path="url(#p4df4a8d894)" d="M 76.613125 353.2239 
L 176.205742 353.2239 
L 182.064132 352.45637 
L 187.922521 353.2239 
L 199.639299 353.2239 
L 205.497689 352.45637 
L 211.356078 353.2239 
L 240.648024 353.2239 
L 246.506414 352.45637 
L 252.364803 353.2239 
L 949.513125 353.2239 
L 949.513125 353.2239 
" style="fill:none;stroke:#91e8e1;stroke-linecap:square;"/>
   </g>
   <g id="line2d_117">
    <path clip-path="url(#p4df4a8d894)" d="M 76.613125 353.2239 
L 88.329904 353.2239 
L 94.188293 352.936023 
L 100.046682 353.2239 
L 176.205742 353.2239 
L 182.064132 352.792084 
L 187.922521 353.2239 
L 199.639299 353.2239 
L 205.497689 353.079961 
L 211.356078 353.2239 
L 234.789635 353.2239 
L 240.648024 352.792084 
L 246.506414 352.936023 
L 252.364803 353.2239 
L 322.665474 353.2239 
L 328.523863 352.927004 
L 334.382253 353.2239 
L 480.841984 353.2239 
L 486.700373 353.038803 
L 492.558763 353.2239 
L 498.417152 353.2239 
L 504.275541 353.03107 
L 510.13393 353.2239 
L 949.513125 353.2239 
L 949.513125 353.2239 
" style="fill:none;stroke:#7cb5ec;stroke-linecap:square;"/>
   </g>
   <g id="line2d_118">
    <path clip-path="url(#p4df4a8d894)" d="M 76.613125 353.2239 
L 176.205742 353.2239 
L 182.064132 352.708659 
L 187.922521 353.2239 
L 240.648024 353.2239 
L 246.506414 352.96628 
L 252.364803 353.2239 
L 949.513125 353.2239 
L 949.513125 353.2239 
" style="fill:none;stroke:#434348;stroke-linecap:square;"/>
   </g>
   <g id="line2d_119">
    <path clip-path="url(#p4df4a8d894)" d="M 76.613125 353.2239 
L 949.513125 353.2239 
L 949.513125 353.2239 
" style="fill:none;stroke:#90ed7d;stroke-linecap:square;"/>
   </g>
   <g id="line2d_120">
    <path clip-path="url(#p4df4a8d894)" d="M 76.613125 353.2239 
L 949.513125 353.2239 
L 949.513125 353.2239 
" style="fill:none;stroke:#f7a35c;stroke-linecap:square;"/>
   </g>
   <g id="line2d_121">
    <path clip-path="url(#p4df4a8d894)" d="M 76.613125 353.2239 
L 252.364803 353.2239 
L 258.223192 353.028004 
L 264.081581 353.2239 
L 949.513125 353.2239 
L 949.513125 353.2239 
" style="fill:none;stroke:#8085e9;stroke-linecap:square;"/>
   </g>
   <g id="line2d_122">
    <path clip-path="url(#p4df4a8d894)" d="M 76.613125 353.2239 
L 88.329904 353.2239 
L 94.188293 352.893354 
L 100.046682 353.2239 
L 486.700373 353.2239 
L 492.558763 352.802945 
L 498.417152 353.2239 
L 949.513125 353.2239 
L 949.513125 353.2239 
" style="fill:none;stroke:#f15c80;stroke-linecap:square;"/>
   </g>
   <g id="line2d_123">
    <path clip-path="url(#p4df4a8d894)" d="M 76.613125 353.2239 
L 176.205742 353.2239 
L 182.064132 352.233035 
L 187.922521 353.2239 
L 949.513125 353.2239 
L 949.513125 353.2239 
" style="fill:none;stroke:#e4d354;stroke-linecap:square;"/>
   </g>
   <g id="line2d_124">
    <path clip-path="url(#p4df4a8d894)" d="M 76.613125 353.2239 
L 88.329904 353.2239 
L 94.188293 352.725674 
L 100.046682 353.2239 
L 176.205742 353.2239 
L 182.064132 352.974787 
L 187.922521 353.2239 
L 234.789635 353.2239 
L 240.648024 352.974787 
L 246.506414 353.2239 
L 322.665474 353.2239 
L 328.523863 352.968699 
L 334.382253 353.2239 
L 949.513125 353.2239 
L 949.513125 353.2239 
" style="fill:none;stroke:#2b908f;stroke-linecap:square;"/>
   </g>
   <g id="line2d_125">
    <path clip-path="url(#p4df4a8d894)" d="M 76.613125 353.2239 
L 949.513125 353.2239 
L 949.513125 353.2239 
" style="fill:none;stroke:#f45b5b;stroke-linecap:square;"/>
   </g>
   <g id="line2d_126">
    <path clip-path="url(#p4df4a8d894)" d="M 76.613125 353.2239 
L 176.205742 353.2239 
L 182.064132 353.017762 
L 187.922521 353.2239 
L 199.639299 353.2239 
L 205.497689 353.017762 
L 211.356078 353.2239 
L 240.648024 353.2239 
L 246.506414 353.017762 
L 252.364803 353.2239 
L 949.513125 353.2239 
L 949.513125 353.2239 
" style="fill:none;stroke:#91e8e1;stroke-linecap:square;"/>
   </g>
   <g id="line2d_127">
    <path clip-path="url(#p4df4a8d894)" d="M 76.613125 353.2239 
L 199.639299 353.2239 
L 205.497689 352.640633 
L 211.356078 353.2239 
L 949.513125 353.2239 
L 949.513125 353.2239 
" style="fill:none;stroke:#7cb5ec;stroke-linecap:square;"/>
   </g>
   <g id="line2d_128">
    <path clip-path="url(#p4df4a8d894)" d="M 76.613125 353.2239 
L 88.329904 353.2239 
L 94.188293 352.791555 
L 100.046682 353.2239 
L 170.347353 353.2239 
L 176.205742 352.791555 
L 182.064132 353.2239 
L 234.789635 353.2239 
L 240.648024 352.791555 
L 246.506414 353.2239 
L 258.223192 353.2239 
L 264.081581 352.791555 
L 269.939971 353.2239 
L 275.79836 352.790524 
L 281.656749 353.2239 
L 322.665474 353.2239 
L 328.523863 352.336896 
L 334.382253 353.2239 
L 949.513125 353.2239 
L 949.513125 353.2239 
" style="fill:none;stroke:#434348;stroke-linecap:square;"/>
   </g>
   <g id="line2d_129">
    <path clip-path="url(#p4df4a8d894)" d="M 76.613125 353.2239 
L 176.205742 353.2239 
L 182.064132 352.263637 
L 187.922521 353.2239 
L 199.639299 353.2239 
L 205.497689 352.263637 
L 211.356078 353.2239 
L 240.648024 353.2239 
L 246.506414 351.943545 
L 252.364803 353.2239 
L 258.223192 353.063856 
L 264.081581 353.2239 
L 949.513125 353.2239 
L 949.513125 353.2239 
" style="fill:none;stroke:#90ed7d;stroke-linecap:square;"/>
   </g>
   <g id="line2d_130">
    <path clip-path="url(#p4df4a8d894)" d="M 76.613125 353.2239 
L 88.329904 353.2239 
L 94.188293 352.126701 
L 100.046682 353.2239 
L 949.513125 353.2239 
L 949.513125 353.2239 
" style="fill:none;stroke:#f7a35c;stroke-linecap:square;"/>
   </g>
   <g id="line2d_131">
    <path clip-path="url(#p4df4a8d894)" d="M 76.613125 353.2239 
L 949.513125 353.2239 
L 949.513125 353.2239 
" style="fill:none;stroke:#8085e9;stroke-linecap:square;"/>
   </g>
   <g id="line2d_132">
    <path clip-path="url(#p4df4a8d894)" d="M 76.613125 353.2239 
L 176.205742 353.2239 
L 182.064132 351.981351 
L 187.922521 353.2239 
L 199.639299 353.2239 
L 205.497689 351.981351 
L 211.356078 353.2239 
L 240.648024 353.2239 
L 246.506414 351.981351 
L 252.364803 353.2239 
L 949.513125 353.2239 
L 949.513125 353.2239 
" style="fill:none;stroke:#f15c80;stroke-linecap:square;"/>
   </g>
   <g id="line2d_133">
    <path clip-path="url(#p4df4a8d894)" d="M 76.613125 353.2239 
L 486.700373 353.2239 
L 492.558763 352.080334 
L 498.417152 353.2239 
L 949.513125 353.2239 
L 949.513125 353.2239 
" style="fill:none;stroke:#e4d354;stroke-linecap:square;"/>
   </g>
   <g id="line2d_134">
    <path clip-path="url(#p4df4a8d894)" d="M 76.613125 353.2239 
L 949.513125 353.2239 
L 949.513125 353.2239 
" style="fill:none;stroke:#2b908f;stroke-linecap:square;"/>
   </g>
   <g id="line2d_135">
    <path clip-path="url(#p4df4a8d894)" d="M 76.613125 353.2239 
L 88.329904 353.2239 
L 94.188293 352.985284 
L 100.046682 353.2239 
L 176.205742 353.2239 
L 182.064132 352.746668 
L 187.922521 353.2239 
L 199.639299 353.2239 
L 205.497689 352.508052 
L 211.356078 353.2239 
L 240.648024 353.2239 
L 246.506414 352.746668 
L 252.364803 353.2239 
L 258.223192 352.985284 
L 264.081581 353.2239 
L 322.665474 353.2239 
L 328.523863 352.980003 
L 334.382253 353.2239 
L 668.31044 353.2239 
L 674.16883 352.752102 
L 680.027219 353.2239 
L 949.513125 353.2239 
L 949.513125 353.2239 
" style="fill:none;stroke:#f45b5b;stroke-linecap:square;"/>
   </g>
   <g id="line2d_136">
    <path clip-path="url(#p4df4a8d894)" d="M 76.613125 353.2239 
L 176.205742 353.2239 
L 182.064132 352.548212 
L 187.922521 353.2239 
L 199.639299 353.2239 
L 205.497689 352.77344 
L 211.356078 353.2239 
L 240.648024 353.2239 
L 246.506414 352.77344 
L 252.364803 353.2239 
L 322.665474 353.2239 
L 328.523863 352.991612 
L 334.382253 353.2239 
L 949.513125 353.2239 
L 949.513125 353.2239 
" style="fill:none;stroke:#91e8e1;stroke-linecap:square;"/>
   </g>
   <g id="line2d_137">
    <path clip-path="url(#p4df4a8d894)" d="M 76.613125 353.2239 
L 176.205742 353.2239 
L 182.064132 352.746907 
L 187.922521 353.2239 
L 199.639299 353.2239 
L 205.497689 352.937705 
L 211.356078 353.2239 
L 240.648024 353.2239 
L 246.506414 352.842306 
L 252.364803 353.2239 
L 258.223192 353.033103 
L 264.081581 353.2239 
L 949.513125 353.2239 
L 949.513125 353.2239 
" style="fill:none;stroke:#7cb5ec;stroke-linecap:square;"/>
   </g>
   <g id="line2d_138">
    <path clip-path="url(#p4df4a8d894)" d="M 76.613125 353.2239 
L 88.329904 353.2239 
L 94.188293 352.924931 
L 100.046682 353.2239 
L 176.205742 353.2239 
L 182.064132 352.625963 
L 187.922521 353.2239 
L 199.639299 353.2239 
L 205.497689 352.924931 
L 211.356078 353.2239 
L 234.789635 353.2239 
L 246.506414 352.028029 
L 252.364803 353.2239 
L 322.665474 353.2239 
L 328.523863 352.915582 
L 334.382253 353.2239 
L 949.513125 353.2239 
L 949.513125 353.2239 
" style="fill:none;stroke:#434348;stroke-linecap:square;"/>
   </g>
   <g id="line2d_139">
    <path clip-path="url(#p4df4a8d894)" d="M 76.613125 353.2239 
L 949.513125 353.2239 
L 949.513125 353.2239 
" style="fill:none;stroke:#90ed7d;stroke-linecap:square;"/>
   </g>
   <g id="line2d_140">
    <path clip-path="url(#p4df4a8d894)" d="M 76.613125 353.2239 
L 668.31044 353.2239 
L 674.16883 350.678121 
L 680.027219 353.2239 
L 949.513125 353.2239 
L 949.513125 353.2239 
" style="fill:none;stroke:#f7a35c;stroke-linecap:square;"/>
   </g>
   <g id="line2d_141">
    <path clip-path="url(#p4df4a8d894)" d="M 32.968125 353.2239 
L 993.158125 353.2239 
" style="fill:none;stroke:#dedede;stroke-linecap:square;stroke-width:2;"/>
   </g>
   <g id="text_17">
    <!-- Fastp: Read N Content -->
    <defs>
     <path d="M 9.8125 72.90625 
L 51.703125 72.90625 
L 51.703125 64.59375 
L 19.671875 64.59375 
L 19.671875 43.109375 
L 48.578125 43.109375 
L 48.578125 34.8125 
L 19.671875 34.8125 
L 19.671875 0 
L 9.8125 0 
z
" id="DejaVuSans-70"/>
     <path d="M 18.109375 8.203125 
L 18.109375 -20.796875 
L 9.078125 -20.796875 
L 9.078125 54.6875 
L 18.109375 54.6875 
L 18.109375 46.390625 
Q 20.953125 51.265625 25.265625 53.625 
Q 29.59375 56 35.59375 56 
Q 45.5625 56 51.78125 48.09375 
Q 58.015625 40.1875 58.015625 27.296875 
Q 58.015625 14.40625 51.78125 6.484375 
Q 45.5625 -1.421875 35.59375 -1.421875 
Q 29.59375 -1.421875 25.265625 0.953125 
Q 20.953125 3.328125 18.109375 8.203125 
z
M 48.6875 27.296875 
Q 48.6875 37.203125 44.609375 42.84375 
Q 40.53125 48.484375 33.40625 48.484375 
Q 26.265625 48.484375 22.1875 42.84375 
Q 18.109375 37.203125 18.109375 27.296875 
Q 18.109375 17.390625 22.1875 11.75 
Q 26.265625 6.109375 33.40625 6.109375 
Q 40.53125 6.109375 44.609375 11.75 
Q 48.6875 17.390625 48.6875 27.296875 
z
" id="DejaVuSans-112"/>
     <path d="M 9.8125 72.90625 
L 23.09375 72.90625 
L 55.421875 11.921875 
L 55.421875 72.90625 
L 64.984375 72.90625 
L 64.984375 0 
L 51.703125 0 
L 19.390625 60.984375 
L 19.390625 0 
L 9.8125 0 
z
" id="DejaVuSans-78"/>
    </defs>
    <g transform="translate(422.606875 19.3575)scale(0.16 -0.16)">
     <use xlink:href="#DejaVuSans-70"/>
     <use x="57.378906" xlink:href="#DejaVuSans-97"/>
     <use x="118.658203" xlink:href="#DejaVuSans-115"/>
     <use x="170.757812" xlink:href="#DejaVuSans-116"/>
     <use x="209.966797" xlink:href="#DejaVuSans-112"/>
     <use x="273.443359" xlink:href="#DejaVuSans-58"/>
     <use x="307.134766" xlink:href="#DejaVuSans-32"/>
     <use x="338.921875" xlink:href="#DejaVuSans-82"/>
     <use x="408.341797" xlink:href="#DejaVuSans-101"/>
     <use x="469.865234" xlink:href="#DejaVuSans-97"/>
     <use x="531.144531" xlink:href="#DejaVuSans-100"/>
     <use x="594.621094" xlink:href="#DejaVuSans-32"/>
     <use x="626.408203" xlink:href="#DejaVuSans-78"/>
     <use x="701.212891" xlink:href="#DejaVuSans-32"/>
     <use x="733" xlink:href="#DejaVuSans-67"/>
     <use x="802.824219" xlink:href="#DejaVuSans-111"/>
     <use x="864.005859" xlink:href="#DejaVuSans-110"/>
     <use x="927.384766" xlink:href="#DejaVuSans-116"/>
     <use x="966.59375" xlink:href="#DejaVuSans-101"/>
     <use x="1028.117188" xlink:href="#DejaVuSans-110"/>
     <use x="1091.496094" xlink:href="#DejaVuSans-116"/>
    </g>
   </g>
  </g>
 </g>
 <defs>
  <clipPath id="p4df4a8d894">
   <rect height="317.968" width="960.19" x="32.968125" y="35.2559"/>
  </clipPath>
 </defs>
</svg>
