<?xml version="1.0" encoding="utf-8" standalone="no"?>
<!DOCTYPE svg PUBLIC "-//W3C//DTD SVG 1.1//EN"
  "http://www.w3.org/Graphics/SVG/1.1/DTD/svg11.dtd">
<!-- Created with matplotlib (https://matplotlib.org/) -->
<svg height="388.844525pt" version="1.1" viewBox="0 0 1000.358125 388.844525" width="1000.358125pt" xmlns="http://www.w3.org/2000/svg" xmlns:xlink="http://www.w3.org/1999/xlink">
 <defs>
  <style type="text/css">
*{stroke-linecap:butt;stroke-linejoin:round;}
  </style>
 </defs>
 <g id="figure_1">
  <g id="axes_1">
   <g id="patch_1">
    <path d="M 32.968125 353.2239 
L 993.158125 353.2239 
L 993.158125 35.2559 
L 32.968125 35.2559 
z
" style="fill:#ffffff;"/>
   </g>
   <g id="matplotlib.axis_1">
    <g id="xtick_1">
     <g id="text_1">
      <!-- 0 -->
      <defs>
       <path d="M 31.78125 66.40625 
Q 24.171875 66.40625 20.328125 58.90625 
Q 16.5 51.421875 16.5 36.375 
Q 16.5 21.390625 20.328125 13.890625 
Q 24.171875 6.390625 31.78125 6.390625 
Q 39.453125 6.390625 43.28125 13.890625 
Q 47.125 21.390625 47.125 36.375 
Q 47.125 51.421875 43.28125 58.90625 
Q 39.453125 66.40625 31.78125 66.40625 
z
M 31.78125 74.21875 
Q 44.046875 74.21875 50.515625 64.515625 
Q 56.984375 54.828125 56.984375 36.375 
Q 56.984375 17.96875 50.515625 8.265625 
Q 44.046875 -1.421875 31.78125 -1.421875 
Q 19.53125 -1.421875 13.0625 8.265625 
Q 6.59375 17.96875 6.59375 36.375 
Q 6.59375 54.828125 13.0625 64.515625 
Q 19.53125 74.21875 31.78125 74.21875 
z
" id="DejaVuSans-48"/>
      </defs>
      <g transform="translate(68.209736 366.30265)scale(0.08 -0.08)">
       <use xlink:href="#DejaVuSans-48"/>
      </g>
     </g>
    </g>
    <g id="xtick_2">
     <g id="text_2">
      <!-- 20 -->
      <defs>
       <path d="M 19.1875 8.296875 
L 53.609375 8.296875 
L 53.609375 0 
L 7.328125 0 
L 7.328125 8.296875 
Q 12.9375 14.109375 22.625 23.890625 
Q 32.328125 33.6875 34.8125 36.53125 
Q 39.546875 41.84375 41.421875 45.53125 
Q 43.3125 49.21875 43.3125 52.78125 
Q 43.3125 58.59375 39.234375 62.25 
Q 35.15625 65.921875 28.609375 65.921875 
Q 23.96875 65.921875 18.8125 64.3125 
Q 13.671875 62.703125 7.8125 59.421875 
L 7.8125 69.390625 
Q 13.765625 71.78125 18.9375 73 
Q 24.125 74.21875 28.421875 74.21875 
Q 39.75 74.21875 46.484375 68.546875 
Q 53.21875 62.890625 53.21875 53.421875 
Q 53.21875 48.921875 51.53125 44.890625 
Q 49.859375 40.875 45.40625 35.40625 
Q 44.1875 33.984375 37.640625 27.21875 
Q 31.109375 20.453125 19.1875 8.296875 
z
" id="DejaVuSans-50"/>
      </defs>
      <g transform="translate(182.832521 366.30265)scale(0.08 -0.08)">
       <use xlink:href="#DejaVuSans-50"/>
       <use x="63.623047" xlink:href="#DejaVuSans-48"/>
      </g>
     </g>
    </g>
    <g id="xtick_3">
     <g id="text_3">
      <!-- 40 -->
      <defs>
       <path d="M 37.796875 64.3125 
L 12.890625 25.390625 
L 37.796875 25.390625 
z
M 35.203125 72.90625 
L 47.609375 72.90625 
L 47.609375 25.390625 
L 58.015625 25.390625 
L 58.015625 17.1875 
L 47.609375 17.1875 
L 47.609375 0 
L 37.796875 0 
L 37.796875 17.1875 
L 4.890625 17.1875 
L 4.890625 26.703125 
z
" id="DejaVuSans-52"/>
      </defs>
      <g transform="translate(300.000306 366.30265)scale(0.08 -0.08)">
       <use xlink:href="#DejaVuSans-52"/>
       <use x="63.623047" xlink:href="#DejaVuSans-48"/>
      </g>
     </g>
    </g>
    <g id="xtick_4">
     <g id="text_4">
      <!-- 60 -->
      <defs>
       <path d="M 33.015625 40.375 
Q 26.375 40.375 22.484375 35.828125 
Q 18.609375 31.296875 18.609375 23.390625 
Q 18.609375 15.53125 22.484375 10.953125 
Q 26.375 6.390625 33.015625 6.390625 
Q 39.65625 6.390625 43.53125 10.953125 
Q 47.40625 15.53125 47.40625 23.390625 
Q 47.40625 31.296875 43.53125 35.828125 
Q 39.65625 40.375 33.015625 40.375 
z
M 52.59375 71.296875 
L 52.59375 62.3125 
Q 48.875 64.0625 45.09375 64.984375 
Q 41.3125 65.921875 37.59375 65.921875 
Q 27.828125 65.921875 22.671875 59.328125 
Q 17.53125 52.734375 16.796875 39.40625 
Q 19.671875 43.65625 24.015625 45.921875 
Q 28.375 48.1875 33.59375 48.1875 
Q 44.578125 48.1875 50.953125 41.515625 
Q 57.328125 34.859375 57.328125 23.390625 
Q 57.328125 12.15625 50.6875 5.359375 
Q 44.046875 -1.421875 33.015625 -1.421875 
Q 20.359375 -1.421875 13.671875 8.265625 
Q 6.984375 17.96875 6.984375 36.375 
Q 6.984375 53.65625 15.1875 63.9375 
Q 23.390625 74.21875 37.203125 74.21875 
Q 40.921875 74.21875 44.703125 73.484375 
Q 48.484375 72.75 52.59375 71.296875 
z
" id="DejaVuSans-54"/>
      </defs>
      <g transform="translate(417.168091 366.30265)scale(0.08 -0.08)">
       <use xlink:href="#DejaVuSans-54"/>
       <use x="63.623047" xlink:href="#DejaVuSans-48"/>
      </g>
     </g>
    </g>
    <g id="xtick_5">
     <g id="text_5">
      <!-- 80 -->
      <defs>
       <path d="M 31.78125 34.625 
Q 24.75 34.625 20.71875 30.859375 
Q 16.703125 27.09375 16.703125 20.515625 
Q 16.703125 13.921875 20.71875 10.15625 
Q 24.75 6.390625 31.78125 6.390625 
Q 38.8125 6.390625 42.859375 10.171875 
Q 46.921875 13.96875 46.921875 20.515625 
Q 46.921875 27.09375 42.890625 30.859375 
Q 38.875 34.625 31.78125 34.625 
z
M 21.921875 38.8125 
Q 15.578125 40.375 12.03125 44.71875 
Q 8.5 49.078125 8.5 55.328125 
Q 8.5 64.0625 14.71875 69.140625 
Q 20.953125 74.21875 31.78125 74.21875 
Q 42.671875 74.21875 48.875 69.140625 
Q 55.078125 64.0625 55.078125 55.328125 
Q 55.078125 49.078125 51.53125 44.71875 
Q 48 40.375 41.703125 38.8125 
Q 48.828125 37.15625 52.796875 32.3125 
Q 56.78125 27.484375 56.78125 20.515625 
Q 56.78125 9.90625 50.3125 4.234375 
Q 43.84375 -1.421875 31.78125 -1.421875 
Q 19.734375 -1.421875 13.25 4.234375 
Q 6.78125 9.90625 6.78125 20.515625 
Q 6.78125 27.484375 10.78125 32.3125 
Q 14.796875 37.15625 21.921875 38.8125 
z
M 18.3125 54.390625 
Q 18.3125 48.734375 21.84375 45.5625 
Q 25.390625 42.390625 31.78125 42.390625 
Q 38.140625 42.390625 41.71875 45.5625 
Q 45.3125 48.734375 45.3125 54.390625 
Q 45.3125 60.0625 41.71875 63.234375 
Q 38.140625 66.40625 31.78125 66.40625 
Q 25.390625 66.40625 21.84375 63.234375 
Q 18.3125 60.0625 18.3125 54.390625 
z
" id="DejaVuSans-56"/>
      </defs>
      <g transform="translate(534.335877 366.30265)scale(0.08 -0.08)">
       <use xlink:href="#DejaVuSans-56"/>
       <use x="63.623047" xlink:href="#DejaVuSans-48"/>
      </g>
     </g>
    </g>
    <g id="xtick_6">
     <g id="text_6">
      <!-- 100 -->
      <defs>
       <path d="M 12.40625 8.296875 
L 28.515625 8.296875 
L 28.515625 63.921875 
L 10.984375 60.40625 
L 10.984375 69.390625 
L 28.421875 72.90625 
L 38.28125 72.90625 
L 38.28125 8.296875 
L 54.390625 8.296875 
L 54.390625 0 
L 12.40625 0 
z
" id="DejaVuSans-49"/>
      </defs>
      <g transform="translate(648.958662 366.30265)scale(0.08 -0.08)">
       <use xlink:href="#DejaVuSans-49"/>
       <use x="63.623047" xlink:href="#DejaVuSans-48"/>
       <use x="127.246094" xlink:href="#DejaVuSans-48"/>
      </g>
     </g>
    </g>
    <g id="xtick_7">
     <g id="text_7">
      <!-- 120 -->
      <g transform="translate(766.126447 366.30265)scale(0.08 -0.08)">
       <use xlink:href="#DejaVuSans-49"/>
       <use x="63.623047" xlink:href="#DejaVuSans-50"/>
       <use x="127.246094" xlink:href="#DejaVuSans-48"/>
      </g>
     </g>
    </g>
    <g id="xtick_8">
     <g id="text_8">
      <!-- 140 -->
      <g transform="translate(883.294232 366.30265)scale(0.08 -0.08)">
       <use xlink:href="#DejaVuSans-49"/>
       <use x="63.623047" xlink:href="#DejaVuSans-52"/>
       <use x="127.246094" xlink:href="#DejaVuSans-48"/>
      </g>
     </g>
    </g>
    <g id="text_9">
     <!-- Read Position -->
     <defs>
      <path d="M 44.390625 34.1875 
Q 47.5625 33.109375 50.5625 29.59375 
Q 53.5625 26.078125 56.59375 19.921875 
L 66.609375 0 
L 56 0 
L 46.6875 18.703125 
Q 43.0625 26.03125 39.671875 28.421875 
Q 36.28125 30.8125 30.421875 30.8125 
L 19.671875 30.8125 
L 19.671875 0 
L 9.8125 0 
L 9.8125 72.90625 
L 32.078125 72.90625 
Q 44.578125 72.90625 50.734375 67.671875 
Q 56.890625 62.453125 56.890625 51.90625 
Q 56.890625 45.015625 53.6875 40.46875 
Q 50.484375 35.9375 44.390625 34.1875 
z
M 19.671875 64.796875 
L 19.671875 38.921875 
L 32.078125 38.921875 
Q 39.203125 38.921875 42.84375 42.21875 
Q 46.484375 45.515625 46.484375 51.90625 
Q 46.484375 58.296875 42.84375 61.546875 
Q 39.203125 64.796875 32.078125 64.796875 
z
" id="DejaVuSans-82"/>
      <path d="M 56.203125 29.59375 
L 56.203125 25.203125 
L 14.890625 25.203125 
Q 15.484375 15.921875 20.484375 11.0625 
Q 25.484375 6.203125 34.421875 6.203125 
Q 39.59375 6.203125 44.453125 7.46875 
Q 49.3125 8.734375 54.109375 11.28125 
L 54.109375 2.78125 
Q 49.265625 0.734375 44.1875 -0.34375 
Q 39.109375 -1.421875 33.890625 -1.421875 
Q 20.796875 -1.421875 13.15625 6.1875 
Q 5.515625 13.8125 5.515625 26.8125 
Q 5.515625 40.234375 12.765625 48.109375 
Q 20.015625 56 32.328125 56 
Q 43.359375 56 49.78125 48.890625 
Q 56.203125 41.796875 56.203125 29.59375 
z
M 47.21875 32.234375 
Q 47.125 39.59375 43.09375 43.984375 
Q 39.0625 48.390625 32.421875 48.390625 
Q 24.90625 48.390625 20.390625 44.140625 
Q 15.875 39.890625 15.1875 32.171875 
z
" id="DejaVuSans-101"/>
      <path d="M 34.28125 27.484375 
Q 23.390625 27.484375 19.1875 25 
Q 14.984375 22.515625 14.984375 16.5 
Q 14.984375 11.71875 18.140625 8.90625 
Q 21.296875 6.109375 26.703125 6.109375 
Q 34.1875 6.109375 38.703125 11.40625 
Q 43.21875 16.703125 43.21875 25.484375 
L 43.21875 27.484375 
z
M 52.203125 31.203125 
L 52.203125 0 
L 43.21875 0 
L 43.21875 8.296875 
Q 40.140625 3.328125 35.546875 0.953125 
Q 30.953125 -1.421875 24.3125 -1.421875 
Q 15.921875 -1.421875 10.953125 3.296875 
Q 6 8.015625 6 15.921875 
Q 6 25.140625 12.171875 29.828125 
Q 18.359375 34.515625 30.609375 34.515625 
L 43.21875 34.515625 
L 43.21875 35.40625 
Q 43.21875 41.609375 39.140625 45 
Q 35.0625 48.390625 27.6875 48.390625 
Q 23 48.390625 18.546875 47.265625 
Q 14.109375 46.140625 10.015625 43.890625 
L 10.015625 52.203125 
Q 14.9375 54.109375 19.578125 55.046875 
Q 24.21875 56 28.609375 56 
Q 40.484375 56 46.34375 49.84375 
Q 52.203125 43.703125 52.203125 31.203125 
z
" id="DejaVuSans-97"/>
      <path d="M 45.40625 46.390625 
L 45.40625 75.984375 
L 54.390625 75.984375 
L 54.390625 0 
L 45.40625 0 
L 45.40625 8.203125 
Q 42.578125 3.328125 38.25 0.953125 
Q 33.9375 -1.421875 27.875 -1.421875 
Q 17.96875 -1.421875 11.734375 6.484375 
Q 5.515625 14.40625 5.515625 27.296875 
Q 5.515625 40.1875 11.734375 48.09375 
Q 17.96875 56 27.875 56 
Q 33.9375 56 38.25 53.625 
Q 42.578125 51.265625 45.40625 46.390625 
z
M 14.796875 27.296875 
Q 14.796875 17.390625 18.875 11.75 
Q 22.953125 6.109375 30.078125 6.109375 
Q 37.203125 6.109375 41.296875 11.75 
Q 45.40625 17.390625 45.40625 27.296875 
Q 45.40625 37.203125 41.296875 42.84375 
Q 37.203125 48.484375 30.078125 48.484375 
Q 22.953125 48.484375 18.875 42.84375 
Q 14.796875 37.203125 14.796875 27.296875 
z
" id="DejaVuSans-100"/>
      <path id="DejaVuSans-32"/>
      <path d="M 19.671875 64.796875 
L 19.671875 37.40625 
L 32.078125 37.40625 
Q 38.96875 37.40625 42.71875 40.96875 
Q 46.484375 44.53125 46.484375 51.125 
Q 46.484375 57.671875 42.71875 61.234375 
Q 38.96875 64.796875 32.078125 64.796875 
z
M 9.8125 72.90625 
L 32.078125 72.90625 
Q 44.34375 72.90625 50.609375 67.359375 
Q 56.890625 61.8125 56.890625 51.125 
Q 56.890625 40.328125 50.609375 34.8125 
Q 44.34375 29.296875 32.078125 29.296875 
L 19.671875 29.296875 
L 19.671875 0 
L 9.8125 0 
z
" id="DejaVuSans-80"/>
      <path d="M 30.609375 48.390625 
Q 23.390625 48.390625 19.1875 42.75 
Q 14.984375 37.109375 14.984375 27.296875 
Q 14.984375 17.484375 19.15625 11.84375 
Q 23.34375 6.203125 30.609375 6.203125 
Q 37.796875 6.203125 41.984375 11.859375 
Q 46.1875 17.53125 46.1875 27.296875 
Q 46.1875 37.015625 41.984375 42.703125 
Q 37.796875 48.390625 30.609375 48.390625 
z
M 30.609375 56 
Q 42.328125 56 49.015625 48.375 
Q 55.71875 40.765625 55.71875 27.296875 
Q 55.71875 13.875 49.015625 6.21875 
Q 42.328125 -1.421875 30.609375 -1.421875 
Q 18.84375 -1.421875 12.171875 6.21875 
Q 5.515625 13.875 5.515625 27.296875 
Q 5.515625 40.765625 12.171875 48.375 
Q 18.84375 56 30.609375 56 
z
" id="DejaVuSans-111"/>
      <path d="M 44.28125 53.078125 
L 44.28125 44.578125 
Q 40.484375 46.53125 36.375 47.5 
Q 32.28125 48.484375 27.875 48.484375 
Q 21.1875 48.484375 17.84375 46.4375 
Q 14.5 44.390625 14.5 40.28125 
Q 14.5 37.15625 16.890625 35.375 
Q 19.28125 33.59375 26.515625 31.984375 
L 29.59375 31.296875 
Q 39.15625 29.25 43.1875 25.515625 
Q 47.21875 21.78125 47.21875 15.09375 
Q 47.21875 7.46875 41.1875 3.015625 
Q 35.15625 -1.421875 24.609375 -1.421875 
Q 20.21875 -1.421875 15.453125 -0.5625 
Q 10.6875 0.296875 5.421875 2 
L 5.421875 11.28125 
Q 10.40625 8.6875 15.234375 7.390625 
Q 20.0625 6.109375 24.8125 6.109375 
Q 31.15625 6.109375 34.5625 8.28125 
Q 37.984375 10.453125 37.984375 14.40625 
Q 37.984375 18.0625 35.515625 20.015625 
Q 33.0625 21.96875 24.703125 23.78125 
L 21.578125 24.515625 
Q 13.234375 26.265625 9.515625 29.90625 
Q 5.8125 33.546875 5.8125 39.890625 
Q 5.8125 47.609375 11.28125 51.796875 
Q 16.75 56 26.8125 56 
Q 31.78125 56 36.171875 55.265625 
Q 40.578125 54.546875 44.28125 53.078125 
z
" id="DejaVuSans-115"/>
      <path d="M 9.421875 54.6875 
L 18.40625 54.6875 
L 18.40625 0 
L 9.421875 0 
z
M 9.421875 75.984375 
L 18.40625 75.984375 
L 18.40625 64.59375 
L 9.421875 64.59375 
z
" id="DejaVuSans-105"/>
      <path d="M 18.3125 70.21875 
L 18.3125 54.6875 
L 36.8125 54.6875 
L 36.8125 47.703125 
L 18.3125 47.703125 
L 18.3125 18.015625 
Q 18.3125 11.328125 20.140625 9.421875 
Q 21.96875 7.515625 27.59375 7.515625 
L 36.8125 7.515625 
L 36.8125 0 
L 27.59375 0 
Q 17.1875 0 13.234375 3.875 
Q 9.28125 7.765625 9.28125 18.015625 
L 9.28125 47.703125 
L 2.6875 47.703125 
L 2.6875 54.6875 
L 9.28125 54.6875 
L 9.28125 70.21875 
z
" id="DejaVuSans-116"/>
      <path d="M 54.890625 33.015625 
L 54.890625 0 
L 45.90625 0 
L 45.90625 32.71875 
Q 45.90625 40.484375 42.875 44.328125 
Q 39.84375 48.1875 33.796875 48.1875 
Q 26.515625 48.1875 22.3125 43.546875 
Q 18.109375 38.921875 18.109375 30.90625 
L 18.109375 0 
L 9.078125 0 
L 9.078125 54.6875 
L 18.109375 54.6875 
L 18.109375 46.1875 
Q 21.34375 51.125 25.703125 53.5625 
Q 30.078125 56 35.796875 56 
Q 45.21875 56 50.046875 50.171875 
Q 54.890625 44.34375 54.890625 33.015625 
z
" id="DejaVuSans-110"/>
     </defs>
     <g transform="translate(479.045156 379.564837)scale(0.1 -0.1)">
      <use xlink:href="#DejaVuSans-82"/>
      <use x="69.419922" xlink:href="#DejaVuSans-101"/>
      <use x="130.943359" xlink:href="#DejaVuSans-97"/>
      <use x="192.222656" xlink:href="#DejaVuSans-100"/>
      <use x="255.699219" xlink:href="#DejaVuSans-32"/>
      <use x="287.486328" xlink:href="#DejaVuSans-80"/>
      <use x="347.742188" xlink:href="#DejaVuSans-111"/>
      <use x="408.923828" xlink:href="#DejaVuSans-115"/>
      <use x="461.023438" xlink:href="#DejaVuSans-105"/>
      <use x="488.806641" xlink:href="#DejaVuSans-116"/>
      <use x="528.015625" xlink:href="#DejaVuSans-105"/>
      <use x="555.798828" xlink:href="#DejaVuSans-111"/>
      <use x="616.980469" xlink:href="#DejaVuSans-110"/>
     </g>
    </g>
   </g>
   <g id="matplotlib.axis_2">
    <g id="ytick_1">
     <g id="line2d_1">
      <path clip-path="url(#peddeba3e9f)" d="M 32.968125 353.2239 
L 993.158125 353.2239 
" style="fill:none;stroke:#dedede;stroke-linecap:square;"/>
     </g>
     <g id="text_10">
      <!-- 0 -->
      <g transform="translate(20.878125 356.263275)scale(0.08 -0.08)">
       <use xlink:href="#DejaVuSans-48"/>
      </g>
     </g>
    </g>
    <g id="ytick_2">
     <g id="line2d_2">
      <path clip-path="url(#peddeba3e9f)" d="M 32.968125 289.6303 
L 993.158125 289.6303 
" style="fill:none;stroke:#dedede;stroke-linecap:square;"/>
     </g>
     <g id="text_11">
      <!-- 1 -->
      <g transform="translate(20.878125 292.669675)scale(0.08 -0.08)">
       <use xlink:href="#DejaVuSans-49"/>
      </g>
     </g>
    </g>
    <g id="ytick_3">
     <g id="line2d_3">
      <path clip-path="url(#peddeba3e9f)" d="M 32.968125 226.0367 
L 993.158125 226.0367 
" style="fill:none;stroke:#dedede;stroke-linecap:square;"/>
     </g>
     <g id="text_12">
      <!-- 2 -->
      <g transform="translate(20.878125 229.076075)scale(0.08 -0.08)">
       <use xlink:href="#DejaVuSans-50"/>
      </g>
     </g>
    </g>
    <g id="ytick_4">
     <g id="line2d_4">
      <path clip-path="url(#peddeba3e9f)" d="M 32.968125 162.4431 
L 993.158125 162.4431 
" style="fill:none;stroke:#dedede;stroke-linecap:square;"/>
     </g>
     <g id="text_13">
      <!-- 3 -->
      <defs>
       <path d="M 40.578125 39.3125 
Q 47.65625 37.796875 51.625 33 
Q 55.609375 28.21875 55.609375 21.1875 
Q 55.609375 10.40625 48.1875 4.484375 
Q 40.765625 -1.421875 27.09375 -1.421875 
Q 22.515625 -1.421875 17.65625 -0.515625 
Q 12.796875 0.390625 7.625 2.203125 
L 7.625 11.71875 
Q 11.71875 9.328125 16.59375 8.109375 
Q 21.484375 6.890625 26.8125 6.890625 
Q 36.078125 6.890625 40.9375 10.546875 
Q 45.796875 14.203125 45.796875 21.1875 
Q 45.796875 27.640625 41.28125 31.265625 
Q 36.765625 34.90625 28.71875 34.90625 
L 20.21875 34.90625 
L 20.21875 43.015625 
L 29.109375 43.015625 
Q 36.375 43.015625 40.234375 45.921875 
Q 44.09375 48.828125 44.09375 54.296875 
Q 44.09375 59.90625 40.109375 62.90625 
Q 36.140625 65.921875 28.71875 65.921875 
Q 24.65625 65.921875 20.015625 65.03125 
Q 15.375 64.15625 9.8125 62.3125 
L 9.8125 71.09375 
Q 15.4375 72.65625 20.34375 73.4375 
Q 25.25 74.21875 29.59375 74.21875 
Q 40.828125 74.21875 47.359375 69.109375 
Q 53.90625 64.015625 53.90625 55.328125 
Q 53.90625 49.265625 50.4375 45.09375 
Q 46.96875 40.921875 40.578125 39.3125 
z
" id="DejaVuSans-51"/>
      </defs>
      <g transform="translate(20.878125 165.482475)scale(0.08 -0.08)">
       <use xlink:href="#DejaVuSans-51"/>
      </g>
     </g>
    </g>
    <g id="ytick_5">
     <g id="line2d_5">
      <path clip-path="url(#peddeba3e9f)" d="M 32.968125 98.8495 
L 993.158125 98.8495 
" style="fill:none;stroke:#dedede;stroke-linecap:square;"/>
     </g>
     <g id="text_14">
      <!-- 4 -->
      <g transform="translate(20.878125 101.888875)scale(0.08 -0.08)">
       <use xlink:href="#DejaVuSans-52"/>
      </g>
     </g>
    </g>
    <g id="ytick_6">
     <g id="line2d_6">
      <path clip-path="url(#peddeba3e9f)" d="M 32.968125 35.2559 
L 993.158125 35.2559 
" style="fill:none;stroke:#dedede;stroke-linecap:square;"/>
     </g>
     <g id="text_15">
      <!-- 5 -->
      <defs>
       <path d="M 10.796875 72.90625 
L 49.515625 72.90625 
L 49.515625 64.59375 
L 19.828125 64.59375 
L 19.828125 46.734375 
Q 21.96875 47.46875 24.109375 47.828125 
Q 26.265625 48.1875 28.421875 48.1875 
Q 40.625 48.1875 47.75 41.5 
Q 54.890625 34.8125 54.890625 23.390625 
Q 54.890625 11.625 47.5625 5.09375 
Q 40.234375 -1.421875 26.90625 -1.421875 
Q 22.3125 -1.421875 17.546875 -0.640625 
Q 12.796875 0.140625 7.71875 1.703125 
L 7.71875 11.625 
Q 12.109375 9.234375 16.796875 8.0625 
Q 21.484375 6.890625 26.703125 6.890625 
Q 35.15625 6.890625 40.078125 11.328125 
Q 45.015625 15.765625 45.015625 23.390625 
Q 45.015625 31 40.078125 35.4375 
Q 35.15625 39.890625 26.703125 39.890625 
Q 22.75 39.890625 18.8125 39.015625 
Q 14.890625 38.140625 10.796875 36.28125 
z
" id="DejaVuSans-53"/>
      </defs>
      <g transform="translate(20.878125 38.295275)scale(0.08 -0.08)">
       <use xlink:href="#DejaVuSans-53"/>
      </g>
     </g>
    </g>
    <g id="text_16">
     <!-- R1 Before filtering: Base Content Percent -->
     <defs>
      <path d="M 19.671875 34.8125 
L 19.671875 8.109375 
L 35.5 8.109375 
Q 43.453125 8.109375 47.28125 11.40625 
Q 51.125 14.703125 51.125 21.484375 
Q 51.125 28.328125 47.28125 31.5625 
Q 43.453125 34.8125 35.5 34.8125 
z
M 19.671875 64.796875 
L 19.671875 42.828125 
L 34.28125 42.828125 
Q 41.5 42.828125 45.03125 45.53125 
Q 48.578125 48.25 48.578125 53.8125 
Q 48.578125 59.328125 45.03125 62.0625 
Q 41.5 64.796875 34.28125 64.796875 
z
M 9.8125 72.90625 
L 35.015625 72.90625 
Q 46.296875 72.90625 52.390625 68.21875 
Q 58.5 63.53125 58.5 54.890625 
Q 58.5 48.1875 55.375 44.234375 
Q 52.25 40.28125 46.1875 39.3125 
Q 53.46875 37.75 57.5 32.78125 
Q 61.53125 27.828125 61.53125 20.40625 
Q 61.53125 10.640625 54.890625 5.3125 
Q 48.25 0 35.984375 0 
L 9.8125 0 
z
" id="DejaVuSans-66"/>
      <path d="M 37.109375 75.984375 
L 37.109375 68.5 
L 28.515625 68.5 
Q 23.6875 68.5 21.796875 66.546875 
Q 19.921875 64.59375 19.921875 59.515625 
L 19.921875 54.6875 
L 34.71875 54.6875 
L 34.71875 47.703125 
L 19.921875 47.703125 
L 19.921875 0 
L 10.890625 0 
L 10.890625 47.703125 
L 2.296875 47.703125 
L 2.296875 54.6875 
L 10.890625 54.6875 
L 10.890625 58.5 
Q 10.890625 67.625 15.140625 71.796875 
Q 19.390625 75.984375 28.609375 75.984375 
z
" id="DejaVuSans-102"/>
      <path d="M 41.109375 46.296875 
Q 39.59375 47.171875 37.8125 47.578125 
Q 36.03125 48 33.890625 48 
Q 26.265625 48 22.1875 43.046875 
Q 18.109375 38.09375 18.109375 28.8125 
L 18.109375 0 
L 9.078125 0 
L 9.078125 54.6875 
L 18.109375 54.6875 
L 18.109375 46.1875 
Q 20.953125 51.171875 25.484375 53.578125 
Q 30.03125 56 36.53125 56 
Q 37.453125 56 38.578125 55.875 
Q 39.703125 55.765625 41.0625 55.515625 
z
" id="DejaVuSans-114"/>
      <path d="M 9.421875 75.984375 
L 18.40625 75.984375 
L 18.40625 0 
L 9.421875 0 
z
" id="DejaVuSans-108"/>
      <path d="M 45.40625 27.984375 
Q 45.40625 37.75 41.375 43.109375 
Q 37.359375 48.484375 30.078125 48.484375 
Q 22.859375 48.484375 18.828125 43.109375 
Q 14.796875 37.75 14.796875 27.984375 
Q 14.796875 18.265625 18.828125 12.890625 
Q 22.859375 7.515625 30.078125 7.515625 
Q 37.359375 7.515625 41.375 12.890625 
Q 45.40625 18.265625 45.40625 27.984375 
z
M 54.390625 6.78125 
Q 54.390625 -7.171875 48.1875 -13.984375 
Q 42 -20.796875 29.203125 -20.796875 
Q 24.46875 -20.796875 20.265625 -20.09375 
Q 16.0625 -19.390625 12.109375 -17.921875 
L 12.109375 -9.1875 
Q 16.0625 -11.328125 19.921875 -12.34375 
Q 23.78125 -13.375 27.78125 -13.375 
Q 36.625 -13.375 41.015625 -8.765625 
Q 45.40625 -4.15625 45.40625 5.171875 
L 45.40625 9.625 
Q 42.625 4.78125 38.28125 2.390625 
Q 33.9375 0 27.875 0 
Q 17.828125 0 11.671875 7.65625 
Q 5.515625 15.328125 5.515625 27.984375 
Q 5.515625 40.671875 11.671875 48.328125 
Q 17.828125 56 27.875 56 
Q 33.9375 56 38.28125 53.609375 
Q 42.625 51.21875 45.40625 46.390625 
L 45.40625 54.6875 
L 54.390625 54.6875 
z
" id="DejaVuSans-103"/>
      <path d="M 11.71875 12.40625 
L 22.015625 12.40625 
L 22.015625 0 
L 11.71875 0 
z
M 11.71875 51.703125 
L 22.015625 51.703125 
L 22.015625 39.3125 
L 11.71875 39.3125 
z
" id="DejaVuSans-58"/>
      <path d="M 64.40625 67.28125 
L 64.40625 56.890625 
Q 59.421875 61.53125 53.78125 63.8125 
Q 48.140625 66.109375 41.796875 66.109375 
Q 29.296875 66.109375 22.65625 58.46875 
Q 16.015625 50.828125 16.015625 36.375 
Q 16.015625 21.96875 22.65625 14.328125 
Q 29.296875 6.6875 41.796875 6.6875 
Q 48.140625 6.6875 53.78125 8.984375 
Q 59.421875 11.28125 64.40625 15.921875 
L 64.40625 5.609375 
Q 59.234375 2.09375 53.4375 0.328125 
Q 47.65625 -1.421875 41.21875 -1.421875 
Q 24.65625 -1.421875 15.125 8.703125 
Q 5.609375 18.84375 5.609375 36.375 
Q 5.609375 53.953125 15.125 64.078125 
Q 24.65625 74.21875 41.21875 74.21875 
Q 47.75 74.21875 53.53125 72.484375 
Q 59.328125 70.75 64.40625 67.28125 
z
" id="DejaVuSans-67"/>
      <path d="M 48.78125 52.59375 
L 48.78125 44.1875 
Q 44.96875 46.296875 41.140625 47.34375 
Q 37.3125 48.390625 33.40625 48.390625 
Q 24.65625 48.390625 19.8125 42.84375 
Q 14.984375 37.3125 14.984375 27.296875 
Q 14.984375 17.28125 19.8125 11.734375 
Q 24.65625 6.203125 33.40625 6.203125 
Q 37.3125 6.203125 41.140625 7.25 
Q 44.96875 8.296875 48.78125 10.40625 
L 48.78125 2.09375 
Q 45.015625 0.34375 40.984375 -0.53125 
Q 36.96875 -1.421875 32.421875 -1.421875 
Q 20.0625 -1.421875 12.78125 6.34375 
Q 5.515625 14.109375 5.515625 27.296875 
Q 5.515625 40.671875 12.859375 48.328125 
Q 20.21875 56 33.015625 56 
Q 37.15625 56 41.109375 55.140625 
Q 45.0625 54.296875 48.78125 52.59375 
z
" id="DejaVuSans-99"/>
     </defs>
     <g transform="translate(14.798438 297.503181)rotate(-90)scale(0.1 -0.1)">
      <use xlink:href="#DejaVuSans-82"/>
      <use x="69.482422" xlink:href="#DejaVuSans-49"/>
      <use x="133.105469" xlink:href="#DejaVuSans-32"/>
      <use x="164.892578" xlink:href="#DejaVuSans-66"/>
      <use x="233.496094" xlink:href="#DejaVuSans-101"/>
      <use x="295.019531" xlink:href="#DejaVuSans-102"/>
      <use x="330.224609" xlink:href="#DejaVuSans-111"/>
      <use x="391.40625" xlink:href="#DejaVuSans-114"/>
      <use x="432.488281" xlink:href="#DejaVuSans-101"/>
      <use x="494.011719" xlink:href="#DejaVuSans-32"/>
      <use x="525.798828" xlink:href="#DejaVuSans-102"/>
      <use x="561.003906" xlink:href="#DejaVuSans-105"/>
      <use x="588.787109" xlink:href="#DejaVuSans-108"/>
      <use x="616.570312" xlink:href="#DejaVuSans-116"/>
      <use x="655.779297" xlink:href="#DejaVuSans-101"/>
      <use x="717.302734" xlink:href="#DejaVuSans-114"/>
      <use x="758.416016" xlink:href="#DejaVuSans-105"/>
      <use x="786.199219" xlink:href="#DejaVuSans-110"/>
      <use x="849.578125" xlink:href="#DejaVuSans-103"/>
      <use x="913.054688" xlink:href="#DejaVuSans-58"/>
      <use x="946.746094" xlink:href="#DejaVuSans-32"/>
      <use x="978.533203" xlink:href="#DejaVuSans-66"/>
      <use x="1047.136719" xlink:href="#DejaVuSans-97"/>
      <use x="1108.416016" xlink:href="#DejaVuSans-115"/>
      <use x="1160.515625" xlink:href="#DejaVuSans-101"/>
      <use x="1222.039062" xlink:href="#DejaVuSans-32"/>
      <use x="1253.826172" xlink:href="#DejaVuSans-67"/>
      <use x="1323.650391" xlink:href="#DejaVuSans-111"/>
      <use x="1384.832031" xlink:href="#DejaVuSans-110"/>
      <use x="1448.210938" xlink:href="#DejaVuSans-116"/>
      <use x="1487.419922" xlink:href="#DejaVuSans-101"/>
      <use x="1548.943359" xlink:href="#DejaVuSans-110"/>
      <use x="1612.322266" xlink:href="#DejaVuSans-116"/>
      <use x="1651.53125" xlink:href="#DejaVuSans-32"/>
      <use x="1683.318359" xlink:href="#DejaVuSans-80"/>
      <use x="1743.574219" xlink:href="#DejaVuSans-101"/>
      <use x="1805.097656" xlink:href="#DejaVuSans-114"/>
      <use x="1846.179688" xlink:href="#DejaVuSans-99"/>
      <use x="1901.160156" xlink:href="#DejaVuSans-101"/>
      <use x="1962.683594" xlink:href="#DejaVuSans-110"/>
      <use x="2026.0625" xlink:href="#DejaVuSans-116"/>
     </g>
    </g>
   </g>
   <g id="line2d_7">
    <path clip-path="url(#peddeba3e9f)" d="M 76.613125 247.734836 
L 82.471514 351.363304 
L 88.329904 353.2239 
L 94.188293 352.72931 
L 100.046682 353.2239 
L 246.506414 353.2239 
L 252.364803 353.011933 
L 258.223192 353.2239 
L 392.966145 353.2239 
L 398.824534 352.979903 
L 404.682924 353.2239 
L 428.116481 353.198736 
L 433.97487 353.071677 
L 439.833259 353.2239 
L 515.99232 353.2239 
L 521.850709 353.098458 
L 533.567487 353.2239 
L 873.354065 353.2239 
L 879.212454 351.184415 
L 885.070843 353.2239 
L 890.929232 352.94773 
L 896.787622 353.2239 
L 949.513125 353.2239 
L 949.513125 353.2239 
" style="fill:none;stroke:#7cb5ec;stroke-linecap:square;"/>
   </g>
   <g id="line2d_8">
    <path clip-path="url(#peddeba3e9f)" d="M 76.613125 246.214949 
L 82.471514 351.399883 
L 88.329904 353.2239 
L 94.188293 352.774505 
L 100.046682 353.2239 
L 199.639299 353.2239 
L 205.497689 353.091725 
L 211.356078 353.2239 
L 246.506414 353.2239 
L 252.364803 353.06529 
L 258.223192 353.2239 
L 392.966145 353.2239 
L 398.824534 353.060476 
L 404.682924 353.2239 
L 726.894333 353.2239 
L 732.752722 352.984073 
L 738.611112 353.2239 
L 873.354065 353.2239 
L 879.212454 352.854513 
L 885.070843 353.2239 
L 890.929232 352.011132 
L 896.787622 353.2239 
L 949.513125 353.2239 
L 949.513125 353.2239 
" style="fill:none;stroke:#434348;stroke-linecap:square;"/>
   </g>
   <g id="line2d_9">
    <path clip-path="url(#peddeba3e9f)" d="M 76.613125 244.654998 
L 82.471514 351.309828 
L 88.329904 353.2239 
L 94.188293 352.64357 
L 100.046682 353.220506 
L 199.639299 353.2239 
L 205.497689 353.033851 
L 211.356078 353.2239 
L 246.506414 353.2239 
L 252.364803 352.962582 
L 258.223192 353.2239 
L 392.966145 353.2239 
L 398.824534 353.087981 
L 404.682924 353.2239 
L 428.116481 353.2239 
L 433.97487 353.09893 
L 439.833259 353.2239 
L 873.354065 353.2239 
L 879.212454 352.86944 
L 885.070843 353.2239 
L 949.513125 353.2239 
L 949.513125 353.2239 
" style="fill:none;stroke:#90ed7d;stroke-linecap:square;"/>
   </g>
   <g id="line2d_10">
    <path clip-path="url(#peddeba3e9f)" d="M 76.613125 246.608594 
L 82.471514 351.382096 
L 88.329904 353.2239 
L 94.188293 352.563474 
L 100.046682 353.215696 
L 182.064132 353.2239 
L 199.639299 353.2239 
L 205.497689 353.05982 
L 211.356078 353.2239 
L 246.506414 353.2239 
L 252.364803 352.994188 
L 258.223192 353.2239 
L 726.894333 353.2239 
L 732.752722 353.037309 
L 738.611112 353.2239 
L 873.354065 353.2239 
L 879.212454 352.28157 
L 885.070843 353.113133 
L 890.929232 352.754895 
L 896.787622 353.2239 
L 949.513125 353.2239 
L 949.513125 353.2239 
" style="fill:none;stroke:#f7a35c;stroke-linecap:square;"/>
   </g>
   <g id="line2d_11">
    <path clip-path="url(#peddeba3e9f)" d="M 76.613125 245.547216 
L 82.471514 351.357129 
L 88.329904 353.2239 
L 94.188293 352.595625 
L 100.046682 353.220289 
L 199.639299 353.2239 
L 205.497689 353.039751 
L 211.356078 353.2239 
L 246.506414 353.2239 
L 252.364803 352.960313 
L 258.223192 353.2239 
L 392.966145 353.2239 
L 398.824534 353.091926 
L 404.682924 353.2239 
L 428.116481 353.219475 
L 433.97487 353.093412 
L 439.833259 353.2239 
L 674.16883 353.2239 
L 680.027219 353.104134 
L 685.885608 353.2239 
L 726.894333 353.2239 
L 732.752722 353.067472 
L 744.469501 353.2239 
L 873.354065 353.2239 
L 879.212454 352.546342 
L 885.070843 353.2239 
L 890.929232 352.724372 
L 896.787622 353.2239 
L 949.513125 353.2239 
L 949.513125 353.2239 
" style="fill:none;stroke:#8085e9;stroke-linecap:square;"/>
   </g>
   <g id="line2d_12">
    <path clip-path="url(#peddeba3e9f)" d="M 76.613125 250.864913 
L 82.471514 351.312633 
L 88.329904 353.2239 
L 94.188293 352.700072 
L 100.046682 353.2239 
L 199.639299 353.2239 
L 205.497689 353.082325 
L 211.356078 353.2239 
L 246.506414 353.2239 
L 252.364803 352.99738 
L 258.223192 353.2239 
L 392.966145 353.2239 
L 398.824534 353.049379 
L 404.682924 353.2239 
L 726.894333 353.2239 
L 732.752722 353.047884 
L 744.469501 353.2239 
L 873.354065 353.2239 
L 879.212454 352.35703 
L 885.070843 353.2239 
L 890.929232 352.655457 
L 896.787622 353.2239 
L 908.5044 353.2239 
L 914.362789 352.995203 
L 920.221179 353.2239 
L 949.513125 353.2239 
L 949.513125 353.2239 
" style="fill:none;stroke:#f15c80;stroke-linecap:square;"/>
   </g>
   <g id="line2d_13">
    <path clip-path="url(#peddeba3e9f)" d="M 76.613125 248.564097 
L 82.471514 351.202857 
L 88.329904 353.2239 
L 94.188293 352.636387 
L 100.046682 353.2239 
L 199.639299 353.2239 
L 205.497689 353.106397 
L 211.356078 353.2239 
L 246.506414 353.2239 
L 252.364803 353.024146 
L 258.223192 353.2239 
L 392.966145 353.2239 
L 398.824534 353.054585 
L 404.682924 353.2239 
L 428.116481 353.208463 
L 433.97487 353.082035 
L 439.833259 353.2239 
L 726.894333 353.2239 
L 732.752722 353.087163 
L 738.611112 353.079834 
L 744.469501 353.2239 
L 767.903058 353.2239 
L 773.761447 353.026416 
L 779.619836 353.2239 
L 873.354065 353.2239 
L 879.212454 352.235039 
L 885.070843 352.704895 
L 890.929232 352.678313 
L 896.787622 353.2239 
L 949.513125 353.2239 
L 949.513125 353.2239 
" style="fill:none;stroke:#e4d354;stroke-linecap:square;"/>
   </g>
   <g id="line2d_14">
    <path clip-path="url(#peddeba3e9f)" d="M 76.613125 247.719574 
L 82.471514 351.126723 
L 88.329904 353.2239 
L 94.188293 352.6012 
L 100.046682 353.220674 
L 199.639299 353.2239 
L 205.497689 353.001277 
L 211.356078 353.2239 
L 246.506414 353.2239 
L 252.364803 352.91739 
L 258.223192 353.2239 
L 392.966145 353.2239 
L 398.824534 353.050952 
L 404.682924 353.2239 
L 428.116481 353.220155 
L 433.97487 353.087104 
L 439.833259 353.2239 
L 873.354065 353.2239 
L 879.212454 352.630944 
L 885.070843 353.2239 
L 890.929232 352.89424 
L 896.787622 353.2239 
L 949.513125 353.2239 
L 949.513125 353.2239 
" style="fill:none;stroke:#2b908f;stroke-linecap:square;"/>
   </g>
   <g id="line2d_15">
    <path clip-path="url(#peddeba3e9f)" d="M 76.613125 244.143706 
L 82.471514 351.348843 
L 88.329904 353.2239 
L 94.188293 352.687546 
L 100.046682 353.215179 
L 176.205742 353.2239 
L 199.639299 353.2239 
L 205.497689 352.984067 
L 211.356078 353.2239 
L 246.506414 353.2239 
L 252.364803 352.923019 
L 258.223192 353.2239 
L 392.966145 353.2239 
L 398.824534 353.08004 
L 404.682924 353.2239 
L 428.116481 353.218826 
L 433.97487 353.11071 
L 439.833259 353.2239 
L 726.894333 353.2239 
L 732.752722 353.04253 
L 738.611112 353.192231 
L 762.044669 353.2239 
L 873.354065 353.2239 
L 879.212454 351.935614 
L 885.070843 353.2239 
L 890.929232 352.353533 
L 896.787622 353.2239 
L 949.513125 353.2239 
L 949.513125 353.2239 
" style="fill:none;stroke:#f45b5b;stroke-linecap:square;"/>
   </g>
   <g id="line2d_16">
    <path clip-path="url(#peddeba3e9f)" d="M 76.613125 244.214931 
L 82.471514 351.455559 
L 88.329904 353.2239 
L 94.188293 352.769184 
L 100.046682 353.209465 
L 146.913796 353.2239 
L 199.639299 353.2239 
L 205.497689 353.014586 
L 211.356078 353.2239 
L 246.506414 353.2239 
L 252.364803 352.964062 
L 258.223192 353.2239 
L 392.966145 353.2239 
L 398.824534 353.057621 
L 404.682924 353.2239 
L 726.894333 353.2239 
L 732.752722 353.04579 
L 738.611112 353.2239 
L 873.354065 353.2239 
L 879.212454 352.11615 
L 885.070843 353.2239 
L 890.929232 352.978658 
L 896.787622 353.2239 
L 949.513125 353.2239 
L 949.513125 353.2239 
" style="fill:none;stroke:#91e8e1;stroke-linecap:square;"/>
   </g>
   <g id="line2d_17">
    <path clip-path="url(#peddeba3e9f)" d="M 76.613125 242.761817 
L 82.471514 351.512285 
L 88.329904 353.2239 
L 94.188293 352.606048 
L 100.046682 353.190503 
L 123.480239 353.2239 
L 199.639299 353.2239 
L 205.497689 353.031865 
L 211.356078 353.2239 
L 246.506414 353.2239 
L 252.364803 352.981769 
L 258.223192 353.2239 
L 392.966145 353.2239 
L 398.824534 353.052009 
L 404.682924 353.2239 
L 428.116481 353.2239 
L 433.97487 353.108505 
L 439.833259 353.2239 
L 726.894333 353.2239 
L 732.752722 353.026816 
L 744.469501 353.2239 
L 873.354065 353.2239 
L 879.212454 352.035399 
L 885.070843 353.068468 
L 890.929232 352.249036 
L 896.787622 353.2239 
L 949.513125 353.2239 
L 949.513125 353.2239 
" style="fill:none;stroke:#7cb5ec;stroke-linecap:square;"/>
   </g>
   <g id="line2d_18">
    <path clip-path="url(#peddeba3e9f)" d="M 76.613125 244.440688 
L 82.471514 351.242088 
L 88.329904 353.2239 
L 94.188293 352.754887 
L 100.046682 353.205507 
L 141.055407 353.2239 
L 199.639299 353.2239 
L 205.497689 353.012385 
L 211.356078 353.2239 
L 246.506414 353.2239 
L 252.364803 352.925019 
L 258.223192 353.2239 
L 392.966145 353.2239 
L 398.824534 353.108956 
L 404.682924 353.2239 
L 726.894333 353.2239 
L 732.752722 353.052783 
L 744.469501 353.2239 
L 873.354065 353.2239 
L 879.212454 352.909477 
L 885.070843 353.058386 
L 890.929232 352.526374 
L 896.787622 353.2239 
L 949.513125 353.2239 
L 949.513125 353.2239 
" style="fill:none;stroke:#434348;stroke-linecap:square;"/>
   </g>
   <g id="line2d_19">
    <path clip-path="url(#peddeba3e9f)" d="M 76.613125 250.003856 
L 82.471514 351.416163 
L 88.329904 353.2239 
L 94.188293 352.751608 
L 100.046682 353.2239 
L 199.639299 353.2239 
L 205.497689 353.109898 
L 211.356078 353.2239 
L 246.506414 353.2239 
L 252.364803 353.061041 
L 258.223192 353.2239 
L 726.894333 353.2239 
L 732.752722 353.083442 
L 738.611112 353.2239 
L 873.354065 353.2239 
L 879.212454 352.738119 
L 885.070843 353.2239 
L 949.513125 353.2239 
L 949.513125 353.2239 
" style="fill:none;stroke:#90ed7d;stroke-linecap:square;"/>
   </g>
   <g id="line2d_20">
    <path clip-path="url(#peddeba3e9f)" d="M 76.613125 245.46836 
L 82.471514 351.318305 
L 88.329904 353.2239 
L 94.188293 352.657166 
L 100.046682 353.220096 
L 199.639299 353.2239 
L 205.497689 353.003292 
L 211.356078 353.2239 
L 246.506414 353.2239 
L 252.364803 352.950042 
L 258.223192 353.2239 
L 392.966145 353.2239 
L 398.824534 353.071847 
L 404.682924 353.2239 
L 726.894333 353.2239 
L 732.752722 353.083233 
L 750.32789 353.2239 
L 873.354065 353.2239 
L 879.212454 352.631019 
L 885.070843 353.2239 
L 890.929232 352.701012 
L 896.787622 353.2239 
L 949.513125 353.2239 
L 949.513125 353.2239 
" style="fill:none;stroke:#f7a35c;stroke-linecap:square;"/>
   </g>
   <g id="line2d_21">
    <path clip-path="url(#peddeba3e9f)" d="M 76.613125 247.052477 
L 82.471514 351.393352 
L 88.329904 353.2239 
L 94.188293 352.702506 
L 100.046682 353.212565 
L 158.630575 353.2239 
L 199.639299 353.2239 
L 205.497689 353.065215 
L 211.356078 353.2239 
L 246.506414 353.2239 
L 252.364803 352.99154 
L 258.223192 353.2239 
L 392.966145 353.2239 
L 398.824534 353.109819 
L 404.682924 353.2239 
L 726.894333 353.2239 
L 732.752722 353.069219 
L 738.611112 353.2239 
L 873.354065 353.2239 
L 879.212454 352.536091 
L 885.070843 353.2239 
L 890.929232 352.573147 
L 896.787622 353.2239 
L 949.513125 353.2239 
L 949.513125 353.2239 
" style="fill:none;stroke:#8085e9;stroke-linecap:square;"/>
   </g>
   <g id="line2d_22">
    <path clip-path="url(#peddeba3e9f)" d="M 76.613125 244.305233 
L 82.471514 351.301275 
L 88.329904 353.2239 
L 94.188293 352.62694 
L 100.046682 353.207432 
L 141.055407 353.2239 
L 199.639299 353.2239 
L 205.497689 353.038637 
L 211.356078 353.2239 
L 246.506414 353.2239 
L 252.364803 352.968648 
L 258.223192 353.2239 
L 392.966145 353.2239 
L 398.824534 353.08446 
L 404.682924 353.2239 
L 873.354065 353.2239 
L 879.212454 352.250212 
L 885.070843 353.2239 
L 890.929232 352.791878 
L 896.787622 353.2239 
L 949.513125 353.2239 
L 949.513125 353.2239 
" style="fill:none;stroke:#f15c80;stroke-linecap:square;"/>
   </g>
   <g id="line2d_23">
    <path clip-path="url(#peddeba3e9f)" d="M 76.613125 246.610501 
L 82.471514 351.32773 
L 88.329904 353.2239 
L 94.188293 352.741731 
L 100.046682 353.218482 
L 199.639299 353.2239 
L 205.497689 353.083041 
L 211.356078 353.2239 
L 246.506414 353.2239 
L 252.364803 353.028865 
L 258.223192 353.2239 
L 392.966145 353.2239 
L 398.824534 353.048604 
L 404.682924 353.2239 
L 726.894333 353.2239 
L 732.752722 353.014844 
L 738.611112 353.192735 
L 762.044669 353.2239 
L 873.354065 353.2239 
L 879.212454 352.520968 
L 885.070843 353.2239 
L 890.929232 352.362041 
L 896.787622 353.2239 
L 949.513125 353.2239 
L 949.513125 353.2239 
" style="fill:none;stroke:#e4d354;stroke-linecap:square;"/>
   </g>
   <g id="line2d_24">
    <path clip-path="url(#peddeba3e9f)" d="M 76.613125 253.539024 
L 82.471514 351.442631 
L 88.329904 353.2239 
L 94.188293 352.696117 
L 100.046682 353.190914 
L 123.480239 353.2239 
L 199.639299 353.2239 
L 205.497689 353.091954 
L 211.356078 353.2239 
L 246.506414 353.2239 
L 252.364803 353.058967 
L 258.223192 353.2239 
L 515.99232 353.2239 
L 521.850709 353.105269 
L 527.709098 353.2239 
L 873.354065 353.2239 
L 879.212454 351.912015 
L 885.070843 353.2239 
L 949.513125 353.2239 
L 949.513125 353.2239 
" style="fill:none;stroke:#2b908f;stroke-linecap:square;"/>
   </g>
   <g id="line2d_25">
    <path clip-path="url(#peddeba3e9f)" d="M 76.613125 252.784804 
L 82.471514 351.674347 
L 88.329904 353.2239 
L 94.188293 352.942163 
L 100.046682 353.2239 
L 246.506414 353.2239 
L 252.364803 352.801295 
L 258.223192 353.2239 
L 351.95742 353.2239 
L 357.81581 353.073493 
L 363.674199 353.2239 
L 392.966145 353.2239 
L 398.824534 353.062138 
L 404.682924 353.2239 
L 469.125206 353.2239 
L 474.983595 353.016964 
L 480.841984 353.2239 
L 949.513125 353.2239 
L 949.513125 353.2239 
" style="fill:none;stroke:#f45b5b;stroke-linecap:square;"/>
   </g>
   <g id="line2d_26">
    <path clip-path="url(#peddeba3e9f)" d="M 76.613125 264.744852 
L 82.471514 349.937542 
L 88.329904 353.2239 
L 392.966145 353.2239 
L 398.824534 352.947466 
L 404.682924 353.2239 
L 885.070843 353.2239 
L 890.929232 350.340706 
L 896.787622 353.2239 
L 949.513125 353.2239 
L 949.513125 353.2239 
" style="fill:none;stroke:#91e8e1;stroke-linecap:square;"/>
   </g>
   <g id="line2d_27">
    <path clip-path="url(#peddeba3e9f)" d="M 76.613125 248.897327 
L 82.471514 351.502281 
L 88.329904 353.2239 
L 94.188293 352.709024 
L 100.046682 353.2239 
L 199.639299 353.2239 
L 205.497689 353.063001 
L 211.356078 353.2239 
L 246.506414 353.2239 
L 252.364803 352.918192 
L 258.223192 353.2239 
L 873.354065 353.2239 
L 879.212454 352.101002 
L 885.070843 353.2239 
L 890.929232 352.813274 
L 896.787622 353.2239 
L 949.513125 353.2239 
L 949.513125 353.2239 
" style="fill:none;stroke:#7cb5ec;stroke-linecap:square;"/>
   </g>
   <g id="line2d_28">
    <path clip-path="url(#peddeba3e9f)" d="M 76.613125 246.761218 
L 82.471514 351.530918 
L 88.329904 353.2239 
L 94.188293 352.5588 
L 100.046682 353.2239 
L 199.639299 353.2239 
L 205.497689 353.023904 
L 211.356078 353.2239 
L 246.506414 353.2239 
L 252.364803 352.940186 
L 258.223192 353.2239 
L 428.116481 353.2239 
L 433.97487 353.098425 
L 439.833259 353.2239 
L 873.354065 353.2239 
L 879.212454 352.773839 
L 885.070843 353.2239 
L 890.929232 352.400897 
L 896.787622 353.2239 
L 949.513125 353.2239 
L 949.513125 353.2239 
" style="fill:none;stroke:#434348;stroke-linecap:square;"/>
   </g>
   <g id="line2d_29">
    <path clip-path="url(#peddeba3e9f)" d="M 76.613125 261.943554 
L 82.471514 352.124138 
L 88.329904 353.2239 
L 94.188293 352.67402 
L 100.046682 353.2239 
L 199.639299 353.2239 
L 205.497689 352.67402 
L 211.356078 353.2239 
L 246.506414 353.2239 
L 252.364803 352.67402 
L 258.223192 353.2239 
L 621.443326 353.2239 
L 627.301716 351.427979 
L 633.160105 353.2239 
L 949.513125 353.2239 
L 949.513125 353.2239 
" style="fill:none;stroke:#90ed7d;stroke-linecap:square;"/>
   </g>
   <g id="line2d_30">
    <path clip-path="url(#peddeba3e9f)" d="M 76.613125 255.368612 
L 82.471514 352.612306 
L 88.329904 353.2239 
L 949.513125 353.2239 
L 949.513125 353.2239 
" style="fill:none;stroke:#f7a35c;stroke-linecap:square;"/>
   </g>
   <g id="line2d_31">
    <path clip-path="url(#peddeba3e9f)" d="M 76.613125 255.312014 
L 82.471514 351.181948 
L 88.329904 353.2239 
L 94.188293 352.815509 
L 100.046682 353.121802 
L 111.763461 353.2239 
L 246.506414 353.2239 
L 252.364803 353.019705 
L 258.223192 353.2239 
L 428.116481 353.2239 
L 433.97487 353.002797 
L 439.833259 353.2239 
L 469.125206 353.2239 
L 474.983595 353.1034 
L 480.841984 353.2239 
L 521.850709 353.2239 
L 527.709098 352.937571 
L 533.567487 353.2239 
L 726.894333 353.2239 
L 732.752722 352.780894 
L 738.611112 353.2239 
L 949.513125 353.2239 
L 949.513125 353.2239 
" style="fill:none;stroke:#8085e9;stroke-linecap:square;"/>
   </g>
   <g id="line2d_32">
    <path clip-path="url(#peddeba3e9f)" d="M 76.613125 245.698569 
L 82.471514 351.344283 
L 88.329904 353.2239 
L 94.188293 352.602739 
L 100.046682 353.215833 
L 182.064132 353.2239 
L 199.639299 353.2239 
L 205.497689 352.981889 
L 211.356078 353.2239 
L 246.506414 353.2239 
L 252.364803 352.901219 
L 258.223192 353.2239 
L 392.966145 353.2239 
L 398.824534 353.059284 
L 404.682924 353.2239 
L 621.443326 353.2239 
L 627.301716 353.077265 
L 633.160105 353.2239 
L 726.894333 353.2239 
L 732.752722 353.097017 
L 750.32789 353.2239 
L 873.354065 353.2239 
L 879.212454 352.523143 
L 885.070843 353.118943 
L 890.929232 353.113778 
L 902.646011 353.2239 
L 949.513125 353.2239 
L 949.513125 353.2239 
" style="fill:none;stroke:#f15c80;stroke-linecap:square;"/>
   </g>
   <g id="line2d_33">
    <path clip-path="url(#peddeba3e9f)" d="M 76.613125 245.195544 
L 82.471514 351.219245 
L 88.329904 353.2239 
L 94.188293 352.599723 
L 100.046682 353.219344 
L 199.639299 353.2239 
L 205.497689 353.023435 
L 211.356078 353.2239 
L 246.506414 353.2239 
L 252.364803 352.945982 
L 258.223192 353.2239 
L 392.966145 353.2239 
L 398.824534 353.07628 
L 404.682924 353.2239 
L 674.16883 353.2239 
L 680.027219 353.057689 
L 685.885608 353.2239 
L 726.894333 353.2239 
L 732.752722 352.867368 
L 738.611112 353.2239 
L 873.354065 353.2239 
L 879.212454 352.385069 
L 885.070843 353.2239 
L 890.929232 352.854159 
L 896.787622 353.2239 
L 949.513125 353.2239 
L 949.513125 353.2239 
" style="fill:none;stroke:#e4d354;stroke-linecap:square;"/>
   </g>
   <g id="line2d_34">
    <path clip-path="url(#peddeba3e9f)" d="M 76.613125 248.820379 
L 82.471514 351.564177 
L 88.329904 353.2239 
L 94.188293 352.702273 
L 100.046682 353.2239 
L 199.639299 353.2239 
L 205.497689 353.03083 
L 211.356078 353.2239 
L 246.506414 353.2239 
L 252.364803 352.980022 
L 258.223192 353.2239 
L 873.354065 353.2239 
L 879.212454 352.228889 
L 885.070843 353.2239 
L 890.929232 352.859889 
L 896.787622 353.2239 
L 949.513125 353.2239 
L 949.513125 353.2239 
" style="fill:none;stroke:#2b908f;stroke-linecap:square;"/>
   </g>
   <g id="line2d_35">
    <path clip-path="url(#peddeba3e9f)" d="M 76.613125 246.076315 
L 82.471514 351.261325 
L 88.329904 353.2239 
L 94.188293 352.644473 
L 100.046682 353.214554 
L 170.347353 353.2239 
L 199.639299 353.2239 
L 205.497689 352.999605 
L 211.356078 353.2239 
L 246.506414 353.2239 
L 252.364803 352.892131 
L 258.223192 353.2239 
L 392.966145 353.2239 
L 398.824534 353.059965 
L 404.682924 353.2239 
L 428.116481 353.2239 
L 433.97487 353.103326 
L 439.833259 353.2239 
L 732.752722 353.184004 
L 738.611112 353.098588 
L 744.469501 353.2239 
L 767.903058 353.2239 
L 773.761447 353.058182 
L 779.619836 353.2239 
L 873.354065 353.2239 
L 879.212454 352.345844 
L 885.070843 353.2239 
L 890.929232 353.086659 
L 896.787622 353.2239 
L 949.513125 353.2239 
L 949.513125 353.2239 
" style="fill:none;stroke:#f45b5b;stroke-linecap:square;"/>
   </g>
   <g id="line2d_36">
    <path clip-path="url(#peddeba3e9f)" d="M 76.613125 249.077933 
L 82.471514 351.443928 
L 88.329904 353.2239 
L 94.188293 352.770181 
L 100.046682 353.200632 
L 129.338628 353.2239 
L 199.639299 353.2239 
L 205.497689 353.049393 
L 211.356078 353.2239 
L 246.506414 353.2239 
L 252.364803 353.014491 
L 258.223192 353.2239 
L 428.116481 353.211034 
L 433.97487 353.080757 
L 439.833259 353.2239 
L 621.443326 353.2239 
L 627.301716 353.09525 
L 633.160105 353.2239 
L 674.16883 353.2239 
L 680.027219 353.08391 
L 685.885608 353.2239 
L 873.354065 353.2239 
L 879.212454 352.109594 
L 885.070843 353.2239 
L 890.929232 352.97845 
L 896.787622 353.2239 
L 949.513125 353.2239 
L 949.513125 353.2239 
" style="fill:none;stroke:#91e8e1;stroke-linecap:square;"/>
   </g>
   <g id="line2d_37">
    <path clip-path="url(#peddeba3e9f)" d="M 76.613125 254.639829 
L 82.471514 351.368137 
L 88.329904 353.2239 
L 94.188293 352.510145 
L 100.046682 353.2239 
L 199.639299 353.2239 
L 205.497689 352.995498 
L 211.356078 353.2239 
L 246.506414 353.2239 
L 252.364803 352.966948 
L 258.223192 353.2239 
L 392.966145 353.2239 
L 398.824534 353.106403 
L 404.682924 353.2239 
L 515.99232 353.2239 
L 521.850709 353.112689 
L 527.709098 353.2239 
L 621.443326 353.2239 
L 627.301716 353.106246 
L 633.160105 353.2239 
L 726.894333 353.2239 
L 732.752722 353.003349 
L 738.611112 353.2239 
L 949.513125 353.2239 
L 949.513125 353.2239 
" style="fill:none;stroke:#7cb5ec;stroke-linecap:square;"/>
   </g>
   <g id="line2d_38">
    <path clip-path="url(#peddeba3e9f)" d="M 76.613125 247.556774 
L 82.471514 351.425498 
L 88.329904 353.2239 
L 94.188293 352.675368 
L 100.046682 353.219982 
L 199.639299 353.2239 
L 205.497689 353.086767 
L 211.356078 353.2239 
L 246.506414 353.2239 
L 252.364803 353.031913 
L 258.223192 353.2239 
L 726.894333 353.2239 
L 732.752722 353.082109 
L 744.469501 353.2239 
L 873.354065 353.2239 
L 879.212454 351.842933 
L 885.070843 353.2239 
L 890.929232 352.590498 
L 896.787622 353.2239 
L 949.513125 353.2239 
L 949.513125 353.2239 
" style="fill:none;stroke:#434348;stroke-linecap:square;"/>
   </g>
   <g id="line2d_39">
    <path clip-path="url(#peddeba3e9f)" d="M 76.613125 270.999283 
L 82.471514 351.289198 
L 88.329904 353.2239 
L 949.513125 353.2239 
L 949.513125 353.2239 
" style="fill:none;stroke:#90ed7d;stroke-linecap:square;"/>
   </g>
   <g id="line2d_40">
    <path clip-path="url(#peddeba3e9f)" d="M 76.613125 256.962268 
L 82.471514 351.950604 
L 88.329904 353.2239 
L 94.188293 352.714581 
L 100.046682 353.2239 
L 246.506414 353.2239 
L 252.364803 352.96924 
L 258.223192 353.2239 
L 392.966145 353.2239 
L 398.824534 352.900186 
L 404.682924 353.2239 
L 949.513125 353.2239 
L 949.513125 353.2239 
" style="fill:none;stroke:#f7a35c;stroke-linecap:square;"/>
   </g>
   <g id="line2d_41">
    <path clip-path="url(#peddeba3e9f)" d="M 76.613125 251.49131 
L 82.471514 351.501486 
L 88.329904 353.2239 
L 94.188293 352.729164 
L 100.046682 353.2239 
L 199.639299 353.2239 
L 205.497689 353.095635 
L 211.356078 353.2239 
L 246.506414 353.2239 
L 252.364803 353.040665 
L 258.223192 353.2239 
L 428.116481 353.2239 
L 433.97487 353.063398 
L 439.833259 353.2239 
L 521.850709 353.2239 
L 527.709098 353.093506 
L 533.567487 353.2239 
L 873.354065 353.2239 
L 879.212454 352.230218 
L 885.070843 353.2239 
L 890.929232 352.879671 
L 896.787622 353.2239 
L 949.513125 353.2239 
L 949.513125 353.2239 
" style="fill:none;stroke:#8085e9;stroke-linecap:square;"/>
   </g>
   <g id="line2d_42">
    <path clip-path="url(#peddeba3e9f)" d="M 76.613125 256.764492 
L 82.471514 351.550797 
L 88.329904 353.2239 
L 94.188293 352.643153 
L 100.046682 353.2239 
L 199.639299 353.2239 
L 205.497689 353.057972 
L 211.356078 353.2239 
L 246.506414 353.2239 
L 252.364803 353.002663 
L 258.223192 353.2239 
L 428.116481 353.2239 
L 433.97487 353.103781 
L 439.833259 353.2239 
L 873.354065 353.2239 
L 879.212454 352.835331 
L 885.070843 353.2239 
L 890.929232 352.867888 
L 896.787622 353.2239 
L 949.513125 353.2239 
L 949.513125 353.2239 
" style="fill:none;stroke:#f15c80;stroke-linecap:square;"/>
   </g>
   <g id="line2d_43">
    <path clip-path="url(#peddeba3e9f)" d="M 76.613125 253.627419 
L 82.471514 351.627809 
L 88.329904 353.2239 
L 94.188293 352.649306 
L 100.046682 353.2239 
L 199.639299 353.2239 
L 205.497689 353.112174 
L 211.356078 353.2239 
L 246.506414 353.2239 
L 252.364803 353.096212 
L 258.223192 353.2239 
L 873.354065 353.2239 
L 879.212454 352.838873 
L 885.070843 353.2239 
L 890.929232 352.915806 
L 896.787622 353.2239 
L 949.513125 353.2239 
L 949.513125 353.2239 
" style="fill:none;stroke:#e4d354;stroke-linecap:square;"/>
   </g>
   <g id="line2d_44">
    <path clip-path="url(#peddeba3e9f)" d="M 76.613125 256.89931 
L 82.471514 351.573977 
L 88.329904 353.2239 
L 94.188293 352.761664 
L 100.046682 353.2239 
L 199.639299 353.2239 
L 205.497689 353.082661 
L 211.356078 353.2239 
L 246.506414 353.2239 
L 252.364803 353.044141 
L 258.223192 353.2239 
L 873.354065 353.2239 
L 879.212454 352.650091 
L 885.070843 353.2239 
L 890.929232 352.787631 
L 896.787622 353.2239 
L 949.513125 353.2239 
L 949.513125 353.2239 
" style="fill:none;stroke:#2b908f;stroke-linecap:square;"/>
   </g>
   <g id="line2d_45">
    <path clip-path="url(#peddeba3e9f)" d="M 76.613125 274.174511 
L 82.471514 351.959112 
L 88.329904 353.2239 
L 94.188293 351.959112 
L 100.046682 353.2239 
L 246.506414 353.2239 
L 252.364803 352.591506 
L 258.223192 353.2239 
L 949.513125 353.2239 
L 949.513125 353.2239 
" style="fill:none;stroke:#f45b5b;stroke-linecap:square;"/>
   </g>
   <g id="line2d_46">
    <path clip-path="url(#peddeba3e9f)" d="M 76.613125 255.080533 
L 82.471514 352.145403 
L 88.329904 353.2239 
L 94.188293 352.684651 
L 100.046682 353.2239 
L 521.850709 353.2239 
L 527.709098 352.455861 
L 533.567487 353.2239 
L 873.354065 353.2239 
L 879.212454 351.40953 
L 885.070843 353.2239 
L 949.513125 353.2239 
L 949.513125 353.2239 
" style="fill:none;stroke:#91e8e1;stroke-linecap:square;"/>
   </g>
   <g id="line2d_47">
    <path clip-path="url(#peddeba3e9f)" d="M 76.613125 264.755663 
L 82.471514 351.322935 
L 88.329904 353.2239 
L 94.188293 352.833959 
L 100.046682 353.2239 
L 351.95742 353.2239 
L 357.81581 353.07616 
L 363.674199 353.2239 
L 428.116481 353.2239 
L 433.97487 352.972946 
L 439.833259 353.2239 
L 469.125206 353.2239 
L 474.983595 353.071045 
L 504.275541 353.2239 
L 674.16883 353.2239 
L 680.027219 353.049411 
L 685.885608 353.2239 
L 855.778897 353.2239 
L 861.637286 353.082854 
L 867.495675 353.2239 
L 873.354065 353.2239 
L 879.212454 352.863233 
L 885.070843 353.2239 
L 890.929232 352.71129 
L 896.787622 353.2239 
L 949.513125 353.2239 
L 949.513125 353.2239 
" style="fill:none;stroke:#7cb5ec;stroke-linecap:square;"/>
   </g>
   <g id="line2d_48">
    <path clip-path="url(#peddeba3e9f)" d="M 76.613125 254.298968 
L 82.471514 351.495852 
L 88.329904 353.2239 
L 94.188293 352.768848 
L 100.046682 353.2239 
L 199.639299 353.2239 
L 205.497689 353.108697 
L 211.356078 353.2239 
L 246.506414 353.2239 
L 252.364803 353.062616 
L 258.223192 353.2239 
L 873.354065 353.2239 
L 879.212454 352.62589 
L 885.070843 353.213673 
L 890.929232 352.800714 
L 896.787622 353.2239 
L 949.513125 353.2239 
L 949.513125 353.2239 
" style="fill:none;stroke:#434348;stroke-linecap:square;"/>
   </g>
   <g id="line2d_49">
    <path clip-path="url(#peddeba3e9f)" d="M 76.613125 266.016724 
L 82.471514 351.153973 
L 88.329904 353.2239 
L 94.188293 352.863913 
L 100.046682 353.2239 
L 199.639299 353.2239 
L 205.497689 353.043906 
L 211.356078 353.2239 
L 246.506414 353.2239 
L 252.364803 353.043906 
L 258.223192 353.2239 
L 726.894333 353.2239 
L 732.752722 352.992798 
L 738.611112 353.2239 
L 873.354065 353.2239 
L 879.212454 352.670093 
L 885.070843 353.2239 
L 890.929232 352.660888 
L 896.787622 353.2239 
L 949.513125 353.2239 
L 949.513125 353.2239 
" style="fill:none;stroke:#90ed7d;stroke-linecap:square;"/>
   </g>
   <g id="line2d_50">
    <path clip-path="url(#peddeba3e9f)" d="M 76.613125 253.268751 
L 82.471514 351.297834 
L 88.329904 353.2239 
L 94.188293 352.772015 
L 100.046682 353.216492 
L 187.922521 353.2239 
L 246.506414 353.2239 
L 252.364803 353.090557 
L 258.223192 353.2239 
L 873.354065 353.2239 
L 879.212454 352.68788 
L 885.070843 353.174633 
L 890.929232 352.875062 
L 896.787622 353.2239 
L 949.513125 353.2239 
L 949.513125 353.2239 
" style="fill:none;stroke:#f7a35c;stroke-linecap:square;"/>
   </g>
   <g id="line2d_51">
    <path clip-path="url(#peddeba3e9f)" d="M 76.613125 254.214388 
L 82.471514 351.469613 
L 88.329904 353.2239 
L 94.188293 352.717247 
L 100.046682 353.217567 
L 199.639299 353.2239 
L 205.497689 353.11307 
L 217.214467 353.2239 
L 246.506414 353.2239 
L 252.364803 353.024405 
L 258.223192 353.2239 
L 873.354065 353.2239 
L 879.212454 352.496192 
L 885.070843 353.190272 
L 890.929232 352.759978 
L 896.787622 353.2239 
L 949.513125 353.2239 
L 949.513125 353.2239 
" style="fill:none;stroke:#8085e9;stroke-linecap:square;"/>
   </g>
   <g id="line2d_52">
    <path clip-path="url(#peddeba3e9f)" d="M 76.613125 255.40804 
L 82.471514 351.486574 
L 88.329904 353.2239 
L 94.188293 352.787342 
L 100.046682 353.206081 
L 141.055407 353.2239 
L 246.506414 353.2239 
L 252.364803 353.099169 
L 258.223192 353.2239 
L 873.354065 353.2239 
L 879.212454 352.499232 
L 885.070843 353.2239 
L 890.929232 352.879656 
L 896.787622 353.2239 
L 949.513125 353.2239 
L 949.513125 353.2239 
" style="fill:none;stroke:#f15c80;stroke-linecap:square;"/>
   </g>
   <g id="line2d_53">
    <path clip-path="url(#peddeba3e9f)" d="M 76.613125 257.960687 
L 82.471514 351.679549 
L 88.329904 353.2239 
L 94.188293 352.927723 
L 100.046682 353.2239 
L 246.506414 353.2239 
L 252.364803 353.033501 
L 258.223192 353.2239 
L 428.116481 353.2239 
L 433.97487 353.10736 
L 439.833259 353.2239 
L 873.354065 353.2239 
L 879.212454 352.684642 
L 885.070843 353.185034 
L 890.929232 352.713628 
L 896.787622 353.2239 
L 949.513125 353.2239 
L 949.513125 353.2239 
" style="fill:none;stroke:#e4d354;stroke-linecap:square;"/>
   </g>
   <g id="line2d_54">
    <path clip-path="url(#peddeba3e9f)" d="M 76.613125 260.766437 
L 82.471514 351.30972 
L 88.329904 353.2239 
L 94.188293 352.841844 
L 100.046682 353.220001 
L 199.639299 353.2239 
L 211.356078 353.2239 
L 873.354065 353.2239 
L 879.212454 352.574648 
L 885.070843 353.194688 
L 890.929232 352.740833 
L 896.787622 353.2239 
L 949.513125 353.2239 
L 949.513125 353.2239 
" style="fill:none;stroke:#2b908f;stroke-linecap:square;"/>
   </g>
   <g id="line2d_55">
    <path clip-path="url(#peddeba3e9f)" d="M 76.613125 257.626185 
L 82.471514 351.342623 
L 88.329904 353.2239 
L 94.188293 352.830601 
L 100.046682 353.2239 
L 873.354065 353.2239 
L 879.212454 352.659179 
L 885.070843 353.202813 
L 890.929232 352.85183 
L 896.787622 353.2239 
L 949.513125 353.2239 
L 949.513125 353.2239 
" style="fill:none;stroke:#f45b5b;stroke-linecap:square;"/>
   </g>
   <g id="line2d_56">
    <path clip-path="url(#peddeba3e9f)" d="M 76.613125 253.880522 
L 82.471514 351.434147 
L 88.329904 353.2239 
L 94.188293 352.684522 
L 100.046682 353.216895 
L 193.78091 353.2239 
L 246.506414 353.2239 
L 252.364803 353.080299 
L 258.223192 353.2239 
L 873.354065 353.2239 
L 879.212454 352.651018 
L 885.070843 353.203946 
L 890.929232 352.793662 
L 896.787622 353.2239 
L 949.513125 353.2239 
L 949.513125 353.2239 
" style="fill:none;stroke:#91e8e1;stroke-linecap:square;"/>
   </g>
   <g id="line2d_57">
    <path clip-path="url(#peddeba3e9f)" d="M 76.613125 253.724718 
L 82.471514 351.328118 
L 88.329904 353.2239 
L 94.188293 352.75396 
L 100.046682 353.2239 
L 246.506414 353.2239 
L 252.364803 353.085054 
L 258.223192 353.2239 
L 392.966145 353.2239 
L 398.824534 353.093084 
L 404.682924 353.2239 
L 873.354065 353.2239 
L 879.212454 352.561941 
L 885.070843 353.19255 
L 890.929232 352.674669 
L 896.787622 353.2239 
L 949.513125 353.2239 
L 949.513125 353.2239 
" style="fill:none;stroke:#7cb5ec;stroke-linecap:square;"/>
   </g>
   <g id="line2d_58">
    <path clip-path="url(#peddeba3e9f)" d="M 76.613125 262.348646 
L 82.471514 351.315876 
L 88.329904 353.2239 
L 94.188293 352.824546 
L 100.046682 353.135154 
L 111.763461 353.2239 
L 246.506414 353.2239 
L 252.364803 353.002037 
L 258.223192 353.2239 
L 674.16883 353.2239 
L 680.027219 353.111177 
L 685.885608 353.2239 
L 726.894333 353.2239 
L 732.752722 353.105001 
L 738.611112 353.104299 
L 744.469501 353.2239 
L 873.354065 353.2239 
L 879.212454 352.2357 
L 885.070843 353.2239 
L 890.929232 352.793608 
L 896.787622 353.2239 
L 949.513125 353.2239 
L 949.513125 353.2239 
" style="fill:none;stroke:#434348;stroke-linecap:square;"/>
   </g>
   <g id="line2d_59">
    <path clip-path="url(#peddeba3e9f)" d="M 76.613125 257.008055 
L 82.471514 351.592406 
L 88.329904 353.2239 
L 94.188293 352.865252 
L 100.046682 353.216868 
L 193.78091 353.2239 
L 199.639299 353.2239 
L 205.497689 353.062157 
L 211.356078 353.2239 
L 246.506414 353.2239 
L 252.364803 353.048092 
L 258.223192 353.2239 
L 726.894333 353.2239 
L 732.752722 353.092561 
L 744.469501 353.2239 
L 873.354065 353.2239 
L 879.212454 352.517623 
L 885.070843 353.201658 
L 890.929232 352.853904 
L 896.787622 353.2239 
L 949.513125 353.2239 
L 949.513125 353.2239 
" style="fill:none;stroke:#90ed7d;stroke-linecap:square;"/>
   </g>
   <g id="line2d_60">
    <path clip-path="url(#peddeba3e9f)" d="M 76.613125 254.326949 
L 82.471514 351.382554 
L 88.329904 353.2239 
L 94.188293 352.770394 
L 100.046682 353.2239 
L 246.506414 353.2239 
L 252.364803 353.043591 
L 258.223192 353.2239 
L 726.894333 353.2239 
L 732.752722 353.086259 
L 744.469501 353.2239 
L 873.354065 353.2239 
L 879.212454 352.74289 
L 885.070843 353.197923 
L 890.929232 352.848417 
L 896.787622 353.2239 
L 949.513125 353.2239 
L 949.513125 353.2239 
" style="fill:none;stroke:#f7a35c;stroke-linecap:square;"/>
   </g>
   <g id="line2d_61">
    <path clip-path="url(#peddeba3e9f)" d="M 76.613125 254.847145 
L 82.471514 351.540953 
L 88.329904 353.2239 
L 94.188293 352.754408 
L 100.046682 353.2239 
L 873.354065 353.2239 
L 879.212454 352.662048 
L 885.070843 353.185219 
L 890.929232 352.820104 
L 896.787622 353.2239 
L 949.513125 353.2239 
L 949.513125 353.2239 
" style="fill:none;stroke:#8085e9;stroke-linecap:square;"/>
   </g>
   <g id="line2d_62">
    <path clip-path="url(#peddeba3e9f)" d="M 76.613125 258.008382 
L 82.471514 351.738392 
L 88.329904 353.2239 
L 94.188293 352.838768 
L 100.046682 353.212896 
L 164.488964 353.2239 
L 246.506414 353.2239 
L 252.364803 353.04784 
L 258.223192 353.2239 
L 428.116481 353.2239 
L 433.97487 353.091618 
L 439.833259 353.2239 
L 873.354065 353.2239 
L 879.212454 352.417209 
L 885.070843 353.185149 
L 890.929232 352.734923 
L 896.787622 353.2239 
L 949.513125 353.2239 
L 949.513125 353.2239 
" style="fill:none;stroke:#f15c80;stroke-linecap:square;"/>
   </g>
   <g id="line2d_63">
    <path clip-path="url(#peddeba3e9f)" d="M 76.613125 256.577526 
L 82.471514 351.501156 
L 88.329904 353.2239 
L 94.188293 352.859593 
L 100.046682 353.2239 
L 873.354065 353.2239 
L 879.212454 352.540733 
L 885.070843 353.193943 
L 890.929232 352.921643 
L 896.787622 353.2239 
L 949.513125 353.2239 
L 949.513125 353.2239 
" style="fill:none;stroke:#e4d354;stroke-linecap:square;"/>
   </g>
   <g id="line2d_64">
    <path clip-path="url(#peddeba3e9f)" d="M 76.613125 259.697428 
L 82.471514 351.582804 
L 88.329904 353.2239 
L 94.188293 352.763947 
L 100.046682 353.219434 
L 199.639299 353.2239 
L 205.497689 353.145753 
L 217.214467 353.2239 
L 246.506414 353.2239 
L 252.364803 353.092166 
L 258.223192 353.2239 
L 873.354065 353.2239 
L 879.212454 352.687767 
L 885.070843 353.197875 
L 890.929232 352.846908 
L 896.787622 353.2239 
L 949.513125 353.2239 
L 949.513125 353.2239 
" style="fill:none;stroke:#2b908f;stroke-linecap:square;"/>
   </g>
   <g id="line2d_65">
    <path clip-path="url(#peddeba3e9f)" d="M 76.613125 255.905342 
L 82.471514 351.563242 
L 88.329904 353.2239 
L 94.188293 352.794083 
L 100.046682 353.216085 
L 187.922521 353.2239 
L 246.506414 353.2239 
L 252.364803 353.081279 
L 258.223192 353.2239 
L 873.354065 353.2239 
L 879.212454 352.597637 
L 885.070843 353.210944 
L 890.929232 352.854649 
L 896.787622 353.2239 
L 949.513125 353.2239 
L 949.513125 353.2239 
" style="fill:none;stroke:#f45b5b;stroke-linecap:square;"/>
   </g>
   <g id="line2d_66">
    <path clip-path="url(#peddeba3e9f)" d="M 76.613125 252.569222 
L 82.471514 351.470275 
L 88.329904 353.2239 
L 94.188293 352.824137 
L 100.046682 353.207909 
L 141.055407 353.2239 
L 199.639299 353.2239 
L 205.497689 353.101306 
L 211.356078 353.2239 
L 246.506414 353.2239 
L 252.364803 353.053334 
L 258.223192 353.2239 
L 873.354065 353.2239 
L 879.212454 352.539995 
L 885.070843 353.2239 
L 890.929232 352.732519 
L 896.787622 353.2239 
L 949.513125 353.2239 
L 949.513125 353.2239 
" style="fill:none;stroke:#91e8e1;stroke-linecap:square;"/>
   </g>
   <g id="line2d_67">
    <path clip-path="url(#peddeba3e9f)" d="M 76.613125 254.889752 
L 82.471514 351.498637 
L 88.329904 353.2239 
L 94.188293 352.793289 
L 100.046682 353.212642 
L 158.630575 353.2239 
L 199.639299 353.2239 
L 205.497689 353.111322 
L 211.356078 353.2239 
L 246.506414 353.2239 
L 252.364803 353.07192 
L 258.223192 353.2239 
L 873.354065 353.2239 
L 879.212454 352.617017 
L 885.070843 353.209551 
L 890.929232 352.818507 
L 896.787622 353.2239 
L 949.513125 353.2239 
L 949.513125 353.2239 
" style="fill:none;stroke:#7cb5ec;stroke-linecap:square;"/>
   </g>
   <g id="line2d_68">
    <path clip-path="url(#peddeba3e9f)" d="M 76.613125 252.181301 
L 82.471514 351.64323 
L 88.329904 353.2239 
L 94.188293 352.729362 
L 100.046682 353.219278 
L 199.639299 353.2239 
L 205.497689 353.12222 
L 217.214467 353.2239 
L 246.506414 353.2239 
L 252.364803 353.094488 
L 258.223192 353.2239 
L 873.354065 353.2239 
L 879.212454 352.595511 
L 885.070843 353.196682 
L 890.929232 352.7835 
L 896.787622 353.2239 
L 949.513125 353.2239 
L 949.513125 353.2239 
" style="fill:none;stroke:#434348;stroke-linecap:square;"/>
   </g>
   <g id="line2d_69">
    <path clip-path="url(#peddeba3e9f)" d="M 76.613125 255.346354 
L 82.471514 351.53425 
L 88.329904 353.2239 
L 94.188293 352.711516 
L 100.046682 353.2117 
L 158.630575 353.2239 
L 246.506414 353.2239 
L 252.364803 353.095804 
L 258.223192 353.2239 
L 726.894333 353.2239 
L 732.752722 353.111632 
L 744.469501 353.2239 
L 873.354065 353.2239 
L 879.212454 352.580899 
L 885.070843 353.198004 
L 890.929232 352.910884 
L 896.787622 353.2239 
L 949.513125 353.2239 
L 949.513125 353.2239 
" style="fill:none;stroke:#90ed7d;stroke-linecap:square;"/>
   </g>
   <g id="line2d_70">
    <path clip-path="url(#peddeba3e9f)" d="M 76.613125 253.792763 
L 82.471514 351.506358 
L 88.329904 353.2239 
L 94.188293 352.757762 
L 100.046682 353.220314 
L 199.639299 353.2239 
L 205.497689 353.123501 
L 217.214467 353.2239 
L 246.506414 353.2239 
L 252.364803 353.076887 
L 258.223192 353.2239 
L 873.354065 353.2239 
L 879.212454 352.565363 
L 885.070843 353.188876 
L 890.929232 352.827367 
L 896.787622 353.2239 
L 949.513125 353.2239 
L 949.513125 353.2239 
" style="fill:none;stroke:#f7a35c;stroke-linecap:square;"/>
   </g>
   <g id="line2d_71">
    <path clip-path="url(#peddeba3e9f)" d="M 76.613125 252.871291 
L 82.471514 351.506733 
L 88.329904 353.2239 
L 94.188293 352.854616 
L 100.046682 353.205436 
L 141.055407 353.2239 
L 246.506414 353.2239 
L 252.364803 353.039258 
L 258.223192 353.2239 
L 392.966145 353.2239 
L 398.824534 353.064368 
L 404.682924 353.2239 
L 873.354065 353.2239 
L 879.212454 352.508828 
L 885.070843 353.183721 
L 890.929232 352.85779 
L 896.787622 353.2239 
L 949.513125 353.2239 
L 949.513125 353.2239 
" style="fill:none;stroke:#8085e9;stroke-linecap:square;"/>
   </g>
   <g id="line2d_72">
    <path clip-path="url(#peddeba3e9f)" d="M 76.613125 252.32693 
L 82.471514 351.448284 
L 88.329904 353.2239 
L 94.188293 352.668007 
L 100.046682 353.207709 
L 141.055407 353.2239 
L 246.506414 353.2239 
L 252.364803 353.056593 
L 258.223192 353.2239 
L 392.966145 353.2239 
L 398.824534 353.089587 
L 404.682924 353.2239 
L 873.354065 353.2239 
L 879.212454 352.569833 
L 885.070843 353.211858 
L 890.929232 352.906668 
L 896.787622 353.2239 
L 949.513125 353.2239 
L 949.513125 353.2239 
" style="fill:none;stroke:#f15c80;stroke-linecap:square;"/>
   </g>
   <g id="line2d_73">
    <path clip-path="url(#peddeba3e9f)" d="M 76.613125 258.311724 
L 82.471514 351.597239 
L 88.329904 353.2239 
L 94.188293 352.839744 
L 100.046682 353.216397 
L 187.922521 353.2239 
L 246.506414 353.2239 
L 252.364803 353.090346 
L 258.223192 353.2239 
L 873.354065 353.2239 
L 879.212454 352.67564 
L 885.070843 353.203769 
L 890.929232 352.847309 
L 896.787622 353.2239 
L 949.513125 353.2239 
L 949.513125 353.2239 
" style="fill:none;stroke:#e4d354;stroke-linecap:square;"/>
   </g>
   <g id="line2d_74">
    <path clip-path="url(#peddeba3e9f)" d="M 76.613125 253.411201 
L 82.471514 351.543916 
L 88.329904 353.2239 
L 94.188293 352.785793 
L 100.046682 353.213551 
L 164.488964 353.2239 
L 246.506414 353.2239 
L 252.364803 353.079014 
L 258.223192 353.2239 
L 873.354065 353.2239 
L 879.212454 352.69813 
L 885.070843 353.180196 
L 890.929232 352.737485 
L 896.787622 353.2239 
L 949.513125 353.2239 
L 949.513125 353.2239 
" style="fill:none;stroke:#2b908f;stroke-linecap:square;"/>
   </g>
   <g id="line2d_75">
    <path clip-path="url(#peddeba3e9f)" d="M 76.613125 260.150215 
L 82.471514 351.471591 
L 88.329904 353.2239 
L 94.188293 352.744852 
L 100.046682 353.2239 
L 392.966145 353.2239 
L 398.824534 353.10795 
L 404.682924 353.2239 
L 873.354065 353.2239 
L 879.212454 352.605537 
L 885.070843 353.2239 
L 890.929232 352.885493 
L 896.787622 353.2239 
L 949.513125 353.2239 
L 949.513125 353.2239 
" style="fill:none;stroke:#f45b5b;stroke-linecap:square;"/>
   </g>
   <g id="line2d_76">
    <path clip-path="url(#peddeba3e9f)" d="M 76.613125 254.955254 
L 82.471514 351.403641 
L 88.329904 353.2239 
L 94.188293 352.722854 
L 100.046682 353.204873 
L 135.197018 353.2239 
L 246.506414 353.2239 
L 252.364803 353.065341 
L 258.223192 353.2239 
L 873.354065 353.2239 
L 879.212454 352.629082 
L 885.070843 353.189254 
L 890.929232 352.757262 
L 896.787622 353.2239 
L 949.513125 353.2239 
L 949.513125 353.2239 
" style="fill:none;stroke:#91e8e1;stroke-linecap:square;"/>
   </g>
   <g id="line2d_77">
    <path clip-path="url(#peddeba3e9f)" d="M 76.613125 255.252872 
L 82.471514 351.595815 
L 88.329904 353.2239 
L 94.188293 352.757066 
L 100.046682 353.206394 
L 141.055407 353.2239 
L 199.639299 353.2239 
L 205.497689 353.095521 
L 211.356078 353.2239 
L 246.506414 353.2239 
L 252.364803 353.048838 
L 258.223192 353.2239 
L 873.354065 353.2239 
L 879.212454 352.504281 
L 885.070843 353.138402 
L 890.929232 352.813674 
L 896.787622 353.2239 
L 949.513125 353.2239 
L 949.513125 353.2239 
" style="fill:none;stroke:#7cb5ec;stroke-linecap:square;"/>
   </g>
   <g id="line2d_78">
    <path clip-path="url(#peddeba3e9f)" d="M 76.613125 255.800413 
L 82.471514 351.617335 
L 88.329904 353.2239 
L 94.188293 352.688378 
L 100.046682 353.206049 
L 141.055407 353.2239 
L 199.639299 353.2239 
L 205.497689 353.110845 
L 211.356078 353.2239 
L 246.506414 353.2239 
L 252.364803 353.081094 
L 258.223192 353.2239 
L 873.354065 353.2239 
L 879.212454 352.78225 
L 885.070843 353.2239 
L 890.929232 352.888893 
L 896.787622 353.2239 
L 949.513125 353.2239 
L 949.513125 353.2239 
" style="fill:none;stroke:#434348;stroke-linecap:square;"/>
   </g>
   <g id="line2d_79">
    <path clip-path="url(#peddeba3e9f)" d="M 76.613125 256.372119 
L 82.471514 351.474783 
L 88.329904 353.2239 
L 94.188293 352.746577 
L 100.046682 353.217493 
L 199.639299 353.2239 
L 205.497689 353.130998 
L 217.214467 353.2239 
L 246.506414 353.2239 
L 252.364803 353.060521 
L 258.223192 353.2239 
L 873.354065 353.2239 
L 879.212454 352.596823 
L 885.070843 353.203676 
L 890.929232 352.821203 
L 896.787622 353.2239 
L 949.513125 353.2239 
L 949.513125 353.2239 
" style="fill:none;stroke:#90ed7d;stroke-linecap:square;"/>
   </g>
   <g id="line2d_80">
    <path clip-path="url(#peddeba3e9f)" d="M 76.613125 258.751156 
L 82.471514 351.411641 
L 88.329904 353.2239 
L 94.188293 352.878049 
L 100.046682 353.2239 
L 246.506414 353.2239 
L 252.364803 353.099393 
L 258.223192 353.2239 
L 726.894333 353.2239 
L 732.752722 353.067259 
L 738.611112 353.204185 
L 773.761447 353.2239 
L 873.354065 353.2239 
L 879.212454 352.65426 
L 885.070843 353.2239 
L 890.929232 352.885374 
L 896.787622 353.2239 
L 949.513125 353.2239 
L 949.513125 353.2239 
" style="fill:none;stroke:#f7a35c;stroke-linecap:square;"/>
   </g>
   <g id="line2d_81">
    <path clip-path="url(#peddeba3e9f)" d="M 76.613125 257.603927 
L 82.471514 351.377708 
L 88.329904 353.2239 
L 94.188293 352.813174 
L 100.046682 353.2239 
L 246.506414 353.2239 
L 252.364803 353.070396 
L 258.223192 353.2239 
L 873.354065 353.2239 
L 879.212454 352.689733 
L 885.070843 353.200259 
L 890.929232 352.783277 
L 896.787622 353.2239 
L 949.513125 353.2239 
L 949.513125 353.2239 
" style="fill:none;stroke:#8085e9;stroke-linecap:square;"/>
   </g>
   <g id="line2d_82">
    <path clip-path="url(#peddeba3e9f)" d="M 76.613125 254.783551 
L 82.471514 351.440608 
L 88.329904 353.2239 
L 94.188293 352.772287 
L 100.046682 353.2239 
L 246.506414 353.2239 
L 252.364803 353.096522 
L 258.223192 353.2239 
L 428.116481 353.2239 
L 433.97487 353.075238 
L 439.833259 353.2239 
L 873.354065 353.2239 
L 879.212454 352.772708 
L 885.070843 353.201092 
L 890.929232 352.785494 
L 896.787622 353.2239 
L 949.513125 353.2239 
L 949.513125 353.2239 
" style="fill:none;stroke:#f15c80;stroke-linecap:square;"/>
   </g>
   <g id="line2d_83">
    <path clip-path="url(#peddeba3e9f)" d="M 76.613125 253.778136 
L 82.471514 351.48347 
L 88.329904 353.2239 
L 94.188293 352.894827 
L 100.046682 353.216587 
L 193.78091 353.2239 
L 246.506414 353.2239 
L 252.364803 353.092271 
L 258.223192 353.2239 
L 726.894333 353.2239 
L 732.752722 353.110137 
L 744.469501 353.2239 
L 873.354065 353.2239 
L 879.212454 352.553948 
L 885.070843 353.203911 
L 890.929232 352.919622 
L 896.787622 353.2239 
L 949.513125 353.2239 
L 949.513125 353.2239 
" style="fill:none;stroke:#e4d354;stroke-linecap:square;"/>
   </g>
   <g id="line2d_84">
    <path clip-path="url(#peddeba3e9f)" d="M 76.613125 256.560992 
L 82.471514 351.698716 
L 88.329904 353.2239 
L 94.188293 352.757006 
L 100.046682 353.2239 
L 726.894333 353.2239 
L 732.752722 353.054888 
L 738.611112 353.199565 
L 767.903058 353.2239 
L 791.336615 353.2239 
L 873.354065 353.2239 
L 879.212454 352.74439 
L 885.070843 353.193628 
L 890.929232 352.734476 
L 896.787622 353.2239 
L 949.513125 353.2239 
L 949.513125 353.2239 
" style="fill:none;stroke:#2b908f;stroke-linecap:square;"/>
   </g>
   <g id="line2d_85">
    <path clip-path="url(#peddeba3e9f)" d="M 76.613125 256.754317 
L 82.471514 351.537277 
L 88.329904 353.2239 
L 94.188293 352.749748 
L 100.046682 353.2239 
L 199.639299 353.2239 
L 205.497689 353.101975 
L 211.356078 353.2239 
L 246.506414 353.2239 
L 252.364803 353.081654 
L 258.223192 353.2239 
L 873.354065 353.2239 
L 879.212454 352.738142 
L 885.070843 353.201638 
L 890.929232 352.819833 
L 896.787622 353.2239 
L 949.513125 353.2239 
L 949.513125 353.2239 
" style="fill:none;stroke:#f45b5b;stroke-linecap:square;"/>
   </g>
   <g id="line2d_86">
    <path clip-path="url(#peddeba3e9f)" d="M 76.613125 257.780717 
L 82.471514 351.5775 
L 88.329904 353.2239 
L 94.188293 352.809645 
L 100.046682 353.218589 
L 199.639299 353.2239 
L 205.497689 353.122992 
L 217.214467 353.2239 
L 246.506414 353.2239 
L 252.364803 353.064571 
L 258.223192 353.2239 
L 873.354065 353.2239 
L 879.212454 352.520033 
L 885.070843 353.1858 
L 890.929232 352.847755 
L 896.787622 353.2239 
L 949.513125 353.2239 
L 949.513125 353.2239 
" style="fill:none;stroke:#91e8e1;stroke-linecap:square;"/>
   </g>
   <g id="line2d_87">
    <path clip-path="url(#peddeba3e9f)" d="M 76.613125 256.398828 
L 82.471514 351.499986 
L 88.329904 353.2239 
L 94.188293 352.773251 
L 100.046682 353.216747 
L 193.78091 353.2239 
L 246.506414 353.2239 
L 252.364803 353.080837 
L 258.223192 353.2239 
L 726.894333 353.2239 
L 732.752722 353.094039 
L 744.469501 353.2239 
L 873.354065 353.2239 
L 879.212454 352.608942 
L 885.070843 353.199567 
L 890.929232 352.757253 
L 896.787622 353.2239 
L 949.513125 353.2239 
L 949.513125 353.2239 
" style="fill:none;stroke:#7cb5ec;stroke-linecap:square;"/>
   </g>
   <g id="line2d_88">
    <path clip-path="url(#peddeba3e9f)" d="M 76.613125 257.030949 
L 82.471514 351.61095 
L 88.329904 353.2239 
L 94.188293 352.791949 
L 100.046682 353.218906 
L 199.639299 353.2239 
L 205.497689 353.12153 
L 217.214467 353.2239 
L 246.506414 353.2239 
L 252.364803 353.0666 
L 258.223192 353.2239 
L 873.354065 353.2239 
L 879.212454 352.659602 
L 885.070843 353.196997 
L 890.929232 352.824689 
L 896.787622 353.2239 
L 949.513125 353.2239 
L 949.513125 353.2239 
" style="fill:none;stroke:#434348;stroke-linecap:square;"/>
   </g>
   <g id="line2d_89">
    <path clip-path="url(#peddeba3e9f)" d="M 76.613125 256.444616 
L 82.471514 351.630969 
L 88.329904 353.2239 
L 94.188293 352.692922 
L 100.046682 353.219475 
L 199.639299 353.2239 
L 205.497689 353.161953 
L 217.214467 353.2239 
L 246.506414 353.2239 
L 252.364803 353.100005 
L 258.223192 353.2239 
L 726.894333 353.2239 
L 732.752722 353.105172 
L 744.469501 353.2239 
L 873.354065 353.2239 
L 879.212454 352.624287 
L 885.070843 353.216874 
L 890.929232 352.777622 
L 896.787622 353.2239 
L 949.513125 353.2239 
L 949.513125 353.2239 
" style="fill:none;stroke:#90ed7d;stroke-linecap:square;"/>
   </g>
   <g id="line2d_90">
    <path clip-path="url(#peddeba3e9f)" d="M 76.613125 256.34223 
L 82.471514 351.50375 
L 88.329904 353.2239 
L 94.188293 352.765884 
L 100.046682 353.219755 
L 199.639299 353.2239 
L 205.497689 353.128566 
L 217.214467 353.2239 
L 246.506414 353.2239 
L 252.364803 353.085045 
L 258.223192 353.2239 
L 873.354065 353.2239 
L 879.212454 352.643339 
L 885.070843 353.220237 
L 890.929232 352.883538 
L 896.787622 353.2239 
L 949.513125 353.2239 
L 949.513125 353.2239 
" style="fill:none;stroke:#f7a35c;stroke-linecap:square;"/>
   </g>
   <g id="line2d_91">
    <path clip-path="url(#peddeba3e9f)" d="M 76.613125 254.152066 
L 82.471514 351.441174 
L 88.329904 353.2239 
L 94.188293 352.609167 
L 100.046682 353.2239 
L 246.506414 353.2239 
L 252.364803 353.03948 
L 258.223192 353.2239 
L 873.354065 353.2239 
L 879.212454 352.623868 
L 885.070843 353.194328 
L 890.929232 352.895153 
L 896.787622 353.2239 
L 949.513125 353.2239 
L 949.513125 353.2239 
" style="fill:none;stroke:#8085e9;stroke-linecap:square;"/>
   </g>
   <g id="line2d_92">
    <path clip-path="url(#peddeba3e9f)" d="M 76.613125 257.973406 
L 82.471514 351.531115 
L 88.329904 353.2239 
L 94.188293 352.836126 
L 100.046682 353.208986 
L 146.913796 353.2239 
L 246.506414 353.2239 
L 252.364803 353.082213 
L 258.223192 353.2239 
L 392.966145 353.2239 
L 398.824534 353.06301 
L 404.682924 353.2239 
L 873.354065 353.2239 
L 879.212454 352.682101 
L 885.070843 353.212759 
L 890.929232 352.887015 
L 896.787622 353.2239 
L 949.513125 353.2239 
L 949.513125 353.2239 
" style="fill:none;stroke:#f15c80;stroke-linecap:square;"/>
   </g>
   <g id="line2d_93">
    <path clip-path="url(#peddeba3e9f)" d="M 76.613125 262.496819 
L 82.471514 351.393657 
L 88.329904 353.2239 
L 94.188293 352.834355 
L 100.046682 353.2239 
L 873.354065 353.2239 
L 879.212454 352.657008 
L 885.070843 353.209107 
L 890.929232 352.800125 
L 896.787622 353.2239 
L 949.513125 353.2239 
L 949.513125 353.2239 
" style="fill:none;stroke:#e4d354;stroke-linecap:square;"/>
   </g>
   <g id="line2d_94">
    <path clip-path="url(#peddeba3e9f)" d="M 76.613125 255.465274 
L 82.471514 351.572762 
L 88.329904 353.2239 
L 94.188293 352.739946 
L 100.046682 353.214411 
L 170.347353 353.2239 
L 246.506414 353.2239 
L 252.364803 353.110029 
L 258.223192 353.2239 
L 873.354065 353.2239 
L 879.212454 352.645087 
L 885.070843 353.193978 
L 890.929232 352.801393 
L 896.787622 353.2239 
L 949.513125 353.2239 
L 949.513125 353.2239 
" style="fill:none;stroke:#2b908f;stroke-linecap:square;"/>
   </g>
   <g id="line2d_95">
    <path clip-path="url(#peddeba3e9f)" d="M 76.613125 255.417579 
L 82.471514 351.625004 
L 88.329904 353.2239 
L 94.188293 352.826041 
L 100.046682 353.221413 
L 199.639299 353.2239 
L 205.497689 353.134382 
L 217.214467 353.2239 
L 246.506414 353.2239 
L 252.364803 353.087136 
L 258.223192 353.2239 
L 873.354065 353.2239 
L 879.212454 352.576091 
L 885.070843 353.175816 
L 890.929232 352.864153 
L 896.787622 353.2239 
L 949.513125 353.2239 
L 949.513125 353.2239 
" style="fill:none;stroke:#f45b5b;stroke-linecap:square;"/>
   </g>
   <g id="line2d_96">
    <path clip-path="url(#peddeba3e9f)" d="M 76.613125 255.01376 
L 82.471514 351.462434 
L 88.329904 353.2239 
L 94.188293 352.747529 
L 100.046682 353.2239 
L 246.506414 353.2239 
L 252.364803 353.102037 
L 258.223192 353.2239 
L 392.966145 353.2239 
L 398.824534 353.078738 
L 404.682924 353.2239 
L 428.116481 353.2239 
L 433.97487 353.110908 
L 439.833259 353.2239 
L 873.354065 353.2239 
L 879.212454 352.582667 
L 885.070843 353.2239 
L 890.929232 352.895705 
L 896.787622 353.2239 
L 949.513125 353.2239 
L 949.513125 353.2239 
" style="fill:none;stroke:#91e8e1;stroke-linecap:square;"/>
   </g>
   <g id="line2d_97">
    <path clip-path="url(#peddeba3e9f)" d="M 76.613125 259.425248 
L 82.471514 351.564832 
L 88.329904 353.2239 
L 94.188293 352.855218 
L 100.046682 353.2239 
L 873.354065 353.2239 
L 879.212454 352.599155 
L 885.070843 353.2239 
L 890.929232 352.928322 
L 896.787622 353.2239 
L 949.513125 353.2239 
L 949.513125 353.2239 
" style="fill:none;stroke:#7cb5ec;stroke-linecap:square;"/>
   </g>
   <g id="line2d_98">
    <path clip-path="url(#peddeba3e9f)" d="M 76.613125 260.740363 
L 82.471514 351.379832 
L 88.329904 353.2239 
L 94.188293 352.773506 
L 100.046682 353.2239 
L 199.639299 353.2239 
L 205.497689 353.104928 
L 211.356078 353.2239 
L 246.506414 353.2239 
L 252.364803 353.070936 
L 258.223192 353.2239 
L 392.966145 353.2239 
L 398.824534 353.084463 
L 404.682924 353.2239 
L 873.354065 353.2239 
L 879.212454 352.519416 
L 885.070843 353.211882 
L 890.929232 352.764062 
L 896.787622 353.2239 
L 949.513125 353.2239 
L 949.513125 353.2239 
" style="fill:none;stroke:#434348;stroke-linecap:square;"/>
   </g>
   <g id="line2d_99">
    <path clip-path="url(#peddeba3e9f)" d="M 76.613125 255.017575 
L 82.471514 351.492176 
L 88.329904 353.2239 
L 94.188293 352.713661 
L 100.046682 353.217028 
L 199.639299 353.2239 
L 205.497689 353.143155 
L 217.214467 353.2239 
L 246.506414 353.2239 
L 252.364803 353.103641 
L 258.223192 353.2239 
L 873.354065 353.2239 
L 879.212454 352.522164 
L 885.070843 353.196691 
L 890.929232 352.75744 
L 896.787622 353.2239 
L 949.513125 353.2239 
L 949.513125 353.2239 
" style="fill:none;stroke:#90ed7d;stroke-linecap:square;"/>
   </g>
   <g id="line2d_100">
    <path clip-path="url(#peddeba3e9f)" d="M 76.613125 254.75239 
L 82.471514 351.515776 
L 88.329904 353.2239 
L 94.188293 352.695195 
L 100.046682 353.213733 
L 164.488964 353.2239 
L 199.639299 353.2239 
L 205.497689 353.101891 
L 211.356078 353.2239 
L 246.506414 353.2239 
L 252.364803 353.061221 
L 258.223192 353.2239 
L 428.116481 353.2239 
L 433.97487 353.091837 
L 439.833259 353.2239 
L 873.354065 353.2239 
L 879.212454 352.542704 
L 885.070843 353.20532 
L 890.929232 352.679558 
L 896.787622 353.2239 
L 949.513125 353.2239 
L 949.513125 353.2239 
" style="fill:none;stroke:#f7a35c;stroke-linecap:square;"/>
   </g>
   <g id="line2d_101">
    <path clip-path="url(#peddeba3e9f)" d="M 76.613125 256.225218 
L 82.471514 351.635656 
L 88.329904 353.2239 
L 94.188293 352.826839 
L 100.046682 353.2239 
L 199.639299 353.2239 
L 205.497689 353.099819 
L 211.356078 353.2239 
L 246.506414 353.2239 
L 252.364803 353.041914 
L 258.223192 353.2239 
L 726.894333 353.2239 
L 732.752722 353.096109 
L 738.611112 353.2239 
L 873.354065 353.2239 
L 879.212454 352.601473 
L 885.070843 353.175518 
L 890.929232 352.832652 
L 896.787622 353.2239 
L 949.513125 353.2239 
L 949.513125 353.2239 
" style="fill:none;stroke:#8085e9;stroke-linecap:square;"/>
   </g>
   <g id="line2d_102">
    <path clip-path="url(#peddeba3e9f)" d="M 76.613125 255.844292 
L 82.471514 351.542829 
L 88.329904 353.2239 
L 94.188293 352.796779 
L 100.046682 353.218128 
L 199.639299 353.2239 
L 205.497689 353.135878 
L 217.214467 353.2239 
L 246.506414 353.2239 
L 252.364803 353.086817 
L 258.223192 353.2239 
L 873.354065 353.2239 
L 879.212454 352.637467 
L 885.070843 353.194568 
L 890.929232 352.835379 
L 896.787622 353.2239 
L 949.513125 353.2239 
L 949.513125 353.2239 
" style="fill:none;stroke:#f15c80;stroke-linecap:square;"/>
   </g>
   <g id="line2d_103">
    <path clip-path="url(#peddeba3e9f)" d="M 76.613125 258.321263 
L 82.471514 351.507191 
L 88.329904 353.2239 
L 94.188293 352.802526 
L 100.046682 353.218698 
L 199.639299 353.2239 
L 205.497689 353.135464 
L 217.214467 353.2239 
L 246.506414 353.2239 
L 252.364803 353.088644 
L 258.223192 353.2239 
L 873.354065 353.2239 
L 879.212454 352.687173 
L 885.070843 353.188823 
L 890.929232 352.771847 
L 896.787622 353.2239 
L 949.513125 353.2239 
L 949.513125 353.2239 
" style="fill:none;stroke:#e4d354;stroke-linecap:square;"/>
   </g>
   <g id="line2d_104">
    <path clip-path="url(#peddeba3e9f)" d="M 76.613125 254.483389 
L 82.471514 351.641647 
L 88.329904 353.2239 
L 94.188293 352.770074 
L 100.046682 353.217767 
L 199.639299 353.2239 
L 205.497689 353.162572 
L 217.214467 353.2239 
L 246.506414 353.2239 
L 252.364803 353.101244 
L 258.223192 353.2239 
L 726.894333 353.2239 
L 732.752722 353.101742 
L 744.469501 353.2239 
L 873.354065 353.2239 
L 879.212454 352.610276 
L 885.070843 353.197446 
L 890.929232 352.812723 
L 896.787622 353.2239 
L 949.513125 353.2239 
L 949.513125 353.2239 
" style="fill:none;stroke:#2b908f;stroke-linecap:square;"/>
   </g>
   <g id="line2d_105">
    <path clip-path="url(#peddeba3e9f)" d="M 76.613125 253.408657 
L 82.471514 351.578683 
L 88.329904 353.2239 
L 94.188293 352.773793 
L 100.046682 353.2239 
L 246.506414 353.2239 
L 252.364803 353.107493 
L 258.223192 353.2239 
L 873.354065 353.2239 
L 879.212454 352.389495 
L 885.070843 353.205529 
L 890.929232 352.833229 
L 896.787622 353.2239 
L 949.513125 353.2239 
L 949.513125 353.2239 
" style="fill:none;stroke:#f45b5b;stroke-linecap:square;"/>
   </g>
   <g id="line2d_106">
    <path clip-path="url(#peddeba3e9f)" d="M 76.613125 251.526923 
L 82.471514 351.438472 
L 88.329904 353.2239 
L 94.188293 352.719497 
L 100.046682 353.215894 
L 182.064132 353.2239 
L 199.639299 353.2239 
L 205.497689 352.983708 
L 211.356078 353.2239 
L 246.506414 353.2239 
L 252.364803 352.903644 
L 258.223192 353.2239 
L 392.966145 353.2239 
L 398.824534 353.108277 
L 404.682924 353.2239 
L 873.354065 353.2239 
L 879.212454 352.622322 
L 885.070843 353.203575 
L 890.929232 352.790997 
L 896.787622 353.2239 
L 949.513125 353.2239 
L 949.513125 353.2239 
" style="fill:none;stroke:#91e8e1;stroke-linecap:square;"/>
   </g>
   <g id="line2d_107">
    <path clip-path="url(#peddeba3e9f)" d="M 76.613125 263.429737 
L 82.471514 351.962158 
L 88.329904 353.2239 
L 94.188293 352.978561 
L 100.046682 353.2239 
L 392.966145 353.2239 
L 398.824534 353.047047 
L 404.682924 353.2239 
L 873.354065 353.2239 
L 879.212454 352.352114 
L 885.070843 353.177744 
L 890.929232 353.038093 
L 896.787622 353.2239 
L 949.513125 353.2239 
L 949.513125 353.2239 
" style="fill:none;stroke:#7cb5ec;stroke-linecap:square;"/>
   </g>
   <g id="line2d_108">
    <path clip-path="url(#peddeba3e9f)" d="M 76.613125 253.66176 
L 82.471514 351.500723 
L 88.329904 353.2239 
L 94.188293 352.81749 
L 100.046682 353.207644 
L 141.055407 353.2239 
L 246.506414 353.2239 
L 252.364803 353.077593 
L 258.223192 353.2239 
L 392.966145 353.2239 
L 398.824534 353.090633 
L 404.682924 353.2239 
L 726.894333 353.2239 
L 732.752722 353.07382 
L 756.186279 353.2239 
L 873.354065 353.2239 
L 879.212454 352.469845 
L 885.070843 353.206164 
L 890.929232 352.739329 
L 896.787622 353.2239 
L 949.513125 353.2239 
L 949.513125 353.2239 
" style="fill:none;stroke:#434348;stroke-linecap:square;"/>
   </g>
   <g id="line2d_109">
    <path clip-path="url(#peddeba3e9f)" d="M 76.613125 256.117109 
L 82.471514 351.54012 
L 88.329904 353.2239 
L 94.188293 352.811724 
L 100.046682 353.2239 
L 246.506414 353.2239 
L 252.364803 353.066045 
L 258.223192 353.2239 
L 392.966145 353.2239 
L 398.824534 353.111133 
L 404.682924 353.2239 
L 873.354065 353.2239 
L 879.212454 352.566965 
L 885.070843 353.160767 
L 890.929232 352.889263 
L 896.787622 353.2239 
L 949.513125 353.2239 
L 949.513125 353.2239 
" style="fill:none;stroke:#90ed7d;stroke-linecap:square;"/>
   </g>
   <g id="line2d_110">
    <path clip-path="url(#peddeba3e9f)" d="M 76.613125 255.643972 
L 82.471514 351.620559 
L 88.329904 353.2239 
L 94.188293 352.812158 
L 100.046682 353.21572 
L 182.064132 353.2239 
L 246.506414 353.2239 
L 252.364803 353.101196 
L 258.223192 353.2239 
L 392.966145 353.2239 
L 398.824534 353.107117 
L 404.682924 353.2239 
L 873.354065 353.2239 
L 879.212454 352.570736 
L 885.070843 353.202242 
L 890.929232 352.848236 
L 896.787622 353.2239 
L 949.513125 353.2239 
L 949.513125 353.2239 
" style="fill:none;stroke:#f7a35c;stroke-linecap:square;"/>
   </g>
   <g id="line2d_111">
    <path clip-path="url(#peddeba3e9f)" d="M 32.968125 353.2239 
L 993.158125 353.2239 
" style="fill:none;stroke:#dedede;stroke-linecap:square;stroke-width:2;"/>
   </g>
   <g id="text_17">
    <!-- Fastp: Read N Content -->
    <defs>
     <path d="M 9.8125 72.90625 
L 51.703125 72.90625 
L 51.703125 64.59375 
L 19.671875 64.59375 
L 19.671875 43.109375 
L 48.578125 43.109375 
L 48.578125 34.8125 
L 19.671875 34.8125 
L 19.671875 0 
L 9.8125 0 
z
" id="DejaVuSans-70"/>
     <path d="M 18.109375 8.203125 
L 18.109375 -20.796875 
L 9.078125 -20.796875 
L 9.078125 54.6875 
L 18.109375 54.6875 
L 18.109375 46.390625 
Q 20.953125 51.265625 25.265625 53.625 
Q 29.59375 56 35.59375 56 
Q 45.5625 56 51.78125 48.09375 
Q 58.015625 40.1875 58.015625 27.296875 
Q 58.015625 14.40625 51.78125 6.484375 
Q 45.5625 -1.421875 35.59375 -1.421875 
Q 29.59375 -1.421875 25.265625 0.953125 
Q 20.953125 3.328125 18.109375 8.203125 
z
M 48.6875 27.296875 
Q 48.6875 37.203125 44.609375 42.84375 
Q 40.53125 48.484375 33.40625 48.484375 
Q 26.265625 48.484375 22.1875 42.84375 
Q 18.109375 37.203125 18.109375 27.296875 
Q 18.109375 17.390625 22.1875 11.75 
Q 26.265625 6.109375 33.40625 6.109375 
Q 40.53125 6.109375 44.609375 11.75 
Q 48.6875 17.390625 48.6875 27.296875 
z
" id="DejaVuSans-112"/>
     <path d="M 9.8125 72.90625 
L 23.09375 72.90625 
L 55.421875 11.921875 
L 55.421875 72.90625 
L 64.984375 72.90625 
L 64.984375 0 
L 51.703125 0 
L 19.390625 60.984375 
L 19.390625 0 
L 9.8125 0 
z
" id="DejaVuSans-78"/>
    </defs>
    <g transform="translate(422.606875 19.3575)scale(0.16 -0.16)">
     <use xlink:href="#DejaVuSans-70"/>
     <use x="57.378906" xlink:href="#DejaVuSans-97"/>
     <use x="118.658203" xlink:href="#DejaVuSans-115"/>
     <use x="170.757812" xlink:href="#DejaVuSans-116"/>
     <use x="209.966797" xlink:href="#DejaVuSans-112"/>
     <use x="273.443359" xlink:href="#DejaVuSans-58"/>
     <use x="307.134766" xlink:href="#DejaVuSans-32"/>
     <use x="338.921875" xlink:href="#DejaVuSans-82"/>
     <use x="408.341797" xlink:href="#DejaVuSans-101"/>
     <use x="469.865234" xlink:href="#DejaVuSans-97"/>
     <use x="531.144531" xlink:href="#DejaVuSans-100"/>
     <use x="594.621094" xlink:href="#DejaVuSans-32"/>
     <use x="626.408203" xlink:href="#DejaVuSans-78"/>
     <use x="701.212891" xlink:href="#DejaVuSans-32"/>
     <use x="733" xlink:href="#DejaVuSans-67"/>
     <use x="802.824219" xlink:href="#DejaVuSans-111"/>
     <use x="864.005859" xlink:href="#DejaVuSans-110"/>
     <use x="927.384766" xlink:href="#DejaVuSans-116"/>
     <use x="966.59375" xlink:href="#DejaVuSans-101"/>
     <use x="1028.117188" xlink:href="#DejaVuSans-110"/>
     <use x="1091.496094" xlink:href="#DejaVuSans-116"/>
    </g>
   </g>
  </g>
 </g>
 <defs>
  <clipPath id="peddeba3e9f">
   <rect height="317.968" width="960.19" x="32.968125" y="35.2559"/>
  </clipPath>
 </defs>
</svg>
