<?xml version="1.0" encoding="utf-8" standalone="no"?>
<!DOCTYPE svg PUBLIC "-//W3C//DTD SVG 1.1//EN"
  "http://www.w3.org/Graphics/SVG/1.1/DTD/svg11.dtd">
<!-- Created with matplotlib (https://matplotlib.org/) -->
<svg height="388.844525pt" version="1.1" viewBox="0 0 1000.358125 388.844525" width="1000.358125pt" xmlns="http://www.w3.org/2000/svg" xmlns:xlink="http://www.w3.org/1999/xlink">
 <defs>
  <style type="text/css">
*{stroke-linecap:butt;stroke-linejoin:round;}
  </style>
 </defs>
 <g id="figure_1">
  <g id="axes_1">
   <g id="patch_1">
    <path d="M 32.968125 353.2239 
L 993.158125 353.2239 
L 993.158125 35.2559 
L 32.968125 35.2559 
z
" style="fill:#ffffff;"/>
   </g>
   <g id="matplotlib.axis_1">
    <g id="xtick_1">
     <g id="text_1">
      <!-- 0 -->
      <defs>
       <path d="M 31.78125 66.40625 
Q 24.171875 66.40625 20.328125 58.90625 
Q 16.5 51.421875 16.5 36.375 
Q 16.5 21.390625 20.328125 13.890625 
Q 24.171875 6.390625 31.78125 6.390625 
Q 39.453125 6.390625 43.28125 13.890625 
Q 47.125 21.390625 47.125 36.375 
Q 47.125 51.421875 43.28125 58.90625 
Q 39.453125 66.40625 31.78125 66.40625 
z
M 31.78125 74.21875 
Q 44.046875 74.21875 50.515625 64.515625 
Q 56.984375 54.828125 56.984375 36.375 
Q 56.984375 17.96875 50.515625 8.265625 
Q 44.046875 -1.421875 31.78125 -1.421875 
Q 19.53125 -1.421875 13.0625 8.265625 
Q 6.59375 17.96875 6.59375 36.375 
Q 6.59375 54.828125 13.0625 64.515625 
Q 19.53125 74.21875 31.78125 74.21875 
z
" id="DejaVuSans-48"/>
      </defs>
      <g transform="translate(68.209736 366.30265)scale(0.08 -0.08)">
       <use xlink:href="#DejaVuSans-48"/>
      </g>
     </g>
    </g>
    <g id="xtick_2">
     <g id="text_2">
      <!-- 20 -->
      <defs>
       <path d="M 19.1875 8.296875 
L 53.609375 8.296875 
L 53.609375 0 
L 7.328125 0 
L 7.328125 8.296875 
Q 12.9375 14.109375 22.625 23.890625 
Q 32.328125 33.6875 34.8125 36.53125 
Q 39.546875 41.84375 41.421875 45.53125 
Q 43.3125 49.21875 43.3125 52.78125 
Q 43.3125 58.59375 39.234375 62.25 
Q 35.15625 65.921875 28.609375 65.921875 
Q 23.96875 65.921875 18.8125 64.3125 
Q 13.671875 62.703125 7.8125 59.421875 
L 7.8125 69.390625 
Q 13.765625 71.78125 18.9375 73 
Q 24.125 74.21875 28.421875 74.21875 
Q 39.75 74.21875 46.484375 68.546875 
Q 53.21875 62.890625 53.21875 53.421875 
Q 53.21875 48.921875 51.53125 44.890625 
Q 49.859375 40.875 45.40625 35.40625 
Q 44.1875 33.984375 37.640625 27.21875 
Q 31.109375 20.453125 19.1875 8.296875 
z
" id="DejaVuSans-50"/>
      </defs>
      <g transform="translate(182.832521 366.30265)scale(0.08 -0.08)">
       <use xlink:href="#DejaVuSans-50"/>
       <use x="63.623047" xlink:href="#DejaVuSans-48"/>
      </g>
     </g>
    </g>
    <g id="xtick_3">
     <g id="text_3">
      <!-- 40 -->
      <defs>
       <path d="M 37.796875 64.3125 
L 12.890625 25.390625 
L 37.796875 25.390625 
z
M 35.203125 72.90625 
L 47.609375 72.90625 
L 47.609375 25.390625 
L 58.015625 25.390625 
L 58.015625 17.1875 
L 47.609375 17.1875 
L 47.609375 0 
L 37.796875 0 
L 37.796875 17.1875 
L 4.890625 17.1875 
L 4.890625 26.703125 
z
" id="DejaVuSans-52"/>
      </defs>
      <g transform="translate(300.000306 366.30265)scale(0.08 -0.08)">
       <use xlink:href="#DejaVuSans-52"/>
       <use x="63.623047" xlink:href="#DejaVuSans-48"/>
      </g>
     </g>
    </g>
    <g id="xtick_4">
     <g id="text_4">
      <!-- 60 -->
      <defs>
       <path d="M 33.015625 40.375 
Q 26.375 40.375 22.484375 35.828125 
Q 18.609375 31.296875 18.609375 23.390625 
Q 18.609375 15.53125 22.484375 10.953125 
Q 26.375 6.390625 33.015625 6.390625 
Q 39.65625 6.390625 43.53125 10.953125 
Q 47.40625 15.53125 47.40625 23.390625 
Q 47.40625 31.296875 43.53125 35.828125 
Q 39.65625 40.375 33.015625 40.375 
z
M 52.59375 71.296875 
L 52.59375 62.3125 
Q 48.875 64.0625 45.09375 64.984375 
Q 41.3125 65.921875 37.59375 65.921875 
Q 27.828125 65.921875 22.671875 59.328125 
Q 17.53125 52.734375 16.796875 39.40625 
Q 19.671875 43.65625 24.015625 45.921875 
Q 28.375 48.1875 33.59375 48.1875 
Q 44.578125 48.1875 50.953125 41.515625 
Q 57.328125 34.859375 57.328125 23.390625 
Q 57.328125 12.15625 50.6875 5.359375 
Q 44.046875 -1.421875 33.015625 -1.421875 
Q 20.359375 -1.421875 13.671875 8.265625 
Q 6.984375 17.96875 6.984375 36.375 
Q 6.984375 53.65625 15.1875 63.9375 
Q 23.390625 74.21875 37.203125 74.21875 
Q 40.921875 74.21875 44.703125 73.484375 
Q 48.484375 72.75 52.59375 71.296875 
z
" id="DejaVuSans-54"/>
      </defs>
      <g transform="translate(417.168091 366.30265)scale(0.08 -0.08)">
       <use xlink:href="#DejaVuSans-54"/>
       <use x="63.623047" xlink:href="#DejaVuSans-48"/>
      </g>
     </g>
    </g>
    <g id="xtick_5">
     <g id="text_5">
      <!-- 80 -->
      <defs>
       <path d="M 31.78125 34.625 
Q 24.75 34.625 20.71875 30.859375 
Q 16.703125 27.09375 16.703125 20.515625 
Q 16.703125 13.921875 20.71875 10.15625 
Q 24.75 6.390625 31.78125 6.390625 
Q 38.8125 6.390625 42.859375 10.171875 
Q 46.921875 13.96875 46.921875 20.515625 
Q 46.921875 27.09375 42.890625 30.859375 
Q 38.875 34.625 31.78125 34.625 
z
M 21.921875 38.8125 
Q 15.578125 40.375 12.03125 44.71875 
Q 8.5 49.078125 8.5 55.328125 
Q 8.5 64.0625 14.71875 69.140625 
Q 20.953125 74.21875 31.78125 74.21875 
Q 42.671875 74.21875 48.875 69.140625 
Q 55.078125 64.0625 55.078125 55.328125 
Q 55.078125 49.078125 51.53125 44.71875 
Q 48 40.375 41.703125 38.8125 
Q 48.828125 37.15625 52.796875 32.3125 
Q 56.78125 27.484375 56.78125 20.515625 
Q 56.78125 9.90625 50.3125 4.234375 
Q 43.84375 -1.421875 31.78125 -1.421875 
Q 19.734375 -1.421875 13.25 4.234375 
Q 6.78125 9.90625 6.78125 20.515625 
Q 6.78125 27.484375 10.78125 32.3125 
Q 14.796875 37.15625 21.921875 38.8125 
z
M 18.3125 54.390625 
Q 18.3125 48.734375 21.84375 45.5625 
Q 25.390625 42.390625 31.78125 42.390625 
Q 38.140625 42.390625 41.71875 45.5625 
Q 45.3125 48.734375 45.3125 54.390625 
Q 45.3125 60.0625 41.71875 63.234375 
Q 38.140625 66.40625 31.78125 66.40625 
Q 25.390625 66.40625 21.84375 63.234375 
Q 18.3125 60.0625 18.3125 54.390625 
z
" id="DejaVuSans-56"/>
      </defs>
      <g transform="translate(534.335877 366.30265)scale(0.08 -0.08)">
       <use xlink:href="#DejaVuSans-56"/>
       <use x="63.623047" xlink:href="#DejaVuSans-48"/>
      </g>
     </g>
    </g>
    <g id="xtick_6">
     <g id="text_6">
      <!-- 100 -->
      <defs>
       <path d="M 12.40625 8.296875 
L 28.515625 8.296875 
L 28.515625 63.921875 
L 10.984375 60.40625 
L 10.984375 69.390625 
L 28.421875 72.90625 
L 38.28125 72.90625 
L 38.28125 8.296875 
L 54.390625 8.296875 
L 54.390625 0 
L 12.40625 0 
z
" id="DejaVuSans-49"/>
      </defs>
      <g transform="translate(648.958662 366.30265)scale(0.08 -0.08)">
       <use xlink:href="#DejaVuSans-49"/>
       <use x="63.623047" xlink:href="#DejaVuSans-48"/>
       <use x="127.246094" xlink:href="#DejaVuSans-48"/>
      </g>
     </g>
    </g>
    <g id="xtick_7">
     <g id="text_7">
      <!-- 120 -->
      <g transform="translate(766.126447 366.30265)scale(0.08 -0.08)">
       <use xlink:href="#DejaVuSans-49"/>
       <use x="63.623047" xlink:href="#DejaVuSans-50"/>
       <use x="127.246094" xlink:href="#DejaVuSans-48"/>
      </g>
     </g>
    </g>
    <g id="xtick_8">
     <g id="text_8">
      <!-- 140 -->
      <g transform="translate(883.294232 366.30265)scale(0.08 -0.08)">
       <use xlink:href="#DejaVuSans-49"/>
       <use x="63.623047" xlink:href="#DejaVuSans-52"/>
       <use x="127.246094" xlink:href="#DejaVuSans-48"/>
      </g>
     </g>
    </g>
    <g id="text_9">
     <!-- Read Position -->
     <defs>
      <path d="M 44.390625 34.1875 
Q 47.5625 33.109375 50.5625 29.59375 
Q 53.5625 26.078125 56.59375 19.921875 
L 66.609375 0 
L 56 0 
L 46.6875 18.703125 
Q 43.0625 26.03125 39.671875 28.421875 
Q 36.28125 30.8125 30.421875 30.8125 
L 19.671875 30.8125 
L 19.671875 0 
L 9.8125 0 
L 9.8125 72.90625 
L 32.078125 72.90625 
Q 44.578125 72.90625 50.734375 67.671875 
Q 56.890625 62.453125 56.890625 51.90625 
Q 56.890625 45.015625 53.6875 40.46875 
Q 50.484375 35.9375 44.390625 34.1875 
z
M 19.671875 64.796875 
L 19.671875 38.921875 
L 32.078125 38.921875 
Q 39.203125 38.921875 42.84375 42.21875 
Q 46.484375 45.515625 46.484375 51.90625 
Q 46.484375 58.296875 42.84375 61.546875 
Q 39.203125 64.796875 32.078125 64.796875 
z
" id="DejaVuSans-82"/>
      <path d="M 56.203125 29.59375 
L 56.203125 25.203125 
L 14.890625 25.203125 
Q 15.484375 15.921875 20.484375 11.0625 
Q 25.484375 6.203125 34.421875 6.203125 
Q 39.59375 6.203125 44.453125 7.46875 
Q 49.3125 8.734375 54.109375 11.28125 
L 54.109375 2.78125 
Q 49.265625 0.734375 44.1875 -0.34375 
Q 39.109375 -1.421875 33.890625 -1.421875 
Q 20.796875 -1.421875 13.15625 6.1875 
Q 5.515625 13.8125 5.515625 26.8125 
Q 5.515625 40.234375 12.765625 48.109375 
Q 20.015625 56 32.328125 56 
Q 43.359375 56 49.78125 48.890625 
Q 56.203125 41.796875 56.203125 29.59375 
z
M 47.21875 32.234375 
Q 47.125 39.59375 43.09375 43.984375 
Q 39.0625 48.390625 32.421875 48.390625 
Q 24.90625 48.390625 20.390625 44.140625 
Q 15.875 39.890625 15.1875 32.171875 
z
" id="DejaVuSans-101"/>
      <path d="M 34.28125 27.484375 
Q 23.390625 27.484375 19.1875 25 
Q 14.984375 22.515625 14.984375 16.5 
Q 14.984375 11.71875 18.140625 8.90625 
Q 21.296875 6.109375 26.703125 6.109375 
Q 34.1875 6.109375 38.703125 11.40625 
Q 43.21875 16.703125 43.21875 25.484375 
L 43.21875 27.484375 
z
M 52.203125 31.203125 
L 52.203125 0 
L 43.21875 0 
L 43.21875 8.296875 
Q 40.140625 3.328125 35.546875 0.953125 
Q 30.953125 -1.421875 24.3125 -1.421875 
Q 15.921875 -1.421875 10.953125 3.296875 
Q 6 8.015625 6 15.921875 
Q 6 25.140625 12.171875 29.828125 
Q 18.359375 34.515625 30.609375 34.515625 
L 43.21875 34.515625 
L 43.21875 35.40625 
Q 43.21875 41.609375 39.140625 45 
Q 35.0625 48.390625 27.6875 48.390625 
Q 23 48.390625 18.546875 47.265625 
Q 14.109375 46.140625 10.015625 43.890625 
L 10.015625 52.203125 
Q 14.9375 54.109375 19.578125 55.046875 
Q 24.21875 56 28.609375 56 
Q 40.484375 56 46.34375 49.84375 
Q 52.203125 43.703125 52.203125 31.203125 
z
" id="DejaVuSans-97"/>
      <path d="M 45.40625 46.390625 
L 45.40625 75.984375 
L 54.390625 75.984375 
L 54.390625 0 
L 45.40625 0 
L 45.40625 8.203125 
Q 42.578125 3.328125 38.25 0.953125 
Q 33.9375 -1.421875 27.875 -1.421875 
Q 17.96875 -1.421875 11.734375 6.484375 
Q 5.515625 14.40625 5.515625 27.296875 
Q 5.515625 40.1875 11.734375 48.09375 
Q 17.96875 56 27.875 56 
Q 33.9375 56 38.25 53.625 
Q 42.578125 51.265625 45.40625 46.390625 
z
M 14.796875 27.296875 
Q 14.796875 17.390625 18.875 11.75 
Q 22.953125 6.109375 30.078125 6.109375 
Q 37.203125 6.109375 41.296875 11.75 
Q 45.40625 17.390625 45.40625 27.296875 
Q 45.40625 37.203125 41.296875 42.84375 
Q 37.203125 48.484375 30.078125 48.484375 
Q 22.953125 48.484375 18.875 42.84375 
Q 14.796875 37.203125 14.796875 27.296875 
z
" id="DejaVuSans-100"/>
      <path id="DejaVuSans-32"/>
      <path d="M 19.671875 64.796875 
L 19.671875 37.40625 
L 32.078125 37.40625 
Q 38.96875 37.40625 42.71875 40.96875 
Q 46.484375 44.53125 46.484375 51.125 
Q 46.484375 57.671875 42.71875 61.234375 
Q 38.96875 64.796875 32.078125 64.796875 
z
M 9.8125 72.90625 
L 32.078125 72.90625 
Q 44.34375 72.90625 50.609375 67.359375 
Q 56.890625 61.8125 56.890625 51.125 
Q 56.890625 40.328125 50.609375 34.8125 
Q 44.34375 29.296875 32.078125 29.296875 
L 19.671875 29.296875 
L 19.671875 0 
L 9.8125 0 
z
" id="DejaVuSans-80"/>
      <path d="M 30.609375 48.390625 
Q 23.390625 48.390625 19.1875 42.75 
Q 14.984375 37.109375 14.984375 27.296875 
Q 14.984375 17.484375 19.15625 11.84375 
Q 23.34375 6.203125 30.609375 6.203125 
Q 37.796875 6.203125 41.984375 11.859375 
Q 46.1875 17.53125 46.1875 27.296875 
Q 46.1875 37.015625 41.984375 42.703125 
Q 37.796875 48.390625 30.609375 48.390625 
z
M 30.609375 56 
Q 42.328125 56 49.015625 48.375 
Q 55.71875 40.765625 55.71875 27.296875 
Q 55.71875 13.875 49.015625 6.21875 
Q 42.328125 -1.421875 30.609375 -1.421875 
Q 18.84375 -1.421875 12.171875 6.21875 
Q 5.515625 13.875 5.515625 27.296875 
Q 5.515625 40.765625 12.171875 48.375 
Q 18.84375 56 30.609375 56 
z
" id="DejaVuSans-111"/>
      <path d="M 44.28125 53.078125 
L 44.28125 44.578125 
Q 40.484375 46.53125 36.375 47.5 
Q 32.28125 48.484375 27.875 48.484375 
Q 21.1875 48.484375 17.84375 46.4375 
Q 14.5 44.390625 14.5 40.28125 
Q 14.5 37.15625 16.890625 35.375 
Q 19.28125 33.59375 26.515625 31.984375 
L 29.59375 31.296875 
Q 39.15625 29.25 43.1875 25.515625 
Q 47.21875 21.78125 47.21875 15.09375 
Q 47.21875 7.46875 41.1875 3.015625 
Q 35.15625 -1.421875 24.609375 -1.421875 
Q 20.21875 -1.421875 15.453125 -0.5625 
Q 10.6875 0.296875 5.421875 2 
L 5.421875 11.28125 
Q 10.40625 8.6875 15.234375 7.390625 
Q 20.0625 6.109375 24.8125 6.109375 
Q 31.15625 6.109375 34.5625 8.28125 
Q 37.984375 10.453125 37.984375 14.40625 
Q 37.984375 18.0625 35.515625 20.015625 
Q 33.0625 21.96875 24.703125 23.78125 
L 21.578125 24.515625 
Q 13.234375 26.265625 9.515625 29.90625 
Q 5.8125 33.546875 5.8125 39.890625 
Q 5.8125 47.609375 11.28125 51.796875 
Q 16.75 56 26.8125 56 
Q 31.78125 56 36.171875 55.265625 
Q 40.578125 54.546875 44.28125 53.078125 
z
" id="DejaVuSans-115"/>
      <path d="M 9.421875 54.6875 
L 18.40625 54.6875 
L 18.40625 0 
L 9.421875 0 
z
M 9.421875 75.984375 
L 18.40625 75.984375 
L 18.40625 64.59375 
L 9.421875 64.59375 
z
" id="DejaVuSans-105"/>
      <path d="M 18.3125 70.21875 
L 18.3125 54.6875 
L 36.8125 54.6875 
L 36.8125 47.703125 
L 18.3125 47.703125 
L 18.3125 18.015625 
Q 18.3125 11.328125 20.140625 9.421875 
Q 21.96875 7.515625 27.59375 7.515625 
L 36.8125 7.515625 
L 36.8125 0 
L 27.59375 0 
Q 17.1875 0 13.234375 3.875 
Q 9.28125 7.765625 9.28125 18.015625 
L 9.28125 47.703125 
L 2.6875 47.703125 
L 2.6875 54.6875 
L 9.28125 54.6875 
L 9.28125 70.21875 
z
" id="DejaVuSans-116"/>
      <path d="M 54.890625 33.015625 
L 54.890625 0 
L 45.90625 0 
L 45.90625 32.71875 
Q 45.90625 40.484375 42.875 44.328125 
Q 39.84375 48.1875 33.796875 48.1875 
Q 26.515625 48.1875 22.3125 43.546875 
Q 18.109375 38.921875 18.109375 30.90625 
L 18.109375 0 
L 9.078125 0 
L 9.078125 54.6875 
L 18.109375 54.6875 
L 18.109375 46.1875 
Q 21.34375 51.125 25.703125 53.5625 
Q 30.078125 56 35.796875 56 
Q 45.21875 56 50.046875 50.171875 
Q 54.890625 44.34375 54.890625 33.015625 
z
" id="DejaVuSans-110"/>
     </defs>
     <g transform="translate(479.045156 379.564837)scale(0.1 -0.1)">
      <use xlink:href="#DejaVuSans-82"/>
      <use x="69.419922" xlink:href="#DejaVuSans-101"/>
      <use x="130.943359" xlink:href="#DejaVuSans-97"/>
      <use x="192.222656" xlink:href="#DejaVuSans-100"/>
      <use x="255.699219" xlink:href="#DejaVuSans-32"/>
      <use x="287.486328" xlink:href="#DejaVuSans-80"/>
      <use x="347.742188" xlink:href="#DejaVuSans-111"/>
      <use x="408.923828" xlink:href="#DejaVuSans-115"/>
      <use x="461.023438" xlink:href="#DejaVuSans-105"/>
      <use x="488.806641" xlink:href="#DejaVuSans-116"/>
      <use x="528.015625" xlink:href="#DejaVuSans-105"/>
      <use x="555.798828" xlink:href="#DejaVuSans-111"/>
      <use x="616.980469" xlink:href="#DejaVuSans-110"/>
     </g>
    </g>
   </g>
   <g id="matplotlib.axis_2">
    <g id="ytick_1">
     <g id="line2d_1">
      <path clip-path="url(#pb5836cedbd)" d="M 32.968125 353.2239 
L 993.158125 353.2239 
" style="fill:none;stroke:#dedede;stroke-linecap:square;"/>
     </g>
     <g id="text_10">
      <!-- 0 -->
      <g transform="translate(20.878125 356.263275)scale(0.08 -0.08)">
       <use xlink:href="#DejaVuSans-48"/>
      </g>
     </g>
    </g>
    <g id="ytick_2">
     <g id="line2d_2">
      <path clip-path="url(#pb5836cedbd)" d="M 32.968125 289.6303 
L 993.158125 289.6303 
" style="fill:none;stroke:#dedede;stroke-linecap:square;"/>
     </g>
     <g id="text_11">
      <!-- 1 -->
      <g transform="translate(20.878125 292.669675)scale(0.08 -0.08)">
       <use xlink:href="#DejaVuSans-49"/>
      </g>
     </g>
    </g>
    <g id="ytick_3">
     <g id="line2d_3">
      <path clip-path="url(#pb5836cedbd)" d="M 32.968125 226.0367 
L 993.158125 226.0367 
" style="fill:none;stroke:#dedede;stroke-linecap:square;"/>
     </g>
     <g id="text_12">
      <!-- 2 -->
      <g transform="translate(20.878125 229.076075)scale(0.08 -0.08)">
       <use xlink:href="#DejaVuSans-50"/>
      </g>
     </g>
    </g>
    <g id="ytick_4">
     <g id="line2d_4">
      <path clip-path="url(#pb5836cedbd)" d="M 32.968125 162.4431 
L 993.158125 162.4431 
" style="fill:none;stroke:#dedede;stroke-linecap:square;"/>
     </g>
     <g id="text_13">
      <!-- 3 -->
      <defs>
       <path d="M 40.578125 39.3125 
Q 47.65625 37.796875 51.625 33 
Q 55.609375 28.21875 55.609375 21.1875 
Q 55.609375 10.40625 48.1875 4.484375 
Q 40.765625 -1.421875 27.09375 -1.421875 
Q 22.515625 -1.421875 17.65625 -0.515625 
Q 12.796875 0.390625 7.625 2.203125 
L 7.625 11.71875 
Q 11.71875 9.328125 16.59375 8.109375 
Q 21.484375 6.890625 26.8125 6.890625 
Q 36.078125 6.890625 40.9375 10.546875 
Q 45.796875 14.203125 45.796875 21.1875 
Q 45.796875 27.640625 41.28125 31.265625 
Q 36.765625 34.90625 28.71875 34.90625 
L 20.21875 34.90625 
L 20.21875 43.015625 
L 29.109375 43.015625 
Q 36.375 43.015625 40.234375 45.921875 
Q 44.09375 48.828125 44.09375 54.296875 
Q 44.09375 59.90625 40.109375 62.90625 
Q 36.140625 65.921875 28.71875 65.921875 
Q 24.65625 65.921875 20.015625 65.03125 
Q 15.375 64.15625 9.8125 62.3125 
L 9.8125 71.09375 
Q 15.4375 72.65625 20.34375 73.4375 
Q 25.25 74.21875 29.59375 74.21875 
Q 40.828125 74.21875 47.359375 69.109375 
Q 53.90625 64.015625 53.90625 55.328125 
Q 53.90625 49.265625 50.4375 45.09375 
Q 46.96875 40.921875 40.578125 39.3125 
z
" id="DejaVuSans-51"/>
      </defs>
      <g transform="translate(20.878125 165.482475)scale(0.08 -0.08)">
       <use xlink:href="#DejaVuSans-51"/>
      </g>
     </g>
    </g>
    <g id="ytick_5">
     <g id="line2d_5">
      <path clip-path="url(#pb5836cedbd)" d="M 32.968125 98.8495 
L 993.158125 98.8495 
" style="fill:none;stroke:#dedede;stroke-linecap:square;"/>
     </g>
     <g id="text_14">
      <!-- 4 -->
      <g transform="translate(20.878125 101.888875)scale(0.08 -0.08)">
       <use xlink:href="#DejaVuSans-52"/>
      </g>
     </g>
    </g>
    <g id="ytick_6">
     <g id="line2d_6">
      <path clip-path="url(#pb5836cedbd)" d="M 32.968125 35.2559 
L 993.158125 35.2559 
" style="fill:none;stroke:#dedede;stroke-linecap:square;"/>
     </g>
     <g id="text_15">
      <!-- 5 -->
      <defs>
       <path d="M 10.796875 72.90625 
L 49.515625 72.90625 
L 49.515625 64.59375 
L 19.828125 64.59375 
L 19.828125 46.734375 
Q 21.96875 47.46875 24.109375 47.828125 
Q 26.265625 48.1875 28.421875 48.1875 
Q 40.625 48.1875 47.75 41.5 
Q 54.890625 34.8125 54.890625 23.390625 
Q 54.890625 11.625 47.5625 5.09375 
Q 40.234375 -1.421875 26.90625 -1.421875 
Q 22.3125 -1.421875 17.546875 -0.640625 
Q 12.796875 0.140625 7.71875 1.703125 
L 7.71875 11.625 
Q 12.109375 9.234375 16.796875 8.0625 
Q 21.484375 6.890625 26.703125 6.890625 
Q 35.15625 6.890625 40.078125 11.328125 
Q 45.015625 15.765625 45.015625 23.390625 
Q 45.015625 31 40.078125 35.4375 
Q 35.15625 39.890625 26.703125 39.890625 
Q 22.75 39.890625 18.8125 39.015625 
Q 14.890625 38.140625 10.796875 36.28125 
z
" id="DejaVuSans-53"/>
      </defs>
      <g transform="translate(20.878125 38.295275)scale(0.08 -0.08)">
       <use xlink:href="#DejaVuSans-53"/>
      </g>
     </g>
    </g>
    <g id="text_16">
     <!-- R2 Before filtering: Base Content Percent -->
     <defs>
      <path d="M 19.671875 34.8125 
L 19.671875 8.109375 
L 35.5 8.109375 
Q 43.453125 8.109375 47.28125 11.40625 
Q 51.125 14.703125 51.125 21.484375 
Q 51.125 28.328125 47.28125 31.5625 
Q 43.453125 34.8125 35.5 34.8125 
z
M 19.671875 64.796875 
L 19.671875 42.828125 
L 34.28125 42.828125 
Q 41.5 42.828125 45.03125 45.53125 
Q 48.578125 48.25 48.578125 53.8125 
Q 48.578125 59.328125 45.03125 62.0625 
Q 41.5 64.796875 34.28125 64.796875 
z
M 9.8125 72.90625 
L 35.015625 72.90625 
Q 46.296875 72.90625 52.390625 68.21875 
Q 58.5 63.53125 58.5 54.890625 
Q 58.5 48.1875 55.375 44.234375 
Q 52.25 40.28125 46.1875 39.3125 
Q 53.46875 37.75 57.5 32.78125 
Q 61.53125 27.828125 61.53125 20.40625 
Q 61.53125 10.640625 54.890625 5.3125 
Q 48.25 0 35.984375 0 
L 9.8125 0 
z
" id="DejaVuSans-66"/>
      <path d="M 37.109375 75.984375 
L 37.109375 68.5 
L 28.515625 68.5 
Q 23.6875 68.5 21.796875 66.546875 
Q 19.921875 64.59375 19.921875 59.515625 
L 19.921875 54.6875 
L 34.71875 54.6875 
L 34.71875 47.703125 
L 19.921875 47.703125 
L 19.921875 0 
L 10.890625 0 
L 10.890625 47.703125 
L 2.296875 47.703125 
L 2.296875 54.6875 
L 10.890625 54.6875 
L 10.890625 58.5 
Q 10.890625 67.625 15.140625 71.796875 
Q 19.390625 75.984375 28.609375 75.984375 
z
" id="DejaVuSans-102"/>
      <path d="M 41.109375 46.296875 
Q 39.59375 47.171875 37.8125 47.578125 
Q 36.03125 48 33.890625 48 
Q 26.265625 48 22.1875 43.046875 
Q 18.109375 38.09375 18.109375 28.8125 
L 18.109375 0 
L 9.078125 0 
L 9.078125 54.6875 
L 18.109375 54.6875 
L 18.109375 46.1875 
Q 20.953125 51.171875 25.484375 53.578125 
Q 30.03125 56 36.53125 56 
Q 37.453125 56 38.578125 55.875 
Q 39.703125 55.765625 41.0625 55.515625 
z
" id="DejaVuSans-114"/>
      <path d="M 9.421875 75.984375 
L 18.40625 75.984375 
L 18.40625 0 
L 9.421875 0 
z
" id="DejaVuSans-108"/>
      <path d="M 45.40625 27.984375 
Q 45.40625 37.75 41.375 43.109375 
Q 37.359375 48.484375 30.078125 48.484375 
Q 22.859375 48.484375 18.828125 43.109375 
Q 14.796875 37.75 14.796875 27.984375 
Q 14.796875 18.265625 18.828125 12.890625 
Q 22.859375 7.515625 30.078125 7.515625 
Q 37.359375 7.515625 41.375 12.890625 
Q 45.40625 18.265625 45.40625 27.984375 
z
M 54.390625 6.78125 
Q 54.390625 -7.171875 48.1875 -13.984375 
Q 42 -20.796875 29.203125 -20.796875 
Q 24.46875 -20.796875 20.265625 -20.09375 
Q 16.0625 -19.390625 12.109375 -17.921875 
L 12.109375 -9.1875 
Q 16.0625 -11.328125 19.921875 -12.34375 
Q 23.78125 -13.375 27.78125 -13.375 
Q 36.625 -13.375 41.015625 -8.765625 
Q 45.40625 -4.15625 45.40625 5.171875 
L 45.40625 9.625 
Q 42.625 4.78125 38.28125 2.390625 
Q 33.9375 0 27.875 0 
Q 17.828125 0 11.671875 7.65625 
Q 5.515625 15.328125 5.515625 27.984375 
Q 5.515625 40.671875 11.671875 48.328125 
Q 17.828125 56 27.875 56 
Q 33.9375 56 38.28125 53.609375 
Q 42.625 51.21875 45.40625 46.390625 
L 45.40625 54.6875 
L 54.390625 54.6875 
z
" id="DejaVuSans-103"/>
      <path d="M 11.71875 12.40625 
L 22.015625 12.40625 
L 22.015625 0 
L 11.71875 0 
z
M 11.71875 51.703125 
L 22.015625 51.703125 
L 22.015625 39.3125 
L 11.71875 39.3125 
z
" id="DejaVuSans-58"/>
      <path d="M 64.40625 67.28125 
L 64.40625 56.890625 
Q 59.421875 61.53125 53.78125 63.8125 
Q 48.140625 66.109375 41.796875 66.109375 
Q 29.296875 66.109375 22.65625 58.46875 
Q 16.015625 50.828125 16.015625 36.375 
Q 16.015625 21.96875 22.65625 14.328125 
Q 29.296875 6.6875 41.796875 6.6875 
Q 48.140625 6.6875 53.78125 8.984375 
Q 59.421875 11.28125 64.40625 15.921875 
L 64.40625 5.609375 
Q 59.234375 2.09375 53.4375 0.328125 
Q 47.65625 -1.421875 41.21875 -1.421875 
Q 24.65625 -1.421875 15.125 8.703125 
Q 5.609375 18.84375 5.609375 36.375 
Q 5.609375 53.953125 15.125 64.078125 
Q 24.65625 74.21875 41.21875 74.21875 
Q 47.75 74.21875 53.53125 72.484375 
Q 59.328125 70.75 64.40625 67.28125 
z
" id="DejaVuSans-67"/>
      <path d="M 48.78125 52.59375 
L 48.78125 44.1875 
Q 44.96875 46.296875 41.140625 47.34375 
Q 37.3125 48.390625 33.40625 48.390625 
Q 24.65625 48.390625 19.8125 42.84375 
Q 14.984375 37.3125 14.984375 27.296875 
Q 14.984375 17.28125 19.8125 11.734375 
Q 24.65625 6.203125 33.40625 6.203125 
Q 37.3125 6.203125 41.140625 7.25 
Q 44.96875 8.296875 48.78125 10.40625 
L 48.78125 2.09375 
Q 45.015625 0.34375 40.984375 -0.53125 
Q 36.96875 -1.421875 32.421875 -1.421875 
Q 20.0625 -1.421875 12.78125 6.34375 
Q 5.515625 14.109375 5.515625 27.296875 
Q 5.515625 40.671875 12.859375 48.328125 
Q 20.21875 56 33.015625 56 
Q 37.15625 56 41.109375 55.140625 
Q 45.0625 54.296875 48.78125 52.59375 
z
" id="DejaVuSans-99"/>
     </defs>
     <g transform="translate(14.798438 297.503181)rotate(-90)scale(0.1 -0.1)">
      <use xlink:href="#DejaVuSans-82"/>
      <use x="69.482422" xlink:href="#DejaVuSans-50"/>
      <use x="133.105469" xlink:href="#DejaVuSans-32"/>
      <use x="164.892578" xlink:href="#DejaVuSans-66"/>
      <use x="233.496094" xlink:href="#DejaVuSans-101"/>
      <use x="295.019531" xlink:href="#DejaVuSans-102"/>
      <use x="330.224609" xlink:href="#DejaVuSans-111"/>
      <use x="391.40625" xlink:href="#DejaVuSans-114"/>
      <use x="432.488281" xlink:href="#DejaVuSans-101"/>
      <use x="494.011719" xlink:href="#DejaVuSans-32"/>
      <use x="525.798828" xlink:href="#DejaVuSans-102"/>
      <use x="561.003906" xlink:href="#DejaVuSans-105"/>
      <use x="588.787109" xlink:href="#DejaVuSans-108"/>
      <use x="616.570312" xlink:href="#DejaVuSans-116"/>
      <use x="655.779297" xlink:href="#DejaVuSans-101"/>
      <use x="717.302734" xlink:href="#DejaVuSans-114"/>
      <use x="758.416016" xlink:href="#DejaVuSans-105"/>
      <use x="786.199219" xlink:href="#DejaVuSans-110"/>
      <use x="849.578125" xlink:href="#DejaVuSans-103"/>
      <use x="913.054688" xlink:href="#DejaVuSans-58"/>
      <use x="946.746094" xlink:href="#DejaVuSans-32"/>
      <use x="978.533203" xlink:href="#DejaVuSans-66"/>
      <use x="1047.136719" xlink:href="#DejaVuSans-97"/>
      <use x="1108.416016" xlink:href="#DejaVuSans-115"/>
      <use x="1160.515625" xlink:href="#DejaVuSans-101"/>
      <use x="1222.039062" xlink:href="#DejaVuSans-32"/>
      <use x="1253.826172" xlink:href="#DejaVuSans-67"/>
      <use x="1323.650391" xlink:href="#DejaVuSans-111"/>
      <use x="1384.832031" xlink:href="#DejaVuSans-110"/>
      <use x="1448.210938" xlink:href="#DejaVuSans-116"/>
      <use x="1487.419922" xlink:href="#DejaVuSans-101"/>
      <use x="1548.943359" xlink:href="#DejaVuSans-110"/>
      <use x="1612.322266" xlink:href="#DejaVuSans-116"/>
      <use x="1651.53125" xlink:href="#DejaVuSans-32"/>
      <use x="1683.318359" xlink:href="#DejaVuSans-80"/>
      <use x="1743.574219" xlink:href="#DejaVuSans-101"/>
      <use x="1805.097656" xlink:href="#DejaVuSans-114"/>
      <use x="1846.179688" xlink:href="#DejaVuSans-99"/>
      <use x="1901.160156" xlink:href="#DejaVuSans-101"/>
      <use x="1962.683594" xlink:href="#DejaVuSans-110"/>
      <use x="2026.0625" xlink:href="#DejaVuSans-116"/>
     </g>
    </g>
   </g>
   <g id="line2d_7">
    <path clip-path="url(#pb5836cedbd)" d="M 76.613125 239.845414 
L 82.471514 352.799966 
L 94.188293 353.082589 
L 105.905071 353.2239 
L 141.055407 353.2239 
L 146.913796 353.059037 
L 152.772185 353.2239 
L 228.931246 353.2239 
L 234.789635 352.988381 
L 240.648024 353.2239 
L 252.364803 353.176796 
L 258.223192 352.988381 
L 264.081581 353.2239 
L 322.665474 353.2239 
L 328.523863 352.939618 
L 334.382253 353.176463 
L 351.95742 353.2239 
L 387.107756 353.2239 
L 392.966145 353.102387 
L 398.824534 353.2239 
L 574.576212 353.2239 
L 580.434602 353.104876 
L 586.292991 353.2239 
L 644.876883 353.2239 
L 650.735273 352.881453 
L 656.593662 353.2239 
L 949.513125 353.2239 
L 949.513125 353.2239 
" style="fill:none;stroke:#7cb5ec;stroke-linecap:square;"/>
   </g>
   <g id="line2d_8">
    <path clip-path="url(#pb5836cedbd)" d="M 76.613125 239.103913 
L 82.471514 352.95955 
L 123.480239 353.2239 
L 228.931246 353.17103 
L 234.789635 353.091725 
L 240.648024 353.2239 
L 252.364803 353.144595 
L 258.223192 353.06529 
L 264.081581 353.2239 
L 322.665474 353.2239 
L 328.523863 353.064461 
L 357.81581 353.2239 
L 381.249367 353.2239 
L 609.726548 353.2239 
L 615.584937 353.006188 
L 621.443326 353.2239 
L 732.752722 353.2239 
L 738.611112 353.100028 
L 744.469501 353.2239 
L 949.513125 353.2239 
L 949.513125 353.2239 
" style="fill:none;stroke:#434348;stroke-linecap:square;"/>
   </g>
   <g id="line2d_9">
    <path clip-path="url(#pb5836cedbd)" d="M 76.613125 236.384015 
L 82.471514 352.813258 
L 100.046682 353.14245 
L 111.763461 353.2239 
L 141.055407 353.2239 
L 146.913796 353.088151 
L 152.772185 353.2239 
L 228.931246 353.162813 
L 234.789635 353.030457 
L 240.648024 353.2239 
L 252.364803 353.159419 
L 258.223192 353.061001 
L 264.081581 353.2239 
L 334.382253 353.159779 
L 346.099031 353.2239 
L 639.018494 353.2239 
L 644.876883 353.076143 
L 650.735273 353.066318 
L 656.593662 353.2239 
L 949.513125 353.2239 
L 949.513125 353.2239 
" style="fill:none;stroke:#90ed7d;stroke-linecap:square;"/>
   </g>
   <g id="line2d_10">
    <path clip-path="url(#pb5836cedbd)" d="M 76.613125 238.261298 
L 82.471514 352.797291 
L 100.046682 353.137758 
L 111.763461 353.2239 
L 228.931246 353.199288 
L 234.789635 353.088534 
L 240.648024 353.2239 
L 252.364803 353.186982 
L 258.223192 353.10084 
L 264.081581 353.2239 
L 322.665474 353.2239 
L 328.523863 353.053968 
L 340.240642 353.2239 
L 609.726548 353.203815 
L 615.584937 353.088009 
L 621.443326 353.2239 
L 639.018494 353.2239 
L 650.735273 352.980984 
L 656.593662 353.2239 
L 949.513125 353.2239 
L 949.513125 353.2239 
" style="fill:none;stroke:#f7a35c;stroke-linecap:square;"/>
   </g>
   <g id="line2d_11">
    <path clip-path="url(#pb5836cedbd)" d="M 76.613125 237.119157 
L 82.471514 352.877266 
L 111.763461 353.2239 
L 228.931246 353.195014 
L 234.789635 353.043362 
L 240.648024 353.2239 
L 252.364803 353.173349 
L 258.223192 353.072248 
L 264.081581 353.2239 
L 322.665474 353.2239 
L 328.523863 353.003156 
L 340.240642 353.2239 
L 609.726548 353.178217 
L 615.584937 353.033102 
L 621.443326 353.2239 
L 639.018494 353.195344 
L 644.876883 352.984699 
L 650.735273 353.004714 
L 656.593662 353.2239 
L 949.513125 353.2239 
L 949.513125 353.2239 
" style="fill:none;stroke:#8085e9;stroke-linecap:square;"/>
   </g>
   <g id="line2d_12">
    <path clip-path="url(#pb5836cedbd)" d="M 76.613125 242.908718 
L 82.471514 352.827489 
L 88.329904 353.011537 
L 129.338628 353.209742 
L 176.205742 353.2239 
L 228.931246 353.2239 
L 234.789635 353.025695 
L 240.648024 353.2239 
L 252.364803 353.153113 
L 258.223192 353.05401 
L 264.081581 353.2239 
L 322.665474 353.2239 
L 328.523863 352.996274 
L 340.240642 353.2239 
L 609.726548 353.142702 
L 615.584937 353.084299 
L 621.443326 353.2239 
L 639.018494 353.192009 
L 644.876883 352.959836 
L 650.735273 353.018787 
L 656.593662 353.2239 
L 732.752722 353.2239 
L 738.611112 353.102581 
L 744.469501 353.2239 
L 949.513125 353.2239 
L 949.513125 353.2239 
" style="fill:none;stroke:#f15c80;stroke-linecap:square;"/>
   </g>
   <g id="line2d_13">
    <path clip-path="url(#pb5836cedbd)" d="M 76.613125 239.821885 
L 82.471514 352.883143 
L 88.329904 352.906643 
L 94.188293 353.082897 
L 117.62185 353.2239 
L 141.055407 353.2239 
L 146.913796 353.106397 
L 152.772185 353.2239 
L 228.931246 353.200399 
L 234.789635 352.953644 
L 240.648024 353.2239 
L 252.364803 353.176899 
L 258.223192 352.965394 
L 264.081581 353.2239 
L 322.665474 353.2239 
L 328.523863 352.890029 
L 334.382253 353.1616 
L 346.099031 353.2239 
L 387.107756 353.2239 
L 392.966145 353.057093 
L 398.824534 353.209788 
L 445.691648 353.2239 
L 639.018494 353.2239 
L 644.876883 352.791139 
L 650.735273 352.833384 
L 656.593662 353.2239 
L 732.752722 353.2239 
L 738.611112 353.081406 
L 744.469501 353.2239 
L 949.513125 353.2239 
L 949.513125 353.2239 
" style="fill:none;stroke:#e4d354;stroke-linecap:square;"/>
   </g>
   <g id="line2d_14">
    <path clip-path="url(#pb5836cedbd)" d="M 76.613125 239.305505 
L 82.471514 352.827049 
L 100.046682 353.110975 
L 105.905071 353.2239 
L 141.055407 353.2239 
L 146.913796 353.08839 
L 152.772185 353.2239 
L 228.931246 353.185183 
L 234.789635 353.023861 
L 240.648024 353.2239 
L 252.364803 353.188409 
L 258.223192 353.049673 
L 264.081581 353.2239 
L 322.665474 353.2239 
L 328.523863 353.006855 
L 334.382253 353.181014 
L 351.95742 353.2239 
L 639.018494 353.2239 
L 650.735273 352.998859 
L 656.593662 353.2239 
L 949.513125 353.2239 
L 949.513125 353.2239 
" style="fill:none;stroke:#2b908f;stroke-linecap:square;"/>
   </g>
   <g id="line2d_15">
    <path clip-path="url(#pb5836cedbd)" d="M 76.613125 235.352526 
L 82.471514 352.866331 
L 111.763461 353.2239 
L 141.055407 353.2239 
L 146.913796 353.106164 
L 152.772185 353.2239 
L 228.931246 353.184655 
L 234.789635 353.040755 
L 240.648024 353.2239 
L 252.364803 353.158491 
L 258.223192 353.062558 
L 264.081581 353.2239 
L 322.665474 353.2239 
L 328.523863 353.000733 
L 340.240642 353.2239 
L 609.726548 353.188391 
L 615.584937 353.039028 
L 621.443326 353.2239 
L 639.018494 353.209354 
L 644.876883 353.041676 
L 680.027219 353.2239 
L 709.319165 353.2239 
L 931.937957 353.2239 
L 937.796346 353.068464 
L 943.654736 353.2239 
L 949.513125 353.2239 
L 949.513125 353.2239 
" style="fill:none;stroke:#f45b5b;stroke-linecap:square;"/>
   </g>
   <g id="line2d_16">
    <path clip-path="url(#pb5836cedbd)" d="M 76.613125 236.867326 
L 82.471514 352.956844 
L 88.329904 352.97128 
L 94.188293 353.13007 
L 123.480239 353.2239 
L 228.931246 353.209465 
L 234.789635 353.007368 
L 240.648024 353.2239 
L 252.364803 353.13007 
L 258.223192 353.050675 
L 264.081581 353.2239 
L 322.665474 353.2239 
L 328.523863 352.980839 
L 340.240642 353.2239 
L 609.726548 353.2239 
L 615.584937 353.069638 
L 621.443326 353.2239 
L 639.018494 353.2239 
L 650.735273 352.933226 
L 656.593662 353.2239 
L 949.513125 353.2239 
L 949.513125 353.2239 
" style="fill:none;stroke:#91e8e1;stroke-linecap:square;"/>
   </g>
   <g id="line2d_17">
    <path clip-path="url(#pb5836cedbd)" d="M 76.613125 234.295601 
L 82.471514 352.789734 
L 105.905071 353.2239 
L 228.931246 353.182153 
L 234.789635 353.015166 
L 240.648024 353.2239 
L 252.364803 353.165455 
L 258.223192 353.065263 
L 264.081581 353.2239 
L 299.231917 353.2239 
L 322.665474 353.2239 
L 328.523863 353.019733 
L 340.240642 353.2239 
L 609.726548 353.161809 
L 615.584937 353.095029 
L 621.443326 353.2239 
L 639.018494 353.2239 
L 644.876883 352.989631 
L 650.735273 352.953073 
L 656.593662 353.2239 
L 949.513125 353.2239 
L 949.513125 353.2239 
" style="fill:none;stroke:#7cb5ec;stroke-linecap:square;"/>
   </g>
   <g id="line2d_18">
    <path clip-path="url(#pb5836cedbd)" d="M 76.613125 235.91533 
L 82.471514 352.925019 
L 88.329904 352.94801 
L 94.188293 353.118142 
L 123.480239 353.2239 
L 228.931246 353.200909 
L 234.789635 353.053768 
L 240.648024 353.2239 
L 252.364803 353.191713 
L 258.223192 353.076758 
L 264.081581 353.2239 
L 322.665474 353.2239 
L 328.523863 353.038689 
L 340.240642 353.2239 
L 639.018494 353.205013 
L 650.735273 352.953338 
L 656.593662 353.2239 
L 949.513125 353.2239 
L 949.513125 353.2239 
" style="fill:none;stroke:#434348;stroke-linecap:square;"/>
   </g>
   <g id="line2d_19">
    <path clip-path="url(#pb5836cedbd)" d="M 76.613125 241.535096 
L 82.471514 352.833038 
L 105.905071 353.2239 
L 228.931246 353.207614 
L 234.789635 353.109898 
L 240.648024 353.2239 
L 322.665474 353.2239 
L 328.523863 353.108285 
L 363.674199 353.20702 
L 404.682924 353.2239 
L 639.018494 353.2239 
L 644.876883 353.033496 
L 650.735273 353.02383 
L 656.593662 353.2239 
L 949.513125 353.2239 
L 949.513125 353.2239 
" style="fill:none;stroke:#90ed7d;stroke-linecap:square;"/>
   </g>
   <g id="line2d_20">
    <path clip-path="url(#pb5836cedbd)" d="M 76.613125 237.400876 
L 82.471514 352.889185 
L 111.763461 353.2239 
L 228.931246 353.17065 
L 234.789635 353.037524 
L 240.648024 353.2239 
L 252.364803 353.178257 
L 258.223192 353.06415 
L 264.081581 353.2239 
L 322.665474 353.2239 
L 328.523863 353.021613 
L 340.240642 353.2239 
L 639.018494 353.2239 
L 650.735273 352.989757 
L 656.593662 353.2239 
L 949.513125 353.2239 
L 949.513125 353.2239 
" style="fill:none;stroke:#f7a35c;stroke-linecap:square;"/>
   </g>
   <g id="line2d_21">
    <path clip-path="url(#pb5836cedbd)" d="M 76.613125 238.704545 
L 82.471514 352.889528 
L 88.329904 352.934866 
L 100.046682 353.155892 
L 111.763461 353.2239 
L 228.931246 353.206898 
L 234.789635 353.065215 
L 240.648024 353.2239 
L 252.364803 353.189896 
L 258.223192 353.104886 
L 264.081581 353.2239 
L 322.665474 353.2239 
L 328.523863 353.057722 
L 340.240642 353.2239 
L 609.726548 353.2239 
L 615.584937 353.034829 
L 621.443326 353.2239 
L 639.018494 353.208195 
L 644.876883 352.995298 
L 650.735273 352.952194 
L 656.593662 353.2239 
L 949.513125 353.2239 
L 949.513125 353.2239 
" style="fill:none;stroke:#8085e9;stroke-linecap:square;"/>
   </g>
   <g id="line2d_22">
    <path clip-path="url(#pb5836cedbd)" d="M 76.613125 235.524229 
L 82.471514 352.845139 
L 105.905071 353.2239 
L 228.931246 353.195081 
L 234.789635 353.046871 
L 240.648024 353.2239 
L 252.364803 353.166262 
L 258.223192 353.055104 
L 264.081581 353.2239 
L 322.665474 353.2239 
L 328.523863 353.002743 
L 340.240642 353.2239 
L 639.018494 353.2239 
L 650.735273 352.939822 
L 656.593662 353.2239 
L 949.513125 353.2239 
L 949.513125 353.2239 
" style="fill:none;stroke:#f15c80;stroke-linecap:square;"/>
   </g>
   <g id="line2d_23">
    <path clip-path="url(#pb5836cedbd)" d="M 76.613125 237.687683 
L 82.471514 352.860919 
L 105.905071 353.2239 
L 228.931246 353.175141 
L 234.789635 353.028865 
L 240.648024 353.2239 
L 252.364803 353.126382 
L 258.223192 353.066789 
L 264.081581 353.2239 
L 322.665474 353.2239 
L 328.523863 353.019936 
L 346.099031 353.2239 
L 609.726548 353.198025 
L 615.584937 353.089868 
L 621.443326 353.2239 
L 639.018494 353.177301 
L 650.735273 353.039531 
L 656.593662 353.2239 
L 732.752722 353.2239 
L 738.611112 353.100479 
L 744.469501 353.2239 
L 949.513125 353.2239 
L 949.513125 353.2239 
" style="fill:none;stroke:#e4d354;stroke-linecap:square;"/>
   </g>
   <g id="line2d_24">
    <path clip-path="url(#pb5836cedbd)" d="M 76.613125 245.853102 
L 82.471514 352.828062 
L 88.329904 353.157927 
L 94.188293 353.025981 
L 100.046682 353.2239 
L 141.055407 353.2239 
L 146.913796 353.091954 
L 152.772185 353.2239 
L 228.931246 353.190914 
L 234.789635 353.058967 
L 240.648024 353.2239 
L 252.364803 353.2239 
L 258.223192 353.058967 
L 264.081581 353.2239 
L 322.665474 353.2239 
L 328.523863 353.018891 
L 334.382253 353.18953 
L 357.81581 353.2239 
L 609.726548 353.2239 
L 615.584937 353.018813 
L 621.443326 353.2239 
L 639.018494 353.2239 
L 644.876883 353.099202 
L 650.735273 353.2239 
L 949.513125 353.2239 
L 949.513125 353.2239 
" style="fill:none;stroke:#2b908f;stroke-linecap:square;"/>
   </g>
   <g id="line2d_25">
    <path clip-path="url(#pb5836cedbd)" d="M 76.613125 244.755476 
L 82.471514 352.942163 
L 88.329904 353.083032 
L 100.046682 353.083032 
L 105.905071 353.2239 
L 228.931246 353.2239 
L 234.789635 353.083032 
L 240.648024 353.2239 
L 252.364803 353.2239 
L 258.223192 353.083032 
L 264.081581 353.2239 
L 322.665474 353.2239 
L 328.523863 353.078417 
L 334.382253 353.2239 
L 949.513125 353.2239 
L 949.513125 353.2239 
" style="fill:none;stroke:#f45b5b;stroke-linecap:square;"/>
   </g>
   <g id="line2d_26">
    <path clip-path="url(#pb5836cedbd)" d="M 76.613125 255.391506 
L 82.471514 353.2239 
L 228.931246 353.2239 
L 234.789635 352.718306 
L 240.648024 353.2239 
L 252.364803 353.2239 
L 258.223192 352.718306 
L 264.081581 353.2239 
L 322.665474 353.2239 
L 328.523863 352.708241 
L 334.382253 353.2239 
L 949.513125 353.2239 
L 949.513125 353.2239 
" style="fill:none;stroke:#91e8e1;stroke-linecap:square;"/>
   </g>
   <g id="line2d_27">
    <path clip-path="url(#pb5836cedbd)" d="M 76.613125 240.659412 
L 82.471514 352.902102 
L 94.188293 353.079091 
L 105.905071 353.2239 
L 228.931246 353.19172 
L 234.789635 353.111271 
L 240.648024 353.2239 
L 246.506414 353.2239 
L 252.364803 353.111271 
L 322.665474 353.2239 
L 328.523863 353.106326 
L 387.107756 353.2239 
L 392.966145 353.168151 
L 404.682924 353.2239 
L 949.513125 353.2239 
L 949.513125 353.2239 
" style="fill:none;stroke:#7cb5ec;stroke-linecap:square;"/>
   </g>
   <g id="line2d_28">
    <path clip-path="url(#pb5836cedbd)" d="M 76.613125 238.831096 
L 82.471514 352.814607 
L 88.329904 353.028556 
L 100.046682 353.130879 
L 111.763461 353.2239 
L 141.055407 353.2239 
L 146.913796 353.089019 
L 152.772185 353.2239 
L 228.931246 353.158785 
L 234.789635 353.089019 
L 240.648024 353.2239 
L 252.364803 353.130879 
L 258.223192 353.107624 
L 264.081581 353.2239 
L 322.665474 353.2239 
L 328.523863 353.04192 
L 346.099031 353.2239 
L 469.125206 353.2239 
L 609.726548 353.190447 
L 615.584937 353.084188 
L 621.443326 353.2239 
L 639.018494 353.2239 
L 650.735273 353.018442 
L 656.593662 353.2239 
L 949.513125 353.2239 
L 949.513125 353.2239 
" style="fill:none;stroke:#434348;stroke-linecap:square;"/>
   </g>
   <g id="line2d_29">
    <path clip-path="url(#pb5836cedbd)" d="M 76.613125 256.9947 
L 82.471514 353.2239 
L 88.329904 352.67402 
L 94.188293 353.2239 
L 949.513125 353.2239 
L 949.513125 353.2239 
" style="fill:none;stroke:#90ed7d;stroke-linecap:square;"/>
   </g>
   <g id="line2d_30">
    <path clip-path="url(#pb5836cedbd)" d="M 76.613125 255.980382 
L 82.471514 353.2239 
L 709.319165 353.2239 
L 715.177555 351.021145 
L 721.035944 353.2239 
L 949.513125 353.2239 
L 949.513125 353.2239 
" style="fill:none;stroke:#f7a35c;stroke-linecap:square;"/>
   </g>
   <g id="line2d_31">
    <path clip-path="url(#pb5836cedbd)" d="M 76.613125 247.654708 
L 82.471514 353.019705 
L 94.188293 353.121802 
L 105.905071 353.2239 
L 246.506414 353.2239 
L 252.364803 353.019705 
L 258.223192 353.2239 
L 328.523863 353.2239 
L 334.382253 353.018009 
L 340.240642 353.2239 
L 504.275541 353.2239 
L 510.13393 353.090019 
L 515.99232 353.2239 
L 568.717823 353.2239 
L 574.576212 353.04831 
L 580.434602 353.2239 
L 609.726548 353.2239 
L 615.584937 353.006241 
L 621.443326 353.2239 
L 639.018494 353.2239 
L 644.876883 352.967288 
L 650.735273 353.2239 
L 949.513125 353.2239 
L 949.513125 353.2239 
" style="fill:none;stroke:#8085e9;stroke-linecap:square;"/>
   </g>
   <g id="line2d_32">
    <path clip-path="url(#pb5836cedbd)" d="M 76.613125 237.554773 
L 82.471514 352.85685 
L 111.763461 353.2239 
L 141.055407 353.2239 
L 146.913796 353.110962 
L 152.772185 353.2239 
L 228.931246 353.195665 
L 234.789635 353.030292 
L 240.648024 353.2239 
L 252.364803 353.187598 
L 258.223192 353.058526 
L 264.081581 353.2239 
L 322.665474 353.2239 
L 328.523863 353.024128 
L 340.240642 353.2239 
L 609.726548 353.18486 
L 615.584937 353.007411 
L 621.443326 353.2239 
L 639.018494 353.2239 
L 644.876883 353.02581 
L 650.735273 353.000429 
L 656.593662 353.2239 
L 949.513125 353.2239 
L 949.513125 353.2239 
" style="fill:none;stroke:#f15c80;stroke-linecap:square;"/>
   </g>
   <g id="line2d_33">
    <path clip-path="url(#pb5836cedbd)" d="M 76.613125 236.507386 
L 82.471514 352.804745 
L 94.188293 353.046214 
L 117.62185 353.2239 
L 228.931246 353.20112 
L 234.789635 353.050771 
L 240.648024 353.2239 
L 252.364803 353.141892 
L 258.223192 353.073551 
L 264.081581 353.2239 
L 322.665474 353.2239 
L 328.523863 353.006746 
L 340.240642 353.2239 
L 609.726548 353.16611 
L 615.584937 353.00273 
L 621.443326 353.2239 
L 639.018494 353.2239 
L 644.876883 352.897816 
L 662.452051 353.2239 
L 732.752722 353.2239 
L 738.611112 353.01276 
L 744.469501 353.2239 
L 949.513125 353.2239 
L 949.513125 353.2239 
" style="fill:none;stroke:#e4d354;stroke-linecap:square;"/>
   </g>
   <g id="line2d_34">
    <path clip-path="url(#pb5836cedbd)" d="M 76.613125 240.406946 
L 82.471514 352.891955 
L 94.188293 353.0918 
L 123.480239 353.2239 
L 170.347353 353.2239 
L 228.931246 353.206964 
L 234.789635 353.081638 
L 240.648024 353.2239 
L 252.364803 353.179867 
L 258.223192 353.095187 
L 264.081581 353.2239 
L 322.665474 353.2239 
L 328.523863 353.058815 
L 340.240642 353.2239 
L 639.018494 353.2239 
L 650.735273 353.023904 
L 656.593662 353.2239 
L 931.937957 353.2239 
L 937.796346 353.094413 
L 943.654736 353.2239 
L 949.513125 353.2239 
L 949.513125 353.2239 
" style="fill:none;stroke:#2b908f;stroke-linecap:square;"/>
   </g>
   <g id="line2d_35">
    <path clip-path="url(#pb5836cedbd)" d="M 76.613125 236.871142 
L 82.471514 352.831384 
L 88.329904 353.004278 
L 117.62185 353.2239 
L 228.931246 353.181845 
L 234.789635 353.004278 
L 240.648024 353.2239 
L 252.364803 353.149135 
L 258.223192 353.036988 
L 264.081581 353.2239 
L 322.665474 353.2239 
L 328.523863 352.980094 
L 340.240642 353.2239 
L 609.726548 353.208297 
L 615.584937 353.045032 
L 621.443326 353.2239 
L 639.018494 353.204629 
L 644.876883 353.002406 
L 650.735273 353.013511 
L 656.593662 353.2239 
L 949.513125 353.2239 
L 949.513125 353.2239 
" style="fill:none;stroke:#f45b5b;stroke-linecap:square;"/>
   </g>
   <g id="line2d_36">
    <path clip-path="url(#pb5836cedbd)" d="M 76.613125 240.329362 
L 82.471514 352.886519 
L 88.329904 353.026125 
L 100.046682 353.154097 
L 111.763461 353.2239 
L 141.055407 353.2239 
L 146.913796 353.07266 
L 152.772185 353.2239 
L 322.665474 353.2239 
L 328.523863 353.094688 
L 363.674199 353.211977 
L 387.107756 353.2239 
L 392.966145 353.150622 
L 410.541313 353.2239 
L 639.018494 353.2239 
L 644.876883 352.934224 
L 656.593662 353.2239 
L 949.513125 353.2239 
L 949.513125 353.2239 
" style="fill:none;stroke:#91e8e1;stroke-linecap:square;"/>
   </g>
   <g id="line2d_37">
    <path clip-path="url(#pb5836cedbd)" d="M 76.613125 247.359634 
L 82.471514 352.767096 
L 88.329904 353.081149 
L 100.046682 353.109699 
L 105.905071 353.2239 
L 228.931246 353.1668 
L 234.789635 353.081149 
L 240.648024 353.2239 
L 252.364803 353.2239 
L 258.223192 353.109699 
L 264.081581 353.2239 
L 322.665474 353.2239 
L 328.523863 353.051827 
L 334.382253 353.2239 
L 574.576212 353.2239 
L 580.434602 353.083765 
L 586.292991 353.2239 
L 609.726548 353.170161 
L 615.584937 352.947235 
L 621.443326 353.2239 
L 639.018494 353.2239 
L 644.876883 353.029873 
L 674.16883 353.2239 
L 949.513125 353.2239 
L 949.513125 353.2239 
" style="fill:none;stroke:#7cb5ec;stroke-linecap:square;"/>
   </g>
   <g id="line2d_38">
    <path clip-path="url(#pb5836cedbd)" d="M 76.613125 239.634919 
L 82.471514 352.863436 
L 94.188293 353.090685 
L 123.480239 353.2239 
L 228.931246 353.192555 
L 234.789635 353.098521 
L 240.648024 353.2239 
L 322.665474 353.2239 
L 328.523863 353.084042 
L 340.240642 353.2239 
L 609.726548 353.210272 
L 615.584937 353.110197 
L 621.443326 353.2239 
L 639.018494 353.2239 
L 644.876883 353.065006 
L 650.735273 353.020861 
L 656.593662 353.2239 
L 931.937957 353.2239 
L 937.796346 353.039736 
L 943.654736 353.2239 
L 949.513125 353.2239 
L 949.513125 353.2239 
" style="fill:none;stroke:#434348;stroke-linecap:square;"/>
   </g>
   <g id="line2d_39">
    <path clip-path="url(#pb5836cedbd)" d="M 76.613125 263.260578 
L 82.471514 353.2239 
L 88.329904 351.289198 
L 94.188293 353.2239 
L 644.876883 353.2239 
L 650.735273 350.974391 
L 656.593662 353.2239 
L 949.513125 353.2239 
L 949.513125 353.2239 
" style="fill:none;stroke:#90ed7d;stroke-linecap:square;"/>
   </g>
   <g id="line2d_40">
    <path clip-path="url(#pb5836cedbd)" d="M 76.613125 249.322769 
L 82.471514 353.2239 
L 94.188293 353.2239 
L 100.046682 352.714581 
L 105.905071 353.2239 
L 228.931246 353.2239 
L 234.789635 352.96924 
L 240.648024 353.2239 
L 252.364803 353.2239 
L 258.223192 352.96924 
L 264.081581 353.2239 
L 322.665474 353.2239 
L 328.523863 352.951071 
L 334.382253 353.2239 
L 709.319165 353.2239 
L 715.177555 352.15886 
L 721.035944 353.2239 
L 949.513125 353.2239 
L 949.513125 353.2239 
" style="fill:none;stroke:#f7a35c;stroke-linecap:square;"/>
   </g>
   <g id="line2d_41">
    <path clip-path="url(#pb5836cedbd)" d="M 76.613125 244.336394 
L 82.471514 352.912399 
L 88.329904 353.049827 
L 100.046682 353.159768 
L 111.763461 353.2239 
L 141.055407 353.2239 
L 146.913796 353.086474 
L 152.772185 353.2239 
L 228.931246 353.196415 
L 234.789635 353.095635 
L 240.648024 353.2239 
L 252.364803 353.132282 
L 258.223192 353.104797 
L 264.081581 353.2239 
L 334.382253 353.128335 
L 346.099031 353.2239 
L 639.018494 353.2239 
L 650.735273 353.010055 
L 656.593662 353.2239 
L 949.513125 353.2239 
L 949.513125 353.2239 
" style="fill:none;stroke:#8085e9;stroke-linecap:square;"/>
   </g>
   <g id="line2d_42">
    <path clip-path="url(#pb5836cedbd)" d="M 76.613125 249.767924 
L 82.471514 352.878217 
L 94.188293 353.085627 
L 117.62185 353.2239 
L 228.931246 353.210073 
L 234.789635 353.071799 
L 240.648024 353.2239 
L 252.364803 353.196245 
L 258.223192 353.085627 
L 264.081581 353.2239 
L 322.665474 353.2239 
L 328.523863 353.014587 
L 334.382253 353.195946 
L 357.81581 353.2239 
L 398.824534 353.2239 
L 639.018494 353.2239 
L 644.876883 352.992679 
L 650.735273 353.036125 
L 656.593662 353.2239 
L 949.513125 353.2239 
L 949.513125 353.2239 
" style="fill:none;stroke:#f15c80;stroke-linecap:square;"/>
   </g>
   <g id="line2d_43">
    <path clip-path="url(#pb5836cedbd)" d="M 76.613125 247.467107 
L 82.471514 352.840838 
L 88.329904 353.112174 
L 94.188293 353.064291 
L 105.905071 353.2239 
L 228.931246 353.207939 
L 234.789635 353.112174 
L 240.648024 353.2239 
L 252.364803 353.176017 
L 258.223192 353.112174 
L 264.081581 353.2239 
L 322.665474 353.2239 
L 328.523863 353.079711 
L 346.099031 353.2239 
L 639.018494 353.2239 
L 644.876883 353.102294 
L 650.735273 353.100796 
L 656.593662 353.2239 
L 949.513125 353.2239 
L 949.513125 353.2239 
" style="fill:none;stroke:#e4d354;stroke-linecap:square;"/>
   </g>
   <g id="line2d_44">
    <path clip-path="url(#pb5836cedbd)" d="M 76.613125 250.575562 
L 82.471514 352.909323 
L 94.188293 353.108341 
L 123.480239 353.2239 
L 228.931246 353.20464 
L 234.789635 353.095501 
L 240.648024 353.2239 
L 322.665474 353.2239 
L 328.523863 353.075749 
L 346.099031 353.2239 
L 609.726548 353.197448 
L 615.584937 353.107967 
L 621.443326 353.2239 
L 639.018494 353.2239 
L 644.876883 353.08235 
L 726.894333 353.2239 
L 949.513125 353.2239 
L 949.513125 353.2239 
" style="fill:none;stroke:#2b908f;stroke-linecap:square;"/>
   </g>
   <g id="line2d_45">
    <path clip-path="url(#pb5836cedbd)" d="M 76.613125 272.277514 
L 82.471514 353.2239 
L 949.513125 353.2239 
L 949.513125 353.2239 
" style="fill:none;stroke:#f45b5b;stroke-linecap:square;"/>
   </g>
   <g id="line2d_46">
    <path clip-path="url(#pb5836cedbd)" d="M 76.613125 250.227705 
L 82.471514 352.684651 
L 88.329904 352.684651 
L 94.188293 353.2239 
L 644.876883 353.2239 
L 650.735273 352.167 
L 656.593662 353.2239 
L 949.513125 353.2239 
L 949.513125 353.2239 
" style="fill:none;stroke:#91e8e1;stroke-linecap:square;"/>
   </g>
   <g id="line2d_47">
    <path clip-path="url(#pb5836cedbd)" d="M 76.613125 258.857993 
L 82.471514 352.882701 
L 88.329904 353.175157 
L 94.188293 353.077672 
L 123.480239 353.2239 
L 141.055407 353.2239 
L 146.913796 353.028929 
L 152.772185 353.2239 
L 322.665474 353.2239 
L 328.523863 353.076823 
L 334.382253 353.2239 
L 387.107756 353.2239 
L 392.966145 353.075155 
L 398.824534 353.2239 
L 609.726548 353.1689 
L 615.584937 353.002859 
L 621.443326 353.2239 
L 639.018494 353.167642 
L 644.876883 352.997794 
L 650.735273 353.167098 
L 662.452051 353.2239 
L 931.937957 353.2239 
L 937.796346 353.065261 
L 943.654736 353.2239 
L 949.513125 353.2239 
L 949.513125 353.2239 
" style="fill:none;stroke:#7cb5ec;stroke-linecap:square;"/>
   </g>
   <g id="line2d_48">
    <path clip-path="url(#pb5836cedbd)" d="M 76.613125 248.562189 
L 82.471514 352.981973 
L 94.188293 353.166298 
L 105.905071 353.2239 
L 322.665474 353.2239 
L 328.523863 353.112136 
L 340.240642 353.2239 
L 644.876883 353.132809 
L 650.735273 353.101682 
L 656.593662 353.2239 
L 949.513125 353.2239 
L 949.513125 353.2239 
" style="fill:none;stroke:#434348;stroke-linecap:square;"/>
   </g>
   <g id="line2d_49">
    <path clip-path="url(#pb5836cedbd)" d="M 76.613125 258.997263 
L 82.471514 353.043906 
L 100.046682 353.2239 
L 609.726548 353.2239 
L 615.584937 353.016224 
L 621.443326 353.2239 
L 732.752722 353.2239 
L 738.611112 353.107616 
L 744.469501 353.2239 
L 949.513125 353.2239 
L 949.513125 353.2239 
" style="fill:none;stroke:#90ed7d;stroke-linecap:square;"/>
   </g>
   <g id="line2d_50">
    <path clip-path="url(#pb5836cedbd)" d="M 76.613125 246.319879 
L 82.471514 352.890542 
L 88.329904 353.105373 
L 100.046682 353.135004 
L 111.763461 353.2239 
L 639.018494 353.2239 
L 644.876883 353.057014 
L 668.31044 353.2239 
L 949.513125 353.2239 
L 949.513125 353.2239 
" style="fill:none;stroke:#f7a35c;stroke-linecap:square;"/>
   </g>
   <g id="line2d_51">
    <path clip-path="url(#pb5836cedbd)" d="M 76.613125 248.029911 
L 82.471514 352.881909 
L 88.329904 353.078237 
L 182.064132 353.2239 
L 322.665474 353.2239 
L 328.523863 353.107441 
L 346.099031 353.2239 
L 539.425877 353.2239 
L 609.726548 353.163471 
L 615.584937 353.110429 
L 621.443326 353.2239 
L 639.018494 353.2156 
L 644.876883 353.023476 
L 662.452051 353.2239 
L 949.513125 353.2239 
L 949.513125 353.2239 
" style="fill:none;stroke:#8085e9;stroke-linecap:square;"/>
   </g>
   <g id="line2d_52">
    <path clip-path="url(#pb5836cedbd)" d="M 76.613125 249.51037 
L 82.471514 352.929892 
L 88.329904 353.09026 
L 228.931246 353.197172 
L 234.789635 353.116988 
L 246.506414 353.2239 
L 264.081581 353.2239 
L 322.665474 353.2239 
L 328.523863 353.105417 
L 340.240642 353.2239 
L 644.876883 353.15075 
L 650.735273 353.088894 
L 656.593662 353.2239 
L 949.513125 353.2239 
L 949.513125 353.2239 
" style="fill:none;stroke:#f15c80;stroke-linecap:square;"/>
   </g>
   <g id="line2d_53">
    <path clip-path="url(#pb5836cedbd)" d="M 76.613125 252.015957 
L 82.471514 352.991189 
L 105.905071 353.2239 
L 644.876883 353.138188 
L 650.735273 353.051379 
L 656.593662 353.2239 
L 949.513125 353.2239 
L 949.513125 353.2239 
" style="fill:none;stroke:#e4d354;stroke-linecap:square;"/>
   </g>
   <g id="line2d_54">
    <path clip-path="url(#pb5836cedbd)" d="M 76.613125 255.406132 
L 82.471514 352.970495 
L 88.329904 353.110843 
L 170.347353 353.2239 
L 639.018494 353.214789 
L 644.876883 353.086571 
L 721.035944 353.214127 
L 791.336615 353.2239 
L 949.513125 353.2239 
L 949.513125 353.2239 
" style="fill:none;stroke:#2b908f;stroke-linecap:square;"/>
   </g>
   <g id="line2d_55">
    <path clip-path="url(#pb5836cedbd)" d="M 76.613125 251.798467 
L 82.471514 352.981365 
L 94.188293 353.178015 
L 105.905071 353.2239 
L 322.665474 353.2239 
L 328.523863 353.090779 
L 346.099031 353.2239 
L 644.876883 353.134229 
L 650.735273 353.100998 
L 656.593662 353.2239 
L 949.513125 353.2239 
L 949.513125 353.2239 
" style="fill:none;stroke:#f45b5b;stroke-linecap:square;"/>
   </g>
   <g id="line2d_56">
    <path clip-path="url(#pb5836cedbd)" d="M 76.613125 247.29922 
L 82.471514 352.884162 
L 88.329904 353.055782 
L 135.197018 353.2239 
L 228.931246 353.202885 
L 234.789635 353.083802 
L 240.648024 353.2239 
L 322.665474 353.2239 
L 328.523863 353.069712 
L 346.099031 353.2239 
L 609.726548 353.182749 
L 615.584937 353.095027 
L 621.443326 353.2239 
L 639.018494 353.219172 
L 644.876883 353.081088 
L 650.735273 353.056158 
L 656.593662 353.219074 
L 797.195004 353.2239 
L 949.513125 353.2239 
L 949.513125 353.2239 
" style="fill:none;stroke:#91e8e1;stroke-linecap:square;"/>
   </g>
   <g id="line2d_57">
    <path clip-path="url(#pb5836cedbd)" d="M 76.613125 247.166945 
L 82.471514 352.919507 
L 88.329904 353.106415 
L 100.046682 353.170498 
L 117.62185 353.2239 
L 228.931246 353.21322 
L 234.789635 353.063693 
L 240.648024 353.2239 
L 252.364803 353.202539 
L 258.223192 353.095735 
L 264.081581 353.2239 
L 381.249367 353.2239 
L 609.726548 353.160862 
L 615.584937 353.111039 
L 621.443326 353.2239 
L 949.513125 353.2239 
L 949.513125 353.2239 
" style="fill:none;stroke:#7cb5ec;stroke-linecap:square;"/>
   </g>
   <g id="line2d_58">
    <path clip-path="url(#pb5836cedbd)" d="M 76.613125 257.023953 
L 82.471514 352.913291 
L 88.329904 353.2239 
L 94.188293 353.135154 
L 105.905071 353.2239 
L 228.931246 353.2239 
L 234.789635 353.090782 
L 240.648024 353.2239 
L 322.665474 353.2239 
L 328.523863 353.089517 
L 334.382253 353.2239 
L 949.513125 353.2239 
L 949.513125 353.2239 
" style="fill:none;stroke:#434348;stroke-linecap:square;"/>
   </g>
   <g id="line2d_59">
    <path clip-path="url(#pb5836cedbd)" d="M 76.613125 251.220402 
L 82.471514 352.970737 
L 94.188293 353.146545 
L 228.931246 353.202803 
L 240.648024 353.2239 
L 609.726548 353.181983 
L 615.584937 353.097539 
L 621.443326 353.2239 
L 644.876883 353.128913 
L 650.735273 353.111063 
L 656.593662 353.2239 
L 949.513125 353.2239 
L 949.513125 353.2239 
" style="fill:none;stroke:#90ed7d;stroke-linecap:square;"/>
   </g>
   <g id="line2d_60">
    <path clip-path="url(#pb5836cedbd)" d="M 76.613125 248.39303 
L 82.471514 352.901528 
L 88.329904 353.059982 
L 129.338628 353.2239 
L 322.665474 353.2239 
L 328.523863 353.102462 
L 346.099031 353.2239 
L 609.726548 353.165906 
L 615.584937 353.074936 
L 621.443326 353.2239 
L 639.018494 353.217287 
L 644.876883 353.071006 
L 674.16883 353.2239 
L 949.513125 353.2239 
L 949.513125 353.2239 
" style="fill:none;stroke:#f7a35c;stroke-linecap:square;"/>
   </g>
   <g id="line2d_61">
    <path clip-path="url(#pb5836cedbd)" d="M 76.613125 248.151374 
L 82.471514 352.848307 
L 88.329904 353.10111 
L 100.046682 353.180562 
L 117.62185 353.2239 
L 639.018494 353.2239 
L 644.876883 353.064368 
L 674.16883 353.2239 
L 949.513125 353.2239 
L 949.513125 353.2239 
" style="fill:none;stroke:#8085e9;stroke-linecap:square;"/>
   </g>
   <g id="line2d_62">
    <path clip-path="url(#pb5836cedbd)" d="M 76.613125 252.275419 
L 82.471514 352.893787 
L 88.329904 353.091855 
L 217.214467 353.2239 
L 322.665474 353.2239 
L 328.523863 353.111466 
L 340.240642 353.2239 
L 639.018494 353.2239 
L 644.876883 353.035203 
L 662.452051 353.2239 
L 949.513125 353.2239 
L 949.513125 353.2239 
" style="fill:none;stroke:#f15c80;stroke-linecap:square;"/>
   </g>
   <g id="line2d_63">
    <path clip-path="url(#pb5836cedbd)" d="M 76.613125 250.211171 
L 82.471514 352.964563 
L 94.188293 353.13128 
L 949.513125 353.2239 
L 949.513125 353.2239 
" style="fill:none;stroke:#e4d354;stroke-linecap:square;"/>
   </g>
   <g id="line2d_64">
    <path clip-path="url(#pb5836cedbd)" d="M 76.613125 254.173052 
L 82.471514 352.931406 
L 88.329904 353.081002 
L 129.338628 353.2239 
L 639.018494 353.221302 
L 644.876883 353.083003 
L 650.735273 353.087627 
L 656.593662 353.2239 
L 949.513125 353.2239 
L 949.513125 353.2239 
" style="fill:none;stroke:#2b908f;stroke-linecap:square;"/>
   </g>
   <g id="line2d_65">
    <path clip-path="url(#pb5836cedbd)" d="M 76.613125 249.767288 
L 82.471514 352.938658 
L 94.188293 353.132075 
L 211.356078 353.218039 
L 228.931246 353.216085 
L 234.789635 353.100816 
L 240.648024 353.2239 
L 322.665474 353.2239 
L 328.523863 353.084991 
L 340.240642 353.2239 
L 639.018494 353.221456 
L 644.876883 353.086292 
L 650.735273 353.080578 
L 656.593662 353.221415 
L 920.221179 353.2239 
L 949.513125 353.2239 
L 949.513125 353.2239 
" style="fill:none;stroke:#f45b5b;stroke-linecap:square;"/>
   </g>
   <g id="line2d_66">
    <path clip-path="url(#pb5836cedbd)" d="M 76.613125 246.018445 
L 82.471514 352.973382 
L 88.329904 353.000033 
L 94.188293 353.154608 
L 135.197018 353.2239 
L 228.931246 353.21324 
L 234.789635 353.085316 
L 240.648024 353.2239 
L 322.665474 353.2239 
L 328.523863 353.098232 
L 340.240642 353.2239 
L 639.018494 353.2239 
L 650.735273 353.048929 
L 656.593662 353.2239 
L 949.513125 353.2239 
L 949.513125 353.2239 
" style="fill:none;stroke:#91e8e1;stroke-linecap:square;"/>
   </g>
   <g id="line2d_67">
    <path clip-path="url(#pb5836cedbd)" d="M 76.613125 248.776499 
L 82.471514 352.931196 
L 88.329904 353.102878 
L 100.046682 353.161982 
L 111.763461 353.2239 
L 322.665474 353.2239 
L 328.523863 353.112211 
L 346.099031 353.2239 
L 639.018494 353.2239 
L 644.876883 353.064447 
L 668.31044 353.2239 
L 949.513125 353.2239 
L 949.513125 353.2239 
" style="fill:none;stroke:#7cb5ec;stroke-linecap:square;"/>
   </g>
   <g id="line2d_68">
    <path clip-path="url(#pb5836cedbd)" d="M 76.613125 245.775518 
L 82.471514 352.891127 
L 88.329904 353.09911 
L 322.665474 353.2239 
L 334.382253 353.176668 
L 351.95742 353.2239 
L 639.018494 353.2239 
L 644.876883 353.027256 
L 662.452051 353.2239 
L 949.513125 353.2239 
L 949.513125 353.2239 
" style="fill:none;stroke:#434348;stroke-linecap:square;"/>
   </g>
   <g id="line2d_69">
    <path clip-path="url(#pb5836cedbd)" d="M 76.613125 250.033109 
L 82.471514 352.943309 
L 88.329904 353.101904 
L 123.480239 353.2239 
L 322.665474 353.2239 
L 328.523863 353.107037 
L 357.81581 353.2239 
L 381.249367 353.2239 
L 639.018494 353.2169 
L 644.876883 353.104452 
L 844.062118 353.2239 
L 949.513125 353.2239 
L 949.513125 353.2239 
" style="fill:none;stroke:#90ed7d;stroke-linecap:square;"/>
   </g>
   <g id="line2d_70">
    <path clip-path="url(#pb5836cedbd)" d="M 76.613125 247.403514 
L 82.471514 352.940631 
L 100.046682 353.184458 
L 117.62185 353.2239 
L 639.018494 353.2239 
L 650.735273 353.075158 
L 656.593662 353.2239 
L 949.513125 353.2239 
L 949.513125 353.2239 
" style="fill:none;stroke:#f7a35c;stroke-linecap:square;"/>
   </g>
   <g id="line2d_71">
    <path clip-path="url(#pb5836cedbd)" d="M 76.613125 247.94088 
L 82.471514 352.965402 
L 111.763461 353.2239 
L 228.931246 353.205436 
L 234.789635 353.00233 
L 240.648024 353.2239 
L 252.364803 353.205436 
L 258.223192 353.00233 
L 264.081581 353.2239 
L 322.665474 353.2239 
L 328.523863 352.921746 
L 334.382253 353.204948 
L 369.532588 353.2239 
L 644.876883 353.142627 
L 650.735273 353.087274 
L 656.593662 353.2239 
L 949.513125 353.2239 
L 949.513125 353.2239 
" style="fill:none;stroke:#8085e9;stroke-linecap:square;"/>
   </g>
   <g id="line2d_72">
    <path clip-path="url(#pb5836cedbd)" d="M 76.613125 245.191728 
L 82.471514 352.851506 
L 88.329904 353.045798 
L 100.046682 353.164533 
L 111.763461 353.2239 
L 228.931246 353.207709 
L 234.789635 353.094372 
L 240.648024 353.2239 
L 252.364803 353.16993 
L 258.223192 353.110563 
L 264.081581 353.2239 
L 322.665474 353.2239 
L 328.523863 353.069236 
L 346.099031 353.2239 
L 639.018494 353.216055 
L 644.876883 353.049798 
L 668.31044 353.2239 
L 949.513125 353.2239 
L 949.513125 353.2239 
" style="fill:none;stroke:#f15c80;stroke-linecap:square;"/>
   </g>
   <g id="line2d_73">
    <path clip-path="url(#pb5836cedbd)" d="M 76.613125 252.689414 
L 82.471514 352.958292 
L 94.188293 353.144368 
L 217.214467 353.2239 
L 322.665474 353.2239 
L 328.523863 353.093494 
L 346.099031 353.2239 
L 639.018494 353.222134 
L 644.876883 353.103323 
L 926.079568 353.2239 
L 949.513125 353.2239 
L 949.513125 353.2239 
" style="fill:none;stroke:#e4d354;stroke-linecap:square;"/>
   </g>
   <g id="line2d_74">
    <path clip-path="url(#pb5836cedbd)" d="M 76.613125 246.784748 
L 82.471514 352.947927 
L 105.905071 353.2239 
L 322.665474 353.2239 
L 328.523863 353.075305 
L 340.240642 353.2239 
L 639.018494 353.218978 
L 650.735273 353.068818 
L 656.593662 353.2239 
L 949.513125 353.2239 
L 949.513125 353.2239 
" style="fill:none;stroke:#2b908f;stroke-linecap:square;"/>
   </g>
   <g id="line2d_75">
    <path clip-path="url(#pb5836cedbd)" d="M 76.613125 255.044285 
L 82.471514 352.946556 
L 88.329904 353.110441 
L 117.62185 353.2239 
L 228.931246 353.2239 
L 234.789635 353.047409 
L 240.648024 353.2239 
L 252.364803 353.2239 
L 258.223192 353.110441 
L 264.081581 353.2239 
L 322.665474 353.2239 
L 328.523863 353.046144 
L 340.240642 353.2239 
L 639.018494 353.2239 
L 644.876883 353.053615 
L 656.593662 353.2239 
L 949.513125 353.2239 
L 949.513125 353.2239 
" style="fill:none;stroke:#f45b5b;stroke-linecap:square;"/>
   </g>
   <g id="line2d_76">
    <path clip-path="url(#pb5836cedbd)" d="M 76.613125 248.435638 
L 82.471514 352.868728 
L 94.188293 353.103395 
L 111.763461 353.2239 
L 228.931246 353.211215 
L 234.789635 353.090711 
L 240.648024 353.2239 
L 252.364803 353.179504 
L 258.223192 353.103395 
L 264.081581 353.2239 
L 322.665474 353.2239 
L 328.523863 353.069018 
L 340.240642 353.2239 
L 639.018494 353.2239 
L 650.735273 353.064265 
L 656.593662 353.2239 
L 949.513125 353.2239 
L 949.513125 353.2239 
" style="fill:none;stroke:#91e8e1;stroke-linecap:square;"/>
   </g>
   <g id="line2d_77">
    <path clip-path="url(#pb5836cedbd)" d="M 76.613125 248.81084 
L 82.471514 352.867939 
L 88.329904 353.072179 
L 117.62185 353.2239 
L 609.726548 353.120133 
L 615.584937 353.104558 
L 621.443326 353.2239 
L 639.018494 353.208591 
L 644.876883 353.038952 
L 674.16883 353.2239 
L 949.513125 353.2239 
L 949.513125 353.2239 
" style="fill:none;stroke:#7cb5ec;stroke-linecap:square;"/>
   </g>
   <g id="line2d_78">
    <path clip-path="url(#pb5836cedbd)" d="M 76.613125 249.719593 
L 82.471514 352.884736 
L 94.188293 353.146547 
L 228.931246 353.21795 
L 234.789635 353.104895 
L 240.648024 353.2239 
L 322.665474 353.2239 
L 328.523863 353.059584 
L 340.240642 353.2239 
L 639.018494 353.2239 
L 650.735273 353.067684 
L 656.593662 353.2239 
L 949.513125 353.2239 
L 949.513125 353.2239 
" style="fill:none;stroke:#434348;stroke-linecap:square;"/>
   </g>
   <g id="line2d_79">
    <path clip-path="url(#pb5836cedbd)" d="M 76.613125 250.599728 
L 82.471514 352.91316 
L 88.329904 353.098963 
L 100.046682 353.166237 
L 111.763461 353.2239 
L 228.931246 353.207882 
L 234.789635 353.089352 
L 240.648024 353.2239 
L 252.364803 353.191865 
L 258.223192 353.10537 
L 264.081581 353.2239 
L 322.665474 353.2239 
L 328.523863 353.070907 
L 340.240642 353.2239 
L 639.018494 353.216042 
L 644.876883 353.058077 
L 674.16883 353.2239 
L 949.513125 353.2239 
L 949.513125 353.2239 
" style="fill:none;stroke:#90ed7d;stroke-linecap:square;"/>
   </g>
   <g id="line2d_80">
    <path clip-path="url(#pb5836cedbd)" d="M 76.613125 252.98258 
L 82.471514 352.988721 
L 88.329904 353.127062 
L 176.205742 353.2239 
L 609.726548 353.206798 
L 615.584937 353.103487 
L 621.443326 353.2239 
L 639.018494 353.2239 
L 644.876883 353.082016 
L 662.452051 353.2239 
L 949.513125 353.2239 
L 949.513125 353.2239 
" style="fill:none;stroke:#f7a35c;stroke-linecap:square;"/>
   </g>
   <g id="line2d_81">
    <path clip-path="url(#pb5836cedbd)" d="M 76.613125 252.110712 
L 82.471514 352.945934 
L 88.329904 353.111884 
L 322.665474 353.2239 
L 328.523863 353.102689 
L 346.099031 353.2239 
L 639.018494 353.21912 
L 644.876883 353.075146 
L 680.027219 353.2239 
L 721.035944 353.2239 
L 949.513125 353.2239 
L 949.513125 353.2239 
" style="fill:none;stroke:#8085e9;stroke-linecap:square;"/>
   </g>
   <g id="line2d_82">
    <path clip-path="url(#pb5836cedbd)" d="M 76.613125 247.986667 
L 82.471514 352.957564 
L 94.188293 353.108102 
L 111.763461 353.2239 
L 228.931246 353.2239 
L 234.789635 353.108102 
L 240.648024 353.2239 
L 322.665474 353.2239 
L 328.523863 353.08338 
L 340.240642 353.2239 
L 639.018494 353.208455 
L 644.876883 353.068255 
L 674.16883 353.2239 
L 949.513125 353.2239 
L 949.513125 353.2239 
" style="fill:none;stroke:#f15c80;stroke-linecap:square;"/>
   </g>
   <g id="line2d_83">
    <path clip-path="url(#pb5836cedbd)" d="M 76.613125 247.401606 
L 82.471514 352.953329 
L 94.188293 353.165398 
L 111.763461 353.2239 
L 228.931246 353.201962 
L 234.789635 353.106896 
L 240.648024 353.2239 
L 322.665474 353.2239 
L 328.523863 353.095909 
L 346.099031 353.2239 
L 609.726548 353.19045 
L 615.584937 353.111149 
L 621.443326 353.2239 
L 949.513125 353.2239 
L 949.513125 353.2239 
" style="fill:none;stroke:#e4d354;stroke-linecap:square;"/>
   </g>
   <g id="line2d_84">
    <path clip-path="url(#pb5836cedbd)" d="M 76.613125 250.118324 
L 82.471514 352.881511 
L 105.905071 353.2239 
L 322.665474 353.2239 
L 328.523863 353.11262 
L 340.240642 353.2239 
L 609.726548 353.182689 
L 615.584937 353.037145 
L 621.443326 353.2239 
L 639.018494 353.2239 
L 644.876883 353.051841 
L 650.735273 353.007286 
L 656.593662 353.2239 
L 949.513125 353.2239 
L 949.513125 353.2239 
" style="fill:none;stroke:#2b908f;stroke-linecap:square;"/>
   </g>
   <g id="line2d_85">
    <path clip-path="url(#pb5836cedbd)" d="M 76.613125 250.23788 
L 82.471514 352.88522 
L 88.329904 353.12907 
L 94.188293 353.095202 
L 105.905071 353.2239 
L 228.931246 353.210353 
L 234.789635 353.108749 
L 240.648024 353.2239 
L 322.665474 353.2239 
L 328.523863 353.093053 
L 351.95742 353.2239 
L 639.018494 353.215402 
L 644.876883 353.070101 
L 662.452051 353.2239 
L 949.513125 353.2239 
L 949.513125 353.2239 
" style="fill:none;stroke:#f45b5b;stroke-linecap:square;"/>
   </g>
   <g id="line2d_86">
    <path clip-path="url(#pb5836cedbd)" d="M 76.613125 252.389888 
L 82.471514 352.915864 
L 88.329904 353.11237 
L 164.488964 353.2239 
L 639.018494 353.2239 
L 644.876883 353.100317 
L 685.885608 353.217541 
L 791.336615 353.2239 
L 949.513125 353.2239 
L 949.513125 353.2239 
" style="fill:none;stroke:#91e8e1;stroke-linecap:square;"/>
   </g>
   <g id="line2d_87">
    <path clip-path="url(#pb5836cedbd)" d="M 76.613125 250.847743 
L 82.471514 352.887702 
L 88.329904 353.073684 
L 193.78091 353.2239 
L 322.665474 353.2239 
L 328.523863 353.093236 
L 340.240642 353.2239 
L 639.018494 353.2239 
L 644.876883 353.042378 
L 680.027219 353.2239 
L 744.469501 353.2239 
L 949.513125 353.2239 
L 949.513125 353.2239 
" style="fill:none;stroke:#7cb5ec;stroke-linecap:square;"/>
   </g>
   <g id="line2d_88">
    <path clip-path="url(#pb5836cedbd)" d="M 76.613125 251.126283 
L 82.471514 352.944255 
L 94.188293 353.12153 
L 129.338628 353.221403 
L 228.931246 353.218906 
L 234.789635 353.144002 
L 246.506414 353.2239 
L 258.223192 353.158982 
L 269.939971 353.2239 
L 639.018494 353.2239 
L 644.876883 353.068811 
L 680.027219 353.2239 
L 949.513125 353.2239 
L 949.513125 353.2239 
" style="fill:none;stroke:#434348;stroke-linecap:square;"/>
   </g>
   <g id="line2d_89">
    <path clip-path="url(#pb5836cedbd)" d="M 76.613125 250.488439 
L 82.471514 352.918588 
L 88.329904 353.073457 
L 135.197018 353.2239 
L 639.018494 353.213004 
L 644.876883 353.048712 
L 668.31044 353.2239 
L 949.513125 353.2239 
L 949.513125 353.2239 
" style="fill:none;stroke:#90ed7d;stroke-linecap:square;"/>
   </g>
   <g id="line2d_90">
    <path clip-path="url(#pb5836cedbd)" d="M 76.613125 250.508153 
L 82.471514 352.919247 
L 88.329904 353.076755 
L 135.197018 353.2239 
L 228.931246 353.203175 
L 234.789635 353.109914 
L 240.648024 353.2239 
L 322.665474 353.2239 
L 328.523863 353.099718 
L 340.240642 353.2239 
L 639.018494 353.218593 
L 644.876883 353.090381 
L 732.752722 353.2239 
L 750.32789 353.217847 
L 861.637286 353.2239 
L 949.513125 353.2239 
L 949.513125 353.2239 
" style="fill:none;stroke:#f7a35c;stroke-linecap:square;"/>
   </g>
   <g id="line2d_91">
    <path clip-path="url(#pb5836cedbd)" d="M 76.613125 247.367265 
L 82.471514 352.847376 
L 88.329904 353.008744 
L 135.197018 353.2239 
L 639.018494 353.213564 
L 644.876883 353.036508 
L 650.735273 353.024612 
L 656.593662 353.213332 
L 721.035944 353.2239 
L 949.513125 353.2239 
L 949.513125 353.2239 
" style="fill:none;stroke:#8085e9;stroke-linecap:square;"/>
   </g>
   <g id="line2d_92">
    <path clip-path="url(#pb5836cedbd)" d="M 76.613125 251.418178 
L 82.471514 352.955441 
L 88.329904 353.126957 
L 228.931246 353.216443 
L 234.789635 353.067299 
L 240.648024 353.2239 
L 252.364803 353.179157 
L 258.223192 353.08967 
L 264.081581 353.2239 
L 322.665474 353.2239 
L 328.523863 353.043349 
L 340.240642 353.2239 
L 949.513125 353.2239 
L 949.513125 353.2239 
" style="fill:none;stroke:#f15c80;stroke-linecap:square;"/>
   </g>
   <g id="line2d_93">
    <path clip-path="url(#pb5836cedbd)" d="M 76.613125 256.974986 
L 82.471514 352.95802 
L 88.329904 353.112601 
L 135.197018 353.2239 
L 322.665474 353.2239 
L 328.523863 353.1062 
L 340.240642 353.2239 
L 644.876883 353.113222 
L 650.735273 353.106478 
L 656.593662 353.2239 
L 949.513125 353.2239 
L 949.513125 353.2239 
" style="fill:none;stroke:#e4d354;stroke-linecap:square;"/>
   </g>
   <g id="line2d_94">
    <path clip-path="url(#pb5836cedbd)" d="M 76.613125 249.30687 
L 82.471514 352.853818 
L 88.329904 353.110029 
L 100.046682 353.129007 
L 111.763461 353.2239 
L 228.931246 353.214411 
L 234.789635 353.100539 
L 240.648024 353.2239 
L 322.665474 353.2239 
L 328.523863 353.070576 
L 340.240642 353.2239 
L 639.018494 353.2239 
L 644.876883 353.085698 
L 674.16883 353.2239 
L 949.513125 353.2239 
L 949.513125 353.2239 
" style="fill:none;stroke:#2b908f;stroke-linecap:square;"/>
   </g>
   <g id="line2d_95">
    <path clip-path="url(#pb5836cedbd)" d="M 76.613125 249.574599 
L 82.471514 352.942912 
L 94.188293 353.129409 
L 117.62185 353.2239 
L 322.665474 353.2239 
L 328.523863 353.105586 
L 346.099031 353.2239 
L 639.018494 353.22085 
L 644.876883 353.070568 
L 650.735273 353.085166 
L 656.593662 353.2208 
L 867.495675 353.2239 
L 949.513125 353.2239 
L 949.513125 353.2239 
" style="fill:none;stroke:#f45b5b;stroke-linecap:square;"/>
   </g>
   <g id="line2d_96">
    <path clip-path="url(#pb5836cedbd)" d="M 76.613125 248.289373 
L 82.471514 352.869391 
L 88.329904 353.068802 
L 105.905071 353.2239 
L 228.931246 353.2239 
L 234.789635 353.090959 
L 240.648024 353.2239 
L 252.364803 353.190665 
L 258.223192 353.090959 
L 264.081581 353.2239 
L 322.665474 353.2239 
L 328.523863 353.08713 
L 340.240642 353.2239 
L 639.018494 353.2239 
L 644.876883 353.074468 
L 650.735273 353.073106 
L 656.593662 353.2239 
L 949.513125 353.2239 
L 949.513125 353.2239 
" style="fill:none;stroke:#91e8e1;stroke-linecap:square;"/>
   </g>
   <g id="line2d_97">
    <path clip-path="url(#pb5836cedbd)" d="M 76.613125 254.110095 
L 82.471514 352.978112 
L 88.329904 353.162453 
L 94.188293 353.2239 
L 100.046682 353.101006 
L 105.905071 353.2239 
L 228.931246 353.2239 
L 234.789635 353.070283 
L 240.648024 353.2239 
L 322.665474 353.2239 
L 328.523863 353.100413 
L 346.099031 353.2239 
L 949.513125 353.2239 
L 949.513125 353.2239 
" style="fill:none;stroke:#7cb5ec;stroke-linecap:square;"/>
   </g>
   <g id="line2d_98">
    <path clip-path="url(#pb5836cedbd)" d="M 76.613125 255.394685 
L 82.471514 352.960462 
L 88.329904 353.104928 
L 100.046682 353.121924 
L 111.763461 353.2239 
L 228.931246 353.206904 
L 234.789635 353.09643 
L 240.648024 353.2239 
L 252.364803 353.18141 
L 258.223192 353.104928 
L 264.081581 353.2239 
L 322.665474 353.2239 
L 328.523863 353.078322 
L 340.240642 353.2239 
L 609.726548 353.204705 
L 615.584937 353.108309 
L 621.443326 353.2239 
L 639.018494 353.2239 
L 644.876883 353.076685 
L 668.31044 353.2239 
L 949.513125 353.2239 
L 949.513125 353.2239 
" style="fill:none;stroke:#434348;stroke-linecap:square;"/>
   </g>
   <g id="line2d_99">
    <path clip-path="url(#pb5836cedbd)" d="M 76.613125 248.88906 
L 82.471514 352.921536 
L 94.188293 353.120821 
L 129.338628 353.222182 
L 228.931246 353.205002 
L 234.789635 353.115668 
L 246.506414 353.2239 
L 264.081581 353.2239 
L 322.665474 353.2239 
L 328.523863 353.096908 
L 346.099031 353.2239 
L 639.018494 353.21763 
L 644.876883 353.08316 
L 650.735273 353.0951 
L 656.593662 353.2239 
L 949.513125 353.2239 
L 949.513125 353.2239 
" style="fill:none;stroke:#90ed7d;stroke-linecap:square;"/>
   </g>
   <g id="line2d_100">
    <path clip-path="url(#pb5836cedbd)" d="M 76.613125 248.845181 
L 82.471514 352.918878 
L 88.329904 353.061221 
L 135.197018 353.2239 
L 141.055407 353.2239 
L 146.913796 353.081557 
L 152.772185 353.2239 
L 322.665474 353.2239 
L 328.523863 353.048179 
L 334.382253 353.192815 
L 357.81581 353.2239 
L 639.018494 353.2239 
L 644.876883 353.061968 
L 656.593662 353.2239 
L 949.513125 353.2239 
L 949.513125 353.2239 
" style="fill:none;stroke:#f7a35c;stroke-linecap:square;"/>
   </g>
   <g id="line2d_101">
    <path clip-path="url(#pb5836cedbd)" d="M 76.613125 249.706874 
L 82.471514 352.901288 
L 94.188293 353.124635 
L 949.513125 353.2239 
L 949.513125 353.2239 
" style="fill:none;stroke:#8085e9;stroke-linecap:square;"/>
   </g>
   <g id="line2d_102">
    <path clip-path="url(#pb5836cedbd)" d="M 76.613125 249.90783 
L 82.471514 352.941076 
L 94.188293 353.117119 
L 123.480239 353.2239 
L 322.665474 353.2239 
L 328.523863 353.105866 
L 346.099031 353.2239 
L 639.018494 353.220563 
L 644.876883 353.084855 
L 650.735273 353.07924 
L 656.593662 353.2239 
L 949.513125 353.2239 
L 949.513125 353.2239 
" style="fill:none;stroke:#f15c80;stroke-linecap:square;"/>
   </g>
   <g id="line2d_103">
    <path clip-path="url(#pb5836cedbd)" d="M 76.613125 252.260157 
L 82.471514 352.901367 
L 88.329904 353.125059 
L 100.046682 353.166676 
L 111.763461 353.2239 
L 609.726548 353.17816 
L 615.584937 353.097724 
L 621.443326 353.2239 
L 639.018494 353.218091 
L 644.876883 353.049073 
L 662.452051 353.2239 
L 949.513125 353.2239 
L 949.513125 353.2239 
" style="fill:none;stroke:#e4d354;stroke-linecap:square;"/>
   </g>
   <g id="line2d_104">
    <path clip-path="url(#pb5836cedbd)" d="M 76.613125 248.562189 
L 82.471514 352.855933 
L 88.329904 353.085913 
L 228.931246 353.208568 
L 234.789635 353.150307 
L 246.506414 353.2239 
L 264.081581 353.2239 
L 609.726548 353.181659 
L 615.584937 353.104195 
L 621.443326 353.2239 
L 639.018494 353.2239 
L 644.876883 353.037186 
L 674.16883 353.2239 
L 949.513125 353.2239 
L 949.513125 353.2239 
" style="fill:none;stroke:#2b908f;stroke-linecap:square;"/>
   </g>
   <g id="line2d_105">
    <path clip-path="url(#pb5836cedbd)" d="M 76.613125 247.394611 
L 82.471514 353.014367 
L 100.046682 353.185098 
L 117.62185 353.2239 
L 639.018494 353.2239 
L 644.876883 353.105043 
L 703.460776 353.2239 
L 949.513125 353.2239 
L 949.513125 353.2239 
" style="fill:none;stroke:#f45b5b;stroke-linecap:square;"/>
   </g>
   <g id="line2d_106">
    <path clip-path="url(#pb5836cedbd)" d="M 76.613125 244.889659 
L 82.471514 352.807567 
L 88.329904 353.079785 
L 100.046682 353.167855 
L 111.763461 353.2239 
L 228.931246 353.175862 
L 234.789635 353.071778 
L 240.648024 353.2239 
L 252.364803 353.151843 
L 258.223192 353.079785 
L 264.081581 353.2239 
L 340.240642 353.2239 
L 639.018494 353.2239 
L 644.876883 353.070983 
L 656.593662 353.2239 
L 949.513125 353.2239 
L 949.513125 353.2239 
" style="fill:none;stroke:#91e8e1;stroke-linecap:square;"/>
   </g>
   <g id="line2d_107">
    <path clip-path="url(#pb5836cedbd)" d="M 76.613125 259.118727 
L 82.471514 353.083707 
L 123.480239 353.2239 
L 228.931246 353.2239 
L 234.789635 353.083707 
L 240.648024 353.2239 
L 252.364803 353.188852 
L 258.223192 353.083707 
L 264.081581 353.2239 
L 322.665474 353.2239 
L 328.523863 353.083326 
L 340.240642 353.2239 
L 644.876883 353.185757 
L 650.735273 353.109119 
L 656.593662 353.2239 
L 949.513125 353.2239 
L 949.513125 353.2239 
" style="fill:none;stroke:#7cb5ec;stroke-linecap:square;"/>
   </g>
   <g id="line2d_108">
    <path clip-path="url(#pb5836cedbd)" d="M 76.613125 246.972349 
L 82.471514 352.923157 
L 88.329904 353.13449 
L 949.513125 353.2239 
L 949.513125 353.2239 
" style="fill:none;stroke:#434348;stroke-linecap:square;"/>
   </g>
   <g id="line2d_109">
    <path clip-path="url(#pb5836cedbd)" d="M 76.613125 249.969515 
L 82.471514 352.94327 
L 94.188293 353.144973 
L 141.055407 353.2239 
L 152.772185 353.2239 
L 322.665474 353.2239 
L 328.523863 353.053167 
L 340.240642 353.2239 
L 644.876883 353.118748 
L 650.735273 353.106345 
L 656.593662 353.2239 
L 949.513125 353.2239 
L 949.513125 353.2239 
" style="fill:none;stroke:#90ed7d;stroke-linecap:square;"/>
   </g>
   <g id="line2d_110">
    <path clip-path="url(#pb5836cedbd)" d="M 76.613125 249.688432 
L 82.471514 352.907595 
L 88.329904 353.084835 
L 117.62185 353.2239 
L 228.931246 353.218446 
L 234.789635 353.098469 
L 240.648024 353.2239 
L 322.665474 353.2239 
L 328.523863 353.063372 
L 340.240642 353.2239 
L 639.018494 353.217228 
L 644.876883 353.076371 
L 697.602387 353.2239 
L 949.513125 353.2239 
L 949.513125 353.2239 
" style="fill:none;stroke:#f7a35c;stroke-linecap:square;"/>
   </g>
   <g id="line2d_111">
    <path clip-path="url(#pb5836cedbd)" d="M 32.968125 353.2239 
L 993.158125 353.2239 
" style="fill:none;stroke:#dedede;stroke-linecap:square;stroke-width:2;"/>
   </g>
   <g id="text_17">
    <!-- Fastp: Read N Content -->
    <defs>
     <path d="M 9.8125 72.90625 
L 51.703125 72.90625 
L 51.703125 64.59375 
L 19.671875 64.59375 
L 19.671875 43.109375 
L 48.578125 43.109375 
L 48.578125 34.8125 
L 19.671875 34.8125 
L 19.671875 0 
L 9.8125 0 
z
" id="DejaVuSans-70"/>
     <path d="M 18.109375 8.203125 
L 18.109375 -20.796875 
L 9.078125 -20.796875 
L 9.078125 54.6875 
L 18.109375 54.6875 
L 18.109375 46.390625 
Q 20.953125 51.265625 25.265625 53.625 
Q 29.59375 56 35.59375 56 
Q 45.5625 56 51.78125 48.09375 
Q 58.015625 40.1875 58.015625 27.296875 
Q 58.015625 14.40625 51.78125 6.484375 
Q 45.5625 -1.421875 35.59375 -1.421875 
Q 29.59375 -1.421875 25.265625 0.953125 
Q 20.953125 3.328125 18.109375 8.203125 
z
M 48.6875 27.296875 
Q 48.6875 37.203125 44.609375 42.84375 
Q 40.53125 48.484375 33.40625 48.484375 
Q 26.265625 48.484375 22.1875 42.84375 
Q 18.109375 37.203125 18.109375 27.296875 
Q 18.109375 17.390625 22.1875 11.75 
Q 26.265625 6.109375 33.40625 6.109375 
Q 40.53125 6.109375 44.609375 11.75 
Q 48.6875 17.390625 48.6875 27.296875 
z
" id="DejaVuSans-112"/>
     <path d="M 9.8125 72.90625 
L 23.09375 72.90625 
L 55.421875 11.921875 
L 55.421875 72.90625 
L 64.984375 72.90625 
L 64.984375 0 
L 51.703125 0 
L 19.390625 60.984375 
L 19.390625 0 
L 9.8125 0 
z
" id="DejaVuSans-78"/>
    </defs>
    <g transform="translate(422.606875 19.3575)scale(0.16 -0.16)">
     <use xlink:href="#DejaVuSans-70"/>
     <use x="57.378906" xlink:href="#DejaVuSans-97"/>
     <use x="118.658203" xlink:href="#DejaVuSans-115"/>
     <use x="170.757812" xlink:href="#DejaVuSans-116"/>
     <use x="209.966797" xlink:href="#DejaVuSans-112"/>
     <use x="273.443359" xlink:href="#DejaVuSans-58"/>
     <use x="307.134766" xlink:href="#DejaVuSans-32"/>
     <use x="338.921875" xlink:href="#DejaVuSans-82"/>
     <use x="408.341797" xlink:href="#DejaVuSans-101"/>
     <use x="469.865234" xlink:href="#DejaVuSans-97"/>
     <use x="531.144531" xlink:href="#DejaVuSans-100"/>
     <use x="594.621094" xlink:href="#DejaVuSans-32"/>
     <use x="626.408203" xlink:href="#DejaVuSans-78"/>
     <use x="701.212891" xlink:href="#DejaVuSans-32"/>
     <use x="733" xlink:href="#DejaVuSans-67"/>
     <use x="802.824219" xlink:href="#DejaVuSans-111"/>
     <use x="864.005859" xlink:href="#DejaVuSans-110"/>
     <use x="927.384766" xlink:href="#DejaVuSans-116"/>
     <use x="966.59375" xlink:href="#DejaVuSans-101"/>
     <use x="1028.117188" xlink:href="#DejaVuSans-110"/>
     <use x="1091.496094" xlink:href="#DejaVuSans-116"/>
    </g>
   </g>
  </g>
 </g>
 <defs>
  <clipPath id="pb5836cedbd">
   <rect height="317.968" width="960.19" x="32.968125" y="35.2559"/>
  </clipPath>
 </defs>
</svg>
