<?xml version="1.0" encoding="utf-8" standalone="no"?>
<!DOCTYPE svg PUBLIC "-//W3C//DTD SVG 1.1//EN"
  "http://www.w3.org/Graphics/SVG/1.1/DTD/svg11.dtd">
<!-- Created with matplotlib (https://matplotlib.org/) -->
<svg height="388.844525pt" version="1.1" viewBox="0 0 1000.318125 388.844525" width="1000.318125pt" xmlns="http://www.w3.org/2000/svg" xmlns:xlink="http://www.w3.org/1999/xlink">
 <defs>
  <style type="text/css">
*{stroke-linecap:butt;stroke-linejoin:round;}
  </style>
 </defs>
 <g id="figure_1">
  <g id="axes_1">
   <g id="patch_1">
    <path d="M 38.058125 353.2239 
L 993.118125 353.2239 
L 993.118125 35.2559 
L 38.058125 35.2559 
z
" style="fill:#ffffff;"/>
   </g>
   <g id="patch_2">
    <path clip-path="url(#p67ff878056)" d="M 38.058125 284.510019 
L 956.043799 284.510019 
L 956.043799 9.654495 
L 38.058125 9.654495 
z
" style="fill:#e6c3c3;"/>
   </g>
   <g id="patch_3">
    <path clip-path="url(#p67ff878056)" d="M 38.058125 336.04543 
L 956.043799 336.04543 
L 956.043799 284.510019 
L 38.058125 284.510019 
z
" style="fill:#e6dcc3;"/>
   </g>
   <g id="patch_4">
    <path clip-path="url(#p67ff878056)" d="M 38.058125 353.2239 
L 956.043799 353.2239 
L 956.043799 336.04543 
L 38.058125 336.04543 
z
" style="fill:#c3e6c3;"/>
   </g>
   <g id="matplotlib.axis_1">
    <g id="xtick_1">
     <g id="text_1">
      <!-- 0 -->
      <defs>
       <path d="M 31.78125 66.40625 
Q 24.171875 66.40625 20.328125 58.90625 
Q 16.5 51.421875 16.5 36.375 
Q 16.5 21.390625 20.328125 13.890625 
Q 24.171875 6.390625 31.78125 6.390625 
Q 39.453125 6.390625 43.28125 13.890625 
Q 47.125 21.390625 47.125 36.375 
Q 47.125 51.421875 43.28125 58.90625 
Q 39.453125 66.40625 31.78125 66.40625 
z
M 31.78125 74.21875 
Q 44.046875 74.21875 50.515625 64.515625 
Q 56.984375 54.828125 56.984375 36.375 
Q 56.984375 17.96875 50.515625 8.265625 
Q 44.046875 -1.421875 31.78125 -1.421875 
Q 19.53125 -1.421875 13.0625 8.265625 
Q 6.59375 17.96875 6.59375 36.375 
Q 6.59375 54.828125 13.0625 64.515625 
Q 19.53125 74.21875 31.78125 74.21875 
z
" id="DejaVuSans-48"/>
      </defs>
      <g transform="translate(72.587451 366.30265)scale(0.08 -0.08)">
       <use xlink:href="#DejaVuSans-48"/>
      </g>
     </g>
    </g>
    <g id="xtick_2">
     <g id="text_2">
      <!-- 20 -->
      <defs>
       <path d="M 19.1875 8.296875 
L 53.609375 8.296875 
L 53.609375 0 
L 7.328125 0 
L 7.328125 8.296875 
Q 12.9375 14.109375 22.625 23.890625 
Q 32.328125 33.6875 34.8125 36.53125 
Q 39.546875 41.84375 41.421875 45.53125 
Q 43.3125 49.21875 43.3125 52.78125 
Q 43.3125 58.59375 39.234375 62.25 
Q 35.15625 65.921875 28.609375 65.921875 
Q 23.96875 65.921875 18.8125 64.3125 
Q 13.671875 62.703125 7.8125 59.421875 
L 7.8125 69.390625 
Q 13.765625 71.78125 18.9375 73 
Q 24.125 74.21875 28.421875 74.21875 
Q 39.75 74.21875 46.484375 68.546875 
Q 53.21875 62.890625 53.21875 53.421875 
Q 53.21875 48.921875 51.53125 44.890625 
Q 49.859375 40.875 45.40625 35.40625 
Q 44.1875 33.984375 37.640625 27.21875 
Q 31.109375 20.453125 19.1875 8.296875 
z
" id="DejaVuSans-50"/>
      </defs>
      <g transform="translate(196.792286 366.30265)scale(0.08 -0.08)">
       <use xlink:href="#DejaVuSans-50"/>
       <use x="63.623047" xlink:href="#DejaVuSans-48"/>
      </g>
     </g>
    </g>
    <g id="xtick_3">
     <g id="text_3">
      <!-- 40 -->
      <defs>
       <path d="M 37.796875 64.3125 
L 12.890625 25.390625 
L 37.796875 25.390625 
z
M 35.203125 72.90625 
L 47.609375 72.90625 
L 47.609375 25.390625 
L 58.015625 25.390625 
L 58.015625 17.1875 
L 47.609375 17.1875 
L 47.609375 0 
L 37.796875 0 
L 37.796875 17.1875 
L 4.890625 17.1875 
L 4.890625 26.703125 
z
" id="DejaVuSans-52"/>
      </defs>
      <g transform="translate(323.54212 366.30265)scale(0.08 -0.08)">
       <use xlink:href="#DejaVuSans-52"/>
       <use x="63.623047" xlink:href="#DejaVuSans-48"/>
      </g>
     </g>
    </g>
    <g id="xtick_4">
     <g id="text_4">
      <!-- 60 -->
      <defs>
       <path d="M 33.015625 40.375 
Q 26.375 40.375 22.484375 35.828125 
Q 18.609375 31.296875 18.609375 23.390625 
Q 18.609375 15.53125 22.484375 10.953125 
Q 26.375 6.390625 33.015625 6.390625 
Q 39.65625 6.390625 43.53125 10.953125 
Q 47.40625 15.53125 47.40625 23.390625 
Q 47.40625 31.296875 43.53125 35.828125 
Q 39.65625 40.375 33.015625 40.375 
z
M 52.59375 71.296875 
L 52.59375 62.3125 
Q 48.875 64.0625 45.09375 64.984375 
Q 41.3125 65.921875 37.59375 65.921875 
Q 27.828125 65.921875 22.671875 59.328125 
Q 17.53125 52.734375 16.796875 39.40625 
Q 19.671875 43.65625 24.015625 45.921875 
Q 28.375 48.1875 33.59375 48.1875 
Q 44.578125 48.1875 50.953125 41.515625 
Q 57.328125 34.859375 57.328125 23.390625 
Q 57.328125 12.15625 50.6875 5.359375 
Q 44.046875 -1.421875 33.015625 -1.421875 
Q 20.359375 -1.421875 13.671875 8.265625 
Q 6.984375 17.96875 6.984375 36.375 
Q 6.984375 53.65625 15.1875 63.9375 
Q 23.390625 74.21875 37.203125 74.21875 
Q 40.921875 74.21875 44.703125 73.484375 
Q 48.484375 72.75 52.59375 71.296875 
z
" id="DejaVuSans-54"/>
      </defs>
      <g transform="translate(450.291954 366.30265)scale(0.08 -0.08)">
       <use xlink:href="#DejaVuSans-54"/>
       <use x="63.623047" xlink:href="#DejaVuSans-48"/>
      </g>
     </g>
    </g>
    <g id="xtick_5">
     <g id="text_5">
      <!-- 80 -->
      <defs>
       <path d="M 31.78125 34.625 
Q 24.75 34.625 20.71875 30.859375 
Q 16.703125 27.09375 16.703125 20.515625 
Q 16.703125 13.921875 20.71875 10.15625 
Q 24.75 6.390625 31.78125 6.390625 
Q 38.8125 6.390625 42.859375 10.171875 
Q 46.921875 13.96875 46.921875 20.515625 
Q 46.921875 27.09375 42.890625 30.859375 
Q 38.875 34.625 31.78125 34.625 
z
M 21.921875 38.8125 
Q 15.578125 40.375 12.03125 44.71875 
Q 8.5 49.078125 8.5 55.328125 
Q 8.5 64.0625 14.71875 69.140625 
Q 20.953125 74.21875 31.78125 74.21875 
Q 42.671875 74.21875 48.875 69.140625 
Q 55.078125 64.0625 55.078125 55.328125 
Q 55.078125 49.078125 51.53125 44.71875 
Q 48 40.375 41.703125 38.8125 
Q 48.828125 37.15625 52.796875 32.3125 
Q 56.78125 27.484375 56.78125 20.515625 
Q 56.78125 9.90625 50.3125 4.234375 
Q 43.84375 -1.421875 31.78125 -1.421875 
Q 19.734375 -1.421875 13.25 4.234375 
Q 6.78125 9.90625 6.78125 20.515625 
Q 6.78125 27.484375 10.78125 32.3125 
Q 14.796875 37.15625 21.921875 38.8125 
z
M 18.3125 54.390625 
Q 18.3125 48.734375 21.84375 45.5625 
Q 25.390625 42.390625 31.78125 42.390625 
Q 38.140625 42.390625 41.71875 45.5625 
Q 45.3125 48.734375 45.3125 54.390625 
Q 45.3125 60.0625 41.71875 63.234375 
Q 38.140625 66.40625 31.78125 66.40625 
Q 25.390625 66.40625 21.84375 63.234375 
Q 18.3125 60.0625 18.3125 54.390625 
z
" id="DejaVuSans-56"/>
      </defs>
      <g transform="translate(577.041788 366.30265)scale(0.08 -0.08)">
       <use xlink:href="#DejaVuSans-56"/>
       <use x="63.623047" xlink:href="#DejaVuSans-48"/>
      </g>
     </g>
    </g>
    <g id="xtick_6">
     <g id="text_6">
      <!-- 100 -->
      <defs>
       <path d="M 12.40625 8.296875 
L 28.515625 8.296875 
L 28.515625 63.921875 
L 10.984375 60.40625 
L 10.984375 69.390625 
L 28.421875 72.90625 
L 38.28125 72.90625 
L 38.28125 8.296875 
L 54.390625 8.296875 
L 54.390625 0 
L 12.40625 0 
z
" id="DejaVuSans-49"/>
      </defs>
      <g transform="translate(701.246622 366.30265)scale(0.08 -0.08)">
       <use xlink:href="#DejaVuSans-49"/>
       <use x="63.623047" xlink:href="#DejaVuSans-48"/>
       <use x="127.246094" xlink:href="#DejaVuSans-48"/>
      </g>
     </g>
    </g>
    <g id="xtick_7">
     <g id="text_7">
      <!-- 120 -->
      <g transform="translate(827.996456 366.30265)scale(0.08 -0.08)">
       <use xlink:href="#DejaVuSans-49"/>
       <use x="63.623047" xlink:href="#DejaVuSans-50"/>
       <use x="127.246094" xlink:href="#DejaVuSans-48"/>
      </g>
     </g>
    </g>
    <g id="xtick_8">
     <g id="text_8">
      <!-- 140 -->
      <g transform="translate(954.74629 366.30265)scale(0.08 -0.08)">
       <use xlink:href="#DejaVuSans-49"/>
       <use x="63.623047" xlink:href="#DejaVuSans-52"/>
       <use x="127.246094" xlink:href="#DejaVuSans-48"/>
      </g>
     </g>
    </g>
    <g id="text_9">
     <!-- Position (bp) -->
     <defs>
      <path d="M 19.671875 64.796875 
L 19.671875 37.40625 
L 32.078125 37.40625 
Q 38.96875 37.40625 42.71875 40.96875 
Q 46.484375 44.53125 46.484375 51.125 
Q 46.484375 57.671875 42.71875 61.234375 
Q 38.96875 64.796875 32.078125 64.796875 
z
M 9.8125 72.90625 
L 32.078125 72.90625 
Q 44.34375 72.90625 50.609375 67.359375 
Q 56.890625 61.8125 56.890625 51.125 
Q 56.890625 40.328125 50.609375 34.8125 
Q 44.34375 29.296875 32.078125 29.296875 
L 19.671875 29.296875 
L 19.671875 0 
L 9.8125 0 
z
" id="DejaVuSans-80"/>
      <path d="M 30.609375 48.390625 
Q 23.390625 48.390625 19.1875 42.75 
Q 14.984375 37.109375 14.984375 27.296875 
Q 14.984375 17.484375 19.15625 11.84375 
Q 23.34375 6.203125 30.609375 6.203125 
Q 37.796875 6.203125 41.984375 11.859375 
Q 46.1875 17.53125 46.1875 27.296875 
Q 46.1875 37.015625 41.984375 42.703125 
Q 37.796875 48.390625 30.609375 48.390625 
z
M 30.609375 56 
Q 42.328125 56 49.015625 48.375 
Q 55.71875 40.765625 55.71875 27.296875 
Q 55.71875 13.875 49.015625 6.21875 
Q 42.328125 -1.421875 30.609375 -1.421875 
Q 18.84375 -1.421875 12.171875 6.21875 
Q 5.515625 13.875 5.515625 27.296875 
Q 5.515625 40.765625 12.171875 48.375 
Q 18.84375 56 30.609375 56 
z
" id="DejaVuSans-111"/>
      <path d="M 44.28125 53.078125 
L 44.28125 44.578125 
Q 40.484375 46.53125 36.375 47.5 
Q 32.28125 48.484375 27.875 48.484375 
Q 21.1875 48.484375 17.84375 46.4375 
Q 14.5 44.390625 14.5 40.28125 
Q 14.5 37.15625 16.890625 35.375 
Q 19.28125 33.59375 26.515625 31.984375 
L 29.59375 31.296875 
Q 39.15625 29.25 43.1875 25.515625 
Q 47.21875 21.78125 47.21875 15.09375 
Q 47.21875 7.46875 41.1875 3.015625 
Q 35.15625 -1.421875 24.609375 -1.421875 
Q 20.21875 -1.421875 15.453125 -0.5625 
Q 10.6875 0.296875 5.421875 2 
L 5.421875 11.28125 
Q 10.40625 8.6875 15.234375 7.390625 
Q 20.0625 6.109375 24.8125 6.109375 
Q 31.15625 6.109375 34.5625 8.28125 
Q 37.984375 10.453125 37.984375 14.40625 
Q 37.984375 18.0625 35.515625 20.015625 
Q 33.0625 21.96875 24.703125 23.78125 
L 21.578125 24.515625 
Q 13.234375 26.265625 9.515625 29.90625 
Q 5.8125 33.546875 5.8125 39.890625 
Q 5.8125 47.609375 11.28125 51.796875 
Q 16.75 56 26.8125 56 
Q 31.78125 56 36.171875 55.265625 
Q 40.578125 54.546875 44.28125 53.078125 
z
" id="DejaVuSans-115"/>
      <path d="M 9.421875 54.6875 
L 18.40625 54.6875 
L 18.40625 0 
L 9.421875 0 
z
M 9.421875 75.984375 
L 18.40625 75.984375 
L 18.40625 64.59375 
L 9.421875 64.59375 
z
" id="DejaVuSans-105"/>
      <path d="M 18.3125 70.21875 
L 18.3125 54.6875 
L 36.8125 54.6875 
L 36.8125 47.703125 
L 18.3125 47.703125 
L 18.3125 18.015625 
Q 18.3125 11.328125 20.140625 9.421875 
Q 21.96875 7.515625 27.59375 7.515625 
L 36.8125 7.515625 
L 36.8125 0 
L 27.59375 0 
Q 17.1875 0 13.234375 3.875 
Q 9.28125 7.765625 9.28125 18.015625 
L 9.28125 47.703125 
L 2.6875 47.703125 
L 2.6875 54.6875 
L 9.28125 54.6875 
L 9.28125 70.21875 
z
" id="DejaVuSans-116"/>
      <path d="M 54.890625 33.015625 
L 54.890625 0 
L 45.90625 0 
L 45.90625 32.71875 
Q 45.90625 40.484375 42.875 44.328125 
Q 39.84375 48.1875 33.796875 48.1875 
Q 26.515625 48.1875 22.3125 43.546875 
Q 18.109375 38.921875 18.109375 30.90625 
L 18.109375 0 
L 9.078125 0 
L 9.078125 54.6875 
L 18.109375 54.6875 
L 18.109375 46.1875 
Q 21.34375 51.125 25.703125 53.5625 
Q 30.078125 56 35.796875 56 
Q 45.21875 56 50.046875 50.171875 
Q 54.890625 44.34375 54.890625 33.015625 
z
" id="DejaVuSans-110"/>
      <path id="DejaVuSans-32"/>
      <path d="M 31 75.875 
Q 24.46875 64.65625 21.28125 53.65625 
Q 18.109375 42.671875 18.109375 31.390625 
Q 18.109375 20.125 21.3125 9.0625 
Q 24.515625 -2 31 -13.1875 
L 23.1875 -13.1875 
Q 15.875 -1.703125 12.234375 9.375 
Q 8.59375 20.453125 8.59375 31.390625 
Q 8.59375 42.28125 12.203125 53.3125 
Q 15.828125 64.359375 23.1875 75.875 
z
" id="DejaVuSans-40"/>
      <path d="M 48.6875 27.296875 
Q 48.6875 37.203125 44.609375 42.84375 
Q 40.53125 48.484375 33.40625 48.484375 
Q 26.265625 48.484375 22.1875 42.84375 
Q 18.109375 37.203125 18.109375 27.296875 
Q 18.109375 17.390625 22.1875 11.75 
Q 26.265625 6.109375 33.40625 6.109375 
Q 40.53125 6.109375 44.609375 11.75 
Q 48.6875 17.390625 48.6875 27.296875 
z
M 18.109375 46.390625 
Q 20.953125 51.265625 25.265625 53.625 
Q 29.59375 56 35.59375 56 
Q 45.5625 56 51.78125 48.09375 
Q 58.015625 40.1875 58.015625 27.296875 
Q 58.015625 14.40625 51.78125 6.484375 
Q 45.5625 -1.421875 35.59375 -1.421875 
Q 29.59375 -1.421875 25.265625 0.953125 
Q 20.953125 3.328125 18.109375 8.203125 
L 18.109375 0 
L 9.078125 0 
L 9.078125 75.984375 
L 18.109375 75.984375 
z
" id="DejaVuSans-98"/>
      <path d="M 18.109375 8.203125 
L 18.109375 -20.796875 
L 9.078125 -20.796875 
L 9.078125 54.6875 
L 18.109375 54.6875 
L 18.109375 46.390625 
Q 20.953125 51.265625 25.265625 53.625 
Q 29.59375 56 35.59375 56 
Q 45.5625 56 51.78125 48.09375 
Q 58.015625 40.1875 58.015625 27.296875 
Q 58.015625 14.40625 51.78125 6.484375 
Q 45.5625 -1.421875 35.59375 -1.421875 
Q 29.59375 -1.421875 25.265625 0.953125 
Q 20.953125 3.328125 18.109375 8.203125 
z
M 48.6875 27.296875 
Q 48.6875 37.203125 44.609375 42.84375 
Q 40.53125 48.484375 33.40625 48.484375 
Q 26.265625 48.484375 22.1875 42.84375 
Q 18.109375 37.203125 18.109375 27.296875 
Q 18.109375 17.390625 22.1875 11.75 
Q 26.265625 6.109375 33.40625 6.109375 
Q 40.53125 6.109375 44.609375 11.75 
Q 48.6875 17.390625 48.6875 27.296875 
z
" id="DejaVuSans-112"/>
      <path d="M 8.015625 75.875 
L 15.828125 75.875 
Q 23.140625 64.359375 26.78125 53.3125 
Q 30.421875 42.28125 30.421875 31.390625 
Q 30.421875 20.453125 26.78125 9.375 
Q 23.140625 -1.703125 15.828125 -13.1875 
L 8.015625 -13.1875 
Q 14.5 -2 17.703125 9.0625 
Q 20.90625 20.125 20.90625 31.390625 
Q 20.90625 42.671875 17.703125 53.65625 
Q 14.5 64.65625 8.015625 75.875 
z
" id="DejaVuSans-41"/>
     </defs>
     <g transform="translate(484.106094 379.564837)scale(0.1 -0.1)">
      <use xlink:href="#DejaVuSans-80"/>
      <use x="60.255859" xlink:href="#DejaVuSans-111"/>
      <use x="121.4375" xlink:href="#DejaVuSans-115"/>
      <use x="173.537109" xlink:href="#DejaVuSans-105"/>
      <use x="201.320312" xlink:href="#DejaVuSans-116"/>
      <use x="240.529297" xlink:href="#DejaVuSans-105"/>
      <use x="268.3125" xlink:href="#DejaVuSans-111"/>
      <use x="329.494141" xlink:href="#DejaVuSans-110"/>
      <use x="392.873047" xlink:href="#DejaVuSans-32"/>
      <use x="424.660156" xlink:href="#DejaVuSans-40"/>
      <use x="463.673828" xlink:href="#DejaVuSans-98"/>
      <use x="527.150391" xlink:href="#DejaVuSans-112"/>
      <use x="590.626953" xlink:href="#DejaVuSans-41"/>
     </g>
    </g>
   </g>
   <g id="matplotlib.axis_2">
    <g id="ytick_1">
     <g id="line2d_1">
      <path clip-path="url(#p67ff878056)" d="M 38.058125 353.2239 
L 993.118125 353.2239 
" style="fill:none;stroke:#dedede;stroke-linecap:square;"/>
     </g>
     <g id="text_10">
      <!-- 0 -->
      <g transform="translate(25.968125 356.263275)scale(0.08 -0.08)">
       <use xlink:href="#DejaVuSans-48"/>
      </g>
     </g>
    </g>
    <g id="ytick_2">
     <g id="line2d_2">
      <path clip-path="url(#p67ff878056)" d="M 38.058125 284.510019 
L 993.118125 284.510019 
" style="fill:none;stroke:#dedede;stroke-linecap:square;"/>
     </g>
     <g id="text_11">
      <!-- 20 -->
      <g transform="translate(20.878125 287.549394)scale(0.08 -0.08)">
       <use xlink:href="#DejaVuSans-50"/>
       <use x="63.623047" xlink:href="#DejaVuSans-48"/>
      </g>
     </g>
    </g>
    <g id="ytick_3">
     <g id="line2d_3">
      <path clip-path="url(#p67ff878056)" d="M 38.058125 215.796138 
L 993.118125 215.796138 
" style="fill:none;stroke:#dedede;stroke-linecap:square;"/>
     </g>
     <g id="text_12">
      <!-- 40 -->
      <g transform="translate(20.878125 218.835513)scale(0.08 -0.08)">
       <use xlink:href="#DejaVuSans-52"/>
       <use x="63.623047" xlink:href="#DejaVuSans-48"/>
      </g>
     </g>
    </g>
    <g id="ytick_4">
     <g id="line2d_4">
      <path clip-path="url(#p67ff878056)" d="M 38.058125 147.082257 
L 993.118125 147.082257 
" style="fill:none;stroke:#dedede;stroke-linecap:square;"/>
     </g>
     <g id="text_13">
      <!-- 60 -->
      <g transform="translate(20.878125 150.121632)scale(0.08 -0.08)">
       <use xlink:href="#DejaVuSans-54"/>
       <use x="63.623047" xlink:href="#DejaVuSans-48"/>
      </g>
     </g>
    </g>
    <g id="ytick_5">
     <g id="line2d_5">
      <path clip-path="url(#p67ff878056)" d="M 38.058125 78.368376 
L 993.118125 78.368376 
" style="fill:none;stroke:#dedede;stroke-linecap:square;"/>
     </g>
     <g id="text_14">
      <!-- 80 -->
      <g transform="translate(20.878125 81.407751)scale(0.08 -0.08)">
       <use xlink:href="#DejaVuSans-56"/>
       <use x="63.623047" xlink:href="#DejaVuSans-48"/>
      </g>
     </g>
    </g>
    <g id="text_15">
     <!-- % of Sequences -->
     <defs>
      <path d="M 72.703125 32.078125 
Q 68.453125 32.078125 66.03125 28.46875 
Q 63.625 24.859375 63.625 18.40625 
Q 63.625 12.0625 66.03125 8.421875 
Q 68.453125 4.78125 72.703125 4.78125 
Q 76.859375 4.78125 79.265625 8.421875 
Q 81.6875 12.0625 81.6875 18.40625 
Q 81.6875 24.8125 79.265625 28.4375 
Q 76.859375 32.078125 72.703125 32.078125 
z
M 72.703125 38.28125 
Q 80.421875 38.28125 84.953125 32.90625 
Q 89.5 27.546875 89.5 18.40625 
Q 89.5 9.28125 84.9375 3.921875 
Q 80.375 -1.421875 72.703125 -1.421875 
Q 64.890625 -1.421875 60.34375 3.921875 
Q 55.8125 9.28125 55.8125 18.40625 
Q 55.8125 27.59375 60.375 32.9375 
Q 64.9375 38.28125 72.703125 38.28125 
z
M 22.3125 68.015625 
Q 18.109375 68.015625 15.6875 64.375 
Q 13.28125 60.75 13.28125 54.390625 
Q 13.28125 47.953125 15.671875 44.328125 
Q 18.0625 40.71875 22.3125 40.71875 
Q 26.5625 40.71875 28.96875 44.328125 
Q 31.390625 47.953125 31.390625 54.390625 
Q 31.390625 60.6875 28.953125 64.34375 
Q 26.515625 68.015625 22.3125 68.015625 
z
M 66.40625 74.21875 
L 74.21875 74.21875 
L 28.609375 -1.421875 
L 20.796875 -1.421875 
z
M 22.3125 74.21875 
Q 30.03125 74.21875 34.609375 68.875 
Q 39.203125 63.53125 39.203125 54.390625 
Q 39.203125 45.171875 34.640625 39.84375 
Q 30.078125 34.515625 22.3125 34.515625 
Q 14.546875 34.515625 10.03125 39.859375 
Q 5.515625 45.21875 5.515625 54.390625 
Q 5.515625 63.484375 10.046875 68.84375 
Q 14.59375 74.21875 22.3125 74.21875 
z
" id="DejaVuSans-37"/>
      <path d="M 37.109375 75.984375 
L 37.109375 68.5 
L 28.515625 68.5 
Q 23.6875 68.5 21.796875 66.546875 
Q 19.921875 64.59375 19.921875 59.515625 
L 19.921875 54.6875 
L 34.71875 54.6875 
L 34.71875 47.703125 
L 19.921875 47.703125 
L 19.921875 0 
L 10.890625 0 
L 10.890625 47.703125 
L 2.296875 47.703125 
L 2.296875 54.6875 
L 10.890625 54.6875 
L 10.890625 58.5 
Q 10.890625 67.625 15.140625 71.796875 
Q 19.390625 75.984375 28.609375 75.984375 
z
" id="DejaVuSans-102"/>
      <path d="M 53.515625 70.515625 
L 53.515625 60.890625 
Q 47.90625 63.578125 42.921875 64.890625 
Q 37.9375 66.21875 33.296875 66.21875 
Q 25.25 66.21875 20.875 63.09375 
Q 16.5 59.96875 16.5 54.203125 
Q 16.5 49.359375 19.40625 46.890625 
Q 22.3125 44.4375 30.421875 42.921875 
L 36.375 41.703125 
Q 47.40625 39.59375 52.65625 34.296875 
Q 57.90625 29 57.90625 20.125 
Q 57.90625 9.515625 50.796875 4.046875 
Q 43.703125 -1.421875 29.984375 -1.421875 
Q 24.8125 -1.421875 18.96875 -0.25 
Q 13.140625 0.921875 6.890625 3.21875 
L 6.890625 13.375 
Q 12.890625 10.015625 18.65625 8.296875 
Q 24.421875 6.59375 29.984375 6.59375 
Q 38.421875 6.59375 43.015625 9.90625 
Q 47.609375 13.234375 47.609375 19.390625 
Q 47.609375 24.75 44.3125 27.78125 
Q 41.015625 30.8125 33.5 32.328125 
L 27.484375 33.5 
Q 16.453125 35.6875 11.515625 40.375 
Q 6.59375 45.0625 6.59375 53.421875 
Q 6.59375 63.09375 13.40625 68.65625 
Q 20.21875 74.21875 32.171875 74.21875 
Q 37.3125 74.21875 42.625 73.28125 
Q 47.953125 72.359375 53.515625 70.515625 
z
" id="DejaVuSans-83"/>
      <path d="M 56.203125 29.59375 
L 56.203125 25.203125 
L 14.890625 25.203125 
Q 15.484375 15.921875 20.484375 11.0625 
Q 25.484375 6.203125 34.421875 6.203125 
Q 39.59375 6.203125 44.453125 7.46875 
Q 49.3125 8.734375 54.109375 11.28125 
L 54.109375 2.78125 
Q 49.265625 0.734375 44.1875 -0.34375 
Q 39.109375 -1.421875 33.890625 -1.421875 
Q 20.796875 -1.421875 13.15625 6.1875 
Q 5.515625 13.8125 5.515625 26.8125 
Q 5.515625 40.234375 12.765625 48.109375 
Q 20.015625 56 32.328125 56 
Q 43.359375 56 49.78125 48.890625 
Q 56.203125 41.796875 56.203125 29.59375 
z
M 47.21875 32.234375 
Q 47.125 39.59375 43.09375 43.984375 
Q 39.0625 48.390625 32.421875 48.390625 
Q 24.90625 48.390625 20.390625 44.140625 
Q 15.875 39.890625 15.1875 32.171875 
z
" id="DejaVuSans-101"/>
      <path d="M 14.796875 27.296875 
Q 14.796875 17.390625 18.875 11.75 
Q 22.953125 6.109375 30.078125 6.109375 
Q 37.203125 6.109375 41.296875 11.75 
Q 45.40625 17.390625 45.40625 27.296875 
Q 45.40625 37.203125 41.296875 42.84375 
Q 37.203125 48.484375 30.078125 48.484375 
Q 22.953125 48.484375 18.875 42.84375 
Q 14.796875 37.203125 14.796875 27.296875 
z
M 45.40625 8.203125 
Q 42.578125 3.328125 38.25 0.953125 
Q 33.9375 -1.421875 27.875 -1.421875 
Q 17.96875 -1.421875 11.734375 6.484375 
Q 5.515625 14.40625 5.515625 27.296875 
Q 5.515625 40.1875 11.734375 48.09375 
Q 17.96875 56 27.875 56 
Q 33.9375 56 38.25 53.625 
Q 42.578125 51.265625 45.40625 46.390625 
L 45.40625 54.6875 
L 54.390625 54.6875 
L 54.390625 -20.796875 
L 45.40625 -20.796875 
z
" id="DejaVuSans-113"/>
      <path d="M 8.5 21.578125 
L 8.5 54.6875 
L 17.484375 54.6875 
L 17.484375 21.921875 
Q 17.484375 14.15625 20.5 10.265625 
Q 23.53125 6.390625 29.59375 6.390625 
Q 36.859375 6.390625 41.078125 11.03125 
Q 45.3125 15.671875 45.3125 23.6875 
L 45.3125 54.6875 
L 54.296875 54.6875 
L 54.296875 0 
L 45.3125 0 
L 45.3125 8.40625 
Q 42.046875 3.421875 37.71875 1 
Q 33.40625 -1.421875 27.6875 -1.421875 
Q 18.265625 -1.421875 13.375 4.4375 
Q 8.5 10.296875 8.5 21.578125 
z
M 31.109375 56 
z
" id="DejaVuSans-117"/>
      <path d="M 48.78125 52.59375 
L 48.78125 44.1875 
Q 44.96875 46.296875 41.140625 47.34375 
Q 37.3125 48.390625 33.40625 48.390625 
Q 24.65625 48.390625 19.8125 42.84375 
Q 14.984375 37.3125 14.984375 27.296875 
Q 14.984375 17.28125 19.8125 11.734375 
Q 24.65625 6.203125 33.40625 6.203125 
Q 37.3125 6.203125 41.140625 7.25 
Q 44.96875 8.296875 48.78125 10.40625 
L 48.78125 2.09375 
Q 45.015625 0.34375 40.984375 -0.53125 
Q 36.96875 -1.421875 32.421875 -1.421875 
Q 20.0625 -1.421875 12.78125 6.34375 
Q 5.515625 14.109375 5.515625 27.296875 
Q 5.515625 40.671875 12.859375 48.328125 
Q 20.21875 56 33.015625 56 
Q 37.15625 56 41.109375 55.140625 
Q 45.0625 54.296875 48.78125 52.59375 
z
" id="DejaVuSans-99"/>
     </defs>
     <g transform="translate(14.798438 234.257869)rotate(-90)scale(0.1 -0.1)">
      <use xlink:href="#DejaVuSans-37"/>
      <use x="95.019531" xlink:href="#DejaVuSans-32"/>
      <use x="126.806641" xlink:href="#DejaVuSans-111"/>
      <use x="187.988281" xlink:href="#DejaVuSans-102"/>
      <use x="223.193359" xlink:href="#DejaVuSans-32"/>
      <use x="254.980469" xlink:href="#DejaVuSans-83"/>
      <use x="318.457031" xlink:href="#DejaVuSans-101"/>
      <use x="379.980469" xlink:href="#DejaVuSans-113"/>
      <use x="443.457031" xlink:href="#DejaVuSans-117"/>
      <use x="506.835938" xlink:href="#DejaVuSans-101"/>
      <use x="568.359375" xlink:href="#DejaVuSans-110"/>
      <use x="631.738281" xlink:href="#DejaVuSans-99"/>
      <use x="686.71875" xlink:href="#DejaVuSans-101"/>
      <use x="748.242188" xlink:href="#DejaVuSans-115"/>
     </g>
    </g>
   </g>
   <g id="line2d_6">
    <path clip-path="url(#p67ff878056)" d="M 81.469943 353.219822 
L 87.807435 353.218299 
L 94.144927 353.215475 
L 100.482418 353.211937 
L 106.81991 353.206273 
L 113.157402 353.201577 
L 119.494893 353.197769 
L 125.832385 353.18863 
L 132.169877 353.185092 
L 138.507369 353.179698 
L 151.182352 353.173653 
L 163.857335 353.169813 
L 176.532319 353.165815 
L 189.207302 353.16169 
L 201.882286 353.157866 
L 214.557269 353.153717 
L 227.232252 353.146482 
L 239.907236 353.131711 
L 252.582219 353.096124 
L 265.257203 353.019999 
L 277.932186 352.879205 
L 290.607169 352.646071 
L 303.282153 352.282131 
L 315.957136 351.755621 
L 328.63212 351.042622 
L 341.307103 350.104733 
L 353.982087 348.9159 
L 366.65707 347.449453 
L 379.332053 345.687853 
L 392.007037 343.627568 
L 404.68202 341.251989 
L 417.357004 338.551983 
L 430.031987 335.527313 
L 442.70697 332.137228 
L 455.381954 328.40516 
L 468.056937 324.343169 
L 480.731921 319.990561 
L 493.406904 315.341991 
L 506.081887 310.37949 
L 518.756871 305.055056 
L 531.431854 299.479457 
L 544.106838 293.579328 
L 556.781821 287.422211 
L 569.456804 281.075329 
L 582.131788 274.659677 
L 594.806771 268.203821 
L 607.481755 261.746616 
L 620.156738 255.332812 
L 632.831722 249.017195 
L 645.506705 242.84203 
L 658.181688 236.882008 
L 670.856672 231.139507 
L 683.531655 225.556236 
L 696.206639 220.147958 
L 708.881622 214.929461 
L 721.556605 209.875279 
L 734.231589 205.000001 
L 746.906572 200.311472 
L 759.581556 195.811986 
L 772.256539 191.487962 
L 784.931522 187.289206 
L 797.606506 183.267459 
L 810.281489 179.400539 
L 822.956473 175.676007 
L 835.631456 172.10774 
L 848.30644 168.702653 
L 860.981423 165.42128 
L 873.656406 162.280956 
L 886.33139 159.285106 
L 899.006373 156.414867 
L 911.681357 153.653984 
L 924.35634 150.992175 
L 937.031323 148.447759 
L 949.706307 146.01626 
" style="fill:none;stroke:#7cb5ec;stroke-linecap:square;"/>
   </g>
   <g id="line2d_7">
    <path clip-path="url(#p67ff878056)" d="M 81.469943 353.219949 
L 87.807435 353.218537 
L 94.144927 353.215793 
L 100.482418 353.212429 
L 106.81991 353.207003 
L 113.157402 353.202433 
L 119.494893 353.198641 
L 125.832385 353.18955 
L 132.169877 353.186092 
L 138.507369 353.180808 
L 151.182352 353.174771 
L 163.857335 353.170971 
L 176.532319 353.1671 
L 189.207302 353.163054 
L 201.882286 353.159262 
L 214.557269 353.155058 
L 227.232252 353.147799 
L 239.907236 353.133052 
L 252.582219 353.097544 
L 265.257203 353.021633 
L 277.932186 352.881196 
L 290.607169 352.648594 
L 303.282153 352.285487 
L 315.957136 351.759873 
L 328.63212 351.04858 
L 341.307103 350.1133 
L 353.982087 348.924808 
L 366.65707 347.459377 
L 379.332053 345.700014 
L 392.007037 343.645172 
L 404.68202 341.278176 
L 417.357004 338.583897 
L 430.031987 335.564931 
L 442.70697 332.18404 
L 455.381954 328.465982 
L 468.056937 324.418794 
L 480.731921 320.084662 
L 493.406904 315.46028 
L 506.081887 310.52314 
L 518.756871 305.228423 
L 531.431854 299.677408 
L 544.106838 293.808749 
L 556.781821 287.691804 
L 569.456804 281.388824 
L 582.131788 275.018691 
L 594.806771 268.612178 
L 607.481755 262.2048 
L 620.156738 255.841236 
L 632.831722 249.575953 
L 645.506705 243.460111 
L 658.181688 237.556856 
L 670.856672 231.870283 
L 683.531655 226.341607 
L 696.206639 220.988178 
L 708.881622 215.830486 
L 721.556605 210.84049 
L 734.231589 206.019259 
L 746.906572 201.387713 
L 759.581556 196.9459 
L 772.256539 192.676073 
L 784.931522 188.532626 
L 797.606506 184.566663 
L 810.281489 180.754242 
L 822.956473 177.083766 
L 835.631456 173.569538 
L 848.30644 170.21749 
L 860.981423 166.990546 
L 873.656406 163.915367 
L 886.33139 160.979459 
L 899.006373 158.169217 
L 911.681357 155.477263 
L 924.35634 152.881298 
L 937.031323 150.400075 
L 949.706307 148.038196 
" style="fill:none;stroke:#434348;stroke-linecap:square;"/>
   </g>
   <g id="line2d_8">
    <path clip-path="url(#p67ff878056)" d="M 81.469943 353.222067 
L 87.807435 353.22146 
L 94.144927 353.219845 
L 100.482418 353.218175 
L 106.81991 353.215789 
L 113.157402 353.213198 
L 119.494893 353.21156 
L 125.832385 353.207841 
L 132.169877 353.206356 
L 138.507369 353.203813 
L 151.182352 353.200901 
L 163.857335 353.198586 
L 176.532319 353.19612 
L 189.207302 353.192964 
L 201.882286 353.189364 
L 214.557269 353.184398 
L 227.232252 353.175273 
L 239.907236 353.154487 
L 252.582219 353.100422 
L 265.257203 352.977248 
L 277.932186 352.736506 
L 290.607169 352.309216 
L 303.282153 351.610265 
L 315.957136 350.568877 
L 328.63212 349.120586 
L 341.307103 347.193005 
L 353.982087 344.732918 
L 366.65707 341.698684 
L 379.332053 338.105611 
L 392.007037 333.947625 
L 404.68202 329.227545 
L 417.357004 323.969738 
L 430.031987 318.200643 
L 442.70697 311.989864 
L 455.381954 305.356322 
L 468.056937 298.37328 
L 480.731921 291.094841 
L 493.406904 283.551999 
L 506.081887 275.776071 
L 518.756871 267.782507 
L 531.431854 259.621236 
L 544.106838 251.304277 
L 556.781821 242.950592 
L 569.456804 234.598371 
L 582.131788 226.339781 
L 594.806771 218.265191 
L 607.481755 210.386392 
L 620.156738 202.733394 
L 632.831722 195.366338 
L 645.506705 188.306206 
L 658.181688 181.63789 
L 670.856672 175.310258 
L 683.531655 169.286921 
L 696.206639 163.55343 
L 708.881622 158.100205 
L 721.556605 152.9244 
L 734.231589 148.003183 
L 746.906572 143.367936 
L 759.581556 138.989577 
L 772.256539 134.857019 
L 784.931522 130.90975 
L 797.606506 127.185213 
L 810.281489 123.674933 
L 822.956473 120.360466 
L 835.631456 117.223487 
L 848.30644 114.264886 
L 860.981423 111.459402 
L 873.656406 108.81339 
L 886.33139 106.31399 
L 899.006373 103.940866 
L 911.681357 101.698462 
L 924.35634 99.572466 
L 937.031323 97.548831 
L 949.706307 95.618203 
" style="fill:none;stroke:#90ed7d;stroke-linecap:square;"/>
   </g>
   <g id="line2d_9">
    <path clip-path="url(#p67ff878056)" d="M 81.469943 353.222067 
L 87.807435 353.221449 
L 94.144927 353.219975 
L 100.482418 353.21837 
L 106.81991 353.215941 
L 113.157402 353.213425 
L 119.494893 353.211831 
L 125.832385 353.208166 
L 132.169877 353.20667 
L 138.507369 353.204187 
L 151.182352 353.201189 
L 163.857335 353.198852 
L 176.532319 353.196391 
L 189.207302 353.193262 
L 201.882286 353.189673 
L 214.557269 353.184718 
L 227.232252 353.175496 
L 239.907236 353.154725 
L 252.582219 353.100547 
L 265.257203 352.977037 
L 277.932186 352.73624 
L 290.607169 352.308999 
L 303.282153 351.610444 
L 315.957136 350.568514 
L 328.63212 349.119182 
L 341.307103 347.189693 
L 353.982087 344.72613 
L 366.65707 341.691305 
L 379.332053 338.096334 
L 392.007037 333.939015 
L 404.68202 329.221576 
L 417.357004 323.968035 
L 430.031987 318.206536 
L 442.70697 312.006151 
L 455.381954 305.38587 
L 468.056937 298.421289 
L 480.731921 291.162991 
L 493.406904 283.644048 
L 506.081887 275.895997 
L 518.756871 267.940488 
L 531.431854 259.820768 
L 544.106838 251.545496 
L 556.781821 243.243707 
L 569.456804 234.945361 
L 582.131788 226.743096 
L 594.806771 218.723747 
L 607.481755 210.900396 
L 620.156738 203.305067 
L 632.831722 195.997204 
L 645.506705 189.002924 
L 658.181688 182.398669 
L 670.856672 176.131571 
L 683.531655 170.172312 
L 696.206639 164.50619 
L 708.881622 159.121912 
L 721.556605 154.012907 
L 734.231589 149.154326 
L 746.906572 144.581016 
L 759.581556 140.266372 
L 772.256539 136.194622 
L 784.931522 132.304893 
L 797.606506 128.635863 
L 810.281489 125.176752 
L 822.956473 121.917315 
L 835.631456 118.831658 
L 848.30644 115.918918 
L 860.981423 113.168301 
L 873.656406 110.583342 
L 886.33139 108.139216 
L 899.006373 105.823804 
L 911.681357 103.642979 
L 924.35634 101.577717 
L 937.031323 99.615058 
L 949.706307 97.747718 
" style="fill:none;stroke:#f7a35c;stroke-linecap:square;"/>
   </g>
   <g id="line2d_10">
    <path clip-path="url(#p67ff878056)" d="M 81.469943 353.222277 
L 87.807435 353.221657 
L 94.144927 353.220529 
L 100.482418 353.219456 
L 106.81991 353.21786 
L 113.157402 353.216237 
L 119.494893 353.215054 
L 125.832385 353.212536 
L 132.169877 353.211614 
L 138.507369 353.209543 
L 151.182352 353.206702 
L 163.857335 353.20457 
L 176.532319 353.202128 
L 189.207302 353.199177 
L 201.882286 353.19562 
L 214.557269 353.190426 
L 227.232252 353.180775 
L 239.907236 353.15676 
L 252.582219 353.091031 
L 265.257203 352.936789 
L 277.932186 352.638623 
L 290.607169 352.105612 
L 303.282153 351.233327 
L 315.957136 349.929965 
L 328.63212 348.108781 
L 341.307103 345.684896 
L 353.982087 342.605546 
L 366.65707 338.850872 
L 379.332053 334.402878 
L 392.007037 329.308672 
L 404.68202 323.567586 
L 417.357004 317.221989 
L 430.031987 310.31321 
L 442.70697 302.882744 
L 455.381954 294.958567 
L 468.056937 286.632778 
L 480.731921 277.98683 
L 493.406904 269.068395 
L 506.081887 259.911917 
L 518.756871 250.545697 
L 531.431854 241.046463 
L 544.106838 231.410611 
L 556.781821 221.770707 
L 569.456804 212.276695 
L 582.131788 202.978075 
L 594.806771 193.942593 
L 607.481755 185.189036 
L 620.156738 176.774004 
L 632.831722 168.70437 
L 645.506705 161.069692 
L 658.181688 153.920834 
L 670.856672 147.18701 
L 683.531655 140.815465 
L 696.206639 134.831336 
L 708.881622 129.213743 
L 721.556605 123.934029 
L 734.231589 118.98872 
L 746.906572 114.370772 
L 759.581556 110.048878 
L 772.256539 106.01265 
L 784.931522 102.231815 
L 797.606506 98.697931 
L 810.281489 95.392191 
L 822.956473 92.303981 
L 835.631456 89.428527 
L 848.30644 86.768208 
L 860.981423 84.288451 
L 873.656406 81.972299 
L 886.33139 79.81043 
L 899.006373 77.800155 
L 911.681357 75.917246 
L 924.35634 74.151913 
L 937.031323 72.505561 
L 949.706307 70.977866 
" style="fill:none;stroke:#8085e9;stroke-linecap:square;"/>
   </g>
   <g id="line2d_11">
    <path clip-path="url(#p67ff878056)" d="M 81.469943 353.222249 
L 87.807435 353.221644 
L 94.144927 353.220543 
L 100.482418 353.219525 
L 106.81991 353.217943 
L 113.157402 353.216402 
L 119.494893 353.215164 
L 125.832385 353.212715 
L 132.169877 353.211793 
L 138.507369 353.209791 
L 151.182352 353.207039 
L 163.857335 353.204886 
L 176.532319 353.202417 
L 189.207302 353.199472 
L 201.882286 353.195937 
L 214.557269 353.19064 
L 227.232252 353.180899 
L 239.907236 353.156582 
L 252.582219 353.090969 
L 265.257203 352.937415 
L 277.932186 352.639496 
L 290.607169 352.108997 
L 303.282153 351.240543 
L 315.957136 349.939871 
L 328.63212 348.124301 
L 341.307103 345.707053 
L 353.982087 342.637265 
L 366.65707 338.895613 
L 379.332053 334.465491 
L 392.007037 329.393236 
L 404.68202 323.679536 
L 417.357004 317.363312 
L 430.031987 310.488846 
L 442.70697 303.096552 
L 455.381954 295.220687 
L 468.056937 286.945486 
L 480.731921 278.356572 
L 493.406904 269.505896 
L 506.081887 260.420486 
L 518.756871 251.137124 
L 531.431854 241.716374 
L 544.106838 232.167507 
L 556.781821 222.62596 
L 569.456804 213.229245 
L 582.131788 204.028267 
L 594.806771 195.087929 
L 607.481755 186.434497 
L 620.156738 178.117588 
L 632.831722 170.144316 
L 645.506705 162.605793 
L 658.181688 155.553352 
L 670.856672 148.911694 
L 683.531655 142.632968 
L 696.206639 136.743948 
L 708.881622 131.219065 
L 721.556605 126.030629 
L 734.231589 121.16985 
L 746.906572 116.633013 
L 759.581556 112.389678 
L 772.256539 108.429698 
L 784.931522 104.719359 
L 797.606506 101.253716 
L 810.281489 98.009206 
L 822.956473 94.984194 
L 835.631456 92.166221 
L 848.30644 89.559119 
L 860.981423 87.138315 
L 873.656406 84.885849 
L 886.33139 82.785947 
L 899.006373 80.8325 
L 911.681357 79.009136 
L 924.35634 77.303603 
L 937.031323 75.714788 
L 949.706307 74.242779 
" style="fill:none;stroke:#f15c80;stroke-linecap:square;"/>
   </g>
   <g id="line2d_12">
    <path clip-path="url(#p67ff878056)" d="M 81.469943 353.222525 
L 87.807435 353.222111 
L 94.144927 353.221091 
L 100.482418 353.22038 
L 106.81991 353.21929 
L 113.157402 353.217892 
L 119.494893 353.217015 
L 125.832385 353.215237 
L 132.169877 353.214254 
L 138.507369 353.212683 
L 151.182352 353.210118 
L 163.857335 353.208085 
L 176.532319 353.205769 
L 189.207302 353.202628 
L 201.882286 353.199008 
L 214.557269 353.194114 
L 227.232252 353.18602 
L 239.907236 353.16793 
L 252.582219 353.121428 
L 265.257203 353.017996 
L 277.932186 352.813863 
L 290.607169 352.454565 
L 303.282153 351.861437 
L 315.957136 350.96424 
L 328.63212 349.689306 
L 341.307103 347.967408 
L 353.982087 345.749137 
L 366.65707 342.98745 
L 379.332053 339.691847 
L 392.007037 335.831314 
L 404.68202 331.42605 
L 417.357004 326.491806 
L 430.031987 321.082027 
L 442.70697 315.2348 
L 455.381954 308.965877 
L 468.056937 302.384305 
L 480.731921 295.504903 
L 493.406904 288.372054 
L 506.081887 281.0155 
L 518.756871 273.434449 
L 531.431854 265.691335 
L 544.106838 257.784019 
L 556.781821 249.824335 
L 569.456804 241.882563 
L 582.131788 234.051085 
L 594.806771 226.361008 
L 607.481755 218.863012 
L 620.156738 211.58693 
L 632.831722 204.56813 
L 645.506705 197.854625 
L 658.181688 191.512441 
L 670.856672 185.472003 
L 683.531655 179.72268 
L 696.206639 174.27313 
L 708.881622 169.068977 
L 721.556605 164.121703 
L 734.231589 159.443864 
L 746.906572 155.015646 
L 759.581556 150.828249 
L 772.256539 146.872716 
L 784.931522 143.104505 
L 797.606506 139.533381 
L 810.281489 136.153722 
L 822.956473 132.948379 
L 835.631456 129.910176 
L 848.30644 127.019674 
L 860.981423 124.282624 
L 873.656406 121.674705 
L 886.33139 119.201142 
L 899.006373 116.851785 
L 911.681357 114.601571 
L 924.35634 112.444644 
L 937.031323 110.375903 
L 949.706307 108.399816 
" style="fill:none;stroke:#e4d354;stroke-linecap:square;"/>
   </g>
   <g id="line2d_13">
    <path clip-path="url(#p67ff878056)" d="M 81.469943 353.222549 
L 87.807435 353.222158 
L 94.144927 353.22121 
L 100.482418 353.220511 
L 106.81991 353.219432 
L 113.157402 353.21807 
L 119.494893 353.217181 
L 125.832385 353.215439 
L 132.169877 353.214479 
L 138.507369 353.212938 
L 151.182352 353.210337 
L 163.857335 353.208411 
L 176.532319 353.206106 
L 189.207302 353.203019 
L 201.882286 353.199351 
L 214.557269 353.194422 
L 227.232252 353.186357 
L 239.907236 353.168261 
L 252.582219 353.121706 
L 265.257203 353.018245 
L 277.932186 352.81448 
L 290.607169 352.45559 
L 303.282153 351.862918 
L 315.957136 350.963695 
L 328.63212 349.687392 
L 341.307103 347.967142 
L 353.982087 345.748912 
L 366.65707 342.987432 
L 379.332053 339.693263 
L 392.007037 335.83158 
L 404.68202 331.426738 
L 417.357004 326.497002 
L 430.031987 321.0937 
L 442.70697 315.253519 
L 455.381954 308.99747 
L 468.056937 302.434285 
L 480.731921 295.579847 
L 493.406904 288.468523 
L 506.081887 281.140542 
L 518.756871 273.591362 
L 531.431854 265.886561 
L 544.106838 258.021404 
L 556.781821 250.111137 
L 569.456804 242.221621 
L 582.131788 234.447547 
L 594.806771 226.814193 
L 607.481755 219.376806 
L 620.156738 212.164368 
L 632.831722 205.206 
L 645.506705 198.561549 
L 658.181688 192.283684 
L 670.856672 186.308388 
L 683.531655 180.620114 
L 696.206639 175.236809 
L 708.881622 170.102918 
L 721.556605 165.226 
L 734.231589 160.610004 
L 746.906572 156.245246 
L 759.581556 152.124242 
L 772.256539 148.23038 
L 784.931522 144.519674 
L 797.606506 141.006168 
L 810.281489 137.677377 
L 822.956473 134.526487 
L 835.631456 131.542691 
L 848.30644 128.704348 
L 860.981423 126.023098 
L 873.656406 123.476511 
L 886.33139 121.060394 
L 899.006373 118.770924 
L 911.681357 116.586154 
L 924.35634 114.493961 
L 937.031323 112.485694 
L 949.706307 110.574454 
" style="fill:none;stroke:#2b908f;stroke-linecap:square;"/>
   </g>
   <g id="line2d_14">
    <path clip-path="url(#p67ff878056)" d="M 81.469943 353.222726 
L 87.807435 353.222481 
L 94.144927 353.222008 
L 100.482418 353.221519 
L 106.81991 353.220932 
L 113.157402 353.220084 
L 119.494893 353.21935 
L 125.832385 353.218242 
L 132.169877 353.217573 
L 138.507369 353.215739 
L 151.182352 353.213659 
L 163.857335 353.211898 
L 176.532319 353.210333 
L 189.207302 353.20814 
L 201.882286 353.205417 
L 214.557269 353.201699 
L 227.232252 353.194124 
L 239.907236 353.173399 
L 252.582219 353.117964 
L 265.257203 352.986061 
L 277.932186 352.720272 
L 290.607169 352.242237 
L 303.282153 351.444113 
L 315.957136 350.238447 
L 328.63212 348.553874 
L 341.307103 346.317577 
L 353.982087 343.475915 
L 366.65707 340.01639 
L 379.332053 335.955878 
L 392.007037 331.301572 
L 404.68202 326.123425 
L 417.357004 320.412633 
L 430.031987 314.211112 
L 442.70697 307.564275 
L 455.381954 300.504988 
L 468.056937 293.105294 
L 480.731921 285.382648 
L 493.406904 277.371531 
L 506.081887 269.078857 
L 518.756871 260.517199 
L 531.431854 251.721198 
L 544.106838 242.717958 
L 556.781821 233.580189 
L 569.456804 224.374258 
L 582.131788 215.213652 
L 594.806771 206.144133 
L 607.481755 197.20064 
L 620.156738 188.444567 
L 632.831722 179.951004 
L 645.506705 171.746337 
L 658.181688 163.893712 
L 670.856672 156.386443 
L 683.531655 149.169928 
L 696.206639 142.292924 
L 708.881622 135.717135 
L 721.556605 129.450265 
L 734.231589 123.456685 
L 746.906572 117.777577 
L 759.581556 112.38742 
L 772.256539 107.2817 
L 784.931522 102.451682 
L 797.606506 97.878549 
L 810.281489 93.55675 
L 822.956473 89.477755 
L 835.631456 85.642412 
L 848.30644 82.032655 
L 860.981423 78.653635 
L 873.656406 75.475145 
L 886.33139 72.517535 
L 899.006373 69.735433 
L 911.681357 67.130086 
L 924.35634 64.685106 
L 937.031323 62.417052 
L 949.706307 60.295063 
" style="fill:none;stroke:#f45b5b;stroke-linecap:square;"/>
   </g>
   <g id="line2d_15">
    <path clip-path="url(#p67ff878056)" d="M 81.469943 353.222775 
L 87.807435 353.222547 
L 94.144927 353.222139 
L 100.482418 353.221601 
L 106.81991 353.221014 
L 113.157402 353.220133 
L 119.494893 353.219432 
L 125.832385 353.218307 
L 132.169877 353.21772 
L 138.507369 353.215861 
L 151.182352 353.213757 
L 163.857335 353.212021 
L 176.532319 353.210423 
L 189.207302 353.208254 
L 201.882286 353.20558 
L 214.557269 353.201919 
L 227.232252 353.194304 
L 239.907236 353.173717 
L 252.582219 353.118266 
L 265.257203 352.985775 
L 277.932186 352.719122 
L 290.607169 352.240395 
L 303.282153 351.441634 
L 315.957136 350.236042 
L 328.63212 348.552145 
L 341.307103 346.314299 
L 353.982087 343.471838 
L 366.65707 340.013463 
L 379.332053 335.954248 
L 392.007037 331.300006 
L 404.68202 326.125431 
L 417.357004 320.416522 
L 430.031987 314.223008 
L 442.70697 307.581429 
L 455.381954 300.532872 
L 468.056937 293.149175 
L 480.731921 285.448698 
L 493.406904 277.458877 
L 506.081887 269.194609 
L 518.756871 260.66496 
L 531.431854 251.899894 
L 544.106838 242.935887 
L 556.781821 233.847152 
L 569.456804 224.694845 
L 582.131788 215.582816 
L 594.806771 206.570403 
L 607.481755 197.689413 
L 620.156738 188.998117 
L 632.831722 180.563258 
L 645.506705 172.424029 
L 658.181688 164.645428 
L 670.856672 157.210919 
L 683.531655 150.060698 
L 696.206639 143.260906 
L 708.881622 136.771769 
L 721.556605 130.579665 
L 734.231589 124.657981 
L 746.906572 119.052586 
L 759.581556 113.739209 
L 772.256539 108.705832 
L 784.931522 103.941196 
L 797.606506 99.428112 
L 810.281489 95.16681 
L 822.956473 91.151655 
L 835.631456 87.381221 
L 848.30644 83.82927 
L 860.981423 80.517352 
L 873.656406 77.411361 
L 886.33139 74.519605 
L 899.006373 71.805249 
L 911.681357 69.274366 
L 924.35634 66.90367 
L 937.031323 64.700279 
L 949.706307 62.649852 
" style="fill:none;stroke:#91e8e1;stroke-linecap:square;"/>
   </g>
   <g id="line2d_16">
    <path clip-path="url(#p67ff878056)" d="M 81.469943 353.223196 
L 87.807435 353.22307 
L 94.144927 353.22282 
L 100.482418 353.222507 
L 106.81991 353.22221 
L 113.157402 353.221693 
L 119.494893 353.221427 
L 125.832385 353.220676 
L 132.169877 353.220363 
L 138.507369 353.218985 
L 151.182352 353.216958 
L 163.857335 353.215698 
L 176.532319 353.214454 
L 189.207302 353.21274 
L 201.882286 353.210713 
L 214.557269 353.206879 
L 227.232252 353.197409 
L 239.907236 353.16861 
L 252.582219 353.088464 
L 265.257203 352.89813 
L 277.932186 352.516889 
L 290.607169 351.85012 
L 303.282153 350.766494 
L 315.957136 349.202324 
L 328.63212 347.083084 
L 341.307103 344.343858 
L 353.982087 340.936243 
L 366.65707 336.898146 
L 379.332053 332.254666 
L 392.007037 327.057525 
L 404.68202 321.364854 
L 417.357004 315.167465 
L 430.031987 308.522236 
L 442.70697 301.518634 
L 455.381954 294.155822 
L 468.056937 286.524072 
L 480.731921 278.652989 
L 493.406904 270.523016 
L 506.081887 262.177079 
L 518.756871 253.607421 
L 531.431854 244.875689 
L 544.106838 235.933454 
L 556.781821 226.903757 
L 569.456804 217.82712 
L 582.131788 208.845177 
L 594.806771 200.008139 
L 607.481755 191.319621 
L 620.156738 182.846089 
L 632.831722 174.622526 
L 645.506705 166.706319 
L 658.181688 159.161452 
L 670.856672 151.969558 
L 683.531655 145.097315 
L 696.206639 138.598032 
L 708.881622 132.408305 
L 721.556605 126.521002 
L 734.231589 120.929833 
L 746.906572 115.65311 
L 759.581556 110.661189 
L 772.256539 105.933995 
L 784.931522 101.461324 
L 797.606506 97.260628 
L 810.281489 93.293388 
L 822.956473 89.570238 
L 835.631456 86.055298 
L 848.30644 82.770197 
L 860.981423 79.693157 
L 873.656406 76.816813 
L 886.33139 74.115151 
L 899.006373 71.578531 
L 911.681357 69.225014 
L 924.35634 67.041531 
L 937.031323 64.994235 
L 949.706307 63.101884 
" style="fill:none;stroke:#7cb5ec;stroke-linecap:square;"/>
   </g>
   <g id="line2d_17">
    <path clip-path="url(#p67ff878056)" d="M 81.469943 353.223164 
L 87.807435 353.223039 
L 94.144927 353.222726 
L 100.482418 353.222429 
L 106.81991 353.222147 
L 113.157402 353.221662 
L 119.494893 353.221396 
L 125.832385 353.220691 
L 132.169877 353.220378 
L 138.507369 353.219024 
L 151.182352 353.217021 
L 163.857335 353.215714 
L 176.532319 353.214391 
L 189.207302 353.212646 
L 201.882286 353.210612 
L 214.557269 353.206855 
L 227.232252 353.197417 
L 239.907236 353.168633 
L 252.582219 353.088668 
L 265.257203 352.899014 
L 277.932186 352.51894 
L 290.607169 351.854831 
L 303.282153 350.775924 
L 315.957136 349.218759 
L 328.63212 347.107775 
L 341.307103 344.379568 
L 353.982087 340.986923 
L 366.65707 336.965739 
L 379.332053 332.341221 
L 392.007037 327.168599 
L 404.68202 321.504218 
L 417.357004 315.34401 
L 430.031987 308.743906 
L 442.70697 301.783668 
L 455.381954 294.478775 
L 468.056937 286.905445 
L 480.731921 279.102503 
L 493.406904 271.042885 
L 506.081887 262.774816 
L 518.756871 254.293584 
L 531.431854 245.657406 
L 544.106838 236.812503 
L 556.781821 227.88725 
L 569.456804 218.927423 
L 582.131788 210.061828 
L 594.806771 201.339432 
L 607.481755 192.767137 
L 620.156738 184.41407 
L 632.831722 176.309829 
L 645.506705 168.515605 
L 658.181688 161.09229 
L 670.856672 154.02148 
L 683.531655 147.268245 
L 696.206639 140.88866 
L 708.881622 134.824625 
L 721.556605 129.053616 
L 734.231589 123.572518 
L 746.906572 118.399364 
L 759.581556 113.514791 
L 772.256539 108.889327 
L 784.931522 104.511702 
L 797.606506 100.402405 
L 810.281489 96.526204 
L 822.956473 92.88957 
L 835.631456 89.463727 
L 848.30644 86.264062 
L 860.981423 83.276707 
L 873.656406 80.490134 
L 886.33139 77.875153 
L 899.006373 75.423233 
L 911.681357 73.157875 
L 924.35634 71.059413 
L 937.031323 69.091668 
L 949.706307 67.280245 
" style="fill:none;stroke:#434348;stroke-linecap:square;"/>
   </g>
   <g id="line2d_18">
    <path clip-path="url(#p67ff878056)" d="M 81.469943 353.223614 
L 87.807435 353.223556 
L 94.144927 353.223518 
L 100.482418 353.223499 
L 106.81991 353.223423 
L 113.157402 353.223327 
L 119.494893 353.223174 
L 125.832385 353.222697 
L 132.169877 353.222353 
L 138.507369 353.221331 
L 151.182352 353.220061 
L 163.857335 353.218868 
L 176.532319 353.217798 
L 189.207302 353.216251 
L 201.882286 353.213778 
L 214.557269 353.209815 
L 227.232252 353.196513 
L 239.907236 353.152682 
L 252.582219 353.029009 
L 265.257203 352.742531 
L 277.932186 352.192913 
L 290.607169 351.27158 
L 303.282153 349.856483 
L 315.957136 347.86823 
L 328.63212 345.24982 
L 341.307103 341.989537 
L 353.982087 338.062093 
L 366.65707 333.536952 
L 379.332053 328.443113 
L 392.007037 322.849895 
L 404.68202 316.767869 
L 417.357004 310.219677 
L 430.031987 303.270291 
L 442.70697 295.941159 
L 455.381954 288.246204 
L 468.056937 280.236075 
L 480.731921 271.9462 
L 493.406904 263.427907 
L 506.081887 254.692225 
L 518.756871 245.707421 
L 531.431854 236.519667 
L 544.106838 227.135446 
L 556.781821 217.643777 
L 569.456804 208.144086 
L 582.131788 198.729919 
L 594.806771 189.462294 
L 607.481755 180.369555 
L 620.156738 171.518795 
L 632.831722 162.965733 
L 645.506705 154.751765 
L 658.181688 146.939717 
L 670.856672 139.519924 
L 683.531655 132.454457 
L 696.206639 125.755252 
L 708.881622 119.433091 
L 721.556605 113.396023 
L 734.231589 107.690496 
L 746.906572 102.320999 
L 759.581556 97.279662 
L 772.256539 92.532166 
L 784.931522 88.038861 
L 797.606506 83.827891 
L 810.281489 79.873385 
L 822.956473 76.165537 
L 835.631456 72.68605 
L 848.30644 69.437293 
L 860.981423 66.417145 
L 873.656406 63.606155 
L 886.33139 60.997877 
L 899.006373 58.555097 
L 911.681357 56.286782 
L 924.35634 54.174722 
L 937.031323 52.212128 
L 949.706307 50.397222 
" style="fill:none;stroke:#90ed7d;stroke-linecap:square;"/>
   </g>
   <g id="line2d_19">
    <path clip-path="url(#p67ff878056)" d="M 81.469943 353.223614 
L 87.807435 353.223556 
L 94.144927 353.223518 
L 100.482418 353.223499 
L 106.81991 353.223423 
L 113.157402 353.223346 
L 119.494893 353.223155 
L 125.832385 353.222659 
L 132.169877 353.222277 
L 138.507369 353.22135 
L 151.182352 353.22008 
L 163.857335 353.218877 
L 176.532319 353.217798 
L 189.207302 353.216175 
L 201.882286 353.213654 
L 214.557269 353.209691 
L 227.232252 353.196474 
L 239.907236 353.152462 
L 252.582219 353.028885 
L 265.257203 352.742244 
L 277.932186 352.193954 
L 290.607169 351.274101 
L 303.282153 349.859893 
L 315.957136 347.874867 
L 328.63212 345.261279 
L 341.307103 342.010526 
L 353.982087 338.095879 
L 366.65707 333.586627 
L 379.332053 328.508659 
L 392.007037 322.938723 
L 404.68202 316.877142 
L 417.357004 310.351886 
L 430.031987 303.434653 
L 442.70697 296.13349 
L 455.381954 288.47785 
L 468.056937 280.51478 
L 480.731921 272.282449 
L 493.406904 263.820105 
L 506.081887 255.144039 
L 518.756871 246.227427 
L 531.431854 237.114453 
L 544.106838 227.806235 
L 556.781821 218.395104 
L 569.456804 208.984107 
L 582.131788 199.659578 
L 594.806771 190.488077 
L 607.481755 181.489933 
L 620.156738 172.737673 
L 632.831722 164.278509 
L 645.506705 156.163596 
L 658.181688 148.4532 
L 670.856672 141.123581 
L 683.531655 134.15205 
L 696.206639 127.554201 
L 708.881622 121.335038 
L 721.556605 115.396748 
L 734.231589 109.782837 
L 746.906572 104.50379 
L 759.581556 99.551099 
L 772.256539 94.891227 
L 784.931522 90.481278 
L 797.606506 86.346282 
L 810.281489 82.467922 
L 822.956473 78.83368 
L 835.631456 75.427197 
L 848.30644 72.246211 
L 860.981423 69.29669 
L 873.656406 66.563173 
L 886.33139 64.024938 
L 899.006373 61.652193 
L 911.681357 59.457895 
L 924.35634 57.417206 
L 937.031323 55.520711 
L 949.706307 53.775124 
" style="fill:none;stroke:#f7a35c;stroke-linecap:square;"/>
   </g>
   <g id="line2d_20">
    <path clip-path="url(#p67ff878056)" d="M 81.469943 353.223663 
L 87.807435 353.223636 
L 94.144927 353.223571 
L 100.482418 353.223557 
L 106.81991 353.223557 
L 113.157402 353.223465 
L 119.494893 353.223307 
L 125.832385 353.22303 
L 132.169877 353.22253 
L 138.507369 353.220876 
L 151.182352 353.218169 
L 163.857335 353.216587 
L 176.532319 353.214881 
L 189.207302 353.212575 
L 201.882286 353.209729 
L 214.557269 353.205513 
L 227.232252 353.195006 
L 239.907236 353.160544 
L 252.582219 353.059645 
L 265.257203 352.818021 
L 277.932186 352.329893 
L 290.607169 351.463417 
L 303.282153 350.077211 
L 315.957136 348.057173 
L 328.63212 345.305724 
L 341.307103 341.759363 
L 353.982087 337.390058 
L 366.65707 332.291832 
L 379.332053 326.498072 
L 392.007037 320.085612 
L 404.68202 313.157435 
L 417.357004 305.771703 
L 430.031987 297.974263 
L 442.70697 289.82895 
L 455.381954 281.370635 
L 468.056937 272.694808 
L 480.731921 263.841267 
L 493.406904 254.833859 
L 506.081887 245.758939 
L 518.756871 236.537136 
L 531.431854 227.21436 
L 544.106838 217.787042 
L 556.781821 208.304853 
L 569.456804 198.951978 
L 582.131788 189.775222 
L 594.806771 180.789285 
L 607.481755 172.030404 
L 620.156738 163.552437 
L 632.831722 155.438219 
L 645.506705 147.658165 
L 658.181688 140.28248 
L 670.856672 133.330862 
L 683.531655 126.72078 
L 696.206639 120.483459 
L 708.881622 114.613036 
L 721.556605 109.062527 
L 734.231589 103.803787 
L 746.906572 98.874395 
L 759.581556 94.259857 
L 772.256539 89.938835 
L 784.931522 85.904971 
L 797.606506 82.11333 
L 810.281489 78.561606 
L 822.956473 75.245412 
L 835.631456 72.161354 
L 848.30644 69.302265 
L 860.981423 66.633685 
L 873.656406 64.173847 
L 886.33139 61.899544 
L 899.006373 59.7808 
L 911.681357 57.821647 
L 924.35634 56.005108 
L 937.031323 54.331915 
L 949.706307 52.778054 
" style="fill:none;stroke:#8085e9;stroke-linecap:square;"/>
   </g>
   <g id="line2d_21">
    <path clip-path="url(#p67ff878056)" d="M 81.469943 353.223636 
L 87.807435 353.22361 
L 94.144927 353.223544 
L 100.482418 353.223531 
L 106.81991 353.223492 
L 113.157402 353.223412 
L 119.494893 353.223254 
L 125.832385 353.223017 
L 132.169877 353.222503 
L 138.507369 353.220863 
L 151.182352 353.218142 
L 163.857335 353.216601 
L 176.532319 353.214888 
L 189.207302 353.212602 
L 201.882286 353.209756 
L 214.557269 353.205566 
L 227.232252 353.195058 
L 239.907236 353.16063 
L 252.582219 353.059493 
L 265.257203 352.817844 
L 277.932186 352.329795 
L 290.607169 351.464432 
L 303.282153 350.079721 
L 315.957136 348.060434 
L 328.63212 345.309499 
L 341.307103 341.761504 
L 353.982087 337.392561 
L 366.65707 332.295864 
L 379.332053 326.509041 
L 392.007037 320.103327 
L 404.68202 313.187574 
L 417.357004 305.816619 
L 430.031987 298.035787 
L 442.70697 289.910462 
L 455.381954 281.484961 
L 468.056937 272.841935 
L 480.731921 264.02605 
L 493.406904 255.062965 
L 506.081887 246.034345 
L 518.756871 236.871345 
L 531.431854 227.612162 
L 544.106838 218.251131 
L 556.781821 208.838826 
L 569.456804 199.564577 
L 582.131788 190.465381 
L 594.806771 181.560546 
L 607.481755 172.890154 
L 620.156738 164.497612 
L 632.831722 156.467304 
L 645.506705 148.77351 
L 658.181688 141.486788 
L 670.856672 134.621511 
L 683.531655 128.096373 
L 696.206639 121.951526 
L 708.881622 116.177213 
L 721.556605 110.719369 
L 734.231589 105.543017 
L 746.906572 100.69268 
L 759.581556 96.160154 
L 772.256539 91.911223 
L 784.931522 87.948442 
L 797.606506 84.228787 
L 810.281489 80.742527 
L 822.956473 77.492613 
L 835.631456 74.473149 
L 848.30644 71.67675 
L 860.981423 69.069602 
L 873.656406 66.674945 
L 886.33139 64.460301 
L 899.006373 62.400044 
L 911.681357 60.502507 
L 924.35634 58.745859 
L 937.031323 57.126324 
L 949.706307 55.630891 
" style="fill:none;stroke:#f15c80;stroke-linecap:square;"/>
   </g>
   <g id="line2d_22">
    <path clip-path="url(#p67ff878056)" d="M 38.058125 353.2239 
L 993.118125 353.2239 
" style="fill:none;stroke:#dedede;stroke-linecap:square;stroke-width:2;"/>
   </g>
   <g id="text_16">
    <!-- FastQC: Adapter Content -->
    <defs>
     <path d="M 9.8125 72.90625 
L 51.703125 72.90625 
L 51.703125 64.59375 
L 19.671875 64.59375 
L 19.671875 43.109375 
L 48.578125 43.109375 
L 48.578125 34.8125 
L 19.671875 34.8125 
L 19.671875 0 
L 9.8125 0 
z
" id="DejaVuSans-70"/>
     <path d="M 34.28125 27.484375 
Q 23.390625 27.484375 19.1875 25 
Q 14.984375 22.515625 14.984375 16.5 
Q 14.984375 11.71875 18.140625 8.90625 
Q 21.296875 6.109375 26.703125 6.109375 
Q 34.1875 6.109375 38.703125 11.40625 
Q 43.21875 16.703125 43.21875 25.484375 
L 43.21875 27.484375 
z
M 52.203125 31.203125 
L 52.203125 0 
L 43.21875 0 
L 43.21875 8.296875 
Q 40.140625 3.328125 35.546875 0.953125 
Q 30.953125 -1.421875 24.3125 -1.421875 
Q 15.921875 -1.421875 10.953125 3.296875 
Q 6 8.015625 6 15.921875 
Q 6 25.140625 12.171875 29.828125 
Q 18.359375 34.515625 30.609375 34.515625 
L 43.21875 34.515625 
L 43.21875 35.40625 
Q 43.21875 41.609375 39.140625 45 
Q 35.0625 48.390625 27.6875 48.390625 
Q 23 48.390625 18.546875 47.265625 
Q 14.109375 46.140625 10.015625 43.890625 
L 10.015625 52.203125 
Q 14.9375 54.109375 19.578125 55.046875 
Q 24.21875 56 28.609375 56 
Q 40.484375 56 46.34375 49.84375 
Q 52.203125 43.703125 52.203125 31.203125 
z
" id="DejaVuSans-97"/>
     <path d="M 39.40625 66.21875 
Q 28.65625 66.21875 22.328125 58.203125 
Q 16.015625 50.203125 16.015625 36.375 
Q 16.015625 22.609375 22.328125 14.59375 
Q 28.65625 6.59375 39.40625 6.59375 
Q 50.140625 6.59375 56.421875 14.59375 
Q 62.703125 22.609375 62.703125 36.375 
Q 62.703125 50.203125 56.421875 58.203125 
Q 50.140625 66.21875 39.40625 66.21875 
z
M 53.21875 1.3125 
L 66.21875 -12.890625 
L 54.296875 -12.890625 
L 43.5 -1.21875 
Q 41.890625 -1.3125 41.03125 -1.359375 
Q 40.1875 -1.421875 39.40625 -1.421875 
Q 24.03125 -1.421875 14.8125 8.859375 
Q 5.609375 19.140625 5.609375 36.375 
Q 5.609375 53.65625 14.8125 63.9375 
Q 24.03125 74.21875 39.40625 74.21875 
Q 54.734375 74.21875 63.90625 63.9375 
Q 73.09375 53.65625 73.09375 36.375 
Q 73.09375 23.6875 67.984375 14.640625 
Q 62.890625 5.609375 53.21875 1.3125 
z
" id="DejaVuSans-81"/>
     <path d="M 64.40625 67.28125 
L 64.40625 56.890625 
Q 59.421875 61.53125 53.78125 63.8125 
Q 48.140625 66.109375 41.796875 66.109375 
Q 29.296875 66.109375 22.65625 58.46875 
Q 16.015625 50.828125 16.015625 36.375 
Q 16.015625 21.96875 22.65625 14.328125 
Q 29.296875 6.6875 41.796875 6.6875 
Q 48.140625 6.6875 53.78125 8.984375 
Q 59.421875 11.28125 64.40625 15.921875 
L 64.40625 5.609375 
Q 59.234375 2.09375 53.4375 0.328125 
Q 47.65625 -1.421875 41.21875 -1.421875 
Q 24.65625 -1.421875 15.125 8.703125 
Q 5.609375 18.84375 5.609375 36.375 
Q 5.609375 53.953125 15.125 64.078125 
Q 24.65625 74.21875 41.21875 74.21875 
Q 47.75 74.21875 53.53125 72.484375 
Q 59.328125 70.75 64.40625 67.28125 
z
" id="DejaVuSans-67"/>
     <path d="M 11.71875 12.40625 
L 22.015625 12.40625 
L 22.015625 0 
L 11.71875 0 
z
M 11.71875 51.703125 
L 22.015625 51.703125 
L 22.015625 39.3125 
L 11.71875 39.3125 
z
" id="DejaVuSans-58"/>
     <path d="M 34.1875 63.1875 
L 20.796875 26.90625 
L 47.609375 26.90625 
z
M 28.609375 72.90625 
L 39.796875 72.90625 
L 67.578125 0 
L 57.328125 0 
L 50.6875 18.703125 
L 17.828125 18.703125 
L 11.1875 0 
L 0.78125 0 
z
" id="DejaVuSans-65"/>
     <path d="M 45.40625 46.390625 
L 45.40625 75.984375 
L 54.390625 75.984375 
L 54.390625 0 
L 45.40625 0 
L 45.40625 8.203125 
Q 42.578125 3.328125 38.25 0.953125 
Q 33.9375 -1.421875 27.875 -1.421875 
Q 17.96875 -1.421875 11.734375 6.484375 
Q 5.515625 14.40625 5.515625 27.296875 
Q 5.515625 40.1875 11.734375 48.09375 
Q 17.96875 56 27.875 56 
Q 33.9375 56 38.25 53.625 
Q 42.578125 51.265625 45.40625 46.390625 
z
M 14.796875 27.296875 
Q 14.796875 17.390625 18.875 11.75 
Q 22.953125 6.109375 30.078125 6.109375 
Q 37.203125 6.109375 41.296875 11.75 
Q 45.40625 17.390625 45.40625 27.296875 
Q 45.40625 37.203125 41.296875 42.84375 
Q 37.203125 48.484375 30.078125 48.484375 
Q 22.953125 48.484375 18.875 42.84375 
Q 14.796875 37.203125 14.796875 27.296875 
z
" id="DejaVuSans-100"/>
     <path d="M 41.109375 46.296875 
Q 39.59375 47.171875 37.8125 47.578125 
Q 36.03125 48 33.890625 48 
Q 26.265625 48 22.1875 43.046875 
Q 18.109375 38.09375 18.109375 28.8125 
L 18.109375 0 
L 9.078125 0 
L 9.078125 54.6875 
L 18.109375 54.6875 
L 18.109375 46.1875 
Q 20.953125 51.171875 25.484375 53.578125 
Q 30.03125 56 36.53125 56 
Q 37.453125 56 38.578125 55.875 
Q 39.703125 55.765625 41.0625 55.515625 
z
" id="DejaVuSans-114"/>
    </defs>
    <g transform="translate(415.433125 19.3575)scale(0.16 -0.16)">
     <use xlink:href="#DejaVuSans-70"/>
     <use x="57.378906" xlink:href="#DejaVuSans-97"/>
     <use x="118.658203" xlink:href="#DejaVuSans-115"/>
     <use x="170.757812" xlink:href="#DejaVuSans-116"/>
     <use x="209.966797" xlink:href="#DejaVuSans-81"/>
     <use x="288.677734" xlink:href="#DejaVuSans-67"/>
     <use x="358.501953" xlink:href="#DejaVuSans-58"/>
     <use x="392.193359" xlink:href="#DejaVuSans-32"/>
     <use x="423.980469" xlink:href="#DejaVuSans-65"/>
     <use x="492.373047" xlink:href="#DejaVuSans-100"/>
     <use x="555.849609" xlink:href="#DejaVuSans-97"/>
     <use x="617.128906" xlink:href="#DejaVuSans-112"/>
     <use x="680.605469" xlink:href="#DejaVuSans-116"/>
     <use x="719.814453" xlink:href="#DejaVuSans-101"/>
     <use x="781.337891" xlink:href="#DejaVuSans-114"/>
     <use x="822.451172" xlink:href="#DejaVuSans-32"/>
     <use x="854.238281" xlink:href="#DejaVuSans-67"/>
     <use x="924.0625" xlink:href="#DejaVuSans-111"/>
     <use x="985.244141" xlink:href="#DejaVuSans-110"/>
     <use x="1048.623047" xlink:href="#DejaVuSans-116"/>
     <use x="1087.832031" xlink:href="#DejaVuSans-101"/>
     <use x="1149.355469" xlink:href="#DejaVuSans-110"/>
     <use x="1212.734375" xlink:href="#DejaVuSans-116"/>
    </g>
   </g>
  </g>
 </g>
 <defs>
  <clipPath id="p67ff878056">
   <rect height="317.968" width="955.06" x="38.058125" y="35.2559"/>
  </clipPath>
 </defs>
</svg>
